<?xml version="1.0" encoding="UTF-8" standalone="no"?>
<!DOCTYPE svg PUBLIC "-//W3C//DTD SVG 1.0//EN" "http://www.w3.org/TR/2001/REC-SVG-20010904/DTD/svg10.dtd">
<!-- 由 Microsoft Visio 11.0, SVG Export, v1.0 產生 y33.0257b.svg Page-1 -->
<svg xmlns="http://www.w3.org/2000/svg" xmlns:xlink="http://www.w3.org/1999/xlink" xmlns:ev="http://www.w3.org/2001/xml-events"
		xmlns:v="http://schemas.microsoft.com/visio/2003/SVGExtensions/" width="5.90551in" height="3.93701in"
		viewBox="0 0 425.197 283.465" xml:space="preserve" color-interpolation-filters="sRGB" class="st10">
	<v:documentProperties v:langID="1028" v:metric="true" v:viewMarkup="false">
		<v:userDefs>
			<v:ud v:nameU="msvSubprocessMaster" v:prompt="" v:val="VT4(Box)"/>
			<v:ud v:nameU="msvNoAutoConnect" v:val="VT0(1):26"/>
		</v:userDefs>
	</v:documentProperties>

	<style type="text/css">
	<![CDATA[
		.st1 {fill:none;stroke:none;stroke-linecap:round;stroke-linejoin:round;stroke-width:0.75}
		.st2 {fill:#000000;font-family:新細明體;font-size:1.33333em}
		.st3 {fill:none;stroke:#000000;stroke-linecap:round;stroke-linejoin:round;stroke-width:1}
		.st4 {stroke:#000000;stroke-linecap:round;stroke-linejoin:round;stroke-width:1}
		.st5 {marker-end:url(#mrkr7-61);stroke:#000000;stroke-dasharray:3,3;stroke-linecap:round;stroke-linejoin:round;stroke-width:1}
		.st6 {fill:#000000;fill-opacity:1;stroke:#000000;stroke-opacity:1;stroke-width:0.28409090909091}
		.st7 {marker-end:url(#mrkr7-61);stroke:#000000;stroke-linecap:round;stroke-linejoin:round;stroke-width:1}
		.st8 {stroke:#000000;stroke-dasharray:3,3;stroke-linecap:round;stroke-linejoin:round;stroke-width:1}
		.st9 {stroke:#000000;stroke-linecap:round;stroke-linejoin:round;stroke-opacity:0;stroke-width:1}
		.st10 {fill:none;fill-rule:evenodd;font-size:12px;overflow:visible;stroke-linecap:square;stroke-miterlimit:3}
	]]>
	</style>

	<defs id="Markers">
		<g id="lend7">
			<path
					d="M 1.84309 -0.959456 C 1.43792 -0.380801 0.784503 -0.0260255 0.078527 -0.00137091 L 0.0785229 0.00137043 C 0.784499 0.0260231 1.43791 0.380798 1.84309 0.959452 "
					style="stroke-linecap:round;stroke-linejoin:round;fill:none"/>
		</g>
		<marker id="mrkr7-61" class="st6" v:arrowType="7" v:arrowSize="2" orient="auto" markerUnits="strokeWidth"
				overflow="visible">
			<use xlink:href="#lend7" transform="scale(-3.52,-3.52) "/>
		</marker>
	</defs>
	<g v:mID="0" v:index="1" v:groupContext="foregroundPage">
		<title>頁-1</title>
		<v:pageProperties v:drawingScale="0.0393701" v:pageScale="0.0393701" v:drawingUnits="24" v:shadowOffsetX="8.50394"
				v:shadowOffsetY="-8.50394"/>
		<g id="group108-1" transform="translate(112.543,280.63) rotate(-90)" v:mID="108" v:groupContext="group">
			<title>工作表.108</title>
			<g id="shape77-2" v:mID="77" v:groupContext="shape" transform="translate(386.929,-85.0394) rotate(90)">
				<title>工作表.77</title>
				<desc>決擇分之綜合</desc>
				<v:textBlock v:margins="rect(4,4,4,4)" v:tabSpace="42.5197"/>
				<v:textRect cx="52.4409" cy="231.024" width="104.89" height="104.882"/>
				<rect x="0" y="178.583" width="104.882" height="104.882" class="st1"/>
				<text x="4.44" y="235.82" class="st2" v:langID="1028"><v:paragraph v:horizAlign="1"/><v:tabList/>決擇分之綜合</text>			</g>
			<g id="shape78-5" v:mID="78" v:groupContext="shape" transform="translate(397.145,-143.747) rotate(45)">
				<title>工作表.78</title>
				<desc>種子</desc>
				<v:textBlock v:margins="rect(4,4,4,4)" v:tabSpace="42.5197"/>
				<v:textRect cx="21.2598" cy="262.205" width="42.52" height="42.5197"/>
				<rect x="0" y="240.945" width="42.5197" height="42.5197" class="st1"/>
				<text x="5.26" y="267.01" class="st2" v:langID="1028"><v:paragraph v:horizAlign="1"/><v:tabList/>種子</text>			</g>
			<g id="shape80-8" v:mID="80" v:groupContext="shape" transform="translate(512.22,147.402) rotate(90)">
				<title>工作表.80</title>
				<desc>唯識論加種子</desc>
				<v:textBlock v:margins="rect(4,4,4,4)" v:tabSpace="42.5197"/>
				<v:textRect cx="68.0315" cy="271.276" width="136.07" height="24.378"/>
				<rect x="0" y="259.087" width="136.063" height="24.378" class="st1"/>
				<text x="4.03" y="276.08" class="st2" v:langID="1028"><v:paragraph v:horizAlign="1"/><v:tabList/>（唯識論加種子）</text>			</g>
			<g id="shape81-11" v:mID="81" v:groupContext="shape" transform="translate(460.63,148.819) rotate(90)">
				<title>工作表.81</title>
				<desc>似根</desc>
				<v:textBlock v:margins="rect(4,4,4,4)" v:tabSpace="42.5197"/>
				<v:textRect cx="21.2598" cy="262.205" width="42.52" height="42.5197"/>
				<rect x="0" y="240.945" width="42.5197" height="42.5197" class="st1"/>
				<text x="5.26" y="267.01" class="st2" v:langID="1028"><v:paragraph v:horizAlign="1"/><v:tabList/>似根</text>			</g>
			<g id="shape82-14" v:mID="82" v:groupContext="shape" transform="translate(432.283,148.819) rotate(90)">
				<title>工作表.82</title>
				<desc>似塵</desc>
				<v:textBlock v:margins="rect(4,4,4,4)" v:tabSpace="42.5197"/>
				<v:textRect cx="21.2598" cy="262.205" width="42.52" height="42.5197"/>
				<rect x="0" y="240.945" width="42.5197" height="42.5197" class="st1"/>
				<text x="5.26" y="267.01" class="st2" v:langID="1028"><v:paragraph v:horizAlign="1"/><v:tabList/>似塵</text>			</g>
			<g id="shape84-17" v:mID="84" v:groupContext="shape" transform="translate(389.764,148.819) rotate(90)">
				<title>工作表.84</title>
				<desc>似我</desc>
				<v:textBlock v:margins="rect(4,4,4,4)" v:tabSpace="42.5197"/>
				<v:textRect cx="21.2598" cy="262.205" width="42.52" height="42.5197"/>
				<rect x="0" y="240.945" width="42.5197" height="42.5197" class="st1"/>
				<text x="5.26" y="267.01" class="st2" v:langID="1028"><v:paragraph v:horizAlign="1"/><v:tabList/>似我</text>			</g>
			<g id="shape86-20" v:mID="86" v:groupContext="shape" transform="translate(333.071,148.819) rotate(90)">
				<title>工作表.86</title>
				<desc>似了</desc>
				<v:textBlock v:margins="rect(4,4,4,4)" v:tabSpace="42.5197"/>
				<v:textRect cx="21.2598" cy="262.205" width="42.52" height="42.5197"/>
				<rect x="0" y="240.945" width="42.5197" height="42.5197" class="st1"/>
				<text x="5.26" y="267.01" class="st2" v:langID="1028"><v:paragraph v:horizAlign="1"/><v:tabList/>似了</text>			</g>
			<g id="shape87-23" v:mID="87" v:groupContext="shape" transform="translate(290.551,63.7795) rotate(90)">
				<title>工作表.87</title>
				<desc>分別</desc>
				<v:textBlock v:margins="rect(4,4,4,4)" v:tabSpace="42.5197"/>
				<v:textRect cx="21.2598" cy="262.205" width="42.52" height="42.5197"/>
				<rect x="0" y="240.945" width="42.5197" height="42.5197" class="st1"/>
				<text x="5.26" y="267.01" class="st2" v:langID="1028"><v:paragraph v:horizAlign="1"/><v:tabList/>分別</text>			</g>
			<g id="shape88-26" v:mID="88" v:groupContext="shape" transform="translate(283.465,133.228) rotate(90)">
				<title>工作表.88</title>
				<desc>所分別</desc>
				<v:textBlock v:margins="rect(4,4,4,4)" v:tabSpace="42.5197"/>
				<v:textRect cx="28.3465" cy="255.118" width="56.7" height="56.6929"/>
				<rect x="0" y="226.772" width="56.6929" height="56.6929" class="st1"/>
				<text x="4.35" y="259.92" class="st2" v:langID="1028"><v:paragraph v:horizAlign="1"/><v:tabList/>所分別</text>			</g>
			<g id="shape62-29" v:mID="62" v:groupContext="shape" transform="translate(396.85,70.8661) rotate(90)">
				<title>工作表.62</title>
				<desc>意</desc>
				<v:textBlock v:margins="rect(4,4,4,4)" v:tabSpace="42.5197"/>
				<v:textRect cx="14.1732" cy="269.291" width="28.35" height="28.3465"/>
				<ellipse cx="14.1732" cy="269.291" rx="14.1732" ry="14.1732" class="st3"/>
				<text x="6.17" y="274.09" class="st2" v:langID="1028"><v:paragraph v:horizAlign="1"/><v:tabList/>意</text>			</g>
			<g id="shape83-32" v:mID="83" v:groupContext="shape" transform="translate(340.157,70.8661) rotate(90)">
				<title>工作表.83</title>
				<desc>識</desc>
				<v:textBlock v:margins="rect(4,4,4,4)" v:tabSpace="42.5197"/>
				<v:textRect cx="14.1732" cy="269.291" width="28.35" height="28.3465"/>
				<ellipse cx="14.1732" cy="269.291" rx="14.1732" ry="14.1732" class="st3"/>
				<text x="6.17" y="274.09" class="st2" v:langID="1028"><v:paragraph v:horizAlign="1"/><v:tabList/>識</text>			</g>
			<g id="shape85-35" v:mID="85" v:groupContext="shape" transform="translate(467.717,70.8661) rotate(90)">
				<title>工作表.85</title>
				<desc>心</desc>
				<v:textBlock v:margins="rect(4,4,4,4)" v:tabSpace="42.5197"/>
				<v:textRect cx="14.1732" cy="269.291" width="28.35" height="28.3465"/>
				<ellipse cx="14.1732" cy="269.291" rx="14.1732" ry="14.1732" class="st3"/>
				<text x="6.17" y="274.09" class="st2" v:langID="1028"><v:paragraph v:horizAlign="1"/><v:tabList/>心</text>			</g>
			<g id="shape25-38" v:mID="25" v:groupContext="shape" transform="translate(141.732,-260.787)">
				<title>工作表.25</title>
				<path d="M0 283.46 L28.35 283.46" class="st4"/>
			</g>
			<g id="shape79-41" v:mID="79" v:groupContext="shape" transform="translate(453.543,-85.0394) rotate(90)">
				<title>工作表.79</title>
				<path d="M0 283.46 L107.72 283.46" class="st4"/>
			</g>
			<g id="shape89-44" v:mID="89" v:groupContext="shape" transform="translate(425.197,-85.0394) rotate(90)">
				<title>工作表.89</title>
				<path d="M0 283.46 L107.72 283.46" class="st4"/>
			</g>
			<g id="shape90-47" v:mID="90" v:groupContext="shape" transform="translate(141.732,-368.504)">
				<title>工作表.90</title>
				<path d="M0 283.46 L28.35 283.46" class="st4"/>
			</g>
			<g id="shape93-50" v:mID="93" v:groupContext="shape" transform="translate(85.0394,-198.425)">
				<title>工作表.93</title>
				<path d="M0 283.46 L28.35 283.46" class="st4"/>
			</g>
			<g id="shape94-53" v:mID="94" v:groupContext="shape" transform="translate(141.732,-198.425)">
				<title>工作表.94</title>
				<path d="M0 283.46 L42.52 283.46" class="st4"/>
			</g>
			<g id="shape95-56" v:mID="95" v:groupContext="shape" transform="translate(448.455,-58.0253) rotate(56.3099)">
				<title>工作表.95</title>
				<path d="M0 283.46 L51.1 283.46" class="st5"/>
			</g>
			<g id="shape96-62" v:mID="96" v:groupContext="shape" transform="translate(481.89,99.2126) rotate(90)">
				<title>工作表.96</title>
				<path d="M0 283.46 L51.02 283.46" class="st7"/>
			</g>
			<g id="shape97-67" v:mID="97" v:groupContext="shape" transform="translate(446.218,236.875) rotate(119.055)">
				<title>工作表.97</title>
				<path d="M0 283.46 L58.37 283.46" class="st7"/>
			</g>
			<g id="shape98-72" v:mID="98" v:groupContext="shape" transform="translate(411.024,99.2126) rotate(90)">
				<title>工作表.98</title>
				<path d="M0 283.46 L51.02 283.46" class="st7"/>
			</g>
			<g id="shape99-77" v:mID="99" v:groupContext="shape" transform="translate(354.331,99.2126) rotate(90)">
				<title>工作表.99</title>
				<path d="M0 283.46 L51.02 283.46" class="st7"/>
			</g>
			<g id="shape100-82" v:mID="100" v:groupContext="shape" transform="translate(42.5197,-198.425)">
				<title>工作表.100</title>
				<path d="M0 283.46 L14.17 283.46" class="st4"/>
			</g>
			<g id="shape92-85" v:mID="92" v:groupContext="shape" transform="translate(325.984,63.7795) rotate(90)">
				<title>工作表.92</title>
				<path d="M0 283.46 L42.52 283.46" class="st4"/>
			</g>
			<g id="shape102-88" v:mID="102" v:groupContext="shape" transform="translate(297.638,63.7795) rotate(90)">
				<title>工作表.102</title>
				<path d="M0 283.46 L42.52 283.46" class="st4"/>
			</g>
			<g id="shape103-91" v:mID="103" v:groupContext="shape" transform="translate(14.1732,-219.685)">
				<title>工作表.103</title>
				<path d="M0 283.46 L28.35 283.46" class="st4"/>
			</g>
			<g id="shape104-94" v:mID="104" v:groupContext="shape" transform="translate(14.1732,-177.165)">
				<title>工作表.104</title>
				<path d="M0 283.46 L28.35 283.46" class="st4"/>
			</g>
			<g id="shape64-97" v:mID="64" v:groupContext="shape" transform="translate(14.1732,-85.0394)">
				<title>工作表.64</title>
				<path d="M0 283.46 L28.35 283.46" class="st4"/>
			</g>
			<g id="shape101-100" v:mID="101" v:groupContext="shape" transform="translate(297.638,127.559) rotate(90)">
				<title>工作表.101</title>
				<path d="M0 283.46 L70.87 283.46" class="st4"/>
			</g>
			<g id="shape106-103" v:mID="106" v:groupContext="shape" transform="translate(325.984,127.559) rotate(90)">
				<title>工作表.106</title>
				<path d="M0 283.46 L70.87 283.46" class="st4"/>
			</g>
			<g id="shape107-106" v:mID="107" v:groupContext="shape" transform="translate(14.1732,-155.906)">
				<title>工作表.107</title>
				<path d="M0 283.46 L28.35 283.46" class="st4"/>
			</g>
			<g id="shape91-109" v:mID="91" v:groupContext="shape" transform="translate(510.236,155.906) rotate(90)">
				<title>工作表.91</title>
				<path d="M0 283.46 L90.71 283.46" class="st8"/>
			</g>
			<g id="shape105-112" v:mID="105" v:groupContext="shape" transform="translate(486.152,42.379) rotate(95.7106)">
				<title>工作表.105</title>
				<path d="M0 283.46 L56.98 283.46" class="st8"/>
			</g>
		</g>
		<g id="group1-115" transform="translate(109.709,283.465) rotate(-90)" v:mID="1" v:groupContext="group">
			<title>工作表.1</title>
			<g id="shape109-116" v:mID="109" v:groupContext="shape" transform="translate(0,-374.173)">
				<title>工作表.109</title>
				<path d="M0 283.46 L266.46 283.46" class="st9"/>
			</g>
			<g id="shape110-119" v:mID="110" v:groupContext="shape">
				<title>工作表.110</title>
				<path d="M0 283.46 L266.46 283.46" class="st9"/>
			</g>
			<g id="shape24-122" v:mID="24" v:groupContext="shape" transform="translate(-17.0079,283.465) rotate(-90)">
				<title>工作表.24</title>
				<path d="M0 283.46 L374.17 283.46" class="st9"/>
			</g>
			<g id="shape56-125" v:mID="56" v:groupContext="shape" transform="translate(-283.465,283.465) rotate(-90)">
				<title>工作表.56</title>
				<path d="M0 283.46 L374.17 283.46" class="st9"/>
			</g>
		</g>
	</g>
</svg>
