<?xml version="1.0" encoding="UTF-8" standalone="no"?>
<!DOCTYPE svg PUBLIC "-//W3C//DTD SVG 1.1//EN" "http://www.w3.org/Graphics/SVG/1.1/DTD/svg11.dtd">
<!-- 由 Microsoft Visio, SVG Export 產生 y33.0111.svg 頁-1 -->
<svg xmlns="http://www.w3.org/2000/svg" xmlns:xlink="http://www.w3.org/1999/xlink" xmlns:ev="http://www.w3.org/2001/xml-events"
		width="7.49247in" height="14.4413in" viewBox="0 0 539.458 1039.77" xml:space="preserve" color-interpolation-filters="sRGB"
		class="st4">
	<style type="text/css">
	<![CDATA[
		.st1 {fill:none;stroke:none;stroke-linecap:round;stroke-linejoin:round;stroke-width:0.75}
		.st2 {fill:#000000;font-family:新細明體;font-size:1.33333em}
		.st3 {stroke:#000000;stroke-linecap:round;stroke-linejoin:round;stroke-width:1}
		.st4 {fill:none;fill-rule:evenodd;font-size:12px;overflow:visible;stroke-linecap:square;stroke-miterlimit:3}
	]]>
	</style>

	<g>
		<title>頁-1</title>
		<g id="group154-1" transform="translate(0.5,-0.5)">
			<title>工作表.154</title>
			<g id="shape1-2" transform="translate(38.2677,-962.362)">
				<title>工作表.1</title>
				<desc>上座</desc>
				<rect x="0" y="1019.93" width="42.5197" height="19.8425" class="st1"/>
				<text x="5.26" y="1034.65" class="st2">上座</text>			</g>
			<g id="shape2-5" transform="translate(127.559,-1004.88)">
				<title>工作表.2</title>
				<desc>化地</desc>
				<rect x="0" y="1019.93" width="42.5197" height="19.8425" class="st1"/>
				<text x="5.26" y="1034.65" class="st2">化地</text>			</g>
			<g id="shape3-8" transform="translate(127.559,-919.843)">
				<title>工作表.3</title>
				<desc>犢子</desc>
				<rect x="0" y="1019.93" width="42.5197" height="19.8425" class="st1"/>
				<text x="5.26" y="1034.65" class="st2">犢子</text>			</g>
			<g id="shape4-11" transform="translate(212.598,-1019.06)">
				<title>工作表.4</title>
				<desc>說一切有</desc>
				<rect x="0" y="1019.93" width="73.7008" height="19.8425" class="st1"/>
				<text x="4.85" y="1034.65" class="st2">說一切有</text>			</g>
			<g id="shape5-14" transform="translate(325.984,-1019.06)">
				<title>工作表.5</title>
				<desc>飲光</desc>
				<rect x="0" y="1019.93" width="42.5197" height="19.8425" class="st1"/>
				<text x="5.26" y="1034.65" class="st2">飲光</text>			</g>
			<g id="shape6-17" transform="translate(412.441,-1019.06)">
				<title>工作表.6</title>
				<desc>說轉</desc>
				<rect x="0" y="1019.93" width="42.5197" height="19.8425" class="st1"/>
				<text x="5.26" y="1034.65" class="st2">說轉</text>			</g>
			<g id="shape7-20" transform="translate(496.063,-1019.06)">
				<title>工作表.7</title>
				<desc>說經</desc>
				<rect x="0" y="1019.93" width="42.5197" height="19.8425" class="st1"/>
				<text x="5.26" y="1034.65" class="st2">說經</text>			</g>
			<g id="shape8-23" transform="translate(212.598,-990.709)">
				<title>工作表.8</title>
				<desc>法藏</desc>
				<rect x="0" y="1019.93" width="42.5197" height="19.8425" class="st1"/>
				<text x="5.26" y="1034.65" class="st2">法藏</text>			</g>
			<g id="shape9-26" transform="translate(212.598,-948.189)">
				<title>工作表.9</title>
				<desc>法上</desc>
				<rect x="0" y="1019.93" width="42.5197" height="19.8425" class="st1"/>
				<text x="5.26" y="1034.65" class="st2">法上</text>			</g>
			<g id="shape10-29" transform="translate(212.598,-919.843)">
				<title>工作表.10</title>
				<desc>賢胄</desc>
				<rect x="0" y="1019.93" width="42.5197" height="19.8425" class="st1"/>
				<text x="5.26" y="1034.65" class="st2">賢胄</text>			</g>
			<g id="shape11-32" transform="translate(212.598,-891.496)">
				<title>工作表.11</title>
				<desc>六城</desc>
				<rect x="0" y="1019.93" width="42.5197" height="19.8425" class="st1"/>
				<text x="5.26" y="1034.65" class="st2">六城</text>			</g>
			<g id="shape12-35" transform="translate(212.598,-863.15)">
				<title>工作表.12</title>
				<desc>正量</desc>
				<rect x="0" y="1019.93" width="42.5197" height="19.8425" class="st1"/>
				<text x="5.26" y="1034.65" class="st2">正量</text>			</g>
			<g id="shape13-38" transform="translate(2.83465,-985.606)">
				<title>工作表.13</title>
				<desc>分</desc>
				<rect x="0" y="1017.1" width="22.6772" height="22.6772" class="st1"/>
				<text x="4" y="1033.23" class="st2">分</text>			</g>
			<g id="shape14-41" transform="translate(2.83465,-968.598)">
				<title>工作表.14</title>
				<desc>別</desc>
				<rect x="0" y="1017.1" width="22.6772" height="22.6772" class="st1"/>
				<text x="4" y="1033.23" class="st2">別</text>			</g>
			<g id="shape15-44" transform="translate(2.83465,-951.591)">
				<title>工作表.15</title>
				<desc>說</desc>
				<rect x="0" y="1017.1" width="22.6772" height="22.6772" class="st1"/>
				<text x="4" y="1033.23" class="st2">說</text>			</g>
			<g id="shape16-47" transform="translate(2.83465,-934.583)">
				<title>工作表.16</title>
				<desc>傳</desc>
				<rect x="0" y="1017.1" width="22.6772" height="22.6772" class="st1"/>
				<text x="4" y="1033.23" class="st2">傳</text>			</g>
			<g id="shape22-50" transform="translate(-650.191,-667.741) rotate(-45)">
				<title>工作表.22</title>
				<path d="M0 1039.77 L60.13 1039.77" class="st3"/>
			</g>
			<g id="shape23-53" transform="translate(-607.671,845.239) rotate(-135)">
				<title>工作表.23</title>
				<path d="M0 1039.77 L60.13 1039.77" class="st3"/>
			</g>
			<g id="shape24-56" transform="translate(-619.22,790.565) rotate(-126.87)">
				<title>工作表.24</title>
				<path d="M0 1039.77 L70.87 1039.77" class="st3"/>
			</g>
			<g id="shape25-59" transform="translate(-158.726,-961.445) rotate(-18.4349)">
				<title>工作表.25</title>
				<path d="M0 1039.77 L44.82 1039.77" class="st3"/>
			</g>
			<g id="shape26-62" transform="translate(-116.207,1025.56) rotate(-161.565)">
				<title>工作表.26</title>
				<path d="M0 1039.77 L44.82 1039.77" class="st3"/>
			</g>
			<g id="shape27-65" transform="translate(325.984,1050.57) rotate(180)">
				<title>工作表.27</title>
				<path d="M0 1039.77 L42.52 1039.77" class="st3"/>
			</g>
			<g id="shape29-68" transform="translate(-364.164,1003.5) rotate(-146.31)">
				<title>工作表.29</title>
				<path d="M0 1039.77 L51.1 1039.77" class="st3"/>
			</g>
			<g id="shape30-71" transform="translate(411.024,1050.57) rotate(180)">
				<title>工作表.30</title>
				<path d="M0 1039.77 L42.52 1039.77" class="st3"/>
			</g>
			<g id="shape31-74" transform="translate(496.063,1050.57) rotate(180)">
				<title>工作表.31</title>
				<path d="M0 1039.77 L42.52 1039.77" class="st3"/>
			</g>
			<g id="shape28-77" transform="translate(212.598,1149.78) rotate(180)">
				<title>工作表.28</title>
				<path d="M0 1039.77 L42.52 1039.77" class="st3"/>
			</g>
			<g id="shape32-80" transform="translate(-406.683,-755.134) rotate(-33.6901)">
				<title>工作表.32</title>
				<path d="M0 1039.77 L51.1 1039.77" class="st3"/>
			</g>
			<g id="group56-83" transform="translate(-1011.43,373.631) rotate(-90)">
				<title>工作表.56</title>
				<g id="group37-84">
					<title>工作表.37</title>
					<g id="shape59-85" transform="translate(1110.64,1011.43) rotate(90)">
						<title>工作表.59</title>
						<path d="M0 1039.77 L28.35 1039.77" class="st3"/>
					</g>
					<g id="shape60-88" transform="translate(0,-28.3465)">
						<title>工作表.60</title>
						<path d="M0 1039.77 L70.87 1039.77" class="st3"/>
					</g>
					<g id="shape61-91" transform="translate(1039.77,1011.43) rotate(90)">
						<title>工作表.61</title>
						<path d="M0 1039.77 L28.35 1039.77" class="st3"/>
					</g>
					<g id="shape62-94">
						<title>工作表.62</title>
						<path d="M0 1039.77 L70.87 1039.77" class="st3"/>
					</g>
				</g>
			</g>
			<g id="shape41-97" transform="translate(38.2677,-693.071)">
				<title>工作表.41</title>
				<desc>上座</desc>
				<rect x="0" y="1019.93" width="42.5197" height="19.8425" class="st1"/>
				<text x="5.26" y="1034.65" class="st2">上座</text>			</g>
			<g id="shape42-100" transform="translate(128.976,-721.417)">
				<title>工作表.42</title>
				<desc>一切有</desc>
				<rect x="0" y="1019.93" width="56.6929" height="19.8425" class="st1"/>
				<text x="4.35" y="1034.65" class="st2">一切有</text>			</g>
			<g id="shape43-103" transform="translate(127.559,-693.071)">
				<title>工作表.43</title>
				<desc>雪山</desc>
				<rect x="0" y="1019.93" width="42.5197" height="19.8425" class="st1"/>
				<text x="5.26" y="1034.65" class="st2">雪山</text>			</g>
			<g id="shape44-106" transform="translate(127.559,-650.551)">
				<title>工作表.44</title>
				<desc>犢子</desc>
				<rect x="0" y="1019.93" width="42.5197" height="19.8425" class="st1"/>
				<text x="5.26" y="1034.65" class="st2">犢子</text>			</g>
			<g id="shape45-109" transform="translate(212.598,-728.504)">
				<title>工作表.45</title>
				<desc>分別說</desc>
				<rect x="0" y="1019.93" width="56.6929" height="19.8425" class="st1"/>
				<text x="4.35" y="1034.65" class="st2">分別說</text>			</g>
			<g id="shape46-112" transform="translate(212.598,-707.244)">
				<title>工作表.46</title>
				<desc>師長</desc>
				<rect x="0" y="1019.93" width="42.5197" height="19.8425" class="st1"/>
				<text x="5.26" y="1034.65" class="st2">師長</text>			</g>
			<g id="shape47-115" transform="translate(212.598,-664.724)">
				<title>工作表.47</title>
				<desc>大山</desc>
				<rect x="0" y="1019.93" width="42.5197" height="19.8425" class="st1"/>
				<text x="5.26" y="1034.65" class="st2">大山</text>			</g>
			<g id="shape48-118" transform="translate(212.598,-636.378)">
				<title>工作表.48</title>
				<desc>正量</desc>
				<rect x="0" y="1019.93" width="42.5197" height="19.8425" class="st1"/>
				<text x="5.26" y="1034.65" class="st2">正量</text>			</g>
			<g id="shape49-121" transform="translate(325.984,-778.11)">
				<title>工作表.49</title>
				<desc>紅衣</desc>
				<rect x="0" y="1019.93" width="42.5197" height="19.8425" class="st1"/>
				<text x="5.26" y="1034.65" class="st2">紅衣</text>			</g>
			<g id="shape50-124" transform="translate(325.984,-749.764)">
				<title>工作表.50</title>
				<desc>多說</desc>
				<rect x="0" y="1019.93" width="42.5197" height="19.8425" class="st1"/>
				<text x="5.26" y="1034.65" class="st2">多說</text>			</g>
			<g id="shape51-127" transform="translate(325.984,-721.417)">
				<title>工作表.51</title>
				<desc>法藏</desc>
				<rect x="0" y="1019.93" width="42.5197" height="19.8425" class="st1"/>
				<text x="5.26" y="1034.65" class="st2">法藏</text>			</g>
			<g id="shape52-130" transform="translate(325.984,-693.071)">
				<title>工作表.52</title>
				<desc>飲光</desc>
				<rect x="0" y="1019.93" width="42.5197" height="19.8425" class="st1"/>
				<text x="5.26" y="1034.65" class="st2">飲光</text>			</g>
			<g id="shape53-133" transform="translate(325.984,-664.724)">
				<title>工作表.53</title>
				<desc>法勝</desc>
				<rect x="0" y="1019.93" width="42.5197" height="19.8425" class="st1"/>
				<text x="5.26" y="1034.65" class="st2">法勝</text>			</g>
			<g id="shape54-136" transform="translate(325.984,-636.378)">
				<title>工作表.54</title>
				<desc>賢道</desc>
				<rect x="0" y="1019.93" width="42.5197" height="19.8425" class="st1"/>
				<text x="5.26" y="1034.65" class="st2">賢道</text>			</g>
			<g id="shape38-139" transform="translate(2.83465,-714.331)">
				<title>工作表.38</title>
				<desc>正</desc>
				<rect x="0" y="1017.1" width="22.6772" height="22.6772" class="st1"/>
				<text x="4" y="1033.23" class="st2">正</text>			</g>
			<g id="shape39-142" transform="translate(2.83465,-691.654)">
				<title>工作表.39</title>
				<desc>量</desc>
				<rect x="0" y="1017.1" width="22.6772" height="22.6772" class="st1"/>
				<text x="4" y="1033.23" class="st2">量</text>			</g>
			<g id="shape40-145" transform="translate(2.83465,-666.142)">
				<title>工作表.40</title>
				<desc>傳</desc>
				<rect x="0" y="1017.1" width="22.6772" height="22.6772" class="st1"/>
				<text x="4" y="1033.23" class="st2">傳</text>			</g>
			<g id="shape67-148" transform="translate(-607.671,1114.53) rotate(-135)">
				<title>工作表.67</title>
				<path d="M0 1039.77 L60.13 1039.77" class="st3"/>
			</g>
			<g id="shape68-151" transform="translate(-491.723,-528.363) rotate(-33.6901)">
				<title>工作表.68</title>
				<path d="M0 1039.77 L51.1 1039.77" class="st3"/>
			</g>
			<g id="shape69-154" transform="translate(127.559,1376.55) rotate(180)">
				<title>工作表.69</title>
				<path d="M0 1039.77 L42.52 1039.77" class="st3"/>
			</g>
			<g id="shape70-157" transform="translate(-116.207,1379.89) rotate(-161.565)">
				<title>工作表.70</title>
				<path d="M0 1039.77 L44.82 1039.77" class="st3"/>
			</g>
			<g id="shape71-160" transform="translate(-252.402,1252.61) rotate(-153.435)">
				<title>工作表.71</title>
				<path d="M0 1039.77 L31.69 1039.77" class="st3"/>
			</g>
			<g id="shape72-163" transform="translate(541.403,1351.54) rotate(161.565)">
				<title>工作表.72</title>
				<path d="M0 1039.77 L44.82 1039.77" class="st3"/>
			</g>
			<g id="shape73-166" transform="translate(-60.1776,1358.88) rotate(-158.199)">
				<title>工作表.73</title>
				<path d="M0 1039.77 L76.33 1039.77" class="st3"/>
			</g>
			<g id="shape74-169" transform="translate(464.78,1310.08) rotate(165.964)">
				<title>工作表.74</title>
				<path d="M0 1039.77 L29.22 1039.77" class="st3"/>
			</g>
			<g id="shape75-172" transform="translate(325.984,1404.9) rotate(180)">
				<title>工作表.75</title>
				<path d="M0 1039.77 L70.87 1039.77" class="st3"/>
			</g>
			<g id="shape76-175" transform="translate(-225.094,1218.51) rotate(-147.995)">
				<title>工作表.76</title>
				<path d="M0 1039.77 L66.85 1039.77" class="st3"/>
			</g>
			<g id="shape77-178" transform="translate(197.016,1340.18) rotate(-172.875)">
				<title>工作表.77</title>
				<path d="M0 1039.77 L57.13 1039.77" class="st3"/>
			</g>
			<g id="shape78-181" transform="translate(691.073,1253.66) rotate(159.444)">
				<title>工作表.78</title>
				<path d="M0 1039.77 L60.55 1039.77" class="st3"/>
			</g>
			<g id="shape79-184" transform="translate(1010.68,1034.25) rotate(138.814)">
				<title>工作表.79</title>
				<path d="M0 1039.77 L75.33 1039.77" class="st3"/>
			</g>
			<g id="shape82-187" transform="translate(2.83465,-408.189)">
				<title>工作表.82</title>
				<desc>眾</desc>
				<rect x="0" y="1017.1" width="22.6772" height="22.6772" class="st1"/>
				<text x="4" y="1033.23" class="st2">眾</text>			</g>
			<g id="shape84-190" transform="translate(38.2677,-409.606)">
				<title>工作表.84</title>
				<desc>上座</desc>
				<rect x="0" y="1019.93" width="42.5197" height="19.8425" class="st1"/>
				<text x="5.26" y="1034.65" class="st2">上座</text>			</g>
			<g id="shape85-193" transform="translate(128.976,-466.299)">
				<title>工作表.85</title>
				<desc>分別說</desc>
				<rect x="0" y="1019.93" width="56.6929" height="19.8425" class="st1"/>
				<text x="4.35" y="1034.65" class="st2">分別說</text>			</g>
			<g id="shape86-196" transform="translate(144.567,-395.433)">
				<title>工作表.86</title>
				<desc>一切有</desc>
				<rect x="0" y="1019.93" width="56.6929" height="19.8425" class="st1"/>
				<text x="4.35" y="1034.65" class="st2">一切有</text>			</g>
			<g id="shape87-199" transform="translate(143.15,-324.567)">
				<title>工作表.87</title>
				<desc>犢子</desc>
				<rect x="0" y="1019.93" width="42.5197" height="19.8425" class="st1"/>
				<text x="5.26" y="1034.65" class="st2">犢子</text>			</g>
			<g id="shape88-202" transform="translate(212.598,-508.819)">
				<title>工作表.88</title>
				<desc>紅衣</desc>
				<rect x="0" y="1019.93" width="42.5197" height="19.8425" class="st1"/>
				<text x="5.26" y="1034.65" class="st2">紅衣</text>			</g>
			<g id="shape89-205" transform="translate(212.598,-480.472)">
				<title>工作表.89</title>
				<desc>法藏</desc>
				<rect x="0" y="1019.93" width="42.5197" height="19.8425" class="st1"/>
				<text x="5.26" y="1034.65" class="st2">法藏</text>			</g>
			<g id="shape90-208" transform="translate(212.598,-452.126)">
				<title>工作表.90</title>
				<desc>飲光</desc>
				<rect x="0" y="1019.93" width="42.5197" height="19.8425" class="st1"/>
				<text x="5.26" y="1034.65" class="st2">飲光</text>			</g>
			<g id="shape91-211" transform="translate(212.598,-423.78)">
				<title>工作表.91</title>
				<desc>化地</desc>
				<rect x="0" y="1019.93" width="42.5197" height="19.8425" class="st1"/>
				<text x="5.26" y="1034.65" class="st2">化地</text>			</g>
			<g id="shape92-214" transform="translate(228.189,-395.433)">
				<title>工作表.92</title>
				<desc>說經</desc>
				<rect x="0" y="1019.93" width="42.5197" height="19.8425" class="st1"/>
				<text x="5.26" y="1034.65" class="st2">說經</text>			</g>
			<g id="shape93-217" transform="translate(228.189,-367.087)">
				<title>工作表.93</title>
				<desc>正量</desc>
				<rect x="0" y="1019.93" width="42.5197" height="19.8425" class="st1"/>
				<text x="5.26" y="1034.65" class="st2">正量</text>			</g>
			<g id="shape94-220" transform="translate(228.189,-338.74)">
				<title>工作表.94</title>
				<desc>法勝</desc>
				<rect x="0" y="1019.93" width="42.5197" height="19.8425" class="st1"/>
				<text x="5.26" y="1034.65" class="st2">法勝</text>			</g>
			<g id="shape95-223" transform="translate(228.189,-310.394)">
				<title>工作表.95</title>
				<desc>賢道</desc>
				<rect x="0" y="1019.93" width="42.5197" height="19.8425" class="st1"/>
				<text x="5.26" y="1034.65" class="st2">賢道</text>			</g>
			<g id="shape96-226" transform="translate(228.189,-282.047)">
				<title>工作表.96</title>
				<desc>六城</desc>
				<rect x="0" y="1019.93" width="42.5197" height="19.8425" class="st1"/>
				<text x="5.26" y="1034.65" class="st2">六城</text>			</g>
			<g id="group104-229" transform="translate(-1011.43,657.095) rotate(-90)">
				<title>工作表.104</title>
				<g id="shape81-230" transform="translate(1087.96,1014.26) rotate(90)">
					<title>工作表.81</title>
					<desc>大</desc>
					<rect x="0" y="1017.1" width="22.6772" height="22.6772" class="st1"/>
					<text x="4" y="1033.23" class="st2">大</text>				</g>
				<g id="shape83-233" transform="translate(1042.61,1014.26) rotate(90)">
					<title>工作表.83</title>
					<desc>傳</desc>
					<rect x="0" y="1017.1" width="22.6772" height="22.6772" class="st1"/>
					<text x="4" y="1033.23" class="st2">傳</text>				</g>
				<g id="group98-236">
					<title>工作表.98</title>
					<g id="shape99-237" transform="translate(1110.64,1011.43) rotate(90)">
						<title>工作表.99</title>
						<path d="M0 1039.77 L28.35 1039.77" class="st3"/>
					</g>
					<g id="shape100-240" transform="translate(0,-28.3465)">
						<title>工作表.100</title>
						<path d="M0 1039.77 L70.87 1039.77" class="st3"/>
					</g>
					<g id="shape101-243" transform="translate(1039.77,1011.43) rotate(90)">
						<title>工作表.101</title>
						<path d="M0 1039.77 L28.35 1039.77" class="st3"/>
					</g>
					<g id="shape102-246">
						<title>工作表.102</title>
						<path d="M0 1039.77 L70.87 1039.77" class="st3"/>
					</g>
				</g>
			</g>
			<g id="shape105-249" transform="translate(-508.459,1483.03) rotate(-135)">
				<title>工作表.105</title>
				<path d="M0 1039.77 L60.13 1039.77" class="st3"/>
			</g>
			<g id="shape106-252" transform="translate(1167.33,634.418) rotate(90)">
				<title>工作表.106</title>
				<path d="M0 1039.77 L70.87 1039.77" class="st3"/>
			</g>
			<g id="shape107-255" transform="translate(106.299,1660.02) rotate(180)">
				<title>工作表.107</title>
				<path d="M0 1039.77 L21.26 1039.77" class="st3"/>
			</g>
			<g id="shape108-258" transform="translate(127.559,1603.32) rotate(180)">
				<title>工作表.108</title>
				<path d="M0 1039.77 L21.26 1039.77" class="st3"/>
			</g>
			<g id="shape109-261" transform="translate(127.559,1702.54) rotate(180)">
				<title>工作表.109</title>
				<path d="M0 1039.77 L21.26 1039.77" class="st3"/>
			</g>
			<g id="shape110-264" transform="translate(141.732,1674.19) rotate(180)">
				<title>工作表.110</title>
				<path d="M0 1039.77 L14.17 1039.77" class="st3"/>
			</g>
			<g id="shape111-267" transform="translate(141.732,1745.06) rotate(180)">
				<title>工作表.111</title>
				<path d="M0 1039.77 L14.17 1039.77" class="st3"/>
			</g>
			<g id="shape112-270" transform="translate(1146.07,563.552) rotate(90)">
				<title>工作表.112</title>
				<path d="M0 1039.77 L99.21 1039.77" class="st3"/>
			</g>
			<g id="shape113-273" transform="translate(232.441,1674.19) rotate(180)">
				<title>工作表.113</title>
				<path d="M0 1039.77 L34.02 1039.77" class="st3"/>
			</g>
			<g id="shape114-276" transform="translate(-652.545,1182.83) rotate(-123.69)">
				<title>工作表.114</title>
				<path d="M0 1039.77 L51.1 1039.77" class="st3"/>
			</g>
			<g id="shape115-279" transform="translate(555.577,1677.53) rotate(161.565)">
				<title>工作表.115</title>
				<path d="M0 1039.77 L44.82 1039.77" class="st3"/>
			</g>
			<g id="shape116-282" transform="translate(962.002,1398) rotate(135)">
				<title>工作表.116</title>
				<path d="M0 1039.77 L60.13 1039.77" class="st3"/>
			</g>
			<g id="shape117-285" transform="translate(-102.033,1705.87) rotate(-161.565)">
				<title>工作表.117</title>
				<path d="M0 1039.77 L44.82 1039.77" class="st3"/>
			</g>
			<g id="shape118-288" transform="translate(677.599,1479.38) rotate(153.435)">
				<title>工作表.118</title>
				<path d="M0 1039.77 L31.69 1039.77" class="st3"/>
			</g>
			<g id="shape119-291" transform="translate(-252.402,1507.73) rotate(-153.435)">
				<title>工作表.119</title>
				<path d="M0 1039.77 L31.69 1039.77" class="st3"/>
			</g>
			<g id="shape120-294" transform="translate(1077.74,1097.79) rotate(123.69)">
				<title>工作表.120</title>
				<path d="M0 1039.77 L51.1 1039.77" class="st3"/>
			</g>
			<g id="shape122-297" transform="translate(2.83465,-48.189)">
				<title>工作表.122</title>
				<desc>有</desc>
				<rect x="0" y="1017.1" width="22.6772" height="22.6772" class="st1"/>
				<text x="4" y="1033.23" class="st2">有</text>			</g>
			<g id="shape123-300" transform="translate(2.83465,-25.5118)">
				<title>工作表.123</title>
				<desc>部</desc>
				<rect x="0" y="1017.1" width="22.6772" height="22.6772" class="st1"/>
				<text x="4" y="1033.23" class="st2">部</text>			</g>
			<g id="shape124-303" transform="translate(2.83465,0)">
				<title>工作表.124</title>
				<desc>傳</desc>
				<rect x="0" y="1017.1" width="22.6772" height="22.6772" class="st1"/>
				<text x="4" y="1033.23" class="st2">傳</text>			</g>
			<g id="shape125-306" transform="translate(39.685,-26.9291)">
				<title>工作表.125</title>
				<desc>上座部</desc>
				<rect x="0" y="1019.93" width="56.6929" height="19.8425" class="st1"/>
				<text x="4.35" y="1034.65" class="st2">上座部</text>			</g>
			<g id="shape126-309" transform="translate(128.976,-41.1024)">
				<title>工作表.126</title>
				<desc>說一切有</desc>
				<rect x="0" y="1019.93" width="73.7008" height="19.8425" class="st1"/>
				<text x="4.85" y="1034.65" class="st2">說一切有</text>			</g>
			<g id="shape127-312" transform="translate(144.567,-12.7559)">
				<title>工作表.127</title>
				<desc>雪山</desc>
				<rect x="0" y="1019.93" width="42.5197" height="19.8425" class="st1"/>
				<text x="5.26" y="1034.65" class="st2">雪山</text>			</g>
			<g id="shape128-315" transform="translate(228.189,-140.315)">
				<title>工作表.128</title>
				<desc>犢子</desc>
				<rect x="0" y="1019.93" width="42.5197" height="19.8425" class="st1"/>
				<text x="5.26" y="1034.65" class="st2">犢子</text>			</g>
			<g id="shape129-318" transform="translate(228.189,-69.4488)">
				<title>工作表.129</title>
				<desc>化地</desc>
				<rect x="0" y="1019.93" width="42.5197" height="19.8425" class="st1"/>
				<text x="5.26" y="1034.65" class="st2">化地</text>			</g>
			<g id="shape130-321" transform="translate(228.189,-41.1024)">
				<title>工作表.130</title>
				<desc>飲光</desc>
				<rect x="0" y="1019.93" width="42.5197" height="19.8425" class="st1"/>
				<text x="5.26" y="1034.65" class="st2">飲光</text>			</g>
			<g id="shape132-324" transform="translate(325.984,-182.835)">
				<title>工作表.132</title>
				<desc>法上</desc>
				<rect x="0" y="1019.93" width="42.5197" height="19.8425" class="st1"/>
				<text x="5.26" y="1034.65" class="st2">法上</text>			</g>
			<g id="shape133-327" transform="translate(325.984,-154.488)">
				<title>工作表.133</title>
				<desc>賢胄</desc>
				<rect x="0" y="1019.93" width="42.5197" height="19.8425" class="st1"/>
				<text x="5.26" y="1034.65" class="st2">賢胄</text>			</g>
			<g id="shape134-330" transform="translate(325.984,-126.142)">
				<title>工作表.134</title>
				<desc>正量</desc>
				<rect x="0" y="1019.93" width="42.5197" height="19.8425" class="st1"/>
				<text x="5.26" y="1034.65" class="st2">正量</text>			</g>
			<g id="shape135-333" transform="translate(325.984,-97.7953)">
				<title>工作表.135</title>
				<desc>密林山</desc>
				<rect x="0" y="1019.93" width="56.6929" height="19.8425" class="st1"/>
				<text x="4.35" y="1034.65" class="st2">密林山</text>			</g>
			<g id="shape136-336" transform="translate(325.984,-69.4488)">
				<title>工作表.136</title>
				<desc>法藏</desc>
				<rect x="0" y="1019.93" width="42.5197" height="19.8425" class="st1"/>
				<text x="5.26" y="1034.65" class="st2">法藏</text>			</g>
			<g id="shape55-339" transform="translate(-297.879,1763.87) rotate(-143.13)">
				<title>工作表.55</title>
				<path d="M0 1039.77 L70.87 1039.77" class="st3"/>
			</g>
			<g id="shape65-342" transform="translate(-508.459,1752.33) rotate(-135)">
				<title>工作表.65</title>
				<path d="M0 1039.77 L40.09 1039.77" class="st3"/>
			</g>
			<g id="shape103-345" transform="translate(962.002,1695.63) rotate(135)">
				<title>工作表.103</title>
				<path d="M0 1039.77 L40.09 1039.77" class="st3"/>
			</g>
			<g id="shape121-348" transform="translate(226.772,2028.52) rotate(180)">
				<title>工作表.121</title>
				<path d="M0 1039.77 L28.35 1039.77" class="st3"/>
			</g>
			<g id="shape138-351" transform="translate(559.787,1889.78) rotate(167.005)">
				<title>工作表.138</title>
				<path d="M0 1039.77 L56.73 1039.77" class="st3"/>
			</g>
			<g id="shape139-354" transform="translate(949.848,1678.83) rotate(143.13)">
				<title>工作表.139</title>
				<path d="M0 1039.77 L70.87 1039.77" class="st3"/>
			</g>
			<g id="shape140-357" transform="translate(73.8023,1912.44) rotate(-165.964)">
				<title>工作表.140</title>
				<path d="M0 1039.77 L58.44 1039.77" class="st3"/>
			</g>
			<g id="shape141-360" transform="translate(325.984,2000.18) rotate(180)">
				<title>工作表.141</title>
				<path d="M0 1039.77 L56.69 1039.77" class="st3"/>
			</g>
			<g id="shape142-363" transform="translate(-187.073,2003.51) rotate(-161.565)">
				<title>工作表.142</title>
				<path d="M0 1039.77 L44.82 1039.77" class="st3"/>
			</g>
			<g id="shape143-366" transform="translate(592.56,1918.75) rotate(153.435)">
				<title>工作表.143</title>
				<path d="M0 1039.77 L31.69 1039.77" class="st3"/>
			</g>
			<g id="group144-369" transform="translate(-1011.43,1039.77) rotate(-90)">
				<title>工作表.144</title>
				<g id="group147-370">
					<title>工作表.147</title>
					<g id="group148-371">
						<title>工作表.148</title>
						<g id="shape149-372" transform="translate(1110.64,1011.43) rotate(90)">
							<title>工作表.149</title>
							<path d="M0 1039.77 L28.35 1039.77" class="st3"/>
						</g>
						<g id="shape150-375" transform="translate(0,-28.3465)">
							<title>工作表.150</title>
							<path d="M0 1039.77 L70.87 1039.77" class="st3"/>
						</g>
						<g id="shape151-378" transform="translate(1039.77,1011.43) rotate(90)">
							<title>工作表.151</title>
							<path d="M0 1039.77 L28.35 1039.77" class="st3"/>
						</g>
						<g id="shape152-381">
							<title>工作表.152</title>
							<path d="M0 1039.77 L70.87 1039.77" class="st3"/>
						</g>
					</g>
				</g>
			</g>
			<g id="shape131-384" transform="translate(228.189,-12.7559)">
				<title>工作表.131</title>
				<desc>經量</desc>
				<rect x="0" y="1019.93" width="42.5197" height="19.8425" class="st1"/>
				<text x="5.26" y="1034.65" class="st2">經量</text>			</g>
			<g id="group21-387" transform="translate(1.51879E-13,-936.142)">
				<title>工作表.21</title>
				<g id="shape17-388" transform="translate(1.21902E-13,-70.8661)">
					<title>工作表.17</title>
					<path d="M0 1039.77 L28.35 1039.77" class="st3"/>
				</g>
				<g id="shape18-391" transform="translate(-1039.77,1039.77) rotate(-90)">
					<title>工作表.18</title>
					<path d="M0 1039.77 L70.87 1039.77" class="st3"/>
				</g>
				<g id="shape19-394">
					<title>工作表.19</title>
					<path d="M0 1039.77 L28.35 1039.77" class="st3"/>
				</g>
				<g id="shape20-397" transform="translate(-1011.43,1039.77) rotate(-90)">
					<title>工作表.20</title>
					<path d="M0 1039.77 L70.87 1039.77" class="st3"/>
				</g>
			</g>
			<g id="shape153-400" transform="translate(1223.52,1190.99) rotate(106.813)">
				<title>工作表.153</title>
				<path d="M0 1039.77 L102.9 1039.77" class="st3"/>
			</g>
		</g>
	</g>
</svg>
