<?xml version="1.0" encoding="UTF-8" standalone="no"?>
<!DOCTYPE svg PUBLIC "-//W3C//DTD SVG 1.1//EN" "http://www.w3.org/Graphics/SVG/1.1/DTD/svg11.dtd">
<!-- 由 Microsoft Visio, SVG Export 產生 y33.0192-h.svg 頁-1 -->
<svg xmlns="http://www.w3.org/2000/svg" xmlns:xlink="http://www.w3.org/1999/xlink" xmlns:ev="http://www.w3.org/2001/xml-events"
		xmlns:v="http://schemas.microsoft.com/visio/2003/SVGExtensions/" width="7.1005in" height="4.22302in"
		viewBox="0 0 511.236 304.057" xml:space="preserve" color-interpolation-filters="sRGB" class="st5">
	<v:documentProperties v:langID="1028" v:metric="true" v:viewMarkup="false">
		<v:userDefs>
			<v:ud v:nameU="msvConvertTheme"/>
		</v:userDefs>
	</v:documentProperties>

	<style type="text/css">
	<![CDATA[
		.st1 {fill:none;stroke:none;stroke-linecap:round;stroke-linejoin:round;stroke-width:0.75}
		.st2 {fill:#000000;font-family:新細明體;font-size:1.33333em}
		.st3 {stroke:#000000;stroke-linecap:round;stroke-linejoin:round;stroke-width:1}
		.st4 {stroke:#000000;stroke-dasharray:3,3;stroke-linecap:round;stroke-linejoin:round;stroke-width:1}
		.st5 {fill:none;fill-rule:evenodd;font-size:12px;overflow:visible;stroke-linecap:square;stroke-miterlimit:3}
	]]>
	</style>

	<g v:mID="0" v:index="1" v:groupContext="foregroundPage">
		<title>頁-1</title>
		<v:pageProperties v:drawingScale="0.0393701" v:pageScale="0.0393701" v:drawingUnits="24" v:shadowOffsetX="8.50394"
				v:shadowOffsetY="-8.50394"/>
		<g id="group60-1" transform="translate(0.5,-0.375)" v:mID="60" v:groupContext="group">
			<title>工作表.60</title>
			<g id="shape1-2" v:mID="1" v:groupContext="shape" transform="translate(1.41732,-240.945)">
				<title>工作表.1</title>
				<desc>菩薩道以大悲為上首</desc>
				<v:textBlock v:margins="rect(4,4,4,4)" v:tabSpace="42.5197"/>
				<v:textRect cx="76.5354" cy="294.136" width="153.08" height="19.8425"/>
				<rect x="0" y="284.215" width="153.071" height="19.8425" class="st1"/>
				<text x="4.54" y="298.94" class="st2" v:langID="1028"><v:paragraph v:horizAlign="1"/><v:tabList/>菩薩道以大悲為上首</text>			</g>
			<g id="shape2-5" v:mID="2" v:groupContext="shape" transform="translate(68.0315,-283.465)">
				<title>工作表.2</title>
				<desc>菩提心為因</desc>
				<v:textBlock v:margins="rect(4,4,4,4)" v:tabSpace="42.5197"/>
				<v:textRect cx="45.3543" cy="294.136" width="90.71" height="19.8425"/>
				<rect x="0" y="284.215" width="90.7087" height="19.8425" class="st1"/>
				<text x="5.35" y="298.94" class="st2" v:langID="1028"><v:paragraph v:horizAlign="1"/><v:tabList/>菩提心為因</text>			</g>
			<g id="shape5-8" v:mID="5" v:groupContext="shape" transform="translate(68.0315,-155.906)">
				<title>工作表.5</title>
				<desc>依三心而行</desc>
				<v:textBlock v:margins="rect(4,4,4,4)" v:tabSpace="42.5197"/>
				<v:textRect cx="45.3543" cy="294.136" width="90.71" height="19.8425"/>
				<rect x="0" y="284.215" width="90.7087" height="19.8425" class="st1"/>
				<text x="5.35" y="298.94" class="st2" v:langID="1028"><v:paragraph v:horizAlign="1"/><v:tabList/>依三心而行</text>			</g>
			<g id="shape6-11" v:mID="6" v:groupContext="shape" transform="translate(184.252,-198.425)">
				<title>工作表.6</title>
				<desc>攝六和眾</desc>
				<v:textBlock v:margins="rect(4,4,4,4)" v:tabSpace="42.5197"/>
				<v:textRect cx="36.8504" cy="294.136" width="73.71" height="19.8425"/>
				<rect x="0" y="284.215" width="73.7008" height="19.8425" class="st1"/>
				<text x="4.85" y="298.94" class="st2" v:langID="1028"><v:paragraph v:horizAlign="1"/><v:tabList/>攝六和眾</text>			</g>
			<g id="shape7-14" v:mID="7" v:groupContext="shape" transform="translate(184.252,-99.2126)">
				<title>工作表.7</title>
				<desc>行六度行</desc>
				<v:textBlock v:margins="rect(4,4,4,4)" v:tabSpace="42.5197"/>
				<v:textRect cx="36.8504" cy="294.136" width="73.71" height="19.8425"/>
				<rect x="0" y="284.215" width="73.7008" height="19.8425" class="st1"/>
				<text x="4.85" y="298.94" class="st2" v:langID="1028"><v:paragraph v:horizAlign="1"/><v:tabList/>行六度行</text>			</g>
			<g id="shape11-17" v:mID="11" v:groupContext="shape" transform="translate(411.024,-141.732)">
				<title>工作表.11</title>
				<desc>利他</desc>
				<v:textBlock v:margins="rect(4,4,4,4)" v:tabSpace="42.5197"/>
				<v:textRect cx="21.2598" cy="294.136" width="42.52" height="19.8425"/>
				<rect x="0" y="284.215" width="42.5197" height="19.8425" class="st1"/>
				<text x="5.26" y="298.94" class="st2" v:langID="1028"><v:paragraph v:horizAlign="1"/><v:tabList/>利他</text>			</g>
			<g id="shape12-20" v:mID="12" v:groupContext="shape" transform="translate(280.63,-85.0394)">
				<title>工作表.12</title>
				<desc>精進以成行</desc>
				<v:textBlock v:margins="rect(4,4,4,4)" v:tabSpace="42.5197"/>
				<v:textRect cx="45.3543" cy="294.136" width="90.71" height="19.8425"/>
				<rect x="0" y="284.215" width="90.7087" height="19.8425" class="st1"/>
				<text x="5.35" y="298.94" class="st2" v:langID="1028"><v:paragraph v:horizAlign="1"/><v:tabList/>精進以成行</text>			</g>
			<g id="shape13-23" v:mID="13" v:groupContext="shape" transform="translate(280.63,-56.6929)">
				<title>工作表.13</title>
				<desc>禪定以攝心</desc>
				<v:textBlock v:margins="rect(4,4,4,4)" v:tabSpace="42.5197"/>
				<v:textRect cx="45.3543" cy="294.136" width="90.71" height="19.8425"/>
				<rect x="0" y="284.215" width="90.7087" height="19.8425" class="st1"/>
				<text x="5.35" y="298.94" class="st2" v:langID="1028"><v:paragraph v:horizAlign="1"/><v:tabList/>禪定以攝心</text>			</g>
			<g id="shape14-26" v:mID="14" v:groupContext="shape" transform="translate(280.63,-28.3465)">
				<title>工作表.14</title>
				<desc>般若以入理</desc>
				<v:textBlock v:margins="rect(4,4,4,4)" v:tabSpace="42.5197"/>
				<v:textRect cx="45.3543" cy="294.136" width="90.71" height="19.8425"/>
				<rect x="0" y="284.215" width="90.7087" height="19.8425" class="st1"/>
				<text x="5.35" y="298.94" class="st2" v:langID="1028"><v:paragraph v:horizAlign="1"/><v:tabList/>般若以入理</text>			</g>
			<g id="shape15-29" v:mID="15" v:groupContext="shape" transform="translate(68.0315,0)">
				<title>工作表.15</title>
				<desc>無所得為方便</desc>
				<v:textBlock v:margins="rect(4,4,4,4)" v:tabSpace="42.5197"/>
				<v:textRect cx="52.4409" cy="294.136" width="104.89" height="19.8425"/>
				<rect x="0" y="284.215" width="104.882" height="19.8425" class="st1"/>
				<text x="4.44" y="298.94" class="st2" v:langID="1028"><v:paragraph v:horizAlign="1"/><v:tabList/>無所得為方便</text>			</g>
			<g id="shape16-32" v:mID="16" v:groupContext="shape" transform="translate(273.543,-6.82121E-13)">
				<title>工作表.16</title>
				<desc>住性空見</desc>
				<v:textBlock v:margins="rect(4,4,4,4)" v:tabSpace="42.5197"/>
				<v:textRect cx="52.4409" cy="294.136" width="104.89" height="19.8425"/>
				<rect x="0" y="284.215" width="104.882" height="19.8425" class="st1"/>
				<text x="4.44" y="298.94" class="st2" v:langID="1028"><v:paragraph v:horizAlign="1"/><v:tabList/>（住性空見）</text>			</g>
			<g id="group21-35" transform="translate(-148.152,67.3642) rotate(-90)" v:mID="21" v:groupContext="group">
				<title>工作表.21</title>
				<g id="shape17-36" v:mID="17" v:groupContext="shape" transform="translate(304.057,148.152) rotate(90)">
					<title>工作表.17</title>
					<path d="M0 304.06 L155.91 304.06" class="st3"/>
				</g>
				<g id="shape18-39" v:mID="18" v:groupContext="shape" transform="translate(332.404,148.152) rotate(90)">
					<title>工作表.18</title>
					<path d="M0 304.06 L155.91 304.06" class="st3"/>
				</g>
				<g id="shape19-42" v:mID="19" v:groupContext="shape" transform="translate(6.59472E-14,-155.906)">
					<title>工作表.19</title>
					<path d="M0 304.06 L28.35 304.06" class="st3"/>
				</g>
				<g id="shape20-45" v:mID="20" v:groupContext="shape" transform="translate(1.67388E-05,1.13687E-13)">
					<title>工作表.20</title>
					<path d="M0 304.06 L28.35 304.06" class="st3"/>
				</g>
			</g>
			<g id="shape22-48" v:mID="22" v:groupContext="shape" transform="translate(158.74,-293.386)">
				<title>工作表.22</title>
				<path d="M0 304.06 L124.72 304.06" class="st4"/>
			</g>
			<g id="shape23-51" v:mID="23" v:groupContext="shape" transform="translate(158.74,-250.866)">
				<title>工作表.23</title>
				<path d="M0 304.06 L124.72 304.06" class="st4"/>
			</g>
			<g id="shape3-54" v:mID="3" v:groupContext="shape" transform="translate(273.543,-283.465)">
				<title>工作表.3</title>
				<desc>證菩提果</desc>
				<v:textBlock v:margins="rect(4,4,4,4)" v:tabSpace="42.5197"/>
				<v:textRect cx="52.4409" cy="294.136" width="104.89" height="19.8425"/>
				<rect x="0" y="284.215" width="104.882" height="19.8425" class="st1"/>
				<text x="4.44" y="298.94" class="st2" v:langID="1028"><v:paragraph v:horizAlign="1"/><v:tabList/>（證菩提果）</text>			</g>
			<g id="shape4-57" v:mID="4" v:groupContext="shape" transform="translate(273.543,-240.945)">
				<title>工作表.4</title>
				<desc>成大悲行</desc>
				<v:textBlock v:margins="rect(4,4,4,4)" v:tabSpace="42.5197"/>
				<v:textRect cx="52.4409" cy="294.136" width="104.89" height="19.8425"/>
				<rect x="0" y="284.215" width="104.882" height="19.8425" class="st1"/>
				<text x="4.44" y="298.94" class="st2" v:langID="1028"><v:paragraph v:horizAlign="1"/><v:tabList/>（成大悲行）</text>			</g>
			<g id="shape8-60" v:mID="8" v:groupContext="shape" transform="translate(280.63,-170.079)">
				<title>工作表.8</title>
				<desc>布施以攝眾</desc>
				<v:textBlock v:margins="rect(4,4,4,4)" v:tabSpace="42.5197"/>
				<v:textRect cx="45.3543" cy="294.136" width="90.71" height="19.8425"/>
				<rect x="0" y="284.215" width="90.7087" height="19.8425" class="st1"/>
				<text x="5.35" y="298.94" class="st2" v:langID="1028"><v:paragraph v:horizAlign="1"/><v:tabList/>布施以攝眾</text>			</g>
			<g id="shape9-63" v:mID="9" v:groupContext="shape" transform="translate(280.63,-141.732)">
				<title>工作表.9</title>
				<desc>持戒以和眾</desc>
				<v:textBlock v:margins="rect(4,4,4,4)" v:tabSpace="42.5197"/>
				<v:textRect cx="45.3543" cy="294.136" width="90.71" height="19.8425"/>
				<rect x="0" y="284.215" width="90.7087" height="19.8425" class="st1"/>
				<text x="5.35" y="298.94" class="st2" v:langID="1028"><v:paragraph v:horizAlign="1"/><v:tabList/>持戒以和眾</text>			</g>
			<g id="shape10-66" v:mID="10" v:groupContext="shape" transform="translate(280.63,-113.386)">
				<title>工作表.10</title>
				<desc>忍辱以安眾</desc>
				<v:textBlock v:margins="rect(4,4,4,4)" v:tabSpace="42.5197"/>
				<v:textRect cx="45.3543" cy="294.136" width="90.71" height="19.8425"/>
				<rect x="0" y="284.215" width="90.7087" height="19.8425" class="st1"/>
				<text x="5.35" y="298.94" class="st2" v:langID="1028"><v:paragraph v:horizAlign="1"/><v:tabList/>忍辱以安眾</text>			</g>
			<g id="shape24-69" v:mID="24" v:groupContext="shape" transform="translate(411.024,-56.6929)">
				<title>工作表.24</title>
				<desc>己利</desc>
				<v:textBlock v:margins="rect(4,4,4,4)" v:tabSpace="42.5197"/>
				<v:textRect cx="21.2598" cy="294.136" width="42.52" height="19.8425"/>
				<rect x="0" y="284.215" width="42.5197" height="19.8425" class="st1"/>
				<text x="5.26" y="298.94" class="st2" v:langID="1028"><v:paragraph v:horizAlign="1"/><v:tabList/>己利</text>			</g>
			<g id="shape28-72" v:mID="28" v:groupContext="shape" transform="translate(255.118,-109.134)">
				<title>工作表.28</title>
				<path d="M0 304.06 L14.17 304.06" class="st3"/>
			</g>
			<g id="shape29-75" v:mID="29" v:groupContext="shape" transform="translate(-34.7657,265.789) rotate(-90)">
				<title>工作表.29</title>
				<path d="M0 304.06 L141.73 304.06" class="st3"/>
			</g>
			<g id="shape30-78" v:mID="30" v:groupContext="shape" transform="translate(170.079,-208.346)">
				<title>工作表.30</title>
				<path d="M0 304.06 L14.17 304.06" class="st3"/>
			</g>
			<g id="shape31-81" v:mID="31" v:groupContext="shape" transform="translate(170.079,-109.134)">
				<title>工作表.31</title>
				<path d="M0 304.06 L14.17 304.06" class="st3"/>
			</g>
			<g id="shape32-84" v:mID="32" v:groupContext="shape" transform="translate(56.6929,-293.386)">
				<title>工作表.32</title>
				<path d="M0 304.06 L14.17 304.06" class="st3"/>
			</g>
			<g id="shape33-87" v:mID="33" v:groupContext="shape" transform="translate(155.906,-165.827)">
				<title>工作表.33</title>
				<path d="M0 304.06 L14.17 304.06" class="st3"/>
			</g>
			<g id="shape34-90" v:mID="34" v:groupContext="shape" transform="translate(56.6929,-9.92126)">
				<title>工作表.34</title>
				<path d="M0 304.06 L14.17 304.06" class="st3"/>
			</g>
			<g id="shape35-93" v:mID="35" v:groupContext="shape" transform="translate(-247.364,294.136) rotate(-90)">
				<title>工作表.35</title>
				<path d="M0 304.06 L226.77 304.06" class="st3"/>
			</g>
			<g id="shape36-96" v:mID="36" v:groupContext="shape" transform="translate(-247.364,39.0177) rotate(-90)">
				<title>工作表.36</title>
				<path d="M0 304.06 L28.35 304.06" class="st3"/>
			</g>
			<g id="shape37-99" v:mID="37" v:groupContext="shape" transform="translate(-133.978,194.923) rotate(-90)">
				<title>工作表.37</title>
				<path d="M0 304.06 L99.21 304.06" class="st3"/>
			</g>
			<g id="shape38-102" v:mID="38" v:groupContext="shape" transform="translate(269.291,-180)">
				<title>工作表.38</title>
				<path d="M0 304.06 L14.17 304.06" class="st3"/>
			</g>
			<g id="shape39-105" v:mID="39" v:groupContext="shape" transform="translate(269.291,-38.2677)">
				<title>工作表.39</title>
				<path d="M0 304.06 L14.17 304.06" class="st3"/>
			</g>
			<g id="shape40-108" v:mID="40" v:groupContext="shape" transform="translate(368.504,-66.6142)">
				<title>工作表.40</title>
				<path d="M0 304.06 L42.52 304.06" class="st3"/>
			</g>
			<g id="shape41-111" v:mID="41" v:groupContext="shape" transform="translate(537.164,-43.8943) rotate(33.6901)">
				<title>工作表.41</title>
				<path d="M0 304.06 L51.1 304.06" class="st3"/>
			</g>
			<g id="shape42-114" v:mID="42" v:groupContext="shape" transform="translate(199.843,-72.2408) rotate(-33.6901)">
				<title>工作表.42</title>
				<path d="M0 304.06 L51.1 304.06" class="st3"/>
			</g>
			<g id="shape43-117" v:mID="43" v:groupContext="shape" transform="translate(368.504,-151.654)">
				<title>工作表.43</title>
				<path d="M0 304.06 L42.52 304.06" class="st3"/>
			</g>
			<g id="shape44-120" v:mID="44" v:groupContext="shape" transform="translate(199.843,12.7986) rotate(-33.6901)">
				<title>工作表.44</title>
				<path d="M0 304.06 L51.1 304.06" class="st3"/>
			</g>
			<g id="shape45-123" v:mID="45" v:groupContext="shape" transform="translate(537.164,-128.934) rotate(33.6901)">
				<title>工作表.45</title>
				<path d="M0 304.06 L51.1 304.06" class="st3"/>
			</g>
			<g id="shape46-126" v:mID="46" v:groupContext="shape" transform="translate(255.118,-208.346)">
				<title>工作表.46</title>
				<path d="M0 304.06 L175.75 304.06" class="st4"/>
			</g>
			<g id="shape47-129" v:mID="47" v:groupContext="shape" transform="translate(368.504,-293.386)">
				<title>工作表.47</title>
				<path d="M0 304.06 L141.73 304.06" class="st4"/>
			</g>
			<g id="shape48-132" v:mID="48" v:groupContext="shape" transform="translate(368.504,-250.866)">
				<title>工作表.48</title>
				<path d="M0 304.06 L113.39 304.06" class="st4"/>
			</g>
			<g id="shape49-135" v:mID="49" v:groupContext="shape" transform="translate(368.504,-9.92126)">
				<title>工作表.49</title>
				<path d="M0 304.06 L62.36 304.06" class="st4"/>
			</g>
			<g id="shape50-138" v:mID="50" v:groupContext="shape" transform="translate(453.543,-66.6142)">
				<title>工作表.50</title>
				<path d="M0 304.06 L56.69 304.06" class="st4"/>
			</g>
			<g id="shape51-141" v:mID="51" v:groupContext="shape" transform="translate(453.543,-151.654)">
				<title>工作表.51</title>
				<path d="M0 304.06 L56.69 304.06" class="st4"/>
			</g>
			<g id="shape52-144" v:mID="52" v:groupContext="shape" transform="translate(170.079,-9.92126)">
				<title>工作表.52</title>
				<path d="M0 304.06 L110.55 304.06" class="st4"/>
			</g>
			<g id="shape25-147" v:mID="25" v:groupContext="shape" transform="translate(206.179,237.443) rotate(-90)">
				<title>工作表.25</title>
				<path d="M0 304.06 L226.77 304.06" class="st4"/>
			</g>
			<g id="shape26-150" v:mID="26" v:groupContext="shape" transform="translate(177.833,152.404) rotate(-90)">
				<title>工作表.26</title>
				<path d="M0 304.06 L99.21 304.06" class="st4"/>
			</g>
			<g id="shape27-153" v:mID="27" v:groupContext="shape" transform="translate(126.809,294.136) rotate(-90)">
				<title>工作表.27</title>
				<path d="M0 304.06 L28.35 304.06" class="st4"/>
			</g>
			<g id="shape53-156" v:mID="53" v:groupContext="shape" transform="translate(368.504,-38.2677)">
				<title>工作表.53</title>
				<path d="M0 304.06 L62.36 304.06" class="st4"/>
			</g>
			<g id="shape54-159" v:mID="54" v:groupContext="shape" transform="translate(126.809,95.7106) rotate(-90)">
				<title>工作表.54</title>
				<path d="M0 304.06 L42.52 304.06" class="st4"/>
			</g>
			<g id="shape59-162" v:mID="59" v:groupContext="shape" transform="translate(125.171,26.7789) rotate(-53.1576)">
				<title>工作表.59</title>
				<path d="M0 304.06 L70.91 304.06" class="st3"/>
			</g>
		</g>
	</g>
</svg>
