<?xml version="1.0" encoding="UTF-8" standalone="no"?>
<!DOCTYPE svg PUBLIC "-//W3C//DTD SVG 1.0//EN" "http://www.w3.org/TR/2001/REC-SVG-20010904/DTD/svg10.dtd">
<!-- 由 Microsoft Visio 11.0, SVG Export, v1.0 產生 y33.0008.svg Page-1 -->
<svg xmlns="http://www.w3.org/2000/svg" xmlns:xlink="http://www.w3.org/1999/xlink" xmlns:ev="http://www.w3.org/2001/xml-events"
		xmlns:v="http://schemas.microsoft.com/visio/2003/SVGExtensions/" width="6.75967in" height="9.86329in"
		viewBox="0 0 486.696 710.157" xml:space="preserve" color-interpolation-filters="sRGB" class="st11">
	<v:documentProperties v:langID="1028" v:metric="true" v:viewMarkup="false">
		<v:userDefs>
			<v:ud v:nameU="msvSubprocessMaster" v:prompt="" v:val="VT4(Box)"/>
			<v:ud v:nameU="msvNoAutoConnect" v:val="VT0(1):26"/>
		</v:userDefs>
	</v:documentProperties>

	<style type="text/css">
	<![CDATA[
		.st1 {fill:none;stroke:none;stroke-linecap:round;stroke-linejoin:round;stroke-width:0.75}
		.st2 {fill:#000000;font-family:新細明體;font-size:1.33333em}
		.st3 {font-size:1em}
		.st4 {fill:#000000;font-family:新細明體;font-size:1.16666em}
		.st5 {fill:none;stroke:#000000;stroke-linecap:round;stroke-linejoin:round;stroke-width:1}
		.st6 {stroke:#000000;stroke-linecap:round;stroke-linejoin:round;stroke-width:1}
		.st7 {fill:none;stroke:#000000;stroke-linecap:round;stroke-linejoin:round;stroke-opacity:0;stroke-width:1}
		.st8 {stroke:#000000;stroke-dasharray:3,3;stroke-linecap:round;stroke-linejoin:round;stroke-width:1}
		.st9 {marker-end:url(#mrkr5-116);stroke:#000000;stroke-linecap:round;stroke-linejoin:round;stroke-width:1}
		.st10 {fill:#000000;fill-opacity:1;stroke:#000000;stroke-opacity:1;stroke-width:0.28409090909091}
		.st11 {fill:none;fill-rule:evenodd;font-size:12px;overflow:visible;stroke-linecap:square;stroke-miterlimit:3}
	]]>
	</style>

	<defs id="Markers">
		<g id="lend5">
			<path d="M 2 1 L 0 0 L 1.98117 -0.993387 C 1.67173 -0.364514 1.67301 0.372642 1.98465 1.00043 " style="stroke:none"/>
		</g>
		<marker id="mrkr5-116" class="st10" v:arrowType="5" v:arrowSize="2" v:setback="6.16" refX="-6.16" orient="auto"
				markerUnits="strokeWidth" overflow="visible">
			<use xlink:href="#lend5" transform="scale(-3.52,-3.52) "/>
		</marker>
	</defs>
	<g v:mID="0" v:index="1" v:groupContext="foregroundPage">
		<title>頁-1</title>
		<v:pageProperties v:drawingScale="0.0393701" v:pageScale="0.0393701" v:drawingUnits="24" v:shadowOffsetX="8.50394"
				v:shadowOffsetY="-8.50394"/>
		<g id="shape1-1" v:mID="1" v:groupContext="shape" transform="translate(443.568,-373.081)">
			<title>工作表.1</title>
			<desc>菩薩分流傾向如來</desc>
			<v:textBlock v:margins="rect(4,4,4,4)" v:tabSpace="42.5197" v:verticalText="true"/>
			<v:textRect cx="12.189" cy="642.125" width="24.38" height="136.063"/>
			<rect x="0" y="574.094" width="24.378" height="136.063" class="st1"/>
			<text x="12.19" y="578.13" writing-mode="tb-rl" class="st2" v:langID="1028"><v:paragraph v:horizAlign="1"/><v:tabList/>菩薩分流傾向如來</text>		</g>
		<g id="shape2-4" v:mID="2" v:groupContext="shape" transform="translate(359.379,-121.649)">
			<title>工作表.2</title>
			<desc>如來為本</desc>
			<v:textBlock v:margins="rect(4,4,4,4)" v:tabSpace="42.5197" v:verticalText="true"/>
			<v:textRect cx="38.8668" cy="671.323" width="77.74" height="77.667"/>
			<rect x="0" y="632.49" width="77.7337" height="77.667" class="st1"/>
			<text x="38.87" y="639.32" writing-mode="tb-rl" class="st2" v:langID="1028"><v:paragraph v:horizAlign="1"/><v:tabList/>如來為本</text>		</g>
		<g id="shape3-7" v:mID="3" v:groupContext="shape" transform="translate(395.379,-92.4508)">
			<title>工作表.3</title>
			<desc>佛梵</desc>
			<v:textBlock v:margins="rect(4,4,4,4)" v:tabSpace="42.5197" v:verticalText="true"/>
			<v:textRect cx="17.4334" cy="688.897" width="34.87" height="42.5197"/>
			<rect x="0" y="667.637" width="34.8669" height="42.5197" class="st1"/>
			<text x="17.43" y="672.9" writing-mode="tb-rl" class="st2" v:langID="1028"><v:paragraph v:horizAlign="1"/><v:tabList/>佛梵</text>		</g>
		<g id="shape4-10" v:mID="4" v:groupContext="shape" transform="translate(373.552,-18.75)">
			<title>工作表.4</title>
			<desc>佛教融吠</desc>
			<v:textBlock v:margins="rect(4,4,4,4)" v:tabSpace="42.5197" v:verticalText="true"/>
			<v:textRect cx="39.4338" cy="671.889" width="78.87" height="76.5354"/>
			<rect x="0" y="633.621" width="78.8675" height="76.5354" class="st1"/>
			<text x="39.43" y="639.89" writing-mode="tb-rl" class="st2" v:langID="1028"><v:paragraph v:horizAlign="1"/><v:tabList/>佛教融吠</text>		</g>
		<g id="shape5-13" v:mID="5" v:groupContext="shape" transform="translate(368.875,-95.2854)">
			<title>工作表.5</title>
			<desc>一如</desc>
			<v:textBlock v:margins="rect(4,4,4,4)" v:tabSpace="42.5197" v:verticalText="true"/>
			<v:textRect cx="16.0161" cy="689.607" width="32.04" height="41.1001"/>
			<rect x="0" y="669.057" width="32.0322" height="41.1001" class="st1"/>
			<text x="16.02" y="673.61" writing-mode="tb-rl" class="st2" v:langID="1028"><v:paragraph v:horizAlign="1"/><v:tabList/>一如</text>		</g>
		<g id="shape6-16" v:mID="6" v:groupContext="shape" transform="translate(345.206,-18.75)">
			<title>工作表.6</title>
			<desc>陀而衰滅</desc>
			<v:textBlock v:margins="rect(4,4,4,4)" v:tabSpace="42.5197" v:verticalText="true"/>
			<v:textRect cx="39.7172" cy="672.175" width="79.44" height="75.964"/>
			<rect x="0" y="634.193" width="79.4345" height="75.964" class="st1"/>
			<text x="39.72" y="640.17" writing-mode="tb-rl" class="st2" v:langID="1028"><v:paragraph v:horizAlign="1"/><v:tabList/>陀而衰滅</text>		</g>
		<g id="shape7-19" v:mID="7" v:groupContext="shape" transform="translate(204.891,-614.026)">
			<title>工作表.7</title>
			<desc>菩薩為本</desc>
			<v:textBlock v:margins="rect(4,4,4,4)" v:tabSpace="42.5197" v:verticalText="true"/>
			<v:textRect cx="38.2677" cy="671.466" width="76.54" height="77.3813"/>
			<rect x="0" y="632.776" width="76.5354" height="77.3813" class="st1"/>
			<text x="38.27" y="639.47" writing-mode="tb-rl" class="st2" v:langID="1028"><v:paragraph v:horizAlign="1"/><v:tabList/>菩薩為本</text>		</g>
		<g id="shape8-22" v:mID="8" v:groupContext="shape" transform="translate(236.072,-581.153)">
			<title>工作表.8</title>
			<desc>大小</desc>
			<v:textBlock v:margins="rect(4,4,4,4)" v:tabSpace="42.5197" v:verticalText="true"/>
			<v:textRect cx="21.2598" cy="688.051" width="42.52" height="44.2114"/>
			<rect x="0" y="665.945" width="42.5197" height="44.2114" class="st1"/>
			<text x="21.26" y="672.05" writing-mode="tb-rl" class="st2" v:langID="1028"><v:paragraph v:horizAlign="1"/><v:tabList/>大小</text>		</g>
		<g id="shape9-25" v:mID="9" v:groupContext="shape" transform="translate(206.308,-582.282)">
			<title>工作表.9</title>
			<desc>兼暢</desc>
			<v:textBlock v:margins="rect(4,4,4,4)" v:tabSpace="42.5197" v:verticalText="true"/>
			<v:textRect cx="22.6779" cy="688.616" width="45.36" height="43.0821"/>
			<rect x="0" y="667.075" width="45.3558" height="43.0821" class="st1"/>
			<text x="22.68" y="672.62" writing-mode="tb-rl" class="st2" v:langID="1028"><v:paragraph v:horizAlign="1"/><v:tabList/>兼暢</text>		</g>
		<g id="shape11-28" v:mID="11" v:groupContext="shape" transform="translate(159.725,-401.427)">
			<title>工作表.11</title>
			<desc>吠陀創始時代</desc>
			<v:textBlock v:margins="rect(4,4,4,4)" v:tabSpace="42.5197" v:verticalText="true"/>
			<v:textRect cx="69.2605" cy="639.291" width="138.53" height="141.732"/>
			<rect x="0" y="568.425" width="138.521" height="141.732" class="st1"/>
			<text x="69.26" y="35.777em" writing-mode="tb-rl" class="st2" v:langID="1028"><v:paragraph v:horizAlign="4"/><v:tabList/>（<tspan
						x="69.26" y="36.828em 37.879em 38.93em 39.981em 41.033em 42.084em" class="st3">吠陀創始時代</tspan><tspan
						x="69.26" y="43.135em" class="st3">）</tspan></text>		</g>
		<g id="shape14-33" v:mID="14" v:groupContext="shape" transform="translate(214.812,-322.057)">
			<title>工作表.14</title>
			<desc>人間樂</desc>
			<v:textBlock v:margins="rect(4,4,4,4)" v:tabSpace="42.5197" v:verticalText="true"/>
			<v:textRect cx="28.3465" cy="681.81" width="56.7" height="56.6929"/>
			<rect x="0" y="653.464" width="56.6929" height="56.6929" class="st1"/>
			<text x="28.35" y="660.81" writing-mode="tb-rl" class="st4" v:langID="1028"><v:paragraph v:horizAlign="1"/><v:tabList/>人間樂</text>		</g>
		<g id="shape19-36" v:mID="19" v:groupContext="shape" transform="translate(18.75,-389.524)">
			<title>工作表.19</title>
			<desc>傾向菩薩聲聞分流</desc>
			<v:textBlock v:margins="rect(4,4,4,4)" v:tabSpace="42.5197" v:verticalText="true"/>
			<v:textRect cx="12.189" cy="641.561" width="24.38" height="137.192"/>
			<rect x="0" y="572.965" width="24.378" height="137.192" class="st1"/>
			<text x="12.19" y="577.56" writing-mode="tb-rl" class="st2" v:langID="1028"><v:paragraph v:horizAlign="1"/><v:tabList/>傾向菩薩聲聞分流</text>		</g>
		<g id="shape20-39" v:mID="20" v:groupContext="shape" transform="translate(87.2533,-109.459)">
			<title>工作表.20</title>
			<desc>教派興起時代</desc>
			<v:textBlock v:margins="rect(4,4,4,4)" v:tabSpace="42.5197" v:verticalText="true"/>
			<v:textRect cx="70.8661" cy="639.291" width="141.74" height="141.732"/>
			<rect x="0" y="568.425" width="141.732" height="141.732" class="st1"/>
			<text x="70.87" y="40.888em" writing-mode="tb-rl" class="st4" v:langID="1028"><v:paragraph v:horizAlign="4"/><v:tabList/>（<tspan
						x="70.87" y="42.11em 43.331em 44.553em 45.775em 46.997em 48.218em" class="st3">教派興起時代</tspan><tspan
						x="70.87" y="49.44em" class="st3">）</tspan></text>		</g>
		<g id="shape22-44" v:mID="22" v:groupContext="shape" transform="translate(75.3463,-91.8884)">
			<title>工作表.22</title>
			<desc>解脫</desc>
			<v:textBlock v:margins="rect(4,4,4,4)" v:tabSpace="42.5197" v:verticalText="true"/>
			<v:textRect cx="24.3787" cy="688.616" width="48.76" height="43.0821"/>
			<rect x="0" y="667.075" width="48.7573" height="43.0821" class="st1"/>
			<text x="24.38" y="672.62" writing-mode="tb-rl" class="st2" v:langID="1028"><v:paragraph v:horizAlign="1"/><v:tabList/>解脫</text>		</g>
		<g id="shape23-47" v:mID="23" v:groupContext="shape" transform="translate(60.5432,-18.75)">
			<title>工作表.23</title>
			<desc>佛教反吠</desc>
			<v:textBlock v:margins="rect(4,4,4,4)" v:tabSpace="42.5197" v:verticalText="true"/>
			<v:textRect cx="40.2842" cy="672.461" width="80.57" height="75.3925"/>
			<rect x="0" y="634.764" width="80.5683" height="75.3925" class="st1"/>
			<text x="40.28" y="640.46" writing-mode="tb-rl" class="st2" v:langID="1028"><v:paragraph v:horizAlign="1"/><v:tabList/>佛教反吠</text>		</g>
		<g id="shape24-50" v:mID="24" v:groupContext="shape" transform="translate(50.4029,-92.4508)">
			<title>工作表.24</title>
			<desc>同歸</desc>
			<v:textBlock v:margins="rect(4,4,4,4)" v:tabSpace="42.5197" v:verticalText="true"/>
			<v:textRect cx="22.6779" cy="688.332" width="45.36" height="43.649"/>
			<rect x="0" y="666.508" width="45.3558" height="43.649" class="st1"/>
			<text x="22.68" y="672.33" writing-mode="tb-rl" class="st2" v:langID="1028"><v:paragraph v:horizAlign="1"/><v:tabList/>同歸</text>		</g>
		<g id="shape25-53" v:mID="25" v:groupContext="shape" transform="translate(30.5604,-21.5846)">
			<title>工作表.25</title>
			<desc>陀而創始</desc>
			<v:textBlock v:margins="rect(4,4,4,4)" v:tabSpace="42.5197" v:verticalText="true"/>
			<v:textRect cx="41.7015" cy="673.876" width="83.41" height="72.5624"/>
			<rect x="0" y="637.594" width="83.403" height="72.5624" class="st1"/>
			<text x="41.7" y="641.88" writing-mode="tb-rl" class="st2" v:langID="1028"><v:paragraph v:horizAlign="1"/><v:tabList/>陀而創始</text>		</g>
		<g id="shape26-56" v:mID="26" v:groupContext="shape" transform="translate(257.332,-109.459)">
			<title>工作表.26</title>
			<desc>梵教極盛時代</desc>
			<v:textBlock v:margins="rect(4,4,4,4)" v:tabSpace="42.5197" v:verticalText="true"/>
			<v:textRect cx="70.8661" cy="639.291" width="141.74" height="141.732"/>
			<rect x="0" y="568.425" width="141.732" height="141.732" class="st1"/>
			<text x="70.87" y="40.888em" writing-mode="tb-rl" class="st4" v:langID="1028"><v:paragraph v:horizAlign="4"/><v:tabList/>（<tspan
						x="70.87" y="42.11em 43.331em 44.553em 45.775em 46.997em 48.218em" class="st3">梵教極盛時代</tspan><tspan
						x="70.87" y="49.44em" class="st3">）</tspan></text>		</g>
		<g id="shape17-61" v:mID="17" v:groupContext="shape" transform="translate(203.474,-417.018)">
			<title>工作表.17</title>
			<desc>重人事</desc>
			<v:textBlock v:margins="rect(4,4,4,4)" v:tabSpace="42.5197" v:verticalText="true"/>
			<v:textRect cx="53.8583" cy="654.881" width="107.72" height="110.551"/>
			<rect x="0" y="599.606" width="107.717" height="110.551" class="st1"/>
			<text x="53.86" y="37.726em 40.43em 43.135em" writing-mode="tb-rl" class="st2" v:langID="1028"><v:paragraph
						v:horizAlign="4"/><v:tabList/>重人事</text>		</g>
		<g id="shape27-64" v:mID="27" v:groupContext="shape" transform="translate(172.647,-237.018)">
			<title>圓形</title>
			<v:userDefs>
				<v:ud v:nameU="visVersion" v:val="VT0(14):26"/>
			</v:userDefs>
			<path d="M0 639.47 A70.689 70.689 0 1 1 141.38 639.47 A70.689 70.689 0 0 1 0 639.47 Z" class="st5"/>
		</g>
		<g id="shape12-66" v:mID="12" v:groupContext="shape" transform="translate(255.331,-264.941)">
			<title>工作表.12</title>
			<desc>天上樂</desc>
			<v:textBlock v:margins="rect(4,4,4,4)" v:tabSpace="42.5197" v:verticalText="true"/>
			<v:textRect cx="30.7641" cy="682.096" width="61.53" height="56.1214"/>
			<rect x="0" y="654.035" width="61.5283" height="56.1214" class="st1"/>
			<text x="30.76" y="658.1" writing-mode="tb-rl" class="st2" v:langID="1028"><v:paragraph v:horizAlign="1"/><v:tabList/>天上樂</text>		</g>
		<g id="shape13-69" v:mID="13" v:groupContext="shape" transform="translate(228.986,-265.227)">
			<title>工作表.13</title>
			<desc>神　教</desc>
			<v:textBlock v:margins="rect(4,4,4,4)" v:tabSpace="42.5197" v:verticalText="true"/>
			<v:textRect cx="28.9298" cy="680.679" width="57.86" height="58.9561"/>
			<rect x="0" y="651.201" width="57.8597" height="58.9561" class="st1"/>
			<text x="28.93" y="659.68" writing-mode="tb-rl" class="st4" v:langID="1028"><v:paragraph v:horizAlign="1"/><v:tabList/>神　教</text>		</g>
		<g id="shape15-72" v:mID="15" v:groupContext="shape" transform="translate(200.069,-264.656)">
			<title>工作表.15</title>
			<desc>佛　教</desc>
			<v:textBlock v:margins="rect(4,4,4,4)" v:tabSpace="42.5197" v:verticalText="true"/>
			<v:textRect cx="29.7802" cy="681.246" width="59.57" height="57.8222"/>
			<rect x="0" y="652.335" width="59.5605" height="57.8222" class="st1"/>
			<text x="29.78" y="660.25" writing-mode="tb-rl" class="st4" v:langID="1028"><v:paragraph v:horizAlign="1"/><v:tabList/>佛　教</text>		</g>
		<g id="shape16-75" v:mID="16" v:groupContext="shape" transform="translate(170.875,-263.238)">
			<title>工作表.16</title>
			<desc>究竟樂</desc>
			<v:textBlock v:margins="rect(4,4,4,4)" v:tabSpace="42.5197" v:verticalText="true"/>
			<v:textRect cx="29.7638" cy="680.393" width="59.53" height="59.5276"/>
			<rect x="0" y="650.629" width="59.5276" height="59.5276" class="st1"/>
			<text x="29.76" y="656.39" writing-mode="tb-rl" class="st2" v:langID="1028"><v:paragraph v:horizAlign="1"/><v:tabList/>究竟樂</text>		</g>
		<g id="group33-78" transform="translate(214.812,-237.018)" v:mID="33" v:groupContext="group">
			<title>工作表.33</title>
			<g id="shape28-79" v:mID="28" v:groupContext="shape" transform="translate(0,-85.0394)">
				<title>工作表.28</title>
				<path d="M0 710.16 L56.69 710.16" class="st6"/>
			</g>
			<g id="shape29-82" v:mID="29" v:groupContext="shape" transform="translate(-3.57915,-27.6288) rotate(-0.288768)">
				<title>工作表.29</title>
				<path d="M0 710.16 L56.69 710.16" class="st6"/>
			</g>
			<g id="shape30-85" v:mID="30" v:groupContext="shape" transform="translate(766.85,626.112) rotate(90)">
				<title>工作表.30</title>
				<path d="M0 710.16 L55.84 710.16" class="st6"/>
			</g>
			<g id="shape31-88" v:mID="31" v:groupContext="shape" transform="translate(710.157,625.118) rotate(90)">
				<title>工作表.31</title>
				<path d="M0 710.16 L57.4 710.16" class="st6"/>
			</g>
			<g id="shape32-91" v:mID="32" v:groupContext="shape" transform="translate(738.502,623.638) rotate(89.8806)">
				<title>工作表.32</title>
				<path d="M0 710.16 L85.04 710.16" class="st6"/>
			</g>
		</g>
		<g id="shape34-94" v:mID="34" v:groupContext="shape" transform="translate(328.198,-336.23)">
			<title>工作表.34</title>
			<rect x="0" y="681.81" width="28.3465" height="28.3465" class="st7"/>
		</g>
		<g id="shape35-96" v:mID="35" v:groupContext="shape" transform="translate(-230.83,-114.057) rotate(-45)">
			<title>工作表.35</title>
			<path d="M0 710.16 A28.3465 28.3465 148.28 0 1 40.09 710.16" class="st8"/>
		</g>
		<g id="shape36-99" v:mID="36" v:groupContext="shape" transform="translate(688.623,-142.403) rotate(45)">
			<title>工作表.36</title>
			<path d="M0 710.16 A28.3465 28.3465 148.28 0 1 40.09 710.16" class="st8"/>
		</g>
		<g id="shape10-102" v:mID="10" v:groupContext="shape" transform="translate(85.1273,-126.467)">
			<title>工作表.10</title>
			<desc>趣解脫</desc>
			<v:textBlock v:margins="rect(4,4,4,4)" v:tabSpace="42.5197" v:verticalText="true"/>
			<v:textRect cx="53.1496" cy="656.299" width="106.3" height="107.717"/>
			<rect x="0" y="602.44" width="106.299" height="107.717" class="st1"/>
			<text x="53.15" y="37.903em 40.519em 43.135em" writing-mode="tb-rl" class="st2" v:langID="1028"><v:paragraph
						v:horizAlign="4"/><v:tabList/>趣解脫</text>		</g>
		<g id="shape37-105" v:mID="37" v:groupContext="shape" transform="translate(297.726,-126.467)">
			<title>工作表.37</title>
			<desc>求天樂</desc>
			<v:textBlock v:margins="rect(4,4,4,4)" v:tabSpace="42.5197" v:verticalText="true"/>
			<v:textRect cx="53.1496" cy="656.299" width="106.3" height="107.717"/>
			<rect x="0" y="602.44" width="106.299" height="107.717" class="st1"/>
			<text x="53.15" y="37.903em 40.519em 43.135em" writing-mode="tb-rl" class="st2" v:langID="1028"><v:paragraph
						v:horizAlign="4"/><v:tabList/>求天樂</text>		</g>
		<g id="shape40-108" v:mID="40" v:groupContext="shape" transform="translate(47.5682,-121.649)">
			<title>工作表.40</title>
			<desc>聲聞為本</desc>
			<v:textBlock v:margins="rect(4,4,4,4)" v:tabSpace="42.5197" v:verticalText="true"/>
			<v:textRect cx="38.8668" cy="671.323" width="77.74" height="77.667"/>
			<rect x="0" y="632.49" width="77.7337" height="77.667" class="st1"/>
			<text x="38.87" y="639.32" writing-mode="tb-rl" class="st2" v:langID="1028"><v:paragraph v:horizAlign="1"/><v:tabList/>聲聞為本</text>		</g>
		<g id="shape18-111" v:mID="18" v:groupContext="shape" transform="translate(942.692,14.3523) rotate(70.9308)">
			<title>工作表.18</title>
			<path d="M0 710.16 L236.78 710.16" class="st9"/>
		</g>
		<g id="shape21-117" v:mID="21" v:groupContext="shape" transform="translate(370.151,-95.2854)">
			<title>工作表.21</title>
			<path d="M0.57 610.94 L57.26 610.94 L57.26 710.16 L0 710.16 L0 610.94" class="st6"/>
		</g>
		<g id="shape38-120" v:mID="38" v:groupContext="shape" transform="translate(58.3399,-95.2854)">
			<title>工作表.38</title>
			<path d="M0.57 610.94 L57.26 610.94 L57.26 710.16 L0 710.16 L0 610.94" class="st6"/>
		</g>
		<g id="shape39-123" v:mID="39" v:groupContext="shape" transform="translate(639.025,708.396) rotate(146.121)">
			<title>工作表.39</title>
			<path d="M0 710.16 L239 710.16" class="st8"/>
		</g>
		<g id="shape41-126" v:mID="41" v:groupContext="shape" transform="translate(666.642,-451.266) rotate(36.6071)">
			<title>工作表.41</title>
			<path d="M0 710.16 L247.18 710.16" class="st8"/>
		</g>
		<g id="shape42-129" v:mID="42" v:groupContext="shape" transform="translate(1141.64,385.538) rotate(99.6734)">
			<title>工作表.42</title>
			<path d="M0 710.16 L253.05 710.16" class="st8"/>
		</g>
		<g id="shape43-132" v:mID="43" v:groupContext="shape" transform="translate(745.83,138.957) rotate(80.8377)">
			<title>工作表.43</title>
			<path d="M0 710.16 L267.03 710.16" class="st8"/>
		</g>
		<g id="shape44-135" v:mID="44" v:groupContext="shape" transform="translate(314.025,1239.99) rotate(180)">
			<title>工作表.44</title>
			<path d="M0 710.16 L135.57 710.16" class="st9"/>
		</g>
	</g>
</svg>
