<?xml version="1.0" encoding="UTF-8" standalone="no"?>
<!DOCTYPE svg PUBLIC "-//W3C//DTD SVG 1.0//EN" "http://www.w3.org/TR/2001/REC-SVG-20010904/DTD/svg10.dtd">
<!-- 由 Microsoft Visio 11.0, SVG Export, v1.0 產生 y33.0069.svg Page-1 -->
<svg xmlns="http://www.w3.org/2000/svg" xmlns:xlink="http://www.w3.org/1999/xlink" xmlns:ev="http://www.w3.org/2001/xml-events"
		xmlns:v="http://schemas.microsoft.com/visio/2003/SVGExtensions/" width="9.38605in" height="5.18619in"
		viewBox="0 0 675.795 373.406" xml:space="preserve" color-interpolation-filters="sRGB" class="st6">
	<v:documentProperties v:langID="1028" v:metric="true" v:viewMarkup="false">
		<v:userDefs>
			<v:ud v:nameU="msvSubprocessMaster" v:prompt="" v:val="VT4(Box)"/>
			<v:ud v:nameU="msvNoAutoConnect" v:val="VT0(1):26"/>
		</v:userDefs>
	</v:documentProperties>

	<style type="text/css">
	<![CDATA[
		.st1 {fill:none;stroke:none;stroke-linecap:round;stroke-linejoin:round;stroke-width:0.75}
		.st2 {fill:#000000;font-family:新細明體;font-size:1.33333em}
		.st3 {stroke:#000000;stroke-linecap:round;stroke-linejoin:round;stroke-width:1}
		.st4 {stroke:#ffffff;stroke-linecap:round;stroke-linejoin:round;stroke-opacity:0;stroke-width:1}
		.st5 {fill:none;stroke:#000000;stroke-linecap:round;stroke-linejoin:round;stroke-width:1}
		.st6 {fill:none;fill-rule:evenodd;font-size:12px;overflow:visible;stroke-linecap:square;stroke-miterlimit:3}
	]]>
	</style>

	<g v:mID="0" v:index="1" v:groupContext="foregroundPage">
		<title>頁-1</title>
		<v:pageProperties v:drawingScale="0.0393701" v:pageScale="0.0393701" v:drawingUnits="24" v:shadowOffsetX="8.50394"
				v:shadowOffsetY="-8.50394"/>
		<g id="group36-1" transform="translate(19,-18.75)" v:mID="36" v:groupContext="group">
			<title>工作表.36</title>
			<g id="group35-2" transform="translate(264.39,373.406) rotate(-90)" v:mID="35" v:groupContext="group">
				<title>工作表.35</title>
				<g id="shape2-3" v:mID="2" v:groupContext="shape" transform="translate(481.122,-153.839) rotate(90)">
					<title>工作表.2</title>
					<desc>比丘律</desc>
					<v:textBlock v:margins="rect(4,4,4,4)" v:tabSpace="42.5197"/>
					<v:textRect cx="36.8504" cy="336.555" width="73.71" height="73.7008"/>
					<rect x="0" y="299.705" width="73.7008" height="73.7008" class="st1"/>
					<text x="0.25em 1.803em 3.356em" y="341.36" class="st2" v:langID="1028"><v:paragraph v:horizAlign="4"/><v:tabList/>比丘律</text>				</g>
				<g id="shape3-6" v:mID="3" v:groupContext="shape" transform="translate(523.642,-54.626) rotate(90)">
					<title>工作表.3</title>
					<desc>經分別</desc>
					<v:textBlock v:margins="rect(4,4,4,4)" v:tabSpace="42.5197"/>
					<v:textRect cx="36.8504" cy="336.555" width="73.71" height="73.7008"/>
					<rect x="0" y="299.705" width="73.7008" height="73.7008" class="st1"/>
					<text x="0.25em 1.803em 3.356em" y="341.36" class="st2" v:langID="1028"><v:paragraph v:horizAlign="4"/><v:tabList/>經分別</text>				</g>
				<g id="shape7-9" v:mID="7" v:groupContext="shape" transform="translate(438.602,-54.626) rotate(90)">
					<title>工作表.7</title>
					<desc>雜跋渠</desc>
					<v:textBlock v:margins="rect(4,4,4,4)" v:tabSpace="42.5197"/>
					<v:textRect cx="36.8504" cy="336.555" width="73.71" height="73.7008"/>
					<rect x="0" y="299.705" width="73.7008" height="73.7008" class="st1"/>
					<text x="0.25em 1.803em 3.356em" y="341.36" class="st2" v:langID="1028"><v:paragraph v:horizAlign="4"/><v:tabList/>雜跋渠</text>				</g>
				<g id="shape11-12" v:mID="11" v:groupContext="shape" transform="translate(381.909,-153.839) rotate(90)">
					<title>工作表.11</title>
					<desc>比丘尼律</desc>
					<v:textBlock v:margins="rect(4,4,4,4)" v:tabSpace="42.5197"/>
					<v:textRect cx="36.8504" cy="336.555" width="73.71" height="73.7008"/>
					<rect x="0" y="299.705" width="73.7008" height="73.7008" class="st1"/>
					<text x="4.85" y="341.36" class="st2" v:langID="1028"><v:paragraph v:horizAlign="1"/><v:tabList/>比丘尼律</text>				</g>
				<g id="shape12-15" v:mID="12" v:groupContext="shape" transform="translate(373.406,-57.4606) rotate(90)">
					<title>工作表.12</title>
					<desc>出其不共者</desc>
					<v:textBlock v:margins="rect(4,4,4,4)" v:tabSpace="42.5197"/>
					<v:textRect cx="45.3543" cy="328.051" width="90.71" height="90.7087"/>
					<rect x="0" y="282.697" width="90.7087" height="90.7087" class="st1"/>
					<text x="5.35" y="332.85" class="st2" v:langID="1028"><v:paragraph v:horizAlign="1"/><v:tabList/>出其不共者</text>				</g>
				<g id="shape4-18" v:mID="4" v:groupContext="shape" transform="translate(567.579,49.5472) rotate(90)">
					<title>工作表.4</title>
					<desc>緣起</desc>
					<v:textBlock v:margins="rect(4,4,4,4)" v:tabSpace="42.5197"/>
					<v:textRect cx="21.2598" cy="352.146" width="42.52" height="42.5197"/>
					<rect x="0" y="330.886" width="42.5197" height="42.5197" class="st1"/>
					<text x="5.26" y="356.95" class="st2" v:langID="1028"><v:paragraph v:horizAlign="1"/><v:tabList/>緣起</text>				</g>
				<g id="shape5-21" v:mID="5" v:groupContext="shape" transform="translate(411.673,49.5472) rotate(90)">
					<title>工作表.5</title>
					<desc>波羅夷、僧殘、不定、捨墮、墮、對悔、</desc>
					<v:textBlock v:margins="rect(4,4,4,4)" v:tabSpace="42.5197"/>
					<v:textRect cx="148.819" cy="224.587" width="297.64" height="297.638"/>
					<rect x="0" y="75.7677" width="297.638" height="297.638" class="st1"/>
					<text x="4.82" y="229.39" class="st2" v:langID="1028"><v:paragraph v:horizAlign="1"/><v:tabList/>波羅夷、僧殘、不定、捨墮、墮、對悔、</text>				</g>
				<g id="shape6-24" v:mID="6" v:groupContext="shape" transform="translate(447.106,49.5472) rotate(90)">
					<title>工作表.6</title>
					<desc>眾學法、七滅諍附</desc>
					<v:textBlock v:margins="rect(4,4,4,4)" v:tabSpace="42.5197"/>
					<v:textRect cx="85.0394" cy="288.366" width="170.08" height="170.079"/>
					<rect x="0" y="203.327" width="170.079" height="170.079" class="st1"/>
					<text x="5.04" y="293.17" class="st2" v:langID="1028"><v:paragraph v:horizAlign="1"/><v:tabList/>眾學法、七滅諍（附）</text>				</g>
				<g id="shape8-27" v:mID="8" v:groupContext="shape" transform="translate(482.539,48.1299) rotate(90)">
					<title>工作表.8</title>
					<desc>雜事</desc>
					<v:textBlock v:margins="rect(4,4,4,4)" v:tabSpace="42.5197"/>
					<v:textRect cx="21.2598" cy="352.146" width="42.52" height="42.5197"/>
					<rect x="0" y="330.886" width="42.5197" height="42.5197" class="st1"/>
					<text x="5.26" y="356.95" class="st2" v:langID="1028"><v:paragraph v:horizAlign="1"/><v:tabList/>雜事</text>				</g>
				<g id="shape9-30" v:mID="9" v:groupContext="shape" transform="translate(438.602,48.1299) rotate(90)">
					<title>工作表.9</title>
					<desc>結集後記</desc>
					<v:textBlock v:margins="rect(4,4,4,4)" v:tabSpace="42.5197"/>
					<v:textRect cx="36.8504" cy="336.555" width="73.71" height="73.7008"/>
					<rect x="0" y="299.705" width="73.7008" height="73.7008" class="st1"/>
					<text x="4.85" y="341.36" class="st2" v:langID="1028"><v:paragraph v:horizAlign="1"/><v:tabList/>結集後記</text>				</g>
				<g id="shape10-33" v:mID="10" v:groupContext="shape" transform="translate(394.665,48.1299) rotate(90)">
					<title>工作表.10</title>
					<desc>威儀法附</desc>
					<v:textBlock v:margins="rect(4,4,4,4)" v:tabSpace="42.5197"/>
					<v:textRect cx="52.4409" cy="320.965" width="104.89" height="104.882"/>
					<rect x="0" y="268.524" width="104.882" height="104.882" class="st1"/>
					<text x="4.44" y="325.76" class="st2" v:langID="1028"><v:paragraph v:horizAlign="1"/><v:tabList/>威儀法（附）</text>				</g>
				<g id="shape13-36" v:mID="13" v:groupContext="shape" transform="translate(418.76,-165.177) rotate(90)">
					<title>工作表.13</title>
					<path d="M0 373.41 L14.17 373.41" class="st3"/>
				</g>
				<g id="shape14-39" v:mID="14" v:groupContext="shape" transform="translate(45.3543,-538.583)">
					<title>工作表.14</title>
					<path d="M0 373.41 L99.21 373.41" class="st3"/>
				</g>
				<g id="shape15-42" v:mID="15" v:groupContext="shape" transform="translate(447.106,33.248) rotate(90)">
					<title>工作表.15</title>
					<path d="M0 373.41 L14.17 373.41" class="st3"/>
				</g>
				<g id="shape16-45" v:mID="16" v:groupContext="shape" transform="translate(503.799,33.248) rotate(90)">
					<title>工作表.16</title>
					<path d="M0 373.41 L14.17 373.41" class="st3"/>
				</g>
				<g id="shape17-48" v:mID="17" v:groupContext="shape" transform="translate(532.146,33.248) rotate(90)">
					<title>工作表.17</title>
					<path d="M0 373.41 L14.17 373.41" class="st3"/>
				</g>
				<g id="shape18-51" v:mID="18" v:groupContext="shape" transform="translate(588.839,33.248) rotate(90)">
					<title>工作表.18</title>
					<path d="M0 373.41 L14.17 373.41" class="st3"/>
				</g>
				<g id="shape19-54" v:mID="19" v:groupContext="shape" transform="translate(560.492,19.0748) rotate(90)">
					<title>工作表.19</title>
					<path d="M0 373.41 L14.17 373.41" class="st3"/>
				</g>
				<g id="shape20-57" v:mID="20" v:groupContext="shape" transform="translate(475.453,19.0748) rotate(90)">
					<title>工作表.20</title>
					<path d="M0 373.41 L14.17 373.41" class="st3"/>
				</g>
				<g id="shape21-60" v:mID="21" v:groupContext="shape" transform="translate(73.7008,-340.157)">
					<title>工作表.21</title>
					<path d="M0 373.41 L56.69 373.41" class="st3"/>
				</g>
				<g id="shape22-63" v:mID="22" v:groupContext="shape" transform="translate(158.74,-340.157)">
					<title>工作表.22</title>
					<path d="M0 373.41 L56.69 373.41" class="st3"/>
				</g>
				<g id="shape23-66" v:mID="23" v:groupContext="shape" transform="translate(418.76,-82.9724) rotate(90)">
					<title>工作表.23</title>
					<path d="M0 373.41 L28.35 373.41" class="st3"/>
				</g>
				<g id="shape24-69" v:mID="24" v:groupContext="shape" transform="translate(517.972,-80.1378) rotate(90)">
					<title>工作表.24</title>
					<path d="M0 373.41 L14.17 373.41" class="st3"/>
				</g>
				<g id="shape25-72" v:mID="25" v:groupContext="shape" transform="translate(475.453,-65.9646) rotate(90)">
					<title>工作表.25</title>
					<path d="M0 373.41 L14.17 373.41" class="st3"/>
				</g>
				<g id="shape26-75" v:mID="26" v:groupContext="shape" transform="translate(560.492,-65.9646) rotate(90)">
					<title>工作表.26</title>
					<path d="M0 373.41 L14.17 373.41" class="st3"/>
				</g>
				<g id="shape27-78" v:mID="27" v:groupContext="shape" transform="translate(102.047,-439.37)">
					<title>工作表.27</title>
					<path d="M0 373.41 L85.04 373.41" class="st3"/>
				</g>
				<g id="shape28-81" v:mID="28" v:groupContext="shape" transform="translate(461.28,-179.35) rotate(90)">
					<title>工作表.28</title>
					<path d="M0 373.41 L14.17 373.41" class="st3"/>
				</g>
				<g id="shape29-84" v:mID="29" v:groupContext="shape" transform="translate(517.972,-165.177) rotate(90)">
					<title>工作表.29</title>
					<path d="M0 373.41 L14.17 373.41" class="st3"/>
				</g>
				<g id="shape31-87" v:mID="31" v:groupContext="shape" transform="translate(2.83465,-637.795)">
					<title>工作表.31</title>
					<path d="M0 373.41 L255.12 373.41" class="st4"/>
				</g>
				<g id="shape32-90" v:mID="32" v:groupContext="shape" transform="translate(2.83465,0)">
					<title>工作表.32</title>
					<path d="M0 373.41 L255.12 373.41" class="st4"/>
				</g>
				<g id="shape33-93" v:mID="33" v:groupContext="shape" transform="translate(-115.453,373.406) rotate(-90)">
					<title>工作表.33</title>
					<path d="M0 373.41 L637.8 373.41" class="st4"/>
				</g>
				<g id="shape34-96" v:mID="34" v:groupContext="shape" transform="translate(-370.571,373.406) rotate(-90)">
					<title>工作表.34</title>
					<path d="M0 373.41 L637.8 373.41" class="st4"/>
				</g>
				<g id="shape30-99" v:mID="30" v:groupContext="shape" transform="translate(408.839,34.6654) rotate(90)">
					<title>工作表.30</title>
					<desc>3</desc>
					<v:textBlock v:margins="rect(4,4,4,4)" v:tabSpace="42.5197"/>
					<v:textRect cx="9.92126" cy="363.484" width="19.85" height="19.8425"/>
					<ellipse cx="9.92126" cy="363.484" rx="9.92126" ry="9.92126" class="st5"/>
					<text x="6.16" y="368.28" class="st2" v:langID="1028"><v:paragraph v:horizAlign="1"/><v:tabList/>3</text>				</g>
			</g>
			<g id="shape1-102" v:mID="1" v:groupContext="shape" transform="translate(28.3465,-59.5276)">
				<title>工作表.1</title>
				<desc>毗奈耶</desc>
				<v:textBlock v:margins="rect(4,4,4,4)" v:tabSpace="42.5197"/>
				<v:textRect cx="28.3465" cy="345.059" width="56.7" height="56.6929"/>
				<rect x="0" y="316.713" width="56.6929" height="56.6929" class="st1"/>
				<text x="4.35" y="349.86" class="st2" v:langID="1028"><v:paragraph v:horizAlign="1"/><v:tabList/>毗奈耶</text>			</g>
		</g>
	</g>
</svg>
