<?xml version="1.0" encoding="UTF-8" standalone="no"?>
<!DOCTYPE svg PUBLIC "-//W3C//DTD SVG 1.0//EN" "http://www.w3.org/TR/2001/REC-SVG-20010904/DTD/svg10.dtd">
<!-- 由 Microsoft Visio 11.0, SVG Export, v1.0 產生 y33.0188.svg Page-1 -->
<svg xmlns="http://www.w3.org/2000/svg" xmlns:xlink="http://www.w3.org/1999/xlink" xmlns:ev="http://www.w3.org/2001/xml-events"
		xmlns:v="http://schemas.microsoft.com/visio/2003/SVGExtensions/" width="7.22069in" height="8.83139in"
		viewBox="0 0 519.89 635.86" xml:space="preserve" color-interpolation-filters="sRGB" class="st6">
	<v:documentProperties v:langID="1028" v:metric="true" v:viewMarkup="false">
		<v:userDefs>
			<v:ud v:nameU="msvSubprocessMaster" v:prompt="" v:val="VT4(Box)"/>
			<v:ud v:nameU="msvNoAutoConnect" v:val="VT0(1):26"/>
		</v:userDefs>
	</v:documentProperties>

	<style type="text/css">
	<![CDATA[
		.st1 {fill:none;stroke:none;stroke-linecap:round;stroke-linejoin:round;stroke-width:0.75}
		.st2 {fill:#000000;font-family:新細明體;font-size:1.33333em}
		.st3 {font-family:標楷體;font-size:1em}
		.st4 {stroke:#000000;stroke-dasharray:3,3;stroke-linecap:round;stroke-linejoin:round;stroke-width:1}
		.st5 {stroke:#000000;stroke-linecap:round;stroke-linejoin:round;stroke-width:1}
		.st6 {fill:none;fill-rule:evenodd;font-size:12px;overflow:visible;stroke-linecap:square;stroke-miterlimit:3}
	]]>
	</style>

	<g v:mID="0" v:index="1" v:groupContext="foregroundPage">
		<title>頁-1</title>
		<v:pageProperties v:drawingScale="0.0393701" v:pageScale="0.0393701" v:drawingUnits="24" v:shadowOffsetX="8.50394"
				v:shadowOffsetY="-8.50394"/>
		<g id="shape1-1" v:mID="1" v:groupContext="shape" transform="translate(219.118,-543.159)">
			<title>工作表.1</title>
			<desc>中期佛教</desc>
			<v:textBlock v:margins="rect(4,4,4,4)" v:tabSpace="42.5197" v:verticalText="true"/>
			<v:textRect cx="36.8504" cy="599.01" width="73.71" height="73.7008"/>
			<rect x="0" y="562.159" width="73.7008" height="73.7008" class="st1"/>
			<text x="36.85" y="567.01" writing-mode="tb-rl" class="st2" v:langID="1028"><v:paragraph v:horizAlign="1"/><v:tabList/>中期佛教</text>		</g>
		<g id="shape2-4" v:mID="2" v:groupContext="shape" transform="translate(263.055,-496.388)">
			<title>工作表.2</title>
			<desc>緣有</desc>
			<v:textBlock v:margins="rect(4,4,4,4)" v:tabSpace="42.5197" v:verticalText="true"/>
			<v:textRect cx="21.2598" cy="614.6" width="42.52" height="42.5197"/>
			<rect x="0" y="593.341" width="42.5197" height="42.5197" class="st1"/>
			<text x="21.26" y="598.6" writing-mode="tb-rl" class="st2" v:langID="1028"><v:paragraph v:horizAlign="1"/><v:tabList/>緣有</text>		</g>
		<g id="shape3-7" v:mID="3" v:groupContext="shape" transform="translate(234.709,-496.388)">
			<title>工作表.3</title>
			<desc>性空</desc>
			<v:textBlock v:margins="rect(4,4,4,4)" v:tabSpace="42.5197" v:verticalText="true"/>
			<v:textRect cx="21.2598" cy="614.6" width="42.52" height="42.5197"/>
			<rect x="0" y="593.341" width="42.5197" height="42.5197" class="st1"/>
			<text x="21.26" y="598.6" writing-mode="tb-rl" class="st2" v:langID="1028"><v:paragraph v:horizAlign="1"/><v:tabList/>性空</text>		</g>
		<g id="shape4-10" v:mID="4" v:groupContext="shape" transform="translate(206.362,-496.388)">
			<title>工作表.4</title>
			<desc>大乘</desc>
			<v:textBlock v:margins="rect(4,4,4,4)" v:tabSpace="42.5197" v:verticalText="true"/>
			<v:textRect cx="21.2598" cy="614.6" width="42.52" height="42.5197"/>
			<rect x="0" y="593.341" width="42.5197" height="42.5197" class="st1"/>
			<text x="21.26" y="598.6" writing-mode="tb-rl" class="st2" v:langID="1028"><v:paragraph v:horizAlign="1"/><v:tabList/>大乘</text>		</g>
		<g id="shape5-13" v:mID="5" v:groupContext="shape" transform="translate(202.677,-373.081)">
			<title>工作表.5</title>
			<desc>本性空者大成</desc>
			<v:textBlock v:margins="rect(4,4,4,4)" v:tabSpace="42.5197" v:verticalText="true"/>
			<v:textRect cx="52.4409" cy="583.419" width="104.89" height="104.882"/>
			<rect x="0" y="530.978" width="104.882" height="104.882" class="st1"/>
			<text x="52.44" y="535.42" writing-mode="tb-rl" class="st2" v:langID="1028"><v:paragraph v:horizAlign="1"/><v:tabList/>本性空者大成</text>		</g>
		<g id="shape6-16" v:mID="6" v:groupContext="shape" transform="translate(218.268,-288.041)">
			<title>工作表.6</title>
			<desc>四五○─</desc>
			<v:textBlock v:margins="rect(4,4,4,4)" v:tabSpace="42.5197" v:verticalText="true"/>
			<v:textRect cx="36.8504" cy="599.01" width="73.71" height="73.7008"/>
			<rect x="0" y="562.159" width="73.7008" height="73.7008" class="st1"/>
			<text x="36.85" y="567.01" writing-mode="tb-rl" class="st2" v:langID="1028"><v:paragraph v:horizAlign="1"/><v:tabList/>四五<tspan
						class="st3" v:langID="1033">○</tspan>─</text>		</g>
		<g id="shape7-20" v:mID="7" v:groupContext="shape" transform="translate(252.283,-339.065)">
			<title>工作表.7</title>
			<desc>發智者病有</desc>
			<v:textBlock v:margins="rect(4,4,4,4)" v:tabSpace="42.5197" v:verticalText="true"/>
			<v:textRect cx="45.3543" cy="590.506" width="90.71" height="90.7087"/>
			<rect x="0" y="545.152" width="90.7087" height="90.7087" class="st1"/>
			<text x="45.35" y="550.51" writing-mode="tb-rl" class="st2" v:langID="1028"><v:paragraph v:horizAlign="1"/><v:tabList/>發智者病有</text>		</g>
		<g id="shape8-23" v:mID="8" v:groupContext="shape" transform="translate(260.787,-239.852)">
			<title>工作表.8</title>
			<desc>四○○─</desc>
			<v:textBlock v:margins="rect(4,4,4,4)" v:tabSpace="42.5197" v:verticalText="true"/>
			<v:textRect cx="36.8504" cy="599.01" width="73.71" height="73.7008"/>
			<rect x="0" y="562.159" width="73.7008" height="73.7008" class="st1"/>
			<text x="36.85" y="567.01" writing-mode="tb-rl" class="st2" v:langID="1028"><v:paragraph v:horizAlign="1"/><v:tabList/>四<tspan
						class="st3" v:langID="1033">○○</tspan>─</text>		</g>
		<g id="shape9-27" v:mID="9" v:groupContext="shape" transform="translate(294.803,-290.876)">
			<title>工作表.9</title>
			<desc>一切有者盛</desc>
			<v:textBlock v:margins="rect(4,4,4,4)" v:tabSpace="42.5197" v:verticalText="true"/>
			<v:textRect cx="45.3543" cy="590.506" width="90.71" height="90.7087"/>
			<rect x="0" y="545.152" width="90.7087" height="90.7087" class="st1"/>
			<text x="45.35" y="550.51" writing-mode="tb-rl" class="st2" v:langID="1028"><v:paragraph v:horizAlign="1"/><v:tabList/>一切有者盛</text>		</g>
		<g id="shape10-30" v:mID="10" v:groupContext="shape" transform="translate(303.307,-191.663)">
			<title>工作表.10</title>
			<desc>二○○─</desc>
			<v:textBlock v:margins="rect(4,4,4,4)" v:tabSpace="42.5197" v:verticalText="true"/>
			<v:textRect cx="36.8504" cy="599.01" width="73.71" height="73.7008"/>
			<rect x="0" y="562.159" width="73.7008" height="73.7008" class="st1"/>
			<text x="36.85" y="567.01" writing-mode="tb-rl" class="st2" v:langID="1028"><v:paragraph v:horizAlign="1"/><v:tabList/>二<tspan
						class="st3" v:langID="1033">○○</tspan>─</text>		</g>
		<g id="shape11-34" v:mID="11" v:groupContext="shape" transform="translate(337.323,-227.096)">
			<title>工作表.11</title>
			<desc>分別說者興</desc>
			<v:textBlock v:margins="rect(4,4,4,4)" v:tabSpace="42.5197" v:verticalText="true"/>
			<v:textRect cx="45.3543" cy="590.506" width="90.71" height="90.7087"/>
			<rect x="0" y="545.152" width="90.7087" height="90.7087" class="st1"/>
			<text x="45.35" y="550.51" writing-mode="tb-rl" class="st2" v:langID="1028"><v:paragraph v:horizAlign="1"/><v:tabList/>分別說者興</text>		</g>
		<g id="shape12-37" v:mID="12" v:groupContext="shape" transform="translate(345.827,-143.474)">
			<title>工作表.12</title>
			<desc>一○○─</desc>
			<v:textBlock v:margins="rect(4,4,4,4)" v:tabSpace="42.5197" v:verticalText="true"/>
			<v:textRect cx="36.8504" cy="599.01" width="73.71" height="73.7008"/>
			<rect x="0" y="562.159" width="73.7008" height="73.7008" class="st1"/>
			<text x="36.85" y="567.01" writing-mode="tb-rl" class="st2" v:langID="1028"><v:paragraph v:horizAlign="1"/><v:tabList/>一<tspan
						class="st3" v:langID="1033">○○</tspan>─</text>		</g>
		<g id="shape13-41" v:mID="13" v:groupContext="shape" transform="translate(417.543,-356.073)">
			<title>工作表.13</title>
			<desc>初期佛教</desc>
			<v:textBlock v:margins="rect(4,4,4,4)" v:tabSpace="42.5197" v:verticalText="true"/>
			<v:textRect cx="36.8504" cy="599.01" width="73.71" height="73.7008"/>
			<rect x="0" y="562.159" width="73.7008" height="73.7008" class="st1"/>
			<text x="36.85" y="567.01" writing-mode="tb-rl" class="st2" v:langID="1028"><v:paragraph v:horizAlign="1"/><v:tabList/>初期佛教</text>		</g>
		<g id="shape14-44" v:mID="14" v:groupContext="shape" transform="translate(470.551,-305.049)">
			<title>工作表.14</title>
			<desc>事有</desc>
			<v:textBlock v:margins="rect(4,4,4,4)" v:tabSpace="42.5197" v:verticalText="true"/>
			<v:textRect cx="12.189" cy="614.6" width="24.38" height="42.5197"/>
			<rect x="0" y="593.341" width="24.378" height="42.5197" class="st1"/>
			<text x="12.19" y="598.6" writing-mode="tb-rl" class="st2" v:langID="1028"><v:paragraph v:horizAlign="1"/><v:tabList/>事有</text>		</g>
		<g id="shape15-47" v:mID="15" v:groupContext="shape" transform="translate(433.134,-305.049)">
			<title>工作表.15</title>
			<desc>無常</desc>
			<v:textBlock v:margins="rect(4,4,4,4)" v:tabSpace="42.5197" v:verticalText="true"/>
			<v:textRect cx="21.2598" cy="614.6" width="42.52" height="42.5197"/>
			<rect x="0" y="593.341" width="42.5197" height="42.5197" class="st1"/>
			<text x="21.26" y="598.6" writing-mode="tb-rl" class="st2" v:langID="1028"><v:paragraph v:horizAlign="1"/><v:tabList/>無常</text>		</g>
		<g id="shape16-50" v:mID="16" v:groupContext="shape" transform="translate(404.787,-305.049)">
			<title>工作表.16</title>
			<desc>小乘</desc>
			<v:textBlock v:margins="rect(4,4,4,4)" v:tabSpace="42.5197" v:verticalText="true"/>
			<v:textRect cx="21.2598" cy="614.6" width="42.52" height="42.5197"/>
			<rect x="0" y="593.341" width="42.5197" height="42.5197" class="st1"/>
			<text x="21.26" y="598.6" writing-mode="tb-rl" class="st2" v:langID="1028"><v:paragraph v:horizAlign="1"/><v:tabList/>小乘</text>		</g>
		<g id="shape17-53" v:mID="17" v:groupContext="shape" transform="translate(379.843,-178.907)">
			<title>工作表.17</title>
			<desc>大乘者初分</desc>
			<v:textBlock v:margins="rect(4,4,4,4)" v:tabSpace="42.5197" v:verticalText="true"/>
			<v:textRect cx="45.3543" cy="590.506" width="90.71" height="90.7087"/>
			<rect x="0" y="545.152" width="90.7087" height="90.7087" class="st1"/>
			<text x="45.35" y="550.51" writing-mode="tb-rl" class="st2" v:langID="1028"><v:paragraph v:horizAlign="1"/><v:tabList/>大乘者初分</text>		</g>
		<g id="shape18-56" v:mID="18" v:groupContext="shape" transform="translate(403.937,-120.797)">
			<title>工作表.18</title>
			<desc>佛元</desc>
			<v:textBlock v:margins="rect(4,4,4,4)" v:tabSpace="42.5197" v:verticalText="true"/>
			<v:textRect cx="21.2598" cy="614.6" width="42.52" height="42.5197"/>
			<rect x="0" y="593.341" width="42.5197" height="42.5197" class="st1"/>
			<text x="21.26" y="598.6" writing-mode="tb-rl" class="st2" v:langID="1028"><v:paragraph v:horizAlign="1"/><v:tabList/>佛元</text>		</g>
		<g id="shape19-59" v:mID="19" v:groupContext="shape" transform="translate(455.528,-126.467)">
			<title>工作表.19</title>
			<desc>佛教創始</desc>
			<v:textBlock v:margins="rect(4,4,4,4)" v:tabSpace="42.5197" v:verticalText="true"/>
			<v:textRect cx="12.189" cy="599.01" width="24.38" height="73.7008"/>
			<rect x="0" y="562.159" width="24.378" height="73.7008" class="st1"/>
			<text x="12.19" y="567.01" writing-mode="tb-rl" class="st2" v:langID="1028"><v:paragraph v:horizAlign="1"/><v:tabList/>佛教創始</text>		</g>
		<g id="shape20-62" v:mID="20" v:groupContext="shape" transform="translate(455.528,-64.1043)">
			<title>工作表.20</title>
			<desc>佛世</desc>
			<v:textBlock v:margins="rect(4,4,4,4)" v:tabSpace="42.5197" v:verticalText="true"/>
			<v:textRect cx="12.189" cy="614.6" width="24.38" height="42.5197"/>
			<rect x="0" y="593.341" width="24.378" height="42.5197" class="st1"/>
			<text x="12.19" y="598.6" writing-mode="tb-rl" class="st2" v:langID="1028"><v:paragraph v:horizAlign="1"/><v:tabList/>佛世</text>		</g>
		<g id="shape21-65" v:mID="21" v:groupContext="shape" transform="translate(167.244,-339.065)">
			<title>工作表.21</title>
			<desc>方廣者執空</desc>
			<v:textBlock v:margins="rect(4,4,4,4)" v:tabSpace="42.5197" v:verticalText="true"/>
			<v:textRect cx="45.3543" cy="590.506" width="90.71" height="90.7087"/>
			<rect x="0" y="545.152" width="90.7087" height="90.7087" class="st1"/>
			<text x="45.35" y="550.51" writing-mode="tb-rl" class="st2" v:langID="1028"><v:paragraph v:horizAlign="1"/><v:tabList/>方廣者執空</text>		</g>
		<g id="shape22-68" v:mID="22" v:groupContext="shape" transform="translate(175.748,-239.852)">
			<title>工作表.22</title>
			<desc>五五○─</desc>
			<v:textBlock v:margins="rect(4,4,4,4)" v:tabSpace="42.5197" v:verticalText="true"/>
			<v:textRect cx="36.8504" cy="599.01" width="73.71" height="73.7008"/>
			<rect x="0" y="562.159" width="73.7008" height="73.7008" class="st1"/>
			<text x="36.85" y="567.01" writing-mode="tb-rl" class="st2" v:langID="1028"><v:paragraph v:horizAlign="1"/><v:tabList/>五五<tspan
						class="st3" v:langID="1033">○</tspan>─</text>		</g>
		<g id="shape23-72" v:mID="23" v:groupContext="shape" transform="translate(124.724,-290.876)">
			<title>工作表.23</title>
			<desc>瑜伽者入大</desc>
			<v:textBlock v:margins="rect(4,4,4,4)" v:tabSpace="42.5197" v:verticalText="true"/>
			<v:textRect cx="45.3543" cy="590.506" width="90.71" height="90.7087"/>
			<rect x="0" y="545.152" width="90.7087" height="90.7087" class="st1"/>
			<text x="45.35" y="550.51" writing-mode="tb-rl" class="st2" v:langID="1028"><v:paragraph v:horizAlign="1"/><v:tabList/>瑜伽者入大</text>		</g>
		<g id="shape24-75" v:mID="24" v:groupContext="shape" transform="translate(124.724,-183.159)">
			<title>工作表.24</title>
			<desc>七○○─</desc>
			<v:textBlock v:margins="rect(4,4,4,4)" v:tabSpace="42.5197" v:verticalText="true"/>
			<v:textRect cx="45.3543" cy="590.506" width="90.71" height="90.7087"/>
			<rect x="0" y="545.152" width="90.7087" height="90.7087" class="st1"/>
			<text x="45.35" y="558.51" writing-mode="tb-rl" class="st2" v:langID="1028"><v:paragraph v:horizAlign="1"/><v:tabList/>七<tspan
						class="st3" v:langID="1033">○○</tspan>─</text>		</g>
		<g id="shape25-79" v:mID="25" v:groupContext="shape" transform="translate(82.2047,-227.096)">
			<title>工作表.25</title>
			<desc>中觀者重光</desc>
			<v:textBlock v:margins="rect(4,4,4,4)" v:tabSpace="42.5197" v:verticalText="true"/>
			<v:textRect cx="45.3543" cy="590.506" width="90.71" height="90.7087"/>
			<rect x="0" y="545.152" width="90.7087" height="90.7087" class="st1"/>
			<text x="45.35" y="550.51" writing-mode="tb-rl" class="st2" v:langID="1028"><v:paragraph v:horizAlign="1"/><v:tabList/>中觀者重光</text>		</g>
		<g id="shape26-82" v:mID="26" v:groupContext="shape" transform="translate(90.7087,-143.474)">
			<title>工作表.26</title>
			<desc>七五○─</desc>
			<v:textBlock v:margins="rect(4,4,4,4)" v:tabSpace="42.5197" v:verticalText="true"/>
			<v:textRect cx="36.8504" cy="599.01" width="73.71" height="73.7008"/>
			<rect x="0" y="562.159" width="73.7008" height="73.7008" class="st1"/>
			<text x="36.85" y="567.01" writing-mode="tb-rl" class="st2" v:langID="1028"><v:paragraph v:horizAlign="1"/><v:tabList/>七五<tspan
						class="st3" v:langID="1033">○</tspan>─</text>		</g>
		<g id="shape27-86" v:mID="27" v:groupContext="shape" transform="translate(20.6929,-356.073)">
			<title>工作表.27</title>
			<desc>後期佛教</desc>
			<v:textBlock v:margins="rect(4,4,4,4)" v:tabSpace="42.5197" v:verticalText="true"/>
			<v:textRect cx="36.8504" cy="599.01" width="73.71" height="73.7008"/>
			<rect x="0" y="562.159" width="73.7008" height="73.7008" class="st1"/>
			<text x="36.85" y="567.01" writing-mode="tb-rl" class="st2" v:langID="1028"><v:paragraph v:horizAlign="1"/><v:tabList/>後期佛教</text>		</g>
		<g id="shape28-89" v:mID="28" v:groupContext="shape" transform="translate(64.6299,-305.049)">
			<title>工作表.28</title>
			<desc>妙有</desc>
			<v:textBlock v:margins="rect(4,4,4,4)" v:tabSpace="42.5197" v:verticalText="true"/>
			<v:textRect cx="21.2598" cy="614.6" width="42.52" height="42.5197"/>
			<rect x="0" y="593.341" width="42.5197" height="42.5197" class="st1"/>
			<text x="21.26" y="598.6" writing-mode="tb-rl" class="st2" v:langID="1028"><v:paragraph v:horizAlign="1"/><v:tabList/>妙有</text>		</g>
		<g id="shape29-92" v:mID="29" v:groupContext="shape" transform="translate(36.2835,-305.049)">
			<title>工作表.29</title>
			<desc>真常</desc>
			<v:textBlock v:margins="rect(4,4,4,4)" v:tabSpace="42.5197" v:verticalText="true"/>
			<v:textRect cx="21.2598" cy="614.6" width="42.52" height="42.5197"/>
			<rect x="0" y="593.341" width="42.5197" height="42.5197" class="st1"/>
			<text x="21.26" y="598.6" writing-mode="tb-rl" class="st2" v:langID="1028"><v:paragraph v:horizAlign="1"/><v:tabList/>真常</text>		</g>
		<g id="shape30-95" v:mID="30" v:groupContext="shape" transform="translate(39.685,-178.907)">
			<title>工作表.30</title>
			<desc>真常者綜合</desc>
			<v:textBlock v:margins="rect(4,4,4,4)" v:tabSpace="42.5197" v:verticalText="true"/>
			<v:textRect cx="45.3543" cy="590.506" width="90.71" height="90.7087"/>
			<rect x="0" y="545.152" width="90.7087" height="90.7087" class="st1"/>
			<text x="45.35" y="550.51" writing-mode="tb-rl" class="st2" v:langID="1028"><v:paragraph v:horizAlign="1"/><v:tabList/>真常者綜合</text>		</g>
		<g id="shape31-98" v:mID="31" v:groupContext="shape" transform="translate(17.0079,-305.049)">
			<title>工作表.31</title>
			<desc>一乘</desc>
			<v:textBlock v:margins="rect(4,4,4,4)" v:tabSpace="42.5197" v:verticalText="true"/>
			<v:textRect cx="12.189" cy="614.6" width="24.38" height="42.5197"/>
			<rect x="0" y="593.341" width="24.378" height="42.5197" class="st1"/>
			<text x="12.19" y="598.6" writing-mode="tb-rl" class="st2" v:langID="1028"><v:paragraph v:horizAlign="1"/><v:tabList/>一乘</text>		</g>
		<g id="shape32-101" v:mID="32" v:groupContext="shape" transform="translate(39.685,-86.7815)">
			<title>工作表.32</title>
			<desc>八○○─</desc>
			<v:textBlock v:margins="rect(4,4,4,4)" v:tabSpace="42.5197" v:verticalText="true"/>
			<v:textRect cx="45.3543" cy="590.506" width="90.71" height="90.7087"/>
			<rect x="0" y="545.152" width="90.7087" height="90.7087" class="st1"/>
			<text x="45.35" y="558.51" writing-mode="tb-rl" class="st2" v:langID="1028"><v:paragraph v:horizAlign="1"/><v:tabList/>八<tspan
						class="st3" v:langID="1033">○○</tspan>─</text>		</g>
		<g id="shape33-105" v:mID="33" v:groupContext="shape" transform="translate(30.3307,-117.963)">
			<title>工作表.33</title>
			<desc>佛教衰滅</desc>
			<v:textBlock v:margins="rect(4,4,4,4)" v:tabSpace="42.5197" v:verticalText="true"/>
			<v:textRect cx="12.189" cy="590.506" width="24.38" height="90.7087"/>
			<rect x="0" y="545.152" width="24.378" height="90.7087" class="st1"/>
			<text x="12.19" y="558.51" writing-mode="tb-rl" class="st2" v:langID="1028"><v:paragraph v:horizAlign="1"/><v:tabList/>佛教衰滅</text>		</g>
		<g id="shape34-108" v:mID="34" v:groupContext="shape" transform="translate(30.3307,-18.75)">
			<title>工作表.34</title>
			<desc>一一○○─</desc>
			<v:textBlock v:margins="rect(4,4,4,4)" v:tabSpace="42.5197" v:verticalText="true"/>
			<v:textRect cx="12.189" cy="590.506" width="24.38" height="90.7087"/>
			<rect x="0" y="545.152" width="24.378" height="90.7087" class="st1"/>
			<text x="12.19" y="550.51" writing-mode="tb-rl" class="st2" v:langID="1028"><v:paragraph v:horizAlign="1"/><v:tabList/>一一<tspan
						class="st3" v:langID="1033">○○</tspan>─</text>		</g>
		<g id="group40-112" transform="translate(217.425,-497.805)" v:mID="40" v:groupContext="group">
			<title>工作表.40</title>
			<g id="shape36-113" v:mID="36" v:groupContext="shape" transform="translate(635.86,596.175) rotate(90)">
				<title>工作表.36</title>
				<path d="M0 635.86 L39.69 635.86" class="st4"/>
			</g>
			<g id="shape37-116" v:mID="37" v:groupContext="shape" transform="translate(720.9,596.175) rotate(90)">
				<title>工作表.37</title>
				<path d="M0 635.86 L39.69 635.86" class="st4"/>
			</g>
			<g id="shape38-119" v:mID="38" v:groupContext="shape" transform="translate(-7.75086E-012,-39.685)">
				<title>工作表.38</title>
				<path d="M0 635.86 L85.04 635.86" class="st4"/>
			</g>
			<g id="shape39-122" v:mID="39" v:groupContext="shape">
				<title>工作表.39</title>
				<path d="M0 635.86 L85.04 635.86" class="st4"/>
			</g>
		</g>
		<g id="group42-125" transform="translate(245.772,-543.159)" v:mID="42" v:groupContext="group">
			<title>工作表.42</title>
			<g id="shape35-126" v:mID="35" v:groupContext="shape" transform="translate(635.86,562.159) rotate(90)">
				<title>工作表.35</title>
				<path d="M0 635.86 L73.7 635.86" class="st5"/>
			</g>
			<g id="shape41-129" v:mID="41" v:groupContext="shape" transform="translate(664.207,562.159) rotate(90)">
				<title>工作表.41</title>
				<path d="M0 635.86 L73.7 635.86" class="st5"/>
			</g>
		</g>
		<g id="group47-132" transform="translate(245.772,-367.411)" v:mID="47" v:groupContext="group">
			<title>工作表.47</title>
			<g id="shape43-133" v:mID="43" v:groupContext="shape" transform="translate(0,-113.386)">
				<title>工作表.43</title>
				<path d="M0 635.86 L28.35 635.86" class="st5"/>
			</g>
			<g id="shape44-136" v:mID="44" v:groupContext="shape">
				<title>工作表.44</title>
				<path d="M0 635.86 L28.35 635.86" class="st5"/>
			</g>
			<g id="shape45-139" v:mID="45" v:groupContext="shape" transform="translate(635.86,522.474) rotate(90)">
				<title>工作表.45</title>
				<path d="M0 635.86 L113.39 635.86" class="st5"/>
			</g>
			<g id="shape46-142" v:mID="46" v:groupContext="shape" transform="translate(664.207,522.474) rotate(90)">
				<title>工作表.46</title>
				<path d="M0 635.86 L113.39 635.86" class="st5"/>
			</g>
		</g>
		<g id="group49-145" transform="translate(203.252,-327.726)" v:mID="49" v:groupContext="group">
			<title>工作表.49</title>
			<g id="shape50-146" v:mID="50" v:groupContext="shape" transform="translate(0,-113.386)">
				<title>工作表.50</title>
				<path d="M0 635.86 L28.35 635.86" class="st5"/>
			</g>
			<g id="shape51-149" v:mID="51" v:groupContext="shape">
				<title>工作表.51</title>
				<path d="M0 635.86 L28.35 635.86" class="st5"/>
			</g>
			<g id="shape52-152" v:mID="52" v:groupContext="shape" transform="translate(635.86,522.474) rotate(90)">
				<title>工作表.52</title>
				<path d="M0 635.86 L113.39 635.86" class="st5"/>
			</g>
			<g id="shape53-155" v:mID="53" v:groupContext="shape" transform="translate(664.207,522.474) rotate(90)">
				<title>工作表.53</title>
				<path d="M0 635.86 L113.39 635.86" class="st5"/>
			</g>
		</g>
		<g id="group54-158" transform="translate(288.291,-327.726)" v:mID="54" v:groupContext="group">
			<title>工作表.54</title>
			<g id="shape55-159" v:mID="55" v:groupContext="shape" transform="translate(0,-113.386)">
				<title>工作表.55</title>
				<path d="M0 635.86 L28.35 635.86" class="st5"/>
			</g>
			<g id="shape56-162" v:mID="56" v:groupContext="shape">
				<title>工作表.56</title>
				<path d="M0 635.86 L28.35 635.86" class="st5"/>
			</g>
			<g id="shape57-165" v:mID="57" v:groupContext="shape" transform="translate(635.86,522.474) rotate(90)">
				<title>工作表.57</title>
				<path d="M0 635.86 L113.39 635.86" class="st5"/>
			</g>
			<g id="shape58-168" v:mID="58" v:groupContext="shape" transform="translate(664.207,522.474) rotate(90)">
				<title>工作表.58</title>
				<path d="M0 635.86 L113.39 635.86" class="st5"/>
			</g>
		</g>
		<g id="group59-171" transform="translate(160.732,-279.537)" v:mID="59" v:groupContext="group">
			<title>工作表.59</title>
			<g id="shape60-172" v:mID="60" v:groupContext="shape" transform="translate(0,-113.386)">
				<title>工作表.60</title>
				<path d="M0 635.86 L28.35 635.86" class="st5"/>
			</g>
			<g id="shape61-175" v:mID="61" v:groupContext="shape">
				<title>工作表.61</title>
				<path d="M0 635.86 L28.35 635.86" class="st5"/>
			</g>
			<g id="shape62-178" v:mID="62" v:groupContext="shape" transform="translate(635.86,522.474) rotate(90)">
				<title>工作表.62</title>
				<path d="M0 635.86 L113.39 635.86" class="st5"/>
			</g>
			<g id="shape63-181" v:mID="63" v:groupContext="shape" transform="translate(664.207,522.474) rotate(90)">
				<title>工作表.63</title>
				<path d="M0 635.86 L113.39 635.86" class="st5"/>
			</g>
		</g>
		<g id="group64-184" transform="translate(330.811,-279.537)" v:mID="64" v:groupContext="group">
			<title>工作表.64</title>
			<g id="shape65-185" v:mID="65" v:groupContext="shape" transform="translate(0,-113.386)">
				<title>工作表.65</title>
				<path d="M0 635.86 L28.35 635.86" class="st5"/>
			</g>
			<g id="shape66-188" v:mID="66" v:groupContext="shape">
				<title>工作表.66</title>
				<path d="M0 635.86 L28.35 635.86" class="st5"/>
			</g>
			<g id="shape67-191" v:mID="67" v:groupContext="shape" transform="translate(635.86,522.474) rotate(90)">
				<title>工作表.67</title>
				<path d="M0 635.86 L113.39 635.86" class="st5"/>
			</g>
			<g id="shape68-194" v:mID="68" v:groupContext="shape" transform="translate(664.207,522.474) rotate(90)">
				<title>工作表.68</title>
				<path d="M0 635.86 L113.39 635.86" class="st5"/>
			</g>
		</g>
		<g id="group69-197" transform="translate(118.213,-215.758)" v:mID="69" v:groupContext="group">
			<title>工作表.69</title>
			<g id="shape70-198" v:mID="70" v:groupContext="shape" transform="translate(0,-113.386)">
				<title>工作表.70</title>
				<path d="M0 635.86 L28.35 635.86" class="st5"/>
			</g>
			<g id="shape71-201" v:mID="71" v:groupContext="shape">
				<title>工作表.71</title>
				<path d="M0 635.86 L28.35 635.86" class="st5"/>
			</g>
			<g id="shape72-204" v:mID="72" v:groupContext="shape" transform="translate(635.86,522.474) rotate(90)">
				<title>工作表.72</title>
				<path d="M0 635.86 L113.39 635.86" class="st5"/>
			</g>
			<g id="shape73-207" v:mID="73" v:groupContext="shape" transform="translate(664.207,522.474) rotate(90)">
				<title>工作表.73</title>
				<path d="M0 635.86 L113.39 635.86" class="st5"/>
			</g>
		</g>
		<g id="group74-210" transform="translate(373.331,-215.758)" v:mID="74" v:groupContext="group">
			<title>工作表.74</title>
			<g id="shape75-211" v:mID="75" v:groupContext="shape" transform="translate(0,-113.386)">
				<title>工作表.75</title>
				<path d="M0 635.86 L28.35 635.86" class="st5"/>
			</g>
			<g id="shape76-214" v:mID="76" v:groupContext="shape">
				<title>工作表.76</title>
				<path d="M0 635.86 L28.35 635.86" class="st5"/>
			</g>
			<g id="shape77-217" v:mID="77" v:groupContext="shape" transform="translate(635.86,522.474) rotate(90)">
				<title>工作表.77</title>
				<path d="M0 635.86 L113.39 635.86" class="st5"/>
			</g>
			<g id="shape78-220" v:mID="78" v:groupContext="shape" transform="translate(664.207,522.474) rotate(90)">
				<title>工作表.78</title>
				<path d="M0 635.86 L113.39 635.86" class="st5"/>
			</g>
		</g>
		<g id="group79-223" transform="translate(75.6929,-167.569)" v:mID="79" v:groupContext="group">
			<title>工作表.79</title>
			<g id="shape80-224" v:mID="80" v:groupContext="shape" transform="translate(0,-113.386)">
				<title>工作表.80</title>
				<path d="M0 635.86 L28.35 635.86" class="st5"/>
			</g>
			<g id="shape81-227" v:mID="81" v:groupContext="shape">
				<title>工作表.81</title>
				<path d="M0 635.86 L28.35 635.86" class="st5"/>
			</g>
			<g id="shape82-230" v:mID="82" v:groupContext="shape" transform="translate(635.86,522.474) rotate(90)">
				<title>工作表.82</title>
				<path d="M0 635.86 L113.39 635.86" class="st5"/>
			</g>
			<g id="shape83-233" v:mID="83" v:groupContext="shape" transform="translate(664.207,522.474) rotate(90)">
				<title>工作表.83</title>
				<path d="M0 635.86 L113.39 635.86" class="st5"/>
			</g>
		</g>
		<g id="group84-236" transform="translate(415.85,-167.569)" v:mID="84" v:groupContext="group">
			<title>工作表.84</title>
			<g id="shape85-237" v:mID="85" v:groupContext="shape" transform="translate(0,-113.386)">
				<title>工作表.85</title>
				<path d="M0 635.86 L28.35 635.86" class="st5"/>
			</g>
			<g id="shape86-240" v:mID="86" v:groupContext="shape">
				<title>工作表.86</title>
				<path d="M0 635.86 L28.35 635.86" class="st5"/>
			</g>
			<g id="shape87-243" v:mID="87" v:groupContext="shape" transform="translate(635.86,522.474) rotate(90)">
				<title>工作表.87</title>
				<path d="M0 635.86 L113.39 635.86" class="st5"/>
			</g>
			<g id="shape88-246" v:mID="88" v:groupContext="shape" transform="translate(664.207,522.474) rotate(90)">
				<title>工作表.88</title>
				<path d="M0 635.86 L113.39 635.86" class="st5"/>
			</g>
		</g>
		<g id="group89-249" transform="translate(458.37,-109.459)" v:mID="89" v:groupContext="group">
			<title>工作表.89</title>
			<g id="shape90-250" v:mID="90" v:groupContext="shape" transform="translate(0,-113.386)">
				<title>工作表.90</title>
				<path d="M0 635.86 L28.35 635.86" class="st5"/>
			</g>
			<g id="shape91-253" v:mID="91" v:groupContext="shape">
				<title>工作表.91</title>
				<path d="M0 635.86 L28.35 635.86" class="st5"/>
			</g>
			<g id="shape92-256" v:mID="92" v:groupContext="shape" transform="translate(635.86,522.474) rotate(90)">
				<title>工作表.92</title>
				<path d="M0 635.86 L113.39 635.86" class="st5"/>
			</g>
			<g id="shape93-259" v:mID="93" v:groupContext="shape" transform="translate(664.207,522.474) rotate(90)">
				<title>工作表.93</title>
				<path d="M0 635.86 L113.39 635.86" class="st5"/>
			</g>
		</g>
		<g id="group94-262" transform="translate(33.1732,-109.459)" v:mID="94" v:groupContext="group">
			<title>工作表.94</title>
			<g id="shape95-263" v:mID="95" v:groupContext="shape" transform="translate(0,-113.386)">
				<title>工作表.95</title>
				<path d="M0 635.86 L28.35 635.86" class="st5"/>
			</g>
			<g id="shape96-266" v:mID="96" v:groupContext="shape">
				<title>工作表.96</title>
				<path d="M0 635.86 L28.35 635.86" class="st5"/>
			</g>
			<g id="shape97-269" v:mID="97" v:groupContext="shape" transform="translate(635.86,522.474) rotate(90)">
				<title>工作表.97</title>
				<path d="M0 635.86 L113.39 635.86" class="st5"/>
			</g>
			<g id="shape98-272" v:mID="98" v:groupContext="shape" transform="translate(664.207,522.474) rotate(90)">
				<title>工作表.98</title>
				<path d="M0 635.86 L113.39 635.86" class="st5"/>
			</g>
		</g>
		<g id="group99-275" transform="translate(415.85,-306.467)" v:mID="99" v:groupContext="group">
			<title>工作表.99</title>
			<g id="shape100-276" v:mID="100" v:groupContext="shape" transform="translate(635.86,596.175) rotate(90)">
				<title>工作表.100</title>
				<path d="M0 635.86 L39.69 635.86" class="st4"/>
			</g>
			<g id="shape101-279" v:mID="101" v:groupContext="shape" transform="translate(720.9,596.175) rotate(90)">
				<title>工作表.101</title>
				<path d="M0 635.86 L39.69 635.86" class="st4"/>
			</g>
			<g id="shape102-282" v:mID="102" v:groupContext="shape" transform="translate(-7.75086E-012,-39.685)">
				<title>工作表.102</title>
				<path d="M0 635.86 L85.04 635.86" class="st4"/>
			</g>
			<g id="shape103-285" v:mID="103" v:groupContext="shape">
				<title>工作表.103</title>
				<path d="M0 635.86 L85.04 635.86" class="st4"/>
			</g>
		</g>
		<g id="group104-288" transform="translate(19,-306.467)" v:mID="104" v:groupContext="group">
			<title>工作表.104</title>
			<g id="shape105-289" v:mID="105" v:groupContext="shape" transform="translate(635.86,596.175) rotate(90)">
				<title>工作表.105</title>
				<path d="M0 635.86 L39.69 635.86" class="st4"/>
			</g>
			<g id="shape106-292" v:mID="106" v:groupContext="shape" transform="translate(720.9,596.175) rotate(90)">
				<title>工作表.106</title>
				<path d="M0 635.86 L39.69 635.86" class="st4"/>
			</g>
			<g id="shape107-295" v:mID="107" v:groupContext="shape" transform="translate(-7.75086E-012,-39.685)">
				<title>工作表.107</title>
				<path d="M0 635.86 L85.04 635.86" class="st4"/>
			</g>
			<g id="shape108-298" v:mID="108" v:groupContext="shape">
				<title>工作表.108</title>
				<path d="M0 635.86 L85.04 635.86" class="st4"/>
			</g>
		</g>
		<g id="group109-301" transform="translate(47.3465,-356.073)" v:mID="109" v:groupContext="group">
			<title>工作表.109</title>
			<g id="shape110-302" v:mID="110" v:groupContext="shape" transform="translate(635.86,562.159) rotate(90)">
				<title>工作表.110</title>
				<path d="M0 635.86 L73.7 635.86" class="st5"/>
			</g>
			<g id="shape111-305" v:mID="111" v:groupContext="shape" transform="translate(664.207,562.159) rotate(90)">
				<title>工作表.111</title>
				<path d="M0 635.86 L73.7 635.86" class="st5"/>
			</g>
		</g>
		<g id="group112-308" transform="translate(444.197,-356.073)" v:mID="112" v:groupContext="group">
			<title>工作表.112</title>
			<g id="shape113-309" v:mID="113" v:groupContext="shape" transform="translate(635.86,562.159) rotate(90)">
				<title>工作表.113</title>
				<path d="M0 635.86 L73.7 635.86" class="st5"/>
			</g>
			<g id="shape114-312" v:mID="114" v:groupContext="shape" transform="translate(664.207,562.159) rotate(90)">
				<title>工作表.114</title>
				<path d="M0 635.86 L73.7 635.86" class="st5"/>
			</g>
		</g>
	</g>
</svg>
