<?xml version="1.0" encoding="UTF-8" standalone="no"?>
<!DOCTYPE svg PUBLIC "-//W3C//DTD SVG 1.0//EN" "http://www.w3.org/TR/2001/REC-SVG-20010904/DTD/svg10.dtd">
<!-- 由 Microsoft Visio 11.0, SVG Export, v1.0 產生 y33.0106.svg Page-1 -->
<svg xmlns="http://www.w3.org/2000/svg" xmlns:xlink="http://www.w3.org/1999/xlink" xmlns:ev="http://www.w3.org/2001/xml-events"
		xmlns:v="http://schemas.microsoft.com/visio/2003/SVGExtensions/" width="7.22069in" height="4.59564in"
		viewBox="0 0 519.89 330.886" xml:space="preserve" color-interpolation-filters="sRGB" class="st5">
	<v:documentProperties v:langID="1028" v:metric="true" v:viewMarkup="false">
		<v:userDefs>
			<v:ud v:nameU="msvSubprocessMaster" v:prompt="" v:val="VT4(Box)"/>
			<v:ud v:nameU="msvNoAutoConnect" v:val="VT0(1):26"/>
		</v:userDefs>
	</v:documentProperties>

	<style type="text/css">
	<![CDATA[
		.st1 {fill:none;stroke:none;stroke-linecap:round;stroke-linejoin:round;stroke-width:0.75}
		.st2 {fill:#000000;font-family:新細明體;font-size:1.33333em}
		.st3 {stroke:#000000;stroke-linecap:round;stroke-linejoin:round;stroke-width:1}
		.st4 {stroke:#ffffff;stroke-linecap:round;stroke-linejoin:round;stroke-opacity:0;stroke-width:1}
		.st5 {fill:none;fill-rule:evenodd;font-size:12px;overflow:visible;stroke-linecap:square;stroke-miterlimit:3}
	]]>
	</style>

	<g v:mID="0" v:index="1" v:groupContext="foregroundPage">
		<title>頁-1</title>
		<v:pageProperties v:drawingScale="0.0393701" v:pageScale="0.0393701" v:drawingUnits="24" v:shadowOffsetX="8.50394"
				v:shadowOffsetY="-8.50394"/>
		<g id="group28-1" transform="translate(170.004,312.136) rotate(-90)" v:mID="28" v:groupContext="group">
			<title>工作表.28</title>
			<g id="shape1-2" v:mID="1" v:groupContext="shape" transform="translate(489.626,-122.657) rotate(90)">
				<title>工作表.1</title>
				<desc>大眾部</desc>
				<v:textBlock v:margins="rect(4,4,4,4)" v:tabSpace="42.5197"/>
				<v:textRect cx="28.3465" cy="302.539" width="56.7" height="56.6929"/>
				<rect x="0" y="274.193" width="56.6929" height="56.6929" class="st1"/>
				<text x="4.35" y="307.34" class="st2" v:langID="1028"><v:paragraph v:horizAlign="1"/><v:tabList/>大眾部</text>			</g>
			<g id="shape2-5" v:mID="2" v:groupContext="shape" transform="translate(563.327,-9.27165) rotate(90)">
				<title>工作表.2</title>
				<desc>一說部</desc>
				<v:textBlock v:margins="rect(4,4,4,4)" v:tabSpace="42.5197"/>
				<v:textRect cx="28.3465" cy="302.539" width="56.7" height="56.6929"/>
				<rect x="0" y="274.193" width="56.6929" height="56.6929" class="st1"/>
				<text x="4.35" y="307.34" class="st2" v:langID="1028"><v:paragraph v:horizAlign="1"/><v:tabList/>一說部</text>			</g>
			<g id="shape3-8" v:mID="3" v:groupContext="shape" transform="translate(505.217,-13.5236) rotate(90)">
				<title>工作表.3</title>
				<desc>說出世部</desc>
				<v:textBlock v:margins="rect(4,4,4,4)" v:tabSpace="42.5197"/>
				<v:textRect cx="55.2756" cy="275.61" width="110.56" height="110.551"/>
				<rect x="0" y="220.335" width="110.551" height="110.551" class="st1"/>
				<text x="5.2" y="280.41" class="st2" v:langID="1028"><v:paragraph v:horizAlign="1"/><v:tabList/>（ 說出世部）</text>			</g>
			<g id="shape4-11" v:mID="4" v:groupContext="shape" transform="translate(489.626,-9.27165) rotate(90)">
				<title>工作表.4</title>
				<desc>雞胤部</desc>
				<v:textBlock v:margins="rect(4,4,4,4)" v:tabSpace="42.5197"/>
				<v:textRect cx="28.3465" cy="302.539" width="56.7" height="56.6929"/>
				<rect x="0" y="274.193" width="56.6929" height="56.6929" class="st1"/>
				<text x="4.35" y="307.34" class="st2" v:langID="1028"><v:paragraph v:horizAlign="1"/><v:tabList/>雞胤部</text>			</g>
			<g id="shape5-14" v:mID="5" v:groupContext="shape" transform="translate(438.602,-9.27165) rotate(90)">
				<title>工作表.5</title>
				<desc>說制多部</desc>
				<v:textBlock v:margins="rect(4,4,4,4)" v:tabSpace="42.5197"/>
				<v:textRect cx="36.8504" cy="294.035" width="73.71" height="73.7008"/>
				<rect x="0" y="257.185" width="73.7008" height="73.7008" class="st1"/>
				<text x="4.85" y="298.84" class="st2" v:langID="1028"><v:paragraph v:horizAlign="1"/><v:tabList/>說制多部</text>			</g>
			<g id="shape6-17" v:mID="6" v:groupContext="shape" transform="translate(330.886,-7.85433) rotate(90)">
				<title>工作表.6</title>
				<desc>雪山等六山部各傳增減不一</desc>
				<v:textBlock v:margins="rect(4,4,4,4)" v:tabSpace="42.5197"/>
				<v:textRect cx="116.22" cy="214.665" width="232.45" height="232.441"/>
				<rect x="0" y="98.4449" width="232.441" height="232.441" class="st1"/>
				<text x="4.22" y="219.47" class="st2" v:langID="1028"><v:paragraph v:horizAlign="1"/><v:tabList/>雪山等六山部（各傳增減不一）</text>			</g>
			<g id="shape7-20" v:mID="7" v:groupContext="shape" transform="translate(496.713,176.398) rotate(90)">
				<title>工作表.7</title>
				<desc>有部傳等多此部</desc>
				<v:textBlock v:margins="rect(4,4,4,4)" v:tabSpace="42.5197"/>
				<v:textRect cx="63.7795" cy="267.106" width="127.56" height="127.559"/>
				<rect x="0" y="203.327" width="127.559" height="127.559" class="st1"/>
				<text x="7.78" y="271.91" class="st2" v:langID="1028"><v:paragraph v:horizAlign="1"/><v:tabList/>有部傳等多此部</text>			</g>
			<g id="shape8-23" v:mID="8" v:groupContext="shape" transform="translate(503.799,227.421) rotate(90)">
				<title>工作表.8</title>
				<desc>說假部</desc>
				<v:textBlock v:margins="rect(4,4,4,4)" v:tabSpace="42.5197"/>
				<v:textRect cx="28.3465" cy="302.539" width="56.7" height="56.6929"/>
				<rect x="0" y="274.193" width="56.6929" height="56.6929" class="st1"/>
				<text x="4.35" y="307.34" class="st2" v:langID="1028"><v:paragraph v:horizAlign="1"/><v:tabList/>說假部</text>			</g>
			<g id="shape9-26" v:mID="9" v:groupContext="shape" transform="translate(475.453,227.421) rotate(90)">
				<title>工作表.9</title>
				<desc>多聞部</desc>
				<v:textBlock v:margins="rect(4,4,4,4)" v:tabSpace="42.5197"/>
				<v:textRect cx="28.3465" cy="302.539" width="56.7" height="56.6929"/>
				<rect x="0" y="274.193" width="56.6929" height="56.6929" class="st1"/>
				<text x="4.35" y="307.34" class="st2" v:langID="1028"><v:paragraph v:horizAlign="1"/><v:tabList/>多聞部</text>			</g>
			<g id="shape10-29" v:mID="10" v:groupContext="shape" transform="translate(475.453,-23.4449) rotate(90)">
				<title>工作表.10</title>
				<path d="M0 330.89 L14.17 330.89" class="st3"/>
			</g>
			<g id="shape11-32" v:mID="11" v:groupContext="shape" transform="translate(447.106,-51.7913) rotate(90)">
				<title>工作表.11</title>
				<path d="M0 330.89 L43.94 330.89" class="st3"/>
			</g>
			<g id="shape12-35" v:mID="12" v:groupContext="shape" transform="translate(517.972,-23.4449) rotate(90)">
				<title>工作表.12</title>
				<path d="M0 330.89 L14.17 330.89" class="st3"/>
			</g>
			<g id="shape13-38" v:mID="13" v:groupContext="shape" transform="translate(560.492,-51.7913) rotate(90)">
				<title>工作表.13</title>
				<path d="M0 330.89 L42.52 330.89" class="st3"/>
			</g>
			<g id="shape14-41" v:mID="14" v:groupContext="shape" transform="translate(588.839,-23.4449) rotate(90)">
				<title>工作表.14</title>
				<path d="M0 330.89 L14.17 330.89" class="st3"/>
			</g>
			<g id="shape15-44" v:mID="15" v:groupContext="shape" transform="translate(503.799,217.5) rotate(90)">
				<title>工作表.15</title>
				<path d="M0 330.89 L14.17 330.89" class="st3"/>
			</g>
			<g id="shape16-47" v:mID="16" v:groupContext="shape" transform="translate(532.146,217.5) rotate(90)">
				<title>工作表.16</title>
				<path d="M0 330.89 L14.17 330.89" class="st3"/>
			</g>
			<g id="shape17-50" v:mID="17" v:groupContext="shape" transform="translate(517.972,47.4213) rotate(90)">
				<title>工作表.17</title>
				<path d="M0 330.89 L170.08 330.89" class="st3"/>
			</g>
			<g id="shape18-53" v:mID="18" v:groupContext="shape" transform="translate(172.913,-113.386)">
				<title>工作表.18</title>
				<path d="M0 330.89 L28.35 330.89" class="st3"/>
			</g>
			<g id="shape19-56" v:mID="19" v:groupContext="shape" transform="translate(560.492,89.9409) rotate(90)">
				<title>工作表.19</title>
				<path d="M0 330.89 L90.71 330.89" class="st3"/>
			</g>
			<g id="shape20-59" v:mID="20" v:groupContext="shape" transform="translate(517.5,-65.9646) rotate(90)">
				<title>工作表.20</title>
				<path d="M0 330.89 L14.17 330.89" class="st3"/>
			</g>
			<g id="shape21-62" v:mID="21" v:groupContext="shape" transform="translate(187.087,-354.331)">
				<title>工作表.21</title>
				<path d="M0 330.89 L70.87 330.89" class="st3"/>
			</g>
			<g id="shape22-65" v:mID="22" v:groupContext="shape" transform="translate(-38.9755,-298.759) rotate(-33.6901)">
				<title>工作表.22</title>
				<path d="M0 330.89 L51.1 330.89" class="st3"/>
			</g>
			<g id="shape23-68" v:mID="23" v:groupContext="shape" transform="translate(116.22,-382.677)">
				<title>工作表.23</title>
				<path d="M0 330.89 L113.39 330.89" class="st3"/>
			</g>
			<g id="shape24-71" v:mID="24" v:groupContext="shape" transform="translate(73.7008,-481.89)">
				<title>工作表.24</title>
				<path d="M0 330.89 L212.6 330.89" class="st4"/>
			</g>
			<g id="shape25-74" v:mID="25" v:groupContext="shape" transform="translate(73.7008,0)">
				<title>工作表.25</title>
				<path d="M0 330.89 L212.6 330.89" class="st4"/>
			</g>
			<g id="shape26-77" v:mID="26" v:groupContext="shape" transform="translate(-44.5866,330.886) rotate(-90)">
				<title>工作表.26</title>
				<path d="M0 330.89 L481.89 330.89" class="st4"/>
			</g>
			<g id="shape27-80" v:mID="27" v:groupContext="shape" transform="translate(-257.185,330.886) rotate(-90)">
				<title>工作表.27</title>
				<path d="M0 330.89 L481.89 330.89" class="st4"/>
			</g>
		</g>
	</g>
</svg>
