<?xml version="1.0" encoding="UTF-8" standalone="no"?>
<!DOCTYPE svg PUBLIC "-//W3C//DTD SVG 1.1//EN" "http://www.w3.org/Graphics/SVG/1.1/DTD/svg11.dtd">
<!-- 由 Microsoft Visio, SVG Export 產生 y33.0040-h.svg 頁-1 -->
<svg xmlns="http://www.w3.org/2000/svg" xmlns:xlink="http://www.w3.org/1999/xlink" xmlns:ev="http://www.w3.org/2001/xml-events"
		width="6.98156in" height="4.32898in" viewBox="0 0 502.673 311.687" xml:space="preserve" color-interpolation-filters="sRGB"
		class="st8">
	<style type="text/css">
	<![CDATA[
		.st1 {fill:none;stroke:none;stroke-linecap:round;stroke-linejoin:round;stroke-width:0.75}
		.st2 {fill:#000000;font-family:新細明體;font-size:1.33333em}
		.st3 {stroke:#000000;stroke-dasharray:3,3;stroke-linecap:round;stroke-linejoin:round;stroke-width:1}
		.st4 {stroke:#000000;stroke-linecap:round;stroke-linejoin:round;stroke-width:1}
		.st5 {marker-end:url(#mrkr1-184);stroke:#000000;stroke-linecap:round;stroke-linejoin:round;stroke-width:1}
		.st6 {fill:#000000;fill-opacity:1;stroke:#000000;stroke-opacity:1;stroke-width:0.28409090909091}
		.st7 {fill:none;stroke:#000000;stroke-linecap:round;stroke-linejoin:round;stroke-width:1}
		.st8 {fill:none;fill-rule:evenodd;font-size:12px;overflow:visible;stroke-linecap:square;stroke-miterlimit:3}
	]]>
	</style>

	<defs id="Markers">
		<g id="lend1">
			<path d="M 1 -1 L 0 0 L 1 1 " style="stroke-linecap:round;stroke-linejoin:round;fill:none"/>
		</g>
		<marker id="mrkr1-184" class="st6" orient="auto" markerUnits="strokeWidth" overflow="visible">
			<use xlink:href="#lend1" transform="scale(-3.52,-3.52) "/>
		</marker>
	</defs>
	<g>
		<title>頁-1</title>
		<g id="group75-1" transform="translate(0.375,-0.375)">
			<title>工作表.75</title>
			<g id="shape1-2" transform="translate(0,-287.145)">
				<title>工作表.1</title>
				<desc>內則情識</desc>
				<rect x="0" y="291.844" width="85.0394" height="19.8425" class="st1"/>
				<text x="10.52" y="306.57" class="st2">內則情識</text>			</g>
			<g id="shape2-5" transform="translate(94.9606,-287.145)">
				<title>工作表.2</title>
				<desc>偏此墮唯心</desc>
				<rect x="0" y="291.844" width="138.898" height="19.8425" class="st1"/>
				<text x="13.45" y="306.57" class="st2">（偏此墮唯心）</text>			</g>
			<g id="shape8-8" transform="translate(89.8688,-170.347)">
				<title>工作表.8</title>
				<desc>心</desc>
				<rect x="0" y="284.483" width="23.214" height="27.2035" class="st1"/>
				<text x="4" y="302.89" class="st2">心</text>			</g>
			<g id="shape9-11" transform="translate(24.0945,-143.995)">
				<title>工作表.9</title>
				<desc>世間以有情為本</desc>
				<rect x="0" y="291.844" width="121.89" height="19.8425" class="st1"/>
				<text x="4.95" y="306.57" class="st2">世間以有情為本</text>			</g>
			<g id="shape10-14" transform="translate(89.1601,-113.386)">
				<title>工作表.10</title>
				<desc>色</desc>
				<rect x="0" y="284.483" width="24.6314" height="27.2035" class="st1"/>
				<text x="4.32" y="302.89" class="st2">色</text>			</g>
			<g id="shape5-17" transform="translate(165.228,-258.799)">
				<title>工作表.5</title>
				<desc>約因果辨</desc>
				<rect x="0" y="291.844" width="77.7337" height="19.8425" class="st1"/>
				<text x="6.87" y="306.57" class="st2">約因果辨</text>			</g>
			<g id="shape11-20" transform="translate(166.046,-145.383)">
				<title>工作表.11</title>
				<desc>約體類辨</desc>
				<rect x="0" y="291.844" width="76.0973" height="19.8425" class="st1"/>
				<text x="6.05" y="306.57" class="st2">約體類辨</text>			</g>
			<g id="shape12-23" transform="translate(265.275,-202.076)">
				<title>工作表.12</title>
				<desc>有情之自體</desc>
				<rect x="0" y="291.844" width="98.7415" height="19.8425" class="st1"/>
				<text x="9.37" y="306.57" class="st2">有情之自體</text>			</g>
			<g id="shape13-26" transform="translate(364.381,-216.249)">
				<title>工作表.13</title>
				<desc>體類則「五有」</desc>
				<rect x="0" y="291.844" width="122.774" height="19.8425" class="st1"/>
				<text x="5.39" y="306.57" class="st2">體類則「五有」</text>			</g>
			<g id="shape14-29" transform="translate(363.406,-187.902)">
				<title>工作表.14</title>
				<desc>生相則「四生」</desc>
				<rect x="0" y="291.844" width="124.724" height="19.8425" class="st1"/>
				<text x="6.36" y="306.57" class="st2">生相則「四生」</text>			</g>
			<g id="shape15-32" transform="translate(266.928,-145.383)">
				<title>工作表.15</title>
				<desc>有情之延續</desc>
				<rect x="0" y="291.844" width="95.4358" height="19.8425" class="st1"/>
				<text x="7.72" y="306.57" class="st2">有情之延續</text>			</g>
			<g id="shape16-35" transform="translate(361.417,-131.209)">
				<title>工作表.16</title>
				<desc>生生則「三生」</desc>
				<rect x="0" y="291.844" width="127.559" height="19.8425" class="st1"/>
				<text x="7.78" y="306.57" class="st2">生生則「三生」</text>			</g>
			<g id="shape17-38" transform="translate(270.285,-88.6897)">
				<title>工作表.17</title>
				<desc>有情之往返</desc>
				<rect x="0" y="291.844" width="89.2927" height="19.8425" class="st1"/>
				<text x="4.65" y="306.57" class="st2">有情之往返</text>			</g>
			<g id="shape18-41" transform="translate(365.479,-74.5165)">
				<title>工作表.18</title>
				<desc>生起則「三界生」</desc>
				<rect x="0" y="291.844" width="136.444" height="19.8425" class="st1"/>
				<text x="4.22" y="306.57" class="st2">生起則「三界生」</text>			</g>
			<g id="shape22-44" transform="translate(166.046,-31.9968)">
				<title>工作表.22</title>
				<desc>約業報辨</desc>
				<rect x="0" y="291.844" width="76.0973" height="19.8425" class="st1"/>
				<text x="6.05" y="306.57" class="st2">約業報辨</text>			</g>
			<g id="shape23-47" transform="translate(268.42,-45.0523)">
				<title>工作表.23</title>
				<desc>業「有」</desc>
				<rect x="0" y="291.844" width="77.1346" height="19.8425" class="st1"/>
				<text x="6.57" y="306.57" class="st2">業「有」</text>			</g>
			<g id="shape24-50" transform="translate(267.747,-17.9503)">
				<title>工作表.24</title>
				<desc>報「生」</desc>
				<rect x="0" y="291.844" width="79.6234" height="19.8425" class="st1"/>
				<text x="7.81" y="306.57" class="st2">報「生」</text>			</g>
			<g id="shape6-53" transform="translate(270.122,-272.957)">
				<title>工作表.6</title>
				<desc>此有故彼有「有支」</desc>
				<rect x="0" y="291.844" width="153.101" height="19.8425" class="st1"/>
				<text x="4.55" y="306.57" class="st2">此有故彼有「有支」</text>			</g>
			<g id="shape7-56" transform="translate(268.72,-244.625)">
				<title>工作表.7</title>
				<desc>此生故彼生「緣生」</desc>
				<rect x="0" y="291.844" width="155.906" height="19.8425" class="st1"/>
				<text x="5.95" y="306.57" class="st2">此生故彼生「緣生」</text>			</g>
			<g id="shape25-59" transform="translate(363.747,-159.556)">
				<title>工作表.25</title>
				<desc>存在則「四有」</desc>
				<rect x="0" y="291.844" width="122.899" height="19.8425" class="st1"/>
				<text x="5.45" y="306.57" class="st2">存在則「四有」</text>			</g>
			<g id="shape26-62" transform="translate(362.802,-102.895)">
				<title>工作表.26</title>
				<desc>得體則「三有」</desc>
				<rect x="0" y="291.844" width="124.789" height="19.8425" class="st1"/>
				<text x="6.39" y="306.57" class="st2">得體則「三有」</text>			</g>
			<g id="shape29-65" transform="translate(-209.639,286.746) rotate(-90)">
				<title>工作表.29</title>
				<path d="M0 311.69 L92.57 311.69" class="st3"/>
			</g>
			<g id="shape32-68" transform="translate(145.984,-153.917)">
				<title>工作表.32</title>
				<path d="M0 311.69 L12.76 311.69" class="st4"/>
			</g>
			<g id="shape35-71" transform="translate(-152.944,268.44) rotate(-89.7613)">
				<title>工作表.35</title>
				<path d="M0 311.69 L226.77 311.69" class="st4"/>
			</g>
			<g id="shape36-74" transform="translate(169.343,-42.1537) rotate(1.94914)">
				<title>工作表.36</title>
				<path d="M0 311.69 L11.34 311.69" class="st4"/>
			</g>
			<g id="shape37-77" transform="translate(144.175,-267.769) rotate(-2.85184)">
				<title>工作表.37</title>
				<path d="M0 311.69 L11.35 311.69" class="st4"/>
			</g>
			<g id="shape38-80" transform="translate(76.5354,-297.066)">
				<title>工作表.38</title>
				<path d="M0 311.69 L11.34 311.69" class="st4"/>
			</g>
			<g id="shape39-83" transform="translate(89.8688,-283.733)">
				<title>工作表.39</title>
				<desc>心</desc>
				<rect x="0" y="284.483" width="23.214" height="27.2035" class="st1"/>
				<text x="4" y="302.89" class="st2">心</text>			</g>
			<g id="shape40-86" transform="translate(94.9606,-3.6805)">
				<title>工作表.40</title>
				<desc>偏此立唯物</desc>
				<rect x="0" y="291.844" width="138.898" height="19.8425" class="st1"/>
				<text x="13.45" y="306.57" class="st2">（偏此立唯物）</text>			</g>
			<g id="shape41-89" transform="translate(9.59233E-13,-3.6805)">
				<title>工作表.41</title>
				<desc>外則器界</desc>
				<rect x="0" y="291.844" width="85.0394" height="19.8425" class="st1"/>
				<text x="10.52" y="306.57" class="st2">外則器界</text>			</g>
			<g id="shape21-92" transform="translate(89.1601,0)">
				<title>工作表.21</title>
				<desc>色</desc>
				<rect x="0" y="284.483" width="24.6314" height="27.2035" class="st1"/>
				<text x="4.32" y="302.89" class="st2">色</text>			</g>
			<g id="shape42-95" transform="translate(76.5354,-13.6018)">
				<title>工作表.42</title>
				<path d="M0 311.69 L11.34 311.69" class="st4"/>
			</g>
			<g id="shape44-98" transform="translate(257.953,-254.547)">
				<title>工作表.44</title>
				<path d="M0 311.69 L14.17 311.69" class="st4"/>
			</g>
			<g id="shape45-101" transform="translate(257.953,-282.893)">
				<title>工作表.45</title>
				<path d="M0 311.69 L14.17 311.69" class="st4"/>
			</g>
			<g id="shape46-104" transform="translate(-53.7338,57.1399) rotate(-90)">
				<title>工作表.46</title>
				<path d="M0 311.69 L28.35 311.69" class="st4"/>
			</g>
			<g id="shape47-107" transform="translate(257.953,354.653) rotate(180)">
				<title>工作表.47</title>
				<path d="M0 311.69 L22.68 311.69" class="st4"/>
			</g>
			<g id="shape50-110" transform="translate(257.953,-27.775)">
				<title>工作表.50</title>
				<path d="M0 311.69 L14.17 311.69" class="st4"/>
			</g>
			<g id="shape51-113" transform="translate(257.953,-56.1214)">
				<title>工作表.51</title>
				<path d="M0 311.69 L14.17 311.69" class="st4"/>
			</g>
			<g id="shape52-116" transform="translate(-53.7338,283.912) rotate(-90)">
				<title>工作表.52</title>
				<path d="M0 311.69 L28.35 311.69" class="st4"/>
			</g>
			<g id="shape53-119" transform="translate(257.953,581.425) rotate(180)">
				<title>工作表.53</title>
				<path d="M0 311.69 L22.68 311.69" class="st4"/>
			</g>
			<g id="shape55-122" transform="translate(257.953,-98.6411)">
				<title>工作表.55</title>
				<path d="M0 311.69 L14.17 311.69" class="st4"/>
			</g>
			<g id="shape56-125" transform="translate(257.953,-212.027)">
				<title>工作表.56</title>
				<path d="M0 311.69 L14.17 311.69" class="st4"/>
			</g>
			<g id="shape57-128" transform="translate(-53.7338,213.045) rotate(-90)">
				<title>工作表.57</title>
				<path d="M0 311.69 L113.39 311.69" class="st4"/>
			</g>
			<g id="shape58-131" transform="translate(257.953,468.039) rotate(180)">
				<title>工作表.58</title>
				<path d="M0 311.69 L22.68 311.69" class="st4"/>
			</g>
			<g id="shape28-134" transform="translate(51.4338,227.219) rotate(-90)">
				<title>工作表.28</title>
				<path d="M0 311.69 L28.35 311.69" class="st4"/>
			</g>
			<g id="shape34-137" transform="translate(356.506,-98.6411)">
				<title>工作表.34</title>
				<path d="M0 311.69 L6.61 311.69" class="st4"/>
			</g>
			<g id="shape59-140" transform="translate(362.835,-84.4679)">
				<title>工作表.59</title>
				<path d="M0 311.69 L6.61 311.69" class="st4"/>
			</g>
			<g id="shape60-143" transform="translate(363.12,-112.814)">
				<title>工作表.60</title>
				<path d="M0 311.69 L6.61 311.69" class="st4"/>
			</g>
			<g id="shape63-146" transform="translate(51.1481,170.526) rotate(-90)">
				<title>工作表.63</title>
				<path d="M0 311.69 L28.35 311.69" class="st4"/>
			</g>
			<g id="shape64-149" transform="translate(356.22,-155.334)">
				<title>工作表.64</title>
				<path d="M0 311.69 L6.61 311.69" class="st4"/>
			</g>
			<g id="shape65-152" transform="translate(362.549,-141.161)">
				<title>工作表.65</title>
				<path d="M0 311.69 L6.61 311.69" class="st4"/>
			</g>
			<g id="shape66-155" transform="translate(362.835,-169.507)">
				<title>工作表.66</title>
				<path d="M0 311.69 L6.61 311.69" class="st4"/>
			</g>
			<g id="shape54-158" transform="translate(51.1481,113.833) rotate(-90)">
				<title>工作表.54</title>
				<path d="M0 311.69 L28.35 311.69" class="st4"/>
			</g>
			<g id="shape67-161" transform="translate(356.22,-212.027)">
				<title>工作表.67</title>
				<path d="M0 311.69 L6.61 311.69" class="st4"/>
			</g>
			<g id="shape68-164" transform="translate(362.549,-197.854)">
				<title>工作表.68</title>
				<path d="M0 311.69 L6.61 311.69" class="st4"/>
			</g>
			<g id="shape69-167" transform="translate(362.835,-226.2)">
				<title>工作表.69</title>
				<path d="M0 311.69 L6.61 311.69" class="st4"/>
			</g>
			<g id="shape70-170" transform="translate(-209.639,116.667) rotate(-90)">
				<title>工作表.70</title>
				<path d="M0 311.69 L93.54 311.69" class="st3"/>
			</g>
			<g id="shape3-173" transform="translate(38.6734,-255.558)">
				<title>工作表.3</title>
				<desc>炷</desc>
				<rect x="0" y="284.483" width="29.2269" height="27.2035" class="st1"/>
				<text x="6.61" y="302.89" class="st2">炷</text>			</g>
			<g id="shape4-176" transform="translate(40.3967,-211.315)">
				<title>工作表.4</title>
				<desc>焰</desc>
				<rect x="0" y="284.483" width="25.7803" height="27.2035" class="st1"/>
				<text x="4.89" y="302.89" class="st2">焰</text>			</g>
			<g id="shape30-179" transform="translate(-258.971,79.8171) rotate(-90)">
				<title>工作表.30</title>
				<path d="M0 311.69 L28.35 311.69" class="st5"/>
			</g>
			<g id="shape19-185" transform="translate(40.4987,-72.2512)">
				<title>工作表.19</title>
				<desc>焰</desc>
				<rect x="0" y="284.483" width="25.5762" height="27.2035" class="st1"/>
				<text x="4.79" y="302.89" class="st2">焰</text>			</g>
			<g id="shape20-188" transform="translate(41.6798,-28.078)">
				<title>工作表.20</title>
				<desc>光</desc>
				<rect x="0" y="284.483" width="23.214" height="27.2035" class="st1"/>
				<text x="4" y="302.89" class="st2">光</text>			</g>
			<g id="shape31-191" transform="translate(364.402,232.888) rotate(90)">
				<title>工作表.31</title>
				<path d="M0 311.69 L28.35 311.69" class="st5"/>
			</g>
			<g id="shape71-196" transform="translate(-167.12,198.872) rotate(-90)">
				<title>工作表.71</title>
				<path d="M28.35 189.8 L56.69 189.8 L56.69 253.58 L84.16 253.58 L84.16 281.92 L56.69 281.92 L56.69 311.69 L28.35 311.69
							 L28.35 280.78 L0 280.78 L0 253.58 L27.91 253.58 L28.35 189.8 Z" class="st7"/>
			</g>
			<g id="shape74-198" transform="translate(86.4567,-169.507)">
				<title>工作表.74</title>
				<path d="M0 311.69 L28.35 311.69" class="st3"/>
			</g>
			<g id="shape73-201" transform="translate(86.4567,-140.721)">
				<title>工作表.73</title>
				<path d="M0 311.69 L28.35 311.69" class="st3"/>
			</g>
		</g>
	</g>
</svg>
