<?xml version="1.0" encoding="UTF-8" standalone="no"?>
<!DOCTYPE svg PUBLIC "-//W3C//DTD SVG 1.0//EN" "http://www.w3.org/TR/2001/REC-SVG-20010904/DTD/svg10.dtd">
<!-- 由 Microsoft Visio 11.0, SVG Export, v1.0 產生 y33.0256.svg Page-1 -->
<svg xmlns="http://www.w3.org/2000/svg" xmlns:xlink="http://www.w3.org/1999/xlink" xmlns:ev="http://www.w3.org/2001/xml-events"
		xmlns:v="http://schemas.microsoft.com/visio/2003/SVGExtensions/" width="3.41847in" height="7.92241in"
		viewBox="0 0 246.13 570.413" xml:space="preserve" color-interpolation-filters="sRGB" class="st7">
	<v:documentProperties v:langID="1028" v:metric="true" v:viewMarkup="false">
		<v:userDefs>
			<v:ud v:nameU="msvSubprocessMaster" v:prompt="" v:val="VT4(Box)"/>
			<v:ud v:nameU="msvNoAutoConnect" v:val="VT0(1):26"/>
		</v:userDefs>
	</v:documentProperties>

	<style type="text/css">
	<![CDATA[
		.st1 {fill:none;stroke:none;stroke-linecap:round;stroke-linejoin:round;stroke-width:0.75}
		.st2 {fill:#000000;font-family:新細明體;font-size:1.33333em}
		.st3 {stroke:#000000;stroke-linecap:round;stroke-linejoin:round;stroke-width:1}
		.st4 {marker-end:url(#mrkr7-85);stroke:#000000;stroke-linecap:round;stroke-linejoin:round;stroke-width:1}
		.st5 {fill:#000000;fill-opacity:1;stroke:#000000;stroke-opacity:1;stroke-width:0.28409090909091}
		.st6 {stroke:#000000;stroke-dasharray:3,3;stroke-linecap:round;stroke-linejoin:round;stroke-width:1}
		.st7 {fill:none;fill-rule:evenodd;font-size:12px;overflow:visible;stroke-linecap:square;stroke-miterlimit:3}
	]]>
	</style>

	<defs id="Markers">
		<g id="lend7">
			<path
					d="M 1.84309 -0.959456 C 1.43792 -0.380801 0.784503 -0.0260255 0.078527 -0.00137091 L 0.0785229 0.00137043 C 0.784499 0.0260231 1.43791 0.380798 1.84309 0.959452 "
					style="stroke-linecap:round;stroke-linejoin:round;fill:none"/>
		</g>
		<marker id="mrkr7-85" class="st5" v:arrowType="7" v:arrowSize="2" orient="auto" markerUnits="strokeWidth"
				overflow="visible">
			<use xlink:href="#lend7" transform="scale(-3.52,-3.52) "/>
		</marker>
	</defs>
	<g v:mID="0" v:index="1" v:groupContext="foregroundPage">
		<title>頁-1</title>
		<v:pageProperties v:drawingScale="0.0393701" v:pageScale="0.0393701" v:drawingUnits="24" v:shadowOffsetX="8.50394"
				v:shadowOffsetY="-8.50394"/>
		<g id="shape1-1" v:mID="1" v:groupContext="shape" transform="translate(70.624,-460.955)">
			<title>工作表.1</title>
			<desc>瑜伽之深入</desc>
			<v:textBlock v:margins="rect(4,4,4,4)" v:tabSpace="42.5197" v:verticalText="true"/>
			<v:textRect cx="45.3543" cy="525.059" width="90.71" height="90.7087"/>
			<rect x="0" y="479.705" width="90.7087" height="90.7087" class="st1"/>
			<text x="45.35" y="485.06" writing-mode="tb-rl" class="st2" v:langID="1028"><v:paragraph v:horizAlign="1"/><v:tabList/>瑜伽之深入</text>		</g>
		<g id="shape2-4" v:mID="2" v:groupContext="shape" transform="translate(161.333,-395.758)">
			<title>工作表.2</title>
			<desc>眼</desc>
			<v:textBlock v:margins="rect(4,4,4,4)" v:tabSpace="42.5197" v:verticalText="true"/>
			<v:textRect cx="11.3386" cy="559.075" width="22.68" height="22.6772"/>
			<rect x="0" y="547.736" width="22.6772" height="22.6772" class="st1"/>
			<text x="11.34" y="551.74" writing-mode="tb-rl" class="st2" v:langID="1028"><v:paragraph v:horizAlign="1"/><v:tabList/>眼</text>		</g>
		<g id="shape3-7" v:mID="3" v:groupContext="shape" transform="translate(189.679,-367.411)">
			<title>工作表.3</title>
			<desc>意</desc>
			<v:textBlock v:margins="rect(4,4,4,4)" v:tabSpace="42.5197" v:verticalText="true"/>
			<v:textRect cx="11.3386" cy="559.075" width="22.68" height="22.6772"/>
			<rect x="0" y="547.736" width="22.6772" height="22.6772" class="st1"/>
			<text x="11.34" y="551.74" writing-mode="tb-rl" class="st2" v:langID="1028"><v:paragraph v:horizAlign="1"/><v:tabList/>意</text>		</g>
		<g id="shape4-10" v:mID="4" v:groupContext="shape" transform="translate(132.986,-395.758)">
			<title>工作表.4</title>
			<desc>耳</desc>
			<v:textBlock v:margins="rect(4,4,4,4)" v:tabSpace="42.5197" v:verticalText="true"/>
			<v:textRect cx="11.3386" cy="559.075" width="22.68" height="22.6772"/>
			<rect x="0" y="547.736" width="22.6772" height="22.6772" class="st1"/>
			<text x="11.34" y="551.74" writing-mode="tb-rl" class="st2" v:langID="1028"><v:paragraph v:horizAlign="1"/><v:tabList/>耳</text>		</g>
		<g id="shape5-13" v:mID="5" v:groupContext="shape" transform="translate(104.64,-395.758)">
			<title>工作表.5</title>
			<desc>鼻</desc>
			<v:textBlock v:margins="rect(4,4,4,4)" v:tabSpace="42.5197" v:verticalText="true"/>
			<v:textRect cx="11.3386" cy="559.075" width="22.68" height="22.6772"/>
			<rect x="0" y="547.736" width="22.6772" height="22.6772" class="st1"/>
			<text x="11.34" y="551.74" writing-mode="tb-rl" class="st2" v:langID="1028"><v:paragraph v:horizAlign="1"/><v:tabList/>鼻</text>		</g>
		<g id="shape6-16" v:mID="6" v:groupContext="shape" transform="translate(76.2933,-395.758)">
			<title>工作表.6</title>
			<desc>舌</desc>
			<v:textBlock v:margins="rect(4,4,4,4)" v:tabSpace="42.5197" v:verticalText="true"/>
			<v:textRect cx="11.3386" cy="559.075" width="22.68" height="22.6772"/>
			<rect x="0" y="547.736" width="22.6772" height="22.6772" class="st1"/>
			<text x="11.34" y="551.74" writing-mode="tb-rl" class="st2" v:langID="1028"><v:paragraph v:horizAlign="1"/><v:tabList/>舌</text>		</g>
		<g id="shape7-19" v:mID="7" v:groupContext="shape" transform="translate(47.9469,-395.758)">
			<title>工作表.7</title>
			<desc>身</desc>
			<v:textBlock v:margins="rect(4,4,4,4)" v:tabSpace="42.5197" v:verticalText="true"/>
			<v:textRect cx="11.3386" cy="559.075" width="22.68" height="22.6772"/>
			<rect x="0" y="547.736" width="22.6772" height="22.6772" class="st1"/>
			<text x="11.34" y="551.74" writing-mode="tb-rl" class="st2" v:langID="1028"><v:paragraph v:horizAlign="1"/><v:tabList/>身</text>		</g>
		<g id="shape8-22" v:mID="8" v:groupContext="shape" transform="translate(18.75,-398.593)">
			<title>工作表.8</title>
			<desc>五識</desc>
			<v:textBlock v:margins="rect(4,4,4,4)" v:tabSpace="42.5197" v:verticalText="true"/>
			<v:textRect cx="12.189" cy="533.563" width="24.38" height="73.7008"/>
			<rect x="0" y="496.713" width="24.378" height="73.7008" class="st1"/>
			<text x="12.19" y="501.56" writing-mode="tb-rl" class="st2" v:langID="1028"><v:paragraph v:horizAlign="1"/><v:tabList/>（五識）</text>		</g>
		<g id="shape9-25" v:mID="9" v:groupContext="shape" transform="translate(104.64,-282.372)">
			<title>工作表.9</title>
			<desc>識</desc>
			<v:textBlock v:margins="rect(4,4,4,4)" v:tabSpace="42.5197" v:verticalText="true"/>
			<v:textRect cx="11.3386" cy="559.075" width="22.68" height="22.6772"/>
			<rect x="0" y="547.736" width="22.6772" height="22.6772" class="st1"/>
			<text x="11.34" y="551.74" writing-mode="tb-rl" class="st2" v:langID="1028"><v:paragraph v:horizAlign="1"/><v:tabList/>識</text>		</g>
		<g id="shape10-28" v:mID="10" v:groupContext="shape" transform="translate(28.1043,-248.356)">
			<title>工作表.10</title>
			<desc>間斷識</desc>
			<v:textBlock v:margins="rect(4,4,4,4)" v:tabSpace="42.5197" v:verticalText="true"/>
			<v:textRect cx="45.3543" cy="525.059" width="90.71" height="90.7087"/>
			<rect x="0" y="479.705" width="90.7087" height="90.7087" class="st1"/>
			<text x="45.35" y="485.06" writing-mode="tb-rl" class="st2" v:langID="1028"><v:paragraph v:horizAlign="1"/><v:tabList/>（間斷識）</text>		</g>
		<g id="shape11-31" v:mID="11" v:groupContext="shape" transform="translate(28.1043,-134.97)">
			<title>工作表.11</title>
			<desc>恒行意</desc>
			<v:textBlock v:margins="rect(4,4,4,4)" v:tabSpace="42.5197" v:verticalText="true"/>
			<v:textRect cx="45.3543" cy="525.059" width="90.71" height="90.7087"/>
			<rect x="0" y="479.705" width="90.7087" height="90.7087" class="st1"/>
			<text x="45.35" y="485.06" writing-mode="tb-rl" class="st2" v:langID="1028"><v:paragraph v:horizAlign="1"/><v:tabList/>（恒行意）</text>		</g>
		<g id="shape12-34" v:mID="12" v:groupContext="shape" transform="translate(104.64,-168.986)">
			<title>工作表.12</title>
			<desc>意</desc>
			<v:textBlock v:margins="rect(4,4,4,4)" v:tabSpace="42.5197" v:verticalText="true"/>
			<v:textRect cx="11.3386" cy="559.075" width="22.68" height="22.6772"/>
			<rect x="0" y="547.736" width="22.6772" height="22.6772" class="st1"/>
			<text x="11.34" y="551.74" writing-mode="tb-rl" class="st2" v:langID="1028"><v:paragraph v:horizAlign="1"/><v:tabList/>意</text>		</g>
		<g id="shape13-37" v:mID="13" v:groupContext="shape" transform="translate(104.64,-69.7736)">
			<title>工作表.13</title>
			<desc>心</desc>
			<v:textBlock v:margins="rect(4,4,4,4)" v:tabSpace="42.5197" v:verticalText="true"/>
			<v:textRect cx="11.3386" cy="559.075" width="22.68" height="22.6772"/>
			<rect x="0" y="547.736" width="22.6772" height="22.6772" class="st1"/>
			<text x="11.34" y="551.74" writing-mode="tb-rl" class="st2" v:langID="1028"><v:paragraph v:horizAlign="1"/><v:tabList/>心</text>		</g>
		<g id="shape14-40" v:mID="14" v:groupContext="shape" transform="translate(28.1043,-18.75)">
			<title>工作表.14</title>
			<desc>種子心</desc>
			<v:textBlock v:margins="rect(4,4,4,4)" v:tabSpace="42.5197" v:verticalText="true"/>
			<v:textRect cx="45.3543" cy="525.059" width="90.71" height="90.7087"/>
			<rect x="0" y="479.705" width="90.7087" height="90.7087" class="st1"/>
			<text x="45.35" y="485.06" writing-mode="tb-rl" class="st2" v:langID="1028"><v:paragraph v:horizAlign="1"/><v:tabList/>（種子心）</text>		</g>
		<g id="shape15-43" v:mID="15" v:groupContext="shape" transform="translate(18.75,-151.978)">
			<title>工作表.15</title>
			<desc>現行界</desc>
			<v:textBlock v:margins="rect(4,4,4,4)" v:tabSpace="42.5197" v:verticalText="true"/>
			<v:textRect cx="12.189" cy="542.067" width="24.38" height="56.6929"/>
			<rect x="0" y="513.72" width="24.378" height="56.6929" class="st1"/>
			<text x="12.19" y="518.07" writing-mode="tb-rl" class="st2" v:langID="1028"><v:paragraph v:horizAlign="1"/><v:tabList/>現行界</text>		</g>
		<g id="shape16-46" v:mID="16" v:groupContext="shape" transform="translate(203.002,-95.2854)">
			<title>工作表.16</title>
			<desc>種子界</desc>
			<v:textBlock v:margins="rect(4,4,4,4)" v:tabSpace="42.5197" v:verticalText="true"/>
			<v:textRect cx="12.189" cy="542.067" width="24.38" height="56.6929"/>
			<rect x="0" y="513.72" width="24.378" height="56.6929" class="st1"/>
			<text x="12.19" y="518.07" writing-mode="tb-rl" class="st2" v:langID="1028"><v:paragraph v:horizAlign="1"/><v:tabList/>種子界</text>		</g>
		<g id="shape18-49" v:mID="18" v:groupContext="shape" transform="translate(686.392,177.49) rotate(90)">
			<title>工作表.18</title>
			<path d="M0 570.41 L85.04 570.41" class="st3"/>
		</g>
		<g id="group23-52" transform="translate(101.805,-463.789)" v:mID="23" v:groupContext="group">
			<title>工作表.23</title>
			<g id="shape19-53" v:mID="19" v:groupContext="shape" transform="translate(570.413,485.374) rotate(90)">
				<title>工作表.19</title>
				<path d="M0 570.41 L85.04 570.41" class="st3"/>
			</g>
			<g id="shape20-56" v:mID="20" v:groupContext="shape" transform="translate(598.76,485.374) rotate(90)">
				<title>工作表.20</title>
				<path d="M0 570.41 L85.04 570.41" class="st3"/>
			</g>
			<g id="shape21-59" v:mID="21" v:groupContext="shape" transform="translate(0,-85.0394)">
				<title>工作表.21</title>
				<path d="M0 570.41 L28.35 570.41" class="st3"/>
			</g>
			<g id="shape22-62" v:mID="22" v:groupContext="shape">
				<title>工作表.22</title>
				<path d="M0 570.41 L28.35 570.41" class="st3"/>
			</g>
		</g>
		<g id="shape26-65" v:mID="26" v:groupContext="shape" transform="translate(685.466,357.871) rotate(108.435)">
			<title>工作表.26</title>
			<path d="M0 570.41 L89.64 570.41" class="st3"/>
		</g>
		<g id="shape27-68" v:mID="27" v:groupContext="shape" transform="translate(647.284,493.899) rotate(123.69)">
			<title>工作表.27</title>
			<path d="M0 570.41 L102.2 570.41" class="st3"/>
		</g>
		<g id="shape28-71" v:mID="28" v:groupContext="shape" transform="translate(600.829,138.893) rotate(87.546)">
			<title>工作表.28</title>
			<path d="M0 570.41 L198.61 570.41" class="st3"/>
		</g>
		<g id="shape29-74" v:mID="29" v:groupContext="shape" transform="translate(533.898,-138.918) rotate(56.3099)">
			<title>工作表.29</title>
			<path d="M0 570.41 L102.2 570.41" class="st3"/>
		</g>
		<g id="shape30-77" v:mID="30" v:groupContext="shape" transform="translate(628.774,-2.89039) rotate(71.5651)">
			<title>工作表.30</title>
			<path d="M0 570.41 L89.64 570.41" class="st3"/>
		</g>
		<g id="shape31-80" v:mID="31" v:groupContext="shape" transform="translate(686.392,288.041) rotate(90)">
			<title>工作表.31</title>
			<path d="M0 570.41 L85.04 570.41" class="st4"/>
		</g>
		<g id="shape32-86" v:mID="32" v:groupContext="shape" transform="translate(686.392,401.427) rotate(90)">
			<title>工作表.32</title>
			<path d="M0 570.41 L73.7 570.41" class="st4"/>
		</g>
		<g id="shape33-91" v:mID="33" v:groupContext="shape" transform="translate(770.584,236.904) rotate(93.1221)">
			<title>工作表.33</title>
			<path d="M0 570.41 L156.14 570.41" class="st3"/>
		</g>
		<g id="shape35-94" v:mID="35" v:groupContext="shape" transform="translate(665.3,680.873) rotate(124.019)">
			<title>工作表.35</title>
			<path d="M0 570.41 A116.508 45.6664 163.38 0 1 136.8 570.41" class="st3"/>
		</g>
		<g id="shape36-97" v:mID="36" v:groupContext="shape" transform="translate(497.584,52.4966) rotate(55.9807)">
			<title>工作表.36</title>
			<path d="M-0 552.74 A103.666 55.955 -165.5 0 0 136.8 552.74" class="st3"/>
		</g>
		<g id="shape37-100" v:mID="37" v:groupContext="shape" transform="translate(-161.164,831.957) rotate(-150.931)">
			<title>工作表.37</title>
			<path d="M-0 570.41 A69.8765 49.9778 153.78 0 1 90.73 570.41" class="st6"/>
		</g>
		<g id="shape38-103" v:mID="38" v:groupContext="shape" transform="translate(479.123,782.921) rotate(150.289)">
			<title>工作表.38</title>
			<path d="M-0 570.41 A84.2941 34.7861 21.55 0 1 92.6 570.41" class="st6"/>
		</g>
		<g id="shape34-106" v:mID="34" v:groupContext="shape" transform="translate(4.11108,994.779) rotate(-168.69)">
			<title>工作表.34</title>
			<path d="M-0 570.41 A77.1405 57.3358 122.02 0 1 86.72 570.41" class="st6"/>
		</g>
		<g id="shape39-109" v:mID="39" v:groupContext="shape" transform="translate(-153.207,-67.9318) rotate(-28.1585)">
			<title>工作表.39</title>
			<path d="M0 570.41 L71.08 570.41" class="st6"/>
		</g>
		<g id="shape40-112" v:mID="40" v:groupContext="shape" transform="translate(346.091,-143.762) rotate(17.1027)">
			<title>工作表.40</title>
			<path d="M-0 570.41 A36.5609 12.9739 160.17 0 1 38.56 570.41" class="st6"/>
		</g>
		<g id="shape41-115" v:mID="41" v:groupContext="shape" transform="translate(785.604,412.766) rotate(90)">
			<title>工作表.41</title>
			<path d="M0 570.41 L8.5 570.41" class="st6"/>
		</g>
	</g>
</svg>
