<?xml version="1.0" encoding="UTF-8" standalone="no"?>
<!DOCTYPE svg PUBLIC "-//W3C//DTD SVG 1.0//EN" "http://www.w3.org/TR/2001/REC-SVG-20010904/DTD/svg10.dtd">
<!-- 由 Microsoft Visio 11.0, SVG Export, v1.0 產生 y33.0277.svg Page-1 -->
<svg xmlns="http://www.w3.org/2000/svg" xmlns:xlink="http://www.w3.org/1999/xlink" xmlns:ev="http://www.w3.org/2001/xml-events"
		xmlns:v="http://schemas.microsoft.com/visio/2003/SVGExtensions/" width="6.46107in" height="3.2883in"
		viewBox="0 0 465.197 236.758" xml:space="preserve" color-interpolation-filters="sRGB" class="st9">
	<v:documentProperties v:langID="1028" v:metric="true" v:viewMarkup="false">
		<v:userDefs>
			<v:ud v:nameU="msvSubprocessMaster" v:prompt="" v:val="VT4(Box)"/>
			<v:ud v:nameU="msvNoAutoConnect" v:val="VT0(1):26"/>
		</v:userDefs>
	</v:documentProperties>

	<style type="text/css">
	<![CDATA[
		.st1 {fill:none;stroke:none;stroke-linecap:round;stroke-linejoin:round;stroke-width:0.75}
		.st2 {fill:#000000;font-family:新細明體;font-size:1.33333em}
		.st3 {marker-end:url(#mrkr7-38);stroke:#000000;stroke-linecap:round;stroke-linejoin:round;stroke-width:1}
		.st4 {fill:#000000;fill-opacity:1;stroke:#000000;stroke-opacity:1;stroke-width:0.28409090909091}
		.st5 {stroke:#000000;stroke-linecap:round;stroke-linejoin:round;stroke-width:3}
		.st6 {marker-end:url(#mrkr7-38);stroke:#000000;stroke-dasharray:3,3;stroke-linecap:round;stroke-linejoin:round;stroke-width:1}
		.st7 {stroke:#000000;stroke-linecap:round;stroke-linejoin:round;stroke-width:1}
		.st8 {marker-start:url(#mrkr7-90);stroke:#000000;stroke-linecap:round;stroke-linejoin:round;stroke-width:1}
		.st9 {fill:none;fill-rule:evenodd;font-size:12px;overflow:visible;stroke-linecap:square;stroke-miterlimit:3}
	]]>
	</style>

	<defs id="Markers">
		<g id="lend7">
			<path
					d="M 1.84309 -0.959455 C 1.43792 -0.3808 0.784502 -0.0260248 0.0785258 -0.00137083 L 0.0785228 0.00137063 C 0.784499 0.0260235 1.43791 0.380798 1.84309 0.959452 "
					style="stroke-linecap:round;stroke-linejoin:round;fill:none"/>
		</g>
		<marker id="mrkr7-38" class="st4" v:arrowType="7" v:arrowSize="2" orient="auto" markerUnits="strokeWidth"
				overflow="visible">
			<use xlink:href="#lend7" transform="scale(-3.52,-3.52) "/>
		</marker>
		<marker id="mrkr7-90" class="st4" v:arrowType="7" v:arrowSize="2" orient="auto" markerUnits="strokeWidth"
				overflow="visible">
			<use xlink:href="#lend7" transform="scale(3.52) "/>
		</marker>
	</defs>
	<g v:mID="0" v:index="1" v:groupContext="foregroundPage">
		<title>頁-1</title>
		<v:pageProperties v:drawingScale="0.0393701" v:pageScale="0.0393701" v:drawingUnits="24" v:shadowOffsetX="8.50394"
				v:shadowOffsetY="-8.50394"/>
		<g id="group45-1" transform="translate(21,-21)" v:mID="45" v:groupContext="group">
			<title>工作表.45</title>
			<g id="group44-2" transform="translate(188.439,236.758) rotate(-90)" v:mID="44" v:groupContext="group">
				<title>工作表.44</title>
				<g id="shape1-3" v:mID="1" v:groupContext="shape" transform="translate(391.246,-181.352) rotate(90)">
					<title>工作表.1</title>
					<desc>轉相</desc>
					<v:textBlock v:margins="rect(4,4,4,4)" v:tabSpace="42.5197"/>
					<v:textRect cx="21.2598" cy="215.498" width="42.52" height="42.5197"/>
					<rect x="0" y="194.238" width="42.5197" height="42.5197" class="st1"/>
					<text x="5.26" y="220.3" class="st2" v:langID="1028"><v:paragraph v:horizAlign="1"/><v:tabList/>轉相</text>				</g>
				<g id="shape2-6" v:mID="2" v:groupContext="shape" transform="translate(347.309,-177.1) rotate(90)">
					<title>工作表.2</title>
					<desc>分別事識</desc>
					<v:textBlock v:margins="rect(4,4,4,4)" v:tabSpace="42.5197"/>
					<v:textRect cx="36.8504" cy="199.907" width="73.71" height="73.7008"/>
					<rect x="0" y="163.057" width="73.7008" height="73.7008" class="st1"/>
					<text x="4.85" y="204.71" class="st2" v:langID="1028"><v:paragraph v:horizAlign="1"/><v:tabList/>分別事識</text>				</g>
				<g id="shape3-9" v:mID="3" v:groupContext="shape" transform="translate(391.246,194.238) rotate(90)">
					<title>工作表.3</title>
					<desc>真相</desc>
					<v:textBlock v:margins="rect(4,4,4,4)" v:tabSpace="42.5197"/>
					<v:textRect cx="21.2598" cy="215.498" width="42.52" height="42.5197"/>
					<rect x="0" y="194.238" width="42.5197" height="42.5197" class="st1"/>
					<text x="5.26" y="220.3" class="st2" v:langID="1028"><v:paragraph v:horizAlign="1"/><v:tabList/>真相</text>				</g>
				<g id="shape4-12" v:mID="4" v:groupContext="shape" transform="translate(386.994,-75.0531) rotate(90)">
					<title>工作表.4</title>
					<desc>意</desc>
					<v:textBlock v:margins="rect(4,4,4,4)" v:tabSpace="42.5197"/>
					<v:textRect cx="11.3386" cy="225.419" width="22.68" height="22.6772"/>
					<rect x="0" y="214.081" width="22.6772" height="22.6772" class="st1"/>
					<text x="4" y="230.22" class="st2" v:langID="1028"><v:paragraph v:horizAlign="1"/><v:tabList/>意</text>				</g>
				<g id="shape5-15" v:mID="5" v:groupContext="shape" transform="translate(348.726,-76.4705) rotate(90)">
					<title>工作表.5</title>
					<desc>六識</desc>
					<v:textBlock v:margins="rect(4,4,4,4)" v:tabSpace="42.5197"/>
					<v:textRect cx="21.2598" cy="215.498" width="42.52" height="42.5197"/>
					<rect x="0" y="194.238" width="42.5197" height="42.5197" class="st1"/>
					<text x="5.26" y="220.3" class="st2" v:langID="1028"><v:paragraph v:horizAlign="1"/><v:tabList/>六識</text>				</g>
				<g id="shape6-18" v:mID="6" v:groupContext="shape" transform="translate(372.821,69.5138) rotate(90)">
					<title>工作表.6</title>
					<desc>空</desc>
					<v:textBlock v:margins="rect(4,4,4,4)" v:tabSpace="42.5197"/>
					<v:textRect cx="11.3386" cy="225.419" width="22.68" height="22.6772"/>
					<rect x="0" y="214.081" width="22.6772" height="22.6772" class="st1"/>
					<text x="4" y="230.22" class="st2" v:langID="1028"><v:paragraph v:horizAlign="1"/><v:tabList/>空</text>				</g>
				<g id="shape8-21" v:mID="8" v:groupContext="shape" transform="translate(316.128,12.8209) rotate(90)">
					<title>工作表.8</title>
					<desc>塵</desc>
					<v:textBlock v:margins="rect(4,4,4,4)" v:tabSpace="42.5197" v:verticalText="true"/>
					<v:textRect cx="11.3386" cy="225.419" width="22.68" height="22.6772"/>
					<rect x="0" y="214.081" width="22.6772" height="22.6772" class="st1"/>
					<text x="11.34" y="218.08" writing-mode="tb-rl" class="st2" v:langID="1028"><v:paragraph v:horizAlign="1"/><v:tabList/>塵</text>				</g>
				<g id="shape9-24" v:mID="9" v:groupContext="shape" transform="translate(316.128,69.5138) rotate(90)">
					<title>工作表.9</title>
					<desc>根</desc>
					<v:textBlock v:margins="rect(4,4,4,4)" v:tabSpace="42.5197"/>
					<v:textRect cx="11.3386" cy="225.419" width="22.68" height="22.6772"/>
					<rect x="0" y="214.081" width="22.6772" height="22.6772" class="st1"/>
					<text x="4" y="230.22" class="st2" v:langID="1028"><v:paragraph v:horizAlign="1"/><v:tabList/>根</text>				</g>
				<g id="shape10-27" v:mID="10" v:groupContext="shape" transform="translate(277.86,-161.51) rotate(90)">
					<title>工作表.10</title>
					<desc>業相</desc>
					<v:textBlock v:margins="rect(4,4,4,4)" v:tabSpace="42.5197"/>
					<v:textRect cx="21.2598" cy="215.498" width="42.52" height="42.5197"/>
					<rect x="0" y="194.238" width="42.5197" height="42.5197" class="st1"/>
					<text x="5.26" y="220.3" class="st2" v:langID="1028"><v:paragraph v:horizAlign="1"/><v:tabList/>業相</text>				</g>
				<g id="shape11-30" v:mID="11" v:groupContext="shape" transform="translate(277.86,124.789) rotate(90)">
					<title>工作表.11</title>
					<desc>現識</desc>
					<v:textBlock v:margins="rect(4,4,4,4)" v:tabSpace="42.5197"/>
					<v:textRect cx="21.2598" cy="215.498" width="42.52" height="42.5197"/>
					<rect x="0" y="194.238" width="42.5197" height="42.5197" class="st1"/>
					<text x="5.26" y="220.3" class="st2" v:langID="1028"><v:paragraph v:horizAlign="1"/><v:tabList/>現識</text>				</g>
				<g id="shape12-33" v:mID="12" v:groupContext="shape" transform="translate(293.451,24.1594) rotate(90)">
					<title>工作表.12</title>
					<path d="M0 236.76 L99.21 236.76" class="st3"/>
				</g>
				<g id="shape13-39" v:mID="13" v:groupContext="shape" transform="translate(327.467,-188.439) rotate(90)">
					<title>工作表.13</title>
					<path d="M0 236.76 L198.43 236.76" class="st5"/>
				</g>
				<g id="shape14-42" v:mID="14" v:groupContext="shape" transform="translate(327.467,38.3327) rotate(90)">
					<title>工作表.14</title>
					<path d="M0 236.76 L28.35 236.76" class="st5"/>
				</g>
				<g id="shape15-45" v:mID="15" v:groupContext="shape" transform="translate(104.882,-155.906)">
					<title>工作表.15</title>
					<path d="M0 236.76 L28.35 236.76" class="st5"/>
				</g>
				<g id="shape16-48" v:mID="16" v:groupContext="shape" transform="translate(161.575,-155.906)">
					<title>工作表.16</title>
					<path d="M0 236.76 L28.35 236.76" class="st5"/>
				</g>
				<g id="shape17-51" v:mID="17" v:groupContext="shape" transform="translate(258.122,262.439) rotate(135)">
					<title>工作表.17</title>
					<path d="M0 236.76 L40.09 236.76" class="st5"/>
				</g>
				<g id="shape18-54" v:mID="18" v:groupContext="shape" transform="translate(211.329,307.767) rotate(134.029)">
					<title>工作表.18</title>
					<path d="M0 236.76 L59.14 236.76" class="st5"/>
				</g>
				<g id="shape20-57" v:mID="20" v:groupContext="shape" transform="translate(-62.5312,363.069) rotate(-135)">
					<title>工作表.20</title>
					<path d="M0 236.76 L40.09 236.76" class="st3"/>
				</g>
				<g id="shape21-62" v:mID="21" v:groupContext="shape" transform="translate(76.5354,-377.008)">
					<title>工作表.21</title>
					<path d="M0 236.76 L56.69 236.76" class="st3"/>
				</g>
				<g id="shape22-67" v:mID="22" v:groupContext="shape" transform="translate(373.337,59.1746) rotate(116.565)">
					<title>工作表.22</title>
					<path d="M0 236.76 L126.77 236.76" class="st6"/>
				</g>
				<g id="shape23-72" v:mID="23" v:groupContext="shape" transform="translate(359.164,2.48173) rotate(116.565)">
					<title>工作表.23</title>
					<path d="M0 236.76 L31.69 236.76" class="st7"/>
				</g>
				<g id="shape24-75" v:mID="24" v:groupContext="shape" transform="translate(367.607,-66.0161) rotate(81.8699)">
					<title>工作表.24</title>
					<path d="M0 236.76 L100.22 236.76" class="st6"/>
				</g>
				<g id="shape25-80" v:mID="25" v:groupContext="shape" transform="translate(325.72,105.311) rotate(125.607)">
					<title>工作表.25</title>
					<path d="M0 236.76 L49.29 236.76" class="st6"/>
				</g>
				<g id="shape26-85" v:mID="26" v:groupContext="shape" transform="translate(360.436,-51.4801) rotate(106.329)">
					<title>工作表.26</title>
					<path d="M0 236.76 L126.24 236.76" class="st8"/>
				</g>
				<g id="shape27-91" v:mID="27" v:groupContext="shape" transform="translate(359.164,-209.281) rotate(63.4349)">
					<title>工作表.27</title>
					<path d="M0 236.76 L31.69 236.76" class="st7"/>
				</g>
				<g id="group35-94" transform="translate(161.575,-375.591)" v:mID="35" v:groupContext="group">
					<title>工作表.35</title>
					<g id="shape29-95" v:mID="29" v:groupContext="shape" transform="translate(236.758,194.238) rotate(90)">
						<title>工作表.29</title>
						<path d="M0 236.76 L42.52 236.76" class="st7"/>
					</g>
					<g id="shape30-98" v:mID="30" v:groupContext="shape" transform="translate(265.104,194.238) rotate(90)">
						<title>工作表.30</title>
						<path d="M0 236.76 L42.52 236.76" class="st7"/>
					</g>
					<g id="shape31-101" v:mID="31" v:groupContext="shape" transform="translate(0,-42.5197)">
						<title>工作表.31</title>
						<path d="M0 236.76 L28.35 236.76" class="st7"/>
					</g>
					<g id="shape34-104" v:mID="34" v:groupContext="shape">
						<title>工作表.34</title>
						<path d="M0 236.76 L28.35 236.76" class="st7"/>
					</g>
				</g>
				<g id="group36-107" transform="translate(48.189,-355.748)" v:mID="36" v:groupContext="group">
					<title>工作表.36</title>
					<g id="shape19-108" v:mID="19" v:groupContext="shape" transform="translate(236.758,194.238) rotate(90)">
						<title>工作表.19</title>
						<path d="M0 236.76 L42.52 236.76" class="st7"/>
					</g>
					<g id="shape28-111" v:mID="28" v:groupContext="shape" transform="translate(265.104,194.238) rotate(90)">
						<title>工作表.28</title>
						<path d="M0 236.76 L42.52 236.76" class="st7"/>
					</g>
					<g id="shape32-114" v:mID="32" v:groupContext="shape" transform="translate(0,-42.5197)">
						<title>工作表.32</title>
						<path d="M0 236.76 L28.35 236.76" class="st7"/>
					</g>
					<g id="shape33-117" v:mID="33" v:groupContext="shape">
						<title>工作表.33</title>
						<path d="M0 236.76 L28.35 236.76" class="st7"/>
					</g>
				</g>
				<g id="group37-120" transform="translate(161.575,2.84217E-014)" v:mID="37" v:groupContext="group">
					<title>工作表.37</title>
					<g id="shape38-121" v:mID="38" v:groupContext="shape" transform="translate(236.758,194.238) rotate(90)">
						<title>工作表.38</title>
						<path d="M0 236.76 L42.52 236.76" class="st7"/>
					</g>
					<g id="shape39-124" v:mID="39" v:groupContext="shape" transform="translate(265.104,194.238) rotate(90)">
						<title>工作表.39</title>
						<path d="M0 236.76 L42.52 236.76" class="st7"/>
					</g>
					<g id="shape40-127" v:mID="40" v:groupContext="shape" transform="translate(0,-42.5197)">
						<title>工作表.40</title>
						<path d="M0 236.76 L28.35 236.76" class="st7"/>
					</g>
					<g id="shape41-130" v:mID="41" v:groupContext="shape">
						<title>工作表.41</title>
						<path d="M0 236.76 L28.35 236.76" class="st7"/>
					</g>
				</g>
				<g id="shape42-133" v:mID="42" v:groupContext="shape" transform="translate(-30.4027,-93.279) rotate(-22.9184)">
					<title>工作表.42</title>
					<path d="M0 236.76 L83.71 236.76" class="st7"/>
				</g>
				<g id="shape43-136" v:mID="43" v:groupContext="shape" transform="translate(-165.779,60.0812) rotate(-74.495)">
					<title>工作表.43</title>
					<path d="M0 236.76 L91.19 236.76" class="st7"/>
				</g>
			</g>
			<g id="shape7-139" v:mID="7" v:groupContext="shape" transform="translate(328.819,-111.969)">
				<title>工作表.7</title>
				<desc>真識</desc>
				<v:textBlock v:margins="rect(4,4,4,4)" v:tabSpace="42.5197"/>
				<v:textRect cx="21.2598" cy="215.498" width="42.52" height="42.5197"/>
				<rect x="0" y="194.238" width="42.5197" height="42.5197" class="st1"/>
				<text x="5.26" y="220.3" class="st2" v:langID="1028"><v:paragraph v:horizAlign="1"/><v:tabList/>真識</text>			</g>
		</g>
	</g>
</svg>
