<?xml version="1.0" encoding="UTF-8" standalone="no"?>
<!DOCTYPE svg PUBLIC "-//W3C//DTD SVG 1.0//EN" "http://www.w3.org/TR/2001/REC-SVG-20010904/DTD/svg10.dtd">
<!-- 由 Microsoft Visio 11.0, SVG Export, v1.0 產生 y33.0095.svg Page-1 -->
<svg xmlns="http://www.w3.org/2000/svg" xmlns:xlink="http://www.w3.org/1999/xlink" xmlns:ev="http://www.w3.org/2001/xml-events"
		xmlns:v="http://schemas.microsoft.com/visio/2003/SVGExtensions/" width="7.22069in" height="5.60942in"
		viewBox="0 0 519.89 403.878" xml:space="preserve" color-interpolation-filters="sRGB" class="st7">
	<v:documentProperties v:langID="1028" v:metric="true" v:viewMarkup="false">
		<v:userDefs>
			<v:ud v:nameU="msvSubprocessMaster" v:prompt="" v:val="VT4(Box)"/>
			<v:ud v:nameU="msvNoAutoConnect" v:val="VT0(1):26"/>
		</v:userDefs>
	</v:documentProperties>

	<style type="text/css">
	<![CDATA[
		.st1 {fill:none;stroke:none;stroke-linecap:round;stroke-linejoin:round;stroke-width:0.75}
		.st2 {fill:#000000;font-family:新細明體;font-size:1.33333em}
		.st3 {stroke:#000000;stroke-linecap:round;stroke-linejoin:round;stroke-width:1.5}
		.st4 {stroke:#000000;stroke-linecap:round;stroke-linejoin:round;stroke-width:1}
		.st5 {fill:none;stroke:#000000;stroke-linecap:round;stroke-linejoin:round;stroke-width:1}
		.st6 {stroke:#ffffff;stroke-linecap:round;stroke-linejoin:round;stroke-opacity:0;stroke-width:1}
		.st7 {fill:none;fill-rule:evenodd;font-size:12px;overflow:visible;stroke-linecap:square;stroke-miterlimit:3}
	]]>
	</style>

	<g v:mID="0" v:index="1" v:groupContext="foregroundPage">
		<title>頁-1</title>
		<v:pageProperties v:drawingScale="0.0393701" v:pageScale="0.0393701" v:drawingUnits="24" v:shadowOffsetX="8.50394"
				v:shadowOffsetY="-8.50394"/>
		<g id="group52-1" transform="translate(19,-18.75)" v:mID="52" v:groupContext="group">
			<title>工作表.52</title>
			<g id="shape1-2" v:mID="1" v:groupContext="shape" transform="translate(36.1417,-237.402)">
				<title>工作表.1</title>
				<desc>布教師</desc>
				<v:textBlock v:margins="rect(4,4,4,4)" v:tabSpace="42.5197"/>
				<v:textRect cx="63.0709" cy="340.807" width="126.15" height="126.142"/>
				<rect x="0" y="277.736" width="126.142" height="126.142" class="st1"/>
				<text x="0.25em 3.442em 6.634em" y="345.61" class="st2" v:langID="1028"><v:paragraph v:horizAlign="4"/><v:tabList/>布教師</text>			</g>
			<g id="shape2-5" v:mID="2" v:groupContext="shape" transform="translate(180.709,-237.402)">
				<title>工作表.2</title>
				<desc>布教地</desc>
				<v:textBlock v:margins="rect(4,4,4,4)" v:tabSpace="42.5197"/>
				<v:textRect cx="63.0709" cy="340.807" width="126.15" height="126.142"/>
				<rect x="0" y="277.736" width="126.142" height="126.142" class="st1"/>
				<text x="0.25em 3.442em 6.634em" y="345.61" class="st2" v:langID="1028"><v:paragraph v:horizAlign="4"/><v:tabList/>布教地</text>			</g>
			<g id="shape4-8" v:mID="4" v:groupContext="shape" transform="translate(35.4331,-243.78)">
				<title>工作表.4</title>
				<desc>末闡提</desc>
				<v:textBlock v:margins="rect(4,4,4,4)" v:tabSpace="42.5197"/>
				<v:textRect cx="28.3465" cy="375.531" width="56.7" height="56.6929"/>
				<rect x="0" y="347.185" width="56.6929" height="56.6929" class="st1"/>
				<text x="4.35" y="380.33" class="st2" v:langID="1028"><v:paragraph v:horizAlign="1"/><v:tabList/>末闡提</text>			</g>
			<g id="shape5-11" v:mID="5" v:groupContext="shape" transform="translate(180,-219.685)">
				<title>工作表.5</title>
				<desc>罽賓、犍陀羅</desc>
				<v:textBlock v:margins="rect(4,4,4,4)" v:tabSpace="42.5197"/>
				<v:textRect cx="52.4409" cy="351.437" width="104.89" height="104.882"/>
				<rect x="0" y="298.996" width="104.882" height="104.882" class="st1"/>
				<text x="4.44" y="356.24" class="st2" v:langID="1028"><v:paragraph v:horizAlign="1"/><v:tabList/>罽賓、犍陀羅</text>			</g>
			<g id="shape7-14" v:mID="7" v:groupContext="shape" transform="translate(35.4331,-206.929)">
				<title>工作表.7</title>
				<desc>摩訶提婆</desc>
				<v:textBlock v:margins="rect(4,4,4,4)" v:tabSpace="42.5197"/>
				<v:textRect cx="36.8504" cy="367.028" width="73.71" height="73.7008"/>
				<rect x="0" y="330.177" width="73.7008" height="73.7008" class="st1"/>
				<text x="4.85" y="371.83" class="st2" v:langID="1028"><v:paragraph v:horizAlign="1"/><v:tabList/>摩訶提婆</text>			</g>
			<g id="shape8-17" v:mID="8" v:groupContext="shape" transform="translate(180,-191.339)">
				<title>工作表.8</title>
				<desc>摩醯娑漫陀羅</desc>
				<v:textBlock v:margins="rect(4,4,4,4)" v:tabSpace="42.5197"/>
				<v:textRect cx="52.4409" cy="351.437" width="104.89" height="104.882"/>
				<rect x="0" y="298.996" width="104.882" height="104.882" class="st1"/>
				<text x="4.44" y="356.24" class="st2" v:langID="1028"><v:paragraph v:horizAlign="1"/><v:tabList/>摩醯娑漫陀羅</text>			</g>
			<g id="shape9-20" v:mID="9" v:groupContext="shape" transform="translate(311.811,-182.835)">
				<title>工作表.9</title>
				<desc>南印之賣索爾等</desc>
				<v:textBlock v:margins="rect(4,4,4,4)" v:tabSpace="42.5197"/>
				<v:textRect cx="60.9449" cy="342.933" width="121.89" height="121.89"/>
				<rect x="0" y="281.988" width="121.89" height="121.89" class="st1"/>
				<text x="4.95" y="347.73" class="st2" v:langID="1028"><v:paragraph v:horizAlign="1"/><v:tabList/>南印之賣索爾等</text>			</g>
			<g id="shape10-23" v:mID="10" v:groupContext="shape" transform="translate(35.4331,-187.087)">
				<title>工作表.10</title>
				<desc>勒棄多</desc>
				<v:textBlock v:margins="rect(4,4,4,4)" v:tabSpace="42.5197"/>
				<v:textRect cx="28.3465" cy="375.531" width="56.7" height="56.6929"/>
				<rect x="0" y="347.185" width="56.6929" height="56.6929" class="st1"/>
				<text x="4.35" y="380.33" class="st2" v:langID="1028"><v:paragraph v:horizAlign="1"/><v:tabList/>勒棄多</text>			</g>
			<g id="shape11-26" v:mID="11" v:groupContext="shape" transform="translate(178.583,-178.583)">
				<title>工作表.11</title>
				<desc>婆那婆私</desc>
				<v:textBlock v:margins="rect(4,4,4,4)" v:tabSpace="42.5197"/>
				<v:textRect cx="36.8504" cy="367.028" width="73.71" height="73.7008"/>
				<rect x="0" y="330.177" width="73.7008" height="73.7008" class="st1"/>
				<text x="4.85" y="371.83" class="st2" v:langID="1028"><v:paragraph v:horizAlign="1"/><v:tabList/>婆那婆私</text>			</g>
			<g id="shape12-29" v:mID="12" v:groupContext="shape" transform="translate(313.228,-147.402)">
				<title>工作表.12</title>
				<desc>未詳或云在南印</desc>
				<v:textBlock v:margins="rect(4,4,4,4)" v:tabSpace="42.5197"/>
				<v:textRect cx="68.0315" cy="335.846" width="136.07" height="136.063"/>
				<rect x="0" y="267.815" width="136.063" height="136.063" class="st1"/>
				<text x="4.03" y="340.65" class="st2" v:langID="1028"><v:paragraph v:horizAlign="1"/><v:tabList/>未詳，或云在南印</text>			</g>
			<g id="shape13-32" v:mID="13" v:groupContext="shape" transform="translate(35.4331,-158.74)">
				<title>工作表.13</title>
				<desc>曇無德</desc>
				<v:textBlock v:margins="rect(4,4,4,4)" v:tabSpace="42.5197"/>
				<v:textRect cx="28.3465" cy="375.531" width="56.7" height="56.6929"/>
				<rect x="0" y="347.185" width="56.6929" height="56.6929" class="st1"/>
				<text x="4.35" y="380.33" class="st2" v:langID="1028"><v:paragraph v:horizAlign="1"/><v:tabList/>曇無德</text>			</g>
			<g id="shape14-35" v:mID="14" v:groupContext="shape" transform="translate(177.165,-141.732)">
				<title>工作表.14</title>
				<desc>阿波蘭多迦</desc>
				<v:textBlock v:margins="rect(4,4,4,4)" v:tabSpace="42.5197"/>
				<v:textRect cx="45.3543" cy="358.524" width="90.71" height="90.7087"/>
				<rect x="0" y="313.169" width="90.7087" height="90.7087" class="st1"/>
				<text x="5.35" y="363.32" class="st2" v:langID="1028"><v:paragraph v:horizAlign="1"/><v:tabList/>阿波蘭多迦</text>			</g>
			<g id="shape15-38" v:mID="15" v:groupContext="shape" transform="translate(313.228,-119.055)">
				<title>工作表.15</title>
				<desc>西印之蘇庫爾以北</desc>
				<v:textBlock v:margins="rect(4,4,4,4)" v:tabSpace="42.5197"/>
				<v:textRect cx="68.0315" cy="335.846" width="136.07" height="136.063"/>
				<rect x="0" y="267.815" width="136.063" height="136.063" class="st1"/>
				<text x="4.03" y="340.65" class="st2" v:langID="1028"><v:paragraph v:horizAlign="1"/><v:tabList/>西印之蘇庫爾以北</text>			</g>
			<g id="shape16-41" v:mID="16" v:groupContext="shape" transform="translate(34.0157,-113.386)">
				<title>工作表.16</title>
				<desc>摩訶曇無德</desc>
				<v:textBlock v:margins="rect(4,4,4,4)" v:tabSpace="42.5197"/>
				<v:textRect cx="45.3543" cy="358.524" width="90.71" height="90.7087"/>
				<rect x="0" y="313.169" width="90.7087" height="90.7087" class="st1"/>
				<text x="5.35" y="363.32" class="st2" v:langID="1028"><v:paragraph v:horizAlign="1"/><v:tabList/>摩訶曇無德</text>			</g>
			<g id="shape17-44" v:mID="17" v:groupContext="shape" transform="translate(180,-121.89)">
				<title>工作表.17</title>
				<desc>摩訶刺陀</desc>
				<v:textBlock v:margins="rect(4,4,4,4)" v:tabSpace="42.5197"/>
				<v:textRect cx="36.8504" cy="367.028" width="73.71" height="73.7008"/>
				<rect x="0" y="330.177" width="73.7008" height="73.7008" class="st1"/>
				<text x="4.85" y="371.83" class="st2" v:langID="1028"><v:paragraph v:horizAlign="1"/><v:tabList/>摩訶刺陀</text>			</g>
			<g id="shape18-47" v:mID="18" v:groupContext="shape" transform="translate(313.228,-113.386)">
				<title>工作表.18</title>
				<desc>南印之孟買</desc>
				<v:textBlock v:margins="rect(4,4,4,4)" v:tabSpace="42.5197"/>
				<v:textRect cx="45.3543" cy="358.524" width="90.71" height="90.7087"/>
				<rect x="0" y="313.169" width="90.7087" height="90.7087" class="st1"/>
				<text x="5.35" y="363.32" class="st2" v:langID="1028"><v:paragraph v:horizAlign="1"/><v:tabList/>南印之孟買</text>			</g>
			<g id="shape19-50" v:mID="19" v:groupContext="shape" transform="translate(34.0157,-85.0394)">
				<title>工作表.19</title>
				<desc>摩訶勒棄多</desc>
				<v:textBlock v:margins="rect(4,4,4,4)" v:tabSpace="42.5197"/>
				<v:textRect cx="45.3543" cy="358.524" width="90.71" height="90.7087"/>
				<rect x="0" y="313.169" width="90.7087" height="90.7087" class="st1"/>
				<text x="5.35" y="363.32" class="st2" v:langID="1028"><v:paragraph v:horizAlign="1"/><v:tabList/>摩訶勒棄多</text>			</g>
			<g id="shape20-53" v:mID="20" v:groupContext="shape" transform="translate(180,-93.5433)">
				<title>工作表.20</title>
				<desc>臾那世界</desc>
				<v:textBlock v:margins="rect(4,4,4,4)" v:tabSpace="42.5197"/>
				<v:textRect cx="36.8504" cy="367.028" width="73.71" height="73.7008"/>
				<rect x="0" y="330.177" width="73.7008" height="73.7008" class="st1"/>
				<text x="4.85" y="371.83" class="st2" v:langID="1028"><v:paragraph v:horizAlign="1"/><v:tabList/>臾那世界</text>			</g>
			<g id="shape21-56" v:mID="21" v:groupContext="shape" transform="translate(313.228,-85.0394)">
				<title>工作表.21</title>
				<desc>阿富汗以西</desc>
				<v:textBlock v:margins="rect(4,4,4,4)" v:tabSpace="42.5197"/>
				<v:textRect cx="45.3543" cy="358.524" width="90.71" height="90.7087"/>
				<rect x="0" y="313.169" width="90.7087" height="90.7087" class="st1"/>
				<text x="5.35" y="363.32" class="st2" v:langID="1028"><v:paragraph v:horizAlign="1"/><v:tabList/>阿富汗以西</text>			</g>
			<g id="shape22-59" v:mID="22" v:groupContext="shape" transform="translate(32.5984,-38.2677)">
				<title>工作表.22</title>
				<desc>末示摩、迦葉波</desc>
				<v:textBlock v:margins="rect(4,4,4,4)" v:tabSpace="42.5197"/>
				<v:textRect cx="63.7795" cy="340.098" width="127.56" height="127.559"/>
				<rect x="0" y="276.319" width="127.559" height="127.559" class="st1"/>
				<text x="7.78" y="344.9" class="st2" v:langID="1028"><v:paragraph v:horizAlign="1"/><v:tabList/>末示摩、迦葉波</text>			</g>
			<g id="shape23-62" v:mID="23" v:groupContext="shape" transform="translate(181.417,-73.7008)">
				<title>工作表.23</title>
				<desc>雪山邊</desc>
				<v:textBlock v:margins="rect(4,4,4,4)" v:tabSpace="42.5197"/>
				<v:textRect cx="28.3465" cy="375.531" width="56.7" height="56.6929"/>
				<rect x="0" y="347.185" width="56.6929" height="56.6929" class="st1"/>
				<text x="4.35" y="380.33" class="st2" v:langID="1028"><v:paragraph v:horizAlign="1"/><v:tabList/>雪山邊</text>			</g>
			<g id="shape24-65" v:mID="24" v:groupContext="shape" transform="translate(313.228,-65.1969)">
				<title>工作表.24</title>
				<desc>尼泊爾等</desc>
				<v:textBlock v:margins="rect(4,4,4,4)" v:tabSpace="42.5197"/>
				<v:textRect cx="36.8504" cy="367.028" width="73.71" height="73.7008"/>
				<rect x="0" y="330.177" width="73.7008" height="73.7008" class="st1"/>
				<text x="4.85" y="371.83" class="st2" v:langID="1028"><v:paragraph v:horizAlign="1"/><v:tabList/>尼泊爾等</text>			</g>
			<g id="shape25-68" v:mID="25" v:groupContext="shape" transform="translate(35.4331,-14.1732)">
				<title>工作表.25</title>
				<desc>須那迦、鬱多羅</desc>
				<v:textBlock v:margins="rect(4,4,4,4)" v:tabSpace="42.5197"/>
				<v:textRect cx="60.9449" cy="342.933" width="121.89" height="121.89"/>
				<rect x="0" y="281.988" width="121.89" height="121.89" class="st1"/>
				<text x="4.95" y="347.73" class="st2" v:langID="1028"><v:paragraph v:horizAlign="1"/><v:tabList/>須那迦、鬱多羅</text>			</g>
			<g id="shape27-71" v:mID="27" v:groupContext="shape" transform="translate(311.811,-52.4409)">
				<title>工作表.27</title>
				<desc>緬甸</desc>
				<v:textBlock v:margins="rect(4,4,4,4)" v:tabSpace="42.5197"/>
				<v:textRect cx="21.2598" cy="382.618" width="42.52" height="42.5197"/>
				<rect x="0" y="361.358" width="42.5197" height="42.5197" class="st1"/>
				<text x="5.26" y="387.42" class="st2" v:langID="1028"><v:paragraph v:horizAlign="1"/><v:tabList/>緬甸</text>			</g>
			<g id="shape28-74" v:mID="28" v:groupContext="shape" transform="translate(35.4331,-8.50394)">
				<title>工作表.28</title>
				<desc>摩哂陀等</desc>
				<v:textBlock v:margins="rect(4,4,4,4)" v:tabSpace="42.5197"/>
				<v:textRect cx="36.8504" cy="367.028" width="73.71" height="73.7008"/>
				<rect x="0" y="330.177" width="73.7008" height="73.7008" class="st1"/>
				<text x="4.85" y="371.83" class="st2" v:langID="1028"><v:paragraph v:horizAlign="1"/><v:tabList/>摩哂陀等</text>			</g>
			<g id="shape29-77" v:mID="29" v:groupContext="shape" transform="translate(180,-24.0945)">
				<title>工作表.29</title>
				<desc>師子</desc>
				<v:textBlock v:margins="rect(4,4,4,4)" v:tabSpace="42.5197"/>
				<v:textRect cx="21.2598" cy="382.618" width="42.52" height="42.5197"/>
				<rect x="0" y="361.358" width="42.5197" height="42.5197" class="st1"/>
				<text x="5.26" y="387.42" class="st2" v:langID="1028"><v:paragraph v:horizAlign="1"/><v:tabList/>師子</text>			</g>
			<g id="shape30-80" v:mID="30" v:groupContext="shape" transform="translate(313.228,-1.13687E-013)">
				<title>工作表.30</title>
				<desc>南印之錫蘭</desc>
				<v:textBlock v:margins="rect(4,4,4,4)" v:tabSpace="42.5197"/>
				<v:textRect cx="45.3543" cy="358.524" width="90.71" height="90.7087"/>
				<rect x="0" y="313.169" width="90.7087" height="90.7087" class="st1"/>
				<text x="5.35" y="363.32" class="st2" v:langID="1028"><v:paragraph v:horizAlign="1"/><v:tabList/>南印之錫蘭</text>			</g>
			<g id="group31-83" transform="translate(43.9961,199.783) rotate(-90)" v:mID="31" v:groupContext="group">
				<title>工作表.31</title>
			</g>
			<g id="shape3-84" v:mID="3" v:groupContext="shape" transform="translate(313.937,-234.567)">
				<title>工作表.3</title>
				<desc>即今</desc>
				<v:textBlock v:margins="rect(4,4,4,4)" v:tabSpace="42.5197"/>
				<v:textRect cx="65.9055" cy="337.972" width="131.82" height="131.811"/>
				<rect x="0" y="272.067" width="131.811" height="131.811" class="st1"/>
				<text x="0.25em 6.988em" y="342.77" class="st2" v:langID="1028"><v:paragraph v:horizAlign="4"/><v:tabList/>即今</text>			</g>
			<g id="shape6-87" v:mID="6" v:groupContext="shape" transform="translate(313.228,-204.094)">
				<title>工作表.6</title>
				<desc>北印之克什米爾等</desc>
				<v:textBlock v:margins="rect(4,4,4,4)" v:tabSpace="42.5197"/>
				<v:textRect cx="68.0315" cy="335.846" width="136.07" height="136.063"/>
				<rect x="0" y="267.815" width="136.063" height="136.063" class="st1"/>
				<text x="4.03" y="340.65" class="st2" v:langID="1028"><v:paragraph v:horizAlign="1"/><v:tabList/>北印之克什米爾等</text>			</g>
			<g id="shape32-90" v:mID="32" v:groupContext="shape" transform="translate(-375.531,372.697) rotate(-90)">
				<title>工作表.32</title>
				<path d="M0 403.88 L283.46 403.88" class="st3"/>
			</g>
			<g id="shape33-93" v:mID="33" v:groupContext="shape" transform="translate(453.543,493.11) rotate(180)">
				<title>工作表.33</title>
				<path d="M0 403.88 L425.2 403.88" class="st3"/>
			</g>
			<g id="shape34-96" v:mID="34" v:groupContext="shape" transform="translate(49.6654,372.697) rotate(-90)">
				<title>工作表.34</title>
				<path d="M0 403.88 L283.46 403.88" class="st3"/>
			</g>
			<g id="shape35-99" v:mID="35" v:groupContext="shape" transform="translate(-233.799,372.697) rotate(-90)">
				<title>工作表.35</title>
				<path d="M0 403.88 L283.46 403.88" class="st4"/>
			</g>
			<g id="shape36-102" v:mID="36" v:groupContext="shape" transform="translate(-92.0669,372.697) rotate(-90)">
				<title>工作表.36</title>
				<path d="M0 403.88 L283.46 403.88" class="st4"/>
			</g>
			<g id="shape37-105" v:mID="37" v:groupContext="shape" transform="translate(453.543,521.457) rotate(180)">
				<title>工作表.37</title>
				<path d="M0 403.88 L425.2 403.88" class="st4"/>
			</g>
			<g id="shape38-108" v:mID="38" v:groupContext="shape" transform="translate(453.543,549.803) rotate(180)">
				<title>工作表.38</title>
				<path d="M0 403.88 L425.2 403.88" class="st4"/>
			</g>
			<g id="shape39-111" v:mID="39" v:groupContext="shape" transform="translate(453.543,578.15) rotate(180)">
				<title>工作表.39</title>
				<path d="M0 403.88 L425.2 403.88" class="st4"/>
			</g>
			<g id="shape40-114" v:mID="40" v:groupContext="shape" transform="translate(453.543,634.843) rotate(180)">
				<title>工作表.40</title>
				<path d="M0 403.88 L425.2 403.88" class="st4"/>
			</g>
			<g id="shape41-117" v:mID="41" v:groupContext="shape" transform="translate(453.543,606.496) rotate(180)">
				<title>工作表.41</title>
				<path d="M0 403.88 L425.2 403.88" class="st4"/>
			</g>
			<g id="shape42-120" v:mID="42" v:groupContext="shape" transform="translate(453.543,663.189) rotate(180)">
				<title>工作表.42</title>
				<path d="M0 403.88 L425.2 403.88" class="st4"/>
			</g>
			<g id="shape43-123" v:mID="43" v:groupContext="shape" transform="translate(453.543,691.535) rotate(180)">
				<title>工作表.43</title>
				<path d="M0 403.88 L425.2 403.88" class="st4"/>
			</g>
			<g id="shape44-126" v:mID="44" v:groupContext="shape" transform="translate(453.543,719.882) rotate(180)">
				<title>工作表.44</title>
				<path d="M0 403.88 L425.2 403.88" class="st4"/>
			</g>
			<g id="shape45-129" v:mID="45" v:groupContext="shape" transform="translate(180,-52.4409)">
				<title>工作表.45</title>
				<desc>金地</desc>
				<v:textBlock v:margins="rect(4,4,4,4)" v:tabSpace="42.5197"/>
				<v:textRect cx="21.2598" cy="382.618" width="42.52" height="42.5197"/>
				<rect x="0" y="361.358" width="42.5197" height="42.5197" class="st1"/>
				<text x="5.26" y="387.42" class="st2" v:langID="1028"><v:paragraph v:horizAlign="1"/><v:tabList/>金地</text>			</g>
			<g id="shape26-132" v:mID="26" v:groupContext="shape" transform="translate(453.543,748.228) rotate(180)">
				<title>工作表.26</title>
				<path d="M0 403.88 L425.2 403.88" class="st4"/>
			</g>
			<g id="shape46-135" v:mID="46" v:groupContext="shape" transform="translate(453.543,776.575) rotate(180)">
				<title>工作表.46</title>
				<path d="M0 403.88 L425.2 403.88" class="st3"/>
			</g>
			<g id="shape47-138" v:mID="47" v:groupContext="shape" transform="translate(402.52,-35.7874)">
				<title>工作表.47</title>
				<desc>2</desc>
				<v:textBlock v:margins="rect(4,4,4,4)" v:tabSpace="42.5197"/>
				<v:textRect cx="8.50394" cy="395.374" width="17.01" height="17.0079"/>
				<ellipse cx="8.50394" cy="395.374" rx="8.50394" ry="8.50394" class="st5"/>
				<text x="4.75" y="400.17" class="st2" v:langID="1028"><v:paragraph v:horizAlign="1"/><v:tabList/>2</text>			</g>
			<g id="shape48-141" v:mID="48" v:groupContext="shape" transform="translate(481.89,464.055) rotate(180)">
				<title>工作表.48</title>
				<path d="M0 403.88 L481.89 403.88" class="st6"/>
			</g>
			<g id="shape49-144" v:mID="49" v:groupContext="shape" transform="translate(481.89,804.213) rotate(180)">
				<title>工作表.49</title>
				<path d="M0 403.88 L481.89 403.88" class="st6"/>
			</g>
			<g id="shape50-147" v:mID="50" v:groupContext="shape" transform="translate(78.0118,400.335) rotate(-90)">
				<title>工作表.50</title>
				<path d="M0 403.88 L340.16 403.88" class="st6"/>
			</g>
			<g id="shape51-150" v:mID="51" v:groupContext="shape" transform="translate(-403.878,400.335) rotate(-90)">
				<title>工作表.51</title>
				<path d="M0 403.88 L340.16 403.88" class="st6"/>
			</g>
		</g>
	</g>
</svg>
