<?xml version="1.0" encoding="UTF-8" standalone="no"?>
<!DOCTYPE svg PUBLIC "-//W3C//DTD SVG 1.0//EN" "http://www.w3.org/TR/2001/REC-SVG-20010904/DTD/svg10.dtd">
<!-- 由 Microsoft Visio 11.0, SVG Export, v1.0 產生 y33.0045.svg Page-1 -->
<svg xmlns="http://www.w3.org/2000/svg" xmlns:xlink="http://www.w3.org/1999/xlink" xmlns:ev="http://www.w3.org/2001/xml-events"
		xmlns:v="http://schemas.microsoft.com/visio/2003/SVGExtensions/" width="9.5829in" height="6.20981in"
		viewBox="0 0 689.969 447.106" xml:space="preserve" color-interpolation-filters="sRGB" class="st7">
	<v:documentProperties v:langID="1028" v:metric="true" v:viewMarkup="false">
		<v:userDefs>
			<v:ud v:nameU="msvSubprocessMaster" v:prompt="" v:val="VT4(Box)"/>
			<v:ud v:nameU="msvNoAutoConnect" v:val="VT0(1):26"/>
		</v:userDefs>
	</v:documentProperties>

	<style type="text/css">
	<![CDATA[
		.st1 {fill:none;stroke:none;stroke-linecap:round;stroke-linejoin:round;stroke-width:0.75}
		.st2 {fill:#000000;font-family:新細明體;font-size:1.33333em}
		.st3 {stroke:#000000;stroke-linecap:round;stroke-linejoin:round;stroke-width:1}
		.st4 {stroke:#000000;stroke-dasharray:3,3;stroke-linecap:round;stroke-linejoin:round;stroke-width:1}
		.st5 {stroke:#ffffff;stroke-linecap:round;stroke-linejoin:round;stroke-opacity:0;stroke-width:1}
		.st6 {fill:none;stroke:#000000;stroke-linecap:round;stroke-linejoin:round;stroke-opacity:0;stroke-width:1}
		.st7 {fill:none;fill-rule:evenodd;font-size:12px;overflow:visible;stroke-linecap:square;stroke-miterlimit:3}
	]]>
	</style>

	<g v:mID="0" v:index="1" v:groupContext="foregroundPage">
		<title>頁-1</title>
		<v:pageProperties v:drawingScale="0.0393701" v:pageScale="0.0393701" v:drawingUnits="24" v:shadowOffsetX="8.50394"
				v:shadowOffsetY="-8.50394"/>
		<g id="shape1-1" v:mID="1" v:groupContext="shape" transform="translate(84.1969,-330.561)">
			<title>工作表.1</title>
			<desc>偏此多雜染</desc>
			<v:textBlock v:margins="rect(4,4,4,4)" v:tabSpace="42.5197"/>
			<v:textRect cx="45.3543" cy="401.752" width="90.71" height="90.7087"/>
			<rect x="0" y="356.398" width="90.7087" height="90.7087" class="st1"/>
			<text x="5.35" y="406.55" class="st2" v:langID="1028"><v:paragraph v:horizAlign="1"/><v:tabList/>偏此多雜染</text>		</g>
		<g id="shape2-4" v:mID="2" v:groupContext="shape" transform="translate(302.465,-326.309)">
			<title>工作表.2</title>
			<desc>善業</desc>
			<v:textBlock v:margins="rect(4,4,4,4)" v:tabSpace="42.5197"/>
			<v:textRect cx="21.2598" cy="425.846" width="42.52" height="42.5197"/>
			<rect x="0" y="404.587" width="42.5197" height="42.5197" class="st1"/>
			<text x="5.26" y="430.65" class="st2" v:langID="1028"><v:paragraph v:horizAlign="1"/><v:tabList/>善業</text>		</g>
		<g id="shape3-7" v:mID="3" v:groupContext="shape" transform="translate(371.205,-331.27)">
			<title>工作表.3</title>
			<desc>不殺、不盜</desc>
			<v:textBlock v:margins="rect(4,4,4,4)" v:tabSpace="42.5197"/>
			<v:textRect cx="44.6457" cy="402.461" width="89.3" height="89.2913"/>
			<rect x="0" y="357.815" width="89.2913" height="89.2913" class="st1"/>
			<text x="4.65" y="407.26" class="st2" v:langID="1028"><v:paragraph v:horizAlign="1"/><v:tabList/>不殺、不盜</text>		</g>
		<g id="shape4-10" v:mID="4" v:groupContext="shape" transform="translate(533.488,-323.474)">
			<title>工作表.4</title>
			<desc>個人能樂其生</desc>
			<v:textBlock v:margins="rect(4,4,4,4)" v:tabSpace="42.5197"/>
			<v:textRect cx="52.4409" cy="394.665" width="104.89" height="104.882"/>
			<rect x="0" y="342.224" width="104.882" height="104.882" class="st1"/>
			<text x="4.44" y="399.47" class="st2" v:langID="1028"><v:paragraph v:horizAlign="1"/><v:tabList/>個人能樂其生</text>		</g>
		<g id="shape5-13" v:mID="5" v:groupContext="shape" transform="translate(370.496,-319.222)">
			<title>工作表.5</title>
			<desc>不邪淫</desc>
			<v:textBlock v:margins="rect(4,4,4,4)" v:tabSpace="42.5197"/>
			<v:textRect cx="28.3465" cy="418.76" width="56.7" height="56.6929"/>
			<rect x="0" y="390.413" width="56.6929" height="56.6929" class="st1"/>
			<text x="4.35" y="423.56" class="st2" v:langID="1028"><v:paragraph v:horizAlign="1"/><v:tabList/>不邪淫</text>		</g>
		<g id="shape6-16" v:mID="6" v:groupContext="shape" transform="translate(533.488,-295.128)">
			<title>工作表.6</title>
			<desc>家族能樂其生</desc>
			<v:textBlock v:margins="rect(4,4,4,4)" v:tabSpace="42.5197"/>
			<v:textRect cx="52.4409" cy="394.665" width="104.89" height="104.882"/>
			<rect x="0" y="342.224" width="104.882" height="104.882" class="st1"/>
			<text x="4.44" y="399.47" class="st2" v:langID="1028"><v:paragraph v:horizAlign="1"/><v:tabList/>家族能樂其生</text>		</g>
		<g id="shape7-19" v:mID="7" v:groupContext="shape" transform="translate(370.496,-258.986)">
			<title>工作表.7</title>
			<desc>不妄語四種</desc>
			<v:textBlock v:margins="rect(4,4,4,4)" v:tabSpace="42.5197"/>
			<v:textRect cx="60.2362" cy="386.87" width="120.48" height="120.472"/>
			<rect x="0" y="326.634" width="120.472" height="120.472" class="st1"/>
			<text x="4.24" y="391.67" class="st2" v:langID="1028"><v:paragraph v:horizAlign="1"/><v:tabList/>不妄語（四種）</text>		</g>
		<g id="shape8-22" v:mID="8" v:groupContext="shape" transform="translate(533.488,-266.781)">
			<title>工作表.8</title>
			<desc>社會能樂其生</desc>
			<v:textBlock v:margins="rect(4,4,4,4)" v:tabSpace="42.5197"/>
			<v:textRect cx="52.4409" cy="394.665" width="104.89" height="104.882"/>
			<rect x="0" y="342.224" width="104.882" height="104.882" class="st1"/>
			<text x="4.44" y="399.47" class="st2" v:langID="1028"><v:paragraph v:horizAlign="1"/><v:tabList/>社會能樂其生</text>		</g>
		<g id="shape9-25" v:mID="9" v:groupContext="shape" transform="translate(207.504,-268.199)">
			<title>工作表.9</title>
			<desc>法「善」</desc>
			<v:textBlock v:margins="rect(4,4,4,4)" v:tabSpace="42.5197"/>
			<v:textRect cx="36.8504" cy="410.256" width="73.71" height="73.7008"/>
			<rect x="0" y="373.406" width="73.7008" height="73.7008" class="st1"/>
			<text x="4.85" y="415.06" class="st2" v:langID="1028"><v:paragraph v:horizAlign="1"/><v:tabList/>法「善」</text>		</g>
		<g id="shape10-28" v:mID="10" v:groupContext="shape" transform="translate(302.465,-255.443)">
			<title>工作表.10</title>
			<desc>善心</desc>
			<v:textBlock v:margins="rect(4,4,4,4)" v:tabSpace="42.5197"/>
			<v:textRect cx="21.2598" cy="425.846" width="42.52" height="42.5197"/>
			<rect x="0" y="404.587" width="42.5197" height="42.5197" class="st1"/>
			<text x="5.26" y="430.65" class="st2" v:langID="1028"><v:paragraph v:horizAlign="1"/><v:tabList/>善心</text>		</g>
		<g id="shape11-31" v:mID="11" v:groupContext="shape" transform="translate(369.079,-261.112)">
			<title>工作表.11</title>
			<desc>不貪欲</desc>
			<v:textBlock v:margins="rect(4,4,4,4)" v:tabSpace="42.5197"/>
			<v:textRect cx="29.7638" cy="417.343" width="59.53" height="59.5276"/>
			<rect x="0" y="387.579" width="59.5276" height="59.5276" class="st1"/>
			<text x="5.76" y="422.14" class="st2" v:langID="1028"><v:paragraph v:horizAlign="1"/><v:tabList/>不貪欲</text>		</g>
		<g id="shape12-34" v:mID="12" v:groupContext="shape" transform="translate(534.906,-262.53)">
			<title>工作表.12</title>
			<desc>能克己</desc>
			<v:textBlock v:margins="rect(4,4,4,4)" v:tabSpace="42.5197"/>
			<v:textRect cx="28.3465" cy="418.76" width="56.7" height="56.6929"/>
			<rect x="0" y="390.413" width="56.6929" height="56.6929" class="st1"/>
			<text x="4.35" y="423.56" class="st2" v:langID="1028"><v:paragraph v:horizAlign="1"/><v:tabList/>能克己</text>		</g>
		<g id="shape13-37" v:mID="13" v:groupContext="shape" transform="translate(369.079,-232.766)">
			<title>工作表.13</title>
			<desc>不瞋恚</desc>
			<v:textBlock v:margins="rect(4,4,4,4)" v:tabSpace="42.5197"/>
			<v:textRect cx="29.7638" cy="417.343" width="59.53" height="59.5276"/>
			<rect x="0" y="387.579" width="59.5276" height="59.5276" class="st1"/>
			<text x="5.76" y="422.14" class="st2" v:langID="1028"><v:paragraph v:horizAlign="1"/><v:tabList/>不瞋恚</text>		</g>
		<g id="shape16-40" v:mID="16" v:groupContext="shape" transform="translate(534.906,-234.183)">
			<title>工作表.16</title>
			<desc>能恕人</desc>
			<v:textBlock v:margins="rect(4,4,4,4)" v:tabSpace="42.5197"/>
			<v:textRect cx="28.3465" cy="418.76" width="56.7" height="56.6929"/>
			<rect x="0" y="390.413" width="56.6929" height="56.6929" class="st1"/>
			<text x="4.35" y="423.56" class="st2" v:langID="1028"><v:paragraph v:horizAlign="1"/><v:tabList/>能恕人</text>		</g>
		<g id="shape17-43" v:mID="17" v:groupContext="shape" transform="translate(302.465,-212.923)">
			<title>工作表.17</title>
			<desc>善意</desc>
			<v:textBlock v:margins="rect(4,4,4,4)" v:tabSpace="42.5197"/>
			<v:textRect cx="21.2598" cy="425.846" width="42.52" height="42.5197"/>
			<rect x="0" y="404.587" width="42.5197" height="42.5197" class="st1"/>
			<text x="5.26" y="430.65" class="st2" v:langID="1028"><v:paragraph v:horizAlign="1"/><v:tabList/>善意</text>		</g>
		<g id="shape18-46" v:mID="18" v:groupContext="shape" transform="translate(370.496,-205.837)">
			<title>工作表.18</title>
			<desc>不邪見</desc>
			<v:textBlock v:margins="rect(4,4,4,4)" v:tabSpace="42.5197"/>
			<v:textRect cx="28.3465" cy="418.76" width="56.7" height="56.6929"/>
			<rect x="0" y="390.413" width="56.6929" height="56.6929" class="st1"/>
			<text x="4.35" y="423.56" class="st2" v:langID="1028"><v:paragraph v:horizAlign="1"/><v:tabList/>不邪見</text>		</g>
		<g id="shape19-49" v:mID="19" v:groupContext="shape" transform="translate(532.071,-187.411)">
			<title>工作表.19</title>
			<desc>知善惡邪正</desc>
			<v:textBlock v:margins="rect(4,4,4,4)" v:tabSpace="42.5197"/>
			<v:textRect cx="46.7717" cy="400.335" width="93.55" height="93.5433"/>
			<rect x="0" y="353.563" width="93.5433" height="93.5433" class="st1"/>
			<text x="6.77" y="405.13" class="st2" v:langID="1028"><v:paragraph v:horizAlign="1"/><v:tabList/>知善惡邪正</text>		</g>
		<g id="shape25-52" v:mID="25" v:groupContext="shape" transform="translate(118.213,-234.183)">
			<title>工作表.25</title>
			<desc>施</desc>
			<v:textBlock v:margins="rect(4,4,4,4)" v:tabSpace="42.5197"/>
			<v:textRect cx="14.1732" cy="432.933" width="28.35" height="28.3465"/>
			<rect x="0" y="418.76" width="28.3465" height="28.3465" class="st1"/>
			<text x="6.17" y="437.73" class="st2" v:langID="1028"><v:paragraph v:horizAlign="1"/><v:tabList/>施</text>		</g>
		<g id="shape26-55" v:mID="26" v:groupContext="shape" transform="translate(51.5984,-156.23)">
			<title>工作表.26</title>
			<desc>世間道以戒為本</desc>
			<v:textBlock v:margins="rect(4,4,4,4)" v:tabSpace="42.5197"/>
			<v:textRect cx="63.7795" cy="383.327" width="127.56" height="127.559"/>
			<rect x="0" y="319.547" width="127.559" height="127.559" class="st1"/>
			<text x="7.78" y="388.13" class="st2" v:langID="1028"><v:paragraph v:horizAlign="1"/><v:tabList/>世間道以戒為本</text>		</g>
		<g id="shape27-58" v:mID="27" v:groupContext="shape" transform="translate(118.213,-177.49)">
			<title>工作表.27</title>
			<desc>定</desc>
			<v:textBlock v:margins="rect(4,4,4,4)" v:tabSpace="42.5197"/>
			<v:textRect cx="14.1732" cy="432.933" width="28.35" height="28.3465"/>
			<rect x="0" y="418.76" width="28.3465" height="28.3465" class="st1"/>
			<text x="6.17" y="437.73" class="st2" v:langID="1028"><v:paragraph v:horizAlign="1"/><v:tabList/>定</text>		</g>
		<g id="shape28-61" v:mID="28" v:groupContext="shape" transform="translate(207.504,-98.1201)">
			<title>工作表.28</title>
			<desc>人「和」</desc>
			<v:textBlock v:margins="rect(4,4,4,4)" v:tabSpace="42.5197"/>
			<v:textRect cx="36.8504" cy="410.256" width="73.71" height="73.7008"/>
			<rect x="0" y="373.406" width="73.7008" height="73.7008" class="st1"/>
			<text x="4.85" y="415.06" class="st2" v:langID="1028"><v:paragraph v:horizAlign="1"/><v:tabList/>人「和」</text>		</g>
		<g id="shape29-64" v:mID="29" v:groupContext="shape" transform="translate(302.465,-156.23)">
			<title>工作表.29</title>
			<desc>體質</desc>
			<v:textBlock v:margins="rect(4,4,4,4)" v:tabSpace="42.5197"/>
			<v:textRect cx="21.2598" cy="425.846" width="42.52" height="42.5197"/>
			<rect x="0" y="404.587" width="42.5197" height="42.5197" class="st1"/>
			<text x="5.26" y="430.65" class="st2" v:langID="1028"><v:paragraph v:horizAlign="1"/><v:tabList/>體質</text>		</g>
		<g id="shape30-67" v:mID="30" v:groupContext="shape" transform="translate(302.465,-71.1909)">
			<title>工作表.30</title>
			<desc>表相</desc>
			<v:textBlock v:margins="rect(4,4,4,4)" v:tabSpace="42.5197"/>
			<v:textRect cx="21.2598" cy="425.846" width="42.52" height="42.5197"/>
			<rect x="0" y="404.587" width="42.5197" height="42.5197" class="st1"/>
			<text x="5.26" y="430.65" class="st2" v:langID="1028"><v:paragraph v:horizAlign="1"/><v:tabList/>表相</text>		</g>
		<g id="shape32-70" v:mID="32" v:groupContext="shape" transform="translate(533.488,-83.9469)">
			<title>工作表.32</title>
			<desc>光明禮敬</desc>
			<v:textBlock v:margins="rect(4,4,4,4)" v:tabSpace="42.5197"/>
			<v:textRect cx="36.8504" cy="410.256" width="73.71" height="73.7008"/>
			<rect x="0" y="373.406" width="73.7008" height="73.7008" class="st1"/>
			<text x="4.85" y="415.06" class="st2" v:langID="1028"><v:paragraph v:horizAlign="1"/><v:tabList/>光明禮敬</text>		</g>
		<g id="shape34-73" v:mID="34" v:groupContext="shape" transform="translate(370.496,-184.577)">
			<title>工作表.34</title>
			<desc>見和</desc>
			<v:textBlock v:margins="rect(4,4,4,4)" v:tabSpace="42.5197"/>
			<v:textRect cx="21.2598" cy="425.846" width="42.52" height="42.5197"/>
			<rect x="0" y="404.587" width="42.5197" height="42.5197" class="st1"/>
			<text x="5.26" y="430.65" class="st2" v:langID="1028"><v:paragraph v:horizAlign="1"/><v:tabList/>見和</text>		</g>
		<g id="shape35-76" v:mID="35" v:groupContext="shape" transform="translate(533.488,-160.482)">
			<title>工作表.35</title>
			<desc>思想正左右</desc>
			<v:textBlock v:margins="rect(4,4,4,4)" v:tabSpace="42.5197"/>
			<v:textRect cx="45.3543" cy="401.752" width="90.71" height="90.7087"/>
			<rect x="0" y="356.398" width="90.7087" height="90.7087" class="st1"/>
			<text x="5.35" y="406.55" class="st2" v:langID="1028"><v:paragraph v:horizAlign="1"/><v:tabList/>思想正左右</text>		</g>
		<g id="shape36-79" v:mID="36" v:groupContext="shape" transform="translate(370.496,-156.23)">
			<title>工作表.36</title>
			<desc>利和</desc>
			<v:textBlock v:margins="rect(4,4,4,4)" v:tabSpace="42.5197"/>
			<v:textRect cx="21.2598" cy="425.846" width="42.52" height="42.5197"/>
			<rect x="0" y="404.587" width="42.5197" height="42.5197" class="st1"/>
			<text x="5.26" y="430.65" class="st2" v:langID="1028"><v:paragraph v:horizAlign="1"/><v:tabList/>利和</text>		</g>
		<g id="shape37-82" v:mID="37" v:groupContext="shape" transform="translate(533.488,-132.136)">
			<title>工作表.37</title>
			<desc>產消均貧富</desc>
			<v:textBlock v:margins="rect(4,4,4,4)" v:tabSpace="42.5197"/>
			<v:textRect cx="45.3543" cy="401.752" width="90.71" height="90.7087"/>
			<rect x="0" y="356.398" width="90.7087" height="90.7087" class="st1"/>
			<text x="5.35" y="406.55" class="st2" v:langID="1028"><v:paragraph v:horizAlign="1"/><v:tabList/>產消均貧富</text>		</g>
		<g id="shape38-85" v:mID="38" v:groupContext="shape" transform="translate(370.496,-127.884)">
			<title>工作表.38</title>
			<desc>戒和</desc>
			<v:textBlock v:margins="rect(4,4,4,4)" v:tabSpace="42.5197"/>
			<v:textRect cx="21.2598" cy="425.846" width="42.52" height="42.5197"/>
			<rect x="0" y="404.587" width="42.5197" height="42.5197" class="st1"/>
			<text x="5.26" y="430.65" class="st2" v:langID="1028"><v:paragraph v:horizAlign="1"/><v:tabList/>戒和</text>		</g>
		<g id="shape39-88" v:mID="39" v:groupContext="shape" transform="translate(533.488,-103.789)">
			<title>工作表.39</title>
			<desc>法制齊上下</desc>
			<v:textBlock v:margins="rect(4,4,4,4)" v:tabSpace="42.5197"/>
			<v:textRect cx="45.3543" cy="401.752" width="90.71" height="90.7087"/>
			<rect x="0" y="356.398" width="90.7087" height="90.7087" class="st1"/>
			<text x="5.35" y="406.55" class="st2" v:langID="1028"><v:paragraph v:horizAlign="1"/><v:tabList/>法制齊上下</text>		</g>
		<g id="shape41-91" v:mID="41" v:groupContext="shape" transform="translate(533.488,-55.6004)">
			<title>工作表.41</title>
			<desc>翔實雅正</desc>
			<v:textBlock v:margins="rect(4,4,4,4)" v:tabSpace="42.5197"/>
			<v:textRect cx="36.8504" cy="410.256" width="73.71" height="73.7008"/>
			<rect x="0" y="373.406" width="73.7008" height="73.7008" class="st1"/>
			<text x="4.85" y="415.06" class="st2" v:langID="1028"><v:paragraph v:horizAlign="1"/><v:tabList/>翔實雅正</text>		</g>
		<g id="shape43-94" v:mID="43" v:groupContext="shape" transform="translate(533.488,-27.2539)">
			<title>工作表.43</title>
			<desc>志同情悅</desc>
			<v:textBlock v:margins="rect(4,4,4,4)" v:tabSpace="42.5197"/>
			<v:textRect cx="36.8504" cy="410.256" width="73.71" height="73.7008"/>
			<rect x="0" y="373.406" width="73.7008" height="73.7008" class="st1"/>
			<text x="4.85" y="415.06" class="st2" v:langID="1028"><v:paragraph v:horizAlign="1"/><v:tabList/>志同情悅</text>		</g>
		<g id="shape44-97" v:mID="44" v:groupContext="shape" transform="translate(84.1969,-18.75)">
			<title>工作表.44</title>
			<desc>偏此多獨善</desc>
			<v:textBlock v:margins="rect(4,4,4,4)" v:tabSpace="42.5197"/>
			<v:textRect cx="45.3543" cy="401.752" width="90.71" height="90.7087"/>
			<rect x="0" y="356.398" width="90.7087" height="90.7087" class="st1"/>
			<text x="5.35" y="406.55" class="st2" v:langID="1028"><v:paragraph v:horizAlign="1"/><v:tabList/>偏此多獨善</text>		</g>
		<g id="shape31-100" v:mID="31" v:groupContext="shape" transform="translate(370.496,-99.5374)">
			<title>工作表.31</title>
			<desc>身和</desc>
			<v:textBlock v:margins="rect(4,4,4,4)" v:tabSpace="42.5197"/>
			<v:textRect cx="21.2598" cy="425.846" width="42.52" height="42.5197"/>
			<rect x="0" y="404.587" width="42.5197" height="42.5197" class="st1"/>
			<text x="5.26" y="430.65" class="st2" v:langID="1028"><v:paragraph v:horizAlign="1"/><v:tabList/>身和</text>		</g>
		<g id="shape40-103" v:mID="40" v:groupContext="shape" transform="translate(370.496,-71.1909)">
			<title>工作表.40</title>
			<desc>語和</desc>
			<v:textBlock v:margins="rect(4,4,4,4)" v:tabSpace="42.5197"/>
			<v:textRect cx="21.2598" cy="425.846" width="42.52" height="42.5197"/>
			<rect x="0" y="404.587" width="42.5197" height="42.5197" class="st1"/>
			<text x="5.26" y="430.65" class="st2" v:langID="1028"><v:paragraph v:horizAlign="1"/><v:tabList/>語和</text>		</g>
		<g id="shape42-106" v:mID="42" v:groupContext="shape" transform="translate(370.496,-42.8445)">
			<title>工作表.42</title>
			<desc>意和</desc>
			<v:textBlock v:margins="rect(4,4,4,4)" v:tabSpace="42.5197"/>
			<v:textRect cx="21.2598" cy="425.846" width="42.52" height="42.5197"/>
			<rect x="0" y="404.587" width="42.5197" height="42.5197" class="st1"/>
			<text x="5.26" y="430.65" class="st2" v:langID="1028"><v:paragraph v:horizAlign="1"/><v:tabList/>意和</text>		</g>
		<g id="shape14-109" v:mID="14" v:groupContext="shape" transform="translate(413.016,-64.1043)">
			<title>工作表.14</title>
			<path d="M0 447.11 L121.89 447.11" class="st3"/>
		</g>
		<g id="shape15-112" v:mID="15" v:groupContext="shape" transform="translate(427.189,-234.183)">
			<title>工作表.15</title>
			<path d="M0 447.11 L107.72 447.11" class="st3"/>
		</g>
		<g id="shape20-115" v:mID="20" v:groupContext="shape" transform="translate(413.016,-92.4508)">
			<title>工作表.20</title>
			<path d="M0 447.11 L121.89 447.11" class="st3"/>
		</g>
		<g id="shape21-118" v:mID="21" v:groupContext="shape" transform="translate(413.016,-120.797)">
			<title>工作表.21</title>
			<path d="M0 447.11 L121.89 447.11" class="st3"/>
		</g>
		<g id="shape22-121" v:mID="22" v:groupContext="shape" transform="translate(413.016,-149.144)">
			<title>工作表.22</title>
			<path d="M0 447.11 L121.89 447.11" class="st3"/>
		</g>
		<g id="shape23-124" v:mID="23" v:groupContext="shape" transform="translate(413.016,-177.49)">
			<title>工作表.23</title>
			<path d="M0 447.11 L121.89 447.11" class="st3"/>
		</g>
		<g id="shape24-127" v:mID="24" v:groupContext="shape" transform="translate(413.016,-205.837)">
			<title>工作表.24</title>
			<path d="M0 447.11 L121.89 447.11" class="st3"/>
		</g>
		<g id="shape33-130" v:mID="33" v:groupContext="shape" transform="translate(427.189,-262.53)">
			<title>工作表.33</title>
			<path d="M0 447.11 L107.72 447.11" class="st3"/>
		</g>
		<g id="shape45-133" v:mID="45" v:groupContext="shape" transform="translate(427.189,-290.876)">
			<title>工作表.45</title>
			<path d="M0 447.11 L107.72 447.11" class="st3"/>
		</g>
		<g id="shape46-136" v:mID="46" v:groupContext="shape" transform="translate(427.189,-347.569)">
			<title>工作表.46</title>
			<path d="M0 447.11 L107.72 447.11" class="st3"/>
		</g>
		<g id="shape47-139" v:mID="47" v:groupContext="shape" transform="translate(460.496,-375.915)">
			<title>工作表.47</title>
			<path d="M0 447.11 L73.7 447.11" class="st3"/>
		</g>
		<g id="shape48-142" v:mID="48" v:groupContext="shape" transform="translate(481.047,-319.222)">
			<title>工作表.48</title>
			<path d="M0 447.11 L55.28 447.11" class="st3"/>
		</g>
		<g id="shape49-145" v:mID="49" v:groupContext="shape" transform="translate(189.079,-134.97)">
			<title>工作表.49</title>
			<path d="M0 447.11 L14.17 447.11" class="st3"/>
		</g>
		<g id="shape50-148" v:mID="50" v:groupContext="shape" transform="translate(359.157,-64.1043)">
			<title>工作表.50</title>
			<path d="M0 447.11 L14.17 447.11" class="st3"/>
		</g>
		<g id="shape51-151" v:mID="51" v:groupContext="shape" transform="translate(344.984,-347.569)">
			<title>工作表.51</title>
			<path d="M0 447.11 L14.17 447.11" class="st3"/>
		</g>
		<g id="shape53-154" v:mID="53" v:groupContext="shape" transform="translate(359.157,-149.144)">
			<title>工作表.53</title>
			<path d="M0 447.11 L14.17 447.11" class="st3"/>
		</g>
		<g id="shape54-157" v:mID="54" v:groupContext="shape" transform="translate(359.157,-375.915)">
			<title>工作表.54</title>
			<path d="M0 447.11 L14.17 447.11" class="st3"/>
		</g>
		<g id="shape55-160" v:mID="55" v:groupContext="shape" transform="translate(359.157,-319.222)">
			<title>工作表.55</title>
			<path d="M0 447.11 L14.17 447.11" class="st3"/>
		</g>
		<g id="shape56-163" v:mID="56" v:groupContext="shape" transform="translate(359.157,-262.53)">
			<title>工作表.56</title>
			<path d="M0 447.11 L14.17 447.11" class="st3"/>
		</g>
		<g id="shape57-166" v:mID="57" v:groupContext="shape" transform="translate(359.157,-290.876)">
			<title>工作表.57</title>
			<path d="M0 447.11 L14.17 447.11" class="st3"/>
		</g>
		<g id="shape58-169" v:mID="58" v:groupContext="shape" transform="translate(344.984,-234.183)">
			<title>工作表.58</title>
			<path d="M0 447.11 L28.35 447.11" class="st3"/>
		</g>
		<g id="shape59-172" v:mID="59" v:groupContext="shape" transform="translate(359.157,-120.797)">
			<title>工作表.59</title>
			<path d="M0 447.11 L14.17 447.11" class="st3"/>
		</g>
		<g id="shape60-175" v:mID="60" v:groupContext="shape" transform="translate(359.157,-205.837)">
			<title>工作表.60</title>
			<path d="M0 447.11 L14.17 447.11" class="st3"/>
		</g>
		<g id="shape61-178" v:mID="61" v:groupContext="shape" transform="translate(344.984,-92.4508)">
			<title>工作表.61</title>
			<path d="M0 447.11 L14.17 447.11" class="st3"/>
		</g>
		<g id="shape62-181" v:mID="62" v:groupContext="shape" transform="translate(344.984,-177.49)">
			<title>工作表.62</title>
			<path d="M0 447.11 L14.17 447.11" class="st3"/>
		</g>
		<g id="shape63-184" v:mID="63" v:groupContext="shape" transform="translate(-87.9488,184.577) rotate(-90)">
			<title>工作表.63</title>
			<path d="M0 447.11 L28.35 447.11" class="st3"/>
		</g>
		<g id="shape64-187" v:mID="64" v:groupContext="shape" transform="translate(344.984,-276.703)">
			<title>工作表.64</title>
			<path d="M0 447.11 L14.17 447.11" class="st3"/>
		</g>
		<g id="shape65-190" v:mID="65" v:groupContext="shape" transform="translate(-87.9488,383.002) rotate(-90)">
			<title>工作表.65</title>
			<path d="M0 447.11 L56.69 447.11" class="st3"/>
		</g>
		<g id="shape66-193" v:mID="66" v:groupContext="shape" transform="translate(-87.9488,297.963) rotate(-90)">
			<title>工作表.66</title>
			<path d="M0 447.11 L56.69 447.11" class="st3"/>
		</g>
		<g id="shape67-196" v:mID="67" v:groupContext="shape" transform="translate(-87.9488,127.884) rotate(-90)">
			<title>工作表.67</title>
			<path d="M0 447.11 L56.69 447.11" class="st3"/>
		</g>
		<g id="shape68-199" v:mID="68" v:groupContext="shape" transform="translate(274.118,-305.049)">
			<title>工作表.68</title>
			<path d="M0 447.11 L14.17 447.11" class="st3"/>
		</g>
		<g id="shape69-202" v:mID="69" v:groupContext="shape" transform="translate(288.291,-234.183)">
			<title>工作表.69</title>
			<path d="M0 447.11 L14.17 447.11" class="st3"/>
		</g>
		<g id="shape70-205" v:mID="70" v:groupContext="shape" transform="translate(288.291,-347.569)">
			<title>工作表.70</title>
			<path d="M0 447.11 L14.17 447.11" class="st3"/>
		</g>
		<g id="shape71-208" v:mID="71" v:groupContext="shape" transform="translate(288.291,-92.4508)">
			<title>工作表.71</title>
			<path d="M0 447.11 L14.17 447.11" class="st3"/>
		</g>
		<g id="shape72-211" v:mID="72" v:groupContext="shape" transform="translate(288.291,-177.49)">
			<title>工作表.72</title>
			<path d="M0 447.11 L14.17 447.11" class="st3"/>
		</g>
		<g id="shape73-214" v:mID="73" v:groupContext="shape" transform="translate(274.118,-134.97)">
			<title>工作表.73</title>
			<path d="M0 447.11 L14.17 447.11" class="st3"/>
		</g>
		<g id="shape74-217" v:mID="74" v:groupContext="shape" transform="translate(-158.815,354.656) rotate(-90)">
			<title>工作表.74</title>
			<path d="M0 447.11 L85.04 447.11" class="st3"/>
		</g>
		<g id="shape75-220" v:mID="75" v:groupContext="shape" transform="translate(-158.815,212.923) rotate(-90)">
			<title>工作表.75</title>
			<path d="M0 447.11 L113.39 447.11" class="st3"/>
		</g>
		<g id="shape76-223" v:mID="76" v:groupContext="shape" transform="translate(174.906,-220.01)">
			<title>工作表.76</title>
			<path d="M0 447.11 L14.17 447.11" class="st3"/>
		</g>
		<g id="shape77-226" v:mID="77" v:groupContext="shape" transform="translate(189.079,-305.049)">
			<title>工作表.77</title>
			<path d="M0 447.11 L14.17 447.11" class="st3"/>
		</g>
		<g id="shape78-229" v:mID="78" v:groupContext="shape" transform="translate(-258.028,312.136) rotate(-90)">
			<title>工作表.78</title>
			<path d="M0 447.11 L170.08 447.11" class="st3"/>
		</g>
		<g id="shape79-232" v:mID="79" v:groupContext="shape" transform="translate(-314.72,184.577) rotate(-90)">
			<title>工作表.79</title>
			<path d="M0 447.11 L104.88 447.11" class="st4"/>
		</g>
		<g id="shape80-235" v:mID="80" v:groupContext="shape" transform="translate(-314.72,374.498) rotate(-90)">
			<title>工作表.80</title>
			<path d="M0 447.11 L104.88 447.11" class="st4"/>
		</g>
		<g id="shape82-238" v:mID="82" v:groupContext="shape" transform="translate(-428.106,425.522) rotate(-90)">
			<title>工作表.82</title>
			<path d="M0 447.11 L394.02 447.11" class="st5"/>
		</g>
		<g id="shape83-241" v:mID="83" v:groupContext="shape" transform="translate(223.862,425.522) rotate(-90)">
			<title>工作表.83</title>
			<path d="M0 447.11 L394.02 447.11" class="st5"/>
		</g>
		<g id="shape84-244" v:mID="84" v:groupContext="shape" transform="translate(669.997,480.028) rotate(-179.875)">
			<title>工作表.84</title>
			<path d="M0 447.11 L651.97 447.11" class="st5"/>
		</g>
		<g id="shape85-247" v:mID="85" v:groupContext="shape" transform="translate(669.997,874.044) rotate(-179.875)">
			<title>工作表.85</title>
			<path d="M0 447.11 L651.97 447.11" class="st5"/>
		</g>
		<g id="shape52-250" v:mID="52" v:groupContext="shape" transform="translate(-391.256,241.27) rotate(-90)">
			<title>工作表.52</title>
			<path d="M0 447.11 L28.35 447.11" class="st3"/>
		</g>
		<g id="shape81-253" v:mID="81" v:groupContext="shape" transform="translate(-272.201,241.27) rotate(-90)">
			<title>工作表.81</title>
			<path d="M0 447.11 L28.35 447.11" class="st3"/>
		</g>
		<g id="shape87-256" v:mID="87" v:groupContext="shape" transform="translate(-328.894,269.616) rotate(-90)">
			<title>工作表.87</title>
			<path d="M0 447.11 L28.35 447.11" class="st3"/>
		</g>
		<g id="shape88-259" v:mID="88" v:groupContext="shape" transform="translate(-300.547,269.616) rotate(-90)">
			<title>工作表.88</title>
			<path d="M0 447.11 L28.35 447.11" class="st3"/>
		</g>
		<g id="shape89-262" v:mID="89" v:groupContext="shape" transform="translate(-328.894,212.923) rotate(-90)">
			<title>工作表.89</title>
			<path d="M0 447.11 L28.35 447.11" class="st3"/>
		</g>
		<g id="shape90-265" v:mID="90" v:groupContext="shape" transform="translate(-300.547,212.923) rotate(-90)">
			<title>工作表.90</title>
			<path d="M0 447.11 L28.35 447.11" class="st3"/>
		</g>
		<g id="shape91-268" v:mID="91" v:groupContext="shape" transform="translate(146.559,716.722) rotate(180)">
			<title>工作表.91</title>
			<path d="M0 447.11 L28.35 447.11" class="st3"/>
		</g>
		<g id="shape92-271" v:mID="92" v:groupContext="shape" transform="translate(146.559,631.683) rotate(180)">
			<title>工作表.92</title>
			<path d="M0 447.11 L28.35 447.11" class="st3"/>
		</g>
		<g id="shape93-274" v:mID="93" v:groupContext="shape" transform="translate(118.213,660.03) rotate(180)">
			<title>工作表.93</title>
			<path d="M0 447.11 L62.36 447.11" class="st3"/>
		</g>
		<g id="shape94-277" v:mID="94" v:groupContext="shape" transform="translate(118.213,688.376) rotate(180)">
			<title>工作表.94</title>
			<path d="M0 447.11 L62.36 447.11" class="st3"/>
		</g>
		<g id="shape95-280" v:mID="95" v:groupContext="shape" transform="translate(174.906,688.376) rotate(180)">
			<title>工作表.95</title>
			<path d="M0 447.11 L28.35 447.11" class="st3"/>
		</g>
		<g id="shape96-283" v:mID="96" v:groupContext="shape" transform="translate(174.906,660.03) rotate(180)">
			<title>工作表.96</title>
			<path d="M0 447.11 L28.35 447.11" class="st3"/>
		</g>
		<g id="shape86-286" v:mID="86" v:groupContext="shape" transform="translate(189.079,-174.656)">
			<title>工作表.86</title>
			<desc>在樂生</desc>
			<v:textBlock v:margins="rect(4,4,4,4)" v:tabSpace="42.5197" v:verticalText="true"/>
			<v:textRect cx="45.3543" cy="401.752" width="90.71" height="90.7087"/>
			<rect x="0" y="356.398" width="90.7087" height="90.7087" class="st6"/>
			<text x="45.35" y="361.75" writing-mode="tb-rl" class="st2" v:langID="1028"><v:paragraph v:horizAlign="1"/><v:tabList/>（在樂生）</text>		</g>
	</g>
</svg>
