<?xml version="1.0" encoding="UTF-8" standalone="no"?>
<!DOCTYPE svg PUBLIC "-//W3C//DTD SVG 1.1//EN" "http://www.w3.org/Graphics/SVG/1.1/DTD/svg11.dtd">
<!-- 由 Microsoft Visio, SVG Export 產生 y33.0045.svg 頁-1 -->
<svg xmlns="http://www.w3.org/2000/svg" xmlns:xlink="http://www.w3.org/1999/xlink" xmlns:ev="http://www.w3.org/2001/xml-events"
		width="8.16002in" height="4.61672in" viewBox="0 0 587.522 332.404" xml:space="preserve" color-interpolation-filters="sRGB"
		class="st6">
	<style type="text/css">
	<![CDATA[
		.st1 {fill:none;stroke:none;stroke-linecap:round;stroke-linejoin:round;stroke-width:0.75}
		.st2 {fill:#000000;font-family:新細明體;font-size:1.33333em}
		.st3 {stroke:#000000;stroke-linecap:round;stroke-linejoin:round;stroke-width:1}
		.st4 {stroke:#000000;stroke-dasharray:3,3;stroke-linecap:round;stroke-linejoin:round;stroke-width:1}
		.st5 {fill:none;stroke:#000000;stroke-linecap:round;stroke-linejoin:round;stroke-opacity:0;stroke-width:1}
		.st6 {fill:none;fill-rule:evenodd;font-size:12px;overflow:visible;stroke-linecap:square;stroke-miterlimit:3}
	]]>
	</style>

	<g>
		<title>頁-1</title>
		<g id="group97-1" transform="translate(0.375,-0.375)">
			<title>工作表.97</title>
			<g id="shape1-2" transform="translate(32.5984,-311.811)">
				<title>工作表.1</title>
				<desc>偏此多雜染</desc>
				<rect x="0" y="312.561" width="90.7087" height="19.8425" class="st1"/>
				<text x="5.35" y="327.28" class="st2">偏此多雜染</text>			</g>
			<g id="shape2-5" transform="translate(250.866,-283.465)">
				<title>工作表.2</title>
				<desc>善業</desc>
				<rect x="0" y="312.561" width="42.5197" height="19.8425" class="st1"/>
				<text x="5.26" y="327.28" class="st2">善業</text>			</g>
			<g id="shape3-8" transform="translate(319.606,-311.811)">
				<title>工作表.3</title>
				<desc>不殺、不盜</desc>
				<rect x="0" y="312.561" width="89.2913" height="19.8425" class="st1"/>
				<text x="4.65" y="327.28" class="st2">不殺、不盜</text>			</g>
			<g id="shape4-11" transform="translate(481.89,-311.811)">
				<title>工作表.4</title>
				<desc>個人能樂其生</desc>
				<rect x="0" y="312.561" width="104.882" height="19.8425" class="st1"/>
				<text x="4.44" y="327.28" class="st2">個人能樂其生</text>			</g>
			<g id="shape5-14" transform="translate(318.898,-283.465)">
				<title>工作表.5</title>
				<desc>不邪淫</desc>
				<rect x="0" y="312.561" width="56.6929" height="19.8425" class="st1"/>
				<text x="4.35" y="327.28" class="st2">不邪淫</text>			</g>
			<g id="shape6-17" transform="translate(481.89,-283.465)">
				<title>工作表.6</title>
				<desc>家族能樂其生</desc>
				<rect x="0" y="312.561" width="104.882" height="19.8425" class="st1"/>
				<text x="4.44" y="327.28" class="st2">家族能樂其生</text>			</g>
			<g id="shape7-20" transform="translate(318.898,-255.118)">
				<title>工作表.7</title>
				<desc>不妄語四種</desc>
				<rect x="0" y="312.561" width="120.472" height="19.8425" class="st1"/>
				<text x="4.24" y="327.28" class="st2">不妄語（四種）</text>			</g>
			<g id="shape8-23" transform="translate(481.89,-255.118)">
				<title>工作表.8</title>
				<desc>社會能樂其生</desc>
				<rect x="0" y="312.561" width="104.882" height="19.8425" class="st1"/>
				<text x="4.44" y="327.28" class="st2">社會能樂其生</text>			</g>
			<g id="shape9-26" transform="translate(155.906,-240.945)">
				<title>工作表.9</title>
				<desc>法「善」</desc>
				<rect x="0" y="312.561" width="73.7008" height="19.8425" class="st1"/>
				<text x="4.85" y="327.28" class="st2">法「善」</text>			</g>
			<g id="shape10-29" transform="translate(250.866,-212.598)">
				<title>工作表.10</title>
				<desc>善心</desc>
				<rect x="0" y="312.561" width="42.5197" height="19.8425" class="st1"/>
				<text x="5.26" y="327.28" class="st2">善心</text>			</g>
			<g id="shape11-32" transform="translate(317.48,-226.772)">
				<title>工作表.11</title>
				<desc>不貪欲</desc>
				<rect x="0" y="312.561" width="59.5276" height="19.8425" class="st1"/>
				<text x="5.76" y="327.28" class="st2">不貪欲</text>			</g>
			<g id="shape12-35" transform="translate(483.307,-226.772)">
				<title>工作表.12</title>
				<desc>能克己</desc>
				<rect x="0" y="312.561" width="56.6929" height="19.8425" class="st1"/>
				<text x="4.35" y="327.28" class="st2">能克己</text>			</g>
			<g id="shape13-38" transform="translate(317.48,-198.425)">
				<title>工作表.13</title>
				<desc>不瞋恚</desc>
				<rect x="0" y="312.561" width="59.5276" height="19.8425" class="st1"/>
				<text x="5.76" y="327.28" class="st2">不瞋恚</text>			</g>
			<g id="shape16-41" transform="translate(483.307,-198.425)">
				<title>工作表.16</title>
				<desc>能恕人</desc>
				<rect x="0" y="312.561" width="56.6929" height="19.8425" class="st1"/>
				<text x="4.35" y="327.28" class="st2">能恕人</text>			</g>
			<g id="shape17-44" transform="translate(250.866,-170.079)">
				<title>工作表.17</title>
				<desc>善意</desc>
				<rect x="0" y="312.561" width="42.5197" height="19.8425" class="st1"/>
				<text x="5.26" y="327.28" class="st2">善意</text>			</g>
			<g id="shape18-47" transform="translate(318.898,-170.079)">
				<title>工作表.18</title>
				<desc>不邪見</desc>
				<rect x="0" y="312.561" width="56.6929" height="19.8425" class="st1"/>
				<text x="4.35" y="327.28" class="st2">不邪見</text>			</g>
			<g id="shape19-50" transform="translate(480.472,-170.079)">
				<title>工作表.19</title>
				<desc>知善惡邪正</desc>
				<rect x="0" y="312.561" width="93.5433" height="19.8425" class="st1"/>
				<text x="6.77" y="327.28" class="st2">知善惡邪正</text>			</g>
			<g id="shape25-53" transform="translate(66.6142,-180)">
				<title>工作表.25</title>
				<desc>施</desc>
				<rect x="0" y="304.057" width="28.3465" height="28.3465" class="st1"/>
				<text x="6.17" y="323.03" class="st2">施</text>			</g>
			<g id="shape26-56" transform="translate(1.59872E-14,-155.906)">
				<title>工作表.26</title>
				<desc>世間道以戒為本</desc>
				<rect x="0" y="312.561" width="127.559" height="19.8425" class="st1"/>
				<text x="7.78" y="327.28" class="st2">世間道以戒為本</text>			</g>
			<g id="shape27-59" transform="translate(66.6142,-123.307)">
				<title>工作表.27</title>
				<desc>定</desc>
				<rect x="0" y="304.057" width="28.3465" height="28.3465" class="st1"/>
				<text x="6.17" y="323.03" class="st2">定</text>			</g>
			<g id="shape28-62" transform="translate(155.906,-70.8661)">
				<title>工作表.28</title>
				<desc>人「和」</desc>
				<rect x="0" y="312.561" width="73.7008" height="19.8425" class="st1"/>
				<text x="4.85" y="327.28" class="st2">人「和」</text>			</g>
			<g id="shape29-65" transform="translate(250.866,-113.386)">
				<title>工作表.29</title>
				<desc>體質</desc>
				<rect x="0" y="312.561" width="42.5197" height="19.8425" class="st1"/>
				<text x="5.26" y="327.28" class="st2">體質</text>			</g>
			<g id="shape30-68" transform="translate(250.866,-28.3465)">
				<title>工作表.30</title>
				<desc>表相</desc>
				<rect x="0" y="312.561" width="42.5197" height="19.8425" class="st1"/>
				<text x="5.26" y="327.28" class="st2">表相</text>			</g>
			<g id="shape32-71" transform="translate(481.89,-56.6929)">
				<title>工作表.32</title>
				<desc>光明禮敬</desc>
				<rect x="0" y="312.561" width="73.7008" height="19.8425" class="st1"/>
				<text x="4.85" y="327.28" class="st2">光明禮敬</text>			</g>
			<g id="shape34-74" transform="translate(318.898,-141.732)">
				<title>工作表.34</title>
				<desc>見和</desc>
				<rect x="0" y="312.561" width="42.5197" height="19.8425" class="st1"/>
				<text x="5.26" y="327.28" class="st2">見和</text>			</g>
			<g id="shape35-77" transform="translate(481.89,-141.732)">
				<title>工作表.35</title>
				<desc>思想正左右</desc>
				<rect x="0" y="312.561" width="90.7087" height="19.8425" class="st1"/>
				<text x="5.35" y="327.28" class="st2">思想正左右</text>			</g>
			<g id="shape36-80" transform="translate(318.898,-113.386)">
				<title>工作表.36</title>
				<desc>利和</desc>
				<rect x="0" y="312.561" width="42.5197" height="19.8425" class="st1"/>
				<text x="5.26" y="327.28" class="st2">利和</text>			</g>
			<g id="shape37-83" transform="translate(481.89,-113.386)">
				<title>工作表.37</title>
				<desc>產消均貧富</desc>
				<rect x="0" y="312.561" width="90.7087" height="19.8425" class="st1"/>
				<text x="5.35" y="327.28" class="st2">產消均貧富</text>			</g>
			<g id="shape38-86" transform="translate(318.898,-85.0394)">
				<title>工作表.38</title>
				<desc>戒和</desc>
				<rect x="0" y="312.561" width="42.5197" height="19.8425" class="st1"/>
				<text x="5.26" y="327.28" class="st2">戒和</text>			</g>
			<g id="shape39-89" transform="translate(481.89,-85.0394)">
				<title>工作表.39</title>
				<desc>法制齊上下</desc>
				<rect x="0" y="312.561" width="90.7087" height="19.8425" class="st1"/>
				<text x="5.35" y="327.28" class="st2">法制齊上下</text>			</g>
			<g id="shape41-92" transform="translate(481.89,-28.3465)">
				<title>工作表.41</title>
				<desc>翔實雅正</desc>
				<rect x="0" y="312.561" width="73.7008" height="19.8425" class="st1"/>
				<text x="4.85" y="327.28" class="st2">翔實雅正</text>			</g>
			<g id="shape43-95" transform="translate(481.89,-1.47793E-12)">
				<title>工作表.43</title>
				<desc>志同情悅</desc>
				<rect x="0" y="312.561" width="73.7008" height="19.8425" class="st1"/>
				<text x="4.85" y="327.28" class="st2">志同情悅</text>			</g>
			<g id="shape44-98" transform="translate(32.5984,5.68434E-14)">
				<title>工作表.44</title>
				<desc>偏此多獨善</desc>
				<rect x="0" y="312.561" width="90.7087" height="19.8425" class="st1"/>
				<text x="5.35" y="327.28" class="st2">偏此多獨善</text>			</g>
			<g id="shape31-101" transform="translate(318.898,-56.6929)">
				<title>工作表.31</title>
				<desc>身和</desc>
				<rect x="0" y="312.561" width="42.5197" height="19.8425" class="st1"/>
				<text x="5.26" y="327.28" class="st2">身和</text>			</g>
			<g id="shape40-104" transform="translate(318.898,-28.3465)">
				<title>工作表.40</title>
				<desc>語和</desc>
				<rect x="0" y="312.561" width="42.5197" height="19.8425" class="st1"/>
				<text x="5.26" y="327.28" class="st2">語和</text>			</g>
			<g id="shape42-107" transform="translate(318.898,-9.09495E-13)">
				<title>工作表.42</title>
				<desc>意和</desc>
				<rect x="0" y="312.561" width="42.5197" height="19.8425" class="st1"/>
				<text x="5.26" y="327.28" class="st2">意和</text>			</g>
			<g id="shape14-110" transform="translate(361.417,-9.92126)">
				<title>工作表.14</title>
				<path d="M0 332.4 L121.89 332.4" class="st3"/>
			</g>
			<g id="shape15-113" transform="translate(375.591,-180)">
				<title>工作表.15</title>
				<path d="M0 332.4 L107.72 332.4" class="st3"/>
			</g>
			<g id="shape20-116" transform="translate(361.417,-38.2677)">
				<title>工作表.20</title>
				<path d="M0 332.4 L121.89 332.4" class="st3"/>
			</g>
			<g id="shape21-119" transform="translate(361.417,-66.6142)">
				<title>工作表.21</title>
				<path d="M0 332.4 L121.89 332.4" class="st3"/>
			</g>
			<g id="shape22-122" transform="translate(361.417,-94.9606)">
				<title>工作表.22</title>
				<path d="M0 332.4 L121.89 332.4" class="st3"/>
			</g>
			<g id="shape23-125" transform="translate(361.417,-123.307)">
				<title>工作表.23</title>
				<path d="M0 332.4 L121.89 332.4" class="st3"/>
			</g>
			<g id="shape24-128" transform="translate(361.417,-151.654)">
				<title>工作表.24</title>
				<path d="M0 332.4 L121.89 332.4" class="st3"/>
			</g>
			<g id="shape33-131" transform="translate(375.591,-208.346)">
				<title>工作表.33</title>
				<path d="M0 332.4 L107.72 332.4" class="st3"/>
			</g>
			<g id="shape45-134" transform="translate(375.591,-236.693)">
				<title>工作表.45</title>
				<path d="M0 332.4 L107.72 332.4" class="st3"/>
			</g>
			<g id="shape46-137" transform="translate(375.591,-293.386)">
				<title>工作表.46</title>
				<path d="M0 332.4 L107.72 332.4" class="st3"/>
			</g>
			<g id="shape47-140" transform="translate(408.898,-321.732)">
				<title>工作表.47</title>
				<path d="M0 332.4 L73.7 332.4" class="st3"/>
			</g>
			<g id="shape48-143" transform="translate(429.449,-265.039)">
				<title>工作表.48</title>
				<path d="M0 332.4 L55.28 332.4" class="st3"/>
			</g>
			<g id="shape49-146" transform="translate(137.48,-80.7874)">
				<title>工作表.49</title>
				<path d="M0 332.4 L14.17 332.4" class="st3"/>
			</g>
			<g id="shape50-149" transform="translate(307.559,-9.92126)">
				<title>工作表.50</title>
				<path d="M0 332.4 L14.17 332.4" class="st3"/>
			</g>
			<g id="shape51-152" transform="translate(293.386,-293.386)">
				<title>工作表.51</title>
				<path d="M0 332.4 L14.17 332.4" class="st3"/>
			</g>
			<g id="shape53-155" transform="translate(307.559,-94.9606)">
				<title>工作表.53</title>
				<path d="M0 332.4 L14.17 332.4" class="st3"/>
			</g>
			<g id="shape54-158" transform="translate(307.559,-321.732)">
				<title>工作表.54</title>
				<path d="M0 332.4 L14.17 332.4" class="st3"/>
			</g>
			<g id="shape55-161" transform="translate(307.559,-265.039)">
				<title>工作表.55</title>
				<path d="M0 332.4 L14.17 332.4" class="st3"/>
			</g>
			<g id="shape56-164" transform="translate(307.559,-208.346)">
				<title>工作表.56</title>
				<path d="M0 332.4 L14.17 332.4" class="st3"/>
			</g>
			<g id="shape57-167" transform="translate(307.559,-236.693)">
				<title>工作表.57</title>
				<path d="M0 332.4 L14.17 332.4" class="st3"/>
			</g>
			<g id="shape58-170" transform="translate(293.386,-180)">
				<title>工作表.58</title>
				<path d="M0 332.4 L28.35 332.4" class="st3"/>
			</g>
			<g id="shape59-173" transform="translate(307.559,-66.6142)">
				<title>工作表.59</title>
				<path d="M0 332.4 L14.17 332.4" class="st3"/>
			</g>
			<g id="shape60-176" transform="translate(307.559,-151.654)">
				<title>工作表.60</title>
				<path d="M0 332.4 L14.17 332.4" class="st3"/>
			</g>
			<g id="shape61-179" transform="translate(293.386,-38.2677)">
				<title>工作表.61</title>
				<path d="M0 332.4 L14.17 332.4" class="st3"/>
			</g>
			<g id="shape62-182" transform="translate(293.386,-123.307)">
				<title>工作表.62</title>
				<path d="M0 332.4 L14.17 332.4" class="st3"/>
			</g>
			<g id="shape63-185" transform="translate(-24.8445,124.057) rotate(-90)">
				<title>工作表.63</title>
				<path d="M0 332.4 L28.35 332.4" class="st3"/>
			</g>
			<g id="shape64-188" transform="translate(293.386,-222.52)">
				<title>工作表.64</title>
				<path d="M0 332.4 L14.17 332.4" class="st3"/>
			</g>
			<g id="shape65-191" transform="translate(-24.8445,322.482) rotate(-90)">
				<title>工作表.65</title>
				<path d="M0 332.4 L56.69 332.4" class="st3"/>
			</g>
			<g id="shape66-194" transform="translate(-24.8445,237.443) rotate(-90)">
				<title>工作表.66</title>
				<path d="M0 332.4 L56.69 332.4" class="st3"/>
			</g>
			<g id="shape67-197" transform="translate(-24.8445,67.3642) rotate(-90)">
				<title>工作表.67</title>
				<path d="M0 332.4 L56.69 332.4" class="st3"/>
			</g>
			<g id="shape68-200" transform="translate(222.52,-250.866)">
				<title>工作表.68</title>
				<path d="M0 332.4 L14.17 332.4" class="st3"/>
			</g>
			<g id="shape69-203" transform="translate(236.693,-180)">
				<title>工作表.69</title>
				<path d="M0 332.4 L14.17 332.4" class="st3"/>
			</g>
			<g id="shape70-206" transform="translate(236.693,-293.386)">
				<title>工作表.70</title>
				<path d="M0 332.4 L14.17 332.4" class="st3"/>
			</g>
			<g id="shape71-209" transform="translate(236.693,-38.2677)">
				<title>工作表.71</title>
				<path d="M0 332.4 L14.17 332.4" class="st3"/>
			</g>
			<g id="shape72-212" transform="translate(236.693,-123.307)">
				<title>工作表.72</title>
				<path d="M0 332.4 L14.17 332.4" class="st3"/>
			</g>
			<g id="shape73-215" transform="translate(222.52,-80.7874)">
				<title>工作表.73</title>
				<path d="M0 332.4 L14.17 332.4" class="st3"/>
			</g>
			<g id="shape74-218" transform="translate(-95.7106,294.136) rotate(-90)">
				<title>工作表.74</title>
				<path d="M0 332.4 L85.04 332.4" class="st3"/>
			</g>
			<g id="shape75-221" transform="translate(-95.7106,152.404) rotate(-90)">
				<title>工作表.75</title>
				<path d="M0 332.4 L113.39 332.4" class="st3"/>
			</g>
			<g id="shape76-224" transform="translate(123.307,-165.827)">
				<title>工作表.76</title>
				<path d="M0 332.4 L14.17 332.4" class="st3"/>
			</g>
			<g id="shape77-227" transform="translate(137.48,-250.866)">
				<title>工作表.77</title>
				<path d="M0 332.4 L14.17 332.4" class="st3"/>
			</g>
			<g id="shape78-230" transform="translate(-194.923,251.616) rotate(-90)">
				<title>工作表.78</title>
				<path d="M0 332.4 L170.08 332.4" class="st3"/>
			</g>
			<g id="shape79-233" transform="translate(-251.616,124.057) rotate(-90)">
				<title>工作表.79</title>
				<path d="M0 332.4 L104.88 332.4" class="st4"/>
			</g>
			<g id="shape80-236" transform="translate(-251.616,313.978) rotate(-90)">
				<title>工作表.80</title>
				<path d="M0 332.4 L104.88 332.4" class="st4"/>
			</g>
			<g id="shape52-239" transform="translate(-328.152,180.75) rotate(-90)">
				<title>工作表.52</title>
				<path d="M0 332.4 L28.35 332.4" class="st3"/>
			</g>
			<g id="shape81-242" transform="translate(-209.096,180.75) rotate(-90)">
				<title>工作表.81</title>
				<path d="M0 332.4 L28.35 332.4" class="st3"/>
			</g>
			<g id="shape87-245" transform="translate(-265.789,209.096) rotate(-90)">
				<title>工作表.87</title>
				<path d="M0 332.4 L28.35 332.4" class="st3"/>
			</g>
			<g id="shape88-248" transform="translate(-237.443,209.096) rotate(-90)">
				<title>工作表.88</title>
				<path d="M0 332.4 L28.35 332.4" class="st3"/>
			</g>
			<g id="shape89-251" transform="translate(-265.789,152.404) rotate(-90)">
				<title>工作表.89</title>
				<path d="M0 332.4 L28.35 332.4" class="st3"/>
			</g>
			<g id="shape90-254" transform="translate(-237.443,152.404) rotate(-90)">
				<title>工作表.90</title>
				<path d="M0 332.4 L28.35 332.4" class="st3"/>
			</g>
			<g id="shape91-257" transform="translate(94.9606,541.5) rotate(180)">
				<title>工作表.91</title>
				<path d="M0 332.4 L28.35 332.4" class="st3"/>
			</g>
			<g id="shape92-260" transform="translate(94.9606,456.461) rotate(180)">
				<title>工作表.92</title>
				<path d="M0 332.4 L28.35 332.4" class="st3"/>
			</g>
			<g id="shape93-263" transform="translate(66.6142,484.807) rotate(180)">
				<title>工作表.93</title>
				<path d="M0 332.4 L62.36 332.4" class="st3"/>
			</g>
			<g id="shape94-266" transform="translate(66.6142,513.154) rotate(180)">
				<title>工作表.94</title>
				<path d="M0 332.4 L62.36 332.4" class="st3"/>
			</g>
			<g id="shape95-269" transform="translate(123.307,513.154) rotate(180)">
				<title>工作表.95</title>
				<path d="M0 332.4 L28.35 332.4" class="st3"/>
			</g>
			<g id="shape96-272" transform="translate(123.307,484.807) rotate(180)">
				<title>工作表.96</title>
				<path d="M0 332.4 L28.35 332.4" class="st3"/>
			</g>
			<g id="shape86-275" transform="translate(170.079,-120.472)">
				<title>工作表.86</title>
				<desc>在樂生</desc>
				<rect x="0" y="241.695" width="25.5118" height="90.7087" class="st5"/>
				<text x="12.76" y="247.05" writing-mode="tb-rl" class="st2">（在樂生）</text>			</g>
		</g>
	</g>
</svg>
