<?xml version="1.0" encoding="UTF-8" standalone="no"?>
<!DOCTYPE svg PUBLIC "-//W3C//DTD SVG 1.1//EN" "http://www.w3.org/Graphics/SVG/1.1/DTD/svg11.dtd">
<!-- 由 Microsoft Visio, SVG Export 產生 y33.0277-v.svg 頁-1 -->
<svg xmlns="http://www.w3.org/2000/svg" xmlns:xlink="http://www.w3.org/1999/xlink" xmlns:ev="http://www.w3.org/2001/xml-events"
		width="2.67946in" height="5.93676in" viewBox="0 0 192.921 427.447" xml:space="preserve" color-interpolation-filters="sRGB"
		class="st9">
	<style type="text/css">
	<![CDATA[
		.st1 {fill:none;stroke:none;stroke-linecap:round;stroke-linejoin:round;stroke-width:1.5}
		.st2 {fill:#000000;font-family:新細明體;font-size:1.33333em}
		.st3 {marker-end:url(#mrkr7-40);stroke:#000000;stroke-linecap:round;stroke-linejoin:round;stroke-width:1.5}
		.st4 {fill:#000000;fill-opacity:1;stroke:#000000;stroke-opacity:1;stroke-width:0.37313432835821}
		.st5 {stroke:#000000;stroke-linecap:round;stroke-linejoin:round;stroke-width:3}
		.st6 {marker-end:url(#mrkr7-40);stroke:#000000;stroke-dasharray:4.5,4.5;stroke-linecap:round;stroke-linejoin:round;stroke-width:1.5}
		.st7 {stroke:#000000;stroke-linecap:round;stroke-linejoin:round;stroke-width:1.5}
		.st8 {marker-start:url(#mrkr7-92);stroke:#000000;stroke-linecap:round;stroke-linejoin:round;stroke-width:1.5}
		.st9 {fill:none;fill-rule:evenodd;font-size:12px;overflow:visible;stroke-linecap:square;stroke-miterlimit:3}
	]]>
	</style>

	<defs id="Markers">
		<g id="lend7">
			<path
					d="M 1.84309 -0.959456 C 1.43792 -0.380801 0.784503 -0.0260255 0.078527 -0.00137091 L 0.0785229 0.00137043 C 0.784499 0.0260231 1.43791 0.380798 1.84309 0.959452 "
					style="stroke-linecap:round;stroke-linejoin:round;fill:none"/>
		</g>
		<marker id="mrkr7-40" class="st4" orient="auto" markerUnits="strokeWidth" overflow="visible">
			<use xlink:href="#lend7" transform="scale(-2.68,-2.68) "/>
		</marker>
		<marker id="mrkr7-92" class="st4" orient="auto" markerUnits="strokeWidth" overflow="visible">
			<use xlink:href="#lend7" transform="scale(2.68) "/>
		</marker>
	</defs>
	<g>
		<title>頁-1</title>
		<g id="group44-1" transform="translate(1.5,-0.750001)">
			<title>工作表.44</title>
			<g id="shape1-2" transform="translate(165.827,-375.591)">
				<title>工作表.1</title>
				<desc>轉相</desc>
				<rect x="0" y="384.927" width="19.8425" height="42.5197" class="st1"/>
				<text x="9.92" y="390.19" writing-mode="tb-rl" class="st2">轉相</text>			</g>
			<g id="shape2-5" transform="translate(137.48,-340.157)">
				<title>工作表.2</title>
				<desc>分別事識</desc>
				<rect x="0" y="353.746" width="19.8425" height="73.7008" class="st1"/>
				<text x="9.92" y="358.6" writing-mode="tb-rl" class="st2">分別事識</text>			</g>
			<g id="shape3-8" transform="translate(165.827,-5.68434E-14)">
				<title>工作表.3</title>
				<desc>真相</desc>
				<rect x="0" y="384.927" width="19.8425" height="42.5197" class="st1"/>
				<text x="9.92" y="390.19" writing-mode="tb-rl" class="st2">真相</text>			</g>
			<g id="shape4-11" transform="translate(151.654,-289.134)">
				<title>工作表.4</title>
				<desc>意</desc>
				<rect x="0" y="404.77" width="19.8425" height="22.6772" class="st1"/>
				<text x="9.92" y="408.77" writing-mode="tb-rl" class="st2">意</text>			</g>
			<g id="shape5-14" transform="translate(123.307,-270.709)">
				<title>工作表.5</title>
				<desc>六識</desc>
				<rect x="0" y="384.927" width="19.8425" height="42.5197" class="st1"/>
				<text x="9.92" y="390.19" writing-mode="tb-rl" class="st2">六識</text>			</g>
			<g id="shape6-17" transform="translate(137.48,-144.567)">
				<title>工作表.6</title>
				<desc>空</desc>
				<rect x="0" y="404.77" width="19.8425" height="22.6772" class="st1"/>
				<text x="9.92" y="408.77" writing-mode="tb-rl" class="st2">空</text>			</g>
			<g id="shape7-20" transform="translate(123.307,-53.8583)">
				<title>工作表.7</title>
				<desc>真識</desc>
				<rect x="0" y="384.927" width="19.8425" height="42.5197" class="st1"/>
				<text x="9.92" y="390.19" writing-mode="tb-rl" class="st2">真識</text>			</g>
			<g id="shape8-23" transform="translate(80.7874,-201.26)">
				<title>工作表.8</title>
				<desc>塵</desc>
				<rect x="0" y="404.77" width="19.8425" height="22.6772" class="st1"/>
				<text x="4" y="420.91" class="st2">塵</text>			</g>
			<g id="shape9-26" transform="translate(80.7874,-144.567)">
				<title>工作表.9</title>
				<desc>根</desc>
				<rect x="0" y="404.77" width="19.8425" height="22.6772" class="st1"/>
				<text x="9.92" y="408.77" writing-mode="tb-rl" class="st2">根</text>			</g>
			<g id="shape10-29" transform="translate(52.4409,-355.748)">
				<title>工作表.10</title>
				<desc>業相</desc>
				<rect x="0" y="384.927" width="19.8425" height="42.5197" class="st1"/>
				<text x="9.92" y="390.19" writing-mode="tb-rl" class="st2">業相</text>			</g>
			<g id="shape11-32" transform="translate(52.4409,-69.4488)">
				<title>工作表.11</title>
				<desc>現識</desc>
				<rect x="0" y="384.927" width="19.8425" height="42.5197" class="st1"/>
				<text x="9.92" y="390.19" writing-mode="tb-rl" class="st2">現識</text>			</g>
			<g id="shape12-35" transform="translate(484.14,214.848) rotate(90)">
				<title>工作表.12</title>
				<path d="M0 427.45 L99.21 427.45" class="st3"/>
			</g>
			<g id="shape13-41" transform="translate(518.156,2.25) rotate(90)">
				<title>工作表.13</title>
				<path d="M0 427.45 L198.43 427.45" class="st5"/>
			</g>
			<g id="shape14-44" transform="translate(518.156,229.022) rotate(90)">
				<title>工作表.14</title>
				<path d="M0 427.45 L28.35 427.45" class="st5"/>
			</g>
			<g id="shape15-47" transform="translate(104.882,-155.906)">
				<title>工作表.15</title>
				<path d="M0 427.45 L28.35 427.45" class="st5"/>
			</g>
			<g id="shape16-50" transform="translate(161.575,-155.906)">
				<title>工作表.16</title>
				<path d="M0 427.45 L28.35 427.45" class="st5"/>
			</g>
			<g id="shape17-53" transform="translate(392.959,587.965) rotate(135)">
				<title>工作表.17</title>
				<path d="M0 427.45 L40.09 427.45" class="st5"/>
			</g>
			<g id="shape18-56" transform="translate(348.432,630.989) rotate(134.029)">
				<title>工作表.18</title>
				<path d="M0 427.45 L59.14 427.45" class="st5"/>
			</g>
			<g id="shape20-59" transform="translate(-197.369,688.595) rotate(-135)">
				<title>工作表.20</title>
				<path d="M0 427.45 L40.09 427.45" class="st3"/>
			</g>
			<g id="shape21-64" transform="translate(76.5354,-377.008)">
				<title>工作表.21</title>
				<path d="M0 427.45 L56.69 427.45" class="st3"/>
			</g>
			<g id="shape22-69" transform="translate(543.895,335.142) rotate(116.565)">
				<title>工作表.22</title>
				<path d="M0 427.45 L126.77 427.45" class="st6"/>
			</g>
			<g id="shape23-74" transform="translate(529.722,278.449) rotate(116.565)">
				<title>工作表.23</title>
				<path d="M0 427.45 L31.69 427.45" class="st7"/>
			</g>
			<g id="shape24-77" transform="translate(556.379,97.7054) rotate(81.8699)">
				<title>工作表.24</title>
				<path d="M0 427.45 L100.22 427.45" class="st6"/>
			</g>
			<g id="shape25-82" transform="translate(480.757,407.022) rotate(125.607)">
				<title>工作表.25</title>
				<path d="M0 427.45 L49.29 427.45" class="st6"/>
			</g>
			<g id="shape26-87" transform="translate(543.433,192.822) rotate(106.329)">
				<title>工作表.26</title>
				<path d="M0 427.45 L126.24 427.45" class="st8"/>
			</g>
			<g id="shape27-93" transform="translate(529.722,-103.871) rotate(63.4349)">
				<title>工作表.27</title>
				<path d="M0 427.45 L31.69 427.45" class="st7"/>
			</g>
			<g id="group35-96" transform="translate(161.575,-375.591)">
				<title>工作表.35</title>
				<g id="shape29-97" transform="translate(427.447,384.927) rotate(90)">
					<title>工作表.29</title>
					<path d="M0 427.45 L42.52 427.45" class="st7"/>
				</g>
				<g id="shape30-100" transform="translate(455.793,384.927) rotate(90)">
					<title>工作表.30</title>
					<path d="M0 427.45 L42.52 427.45" class="st7"/>
				</g>
				<g id="shape31-103" transform="translate(0,-42.5197)">
					<title>工作表.31</title>
					<path d="M0 427.45 L28.35 427.45" class="st7"/>
				</g>
				<g id="shape34-106">
					<title>工作表.34</title>
					<path d="M0 427.45 L28.35 427.45" class="st7"/>
				</g>
			</g>
			<g id="group36-109" transform="translate(48.189,-355.748)">
				<title>工作表.36</title>
				<g id="shape19-110" transform="translate(427.447,384.927) rotate(90)">
					<title>工作表.19</title>
					<path d="M0 427.45 L42.52 427.45" class="st7"/>
				</g>
				<g id="shape28-113" transform="translate(455.793,384.927) rotate(90)">
					<title>工作表.28</title>
					<path d="M0 427.45 L42.52 427.45" class="st7"/>
				</g>
				<g id="shape32-116" transform="translate(0,-42.5197)">
					<title>工作表.32</title>
					<path d="M0 427.45 L28.35 427.45" class="st7"/>
				</g>
				<g id="shape33-119">
					<title>工作表.33</title>
					<path d="M0 427.45 L28.35 427.45" class="st7"/>
				</g>
			</g>
			<g id="group37-122" transform="translate(161.575,5.68434E-14)">
				<title>工作表.37</title>
				<g id="shape38-123" transform="translate(427.447,384.927) rotate(90)">
					<title>工作表.38</title>
					<path d="M0 427.45 L42.52 427.45" class="st7"/>
				</g>
				<g id="shape39-126" transform="translate(455.793,384.927) rotate(90)">
					<title>工作表.39</title>
					<path d="M0 427.45 L42.52 427.45" class="st7"/>
				</g>
				<g id="shape40-129" transform="translate(0,-42.5197)">
					<title>工作表.40</title>
					<path d="M0 427.45 L28.35 427.45" class="st7"/>
				</g>
				<g id="shape41-132">
					<title>工作表.41</title>
					<path d="M0 427.45 L28.35 427.45" class="st7"/>
				</g>
			</g>
			<g id="shape42-135" transform="translate(-104.661,-78.2261) rotate(-22.9184)">
				<title>工作表.42</title>
				<path d="M0 427.45 L83.71 427.45" class="st7"/>
			</g>
			<g id="shape43-138" transform="translate(-349.529,199.795) rotate(-74.495)">
				<title>工作表.43</title>
				<path d="M0 427.45 L91.19 427.45" class="st7"/>
			</g>
		</g>
	</g>
</svg>
