<?xml version="1.0" encoding="UTF-8" standalone="no"?>
<!DOCTYPE svg PUBLIC "-//W3C//DTD SVG 1.0//EN" "http://www.w3.org/TR/2001/REC-SVG-20010904/DTD/svg10.dtd">
<!-- 由 Microsoft Visio 11.0, SVG Export, v1.0 產生 y33.0052.svg Page-1 -->
<svg xmlns="http://www.w3.org/2000/svg" xmlns:xlink="http://www.w3.org/1999/xlink" xmlns:ev="http://www.w3.org/2001/xml-events"
		xmlns:v="http://schemas.microsoft.com/visio/2003/SVGExtensions/" width="4.43375in" height="9.49084in"
		viewBox="0 0 319.23 683.341" xml:space="preserve" color-interpolation-filters="sRGB" class="st8">
	<v:documentProperties v:langID="1028" v:metric="true" v:viewMarkup="false">
		<v:userDefs>
			<v:ud v:nameU="msvSubprocessMaster" v:prompt="" v:val="VT4(Box)"/>
			<v:ud v:nameU="msvNoAutoConnect" v:val="VT0(1):26"/>
		</v:userDefs>
	</v:documentProperties>

	<style type="text/css">
	<![CDATA[
		.st1 {fill:none;stroke:none;stroke-linecap:round;stroke-linejoin:round;stroke-width:0.75}
		.st2 {fill:#000000;font-family:新細明體;font-size:1.33333em}
		.st3 {stroke:#000000;stroke-dasharray:3,3;stroke-linecap:round;stroke-linejoin:round;stroke-width:1}
		.st4 {stroke:#000000;stroke-linecap:round;stroke-linejoin:round;stroke-width:1}
		.st5 {marker-end:url(#mrkr1-123);stroke:#000000;stroke-linecap:round;stroke-linejoin:round;stroke-width:1}
		.st6 {fill:#000000;fill-opacity:1;stroke:#000000;stroke-opacity:1;stroke-width:0.28409090909091}
		.st7 {fill:none;stroke:#000000;stroke-linecap:round;stroke-linejoin:round;stroke-opacity:0;stroke-width:1}
		.st8 {fill:none;fill-rule:evenodd;font-size:12px;overflow:visible;stroke-linecap:square;stroke-miterlimit:3}
	]]>
	</style>

	<defs id="Markers">
		<g id="lend1">
			<path d="M 1 -1 L 0 0 L 1 1 " style="stroke-linecap:round;stroke-linejoin:round;fill:none"/>
		</g>
		<marker id="mrkr1-123" class="st6" v:arrowType="1" v:arrowSize="2" orient="auto" markerUnits="strokeWidth"
				overflow="visible">
			<use xlink:href="#lend1" transform="scale(-3.52,-3.52) "/>
		</marker>
	</defs>
	<g v:mID="0" v:index="1" v:groupContext="foregroundPage">
		<title>頁-1</title>
		<v:pageProperties v:drawingScale="0.0393701" v:pageScale="0.0393701" v:drawingUnits="24" v:shadowOffsetX="8.50394"
				v:shadowOffsetY="-8.50394"/>
		<g id="shape4-1" v:mID="4" v:groupContext="shape" transform="translate(229.364,-462.372)">
			<title>工作表.4</title>
			<desc>意</desc>
			<v:textBlock v:margins="rect(4,4,4,4)" v:tabSpace="42.5197" v:verticalText="true"/>
			<v:textRect cx="28.3465" cy="654.994" width="56.7" height="56.6929"/>
			<rect x="0" y="626.648" width="56.6929" height="56.6929" class="st1"/>
			<text x="28.35" y="630.99" writing-mode="tb-rl" class="st2" v:langID="1028"><v:paragraph v:horizAlign="1"/><v:tabList/>（意）</text>		</g>
		<g id="shape5-4" v:mID="5" v:groupContext="shape" transform="translate(273.868,-371.663)">
			<title>工作表.5</title>
			<desc>諸行無常</desc>
			<v:textBlock v:margins="rect(4,4,4,4)" v:tabSpace="42.5197" v:verticalText="true"/>
			<v:textRect cx="12.189" cy="646.49" width="24.38" height="73.7008"/>
			<rect x="0" y="609.64" width="24.378" height="73.7008" class="st1"/>
			<text x="12.19" y="614.49" writing-mode="tb-rl" class="st2" v:langID="1028"><v:paragraph v:horizAlign="1"/><v:tabList/>諸行無常</text>		</g>
		<g id="shape6-7" v:mID="6" v:groupContext="shape" transform="translate(220.86,-371.663)">
			<title>工作表.6</title>
			<desc>諸法無我</desc>
			<v:textBlock v:margins="rect(4,4,4,4)" v:tabSpace="42.5197" v:verticalText="true"/>
			<v:textRect cx="36.8504" cy="646.49" width="73.71" height="73.7008"/>
			<rect x="0" y="609.64" width="73.7008" height="73.7008" class="st1"/>
			<text x="36.85" y="614.49" writing-mode="tb-rl" class="st2" v:langID="1028"><v:paragraph v:horizAlign="1"/><v:tabList/>諸法無我</text>		</g>
		<g id="shape7-10" v:mID="7" v:groupContext="shape" transform="translate(192.514,-371.663)">
			<title>工作表.7</title>
			<desc>涅槃寂靜</desc>
			<v:textBlock v:margins="rect(4,4,4,4)" v:tabSpace="42.5197" v:verticalText="true"/>
			<v:textRect cx="36.8504" cy="646.49" width="73.71" height="73.7008"/>
			<rect x="0" y="609.64" width="73.7008" height="73.7008" class="st1"/>
			<text x="36.85" y="614.49" writing-mode="tb-rl" class="st2" v:langID="1028"><v:paragraph v:horizAlign="1"/><v:tabList/>涅槃寂靜</text>		</g>
		<g id="shape8-13" v:mID="8" v:groupContext="shape" transform="translate(220.86,-266.073)">
			<title>工作表.8</title>
			<desc>達諸行空</desc>
			<v:textBlock v:margins="rect(4,4,4,4)" v:tabSpace="42.5197" v:verticalText="true"/>
			<v:textRect cx="36.8504" cy="646.49" width="73.71" height="73.7008"/>
			<rect x="0" y="609.64" width="73.7008" height="73.7008" class="st1"/>
			<text x="36.85" y="614.49" writing-mode="tb-rl" class="st2" v:langID="1028"><v:paragraph v:horizAlign="1"/><v:tabList/>達諸行空</text>		</g>
		<g id="shape10-16" v:mID="10" v:groupContext="shape" transform="translate(140.073,-265.364)">
			<title>工作表.10</title>
			<desc>心厭苦向滅</desc>
			<v:textBlock v:margins="rect(4,4,4,4)" v:tabSpace="42.5197" v:verticalText="true"/>
			<v:textRect cx="60.9449" cy="622.396" width="121.89" height="121.89"/>
			<rect x="0" y="561.451" width="121.89" height="121.89" class="st1"/>
			<text x="60.95" y="566.4" writing-mode="tb-rl" class="st2" v:langID="1028"><v:paragraph v:horizAlign="1"/><v:tabList/>（心）厭苦向滅</text>		</g>
		<g id="shape12-19" v:mID="12" v:groupContext="shape" transform="translate(59.2854,-289.459)">
			<title>工作表.12</title>
			<desc>業</desc>
			<v:textBlock v:margins="rect(4,4,4,4)" v:tabSpace="42.5197" v:verticalText="true"/>
			<v:textRect cx="28.3465" cy="654.994" width="56.7" height="56.6929"/>
			<rect x="0" y="626.648" width="56.6929" height="56.6929" class="st1"/>
			<text x="28.35" y="630.99" writing-mode="tb-rl" class="st2" v:langID="1028"><v:paragraph v:horizAlign="1"/><v:tabList/>（業）</text>		</g>
		<g id="shape14-22" v:mID="14" v:groupContext="shape" transform="translate(98.9705,-85.3642)">
			<title>工作表.14</title>
			<desc>事當則心安</desc>
			<v:textBlock v:margins="rect(4,4,4,4)" v:tabSpace="42.5197" v:verticalText="true"/>
			<v:textRect cx="45.3543" cy="637.986" width="90.71" height="90.7087"/>
			<rect x="0" y="592.632" width="90.7087" height="90.7087" class="st1"/>
			<text x="45.35" y="597.99" writing-mode="tb-rl" class="st2" v:langID="1028"><v:paragraph v:horizAlign="1"/><v:tabList/>事當則心安</text>		</g>
		<g id="shape24-25" v:mID="24" v:groupContext="shape" transform="translate(941.051,415.85) rotate(90)">
			<title>工作表.24</title>
			<path d="M0 683.34 L209.76 683.34" class="st3"/>
		</g>
		<g id="shape25-28" v:mID="25" v:groupContext="shape" transform="translate(714.28,595.142) rotate(90)">
			<title>工作表.25</title>
			<path d="M0 683.34 L28.35 683.34" class="st3"/>
		</g>
		<g id="shape26-31" v:mID="26" v:groupContext="shape" transform="translate(969.398,311.677) rotate(90)">
			<title>工作表.26</title>
			<path d="M0 683.34 L14.17 683.34" class="st4"/>
		</g>
		<g id="shape27-34" v:mID="27" v:groupContext="shape" transform="translate(912.705,311.677) rotate(90)">
			<title>工作表.27</title>
			<path d="M0 683.34 L14.17 683.34" class="st4"/>
		</g>
		<g id="shape28-37" v:mID="28" v:groupContext="shape" transform="translate(941.051,212.465) rotate(90)">
			<title>工作表.28</title>
			<path d="M0 683.34 L14.17 683.34" class="st4"/>
		</g>
		<g id="shape29-40" v:mID="29" v:groupContext="shape" transform="translate(941.051,325.85) rotate(90)">
			<title>工作表.29</title>
			<path d="M0 683.34 L14.17 683.34" class="st4"/>
		</g>
		<g id="shape31-43" v:mID="31" v:groupContext="shape" transform="translate(912.705,226.638) rotate(90)">
			<title>工作表.31</title>
			<path d="M0 683.34 L14.17 683.34" class="st4"/>
		</g>
		<g id="shape30-46" v:mID="30" v:groupContext="shape" transform="translate(229.364,-357.49)">
			<title>工作表.30</title>
			<path d="M0 683.34 L56.69 683.34" class="st4"/>
		</g>
		<g id="shape32-49" v:mID="32" v:groupContext="shape" transform="translate(969.398,226.638) rotate(90)">
			<title>工作表.32</title>
			<path d="M0 683.34 L14.17 683.34" class="st4"/>
		</g>
		<g id="shape33-52" v:mID="33" v:groupContext="shape" transform="translate(229.364,-456.703)">
			<title>工作表.33</title>
			<path d="M0 683.34 L56.69 683.34" class="st4"/>
		</g>
		<g id="shape34-55" v:mID="34" v:groupContext="shape" transform="translate(941.051,146.559) rotate(90)">
			<title>工作表.34</title>
			<path d="M0 683.34 L28.35 683.34" class="st4"/>
		</g>
		<g id="shape9-58" v:mID="9" v:groupContext="shape" transform="translate(236.451,-18.75)">
			<title>工作表.9</title>
			<desc>正見</desc>
			<v:textBlock v:margins="rect(4,4,4,4)" v:tabSpace="42.5197" v:verticalText="true"/>
			<v:textRect cx="21.2598" cy="662.081" width="42.52" height="42.5197"/>
			<rect x="0" y="640.821" width="42.5197" height="42.5197" class="st1"/>
			<text x="21.26" y="646.08" writing-mode="tb-rl" class="st2" v:langID="1028"><v:paragraph v:horizAlign="1"/><v:tabList/>正見</text>		</g>
		<g id="shape11-61" v:mID="11" v:groupContext="shape" transform="translate(179.758,-18.75)">
			<title>工作表.11</title>
			<desc>正志</desc>
			<v:textBlock v:margins="rect(4,4,4,4)" v:tabSpace="42.5197" v:verticalText="true"/>
			<v:textRect cx="21.2598" cy="662.081" width="42.52" height="42.5197"/>
			<rect x="0" y="640.821" width="42.5197" height="42.5197" class="st1"/>
			<text x="21.26" y="646.08" writing-mode="tb-rl" class="st2" v:langID="1028"><v:paragraph v:horizAlign="1"/><v:tabList/>正志</text>		</g>
		<g id="shape15-64" v:mID="15" v:groupContext="shape" transform="translate(151.411,-18.75)">
			<title>工作表.15</title>
			<desc>正語</desc>
			<v:textBlock v:margins="rect(4,4,4,4)" v:tabSpace="42.5197" v:verticalText="true"/>
			<v:textRect cx="21.2598" cy="662.081" width="42.52" height="42.5197"/>
			<rect x="0" y="640.821" width="42.5197" height="42.5197" class="st1"/>
			<text x="21.26" y="646.08" writing-mode="tb-rl" class="st2" v:langID="1028"><v:paragraph v:horizAlign="1"/><v:tabList/>正語</text>		</g>
		<g id="shape16-67" v:mID="16" v:groupContext="shape" transform="translate(123.065,-18.75)">
			<title>工作表.16</title>
			<desc>正業</desc>
			<v:textBlock v:margins="rect(4,4,4,4)" v:tabSpace="42.5197" v:verticalText="true"/>
			<v:textRect cx="21.2598" cy="662.081" width="42.52" height="42.5197"/>
			<rect x="0" y="640.821" width="42.5197" height="42.5197" class="st1"/>
			<text x="21.26" y="646.08" writing-mode="tb-rl" class="st2" v:langID="1028"><v:paragraph v:horizAlign="1"/><v:tabList/>正業</text>		</g>
		<g id="shape17-70" v:mID="17" v:groupContext="shape" transform="translate(94.7185,-18.75)">
			<title>工作表.17</title>
			<desc>正命</desc>
			<v:textBlock v:margins="rect(4,4,4,4)" v:tabSpace="42.5197" v:verticalText="true"/>
			<v:textRect cx="21.2598" cy="662.081" width="42.52" height="42.5197"/>
			<rect x="0" y="640.821" width="42.5197" height="42.5197" class="st1"/>
			<text x="21.26" y="646.08" writing-mode="tb-rl" class="st2" v:langID="1028"><v:paragraph v:horizAlign="1"/><v:tabList/>正命</text>		</g>
		<g id="shape18-73" v:mID="18" v:groupContext="shape" transform="translate(66.372,-18.75)">
			<title>工作表.18</title>
			<desc>正勤</desc>
			<v:textBlock v:margins="rect(4,4,4,4)" v:tabSpace="42.5197" v:verticalText="true"/>
			<v:textRect cx="21.2598" cy="662.081" width="42.52" height="42.5197"/>
			<rect x="0" y="640.821" width="42.5197" height="42.5197" class="st1"/>
			<text x="21.26" y="646.08" writing-mode="tb-rl" class="st2" v:langID="1028"><v:paragraph v:horizAlign="1"/><v:tabList/>正勤</text>		</g>
		<g id="shape21-76" v:mID="21" v:groupContext="shape" transform="translate(38.0256,-18.75)">
			<title>工作表.21</title>
			<desc>正念</desc>
			<v:textBlock v:margins="rect(4,4,4,4)" v:tabSpace="42.5197" v:verticalText="true"/>
			<v:textRect cx="21.2598" cy="662.081" width="42.52" height="42.5197"/>
			<rect x="0" y="640.821" width="42.5197" height="42.5197" class="st1"/>
			<text x="21.26" y="646.08" writing-mode="tb-rl" class="st2" v:langID="1028"><v:paragraph v:horizAlign="1"/><v:tabList/>正念</text>		</g>
		<g id="shape23-79" v:mID="23" v:groupContext="shape" transform="translate(18.75,-18.75)">
			<title>工作表.23</title>
			<desc>正定</desc>
			<v:textBlock v:margins="rect(4,4,4,4)" v:tabSpace="42.5197" v:verticalText="true"/>
			<v:textRect cx="12.189" cy="662.081" width="24.38" height="42.5197"/>
			<rect x="0" y="640.821" width="24.378" height="42.5197" class="st1"/>
			<text x="12.19" y="646.08" writing-mode="tb-rl" class="st2" v:langID="1028"><v:paragraph v:horizAlign="1"/><v:tabList/>正定</text>		</g>
		<g id="shape20-82" v:mID="20" v:groupContext="shape" transform="translate(47.0965,-85.3642)">
			<title>工作表.20</title>
			<desc>繫心則心攝</desc>
			<v:textBlock v:margins="rect(4,4,4,4)" v:tabSpace="42.5197" v:verticalText="true"/>
			<v:textRect cx="12.189" cy="637.986" width="24.38" height="90.7087"/>
			<rect x="0" y="592.632" width="24.378" height="90.7087" class="st1"/>
			<text x="12.19" y="597.99" writing-mode="tb-rl" class="st2" v:langID="1028"><v:paragraph v:horizAlign="1"/><v:tabList/>繫心則心攝</text>		</g>
		<g id="shape22-85" v:mID="22" v:groupContext="shape" transform="translate(18.75,-85.3642)">
			<title>工作表.22</title>
			<desc>心靜則慧發</desc>
			<v:textBlock v:margins="rect(4,4,4,4)" v:tabSpace="42.5197" v:verticalText="true"/>
			<v:textRect cx="12.189" cy="637.986" width="24.38" height="90.7087"/>
			<rect x="0" y="592.632" width="24.378" height="90.7087" class="st1"/>
			<text x="12.19" y="597.99" writing-mode="tb-rl" class="st2" v:langID="1028"><v:paragraph v:horizAlign="1"/><v:tabList/>心靜則慧發</text>		</g>
		<g id="shape37-88" v:mID="37" v:groupContext="shape" transform="translate(884.358,413.724) rotate(90)">
			<title>工作表.37</title>
			<path d="M0 683.34 L209.76 683.34" class="st3"/>
		</g>
		<g id="shape13-91" v:mID="13" v:groupContext="shape" transform="translate(115.978,-201.585)">
			<title>工作表.13</title>
			<desc>僧和事</desc>
			<v:textBlock v:margins="rect(4,4,4,4)" v:tabSpace="42.5197" v:verticalText="true"/>
			<v:textRect cx="28.3465" cy="654.994" width="56.7" height="56.6929"/>
			<rect x="0" y="626.648" width="56.6929" height="56.6929" class="st1"/>
			<text x="28.35" y="630.99" writing-mode="tb-rl" class="st2" v:langID="1028"><v:paragraph v:horizAlign="1"/><v:tabList/>僧和事</text>		</g>
		<g id="shape19-94" v:mID="19" v:groupContext="shape" transform="translate(32.9232,-201.585)">
			<title>工作表.19</title>
			<desc>己利事</desc>
			<v:textBlock v:margins="rect(4,4,4,4)" v:tabSpace="42.5197" v:verticalText="true"/>
			<v:textRect cx="12.189" cy="654.994" width="24.38" height="56.6929"/>
			<rect x="0" y="626.648" width="24.378" height="56.6929" class="st1"/>
			<text x="12.19" y="630.99" writing-mode="tb-rl" class="st2" v:langID="1028"><v:paragraph v:horizAlign="1"/><v:tabList/>己利事</text>		</g>
		<g id="shape35-97" v:mID="35" v:groupContext="shape" transform="translate(45.1122,-272.451)">
			<title>工作表.35</title>
			<path d="M0 683.34 L99.21 683.34" class="st4"/>
		</g>
		<g id="shape36-100" v:mID="36" v:groupContext="shape" transform="translate(770.972,382.543) rotate(90)">
			<title>工作表.36</title>
			<path d="M0 683.34 L28.35 683.34" class="st4"/>
		</g>
		<g id="shape38-103" v:mID="38" v:groupContext="shape" transform="translate(742.626,495.929) rotate(90)">
			<title>工作表.38</title>
			<path d="M0 683.34 L14.17 683.34" class="st4"/>
		</g>
		<g id="shape39-106" v:mID="39" v:groupContext="shape" transform="translate(728.453,410.89) rotate(90)">
			<title>工作表.39</title>
			<path d="M0 683.34 L14.17 683.34" class="st4"/>
		</g>
		<g id="shape40-109" v:mID="40" v:groupContext="shape" transform="translate(827.665,410.89) rotate(90)">
			<title>工作表.40</title>
			<path d="M0 683.34 L14.17 683.34" class="st4"/>
		</g>
		<g id="shape41-112" v:mID="41" v:groupContext="shape" transform="translate(714.28,495.929) rotate(90)">
			<title>工作表.41</title>
			<path d="M0 683.34 L14.17 683.34" class="st4"/>
		</g>
		<g id="shape42-115" v:mID="42" v:groupContext="shape" transform="translate(201.018,-487.884)">
			<title>工作表.42</title>
			<path d="M0 683.34 L42.52 683.34" class="st4"/>
		</g>
		<g id="shape43-118" v:mID="43" v:groupContext="shape" transform="translate(884.358,195.457) rotate(90)">
			<title>工作表.43</title>
			<path d="M0 683.34 L107.72 683.34" class="st5"/>
		</g>
		<g id="shape44-124" v:mID="44" v:groupContext="shape" transform="translate(770.972,325.85) rotate(90)">
			<title>工作表.44</title>
			<path d="M0 683.34 L14.17 683.34" class="st5"/>
		</g>
		<g id="shape45-129" v:mID="45" v:groupContext="shape" transform="translate(87.6319,-357.49)">
			<title>工作表.45</title>
			<path d="M0 683.34 L99.21 683.34" class="st4"/>
		</g>
		<g id="shape46-132" v:mID="46" v:groupContext="shape" transform="translate(827.665,481.756) rotate(90)">
			<title>工作表.46</title>
			<path d="M0 683.34 L28.35 683.34" class="st4"/>
		</g>
		<g id="shape47-135" v:mID="47" v:groupContext="shape" transform="translate(728.453,481.756) rotate(90)">
			<title>工作表.47</title>
			<path d="M0 683.34 L14.17 683.34" class="st4"/>
		</g>
		<g id="shape48-138" v:mID="48" v:groupContext="shape" transform="translate(30.939,-187.411)">
			<title>工作表.48</title>
			<path d="M0 683.34 L28.35 683.34" class="st4"/>
		</g>
		<g id="shape49-141" v:mID="49" v:groupContext="shape" transform="translate(827.665,595.142) rotate(90)">
			<title>工作表.49</title>
			<path d="M0 683.34 L14.17 683.34" class="st3"/>
		</g>
		<g id="shape50-144" v:mID="50" v:groupContext="shape" transform="translate(856.012,609.315) rotate(90)">
			<title>工作表.50</title>
			<path d="M0 683.34 L14.17 683.34" class="st3"/>
		</g>
		<g id="shape51-147" v:mID="51" v:groupContext="shape" transform="translate(799.319,609.315) rotate(90)">
			<title>工作表.51</title>
			<path d="M0 683.34 L14.17 683.34" class="st3"/>
		</g>
		<g id="shape52-150" v:mID="52" v:groupContext="shape" transform="translate(115.978,-74.0256)">
			<title>工作表.52</title>
			<path d="M0 683.34 L56.69 683.34" class="st3"/>
		</g>
		<g id="shape53-153" v:mID="53" v:groupContext="shape" transform="translate(742.626,595.142) rotate(90)">
			<title>工作表.53</title>
			<path d="M0 683.34 L28.35 683.34" class="st3"/>
		</g>
		<g id="shape54-156" v:mID="54" v:groupContext="shape" transform="translate(770.972,416.559) rotate(90)">
			<title>工作表.54</title>
			<path d="M0 683.34 L209.76 683.34" class="st3"/>
		</g>
		<g id="shape1-159" v:mID="1" v:groupContext="shape" transform="translate(271.884,-570.797)">
			<title>工作表.1</title>
			<desc>定</desc>
			<v:textBlock v:margins="rect(4,4,4,4)" v:tabSpace="42.5197" v:verticalText="true"/>
			<v:textRect cx="14.1732" cy="669.167" width="28.35" height="28.3465"/>
			<rect x="0" y="654.994" width="28.3465" height="28.3465" class="st1"/>
			<text x="14.17" y="661.17" writing-mode="tb-rl" class="st2" v:langID="1028"><v:paragraph v:horizAlign="1"/><v:tabList/>定</text>		</g>
		<g id="shape64-162" v:mID="64" v:groupContext="shape" transform="translate(215.191,-570.797)">
			<title>工作表.64</title>
			<desc>定</desc>
			<v:textBlock v:margins="rect(4,4,4,4)" v:tabSpace="42.5197" v:verticalText="true"/>
			<v:textRect cx="14.1732" cy="669.167" width="28.35" height="28.3465"/>
			<rect x="0" y="654.994" width="28.3465" height="28.3465" class="st1"/>
			<text x="14.17" y="661.17" writing-mode="tb-rl" class="st2" v:langID="1028"><v:paragraph v:horizAlign="1"/><v:tabList/>定</text>		</g>
		<g id="shape2-165" v:mID="2" v:groupContext="shape" transform="translate(245.522,-538.199)">
			<title>工作表.2</title>
			<desc>解脫道以慧為本</desc>
			<v:textBlock v:margins="rect(4,4,4,4)" v:tabSpace="42.5197" v:verticalText="true"/>
			<v:textRect cx="12.189" cy="620.27" width="24.38" height="126.142"/>
			<rect x="0" y="557.199" width="24.378" height="126.142" class="st7"/>
			<text x="12.19" y="564.27" writing-mode="tb-rl" class="st2" v:langID="1028"><v:paragraph v:horizAlign="1"/><v:tabList/>解脫道以慧為本</text>		</g>
		<g id="shape65-168" v:mID="65" v:groupContext="shape" transform="translate(243.537,-661.506)">
			<title>工作表.65</title>
			<path d="M0 683.34 L28.35 683.34" class="st4"/>
		</g>
		<g id="shape66-171" v:mID="66" v:groupContext="shape" transform="translate(243.537,-539.616)">
			<title>工作表.66</title>
			<path d="M0 683.34 L28.35 683.34" class="st4"/>
		</g>
		<g id="shape67-174" v:mID="67" v:groupContext="shape" transform="translate(215.191,-599.144)">
			<title>工作表.67</title>
			<path d="M0 683.34 L28.35 683.34" class="st4"/>
		</g>
		<g id="shape68-177" v:mID="68" v:groupContext="shape" transform="translate(215.191,-570.797)">
			<title>工作表.68</title>
			<path d="M0 683.34 L28.35 683.34" class="st4"/>
		</g>
		<g id="shape69-180" v:mID="69" v:groupContext="shape" transform="translate(271.884,-599.144)">
			<title>工作表.69</title>
			<path d="M0 683.34 L28.35 683.34" class="st4"/>
		</g>
		<g id="shape70-183" v:mID="70" v:groupContext="shape" transform="translate(271.884,-570.797)">
			<title>工作表.70</title>
			<path d="M0 683.34 L28.35 683.34" class="st4"/>
		</g>
		<g id="shape71-186" v:mID="71" v:groupContext="shape" transform="translate(-468.15,112.543) rotate(-90)">
			<title>工作表.71</title>
			<path d="M0 683.34 L28.35 683.34" class="st4"/>
		</g>
		<g id="shape72-189" v:mID="72" v:groupContext="shape" transform="translate(-383.11,112.543) rotate(-90)">
			<title>工作表.72</title>
			<path d="M0 683.34 L28.35 683.34" class="st4"/>
		</g>
		<g id="shape73-192" v:mID="73" v:groupContext="shape" transform="translate(-411.457,84.1969) rotate(-90)">
			<title>工作表.73</title>
			<path d="M0 683.34 L62.36 683.34" class="st4"/>
		</g>
		<g id="shape74-195" v:mID="74" v:groupContext="shape" transform="translate(-439.803,84.1969) rotate(-90)">
			<title>工作表.74</title>
			<path d="M0 683.34 L62.36 683.34" class="st4"/>
		</g>
		<g id="shape75-198" v:mID="75" v:groupContext="shape" transform="translate(-439.803,143.724) rotate(-90)">
			<title>工作表.75</title>
			<path d="M0 683.34 L31.18 683.34" class="st4"/>
		</g>
		<g id="shape76-201" v:mID="76" v:groupContext="shape" transform="translate(-411.457,143.724) rotate(-90)">
			<title>工作表.76</title>
			<path d="M0 683.34 L31.18 683.34" class="st4"/>
		</g>
	</g>
</svg>
