<?xml version="1.0" encoding="UTF-8" standalone="no"?>
<!DOCTYPE svg PUBLIC "-//W3C//DTD SVG 1.0//EN" "http://www.w3.org/TR/2001/REC-SVG-20010904/DTD/svg10.dtd">
<!-- 由 Microsoft Visio 11.0, SVG Export, v1.0 產生 y33.0040.svg Page-1 -->
<svg xmlns="http://www.w3.org/2000/svg" xmlns:xlink="http://www.w3.org/1999/xlink" xmlns:ev="http://www.w3.org/2001/xml-events"
		xmlns:v="http://schemas.microsoft.com/visio/2003/SVGExtensions/" width="4.98188in" height="7.48934in"
		viewBox="0 0 358.695 539.232" xml:space="preserve" color-interpolation-filters="sRGB" class="st8">
	<v:documentProperties v:langID="1028" v:metric="true" v:viewMarkup="false">
		<v:userDefs>
			<v:ud v:nameU="msvSubprocessMaster" v:prompt="" v:val="VT4(Box)"/>
			<v:ud v:nameU="msvNoAutoConnect" v:val="VT0(1):26"/>
		</v:userDefs>
	</v:documentProperties>

	<style type="text/css">
	<![CDATA[
		.st1 {fill:none;stroke:none;stroke-linecap:round;stroke-linejoin:round;stroke-width:0.75}
		.st2 {fill:#000000;font-family:新細明體;font-size:1.33333em}
		.st3 {stroke:#000000;stroke-dasharray:3,3;stroke-linecap:round;stroke-linejoin:round;stroke-width:1}
		.st4 {stroke:#000000;stroke-linecap:round;stroke-linejoin:round;stroke-width:1}
		.st5 {marker-end:url(#mrkr1-183);stroke:#000000;stroke-linecap:round;stroke-linejoin:round;stroke-width:1}
		.st6 {fill:#000000;fill-opacity:1;stroke:#000000;stroke-opacity:1;stroke-width:0.28409090909091}
		.st7 {fill:none;stroke:#000000;stroke-linecap:round;stroke-linejoin:round;stroke-width:1}
		.st8 {fill:none;fill-rule:evenodd;font-size:12px;overflow:visible;stroke-linecap:square;stroke-miterlimit:3}
	]]>
	</style>

	<defs id="Markers">
		<g id="lend1">
			<path d="M 1 -1 L 0 0 L 1 1 " style="stroke-linecap:round;stroke-linejoin:round;fill:none"/>
		</g>
		<marker id="mrkr1-183" class="st6" v:arrowType="1" v:arrowSize="2" orient="auto" markerUnits="strokeWidth"
				overflow="visible">
			<use xlink:href="#lend1" transform="scale(-3.52,-3.52) "/>
		</marker>
	</defs>
	<g v:mID="0" v:index="1" v:groupContext="foregroundPage">
		<title>頁-1</title>
		<v:pageProperties v:drawingScale="0.0393701" v:pageScale="0.0393701" v:drawingUnits="24" v:shadowOffsetX="8.50394"
				v:shadowOffsetY="-8.50394"/>
		<g id="shape1-1" v:mID="1" v:groupContext="shape" transform="translate(315.568,-435.443)">
			<title>工作表.1</title>
			<desc>內則情識</desc>
			<v:textBlock v:margins="rect(4,4,4,4)" v:tabSpace="42.5197" v:verticalText="true"/>
			<v:textRect cx="12.189" cy="496.713" width="24.38" height="85.0394"/>
			<rect x="0" y="454.193" width="24.378" height="85.0394" class="st1"/>
			<text x="12.19" y="464.71" writing-mode="tb-rl" class="st2" v:langID="1028"><v:paragraph v:horizAlign="1"/><v:tabList/>內則情識</text>		</g>
		<g id="shape2-4" v:mID="2" v:groupContext="shape" transform="translate(315.568,-291.162)">
			<title>工作表.2</title>
			<desc>偏此墮唯心</desc>
			<v:textBlock v:margins="rect(4,4,4,4)" v:tabSpace="42.5197" v:verticalText="true"/>
			<v:textRect cx="12.189" cy="474.321" width="24.38" height="129.822"/>
			<rect x="0" y="409.41" width="24.378" height="129.822" class="st1"/>
			<text x="12.19" y="418.32" writing-mode="tb-rl" class="st2" v:langID="1028"><v:paragraph v:horizAlign="1"/><v:tabList/>（偏此墮唯心）</text>		</g>
		<g id="shape8-7" v:mID="8" v:groupContext="shape" transform="translate(203.032,-405.405)">
			<title>工作表.8</title>
			<desc>心</desc>
			<v:textBlock v:margins="rect(4,4,4,4)" v:tabSpace="42.5197" v:verticalText="true"/>
			<v:textRect cx="11.607" cy="525.631" width="23.22" height="27.2035"/>
			<rect x="0" y="512.029" width="23.214" height="27.2035" class="st1"/>
			<text x="11.61" y="517.63" writing-mode="tb-rl" class="st2" v:langID="1028"><v:paragraph v:horizAlign="1"/><v:tabList/>心</text>		</g>
		<g id="shape9-10" v:mID="9" v:groupContext="shape" transform="translate(123.662,-374.498)">
			<title>工作表.9</title>
			<desc>世間以有情為本</desc>
			<v:textBlock v:margins="rect(4,4,4,4)" v:tabSpace="42.5197" v:verticalText="true"/>
			<v:textRect cx="60.9449" cy="478.287" width="121.89" height="121.89"/>
			<rect x="0" y="417.343" width="121.89" height="121.89" class="st1"/>
			<text x="60.95" y="422.29" writing-mode="tb-rl" class="st2" v:langID="1028"><v:paragraph v:horizAlign="1"/><v:tabList/>世間以有情為本</text>		</g>
		<g id="shape10-13" v:mID="10" v:groupContext="shape" transform="translate(145.362,-405.405)">
			<title>工作表.10</title>
			<desc>色</desc>
			<v:textBlock v:margins="rect(4,4,4,4)" v:tabSpace="42.5197" v:verticalText="true"/>
			<v:textRect cx="12.3157" cy="525.631" width="24.64" height="27.2035"/>
			<rect x="0" y="512.029" width="24.6314" height="27.2035" class="st1"/>
			<text x="12.32" y="517.63" writing-mode="tb-rl" class="st2" v:langID="1028"><v:paragraph v:horizAlign="1"/><v:tabList/>色</text>		</g>
		<g id="shape5-16" v:mID="5" v:groupContext="shape" transform="translate(260.543,-279.537)">
			<title>工作表.5</title>
			<desc>約因果辨</desc>
			<v:textBlock v:margins="rect(4,4,4,4)" v:tabSpace="42.5197" v:verticalText="true"/>
			<v:textRect cx="38.8668" cy="502.382" width="77.74" height="73.7008"/>
			<rect x="0" y="465.531" width="77.7337" height="73.7008" class="st1"/>
			<text x="38.87" y="470.38" writing-mode="tb-rl" class="st2" v:langID="1028"><v:paragraph v:horizAlign="1"/><v:tabList/>約因果辨</text>		</g>
		<g id="shape11-19" v:mID="11" v:groupContext="shape" transform="translate(147.945,-278.692)">
			<title>工作表.11</title>
			<desc>約體類辨</desc>
			<v:textBlock v:margins="rect(4,4,4,4)" v:tabSpace="42.5197" v:verticalText="true"/>
			<v:textRect cx="38.0486" cy="501.536" width="76.1" height="75.3925"/>
			<rect x="0" y="463.84" width="76.0973" height="75.3925" class="st1"/>
			<text x="38.05" y="469.54" writing-mode="tb-rl" class="st2" v:langID="1028"><v:paragraph v:horizAlign="1"/><v:tabList/>約體類辨</text>		</g>
		<g id="shape12-22" v:mID="12" v:groupContext="shape" transform="translate(193.316,-161.054)">
			<title>工作表.12</title>
			<desc>有情之自體</desc>
			<v:textBlock v:margins="rect(4,4,4,4)" v:tabSpace="42.5197" v:verticalText="true"/>
			<v:textRect cx="49.3708" cy="494.449" width="98.75" height="89.5657"/>
			<rect x="0" y="449.667" width="98.7415" height="89.5657" class="st1"/>
			<text x="49.37" y="454.45" writing-mode="tb-rl" class="st2" v:langID="1028"><v:paragraph v:horizAlign="1"/><v:tabList/>有情之自體</text>		</g>
		<g id="shape13-25" v:mID="13" v:groupContext="shape" transform="translate(195.473,-32.9232)">
			<title>工作表.13</title>
			<desc>體類則「五有」</desc>
			<v:textBlock v:margins="rect(4,4,4,4)" v:tabSpace="42.5197" v:verticalText="true"/>
			<v:textRect cx="61.3872" cy="477.442" width="122.78" height="123.581"/>
			<rect x="0" y="415.651" width="122.774" height="123.581" class="st1"/>
			<text x="61.39" y="421.44" writing-mode="tb-rl" class="st2" v:langID="1028"><v:paragraph v:horizAlign="1"/><v:tabList/>體類則「五有」</text>		</g>
		<g id="shape14-28" v:mID="14" v:groupContext="shape" transform="translate(166.152,-32.9232)">
			<title>工作表.14</title>
			<desc>生相則「四生」</desc>
			<v:textBlock v:margins="rect(4,4,4,4)" v:tabSpace="42.5197" v:verticalText="true"/>
			<v:textRect cx="62.3622" cy="477.442" width="124.73" height="123.581"/>
			<rect x="0" y="415.651" width="124.724" height="123.581" class="st1"/>
			<text x="62.36" y="421.44" writing-mode="tb-rl" class="st2" v:langID="1028"><v:paragraph v:horizAlign="1"/><v:tabList/>生相則「四生」</text>		</g>
		<g id="shape15-31" v:mID="15" v:groupContext="shape" transform="translate(138.276,-161.054)">
			<title>工作表.15</title>
			<desc>有情之延續</desc>
			<v:textBlock v:margins="rect(4,4,4,4)" v:tabSpace="42.5197" v:verticalText="true"/>
			<v:textRect cx="47.7179" cy="494.449" width="95.44" height="89.5657"/>
			<rect x="0" y="449.667" width="95.4358" height="89.5657" class="st1"/>
			<text x="47.72" y="454.45" writing-mode="tb-rl" class="st2" v:langID="1028"><v:paragraph v:horizAlign="1"/><v:tabList/>有情之延續</text>		</g>
		<g id="shape16-34" v:mID="16" v:groupContext="shape" transform="translate(108.041,-33.209)">
			<title>工作表.16</title>
			<desc>生生則「三生」</desc>
			<v:textBlock v:margins="rect(4,4,4,4)" v:tabSpace="42.5197" v:verticalText="true"/>
			<v:textRect cx="63.7795" cy="477.156" width="127.56" height="124.153"/>
			<rect x="0" y="415.079" width="127.559" height="124.153" class="st1"/>
			<text x="63.78" y="421.16" writing-mode="tb-rl" class="st2" v:langID="1028"><v:paragraph v:horizAlign="1"/><v:tabList/>生生則「三生」</text>		</g>
		<g id="shape17-37" v:mID="17" v:groupContext="shape" transform="translate(84.6548,-160.482)">
			<title>工作表.17</title>
			<desc>有情之往返</desc>
			<v:textBlock v:margins="rect(4,4,4,4)" v:tabSpace="42.5197" v:verticalText="true"/>
			<v:textRect cx="44.6464" cy="494.164" width="89.3" height="90.1372"/>
			<rect x="0" y="449.095" width="89.2927" height="90.1372" class="st1"/>
			<text x="44.65" y="454.16" writing-mode="tb-rl" class="st2" v:langID="1028"><v:paragraph v:horizAlign="1"/><v:tabList/>有情之往返</text>		</g>
		<g id="shape18-40" v:mID="18" v:groupContext="shape" transform="translate(46.9061,-18.75)">
			<title>工作表.18</title>
			<desc>生起則「三界生」</desc>
			<v:textBlock v:margins="rect(4,4,4,4)" v:tabSpace="42.5197" v:verticalText="true"/>
			<v:textRect cx="68.2218" cy="471.201" width="136.45" height="136.063"/>
			<rect x="0" y="403.169" width="136.444" height="136.063" class="st1"/>
			<text x="68.22" y="407.2" writing-mode="tb-rl" class="st2" v:langID="1028"><v:paragraph v:horizAlign="1"/><v:tabList/>生起則「三界生」</text>		</g>
		<g id="shape22-43" v:mID="22" v:groupContext="shape" transform="translate(34.5596,-278.692)">
			<title>工作表.22</title>
			<desc>約業報辨</desc>
			<v:textBlock v:margins="rect(4,4,4,4)" v:tabSpace="42.5197" v:verticalText="true"/>
			<v:textRect cx="38.0486" cy="501.536" width="76.1" height="75.3925"/>
			<rect x="0" y="463.84" width="76.0973" height="75.3925" class="st1"/>
			<text x="38.05" y="469.54" writing-mode="tb-rl" class="st2" v:langID="1028"><v:paragraph v:horizAlign="1"/><v:tabList/>約業報辨</text>		</g>
		<g id="shape23-46" v:mID="23" v:groupContext="shape" transform="translate(47.0965,-175.798)">
			<title>工作表.23</title>
			<desc>業「有」</desc>
			<v:textBlock v:margins="rect(4,4,4,4)" v:tabSpace="42.5197" v:verticalText="true"/>
			<v:textRect cx="38.5673" cy="501.536" width="77.14" height="75.3925"/>
			<rect x="0" y="463.84" width="77.1346" height="75.3925" class="st1"/>
			<text x="38.57" y="469.54" writing-mode="tb-rl" class="st2" v:langID="1028"><v:paragraph v:horizAlign="1"/><v:tabList/>業「有」</text>		</g>
		<g id="shape24-49" v:mID="24" v:groupContext="shape" transform="translate(18.75,-174.656)">
			<title>工作表.24</title>
			<desc>報「生」</desc>
			<v:textBlock v:margins="rect(4,4,4,4)" v:tabSpace="42.5197" v:verticalText="true"/>
			<v:textRect cx="39.8117" cy="500.965" width="79.63" height="76.5354"/>
			<rect x="0" y="462.697" width="79.6234" height="76.5354" class="st1"/>
			<text x="39.81" y="468.96" writing-mode="tb-rl" class="st2" v:langID="1028"><v:paragraph v:horizAlign="1"/><v:tabList/>報「生」</text>		</g>
		<g id="shape6-52" v:mID="6" v:groupContext="shape" transform="translate(301.379,-97.2742)">
			<title>工作表.6</title>
			<desc>此有故彼有「有支」</desc>
			<v:textBlock v:margins="rect(4,4,4,4)" v:tabSpace="42.5197" v:verticalText="true"/>
			<v:textRect cx="12.189" cy="462.697" width="24.38" height="153.071"/>
			<rect x="0" y="386.161" width="24.378" height="153.071" class="st1"/>
			<text x="12.19" y="390.7" writing-mode="tb-rl" class="st2" v:langID="1028"><v:paragraph v:horizAlign="1"/><v:tabList/>此有故彼有「有支」</text>		</g>
		<g id="shape7-55" v:mID="7" v:groupContext="shape" transform="translate(273.048,-96.4284)">
			<title>工作表.7</title>
			<desc>此生故彼生「緣生」</desc>
			<v:textBlock v:margins="rect(4,4,4,4)" v:tabSpace="42.5197" v:verticalText="true"/>
			<v:textRect cx="12.189" cy="461.851" width="24.38" height="154.763"/>
			<rect x="0" y="384.47" width="24.378" height="154.763" class="st1"/>
			<text x="12.19" y="389.85" writing-mode="tb-rl" class="st2" v:langID="1028"><v:paragraph v:horizAlign="1"/><v:tabList/>此生故彼生「緣生」</text>		</g>
		<g id="shape25-58" v:mID="25" v:groupContext="shape" transform="translate(138.718,-34.8625)">
			<title>工作表.25</title>
			<desc>存在則「四有」</desc>
			<v:textBlock v:margins="rect(4,4,4,4)" v:tabSpace="42.5197" v:verticalText="true"/>
			<v:textRect cx="61.4495" cy="478.809" width="122.9" height="120.846"/>
			<rect x="0" y="418.386" width="122.899" height="120.846" class="st1"/>
			<text x="61.45" y="422.81" writing-mode="tb-rl" class="st2" v:langID="1028"><v:paragraph v:horizAlign="1"/><v:tabList/>存在則「四有」</text>		</g>
		<g id="shape26-61" v:mID="26" v:groupContext="shape" transform="translate(81.1122,-34.3406)">
			<title>工作表.26</title>
			<desc>得體則「三有」</desc>
			<v:textBlock v:margins="rect(4,4,4,4)" v:tabSpace="42.5197" v:verticalText="true"/>
			<v:textRect cx="62.3944" cy="478.287" width="124.79" height="121.89"/>
			<rect x="0" y="417.343" width="124.789" height="121.89" class="st1"/>
			<text x="62.39" y="422.29" writing-mode="tb-rl" class="st2" v:langID="1028"><v:paragraph v:horizAlign="1"/><v:tabList/>得體則「三有」</text>		</g>
		<g id="shape29-64" v:mID="29" v:groupContext="shape" transform="translate(55.6305,-418.435)">
			<title>工作表.29</title>
			<path d="M0 539.23 L92.57 539.23" class="st3"/>
		</g>
		<g id="shape32-67" v:mID="32" v:groupContext="shape" transform="translate(723.839,164.734) rotate(90)">
			<title>工作表.32</title>
			<path d="M0 539.23 L12.76 539.23" class="st4"/>
		</g>
		<g id="shape35-70" v:mID="35" v:groupContext="shape" transform="translate(74.8852,-361.737) rotate(0.238731)">
			<title>工作表.35</title>
			<path d="M0 539.23 L226.77 539.23" class="st4"/>
		</g>
		<g id="shape36-73" v:mID="36" v:groupContext="shape" transform="translate(611.945,195.832) rotate(91.9491)">
			<title>工作表.36</title>
			<path d="M0 539.23 L11.34 539.23" class="st4"/>
		</g>
		<g id="shape37-76" v:mID="37" v:groupContext="shape" transform="translate(837.41,151.604) rotate(87.1482)">
			<title>工作表.37</title>
			<path d="M0 539.23 L11.35 539.23" class="st4"/>
		</g>
		<g id="shape38-79" v:mID="38" v:groupContext="shape" transform="translate(866.989,95.2854) rotate(90)">
			<title>工作表.38</title>
			<path d="M0 539.23 L11.34 539.23" class="st4"/>
		</g>
		<g id="shape39-82" v:mID="39" v:groupContext="shape" transform="translate(316.418,-405.405)">
			<title>工作表.39</title>
			<desc>心</desc>
			<v:textBlock v:margins="rect(4,4,4,4)" v:tabSpace="42.5197" v:verticalText="true"/>
			<v:textRect cx="11.607" cy="525.631" width="23.22" height="27.2035"/>
			<rect x="0" y="512.029" width="23.214" height="27.2035" class="st1"/>
			<text x="11.61" y="517.63" writing-mode="tb-rl" class="st2" v:langID="1028"><v:paragraph v:horizAlign="1"/><v:tabList/>心</text>		</g>
		<g id="shape40-85" v:mID="40" v:groupContext="shape" transform="translate(32.103,-291.162)">
			<title>工作表.40</title>
			<desc>偏此立唯物</desc>
			<v:textBlock v:margins="rect(4,4,4,4)" v:tabSpace="42.5197" v:verticalText="true"/>
			<v:textRect cx="12.189" cy="474.321" width="24.38" height="129.822"/>
			<rect x="0" y="409.41" width="24.378" height="129.822" class="st1"/>
			<text x="12.19" y="418.32" writing-mode="tb-rl" class="st2" v:langID="1028"><v:paragraph v:horizAlign="1"/><v:tabList/>（偏此立唯物）</text>		</g>
		<g id="shape41-88" v:mID="41" v:groupContext="shape" transform="translate(32.103,-435.443)">
			<title>工作表.41</title>
			<desc>外則器界</desc>
			<v:textBlock v:margins="rect(4,4,4,4)" v:tabSpace="42.5197" v:verticalText="true"/>
			<v:textRect cx="12.189" cy="496.713" width="24.38" height="85.0394"/>
			<rect x="0" y="454.193" width="24.378" height="85.0394" class="st1"/>
			<text x="12.19" y="464.71" writing-mode="tb-rl" class="st2" v:langID="1028"><v:paragraph v:horizAlign="1"/><v:tabList/>外則器界</text>		</g>
		<g id="shape21-91" v:mID="21" v:groupContext="shape" transform="translate(31.9763,-405.405)">
			<title>工作表.21</title>
			<desc>色</desc>
			<v:textBlock v:margins="rect(4,4,4,4)" v:tabSpace="42.5197" v:verticalText="true"/>
			<v:textRect cx="12.3157" cy="525.631" width="24.64" height="27.2035"/>
			<rect x="0" y="512.029" width="24.6314" height="27.2035" class="st1"/>
			<text x="12.32" y="517.63" writing-mode="tb-rl" class="st2" v:langID="1028"><v:paragraph v:horizAlign="1"/><v:tabList/>色</text>		</g>
		<g id="shape42-94" v:mID="42" v:groupContext="shape" transform="translate(583.524,95.2854) rotate(90)">
			<title>工作表.42</title>
			<path d="M0 539.23 L11.34 539.23" class="st4"/>
		</g>
		<g id="shape44-97" v:mID="44" v:groupContext="shape" transform="translate(824.469,276.703) rotate(90)">
			<title>工作表.44</title>
			<path d="M0 539.23 L14.17 539.23" class="st4"/>
		</g>
		<g id="shape45-100" v:mID="45" v:groupContext="shape" transform="translate(852.816,276.703) rotate(90)">
			<title>工作表.45</title>
			<path d="M0 539.23 L14.17 539.23" class="st4"/>
		</g>
		<g id="shape46-103" v:mID="46" v:groupContext="shape" transform="translate(285.237,-262.53)">
			<title>工作表.46</title>
			<path d="M0 539.23 L28.35 539.23" class="st4"/>
		</g>
		<g id="shape47-106" v:mID="47" v:groupContext="shape" transform="translate(-239.822,276.703) rotate(-90)">
			<title>工作表.47</title>
			<path d="M0 539.23 L22.68 539.23" class="st4"/>
		</g>
		<g id="shape50-109" v:mID="50" v:groupContext="shape" transform="translate(597.697,276.703) rotate(90)">
			<title>工作表.50</title>
			<path d="M0 539.23 L14.17 539.23" class="st4"/>
		</g>
		<g id="shape51-112" v:mID="51" v:groupContext="shape" transform="translate(626.044,276.703) rotate(90)">
			<title>工作表.51</title>
			<path d="M0 539.23 L14.17 539.23" class="st4"/>
		</g>
		<g id="shape52-115" v:mID="52" v:groupContext="shape" transform="translate(58.4652,-262.53)">
			<title>工作表.52</title>
			<path d="M0 539.23 L28.35 539.23" class="st4"/>
		</g>
		<g id="shape53-118" v:mID="53" v:groupContext="shape" transform="translate(-466.594,276.703) rotate(-90)">
			<title>工作表.53</title>
			<path d="M0 539.23 L22.68 539.23" class="st4"/>
		</g>
		<g id="shape55-121" v:mID="55" v:groupContext="shape" transform="translate(668.564,276.703) rotate(90)">
			<title>工作表.55</title>
			<path d="M0 539.23 L14.17 539.23" class="st4"/>
		</g>
		<g id="shape56-124" v:mID="56" v:groupContext="shape" transform="translate(781.949,276.703) rotate(90)">
			<title>工作表.56</title>
			<path d="M0 539.23 L14.17 539.23" class="st4"/>
		</g>
		<g id="shape57-127" v:mID="57" v:groupContext="shape" transform="translate(129.331,-262.53)">
			<title>工作表.57</title>
			<path d="M0 539.23 L113.39 539.23" class="st4"/>
		</g>
		<g id="shape58-130" v:mID="58" v:groupContext="shape" transform="translate(-353.208,276.703) rotate(-90)">
			<title>工作表.58</title>
			<path d="M0 539.23 L22.68 539.23" class="st4"/>
		</g>
		<g id="shape28-133" v:mID="28" v:groupContext="shape" transform="translate(115.158,-157.362)">
			<title>工作表.28</title>
			<path d="M0 539.23 L28.35 539.23" class="st4"/>
		</g>
		<g id="shape34-136" v:mID="34" v:groupContext="shape" transform="translate(668.564,375.256) rotate(90)">
			<title>工作表.34</title>
			<path d="M0 539.23 L6.61 539.23" class="st4"/>
		</g>
		<g id="shape59-139" v:mID="59" v:groupContext="shape" transform="translate(654.39,381.585) rotate(90)">
			<title>工作表.59</title>
			<path d="M0 539.23 L6.61 539.23" class="st4"/>
		</g>
		<g id="shape60-142" v:mID="60" v:groupContext="shape" transform="translate(682.737,381.87) rotate(90)">
			<title>工作表.60</title>
			<path d="M0 539.23 L6.61 539.23" class="st4"/>
		</g>
		<g id="shape63-145" v:mID="63" v:groupContext="shape" transform="translate(171.851,-157.648)">
			<title>工作表.63</title>
			<path d="M0 539.23 L28.35 539.23" class="st4"/>
		</g>
		<g id="shape64-148" v:mID="64" v:groupContext="shape" transform="translate(725.257,374.97) rotate(90)">
			<title>工作表.64</title>
			<path d="M0 539.23 L6.61 539.23" class="st4"/>
		</g>
		<g id="shape65-151" v:mID="65" v:groupContext="shape" transform="translate(711.083,381.299) rotate(90)">
			<title>工作表.65</title>
			<path d="M0 539.23 L6.61 539.23" class="st4"/>
		</g>
		<g id="shape66-154" v:mID="66" v:groupContext="shape" transform="translate(739.43,381.585) rotate(90)">
			<title>工作表.66</title>
			<path d="M0 539.23 L6.61 539.23" class="st4"/>
		</g>
		<g id="shape54-157" v:mID="54" v:groupContext="shape" transform="translate(228.544,-157.648)">
			<title>工作表.54</title>
			<path d="M0 539.23 L28.35 539.23" class="st4"/>
		</g>
		<g id="shape67-160" v:mID="67" v:groupContext="shape" transform="translate(781.949,374.97) rotate(90)">
			<title>工作表.67</title>
			<path d="M0 539.23 L6.61 539.23" class="st4"/>
		</g>
		<g id="shape68-163" v:mID="68" v:groupContext="shape" transform="translate(767.776,381.299) rotate(90)">
			<title>工作表.68</title>
			<path d="M0 539.23 L6.61 539.23" class="st4"/>
		</g>
		<g id="shape69-166" v:mID="69" v:groupContext="shape" transform="translate(796.123,381.585) rotate(90)">
			<title>工作表.69</title>
			<path d="M0 539.23 L6.61 539.23" class="st4"/>
		</g>
		<g id="shape70-169" v:mID="70" v:groupContext="shape" transform="translate(225.709,-418.435)">
			<title>工作表.70</title>
			<path d="M0 539.23 L93.54 539.23" class="st3"/>
		</g>
		<g id="shape3-172" v:mID="3" v:groupContext="shape" transform="translate(285.237,-453.594)">
			<title>工作表.3</title>
			<desc>炷</desc>
			<v:textBlock v:margins="rect(4,4,4,4)" v:tabSpace="42.5197" v:verticalText="true"/>
			<v:textRect cx="14.6134" cy="525.631" width="29.23" height="27.2035"/>
			<rect x="0" y="512.029" width="29.2269" height="27.2035" class="st1"/>
			<text x="14.61" y="517.63" writing-mode="tb-rl" class="st2" v:langID="1028"><v:paragraph v:horizAlign="1"/><v:tabList/>炷</text>		</g>
		<g id="shape4-175" v:mID="4" v:groupContext="shape" transform="translate(242.717,-453.594)">
			<title>工作表.4</title>
			<desc>焰</desc>
			<v:textBlock v:margins="rect(4,4,4,4)" v:tabSpace="42.5197" v:verticalText="true"/>
			<v:textRect cx="12.8901" cy="525.631" width="25.79" height="27.2035"/>
			<rect x="0" y="512.029" width="25.7803" height="27.2035" class="st1"/>
			<text x="12.89" y="517.63" writing-mode="tb-rl" class="st2" v:langID="1028"><v:paragraph v:horizAlign="1"/><v:tabList/>焰</text>		</g>
		<g id="shape30-178" v:mID="30" v:groupContext="shape" transform="translate(262.56,-467.767)">
			<title>工作表.30</title>
			<path d="M0 539.23 L28.35 539.23" class="st5"/>
		</g>
		<g id="shape19-184" v:mID="19" v:groupContext="shape" transform="translate(103.755,-453.594)">
			<title>工作表.19</title>
			<desc>焰</desc>
			<v:textBlock v:margins="rect(4,4,4,4)" v:tabSpace="42.5197" v:verticalText="true"/>
			<v:textRect cx="12.7881" cy="525.631" width="25.58" height="27.2035"/>
			<rect x="0" y="512.029" width="25.5762" height="27.2035" class="st1"/>
			<text x="12.79" y="517.63" writing-mode="tb-rl" class="st2" v:langID="1028"><v:paragraph v:horizAlign="1"/><v:tabList/>焰</text>		</g>
		<g id="shape20-187" v:mID="20" v:groupContext="shape" transform="translate(60.7629,-453.594)">
			<title>工作表.20</title>
			<desc>光</desc>
			<v:textBlock v:margins="rect(4,4,4,4)" v:tabSpace="42.5197" v:verticalText="true"/>
			<v:textRect cx="11.607" cy="525.631" width="23.22" height="27.2035"/>
			<rect x="0" y="512.029" width="23.214" height="27.2035" class="st1"/>
			<text x="11.61" y="517.63" writing-mode="tb-rl" class="st2" v:langID="1028"><v:paragraph v:horizAlign="1"/><v:tabList/>光</text>		</g>
		<g id="shape31-190" v:mID="31" v:groupContext="shape" transform="translate(109.489,610.698) rotate(180)">
			<title>工作表.31</title>
			<path d="M0 539.23 L28.35 539.23" class="st5"/>
		</g>
		<g id="shape71-195" v:mID="71" v:groupContext="shape" transform="translate(142.087,-374.498)">
			<title>工作表.71</title>
			<path d="M28.35 417.34 L56.69 417.34 L56.69 481.12 L84.16 481.12 L84.16 509.47 L56.69 509.47 L56.69 539.23 L28.35 539.23
						 L28.35 508.33 L0 508.33 L0 481.12 L27.91 481.12 L28.35 417.34 Z" class="st7"/>
		</g>
		<g id="shape72-197" v:mID="72" v:groupContext="shape" transform="translate(-369.239,133.828) rotate(-90)">
			<title>工作表.72</title>
			<path d="M0 539.23 L28.35 539.23" class="st3"/>
		</g>
		<g id="shape73-200" v:mID="73" v:groupContext="shape" transform="translate(-340.452,134.97) rotate(-90)">
			<title>工作表.73</title>
			<path d="M0 539.23 L28.35 539.23" class="st3"/>
		</g>
	</g>
</svg>
