<?xml version="1.0" encoding="UTF-8" standalone="no"?>
<!DOCTYPE svg PUBLIC "-//W3C//DTD SVG 1.0//EN" "http://www.w3.org/TR/2001/REC-SVG-20010904/DTD/svg10.dtd">
<!-- 由 Microsoft Visio 11.0, SVG Export, v1.0 產生 y33.0303.svg Page-1 -->
<svg xmlns="http://www.w3.org/2000/svg" xmlns:xlink="http://www.w3.org/1999/xlink" xmlns:ev="http://www.w3.org/2001/xml-events"
		xmlns:v="http://schemas.microsoft.com/visio/2003/SVGExtensions/" width="8.79549in" height="3.4539in"
		viewBox="0 0 633.276 248.681" xml:space="preserve" color-interpolation-filters="sRGB" class="st6">
	<v:documentProperties v:langID="1028" v:metric="true" v:viewMarkup="false">
		<v:userDefs>
			<v:ud v:nameU="msvSubprocessMaster" v:prompt="" v:val="VT4(Box)"/>
			<v:ud v:nameU="msvNoAutoConnect" v:val="VT0(1):26"/>
		</v:userDefs>
	</v:documentProperties>

	<style type="text/css">
	<![CDATA[
		.st1 {fill:none;stroke:none;stroke-linecap:round;stroke-linejoin:round;stroke-width:0.75}
		.st2 {fill:#000000;font-family:新細明體;font-size:1.33333em}
		.st3 {stroke:#000000;stroke-linecap:round;stroke-linejoin:round;stroke-width:1}
		.st4 {stroke:#000000;stroke-dasharray:3,3;stroke-linecap:round;stroke-linejoin:round;stroke-width:1}
		.st5 {stroke:#ffffff;stroke-linecap:round;stroke-linejoin:round;stroke-opacity:0;stroke-width:1}
		.st6 {fill:none;fill-rule:evenodd;font-size:12px;overflow:visible;stroke-linecap:square;stroke-miterlimit:3}
	]]>
	</style>

	<g v:mID="0" v:index="1" v:groupContext="foregroundPage">
		<title>頁-1</title>
		<v:pageProperties v:drawingScale="0.0393701" v:pageScale="0.0393701" v:drawingUnits="24" v:shadowOffsetX="8.50394"
				v:shadowOffsetY="-8.50394"/>
		<g id="group37-1" transform="translate(365.594,229.931) rotate(-90)" v:mID="37" v:groupContext="group">
			<title>工作表.37</title>
			<g id="shape1-2" v:mID="1" v:groupContext="shape" transform="translate(369.154,-321.083) rotate(90)">
				<title>工作表.1</title>
				<desc>常識之真實</desc>
				<v:textBlock v:margins="rect(4,4,4,4)" v:tabSpace="42.5197"/>
				<v:textRect cx="45.3543" cy="203.327" width="90.71" height="90.7087"/>
				<rect x="0" y="157.972" width="90.7087" height="90.7087" class="st1"/>
				<text x="5.35" y="208.13" class="st2" v:langID="1028"><v:paragraph v:horizAlign="1"/><v:tabList/>常識之真實</text>			</g>
			<g id="shape2-5" v:mID="2" v:groupContext="shape" transform="translate(393.248,-141.083) rotate(90)">
				<title>工作表.2</title>
				<desc>實有</desc>
				<v:textBlock v:margins="rect(4,4,4,4)" v:tabSpace="42.5197"/>
				<v:textRect cx="21.2598" cy="227.421" width="42.52" height="42.5197"/>
				<rect x="0" y="206.161" width="42.5197" height="42.5197" class="st1"/>
				<text x="5.26" y="232.22" class="st2" v:langID="1028"><v:paragraph v:horizAlign="1"/><v:tabList/>實有</text>			</g>
			<g id="shape3-8" v:mID="3" v:groupContext="shape" transform="translate(377.657,-34.7835) rotate(90)">
				<title>工作表.3</title>
				<desc>三世實有</desc>
				<v:textBlock v:margins="rect(4,4,4,4)" v:tabSpace="42.5197"/>
				<v:textRect cx="36.8504" cy="211.831" width="73.71" height="73.7008"/>
				<rect x="0" y="174.98" width="73.7008" height="73.7008" class="st1"/>
				<text x="4.85" y="216.63" class="st2" v:langID="1028"><v:paragraph v:horizAlign="1"/><v:tabList/>三世實有</text>			</g>
			<g id="shape4-11" v:mID="4" v:groupContext="shape" transform="translate(386.161,135.295) rotate(90)">
				<title>工作表.4</title>
				<desc>上座系</desc>
				<v:textBlock v:margins="rect(4,4,4,4)" v:tabSpace="42.5197"/>
				<v:textRect cx="28.3465" cy="220.335" width="56.7" height="56.6929"/>
				<rect x="0" y="191.988" width="56.6929" height="56.6929" class="st1"/>
				<text x="4.35" y="225.13" class="st2" v:langID="1028"><v:paragraph v:horizAlign="1"/><v:tabList/>上座系</text>			</g>
			<g id="shape5-14" v:mID="5" v:groupContext="shape" transform="translate(349.311,-34.7835) rotate(90)">
				<title>工作表.5</title>
				<desc>現在實有</desc>
				<v:textBlock v:margins="rect(4,4,4,4)" v:tabSpace="42.5197"/>
				<v:textRect cx="36.8504" cy="211.831" width="73.71" height="73.7008"/>
				<rect x="0" y="174.98" width="73.7008" height="73.7008" class="st1"/>
				<text x="4.85" y="216.63" class="st2" v:langID="1028"><v:paragraph v:horizAlign="1"/><v:tabList/>現在實有</text>			</g>
			<g id="shape6-17" v:mID="6" v:groupContext="shape" transform="translate(357.815,135.295) rotate(90)">
				<title>工作表.6</title>
				<desc>大眾系</desc>
				<v:textBlock v:margins="rect(4,4,4,4)" v:tabSpace="42.5197"/>
				<v:textRect cx="28.3465" cy="220.335" width="56.7" height="56.6929"/>
				<rect x="0" y="191.988" width="56.6929" height="56.6929" class="st1"/>
				<text x="4.35" y="225.13" class="st2" v:langID="1028"><v:paragraph v:horizAlign="1"/><v:tabList/>大眾系</text>			</g>
			<g id="shape7-20" v:mID="7" v:groupContext="shape" transform="translate(312.461,-321.083) rotate(90)">
				<title>工作表.7</title>
				<desc>理智之真實</desc>
				<v:textBlock v:margins="rect(4,4,4,4)" v:tabSpace="42.5197"/>
				<v:textRect cx="45.3543" cy="203.327" width="90.71" height="90.7087"/>
				<rect x="0" y="157.972" width="90.7087" height="90.7087" class="st1"/>
				<text x="5.35" y="208.13" class="st2" v:langID="1028"><v:paragraph v:horizAlign="1"/><v:tabList/>理智之真實</text>			</g>
			<g id="shape8-23" v:mID="8" v:groupContext="shape" transform="translate(336.555,-141.083) rotate(90)">
				<title>工作表.8</title>
				<desc>幻有</desc>
				<v:textBlock v:margins="rect(4,4,4,4)" v:tabSpace="42.5197"/>
				<v:textRect cx="21.2598" cy="227.421" width="42.52" height="42.5197"/>
				<rect x="0" y="206.161" width="42.5197" height="42.5197" class="st1"/>
				<text x="5.26" y="232.22" class="st2" v:langID="1028"><v:paragraph v:horizAlign="1"/><v:tabList/>幻有</text>			</g>
			<g id="shape9-26" v:mID="9" v:groupContext="shape" transform="translate(305.374,-34.7835) rotate(90)">
				<title>工作表.9</title>
				<desc>三世性空幻有</desc>
				<v:textBlock v:margins="rect(4,4,4,4)" v:tabSpace="42.5197"/>
				<v:textRect cx="52.4409" cy="196.24" width="104.89" height="104.882"/>
				<rect x="0" y="143.799" width="104.882" height="104.882" class="st1"/>
				<text x="4.44" y="201.04" class="st2" v:langID="1028"><v:paragraph v:horizAlign="1"/><v:tabList/>三世性空幻有</text>			</g>
			<g id="shape10-29" v:mID="10" v:groupContext="shape" transform="translate(312.461,135.295) rotate(90)">
				<title>工作表.10</title>
				<desc>性空唯名系</desc>
				<v:textBlock v:margins="rect(4,4,4,4)" v:tabSpace="42.5197"/>
				<v:textRect cx="45.3543" cy="203.327" width="90.71" height="90.7087"/>
				<rect x="0" y="157.972" width="90.7087" height="90.7087" class="st1"/>
				<text x="5.35" y="208.13" class="st2" v:langID="1028"><v:paragraph v:horizAlign="1"/><v:tabList/>性空唯名系</text>			</g>
			<g id="shape11-32" v:mID="11" v:groupContext="shape" transform="translate(277.028,-34.7835) rotate(90)">
				<title>工作表.11</title>
				<desc>現在不空幻有</desc>
				<v:textBlock v:margins="rect(4,4,4,4)" v:tabSpace="42.5197"/>
				<v:textRect cx="52.4409" cy="196.24" width="104.89" height="104.882"/>
				<rect x="0" y="143.799" width="104.882" height="104.882" class="st1"/>
				<text x="4.44" y="201.04" class="st2" v:langID="1028"><v:paragraph v:horizAlign="1"/><v:tabList/>現在不空幻有</text>			</g>
			<g id="shape12-35" v:mID="12" v:groupContext="shape" transform="translate(284.114,135.295) rotate(90)">
				<title>工作表.12</title>
				<desc>虛妄唯識系</desc>
				<v:textBlock v:margins="rect(4,4,4,4)" v:tabSpace="42.5197"/>
				<v:textRect cx="45.3543" cy="203.327" width="90.71" height="90.7087"/>
				<rect x="0" y="157.972" width="90.7087" height="90.7087" class="st1"/>
				<text x="5.35" y="208.13" class="st2" v:langID="1028"><v:paragraph v:horizAlign="1"/><v:tabList/>虛妄唯識系</text>			</g>
			<g id="shape13-38" v:mID="13" v:groupContext="shape" transform="translate(248.681,-319.665) rotate(90)">
				<title>工作表.13</title>
				<desc>形而上之真實</desc>
				<v:textBlock v:margins="rect(4,4,4,4)" v:tabSpace="42.5197"/>
				<v:textRect cx="52.4409" cy="196.24" width="104.89" height="104.882"/>
				<rect x="0" y="143.799" width="104.882" height="104.882" class="st1"/>
				<text x="4.44" y="201.04" class="st2" v:langID="1028"><v:paragraph v:horizAlign="1"/><v:tabList/>形而上之真實</text>			</g>
			<g id="shape14-41" v:mID="14" v:groupContext="shape" transform="translate(279.862,-141.083) rotate(90)">
				<title>工作表.14</title>
				<desc>妙有</desc>
				<v:textBlock v:margins="rect(4,4,4,4)" v:tabSpace="42.5197"/>
				<v:textRect cx="21.2598" cy="227.421" width="42.52" height="42.5197"/>
				<rect x="0" y="206.161" width="42.5197" height="42.5197" class="st1"/>
				<text x="5.26" y="232.22" class="st2" v:langID="1028"><v:paragraph v:horizAlign="1"/><v:tabList/>妙有</text>			</g>
			<g id="shape15-44" v:mID="15" v:groupContext="shape" transform="translate(248.681,-34.7835) rotate(90)">
				<title>工作表.15</title>
				<desc>三世不空妙有</desc>
				<v:textBlock v:margins="rect(4,4,4,4)" v:tabSpace="42.5197"/>
				<v:textRect cx="52.4409" cy="196.24" width="104.89" height="104.882"/>
				<rect x="0" y="143.799" width="104.882" height="104.882" class="st1"/>
				<text x="4.44" y="201.04" class="st2" v:langID="1028"><v:paragraph v:horizAlign="1"/><v:tabList/>三世不空妙有</text>			</g>
			<g id="shape16-47" v:mID="16" v:groupContext="shape" transform="translate(255.768,135.295) rotate(90)">
				<title>工作表.16</title>
				<desc>真常唯心系</desc>
				<v:textBlock v:margins="rect(4,4,4,4)" v:tabSpace="42.5197"/>
				<v:textRect cx="45.3543" cy="203.327" width="90.71" height="90.7087"/>
				<rect x="0" y="157.972" width="90.7087" height="90.7087" class="st1"/>
				<text x="5.35" y="208.13" class="st2" v:langID="1028"><v:paragraph v:horizAlign="1"/><v:tabList/>真常唯心系</text>			</g>
			<g id="shape17-50" v:mID="17" v:groupContext="shape" transform="translate(414.508,-233.209) rotate(90)">
				<title>工作表.17</title>
				<path d="M0 248.68 L93.54 248.68" class="st3"/>
			</g>
			<g id="shape18-53" v:mID="18" v:groupContext="shape" transform="translate(301.122,-219.035) rotate(90)">
				<title>工作表.18</title>
				<path d="M0 248.68 L79.37 248.68" class="st3"/>
			</g>
			<g id="shape19-56" v:mID="19" v:groupContext="shape" transform="translate(357.815,-233.209) rotate(90)">
				<title>工作表.19</title>
				<path d="M0 248.68 L93.54 248.68" class="st3"/>
			</g>
			<g id="shape20-59" v:mID="20" v:groupContext="shape" transform="translate(301.122,-102.815) rotate(90)">
				<title>工作表.20</title>
				<path d="M0 248.68 L70.87 248.68" class="st3"/>
			</g>
			<g id="shape21-62" v:mID="21" v:groupContext="shape" transform="translate(357.815,-102.815) rotate(90)">
				<title>工作表.21</title>
				<path d="M0 248.68 L70.87 248.68" class="st3"/>
			</g>
			<g id="shape22-65" v:mID="22" v:groupContext="shape" transform="translate(396.721,-10.4571) rotate(111.801)">
				<title>工作表.22</title>
				<path d="M0 248.68 L76.33 248.68" class="st3"/>
			</g>
			<g id="shape23-68" v:mID="23" v:groupContext="shape" transform="translate(414.508,-102.815) rotate(90)">
				<title>工作表.23</title>
				<path d="M0 248.68 L70.87 248.68" class="st3"/>
			</g>
			<g id="shape24-71" v:mID="24" v:groupContext="shape" transform="translate(283.336,-195.173) rotate(68.1986)">
				<title>工作表.24</title>
				<path d="M0 248.68 L76.33 248.68" class="st3"/>
			</g>
			<g id="shape25-74" v:mID="25" v:groupContext="shape" transform="translate(340.028,-195.173) rotate(68.1986)">
				<title>工作表.25</title>
				<path d="M0 248.68 L76.33 248.68" class="st4"/>
			</g>
			<g id="shape26-77" v:mID="26" v:groupContext="shape" transform="translate(340.028,-10.4571) rotate(111.801)">
				<title>工作表.26</title>
				<path d="M0 248.68 L76.33 248.68" class="st4"/>
			</g>
			<g id="shape27-80" v:mID="27" v:groupContext="shape" transform="translate(376.593,-32.2353) rotate(74.0546)">
				<title>工作表.27</title>
				<path d="M0 248.68 L103.18 248.68" class="st4"/>
			</g>
			<g id="shape28-83" v:mID="28" v:groupContext="shape" transform="translate(414.508,36.0827) rotate(90)">
				<title>工作表.28</title>
				<path d="M0 248.68 L99.21 248.68" class="st4"/>
			</g>
			<g id="shape29-86" v:mID="29" v:groupContext="shape" transform="translate(357.815,67.2638) rotate(90)">
				<title>工作表.29</title>
				<path d="M0 248.68 L68.03 248.68" class="st4"/>
			</g>
			<g id="shape30-89" v:mID="30" v:groupContext="shape" transform="translate(386.161,36.0827) rotate(90)">
				<title>工作表.30</title>
				<path d="M0 248.68 L99.21 248.68" class="st4"/>
			</g>
			<g id="shape31-92" v:mID="31" v:groupContext="shape" transform="translate(301.122,67.2638) rotate(90)">
				<title>工作表.31</title>
				<path d="M0 248.68 L68.03 248.68" class="st4"/>
			</g>
			<g id="shape32-95" v:mID="32" v:groupContext="shape" transform="translate(329.469,67.2638) rotate(90)">
				<title>工作表.32</title>
				<path d="M0 248.68 L68.03 248.68" class="st4"/>
			</g>
			<g id="shape33-98" v:mID="33" v:groupContext="shape" transform="translate(457.028,-346.594) rotate(90)">
				<title>工作表.33</title>
				<path d="M0 248.68 L595.28 248.68" class="st5"/>
			</g>
			<g id="shape34-101" v:mID="34" v:groupContext="shape" transform="translate(258.602,-346.594) rotate(90)">
				<title>工作表.34</title>
				<path d="M0 248.68 L595.28 248.68" class="st5"/>
			</g>
			<g id="shape35-104" v:mID="35" v:groupContext="shape" transform="translate(9.92126,-595.276)">
				<title>工作表.35</title>
				<path d="M0 248.68 L198.43 248.68" class="st5"/>
			</g>
			<g id="shape36-107" v:mID="36" v:groupContext="shape" transform="translate(9.92126,0)">
				<title>工作表.36</title>
				<path d="M0 248.68 L198.43 248.68" class="st5"/>
			</g>
		</g>
	</g>
</svg>
