<?xml version="1.0" encoding="UTF-8" standalone="no"?>
<!DOCTYPE svg PUBLIC "-//W3C//DTD SVG 1.0//EN" "http://www.w3.org/TR/2001/REC-SVG-20010904/DTD/svg10.dtd">
<!-- 由 Microsoft Visio 11.0, SVG Export, v1.0 產生 y33.0138.svg 頁-1 -->
<svg xmlns="http://www.w3.org/2000/svg" xmlns:xlink="http://www.w3.org/1999/xlink" xmlns:ev="http://www.w3.org/2001/xml-events"
		xmlns:v="http://schemas.microsoft.com/visio/2003/SVGExtensions/" width="9.27975in" height="14.3944in"
		viewBox="0 0 668.142 1036.4" xml:space="preserve" color-interpolation-filters="sRGB" class="st6">
	<v:documentProperties v:langID="1028" v:metric="true" v:viewMarkup="false"/>

	<style type="text/css">
	<![CDATA[
		.st1 {fill:none;stroke:none;stroke-linecap:round;stroke-linejoin:round;stroke-width:0.75}
		.st2 {fill:#000000;font-family:新細明體;font-size:1.33333em}
		.st3 {stroke:#000000;stroke-linecap:round;stroke-linejoin:round;stroke-width:1.5}
		.st4 {stroke:#000000;stroke-linecap:round;stroke-linejoin:round;stroke-width:1}
		.st5 {stroke:#ffffff;stroke-linecap:round;stroke-linejoin:round;stroke-opacity:0;stroke-width:1}
		.st6 {fill:none;fill-rule:evenodd;font-size:12px;overflow:visible;stroke-linecap:square;stroke-miterlimit:3}
	]]>
	</style>

	<g v:mID="0" v:index="1" v:groupContext="foregroundPage">
		<title>頁-1</title>
		<v:pageProperties v:drawingScale="0.0393701" v:pageScale="0.0393701" v:drawingUnits="24" v:shadowOffsetX="8.50394"
				v:shadowOffsetY="-8.50394"/>
		<g id="group103-1" transform="translate(-369.254,1035.4) rotate(-90)" v:mID="103" v:groupContext="group">
			<title>工作表.103</title>
			<g id="shape1-2" v:mID="1" v:groupContext="shape" transform="translate(1909.47,435.451) rotate(90)">
				<title>工作表.1</title>
				<desc>舍利弗毗曇</desc>
				<v:textBlock v:margins="rect(4,4,4,4)" v:tabSpace="42.5197"/>
				<v:textRect cx="76.5354" cy="959.86" width="153.08" height="153.071"/>
				<rect x="0" y="883.325" width="153.071" height="153.071" class="st1"/>
				<text x="0.25em 2.267em 4.283em 6.3em 8.317em" y="964.66" class="st2" v:langID="1028"><v:paragraph v:horizAlign="4"/><v:tabList/>舍利弗毗曇</text>			</g>
			<g id="shape2-5" v:mID="2" v:groupContext="shape" transform="translate(1909.47,619.703) rotate(90)">
				<title>工作表.2</title>
				<desc>甘露味毗曇</desc>
				<v:textBlock v:margins="rect(4,4,4,4)" v:tabSpace="42.5197"/>
				<v:textRect cx="76.5354" cy="959.86" width="153.08" height="153.071"/>
				<rect x="0" y="883.325" width="153.071" height="153.071" class="st1"/>
				<text x="0.25em 2.267em 4.283em 6.3em 8.317em" y="964.66" class="st2" v:langID="1028"><v:paragraph v:horizAlign="4"/><v:tabList/>甘露味毗曇</text>			</g>
			<g id="shape6-8" v:mID="6" v:groupContext="shape" transform="translate(1824.43,435.451) rotate(90)">
				<title>工作表.6</title>
				<desc>非問一　界總集</desc>
				<v:textBlock v:margins="rect(4,4,4,4)" v:tabSpace="42.5197"/>
				<v:textRect cx="76.5354" cy="959.86" width="153.08" height="153.071"/>
				<rect x="0" y="883.325" width="153.071" height="153.071" class="st1"/>
				<text x="4.54" y="964.66" class="st2" v:langID="1028"><v:paragraph v:horizAlign="1"/><v:tabList/>非問一　界（總集）</text>			</g>
			<g id="shape8-11" v:mID="8" v:groupContext="shape" transform="translate(1855.61,618.285) rotate(90)">
				<title>工作表.8</title>
				<desc>五　陰持入</desc>
				<v:textBlock v:margins="rect(4,4,4,4)" v:tabSpace="42.5197"/>
				<v:textRect cx="45.3543" cy="991.041" width="90.71" height="90.7087"/>
				<rect x="0" y="945.687" width="90.7087" height="90.7087" class="st1"/>
				<text x="5.35" y="995.84" class="st2" v:langID="1028"><v:paragraph v:horizAlign="1"/><v:tabList/>五　陰持入</text>			</g>
			<g id="shape11-14" v:mID="11" v:groupContext="shape" transform="translate(1753.56,419.86) rotate(90)">
				<title>工作表.11</title>
				<desc>相應分、緒分與行品</desc>
				<v:textBlock v:margins="rect(4,4,4,4)" v:tabSpace="42.5197"/>
				<v:textRect cx="92.126" cy="944.27" width="184.26" height="184.252"/>
				<rect x="0" y="852.144" width="184.252" height="184.252" class="st1"/>
				<text x="4.13" y="949.07" class="st2" v:langID="1028"><v:paragraph v:horizAlign="1"/><v:tabList/>（相應分、緒分，與行品</text>			</g>
			<g id="shape12-17" v:mID="12" v:groupContext="shape" transform="translate(1800.33,435.451) rotate(90)">
				<title>工作表.12</title>
				<desc>相當</desc>
				<v:textBlock v:margins="rect(4,4,4,4)" v:tabSpace="42.5197"/>
				<v:textRect cx="28.3465" cy="1008.05" width="56.7" height="56.6929"/>
				<rect x="0" y="979.703" width="56.6929" height="56.6929" class="st1"/>
				<text x="4.35" y="1012.85" class="st2" v:langID="1028"><v:paragraph v:horizAlign="1"/><v:tabList/>相當）</text>			</g>
			<g id="shape13-20" v:mID="13" v:groupContext="shape" transform="translate(1808.84,619.703) rotate(90)">
				<title>工作表.13</title>
				<desc>六　行</desc>
				<v:textBlock v:margins="rect(4,4,4,4)" v:tabSpace="42.5197"/>
				<v:textRect cx="28.3465" cy="1008.05" width="56.7" height="56.6929"/>
				<rect x="0" y="979.703" width="56.6929" height="56.6929" class="st1"/>
				<text x="4.35" y="1012.85" class="st2" v:langID="1028"><v:paragraph v:horizAlign="1"/><v:tabList/>六　行</text>			</g>
			<g id="shape15-23" v:mID="15" v:groupContext="shape" transform="translate(1725.21,435.451) rotate(90)">
				<title>工作表.15</title>
				<desc>非問二　業總集</desc>
				<v:textBlock v:margins="rect(4,4,4,4)" v:tabSpace="42.5197"/>
				<v:textRect cx="76.5354" cy="959.86" width="153.08" height="153.071"/>
				<rect x="0" y="883.325" width="153.071" height="153.071" class="st1"/>
				<text x="4.54" y="964.66" class="st2" v:langID="1028"><v:paragraph v:horizAlign="1"/><v:tabList/>非問二　業（總集）</text>			</g>
			<g id="shape16-26" v:mID="16" v:groupContext="shape" transform="translate(1773.4,619.703) rotate(90)">
				<title>工作表.16</title>
				<desc>四　業</desc>
				<v:textBlock v:margins="rect(4,4,4,4)" v:tabSpace="42.5197"/>
				<v:textRect cx="28.3465" cy="1008.05" width="56.7" height="56.6929"/>
				<rect x="0" y="979.703" width="56.6929" height="56.6929" class="st1"/>
				<text x="4.35" y="1012.85" class="st2" v:langID="1028"><v:paragraph v:horizAlign="1"/><v:tabList/>四　業</text>			</g>
			<g id="shape18-29" v:mID="18" v:groupContext="shape" transform="translate(1736.55,619.703) rotate(90)">
				<title>工作表.18</title>
				<desc>二　界道</desc>
				<v:textBlock v:margins="rect(4,4,4,4)" v:tabSpace="42.5197"/>
				<v:textRect cx="36.8504" cy="999.545" width="73.71" height="73.7008"/>
				<rect x="0" y="962.695" width="73.7008" height="73.7008" class="st1"/>
				<text x="4.85" y="1004.35" class="st2" v:langID="1028"><v:paragraph v:horizAlign="1"/><v:tabList/>二　界道</text>			</g>
			<g id="shape20-32" v:mID="20" v:groupContext="shape" transform="translate(1701.12,618.285) rotate(90)">
				<title>工作表.20</title>
				<desc>三　住食生</desc>
				<v:textBlock v:margins="rect(4,4,4,4)" v:tabSpace="42.5197"/>
				<v:textRect cx="45.3543" cy="991.041" width="90.71" height="90.7087"/>
				<rect x="0" y="945.687" width="90.7087" height="90.7087" class="st1"/>
				<text x="5.35" y="995.84" class="st2" v:langID="1028"><v:paragraph v:horizAlign="1"/><v:tabList/>三　住食生</text>			</g>
			<g id="shape21-35" v:mID="21" v:groupContext="shape" transform="translate(1645.84,635.293) rotate(90)">
				<title>工作表.21</title>
				<desc>又諦、雜品之一分</desc>
				<v:textBlock v:margins="rect(4,4,4,4)" v:tabSpace="42.5197"/>
				<v:textRect cx="85.0394" cy="951.356" width="170.08" height="170.079"/>
				<rect x="0" y="866.317" width="170.079" height="170.079" class="st1"/>
				<text x="5.04" y="956.16" class="st2" v:langID="1028"><v:paragraph v:horizAlign="1"/><v:tabList/>（又諦、雜品之一分）</text>			</g>
			<g id="shape25-38" v:mID="25" v:groupContext="shape" transform="translate(1591.99,426.947) rotate(90)">
				<title>工作表.25</title>
				<desc>非問三　人總集</desc>
				<v:textBlock v:margins="rect(4,4,4,4)" v:tabSpace="42.5197"/>
				<v:textRect cx="85.0394" cy="951.356" width="170.08" height="170.079"/>
				<rect x="0" y="866.317" width="170.079" height="170.079" class="st1"/>
				<text x="13.04" y="956.16" class="st2" v:langID="1028"><v:paragraph v:horizAlign="1"/><v:tabList/>非問三　人（總集）</text>			</g>
			<g id="shape26-41" v:mID="26" v:groupContext="shape" transform="translate(1617.5,619.703) rotate(90)">
				<title>工作表.26</title>
				<desc>十　三十七無漏人</desc>
				<v:textBlock v:margins="rect(4,4,4,4)" v:tabSpace="42.5197"/>
				<v:textRect cx="68.0315" cy="968.364" width="136.07" height="136.063"/>
				<rect x="0" y="900.333" width="136.063" height="136.063" class="st1"/>
				<text x="4.03" y="973.16" class="st2" v:langID="1028"><v:paragraph v:horizAlign="1"/><v:tabList/>十　三十七無漏人</text>			</g>
			<g id="shape27-44" v:mID="27" v:groupContext="shape" transform="translate(1583.48,618.285) rotate(90)">
				<title>工作表.27</title>
				<desc>又諦、雜品之少分</desc>
				<v:textBlock v:margins="rect(4,4,4,4)" v:tabSpace="42.5197"/>
				<v:textRect cx="85.0394" cy="951.356" width="170.08" height="170.079"/>
				<rect x="0" y="866.317" width="170.079" height="170.079" class="st1"/>
				<text x="5.04" y="956.16" class="st2" v:langID="1028"><v:paragraph v:horizAlign="1"/><v:tabList/>（又諦、雜品之少分）</text>			</g>
			<g id="shape28-47" v:mID="28" v:groupContext="shape" transform="translate(1640.18,802.537) rotate(90)">
				<title>工作表.28</title>
				<desc>五　賢聖品</desc>
				<v:textBlock v:margins="rect(4,4,4,4)" v:tabSpace="42.5197"/>
				<v:textRect cx="45.3543" cy="991.041" width="90.71" height="90.7087"/>
				<rect x="0" y="945.687" width="90.7087" height="90.7087" class="st1"/>
				<text x="5.35" y="995.84" class="st2" v:langID="1028"><v:paragraph v:horizAlign="1"/><v:tabList/>五　賢聖品</text>			</g>
			<g id="shape29-50" v:mID="29" v:groupContext="shape" transform="translate(1583.48,803.955) rotate(90)">
				<title>工作表.29</title>
				<desc>八經六　果道證淨</desc>
				<v:textBlock v:margins="rect(4,4,4,4)" v:tabSpace="42.5197"/>
				<v:textRect cx="85.0394" cy="951.356" width="170.08" height="170.079"/>
				<rect x="0" y="866.317" width="170.079" height="170.079" class="st1"/>
				<text x="5.04" y="956.16" class="st2" v:langID="1028"><v:paragraph v:horizAlign="1"/><v:tabList/>八經六　果，道，證淨</text>			</g>
			<g id="shape30-53" v:mID="30" v:groupContext="shape" transform="translate(1563.64,435.451) rotate(90)">
				<title>工作表.30</title>
				<desc>非問四　智總集</desc>
				<v:textBlock v:margins="rect(4,4,4,4)" v:tabSpace="42.5197"/>
				<v:textRect cx="76.5354" cy="959.86" width="153.08" height="153.071"/>
				<rect x="0" y="883.325" width="153.071" height="153.071" class="st1"/>
				<text x="4.54" y="964.66" class="st2" v:langID="1028"><v:paragraph v:horizAlign="1"/><v:tabList/>非問四　智（總集）</text>			</g>
			<g id="shape31-56" v:mID="31" v:groupContext="shape" transform="translate(1603.32,619.703) rotate(90)">
				<title>工作表.31</title>
				<desc>十一　智</desc>
				<v:textBlock v:margins="rect(4,4,4,4)" v:tabSpace="42.5197"/>
				<v:textRect cx="36.8504" cy="999.545" width="73.71" height="73.7008"/>
				<rect x="0" y="962.695" width="73.7008" height="73.7008" class="st1"/>
				<text x="4.85" y="1004.35" class="st2" v:langID="1028"><v:paragraph v:horizAlign="1"/><v:tabList/>十一　智</text>			</g>
			<g id="shape32-59" v:mID="32" v:groupContext="shape" transform="translate(1603.32,803.955) rotate(90)">
				<title>工作表.32</title>
				<desc>六　智品</desc>
				<v:textBlock v:margins="rect(4,4,4,4)" v:tabSpace="42.5197"/>
				<v:textRect cx="36.8504" cy="999.545" width="73.71" height="73.7008"/>
				<rect x="0" y="962.695" width="73.7008" height="73.7008" class="st1"/>
				<text x="4.85" y="1004.35" class="st2" v:langID="1028"><v:paragraph v:horizAlign="1"/><v:tabList/>六　智品</text>			</g>
			<g id="shape33-62" v:mID="33" v:groupContext="shape" transform="translate(1574.98,402.852) rotate(90)">
				<title>工作表.33</title>
				<desc>問四　諦</desc>
				<v:textBlock v:margins="rect(4,4,4,4)" v:tabSpace="42.5197"/>
				<v:textRect cx="36.8504" cy="999.545" width="73.71" height="73.7008"/>
				<rect x="0" y="962.695" width="73.7008" height="73.7008" class="st1"/>
				<text x="4.85" y="1004.35" class="st2" v:langID="1028"><v:paragraph v:horizAlign="1"/><v:tabList/>問四　諦</text>			</g>
			<g id="shape34-65" v:mID="34" v:groupContext="shape" transform="translate(1566.47,618.285) rotate(90)">
				<title>工作表.34</title>
				<desc>十五　四諦</desc>
				<v:textBlock v:margins="rect(4,4,4,4)" v:tabSpace="42.5197"/>
				<v:textRect cx="45.3543" cy="991.041" width="90.71" height="90.7087"/>
				<rect x="0" y="945.687" width="90.7087" height="90.7087" class="st1"/>
				<text x="5.35" y="995.84" class="st2" v:langID="1028"><v:paragraph v:horizAlign="1"/><v:tabList/>十五　四諦</text>			</g>
			<g id="shape35-68" v:mID="35" v:groupContext="shape" transform="translate(1566.47,802.537) rotate(90)">
				<title>工作表.35</title>
				<desc>八經五　諦</desc>
				<v:textBlock v:margins="rect(4,4,4,4)" v:tabSpace="42.5197"/>
				<v:textRect cx="45.3543" cy="991.041" width="90.71" height="90.7087"/>
				<rect x="0" y="945.687" width="90.7087" height="90.7087" class="st1"/>
				<text x="5.35" y="995.84" class="st2" v:langID="1028"><v:paragraph v:horizAlign="1"/><v:tabList/>八經五　諦</text>			</g>
			<g id="shape36-71" v:mID="36" v:groupContext="shape" transform="translate(1531.04,435.451) rotate(90)">
				<title>工作表.36</title>
				<desc>非問五　緣起</desc>
				<v:textBlock v:margins="rect(4,4,4,4)" v:tabSpace="42.5197"/>
				<v:textRect cx="52.4409" cy="983.955" width="104.89" height="104.882"/>
				<rect x="0" y="931.514" width="104.882" height="104.882" class="st1"/>
				<text x="4.44" y="988.76" class="st2" v:langID="1028"><v:paragraph v:horizAlign="1"/><v:tabList/>非問五　緣起</text>			</g>
			<g id="shape37-74" v:mID="37" v:groupContext="shape" transform="translate(1531.04,619.703) rotate(90)">
				<title>工作表.37</title>
				<desc>七　緣起種</desc>
				<v:textBlock v:margins="rect(4,4,4,4)" v:tabSpace="42.5197"/>
				<v:textRect cx="52.4409" cy="983.955" width="104.89" height="104.882"/>
				<rect x="0" y="931.514" width="104.882" height="104.882" class="st1"/>
				<text x="4.44" y="988.76" class="st2" v:langID="1028"><v:paragraph v:horizAlign="1"/><v:tabList/>七　緣起，種</text>			</g>
			<g id="shape38-77" v:mID="38" v:groupContext="shape" transform="translate(1491.36,803.955) rotate(90)">
				<title>工作表.38</title>
				<desc>八經四　十二因緣六界</desc>
				<v:textBlock v:margins="rect(4,4,4,4)" v:tabSpace="42.5197"/>
				<v:textRect cx="92.126" cy="944.27" width="184.26" height="184.252"/>
				<rect x="0" y="852.144" width="184.252" height="184.252" class="st1"/>
				<text x="4.13" y="949.07" class="st2" v:langID="1028"><v:paragraph v:horizAlign="1"/><v:tabList/>八經四　十二因緣，六界</text>			</g>
			<g id="shape39-80" v:mID="39" v:groupContext="shape" transform="translate(1518.29,402.852) rotate(90)">
				<title>工作表.39</title>
				<desc>問五　根</desc>
				<v:textBlock v:margins="rect(4,4,4,4)" v:tabSpace="42.5197"/>
				<v:textRect cx="36.8504" cy="999.545" width="73.71" height="73.7008"/>
				<rect x="0" y="962.695" width="73.7008" height="73.7008" class="st1"/>
				<text x="4.85" y="1004.35" class="st2" v:langID="1028"><v:paragraph v:horizAlign="1"/><v:tabList/>問五　根</text>			</g>
			<g id="shape40-83" v:mID="40" v:groupContext="shape" transform="translate(1509.78,618.285) rotate(90)">
				<title>工作表.40</title>
				<desc>八　淨、根</desc>
				<v:textBlock v:margins="rect(4,4,4,4)" v:tabSpace="42.5197"/>
				<v:textRect cx="45.3543" cy="991.041" width="90.71" height="90.7087"/>
				<rect x="0" y="945.687" width="90.7087" height="90.7087" class="st1"/>
				<text x="5.35" y="995.84" class="st2" v:langID="1028"><v:paragraph v:horizAlign="1"/><v:tabList/>八　淨、根</text>			</g>
			<g id="shape41-86" v:mID="41" v:groupContext="shape" transform="translate(1502.69,802.537) rotate(90)">
				<title>工作表.41</title>
				<desc>八經十二　根</desc>
				<v:textBlock v:margins="rect(4,4,4,4)" v:tabSpace="42.5197"/>
				<v:textRect cx="52.4409" cy="983.955" width="104.89" height="104.882"/>
				<rect x="0" y="931.514" width="104.882" height="104.882" class="st1"/>
				<text x="4.44" y="988.76" class="st2" v:langID="1028"><v:paragraph v:horizAlign="1"/><v:tabList/>八經十二　根</text>			</g>
			<g id="shape42-89" v:mID="42" v:groupContext="shape" transform="translate(1489.94,402.852) rotate(90)">
				<title>工作表.42</title>
				<desc>問六　覺</desc>
				<v:textBlock v:margins="rect(4,4,4,4)" v:tabSpace="42.5197"/>
				<v:textRect cx="36.8504" cy="999.545" width="73.71" height="73.7008"/>
				<rect x="0" y="962.695" width="73.7008" height="73.7008" class="st1"/>
				<text x="4.85" y="1004.35" class="st2" v:langID="1028"><v:paragraph v:horizAlign="1"/><v:tabList/>問六　覺</text>			</g>
			<g id="shape43-92" v:mID="43" v:groupContext="shape" transform="translate(1446,435.451) rotate(90)">
				<title>工作表.43</title>
				<desc>非問六　念處</desc>
				<v:textBlock v:margins="rect(4,4,4,4)" v:tabSpace="42.5197"/>
				<v:textRect cx="52.4409" cy="983.955" width="104.89" height="104.882"/>
				<rect x="0" y="931.514" width="104.882" height="104.882" class="st1"/>
				<text x="4.44" y="988.76" class="st2" v:langID="1028"><v:paragraph v:horizAlign="1"/><v:tabList/>非問六　念處</text>			</g>
			<g id="shape44-95" v:mID="44" v:groupContext="shape" transform="translate(1417.66,435.451) rotate(90)">
				<title>工作表.44</title>
				<desc>非問七　正斷</desc>
				<v:textBlock v:margins="rect(4,4,4,4)" v:tabSpace="42.5197"/>
				<v:textRect cx="52.4409" cy="983.955" width="104.89" height="104.882"/>
				<rect x="0" y="931.514" width="104.882" height="104.882" class="st1"/>
				<text x="4.44" y="988.76" class="st2" v:langID="1028"><v:paragraph v:horizAlign="1"/><v:tabList/>非問七　正斷</text>			</g>
			<g id="shape45-98" v:mID="45" v:groupContext="shape" transform="translate(1389.31,434.033) rotate(90)">
				<title>工作表.45</title>
				<desc>非問八　神足</desc>
				<v:textBlock v:margins="rect(4,4,4,4)" v:tabSpace="42.5197"/>
				<v:textRect cx="53.1496" cy="983.955" width="106.3" height="104.882"/>
				<rect x="0" y="931.514" width="106.299" height="104.882" class="st1"/>
				<text x="5.15" y="988.76" class="st2" v:langID="1028"><v:paragraph v:horizAlign="1"/><v:tabList/>非問八　神足</text>			</g>
			<g id="shape46-101" v:mID="46" v:groupContext="shape" transform="translate(1448.84,674.978) rotate(90)">
				<title>工作表.46</title>
				<desc>諦之四聖種</desc>
				<v:textBlock v:margins="rect(4,4,4,4)" v:tabSpace="42.5197"/>
				<v:textRect cx="63.7795" cy="972.616" width="127.56" height="127.559"/>
				<rect x="0" y="908.837" width="127.559" height="127.559" class="st1"/>
				<text x="7.78" y="977.42" class="st2" v:langID="1028"><v:paragraph v:horizAlign="1"/><v:tabList/>（諦之四聖種）</text>			</g>
			<g id="shape47-104" v:mID="47" v:groupContext="shape" transform="translate(1420.49,616.868) rotate(90)">
				<title>工作表.47</title>
				<desc>十四　三十七品</desc>
				<v:textBlock v:margins="rect(4,4,4,4)" v:tabSpace="42.5197"/>
				<v:textRect cx="63.7795" cy="972.616" width="127.56" height="127.559"/>
				<rect x="0" y="908.837" width="127.559" height="127.559" class="st1"/>
				<text x="7.78" y="977.42" class="st2" v:langID="1028"><v:paragraph v:horizAlign="1"/><v:tabList/>十四　三十七品</text>			</g>
			<g id="shape48-107" v:mID="48" v:groupContext="shape" transform="translate(1382.22,801.12) rotate(90)">
				<title>工作表.48</title>
				<desc>八經八　如意足正斷念</desc>
				<v:textBlock v:margins="rect(4,4,4,4)" v:tabSpace="42.5197"/>
				<v:textRect cx="102.047" cy="934.348" width="204.1" height="204.094"/>
				<rect x="0" y="832.301" width="204.094" height="204.094" class="st1"/>
				<text x="6.05" y="939.15" class="st2" v:langID="1028"><v:paragraph v:horizAlign="1"/><v:tabList/>八經八　如意足，正斷，念</text>			</g>
			<g id="shape49-110" v:mID="49" v:groupContext="shape" transform="translate(1390.73,859.23) rotate(90)">
				<title>工作表.49</title>
				<desc>處聖種三十七</desc>
				<v:textBlock v:margins="rect(4,4,4,4)" v:tabSpace="42.5197"/>
				<v:textRect cx="76.5354" cy="959.86" width="153.08" height="153.071"/>
				<rect x="0" y="883.325" width="153.071" height="153.071" class="st1"/>
				<text x="12.54" y="964.66" class="st2" v:langID="1028"><v:paragraph v:horizAlign="1"/><v:tabList/>處，聖種，三十七</text>			</g>
			<g id="shape50-113" v:mID="50" v:groupContext="shape" transform="translate(1428.99,866.317) rotate(90)">
				<title>工作表.50</title>
				<desc>覺品</desc>
				<v:textBlock v:margins="rect(4,4,4,4)" v:tabSpace="42.5197"/>
				<v:textRect cx="21.2598" cy="1015.14" width="42.52" height="42.5197"/>
				<rect x="0" y="993.876" width="42.5197" height="42.5197" class="st1"/>
				<text x="5.26" y="1019.94" class="st2" v:langID="1028"><v:paragraph v:horizAlign="1"/><v:tabList/>覺品</text>			</g>
			<g id="shape51-116" v:mID="51" v:groupContext="shape" transform="translate(1360.96,435.451) rotate(90)">
				<title>工作表.51</title>
				<desc>非問九　禪定</desc>
				<v:textBlock v:margins="rect(4,4,4,4)" v:tabSpace="42.5197"/>
				<v:textRect cx="52.4409" cy="983.955" width="104.89" height="104.882"/>
				<rect x="0" y="931.514" width="104.882" height="104.882" class="st1"/>
				<text x="4.44" y="988.76" class="st2" v:langID="1028"><v:paragraph v:horizAlign="1"/><v:tabList/>非問九　禪定</text>			</g>
			<g id="shape52-119" v:mID="52" v:groupContext="shape" transform="translate(1308.52,435.451) rotate(90)">
				<title>工作表.52</title>
				<desc>非問十　道總集</desc>
				<v:textBlock v:margins="rect(4,4,4,4)" v:tabSpace="42.5197"/>
				<v:textRect cx="76.5354" cy="959.86" width="153.08" height="153.071"/>
				<rect x="0" y="883.325" width="153.071" height="153.071" class="st1"/>
				<text x="4.54" y="964.66" class="st2" v:langID="1028"><v:paragraph v:horizAlign="1"/><v:tabList/>非問十　道（總集）</text>			</g>
			<g id="shape53-122" v:mID="53" v:groupContext="shape" transform="translate(1368.05,618.285) rotate(90)">
				<title>工作表.53</title>
				<desc>十二　禪定</desc>
				<v:textBlock v:margins="rect(4,4,4,4)" v:tabSpace="42.5197"/>
				<v:textRect cx="45.3543" cy="991.041" width="90.71" height="90.7087"/>
				<rect x="0" y="945.687" width="90.7087" height="90.7087" class="st1"/>
				<text x="5.35" y="995.84" class="st2" v:langID="1028"><v:paragraph v:horizAlign="1"/><v:tabList/>十二　禪定</text>			</g>
			<g id="shape54-125" v:mID="54" v:groupContext="shape" transform="translate(1339.7,618.285) rotate(90)">
				<title>工作表.54</title>
				<desc>十三　雜定</desc>
				<v:textBlock v:margins="rect(4,4,4,4)" v:tabSpace="42.5197"/>
				<v:textRect cx="45.3543" cy="991.041" width="90.71" height="90.7087"/>
				<rect x="0" y="945.687" width="90.7087" height="90.7087" class="st1"/>
				<text x="5.35" y="995.84" class="st2" v:langID="1028"><v:paragraph v:horizAlign="1"/><v:tabList/>十三　雜定</text>			</g>
			<g id="shape55-128" v:mID="55" v:groupContext="shape" transform="translate(1376.55,803.955) rotate(90)">
				<title>工作表.55</title>
				<desc>七　定品</desc>
				<v:textBlock v:margins="rect(4,4,4,4)" v:tabSpace="42.5197"/>
				<v:textRect cx="36.8504" cy="999.545" width="73.71" height="73.7008"/>
				<rect x="0" y="962.695" width="73.7008" height="73.7008" class="st1"/>
				<text x="4.85" y="1004.35" class="st2" v:langID="1028"><v:paragraph v:horizAlign="1"/><v:tabList/>七　定品</text>			</g>
			<g id="shape56-131" v:mID="56" v:groupContext="shape" transform="translate(1321.28,799.703) rotate(90)">
				<title>工作表.56</title>
				<desc>八經十　三三昧</desc>
				<v:textBlock v:margins="rect(4,4,4,4)" v:tabSpace="42.5197"/>
				<v:textRect cx="63.7795" cy="972.616" width="127.56" height="127.559"/>
				<rect x="0" y="908.837" width="127.559" height="127.559" class="st1"/>
				<text x="7.78" y="977.42" class="st2" v:langID="1028"><v:paragraph v:horizAlign="1"/><v:tabList/>八經十　三三昧</text>			</g>
			<g id="shape57-134" v:mID="57" v:groupContext="shape" transform="translate(1292.93,799.703) rotate(90)">
				<title>工作表.57</title>
				<desc>八經七　四修定</desc>
				<v:textBlock v:margins="rect(4,4,4,4)" v:tabSpace="42.5197"/>
				<v:textRect cx="63.7795" cy="972.616" width="127.56" height="127.559"/>
				<rect x="0" y="908.837" width="127.559" height="127.559" class="st1"/>
				<text x="7.78" y="977.42" class="st2" v:langID="1028"><v:paragraph v:horizAlign="1"/><v:tabList/>八經七　四修定</text>			</g>
			<g id="shape58-137" v:mID="58" v:groupContext="shape" transform="translate(1273.09,402.852) rotate(90)">
				<title>工作表.58</title>
				<desc>問七　不善根</desc>
				<v:textBlock v:margins="rect(4,4,4,4)" v:tabSpace="42.5197"/>
				<v:textRect cx="52.4409" cy="983.955" width="104.89" height="104.882"/>
				<rect x="0" y="931.514" width="104.882" height="104.882" class="st1"/>
				<text x="4.44" y="988.76" class="st2" v:langID="1028"><v:paragraph v:horizAlign="1"/><v:tabList/>問七　不善根</text>			</g>
			<g id="shape59-140" v:mID="59" v:groupContext="shape" transform="translate(1205.06,435.451) rotate(90)">
				<title>工作表.59</title>
				<desc>非問十一　煩惱總集</desc>
				<v:textBlock v:margins="rect(4,4,4,4)" v:tabSpace="42.5197"/>
				<v:textRect cx="92.126" cy="944.27" width="184.26" height="184.252"/>
				<rect x="0" y="852.144" width="184.252" height="184.252" class="st1"/>
				<text x="4.13" y="949.07" class="st2" v:langID="1028"><v:paragraph v:horizAlign="1"/><v:tabList/>非問十一　煩惱（總集）</text>			</g>
			<g id="shape60-143" v:mID="60" v:groupContext="shape" transform="translate(1233.4,616.868) rotate(90)">
				<title>工作表.60</title>
				<desc>九　結使禪智</desc>
				<v:textBlock v:margins="rect(4,4,4,4)" v:tabSpace="42.5197"/>
				<v:textRect cx="63.7795" cy="972.616" width="127.56" height="127.559"/>
				<rect x="0" y="908.837" width="127.559" height="127.559" class="st1"/>
				<text x="7.78" y="977.42" class="st2" v:langID="1028"><v:paragraph v:horizAlign="1"/><v:tabList/>九　結使，禪智</text>			</g>
			<g id="shape61-146" v:mID="61" v:groupContext="shape" transform="translate(1260.33,803.955) rotate(90)">
				<title>工作表.61</title>
				<desc>四　使品</desc>
				<v:textBlock v:margins="rect(4,4,4,4)" v:tabSpace="42.5197"/>
				<v:textRect cx="36.8504" cy="999.545" width="73.71" height="73.7008"/>
				<rect x="0" y="962.695" width="73.7008" height="73.7008" class="st1"/>
				<text x="4.85" y="1004.35" class="st2" v:langID="1028"><v:paragraph v:horizAlign="1"/><v:tabList/>四　使品</text>			</g>
			<g id="shape62-149" v:mID="62" v:groupContext="shape" transform="translate(1223.48,401.435) rotate(90)">
				<title>工作表.62</title>
				<desc>問八　善根</desc>
				<v:textBlock v:margins="rect(4,4,4,4)" v:tabSpace="42.5197"/>
				<v:textRect cx="45.3543" cy="991.041" width="90.71" height="90.7087"/>
				<rect x="0" y="945.687" width="90.7087" height="90.7087" class="st1"/>
				<text x="5.35" y="995.84" class="st2" v:langID="1028"><v:paragraph v:horizAlign="1"/><v:tabList/>問八　善根</text>			</g>
			<g id="shape63-152" v:mID="63" v:groupContext="shape" transform="translate(1212.14,401.435) rotate(90)">
				<title>工作表.63</title>
				<desc>問九　大</desc>
				<v:textBlock v:margins="rect(4,4,4,4)" v:tabSpace="42.5197"/>
				<v:textRect cx="36.8504" cy="999.545" width="73.71" height="73.7008"/>
				<rect x="0" y="962.695" width="73.7008" height="73.7008" class="st1"/>
				<text x="4.85" y="1004.35" class="st2" v:langID="1028"><v:paragraph v:horizAlign="1"/><v:tabList/>問九　大</text>			</g>
			<g id="shape64-155" v:mID="64" v:groupContext="shape" transform="translate(1175.29,401.435) rotate(90)">
				<title>工作表.64</title>
				<desc>問十　五戒</desc>
				<v:textBlock v:margins="rect(4,4,4,4)" v:tabSpace="42.5197"/>
				<v:textRect cx="45.3543" cy="991.041" width="90.71" height="90.7087"/>
				<rect x="0" y="945.687" width="90.7087" height="90.7087" class="st1"/>
				<text x="5.35" y="995.84" class="st2" v:langID="1028"><v:paragraph v:horizAlign="1"/><v:tabList/>問十　五戒</text>			</g>
			<g id="shape65-158" v:mID="65" v:groupContext="shape" transform="translate(1183.8,619.703) rotate(90)">
				<title>工作表.65</title>
				<desc>一、施戒</desc>
				<v:textBlock v:margins="rect(4,4,4,4)" v:tabSpace="42.5197"/>
				<v:textRect cx="36.8504" cy="999.545" width="73.71" height="73.7008"/>
				<rect x="0" y="962.695" width="73.7008" height="73.7008" class="st1"/>
				<text x="4.85" y="1004.35" class="st2" v:langID="1028"><v:paragraph v:horizAlign="1"/><v:tabList/>一、施戒</text>			</g>
			<g id="shape66-161" v:mID="66" v:groupContext="shape" transform="translate(1156.87,799.703) rotate(90)">
				<title>工作表.66</title>
				<desc>八經一　施戒修</desc>
				<v:textBlock v:margins="rect(4,4,4,4)" v:tabSpace="42.5197"/>
				<v:textRect cx="63.7795" cy="972.616" width="127.56" height="127.559"/>
				<rect x="0" y="908.837" width="127.559" height="127.559" class="st1"/>
				<text x="7.78" y="977.42" class="st2" v:langID="1028"><v:paragraph v:horizAlign="1"/><v:tabList/>八經一　施戒修</text>			</g>
			<g id="shape67-164" v:mID="67" v:groupContext="shape" transform="translate(1139.86,619.419) rotate(90)">
				<title>工作表.67</title>
				<desc>十五　諦之餘</desc>
				<v:textBlock v:margins="rect(4,4,4,4)" v:tabSpace="42.5197"/>
				<v:textRect cx="52.4409" cy="983.955" width="104.89" height="104.882"/>
				<rect x="0" y="931.514" width="104.882" height="104.882" class="st1"/>
				<text x="4.44" y="988.76" class="st2" v:langID="1028"><v:paragraph v:horizAlign="1"/><v:tabList/>十五　諦之餘</text>			</g>
			<g id="shape68-167" v:mID="68" v:groupContext="shape" transform="translate(1118.6,618.285) rotate(90)">
				<title>工作表.68</title>
				<desc>十六　雜上</desc>
				<v:textBlock v:margins="rect(4,4,4,4)" v:tabSpace="42.5197"/>
				<v:textRect cx="45.3543" cy="991.041" width="90.71" height="90.7087"/>
				<rect x="0" y="945.687" width="90.7087" height="90.7087" class="st1"/>
				<text x="5.35" y="995.84" class="st2" v:langID="1028"><v:paragraph v:horizAlign="1"/><v:tabList/>十六　雜上</text>			</g>
			<g id="shape69-170" v:mID="69" v:groupContext="shape" transform="translate(1087.42,803.955) rotate(90)">
				<title>工作表.69</title>
				<desc>八經十一　顛倒見</desc>
				<v:textBlock v:margins="rect(4,4,4,4)" v:tabSpace="42.5197"/>
				<v:textRect cx="76.5354" cy="959.86" width="153.08" height="153.071"/>
				<rect x="0" y="883.325" width="153.071" height="153.071" class="st1"/>
				<text x="4.54" y="964.66" class="st2" v:langID="1028"><v:paragraph v:horizAlign="1"/><v:tabList/>八經十一　顛倒，見</text>			</g>
			<g id="shape70-173" v:mID="70" v:groupContext="shape" transform="translate(1059.07,803.955) rotate(90)">
				<title>工作表.70</title>
				<desc>八經十三　識所識等</desc>
				<v:textBlock v:margins="rect(4,4,4,4)" v:tabSpace="42.5197"/>
				<v:textRect cx="76.5354" cy="959.86" width="153.08" height="153.071"/>
				<rect x="0" y="883.325" width="153.071" height="153.071" class="st1"/>
				<text x="4.54" y="964.66" class="st2" v:langID="1028"><v:paragraph v:horizAlign="1"/><v:tabList/>八經十三　識所識等</text>			</g>
			<g id="shape71-176" v:mID="71" v:groupContext="shape" transform="translate(1061.91,618.285) rotate(90)">
				<title>工作表.71</title>
				<desc>十六　雜下</desc>
				<v:textBlock v:margins="rect(4,4,4,4)" v:tabSpace="42.5197"/>
				<v:textRect cx="45.3543" cy="991.041" width="90.71" height="90.7087"/>
				<rect x="0" y="945.687" width="90.7087" height="90.7087" class="st1"/>
				<text x="5.35" y="995.84" class="st2" v:langID="1028"><v:paragraph v:horizAlign="1"/><v:tabList/>十六　雜下</text>			</g>
			<g id="shape72-179" v:mID="72" v:groupContext="shape" transform="translate(1070.41,803.955) rotate(90)">
				<title>工作表.72</title>
				<desc>九　雜品</desc>
				<v:textBlock v:margins="rect(4,4,4,4)" v:tabSpace="42.5197"/>
				<v:textRect cx="36.8504" cy="999.545" width="73.71" height="73.7008"/>
				<rect x="0" y="962.695" width="73.7008" height="73.7008" class="st1"/>
				<text x="4.85" y="1004.35" class="st2" v:langID="1028"><v:paragraph v:horizAlign="1"/><v:tabList/>九　雜品</text>			</g>
			<g id="shape73-182" v:mID="73" v:groupContext="shape" transform="translate(1042.06,803.955) rotate(90)">
				<title>工作表.73</title>
				<desc>十　論品</desc>
				<v:textBlock v:margins="rect(4,4,4,4)" v:tabSpace="42.5197"/>
				<v:textRect cx="36.8504" cy="999.545" width="73.71" height="73.7008"/>
				<rect x="0" y="962.695" width="73.7008" height="73.7008" class="st1"/>
				<text x="4.85" y="1004.35" class="st2" v:langID="1028"><v:paragraph v:horizAlign="1"/><v:tabList/>十　論品</text>			</g>
			<g id="shape74-185" v:mID="74" v:groupContext="shape" transform="translate(28.3465,-637.795)">
				<title>工作表.74</title>
				<path d="M0 1036.4 L935.43 1036.4" class="st3"/>
			</g>
			<g id="shape75-188" v:mID="75" v:groupContext="shape" transform="translate(2000.18,398.6) rotate(90)">
				<title>工作表.75</title>
				<path d="M0 1036.4 L609.45 1036.4" class="st3"/>
			</g>
			<g id="shape76-191" v:mID="76" v:groupContext="shape" transform="translate(1971.83,398.6) rotate(90)">
				<title>工作表.76</title>
				<path d="M0 1036.4 L609.45 1036.4" class="st4"/>
			</g>
			<g id="shape77-194" v:mID="77" v:groupContext="shape" transform="translate(28.3465,-425.197)">
				<title>工作表.77</title>
				<path d="M0 1036.4 L935.43 1036.4" class="st4"/>
			</g>
			<g id="shape78-197" v:mID="78" v:groupContext="shape" transform="translate(28.3465,-240.945)">
				<title>工作表.78</title>
				<path d="M0 1036.4 L935.43 1036.4" class="st4"/>
			</g>
			<g id="shape79-200" v:mID="79" v:groupContext="shape" transform="translate(28.3465,-28.3465)">
				<title>工作表.79</title>
				<path d="M0 1036.4 L935.43 1036.4" class="st3"/>
			</g>
			<g id="shape80-203" v:mID="80" v:groupContext="shape" transform="translate(1858.44,400.207) rotate(90.0888)">
				<title>工作表.80</title>
				<path d="M0 1036.4 L609.45 1036.4" class="st4"/>
			</g>
			<g id="shape81-206" v:mID="81" v:groupContext="shape" transform="translate(1815.92,398.6) rotate(90)">
				<title>工作表.81</title>
				<path d="M0 1036.4 L609.45 1036.4" class="st4"/>
			</g>
			<g id="shape82-209" v:mID="82" v:groupContext="shape" transform="translate(1787.58,398.6) rotate(90)">
				<title>工作表.82</title>
				<path d="M0 1036.4 L609.45 1036.4" class="st4"/>
			</g>
			<g id="shape83-212" v:mID="83" v:groupContext="shape" transform="translate(1759.23,611.199) rotate(90)">
				<title>工作表.83</title>
				<path d="M0 1036.4 L396.85 1036.4" class="st4"/>
			</g>
			<g id="shape84-215" v:mID="84" v:groupContext="shape" transform="translate(1698.29,398.6) rotate(90)">
				<title>工作表.84</title>
				<path d="M0 1036.4 L609.45 1036.4" class="st4"/>
			</g>
			<g id="shape3-218" v:mID="3" v:groupContext="shape" transform="translate(1900.96,805.372) rotate(90)">
				<title>工作表.3</title>
				<desc>阿毗曇心論</desc>
				<v:textBlock v:margins="rect(4,4,4,4)" v:tabSpace="42.5197"/>
				<v:textRect cx="85.0394" cy="951.356" width="170.08" height="170.079"/>
				<rect x="0" y="866.317" width="170.079" height="170.079" class="st1"/>
				<text x="0.25em 2.533em 4.815em 7.097em 9.38em" y="956.16" class="st2" v:langID="1028"><v:paragraph
							v:horizAlign="4"/><v:tabList/>阿毗曇心論</text>			</g>
			<g id="shape9-221" v:mID="9" v:groupContext="shape" transform="translate(1864.11,803.955) rotate(90)">
				<title>工作表.9</title>
				<desc>一　界品</desc>
				<v:textBlock v:margins="rect(4,4,4,4)" v:tabSpace="42.5197"/>
				<v:textRect cx="36.8504" cy="999.545" width="73.71" height="73.7008"/>
				<rect x="0" y="962.695" width="73.7008" height="73.7008" class="st1"/>
				<text x="4.85" y="1004.35" class="st2" v:langID="1028"><v:paragraph v:horizAlign="1"/><v:tabList/>一　界品</text>			</g>
			<g id="shape10-224" v:mID="10" v:groupContext="shape" transform="translate(1787.58,835.136) rotate(90)">
				<title>工作表.10</title>
				<desc>末有相攝當攝分</desc>
				<v:textBlock v:margins="rect(4,4,4,4)" v:tabSpace="42.5197"/>
				<v:textRect cx="85.0394" cy="951.356" width="170.08" height="170.079"/>
				<rect x="0" y="866.317" width="170.079" height="170.079" class="st1"/>
				<text x="5.04" y="956.16" class="st2" v:langID="1028"><v:paragraph v:horizAlign="1"/><v:tabList/>（末有相攝，當攝分）</text>			</g>
			<g id="shape14-227" v:mID="14" v:groupContext="shape" transform="translate(1800.33,803.955) rotate(90)">
				<title>工作表.14</title>
				<desc>二　行品</desc>
				<v:textBlock v:margins="rect(4,4,4,4)" v:tabSpace="42.5197"/>
				<v:textRect cx="36.8504" cy="999.545" width="73.71" height="73.7008"/>
				<rect x="0" y="962.695" width="73.7008" height="73.7008" class="st1"/>
				<text x="4.85" y="1004.35" class="st2" v:langID="1028"><v:paragraph v:horizAlign="1"/><v:tabList/>二　行品</text>			</g>
			<g id="shape17-230" v:mID="17" v:groupContext="shape" transform="translate(1764.9,803.955) rotate(90)">
				<title>工作表.17</title>
				<desc>三　業品</desc>
				<v:textBlock v:margins="rect(4,4,4,4)" v:tabSpace="42.5197"/>
				<v:textRect cx="36.8504" cy="999.545" width="73.71" height="73.7008"/>
				<rect x="0" y="962.695" width="73.7008" height="73.7008" class="st1"/>
				<text x="4.85" y="1004.35" class="st2" v:langID="1028"><v:paragraph v:horizAlign="1"/><v:tabList/>三　業品</text>			</g>
			<g id="shape19-233" v:mID="19" v:groupContext="shape" transform="translate(1728.05,802.537) rotate(90)">
				<title>工作表.19</title>
				<desc>八經二　界</desc>
				<v:textBlock v:margins="rect(4,4,4,4)" v:tabSpace="42.5197"/>
				<v:textRect cx="45.3543" cy="991.041" width="90.71" height="90.7087"/>
				<rect x="0" y="945.687" width="90.7087" height="90.7087" class="st1"/>
				<text x="5.35" y="995.84" class="st2" v:langID="1028"><v:paragraph v:horizAlign="1"/><v:tabList/>八經二　界</text>			</g>
			<g id="shape22-236" v:mID="22" v:groupContext="shape" transform="translate(1661.44,803.955) rotate(90)">
				<title>工作表.22</title>
				<desc>八經三　識住眾生居</desc>
				<v:textBlock v:margins="rect(4,4,4,4)" v:tabSpace="42.5197"/>
				<v:textRect cx="85.0394" cy="951.356" width="170.08" height="170.079"/>
				<rect x="0" y="866.317" width="170.079" height="170.079" class="st1"/>
				<text x="5.04" y="956.16" class="st2" v:langID="1028"><v:paragraph v:horizAlign="1"/><v:tabList/>八經三　識住，眾生居</text>			</g>
			<g id="shape23-239" v:mID="23" v:groupContext="shape" transform="translate(1623.17,798.285) rotate(90)">
				<title>工作表.23</title>
				<desc>八經九　四預又八經四之</desc>
				<v:textBlock v:margins="rect(4,4,4,4)" v:tabSpace="42.5197"/>
				<v:textRect cx="106.299" cy="930.096" width="212.6" height="212.598"/>
				<rect x="0" y="823.797" width="212.598" height="212.598" class="st1"/>
				<text x="10.3" y="934.9" class="st2" v:langID="1028"><v:paragraph v:horizAlign="1"/><v:tabList/>八經九　四預（又八經四之</text>			</g>
			<g id="shape24-242" v:mID="24" v:groupContext="shape" transform="translate(1684.11,867.734) rotate(90)">
				<title>工作表.24</title>
				<desc>一分</desc>
				<v:textBlock v:margins="rect(4,4,4,4)" v:tabSpace="42.5197"/>
				<v:textRect cx="28.3465" cy="1008.05" width="56.7" height="56.6929"/>
				<rect x="0" y="979.703" width="56.6929" height="56.6929" class="st1"/>
				<text x="4.35" y="1012.85" class="st2" v:langID="1028"><v:paragraph v:horizAlign="1"/><v:tabList/>一分）</text>			</g>
			<g id="shape4-245" v:mID="4" v:groupContext="shape" transform="translate(1920.81,402.852) rotate(90)">
				<title>工作表.4</title>
				<desc>問一　入</desc>
				<v:textBlock v:margins="rect(4,4,4,4)" v:tabSpace="42.5197"/>
				<v:textRect cx="36.8504" cy="999.545" width="73.71" height="73.7008"/>
				<rect x="0" y="962.695" width="73.7008" height="73.7008" class="st1"/>
				<text x="4.85" y="1004.35" class="st2" v:langID="1028"><v:paragraph v:horizAlign="1"/><v:tabList/>問一　入</text>			</g>
			<g id="shape5-248" v:mID="5" v:groupContext="shape" transform="translate(1892.46,402.852) rotate(90)">
				<title>工作表.5</title>
				<desc>問二　界</desc>
				<v:textBlock v:margins="rect(4,4,4,4)" v:tabSpace="42.5197"/>
				<v:textRect cx="36.8504" cy="999.545" width="73.71" height="73.7008"/>
				<rect x="0" y="962.695" width="73.7008" height="73.7008" class="st1"/>
				<text x="4.85" y="1004.35" class="st2" v:langID="1028"><v:paragraph v:horizAlign="1"/><v:tabList/>問二　界</text>			</g>
			<g id="shape7-251" v:mID="7" v:groupContext="shape" transform="translate(1835.77,402.852) rotate(90)">
				<title>工作表.7</title>
				<desc>問三　陰</desc>
				<v:textBlock v:margins="rect(4,4,4,4)" v:tabSpace="42.5197"/>
				<v:textRect cx="36.8504" cy="999.545" width="73.71" height="73.7008"/>
				<rect x="0" y="962.695" width="73.7008" height="73.7008" class="st1"/>
				<text x="4.85" y="1004.35" class="st2" v:langID="1028"><v:paragraph v:horizAlign="1"/><v:tabList/>問三　陰</text>			</g>
			<g id="shape85-254" v:mID="85" v:groupContext="shape" transform="translate(1654.35,398.6) rotate(90)">
				<title>工作表.85</title>
				<path d="M0 1036.4 L609.45 1036.4" class="st4"/>
			</g>
			<g id="shape86-257" v:mID="86" v:groupContext="shape" transform="translate(1626,398.6) rotate(90)">
				<title>工作表.86</title>
				<path d="M0 1036.4 L609.45 1036.4" class="st4"/>
			</g>
			<g id="shape87-260" v:mID="87" v:groupContext="shape" transform="translate(1597.66,398.6) rotate(90)">
				<title>工作表.87</title>
				<path d="M0 1036.4 L609.45 1036.4" class="st4"/>
			</g>
			<g id="shape88-263" v:mID="88" v:groupContext="shape" transform="translate(1569.31,398.6) rotate(90)">
				<title>工作表.88</title>
				<path d="M0 1036.4 L609.45 1036.4" class="st4"/>
			</g>
			<g id="shape89-266" v:mID="89" v:groupContext="shape" transform="translate(1540.96,398.6) rotate(90)">
				<title>工作表.89</title>
				<path d="M0 1036.4 L609.45 1036.4" class="st4"/>
			</g>
			<g id="shape90-269" v:mID="90" v:groupContext="shape" transform="translate(1427.58,398.6) rotate(90)">
				<title>工作表.90</title>
				<path d="M0 1036.4 L609.45 1036.4" class="st4"/>
			</g>
			<g id="shape91-272" v:mID="91" v:groupContext="shape" transform="translate(1339.7,398.6) rotate(90)">
				<title>工作表.91</title>
				<path d="M0 1036.4 L609.45 1036.4" class="st4"/>
			</g>
			<g id="shape94-275" v:mID="94" v:groupContext="shape" transform="translate(1280.18,398.6) rotate(90)">
				<title>工作表.94</title>
				<path d="M0 1036.4 L609.45 1036.4" class="st4"/>
			</g>
			<g id="shape95-278" v:mID="95" v:groupContext="shape" transform="translate(1234.82,398.6) rotate(90)">
				<title>工作表.95</title>
				<path d="M0 1036.4 L609.45 1036.4" class="st4"/>
			</g>
			<g id="shape96-281" v:mID="96" v:groupContext="shape" transform="translate(1206.47,398.6) rotate(90)">
				<title>工作表.96</title>
				<path d="M0 1036.4 L609.45 1036.4" class="st4"/>
			</g>
			<g id="shape97-284" v:mID="97" v:groupContext="shape" transform="translate(1064.74,398.6) rotate(90)">
				<title>工作表.97</title>
				<path d="M0 1036.4 L609.45 1036.4" class="st3"/>
			</g>
			<g id="shape98-287" v:mID="98" v:groupContext="shape" transform="translate(1178.13,611.199) rotate(90)">
				<title>工作表.98</title>
				<path d="M0 1036.4 L396.85 1036.4" class="st4"/>
			</g>
			<g id="shape92-290" v:mID="92" v:groupContext="shape" transform="translate(1149.78,611.199) rotate(90)">
				<title>工作表.92</title>
				<path d="M0 1036.4 L396.85 1036.4" class="st4"/>
			</g>
			<g id="shape93-293" v:mID="93" v:groupContext="shape" transform="translate(1121.44,611.199) rotate(90)">
				<title>工作表.93</title>
				<path d="M0 1036.4 L396.85 1036.4" class="st4"/>
			</g>
			<g id="shape99-296" v:mID="99" v:groupContext="shape" transform="translate(0,-666.142)">
				<title>工作表.99</title>
				<path d="M0 1036.4 L992.13 1036.4" class="st5"/>
			</g>
			<g id="shape100-299" v:mID="100" v:groupContext="shape" transform="translate(1036.4,370.254) rotate(90)">
				<title>工作表.100</title>
				<path d="M0 1036.4 L666.14 1036.4" class="st5"/>
			</g>
			<g id="shape101-302" v:mID="101" v:groupContext="shape">
				<title>工作表.101</title>
				<path d="M0 1036.4 L992.13 1036.4" class="st5"/>
			</g>
			<g id="shape102-305" v:mID="102" v:groupContext="shape" transform="translate(2028.52,370.254) rotate(90)">
				<title>工作表.102</title>
				<path d="M0 1036.4 L666.14 1036.4" class="st5"/>
			</g>
		</g>
	</g>
</svg>
