<?xml version="1.0" encoding="UTF-8" standalone="no"?>
<!DOCTYPE svg PUBLIC "-//W3C//DTD SVG 1.0//EN" "http://www.w3.org/TR/2001/REC-SVG-20010904/DTD/svg10.dtd">
<!-- 由 Microsoft Visio 11.0, SVG Export, v1.0 產生 y33.0192.svg Page-1 -->
<svg xmlns="http://www.w3.org/2000/svg" xmlns:xlink="http://www.w3.org/1999/xlink" xmlns:ev="http://www.w3.org/2001/xml-events"
		xmlns:v="http://schemas.microsoft.com/visio/2003/SVGExtensions/" width="4.86335in" height="7.61439in"
		viewBox="0 0 350.161 548.236" xml:space="preserve" color-interpolation-filters="sRGB" class="st5">
	<v:documentProperties v:langID="1028" v:metric="true" v:viewMarkup="false">
		<v:userDefs>
			<v:ud v:nameU="msvSubprocessMaster" v:prompt="" v:val="VT4(Box)"/>
			<v:ud v:nameU="msvNoAutoConnect" v:val="VT0(1):26"/>
		</v:userDefs>
	</v:documentProperties>

	<style type="text/css">
	<![CDATA[
		.st1 {fill:none;stroke:none;stroke-linecap:round;stroke-linejoin:round;stroke-width:0.75}
		.st2 {fill:#000000;font-family:新細明體;font-size:1.33333em}
		.st3 {stroke:#000000;stroke-linecap:round;stroke-linejoin:round;stroke-width:1}
		.st4 {stroke:#000000;stroke-dasharray:3,3;stroke-linecap:round;stroke-linejoin:round;stroke-width:1}
		.st5 {fill:none;fill-rule:evenodd;font-size:12px;overflow:visible;stroke-linecap:square;stroke-miterlimit:3}
	]]>
	</style>

	<g v:mID="0" v:index="1" v:groupContext="foregroundPage">
		<title>頁-1</title>
		<v:pageProperties v:drawingScale="0.0393701" v:pageScale="0.0393701" v:drawingUnits="24" v:shadowOffsetX="8.50394"
				v:shadowOffsetY="-8.50394"/>
		<g id="shape1-1" v:mID="1" v:groupContext="shape" transform="translate(264.514,-374.748)">
			<title>工作表.1</title>
			<desc>菩薩道以大悲為上首</desc>
			<v:textBlock v:margins="rect(4,4,4,4)" v:tabSpace="42.5197" v:verticalText="true"/>
			<v:textRect cx="12.189" cy="471.701" width="24.38" height="153.071"/>
			<rect x="0" y="395.165" width="24.378" height="153.071" class="st1"/>
			<text x="12.19" y="399.7" writing-mode="tb-rl" class="st2" v:langID="1028"><v:paragraph v:horizAlign="1"/><v:tabList/>菩薩道以大悲為上首</text>		</g>
		<g id="shape2-4" v:mID="2" v:groupContext="shape" transform="translate(307.033,-370.496)">
			<title>工作表.2</title>
			<desc>菩提心為因</desc>
			<v:textBlock v:margins="rect(4,4,4,4)" v:tabSpace="42.5197" v:verticalText="true"/>
			<v:textRect cx="12.189" cy="502.882" width="24.38" height="90.7087"/>
			<rect x="0" y="457.528" width="24.378" height="90.7087" class="st1"/>
			<text x="12.19" y="462.88" writing-mode="tb-rl" class="st2" v:langID="1028"><v:paragraph v:horizAlign="1"/><v:tabList/>菩提心為因</text>		</g>
		<g id="shape5-7" v:mID="5" v:groupContext="shape" transform="translate(146.309,-370.496)">
			<title>工作表.5</title>
			<desc>依三心而行</desc>
			<v:textBlock v:margins="rect(4,4,4,4)" v:tabSpace="42.5197" v:verticalText="true"/>
			<v:textRect cx="45.3543" cy="502.882" width="90.71" height="90.7087"/>
			<rect x="0" y="457.528" width="90.7087" height="90.7087" class="st1"/>
			<text x="45.35" y="462.88" writing-mode="tb-rl" class="st2" v:langID="1028"><v:paragraph v:horizAlign="1"/><v:tabList/>依三心而行</text>		</g>
		<g id="shape6-10" v:mID="6" v:groupContext="shape" transform="translate(197.333,-271.283)">
			<title>工作表.6</title>
			<desc>攝六和眾</desc>
			<v:textBlock v:margins="rect(4,4,4,4)" v:tabSpace="42.5197" v:verticalText="true"/>
			<v:textRect cx="36.8504" cy="511.386" width="73.71" height="73.7008"/>
			<rect x="0" y="474.535" width="73.7008" height="73.7008" class="st1"/>
			<text x="36.85" y="479.39" writing-mode="tb-rl" class="st2" v:langID="1028"><v:paragraph v:horizAlign="1"/><v:tabList/>攝六和眾</text>		</g>
		<g id="shape7-13" v:mID="7" v:groupContext="shape" transform="translate(98.1201,-271.283)">
			<title>工作表.7</title>
			<desc>行六度行</desc>
			<v:textBlock v:margins="rect(4,4,4,4)" v:tabSpace="42.5197" v:verticalText="true"/>
			<v:textRect cx="36.8504" cy="511.386" width="73.71" height="73.7008"/>
			<rect x="0" y="474.535" width="73.7008" height="73.7008" class="st1"/>
			<text x="36.85" y="479.39" writing-mode="tb-rl" class="st2" v:langID="1028"><v:paragraph v:horizAlign="1"/><v:tabList/>行六度行</text>		</g>
		<g id="shape11-16" v:mID="11" v:groupContext="shape" transform="translate(156.23,-75.6929)">
			<title>工作表.11</title>
			<desc>利他</desc>
			<v:textBlock v:margins="rect(4,4,4,4)" v:tabSpace="42.5197" v:verticalText="true"/>
			<v:textRect cx="21.2598" cy="526.976" width="42.52" height="42.5197"/>
			<rect x="0" y="505.717" width="42.5197" height="42.5197" class="st1"/>
			<text x="21.26" y="510.98" writing-mode="tb-rl" class="st2" v:langID="1028"><v:paragraph v:horizAlign="1"/><v:tabList/>利他</text>		</g>
		<g id="shape12-19" v:mID="12" v:groupContext="shape" transform="translate(75.4429,-157.898)">
			<title>工作表.12</title>
			<desc>精進以成行</desc>
			<v:textBlock v:margins="rect(4,4,4,4)" v:tabSpace="42.5197" v:verticalText="true"/>
			<v:textRect cx="45.3543" cy="502.882" width="90.71" height="90.7087"/>
			<rect x="0" y="457.528" width="90.7087" height="90.7087" class="st1"/>
			<text x="45.35" y="462.88" writing-mode="tb-rl" class="st2" v:langID="1028"><v:paragraph v:horizAlign="1"/><v:tabList/>精進以成行</text>		</g>
		<g id="shape13-22" v:mID="13" v:groupContext="shape" transform="translate(47.0965,-157.898)">
			<title>工作表.13</title>
			<desc>禪定以攝心</desc>
			<v:textBlock v:margins="rect(4,4,4,4)" v:tabSpace="42.5197" v:verticalText="true"/>
			<v:textRect cx="45.3543" cy="502.882" width="90.71" height="90.7087"/>
			<rect x="0" y="457.528" width="90.7087" height="90.7087" class="st1"/>
			<text x="45.35" y="462.88" writing-mode="tb-rl" class="st2" v:langID="1028"><v:paragraph v:horizAlign="1"/><v:tabList/>禪定以攝心</text>		</g>
		<g id="shape14-25" v:mID="14" v:groupContext="shape" transform="translate(18.75,-157.898)">
			<title>工作表.14</title>
			<desc>般若以入理</desc>
			<v:textBlock v:margins="rect(4,4,4,4)" v:tabSpace="42.5197" v:verticalText="true"/>
			<v:textRect cx="45.3543" cy="502.882" width="90.71" height="90.7087"/>
			<rect x="0" y="457.528" width="90.7087" height="90.7087" class="st1"/>
			<text x="45.35" y="462.88" writing-mode="tb-rl" class="st2" v:langID="1028"><v:paragraph v:horizAlign="1"/><v:tabList/>般若以入理</text>		</g>
		<g id="shape15-28" v:mID="15" v:groupContext="shape" transform="translate(23.5689,-356.323)">
			<title>工作表.15</title>
			<desc>無所得為方便</desc>
			<v:textBlock v:margins="rect(4,4,4,4)" v:tabSpace="42.5197" v:verticalText="true"/>
			<v:textRect cx="12.189" cy="495.795" width="24.38" height="104.882"/>
			<rect x="0" y="443.354" width="24.378" height="104.882" class="st1"/>
			<text x="12.19" y="447.8" writing-mode="tb-rl" class="st2" v:langID="1028"><v:paragraph v:horizAlign="1"/><v:tabList/>無所得為方便</text>		</g>
		<g id="shape16-31" v:mID="16" v:groupContext="shape" transform="translate(23.5689,-150.811)">
			<title>工作表.16</title>
			<desc>住性空見</desc>
			<v:textBlock v:margins="rect(4,4,4,4)" v:tabSpace="42.5197" v:verticalText="true"/>
			<v:textRect cx="12.189" cy="495.795" width="24.38" height="104.882"/>
			<rect x="0" y="443.354" width="24.378" height="104.882" class="st1"/>
			<text x="12.19" y="447.8" writing-mode="tb-rl" class="st2" v:langID="1028"><v:paragraph v:horizAlign="1"/><v:tabList/>（住性空見）</text>		</g>
		<g id="group21-34" transform="translate(262.53,-373.331)" v:mID="21" v:groupContext="group">
			<title>工作表.21</title>
			<g id="shape17-35" v:mID="17" v:groupContext="shape" transform="translate(548.236,392.331) rotate(90)">
				<title>工作表.17</title>
				<path d="M0 548.24 L155.91 548.24" class="st3"/>
			</g>
			<g id="shape18-38" v:mID="18" v:groupContext="shape" transform="translate(576.583,392.331) rotate(90)">
				<title>工作表.18</title>
				<path d="M0 548.24 L155.91 548.24" class="st3"/>
			</g>
			<g id="shape19-41" v:mID="19" v:groupContext="shape" transform="translate(6.59472E-014,-155.906)">
				<title>工作表.19</title>
				<path d="M0 548.24 L28.35 548.24" class="st3"/>
			</g>
			<g id="shape20-44" v:mID="20" v:groupContext="shape" transform="translate(1.67388E-005,1.13687E-013)">
				<title>工作表.20</title>
				<path d="M0 548.24 L28.35 548.24" class="st3"/>
			</g>
		</g>
		<g id="shape22-47" v:mID="22" v:groupContext="shape" transform="translate(867.459,177.74) rotate(90)">
			<title>工作表.22</title>
			<path d="M0 548.24 L124.72 548.24" class="st4"/>
		</g>
		<g id="shape23-50" v:mID="23" v:groupContext="shape" transform="translate(824.939,177.74) rotate(90)">
			<title>工作表.23</title>
			<path d="M0 548.24 L124.72 548.24" class="st4"/>
		</g>
		<g id="shape3-53" v:mID="3" v:groupContext="shape" transform="translate(307.033,-150.811)">
			<title>工作表.3</title>
			<desc>證菩提果</desc>
			<v:textBlock v:margins="rect(4,4,4,4)" v:tabSpace="42.5197" v:verticalText="true"/>
			<v:textRect cx="12.189" cy="495.795" width="24.38" height="104.882"/>
			<rect x="0" y="443.354" width="24.378" height="104.882" class="st1"/>
			<text x="12.19" y="447.8" writing-mode="tb-rl" class="st2" v:langID="1028"><v:paragraph v:horizAlign="1"/><v:tabList/>（證菩提果）</text>		</g>
		<g id="shape4-56" v:mID="4" v:groupContext="shape" transform="translate(224.262,-150.811)">
			<title>工作表.4</title>
			<desc>成大悲行</desc>
			<v:textBlock v:margins="rect(4,4,4,4)" v:tabSpace="42.5197" v:verticalText="true"/>
			<v:textRect cx="52.4409" cy="495.795" width="104.89" height="104.882"/>
			<rect x="0" y="443.354" width="104.882" height="104.882" class="st1"/>
			<text x="52.44" y="447.8" writing-mode="tb-rl" class="st2" v:langID="1028"><v:paragraph v:horizAlign="1"/><v:tabList/>（成大悲行）</text>		</g>
		<g id="shape8-59" v:mID="8" v:groupContext="shape" transform="translate(160.482,-157.898)">
			<title>工作表.8</title>
			<desc>布施以攝眾</desc>
			<v:textBlock v:margins="rect(4,4,4,4)" v:tabSpace="42.5197" v:verticalText="true"/>
			<v:textRect cx="45.3543" cy="502.882" width="90.71" height="90.7087"/>
			<rect x="0" y="457.528" width="90.7087" height="90.7087" class="st1"/>
			<text x="45.35" y="462.88" writing-mode="tb-rl" class="st2" v:langID="1028"><v:paragraph v:horizAlign="1"/><v:tabList/>布施以攝眾</text>		</g>
		<g id="shape9-62" v:mID="9" v:groupContext="shape" transform="translate(132.136,-157.898)">
			<title>工作表.9</title>
			<desc>持戒以和眾</desc>
			<v:textBlock v:margins="rect(4,4,4,4)" v:tabSpace="42.5197" v:verticalText="true"/>
			<v:textRect cx="45.3543" cy="502.882" width="90.71" height="90.7087"/>
			<rect x="0" y="457.528" width="90.7087" height="90.7087" class="st1"/>
			<text x="45.35" y="462.88" writing-mode="tb-rl" class="st2" v:langID="1028"><v:paragraph v:horizAlign="1"/><v:tabList/>持戒以和眾</text>		</g>
		<g id="shape10-65" v:mID="10" v:groupContext="shape" transform="translate(103.789,-157.898)">
			<title>工作表.10</title>
			<desc>忍辱以安眾</desc>
			<v:textBlock v:margins="rect(4,4,4,4)" v:tabSpace="42.5197" v:verticalText="true"/>
			<v:textRect cx="45.3543" cy="502.882" width="90.71" height="90.7087"/>
			<rect x="0" y="457.528" width="90.7087" height="90.7087" class="st1"/>
			<text x="45.35" y="462.88" writing-mode="tb-rl" class="st2" v:langID="1028"><v:paragraph v:horizAlign="1"/><v:tabList/>忍辱以安眾</text>		</g>
		<g id="shape24-68" v:mID="24" v:groupContext="shape" transform="translate(71.1909,-75.6929)">
			<title>工作表.24</title>
			<desc>己利</desc>
			<v:textBlock v:margins="rect(4,4,4,4)" v:tabSpace="42.5197" v:verticalText="true"/>
			<v:textRect cx="21.2598" cy="526.976" width="42.52" height="42.5197"/>
			<rect x="0" y="505.717" width="42.5197" height="42.5197" class="st1"/>
			<text x="21.26" y="510.98" writing-mode="tb-rl" class="st2" v:langID="1028"><v:paragraph v:horizAlign="1"/><v:tabList/>己利</text>		</g>
		<g id="shape28-71" v:mID="28" v:groupContext="shape" transform="translate(683.207,274.118) rotate(90)">
			<title>工作表.28</title>
			<path d="M0 548.24 L14.17 548.24" class="st3"/>
		</g>
		<g id="shape29-74" v:mID="29" v:groupContext="shape" transform="translate(64.1043,-259.945)">
			<title>工作表.29</title>
			<path d="M0 548.24 L141.73 548.24" class="st3"/>
		</g>
		<g id="shape30-77" v:mID="30" v:groupContext="shape" transform="translate(782.419,189.079) rotate(90)">
			<title>工作表.30</title>
			<path d="M0 548.24 L14.17 548.24" class="st3"/>
		</g>
		<g id="shape31-80" v:mID="31" v:groupContext="shape" transform="translate(683.207,189.079) rotate(90)">
			<title>工作表.31</title>
			<path d="M0 548.24 L14.17 548.24" class="st3"/>
		</g>
		<g id="shape32-83" v:mID="32" v:groupContext="shape" transform="translate(867.459,75.6929) rotate(90)">
			<title>工作表.32</title>
			<path d="M0 548.24 L14.17 548.24" class="st3"/>
		</g>
		<g id="shape33-86" v:mID="33" v:groupContext="shape" transform="translate(739.9,174.906) rotate(90)">
			<title>工作表.33</title>
			<path d="M0 548.24 L14.17 548.24" class="st3"/>
		</g>
		<g id="shape34-89" v:mID="34" v:groupContext="shape" transform="translate(583.994,75.6929) rotate(90)">
			<title>工作表.34</title>
			<path d="M0 548.24 L14.17 548.24" class="st3"/>
		</g>
		<g id="shape35-92" v:mID="35" v:groupContext="shape" transform="translate(35.7579,-472.543)">
			<title>工作表.35</title>
			<path d="M0 548.24 L226.77 548.24" class="st3"/>
		</g>
		<g id="shape36-95" v:mID="36" v:groupContext="shape" transform="translate(290.876,-472.543)">
			<title>工作表.36</title>
			<path d="M0 548.24 L28.35 548.24" class="st3"/>
		</g>
		<g id="shape37-98" v:mID="37" v:groupContext="shape" transform="translate(134.97,-359.157)">
			<title>工作表.37</title>
			<path d="M0 548.24 L99.21 548.24" class="st3"/>
		</g>
		<g id="shape38-101" v:mID="38" v:groupContext="shape" transform="translate(754.073,288.291) rotate(90)">
			<title>工作表.38</title>
			<path d="M0 548.24 L14.17 548.24" class="st3"/>
		</g>
		<g id="shape39-104" v:mID="39" v:groupContext="shape" transform="translate(612.341,288.291) rotate(90)">
			<title>工作表.39</title>
			<path d="M0 548.24 L14.17 548.24" class="st3"/>
		</g>
		<g id="shape40-107" v:mID="40" v:groupContext="shape" transform="translate(640.687,387.504) rotate(90)">
			<title>工作表.40</title>
			<path d="M0 548.24 L42.52 548.24" class="st3"/>
		</g>
		<g id="shape41-110" v:mID="41" v:groupContext="shape" transform="translate(576.957,691.611) rotate(123.69)">
			<title>工作表.41</title>
			<path d="M0 548.24 L51.1 548.24" class="st3"/>
		</g>
		<g id="shape42-113" v:mID="42" v:groupContext="shape" transform="translate(605.304,83.3972) rotate(56.3099)">
			<title>工作表.42</title>
			<path d="M0 548.24 L51.1 548.24" class="st3"/>
		</g>
		<g id="shape43-116" v:mID="43" v:groupContext="shape" transform="translate(725.726,387.504) rotate(90)">
			<title>工作表.43</title>
			<path d="M0 548.24 L42.52 548.24" class="st3"/>
		</g>
		<g id="shape44-119" v:mID="44" v:groupContext="shape" transform="translate(520.264,83.3972) rotate(56.3099)">
			<title>工作表.44</title>
			<path d="M0 548.24 L51.1 548.24" class="st3"/>
		</g>
		<g id="shape45-122" v:mID="45" v:groupContext="shape" transform="translate(661.997,691.611) rotate(123.69)">
			<title>工作表.45</title>
			<path d="M0 548.24 L51.1 548.24" class="st3"/>
		</g>
		<g id="shape46-125" v:mID="46" v:groupContext="shape" transform="translate(782.419,274.118) rotate(90)">
			<title>工作表.46</title>
			<path d="M0 548.24 L175.75 548.24" class="st4"/>
		</g>
		<g id="shape47-128" v:mID="47" v:groupContext="shape" transform="translate(867.459,387.504) rotate(90)">
			<title>工作表.47</title>
			<path d="M0 548.24 L141.73 548.24" class="st4"/>
		</g>
		<g id="shape48-131" v:mID="48" v:groupContext="shape" transform="translate(824.939,387.504) rotate(90)">
			<title>工作表.48</title>
			<path d="M0 548.24 L113.39 548.24" class="st4"/>
		</g>
		<g id="shape49-134" v:mID="49" v:groupContext="shape" transform="translate(583.994,387.504) rotate(90)">
			<title>工作表.49</title>
			<path d="M0 548.24 L62.36 548.24" class="st4"/>
		</g>
		<g id="shape50-137" v:mID="50" v:groupContext="shape" transform="translate(640.687,472.543) rotate(90)">
			<title>工作表.50</title>
			<path d="M0 548.24 L56.69 548.24" class="st4"/>
		</g>
		<g id="shape51-140" v:mID="51" v:groupContext="shape" transform="translate(725.726,472.543) rotate(90)">
			<title>工作表.51</title>
			<path d="M0 548.24 L56.69 548.24" class="st4"/>
		</g>
		<g id="shape52-143" v:mID="52" v:groupContext="shape" transform="translate(583.994,189.079) rotate(90)">
			<title>工作表.52</title>
			<path d="M0 548.24 L110.55 548.24" class="st4"/>
		</g>
		<g id="shape25-146" v:mID="25" v:groupContext="shape" transform="translate(92.4508,-19)">
			<title>工作表.25</title>
			<path d="M0 548.24 L226.77 548.24" class="st4"/>
		</g>
		<g id="shape26-149" v:mID="26" v:groupContext="shape" transform="translate(177.49,-47.3465)">
			<title>工作表.26</title>
			<path d="M0 548.24 L99.21 548.24" class="st4"/>
		</g>
		<g id="shape27-152" v:mID="27" v:groupContext="shape" transform="translate(35.7579,-98.3701)">
			<title>工作表.27</title>
			<path d="M0 548.24 L28.35 548.24" class="st4"/>
		</g>
		<g id="shape53-155" v:mID="53" v:groupContext="shape" transform="translate(612.341,387.504) rotate(90)">
			<title>工作表.53</title>
			<path d="M0 548.24 L62.36 548.24" class="st4"/>
		</g>
		<g id="shape54-158" v:mID="54" v:groupContext="shape" transform="translate(234.183,-98.3701)">
			<title>工作表.54</title>
			<path d="M0 548.24 L42.52 548.24" class="st4"/>
		</g>
	</g>
</svg>
