<?xml version="1.0" encoding="UTF-8" standalone="no"?>
<!DOCTYPE svg PUBLIC "-//W3C//DTD SVG 1.1//EN" "http://www.w3.org/Graphics/SVG/1.1/DTD/svg11.dtd">
<!-- 由 Microsoft Visio, SVG Export 產生 y33.0188.svg 頁-1 -->
<svg xmlns="http://www.w3.org/2000/svg" xmlns:xlink="http://www.w3.org/1999/xlink" xmlns:ev="http://www.w3.org/2001/xml-events"
		xmlns:v="http://schemas.microsoft.com/visio/2003/SVGExtensions/" width="8.45703in" height="6.7068in"
		viewBox="0 0 608.906 482.89" xml:space="preserve" color-interpolation-filters="sRGB" class="st6">
	<v:documentProperties v:langID="1028" v:metric="true" v:viewMarkup="false">
		<v:userDefs>
			<v:ud v:nameU="msvConvertTheme"/>
		</v:userDefs>
	</v:documentProperties>

	<style type="text/css">
	<![CDATA[
		.st1 {fill:none;stroke:none;stroke-linecap:round;stroke-linejoin:round;stroke-width:0.75}
		.st2 {fill:#000000;font-family:新細明體;font-size:1.33333em}
		.st3 {font-family:標楷體;font-size:1em}
		.st4 {stroke:#000000;stroke-dasharray:3,3;stroke-linecap:round;stroke-linejoin:round;stroke-width:1}
		.st5 {stroke:#000000;stroke-linecap:round;stroke-linejoin:round;stroke-width:1}
		.st6 {fill:none;fill-rule:evenodd;font-size:12px;overflow:visible;stroke-linecap:square;stroke-miterlimit:3}
	]]>
	</style>

	<g v:mID="0" v:index="1" v:groupContext="foregroundPage">
		<title>頁-1</title>
		<v:pageProperties v:drawingScale="0.0393701" v:pageScale="0.0393701" v:drawingUnits="24" v:shadowOffsetX="8.50394"
				v:shadowOffsetY="-8.50394"/>
		<g id="group115-1" transform="translate(0.5,-0.5)" v:mID="115" v:groupContext="group">
			<title>工作表.115</title>
			<g id="shape1-2" v:mID="1" v:groupContext="shape" transform="translate(0,-226.772)">
				<title>工作表.1</title>
				<desc>中期佛教</desc>
				<v:textBlock v:margins="rect(4,4,4,4)" v:tabSpace="42.5197"/>
				<v:textRect cx="36.8504" cy="468.717" width="73.71" height="28.3465"/>
				<rect x="0" y="454.543" width="73.7008" height="28.3465" class="st1"/>
				<text x="4.85" y="473.52" class="st2" v:langID="1028"><v:paragraph v:horizAlign="1"/><v:tabList/>中期佛教</text>			</g>
			<g id="shape2-5" v:mID="2" v:groupContext="shape" transform="translate(77.9528,-255.118)">
				<title>工作表.2</title>
				<desc>緣有</desc>
				<v:textBlock v:margins="rect(4,4,4,4)" v:tabSpace="42.5197"/>
				<v:textRect cx="21.2598" cy="468.717" width="42.52" height="28.3465"/>
				<rect x="0" y="454.543" width="42.5197" height="28.3465" class="st1"/>
				<text x="5.26" y="473.52" class="st2" v:langID="1028"><v:paragraph v:horizAlign="1"/><v:tabList/>緣有</text>			</g>
			<g id="shape3-8" v:mID="3" v:groupContext="shape" transform="translate(77.9528,-198.425)">
				<title>工作表.3</title>
				<desc>性空</desc>
				<v:textBlock v:margins="rect(4,4,4,4)" v:tabSpace="42.5197"/>
				<v:textRect cx="21.2598" cy="440.37" width="42.52" height="85.0394"/>
				<rect x="0" y="397.85" width="42.5197" height="85.0394" class="st1"/>
				<text x="5.26" y="445.17" class="st2" v:langID="1028"><v:paragraph v:horizAlign="1"/><v:tabList/>性空</text>			</g>
			<g id="shape4-11" v:mID="4" v:groupContext="shape" transform="translate(77.9528,-198.425)">
				<title>工作表.4</title>
				<desc>大乘</desc>
				<v:textBlock v:margins="rect(4,4,4,4)" v:tabSpace="42.5197"/>
				<v:textRect cx="21.2598" cy="468.717" width="42.52" height="28.3465"/>
				<rect x="0" y="454.543" width="42.5197" height="28.3465" class="st1"/>
				<text x="5.26" y="473.52" class="st2" v:langID="1028"><v:paragraph v:horizAlign="1"/><v:tabList/>大乘</text>			</g>
			<g id="shape5-14" v:mID="5" v:groupContext="shape" transform="translate(136.063,-226.772)">
				<title>工作表.5</title>
				<desc>本性空者大成</desc>
				<v:textBlock v:margins="rect(4,4,4,4)" v:tabSpace="42.5197"/>
				<v:textRect cx="56.6929" cy="468.717" width="113.39" height="28.3465"/>
				<rect x="0" y="454.543" width="113.386" height="28.3465" class="st1"/>
				<text x="8.69" y="473.52" class="st2" v:langID="1028"><v:paragraph v:horizAlign="1"/><v:tabList/>本性空者大成</text>			</g>
			<g id="shape6-17" v:mID="6" v:groupContext="shape" transform="translate(249.449,-226.772)">
				<title>工作表.6</title>
				<desc>四五○─</desc>
				<v:textBlock v:margins="rect(4,4,4,4)" v:tabSpace="42.5197"/>
				<v:textRect cx="39.685" cy="468.717" width="79.38" height="28.3465"/>
				<rect x="0" y="454.543" width="79.3701" height="28.3465" class="st1"/>
				<text x="7.69" y="473.52" class="st2" v:langID="1028"><v:paragraph v:horizAlign="1"/><v:tabList/>四五<tspan
							class="st3" v:langID="1033">○</tspan>─</text>			</g>
			<g id="shape7-21" v:mID="7" v:groupContext="shape" transform="translate(175.748,-269.291)">
				<title>工作表.7</title>
				<desc>發智者病有</desc>
				<v:textBlock v:margins="rect(4,4,4,4)" v:tabSpace="42.5197"/>
				<v:textRect cx="56.6929" cy="468.717" width="113.39" height="28.3465"/>
				<rect x="0" y="454.543" width="113.386" height="28.3465" class="st1"/>
				<text x="16.69" y="473.52" class="st2" v:langID="1028"><v:paragraph v:horizAlign="1"/><v:tabList/>發智者病有</text>			</g>
			<g id="shape8-24" v:mID="8" v:groupContext="shape" transform="translate(289.134,-269.291)">
				<title>工作表.8</title>
				<desc>四○○─</desc>
				<v:textBlock v:margins="rect(4,4,4,4)" v:tabSpace="42.5197"/>
				<v:textRect cx="43.937" cy="468.717" width="87.88" height="28.3465"/>
				<rect x="0" y="454.543" width="87.874" height="28.3465" class="st1"/>
				<text x="11.94" y="473.52" class="st2" v:langID="1028"><v:paragraph v:horizAlign="1"/><v:tabList/>四<tspan
							class="st3" v:langID="1033">○○</tspan>─</text>			</g>
			<g id="shape9-28" v:mID="9" v:groupContext="shape" transform="translate(223.937,-311.811)">
				<title>工作表.9</title>
				<desc>一切有者盛</desc>
				<v:textBlock v:margins="rect(4,4,4,4)" v:tabSpace="42.5197"/>
				<v:textRect cx="56.6929" cy="468.717" width="113.39" height="28.3465"/>
				<rect x="0" y="454.543" width="113.386" height="28.3465" class="st1"/>
				<text x="16.69" y="473.52" class="st2" v:langID="1028"><v:paragraph v:horizAlign="1"/><v:tabList/>一切有者盛</text>			</g>
			<g id="shape10-31" v:mID="10" v:groupContext="shape" transform="translate(337.323,-311.811)">
				<title>工作表.10</title>
				<desc>二○○─</desc>
				<v:textBlock v:margins="rect(4,4,4,4)" v:tabSpace="42.5197"/>
				<v:textRect cx="43.937" cy="468.717" width="87.88" height="28.3465"/>
				<rect x="0" y="454.543" width="87.874" height="28.3465" class="st1"/>
				<text x="11.94" y="473.52" class="st2" v:langID="1028"><v:paragraph v:horizAlign="1"/><v:tabList/>二<tspan
							class="st3" v:langID="1033">○○</tspan>─</text>			</g>
			<g id="shape11-35" v:mID="11" v:groupContext="shape" transform="translate(287.717,-354.331)">
				<title>工作表.11</title>
				<desc>分別說者興</desc>
				<v:textBlock v:margins="rect(4,4,4,4)" v:tabSpace="42.5197"/>
				<v:textRect cx="56.6929" cy="468.717" width="113.39" height="28.3465"/>
				<rect x="0" y="454.543" width="113.386" height="28.3465" class="st1"/>
				<text x="16.69" y="473.52" class="st2" v:langID="1028"><v:paragraph v:horizAlign="1"/><v:tabList/>分別說者興</text>			</g>
			<g id="shape12-38" v:mID="12" v:groupContext="shape" transform="translate(401.102,-354.331)">
				<title>工作表.12</title>
				<desc>一○○─</desc>
				<v:textBlock v:margins="rect(4,4,4,4)" v:tabSpace="42.5197"/>
				<v:textRect cx="40.3937" cy="468.717" width="80.79" height="28.3465"/>
				<rect x="0" y="454.543" width="80.7874" height="28.3465" class="st1"/>
				<text x="8.39" y="473.52" class="st2" v:langID="1028"><v:paragraph v:horizAlign="1"/><v:tabList/>一<tspan
							class="st3" v:langID="1033">○○</tspan>─</text>			</g>
			<g id="shape13-42" v:mID="13" v:groupContext="shape" transform="translate(187.087,-425.197)">
				<title>工作表.13</title>
				<desc>初期佛教</desc>
				<v:textBlock v:margins="rect(4,4,4,4)" v:tabSpace="42.5197"/>
				<v:textRect cx="36.8504" cy="468.717" width="73.71" height="28.3465"/>
				<rect x="0" y="454.543" width="73.7008" height="28.3465" class="st1"/>
				<text x="4.85" y="473.52" class="st2" v:langID="1028"><v:paragraph v:horizAlign="1"/><v:tabList/>初期佛教</text>			</g>
			<g id="shape14-45" v:mID="14" v:groupContext="shape" transform="translate(270.709,-453.543)">
				<title>工作表.14</title>
				<desc>事有</desc>
				<v:textBlock v:margins="rect(4,4,4,4)" v:tabSpace="42.5197"/>
				<v:textRect cx="21.2598" cy="468.717" width="42.52" height="28.3465"/>
				<rect x="0" y="454.543" width="42.5197" height="28.3465" class="st1"/>
				<text x="5.26" y="473.52" class="st2" v:langID="1028"><v:paragraph v:horizAlign="1"/><v:tabList/>事有</text>			</g>
			<g id="shape15-48" v:mID="15" v:groupContext="shape" transform="translate(270.709,-396.85)">
				<title>工作表.15</title>
				<desc>無常</desc>
				<v:textBlock v:margins="rect(4,4,4,4)" v:tabSpace="42.5197"/>
				<v:textRect cx="20.5512" cy="440.37" width="41.11" height="85.0394"/>
				<rect x="0" y="397.85" width="41.1024" height="85.0394" class="st1"/>
				<text x="4.55" y="445.17" class="st2" v:langID="1028"><v:paragraph v:horizAlign="1"/><v:tabList/>無常</text>			</g>
			<g id="shape16-51" v:mID="16" v:groupContext="shape" transform="translate(270.709,-396.85)">
				<title>工作表.16</title>
				<desc>小乘</desc>
				<v:textBlock v:margins="rect(4,4,4,4)" v:tabSpace="42.5197"/>
				<v:textRect cx="20.5512" cy="468.717" width="41.11" height="28.3465"/>
				<rect x="0" y="454.543" width="41.1024" height="28.3465" class="st1"/>
				<text x="4.55" y="473.52" class="st2" v:langID="1028"><v:paragraph v:horizAlign="1"/><v:tabList/>小乘</text>			</g>
			<g id="shape17-54" v:mID="17" v:groupContext="shape" transform="translate(335.906,-396.85)">
				<title>工作表.17</title>
				<desc>大乘者初分</desc>
				<v:textBlock v:margins="rect(4,4,4,4)" v:tabSpace="42.5197"/>
				<v:textRect cx="56.6929" cy="468.717" width="113.39" height="28.3465"/>
				<rect x="0" y="454.543" width="113.386" height="28.3465" class="st1"/>
				<text x="16.69" y="473.52" class="st2" v:langID="1028"><v:paragraph v:horizAlign="1"/><v:tabList/>大乘者初分</text>			</g>
			<g id="shape18-57" v:mID="18" v:groupContext="shape" transform="translate(450.142,-396.85)">
				<title>工作表.18</title>
				<desc>佛元</desc>
				<v:textBlock v:margins="rect(4,4,4,4)" v:tabSpace="42.5197"/>
				<v:textRect cx="22.9606" cy="468.717" width="45.93" height="28.3465"/>
				<rect x="0" y="454.543" width="45.9213" height="28.3465" class="st1"/>
				<text x="6.96" y="473.52" class="st2" v:langID="1028"><v:paragraph v:horizAlign="1"/><v:tabList/>佛元</text>			</g>
			<g id="shape19-60" v:mID="19" v:groupContext="shape" transform="translate(394.016,-439.37)">
				<title>工作表.19</title>
				<desc>佛教創始</desc>
				<v:textBlock v:margins="rect(4,4,4,4)" v:tabSpace="42.5197"/>
				<v:textRect cx="56.6929" cy="468.717" width="113.39" height="28.3465"/>
				<rect x="0" y="454.543" width="113.386" height="28.3465" class="st1"/>
				<text x="24.69" y="473.52" class="st2" v:langID="1028"><v:paragraph v:horizAlign="1"/><v:tabList/>佛教創始</text>			</g>
			<g id="shape20-63" v:mID="20" v:groupContext="shape" transform="translate(506.835,-439.37)">
				<title>工作表.20</title>
				<desc>佛世</desc>
				<v:textBlock v:margins="rect(4,4,4,4)" v:tabSpace="42.5197"/>
				<v:textRect cx="22.9606" cy="468.717" width="45.93" height="28.3465"/>
				<rect x="0" y="454.543" width="45.9213" height="28.3465" class="st1"/>
				<text x="6.96" y="473.52" class="st2" v:langID="1028"><v:paragraph v:horizAlign="1"/><v:tabList/>佛世</text>			</g>
			<g id="shape21-66" v:mID="21" v:groupContext="shape" transform="translate(175.748,-184.252)">
				<title>工作表.21</title>
				<desc>方廣者執空</desc>
				<v:textBlock v:margins="rect(4,4,4,4)" v:tabSpace="42.5197"/>
				<v:textRect cx="56.6929" cy="468.717" width="113.39" height="28.3465"/>
				<rect x="0" y="454.543" width="113.386" height="28.3465" class="st1"/>
				<text x="16.69" y="473.52" class="st2" v:langID="1028"><v:paragraph v:horizAlign="1"/><v:tabList/>方廣者執空</text>			</g>
			<g id="shape22-69" v:mID="22" v:groupContext="shape" transform="translate(289.134,-184.252)">
				<title>工作表.22</title>
				<desc>五五○─</desc>
				<v:textBlock v:margins="rect(4,4,4,4)" v:tabSpace="42.5197"/>
				<v:textRect cx="43.937" cy="468.717" width="87.88" height="28.3465"/>
				<rect x="0" y="454.543" width="87.874" height="28.3465" class="st1"/>
				<text x="11.94" y="473.52" class="st2" v:langID="1028"><v:paragraph v:horizAlign="1"/><v:tabList/>五五<tspan
							class="st3" v:langID="1033">○</tspan>─</text>			</g>
			<g id="shape23-73" v:mID="23" v:groupContext="shape" transform="translate(223.937,-141.732)">
				<title>工作表.23</title>
				<desc>瑜伽者入大</desc>
				<v:textBlock v:margins="rect(4,4,4,4)" v:tabSpace="42.5197"/>
				<v:textRect cx="56.6929" cy="468.717" width="113.39" height="28.3465"/>
				<rect x="0" y="454.543" width="113.386" height="28.3465" class="st1"/>
				<text x="16.69" y="473.52" class="st2" v:langID="1028"><v:paragraph v:horizAlign="1"/><v:tabList/>瑜伽者入大</text>			</g>
			<g id="shape24-76" v:mID="24" v:groupContext="shape" transform="translate(337.323,-141.732)">
				<title>工作表.24</title>
				<desc>七○○─</desc>
				<v:textBlock v:margins="rect(4,4,4,4)" v:tabSpace="42.5197"/>
				<v:textRect cx="48.189" cy="468.717" width="96.38" height="28.3465"/>
				<rect x="0" y="454.543" width="96.378" height="28.3465" class="st1"/>
				<text x="16.19" y="473.52" class="st2" v:langID="1028"><v:paragraph v:horizAlign="1"/><v:tabList/>七<tspan
							class="st3" v:langID="1033">○○</tspan>─</text>			</g>
			<g id="shape25-80" v:mID="25" v:groupContext="shape" transform="translate(287.717,-99.2126)">
				<title>工作表.25</title>
				<desc>中觀者重光</desc>
				<v:textBlock v:margins="rect(4,4,4,4)" v:tabSpace="42.5197"/>
				<v:textRect cx="56.6929" cy="468.717" width="113.39" height="28.3465"/>
				<rect x="0" y="454.543" width="113.386" height="28.3465" class="st1"/>
				<text x="16.69" y="473.52" class="st2" v:langID="1028"><v:paragraph v:horizAlign="1"/><v:tabList/>中觀者重光</text>			</g>
			<g id="shape26-83" v:mID="26" v:groupContext="shape" transform="translate(401.102,-99.2126)">
				<title>工作表.26</title>
				<desc>七五○─</desc>
				<v:textBlock v:margins="rect(4,4,4,4)" v:tabSpace="42.5197"/>
				<v:textRect cx="41.811" cy="468.717" width="83.63" height="28.3465"/>
				<rect x="0" y="454.543" width="83.622" height="28.3465" class="st1"/>
				<text x="9.81" y="473.52" class="st2" v:langID="1028"><v:paragraph v:horizAlign="1"/><v:tabList/>七五<tspan
							class="st3" v:langID="1033">○</tspan>─</text>			</g>
			<g id="shape27-87" v:mID="27" v:groupContext="shape" transform="translate(187.087,-28.3465)">
				<title>工作表.27</title>
				<desc>後期佛教</desc>
				<v:textBlock v:margins="rect(4,4,4,4)" v:tabSpace="42.5197"/>
				<v:textRect cx="36.8504" cy="468.717" width="73.71" height="28.3465"/>
				<rect x="0" y="454.543" width="73.7008" height="28.3465" class="st1"/>
				<text x="4.85" y="473.52" class="st2" v:langID="1028"><v:paragraph v:horizAlign="1"/><v:tabList/>後期佛教</text>			</g>
			<g id="shape28-90" v:mID="28" v:groupContext="shape" transform="translate(269.291,-56.6929)">
				<title>工作表.28</title>
				<desc>妙有</desc>
				<v:textBlock v:margins="rect(4,4,4,4)" v:tabSpace="42.5197"/>
				<v:textRect cx="21.2598" cy="468.717" width="42.52" height="28.3465"/>
				<rect x="0" y="454.543" width="42.5197" height="28.3465" class="st1"/>
				<text x="5.26" y="473.52" class="st2" v:langID="1028"><v:paragraph v:horizAlign="1"/><v:tabList/>妙有</text>			</g>
			<g id="shape29-93" v:mID="29" v:groupContext="shape" transform="translate(269.291,-3.41061E-13)">
				<title>工作表.29</title>
				<desc>真常</desc>
				<v:textBlock v:margins="rect(4,4,4,4)" v:tabSpace="42.5197"/>
				<v:textRect cx="21.2598" cy="440.37" width="42.52" height="85.0394"/>
				<rect x="0" y="397.85" width="42.5197" height="85.0394" class="st1"/>
				<text x="5.26" y="445.17" class="st2" v:langID="1028"><v:paragraph v:horizAlign="1"/><v:tabList/>真常</text>			</g>
			<g id="shape30-96" v:mID="30" v:groupContext="shape" transform="translate(335.906,-56.6929)">
				<title>工作表.30</title>
				<desc>真常者綜合</desc>
				<v:textBlock v:margins="rect(4,4,4,4)" v:tabSpace="42.5197"/>
				<v:textRect cx="56.6929" cy="468.717" width="113.39" height="28.3465"/>
				<rect x="0" y="454.543" width="113.386" height="28.3465" class="st1"/>
				<text x="16.69" y="473.52" class="st2" v:langID="1028"><v:paragraph v:horizAlign="1"/><v:tabList/>真常者綜合</text>			</g>
			<g id="shape31-99" v:mID="31" v:groupContext="shape" transform="translate(269.291,0)">
				<title>工作表.31</title>
				<desc>一乘</desc>
				<v:textBlock v:margins="rect(4,4,4,4)" v:tabSpace="42.5197"/>
				<v:textRect cx="21.2598" cy="468.717" width="42.52" height="28.3465"/>
				<rect x="0" y="454.543" width="42.5197" height="28.3465" class="st1"/>
				<text x="5.26" y="473.52" class="st2" v:langID="1028"><v:paragraph v:horizAlign="1"/><v:tabList/>一乘</text>			</g>
			<g id="shape32-102" v:mID="32" v:groupContext="shape" transform="translate(449.291,-56.6929)">
				<title>工作表.32</title>
				<desc>八○○─</desc>
				<v:textBlock v:margins="rect(4,4,4,4)" v:tabSpace="42.5197"/>
				<v:textRect cx="45.3543" cy="468.717" width="90.71" height="28.3465"/>
				<rect x="0" y="454.543" width="90.7087" height="28.3465" class="st1"/>
				<text x="13.35" y="473.52" class="st2" v:langID="1028"><v:paragraph v:horizAlign="1"/><v:tabList/>八<tspan
							class="st3" v:langID="1033">○○</tspan>─</text>			</g>
			<g id="shape33-106" v:mID="33" v:groupContext="shape" transform="translate(394.016,-14.1732)">
				<title>工作表.33</title>
				<desc>佛教衰滅</desc>
				<v:textBlock v:margins="rect(4,4,4,4)" v:tabSpace="42.5197"/>
				<v:textRect cx="56.6929" cy="468.717" width="113.39" height="28.3465"/>
				<rect x="0" y="454.543" width="113.386" height="28.3465" class="st1"/>
				<text x="24.69" y="473.52" class="st2" v:langID="1028"><v:paragraph v:horizAlign="1"/><v:tabList/>佛教衰滅</text>			</g>
			<g id="shape34-109" v:mID="34" v:groupContext="shape" transform="translate(507.402,-14.1732)">
				<title>工作表.34</title>
				<desc>一一○○─</desc>
				<v:textBlock v:margins="rect(4,4,4,4)" v:tabSpace="42.5197"/>
				<v:textRect cx="50.3149" cy="468.717" width="100.63" height="28.3465"/>
				<rect x="0" y="454.543" width="100.63" height="28.3465" class="st1"/>
				<text x="10.32" y="473.52" class="st2" v:langID="1028"><v:paragraph v:horizAlign="1"/><v:tabList/>一一<tspan
							class="st3" v:langID="1033">○○</tspan>─</text>			</g>
			<g id="group40-113" transform="translate(-363.835,284.465) rotate(-90)" v:mID="40" v:groupContext="group">
				<title>工作表.40</title>
				<g id="shape36-114" v:mID="36" v:groupContext="shape" transform="translate(482.89,443.205) rotate(90)">
					<title>工作表.36</title>
					<path d="M0 482.89 L39.69 482.89" class="st4"/>
				</g>
				<g id="shape37-117" v:mID="37" v:groupContext="shape" transform="translate(567.929,443.205) rotate(90)">
					<title>工作表.37</title>
					<path d="M0 482.89 L39.69 482.89" class="st4"/>
				</g>
				<g id="shape38-120" v:mID="38" v:groupContext="shape" transform="translate(-5.88622E-12,-39.685)">
					<title>工作表.38</title>
					<path d="M0 482.89 L85.04 482.89" class="st4"/>
				</g>
				<g id="shape39-123" v:mID="39" v:groupContext="shape">
					<title>工作表.39</title>
					<path d="M0 482.89 L85.04 482.89" class="st4"/>
				</g>
			</g>
			<g id="group42-126" transform="translate(-409.189,256.118) rotate(-90)" v:mID="42" v:groupContext="group">
				<title>工作表.42</title>
				<g id="shape35-127" v:mID="35" v:groupContext="shape" transform="translate(482.89,409.189) rotate(90)">
					<title>工作表.35</title>
					<path d="M0 482.89 L73.7 482.89" class="st5"/>
				</g>
				<g id="shape41-130" v:mID="41" v:groupContext="shape" transform="translate(511.236,409.189) rotate(90)">
					<title>工作表.41</title>
					<path d="M0 482.89 L73.7 482.89" class="st5"/>
				</g>
			</g>
			<g id="group47-133" transform="translate(-233.441,256.118) rotate(-90)" v:mID="47" v:groupContext="group">
				<title>工作表.47</title>
				<g id="shape43-134" v:mID="43" v:groupContext="shape" transform="translate(0,-113.386)">
					<title>工作表.43</title>
					<path d="M0 482.89 L28.35 482.89" class="st5"/>
				</g>
				<g id="shape44-137" v:mID="44" v:groupContext="shape">
					<title>工作表.44</title>
					<path d="M0 482.89 L28.35 482.89" class="st5"/>
				</g>
				<g id="shape45-140" v:mID="45" v:groupContext="shape" transform="translate(482.89,369.504) rotate(90)">
					<title>工作表.45</title>
					<path d="M0 482.89 L113.39 482.89" class="st5"/>
				</g>
				<g id="shape46-143" v:mID="46" v:groupContext="shape" transform="translate(511.236,369.504) rotate(90)">
					<title>工作表.46</title>
					<path d="M0 482.89 L113.39 482.89" class="st5"/>
				</g>
			</g>
			<g id="group49-146" transform="translate(-193.756,298.638) rotate(-90)" v:mID="49" v:groupContext="group">
				<title>工作表.49</title>
				<g id="shape50-147" v:mID="50" v:groupContext="shape" transform="translate(0,-113.386)">
					<title>工作表.50</title>
					<path d="M0 482.89 L28.35 482.89" class="st5"/>
				</g>
				<g id="shape51-150" v:mID="51" v:groupContext="shape">
					<title>工作表.51</title>
					<path d="M0 482.89 L28.35 482.89" class="st5"/>
				</g>
				<g id="shape52-153" v:mID="52" v:groupContext="shape" transform="translate(482.89,369.504) rotate(90)">
					<title>工作表.52</title>
					<path d="M0 482.89 L113.39 482.89" class="st5"/>
				</g>
				<g id="shape53-156" v:mID="53" v:groupContext="shape" transform="translate(511.236,369.504) rotate(90)">
					<title>工作表.53</title>
					<path d="M0 482.89 L113.39 482.89" class="st5"/>
				</g>
			</g>
			<g id="group54-159" transform="translate(-193.756,213.598) rotate(-90)" v:mID="54" v:groupContext="group">
				<title>工作表.54</title>
				<g id="shape55-160" v:mID="55" v:groupContext="shape" transform="translate(0,-113.386)">
					<title>工作表.55</title>
					<path d="M0 482.89 L28.35 482.89" class="st5"/>
				</g>
				<g id="shape56-163" v:mID="56" v:groupContext="shape">
					<title>工作表.56</title>
					<path d="M0 482.89 L28.35 482.89" class="st5"/>
				</g>
				<g id="shape57-166" v:mID="57" v:groupContext="shape" transform="translate(482.89,369.504) rotate(90)">
					<title>工作表.57</title>
					<path d="M0 482.89 L113.39 482.89" class="st5"/>
				</g>
				<g id="shape58-169" v:mID="58" v:groupContext="shape" transform="translate(511.236,369.504) rotate(90)">
					<title>工作表.58</title>
					<path d="M0 482.89 L113.39 482.89" class="st5"/>
				</g>
			</g>
			<g id="group59-172" transform="translate(-145.567,341.157) rotate(-90)" v:mID="59" v:groupContext="group">
				<title>工作表.59</title>
				<g id="shape60-173" v:mID="60" v:groupContext="shape" transform="translate(0,-113.386)">
					<title>工作表.60</title>
					<path d="M0 482.89 L28.35 482.89" class="st5"/>
				</g>
				<g id="shape61-176" v:mID="61" v:groupContext="shape">
					<title>工作表.61</title>
					<path d="M0 482.89 L28.35 482.89" class="st5"/>
				</g>
				<g id="shape62-179" v:mID="62" v:groupContext="shape" transform="translate(482.89,369.504) rotate(90)">
					<title>工作表.62</title>
					<path d="M0 482.89 L113.39 482.89" class="st5"/>
				</g>
				<g id="shape63-182" v:mID="63" v:groupContext="shape" transform="translate(511.236,369.504) rotate(90)">
					<title>工作表.63</title>
					<path d="M0 482.89 L113.39 482.89" class="st5"/>
				</g>
			</g>
			<g id="group64-185" transform="translate(-145.567,171.079) rotate(-90)" v:mID="64" v:groupContext="group">
				<title>工作表.64</title>
				<g id="shape65-186" v:mID="65" v:groupContext="shape" transform="translate(0,-113.386)">
					<title>工作表.65</title>
					<path d="M0 482.89 L28.35 482.89" class="st5"/>
				</g>
				<g id="shape66-189" v:mID="66" v:groupContext="shape">
					<title>工作表.66</title>
					<path d="M0 482.89 L28.35 482.89" class="st5"/>
				</g>
				<g id="shape67-192" v:mID="67" v:groupContext="shape" transform="translate(482.89,369.504) rotate(90)">
					<title>工作表.67</title>
					<path d="M0 482.89 L113.39 482.89" class="st5"/>
				</g>
				<g id="shape68-195" v:mID="68" v:groupContext="shape" transform="translate(511.236,369.504) rotate(90)">
					<title>工作表.68</title>
					<path d="M0 482.89 L113.39 482.89" class="st5"/>
				</g>
			</g>
			<g id="group69-198" transform="translate(-81.7874,383.677) rotate(-90)" v:mID="69" v:groupContext="group">
				<title>工作表.69</title>
				<g id="shape70-199" v:mID="70" v:groupContext="shape" transform="translate(0,-113.386)">
					<title>工作表.70</title>
					<path d="M0 482.89 L28.35 482.89" class="st5"/>
				</g>
				<g id="shape71-202" v:mID="71" v:groupContext="shape">
					<title>工作表.71</title>
					<path d="M0 482.89 L28.35 482.89" class="st5"/>
				</g>
				<g id="shape72-205" v:mID="72" v:groupContext="shape" transform="translate(482.89,369.504) rotate(90)">
					<title>工作表.72</title>
					<path d="M0 482.89 L113.39 482.89" class="st5"/>
				</g>
				<g id="shape73-208" v:mID="73" v:groupContext="shape" transform="translate(511.236,369.504) rotate(90)">
					<title>工作表.73</title>
					<path d="M0 482.89 L113.39 482.89" class="st5"/>
				</g>
			</g>
			<g id="group74-211" transform="translate(-81.7874,128.559) rotate(-90)" v:mID="74" v:groupContext="group">
				<title>工作表.74</title>
				<g id="shape75-212" v:mID="75" v:groupContext="shape" transform="translate(0,-113.386)">
					<title>工作表.75</title>
					<path d="M0 482.89 L28.35 482.89" class="st5"/>
				</g>
				<g id="shape76-215" v:mID="76" v:groupContext="shape">
					<title>工作表.76</title>
					<path d="M0 482.89 L28.35 482.89" class="st5"/>
				</g>
				<g id="shape77-218" v:mID="77" v:groupContext="shape" transform="translate(482.89,369.504) rotate(90)">
					<title>工作表.77</title>
					<path d="M0 482.89 L113.39 482.89" class="st5"/>
				</g>
				<g id="shape78-221" v:mID="78" v:groupContext="shape" transform="translate(511.236,369.504) rotate(90)">
					<title>工作表.78</title>
					<path d="M0 482.89 L113.39 482.89" class="st5"/>
				</g>
			</g>
			<g id="group79-224" transform="translate(-33.5984,426.197) rotate(-90)" v:mID="79" v:groupContext="group">
				<title>工作表.79</title>
				<g id="shape80-225" v:mID="80" v:groupContext="shape" transform="translate(0,-113.386)">
					<title>工作表.80</title>
					<path d="M0 482.89 L28.35 482.89" class="st5"/>
				</g>
				<g id="shape81-228" v:mID="81" v:groupContext="shape">
					<title>工作表.81</title>
					<path d="M0 482.89 L28.35 482.89" class="st5"/>
				</g>
				<g id="shape82-231" v:mID="82" v:groupContext="shape" transform="translate(482.89,369.504) rotate(90)">
					<title>工作表.82</title>
					<path d="M0 482.89 L113.39 482.89" class="st5"/>
				</g>
				<g id="shape83-234" v:mID="83" v:groupContext="shape" transform="translate(511.236,369.504) rotate(90)">
					<title>工作表.83</title>
					<path d="M0 482.89 L113.39 482.89" class="st5"/>
				</g>
			</g>
			<g id="group84-237" transform="translate(-33.5984,86.0394) rotate(-90)" v:mID="84" v:groupContext="group">
				<title>工作表.84</title>
				<g id="shape85-238" v:mID="85" v:groupContext="shape" transform="translate(0,-113.386)">
					<title>工作表.85</title>
					<path d="M0 482.89 L28.35 482.89" class="st5"/>
				</g>
				<g id="shape86-241" v:mID="86" v:groupContext="shape">
					<title>工作表.86</title>
					<path d="M0 482.89 L28.35 482.89" class="st5"/>
				</g>
				<g id="shape87-244" v:mID="87" v:groupContext="shape" transform="translate(482.89,369.504) rotate(90)">
					<title>工作表.87</title>
					<path d="M0 482.89 L113.39 482.89" class="st5"/>
				</g>
				<g id="shape88-247" v:mID="88" v:groupContext="shape" transform="translate(511.236,369.504) rotate(90)">
					<title>工作表.88</title>
					<path d="M0 482.89 L113.39 482.89" class="st5"/>
				</g>
			</g>
			<g id="group89-250" transform="translate(24.5118,43.5197) rotate(-90)" v:mID="89" v:groupContext="group">
				<title>工作表.89</title>
				<g id="shape90-251" v:mID="90" v:groupContext="shape" transform="translate(0,-113.386)">
					<title>工作表.90</title>
					<path d="M0 482.89 L28.35 482.89" class="st5"/>
				</g>
				<g id="shape91-254" v:mID="91" v:groupContext="shape">
					<title>工作表.91</title>
					<path d="M0 482.89 L28.35 482.89" class="st5"/>
				</g>
				<g id="shape92-257" v:mID="92" v:groupContext="shape" transform="translate(482.89,369.504) rotate(90)">
					<title>工作表.92</title>
					<path d="M0 482.89 L113.39 482.89" class="st5"/>
				</g>
				<g id="shape93-260" v:mID="93" v:groupContext="shape" transform="translate(511.236,369.504) rotate(90)">
					<title>工作表.93</title>
					<path d="M0 482.89 L113.39 482.89" class="st5"/>
				</g>
			</g>
			<g id="group94-263" transform="translate(24.5118,468.717) rotate(-90)" v:mID="94" v:groupContext="group">
				<title>工作表.94</title>
				<g id="shape95-264" v:mID="95" v:groupContext="shape" transform="translate(0,-113.386)">
					<title>工作表.95</title>
					<path d="M0 482.89 L28.35 482.89" class="st5"/>
				</g>
				<g id="shape96-267" v:mID="96" v:groupContext="shape">
					<title>工作表.96</title>
					<path d="M0 482.89 L28.35 482.89" class="st5"/>
				</g>
				<g id="shape97-270" v:mID="97" v:groupContext="shape" transform="translate(482.89,369.504) rotate(90)">
					<title>工作表.97</title>
					<path d="M0 482.89 L113.39 482.89" class="st5"/>
				</g>
				<g id="shape98-273" v:mID="98" v:groupContext="shape" transform="translate(511.236,369.504) rotate(90)">
					<title>工作表.98</title>
					<path d="M0 482.89 L113.39 482.89" class="st5"/>
				</g>
			</g>
			<g id="group99-276" transform="translate(-172.496,86.0394) rotate(-90)" v:mID="99" v:groupContext="group">
				<title>工作表.99</title>
				<g id="shape100-277" v:mID="100" v:groupContext="shape" transform="translate(482.89,443.205) rotate(90)">
					<title>工作表.100</title>
					<path d="M0 482.89 L39.69 482.89" class="st4"/>
				</g>
				<g id="shape101-280" v:mID="101" v:groupContext="shape" transform="translate(567.929,443.205) rotate(90)">
					<title>工作表.101</title>
					<path d="M0 482.89 L39.69 482.89" class="st4"/>
				</g>
				<g id="shape102-283" v:mID="102" v:groupContext="shape" transform="translate(-5.88622E-12,-39.685)">
					<title>工作表.102</title>
					<path d="M0 482.89 L85.04 482.89" class="st4"/>
				</g>
				<g id="shape103-286" v:mID="103" v:groupContext="shape">
					<title>工作表.103</title>
					<path d="M0 482.89 L85.04 482.89" class="st4"/>
				</g>
			</g>
			<g id="group104-289" transform="translate(-172.496,482.89) rotate(-90)" v:mID="104" v:groupContext="group">
				<title>工作表.104</title>
				<g id="shape105-290" v:mID="105" v:groupContext="shape" transform="translate(482.89,443.205) rotate(90)">
					<title>工作表.105</title>
					<path d="M0 482.89 L39.69 482.89" class="st4"/>
				</g>
				<g id="shape106-293" v:mID="106" v:groupContext="shape" transform="translate(567.929,443.205) rotate(90)">
					<title>工作表.106</title>
					<path d="M0 482.89 L39.69 482.89" class="st4"/>
				</g>
				<g id="shape107-296" v:mID="107" v:groupContext="shape" transform="translate(-5.88622E-12,-39.685)">
					<title>工作表.107</title>
					<path d="M0 482.89 L85.04 482.89" class="st4"/>
				</g>
				<g id="shape108-299" v:mID="108" v:groupContext="shape">
					<title>工作表.108</title>
					<path d="M0 482.89 L85.04 482.89" class="st4"/>
				</g>
			</g>
			<g id="group109-302" transform="translate(-222.102,454.543) rotate(-90)" v:mID="109" v:groupContext="group">
				<title>工作表.109</title>
				<g id="shape110-303" v:mID="110" v:groupContext="shape" transform="translate(482.89,409.189) rotate(90)">
					<title>工作表.110</title>
					<path d="M0 482.89 L73.7 482.89" class="st5"/>
				</g>
				<g id="shape111-306" v:mID="111" v:groupContext="shape" transform="translate(511.236,409.189) rotate(90)">
					<title>工作表.111</title>
					<path d="M0 482.89 L73.7 482.89" class="st5"/>
				</g>
			</g>
			<g id="group112-309" transform="translate(-222.102,57.6929) rotate(-90)" v:mID="112" v:groupContext="group">
				<title>工作表.112</title>
				<g id="shape113-310" v:mID="113" v:groupContext="shape" transform="translate(482.89,409.189) rotate(90)">
					<title>工作表.113</title>
					<path d="M0 482.89 L73.7 482.89" class="st5"/>
				</g>
				<g id="shape114-313" v:mID="114" v:groupContext="shape" transform="translate(511.236,409.189) rotate(90)">
					<title>工作表.114</title>
					<path d="M0 482.89 L73.7 482.89" class="st5"/>
				</g>
			</g>
		</g>
	</g>
</svg>
