<?xml version="1.0" encoding="UTF-8" standalone="no"?>
<!DOCTYPE svg PUBLIC "-//W3C//DTD SVG 1.1//EN" "http://www.w3.org/Graphics/SVG/1.1/DTD/svg11.dtd">
<!-- 由 Microsoft Visio, SVG Export 產生 y33.0091.svg 頁-1 -->
<svg xmlns="http://www.w3.org/2000/svg" xmlns:xlink="http://www.w3.org/1999/xlink" xmlns:ev="http://www.w3.org/2001/xml-events"
		width="8.68225in" height="2.57989in" viewBox="0 0 625.122 185.752" xml:space="preserve" color-interpolation-filters="sRGB"
		class="st5">
	<style type="text/css">
	<![CDATA[
		.st1 {fill:none;stroke:none;stroke-linecap:round;stroke-linejoin:round;stroke-width:0.75}
		.st2 {fill:#000000;font-family:新細明體;font-size:1.33333em}
		.st3 {stroke:#000000;stroke-linecap:round;stroke-linejoin:round;stroke-width:1.5}
		.st4 {stroke:#000000;stroke-linecap:round;stroke-linejoin:round;stroke-width:1}
		.st5 {fill:none;fill-rule:evenodd;font-size:12px;overflow:visible;stroke-linecap:square;stroke-miterlimit:3}
	]]>
	</style>

	<g>
		<title>頁-1</title>
		<g id="group39-1" transform="translate(0.75,-0.75)">
			<title>工作表.39</title>
			<g id="shape1-2" transform="translate(50.315,-157.323)">
				<title>工作表.1</title>
				<desc>銅鍱部傳說</desc>
				<rect x="0" y="165.909" width="198.425" height="19.8425" class="st1"/>
				<text x="0.25em 2.975em 5.701em 8.426em 11.152em" y="180.63" class="st2">銅鍱部傳說</text>			</g>
			<g id="shape2-5" transform="translate(365.669,-157.323)">
				<title>工作表.2</title>
				<desc>諸學派傳說除大眾系</desc>
				<rect x="0" y="165.909" width="206.929" height="19.8425" class="st1"/>
				<text x="15.46" y="180.63" class="st2">諸學派傳說（除大眾系）</text>			</g>
			<g id="shape3-8" transform="translate(5.66929,-121.89)">
				<title>工作表.3</title>
				<desc>佛滅百年</desc>
				<rect x="0" y="165.909" width="73.7008" height="19.8425" class="st1"/>
				<text x="4.85" y="180.63" class="st2">佛滅百年</text>			</g>
			<g id="shape4-11" transform="translate(77.9528,-121.89)">
				<title>工作表.4</title>
				<desc>毘舍離七百結集</desc>
				<rect x="0" y="165.909" width="121.89" height="19.8425" class="st1"/>
				<text x="4.95" y="180.63" class="st2">毘舍離七百結集</text>			</g>
			<g id="shape5-14" transform="translate(212.598,-130.394)">
				<title>工作表.5</title>
				<desc>迦羅阿育王</desc>
				<rect x="0" y="165.909" width="90.7087" height="19.8425" class="st1"/>
				<text x="5.35" y="180.63" class="st2">迦羅阿育王</text>			</g>
			<g id="shape6-17" transform="translate(214.016,-114.803)">
				<title>工作表.6</title>
				<desc>時分二部</desc>
				<rect x="0" y="165.909" width="73.7008" height="19.8425" class="st1"/>
				<text x="4.85" y="180.63" class="st2">時分二部</text>			</g>
			<g id="shape7-20" transform="translate(317.48,-121.89)">
				<title>工作表.7</title>
				<desc>佛滅百年</desc>
				<rect x="0" y="165.909" width="73.7008" height="19.8425" class="st1"/>
				<text x="4.85" y="180.63" class="st2">佛滅百年</text>			</g>
			<g id="shape8-23" transform="translate(396.85,-121.89)">
				<title>工作表.8</title>
				<desc>毘舍離七百結集</desc>
				<rect x="0" y="165.909" width="121.89" height="19.8425" class="st1"/>
				<text x="4.95" y="180.63" class="st2">毘舍離七百結集</text>			</g>
			<g id="shape9-26" transform="translate(524.409,-121.89)">
				<title>工作表.9</title>
				<desc>國王不明</desc>
				<rect x="0" y="165.909" width="73.7008" height="19.8425" class="st1"/>
				<text x="4.85" y="180.63" class="st2">國王不明</text>			</g>
			<g id="shape10-29" transform="translate(317.48,-93.5433)">
				<title>工作表.10</title>
				<desc>佛滅百十</desc>
				<rect x="0" y="165.909" width="73.7008" height="19.8425" class="st1"/>
				<text x="4.85" y="180.63" class="st2">佛滅百十</text>			</g>
			<g id="shape11-32" transform="translate(396.85,-93.5433)">
				<title>工作表.11</title>
				<desc>舶主兒大天諍五</desc>
				<rect x="0" y="165.909" width="121.89" height="19.8425" class="st1"/>
				<text x="4.95" y="180.63" class="st2">舶主兒大天諍五</text>			</g>
			<g id="shape12-35" transform="translate(522.992,-93.5433)">
				<title>工作表.12</title>
				<desc>阿育王時分</desc>
				<rect x="0" y="165.909" width="90.7087" height="19.8425" class="st1"/>
				<text x="5.35" y="180.63" class="st2">阿育王時分</text>			</g>
			<g id="shape13-38" transform="translate(317.48,-77.9528)">
				<title>工作表.13</title>
				<desc>六年後</desc>
				<rect x="0" y="165.909" width="56.6929" height="19.8425" class="st1"/>
				<text x="4.35" y="180.63" class="st2">六年後</text>			</g>
			<g id="shape14-41" transform="translate(396.85,-77.9528)">
				<title>工作表.14</title>
				<desc>事</desc>
				<rect x="0" y="165.909" width="28.3465" height="19.8425" class="st1"/>
				<text x="6.17" y="180.63" class="st2">事</text>			</g>
			<g id="shape15-44" transform="translate(522.992,-77.9528)">
				<title>工作表.15</title>
				<desc>二部</desc>
				<rect x="0" y="165.909" width="42.5197" height="19.8425" class="st1"/>
				<text x="5.26" y="180.63" class="st2">二部</text>			</g>
			<g id="shape16-47" transform="translate(5.66929,-56.6929)">
				<title>工作表.16</title>
				<desc>佛滅二百</desc>
				<rect x="0" y="165.909" width="73.7008" height="19.8425" class="st1"/>
				<text x="4.85" y="180.63" class="st2">佛滅二百</text>			</g>
			<g id="shape17-50" transform="translate(77.9528,-56.6929)">
				<title>工作表.17</title>
				<desc>賊住比丘起諍</desc>
				<rect x="0" y="165.909" width="104.882" height="19.8425" class="st1"/>
				<text x="4.44" y="180.63" class="st2">賊住比丘起諍</text>			</g>
			<g id="shape18-53" transform="translate(212.598,-56.6929)">
				<title>工作表.18</title>
				<desc>達磨阿育王</desc>
				<rect x="0" y="165.909" width="90.7087" height="19.8425" class="st1"/>
				<text x="5.35" y="180.63" class="st2">達磨阿育王</text>			</g>
			<g id="shape19-56" transform="translate(5.66929,-41.1024)">
				<title>工作表.19</title>
				<desc>三十年頃</desc>
				<rect x="0" y="165.909" width="73.7008" height="19.8425" class="st1"/>
				<text x="4.85" y="180.63" class="st2">三十年頃</text>			</g>
			<g id="shape20-59" transform="translate(214.016,-41.1024)">
				<title>工作表.20</title>
				<desc>時</desc>
				<rect x="0" y="165.909" width="28.3465" height="19.8425" class="st1"/>
				<text x="6.17" y="180.63" class="st2">時</text>			</g>
			<g id="shape21-62" transform="translate(317.48,-56.6929)">
				<title>工作表.21</title>
				<desc>佛滅二百</desc>
				<rect x="0" y="165.909" width="73.7008" height="19.8425" class="st1"/>
				<text x="4.85" y="180.63" class="st2">佛滅二百</text>			</g>
			<g id="shape22-65" transform="translate(396.85,-56.6929)">
				<title>工作表.22</title>
				<desc>大天諍五事</desc>
				<rect x="0" y="165.909" width="90.7087" height="19.8425" class="st1"/>
				<text x="5.35" y="180.63" class="st2">大天諍五事</text>			</g>
			<g id="shape23-68" transform="translate(522.992,-56.6929)">
				<title>工作表.23</title>
				<desc>國王不明或</desc>
				<rect x="0" y="165.909" width="90.7087" height="19.8425" class="st1"/>
				<text x="5.35" y="180.63" class="st2">國王不明或</text>			</g>
			<g id="shape24-71" transform="translate(317.48,-41.1024)">
				<title>工作表.24</title>
				<desc>年滿</desc>
				<rect x="0" y="165.909" width="42.5197" height="19.8425" class="st1"/>
				<text x="5.26" y="180.63" class="st2">年滿</text>			</g>
			<g id="shape25-74" transform="translate(522.992,-41.1024)">
				<title>工作表.25</title>
				<desc>作妙雲王時</desc>
				<rect x="0" y="165.909" width="90.7087" height="19.8425" class="st1"/>
				<text x="5.35" y="180.63" class="st2">作妙雲王時</text>			</g>
			<g id="shape26-77" transform="translate(77.9528,-18.4252)">
				<title>工作表.26</title>
				<desc>大眾部分出東山等六</desc>
				<rect x="0" y="165.909" width="153.071" height="19.8425" class="st1"/>
				<text x="4.54" y="180.63" class="st2">大眾部分出東山等六</text>			</g>
			<g id="shape27-80" transform="translate(79.3701,-2.83465)">
				<title>工作表.27</title>
				<desc>部華氏城第三結集</desc>
				<rect x="0" y="165.909" width="136.063" height="19.8425" class="st1"/>
				<text x="4.03" y="180.63" class="st2">部華氏城第三結集</text>			</g>
			<g id="shape28-83" transform="translate(394.016,-18.4252)">
				<title>工作表.28</title>
				<desc>大眾部分出東山</desc>
				<rect x="0" y="165.909" width="127.559" height="19.8425" class="st1"/>
				<text x="7.78" y="180.63" class="st2">大眾部分出東山</text>			</g>
			<g id="shape29-86" transform="translate(396.85,-2.83465)">
				<title>工作表.29</title>
				<desc>等三部</desc>
				<rect x="0" y="165.909" width="56.6929" height="19.8425" class="st1"/>
				<text x="4.35" y="180.63" class="st2">等三部</text>			</g>
			<g id="shape30-89" transform="translate(-185.752,185.752) rotate(-90)">
				<title>工作表.30</title>
				<path d="M0 185.75 L184.25 185.75" class="st3"/>
			</g>
			<g id="shape31-92" transform="translate(623.622,187.252) rotate(180)">
				<title>工作表.31</title>
				<path d="M0 185.75 L623.62 185.75" class="st3"/>
			</g>
			<g id="shape32-95" transform="translate(126.059,185.752) rotate(-90)">
				<title>工作表.32</title>
				<path d="M0 185.75 L184.25 185.75" class="st4"/>
			</g>
			<g id="shape33-98" transform="translate(437.87,185.752) rotate(-90)">
				<title>工作表.33</title>
				<path d="M0 185.75 L184.25 185.75" class="st3"/>
			</g>
			<g id="shape34-101" transform="translate(623.622,221.268) rotate(180)">
				<title>工作表.34</title>
				<path d="M0 185.75 L623.62 185.75" class="st4"/>
			</g>
			<g id="shape36-104" transform="translate(623.622,258.118) rotate(180)">
				<title>工作表.36</title>
				<path d="M0 185.75 L623.62 185.75" class="st4"/>
			</g>
			<g id="shape35-107" transform="translate(623.622,294.969) rotate(180)">
				<title>工作表.35</title>
				<path d="M0 185.75 L623.62 185.75" class="st4"/>
			</g>
			<g id="shape37-110" transform="translate(623.622,331.819) rotate(180)">
				<title>工作表.37</title>
				<path d="M0 185.75 L623.62 185.75" class="st4"/>
			</g>
			<g id="shape38-113" transform="translate(623.622,371.504) rotate(180)">
				<title>工作表.38</title>
				<path d="M0 185.75 L623.62 185.75" class="st3"/>
			</g>
		</g>
	</g>
</svg>
