<?xml version="1.0" encoding="UTF-8" standalone="no"?>
<!DOCTYPE svg PUBLIC "-//W3C//DTD SVG 1.0//EN" "http://www.w3.org/TR/2001/REC-SVG-20010904/DTD/svg10.dtd">
<!-- 由 Microsoft Visio 11.0, SVG Export, v1.0 產生 y33.0052.svg 頁-1 -->
<svg xmlns="http://www.w3.org/2000/svg" xmlns:xlink="http://www.w3.org/1999/xlink" xmlns:ev="http://www.w3.org/2001/xml-events"
		xmlns:v="http://schemas.microsoft.com/visio/2003/SVGExtensions/" width="9.8703in" height="4.78809in"
		viewBox="0 0 710.661 344.742" xml:space="preserve" color-interpolation-filters="sRGB" class="st9">
	<v:documentProperties v:langID="1028" v:metric="true" v:viewMarkup="false"/>

	<style type="text/css">
	<![CDATA[
		.st1 {fill:none;stroke:none;stroke-linecap:round;stroke-linejoin:round;stroke-width:0.75}
		.st2 {fill:#000000;font-family:新細明體;font-size:1.33333em}
		.st3 {stroke:#000000;stroke-dasharray:3,3;stroke-linecap:round;stroke-linejoin:round;stroke-width:1}
		.st4 {stroke:#000000;stroke-linecap:round;stroke-linejoin:round;stroke-width:1}
		.st5 {marker-end:url(#mrkr1-124);stroke:#000000;stroke-linecap:round;stroke-linejoin:round;stroke-width:1}
		.st6 {fill:#000000;fill-opacity:1;stroke:#000000;stroke-opacity:1;stroke-width:0.28409090909091}
		.st7 {stroke:#ffffff;stroke-linecap:round;stroke-linejoin:round;stroke-opacity:0;stroke-width:1}
		.st8 {fill:none;stroke:#000000;stroke-linecap:round;stroke-linejoin:round;stroke-opacity:0;stroke-width:1}
		.st9 {fill:none;fill-rule:evenodd;font-size:12px;overflow:visible;stroke-linecap:square;stroke-miterlimit:3}
	]]>
	</style>

	<defs id="Markers">
		<g id="lend1">
			<path d="M 1 -1 L 0 0 L 1 1 " style="stroke-linecap:round;stroke-linejoin:round;fill:none"/>
		</g>
		<marker id="mrkr1-124" class="st6" v:arrowType="1" v:arrowSize="2" orient="auto" markerUnits="strokeWidth"
				overflow="visible">
			<use xlink:href="#lend1" transform="scale(-3.52,-3.52) "/>
		</marker>
	</defs>
	<g v:mID="0" v:index="1" v:groupContext="foregroundPage">
		<title>頁-1</title>
		<v:pageProperties v:drawingScale="0.0393701" v:pageScale="0.0393701" v:drawingUnits="24" v:shadowOffsetX="8.50394"
				v:shadowOffsetY="-8.50394"/>
		<g id="group3-1" transform="translate(1,-0.75)" v:mID="3" v:groupContext="group">
			<title>工作表.3</title>
			<g id="shape4-2" v:mID="4" v:groupContext="shape" transform="translate(181.417,-243.78)">
				<title>工作表.4</title>
				<desc>意</desc>
				<v:textBlock v:margins="rect(4,4,4,4)" v:tabSpace="42.5197"/>
				<v:textRect cx="28.3465" cy="316.396" width="56.7" height="56.6929"/>
				<rect x="0" y="288.049" width="56.6929" height="56.6929" class="st1"/>
				<text x="4.35" y="321.2" class="st2" v:langID="1028"><v:paragraph v:horizAlign="1"/><v:tabList/>（意）</text>			</g>
			<g id="shape5-5" v:mID="5" v:groupContext="shape" transform="translate(252.992,-263.622)">
				<title>工作表.5</title>
				<desc>諸行無常</desc>
				<v:textBlock v:margins="rect(4,4,4,4)" v:tabSpace="42.5197"/>
				<v:textRect cx="36.8504" cy="307.892" width="73.71" height="73.7008"/>
				<rect x="0" y="271.041" width="73.7008" height="73.7008" class="st1"/>
				<text x="4.85" y="312.69" class="st2" v:langID="1028"><v:paragraph v:horizAlign="1"/><v:tabList/>諸行無常</text>			</g>
			<g id="shape6-8" v:mID="6" v:groupContext="shape" transform="translate(252.992,-235.276)">
				<title>工作表.6</title>
				<desc>諸法無我</desc>
				<v:textBlock v:margins="rect(4,4,4,4)" v:tabSpace="42.5197"/>
				<v:textRect cx="36.8504" cy="307.892" width="73.71" height="73.7008"/>
				<rect x="0" y="271.041" width="73.7008" height="73.7008" class="st1"/>
				<text x="4.85" y="312.69" class="st2" v:langID="1028"><v:paragraph v:horizAlign="1"/><v:tabList/>諸法無我</text>			</g>
			<g id="shape7-11" v:mID="7" v:groupContext="shape" transform="translate(252.992,-206.929)">
				<title>工作表.7</title>
				<desc>涅槃寂靜</desc>
				<v:textBlock v:margins="rect(4,4,4,4)" v:tabSpace="42.5197"/>
				<v:textRect cx="36.8504" cy="307.892" width="73.71" height="73.7008"/>
				<rect x="0" y="271.041" width="73.7008" height="73.7008" class="st1"/>
				<text x="4.85" y="312.69" class="st2" v:langID="1028"><v:paragraph v:horizAlign="1"/><v:tabList/>涅槃寂靜</text>			</g>
			<g id="shape8-14" v:mID="8" v:groupContext="shape" transform="translate(358.583,-235.276)">
				<title>工作表.8</title>
				<desc>達諸行空</desc>
				<v:textBlock v:margins="rect(4,4,4,4)" v:tabSpace="42.5197"/>
				<v:textRect cx="36.8504" cy="307.892" width="73.71" height="73.7008"/>
				<rect x="0" y="271.041" width="73.7008" height="73.7008" class="st1"/>
				<text x="4.85" y="312.69" class="st2" v:langID="1028"><v:paragraph v:horizAlign="1"/><v:tabList/>達諸行空</text>			</g>
			<g id="shape10-17" v:mID="10" v:groupContext="shape" transform="translate(311.102,-154.488)">
				<title>工作表.10</title>
				<desc>心厭苦向滅</desc>
				<v:textBlock v:margins="rect(4,4,4,4)" v:tabSpace="42.5197"/>
				<v:textRect cx="60.9449" cy="283.797" width="121.89" height="121.89"/>
				<rect x="0" y="222.852" width="121.89" height="121.89" class="st1"/>
				<text x="4.95" y="288.6" class="st2" v:langID="1028"><v:paragraph v:horizAlign="1"/><v:tabList/>（心）厭苦向滅</text>			</g>
			<g id="shape12-20" v:mID="12" v:groupContext="shape" transform="translate(352.205,-73.7008)">
				<title>工作表.12</title>
				<desc>業</desc>
				<v:textBlock v:margins="rect(4,4,4,4)" v:tabSpace="42.5197"/>
				<v:textRect cx="28.3465" cy="316.396" width="56.7" height="56.6929"/>
				<rect x="0" y="288.049" width="56.6929" height="56.6929" class="st1"/>
				<text x="4.35" y="321.2" class="st2" v:langID="1028"><v:paragraph v:horizAlign="1"/><v:tabList/>（業）</text>			</g>
			<g id="shape14-23" v:mID="14" v:groupContext="shape" transform="translate(522.283,-113.386)">
				<title>工作表.14</title>
				<desc>事當則心安</desc>
				<v:textBlock v:margins="rect(4,4,4,4)" v:tabSpace="42.5197"/>
				<v:textRect cx="45.3543" cy="299.388" width="90.71" height="90.7087"/>
				<rect x="0" y="254.033" width="90.7087" height="90.7087" class="st1"/>
				<text x="5.35" y="304.19" class="st2" v:langID="1028"><v:paragraph v:horizAlign="1"/><v:tabList/>事當則心安</text>			</g>
			<g id="shape24-26" v:mID="24" v:groupContext="shape" transform="translate(430.866,-272.126)">
				<title>工作表.24</title>
				<path d="M0 344.74 L209.76 344.74" class="st3"/>
			</g>
			<g id="shape25-29" v:mID="25" v:groupContext="shape" transform="translate(610.157,-45.3543)">
				<title>工作表.25</title>
				<path d="M0 344.74 L28.35 344.74" class="st3"/>
			</g>
			<g id="shape26-32" v:mID="26" v:groupContext="shape" transform="translate(326.693,-300.472)">
				<title>工作表.26</title>
				<path d="M0 344.74 L14.17 344.74" class="st4"/>
			</g>
			<g id="shape27-35" v:mID="27" v:groupContext="shape" transform="translate(326.693,-243.78)">
				<title>工作表.27</title>
				<path d="M0 344.74 L14.17 344.74" class="st4"/>
			</g>
			<g id="shape28-38" v:mID="28" v:groupContext="shape" transform="translate(227.48,-272.126)">
				<title>工作表.28</title>
				<path d="M0 344.74 L14.17 344.74" class="st4"/>
			</g>
			<g id="shape29-41" v:mID="29" v:groupContext="shape" transform="translate(340.866,-272.126)">
				<title>工作表.29</title>
				<path d="M0 344.74 L14.17 344.74" class="st4"/>
			</g>
			<g id="shape31-44" v:mID="31" v:groupContext="shape" transform="translate(241.654,-243.78)">
				<title>工作表.31</title>
				<path d="M0 344.74 L14.17 344.74" class="st4"/>
			</g>
			<g id="shape30-47" v:mID="30" v:groupContext="shape" transform="translate(-3.87598,100.963) rotate(-90)">
				<title>工作表.30</title>
				<path d="M0 344.74 L56.69 344.74" class="st4"/>
			</g>
			<g id="shape32-50" v:mID="32" v:groupContext="shape" transform="translate(241.654,-300.472)">
				<title>工作表.32</title>
				<path d="M0 344.74 L14.17 344.74" class="st4"/>
			</g>
			<g id="shape33-53" v:mID="33" v:groupContext="shape" transform="translate(-103.089,100.963) rotate(-90)">
				<title>工作表.33</title>
				<path d="M0 344.74 L56.69 344.74" class="st4"/>
			</g>
			<g id="shape34-56" v:mID="34" v:groupContext="shape" transform="translate(161.575,-272.126)">
				<title>工作表.34</title>
				<path d="M0 344.74 L28.35 344.74" class="st4"/>
			</g>
			<g id="shape9-59" v:mID="9" v:groupContext="shape" transform="translate(637.087,-250.866)">
				<title>工作表.9</title>
				<desc>正見</desc>
				<v:textBlock v:margins="rect(4,4,4,4)" v:tabSpace="42.5197"/>
				<v:textRect cx="21.2598" cy="323.482" width="42.52" height="42.5197"/>
				<rect x="0" y="302.222" width="42.5197" height="42.5197" class="st1"/>
				<text x="5.26" y="328.28" class="st2" v:langID="1028"><v:paragraph v:horizAlign="1"/><v:tabList/>正見</text>			</g>
			<g id="shape11-62" v:mID="11" v:groupContext="shape" transform="translate(637.087,-194.173)">
				<title>工作表.11</title>
				<desc>正志</desc>
				<v:textBlock v:margins="rect(4,4,4,4)" v:tabSpace="42.5197"/>
				<v:textRect cx="21.2598" cy="323.482" width="42.52" height="42.5197"/>
				<rect x="0" y="302.222" width="42.5197" height="42.5197" class="st1"/>
				<text x="5.26" y="328.28" class="st2" v:langID="1028"><v:paragraph v:horizAlign="1"/><v:tabList/>正志</text>			</g>
			<g id="shape15-65" v:mID="15" v:groupContext="shape" transform="translate(637.087,-165.827)">
				<title>工作表.15</title>
				<desc>正語</desc>
				<v:textBlock v:margins="rect(4,4,4,4)" v:tabSpace="42.5197"/>
				<v:textRect cx="21.2598" cy="323.482" width="42.52" height="42.5197"/>
				<rect x="0" y="302.222" width="42.5197" height="42.5197" class="st1"/>
				<text x="5.26" y="328.28" class="st2" v:langID="1028"><v:paragraph v:horizAlign="1"/><v:tabList/>正語</text>			</g>
			<g id="shape16-68" v:mID="16" v:groupContext="shape" transform="translate(637.087,-137.48)">
				<title>工作表.16</title>
				<desc>正業</desc>
				<v:textBlock v:margins="rect(4,4,4,4)" v:tabSpace="42.5197"/>
				<v:textRect cx="21.2598" cy="323.482" width="42.52" height="42.5197"/>
				<rect x="0" y="302.222" width="42.5197" height="42.5197" class="st1"/>
				<text x="5.26" y="328.28" class="st2" v:langID="1028"><v:paragraph v:horizAlign="1"/><v:tabList/>正業</text>			</g>
			<g id="shape17-71" v:mID="17" v:groupContext="shape" transform="translate(637.087,-109.134)">
				<title>工作表.17</title>
				<desc>正命</desc>
				<v:textBlock v:margins="rect(4,4,4,4)" v:tabSpace="42.5197"/>
				<v:textRect cx="21.2598" cy="323.482" width="42.52" height="42.5197"/>
				<rect x="0" y="302.222" width="42.5197" height="42.5197" class="st1"/>
				<text x="5.26" y="328.28" class="st2" v:langID="1028"><v:paragraph v:horizAlign="1"/><v:tabList/>正命</text>			</g>
			<g id="shape18-74" v:mID="18" v:groupContext="shape" transform="translate(637.087,-80.7874)">
				<title>工作表.18</title>
				<desc>正勤</desc>
				<v:textBlock v:margins="rect(4,4,4,4)" v:tabSpace="42.5197"/>
				<v:textRect cx="21.2598" cy="323.482" width="42.52" height="42.5197"/>
				<rect x="0" y="302.222" width="42.5197" height="42.5197" class="st1"/>
				<text x="5.26" y="328.28" class="st2" v:langID="1028"><v:paragraph v:horizAlign="1"/><v:tabList/>正勤</text>			</g>
			<g id="shape21-77" v:mID="21" v:groupContext="shape" transform="translate(637.087,-52.4409)">
				<title>工作表.21</title>
				<desc>正念</desc>
				<v:textBlock v:margins="rect(4,4,4,4)" v:tabSpace="42.5197"/>
				<v:textRect cx="21.2598" cy="323.482" width="42.52" height="42.5197"/>
				<rect x="0" y="302.222" width="42.5197" height="42.5197" class="st1"/>
				<text x="5.26" y="328.28" class="st2" v:langID="1028"><v:paragraph v:horizAlign="1"/><v:tabList/>正念</text>			</g>
			<g id="shape23-80" v:mID="23" v:groupContext="shape" transform="translate(637.087,-24.0945)">
				<title>工作表.23</title>
				<desc>正定</desc>
				<v:textBlock v:margins="rect(4,4,4,4)" v:tabSpace="42.5197"/>
				<v:textRect cx="21.2598" cy="323.482" width="42.52" height="42.5197"/>
				<rect x="0" y="302.222" width="42.5197" height="42.5197" class="st1"/>
				<text x="5.26" y="328.28" class="st2" v:langID="1028"><v:paragraph v:horizAlign="1"/><v:tabList/>正定</text>			</g>
			<g id="shape20-83" v:mID="20" v:groupContext="shape" transform="translate(522.283,-28.3465)">
				<title>工作表.20</title>
				<desc>繫心則心攝</desc>
				<v:textBlock v:margins="rect(4,4,4,4)" v:tabSpace="42.5197"/>
				<v:textRect cx="45.3543" cy="299.388" width="90.71" height="90.7087"/>
				<rect x="0" y="254.033" width="90.7087" height="90.7087" class="st1"/>
				<text x="5.35" y="304.19" class="st2" v:langID="1028"><v:paragraph v:horizAlign="1"/><v:tabList/>繫心則心攝</text>			</g>
			<g id="shape22-86" v:mID="22" v:groupContext="shape" transform="translate(522.283,0)">
				<title>工作表.22</title>
				<desc>心靜則慧發</desc>
				<v:textBlock v:margins="rect(4,4,4,4)" v:tabSpace="42.5197"/>
				<v:textRect cx="45.3543" cy="299.388" width="90.71" height="90.7087"/>
				<rect x="0" y="254.033" width="90.7087" height="90.7087" class="st1"/>
				<text x="5.35" y="304.19" class="st2" v:langID="1028"><v:paragraph v:horizAlign="1"/><v:tabList/>心靜則慧發</text>			</g>
			<g id="shape37-89" v:mID="37" v:groupContext="shape" transform="translate(428.74,-215.433)">
				<title>工作表.37</title>
				<path d="M0 344.74 L209.76 344.74" class="st3"/>
			</g>
			<g id="shape13-92" v:mID="13" v:groupContext="shape" transform="translate(440.079,-130.394)">
				<title>工作表.13</title>
				<desc>僧和事</desc>
				<v:textBlock v:margins="rect(4,4,4,4)" v:tabSpace="42.5197"/>
				<v:textRect cx="28.3465" cy="316.396" width="56.7" height="56.6929"/>
				<rect x="0" y="288.049" width="56.6929" height="56.6929" class="st1"/>
				<text x="4.35" y="321.2" class="st2" v:langID="1028"><v:paragraph v:horizAlign="1"/><v:tabList/>僧和事</text>			</g>
			<g id="shape19-95" v:mID="19" v:groupContext="shape" transform="translate(440.079,-31.1811)">
				<title>工作表.19</title>
				<desc>己利事</desc>
				<v:textBlock v:margins="rect(4,4,4,4)" v:tabSpace="42.5197"/>
				<v:textRect cx="28.3465" cy="316.396" width="56.7" height="56.6929"/>
				<rect x="0" y="288.049" width="56.6929" height="56.6929" class="st1"/>
				<text x="4.35" y="321.2" class="st2" v:langID="1028"><v:paragraph v:horizAlign="1"/><v:tabList/>己利事</text>			</g>
			<g id="shape35-98" v:mID="35" v:groupContext="shape" transform="translate(81.1634,285.215) rotate(-90)">
				<title>工作表.35</title>
				<path d="M0 344.74 L99.21 344.74" class="st4"/>
			</g>
			<g id="shape36-101" v:mID="36" v:groupContext="shape" transform="translate(397.559,-102.047)">
				<title>工作表.36</title>
				<path d="M0 344.74 L28.35 344.74" class="st4"/>
			</g>
			<g id="shape38-104" v:mID="38" v:groupContext="shape" transform="translate(510.945,-73.7008)">
				<title>工作表.38</title>
				<path d="M0 344.74 L14.17 344.74" class="st4"/>
			</g>
			<g id="shape39-107" v:mID="39" v:groupContext="shape" transform="translate(425.906,-59.5276)">
				<title>工作表.39</title>
				<path d="M0 344.74 L14.17 344.74" class="st4"/>
			</g>
			<g id="shape40-110" v:mID="40" v:groupContext="shape" transform="translate(425.906,-158.74)">
				<title>工作表.40</title>
				<path d="M0 344.74 L14.17 344.74" class="st4"/>
			</g>
			<g id="shape41-113" v:mID="41" v:groupContext="shape" transform="translate(510.945,-45.3543)">
				<title>工作表.41</title>
				<path d="M0 344.74 L14.17 344.74" class="st4"/>
			</g>
			<g id="shape42-116" v:mID="42" v:groupContext="shape" transform="translate(-134.27,129.309) rotate(-90)">
				<title>工作表.42</title>
				<path d="M0 344.74 L42.52 344.74" class="st4"/>
			</g>
			<g id="shape43-119" v:mID="43" v:groupContext="shape" transform="translate(210.472,-215.433)">
				<title>工作表.43</title>
				<path d="M0 344.74 L107.72 344.74" class="st5"/>
			</g>
			<g id="shape44-125" v:mID="44" v:groupContext="shape" transform="translate(340.866,-102.047)">
				<title>工作表.44</title>
				<path d="M0 344.74 L14.17 344.74" class="st5"/>
			</g>
			<g id="shape45-130" v:mID="45" v:groupContext="shape" transform="translate(-3.87598,242.695) rotate(-90)">
				<title>工作表.45</title>
				<path d="M0 344.74 L99.21 344.74" class="st4"/>
			</g>
			<g id="shape46-133" v:mID="46" v:groupContext="shape" transform="translate(496.772,-158.74)">
				<title>工作表.46</title>
				<path d="M0 344.74 L28.35 344.74" class="st4"/>
			</g>
			<g id="shape47-136" v:mID="47" v:groupContext="shape" transform="translate(496.772,-59.5276)">
				<title>工作表.47</title>
				<path d="M0 344.74 L14.17 344.74" class="st4"/>
			</g>
			<g id="shape48-139" v:mID="48" v:groupContext="shape" transform="translate(166.203,299.388) rotate(-90)">
				<title>工作表.48</title>
				<path d="M0 344.74 L28.35 344.74" class="st4"/>
			</g>
			<g id="shape49-142" v:mID="49" v:groupContext="shape" transform="translate(610.157,-158.74)">
				<title>工作表.49</title>
				<path d="M0 344.74 L14.17 344.74" class="st3"/>
			</g>
			<g id="shape50-145" v:mID="50" v:groupContext="shape" transform="translate(624.331,-187.087)">
				<title>工作表.50</title>
				<path d="M0 344.74 L14.17 344.74" class="st3"/>
			</g>
			<g id="shape51-148" v:mID="51" v:groupContext="shape" transform="translate(624.331,-130.394)">
				<title>工作表.51</title>
				<path d="M0 344.74 L14.17 344.74" class="st3"/>
			</g>
			<g id="shape52-151" v:mID="52" v:groupContext="shape" transform="translate(279.589,214.348) rotate(-90)">
				<title>工作表.52</title>
				<path d="M0 344.74 L56.69 344.74" class="st3"/>
			</g>
			<g id="shape53-154" v:mID="53" v:groupContext="shape" transform="translate(610.157,-73.7008)">
				<title>工作表.53</title>
				<path d="M0 344.74 L28.35 344.74" class="st3"/>
			</g>
			<g id="shape54-157" v:mID="54" v:groupContext="shape" transform="translate(431.575,-102.047)">
				<title>工作表.54</title>
				<path d="M0 344.74 L209.76 344.74" class="st3"/>
			</g>
			<g id="shape56-160" v:mID="56" v:groupContext="shape" transform="translate(363.919,327.734) rotate(-90)">
				<title>工作表.56</title>
				<path d="M0 344.74 L325.98 344.74" class="st7"/>
			</g>
			<g id="shape57-163" v:mID="57" v:groupContext="shape" transform="translate(-344.742,327.734) rotate(-90)">
				<title>工作表.57</title>
				<path d="M0 344.74 L325.98 344.74" class="st7"/>
			</g>
			<g id="shape58-166" v:mID="58" v:groupContext="shape" transform="translate(708.661,346.492) rotate(180)">
				<title>工作表.58</title>
				<path d="M0 344.74 L708.66 344.74" class="st7"/>
			</g>
			<g id="shape59-169" v:mID="59" v:groupContext="shape" transform="translate(708.661,672.476) rotate(180)">
				<title>工作表.59</title>
				<path d="M0 344.74 L708.66 344.74" class="st7"/>
			</g>
			<g id="shape64-172" v:mID="64" v:groupContext="shape" transform="translate(99.2126,-229.606)">
				<title>工作表.64</title>
				<desc>定</desc>
				<v:textBlock v:margins="rect(4,4,4,4)" v:tabSpace="42.5197"/>
				<v:textRect cx="14.1732" cy="330.569" width="28.35" height="28.3465"/>
				<rect x="0" y="316.396" width="28.3465" height="28.3465" class="st1"/>
				<text x="6.17" y="335.37" class="st2" v:langID="1028"><v:paragraph v:horizAlign="1"/><v:tabList/>定</text>			</g>
			<g id="shape2-175" v:mID="2" v:groupContext="shape" transform="translate(34.0157,-209.055)">
				<title>工作表.2</title>
				<desc>解脫道以慧為本</desc>
				<v:textBlock v:margins="rect(4,4,4,4)" v:tabSpace="42.5197"/>
				<v:textRect cx="63.0709" cy="281.671" width="126.15" height="126.142"/>
				<rect x="0" y="218.6" width="126.142" height="126.142" class="st8"/>
				<text x="7.07" y="286.47" class="st2" v:langID="1028"><v:paragraph v:horizAlign="1"/><v:tabList/>解脫道以慧為本</text>			</g>
			<g id="shape65-178" v:mID="65" v:groupContext="shape" transform="translate(-307.892,86.7894) rotate(-90)">
				<title>工作表.65</title>
				<path d="M0 344.74 L28.35 344.74" class="st4"/>
			</g>
			<g id="shape66-181" v:mID="66" v:groupContext="shape" transform="translate(-186.002,86.7894) rotate(-90)">
				<title>工作表.66</title>
				<path d="M0 344.74 L28.35 344.74" class="st4"/>
			</g>
			<g id="shape67-184" v:mID="67" v:groupContext="shape" transform="translate(-245.53,115.136) rotate(-90)">
				<title>工作表.67</title>
				<path d="M0 344.74 L28.35 344.74" class="st4"/>
			</g>
			<g id="shape68-187" v:mID="68" v:groupContext="shape" transform="translate(-217.183,115.136) rotate(-90)">
				<title>工作表.68</title>
				<path d="M0 344.74 L28.35 344.74" class="st4"/>
			</g>
			<g id="shape69-190" v:mID="69" v:groupContext="shape" transform="translate(-245.53,58.4429) rotate(-90)">
				<title>工作表.69</title>
				<path d="M0 344.74 L28.35 344.74" class="st4"/>
			</g>
			<g id="shape70-193" v:mID="70" v:groupContext="shape" transform="translate(-217.183,58.4429) rotate(-90)">
				<title>工作表.70</title>
				<path d="M0 344.74 L28.35 344.74" class="st4"/>
			</g>
			<g id="shape71-196" v:mID="71" v:groupContext="shape" transform="translate(127.559,459.878) rotate(180)">
				<title>工作表.71</title>
				<path d="M0 344.74 L28.35 344.74" class="st4"/>
			</g>
			<g id="shape72-199" v:mID="72" v:groupContext="shape" transform="translate(127.559,374.839) rotate(180)">
				<title>工作表.72</title>
				<path d="M0 344.74 L28.35 344.74" class="st4"/>
			</g>
			<g id="shape73-202" v:mID="73" v:groupContext="shape" transform="translate(99.2126,403.185) rotate(180)">
				<title>工作表.73</title>
				<path d="M0 344.74 L62.36 344.74" class="st4"/>
			</g>
			<g id="shape74-205" v:mID="74" v:groupContext="shape" transform="translate(99.2126,431.531) rotate(180)">
				<title>工作表.74</title>
				<path d="M0 344.74 L62.36 344.74" class="st4"/>
			</g>
			<g id="shape75-208" v:mID="75" v:groupContext="shape" transform="translate(158.74,431.531) rotate(180)">
				<title>工作表.75</title>
				<path d="M0 344.74 L31.18 344.74" class="st4"/>
			</g>
			<g id="shape76-211" v:mID="76" v:groupContext="shape" transform="translate(158.74,403.185) rotate(180)">
				<title>工作表.76</title>
				<path d="M0 344.74 L31.18 344.74" class="st4"/>
			</g>
			<g id="shape1-214" v:mID="1" v:groupContext="shape" transform="translate(99.2126,-286.299)">
				<title>工作表.1</title>
				<desc>戒</desc>
				<v:textBlock v:margins="rect(4,4,4,4)" v:tabSpace="42.5197"/>
				<v:textRect cx="14.1732" cy="330.569" width="28.35" height="28.3465"/>
				<rect x="0" y="316.396" width="28.3465" height="28.3465" class="st1"/>
				<text x="6.17" y="335.37" class="st2" v:langID="1028"><v:paragraph v:horizAlign="1"/><v:tabList/>戒</text>			</g>
		</g>
	</g>
</svg>
