<?xml version="1.0" encoding="UTF-8" standalone="no"?>
<!DOCTYPE svg PUBLIC "-//W3C//DTD SVG 1.1//EN" "http://www.w3.org/Graphics/SVG/1.1/DTD/svg11.dtd">
<!-- 由 Microsoft Visio, SVG Export 產生 y33.0052.svg 頁-1 -->
<svg xmlns="http://www.w3.org/2000/svg" xmlns:xlink="http://www.w3.org/1999/xlink" xmlns:ev="http://www.w3.org/2001/xml-events"
		width="8.97869in" height="3.89011in" viewBox="0 0 646.466 280.088" xml:space="preserve" color-interpolation-filters="sRGB"
		class="st8">
	<style type="text/css">
	<![CDATA[
		.st1 {fill:none;stroke:none;stroke-linecap:round;stroke-linejoin:round;stroke-width:0.75}
		.st2 {fill:#000000;font-family:新細明體;font-size:1.33333em}
		.st3 {stroke:#000000;stroke-dasharray:3,3;stroke-linecap:round;stroke-linejoin:round;stroke-width:1}
		.st4 {stroke:#000000;stroke-linecap:round;stroke-linejoin:round;stroke-width:1}
		.st5 {marker-end:url(#mrkr1-124);stroke:#000000;stroke-linecap:round;stroke-linejoin:round;stroke-width:1}
		.st6 {fill:#000000;fill-opacity:1;stroke:#000000;stroke-opacity:1;stroke-width:0.28409090909091}
		.st7 {fill:none;stroke:#000000;stroke-linecap:round;stroke-linejoin:round;stroke-opacity:0;stroke-width:1}
		.st8 {fill:none;fill-rule:evenodd;font-size:12px;overflow:visible;stroke-linecap:square;stroke-miterlimit:3}
	]]>
	</style>

	<defs id="Markers">
		<g id="lend1">
			<path d="M 1 -1 L 0 0 L 1 1 " style="stroke-linecap:round;stroke-linejoin:round;fill:none"/>
		</g>
		<marker id="mrkr1-124" class="st6" orient="auto" markerUnits="strokeWidth" overflow="visible">
			<use xlink:href="#lend1" transform="scale(-3.52,-3.52) "/>
		</marker>
	</defs>
	<g>
		<title>頁-1</title>
		<g id="group78-1" transform="translate(0.5,-0.375)">
			<title>工作表.78</title>
			<g id="shape4-2" transform="translate(147.402,-226.772)">
				<title>工作表.4</title>
				<desc>意</desc>
				<rect x="0" y="260.245" width="56.6929" height="19.8425" class="st1"/>
				<text x="4.35" y="274.97" class="st2">（意）</text>			</g>
			<g id="shape5-5" transform="translate(218.976,-255.118)">
				<title>工作表.5</title>
				<desc>諸行無常</desc>
				<rect x="0" y="260.245" width="73.7008" height="19.8425" class="st1"/>
				<text x="4.85" y="274.97" class="st2">諸行無常</text>			</g>
			<g id="shape6-8" transform="translate(218.976,-226.772)">
				<title>工作表.6</title>
				<desc>諸法無我</desc>
				<rect x="0" y="260.245" width="73.7008" height="19.8425" class="st1"/>
				<text x="4.85" y="274.97" class="st2">諸法無我</text>			</g>
			<g id="shape7-11" transform="translate(218.976,-198.425)">
				<title>工作表.7</title>
				<desc>涅槃寂靜</desc>
				<rect x="0" y="260.245" width="73.7008" height="19.8425" class="st1"/>
				<text x="4.85" y="274.97" class="st2">涅槃寂靜</text>			</g>
			<g id="shape8-14" transform="translate(324.567,-226.772)">
				<title>工作表.8</title>
				<desc>達諸行空</desc>
				<rect x="0" y="260.245" width="73.7008" height="19.8425" class="st1"/>
				<text x="4.85" y="274.97" class="st2">達諸行空</text>			</g>
			<g id="shape10-17" transform="translate(277.087,-170.079)">
				<title>工作表.10</title>
				<desc>心厭苦向滅</desc>
				<rect x="0" y="260.245" width="121.89" height="19.8425" class="st1"/>
				<text x="4.95" y="274.97" class="st2">（心）厭苦向滅</text>			</g>
			<g id="shape12-20" transform="translate(318.189,-56.6929)">
				<title>工作表.12</title>
				<desc>業</desc>
				<rect x="0" y="260.245" width="56.6929" height="19.8425" class="st1"/>
				<text x="4.35" y="274.97" class="st2">（業）</text>			</g>
			<g id="shape14-23" transform="translate(488.268,-113.386)">
				<title>工作表.14</title>
				<desc>事當則心安</desc>
				<rect x="0" y="260.245" width="90.7087" height="19.8425" class="st1"/>
				<text x="5.35" y="274.97" class="st2">事當則心安</text>			</g>
			<g id="shape24-26" transform="translate(396.85,-236.693)">
				<title>工作表.24</title>
				<path d="M0 280.09 L209.76 280.09" class="st3"/>
			</g>
			<g id="shape25-29" transform="translate(576.142,-9.92126)">
				<title>工作表.25</title>
				<path d="M0 280.09 L28.35 280.09" class="st3"/>
			</g>
			<g id="shape26-32" transform="translate(292.677,-265.039)">
				<title>工作表.26</title>
				<path d="M0 280.09 L14.17 280.09" class="st4"/>
			</g>
			<g id="shape27-35" transform="translate(292.677,-208.346)">
				<title>工作表.27</title>
				<path d="M0 280.09 L14.17 280.09" class="st4"/>
			</g>
			<g id="shape28-38" transform="translate(193.465,-236.693)">
				<title>工作表.28</title>
				<path d="M0 280.09 L14.17 280.09" class="st4"/>
			</g>
			<g id="shape29-41" transform="translate(306.85,-236.693)">
				<title>工作表.29</title>
				<path d="M0 280.09 L14.17 280.09" class="st4"/>
			</g>
			<g id="shape31-44" transform="translate(207.638,-208.346)">
				<title>工作表.31</title>
				<path d="M0 280.09 L14.17 280.09" class="st4"/>
			</g>
			<g id="shape30-47" transform="translate(26.7628,71.7411) rotate(-90)">
				<title>工作表.30</title>
				<path d="M0 280.09 L56.69 280.09" class="st4"/>
			</g>
			<g id="shape32-50" transform="translate(207.638,-265.039)">
				<title>工作表.32</title>
				<path d="M0 280.09 L14.17 280.09" class="st4"/>
			</g>
			<g id="shape33-53" transform="translate(-72.4498,71.7411) rotate(-90)">
				<title>工作表.33</title>
				<path d="M0 280.09 L56.69 280.09" class="st4"/>
			</g>
			<g id="shape34-56" transform="translate(127.559,-236.693)">
				<title>工作表.34</title>
				<path d="M0 280.09 L28.35 280.09" class="st4"/>
			</g>
			<g id="shape9-59" transform="translate(603.071,-226.772)">
				<title>工作表.9</title>
				<desc>正見</desc>
				<rect x="0" y="260.245" width="42.5197" height="19.8425" class="st1"/>
				<text x="5.26" y="274.97" class="st2">正見</text>			</g>
			<g id="shape11-62" transform="translate(603.071,-170.079)">
				<title>工作表.11</title>
				<desc>正志</desc>
				<rect x="0" y="260.245" width="42.5197" height="19.8425" class="st1"/>
				<text x="5.26" y="274.97" class="st2">正志</text>			</g>
			<g id="shape15-65" transform="translate(603.071,-141.732)">
				<title>工作表.15</title>
				<desc>正語</desc>
				<rect x="0" y="260.245" width="42.5197" height="19.8425" class="st1"/>
				<text x="5.26" y="274.97" class="st2">正語</text>			</g>
			<g id="shape16-68" transform="translate(603.071,-113.386)">
				<title>工作表.16</title>
				<desc>正業</desc>
				<rect x="0" y="260.245" width="42.5197" height="19.8425" class="st1"/>
				<text x="5.26" y="274.97" class="st2">正業</text>			</g>
			<g id="shape17-71" transform="translate(603.071,-85.0394)">
				<title>工作表.17</title>
				<desc>正命</desc>
				<rect x="0" y="260.245" width="42.5197" height="19.8425" class="st1"/>
				<text x="5.26" y="274.97" class="st2">正命</text>			</g>
			<g id="shape18-74" transform="translate(603.071,-56.6929)">
				<title>工作表.18</title>
				<desc>正勤</desc>
				<rect x="0" y="260.245" width="42.5197" height="19.8425" class="st1"/>
				<text x="5.26" y="274.97" class="st2">正勤</text>			</g>
			<g id="shape21-77" transform="translate(603.071,-28.3465)">
				<title>工作表.21</title>
				<desc>正念</desc>
				<rect x="0" y="260.245" width="42.5197" height="19.8425" class="st1"/>
				<text x="5.26" y="274.97" class="st2">正念</text>			</g>
			<g id="shape23-80" transform="translate(603.071,-2.84217E-13)">
				<title>工作表.23</title>
				<desc>正定</desc>
				<rect x="0" y="260.245" width="42.5197" height="19.8425" class="st1"/>
				<text x="5.26" y="274.97" class="st2">正定</text>			</g>
			<g id="shape20-83" transform="translate(488.268,-28.3465)">
				<title>工作表.20</title>
				<desc>繫心則心攝</desc>
				<rect x="0" y="260.245" width="90.7087" height="19.8425" class="st1"/>
				<text x="5.35" y="274.97" class="st2">繫心則心攝</text>			</g>
			<g id="shape22-86" transform="translate(488.268,5.68434E-14)">
				<title>工作表.22</title>
				<desc>心靜則慧發</desc>
				<rect x="0" y="260.245" width="90.7087" height="19.8425" class="st1"/>
				<text x="5.35" y="274.97" class="st2">心靜則慧發</text>			</g>
			<g id="shape37-89" transform="translate(394.724,-180)">
				<title>工作表.37</title>
				<path d="M0 280.09 L209.76 280.09" class="st3"/>
			</g>
			<g id="shape13-92" transform="translate(406.063,-113.386)">
				<title>工作表.13</title>
				<desc>僧和事</desc>
				<rect x="0" y="260.245" width="56.6929" height="19.8425" class="st1"/>
				<text x="4.35" y="274.97" class="st2">僧和事</text>			</g>
			<g id="shape19-95" transform="translate(406.063,-14.1732)">
				<title>工作表.19</title>
				<desc>己利事</desc>
				<rect x="0" y="260.245" width="56.6929" height="19.8425" class="st1"/>
				<text x="4.35" y="274.97" class="st2">己利事</text>			</g>
			<g id="shape35-98" transform="translate(111.802,255.993) rotate(-90)">
				<title>工作表.35</title>
				<path d="M0 280.09 L99.21 280.09" class="st4"/>
			</g>
			<g id="shape36-101" transform="translate(363.543,-66.6142)">
				<title>工作表.36</title>
				<path d="M0 280.09 L28.35 280.09" class="st4"/>
			</g>
			<g id="shape38-104" transform="translate(476.929,-38.2677)">
				<title>工作表.38</title>
				<path d="M0 280.09 L14.17 280.09" class="st4"/>
			</g>
			<g id="shape39-107" transform="translate(391.89,-24.0945)">
				<title>工作表.39</title>
				<path d="M0 280.09 L14.17 280.09" class="st4"/>
			</g>
			<g id="shape40-110" transform="translate(391.89,-123.307)">
				<title>工作表.40</title>
				<path d="M0 280.09 L14.17 280.09" class="st4"/>
			</g>
			<g id="shape41-113" transform="translate(476.929,-9.92126)">
				<title>工作表.41</title>
				<path d="M0 280.09 L14.17 280.09" class="st4"/>
			</g>
			<g id="shape42-116" transform="translate(-103.631,100.088) rotate(-90)">
				<title>工作表.42</title>
				<path d="M0 280.09 L42.52 280.09" class="st4"/>
			</g>
			<g id="shape43-119" transform="translate(176.457,-180)">
				<title>工作表.43</title>
				<path d="M0 280.09 L107.72 280.09" class="st5"/>
			</g>
			<g id="shape44-125" transform="translate(306.85,-66.6142)">
				<title>工作表.44</title>
				<path d="M0 280.09 L14.17 280.09" class="st5"/>
			</g>
			<g id="shape45-130" transform="translate(26.7628,213.473) rotate(-90)">
				<title>工作表.45</title>
				<path d="M0 280.09 L99.21 280.09" class="st4"/>
			</g>
			<g id="shape46-133" transform="translate(462.756,-123.307)">
				<title>工作表.46</title>
				<path d="M0 280.09 L28.35 280.09" class="st4"/>
			</g>
			<g id="shape47-136" transform="translate(462.756,-24.0945)">
				<title>工作表.47</title>
				<path d="M0 280.09 L14.17 280.09" class="st4"/>
			</g>
			<g id="shape48-139" transform="translate(196.842,270.166) rotate(-90)">
				<title>工作表.48</title>
				<path d="M0 280.09 L28.35 280.09" class="st4"/>
			</g>
			<g id="shape49-142" transform="translate(576.142,-123.307)">
				<title>工作表.49</title>
				<path d="M0 280.09 L14.17 280.09" class="st3"/>
			</g>
			<g id="shape50-145" transform="translate(590.315,-151.654)">
				<title>工作表.50</title>
				<path d="M0 280.09 L14.17 280.09" class="st3"/>
			</g>
			<g id="shape51-148" transform="translate(590.315,-94.9606)">
				<title>工作表.51</title>
				<path d="M0 280.09 L14.17 280.09" class="st3"/>
			</g>
			<g id="shape52-151" transform="translate(310.227,185.127) rotate(-90)">
				<title>工作表.52</title>
				<path d="M0 280.09 L56.69 280.09" class="st3"/>
			</g>
			<g id="shape53-154" transform="translate(576.142,-38.2677)">
				<title>工作表.53</title>
				<path d="M0 280.09 L28.35 280.09" class="st3"/>
			</g>
			<g id="shape54-157" transform="translate(397.559,-66.6142)">
				<title>工作表.54</title>
				<path d="M0 280.09 L209.76 280.09" class="st3"/>
			</g>
			<g id="shape64-160" transform="translate(65.1969,-194.173)">
				<title>工作表.64</title>
				<desc>定</desc>
				<rect x="0" y="251.741" width="28.3465" height="28.3465" class="st1"/>
				<text x="6.17" y="270.71" class="st2">定</text>			</g>
			<g id="shape2-163" transform="translate(-1.59872E-14,-226.772)">
				<title>工作表.2</title>
				<desc>解脫道以慧為本</desc>
				<rect x="0" y="260.245" width="126.142" height="19.8425" class="st7"/>
				<text x="7.07" y="274.97" class="st2">解脫道以慧為本</text>			</g>
			<g id="shape65-166" transform="translate(-277.253,57.5679) rotate(-90)">
				<title>工作表.65</title>
				<path d="M0 280.09 L28.35 280.09" class="st4"/>
			</g>
			<g id="shape66-169" transform="translate(-155.363,57.5679) rotate(-90)">
				<title>工作表.66</title>
				<path d="M0 280.09 L28.35 280.09" class="st4"/>
			</g>
			<g id="shape67-172" transform="translate(-214.891,85.9144) rotate(-90)">
				<title>工作表.67</title>
				<path d="M0 280.09 L28.35 280.09" class="st4"/>
			</g>
			<g id="shape68-175" transform="translate(-186.544,85.9144) rotate(-90)">
				<title>工作表.68</title>
				<path d="M0 280.09 L28.35 280.09" class="st4"/>
			</g>
			<g id="shape69-178" transform="translate(-214.891,29.2215) rotate(-90)">
				<title>工作表.69</title>
				<path d="M0 280.09 L28.35 280.09" class="st4"/>
			</g>
			<g id="shape70-181" transform="translate(-186.544,29.2215) rotate(-90)">
				<title>工作表.70</title>
				<path d="M0 280.09 L28.35 280.09" class="st4"/>
			</g>
			<g id="shape71-184" transform="translate(93.5433,366.002) rotate(180)">
				<title>工作表.71</title>
				<path d="M0 280.09 L28.35 280.09" class="st4"/>
			</g>
			<g id="shape72-187" transform="translate(93.5433,280.963) rotate(180)">
				<title>工作表.72</title>
				<path d="M0 280.09 L28.35 280.09" class="st4"/>
			</g>
			<g id="shape73-190" transform="translate(65.1969,309.309) rotate(180)">
				<title>工作表.73</title>
				<path d="M0 280.09 L62.36 280.09" class="st4"/>
			</g>
			<g id="shape74-193" transform="translate(65.1969,337.656) rotate(180)">
				<title>工作表.74</title>
				<path d="M0 280.09 L62.36 280.09" class="st4"/>
			</g>
			<g id="shape75-196" transform="translate(124.724,337.656) rotate(180)">
				<title>工作表.75</title>
				<path d="M0 280.09 L31.18 280.09" class="st4"/>
			</g>
			<g id="shape76-199" transform="translate(124.724,309.309) rotate(180)">
				<title>工作表.76</title>
				<path d="M0 280.09 L31.18 280.09" class="st4"/>
			</g>
			<g id="shape1-202" transform="translate(65.1969,-250.866)">
				<title>工作表.1</title>
				<desc>戒</desc>
				<rect x="0" y="251.741" width="28.3465" height="28.3465" class="st1"/>
				<text x="6.17" y="270.71" class="st2">戒</text>			</g>
		</g>
	</g>
</svg>
