<?xml version="1.0" encoding="UTF-8" standalone="no"?>
<!DOCTYPE svg PUBLIC "-//W3C//DTD SVG 1.0//EN" "http://www.w3.org/TR/2001/REC-SVG-20010904/DTD/svg10.dtd">
<!-- 由 Microsoft Visio 11.0, SVG Export, v1.0 產生 y34.0193.svg Page-1 -->
<svg xmlns="http://www.w3.org/2000/svg" xmlns:xlink="http://www.w3.org/1999/xlink" xmlns:ev="http://www.w3.org/2001/xml-events"
		xmlns:v="http://schemas.microsoft.com/visio/2003/SVGExtensions/" width="8.79549in" height="6.98841in"
		viewBox="0 0 633.276 503.165" xml:space="preserve" color-interpolation-filters="sRGB" class="st10">
	<v:documentProperties v:langID="1028" v:metric="true" v:viewMarkup="false">
		<v:userDefs>
			<v:ud v:nameU="msvSubprocessMaster" v:prompt="" v:val="VT4(Box)"/>
			<v:ud v:nameU="msvNoAutoConnect" v:val="VT0(1):26"/>
		</v:userDefs>
	</v:documentProperties>

	<style type="text/css">
	<![CDATA[
		.st1 {fill:none;stroke:#ffffff;stroke-linecap:round;stroke-linejoin:round;stroke-opacity:0;stroke-width:1}
		.st2 {fill:#000000;font-family:新細明體;font-size:1.33333em}
		.st3 {fill:#000000;font-family:新細明體;font-size:1.5em}
		.st4 {font-size:0.888885em}
		.st5 {font-size:1em}
		.st6 {stroke:#000000;stroke-linecap:round;stroke-linejoin:round;stroke-width:1}
		.st7 {stroke:#164326;stroke-linecap:round;stroke-linejoin:round;stroke-width:1}
		.st8 {stroke:#000000;stroke-dasharray:0,6.75;stroke-linecap:round;stroke-linejoin:round;stroke-width:2.25}
		.st9 {stroke:#000000;stroke-dasharray:0,3;stroke-linecap:round;stroke-linejoin:round;stroke-width:1}
		.st10 {fill:none;fill-rule:evenodd;font-size:12px;overflow:visible;stroke-linecap:square;stroke-miterlimit:3}
	]]>
	</style>

	<g v:mID="0" v:index="1" v:groupContext="foregroundPage">
		<title>頁-1</title>
		<v:pageProperties v:drawingScale="0.0393701" v:pageScale="0.0393701" v:drawingUnits="24" v:shadowOffsetX="8.50394"
				v:shadowOffsetY="-8.50394"/>
		<g id="shape1-1" v:mID="1" v:groupContext="shape" transform="translate(19,-458.37)">
			<title>工作表.1</title>
			<desc>略示道基</desc>
			<v:textBlock v:margins="rect(4,4,4,4)" v:tabSpace="42.5197"/>
			<v:textRect cx="36.8504" cy="490.976" width="73.71" height="24.378"/>
			<rect x="0" y="478.787" width="73.7008" height="24.378" class="st1"/>
			<text x="4.85" y="495.78" class="st2" v:langID="1028"><v:paragraph v:horizAlign="1"/><v:tabList/>略示道基</text>		</g>
		<g id="shape2-4" v:mID="2" v:groupContext="shape" transform="translate(118.213,-277.803)">
			<title>工作表.2</title>
			<desc>應知應斷</desc>
			<v:textBlock v:margins="rect(4,4,4,4)" v:tabSpace="42.5197"/>
			<v:textRect cx="36.8504" cy="466.315" width="73.71" height="73.7008"/>
			<rect x="0" y="429.465" width="73.7008" height="73.7008" class="st1"/>
			<text x="4.85" y="471.12" class="st2" v:langID="1028"><v:paragraph v:horizAlign="1"/><v:tabList/>應知應斷</text>		</g>
		<g id="shape3-7" v:mID="3" v:groupContext="shape" transform="translate(344.984,-306.15)">
			<title>工作表.3</title>
			<desc>有為緣生</desc>
			<v:textBlock v:margins="rect(4,4,4,4)" v:tabSpace="42.5197"/>
			<v:textRect cx="36.8504" cy="466.315" width="73.71" height="73.7008"/>
			<rect x="0" y="429.465" width="73.7008" height="73.7008" class="st1"/>
			<text x="4.85" y="471.12" class="st2" v:langID="1028"><v:paragraph v:horizAlign="1"/><v:tabList/>有為緣生</text>		</g>
		<g id="shape4-10" v:mID="4" v:groupContext="shape" transform="translate(344.984,-277.803)">
			<title>工作表.4</title>
			<desc>心法相應</desc>
			<v:textBlock v:margins="rect(4,4,4,4)" v:tabSpace="42.5197"/>
			<v:textRect cx="36.8504" cy="466.315" width="73.71" height="73.7008"/>
			<rect x="0" y="429.465" width="73.7008" height="73.7008" class="st1"/>
			<text x="4.85" y="471.12" class="st2" v:langID="1028"><v:paragraph v:horizAlign="1"/><v:tabList/>心法相應</text>		</g>
		<g id="shape5-13" v:mID="5" v:groupContext="shape" transform="translate(210.339,-382.685)">
			<title>工作表.5</title>
			<desc>業果</desc>
			<v:textBlock v:margins="rect(4,4,4,4)" v:tabSpace="42.5197"/>
			<v:textRect cx="24.0945" cy="479.071" width="48.19" height="48.189"/>
			<rect x="0" y="454.976" width="48.189" height="48.189" class="st1"/>
			<text x="8.09" y="483.87" class="st2" v:langID="1028"><v:paragraph v:horizAlign="1"/><v:tabList/>業果</text>		</g>
		<g id="shape6-16" v:mID="6" v:groupContext="shape" transform="translate(210.339,-311.819)">
			<title>工作表.6</title>
			<desc>體用</desc>
			<v:textBlock v:margins="rect(4,4,4,4)" v:tabSpace="42.5197"/>
			<v:textRect cx="24.0945" cy="479.071" width="48.19" height="48.189"/>
			<rect x="0" y="454.976" width="48.189" height="48.189" class="st1"/>
			<text x="8.09" y="483.87" class="st2" v:langID="1028"><v:paragraph v:horizAlign="1"/><v:tabList/>體用</text>		</g>
		<g id="shape7-19" v:mID="7" v:groupContext="shape" transform="translate(320.89,-331.661) scale(-1,1)">
			<title>工作表.7</title>
			<desc>性相</desc>
			<v:textBlock v:margins="rect(4,4,4,4)" v:tabSpace="42.5197"/>
			<v:textRect cx="24.0945" cy="479.071" width="48.19" height="48.189"/>
			<rect x="0" y="454.976" width="48.189" height="48.189" class="st1"/>
			<text x="-40.09" y="483.87" transform="scale(-1,1)" class="st2" v:langID="1028"><v:paragraph v:horizAlign="1"/><v:tabList/>性相</text>		</g>
		<g id="shape8-22" v:mID="8" v:groupContext="shape" transform="translate(274.118,-290.559)">
			<title>工作表.8</title>
			<desc>作用</desc>
			<v:textBlock v:margins="rect(4,4,4,4)" v:tabSpace="42.5197"/>
			<v:textRect cx="24.0945" cy="479.071" width="48.19" height="48.189"/>
			<rect x="0" y="454.976" width="48.189" height="48.189" class="st1"/>
			<text x="8.09" y="483.87" class="st2" v:langID="1028"><v:paragraph v:horizAlign="1"/><v:tabList/>作用</text>		</g>
		<g id="shape9-25" v:mID="9" v:groupContext="shape" transform="translate(274.118,-405.362)">
			<title>工作表.9</title>
			<desc>世間</desc>
			<v:textBlock v:margins="rect(4,4,4,4)" v:tabSpace="42.5197"/>
			<v:textRect cx="24.0945" cy="479.071" width="48.19" height="48.189"/>
			<rect x="0" y="454.976" width="48.189" height="48.189" class="st1"/>
			<text x="8.09" y="483.87" class="st2" v:langID="1028"><v:paragraph v:horizAlign="1"/><v:tabList/>世間</text>		</g>
		<g id="shape10-28" v:mID="10" v:groupContext="shape" transform="translate(274.118,-360.008)">
			<title>工作表.10</title>
			<desc>行業</desc>
			<v:textBlock v:margins="rect(4,4,4,4)" v:tabSpace="42.5197"/>
			<v:textRect cx="24.0945" cy="479.071" width="48.19" height="48.189"/>
			<rect x="0" y="454.976" width="48.189" height="48.189" class="st1"/>
			<text x="8.09" y="483.87" class="st2" v:langID="1028"><v:paragraph v:horizAlign="1"/><v:tabList/>行業</text>		</g>
		<g id="shape17-31" v:mID="17" v:groupContext="shape" transform="translate(19,-22.685)">
			<title>工作表.17</title>
			<desc>結示宗要</desc>
			<v:textBlock v:margins="rect(4,4,4,4)" v:tabSpace="42.5197"/>
			<v:textRect cx="36.8504" cy="466.315" width="73.71" height="73.7008"/>
			<rect x="0" y="429.465" width="73.7008" height="73.7008" class="st1"/>
			<text x="4.85" y="471.12" class="st2" v:langID="1028"><v:paragraph v:horizAlign="1"/><v:tabList/>結示宗要</text>		</g>
		<g id="shape18-34" v:mID="18" v:groupContext="shape" transform="translate(19,-199.85)">
			<title>工作表.18</title>
			<desc>廣明法義</desc>
			<v:textBlock v:margins="rect(4,4,4,4)" v:tabSpace="42.5197"/>
			<v:textRect cx="36.8504" cy="466.315" width="73.71" height="73.7008"/>
			<rect x="0" y="429.465" width="73.7008" height="73.7008" class="st1"/>
			<text x="4.85" y="471.12" class="st2" v:langID="1028"><v:paragraph v:horizAlign="1"/><v:tabList/>廣明法義</text>		</g>
		<g id="shape19-37" v:mID="19" v:groupContext="shape" transform="translate(118.213,-136.071)">
			<title>工作表.19</title>
			<desc>應修應證</desc>
			<v:textBlock v:margins="rect(4,4,4,4)" v:tabSpace="42.5197"/>
			<v:textRect cx="36.8504" cy="466.315" width="73.71" height="73.7008"/>
			<rect x="0" y="429.465" width="73.7008" height="73.7008" class="st1"/>
			<text x="4.85" y="471.12" class="st2" v:langID="1028"><v:paragraph v:horizAlign="1"/><v:tabList/>應修應證</text>		</g>
		<g id="shape20-40" v:mID="20" v:groupContext="shape" transform="translate(344.984,-249.457)">
			<title>工作表.20</title>
			<desc>眾生緣起</desc>
			<v:textBlock v:margins="rect(4,4,4,4)" v:tabSpace="42.5197"/>
			<v:textRect cx="36.8504" cy="466.315" width="73.71" height="73.7008"/>
			<rect x="0" y="429.465" width="73.7008" height="73.7008" class="st1"/>
			<text x="4.85" y="471.12" class="st2" v:langID="1028"><v:paragraph v:horizAlign="1"/><v:tabList/>眾生緣起</text>		</g>
		<g id="shape21-43" v:mID="21" v:groupContext="shape" transform="translate(344.984,-221.11)">
			<title>工作表.21</title>
			<desc>染淨增上</desc>
			<v:textBlock v:margins="rect(4,4,4,4)" v:tabSpace="42.5197"/>
			<v:textRect cx="36.8504" cy="466.315" width="73.71" height="73.7008"/>
			<rect x="0" y="429.465" width="73.7008" height="73.7008" class="st1"/>
			<text x="4.85" y="471.12" class="st2" v:langID="1028"><v:paragraph v:horizAlign="1"/><v:tabList/>染淨增上</text>		</g>
		<g id="shape22-46" v:mID="22" v:groupContext="shape" transform="translate(344.984,-107.724)">
			<title>工作表.22</title>
			<desc>修定次第</desc>
			<v:textBlock v:margins="rect(4,4,4,4)" v:tabSpace="42.5197"/>
			<v:textRect cx="36.8504" cy="466.315" width="73.71" height="73.7008"/>
			<rect x="0" y="429.465" width="73.7008" height="73.7008" class="st1"/>
			<text x="4.85" y="471.12" class="st2" v:langID="1028"><v:paragraph v:horizAlign="1"/><v:tabList/>修定次第</text>		</g>
		<g id="shape23-49" v:mID="23" v:groupContext="shape" transform="translate(344.984,-79.378)">
			<title>工作表.23</title>
			<desc>趣道斷結</desc>
			<v:textBlock v:margins="rect(4,4,4,4)" v:tabSpace="42.5197"/>
			<v:textRect cx="36.8504" cy="466.315" width="73.71" height="73.7008"/>
			<rect x="0" y="429.465" width="73.7008" height="73.7008" class="st1"/>
			<text x="4.85" y="471.12" class="st2" v:langID="1028"><v:paragraph v:horizAlign="1"/><v:tabList/>趣道斷結</text>		</g>
		<g id="shape24-52" v:mID="24" v:groupContext="shape" transform="translate(274.118,-63.7874)">
			<title>工作表.24</title>
			<desc>覺支</desc>
			<v:textBlock v:margins="rect(4,4,4,4)" v:tabSpace="42.5197"/>
			<v:textRect cx="24.0945" cy="479.071" width="48.19" height="48.189"/>
			<rect x="0" y="454.976" width="48.189" height="48.189" class="st1"/>
			<text x="8.09" y="483.87" class="st2" v:langID="1028"><v:paragraph v:horizAlign="1"/><v:tabList/>覺支</text>		</g>
		<g id="shape25-55" v:mID="25" v:groupContext="shape" transform="translate(274.118,-106.307)">
			<title>工作表.25</title>
			<desc>禪定</desc>
			<v:textBlock v:margins="rect(4,4,4,4)" v:tabSpace="42.5197"/>
			<v:textRect cx="24.0945" cy="479.071" width="48.19" height="48.189"/>
			<rect x="0" y="454.976" width="48.189" height="48.189" class="st1"/>
			<text x="8.09" y="483.87" class="st2" v:langID="1028"><v:paragraph v:horizAlign="1"/><v:tabList/>禪定</text>		</g>
		<g id="shape26-58" v:mID="26" v:groupContext="shape" transform="translate(274.118,-148.827)">
			<title>工作表.26</title>
			<desc>智慧</desc>
			<v:textBlock v:margins="rect(4,4,4,4)" v:tabSpace="42.5197"/>
			<v:textRect cx="24.0945" cy="479.071" width="48.19" height="48.189"/>
			<rect x="0" y="454.976" width="48.189" height="48.189" class="st1"/>
			<text x="8.09" y="483.87" class="st2" v:langID="1028"><v:paragraph v:horizAlign="1"/><v:tabList/>智慧</text>		</g>
		<g id="shape27-61" v:mID="27" v:groupContext="shape" transform="translate(210.339,-106.307)">
			<title>工作表.27</title>
			<desc>行法</desc>
			<v:textBlock v:margins="rect(4,4,4,4)" v:tabSpace="42.5197"/>
			<v:textRect cx="24.0945" cy="479.071" width="48.19" height="48.189"/>
			<rect x="0" y="454.976" width="48.189" height="48.189" class="st1"/>
			<text x="8.09" y="483.87" class="st2" v:langID="1028"><v:paragraph v:horizAlign="1"/><v:tabList/>行法</text>		</g>
		<g id="shape28-64" v:mID="28" v:groupContext="shape" transform="translate(210.339,-177.173)">
			<title>工作表.28</title>
			<desc>行位</desc>
			<v:textBlock v:margins="rect(4,4,4,4)" v:tabSpace="42.5197"/>
			<v:textRect cx="24.0945" cy="479.071" width="48.19" height="48.189"/>
			<rect x="0" y="454.976" width="48.189" height="48.189" class="st1"/>
			<text x="8.09" y="483.87" class="st2" v:langID="1028"><v:paragraph v:horizAlign="1"/><v:tabList/>行位</text>		</g>
		<g id="shape29-67" v:mID="29" v:groupContext="shape" transform="translate(210.339,-205.52)">
			<title>工作表.29</title>
			<desc>縛解</desc>
			<v:textBlock v:margins="rect(4,4,4,4)" v:tabSpace="42.5197"/>
			<v:textRect cx="24.0945" cy="479.071" width="48.19" height="48.189"/>
			<rect x="0" y="454.976" width="48.189" height="48.189" class="st1"/>
			<text x="8.09" y="483.87" class="st2" v:langID="1028"><v:paragraph v:horizAlign="1"/><v:tabList/>縛解</text>		</g>
		<g id="shape15-70" v:mID="15" v:groupContext="shape" transform="translate(486.717,-321.74)">
			<title>工作表.15</title>
			<desc>業 品</desc>
			<v:textBlock v:margins="rect(4,4,4,4)" v:tabSpace="42.5197"/>
			<v:textRect cx="63.7795" cy="439.386" width="127.56" height="127.559"/>
			<rect x="0" y="375.606" width="127.559" height="127.559" class="st1"/>
			<text x="0.222em" y="444.79" class="st3" v:langID="1028"><v:paragraph v:horizAlign="4"/><v:tabList/>業<tspan x="3.919em"
						dy="0em" class="st4"> </tspan><tspan x="6.722em" dy="0em" class="st4">品</tspan></text>		</g>
		<g id="shape13-75" v:mID="13" v:groupContext="shape" transform="translate(486.717,-165.835)">
			<title>工作表.13</title>
			<desc>結 使 禪 智 品</desc>
			<v:textBlock v:margins="rect(4,4,4,4)" v:tabSpace="42.5197"/>
			<v:textRect cx="63.7795" cy="439.386" width="127.56" height="127.559"/>
			<rect x="0" y="375.606" width="127.559" height="127.559" class="st1"/>
			<text x="0.25em" y="444.19" class="st2" v:langID="1028"><v:paragraph v:horizAlign="4"/><v:tabList/>結<tspan x="1.429em"
						dy="0em" class="st5"> </tspan><tspan x="1.868em" dy="0em" class="st5">使</tspan><tspan x="3.047em" dy="0em"
						class="st5"> </tspan><tspan x="3.486em" dy="0em" class="st5">禪</tspan><tspan x="4.665em" dy="0em"
						class="st5"> </tspan><tspan x="5.104em" dy="0em" class="st5">智</tspan><tspan x="6.284em" dy="0em"
						class="st5"> </tspan><tspan x="6.722em" dy="0em" class="st5">品</tspan></text>		</g>
		<g id="shape12-86" v:mID="12" v:groupContext="shape" transform="translate(486.717,-223.945)">
			<title>工作表.12</title>
			<desc>因緣種品</desc>
			<v:textBlock v:margins="rect(4,4,4,4)" v:tabSpace="42.5197"/>
			<v:textRect cx="63.7795" cy="439.386" width="127.56" height="127.559"/>
			<rect x="0" y="375.606" width="127.559" height="127.559" class="st1"/>
			<text x="0.25em 2.408em 4.565em 6.722em" y="444.19" class="st2" v:langID="1028"><v:paragraph v:horizAlign="4"/><v:tabList/>因緣種品</text>		</g>
		<g id="shape36-89" v:mID="36" v:groupContext="shape" transform="translate(486.717,-52.4488)">
			<title>工作表.36</title>
			<desc>雜定品</desc>
			<v:textBlock v:margins="rect(4,4,4,4)" v:tabSpace="42.5197"/>
			<v:textRect cx="63.7795" cy="439.386" width="127.56" height="127.559"/>
			<rect x="0" y="375.606" width="127.559" height="127.559" class="st1"/>
			<text x="0.25em 3.486em 6.722em" y="444.19" class="st2" v:langID="1028"><v:paragraph v:horizAlign="4"/><v:tabList/>雜定品</text>		</g>
		<g id="shape38-92" v:mID="38" v:groupContext="shape" transform="translate(486.717,-47.3465)">
			<title>工作表.38</title>
			<desc>四諦品</desc>
			<v:textBlock v:margins="rect(4,4,4,4)" v:tabSpace="42.5197"/>
			<v:textRect cx="63.7795" cy="490.976" width="127.56" height="24.378"/>
			<rect x="0" y="478.787" width="127.559" height="24.378" class="st1"/>
			<text x="0.25em 3.486em 6.722em" y="495.78" class="st2" v:langID="1028"><v:paragraph v:horizAlign="4"/><v:tabList/>四諦品</text>		</g>
		<g id="shape40-95" v:mID="40" v:groupContext="shape" transform="translate(19,-19)">
			<title>工作表.40</title>
			<desc>散攝餘義</desc>
			<v:textBlock v:margins="rect(4,4,4,4)" v:tabSpace="42.5197"/>
			<v:textRect cx="36.8504" cy="490.976" width="73.71" height="24.378"/>
			<rect x="0" y="478.787" width="73.7008" height="24.378" class="st1"/>
			<text x="4.85" y="495.78" class="st2" v:langID="1028"><v:paragraph v:horizAlign="1"/><v:tabList/>散攝餘義</text>		</g>
		<g id="shape49-98" v:mID="49" v:groupContext="shape" transform="translate(316.638,-314.654)">
			<title>工作表.49</title>
			<path d="M0 503.17 L28.35 503.17" class="st6"/>
		</g>
		<g id="shape50-101" v:mID="50" v:groupContext="shape" transform="translate(330.811,-343)">
			<title>工作表.50</title>
			<path d="M0 503.17 L14.17 503.17" class="st6"/>
		</g>
		<g id="shape51-104" v:mID="51" v:groupContext="shape" transform="translate(-172.354,245.205) rotate(-90)">
			<title>工作表.51</title>
			<path d="M0 503.17 L85.04 503.17" class="st6"/>
		</g>
		<g id="shape55-107" v:mID="55" v:groupContext="shape" transform="translate(267.031,-428.039)">
			<title>工作表.55</title>
			<path d="M0 503.17 L14.17 503.17" class="st6"/>
		</g>
		<g id="shape56-110" v:mID="56" v:groupContext="shape" transform="translate(252.858,-406.78)">
			<title>工作表.56</title>
			<path d="M0 503.17 L14.17 503.17" class="st6"/>
		</g>
		<g id="shape57-113" v:mID="57" v:groupContext="shape" transform="translate(267.031,-385.52)">
			<title>工作表.57</title>
			<path d="M0 503.17 L14.17 503.17" class="st6"/>
		</g>
		<g id="shape58-116" v:mID="58" v:groupContext="shape" transform="translate(-235.762,121.839) rotate(-90.4775)">
			<title>工作表.58</title>
			<path d="M0 503.17 L42.52 503.17" class="st7"/>
		</g>
		<g id="shape59-119" v:mID="59" v:groupContext="shape" transform="translate(252.858,-335.913)">
			<title>工作表.59</title>
			<path d="M0 503.17 L14.17 503.17" class="st6"/>
		</g>
		<g id="shape60-122" v:mID="60" v:groupContext="shape" transform="translate(-235.973,192.705) rotate(-90.4775)">
			<title>工作表.60</title>
			<path d="M0 503.17 L42.52 503.17" class="st7"/>
		</g>
		<g id="shape61-125" v:mID="61" v:groupContext="shape" transform="translate(267.175,-314.654)">
			<title>工作表.61</title>
			<path d="M0 503.17 L14.17 503.17" class="st6"/>
		</g>
		<g id="shape62-128" v:mID="62" v:groupContext="shape" transform="translate(266.965,-357.173)">
			<title>工作表.62</title>
			<path d="M0 503.17 L14.17 503.17" class="st6"/>
		</g>
		<g id="shape63-131" v:mID="63" v:groupContext="shape" transform="translate(-299.913,273.551) rotate(-90)">
			<title>工作表.63</title>
			<path d="M0 503.17 L177.17 503.17" class="st7"/>
		</g>
		<g id="shape64-134" v:mID="64" v:groupContext="shape" transform="translate(203.252,-335.913)">
			<title>工作表.64</title>
			<path d="M0 503.17 L14.17 503.17" class="st6"/>
		</g>
		<g id="shape65-137" v:mID="65" v:groupContext="shape" transform="translate(203.252,-406.78)">
			<title>工作表.65</title>
			<path d="M0 503.17 L14.17 503.17" class="st6"/>
		</g>
		<g id="shape66-140" v:mID="66" v:groupContext="shape" transform="translate(189.079,-314.654)">
			<title>工作表.66</title>
			<path d="M0 503.17 L14.17 503.17" class="st6"/>
		</g>
		<g id="shape67-143" v:mID="67" v:groupContext="shape" transform="translate(203.252,-229.614)">
			<title>工作表.67</title>
			<path d="M0 503.17 L14.17 503.17" class="st6"/>
		</g>
		<g id="shape68-146" v:mID="68" v:groupContext="shape" transform="translate(189.079,-172.921)">
			<title>工作表.68</title>
			<path d="M0 503.17 L14.17 503.17" class="st6"/>
		</g>
		<g id="shape69-149" v:mID="69" v:groupContext="shape" transform="translate(203.252,-201.268)">
			<title>工作表.69</title>
			<path d="M0 503.17 L14.17 503.17" class="st6"/>
		</g>
		<g id="shape70-152" v:mID="70" v:groupContext="shape" transform="translate(203.252,-130.402)">
			<title>工作表.70</title>
			<path d="M0 503.17 L14.17 503.17" class="st6"/>
		</g>
		<g id="shape71-155" v:mID="71" v:groupContext="shape" transform="translate(-299.913,372.764) rotate(-90)">
			<title>工作表.71</title>
			<path d="M0 503.17 L70.87 503.17" class="st7"/>
		</g>
		<g id="shape72-158" v:mID="72" v:groupContext="shape" transform="translate(-399.126,330.244) rotate(-90)">
			<title>工作表.72</title>
			<path d="M0 503.17 L141.73 503.17" class="st7"/>
		</g>
		<g id="shape73-161" v:mID="73" v:groupContext="shape" transform="translate(104.039,-172.921)">
			<title>工作表.73</title>
			<path d="M0 503.17 L14.17 503.17" class="st6"/>
		</g>
		<g id="shape74-164" v:mID="74" v:groupContext="shape" transform="translate(89.8661,-236.701)">
			<title>工作表.74</title>
			<path d="M0 503.17 L14.17 503.17" class="st6"/>
		</g>
		<g id="shape75-167" v:mID="75" v:groupContext="shape" transform="translate(104.039,-314.654)">
			<title>工作表.75</title>
			<path d="M0 503.17 L14.17 503.17" class="st6"/>
		</g>
		<g id="shape76-170" v:mID="76" v:groupContext="shape" transform="translate(330.811,-286.307)">
			<title>工作表.76</title>
			<path d="M0 503.17 L14.17 503.17" class="st6"/>
		</g>
		<g id="shape77-173" v:mID="77" v:groupContext="shape" transform="translate(330.811,-257.961)">
			<title>工作表.77</title>
			<path d="M0 503.17 L14.17 503.17" class="st6"/>
		</g>
		<g id="shape85-176" v:mID="85" v:groupContext="shape" transform="translate(252.858,-130.402)">
			<title>工作表.85</title>
			<path d="M0 503.17 L28.35 503.17" class="st6"/>
		</g>
		<g id="shape86-179" v:mID="86" v:groupContext="shape" transform="translate(266.965,-87.8819)">
			<title>工作表.86</title>
			<path d="M0 503.17 L14.17 503.17" class="st6"/>
		</g>
		<g id="shape87-182" v:mID="87" v:groupContext="shape" transform="translate(267.031,-172.921)">
			<title>工作表.87</title>
			<path d="M0 503.17 L14.17 503.17" class="st6"/>
		</g>
		<g id="shape88-185" v:mID="88" v:groupContext="shape" transform="translate(-236.134,415.283) rotate(-90)">
			<title>工作表.88</title>
			<path d="M0 503.17 L85.04 503.17" class="st7"/>
		</g>
		<g id="shape89-188" v:mID="89" v:groupContext="shape" transform="translate(-172.337,391.13) rotate(-90.4775)">
			<title>工作表.89</title>
			<path d="M0 503.17 L28.35 503.17" class="st7"/>
		</g>
		<g id="shape90-191" v:mID="90" v:groupContext="shape" transform="translate(330.811,-116.228)">
			<title>工作表.90</title>
			<path d="M0 503.17 L14.17 503.17" class="st6"/>
		</g>
		<g id="shape91-194" v:mID="91" v:groupContext="shape" transform="translate(317.545,-130.402)">
			<title>工作表.91</title>
			<path d="M0 503.17 L14.17 503.17" class="st6"/>
		</g>
		<g id="shape93-197" v:mID="93" v:groupContext="shape" transform="translate(330.601,-144.575)">
			<title>工作表.93</title>
			<path d="M0 503.17 L14.17 503.17" class="st6"/>
		</g>
		<g id="shape33-200" v:mID="33" v:groupContext="shape" transform="translate(486.717,-137.488)">
			<title>工作表.33</title>
			<desc>三十七無漏人品</desc>
			<v:textBlock v:margins="rect(4,4,4,4)" v:tabSpace="42.5197"/>
			<v:textRect cx="63.7795" cy="439.386" width="127.56" height="127.559"/>
			<rect x="0" y="375.606" width="127.559" height="127.559" class="st1"/>
			<text x="0.25em 1.329em 2.408em 3.486em 4.565em 5.644em 6.722em" y="444.19" class="st2" v:langID="1028"><v:paragraph
						v:horizAlign="4"/><v:tabList/>三十七無漏人品</text>		</g>
		<g id="shape34-203" v:mID="34" v:groupContext="shape" transform="translate(486.717,-459.787)">
			<title>工作表.34</title>
			<desc>布 施 持 戒 品</desc>
			<v:textBlock v:margins="rect(4,4,4,4)" v:tabSpace="42.5197"/>
			<v:textRect cx="63.7795" cy="490.976" width="127.56" height="24.378"/>
			<rect x="0" y="478.787" width="127.559" height="24.378" class="st1"/>
			<text x="0.25em" y="495.78" class="st2" v:langID="1028"><v:paragraph v:horizAlign="4"/><v:tabList/>布<tspan x="1.429em"
						dy="0em" class="st5"> </tspan><tspan x="1.868em" dy="0em" class="st5">施</tspan><tspan x="3.047em" dy="0em"
						class="st5"> </tspan><tspan x="3.486em" dy="0em" class="st5">持</tspan><tspan x="4.665em" dy="0em"
						class="st5"> </tspan><tspan x="5.104em" dy="0em" class="st5">戒</tspan><tspan x="6.284em" dy="0em"
						class="st5"> </tspan><tspan x="6.722em" dy="0em" class="st5">品</tspan></text>		</g>
		<g id="shape11-214" v:mID="11" v:groupContext="shape" transform="translate(486.717,-430.024)">
			<title>工作表.11</title>
			<desc>界道品</desc>
			<v:textBlock v:margins="rect(4,4,4,4)" v:tabSpace="42.5197"/>
			<v:textRect cx="63.7795" cy="490.976" width="127.56" height="24.378"/>
			<rect x="0" y="478.787" width="127.559" height="24.378" class="st1"/>
			<text x="0.25em 3.486em 6.722em" y="495.78" class="st2" v:langID="1028"><v:paragraph v:horizAlign="4"/><v:tabList/>界道品</text>		</g>
		<g id="shape16-217" v:mID="16" v:groupContext="shape" transform="translate(486.717,-351.504)">
			<title>工作表.16</title>
			<desc>住食生品</desc>
			<v:textBlock v:margins="rect(4,4,4,4)" v:tabSpace="42.5197"/>
			<v:textRect cx="63.7795" cy="439.386" width="127.56" height="127.559"/>
			<rect x="0" y="375.606" width="127.559" height="127.559" class="st1"/>
			<text x="0.25em 2.408em 4.565em 6.722em" y="444.19" class="st2" v:langID="1028"><v:paragraph v:horizAlign="4"/><v:tabList/>住食生品</text>		</g>
		<g id="shape32-220" v:mID="32" v:groupContext="shape" transform="translate(486.717,-293.394)">
			<title>工作表.32</title>
			<desc>陰持入品</desc>
			<v:textBlock v:margins="rect(4,4,4,4)" v:tabSpace="42.5197"/>
			<v:textRect cx="63.7795" cy="439.386" width="127.56" height="127.559"/>
			<rect x="0" y="375.606" width="127.559" height="127.559" class="st1"/>
			<text x="0.25em 2.408em 4.565em 6.722em" y="444.19" class="st2" v:langID="1028"><v:paragraph v:horizAlign="4"/><v:tabList/>陰持入品</text>		</g>
		<g id="shape14-223" v:mID="14" v:groupContext="shape" transform="translate(486.717,-265.047)">
			<title>工作表.14</title>
			<desc>行 品</desc>
			<v:textBlock v:margins="rect(4,4,4,4)" v:tabSpace="42.5197"/>
			<v:textRect cx="63.7795" cy="439.386" width="127.56" height="127.559"/>
			<rect x="0" y="375.606" width="127.559" height="127.559" class="st1"/>
			<text x="0.25em" y="444.19" class="st2" v:langID="1028"><v:paragraph v:horizAlign="4"/><v:tabList/>行<tspan x="3.856em"
						dy="0em" class="st5"> </tspan><tspan x="6.722em" dy="0em" class="st5">品</tspan></text>		</g>
		<g id="shape30-228" v:mID="30" v:groupContext="shape" transform="translate(486.717,-194.181)">
			<title>工作表.30</title>
			<desc>淨根品</desc>
			<v:textBlock v:margins="rect(4,4,4,4)" v:tabSpace="42.5197"/>
			<v:textRect cx="63.7795" cy="439.386" width="127.56" height="127.559"/>
			<rect x="0" y="375.606" width="127.559" height="127.559" class="st1"/>
			<text x="0.25em 3.486em 6.722em" y="444.19" class="st2" v:langID="1028"><v:paragraph v:horizAlign="4"/><v:tabList/>淨根品</text>		</g>
		<g id="shape31-231" v:mID="31" v:groupContext="shape" transform="translate(486.717,-109.142)">
			<title>工作表.31</title>
			<desc>智品</desc>
			<v:textBlock v:margins="rect(4,4,4,4)" v:tabSpace="42.5197"/>
			<v:textRect cx="63.7795" cy="439.386" width="127.56" height="127.559"/>
			<rect x="0" y="375.606" width="127.559" height="127.559" class="st1"/>
			<text x="0.25em 6.722em" y="444.19" class="st2" v:langID="1028"><v:paragraph v:horizAlign="4"/><v:tabList/>智品</text>		</g>
		<g id="shape35-234" v:mID="35" v:groupContext="shape" transform="translate(486.717,-80.7953)">
			<title>工作表.35</title>
			<desc>禪定品</desc>
			<v:textBlock v:margins="rect(4,4,4,4)" v:tabSpace="42.5197"/>
			<v:textRect cx="63.7795" cy="439.386" width="127.56" height="127.559"/>
			<rect x="0" y="375.606" width="127.559" height="127.559" class="st1"/>
			<text x="0.25em 3.486em 6.722em" y="444.19" class="st2" v:langID="1028"><v:paragraph v:horizAlign="4"/><v:tabList/>禪定品</text>		</g>
		<g id="shape37-237" v:mID="37" v:groupContext="shape" transform="translate(486.717,-24.1024)">
			<title>工作表.37</title>
			<desc>三十七品</desc>
			<v:textBlock v:margins="rect(4,4,4,4)" v:tabSpace="42.5197"/>
			<v:textRect cx="63.7795" cy="439.386" width="127.56" height="127.559"/>
			<rect x="0" y="375.606" width="127.559" height="127.559" class="st1"/>
			<text x="0.25em 2.408em 4.565em 6.722em" y="444.19" class="st2" v:langID="1028"><v:paragraph v:horizAlign="4"/><v:tabList/>三十七品</text>		</g>
		<g id="shape39-240" v:mID="39" v:groupContext="shape" transform="translate(486.717,-19)">
			<title>工作表.39</title>
			<desc>雜品</desc>
			<v:textBlock v:margins="rect(4,4,4,4)" v:tabSpace="42.5197"/>
			<v:textRect cx="63.7795" cy="490.976" width="127.56" height="24.378"/>
			<rect x="0" y="478.787" width="127.559" height="24.378" class="st1"/>
			<text x="0.25em 6.722em" y="495.78" class="st2" v:langID="1028"><v:paragraph v:horizAlign="4"/><v:tabList/>雜品</text>		</g>
		<g id="shape84-243" v:mID="84" v:groupContext="shape" transform="translate(92.7008,-471.976)">
			<title>工作表.84</title>
			<path d="M0 503.17 L394.02 503.17" class="st8"/>
		</g>
		<g id="shape54-246" v:mID="54" v:groupContext="shape" transform="translate(316.638,-429.457)">
			<title>工作表.54</title>
			<path d="M0 503.17 L155.91 503.17" class="st8"/>
		</g>
		<g id="shape92-249" v:mID="92" v:groupContext="shape" transform="translate(472.543,-443.63)">
			<title>工作表.92</title>
			<path d="M0 503.17 L14.17 503.17" class="st8"/>
		</g>
		<g id="shape94-252" v:mID="94" v:groupContext="shape" transform="translate(472.543,-415.283)">
			<title>工作表.94</title>
			<path d="M0 503.17 L14.17 503.17" class="st8"/>
		</g>
		<g id="shape95-255" v:mID="95" v:groupContext="shape" transform="translate(975.709,59.5354) rotate(90)">
			<title>工作表.95</title>
			<path d="M0 503.17 L28.35 503.17" class="st8"/>
		</g>
		<g id="shape41-258" v:mID="41" v:groupContext="shape" transform="translate(316.638,-386.937)">
			<title>工作表.41</title>
			<path d="M0 503.17 L170.08 503.17" class="st8"/>
		</g>
		<g id="shape42-261" v:mID="42" v:groupContext="shape" transform="translate(418.685,-316.071)">
			<title>工作表.42</title>
			<path d="M0 503.17 L53.86 503.17" class="st8"/>
		</g>
		<g id="shape43-264" v:mID="43" v:groupContext="shape" transform="translate(316.638,-358.591)">
			<title>工作表.43</title>
			<path d="M0 503.17 L170.08 503.17" class="st8"/>
		</g>
		<g id="shape44-267" v:mID="44" v:groupContext="shape" transform="translate(415.85,-287.724)">
			<title>工作表.44</title>
			<path d="M0 503.17 L68.03 503.17" class="st8"/>
		</g>
		<g id="shape45-270" v:mID="45" v:groupContext="shape" transform="translate(415.85,-259.378)">
			<title>工作表.45</title>
			<path d="M0 503.17 L68.03 503.17" class="st8"/>
		</g>
		<g id="shape46-273" v:mID="46" v:groupContext="shape" transform="translate(415.85,-344.417)">
			<title>工作表.46</title>
			<path d="M0 503.17 L53.86 503.17" class="st8"/>
		</g>
		<g id="shape47-276" v:mID="47" v:groupContext="shape" transform="translate(975.709,158.748) rotate(90)">
			<title>工作表.47</title>
			<path d="M0 503.17 L28.35 503.17" class="st8"/>
		</g>
		<g id="shape48-279" v:mID="48" v:groupContext="shape" transform="translate(472.543,-330.244)">
			<title>工作表.48</title>
			<path d="M0 503.17 L14.17 503.17" class="st8"/>
		</g>
		<g id="shape52-282" v:mID="52" v:groupContext="shape" transform="translate(316.638,-174.339)">
			<title>工作表.52</title>
			<path d="M0 503.17 L170.08 503.17" class="st8"/>
		</g>
		<g id="shape53-285" v:mID="53" v:groupContext="shape" transform="translate(418.685,-145.992)">
			<title>工作表.53</title>
			<path d="M0 503.17 L68.03 503.17" class="st8"/>
		</g>
		<g id="shape78-288" v:mID="78" v:groupContext="shape" transform="translate(415.85,-117.646)">
			<title>工作表.78</title>
			<path d="M0 503.17 L68.03 503.17" class="st8"/>
		</g>
		<g id="shape79-291" v:mID="79" v:groupContext="shape" transform="translate(258.528,-231.031)">
			<title>工作表.79</title>
			<path d="M0 503.17 L228.19 503.17" class="st8"/>
		</g>
		<g id="shape80-294" v:mID="80" v:groupContext="shape" transform="translate(258.528,-202.685)">
			<title>工作表.80</title>
			<path d="M0 503.17 L228.19 503.17" class="st8"/>
		</g>
		<g id="shape81-297" v:mID="81" v:groupContext="shape" transform="translate(316.638,-89.2992)">
			<title>工作表.81</title>
			<path d="M0 503.17 L170.08 503.17" class="st8"/>
		</g>
		<g id="shape82-300" v:mID="82" v:groupContext="shape" transform="translate(92.7008,-60.9528)">
			<title>工作表.82</title>
			<path d="M0 503.17 L394.02 503.17" class="st8"/>
		</g>
		<g id="shape83-303" v:mID="83" v:groupContext="shape" transform="translate(92.7008,-32.6063)">
			<title>工作表.83</title>
			<path d="M0 503.17 L394.02 503.17" class="st8"/>
		</g>
		<g id="shape98-306" v:mID="98" v:groupContext="shape" transform="translate(245.418,-89.3196) rotate(-19.7989)">
			<title>工作表.98</title>
			<path d="M0 503.17 L75.32 503.17" class="st9"/>
		</g>
		<g id="shape99-309" v:mID="99" v:groupContext="shape" transform="translate(253.143,-11.2486) rotate(-17.3047)">
			<title>工作表.99</title>
			<path d="M0 503.17 L85.8 503.17" class="st9"/>
		</g>
	</g>
</svg>
