<?xml version="1.0" encoding="UTF-8" standalone="no"?>
<!DOCTYPE svg PUBLIC "-//W3C//DTD SVG 1.1//EN" "http://www.w3.org/Graphics/SVG/1.1/DTD/svg11.dtd">
<!-- 由 Microsoft Visio, SVG Export 產生 y30.0021-1.svg 頁-1 -->
<svg xmlns="http://www.w3.org/2000/svg" xmlns:xlink="http://www.w3.org/1999/xlink" xmlns:ev="http://www.w3.org/2001/xml-events"
		width="5.89211in" height="0.876142in" viewBox="0 0 424.232 63.0822" xml:space="preserve" color-interpolation-filters="sRGB"
		class="st4">
	<style type="text/css">
	<![CDATA[
		.st1 {fill:none;stroke:none;stroke-linecap:round;stroke-linejoin:round;stroke-width:0.72}
		.st2 {fill:#000000;font-family:新細明體;font-size:1.33333em}
		.st3 {stroke:#000000;stroke-linecap:round;stroke-linejoin:round;stroke-width:0.72}
		.st4 {fill:none;fill-rule:evenodd;font-size:12px;overflow:visible;stroke-linecap:square;stroke-miterlimit:3}
	]]>
	</style>

	<g>
		<title>頁-1</title>
		<g id="shape3-1" transform="translate(0.36,-28.7065)">
			<title>工作表.3</title>
			<desc>祇夜</desc>
			<rect x="0" y="43.2397" width="42.5197" height="19.8425" class="st1"/>
			<text x="4" y="58.14" class="st2">祇夜</text>		</g>
		<g id="shape4-4" transform="translate(85.3994,-28.7065)">
			<title>工作表.4</title>
			<desc>偈　</desc>
			<rect x="0" y="43.2397" width="41.1024" height="19.8425" class="st1"/>
			<text x="4" y="58.14" class="st2">偈</text>		</g>
		<g id="shape5-7" transform="translate(42.8797,-38.6277)">
			<title>工作表.5</title>
			<path d="M0 63.08 L42.52 63.08" class="st3"/>
		</g>
		<g id="shape6-10" transform="translate(113.746,-38.6277)">
			<title>工作表.6</title>
			<path d="M0 63.08 L42.52 63.08" class="st3"/>
		</g>
		<g id="shape7-13" transform="translate(170.439,-42.8797)">
			<title>工作表.7</title>
			<desc>伽陀</desc>
			<rect x="0" y="43.2397" width="41.9843" height="19.8425" class="st1"/>
			<text x="4" y="58.14" class="st2">伽陀</text>		</g>
		<g id="shape8-16" transform="translate(170.974,-14.5332)">
			<title>工作表.8</title>
			<desc>路伽</desc>
			<rect x="0" y="43.2397" width="41.9843" height="19.8425" class="st1"/>
			<text x="4" y="58.14" class="st2">路伽</text>		</g>
		<g id="shape11-19" transform="translate(340.517,-38.6277)">
			<title>工作表.11</title>
			<path d="M0 63.08 L42.52 63.08" class="st3"/>
		</g>
		<g id="shape12-22" transform="translate(212.958,-24.4545)">
			<title>工作表.12</title>
			<path d="M0 63.08 L42.52 63.08" class="st3"/>
		</g>
		<g id="shape13-25" transform="translate(383.037,-28.7065)">
			<title>工作表.13</title>
			<desc>祇夜</desc>
			<rect x="0" y="43.2397" width="40.8346" height="19.8425" class="st1"/>
			<text x="4" y="58.14" class="st2">祇夜</text>		</g>
		<g id="shape14-28" transform="translate(269.651,-0.36)">
			<title>工作表.14</title>
			<desc>順煩惱</desc>
			<rect x="0" y="43.2397" width="58.5512" height="19.8425" class="st1"/>
			<text x="4" y="58.14" class="st2">順煩惱</text>		</g>
		<g id="shape15-31" transform="translate(269.651,-28.7065)">
			<title>工作表.15</title>
			<desc>不順煩惱</desc>
			<rect x="0" y="43.2397" width="75.1181" height="19.8425" class="st1"/>
			<text x="4" y="58.14" class="st2">不順煩惱</text>		</g>
		<g id="shape1-34" transform="translate(170.439,73.3635) rotate(180)">
			<title>工作表.1</title>
			<path d="M0 63.08 L14.17 63.08" class="st3"/>
		</g>
		<g id="shape2-37" transform="translate(219.348,10.2813) rotate(90)">
			<title>工作表.2</title>
			<path d="M0 63.08 L28.35 63.08" class="st3"/>
		</g>
		<g id="shape9-40" transform="translate(170.439,101.71) rotate(180)">
			<title>工作表.9</title>
			<path d="M0 63.08 L14.17 63.08" class="st3"/>
		</g>
		<g id="shape10-43" transform="translate(269.651,87.5367) rotate(180)">
			<title>工作表.10</title>
			<path d="M0 63.08 L14.17 63.08" class="st3"/>
		</g>
		<g id="shape16-46" transform="translate(318.56,24.4545) rotate(90)">
			<title>工作表.16</title>
			<path d="M0 63.08 L28.35 63.08" class="st3"/>
		</g>
		<g id="shape17-49" transform="translate(269.651,115.883) rotate(180)">
			<title>工作表.17</title>
			<path d="M0 63.08 L14.17 63.08" class="st3"/>
		</g>
	</g>
</svg>
