<?xml version="1.0" encoding="UTF-8" standalone="no"?>
<!DOCTYPE svg PUBLIC "-//W3C//DTD SVG 1.1//EN" "http://www.w3.org/Graphics/SVG/1.1/DTD/svg11.dtd">
<!-- 由 Microsoft Visio, SVG Export 產生 y30.0012-1-h.svg 頁-1 -->
<svg xmlns="http://www.w3.org/2000/svg" xmlns:xlink="http://www.w3.org/1999/xlink" xmlns:ev="http://www.w3.org/2001/xml-events"
		width="7.80569in" height="3.04191in" viewBox="0 0 562.01 219.018" xml:space="preserve" color-interpolation-filters="sRGB"
		class="st6">
	<style type="text/css">
	<![CDATA[
		.st1 {stroke:#000000;stroke-linecap:round;stroke-linejoin:round;stroke-width:1}
		.st2 {stroke:#000000;stroke-dasharray:0,4.5;stroke-linecap:round;stroke-linejoin:round;stroke-width:1.5}
		.st3 {fill:none;stroke:none;stroke-linecap:round;stroke-linejoin:round;stroke-width:0.75}
		.st4 {fill:#000000;font-family:新細明體;font-size:1.33333em}
		.st5 {font-family:標楷體;font-size:1em}
		.st6 {fill:none;fill-rule:evenodd;font-size:12px;overflow:visible;stroke-linecap:square;stroke-miterlimit:3}
	]]>
	</style>

	<g>
		<title>頁-1</title>
		<g id="group26-1" transform="translate(0.375,-0.375)">
			<title>工作表.26</title>
			<g id="shape17-2" transform="translate(221.102,-151.654)">
				<title>工作表.17</title>
				<path d="M0 219.02 L28.35 219.02" class="st1"/>
			</g>
			<g id="shape18-5" transform="translate(184.252,-208.346)">
				<title>工作表.18</title>
				<path d="M0 219.02 L34.02 219.02" class="st2"/>
			</g>
			<g id="shape19-8" transform="translate(291.969,-94.9606)">
				<title>工作表.19</title>
				<path d="M0 219.02 L28.35 219.02" class="st1"/>
			</g>
			<g id="shape20-11" transform="translate(269.291,-38.2677)">
				<title>工作表.20</title>
				<path d="M0 219.02 L28.35 219.02" class="st1"/>
			</g>
			<g id="shape21-14" transform="translate(121.89,-151.654)">
				<title>工作表.21</title>
				<path d="M0 219.02 L34.02 219.02" class="st2"/>
			</g>
			<g id="shape22-17" transform="translate(184.252,-94.9606)">
				<title>工作表.22</title>
				<path d="M0 219.02 L34.02 219.02" class="st2"/>
			</g>
			<g id="shape23-20" transform="translate(167.244,-38.2677)">
				<title>工作表.23</title>
				<path d="M0 219.02 L34.02 219.02" class="st2"/>
			</g>
			<g id="shape24-23" transform="translate(291.969,-208.346)">
				<title>工作表.24</title>
				<path d="M0 219.02 L28.35 219.02" class="st1"/>
			</g>
			<g id="shape1-26" transform="translate(8.50394,-198.425)">
				<title>工作表.1</title>
				<desc>「行五蘊擇攝第一」</desc>
				<rect x="0" y="199.175" width="184.252" height="19.8425" class="st3"/>
				<text x="4.13" y="213.9" class="st4">「行（五蘊）擇攝第一」</text>			</g>
			<g id="shape2-29" transform="translate(215.433,-198.425)">
				<title>工作表.2</title>
				<desc>論卷八五</desc>
				<rect x="0" y="199.175" width="73.7008" height="19.8425" class="st3"/>
				<text x="4.85" y="213.9" class="st4">論卷八五</text>			</g>
			<g id="shape3-32" transform="translate(320.315,-198.425)">
				<title>工作表.3</title>
				<desc>八八</desc>
				<rect x="0" y="199.175" width="42.5197" height="19.8425" class="st3"/>
				<text x="5.26" y="213.9" class="st4">八八</text>			</g>
			<g id="shape4-35" transform="translate(22.6772,-170.079)">
				<title>工作表.4</title>
				<desc>經卷一‧卷一○‧卷三‧卷二‧卷五</desc>
				<rect x="0" y="199.175" width="283.465" height="19.8425" class="st3"/>
				<text x="5.73" y="213.9" class="st4">經：卷一‧卷一<tspan class="st5">○</tspan>‧卷三‧卷二‧卷五</text>			</g>
			<g id="shape5-39" transform="translate(4.8189,-141.732)">
				<title>工作表.5</title>
				<desc>「處擇攝第二」</desc>
				<rect x="0" y="199.175" width="127.559" height="19.8425" class="st3"/>
				<text x="7.78" y="213.9" class="st4">「處擇攝第二」</text>			</g>
			<g id="shape6-42" transform="translate(151.654,-141.732)">
				<title>工作表.6</title>
				<desc>論卷八九</desc>
				<rect x="0" y="199.175" width="73.7008" height="19.8425" class="st3"/>
				<text x="4.85" y="213.9" class="st4">論卷八九</text>			</g>
			<g id="shape7-45" transform="translate(248.031,-141.732)">
				<title>工作表.7</title>
				<desc>九二</desc>
				<rect x="0" y="199.175" width="42.5197" height="19.8425" class="st3"/>
				<text x="5.26" y="213.9" class="st4">九二</text>			</g>
			<g id="shape8-48" transform="translate(21.2598,-113.386)">
				<title>工作表.8</title>
				<desc>經卷八‧卷九‧卷四三‧卷一一‧卷一三</desc>
				<rect x="0" y="199.175" width="317.48" height="19.8425" class="st3"/>
				<text x="6.74" y="213.9" class="st4">經：卷八‧卷九‧卷四三‧卷一一‧卷一三</text>			</g>
			<g id="shape9-51" transform="translate(8.50394,-85.0394)">
				<title>工作表.9</title>
				<desc>「緣起食諦界擇攝第三」</desc>
				<rect x="0" y="199.175" width="184.252" height="19.8425" class="st3"/>
				<text x="4.13" y="213.9" class="st4">「緣起食諦界擇攝第三」</text>			</g>
			<g id="shape10-54" transform="translate(215.433,-85.0394)">
				<title>工作表.10</title>
				<desc>論卷九三</desc>
				<rect x="0" y="199.175" width="73.7008" height="19.8425" class="st3"/>
				<text x="4.85" y="213.9" class="st4">論卷九三</text>			</g>
			<g id="shape11-57" transform="translate(320.315,-85.0394)">
				<title>工作表.11</title>
				<desc>九六</desc>
				<rect x="0" y="199.175" width="42.5197" height="19.8425" class="st3"/>
				<text x="5.26" y="213.9" class="st4">九六</text>			</g>
			<g id="shape12-60" transform="translate(18.4252,-56.6929)">
				<title>工作表.12</title>
				<desc>經卷一二‧卷一四‧卷一五‧卷一六‧卷一七</desc>
				<rect x="0" y="199.175" width="354.331" height="19.8425" class="st3"/>
				<text x="9.17" y="213.9" class="st4">經：卷一二‧卷一四‧卷一五‧卷一六‧卷一七</text>			</g>
			<g id="shape13-63" transform="translate(6.39488E-14,-28.3465)">
				<title>工作表.13</title>
				<desc>「菩提分法擇攝第四」</desc>
				<rect x="0" y="199.175" width="184.252" height="19.8425" class="st3"/>
				<text x="12.13" y="213.9" class="st4">「菩提分法擇攝第四」</text>			</g>
			<g id="shape14-66" transform="translate(198.992,-28.3465)">
				<title>工作表.14</title>
				<desc>論卷九七</desc>
				<rect x="0" y="199.175" width="73.7008" height="19.8425" class="st3"/>
				<text x="4.85" y="213.9" class="st4">論卷九七</text>			</g>
			<g id="shape15-69" transform="translate(293.386,-28.3465)">
				<title>工作表.15</title>
				<desc>九八</desc>
				<rect x="0" y="199.175" width="42.5197" height="19.8425" class="st3"/>
				<text x="5.26" y="213.9" class="st4">九八</text>			</g>
			<g id="shape16-72" transform="translate(22.6772,2.84217E-14)">
				<title>工作表.16</title>
				<desc>經卷二四‧卷二五佚‧卷二六˙卷二七‧卷二八˙卷二九‧卷三○</desc>
				<rect x="0" y="199.175" width="538.583" height="19.8425" class="st3"/>
				<text x="5.29" y="213.9" class="st4">經：卷二四‧（卷二五，佚）‧卷二六˙卷二七‧卷二八˙卷二九‧卷三<tspan class="st5">○</tspan></text>			</g>
		</g>
	</g>
</svg>
