<?xml version="1.0" encoding="UTF-8" standalone="no"?>
<!DOCTYPE svg PUBLIC "-//W3C//DTD SVG 1.1//EN" "http://www.w3.org/Graphics/SVG/1.1/DTD/svg11.dtd">
<!-- 由 Microsoft Visio, SVG Export 產生 y30.0008-h.svg 頁-1 -->
<svg xmlns="http://www.w3.org/2000/svg" xmlns:xlink="http://www.w3.org/1999/xlink" xmlns:ev="http://www.w3.org/2001/xml-events"
		width="6.00748in" height="4.2226in" viewBox="0 0 432.539 304.027" xml:space="preserve" color-interpolation-filters="sRGB"
		class="st6">
	<style type="text/css">
	<![CDATA[
		.st1 {fill:none;stroke:none;stroke-linecap:round;stroke-linejoin:round;stroke-width:0.72}
		.st2 {fill:#000000;font-family:新細明體;font-size:1.33333em}
		.st3 {fill:#000000;font-family:Times New Roman;font-size:1.33333em}
		.st4 {font-family:新細明體;font-size:1em}
		.st5 {stroke:#000000;stroke-linecap:round;stroke-linejoin:round;stroke-width:0.72}
		.st6 {fill:none;fill-rule:evenodd;font-size:12px;overflow:visible;stroke-linecap:square;stroke-miterlimit:3}
	]]>
	</style>

	<g>
		<title>頁-1</title>
		<g id="group59-1" transform="translate(0.36,-0.36)">
			<title>工作表.59</title>
			<g id="shape1-2" transform="translate(4.79616E-14,-283.465)">
				<title>工作表.1</title>
				<desc>﹝瑜伽本地分﹞</desc>
				<rect x="0" y="284.185" width="121.402" height="19.8425" class="st1"/>
				<text x="4" y="299.09" class="st2">﹝瑜伽本地分﹞</text>			</g>
			<g id="shape2-5" transform="translate(171.24,-283.465)">
				<title>工作表.2</title>
				<desc>﹝瑜伽攝事分﹞</desc>
				<rect x="0" y="284.185" width="122.378" height="19.8425" class="st1"/>
				<text x="4" y="299.09" class="st2">﹝瑜伽攝事分﹞</text>			</g>
			<g id="shape3-8" transform="translate(343.457,-283.465)">
				<title>工作表.3</title>
				<desc>﹝雜事﹞</desc>
				<rect x="0" y="284.185" width="74.189" height="19.8425" class="st1"/>
				<text x="4" y="299.09" class="st2">﹝雜事﹞</text>			</g>
			<g id="shape4-11" transform="translate(0,-255.118)">
				<title>工作表.4</title>
				<desc>1. 五取蘊</desc>
				<rect x="0" y="284.185" width="74.3622" height="19.8425" class="st1"/>
				<text x="4" y="299.09" class="st3">1. <tspan class="st4">五取蘊</tspan></text>			</g>
			<g id="shape5-15" transform="translate(171.24,-255.118)">
				<title>工作表.5</title>
				<desc>3. 蘊</desc>
				<rect x="0" y="284.185" width="43.0079" height="19.8425" class="st1"/>
				<text x="4" y="299.09" class="st3">3. <tspan class="st4">蘊</tspan></text>			</g>
			<g id="shape6-19" transform="translate(343.457,-255.118)">
				<title>工作表.6</title>
				<desc>1. 五蘊</desc>
				<rect x="0" y="284.185" width="57.1811" height="19.8425" class="st1"/>
				<text x="4" y="299.09" class="st3">1. <tspan class="st4">五蘊</tspan></text>			</g>
			<g id="shape7-23" transform="translate(0,-226.683)">
				<title>工作表.7</title>
				<desc>2. 十二處</desc>
				<rect x="0" y="284.185" width="73.7008" height="19.8425" class="st1"/>
				<text x="4" y="299.09" class="st3">2. <tspan class="st4">十二處</tspan></text>			</g>
			<g id="shape8-27" transform="translate(171.24,-226.683)">
				<title>工作表.8</title>
				<desc>5. 處</desc>
				<rect x="0" y="284.185" width="43.0079" height="19.8425" class="st1"/>
				<text x="4" y="299.09" class="st3">5. <tspan class="st4">處</tspan></text>			</g>
			<g id="shape9-31" transform="translate(343.457,-226.683)">
				<title>工作表.9</title>
				<desc>2. 六處</desc>
				<rect x="0" y="284.185" width="56.2047" height="19.8425" class="st1"/>
				<text x="4" y="299.09" class="st3">2. <tspan class="st4">六處</tspan></text>			</g>
			<g id="shape10-35" transform="translate(0,-198.248)">
				<title>工作表.10</title>
				<desc>3. 十二緣起</desc>
				<rect x="0" y="284.185" width="88.3622" height="19.8425" class="st1"/>
				<text x="4" y="299.09" class="st3">3. <tspan class="st4">十二緣起</tspan></text>			</g>
			<g id="shape11-39" transform="translate(171.24,-198.248)">
				<title>工作表.11</title>
				<desc>6. 緣起</desc>
				<rect x="0" y="284.185" width="56.2047" height="19.8425" class="st1"/>
				<text x="4" y="299.09" class="st3">6. <tspan class="st4">緣起</tspan></text>			</g>
			<g id="shape12-43" transform="translate(343.457,-198.248)">
				<title>工作表.12</title>
				<desc>4. 緣起</desc>
				<rect x="0" y="284.185" width="57.1811" height="19.8425" class="st1"/>
				<text x="4" y="299.09" class="st3">4. <tspan class="st4">緣起</tspan></text>			</g>
			<g id="shape13-47" transform="translate(0,-169.813)">
				<title>工作表.13</title>
				<desc>4. 四食</desc>
				<rect x="0" y="284.185" width="57.1811" height="19.8425" class="st1"/>
				<text x="4" y="299.09" class="st3">4. <tspan class="st4">四食</tspan></text>			</g>
			<g id="shape14-51" transform="translate(171.24,-169.813)">
				<title>工作表.14</title>
				<desc>7. 食</desc>
				<rect x="0" y="284.185" width="43.0079" height="19.8425" class="st1"/>
				<text x="4" y="299.09" class="st3">7. <tspan class="st4">食</tspan></text>			</g>
			<g id="shape15-55" transform="translate(0,-141.378)">
				<title>工作表.15</title>
				<desc>5. 四聖諦</desc>
				<rect x="0" y="284.185" width="74.189" height="19.8425" class="st1"/>
				<text x="4" y="299.09" class="st3">5. <tspan class="st4">四聖諦</tspan></text>			</g>
			<g id="shape16-59" transform="translate(171.24,-141.378)">
				<title>工作表.16</title>
				<desc>8. 諦</desc>
				<rect x="0" y="284.185" width="43.0079" height="19.8425" class="st1"/>
				<text x="4" y="299.09" class="st3">8. <tspan class="st4">諦</tspan></text>			</g>
			<g id="shape17-63" transform="translate(343.457,-141.378)">
				<title>工作表.17</title>
				<desc>5. 聖諦</desc>
				<rect x="0" y="284.185" width="57.1811" height="19.8425" class="st1"/>
				<text x="4" y="299.09" class="st3">5. <tspan class="st4">聖諦</tspan></text>			</g>
			<g id="shape18-67" transform="translate(0,-112.943)">
				<title>工作表.18</title>
				<desc>6. 無量界</desc>
				<rect x="0" y="284.185" width="74.189" height="19.8425" class="st1"/>
				<text x="4" y="299.09" class="st3">6. <tspan class="st4">無量界</tspan></text>			</g>
			<g id="shape19-71" transform="translate(171.24,-112.943)">
				<title>工作表.19</title>
				<desc>4. 界</desc>
				<rect x="0" y="284.185" width="43.0079" height="19.8425" class="st1"/>
				<text x="4" y="299.09" class="st3">4. <tspan class="st4">界</tspan></text>			</g>
			<g id="shape20-75" transform="translate(343.457,-112.943)">
				<title>工作表.20</title>
				<desc>3. 十八界</desc>
				<rect x="0" y="284.185" width="74.189" height="19.8425" class="st1"/>
				<text x="4" y="299.09" class="st3">3. <tspan class="st4">十八界</tspan></text>			</g>
			<g id="shape21-79" transform="translate(0,-70.2904)">
				<title>工作表.21</title>
				<desc>7. 佛及弟子</desc>
				<rect x="0" y="284.185" width="88.3622" height="19.8425" class="st1"/>
				<text x="4" y="299.09" class="st3">7. <tspan class="st4">佛及弟子</tspan></text>			</g>
			<g id="shape22-83" transform="translate(171.24,-84.5079)">
				<title>工作表.22</title>
				<desc>1. 弟子所說</desc>
				<rect x="0" y="284.185" width="88.3622" height="19.8425" class="st1"/>
				<text x="4" y="299.09" class="st3">1. <tspan class="st4">弟子所說</tspan></text>			</g>
			<g id="shape23-87" transform="translate(343.457,-84.5079)">
				<title>工作表.23</title>
				<desc>6. 聲聞所說</desc>
				<rect x="0" y="284.185" width="88.3622" height="19.8425" class="st1"/>
				<text x="4" y="299.09" class="st3">6. <tspan class="st4">聲聞所說</tspan></text>			</g>
			<g id="shape25-91" transform="translate(171.24,-56.0728)">
				<title>工作表.25</title>
				<desc>2. 如來所說</desc>
				<rect x="0" y="284.185" width="88.3622" height="19.8425" class="st1"/>
				<text x="4" y="299.09" class="st3">2. <tspan class="st4">如來所說</tspan></text>			</g>
			<g id="shape26-95" transform="translate(343.457,-56.0728)">
				<title>工作表.26</title>
				<desc>7. 佛所說</desc>
				<rect x="0" y="284.185" width="74.189" height="19.8425" class="st1"/>
				<text x="4" y="299.09" class="st3">7. <tspan class="st4">佛所說</tspan></text>			</g>
			<g id="shape24-99" transform="translate(0,-27.6378)">
				<title>工作表.24</title>
				<desc>8. 四念住等</desc>
				<rect x="0" y="284.185" width="88.3622" height="19.8425" class="st1"/>
				<text x="4" y="299.09" class="st3">8. <tspan class="st4">四念住等</tspan></text>			</g>
			<g id="shape27-103" transform="translate(171.24,-27.6378)">
				<title>工作表.27</title>
				<desc>9. 念住等</desc>
				<rect x="0" y="284.185" width="74.189" height="19.8425" class="st1"/>
				<text x="4" y="299.09" class="st3">9. <tspan class="st4">念住等</tspan></text>			</g>
			<g id="shape28-107" transform="translate(343.457,-27.6378)">
				<title>工作表.28</title>
				<desc>8. 念住等</desc>
				<rect x="0" y="284.185" width="74.189" height="19.8425" class="st1"/>
				<text x="4" y="299.09" class="st3">8. <tspan class="st4">念住等</tspan></text>			</g>
			<g id="shape29-111">
				<title>工作表.29</title>
				<desc>9. 八眾</desc>
				<rect x="0" y="284.185" width="57.1811" height="19.8425" class="st1"/>
				<text x="4" y="299.09" class="st3">9. <tspan class="st4">八眾</tspan></text>			</g>
			<g id="shape30-115" transform="translate(171.24,0)">
				<title>工作表.30</title>
				<desc>10. 八眾</desc>
				<rect x="0" y="284.185" width="65.685" height="19.8425" class="st1"/>
				<text x="4" y="299.09" class="st3">10. <tspan class="st4">八眾</tspan></text>			</g>
			<g id="shape31-119" transform="translate(343.457,0)">
				<title>工作表.31</title>
				<desc>9. 伽他</desc>
				<rect x="0" y="284.185" width="57.1811" height="19.8425" class="st1"/>
				<text x="4" y="299.09" class="st3">9. <tspan class="st4">伽他</tspan></text>			</g>
			<g id="shape32-123" transform="translate(73.7008,-265.039)">
				<title>工作表.32</title>
				<path d="M0 304.03 L96.38 304.03" class="st5"/>
			</g>
			<g id="shape46-126" transform="translate(245.429,-37.5591)">
				<title>工作表.46</title>
				<path d="M0 304.03 L94.73 304.03" class="st5"/>
			</g>
			<g id="shape48-129" transform="translate(74.189,-151.299)">
				<title>工作表.48</title>
				<path d="M0 304.03 L95.89 304.03" class="st5"/>
			</g>
			<g id="shape49-132" transform="translate(73.9802,-236.693) rotate(0.0526615)">
				<title>工作表.49</title>
				<path d="M0 304.03 L96.38 304.03" class="st5"/>
			</g>
			<g id="shape50-135" transform="translate(214.248,-265.039)">
				<title>工作表.50</title>
				<path d="M0 304.03 L125.91 304.03" class="st5"/>
			</g>
			<g id="shape33-138" transform="translate(214.034,-236.516) rotate(-0.04031)">
				<title>工作表.33</title>
				<path d="M0 304.03 L125.91 304.03" class="st5"/>
			</g>
			<g id="shape34-141" transform="translate(212.598,-151.299)">
				<title>工作表.34</title>
				<path d="M0 304.03 L127.56 304.03" class="st5"/>
			</g>
			<g id="shape35-144" transform="translate(212.598,-122.864)">
				<title>工作表.35</title>
				<path d="M0 304.03 L127.56 304.03" class="st5"/>
			</g>
			<g id="shape36-147" transform="translate(57.1811,-179.734)">
				<title>工作表.36</title>
				<path d="M0 304.03 L112.9 304.03" class="st5"/>
			</g>
			<g id="shape37-150" transform="translate(57.1811,-9.92126)">
				<title>工作表.37</title>
				<path d="M0 304.03 L112.9 304.03" class="st5"/>
			</g>
			<g id="shape38-153" transform="translate(227.445,-208.169)">
				<title>工作表.38</title>
				<path d="M0 304.03 L112.71 304.03" class="st5"/>
			</g>
			<g id="shape39-156" transform="translate(245.429,-9.92126)">
				<title>工作表.39</title>
				<path d="M0 304.03 L94.73 304.03" class="st5"/>
			</g>
			<g id="shape40-159" transform="translate(88.3622,-208.169)">
				<title>工作表.40</title>
				<path d="M0 304.03 L81.72 304.03" class="st5"/>
			</g>
			<g id="shape41-162" transform="translate(90.9987,-38.2563) rotate(0.496867)">
				<title>工作表.41</title>
				<path d="M0 304.03 L81.72 304.03" class="st5"/>
			</g>
			<g id="shape42-165" transform="translate(259.602,-65.9941)">
				<title>工作表.42</title>
				<path d="M0 304.03 L80.56 304.03" class="st5"/>
			</g>
			<g id="shape43-168" transform="translate(261.608,-94.954) rotate(0.378027)">
				<title>工作表.43</title>
				<path d="M0 304.03 L80.56 304.03" class="st5"/>
			</g>
			<g id="shape47-171" transform="translate(74.189,-122.864)">
				<title>工作表.47</title>
				<path d="M0 304.03 L95.89 304.03" class="st5"/>
			</g>
			<g id="shape57-174" transform="translate(222.489,508.942) rotate(170.296)">
				<title>工作表.57</title>
				<path d="M0 304.03 L84.08 304.03" class="st5"/>
			</g>
			<g id="shape58-177" transform="translate(119.991,537.288) rotate(-170.296)">
				<title>工作表.58</title>
				<path d="M0 304.03 L84.08 304.03" class="st5"/>
			</g>
		</g>
	</g>
</svg>
