<?xml version="1.0" encoding="UTF-8" standalone="no"?>
<!DOCTYPE svg PUBLIC "-//W3C//DTD SVG 1.1//EN" "http://www.w3.org/Graphics/SVG/1.1/DTD/svg11.dtd">
<!-- 由 Microsoft Visio, SVG Export 產生 y30.0021-h.svg 頁-1 -->
<svg xmlns="http://www.w3.org/2000/svg" xmlns:xlink="http://www.w3.org/1999/xlink" xmlns:ev="http://www.w3.org/2001/xml-events"
		width="5.89211in" height="0.876142in" viewBox="0 0 424.232 63.0822" xml:space="preserve" color-interpolation-filters="sRGB"
		class="st4">
	<style type="text/css">
	<![CDATA[
		.st1 {fill:none;stroke:none;stroke-linecap:round;stroke-linejoin:round;stroke-width:0.72}
		.st2 {fill:#000000;font-family:新細明體;font-size:1.33333em}
		.st3 {stroke:#000000;stroke-linecap:round;stroke-linejoin:round;stroke-width:0.72}
		.st4 {fill:none;fill-rule:evenodd;font-size:12px;overflow:visible;stroke-linecap:square;stroke-miterlimit:3}
	]]>
	</style>

	<g>
		<title>頁-1</title>
		<g id="group18-1" transform="translate(0.36,-0.36)">
			<title>工作表.18</title>
			<g id="shape3-2" transform="translate(-3.19744E-14,-28.3465)">
				<title>工作表.3</title>
				<desc>祇夜</desc>
				<rect x="0" y="43.2397" width="42.5197" height="19.8425" class="st1"/>
				<text x="4" y="58.14" class="st2">祇夜</text>			</g>
			<g id="shape4-5" transform="translate(85.0394,-28.3465)">
				<title>工作表.4</title>
				<desc>偈　</desc>
				<rect x="0" y="43.2397" width="41.1024" height="19.8425" class="st1"/>
				<text x="4" y="58.14" class="st2">偈</text>			</g>
			<g id="shape5-8" transform="translate(42.5197,-38.2677)">
				<title>工作表.5</title>
				<path d="M0 63.08 L42.52 63.08" class="st3"/>
			</g>
			<g id="shape6-11" transform="translate(113.386,-38.2677)">
				<title>工作表.6</title>
				<path d="M0 63.08 L42.52 63.08" class="st3"/>
			</g>
			<g id="shape7-14" transform="translate(170.079,-42.5197)">
				<title>工作表.7</title>
				<desc>伽陀</desc>
				<rect x="0" y="43.2397" width="41.9843" height="19.8425" class="st1"/>
				<text x="4" y="58.14" class="st2">伽陀</text>			</g>
			<g id="shape8-17" transform="translate(170.614,-14.1732)">
				<title>工作表.8</title>
				<desc>路伽</desc>
				<rect x="0" y="43.2397" width="41.9843" height="19.8425" class="st1"/>
				<text x="4" y="58.14" class="st2">路伽</text>			</g>
			<g id="shape11-20" transform="translate(340.157,-38.2677)">
				<title>工作表.11</title>
				<path d="M0 63.08 L42.52 63.08" class="st3"/>
			</g>
			<g id="shape12-23" transform="translate(212.598,-24.0945)">
				<title>工作表.12</title>
				<path d="M0 63.08 L42.52 63.08" class="st3"/>
			</g>
			<g id="shape13-26" transform="translate(382.677,-28.3465)">
				<title>工作表.13</title>
				<desc>祇夜</desc>
				<rect x="0" y="43.2397" width="40.8346" height="19.8425" class="st1"/>
				<text x="4" y="58.14" class="st2">祇夜</text>			</g>
			<g id="shape14-29" transform="translate(269.291,0)">
				<title>工作表.14</title>
				<desc>順煩惱</desc>
				<rect x="0" y="43.2397" width="58.5512" height="19.8425" class="st1"/>
				<text x="4" y="58.14" class="st2">順煩惱</text>			</g>
			<g id="shape15-32" transform="translate(269.291,-28.3465)">
				<title>工作表.15</title>
				<desc>不順煩惱</desc>
				<rect x="0" y="43.2397" width="75.1181" height="19.8425" class="st1"/>
				<text x="4" y="58.14" class="st2">不順煩惱</text>			</g>
			<g id="shape1-35" transform="translate(170.079,73.7235) rotate(180)">
				<title>工作表.1</title>
				<path d="M0 63.08 L14.17 63.08" class="st3"/>
			</g>
			<g id="shape2-38" transform="translate(218.988,10.6413) rotate(90)">
				<title>工作表.2</title>
				<path d="M0 63.08 L28.35 63.08" class="st3"/>
			</g>
			<g id="shape9-41" transform="translate(170.079,102.07) rotate(180)">
				<title>工作表.9</title>
				<path d="M0 63.08 L14.17 63.08" class="st3"/>
			</g>
			<g id="shape10-44" transform="translate(269.291,87.8967) rotate(180)">
				<title>工作表.10</title>
				<path d="M0 63.08 L14.17 63.08" class="st3"/>
			</g>
			<g id="shape16-47" transform="translate(318.2,24.8145) rotate(90)">
				<title>工作表.16</title>
				<path d="M0 63.08 L28.35 63.08" class="st3"/>
			</g>
			<g id="shape17-50" transform="translate(269.291,116.243) rotate(180)">
				<title>工作表.17</title>
				<path d="M0 63.08 L14.17 63.08" class="st3"/>
			</g>
		</g>
	</g>
</svg>
