<?xml version="1.0" encoding="UTF-8" standalone="no"?>
<!DOCTYPE svg PUBLIC "-//W3C//DTD SVG 1.1//EN" "http://www.w3.org/Graphics/SVG/1.1/DTD/svg11.dtd">
<!-- 由 Microsoft Visio, SVG Export 產生 y07.0171.svg 頁-1 -->
<svg xmlns="http://www.w3.org/2000/svg" xmlns:xlink="http://www.w3.org/1999/xlink" xmlns:ev="http://www.w3.org/2001/xml-events"
		width="6.65294in" height="0.962756in" viewBox="0 0 479.011 69.3184" xml:space="preserve" color-interpolation-filters="sRGB"
		class="st4">
	<title>y07.0171</title>

	<style type="text/css">
	<![CDATA[
		.st1 {fill:none;stroke:none;stroke-linecap:round;stroke-linejoin:round;stroke-width:0.72}
		.st2 {fill:#000000;font-family:新細明體;font-size:1.33333em}
		.st3 {stroke:#000000;stroke-linecap:round;stroke-linejoin:round;stroke-width:0.72}
		.st4 {fill:none;fill-rule:evenodd;font-size:12px;overflow:visible;stroke-linecap:square;stroke-miterlimit:3}
	]]>
	</style>

	<g>
		<title>頁-1</title>
		<g id="group11-1" transform="translate(0.36,-0.36)">
			<title>工作表.11</title>
			<g id="shape1-2" transform="translate(1.27898E-13,-24.378)">
				<title>工作表.1</title>
				<desc>解脫道論</desc>
				<rect x="0" y="49.4759" width="72" height="19.8425" class="st1"/>
				<text x="0.25em 1.25em 2.25em 3.25em" y="64.38" class="st2">解脫道論</text>			</g>
			<g id="shape2-5" transform="translate(0,-48.7559)">
				<title>工作表.2</title>
				<desc>玄奘傳</desc>
				<rect x="0" y="49.4759" width="72" height="19.8425" class="st1"/>
				<text x="0.25em 1.75em 3.25em" y="64.38" class="st2">玄奘傳</text>			</g>
			<g id="shape3-8">
				<title>工作表.3</title>
				<desc>西藏傳</desc>
				<rect x="0" y="49.4759" width="72" height="19.8425" class="st1"/>
				<text x="0.25em 1.75em 3.25em" y="64.38" class="st2">西藏傳</text>			</g>
			<g id="shape4-11" transform="translate(69.9291,-24.378)">
				<title>工作表.4</title>
				<desc>有分―轉――見―所受―分別―令起―速―彼事―有分</desc>
				<rect x="0" y="49.4759" width="408.362" height="19.8425" class="st1"/>
				<text x="4" y="64.2" class="st2">：有分―轉――見―所受―分別―令起―速―彼事―有分</text>			</g>
			<g id="shape5-14" transform="translate(69.9291,-48.7559)">
				<title>工作表.5</title>
				<desc>有分　能引發　　尋求　安立　勢用　　　反緣　有分</desc>
				<rect x="0" y="49.4759" width="408.362" height="19.8425" class="st1"/>
				<text x="4" y="64.2" class="st2">：有分　能引發　　尋求　安立　勢用　　　反緣　有分</text>			</g>
			<g id="shape6-17" transform="translate(69.9291,-6.82121E-13)">
				<title>工作表.6</title>
				<desc>有分　動　　見　尋求　分別　行　　　　能轉　　　</desc>
				<rect x="0" y="49.4759" width="408.362" height="19.8425" class="st1"/>
				<text x="4" y="64.2" class="st2">：有分　動　　見　尋求　分別　行　　　　能轉</text>			</g>
			<g id="shape7-20" transform="translate(75.2682,27.6491) rotate(-90)">
				<title>工作表.7</title>
				<path d="M0 69.32 L8.5 69.32" class="st3"/>
			</g>
			<g id="shape8-23" transform="translate(253.284,27.6491) rotate(-90)">
				<title>工作表.8</title>
				<path d="M0 69.32 L8.5 69.32" class="st3"/>
			</g>
			<g id="shape9-26" transform="translate(334.761,99.1164) rotate(-157.62)">
				<title>工作表.9</title>
				<path d="M0 69.32 L41.69 69.32" class="st3"/>
			</g>
			<g id="shape10-29" transform="translate(346.827,27.6491) rotate(-90)">
				<title>工作表.10</title>
				<path d="M0 69.32 L8.5 69.32" class="st3"/>
			</g>
		</g>
	</g>
</svg>
