<?xml version="1.0" encoding="UTF-8" standalone="no"?>
<!DOCTYPE svg PUBLIC "-//W3C//DTD SVG 1.1//EN" "http://www.w3.org/Graphics/SVG/1.1/DTD/svg11.dtd">
<!-- 由 Microsoft Visio, SVG Export 產生 y38.0175-h.svg 頁-1 -->
<svg xmlns="http://www.w3.org/2000/svg" xmlns:xlink="http://www.w3.org/1999/xlink" xmlns:ev="http://www.w3.org/2001/xml-events"
		width="8.30476in" height="7.50115in" viewBox="0 0 597.943 540.083" xml:space="preserve" color-interpolation-filters="sRGB"
		class="st6">
	<style type="text/css">
	<![CDATA[
		.st1 {fill:none;stroke:none;stroke-linecap:round;stroke-linejoin:round;stroke-width:0.75}
		.st2 {fill:#000000;font-family:新細明體;font-size:1.33333em}
		.st3 {stroke:#000000;stroke-linecap:round;stroke-linejoin:round;stroke-width:1}
		.st4 {stroke:#000000;stroke-linecap:round;stroke-linejoin:round;stroke-width:1.5}
		.st5 {fill:#000000;font-family:新細明體;font-size:0.833336em}
		.st6 {fill:none;fill-rule:evenodd;font-size:12px;overflow:visible;stroke-linecap:square;stroke-miterlimit:3}
	]]>
	</style>

	<g>
		<title>頁-1</title>
		<g id="group138-1" transform="translate(0.75,-0.75)">
			<title>工作表.138</title>
			<g id="shape17-2" transform="translate(2.83465,-484.724)">
				<title>工作表.17</title>
				<desc>空</desc>
				<rect x="0" y="517.406" width="22.6772" height="22.6772" class="st1"/>
				<text x="4" y="533.54" class="st2">空</text>			</g>
			<g id="shape18-5" transform="translate(1.41732,-456.378)">
				<title>工作表.18</title>
				<desc>無相</desc>
				<rect x="0" y="517.406" width="42.5197" height="22.6772" class="st1"/>
				<text x="5.26" y="533.54" class="st2">無相</text>			</g>
			<g id="shape19-8" transform="translate(1.41732,-428.031)">
				<title>工作表.19</title>
				<desc>無作</desc>
				<rect x="0" y="517.406" width="42.5197" height="22.6772" class="st1"/>
				<text x="5.26" y="533.54" class="st2">無作</text>			</g>
			<g id="shape20-11" transform="translate(1.41732,-399.685)">
				<title>工作表.20</title>
				<desc>無起</desc>
				<rect x="0" y="517.406" width="42.5197" height="22.6772" class="st1"/>
				<text x="5.26" y="533.54" class="st2">無起</text>			</g>
			<g id="shape21-14" transform="translate(2.83465,-371.339)">
				<title>工作表.21</title>
				<desc>盡</desc>
				<rect x="0" y="517.406" width="22.6772" height="22.6772" class="st1"/>
				<text x="4" y="533.54" class="st2">盡</text>			</g>
			<g id="shape22-17" transform="translate(7.99361E-13,-342.992)">
				<title>工作表.22</title>
				<desc>無或「不」生</desc>
				<rect x="0" y="517.406" width="141.732" height="22.6772" class="st1"/>
				<text x="6.87" y="533.54" class="st2">無（或「不」）生</text>			</g>
			<g id="shape23-20" transform="translate(8.95284E-13,-314.646)">
				<title>工作表.23</title>
				<desc>無或「不」滅</desc>
				<rect x="0" y="517.406" width="141.732" height="22.6772" class="st1"/>
				<text x="6.87" y="533.54" class="st2">無（或「不」）滅</text>			</g>
			<g id="shape24-23" transform="translate(1.41732,-286.299)">
				<title>工作表.24</title>
				<desc>無依</desc>
				<rect x="0" y="517.406" width="42.5197" height="22.6772" class="st1"/>
				<text x="5.26" y="533.54" class="st2">無依</text>			</g>
			<g id="shape25-26" transform="translate(1.41732,-257.953)">
				<title>工作表.25</title>
				<desc>無性</desc>
				<rect x="0" y="517.406" width="42.5197" height="22.6772" class="st1"/>
				<text x="5.26" y="533.54" class="st2">無性</text>			</g>
			<g id="shape26-29" transform="translate(2.83465,-229.606)">
				<title>工作表.26</title>
				<desc>遠離</desc>
				<rect x="0" y="517.406" width="73.7008" height="22.6772" class="st1"/>
				<text x="4.85" y="533.54" class="st2">（遠）離</text>			</g>
			<g id="shape27-32" transform="translate(2.83465,-201.26)">
				<title>工作表.27</title>
				<desc>清淨</desc>
				<rect x="0" y="517.406" width="73.7008" height="22.6772" class="st1"/>
				<text x="4.85" y="533.54" class="st2">（清）淨</text>			</g>
			<g id="shape28-35" transform="translate(2.83465,-172.913)">
				<title>工作表.28</title>
				<desc>寂滅</desc>
				<rect x="0" y="517.406" width="73.7008" height="22.6772" class="st1"/>
				<text x="4.85" y="533.54" class="st2">（寂）滅</text>			</g>
			<g id="shape29-38" transform="translate(1.67466E-12,-144.567)">
				<title>工作表.29</title>
				<desc>不可得</desc>
				<rect x="0" y="517.406" width="56.6929" height="22.6772" class="st1"/>
				<text x="4.35" y="533.54" class="st2">不可得</text>			</g>
			<g id="shape30-41" transform="translate(1.6307E-12,-116.22)">
				<title>工作表.30</title>
				<desc>不可思議</desc>
				<rect x="0" y="517.406" width="73.7008" height="22.6772" class="st1"/>
				<text x="4.85" y="533.54" class="st2">不可思議</text>			</g>
			<g id="shape31-44" transform="translate(1.89848E-12,-87.874)">
				<title>工作表.31</title>
				<desc>無所有</desc>
				<rect x="0" y="517.406" width="56.6929" height="22.6772" class="st1"/>
				<text x="4.35" y="533.54" class="st2">無所有</text>			</g>
			<g id="shape32-47" transform="translate(1.65867E-12,-59.5276)">
				<title>工作表.32</title>
				<desc>虛誑</desc>
				<rect x="0" y="517.406" width="42.5197" height="22.6772" class="st1"/>
				<text x="5.26" y="533.54" class="st2">虛誑</text>			</g>
			<g id="shape33-50" transform="translate(1.41732,-31.1811)">
				<title>工作表.33</title>
				<desc>不實</desc>
				<rect x="0" y="517.406" width="42.5197" height="22.6772" class="st1"/>
				<text x="5.26" y="533.54" class="st2">不實</text>			</g>
			<g id="shape34-53" transform="translate(2.18625E-12,-2.83465)">
				<title>工作表.34</title>
				<desc>不堅牢</desc>
				<rect x="0" y="517.406" width="56.6929" height="22.6772" class="st1"/>
				<text x="4.35" y="533.54" class="st2">不堅牢</text>			</g>
			<g id="shape35-56" transform="translate(144.567,-484.724)">
				<title>工作表.35</title>
				<desc>1</desc>
				<rect x="0" y="517.406" width="22.6772" height="22.6772" class="st1"/>
				<text x="7.58" y="533.54" class="st2">1</text>			</g>
			<g id="shape36-59" transform="translate(201.26,-87.874)">
				<title>工作表.36</title>
				<desc>2</desc>
				<rect x="0" y="517.406" width="22.6772" height="22.6772" class="st1"/>
				<text x="7.58" y="533.54" class="st2">2</text>			</g>
			<g id="shape40-62" transform="translate(286.299,-87.874)">
				<title>工作表.40</title>
				<desc>6</desc>
				<rect x="0" y="517.406" width="22.6772" height="22.6772" class="st1"/>
				<text x="7.58" y="533.54" class="st2">6</text>			</g>
			<g id="shape14-65" transform="translate(513.071,-513.071)">
				<title>工作表.14</title>
				<desc>N.</desc>
				<rect x="0" y="517.406" width="22.6772" height="22.6772" class="st1"/>
				<text x="4.03" y="533.54" class="st2">N.</text>			</g>
			<g id="shape15-68" transform="translate(541.417,-513.071)">
				<title>工作表.15</title>
				<desc>O.</desc>
				<rect x="0" y="517.406" width="22.6772" height="22.6772" class="st1"/>
				<text x="4.03" y="533.54" class="st2">O.</text>			</g>
			<g id="shape16-71" transform="translate(569.764,-513.071)">
				<title>工作表.16</title>
				<desc>P.</desc>
				<rect x="0" y="517.406" width="22.6772" height="22.6772" class="st1"/>
				<text x="5.28" y="533.54" class="st2">P.</text>			</g>
			<g id="shape42-74" transform="translate(144.567,-513.071)">
				<title>工作表.42</title>
				<desc>A.</desc>
				<rect x="0" y="517.406" width="22.6772" height="22.6772" class="st1"/>
				<text x="4.03" y="533.54" class="st2">A.</text>			</g>
			<g id="shape43-77" transform="translate(172.913,-513.071)">
				<title>工作表.43</title>
				<desc>B.</desc>
				<rect x="0" y="517.406" width="22.6772" height="22.6772" class="st1"/>
				<text x="4.44" y="533.54" class="st2">B.</text>			</g>
			<g id="shape44-80" transform="translate(201.26,-513.071)">
				<title>工作表.44</title>
				<desc>C.</desc>
				<rect x="0" y="517.406" width="22.6772" height="22.6772" class="st1"/>
				<text x="4.44" y="533.54" class="st2">C.</text>			</g>
			<g id="shape45-83" transform="translate(229.606,-513.071)">
				<title>工作表.45</title>
				<desc>D.</desc>
				<rect x="0" y="517.406" width="22.6772" height="22.6772" class="st1"/>
				<text x="4.03" y="533.54" class="st2">D.</text>			</g>
			<g id="shape46-86" transform="translate(257.953,-513.071)">
				<title>工作表.46</title>
				<desc>E.</desc>
				<rect x="0" y="517.406" width="22.6772" height="22.6772" class="st1"/>
				<text x="4.86" y="533.54" class="st2">E.</text>			</g>
			<g id="shape47-89" transform="translate(286.299,-513.071)">
				<title>工作表.47</title>
				<desc>F.</desc>
				<rect x="0" y="517.406" width="22.6772" height="22.6772" class="st1"/>
				<text x="5.28" y="533.54" class="st2">F.</text>			</g>
			<g id="shape48-92" transform="translate(314.646,-513.071)">
				<title>工作表.48</title>
				<desc>G.</desc>
				<rect x="0" y="517.406" width="22.6772" height="22.6772" class="st1"/>
				<text x="4.03" y="533.54" class="st2">G.</text>			</g>
			<g id="shape49-95" transform="translate(342.992,-513.071)">
				<title>工作表.49</title>
				<desc>H.</desc>
				<rect x="0" y="517.406" width="22.6772" height="22.6772" class="st1"/>
				<text x="4.03" y="533.54" class="st2">H.</text>			</g>
			<g id="shape50-98" transform="translate(371.339,-513.071)">
				<title>工作表.50</title>
				<desc>I.</desc>
				<rect x="0" y="517.406" width="22.6772" height="22.6772" class="st1"/>
				<text x="6.95" y="533.54" class="st2">I.</text>			</g>
			<g id="shape51-101" transform="translate(399.685,-513.071)">
				<title>工作表.51</title>
				<desc>J.</desc>
				<rect x="0" y="517.406" width="22.6772" height="22.6772" class="st1"/>
				<text x="6.53" y="533.54" class="st2">J.</text>			</g>
			<g id="shape52-104" transform="translate(428.031,-513.071)">
				<title>工作表.52</title>
				<desc>K.</desc>
				<rect x="0" y="517.406" width="22.6772" height="22.6772" class="st1"/>
				<text x="4.03" y="533.54" class="st2">K.</text>			</g>
			<g id="shape53-107" transform="translate(456.378,-513.071)">
				<title>工作表.53</title>
				<desc>L.</desc>
				<rect x="0" y="517.406" width="22.6772" height="22.6772" class="st1"/>
				<text x="4.86" y="533.54" class="st2">L.</text>			</g>
			<g id="shape54-110" transform="translate(481.89,-510.236)">
				<title>工作表.54</title>
				<desc>M.</desc>
				<rect x="0" y="511.736" width="28.3465" height="28.3465" class="st1"/>
				<text x="5.61" y="530.71" class="st2">M.</text>			</g>
			<g id="shape4-113" transform="translate(-398.35,540.083) rotate(-90)">
				<title>工作表.4</title>
				<path d="M0 540.08 L538.58 540.08" class="st3"/>
			</g>
			<g id="shape5-116" transform="translate(-370.004,540.083) rotate(-90)">
				<title>工作表.5</title>
				<path d="M0 540.08 L538.58 540.08" class="st3"/>
			</g>
			<g id="shape6-119" transform="translate(-341.657,540.083) rotate(-90)">
				<title>工作表.6</title>
				<path d="M0 540.08 L538.58 540.08" class="st3"/>
			</g>
			<g id="shape7-122" transform="translate(-313.311,540.083) rotate(-90)">
				<title>工作表.7</title>
				<path d="M0 540.08 L538.58 540.08" class="st3"/>
			</g>
			<g id="shape8-125" transform="translate(-284.965,540.083) rotate(-90)">
				<title>工作表.8</title>
				<path d="M0 540.08 L538.58 540.08" class="st3"/>
			</g>
			<g id="shape9-128" transform="translate(-256.618,540.083) rotate(-90)">
				<title>工作表.9</title>
				<path d="M0 540.08 L538.58 540.08" class="st3"/>
			</g>
			<g id="shape10-131" transform="translate(-228.272,540.083) rotate(-90)">
				<title>工作表.10</title>
				<path d="M0 540.08 L538.58 540.08" class="st3"/>
			</g>
			<g id="shape11-134" transform="translate(-199.925,540.083) rotate(-90)">
				<title>工作表.11</title>
				<path d="M0 540.08 L538.58 540.08" class="st3"/>
			</g>
			<g id="shape12-137" transform="translate(-171.579,540.083) rotate(-90)">
				<title>工作表.12</title>
				<path d="M0 540.08 L538.58 540.08" class="st3"/>
			</g>
			<g id="shape13-140" transform="translate(-143.232,540.083) rotate(-90)">
				<title>工作表.13</title>
				<path d="M0 540.08 L538.58 540.08" class="st3"/>
			</g>
			<g id="shape55-143" transform="translate(-114.886,540.083) rotate(-90)">
				<title>工作表.55</title>
				<path d="M0 540.08 L538.58 540.08" class="st3"/>
			</g>
			<g id="shape56-146" transform="translate(-86.5394,540.083) rotate(-90)">
				<title>工作表.56</title>
				<path d="M0 540.08 L538.58 540.08" class="st3"/>
			</g>
			<g id="shape57-149" transform="translate(-58.1929,540.083) rotate(-90)">
				<title>工作表.57</title>
				<path d="M0 540.08 L538.58 540.08" class="st3"/>
			</g>
			<g id="shape58-152" transform="translate(-29.8465,540.083) rotate(-90)">
				<title>工作表.58</title>
				<path d="M0 540.08 L538.58 540.08" class="st3"/>
			</g>
			<g id="shape59-155" transform="translate(-1.5,540.083) rotate(-90)">
				<title>工作表.59</title>
				<path d="M0 540.08 L538.58 540.08" class="st3"/>
			</g>
			<g id="shape60-158" transform="translate(26.8465,540.083) rotate(-90)">
				<title>工作表.60</title>
				<path d="M0 540.08 L538.58 540.08" class="st3"/>
			</g>
			<g id="shape61-161" transform="translate(55.1929,540.083) rotate(-90)">
				<title>工作表.61</title>
				<path d="M0 540.08 L538.58 540.08" class="st4"/>
			</g>
			<g id="shape63-164" transform="translate(595.276,569.929) rotate(180)">
				<title>工作表.63</title>
				<path d="M0 540.08 L595.28 540.08" class="st3"/>
			</g>
			<g id="shape64-167" transform="translate(-540.083,540.083) rotate(-90)">
				<title>工作表.64</title>
				<path d="M0 540.08 L538.58 540.08" class="st4"/>
			</g>
			<g id="shape66-170" transform="translate(595.276,541.583) rotate(180)">
				<title>工作表.66</title>
				<path d="M0 540.08 L595.28 540.08" class="st4"/>
			</g>
			<g id="shape68-173" transform="translate(595.276,598.276) rotate(180)">
				<title>工作表.68</title>
				<path d="M0 540.08 L595.28 540.08" class="st3"/>
			</g>
			<g id="shape69-176" transform="translate(595.276,626.622) rotate(180)">
				<title>工作表.69</title>
				<path d="M0 540.08 L595.28 540.08" class="st3"/>
			</g>
			<g id="shape2-179" transform="translate(595.276,654.969) rotate(180)">
				<title>工作表.2</title>
				<path d="M0 540.08 L595.28 540.08" class="st3"/>
			</g>
			<g id="shape3-182" transform="translate(595.276,683.315) rotate(180)">
				<title>工作表.3</title>
				<path d="M0 540.08 L595.28 540.08" class="st3"/>
			</g>
			<g id="shape70-185" transform="translate(595.276,768.354) rotate(180)">
				<title>工作表.70</title>
				<path d="M0 540.08 L595.28 540.08" class="st3"/>
			</g>
			<g id="shape71-188" transform="translate(595.276,796.701) rotate(180)">
				<title>工作表.71</title>
				<path d="M0 540.08 L595.28 540.08" class="st3"/>
			</g>
			<g id="shape72-191" transform="translate(595.276,740.008) rotate(180)">
				<title>工作表.72</title>
				<path d="M0 540.08 L595.28 540.08" class="st3"/>
			</g>
			<g id="shape73-194" transform="translate(595.276,711.661) rotate(180)">
				<title>工作表.73</title>
				<path d="M0 540.08 L595.28 540.08" class="st3"/>
			</g>
			<g id="shape74-197" transform="translate(595.276,825.047) rotate(180)">
				<title>工作表.74</title>
				<path d="M0 540.08 L595.28 540.08" class="st3"/>
			</g>
			<g id="shape75-200" transform="translate(595.276,1080.17) rotate(180)">
				<title>工作表.75</title>
				<path d="M0 540.08 L595.28 540.08" class="st4"/>
			</g>
			<g id="shape76-203" transform="translate(596.693,938.433) rotate(180)">
				<title>工作表.76</title>
				<path d="M0 540.08 L595.28 540.08" class="st3"/>
			</g>
			<g id="shape77-206" transform="translate(595.276,910.087) rotate(180)">
				<title>工作表.77</title>
				<path d="M0 540.08 L595.28 540.08" class="st3"/>
			</g>
			<g id="shape78-209" transform="translate(595.276,881.74) rotate(180)">
				<title>工作表.78</title>
				<path d="M0 540.08 L595.28 540.08" class="st3"/>
			</g>
			<g id="shape79-212" transform="translate(595.276,853.394) rotate(180)">
				<title>工作表.79</title>
				<path d="M0 540.08 L595.28 540.08" class="st3"/>
			</g>
			<g id="shape80-215" transform="translate(595.276,1023.47) rotate(180)">
				<title>工作表.80</title>
				<path d="M0 540.08 L595.28 540.08" class="st3"/>
			</g>
			<g id="shape81-218" transform="translate(595.276,995.126) rotate(180)">
				<title>工作表.81</title>
				<path d="M0 540.08 L595.28 540.08" class="st3"/>
			</g>
			<g id="shape82-221" transform="translate(595.276,966.78) rotate(180)">
				<title>工作表.82</title>
				<path d="M0 540.08 L595.28 540.08" class="st3"/>
			</g>
			<g id="shape83-224" transform="translate(595.276,1051.82) rotate(180)">
				<title>工作表.83</title>
				<path d="M0 540.08 L595.28 540.08" class="st3"/>
			</g>
			<g id="shape1-227" transform="translate(201.26,-484.724)">
				<title>工作表.1</title>
				<desc>1</desc>
				<rect x="0" y="517.406" width="22.6772" height="22.6772" class="st1"/>
				<text x="7.58" y="533.54" class="st2">1</text>			</g>
			<g id="shape85-230" transform="translate(257.953,-484.724)">
				<title>工作表.85</title>
				<desc>1</desc>
				<rect x="0" y="517.406" width="22.6772" height="22.6772" class="st1"/>
				<text x="7.58" y="533.54" class="st2">1</text>			</g>
			<g id="shape86-233" transform="translate(286.299,-484.724)">
				<title>工作表.86</title>
				<desc>1</desc>
				<rect x="0" y="517.406" width="22.6772" height="22.6772" class="st1"/>
				<text x="7.58" y="533.54" class="st2">1</text>			</g>
			<g id="shape87-236" transform="translate(314.646,-484.724)">
				<title>工作表.87</title>
				<desc>1</desc>
				<rect x="0" y="517.406" width="22.6772" height="22.6772" class="st1"/>
				<text x="7.58" y="533.54" class="st2">1</text>			</g>
			<g id="shape88-239" transform="translate(342.992,-484.724)">
				<title>工作表.88</title>
				<desc>1</desc>
				<rect x="0" y="517.406" width="22.6772" height="22.6772" class="st1"/>
				<text x="7.58" y="533.54" class="st2">1</text>			</g>
			<g id="shape89-242" transform="translate(371.339,-484.724)">
				<title>工作表.89</title>
				<desc>2</desc>
				<rect x="0" y="517.406" width="22.6772" height="22.6772" class="st1"/>
				<text x="7.58" y="533.54" class="st2">2</text>			</g>
			<g id="shape90-245" transform="translate(456.378,-484.724)">
				<title>工作表.90</title>
				<desc>1</desc>
				<rect x="0" y="517.406" width="22.6772" height="22.6772" class="st1"/>
				<text x="7.58" y="533.54" class="st2">1</text>			</g>
			<g id="shape91-248" transform="translate(569.764,-484.724)">
				<title>工作表.91</title>
				<desc>1</desc>
				<rect x="0" y="517.406" width="22.6772" height="22.6772" class="st1"/>
				<text x="7.58" y="533.54" class="st2">1</text>			</g>
			<g id="shape92-251" transform="translate(541.417,-484.724)">
				<title>工作表.92</title>
				<desc>1</desc>
				<rect x="0" y="517.406" width="22.6772" height="22.6772" class="st1"/>
				<text x="7.58" y="533.54" class="st2">1</text>			</g>
			<g id="shape93-254" transform="translate(286.299,-456.378)">
				<title>工作表.93</title>
				<desc>2</desc>
				<rect x="0" y="517.406" width="22.6772" height="22.6772" class="st1"/>
				<text x="7.58" y="533.54" class="st2">2</text>			</g>
			<g id="shape94-257" transform="translate(314.646,-456.378)">
				<title>工作表.94</title>
				<desc>2</desc>
				<rect x="0" y="517.406" width="22.6772" height="22.6772" class="st1"/>
				<text x="7.58" y="533.54" class="st2">2</text>			</g>
			<g id="shape95-260" transform="translate(257.953,-456.378)">
				<title>工作表.95</title>
				<desc>2</desc>
				<rect x="0" y="517.406" width="22.6772" height="22.6772" class="st1"/>
				<text x="7.58" y="533.54" class="st2">2</text>			</g>
			<g id="shape96-263" transform="translate(342.992,-456.378)">
				<title>工作表.96</title>
				<desc>2</desc>
				<rect x="0" y="517.406" width="22.6772" height="22.6772" class="st1"/>
				<text x="7.58" y="533.54" class="st2">2</text>			</g>
			<g id="shape97-266" transform="translate(172.913,-87.874)">
				<title>工作表.97</title>
				<desc>1</desc>
				<rect x="0" y="517.406" width="22.6772" height="22.6772" class="st1"/>
				<text x="7.58" y="533.54" class="st2">1</text>			</g>
			<g id="shape98-269" transform="translate(257.953,-428.031)">
				<title>工作表.98</title>
				<desc>3</desc>
				<rect x="0" y="517.406" width="22.6772" height="22.6772" class="st1"/>
				<text x="7.58" y="533.54" class="st2">3</text>			</g>
			<g id="shape99-272" transform="translate(342.992,-428.031)">
				<title>工作表.99</title>
				<desc>3</desc>
				<rect x="0" y="517.406" width="22.6772" height="22.6772" class="st1"/>
				<text x="7.58" y="533.54" class="st2">3</text>			</g>
			<g id="shape100-275" transform="translate(314.646,-428.031)">
				<title>工作表.100</title>
				<desc>3</desc>
				<rect x="0" y="517.406" width="22.6772" height="22.6772" class="st1"/>
				<text x="7.58" y="533.54" class="st2">3</text>			</g>
			<g id="shape101-278" transform="translate(286.299,-428.031)">
				<title>工作表.101</title>
				<desc>3</desc>
				<rect x="0" y="517.406" width="22.6772" height="22.6772" class="st1"/>
				<text x="7.58" y="533.54" class="st2">3</text>			</g>
			<g id="shape102-281" transform="translate(342.992,-399.685)">
				<title>工作表.102</title>
				<desc>4</desc>
				<rect x="0" y="517.406" width="22.6772" height="22.6772" class="st1"/>
				<text x="7.58" y="533.54" class="st2">4</text>			</g>
			<g id="shape103-284" transform="translate(314.646,-399.685)">
				<title>工作表.103</title>
				<desc>4</desc>
				<rect x="0" y="517.406" width="22.6772" height="22.6772" class="st1"/>
				<text x="7.58" y="533.54" class="st2">4</text>			</g>
			<g id="shape104-287" transform="translate(286.299,-399.685)">
				<title>工作表.104</title>
				<desc>4</desc>
				<rect x="0" y="517.406" width="22.6772" height="22.6772" class="st1"/>
				<text x="7.58" y="533.54" class="st2">4</text>			</g>
			<g id="shape105-290" transform="translate(513.071,-371.339)">
				<title>工作表.105</title>
				<desc>1</desc>
				<rect x="0" y="517.406" width="22.6772" height="22.6772" class="st1"/>
				<text x="7.58" y="533.54" class="st2">1</text>			</g>
			<g id="shape108-293" transform="translate(342.992,-342.992)">
				<title>工作表.108</title>
				<desc>5</desc>
				<rect x="0" y="517.406" width="22.6772" height="22.6772" class="st1"/>
				<text x="7.58" y="533.54" class="st2">5</text>			</g>
			<g id="shape109-296" transform="translate(314.646,-342.992)">
				<title>工作表.109</title>
				<desc>5</desc>
				<rect x="0" y="517.406" width="22.6772" height="22.6772" class="st1"/>
				<text x="7.58" y="533.54" class="st2">5</text>			</g>
			<g id="shape110-299" transform="translate(286.299,-342.992)">
				<title>工作表.110</title>
				<desc>5</desc>
				<rect x="0" y="517.406" width="22.6772" height="22.6772" class="st1"/>
				<text x="7.58" y="533.54" class="st2">5</text>			</g>
			<g id="shape106-302" transform="translate(371.339,-342.992)">
				<title>工作表.106</title>
				<desc>1</desc>
				<rect x="0" y="517.406" width="22.6772" height="22.6772" class="st1"/>
				<text x="7.58" y="533.54" class="st2">1</text>			</g>
			<g id="shape111-305" transform="translate(399.685,-342.992)">
				<title>工作表.111</title>
				<desc>1</desc>
				<rect x="0" y="517.406" width="22.6772" height="22.6772" class="st1"/>
				<text x="7.58" y="533.54" class="st2">1</text>			</g>
			<g id="shape112-308" transform="translate(513.071,-342.992)">
				<title>工作表.112</title>
				<desc>2</desc>
				<rect x="0" y="517.406" width="22.6772" height="22.6772" class="st1"/>
				<text x="7.58" y="533.54" class="st2">2</text>			</g>
			<g id="shape113-311" transform="translate(484.724,-342.992)">
				<title>工作表.113</title>
				<desc>3</desc>
				<rect x="0" y="517.406" width="22.6772" height="22.6772" class="st1"/>
				<text x="7.58" y="533.54" class="st2">3</text>			</g>
			<g id="shape114-314" transform="translate(314.646,-314.646)">
				<title>工作表.114</title>
				<desc>6</desc>
				<rect x="0" y="517.406" width="22.6772" height="22.6772" class="st1"/>
				<text x="7.58" y="533.54" class="st2">6</text>			</g>
			<g id="shape115-317" transform="translate(314.646,-286.299)">
				<title>工作表.115</title>
				<desc>7</desc>
				<rect x="0" y="517.406" width="22.6772" height="22.6772" class="st1"/>
				<text x="7.58" y="533.54" class="st2">7</text>			</g>
			<g id="shape116-320" transform="translate(399.685,-314.646)">
				<title>工作表.116</title>
				<desc>4</desc>
				<rect x="0" y="517.406" width="22.6772" height="22.6772" class="st1"/>
				<text x="7.58" y="533.54" class="st2">4</text>			</g>
			<g id="shape117-323" transform="translate(541.417,-286.299)">
				<title>工作表.117</title>
				<desc>2</desc>
				<rect x="0" y="517.406" width="22.6772" height="22.6772" class="st1"/>
				<text x="7.58" y="533.54" class="st2">2</text>			</g>
			<g id="shape118-326" transform="translate(399.685,-257.953)">
				<title>工作表.118</title>
				<desc>2</desc>
				<rect x="0" y="517.406" width="22.6772" height="22.6772" class="st1"/>
				<text x="7.58" y="533.54" class="st2">2</text>			</g>
			<g id="shape119-329" transform="translate(428.031,-257.953)">
				<title>工作表.119</title>
				<desc>1</desc>
				<rect x="0" y="517.406" width="22.6772" height="22.6772" class="st1"/>
				<text x="7.58" y="533.54" class="st2">1</text>			</g>
			<g id="shape120-332" transform="translate(399.685,-229.606)">
				<title>工作表.120</title>
				<desc>3</desc>
				<rect x="0" y="517.406" width="22.6772" height="22.6772" class="st1"/>
				<text x="7.58" y="533.54" class="st2">3</text>			</g>
			<g id="shape121-335" transform="translate(513.071,-229.606)">
				<title>工作表.121</title>
				<desc>3</desc>
				<rect x="0" y="517.406" width="22.6772" height="22.6772" class="st1"/>
				<text x="7.58" y="533.54" class="st2">3</text>			</g>
			<g id="shape122-338" transform="translate(428.031,-229.606)">
				<title>工作表.122</title>
				<desc>2</desc>
				<rect x="0" y="517.406" width="22.6772" height="22.6772" class="st1"/>
				<text x="7.58" y="533.54" class="st2">2</text>			</g>
			<g id="shape123-341" transform="translate(456.378,-229.606)">
				<title>工作表.123</title>
				<desc>2</desc>
				<rect x="0" y="517.406" width="22.6772" height="22.6772" class="st1"/>
				<text x="7.58" y="533.54" class="st2">2</text>			</g>
			<g id="shape124-344" transform="translate(484.724,-229.606)">
				<title>工作表.124</title>
				<desc>2</desc>
				<rect x="0" y="517.406" width="22.6772" height="22.6772" class="st1"/>
				<text x="7.58" y="533.54" class="st2">2</text>			</g>
			<g id="shape125-347" transform="translate(456.378,-201.26)">
				<title>工作表.125</title>
				<desc>3</desc>
				<rect x="0" y="517.406" width="22.6772" height="22.6772" class="st1"/>
				<text x="7.58" y="533.54" class="st2">3</text>			</g>
			<g id="shape126-350" transform="translate(371.339,-172.913)">
				<title>工作表.126</title>
				<desc>3</desc>
				<rect x="0" y="517.406" width="22.6772" height="22.6772" class="st1"/>
				<text x="7.58" y="533.54" class="st2">3</text>			</g>
			<g id="shape127-353" transform="translate(456.378,-172.913)">
				<title>工作表.127</title>
				<desc>4</desc>
				<rect x="0" y="517.406" width="22.6772" height="22.6772" class="st1"/>
				<text x="7.58" y="533.54" class="st2">4</text>			</g>
			<g id="shape128-356" transform="translate(513.071,-172.913)">
				<title>工作表.128</title>
				<desc>4</desc>
				<rect x="0" y="517.406" width="22.6772" height="22.6772" class="st1"/>
				<text x="7.58" y="533.54" class="st2">4</text>			</g>
			<g id="shape129-359" transform="translate(428.031,-144.567)">
				<title>工作表.129</title>
				<desc>3</desc>
				<rect x="0" y="517.406" width="22.6772" height="22.6772" class="st1"/>
				<text x="7.58" y="533.54" class="st2">3</text>			</g>
			<g id="shape130-362" transform="translate(229.606,-144.567)">
				<title>工作表.130</title>
				<desc>2</desc>
				<rect x="0" y="517.406" width="22.6772" height="22.6772" class="st1"/>
				<text x="7.58" y="533.54" class="st2">2</text>			</g>
			<g id="shape131-365" transform="translate(399.685,-116.22)">
				<title>工作表.131</title>
				<desc>5</desc>
				<rect x="0" y="517.406" width="22.6772" height="22.6772" class="st1"/>
				<text x="7.58" y="533.54" class="st2">5</text>			</g>
			<g id="shape132-368" transform="translate(229.606,-87.874)">
				<title>工作表.132</title>
				<desc>1</desc>
				<rect x="0" y="517.406" width="22.6772" height="22.6772" class="st1"/>
				<text x="7.58" y="533.54" class="st2">1</text>			</g>
			<g id="shape107-371" transform="translate(342.992,-87.874)">
				<title>工作表.107</title>
				<desc>6</desc>
				<rect x="0" y="517.406" width="22.6772" height="22.6772" class="st1"/>
				<text x="7.58" y="533.54" class="st2">6</text>			</g>
			<g id="shape133-374" transform="translate(484.724,-87.874)">
				<title>工作表.133</title>
				<desc>1</desc>
				<rect x="0" y="517.406" width="22.6772" height="22.6772" class="st1"/>
				<text x="7.58" y="533.54" class="st2">1</text>			</g>
			<g id="shape134-377" transform="translate(569.764,-87.874)">
				<title>工作表.134</title>
				<desc>2</desc>
				<rect x="0" y="517.406" width="22.6772" height="22.6772" class="st1"/>
				<text x="7.58" y="533.54" class="st2">2</text>			</g>
			<g id="shape135-380" transform="translate(569.764,-59.5276)">
				<title>工作表.135</title>
				<desc>3</desc>
				<rect x="0" y="517.406" width="22.6772" height="22.6772" class="st1"/>
				<text x="7.58" y="533.54" class="st2">3</text>			</g>
			<g id="shape136-383" transform="translate(569.764,-31.1811)">
				<title>工作表.136</title>
				<desc>4</desc>
				<rect x="0" y="517.406" width="22.6772" height="22.6772" class="st1"/>
				<text x="7.58" y="533.54" class="st2">4</text>			</g>
			<g id="shape137-386" transform="translate(569.764,-2.83465)">
				<title>工作表.137</title>
				<desc>5</desc>
				<rect x="0" y="517.406" width="22.6772" height="22.6772" class="st1"/>
				<text x="7.58" y="533.54" class="st2">5</text>			</g>
			<g id="shape37-389" transform="translate(35.4331,-429.449)">
				<title>工作表.37</title>
				<desc>願</desc>
				<rect x="0" y="517.406" width="22.6772" height="22.6772" class="st1"/>
				<text x="6.34" y="531.74" class="st5">願</text>			</g>
			<g id="shape38-392" transform="translate(63.7795,-174.331)">
				<title>工作表.38</title>
				<desc>寂靜</desc>
				<rect x="0" y="517.406" width="42.5197" height="22.6772" class="st1"/>
				<text x="11.26" y="531.74" class="st5">寂靜</text>			</g>
			<g id="shape39-395" transform="translate(28.3465,-60.9449)">
				<title>工作表.39</title>
				<desc>虛妄</desc>
				<rect x="0" y="517.406" width="42.5197" height="22.6772" class="st1"/>
				<text x="11.26" y="531.74" class="st5">虛妄</text>			</g>
		</g>
	</g>
</svg>
