<?xml version="1.0" encoding="UTF-8" standalone="no"?>
<!DOCTYPE svg PUBLIC "-//W3C//DTD SVG 1.1//EN" "http://www.w3.org/Graphics/SVG/1.1/DTD/svg11.dtd">
<!-- 由 Microsoft Visio, SVG Export 產生 y38.0235.svg 頁-1 -->
<svg xmlns="http://www.w3.org/2000/svg" xmlns:xlink="http://www.w3.org/1999/xlink" xmlns:ev="http://www.w3.org/2001/xml-events"
		width="9.46271in" height="1.98239in" viewBox="0 0 681.315 142.732" xml:space="preserve" color-interpolation-filters="sRGB"
		class="st5">
	<style type="text/css">
	<![CDATA[
		.st1 {fill:none;stroke:none;stroke-linecap:round;stroke-linejoin:round;stroke-width:0.75}
		.st2 {fill:#000000;font-family:新細明體;font-size:1.33333em}
		.st3 {font-size:1em}
		.st4 {stroke:#000000;stroke-linecap:round;stroke-linejoin:round;stroke-width:1}
		.st5 {fill:none;fill-rule:evenodd;font-size:12px;overflow:visible;stroke-linecap:square;stroke-miterlimit:3}
	]]>
	</style>

	<g>
		<title>頁-1</title>
		<g id="group34-1" transform="translate(0.5,-0.5)">
			<title>工作表.34</title>
			<g id="shape1-2" transform="translate(45.3543,-116.22)">
				<title>工作表.1</title>
				<desc>A</desc>
				<rect x="0" y="120.055" width="22.6772" height="22.6772" class="st1"/>
				<text x="5.92" y="136.19" class="st2">A</text>			</g>
			<g id="shape2-5" transform="translate(158.74,-116.22)">
				<title>工作表.2</title>
				<desc>B</desc>
				<rect x="0" y="120.055" width="22.6772" height="22.6772" class="st1"/>
				<text x="6.32" y="136.19" class="st2">B</text>			</g>
			<g id="shape3-8" transform="translate(272.126,-116.22)">
				<title>工作表.3</title>
				<desc>C</desc>
				<rect x="0" y="120.055" width="22.6772" height="22.6772" class="st1"/>
				<text x="6.32" y="136.19" class="st2">C</text>			</g>
			<g id="shape4-11" transform="translate(385.512,-116.22)">
				<title>工作表.4</title>
				<desc>D</desc>
				<rect x="0" y="120.055" width="22.6772" height="22.6772" class="st1"/>
				<text x="5.92" y="136.19" class="st2">D</text>			</g>
			<g id="shape5-14" transform="translate(498.898,-116.22)">
				<title>工作表.5</title>
				<desc>E</desc>
				<rect x="0" y="120.055" width="22.6772" height="22.6772" class="st1"/>
				<text x="6.74" y="136.19" class="st2">E</text>			</g>
			<g id="shape6-17" transform="translate(612.283,-116.22)">
				<title>工作表.6</title>
				<desc>F</desc>
				<rect x="0" y="120.055" width="22.6772" height="22.6772" class="st1"/>
				<text x="7.16" y="136.19" class="st2">F</text>			</g>
			<g id="shape7-20" transform="translate(19.8425,-87.874)">
				<title>工作表.7</title>
				<desc>名假施設</desc>
				<rect x="0" y="120.055" width="73.7008" height="22.6772" class="st1"/>
				<text x="4.85" y="136.19" class="st2">名假施設</text>			</g>
			<g id="shape8-23" transform="translate(19.8425,-59.5276)">
				<title>工作表.8</title>
				<desc>受假施設</desc>
				<rect x="0" y="120.055" width="73.7008" height="22.6772" class="st1"/>
				<text x="4.85" y="136.19" class="st2">受假施設</text>			</g>
			<g id="shape9-26" transform="translate(19.8425,-31.1811)">
				<title>工作表.9</title>
				<desc>法假施設</desc>
				<rect x="0" y="120.055" width="73.7008" height="22.6772" class="st1"/>
				<text x="4.85" y="136.19" class="st2">法假施設</text>			</g>
			<g id="shape10-29" transform="translate(141.732,-87.874)">
				<title>工作表.10</title>
				<desc>名　假</desc>
				<rect x="0" y="120.055" width="56.6929" height="22.6772" class="st1"/>
				<text x="4.35" y="136.19" class="st2">名　假</text>			</g>
			<g id="shape11-32" transform="translate(141.732,-31.1811)">
				<title>工作表.11</title>
				<desc>法　假</desc>
				<rect x="0" y="120.055" width="56.6929" height="22.6772" class="st1"/>
				<text x="4.35" y="136.19" class="st2">法　假</text>			</g>
			<g id="shape12-35" transform="translate(141.732,-2.83465)">
				<title>工作表.12</title>
				<desc>教授假</desc>
				<rect x="0" y="120.055" width="56.6929" height="22.6772" class="st1"/>
				<text x="4.35" y="136.19" class="st2">教授假</text>			</g>
			<g id="shape13-38" transform="translate(255.118,-87.874)">
				<title>工作表.13</title>
				<desc>名　假</desc>
				<rect x="0" y="120.055" width="56.6929" height="22.6772" class="st1"/>
				<text x="4.35" y="136.19" class="st2">名　假</text>			</g>
			<g id="shape15-41" transform="translate(255.118,-2.83465)">
				<title>工作表.15</title>
				<desc>方便假</desc>
				<rect x="0" y="120.055" width="56.6929" height="22.6772" class="st1"/>
				<text x="4.35" y="136.19" class="st2">方便假</text>			</g>
			<g id="shape16-44" transform="translate(368.504,-87.874)">
				<title>工作表.16</title>
				<desc>字　法</desc>
				<rect x="0" y="120.055" width="56.6929" height="22.6772" class="st1"/>
				<text x="4.35" y="136.19" class="st2">字　法</text>			</g>
			<g id="shape17-47" transform="translate(368.504,-31.1811)">
				<title>工作表.17</title>
				<desc>合　法</desc>
				<rect x="0" y="120.055" width="56.6929" height="22.6772" class="st1"/>
				<text x="4.35" y="136.19" class="st2">合　法</text>			</g>
			<g id="shape18-50" transform="translate(368.504,-2.83465)">
				<title>工作表.18</title>
				<desc>權　法</desc>
				<rect x="0" y="120.055" width="56.6929" height="22.6772" class="st1"/>
				<text x="4.35" y="136.19" class="st2">權　法</text>			</g>
			<g id="shape19-53" transform="translate(473.386,-34.0157)">
				<title>工作表.19</title>
				<desc>因緣合會 而假虛號</desc>
				<rect x="0" y="69.0315" width="73.7008" height="73.7008" class="st1"/>
				<text x="0.25em 1.285em 2.321em 3.356em" y="101.08" class="st2">因緣合會 <tspan x="0.25em 1.285em 2.321em 3.356em"
							dy="1.2em" class="st3">而假虛號</tspan></text>			</g>
			<g id="shape20-57" transform="translate(473.386,-31.1811)">
				<title>工作表.20</title>
				<desc>所號法</desc>
				<rect x="0" y="120.055" width="73.7008" height="22.6772" class="st1"/>
				<text x="0.25em 1.803em 3.356em" y="136.19" class="st2">所號法</text>			</g>
			<g id="shape21-60" transform="translate(473.386,-2.83465)">
				<title>工作表.21</title>
				<desc>所號善權</desc>
				<rect x="0" y="120.055" width="73.7008" height="22.6772" class="st1"/>
				<text x="0.25em 1.285em 2.321em 3.356em" y="136.19" class="st2">所號善權</text>			</g>
			<g id="shape22-63" transform="translate(595.276,-87.874)">
				<title>工作表.22</title>
				<desc>名　假</desc>
				<rect x="0" y="120.055" width="56.6929" height="22.6772" class="st1"/>
				<text x="4.35" y="136.19" class="st2">名　假</text>			</g>
			<g id="shape23-66" transform="translate(595.276,-31.1811)">
				<title>工作表.23</title>
				<desc>法　假</desc>
				<rect x="0" y="120.055" width="56.6929" height="22.6772" class="st1"/>
				<text x="4.35" y="136.19" class="st2">法　假</text>			</g>
			<g id="shape24-69" transform="translate(255.118,-31.1811)">
				<title>工作表.24</title>
				<desc>法　假</desc>
				<rect x="0" y="120.055" width="56.6929" height="22.6772" class="st1"/>
				<text x="4.35" y="136.19" class="st2">法　假</text>			</g>
			<g id="shape14-72" transform="translate(-142.732,142.732) rotate(-90)">
				<title>工作表.14</title>
				<path d="M0 142.73 L141.73 142.73" class="st4"/>
			</g>
			<g id="shape25-75" transform="translate(-29.3465,142.732) rotate(-90)">
				<title>工作表.25</title>
				<path d="M0 142.73 L141.73 142.73" class="st4"/>
			</g>
			<g id="shape26-78" transform="translate(84.0394,142.732) rotate(-90)">
				<title>工作表.26</title>
				<path d="M0 142.73 L141.73 142.73" class="st4"/>
			</g>
			<g id="shape27-81" transform="translate(197.425,142.732) rotate(-90)">
				<title>工作表.27</title>
				<path d="M0 142.73 L141.73 142.73" class="st4"/>
			</g>
			<g id="shape28-84" transform="translate(310.811,142.732) rotate(-90)">
				<title>工作表.28</title>
				<path d="M0 142.73 L141.73 142.73" class="st4"/>
			</g>
			<g id="shape29-87" transform="translate(424.197,142.732) rotate(-90)">
				<title>工作表.29</title>
				<path d="M0 142.73 L141.73 142.73" class="st4"/>
			</g>
			<g id="shape30-90" transform="translate(537.583,142.732) rotate(-90)">
				<title>工作表.30</title>
				<path d="M0 142.73 L141.73 142.73" class="st4"/>
			</g>
			<g id="shape31-93" transform="translate(0,-141.732)">
				<title>工作表.31</title>
				<path d="M0 142.73 L680.31 142.73" class="st4"/>
			</g>
			<g id="shape32-96" transform="translate(1.91847E-13,-113.386)">
				<title>工作表.32</title>
				<path d="M0 142.73 L680.31 142.73" class="st4"/>
			</g>
			<g id="shape33-99">
				<title>工作表.33</title>
				<path d="M0 142.73 L680.31 142.73" class="st4"/>
			</g>
		</g>
	</g>
</svg>
