<?xml version="1.0" encoding="UTF-8" standalone="no"?>
<!DOCTYPE svg PUBLIC "-//W3C//DTD SVG 1.1//EN" "http://www.w3.org/Graphics/SVG/1.1/DTD/svg11.dtd">
<!-- 由 Microsoft Visio, SVG Export 產生 y38.0065-h.svg 頁-1 -->
<svg xmlns="http://www.w3.org/2000/svg" xmlns:xlink="http://www.w3.org/1999/xlink" xmlns:ev="http://www.w3.org/2001/xml-events"
		width="3.23089in" height="1.34113in" viewBox="0 0 232.624 96.561" xml:space="preserve" color-interpolation-filters="sRGB"
		class="st3">
	<style type="text/css">
	<![CDATA[
		.st1 {fill:none;stroke:none;stroke-linecap:round;stroke-linejoin:round;stroke-width:0.75}
		.st2 {fill:#000000;font-family:新細明體;font-size:1.33333em}
		.st3 {fill:none;fill-rule:evenodd;font-size:12px;overflow:visible;stroke-linecap:square;stroke-miterlimit:3}
	]]>
	</style>

	<g>
		<title>頁-1</title>
		<g id="group10-1" transform="translate(0.375,-0.375)">
			<title>工作表.10</title>
			<g id="shape1-2" transform="translate(159.874,-36.5669)">
				<title>工作表.1</title>
				<desc>諸行無常</desc>
				<rect x="0" y="73.8839" width="72" height="22.6772" class="st1"/>
				<text x="4" y="90.02" class="st2">諸行無常</text>			</g>
			<g id="shape2-5" transform="translate(-2.39808E-14,-73.1339)">
				<title>工作表.2</title>
				<desc>空　</desc>
				<rect x="0" y="73.8839" width="40.252" height="22.6772" class="st1"/>
				<text x="4" y="90.02" class="st2">空</text>			</g>
			<g id="shape3-8" transform="translate(79.937,-73.1339)">
				<title>工作表.3</title>
				<desc>空　</desc>
				<rect x="0" y="73.8839" width="40.252" height="22.6772" class="st1"/>
				<text x="4" y="90.02" class="st2">空</text>			</g>
			<g id="shape4-11" transform="translate(159.874,-73.1339)">
				<title>工作表.4</title>
				<desc>諸法無我</desc>
				<rect x="0" y="73.8839" width="72" height="22.6772" class="st1"/>
				<text x="4" y="90.02" class="st2">諸法無我</text>			</g>
			<g id="shape5-14" transform="translate(159.874,-5.96856E-13)">
				<title>工作表.5</title>
				<desc>涅槃寂靜</desc>
				<rect x="0" y="73.8839" width="72" height="22.6772" class="st1"/>
				<text x="4" y="90.02" class="st2">涅槃寂靜</text>			</g>
			<g id="shape6-17" transform="translate(7.19425E-14,-36.5669)">
				<title>工作表.6</title>
				<desc>無所有</desc>
				<rect x="0" y="73.8839" width="56.126" height="22.6772" class="st1"/>
				<text x="4" y="90.02" class="st2">無所有</text>			</g>
			<g id="shape7-20">
				<title>工作表.7</title>
				<desc>無相</desc>
				<rect x="0" y="73.8839" width="40.252" height="22.6772" class="st1"/>
				<text x="4" y="90.02" class="st2">無相</text>			</g>
			<g id="shape8-23" transform="translate(79.937,-36.5669)">
				<title>工作表.8</title>
				<desc>無願</desc>
				<rect x="0" y="73.8839" width="40.252" height="22.6772" class="st1"/>
				<text x="4" y="90.02" class="st2">無願</text>			</g>
			<g id="shape9-26" transform="translate(79.937,-2.13163E-13)">
				<title>工作表.9</title>
				<desc>無相</desc>
				<rect x="0" y="73.8839" width="40.252" height="22.6772" class="st1"/>
				<text x="4" y="90.02" class="st2">無相</text>			</g>
		</g>
	</g>
</svg>
