<?xml version="1.0" encoding="UTF-8" standalone="no"?>
<!DOCTYPE svg PUBLIC "-//W3C//DTD SVG 1.1//EN" "http://www.w3.org/Graphics/SVG/1.1/DTD/svg11.dtd">
<!-- 由 Microsoft Visio, SVG Export 產生 y38.0257-h.svg 頁-1 -->
<svg xmlns="http://www.w3.org/2000/svg" xmlns:xlink="http://www.w3.org/1999/xlink" xmlns:ev="http://www.w3.org/2001/xml-events"
		width="4.87262in" height="2.56947in" viewBox="0 0 350.829 185.002" xml:space="preserve" color-interpolation-filters="sRGB"
		class="st5">
	<style type="text/css">
	<![CDATA[
		.st1 {fill:none;stroke:none;stroke-linecap:round;stroke-linejoin:round;stroke-width:0.75}
		.st2 {fill:#000000;font-family:新細明體;font-size:1.33333em}
		.st3 {stroke:#000000;stroke-linecap:round;stroke-linejoin:round;stroke-width:1}
		.st4 {stroke:#000000;stroke-dasharray:0,4.5;stroke-linecap:round;stroke-linejoin:round;stroke-width:1.5}
		.st5 {fill:none;fill-rule:evenodd;font-size:12px;overflow:visible;stroke-linecap:square;stroke-miterlimit:3}
	]]>
	</style>

	<g>
		<title>頁-1</title>
		<g id="group12-1" transform="translate(0.375,-0.375)">
			<title>工作表.12</title>
			<g id="shape1-2" transform="translate(-1.59872E-14,-80.7874)">
				<title>工作表.1</title>
				<desc>緣起法</desc>
				<rect x="0" y="162.325" width="56.6929" height="22.6772" class="st1"/>
				<text x="4.35" y="178.46" class="st2">緣起法</text>			</g>
			<g id="shape2-5" transform="translate(127.559,-161.575)">
				<title>工作表.2</title>
				<desc>自性空</desc>
				<rect x="0" y="162.325" width="56.6929" height="22.6772" class="st1"/>
				<text x="4.35" y="178.46" class="st2">自性空</text>			</g>
			<g id="shape3-8" transform="translate(110.551,-80.7874)">
				<title>工作表.3</title>
				<desc>無自性</desc>
				<rect x="0" y="162.325" width="90.7087" height="22.6772" class="st1"/>
				<text x="5.35" y="178.46" class="st2">（無自性）</text>			</g>
			<g id="shape4-11" transform="translate(127.559,0)">
				<title>工作表.4</title>
				<desc>假名有</desc>
				<rect x="0" y="162.325" width="56.6929" height="22.6772" class="st1"/>
				<text x="4.35" y="178.46" class="st2">假名有</text>			</g>
			<g id="shape5-14" transform="translate(245.197,-80.7874)">
				<title>工作表.5</title>
				<desc>八不中道</desc>
				<rect x="0" y="162.325" width="104.882" height="22.6772" class="st1"/>
				<text x="4.44" y="178.46" class="st2">（八不）中道</text>			</g>
			<g id="shape6-17" transform="translate(-82.384,-29.1213) rotate(-48.743)">
				<title>工作表.6</title>
				<path d="M0 185 L107.46 185" class="st3"/>
			</g>
			<g id="shape7-20" transform="translate(46.4411,50.4214) rotate(-48.8141)">
				<title>工作表.7</title>
				<path d="M0 185 L105.46 185" class="st3"/>
			</g>
			<g id="shape8-23" transform="translate(323.329,-109.909) rotate(48.743)">
				<title>工作表.8</title>
				<path d="M0 185 L107.46 185" class="st3"/>
			</g>
			<g id="shape9-26" transform="translate(195.921,-28.9487) rotate(48.8141)">
				<title>工作表.9</title>
				<path d="M0 185 L105.46 185" class="st3"/>
			</g>
			<g id="shape10-29" transform="translate(56.6929,-92.126)">
				<title>工作表.10</title>
				<path d="M0 185 L66.61 185" class="st4"/>
			</g>
			<g id="shape11-32" transform="translate(188.504,-92.126)">
				<title>工作表.11</title>
				<path d="M0 185 L66.61 185" class="st4"/>
			</g>
		</g>
	</g>
</svg>
