<?xml version="1.0" encoding="UTF-8" standalone="no"?>
<!DOCTYPE svg PUBLIC "-//W3C//DTD SVG 1.0//EN" "http://www.w3.org/TR/2001/REC-SVG-20010904/DTD/svg10.dtd">
<!-- 由 Microsoft Visio 11.0, SVG Export, v1.0 產生 y38.0161.svg Page-1 -->
<svg xmlns="http://www.w3.org/2000/svg" xmlns:xlink="http://www.w3.org/1999/xlink" xmlns:ev="http://www.w3.org/2001/xml-events"
		xmlns:v="http://schemas.microsoft.com/visio/2003/SVGExtensions/" width="7.22069in" height="9.61879in"
		viewBox="0 0 519.89 692.553" xml:space="preserve" color-interpolation-filters="sRGB" class="st5">
	<v:documentProperties v:langID="1028" v:metric="true" v:viewMarkup="false">
		<v:userDefs>
			<v:ud v:nameU="msvSubprocessMaster" v:prompt="" v:val="VT4(Box)"/>
			<v:ud v:nameU="msvNoAutoConnect" v:val="VT0(1):26"/>
		</v:userDefs>
	</v:documentProperties>

	<style type="text/css">
	<![CDATA[
		.st1 {fill:none;stroke:none;stroke-linecap:round;stroke-linejoin:round;stroke-width:0.75}
		.st2 {fill:#000000;font-family:新細明體;font-size:1.33333em}
		.st3 {stroke:#000000;stroke-linecap:round;stroke-linejoin:round;stroke-width:1}
		.st4 {stroke:#ffffff;stroke-linecap:round;stroke-linejoin:round;stroke-opacity:0;stroke-width:1}
		.st5 {fill:none;fill-rule:evenodd;font-size:12px;overflow:visible;stroke-linecap:square;stroke-miterlimit:3}
	]]>
	</style>

	<g v:mID="0" v:index="1" v:groupContext="foregroundPage">
		<title>頁-1</title>
		<v:pageProperties v:drawingScale="0.0393701" v:pageScale="0.0393701" v:drawingUnits="24" v:shadowOffsetX="8.50394"
				v:shadowOffsetY="-8.50394"/>
		<g id="group33-1" transform="translate(-191.663,673.803) rotate(-90)" v:mID="33" v:groupContext="group">
			<title>工作表.33</title>
			<g id="shape1-2" v:mID="1" v:groupContext="shape" transform="translate(1276.49,253.183) rotate(90)">
				<title>工作表.1</title>
				<desc>十四空</desc>
				<v:textBlock v:margins="rect(4,4,4,4)" v:tabSpace="42.5197"/>
				<v:textRect cx="28.3465" cy="664.207" width="56.7" height="56.6929"/>
				<rect x="0" y="635.86" width="56.6929" height="56.6929" class="st1"/>
				<text x="4.35" y="669.01" class="st2" v:langID="1028"><v:paragraph v:horizAlign="1"/><v:tabList/>十四空</text>			</g>
			<g id="shape2-5" v:mID="2" v:groupContext="shape" transform="translate(1276.49,366.569) rotate(90)">
				<title>工作表.2</title>
				<desc>十六空</desc>
				<v:textBlock v:margins="rect(4,4,4,4)" v:tabSpace="42.5197"/>
				<v:textRect cx="28.3465" cy="664.207" width="56.7" height="56.6929"/>
				<rect x="0" y="635.86" width="56.6929" height="56.6929" class="st1"/>
				<text x="4.35" y="669.01" class="st2" v:langID="1028"><v:paragraph v:horizAlign="1"/><v:tabList/>十六空</text>			</g>
			<g id="shape3-8" v:mID="3" v:groupContext="shape" transform="translate(1276.49,479.955) rotate(90)">
				<title>工作表.3</title>
				<desc>十八空</desc>
				<v:textBlock v:margins="rect(4,4,4,4)" v:tabSpace="42.5197"/>
				<v:textRect cx="28.3465" cy="664.207" width="56.7" height="56.6929"/>
				<rect x="0" y="635.86" width="56.6929" height="56.6929" class="st1"/>
				<text x="4.35" y="669.01" class="st2" v:langID="1028"><v:paragraph v:horizAlign="1"/><v:tabList/>十八空</text>			</g>
			<g id="shape4-11" v:mID="4" v:groupContext="shape" transform="translate(1276.49,593.341) rotate(90)">
				<title>工作表.4</title>
				<desc>二十空</desc>
				<v:textBlock v:margins="rect(4,4,4,4)" v:tabSpace="42.5197"/>
				<v:textRect cx="28.3465" cy="664.207" width="56.7" height="56.6929"/>
				<rect x="0" y="635.86" width="56.6929" height="56.6929" class="st1"/>
				<text x="4.35" y="669.01" class="st2" v:langID="1028"><v:paragraph v:horizAlign="1"/><v:tabList/>二十空</text>			</g>
			<g id="shape25-14" v:mID="25" v:groupContext="shape" transform="translate(786.096,465.781) rotate(90)">
				<title>工作表.25</title>
				<desc>不可得空</desc>
				<v:textBlock v:margins="rect(4,4,4,4)" v:tabSpace="42.5197"/>
				<v:textRect cx="36.8504" cy="655.703" width="73.71" height="73.7008"/>
				<rect x="0" y="618.852" width="73.7008" height="73.7008" class="st1"/>
				<text x="4.85" y="660.5" class="st2" v:langID="1028"><v:paragraph v:horizAlign="1"/><v:tabList/>不可得空</text>			</g>
			<g id="shape29-17" v:mID="29" v:groupContext="shape" transform="translate(31.1811,-354.331)">
				<title>工作表.29</title>
				<path d="M0 692.55 L595.28 692.55" class="st3"/>
			</g>
			<g id="shape31-20" v:mID="31" v:groupContext="shape" transform="translate(31.1811,-240.945)">
				<title>工作表.31</title>
				<path d="M0 692.55 L598.11 692.55" class="st3"/>
			</g>
			<g id="shape32-23" v:mID="32" v:groupContext="shape" transform="translate(31.1811,-127.559)">
				<title>工作表.32</title>
				<path d="M0 692.55 L595.28 692.55" class="st3"/>
			</g>
			<g id="shape5-26" v:mID="5" v:groupContext="shape" transform="translate(1255.23,237.593) rotate(90)">
				<title>工作表.5</title>
				<desc>內空</desc>
				<v:textBlock v:margins="rect(4,4,4,4)" v:tabSpace="42.5197"/>
				<v:textRect cx="21.2598" cy="671.293" width="42.52" height="42.5197"/>
				<rect x="0" y="650.033" width="42.5197" height="42.5197" class="st1"/>
				<text x="5.26" y="676.09" class="st2" v:langID="1028"><v:paragraph v:horizAlign="1"/><v:tabList/>內空</text>			</g>
			<g id="shape6-29" v:mID="6" v:groupContext="shape" transform="translate(1226.88,237.593) rotate(90)">
				<title>工作表.6</title>
				<desc>外空</desc>
				<v:textBlock v:margins="rect(4,4,4,4)" v:tabSpace="42.5197"/>
				<v:textRect cx="21.2598" cy="671.293" width="42.52" height="42.5197"/>
				<rect x="0" y="650.033" width="42.5197" height="42.5197" class="st1"/>
				<text x="5.26" y="676.09" class="st2" v:langID="1028"><v:paragraph v:horizAlign="1"/><v:tabList/>外空</text>			</g>
			<g id="shape7-32" v:mID="7" v:groupContext="shape" transform="translate(1191.45,239.01) rotate(90)">
				<title>工作表.7</title>
				<desc>內外空</desc>
				<v:textBlock v:margins="rect(4,4,4,4)" v:tabSpace="42.5197"/>
				<v:textRect cx="28.3465" cy="664.207" width="56.7" height="56.6929"/>
				<rect x="0" y="635.86" width="56.6929" height="56.6929" class="st1"/>
				<text x="4.35" y="669.01" class="st2" v:langID="1028"><v:paragraph v:horizAlign="1"/><v:tabList/>內外空</text>			</g>
			<g id="shape8-35" v:mID="8" v:groupContext="shape" transform="translate(1170.19,237.593) rotate(90)">
				<title>工作表.8</title>
				<desc>空空</desc>
				<v:textBlock v:margins="rect(4,4,4,4)" v:tabSpace="42.5197"/>
				<v:textRect cx="21.2598" cy="671.293" width="42.52" height="42.5197"/>
				<rect x="0" y="650.033" width="42.5197" height="42.5197" class="st1"/>
				<text x="5.26" y="676.09" class="st2" v:langID="1028"><v:paragraph v:horizAlign="1"/><v:tabList/>空空</text>			</g>
			<g id="shape9-38" v:mID="9" v:groupContext="shape" transform="translate(1141.84,237.593) rotate(90)">
				<title>工作表.9</title>
				<desc>大空</desc>
				<v:textBlock v:margins="rect(4,4,4,4)" v:tabSpace="42.5197"/>
				<v:textRect cx="21.2598" cy="671.293" width="42.52" height="42.5197"/>
				<rect x="0" y="650.033" width="42.5197" height="42.5197" class="st1"/>
				<text x="5.26" y="676.09" class="st2" v:langID="1028"><v:paragraph v:horizAlign="1"/><v:tabList/>大空</text>			</g>
			<g id="shape10-41" v:mID="10" v:groupContext="shape" transform="translate(1106.41,239.01) rotate(90)">
				<title>工作表.10</title>
				<desc>勝義空</desc>
				<v:textBlock v:margins="rect(4,4,4,4)" v:tabSpace="42.5197"/>
				<v:textRect cx="28.3465" cy="664.207" width="56.7" height="56.6929"/>
				<rect x="0" y="635.86" width="56.6929" height="56.6929" class="st1"/>
				<text x="4.35" y="669.01" class="st2" v:langID="1028"><v:paragraph v:horizAlign="1"/><v:tabList/>勝義空</text>			</g>
			<g id="shape11-44" v:mID="11" v:groupContext="shape" transform="translate(1078.06,239.01) rotate(90)">
				<title>工作表.11</title>
				<desc>有為空</desc>
				<v:textBlock v:margins="rect(4,4,4,4)" v:tabSpace="42.5197"/>
				<v:textRect cx="28.3465" cy="664.207" width="56.7" height="56.6929"/>
				<rect x="0" y="635.86" width="56.6929" height="56.6929" class="st1"/>
				<text x="4.35" y="669.01" class="st2" v:langID="1028"><v:paragraph v:horizAlign="1"/><v:tabList/>有為空</text>			</g>
			<g id="shape12-47" v:mID="12" v:groupContext="shape" transform="translate(1049.72,239.01) rotate(90)">
				<title>工作表.12</title>
				<desc>無為空</desc>
				<v:textBlock v:margins="rect(4,4,4,4)" v:tabSpace="42.5197"/>
				<v:textRect cx="28.3465" cy="664.207" width="56.7" height="56.6929"/>
				<rect x="0" y="635.86" width="56.6929" height="56.6929" class="st1"/>
				<text x="4.35" y="669.01" class="st2" v:langID="1028"><v:paragraph v:horizAlign="1"/><v:tabList/>無為空</text>			</g>
			<g id="shape13-50" v:mID="13" v:groupContext="shape" transform="translate(1021.37,239.01) rotate(90)">
				<title>工作表.13</title>
				<desc>畢竟空</desc>
				<v:textBlock v:margins="rect(4,4,4,4)" v:tabSpace="42.5197"/>
				<v:textRect cx="28.3465" cy="664.207" width="56.7" height="56.6929"/>
				<rect x="0" y="635.86" width="56.6929" height="56.6929" class="st1"/>
				<text x="4.35" y="669.01" class="st2" v:langID="1028"><v:paragraph v:horizAlign="1"/><v:tabList/>畢竟空</text>			</g>
			<g id="shape14-53" v:mID="14" v:groupContext="shape" transform="translate(993.026,239.01) rotate(90)">
				<title>工作表.14</title>
				<desc>無際空</desc>
				<v:textBlock v:margins="rect(4,4,4,4)" v:tabSpace="42.5197"/>
				<v:textRect cx="28.3465" cy="664.207" width="56.7" height="56.6929"/>
				<rect x="0" y="635.86" width="56.6929" height="56.6929" class="st1"/>
				<text x="4.35" y="669.01" class="st2" v:langID="1028"><v:paragraph v:horizAlign="1"/><v:tabList/>無際空</text>			</g>
			<g id="shape15-56" v:mID="15" v:groupContext="shape" transform="translate(971.766,237.593) rotate(90)">
				<title>工作表.15</title>
				<desc>散空</desc>
				<v:textBlock v:margins="rect(4,4,4,4)" v:tabSpace="42.5197"/>
				<v:textRect cx="21.2598" cy="671.293" width="42.52" height="42.5197"/>
				<rect x="0" y="650.033" width="42.5197" height="42.5197" class="st1"/>
				<text x="5.26" y="676.09" class="st2" v:langID="1028"><v:paragraph v:horizAlign="1"/><v:tabList/>散空</text>			</g>
			<g id="shape19-59" v:mID="19" v:groupContext="shape" transform="translate(907.986,239.01) rotate(90)">
				<title>工作表.19</title>
				<desc>本性空</desc>
				<v:textBlock v:margins="rect(4,4,4,4)" v:tabSpace="42.5197"/>
				<v:textRect cx="28.3465" cy="664.207" width="56.7" height="56.6929"/>
				<rect x="0" y="635.86" width="56.6929" height="56.6929" class="st1"/>
				<text x="4.35" y="669.01" class="st2" v:langID="1028"><v:paragraph v:horizAlign="1"/><v:tabList/>本性空</text>			</g>
			<g id="shape24-62" v:mID="24" v:groupContext="shape" transform="translate(814.443,239.01) rotate(90)">
				<title>工作表.24</title>
				<desc>一切法空</desc>
				<v:textBlock v:margins="rect(4,4,4,4)" v:tabSpace="42.5197"/>
				<v:textRect cx="36.8504" cy="655.703" width="73.71" height="73.7008"/>
				<rect x="0" y="618.852" width="73.7008" height="73.7008" class="st1"/>
				<text x="4.85" y="660.5" class="st2" v:langID="1028"><v:paragraph v:horizAlign="1"/><v:tabList/>一切法空</text>			</g>
			<g id="shape21-65" v:mID="21" v:groupContext="shape" transform="translate(856.963,239.01) rotate(90)">
				<title>工作表.21</title>
				<desc>自共相空</desc>
				<v:textBlock v:margins="rect(4,4,4,4)" v:tabSpace="42.5197"/>
				<v:textRect cx="36.8504" cy="655.703" width="73.71" height="73.7008"/>
				<rect x="0" y="618.852" width="73.7008" height="73.7008" class="st1"/>
				<text x="4.85" y="660.5" class="st2" v:langID="1028"><v:paragraph v:horizAlign="1"/><v:tabList/>自共相空</text>			</g>
			<g id="shape17-68" v:mID="17" v:groupContext="shape" transform="translate(939.167,352.041) rotate(90)">
				<title>工作表.17</title>
				<desc>無散空</desc>
				<v:textBlock v:margins="rect(4,4,4,4)" v:tabSpace="42.5197"/>
				<v:textRect cx="28.3465" cy="664.207" width="56.7" height="56.6929"/>
				<rect x="0" y="635.86" width="56.6929" height="56.6929" class="st1"/>
				<text x="4.35" y="669.01" class="st2" v:langID="1028"><v:paragraph v:horizAlign="1"/><v:tabList/>無散空</text>			</g>
			<g id="shape26-71" v:mID="26" v:groupContext="shape" transform="translate(766.254,352.041) rotate(90)">
				<title>工作表.26</title>
				<desc>無性空</desc>
				<v:textBlock v:margins="rect(4,4,4,4)" v:tabSpace="42.5197"/>
				<v:textRect cx="28.3465" cy="664.207" width="56.7" height="56.6929"/>
				<rect x="0" y="635.86" width="56.6929" height="56.6929" class="st1"/>
				<text x="4.35" y="669.01" class="st2" v:langID="1028"><v:paragraph v:horizAlign="1"/><v:tabList/>無性空</text>			</g>
			<g id="shape28-74" v:mID="28" v:groupContext="shape" transform="translate(692.553,351.333) rotate(90)">
				<title>工作表.28</title>
				<desc>無性自性空</desc>
				<v:textBlock v:margins="rect(4,4,4,4)" v:tabSpace="42.5197"/>
				<v:textRect cx="45.3543" cy="647.199" width="90.71" height="90.7087"/>
				<rect x="0" y="601.844" width="90.7087" height="90.7087" class="st1"/>
				<text x="5.35" y="652" class="st2" v:langID="1028"><v:paragraph v:horizAlign="1"/><v:tabList/>無性自性空</text>			</g>
			<g id="shape35-77" v:mID="35" v:groupContext="shape" transform="translate(1255.23,350.624) rotate(90)">
				<title>工作表.35</title>
				<desc>內空</desc>
				<v:textBlock v:margins="rect(4,4,4,4)" v:tabSpace="42.5197"/>
				<v:textRect cx="21.2598" cy="671.293" width="42.52" height="42.5197"/>
				<rect x="0" y="650.033" width="42.5197" height="42.5197" class="st1"/>
				<text x="5.26" y="676.09" class="st2" v:langID="1028"><v:paragraph v:horizAlign="1"/><v:tabList/>內空</text>			</g>
			<g id="shape36-80" v:mID="36" v:groupContext="shape" transform="translate(1226.88,350.624) rotate(90)">
				<title>工作表.36</title>
				<desc>外空</desc>
				<v:textBlock v:margins="rect(4,4,4,4)" v:tabSpace="42.5197"/>
				<v:textRect cx="21.2598" cy="671.293" width="42.52" height="42.5197"/>
				<rect x="0" y="650.033" width="42.5197" height="42.5197" class="st1"/>
				<text x="5.26" y="676.09" class="st2" v:langID="1028"><v:paragraph v:horizAlign="1"/><v:tabList/>外空</text>			</g>
			<g id="shape37-83" v:mID="37" v:groupContext="shape" transform="translate(1191.45,352.041) rotate(90)">
				<title>工作表.37</title>
				<desc>內外空</desc>
				<v:textBlock v:margins="rect(4,4,4,4)" v:tabSpace="42.5197"/>
				<v:textRect cx="28.3465" cy="664.207" width="56.7" height="56.6929"/>
				<rect x="0" y="635.86" width="56.6929" height="56.6929" class="st1"/>
				<text x="4.35" y="669.01" class="st2" v:langID="1028"><v:paragraph v:horizAlign="1"/><v:tabList/>內外空</text>			</g>
			<g id="shape38-86" v:mID="38" v:groupContext="shape" transform="translate(1170.19,350.624) rotate(90)">
				<title>工作表.38</title>
				<desc>空空</desc>
				<v:textBlock v:margins="rect(4,4,4,4)" v:tabSpace="42.5197"/>
				<v:textRect cx="21.2598" cy="671.293" width="42.52" height="42.5197"/>
				<rect x="0" y="650.033" width="42.5197" height="42.5197" class="st1"/>
				<text x="5.26" y="676.09" class="st2" v:langID="1028"><v:paragraph v:horizAlign="1"/><v:tabList/>空空</text>			</g>
			<g id="shape39-89" v:mID="39" v:groupContext="shape" transform="translate(1141.84,350.624) rotate(90)">
				<title>工作表.39</title>
				<desc>大空</desc>
				<v:textBlock v:margins="rect(4,4,4,4)" v:tabSpace="42.5197"/>
				<v:textRect cx="21.2598" cy="671.293" width="42.52" height="42.5197"/>
				<rect x="0" y="650.033" width="42.5197" height="42.5197" class="st1"/>
				<text x="5.26" y="676.09" class="st2" v:langID="1028"><v:paragraph v:horizAlign="1"/><v:tabList/>大空</text>			</g>
			<g id="shape40-92" v:mID="40" v:groupContext="shape" transform="translate(1106.41,352.041) rotate(90)">
				<title>工作表.40</title>
				<desc>勝義空</desc>
				<v:textBlock v:margins="rect(4,4,4,4)" v:tabSpace="42.5197"/>
				<v:textRect cx="28.3465" cy="664.207" width="56.7" height="56.6929"/>
				<rect x="0" y="635.86" width="56.6929" height="56.6929" class="st1"/>
				<text x="4.35" y="669.01" class="st2" v:langID="1028"><v:paragraph v:horizAlign="1"/><v:tabList/>勝義空</text>			</g>
			<g id="shape41-95" v:mID="41" v:groupContext="shape" transform="translate(1078.06,352.041) rotate(90)">
				<title>工作表.41</title>
				<desc>有為空</desc>
				<v:textBlock v:margins="rect(4,4,4,4)" v:tabSpace="42.5197"/>
				<v:textRect cx="28.3465" cy="664.207" width="56.7" height="56.6929"/>
				<rect x="0" y="635.86" width="56.6929" height="56.6929" class="st1"/>
				<text x="4.35" y="669.01" class="st2" v:langID="1028"><v:paragraph v:horizAlign="1"/><v:tabList/>有為空</text>			</g>
			<g id="shape42-98" v:mID="42" v:groupContext="shape" transform="translate(1049.72,352.041) rotate(90)">
				<title>工作表.42</title>
				<desc>無為空</desc>
				<v:textBlock v:margins="rect(4,4,4,4)" v:tabSpace="42.5197"/>
				<v:textRect cx="28.3465" cy="664.207" width="56.7" height="56.6929"/>
				<rect x="0" y="635.86" width="56.6929" height="56.6929" class="st1"/>
				<text x="4.35" y="669.01" class="st2" v:langID="1028"><v:paragraph v:horizAlign="1"/><v:tabList/>無為空</text>			</g>
			<g id="shape43-101" v:mID="43" v:groupContext="shape" transform="translate(1021.37,352.041) rotate(90)">
				<title>工作表.43</title>
				<desc>畢竟空</desc>
				<v:textBlock v:margins="rect(4,4,4,4)" v:tabSpace="42.5197"/>
				<v:textRect cx="28.3465" cy="664.207" width="56.7" height="56.6929"/>
				<rect x="0" y="635.86" width="56.6929" height="56.6929" class="st1"/>
				<text x="4.35" y="669.01" class="st2" v:langID="1028"><v:paragraph v:horizAlign="1"/><v:tabList/>畢竟空</text>			</g>
			<g id="shape44-104" v:mID="44" v:groupContext="shape" transform="translate(993.026,352.041) rotate(90)">
				<title>工作表.44</title>
				<desc>無際空</desc>
				<v:textBlock v:margins="rect(4,4,4,4)" v:tabSpace="42.5197"/>
				<v:textRect cx="28.3465" cy="664.207" width="56.7" height="56.6929"/>
				<rect x="0" y="635.86" width="56.6929" height="56.6929" class="st1"/>
				<text x="4.35" y="669.01" class="st2" v:langID="1028"><v:paragraph v:horizAlign="1"/><v:tabList/>無際空</text>			</g>
			<g id="shape46-107" v:mID="46" v:groupContext="shape" transform="translate(907.986,352.041) rotate(90)">
				<title>工作表.46</title>
				<desc>本性空</desc>
				<v:textBlock v:margins="rect(4,4,4,4)" v:tabSpace="42.5197"/>
				<v:textRect cx="28.3465" cy="664.207" width="56.7" height="56.6929"/>
				<rect x="0" y="635.86" width="56.6929" height="56.6929" class="st1"/>
				<text x="4.35" y="669.01" class="st2" v:langID="1028"><v:paragraph v:horizAlign="1"/><v:tabList/>本性空</text>			</g>
			<g id="shape48-110" v:mID="48" v:groupContext="shape" transform="translate(814.443,352.041) rotate(90)">
				<title>工作表.48</title>
				<desc>一切法空</desc>
				<v:textBlock v:margins="rect(4,4,4,4)" v:tabSpace="42.5197"/>
				<v:textRect cx="36.8504" cy="655.703" width="73.71" height="73.7008"/>
				<rect x="0" y="618.852" width="73.7008" height="73.7008" class="st1"/>
				<text x="4.85" y="660.5" class="st2" v:langID="1028"><v:paragraph v:horizAlign="1"/><v:tabList/>一切法空</text>			</g>
			<g id="shape22-113" v:mID="22" v:groupContext="shape" transform="translate(871.421,350.624) rotate(90)">
				<title>工作表.22</title>
				<desc>相空</desc>
				<v:textBlock v:margins="rect(4,4,4,4)" v:tabSpace="42.5197"/>
				<v:textRect cx="21.2598" cy="671.293" width="42.52" height="42.5197"/>
				<rect x="0" y="650.033" width="42.5197" height="42.5197" class="st1"/>
				<text x="5.26" y="676.09" class="st2" v:langID="1028"><v:paragraph v:horizAlign="1"/><v:tabList/>相空</text>			</g>
			<g id="shape16-116" v:mID="16" v:groupContext="shape" transform="translate(942.002,465.781) rotate(90)">
				<title>工作表.16</title>
				<desc>散無散空</desc>
				<v:textBlock v:margins="rect(4,4,4,4)" v:tabSpace="42.5197"/>
				<v:textRect cx="36.8504" cy="655.703" width="73.71" height="73.7008"/>
				<rect x="0" y="618.852" width="73.7008" height="73.7008" class="st1"/>
				<text x="4.85" y="660.5" class="st2" v:langID="1028"><v:paragraph v:horizAlign="1"/><v:tabList/>散無散空</text>			</g>
			<g id="shape27-119" v:mID="27" v:groupContext="shape" transform="translate(737.907,465.781) rotate(90)">
				<title>工作表.27</title>
				<desc>自性空</desc>
				<v:textBlock v:margins="rect(4,4,4,4)" v:tabSpace="42.5197"/>
				<v:textRect cx="28.3465" cy="664.207" width="56.7" height="56.6929"/>
				<rect x="0" y="635.86" width="56.6929" height="56.6929" class="st1"/>
				<text x="4.35" y="669.01" class="st2" v:langID="1028"><v:paragraph v:horizAlign="1"/><v:tabList/>自性空</text>			</g>
			<g id="shape50-122" v:mID="50" v:groupContext="shape" transform="translate(1255.23,464.364) rotate(90)">
				<title>工作表.50</title>
				<desc>內空</desc>
				<v:textBlock v:margins="rect(4,4,4,4)" v:tabSpace="42.5197"/>
				<v:textRect cx="21.2598" cy="671.293" width="42.52" height="42.5197"/>
				<rect x="0" y="650.033" width="42.5197" height="42.5197" class="st1"/>
				<text x="5.26" y="676.09" class="st2" v:langID="1028"><v:paragraph v:horizAlign="1"/><v:tabList/>內空</text>			</g>
			<g id="shape51-125" v:mID="51" v:groupContext="shape" transform="translate(1226.88,464.364) rotate(90)">
				<title>工作表.51</title>
				<desc>外空</desc>
				<v:textBlock v:margins="rect(4,4,4,4)" v:tabSpace="42.5197"/>
				<v:textRect cx="21.2598" cy="671.293" width="42.52" height="42.5197"/>
				<rect x="0" y="650.033" width="42.5197" height="42.5197" class="st1"/>
				<text x="5.26" y="676.09" class="st2" v:langID="1028"><v:paragraph v:horizAlign="1"/><v:tabList/>外空</text>			</g>
			<g id="shape52-128" v:mID="52" v:groupContext="shape" transform="translate(1191.45,465.781) rotate(90)">
				<title>工作表.52</title>
				<desc>內外空</desc>
				<v:textBlock v:margins="rect(4,4,4,4)" v:tabSpace="42.5197"/>
				<v:textRect cx="28.3465" cy="664.207" width="56.7" height="56.6929"/>
				<rect x="0" y="635.86" width="56.6929" height="56.6929" class="st1"/>
				<text x="4.35" y="669.01" class="st2" v:langID="1028"><v:paragraph v:horizAlign="1"/><v:tabList/>內外空</text>			</g>
			<g id="shape53-131" v:mID="53" v:groupContext="shape" transform="translate(1170.19,464.364) rotate(90)">
				<title>工作表.53</title>
				<desc>空空</desc>
				<v:textBlock v:margins="rect(4,4,4,4)" v:tabSpace="42.5197"/>
				<v:textRect cx="21.2598" cy="671.293" width="42.52" height="42.5197"/>
				<rect x="0" y="650.033" width="42.5197" height="42.5197" class="st1"/>
				<text x="5.26" y="676.09" class="st2" v:langID="1028"><v:paragraph v:horizAlign="1"/><v:tabList/>空空</text>			</g>
			<g id="shape54-134" v:mID="54" v:groupContext="shape" transform="translate(1141.84,464.364) rotate(90)">
				<title>工作表.54</title>
				<desc>大空</desc>
				<v:textBlock v:margins="rect(4,4,4,4)" v:tabSpace="42.5197"/>
				<v:textRect cx="21.2598" cy="671.293" width="42.52" height="42.5197"/>
				<rect x="0" y="650.033" width="42.5197" height="42.5197" class="st1"/>
				<text x="5.26" y="676.09" class="st2" v:langID="1028"><v:paragraph v:horizAlign="1"/><v:tabList/>大空</text>			</g>
			<g id="shape55-137" v:mID="55" v:groupContext="shape" transform="translate(1106.41,465.781) rotate(90)">
				<title>工作表.55</title>
				<desc>勝義空</desc>
				<v:textBlock v:margins="rect(4,4,4,4)" v:tabSpace="42.5197"/>
				<v:textRect cx="28.3465" cy="664.207" width="56.7" height="56.6929"/>
				<rect x="0" y="635.86" width="56.6929" height="56.6929" class="st1"/>
				<text x="4.35" y="669.01" class="st2" v:langID="1028"><v:paragraph v:horizAlign="1"/><v:tabList/>勝義空</text>			</g>
			<g id="shape56-140" v:mID="56" v:groupContext="shape" transform="translate(1078.06,465.781) rotate(90)">
				<title>工作表.56</title>
				<desc>有為空</desc>
				<v:textBlock v:margins="rect(4,4,4,4)" v:tabSpace="42.5197"/>
				<v:textRect cx="28.3465" cy="664.207" width="56.7" height="56.6929"/>
				<rect x="0" y="635.86" width="56.6929" height="56.6929" class="st1"/>
				<text x="4.35" y="669.01" class="st2" v:langID="1028"><v:paragraph v:horizAlign="1"/><v:tabList/>有為空</text>			</g>
			<g id="shape57-143" v:mID="57" v:groupContext="shape" transform="translate(1049.72,465.781) rotate(90)">
				<title>工作表.57</title>
				<desc>無為空</desc>
				<v:textBlock v:margins="rect(4,4,4,4)" v:tabSpace="42.5197"/>
				<v:textRect cx="28.3465" cy="664.207" width="56.7" height="56.6929"/>
				<rect x="0" y="635.86" width="56.6929" height="56.6929" class="st1"/>
				<text x="4.35" y="669.01" class="st2" v:langID="1028"><v:paragraph v:horizAlign="1"/><v:tabList/>無為空</text>			</g>
			<g id="shape58-146" v:mID="58" v:groupContext="shape" transform="translate(1021.37,465.781) rotate(90)">
				<title>工作表.58</title>
				<desc>畢竟空</desc>
				<v:textBlock v:margins="rect(4,4,4,4)" v:tabSpace="42.5197"/>
				<v:textRect cx="28.3465" cy="664.207" width="56.7" height="56.6929"/>
				<rect x="0" y="635.86" width="56.6929" height="56.6929" class="st1"/>
				<text x="4.35" y="669.01" class="st2" v:langID="1028"><v:paragraph v:horizAlign="1"/><v:tabList/>畢竟空</text>			</g>
			<g id="shape59-149" v:mID="59" v:groupContext="shape" transform="translate(993.026,465.781) rotate(90)">
				<title>工作表.59</title>
				<desc>無際空</desc>
				<v:textBlock v:margins="rect(4,4,4,4)" v:tabSpace="42.5197"/>
				<v:textRect cx="28.3465" cy="664.207" width="56.7" height="56.6929"/>
				<rect x="0" y="635.86" width="56.6929" height="56.6929" class="st1"/>
				<text x="4.35" y="669.01" class="st2" v:langID="1028"><v:paragraph v:horizAlign="1"/><v:tabList/>無際空</text>			</g>
			<g id="shape61-152" v:mID="61" v:groupContext="shape" transform="translate(907.986,465.781) rotate(90)">
				<title>工作表.61</title>
				<desc>本性空</desc>
				<v:textBlock v:margins="rect(4,4,4,4)" v:tabSpace="42.5197"/>
				<v:textRect cx="28.3465" cy="664.207" width="56.7" height="56.6929"/>
				<rect x="0" y="635.86" width="56.6929" height="56.6929" class="st1"/>
				<text x="4.35" y="669.01" class="st2" v:langID="1028"><v:paragraph v:horizAlign="1"/><v:tabList/>本性空</text>			</g>
			<g id="shape63-155" v:mID="63" v:groupContext="shape" transform="translate(814.443,465.781) rotate(90)">
				<title>工作表.63</title>
				<desc>一切法空</desc>
				<v:textBlock v:margins="rect(4,4,4,4)" v:tabSpace="42.5197"/>
				<v:textRect cx="36.8504" cy="655.703" width="73.71" height="73.7008"/>
				<rect x="0" y="618.852" width="73.7008" height="73.7008" class="st1"/>
				<text x="4.85" y="660.5" class="st2" v:langID="1028"><v:paragraph v:horizAlign="1"/><v:tabList/>一切法空</text>			</g>
			<g id="shape62-158" v:mID="62" v:groupContext="shape" transform="translate(856.963,465.781) rotate(90)">
				<title>工作表.62</title>
				<desc>自共相空</desc>
				<v:textBlock v:margins="rect(4,4,4,4)" v:tabSpace="42.5197"/>
				<v:textRect cx="36.8504" cy="655.703" width="73.71" height="73.7008"/>
				<rect x="0" y="618.852" width="73.7008" height="73.7008" class="st1"/>
				<text x="4.85" y="660.5" class="st2" v:langID="1028"><v:paragraph v:horizAlign="1"/><v:tabList/>自共相空</text>			</g>
			<g id="shape23-161" v:mID="23" v:groupContext="shape" transform="translate(766.254,465.781) rotate(90)">
				<title>工作表.23</title>
				<desc>無性空</desc>
				<v:textBlock v:margins="rect(4,4,4,4)" v:tabSpace="42.5197"/>
				<v:textRect cx="28.3465" cy="664.207" width="56.7" height="56.6929"/>
				<rect x="0" y="635.86" width="56.6929" height="56.6929" class="st1"/>
				<text x="4.35" y="669.01" class="st2" v:langID="1028"><v:paragraph v:horizAlign="1"/><v:tabList/>無性空</text>			</g>
			<g id="shape64-164" v:mID="64" v:groupContext="shape" transform="translate(692.553,465.781) rotate(90)">
				<title>工作表.64</title>
				<desc>無性自性空</desc>
				<v:textBlock v:margins="rect(4,4,4,4)" v:tabSpace="42.5197"/>
				<v:textRect cx="45.3543" cy="647.199" width="90.71" height="90.7087"/>
				<rect x="0" y="601.844" width="90.7087" height="90.7087" class="st1"/>
				<text x="5.35" y="652" class="st2" v:langID="1028"><v:paragraph v:horizAlign="1"/><v:tabList/>無性自性空</text>			</g>
			<g id="shape18-167" v:mID="18" v:groupContext="shape" transform="translate(927.829,579.876) rotate(90)">
				<title>工作表.18</title>
				<desc>無變異空</desc>
				<v:textBlock v:margins="rect(4,4,4,4)" v:tabSpace="42.5197"/>
				<v:textRect cx="36.8504" cy="655.703" width="73.71" height="73.7008"/>
				<rect x="0" y="618.852" width="73.7008" height="73.7008" class="st1"/>
				<text x="4.85" y="660.5" class="st2" v:langID="1028"><v:paragraph v:horizAlign="1"/><v:tabList/>無變異空</text>			</g>
			<g id="shape65-170" v:mID="65" v:groupContext="shape" transform="translate(1255.23,578.459) rotate(90)">
				<title>工作表.65</title>
				<desc>內空</desc>
				<v:textBlock v:margins="rect(4,4,4,4)" v:tabSpace="42.5197"/>
				<v:textRect cx="21.2598" cy="671.293" width="42.52" height="42.5197"/>
				<rect x="0" y="650.033" width="42.5197" height="42.5197" class="st1"/>
				<text x="5.26" y="676.09" class="st2" v:langID="1028"><v:paragraph v:horizAlign="1"/><v:tabList/>內空</text>			</g>
			<g id="shape66-173" v:mID="66" v:groupContext="shape" transform="translate(1226.88,578.459) rotate(90)">
				<title>工作表.66</title>
				<desc>外空</desc>
				<v:textBlock v:margins="rect(4,4,4,4)" v:tabSpace="42.5197"/>
				<v:textRect cx="21.2598" cy="671.293" width="42.52" height="42.5197"/>
				<rect x="0" y="650.033" width="42.5197" height="42.5197" class="st1"/>
				<text x="5.26" y="676.09" class="st2" v:langID="1028"><v:paragraph v:horizAlign="1"/><v:tabList/>外空</text>			</g>
			<g id="shape67-176" v:mID="67" v:groupContext="shape" transform="translate(1191.45,579.876) rotate(90)">
				<title>工作表.67</title>
				<desc>內外空</desc>
				<v:textBlock v:margins="rect(4,4,4,4)" v:tabSpace="42.5197"/>
				<v:textRect cx="28.3465" cy="664.207" width="56.7" height="56.6929"/>
				<rect x="0" y="635.86" width="56.6929" height="56.6929" class="st1"/>
				<text x="4.35" y="669.01" class="st2" v:langID="1028"><v:paragraph v:horizAlign="1"/><v:tabList/>內外空</text>			</g>
			<g id="shape68-179" v:mID="68" v:groupContext="shape" transform="translate(1170.19,578.459) rotate(90)">
				<title>工作表.68</title>
				<desc>空空</desc>
				<v:textBlock v:margins="rect(4,4,4,4)" v:tabSpace="42.5197"/>
				<v:textRect cx="21.2598" cy="671.293" width="42.52" height="42.5197"/>
				<rect x="0" y="650.033" width="42.5197" height="42.5197" class="st1"/>
				<text x="5.26" y="676.09" class="st2" v:langID="1028"><v:paragraph v:horizAlign="1"/><v:tabList/>空空</text>			</g>
			<g id="shape69-182" v:mID="69" v:groupContext="shape" transform="translate(1141.84,578.459) rotate(90)">
				<title>工作表.69</title>
				<desc>大空</desc>
				<v:textBlock v:margins="rect(4,4,4,4)" v:tabSpace="42.5197"/>
				<v:textRect cx="21.2598" cy="671.293" width="42.52" height="42.5197"/>
				<rect x="0" y="650.033" width="42.5197" height="42.5197" class="st1"/>
				<text x="5.26" y="676.09" class="st2" v:langID="1028"><v:paragraph v:horizAlign="1"/><v:tabList/>大空</text>			</g>
			<g id="shape70-185" v:mID="70" v:groupContext="shape" transform="translate(1106.41,579.876) rotate(90)">
				<title>工作表.70</title>
				<desc>勝義空</desc>
				<v:textBlock v:margins="rect(4,4,4,4)" v:tabSpace="42.5197"/>
				<v:textRect cx="28.3465" cy="664.207" width="56.7" height="56.6929"/>
				<rect x="0" y="635.86" width="56.6929" height="56.6929" class="st1"/>
				<text x="4.35" y="669.01" class="st2" v:langID="1028"><v:paragraph v:horizAlign="1"/><v:tabList/>勝義空</text>			</g>
			<g id="shape71-188" v:mID="71" v:groupContext="shape" transform="translate(1078.06,579.876) rotate(90)">
				<title>工作表.71</title>
				<desc>有為空</desc>
				<v:textBlock v:margins="rect(4,4,4,4)" v:tabSpace="42.5197"/>
				<v:textRect cx="28.3465" cy="664.207" width="56.7" height="56.6929"/>
				<rect x="0" y="635.86" width="56.6929" height="56.6929" class="st1"/>
				<text x="4.35" y="669.01" class="st2" v:langID="1028"><v:paragraph v:horizAlign="1"/><v:tabList/>有為空</text>			</g>
			<g id="shape72-191" v:mID="72" v:groupContext="shape" transform="translate(1049.72,579.876) rotate(90)">
				<title>工作表.72</title>
				<desc>無為空</desc>
				<v:textBlock v:margins="rect(4,4,4,4)" v:tabSpace="42.5197"/>
				<v:textRect cx="28.3465" cy="664.207" width="56.7" height="56.6929"/>
				<rect x="0" y="635.86" width="56.6929" height="56.6929" class="st1"/>
				<text x="4.35" y="669.01" class="st2" v:langID="1028"><v:paragraph v:horizAlign="1"/><v:tabList/>無為空</text>			</g>
			<g id="shape73-194" v:mID="73" v:groupContext="shape" transform="translate(1021.37,579.876) rotate(90)">
				<title>工作表.73</title>
				<desc>畢竟空</desc>
				<v:textBlock v:margins="rect(4,4,4,4)" v:tabSpace="42.5197"/>
				<v:textRect cx="28.3465" cy="664.207" width="56.7" height="56.6929"/>
				<rect x="0" y="635.86" width="56.6929" height="56.6929" class="st1"/>
				<text x="4.35" y="669.01" class="st2" v:langID="1028"><v:paragraph v:horizAlign="1"/><v:tabList/>畢竟空</text>			</g>
			<g id="shape74-197" v:mID="74" v:groupContext="shape" transform="translate(993.026,579.876) rotate(90)">
				<title>工作表.74</title>
				<desc>無際空</desc>
				<v:textBlock v:margins="rect(4,4,4,4)" v:tabSpace="42.5197"/>
				<v:textRect cx="28.3465" cy="664.207" width="56.7" height="56.6929"/>
				<rect x="0" y="635.86" width="56.6929" height="56.6929" class="st1"/>
				<text x="4.35" y="669.01" class="st2" v:langID="1028"><v:paragraph v:horizAlign="1"/><v:tabList/>無際空</text>			</g>
			<g id="shape75-200" v:mID="75" v:groupContext="shape" transform="translate(971.766,578.459) rotate(90)">
				<title>工作表.75</title>
				<desc>散空</desc>
				<v:textBlock v:margins="rect(4,4,4,4)" v:tabSpace="42.5197"/>
				<v:textRect cx="21.2598" cy="671.293" width="42.52" height="42.5197"/>
				<rect x="0" y="650.033" width="42.5197" height="42.5197" class="st1"/>
				<text x="5.26" y="676.09" class="st2" v:langID="1028"><v:paragraph v:horizAlign="1"/><v:tabList/>散空</text>			</g>
			<g id="shape76-203" v:mID="76" v:groupContext="shape" transform="translate(907.986,579.876) rotate(90)">
				<title>工作表.76</title>
				<desc>本性空</desc>
				<v:textBlock v:margins="rect(4,4,4,4)" v:tabSpace="42.5197"/>
				<v:textRect cx="28.3465" cy="664.207" width="56.7" height="56.6929"/>
				<rect x="0" y="635.86" width="56.6929" height="56.6929" class="st1"/>
				<text x="4.35" y="669.01" class="st2" v:langID="1028"><v:paragraph v:horizAlign="1"/><v:tabList/>本性空</text>			</g>
			<g id="shape77-206" v:mID="77" v:groupContext="shape" transform="translate(879.64,579.876) rotate(90)">
				<title>工作表.77</title>
				<desc>自相空</desc>
				<v:textBlock v:margins="rect(4,4,4,4)" v:tabSpace="42.5197"/>
				<v:textRect cx="28.3465" cy="664.207" width="56.7" height="56.6929"/>
				<rect x="0" y="635.86" width="56.6929" height="56.6929" class="st1"/>
				<text x="4.35" y="669.01" class="st2" v:langID="1028"><v:paragraph v:horizAlign="1"/><v:tabList/>自相空</text>			</g>
			<g id="shape78-209" v:mID="78" v:groupContext="shape" transform="translate(814.443,579.876) rotate(90)">
				<title>工作表.78</title>
				<desc>一切法空</desc>
				<v:textBlock v:margins="rect(4,4,4,4)" v:tabSpace="42.5197"/>
				<v:textRect cx="36.8504" cy="655.703" width="73.71" height="73.7008"/>
				<rect x="0" y="618.852" width="73.7008" height="73.7008" class="st1"/>
				<text x="4.85" y="660.5" class="st2" v:langID="1028"><v:paragraph v:horizAlign="1"/><v:tabList/>一切法空</text>			</g>
			<g id="shape47-212" v:mID="47" v:groupContext="shape" transform="translate(851.293,579.876) rotate(90)">
				<title>工作表.47</title>
				<desc>共相空</desc>
				<v:textBlock v:margins="rect(4,4,4,4)" v:tabSpace="42.5197"/>
				<v:textRect cx="28.3465" cy="664.207" width="56.7" height="56.6929"/>
				<rect x="0" y="635.86" width="56.6929" height="56.6929" class="st1"/>
				<text x="4.35" y="669.01" class="st2" v:langID="1028"><v:paragraph v:horizAlign="1"/><v:tabList/>共相空</text>			</g>
			<g id="shape20-215" v:mID="20" v:groupContext="shape" transform="translate(786.096,579.876) rotate(90)">
				<title>工作表.20</title>
				<desc>不可得空</desc>
				<v:textBlock v:margins="rect(4,4,4,4)" v:tabSpace="42.5197"/>
				<v:textRect cx="36.8504" cy="655.703" width="73.71" height="73.7008"/>
				<rect x="0" y="618.852" width="73.7008" height="73.7008" class="st1"/>
				<text x="4.85" y="660.5" class="st2" v:langID="1028"><v:paragraph v:horizAlign="1"/><v:tabList/>不可得空</text>			</g>
			<g id="shape49-218" v:mID="49" v:groupContext="shape" transform="translate(766.254,579.876) rotate(90)">
				<title>工作表.49</title>
				<desc>無性空</desc>
				<v:textBlock v:margins="rect(4,4,4,4)" v:tabSpace="42.5197"/>
				<v:textRect cx="28.3465" cy="664.207" width="56.7" height="56.6929"/>
				<rect x="0" y="635.86" width="56.6929" height="56.6929" class="st1"/>
				<text x="4.35" y="669.01" class="st2" v:langID="1028"><v:paragraph v:horizAlign="1"/><v:tabList/>無性空</text>			</g>
			<g id="shape60-221" v:mID="60" v:groupContext="shape" transform="translate(737.907,579.876) rotate(90)">
				<title>工作表.60</title>
				<desc>自性空</desc>
				<v:textBlock v:margins="rect(4,4,4,4)" v:tabSpace="42.5197"/>
				<v:textRect cx="28.3465" cy="664.207" width="56.7" height="56.6929"/>
				<rect x="0" y="635.86" width="56.6929" height="56.6929" class="st1"/>
				<text x="4.35" y="669.01" class="st2" v:langID="1028"><v:paragraph v:horizAlign="1"/><v:tabList/>自性空</text>			</g>
			<g id="shape79-224" v:mID="79" v:groupContext="shape" transform="translate(692.553,579.167) rotate(90)">
				<title>工作表.79</title>
				<desc>無性自性空</desc>
				<v:textBlock v:margins="rect(4,4,4,4)" v:tabSpace="42.5197"/>
				<v:textRect cx="45.3543" cy="647.199" width="90.71" height="90.7087"/>
				<rect x="0" y="601.844" width="90.7087" height="90.7087" class="st1"/>
				<text x="5.35" y="652" class="st2" v:langID="1028"><v:paragraph v:horizAlign="1"/><v:tabList/>無性自性空</text>			</g>
			<g id="shape34-227" v:mID="34" v:groupContext="shape" transform="translate(1290.66,224.837) rotate(90)">
				<title>工作表.34</title>
				<path d="M0 692.55 L453.54 692.55" class="st3"/>
			</g>
			<g id="shape83-230" v:mID="83" v:groupContext="shape" transform="translate(2.83465,2.27374E-013)">
				<title>工作表.83</title>
				<path d="M0 692.55 L651.97 692.55" class="st4"/>
			</g>
			<g id="shape84-233" v:mID="84" v:groupContext="shape" transform="translate(2.83465,-481.89)">
				<title>工作表.84</title>
				<path d="M0 692.55 L651.97 692.55" class="st4"/>
			</g>
		</g>
	</g>
</svg>
