<?xml version="1.0" encoding="UTF-8" standalone="no"?>
<!DOCTYPE svg PUBLIC "-//W3C//DTD SVG 1.1//EN" "http://www.w3.org/Graphics/SVG/1.1/DTD/svg11.dtd">
<!-- 由 Microsoft Visio, SVG Export 產生 y38.0160-h.svg 頁-1 -->
<svg xmlns="http://www.w3.org/2000/svg" xmlns:xlink="http://www.w3.org/1999/xlink" xmlns:ev="http://www.w3.org/2001/xml-events"
		width="7.92554in" height="1.58869in" viewBox="0 0 570.639 114.386" xml:space="preserve" color-interpolation-filters="sRGB"
		class="st4">
	<style type="text/css">
	<![CDATA[
		.st1 {fill:none;stroke:none;stroke-linecap:round;stroke-linejoin:round;stroke-width:0.75}
		.st2 {fill:#000000;font-family:新細明體;font-size:1.33333em}
		.st3 {stroke:#000000;stroke-linecap:round;stroke-linejoin:round;stroke-width:1}
		.st4 {fill:none;fill-rule:evenodd;font-size:12px;overflow:visible;stroke-linecap:square;stroke-miterlimit:3}
	]]>
	</style>

	<g>
		<title>頁-1</title>
		<g id="group38-1" transform="translate(0.375,-0.5)">
			<title>工作表.38</title>
			<g id="shape1-2" transform="translate(48.189,-87.874)">
				<title>工作表.1</title>
				<desc>A</desc>
				<rect x="0" y="91.7087" width="22.6772" height="22.6772" class="st1"/>
				<text x="5.92" y="107.85" class="st2">A</text>			</g>
			<g id="shape2-5" transform="translate(161.575,-87.874)">
				<title>工作表.2</title>
				<desc>B</desc>
				<rect x="0" y="91.7087" width="22.6772" height="22.6772" class="st1"/>
				<text x="6.32" y="107.85" class="st2">B</text>			</g>
			<g id="shape3-8" transform="translate(274.961,-87.874)">
				<title>工作表.3</title>
				<desc>C</desc>
				<rect x="0" y="91.7087" width="22.6772" height="22.6772" class="st1"/>
				<text x="6.32" y="107.85" class="st2">C</text>			</g>
			<g id="shape4-11" transform="translate(388.346,-87.874)">
				<title>工作表.4</title>
				<desc>D</desc>
				<rect x="0" y="91.7087" width="22.6772" height="22.6772" class="st1"/>
				<text x="5.92" y="107.85" class="st2">D</text>			</g>
			<g id="shape5-14" transform="translate(501.732,-87.874)">
				<title>工作表.5</title>
				<desc>E</desc>
				<rect x="0" y="91.7087" width="22.6772" height="22.6772" class="st1"/>
				<text x="6.74" y="107.85" class="st2">E</text>			</g>
			<g id="shape6-17" transform="translate(-1.9984E-14,-59.5276)">
				<title>工作表.6</title>
				<desc>1.</desc>
				<rect x="0" y="91.7087" width="22.6772" height="22.6772" class="st1"/>
				<text x="5.7" y="107.85" class="st2">1.</text>			</g>
			<g id="shape7-20" transform="translate(24.0945,-59.5276)">
				<title>工作表.7</title>
				<desc>十八空</desc>
				<rect x="0" y="91.7087" width="56.6929" height="22.6772" class="st1"/>
				<text x="4.35" y="107.85" class="st2">十八空</text>			</g>
			<g id="shape8-23" transform="translate(144.567,-59.5276)">
				<title>工作表.8</title>
				<desc>二十空</desc>
				<rect x="0" y="91.7087" width="56.6929" height="22.6772" class="st1"/>
				<text x="4.35" y="107.85" class="st2">二十空</text>			</g>
			<g id="shape9-26" transform="translate(257.953,-59.5276)">
				<title>工作表.9</title>
				<desc>十四空</desc>
				<rect x="0" y="91.7087" width="56.6929" height="22.6772" class="st1"/>
				<text x="4.35" y="107.85" class="st2">十四空</text>			</g>
			<g id="shape10-29" transform="translate(369.921,-59.5276)">
				<title>工作表.10</title>
				<desc>二十一空</desc>
				<rect x="0" y="91.7087" width="73.7008" height="22.6772" class="st1"/>
				<text x="4.85" y="107.85" class="st2">二十一空</text>			</g>
			<g id="shape11-32" transform="translate(484.724,-59.5276)">
				<title>工作表.11</title>
				<desc>十六空</desc>
				<rect x="0" y="91.7087" width="56.6929" height="22.6772" class="st1"/>
				<text x="4.35" y="107.85" class="st2">十六空</text>			</g>
			<g id="shape12-35" transform="translate(7.99361E-14,-31.1811)">
				<title>工作表.12</title>
				<desc>2.</desc>
				<rect x="0" y="91.7087" width="22.6772" height="22.6772" class="st1"/>
				<text x="5.7" y="107.85" class="st2">2.</text>			</g>
			<g id="shape13-38" transform="translate(22.6772,-31.1811)">
				<title>工作表.13</title>
				<desc>四緣</desc>
				<rect x="0" y="91.7087" width="42.5197" height="22.6772" class="st1"/>
				<text x="5.26" y="107.85" class="st2">四緣</text>			</g>
			<g id="shape14-41" transform="translate(467.717,-2.83465)">
				<title>工作表.14</title>
				<desc>3.</desc>
				<rect x="0" y="91.7087" width="22.6772" height="22.6772" class="st1"/>
				<text x="5.7" y="107.85" class="st2">3.</text>			</g>
			<g id="shape15-44" transform="translate(143.15,-31.1811)">
				<title>工作表.15</title>
				<desc>四緣</desc>
				<rect x="0" y="91.7087" width="42.5197" height="22.6772" class="st1"/>
				<text x="5.26" y="107.85" class="st2">四緣</text>			</g>
			<g id="shape16-47" transform="translate(484.724,-31.1811)">
				<title>工作表.16</title>
				<desc>所緣空等</desc>
				<rect x="0" y="91.7087" width="73.7008" height="22.6772" class="st1"/>
				<text x="4.85" y="107.85" class="st2">所緣空等</text>			</g>
			<g id="shape17-50" transform="translate(1.73861E-13,-2.83465)">
				<title>工作表.17</title>
				<desc>3.</desc>
				<rect x="0" y="91.7087" width="22.6772" height="22.6772" class="st1"/>
				<text x="5.7" y="107.85" class="st2">3.</text>			</g>
			<g id="shape18-53" transform="translate(7.08661,-2.83465)">
				<title>工作表.18</title>
				<desc>真如等</desc>
				<rect x="0" y="91.7087" width="90.7087" height="22.6772" class="st1"/>
				<text x="5.35" y="107.85" class="st2">（真）如等</text>			</g>
			<g id="shape19-56" transform="translate(144.567,-2.83465)">
				<title>工作表.19</title>
				<desc>真如等</desc>
				<rect x="0" y="91.7087" width="56.6929" height="22.6772" class="st1"/>
				<text x="4.35" y="107.85" class="st2">真如等</text>			</g>
			<g id="shape20-59" transform="translate(257.953,-1.41732)">
				<title>工作表.20</title>
				<desc>如等</desc>
				<rect x="0" y="91.7087" width="42.5197" height="22.6772" class="st1"/>
				<text x="5.26" y="107.85" class="st2">如等</text>			</g>
			<g id="shape21-62" transform="translate(369.921,-2.83465)">
				<title>工作表.21</title>
				<desc>如來等</desc>
				<rect x="0" y="91.7087" width="56.6929" height="22.6772" class="st1"/>
				<text x="4.35" y="107.85" class="st2">如來等</text>			</g>
			<g id="shape22-65" transform="translate(484.724,-2.83465)">
				<title>工作表.22</title>
				<desc>真如等</desc>
				<rect x="0" y="91.7087" width="56.6929" height="22.6772" class="st1"/>
				<text x="4.35" y="107.85" class="st2">真如等</text>			</g>
			<g id="shape23-68" transform="translate(1.83465,114.386) rotate(-90)">
				<title>工作表.23</title>
				<path d="M0 114.39 L113.39 114.39" class="st3"/>
			</g>
			<g id="shape24-71" transform="translate(115.22,114.386) rotate(-90)">
				<title>工作表.24</title>
				<path d="M0 114.39 L113.39 114.39" class="st3"/>
			</g>
			<g id="shape25-74" transform="translate(228.606,114.386) rotate(-90)">
				<title>工作表.25</title>
				<path d="M0 114.39 L113.39 114.39" class="st3"/>
			</g>
			<g id="shape26-77" transform="translate(341.992,114.386) rotate(-90)">
				<title>工作表.26</title>
				<path d="M0 114.39 L113.39 114.39" class="st3"/>
			</g>
			<g id="shape27-80" transform="translate(2.83465,-85.0394)">
				<title>工作表.27</title>
				<path d="M0 114.39 L566.93 114.39" class="st3"/>
			</g>
			<g id="shape29-83" transform="translate(127.559,-59.5276)">
				<title>工作表.29</title>
				<desc>1.</desc>
				<rect x="0" y="91.7087" width="22.6772" height="22.6772" class="st1"/>
				<text x="5.7" y="107.85" class="st2">1.</text>			</g>
			<g id="shape30-86" transform="translate(240.945,-59.5276)">
				<title>工作表.30</title>
				<desc>1.</desc>
				<rect x="0" y="91.7087" width="22.6772" height="22.6772" class="st1"/>
				<text x="5.7" y="107.85" class="st2">1.</text>			</g>
			<g id="shape31-89" transform="translate(354.331,-59.5276)">
				<title>工作表.31</title>
				<desc>1.</desc>
				<rect x="0" y="91.7087" width="22.6772" height="22.6772" class="st1"/>
				<text x="5.7" y="107.85" class="st2">1.</text>			</g>
			<g id="shape32-92" transform="translate(467.717,-59.5276)">
				<title>工作表.32</title>
				<desc>1.</desc>
				<rect x="0" y="91.7087" width="22.6772" height="22.6772" class="st1"/>
				<text x="5.7" y="107.85" class="st2">1.</text>			</g>
			<g id="shape33-95" transform="translate(127.559,-31.1811)">
				<title>工作表.33</title>
				<desc>3.</desc>
				<rect x="0" y="91.7087" width="22.6772" height="22.6772" class="st1"/>
				<text x="5.7" y="107.85" class="st2">3.</text>			</g>
			<g id="shape34-98" transform="translate(467.717,-31.1811)">
				<title>工作表.34</title>
				<desc>2.</desc>
				<rect x="0" y="91.7087" width="22.6772" height="22.6772" class="st1"/>
				<text x="5.7" y="107.85" class="st2">2.</text>			</g>
			<g id="shape35-101" transform="translate(354.331,-2.83465)">
				<title>工作表.35</title>
				<desc>2.</desc>
				<rect x="0" y="91.7087" width="22.6772" height="22.6772" class="st1"/>
				<text x="5.7" y="107.85" class="st2">2.</text>			</g>
			<g id="shape36-104" transform="translate(127.559,-2.83465)">
				<title>工作表.36</title>
				<desc>2.</desc>
				<rect x="0" y="91.7087" width="22.6772" height="22.6772" class="st1"/>
				<text x="5.7" y="107.85" class="st2">2.</text>			</g>
			<g id="shape37-107" transform="translate(240.945,-1.13387)">
				<title>工作表.37</title>
				<desc>2.</desc>
				<rect x="0" y="91.7087" width="22.6772" height="22.6772" class="st1"/>
				<text x="5.7" y="107.85" class="st2">2.</text>			</g>
		</g>
	</g>
</svg>
