<?xml version="1.0" encoding="UTF-8" standalone="no"?>
<!DOCTYPE svg PUBLIC "-//W3C//DTD SVG 1.1//EN" "http://www.w3.org/Graphics/SVG/1.1/DTD/svg11.dtd">
<!-- 由 Microsoft Visio, SVG Export 產生 y38.0072.svg 頁-1 -->
<svg xmlns="http://www.w3.org/2000/svg" xmlns:xlink="http://www.w3.org/1999/xlink" xmlns:ev="http://www.w3.org/2001/xml-events"
		width="10.447in" height="7.0594in" viewBox="0 0 752.181 508.277" xml:space="preserve" color-interpolation-filters="sRGB"
		class="st5">
	<style type="text/css">
	<![CDATA[
		.st1 {fill:none;stroke:none;stroke-linecap:round;stroke-linejoin:round;stroke-width:0.75}
		.st2 {fill:#000000;font-family:新細明體;font-size:1.33333em}
		.st3 {stroke:#000000;stroke-dasharray:3,3;stroke-linecap:round;stroke-linejoin:round;stroke-width:1}
		.st4 {stroke:#000000;stroke-linecap:round;stroke-linejoin:round;stroke-width:1}
		.st5 {fill:none;fill-rule:evenodd;font-size:12px;overflow:visible;stroke-linecap:square;stroke-miterlimit:3}
	]]>
	</style>

	<g>
		<title>頁-1</title>
		<g id="group104-1" transform="translate(0.5,-0.375)">
			<title>工作表.104</title>
			<g id="shape1-2" transform="translate(1.19904E-14,-481.89)">
				<title>工作表.1</title>
				<desc>種種想</desc>
				<rect x="0" y="485.599" width="56.6929" height="22.6772" class="st1"/>
				<text x="4.35" y="501.74" class="st2">種種想</text>			</g>
			<g id="shape7-5" transform="translate(325.984,-418.11)">
				<title>工作表.7</title>
				<desc>內有色想</desc>
				<rect x="0" y="485.599" width="73.7008" height="22.6772" class="st1"/>
				<text x="4.85" y="501.74" class="st2">內有色想</text>			</g>
			<g id="shape8-8" transform="translate(325.984,-401.102)">
				<title>工作表.8</title>
				<desc>觀外色少</desc>
				<rect x="0" y="485.599" width="73.7008" height="22.6772" class="st1"/>
				<text x="4.85" y="501.74" class="st2">觀外色少</text>			</g>
			<g id="shape9-11" transform="translate(85.0394,-384.094)">
				<title>工作表.9</title>
				<desc>初禪</desc>
				<rect x="0" y="485.599" width="42.5197" height="22.6772" class="st1"/>
				<text x="5.26" y="501.74" class="st2">初禪</text>			</g>
			<g id="shape10-14" transform="translate(623.622,-384.094)">
				<title>工作表.10</title>
				<desc>初禪</desc>
				<rect x="0" y="485.599" width="42.5197" height="22.6772" class="st1"/>
				<text x="5.26" y="501.74" class="st2">初禪</text>			</g>
			<g id="shape11-17" transform="translate(325.984,-367.087)">
				<title>工作表.11</title>
				<desc>內有色想</desc>
				<rect x="0" y="485.599" width="73.7008" height="22.6772" class="st1"/>
				<text x="4.85" y="501.74" class="st2">內有色想</text>			</g>
			<g id="shape12-20" transform="translate(438.803,-392.598)">
				<title>工作表.12</title>
				<desc>內有色想</desc>
				<rect x="0" y="485.599" width="73.7008" height="22.6772" class="st1"/>
				<text x="4.85" y="501.74" class="st2">內有色想</text>			</g>
			<g id="shape13-23" transform="translate(437.953,-375.591)">
				<title>工作表.13</title>
				<desc>觀外色解脫</desc>
				<rect x="0" y="485.599" width="90.7087" height="22.6772" class="st1"/>
				<text x="5.35" y="501.74" class="st2">觀外色解脫</text>			</g>
			<g id="shape14-26" transform="translate(325.984,-350.079)">
				<title>工作表.14</title>
				<desc>觀外色多</desc>
				<rect x="0" y="485.599" width="73.7008" height="22.6772" class="st1"/>
				<text x="4.85" y="501.74" class="st2">觀外色多</text>			</g>
			<g id="shape15-29" transform="translate(325.984,-316.063)">
				<title>工作表.15</title>
				<desc>內無色想</desc>
				<rect x="0" y="485.599" width="73.7008" height="22.6772" class="st1"/>
				<text x="4.85" y="501.74" class="st2">內無色想</text>			</g>
			<g id="shape16-32" transform="translate(1.41732,-256.535)">
				<title>工作表.16</title>
				<desc>色</desc>
				<rect x="0" y="485.599" width="22.6772" height="22.6772" class="st1"/>
				<text x="4" y="501.74" class="st2">色</text>			</g>
			<g id="shape17-35" transform="translate(325.984,-248.031)">
				<title>工作表.17</title>
				<desc>觀外色多</desc>
				<rect x="0" y="485.599" width="73.7008" height="22.6772" class="st1"/>
				<text x="4.85" y="501.74" class="st2">觀外色多</text>			</g>
			<g id="shape18-38" transform="translate(85.0394,-198.425)">
				<title>工作表.18</title>
				<desc>三禪</desc>
				<rect x="0" y="485.599" width="42.5197" height="22.6772" class="st1"/>
				<text x="5.26" y="501.74" class="st2">三禪</text>			</g>
			<g id="shape21-41" transform="translate(9.8721E-13,-141.732)">
				<title>工作表.21</title>
				<desc>不動</desc>
				<rect x="0" y="485.599" width="42.5197" height="22.6772" class="st1"/>
				<text x="5.26" y="501.74" class="st2">不動</text>			</g>
			<g id="shape22-44" transform="translate(85.0394,-141.732)">
				<title>工作表.22</title>
				<desc>四禪</desc>
				<rect x="0" y="485.599" width="42.5197" height="22.6772" class="st1"/>
				<text x="5.26" y="501.74" class="st2">四禪</text>			</g>
			<g id="shape24-47" transform="translate(327.402,-131.811)">
				<title>工作表.24</title>
				<desc>青黃等四</desc>
				<rect x="0" y="485.599" width="104.882" height="22.6772" class="st1"/>
				<text x="4.44" y="501.74" class="st2">青黃等（四）</text>			</g>
			<g id="shape33-50" transform="translate(1.23102E-12,-56.6929)">
				<title>工作表.33</title>
				<desc>無所有</desc>
				<rect x="0" y="485.599" width="56.6929" height="22.6772" class="st1"/>
				<text x="4.35" y="501.74" class="st2">無所有</text>			</g>
			<g id="shape36-53" transform="translate(1.43485E-12,-28.3465)">
				<title>工作表.36</title>
				<desc>無相</desc>
				<rect x="0" y="485.599" width="42.5197" height="22.6772" class="st1"/>
				<text x="5.26" y="501.74" class="st2">無相</text>			</g>
			<g id="shape41-56" transform="translate(1.41732,-453.543)">
				<title>工作表.41</title>
				<desc>欲</desc>
				<rect x="0" y="485.599" width="22.6772" height="22.6772" class="st1"/>
				<text x="4" y="501.74" class="st2">欲</text>			</g>
			<g id="shape2-59" transform="translate(85.0394,-481.89)">
				<title>工作表.2</title>
				<desc>四禪</desc>
				<rect x="0" y="485.599" width="42.5197" height="22.6772" class="st1"/>
				<text x="5.26" y="501.74" class="st2">四禪</text>			</g>
			<g id="shape3-62" transform="translate(155.906,-481.89)">
				<title>工作表.3</title>
				<desc>十遍處</desc>
				<rect x="0" y="485.599" width="56.6929" height="22.6772" class="st1"/>
				<text x="4.35" y="501.74" class="st2">十遍處</text>			</g>
			<g id="shape4-65" transform="translate(325.984,-481.89)">
				<title>工作表.4</title>
				<desc>八勝處</desc>
				<rect x="0" y="485.599" width="56.6929" height="22.6772" class="st1"/>
				<text x="4.35" y="501.74" class="st2">八勝處</text>			</g>
			<g id="shape5-68" transform="translate(439.37,-481.89)">
				<title>工作表.5</title>
				<desc>八解脫</desc>
				<rect x="0" y="485.599" width="56.6929" height="22.6772" class="st1"/>
				<text x="4.35" y="501.74" class="st2">八解脫</text>			</g>
			<g id="shape6-71" transform="translate(623.622,-481.89)">
				<title>工作表.6</title>
				<desc>九次第定</desc>
				<rect x="0" y="485.599" width="73.7008" height="22.6772" class="st1"/>
				<text x="4.85" y="501.74" class="st2">九次第定</text>			</g>
			<g id="shape42-74" transform="translate(-437.41,496.938) rotate(-90)">
				<title>工作表.42</title>
				<path d="M0 508.28 L496.06 508.28" class="st3"/>
			</g>
			<g id="shape44-77" transform="translate(-366.544,355.206) rotate(-90)">
				<title>工作表.44</title>
				<path d="M0 508.28 L354.33 508.28" class="st3"/>
			</g>
			<g id="shape45-80" transform="translate(-196.466,411.899) rotate(-90)">
				<title>工作表.45</title>
				<path d="M0 508.28 L411.02 508.28" class="st3"/>
			</g>
			<g id="shape46-83" transform="translate(-68.9065,356.623) rotate(-90)">
				<title>工作表.46</title>
				<path d="M0 508.28 L355.75 508.28" class="st3"/>
			</g>
			<g id="shape43-86" transform="translate(85.0394,-282.047)">
				<title>工作表.43</title>
				<desc>二禪</desc>
				<rect x="0" y="485.599" width="42.5197" height="22.6772" class="st1"/>
				<text x="5.26" y="501.74" class="st2">二禪</text>			</g>
			<g id="shape54-89" transform="translate(325.984,-299.055)">
				<title>工作表.54</title>
				<desc>觀外色少</desc>
				<rect x="0" y="485.599" width="73.7008" height="22.6772" class="st1"/>
				<text x="4.85" y="501.74" class="st2">觀外色少</text>			</g>
			<g id="shape28-92" transform="translate(437.953,-113.386)">
				<title>工作表.28</title>
				<desc>空無邊處解脫</desc>
				<rect x="0" y="485.599" width="104.882" height="22.6772" class="st1"/>
				<text x="4.44" y="501.74" class="st2">空無邊處解脫</text>			</g>
			<g id="shape31-95" transform="translate(437.953,-85.0394)">
				<title>工作表.31</title>
				<desc>識無邊處解脫</desc>
				<rect x="0" y="485.599" width="104.882" height="22.6772" class="st1"/>
				<text x="4.44" y="501.74" class="st2">識無邊處解脫</text>			</g>
			<g id="shape34-98" transform="translate(437.953,-56.6929)">
				<title>工作表.34</title>
				<desc>無所有處解脫</desc>
				<rect x="0" y="485.599" width="104.882" height="22.6772" class="st1"/>
				<text x="4.44" y="501.74" class="st2">無所有處解脫</text>			</g>
			<g id="shape37-101" transform="translate(437.953,-28.3465)">
				<title>工作表.37</title>
				<desc>非想非非想處解脫</desc>
				<rect x="0" y="485.599" width="136.063" height="22.6772" class="st1"/>
				<text x="4.03" y="501.74" class="st2">非想非非想處解脫</text>			</g>
			<g id="shape39-104" transform="translate(437.953,0)">
				<title>工作表.39</title>
				<desc>滅受想解脫</desc>
				<rect x="0" y="485.599" width="90.7087" height="22.6772" class="st1"/>
				<text x="5.35" y="501.74" class="st2">滅受想解脫</text>			</g>
			<g id="shape56-107" transform="translate(325.984,-265.039)">
				<title>工作表.56</title>
				<desc>內無色想</desc>
				<rect x="0" y="485.599" width="73.7008" height="22.6772" class="st1"/>
				<text x="4.85" y="501.74" class="st2">內無色想</text>			</g>
			<g id="shape26-110" transform="translate(623.622,-141.732)">
				<title>工作表.26</title>
				<desc>四禪</desc>
				<rect x="0" y="485.599" width="42.5197" height="22.6772" class="st1"/>
				<text x="5.26" y="501.74" class="st2">四禪</text>			</g>
			<g id="shape29-113" transform="translate(623.622,-113.386)">
				<title>工作表.29</title>
				<desc>空無邊處定</desc>
				<rect x="0" y="485.599" width="90.7087" height="22.6772" class="st1"/>
				<text x="5.35" y="501.74" class="st2">空無邊處定</text>			</g>
			<g id="shape32-116" transform="translate(623.622,-85.0394)">
				<title>工作表.32</title>
				<desc>識無邊處定</desc>
				<rect x="0" y="485.599" width="90.7087" height="22.6772" class="st1"/>
				<text x="5.35" y="501.74" class="st2">識無邊處定</text>			</g>
			<g id="shape35-119" transform="translate(623.622,-56.6929)">
				<title>工作表.35</title>
				<desc>無所有處定</desc>
				<rect x="0" y="485.599" width="90.7087" height="22.6772" class="st1"/>
				<text x="5.35" y="501.74" class="st2">無所有處定</text>			</g>
			<g id="shape38-122" transform="translate(620.787,-28.3465)">
				<title>工作表.38</title>
				<desc>非想非非想處定</desc>
				<rect x="0" y="485.599" width="127.559" height="22.6772" class="st1"/>
				<text x="7.78" y="501.74" class="st2">非想非非想處定</text>			</g>
			<g id="shape40-125" transform="translate(623.622,-6.25278E-13)">
				<title>工作表.40</title>
				<desc>滅受想定</desc>
				<rect x="0" y="485.599" width="73.7008" height="22.6772" class="st1"/>
				<text x="4.85" y="501.74" class="st2">滅受想定</text>			</g>
			<g id="shape51-128" transform="translate(623.622,-198.425)">
				<title>工作表.51</title>
				<desc>三禪</desc>
				<rect x="0" y="485.599" width="42.5197" height="22.6772" class="st1"/>
				<text x="5.26" y="501.74" class="st2">三禪</text>			</g>
			<g id="shape52-131" transform="translate(623.622,-282.047)">
				<title>工作表.52</title>
				<desc>二禪</desc>
				<rect x="0" y="485.599" width="42.5197" height="22.6772" class="st1"/>
				<text x="5.26" y="501.74" class="st2">二禪</text>			</g>
			<g id="shape19-134" transform="translate(155.906,-170.079)">
				<title>工作表.19</title>
				<desc>地水火風遍處</desc>
				<rect x="0" y="485.599" width="104.882" height="22.6772" class="st1"/>
				<text x="4.44" y="501.74" class="st2">地水火風遍處</text>			</g>
			<g id="shape23-137" transform="translate(155.906,-141.732)">
				<title>工作表.23</title>
				<desc>青黃赤白遍處</desc>
				<rect x="0" y="485.599" width="104.882" height="22.6772" class="st1"/>
				<text x="4.44" y="501.74" class="st2">青黃赤白遍處</text>			</g>
			<g id="shape27-140" transform="translate(155.906,-113.386)">
				<title>工作表.27</title>
				<desc>空遍處</desc>
				<rect x="0" y="485.599" width="56.6929" height="22.6772" class="st1"/>
				<text x="4.35" y="501.74" class="st2">空遍處</text>			</g>
			<g id="shape30-143" transform="translate(155.906,-85.0394)">
				<title>工作表.30</title>
				<desc>識遍處</desc>
				<rect x="0" y="485.599" width="56.6929" height="22.6772" class="st1"/>
				<text x="4.35" y="501.74" class="st2">識遍處</text>			</g>
			<g id="shape20-146" transform="translate(438.803,-290.551)">
				<title>工作表.20</title>
				<desc>內無色想</desc>
				<rect x="0" y="485.599" width="73.7008" height="22.6772" class="st1"/>
				<text x="4.85" y="501.74" class="st2">內無色想</text>			</g>
			<g id="shape50-149" transform="translate(437.953,-273.543)">
				<title>工作表.50</title>
				<desc>觀外色解脫</desc>
				<rect x="0" y="485.599" width="90.7087" height="22.6772" class="st1"/>
				<text x="5.35" y="501.74" class="st2">觀外色解脫</text>			</g>
			<g id="shape57-152" transform="translate(325.984,-148.819)">
				<title>工作表.57</title>
				<desc>內無色想觀</desc>
				<rect x="0" y="485.599" width="90.7087" height="22.6772" class="st1"/>
				<text x="5.35" y="501.74" class="st2">內無色想觀</text>			</g>
			<g id="shape55-155" transform="translate(439.37,-140.315)">
				<title>工作表.55</title>
				<desc>淨解脫</desc>
				<rect x="0" y="485.599" width="56.6929" height="22.6772" class="st1"/>
				<text x="4.35" y="501.74" class="st2">淨解脫</text>			</g>
			<g id="shape25-158" transform="translate(70.8661,-39.685)">
				<title>工作表.25</title>
				<path d="M0 508.28 L368.5 508.28" class="st4"/>
			</g>
			<g id="shape48-161" transform="translate(70.8661,-68.0315)">
				<title>工作表.48</title>
				<path d="M0 508.28 L368.5 508.28" class="st4"/>
			</g>
			<g id="shape53-164" transform="translate(127.559,-209.764)">
				<title>工作表.53</title>
				<path d="M0 508.28 L481.89 508.28" class="st4"/>
			</g>
			<g id="shape58-167" transform="translate(6.39488E-14,-479.055)">
				<title>工作表.58</title>
				<path d="M0 508.28 L751.18 508.28" class="st4"/>
			</g>
			<g id="shape47-170" transform="translate(101.172,496.938) rotate(-90)">
				<title>工作表.47</title>
				<path d="M0 508.28 L496.06 508.28" class="st3"/>
			</g>
			<g id="shape49-173" transform="translate(494.806,48.6314) rotate(67.8337)">
				<title>工作表.49</title>
				<path d="M0 508.28 L123.97 508.28" class="st4"/>
			</g>
			<g id="shape59-176" transform="translate(-231.847,-4.2001) rotate(-45)">
				<title>工作表.59</title>
				<path d="M0 508.28 L20.04 508.28" class="st4"/>
			</g>
			<g id="shape60-179" transform="translate(496.063,-151.654)">
				<title>工作表.60</title>
				<path d="M0 508.28 L113.39 508.28" class="st4"/>
			</g>
			<g id="shape61-182" transform="translate(127.559,-153.071)">
				<title>工作表.61</title>
				<path d="M0 508.28 L14.17 508.28" class="st4"/>
			</g>
			<g id="shape63-185" transform="translate(56.6929,-153.071)">
				<title>工作表.63</title>
				<path d="M0 508.28 L14.17 508.28" class="st4"/>
			</g>
			<g id="shape64-188" transform="translate(141.732,-344.409)">
				<title>工作表.64</title>
				<path d="M0 508.28 L155.91 508.28" class="st4"/>
			</g>
			<g id="shape65-191" transform="translate(-453.114,65.426) rotate(-69.8637)">
				<title>工作表.65</title>
				<path d="M0 508.28 L135.86 508.28" class="st4"/>
			</g>
			<g id="shape66-194" transform="translate(617.293,-23.1936) rotate(74.4759)">
				<title>工作表.66</title>
				<path d="M0 508.28 L52.96 508.28" class="st4"/>
			</g>
			<g id="shape67-197" transform="translate(-362.175,78.8536) rotate(-74.4759)">
				<title>工作表.67</title>
				<path d="M0 508.28 L52.96 508.28" class="st4"/>
			</g>
			<g id="shape68-200" transform="translate(787.371,27.83) rotate(74.4759)">
				<title>工作表.68</title>
				<path d="M0 508.28 L52.96 508.28" class="st4"/>
			</g>
			<g id="shape69-203" transform="translate(-192.096,27.83) rotate(-74.4759)">
				<title>工作表.69</title>
				<path d="M0 508.28 L52.96 508.28" class="st4"/>
			</g>
			<g id="shape70-206" transform="translate(311.811,-96.378)">
				<title>工作表.70</title>
				<path d="M0 508.28 L127.56 508.28" class="st4"/>
			</g>
			<g id="shape71-209" transform="translate(311.811,-124.724)">
				<title>工作表.71</title>
				<path d="M0 508.28 L127.56 508.28" class="st4"/>
			</g>
			<g id="shape72-212" transform="translate(425.197,-151.654)">
				<title>工作表.72</title>
				<path d="M0 508.28 L14.17 508.28" class="st4"/>
			</g>
			<g id="shape73-215" transform="translate(524.409,-11.3386)">
				<title>工作表.73</title>
				<path d="M0 508.28 L85.04 508.28" class="st4"/>
			</g>
			<g id="shape74-218" transform="translate(422.072,-27.5815) rotate(12.5288)">
				<title>工作表.74</title>
				<path d="M0 508.28 L130.67 508.28" class="st4"/>
			</g>
			<g id="shape75-221" transform="translate(269.291,-153.071)">
				<title>工作表.75</title>
				<path d="M0 508.28 L42.52 508.28" class="st4"/>
			</g>
			<g id="shape76-224" transform="translate(552.756,-68.0315)">
				<title>工作表.76</title>
				<path d="M0 508.28 L56.69 508.28" class="st4"/>
			</g>
			<g id="shape77-227" transform="translate(552.756,-96.378)">
				<title>工作表.77</title>
				<path d="M0 508.28 L56.69 508.28" class="st4"/>
			</g>
			<g id="shape78-230" transform="translate(552.756,-124.724)">
				<title>工作表.78</title>
				<path d="M0 508.28 L56.69 508.28" class="st4"/>
			</g>
			<g id="shape79-233" transform="translate(581.102,-39.685)">
				<title>工作表.79</title>
				<path d="M0 508.28 L28.35 508.28" class="st4"/>
			</g>
			<g id="group85-236" transform="translate(-68.9065,138.355) rotate(-90)">
				<title>工作表.85</title>
				<g id="shape80-237" transform="translate(559.3,479.93) rotate(90)">
					<title>工作表.80</title>
					<path d="M0 508.28 L14.17 508.28" class="st4"/>
				</g>
				<g id="shape81-240" transform="translate(508.277,479.93) rotate(90)">
					<title>工作表.81</title>
					<path d="M0 508.28 L14.17 508.28" class="st4"/>
				</g>
				<g id="shape83-243" transform="translate(533.788,494.103) rotate(90)">
					<title>工作表.83</title>
					<path d="M0 508.28 L14.17 508.28" class="st4"/>
				</g>
				<g id="shape84-246" transform="translate(0,-14.1732)">
					<title>工作表.84</title>
					<path d="M0 508.28 L51.02 508.28" class="st4"/>
				</g>
			</g>
			<g id="group86-249" transform="translate(-68.9065,240.403) rotate(-90)">
				<title>工作表.86</title>
				<g id="shape87-250" transform="translate(559.3,479.93) rotate(90)">
					<title>工作表.87</title>
					<path d="M0 508.28 L14.17 508.28" class="st4"/>
				</g>
				<g id="shape88-253" transform="translate(508.277,479.93) rotate(90)">
					<title>工作表.88</title>
					<path d="M0 508.28 L14.17 508.28" class="st4"/>
				</g>
				<g id="shape89-256" transform="translate(533.788,494.103) rotate(90)">
					<title>工作表.89</title>
					<path d="M0 508.28 L14.17 508.28" class="st4"/>
				</g>
				<g id="shape90-259" transform="translate(0,-14.1732)">
					<title>工作表.90</title>
					<path d="M0 508.28 L51.02 508.28" class="st4"/>
				</g>
			</g>
			<g id="shape91-262" transform="translate(552.756,-293.386)">
				<title>工作表.91</title>
				<path d="M0 508.28 L56.69 508.28" class="st4"/>
			</g>
			<g id="shape92-265" transform="translate(552.756,-395.433)">
				<title>工作表.92</title>
				<path d="M0 508.28 L56.69 508.28" class="st4"/>
			</g>
			<g id="shape93-268" transform="translate(538.583,-301.89)">
				<title>工作表.93</title>
				<path d="M0 508.28 L14.17 508.28" class="st4"/>
			</g>
			<g id="shape94-271" transform="translate(538.583,-403.937)">
				<title>工作表.94</title>
				<path d="M0 508.28 L14.17 508.28" class="st4"/>
			</g>
			<g id="shape95-274" transform="translate(538.583,-386.929)">
				<title>工作表.95</title>
				<path d="M0 508.28 L14.17 508.28" class="st4"/>
			</g>
			<g id="shape96-277" transform="translate(538.583,-284.882)">
				<title>工作表.96</title>
				<path d="M0 508.28 L14.17 508.28" class="st4"/>
			</g>
			<g id="shape97-280" transform="translate(44.4793,223.395) rotate(-90)">
				<title>工作表.97</title>
				<path d="M0 508.28 L17.01 508.28" class="st4"/>
			</g>
			<g id="shape98-283" transform="translate(44.4793,121.347) rotate(-90)">
				<title>工作表.98</title>
				<path d="M0 508.28 L17.01 508.28" class="st4"/>
			</g>
			<g id="shape102-286" transform="translate(997.07,-133.997) rotate(60.9454)">
				<title>工作表.102</title>
				<path d="M0 508.28 L116.74 508.28" class="st4"/>
			</g>
			<g id="shape103-289" transform="translate(108.442,-31.9502) rotate(-60.9454)">
				<title>工作表.103</title>
				<path d="M0 508.28 L116.74 508.28" class="st4"/>
			</g>
		</g>
	</g>
</svg>
