<?xml version="1.0" encoding="UTF-8" standalone="no"?>
<!DOCTYPE svg PUBLIC "-//W3C//DTD SVG 1.0//EN" "http://www.w3.org/TR/2001/REC-SVG-20010904/DTD/svg10.dtd">
<!-- 由 Microsoft Visio 11.0, SVG Export, v1.0 產生 y38.0160.svg Page-1 -->
<svg xmlns="http://www.w3.org/2000/svg" xmlns:xlink="http://www.w3.org/1999/xlink" xmlns:ev="http://www.w3.org/2001/xml-events"
		xmlns:v="http://schemas.microsoft.com/visio/2003/SVGExtensions/" width="9.1892in" height="2.92588in"
		viewBox="0 0 661.622 210.663" xml:space="preserve" color-interpolation-filters="sRGB" class="st5">
	<v:documentProperties v:langID="1028" v:metric="true" v:viewMarkup="false">
		<v:userDefs>
			<v:ud v:nameU="msvSubprocessMaster" v:prompt="" v:val="VT4(Box)"/>
			<v:ud v:nameU="msvNoAutoConnect" v:val="VT0(1):26"/>
		</v:userDefs>
	</v:documentProperties>

	<style type="text/css">
	<![CDATA[
		.st1 {fill:none;stroke:none;stroke-linecap:round;stroke-linejoin:round;stroke-width:0.75}
		.st2 {fill:#000000;font-family:新細明體;font-size:1.33333em}
		.st3 {stroke:#000000;stroke-linecap:round;stroke-linejoin:round;stroke-width:1}
		.st4 {stroke:#ffffff;stroke-linecap:round;stroke-linejoin:round;stroke-opacity:0;stroke-width:1}
		.st5 {fill:none;fill-rule:evenodd;font-size:12px;overflow:visible;stroke-linecap:square;stroke-miterlimit:3}
	]]>
	</style>

	<g v:mID="0" v:index="1" v:groupContext="foregroundPage">
		<title>頁-1</title>
		<v:pageProperties v:drawingScale="0.0393701" v:pageScale="0.0393701" v:drawingUnits="24" v:shadowOffsetX="8.50394"
				v:shadowOffsetY="-8.50394"/>
		<g id="group41-1" transform="translate(431.959,191.913) rotate(-90)" v:mID="41" v:groupContext="group">
			<title>工作表.41</title>
			<g id="shape1-2" v:mID="1" v:groupContext="shape" transform="translate(329.719,-339.258) rotate(90)">
				<title>工作表.1</title>
				<desc>A</desc>
				<v:textBlock v:margins="rect(4,4,4,4)" v:tabSpace="42.5197"/>
				<v:textRect cx="11.3386" cy="199.325" width="22.68" height="22.6772"/>
				<rect x="0" y="187.986" width="22.6772" height="22.6772" class="st1"/>
				<text x="5.92" y="204.13" class="st2" v:langID="1028"><v:paragraph v:horizAlign="1"/><v:tabList/>A</text>			</g>
			<g id="shape2-5" v:mID="2" v:groupContext="shape" transform="translate(329.719,-225.872) rotate(90)">
				<title>工作表.2</title>
				<desc>B</desc>
				<v:textBlock v:margins="rect(4,4,4,4)" v:tabSpace="42.5197"/>
				<v:textRect cx="11.3386" cy="199.325" width="22.68" height="22.6772"/>
				<rect x="0" y="187.986" width="22.6772" height="22.6772" class="st1"/>
				<text x="6.32" y="204.13" class="st2" v:langID="1033"><v:paragraph v:horizAlign="1"/><v:tabList/>B</text>			</g>
			<g id="shape3-8" v:mID="3" v:groupContext="shape" transform="translate(329.719,-112.486) rotate(90)">
				<title>工作表.3</title>
				<desc>C</desc>
				<v:textBlock v:margins="rect(4,4,4,4)" v:tabSpace="42.5197"/>
				<v:textRect cx="11.3386" cy="199.325" width="22.68" height="22.6772"/>
				<rect x="0" y="187.986" width="22.6772" height="22.6772" class="st1"/>
				<text x="6.32" y="204.13" class="st2" v:langID="1033"><v:paragraph v:horizAlign="1"/><v:tabList/>C</text>			</g>
			<g id="shape4-11" v:mID="4" v:groupContext="shape" transform="translate(329.719,0.899606) rotate(90)">
				<title>工作表.4</title>
				<desc>D</desc>
				<v:textBlock v:margins="rect(4,4,4,4)" v:tabSpace="42.5197"/>
				<v:textRect cx="11.3386" cy="199.325" width="22.68" height="22.6772"/>
				<rect x="0" y="187.986" width="22.6772" height="22.6772" class="st1"/>
				<text x="5.92" y="204.13" class="st2" v:langID="1033"><v:paragraph v:horizAlign="1"/><v:tabList/>D</text>			</g>
			<g id="shape5-14" v:mID="5" v:groupContext="shape" transform="translate(329.719,114.285) rotate(90)">
				<title>工作表.5</title>
				<desc>E</desc>
				<v:textBlock v:margins="rect(4,4,4,4)" v:tabSpace="42.5197"/>
				<v:textRect cx="11.3386" cy="199.325" width="22.68" height="22.6772"/>
				<rect x="0" y="187.986" width="22.6772" height="22.6772" class="st1"/>
				<text x="6.74" y="204.13" class="st2" v:langID="1033"><v:paragraph v:horizAlign="1"/><v:tabList/>E</text>			</g>
			<g id="shape6-17" v:mID="6" v:groupContext="shape" transform="translate(301.372,-387.447) rotate(90)">
				<title>工作表.6</title>
				<desc>1.</desc>
				<v:textBlock v:margins="rect(4,4,4,4)" v:tabSpace="42.5197"/>
				<v:textRect cx="11.3386" cy="199.325" width="22.68" height="22.6772"/>
				<rect x="0" y="187.986" width="22.6772" height="22.6772" class="st1"/>
				<text x="5.7" y="204.13" class="st2" v:langID="1028"><v:paragraph v:horizAlign="1"/><v:tabList/>1.</text>			</g>
			<g id="shape7-20" v:mID="7" v:groupContext="shape" transform="translate(284.364,-363.352) rotate(90)">
				<title>工作表.7</title>
				<desc>十八空</desc>
				<v:textBlock v:margins="rect(4,4,4,4)" v:tabSpace="42.5197"/>
				<v:textRect cx="28.3465" cy="182.317" width="56.7" height="56.6929"/>
				<rect x="0" y="153.97" width="56.6929" height="56.6929" class="st1"/>
				<text x="4.35" y="187.12" class="st2" v:langID="1028"><v:paragraph v:horizAlign="1"/><v:tabList/>十八空</text>			</g>
			<g id="shape8-23" v:mID="8" v:groupContext="shape" transform="translate(284.364,-242.88) rotate(90)">
				<title>工作表.8</title>
				<desc>二十空</desc>
				<v:textBlock v:margins="rect(4,4,4,4)" v:tabSpace="42.5197"/>
				<v:textRect cx="28.3465" cy="182.317" width="56.7" height="56.6929"/>
				<rect x="0" y="153.97" width="56.6929" height="56.6929" class="st1"/>
				<text x="4.35" y="187.12" class="st2" v:langID="1028"><v:paragraph v:horizAlign="1"/><v:tabList/>二十空</text>			</g>
			<g id="shape9-26" v:mID="9" v:groupContext="shape" transform="translate(284.364,-129.494) rotate(90)">
				<title>工作表.9</title>
				<desc>十四空</desc>
				<v:textBlock v:margins="rect(4,4,4,4)" v:tabSpace="42.5197"/>
				<v:textRect cx="28.3465" cy="182.317" width="56.7" height="56.6929"/>
				<rect x="0" y="153.97" width="56.6929" height="56.6929" class="st1"/>
				<text x="4.35" y="187.12" class="st2" v:langID="1028"><v:paragraph v:horizAlign="1"/><v:tabList/>十四空</text>			</g>
			<g id="shape10-29" v:mID="10" v:groupContext="shape" transform="translate(275.86,-17.5256) rotate(90)">
				<title>工作表.10</title>
				<desc>二十一空</desc>
				<v:textBlock v:margins="rect(4,4,4,4)" v:tabSpace="42.5197"/>
				<v:textRect cx="36.8504" cy="173.813" width="73.71" height="73.7008"/>
				<rect x="0" y="136.963" width="73.7008" height="73.7008" class="st1"/>
				<text x="4.85" y="178.61" class="st2" v:langID="1028"><v:paragraph v:horizAlign="1"/><v:tabList/>二十一空</text>			</g>
			<g id="shape11-32" v:mID="11" v:groupContext="shape" transform="translate(284.364,97.2776) rotate(90)">
				<title>工作表.11</title>
				<desc>十六空</desc>
				<v:textBlock v:margins="rect(4,4,4,4)" v:tabSpace="42.5197"/>
				<v:textRect cx="28.3465" cy="182.317" width="56.7" height="56.6929"/>
				<rect x="0" y="153.97" width="56.6929" height="56.6929" class="st1"/>
				<text x="4.35" y="187.12" class="st2" v:langID="1028"><v:paragraph v:horizAlign="1"/><v:tabList/>十六空</text>			</g>
			<g id="shape12-35" v:mID="12" v:groupContext="shape" transform="translate(273.026,-387.447) rotate(90)">
				<title>工作表.12</title>
				<desc>2.</desc>
				<v:textBlock v:margins="rect(4,4,4,4)" v:tabSpace="42.5197"/>
				<v:textRect cx="11.3386" cy="199.325" width="22.68" height="22.6772"/>
				<rect x="0" y="187.986" width="22.6772" height="22.6772" class="st1"/>
				<text x="5.7" y="204.13" class="st2" v:langID="1028"><v:paragraph v:horizAlign="1"/><v:tabList/>2.</text>			</g>
			<g id="shape13-38" v:mID="13" v:groupContext="shape" transform="translate(263.104,-364.77) rotate(90)">
				<title>工作表.13</title>
				<desc>四緣</desc>
				<v:textBlock v:margins="rect(4,4,4,4)" v:tabSpace="42.5197"/>
				<v:textRect cx="21.2598" cy="189.404" width="42.52" height="42.5197"/>
				<rect x="0" y="168.144" width="42.5197" height="42.5197" class="st1"/>
				<text x="5.26" y="194.2" class="st2" v:langID="1028"><v:paragraph v:horizAlign="1"/><v:tabList/>四緣</text>			</g>
			<g id="shape14-41" v:mID="14" v:groupContext="shape" transform="translate(244.679,80.2697) rotate(90)">
				<title>工作表.14</title>
				<desc>3.</desc>
				<v:textBlock v:margins="rect(4,4,4,4)" v:tabSpace="42.5197"/>
				<v:textRect cx="11.3386" cy="199.325" width="22.68" height="22.6772"/>
				<rect x="0" y="187.986" width="22.6772" height="22.6772" class="st1"/>
				<text x="5.7" y="204.13" class="st2" v:langID="1028"><v:paragraph v:horizAlign="1"/><v:tabList/>3.</text>			</g>
			<g id="shape15-44" v:mID="15" v:groupContext="shape" transform="translate(263.104,-244.297) rotate(90)">
				<title>工作表.15</title>
				<desc>四緣</desc>
				<v:textBlock v:margins="rect(4,4,4,4)" v:tabSpace="42.5197"/>
				<v:textRect cx="21.2598" cy="189.404" width="42.52" height="42.5197"/>
				<rect x="0" y="168.144" width="42.5197" height="42.5197" class="st1"/>
				<text x="5.26" y="194.2" class="st2" v:langID="1028"><v:paragraph v:horizAlign="1"/><v:tabList/>四緣</text>			</g>
			<g id="shape16-47" v:mID="16" v:groupContext="shape" transform="translate(247.514,97.2776) rotate(90)">
				<title>工作表.16</title>
				<desc>所緣空等</desc>
				<v:textBlock v:margins="rect(4,4,4,4)" v:tabSpace="42.5197"/>
				<v:textRect cx="36.8504" cy="173.813" width="73.71" height="73.7008"/>
				<rect x="0" y="136.963" width="73.7008" height="73.7008" class="st1"/>
				<text x="4.85" y="178.61" class="st2" v:langID="1028"><v:paragraph v:horizAlign="1"/><v:tabList/>所緣空等</text>			</g>
			<g id="shape17-50" v:mID="17" v:groupContext="shape" transform="translate(244.679,-387.447) rotate(90)">
				<title>工作表.17</title>
				<desc>3.</desc>
				<v:textBlock v:margins="rect(4,4,4,4)" v:tabSpace="42.5197"/>
				<v:textRect cx="11.3386" cy="199.325" width="22.68" height="22.6772"/>
				<rect x="0" y="187.986" width="22.6772" height="22.6772" class="st1"/>
				<text x="5.7" y="204.13" class="st2" v:langID="1028"><v:paragraph v:horizAlign="1"/><v:tabList/>3.</text>			</g>
			<g id="shape18-53" v:mID="18" v:groupContext="shape" transform="translate(210.663,-380.36) rotate(90)">
				<title>工作表.18</title>
				<desc>真如等</desc>
				<v:textBlock v:margins="rect(4,4,4,4)" v:tabSpace="42.5197"/>
				<v:textRect cx="45.3543" cy="165.309" width="90.71" height="90.7087"/>
				<rect x="0" y="119.955" width="90.7087" height="90.7087" class="st1"/>
				<text x="5.35" y="170.11" class="st2" v:langID="1028"><v:paragraph v:horizAlign="1"/><v:tabList/>（真）如等</text>			</g>
			<g id="shape19-56" v:mID="19" v:groupContext="shape" transform="translate(227.671,-242.88) rotate(90)">
				<title>工作表.19</title>
				<desc>真如等</desc>
				<v:textBlock v:margins="rect(4,4,4,4)" v:tabSpace="42.5197"/>
				<v:textRect cx="28.3465" cy="182.317" width="56.7" height="56.6929"/>
				<rect x="0" y="153.97" width="56.6929" height="56.6929" class="st1"/>
				<text x="4.35" y="187.12" class="st2" v:langID="1028"><v:paragraph v:horizAlign="1"/><v:tabList/>真如等</text>			</g>
			<g id="shape20-59" v:mID="20" v:groupContext="shape" transform="translate(233.341,-129.494) rotate(90)">
				<title>工作表.20</title>
				<desc>如等</desc>
				<v:textBlock v:margins="rect(4,4,4,4)" v:tabSpace="42.5197"/>
				<v:textRect cx="21.2598" cy="189.404" width="42.52" height="42.5197"/>
				<rect x="0" y="168.144" width="42.5197" height="42.5197" class="st1"/>
				<text x="5.26" y="194.2" class="st2" v:langID="1028"><v:paragraph v:horizAlign="1"/><v:tabList/>如等</text>			</g>
			<g id="shape21-62" v:mID="21" v:groupContext="shape" transform="translate(227.671,-17.5256) rotate(90)">
				<title>工作表.21</title>
				<desc>如來等</desc>
				<v:textBlock v:margins="rect(4,4,4,4)" v:tabSpace="42.5197"/>
				<v:textRect cx="28.3465" cy="182.317" width="56.7" height="56.6929"/>
				<rect x="0" y="153.97" width="56.6929" height="56.6929" class="st1"/>
				<text x="4.35" y="187.12" class="st2" v:langID="1028"><v:paragraph v:horizAlign="1"/><v:tabList/>如來等</text>			</g>
			<g id="shape22-65" v:mID="22" v:groupContext="shape" transform="translate(227.671,97.2776) rotate(90)">
				<title>工作表.22</title>
				<desc>真如等</desc>
				<v:textBlock v:margins="rect(4,4,4,4)" v:tabSpace="42.5197"/>
				<v:textRect cx="28.3465" cy="182.317" width="56.7" height="56.6929"/>
				<rect x="0" y="153.97" width="56.6929" height="56.6929" class="st1"/>
				<text x="4.35" y="187.12" class="st2" v:langID="1028"><v:paragraph v:horizAlign="1"/><v:tabList/>真如等</text>			</g>
			<g id="shape23-68" v:mID="23" v:groupContext="shape" transform="translate(31.1811,-481.89)">
				<title>工作表.23</title>
				<path d="M0 210.66 L113.39 210.66" class="st3"/>
			</g>
			<g id="shape24-71" v:mID="24" v:groupContext="shape" transform="translate(31.1811,-368.504)">
				<title>工作表.24</title>
				<path d="M0 210.66 L113.39 210.66" class="st3"/>
			</g>
			<g id="shape25-74" v:mID="25" v:groupContext="shape" transform="translate(31.1811,-255.118)">
				<title>工作表.25</title>
				<path d="M0 210.66 L113.39 210.66" class="st3"/>
			</g>
			<g id="shape26-77" v:mID="26" v:groupContext="shape" transform="translate(31.1811,-141.732)">
				<title>工作表.26</title>
				<path d="M0 210.66 L113.39 210.66" class="st3"/>
			</g>
			<g id="shape27-80" v:mID="27" v:groupContext="shape" transform="translate(326.884,-384.612) rotate(90)">
				<title>工作表.27</title>
				<path d="M0 210.66 L566.93 210.66" class="st3"/>
			</g>
			<g id="shape29-83" v:mID="29" v:groupContext="shape" transform="translate(301.372,-259.888) rotate(90)">
				<title>工作表.29</title>
				<desc>1.</desc>
				<v:textBlock v:margins="rect(4,4,4,4)" v:tabSpace="42.5197"/>
				<v:textRect cx="11.3386" cy="199.325" width="22.68" height="22.6772"/>
				<rect x="0" y="187.986" width="22.6772" height="22.6772" class="st1"/>
				<text x="5.7" y="204.13" class="st2" v:langID="1028"><v:paragraph v:horizAlign="1"/><v:tabList/>1.</text>			</g>
			<g id="shape30-86" v:mID="30" v:groupContext="shape" transform="translate(301.372,-146.502) rotate(90)">
				<title>工作表.30</title>
				<desc>1.</desc>
				<v:textBlock v:margins="rect(4,4,4,4)" v:tabSpace="42.5197"/>
				<v:textRect cx="11.3386" cy="199.325" width="22.68" height="22.6772"/>
				<rect x="0" y="187.986" width="22.6772" height="22.6772" class="st1"/>
				<text x="5.7" y="204.13" class="st2" v:langID="1028"><v:paragraph v:horizAlign="1"/><v:tabList/>1.</text>			</g>
			<g id="shape31-89" v:mID="31" v:groupContext="shape" transform="translate(304.207,-33.1161) rotate(90)">
				<title>工作表.31</title>
				<desc>1.</desc>
				<v:textBlock v:margins="rect(4,4,4,4)" v:tabSpace="42.5197"/>
				<v:textRect cx="11.3386" cy="199.325" width="22.68" height="22.6772"/>
				<rect x="0" y="187.986" width="22.6772" height="22.6772" class="st1"/>
				<text x="5.7" y="204.13" class="st2" v:langID="1028"><v:paragraph v:horizAlign="1"/><v:tabList/>1.</text>			</g>
			<g id="shape32-92" v:mID="32" v:groupContext="shape" transform="translate(301.372,80.2697) rotate(90)">
				<title>工作表.32</title>
				<desc>1.</desc>
				<v:textBlock v:margins="rect(4,4,4,4)" v:tabSpace="42.5197"/>
				<v:textRect cx="11.3386" cy="199.325" width="22.68" height="22.6772"/>
				<rect x="0" y="187.986" width="22.6772" height="22.6772" class="st1"/>
				<text x="5.7" y="204.13" class="st2" v:langID="1028"><v:paragraph v:horizAlign="1"/><v:tabList/>1.</text>			</g>
			<g id="shape33-95" v:mID="33" v:groupContext="shape" transform="translate(273.026,-259.888) rotate(90)">
				<title>工作表.33</title>
				<desc>3.</desc>
				<v:textBlock v:margins="rect(4,4,4,4)" v:tabSpace="42.5197"/>
				<v:textRect cx="11.3386" cy="199.325" width="22.68" height="22.6772"/>
				<rect x="0" y="187.986" width="22.6772" height="22.6772" class="st1"/>
				<text x="5.7" y="204.13" class="st2" v:langID="1028"><v:paragraph v:horizAlign="1"/><v:tabList/>3.</text>			</g>
			<g id="shape34-98" v:mID="34" v:groupContext="shape" transform="translate(273.026,80.2697) rotate(90)">
				<title>工作表.34</title>
				<desc>2.</desc>
				<v:textBlock v:margins="rect(4,4,4,4)" v:tabSpace="42.5197"/>
				<v:textRect cx="11.3386" cy="199.325" width="22.68" height="22.6772"/>
				<rect x="0" y="187.986" width="22.6772" height="22.6772" class="st1"/>
				<text x="5.7" y="204.13" class="st2" v:langID="1028"><v:paragraph v:horizAlign="1"/><v:tabList/>2.</text>			</g>
			<g id="shape35-101" v:mID="35" v:groupContext="shape" transform="translate(244.679,-33.1161) rotate(90)">
				<title>工作表.35</title>
				<desc>2.</desc>
				<v:textBlock v:margins="rect(4,4,4,4)" v:tabSpace="42.5197"/>
				<v:textRect cx="11.3386" cy="199.325" width="22.68" height="22.6772"/>
				<rect x="0" y="187.986" width="22.6772" height="22.6772" class="st1"/>
				<text x="5.7" y="204.13" class="st2" v:langID="1028"><v:paragraph v:horizAlign="1"/><v:tabList/>2.</text>			</g>
			<g id="shape36-104" v:mID="36" v:groupContext="shape" transform="translate(244.679,-259.888) rotate(90)">
				<title>工作表.36</title>
				<desc>2.</desc>
				<v:textBlock v:margins="rect(4,4,4,4)" v:tabSpace="42.5197"/>
				<v:textRect cx="11.3386" cy="199.325" width="22.68" height="22.6772"/>
				<rect x="0" y="187.986" width="22.6772" height="22.6772" class="st1"/>
				<text x="5.7" y="204.13" class="st2" v:langID="1028"><v:paragraph v:horizAlign="1"/><v:tabList/>2.</text>			</g>
			<g id="shape37-107" v:mID="37" v:groupContext="shape" transform="translate(244.679,-146.502) rotate(90)">
				<title>工作表.37</title>
				<desc>2.</desc>
				<v:textBlock v:margins="rect(4,4,4,4)" v:tabSpace="42.5197"/>
				<v:textRect cx="11.3386" cy="199.325" width="22.68" height="22.6772"/>
				<rect x="0" y="187.986" width="22.6772" height="22.6772" class="st1"/>
				<text x="5.7" y="204.13" class="st2" v:langID="1028"><v:paragraph v:horizAlign="1"/><v:tabList/>2.</text>			</g>
			<g id="shape28-110" v:mID="28" v:groupContext="shape" transform="translate(383.577,-412.959) rotate(90)">
				<title>工作表.28</title>
				<path d="M0 210.66 L623.62 210.66" class="st4"/>
			</g>
			<g id="shape38-113" v:mID="38" v:groupContext="shape" transform="translate(213.498,-412.959) rotate(90)">
				<title>工作表.38</title>
				<path d="M0 210.66 L623.62 210.66" class="st4"/>
			</g>
			<g id="shape39-116" v:mID="39" v:groupContext="shape" transform="translate(2.83465,1.22213E-012)">
				<title>工作表.39</title>
				<path d="M0 210.66 L170.08 210.66" class="st4"/>
			</g>
			<g id="shape40-119" v:mID="40" v:groupContext="shape" transform="translate(2.83465,-623.622)">
				<title>工作表.40</title>
				<path d="M0 210.66 L170.08 210.66" class="st4"/>
			</g>
		</g>
	</g>
</svg>
