<?xml version="1.0" encoding="UTF-8" standalone="no"?>
<!DOCTYPE svg PUBLIC "-//W3C//DTD SVG 1.0//EN" "http://www.w3.org/TR/2001/REC-SVG-20010904/DTD/svg10.dtd">
<!-- 由 Microsoft Visio 11.0, SVG Export, v1.0 產生 y38.0069.svg Page-1 -->
<svg xmlns="http://www.w3.org/2000/svg" xmlns:xlink="http://www.w3.org/1999/xlink" xmlns:ev="http://www.w3.org/2001/xml-events"
		xmlns:v="http://schemas.microsoft.com/visio/2003/SVGExtensions/" width="6.59077in" height="8.5558in"
		viewBox="0 0 474.535 616.018" xml:space="preserve" color-interpolation-filters="sRGB" class="st5">
	<v:documentProperties v:langID="1028" v:metric="true" v:viewMarkup="false">
		<v:userDefs>
			<v:ud v:nameU="msvSubprocessMaster" v:prompt="" v:val="VT4(Box)"/>
			<v:ud v:nameU="msvNoAutoConnect" v:val="VT0(1):26"/>
		</v:userDefs>
	</v:documentProperties>

	<style type="text/css">
	<![CDATA[
		.st1 {fill:none;stroke:none;stroke-linecap:round;stroke-linejoin:round;stroke-width:0.75}
		.st2 {fill:#000000;font-family:新細明體;font-size:1.33333em}
		.st3 {stroke:#000000;stroke-linecap:round;stroke-linejoin:round;stroke-width:1}
		.st4 {stroke:#ffffff;stroke-linecap:round;stroke-linejoin:round;stroke-opacity:0;stroke-width:1}
		.st5 {fill:none;fill-rule:evenodd;font-size:12px;overflow:visible;stroke-linecap:square;stroke-miterlimit:3}
	]]>
	</style>

	<g v:mID="0" v:index="1" v:groupContext="foregroundPage">
		<title>頁-1</title>
		<v:pageProperties v:drawingScale="0.0393701" v:pageScale="0.0393701" v:drawingUnits="24" v:shadowOffsetX="8.50394"
				v:shadowOffsetY="-8.50394"/>
		<g id="group53-1" transform="translate(-160.482,597.268) rotate(-90)" v:mID="53" v:groupContext="group">
			<title>工作表.53</title>
			<g id="shape2-2" v:mID="2" v:groupContext="shape" transform="translate(1123.42,392.081) rotate(90)">
				<title>工作表.2</title>
				<desc>十遍處</desc>
				<v:textBlock v:margins="rect(4,4,4,4)" v:tabSpace="42.5197"/>
				<v:textRect cx="28.3465" cy="587.671" width="56.7" height="56.6929"/>
				<rect x="0" y="559.325" width="56.6929" height="56.6929" class="st1"/>
				<text x="4.35" y="592.47" class="st2" v:langID="1028"><v:paragraph v:horizAlign="1"/><v:tabList/>十遍處</text>			</g>
			<g id="shape10-5" v:mID="10" v:groupContext="shape" transform="translate(981.687,377.907) rotate(90)">
				<title>工作表.10</title>
				<desc>地遍處</desc>
				<v:textBlock v:margins="rect(4,4,4,4)" v:tabSpace="42.5197"/>
				<v:textRect cx="28.3465" cy="587.671" width="56.7" height="56.6929"/>
				<rect x="0" y="559.325" width="56.6929" height="56.6929" class="st1"/>
				<text x="4.35" y="592.47" class="st2" v:langID="1028"><v:paragraph v:horizAlign="1"/><v:tabList/>地遍處</text>			</g>
			<g id="shape11-8" v:mID="11" v:groupContext="shape" transform="translate(953.341,377.907) rotate(90)">
				<title>工作表.11</title>
				<desc>水遍處</desc>
				<v:textBlock v:margins="rect(4,4,4,4)" v:tabSpace="42.5197"/>
				<v:textRect cx="28.3465" cy="587.671" width="56.7" height="56.6929"/>
				<rect x="0" y="559.325" width="56.6929" height="56.6929" class="st1"/>
				<text x="4.35" y="592.47" class="st2" v:langID="1028"><v:paragraph v:horizAlign="1"/><v:tabList/>水遍處</text>			</g>
			<g id="shape12-11" v:mID="12" v:groupContext="shape" transform="translate(924.994,377.907) rotate(90)">
				<title>工作表.12</title>
				<desc>火遍處</desc>
				<v:textBlock v:margins="rect(4,4,4,4)" v:tabSpace="42.5197"/>
				<v:textRect cx="28.3465" cy="587.671" width="56.7" height="56.6929"/>
				<rect x="0" y="559.325" width="56.6929" height="56.6929" class="st1"/>
				<text x="4.35" y="592.47" class="st2" v:langID="1028"><v:paragraph v:horizAlign="1"/><v:tabList/>火遍處</text>			</g>
			<g id="shape13-14" v:mID="13" v:groupContext="shape" transform="translate(896.648,377.907) rotate(90)">
				<title>工作表.13</title>
				<desc>風遍處</desc>
				<v:textBlock v:margins="rect(4,4,4,4)" v:tabSpace="42.5197"/>
				<v:textRect cx="28.3465" cy="587.671" width="56.7" height="56.6929"/>
				<rect x="0" y="559.325" width="56.6929" height="56.6929" class="st1"/>
				<text x="4.35" y="592.47" class="st2" v:langID="1028"><v:paragraph v:horizAlign="1"/><v:tabList/>風遍處</text>			</g>
			<g id="shape15-17" v:mID="15" v:groupContext="shape" transform="translate(868.301,377.907) rotate(90)">
				<title>工作表.15</title>
				<desc>青遍處</desc>
				<v:textBlock v:margins="rect(4,4,4,4)" v:tabSpace="42.5197"/>
				<v:textRect cx="28.3465" cy="587.671" width="56.7" height="56.6929"/>
				<rect x="0" y="559.325" width="56.6929" height="56.6929" class="st1"/>
				<text x="4.35" y="592.47" class="st2" v:langID="1028"><v:paragraph v:horizAlign="1"/><v:tabList/>青遍處</text>			</g>
			<g id="shape17-20" v:mID="17" v:groupContext="shape" transform="translate(839.955,377.907) rotate(90)">
				<title>工作表.17</title>
				<desc>黃遍處</desc>
				<v:textBlock v:margins="rect(4,4,4,4)" v:tabSpace="42.5197"/>
				<v:textRect cx="28.3465" cy="587.671" width="56.7" height="56.6929"/>
				<rect x="0" y="559.325" width="56.6929" height="56.6929" class="st1"/>
				<text x="4.35" y="592.47" class="st2" v:langID="1028"><v:paragraph v:horizAlign="1"/><v:tabList/>黃遍處 </text>			</g>
			<g id="shape19-23" v:mID="19" v:groupContext="shape" transform="translate(811.608,377.907) rotate(90)">
				<title>工作表.19</title>
				<desc>赤遍處</desc>
				<v:textBlock v:margins="rect(4,4,4,4)" v:tabSpace="42.5197"/>
				<v:textRect cx="28.3465" cy="587.671" width="56.7" height="56.6929"/>
				<rect x="0" y="559.325" width="56.6929" height="56.6929" class="st1"/>
				<text x="4.35" y="592.47" class="st2" v:langID="1028"><v:paragraph v:horizAlign="1"/><v:tabList/>赤遍處</text>			</g>
			<g id="shape22-26" v:mID="22" v:groupContext="shape" transform="translate(783.262,377.907) rotate(90)">
				<title>工作表.22</title>
				<desc>白遍處</desc>
				<v:textBlock v:margins="rect(4,4,4,4)" v:tabSpace="42.5197"/>
				<v:textRect cx="28.3465" cy="587.671" width="56.7" height="56.6929"/>
				<rect x="0" y="559.325" width="56.6929" height="56.6929" class="st1"/>
				<text x="4.35" y="592.47" class="st2" v:langID="1028"><v:paragraph v:horizAlign="1"/><v:tabList/>白遍處</text>			</g>
			<g id="shape23-29" v:mID="23" v:groupContext="shape" transform="translate(754.915,377.907) rotate(90)">
				<title>工作表.23</title>
				<desc>空遍處</desc>
				<v:textBlock v:margins="rect(4,4,4,4)" v:tabSpace="42.5197"/>
				<v:textRect cx="28.3465" cy="587.671" width="56.7" height="56.6929"/>
				<rect x="0" y="559.325" width="56.6929" height="56.6929" class="st1"/>
				<text x="4.35" y="592.47" class="st2" v:langID="1028"><v:paragraph v:horizAlign="1"/><v:tabList/>空遍處</text>			</g>
			<g id="shape25-32" v:mID="25" v:groupContext="shape" transform="translate(726.569,377.907) rotate(90)">
				<title>工作表.25</title>
				<desc>識遍處</desc>
				<v:textBlock v:margins="rect(4,4,4,4)" v:tabSpace="42.5197"/>
				<v:textRect cx="28.3465" cy="587.671" width="56.7" height="56.6929"/>
				<rect x="0" y="559.325" width="56.6929" height="56.6929" class="st1"/>
				<text x="4.35" y="592.47" class="st2" v:langID="1028"><v:paragraph v:horizAlign="1"/><v:tabList/>識遍處</text>			</g>
			<g id="shape30-35" v:mID="30" v:groupContext="shape" transform="translate(39.685,-238.11)">
				<title>工作表.30</title>
				<path d="M0 616.02 L510.24 616.02" class="st3"/>
			</g>
			<g id="shape31-38" v:mID="31" v:groupContext="shape" transform="translate(39.685,-138.898)">
				<title>工作表.31</title>
				<path d="M0 616.02 L510.24 616.02" class="st3"/>
			</g>
			<g id="shape32-41" v:mID="32" v:groupContext="shape" transform="translate(854.128,448.774) rotate(90)">
				<title>工作表.32</title>
				<path d="M0 616.02 L28.35 616.02" class="st3"/>
			</g>
			<g id="shape33-44" v:mID="33" v:groupContext="shape" transform="translate(754.537,434.6) rotate(90)">
				<title>工作表.33</title>
				<path d="M0 616.02 L42.52 616.02" class="st3"/>
			</g>
			<g id="shape3-47" v:mID="3" v:groupContext="shape" transform="translate(1123.42,505.467) rotate(90)">
				<title>工作表.3</title>
				<desc>八解脫</desc>
				<v:textBlock v:margins="rect(4,4,4,4)" v:tabSpace="42.5197"/>
				<v:textRect cx="28.3465" cy="587.671" width="56.7" height="56.6929"/>
				<rect x="0" y="559.325" width="56.6929" height="56.6929" class="st1"/>
				<text x="4.35" y="592.47" class="st2" v:langID="1028"><v:paragraph v:horizAlign="1"/><v:tabList/>八解脫</text>			</g>
			<g id="shape6-50" v:mID="6" v:groupContext="shape" transform="translate(1045.47,470.033) rotate(90)">
				<title>工作表.6</title>
				<desc>內有色想觀外色</desc>
				<v:textBlock v:margins="rect(4,4,4,4)" v:tabSpace="42.5197"/>
				<v:textRect cx="63.7795" cy="552.238" width="127.56" height="127.559"/>
				<rect x="0" y="488.459" width="127.559" height="127.559" class="st1"/>
				<text x="7.78" y="557.04" class="st2" v:langID="1028"><v:paragraph v:horizAlign="1"/><v:tabList/>內有色想觀外色</text>			</g>
			<g id="shape9-53" v:mID="9" v:groupContext="shape" transform="translate(988.774,470.033) rotate(90)">
				<title>工作表.9</title>
				<desc>內無色想觀外色</desc>
				<v:textBlock v:margins="rect(4,4,4,4)" v:tabSpace="42.5197"/>
				<v:textRect cx="63.7795" cy="552.238" width="127.56" height="127.559"/>
				<rect x="0" y="488.459" width="127.559" height="127.559" class="st1"/>
				<text x="7.78" y="557.04" class="st2" v:langID="1028"><v:paragraph v:horizAlign="1"/><v:tabList/>內無色想觀外色</text>			</g>
			<g id="shape20-56" v:mID="20" v:groupContext="shape" transform="translate(801.687,474.285) rotate(90)">
				<title>工作表.20</title>
				<desc>淨解脫身作證</desc>
				<v:textBlock v:margins="rect(4,4,4,4)" v:tabSpace="42.5197"/>
				<v:textRect cx="52.4409" cy="563.577" width="104.89" height="104.882"/>
				<rect x="0" y="511.136" width="104.882" height="104.882" class="st1"/>
				<text x="4.44" y="568.38" class="st2" v:langID="1028"><v:paragraph v:horizAlign="1"/><v:tabList/>淨解脫身作證</text>			</g>
			<g id="shape24-59" v:mID="24" v:groupContext="shape" transform="translate(746.411,472.868) rotate(90)">
				<title>工作表.24</title>
				<desc>空無邊處</desc>
				<v:textBlock v:margins="rect(4,4,4,4)" v:tabSpace="42.5197"/>
				<v:textRect cx="36.8504" cy="579.167" width="73.71" height="73.7008"/>
				<rect x="0" y="542.317" width="73.7008" height="73.7008" class="st1"/>
				<text x="4.85" y="583.97" class="st2" v:langID="1028"><v:paragraph v:horizAlign="1"/><v:tabList/>空無邊處</text>			</g>
			<g id="shape26-62" v:mID="26" v:groupContext="shape" transform="translate(718.065,472.868) rotate(90)">
				<title>工作表.26</title>
				<desc>識無邊處</desc>
				<v:textBlock v:margins="rect(4,4,4,4)" v:tabSpace="42.5197"/>
				<v:textRect cx="36.8504" cy="579.167" width="73.71" height="73.7008"/>
				<rect x="0" y="542.317" width="73.7008" height="73.7008" class="st1"/>
				<text x="4.85" y="583.97" class="st2" v:langID="1028"><v:paragraph v:horizAlign="1"/><v:tabList/>識無邊處</text>			</g>
			<g id="shape27-65" v:mID="27" v:groupContext="shape" transform="translate(689.719,472.868) rotate(90)">
				<title>工作表.27</title>
				<desc>無所有處</desc>
				<v:textBlock v:margins="rect(4,4,4,4)" v:tabSpace="42.5197"/>
				<v:textRect cx="36.8504" cy="579.167" width="73.71" height="73.7008"/>
				<rect x="0" y="542.317" width="73.7008" height="73.7008" class="st1"/>
				<text x="4.85" y="583.97" class="st2" v:langID="1028"><v:paragraph v:horizAlign="1"/><v:tabList/>無所有處</text>			</g>
			<g id="shape28-68" v:mID="28" v:groupContext="shape" transform="translate(645.781,472.868) rotate(90)">
				<title>工作表.28</title>
				<desc>非想非非想處</desc>
				<v:textBlock v:margins="rect(4,4,4,4)" v:tabSpace="42.5197"/>
				<v:textRect cx="52.4409" cy="563.577" width="104.89" height="104.882"/>
				<rect x="0" y="511.136" width="104.882" height="104.882" class="st1"/>
				<text x="4.44" y="568.38" class="st2" v:langID="1028"><v:paragraph v:horizAlign="1"/><v:tabList/>非想非非想處</text>			</g>
			<g id="shape29-71" v:mID="29" v:groupContext="shape" transform="translate(616.018,472.868) rotate(90)">
				<title>工作表.29</title>
				<desc>想受滅身作證</desc>
				<v:textBlock v:margins="rect(4,4,4,4)" v:tabSpace="42.5197"/>
				<v:textRect cx="52.4409" cy="563.577" width="104.89" height="104.882"/>
				<rect x="0" y="511.136" width="104.882" height="104.882" class="st1"/>
				<text x="4.44" y="568.38" class="st2" v:langID="1028"><v:paragraph v:horizAlign="1"/><v:tabList/>想受滅身作證</text>			</g>
			<g id="shape34-74" v:mID="34" v:groupContext="shape" transform="translate(783.262,433.656) rotate(90)">
				<title>工作表.34</title>
				<path d="M0 616.02 L42.52 616.02" class="st3"/>
			</g>
			<g id="shape35-77" v:mID="35" v:groupContext="shape" transform="translate(896.648,335.388) rotate(90)">
				<title>工作表.35</title>
				<path d="M0 616.02 L42.52 616.02" class="st3"/>
			</g>
			<g id="shape1-80" v:mID="1" v:groupContext="shape" transform="translate(1123.42,227.671) rotate(90)">
				<title>工作表.1</title>
				<desc>八勝處</desc>
				<v:textBlock v:margins="rect(4,4,4,4)" v:tabSpace="42.5197"/>
				<v:textRect cx="28.3465" cy="587.671" width="56.7" height="56.6929"/>
				<rect x="0" y="559.325" width="56.6929" height="56.6929" class="st1"/>
				<text x="4.35" y="592.47" class="st2" v:langID="1028"><v:paragraph v:horizAlign="1"/><v:tabList/>八勝處</text>			</g>
			<g id="shape4-83" v:mID="4" v:groupContext="shape" transform="translate(1055.39,196.49) rotate(90)">
				<title>工作表.4</title>
				<desc>內有色想觀外色少</desc>
				<v:textBlock v:margins="rect(4,4,4,4)" v:tabSpace="42.5197"/>
				<v:textRect cx="68.0315" cy="547.986" width="136.07" height="136.063"/>
				<rect x="0" y="479.955" width="136.063" height="136.063" class="st1"/>
				<text x="4.03" y="552.79" class="st2" v:langID="1028"><v:paragraph v:horizAlign="1"/><v:tabList/>內有色想觀外色少</text>			</g>
			<g id="shape5-86" v:mID="5" v:groupContext="shape" transform="translate(1027.04,196.49) rotate(90)">
				<title>工作表.5</title>
				<desc>內有色想觀外色多</desc>
				<v:textBlock v:margins="rect(4,4,4,4)" v:tabSpace="42.5197"/>
				<v:textRect cx="68.0315" cy="547.986" width="136.07" height="136.063"/>
				<rect x="0" y="479.955" width="136.063" height="136.063" class="st1"/>
				<text x="4.03" y="552.79" class="st2" v:langID="1028"><v:paragraph v:horizAlign="1"/><v:tabList/>內有色想觀外色多</text>			</g>
			<g id="shape7-89" v:mID="7" v:groupContext="shape" transform="translate(998.695,196.49) rotate(90)">
				<title>工作表.7</title>
				<desc>內無色想觀外色少</desc>
				<v:textBlock v:margins="rect(4,4,4,4)" v:tabSpace="42.5197"/>
				<v:textRect cx="68.0315" cy="547.986" width="136.07" height="136.063"/>
				<rect x="0" y="479.955" width="136.063" height="136.063" class="st1"/>
				<text x="4.03" y="552.79" class="st2" v:langID="1028"><v:paragraph v:horizAlign="1"/><v:tabList/>內無色想觀外色少</text>			</g>
			<g id="shape8-92" v:mID="8" v:groupContext="shape" transform="translate(970.348,196.49) rotate(90)">
				<title>工作表.8</title>
				<desc>內無色想觀外色多</desc>
				<v:textBlock v:margins="rect(4,4,4,4)" v:tabSpace="42.5197"/>
				<v:textRect cx="68.0315" cy="547.986" width="136.07" height="136.063"/>
				<rect x="0" y="479.955" width="136.063" height="136.063" class="st1"/>
				<text x="4.03" y="552.79" class="st2" v:langID="1028"><v:paragraph v:horizAlign="1"/><v:tabList/>內無色想觀外色多</text>			</g>
			<g id="shape14-95" v:mID="14" v:groupContext="shape" transform="translate(831.451,196.49) rotate(90)">
				<title>工作表.14</title>
				<desc>內無色想觀外色青</desc>
				<v:textBlock v:margins="rect(4,4,4,4)" v:tabSpace="42.5197"/>
				<v:textRect cx="68.0315" cy="547.986" width="136.07" height="136.063"/>
				<rect x="0" y="479.955" width="136.063" height="136.063" class="st1"/>
				<text x="4.03" y="552.79" class="st2" v:langID="1028"><v:paragraph v:horizAlign="1"/><v:tabList/>內無色想觀外色青</text>			</g>
			<g id="shape16-98" v:mID="16" v:groupContext="shape" transform="translate(800.27,196.49) rotate(90)">
				<title>工作表.16</title>
				<desc>內無色想觀外色黃</desc>
				<v:textBlock v:margins="rect(4,4,4,4)" v:tabSpace="42.5197"/>
				<v:textRect cx="68.0315" cy="547.986" width="136.07" height="136.063"/>
				<rect x="0" y="479.955" width="136.063" height="136.063" class="st1"/>
				<text x="4.03" y="552.79" class="st2" v:langID="1028"><v:paragraph v:horizAlign="1"/><v:tabList/>內無色想觀外色黃</text>			</g>
			<g id="shape18-101" v:mID="18" v:groupContext="shape" transform="translate(771.923,196.49) rotate(90)">
				<title>工作表.18</title>
				<desc>內無色想觀外色赤</desc>
				<v:textBlock v:margins="rect(4,4,4,4)" v:tabSpace="42.5197"/>
				<v:textRect cx="68.0315" cy="547.986" width="136.07" height="136.063"/>
				<rect x="0" y="479.955" width="136.063" height="136.063" class="st1"/>
				<text x="4.03" y="552.79" class="st2" v:langID="1028"><v:paragraph v:horizAlign="1"/><v:tabList/>內無色想觀外色赤</text>			</g>
			<g id="shape21-104" v:mID="21" v:groupContext="shape" transform="translate(743.577,196.49) rotate(90)">
				<title>工作表.21</title>
				<desc>內無色想觀外色白</desc>
				<v:textBlock v:margins="rect(4,4,4,4)" v:tabSpace="42.5197"/>
				<v:textRect cx="68.0315" cy="547.986" width="136.07" height="136.063"/>
				<rect x="0" y="479.955" width="136.063" height="136.063" class="st1"/>
				<text x="4.03" y="552.79" class="st2" v:langID="1028"><v:paragraph v:horizAlign="1"/><v:tabList/>內無色想觀外色白</text>			</g>
			<g id="shape36-107" v:mID="36" v:groupContext="shape" transform="translate(811.608,335.388) rotate(90)">
				<title>工作表.36</title>
				<path d="M0 616.02 L42.52 616.02" class="st3"/>
			</g>
			<g id="shape37-110" v:mID="37" v:groupContext="shape" transform="translate(839.955,335.388) rotate(90)">
				<title>工作表.37</title>
				<path d="M0 616.02 L42.52 616.02" class="st3"/>
			</g>
			<g id="shape38-113" v:mID="38" v:groupContext="shape" transform="translate(868.301,335.388) rotate(90)">
				<title>工作表.38</title>
				<path d="M0 616.02 L42.52 616.02" class="st3"/>
			</g>
			<g id="shape39-116" v:mID="39" v:groupContext="shape" transform="translate(1052.55,356.648) rotate(90)">
				<title>工作表.39</title>
				<path d="M0 616.02 L120.47 616.02" class="st3"/>
			</g>
			<g id="shape40-119" v:mID="40" v:groupContext="shape" transform="translate(1109.25,356.648) rotate(90)">
				<title>工作表.40</title>
				<path d="M0 616.02 L120.47 616.02" class="st3"/>
			</g>
			<g id="shape41-122" v:mID="41" v:groupContext="shape" transform="translate(934.92,-6.31735) rotate(56.3099)">
				<title>工作表.41</title>
				<path d="M0 616.02 L25.55 616.02" class="st3"/>
			</g>
			<g id="shape42-125" v:mID="42" v:groupContext="shape" transform="translate(991.613,-6.31735) rotate(56.3099)">
				<title>工作表.42</title>
				<path d="M0 616.02 L25.55 616.02" class="st3"/>
			</g>
			<g id="shape43-128" v:mID="43" v:groupContext="shape" transform="translate(963.266,677.093) rotate(123.69)">
				<title>工作表.43</title>
				<path d="M0 616.02 L25.55 616.02" class="st3"/>
			</g>
			<g id="shape44-131" v:mID="44" v:groupContext="shape" transform="translate(1019.96,677.093) rotate(123.69)">
				<title>工作表.44</title>
				<path d="M0 616.02 L25.55 616.02" class="st3"/>
			</g>
			<g id="shape45-134" v:mID="45" v:groupContext="shape" transform="translate(1137.59,193.656) rotate(90)">
				<title>工作表.45</title>
				<path d="M0 616.02 L396.85 616.02" class="st3"/>
			</g>
			<g id="shape46-137" v:mID="46" v:groupContext="shape" transform="translate(811.608,434.6) rotate(90)">
				<title>工作表.46</title>
				<path d="M0 616.02 L14.17 616.02" class="st3"/>
			</g>
			<g id="shape47-140" v:mID="47" v:groupContext="shape" transform="translate(896.648,434.6) rotate(90)">
				<title>工作表.47</title>
				<path d="M0 616.02 L14.17 616.02" class="st3"/>
			</g>
			<g id="shape48-143" v:mID="48" v:groupContext="shape" transform="translate(195.591,-167.244)">
				<title>工作表.48</title>
				<path d="M0 616.02 L85.04 616.02" class="st3"/>
			</g>
			<g id="shape49-146" v:mID="49" v:groupContext="shape" transform="translate(11.3386,-436.535)">
				<title>工作表.49</title>
				<path d="M0 616.02 L566.93 616.02" class="st4"/>
			</g>
			<g id="shape50-149" v:mID="50" v:groupContext="shape" transform="translate(11.3386,0)">
				<title>工作表.50</title>
				<path d="M0 616.02 L566.93 616.02" class="st4"/>
			</g>
			<g id="shape51-152" v:mID="51" v:groupContext="shape" transform="translate(1194.29,179.482) rotate(90)">
				<title>工作表.51</title>
				<path d="M0 616.02 L436.54 616.02" class="st4"/>
			</g>
			<g id="shape52-155" v:mID="52" v:groupContext="shape" transform="translate(627.356,179.482) rotate(90)">
				<title>工作表.52</title>
				<path d="M0 616.02 L436.54 616.02" class="st4"/>
			</g>
		</g>
	</g>
</svg>
