<?xml version="1.0" encoding="UTF-8" standalone="no"?>
<!DOCTYPE svg PUBLIC "-//W3C//DTD SVG 1.0//EN" "http://www.w3.org/TR/2001/REC-SVG-20010904/DTD/svg10.dtd">
<!-- 由 Microsoft Visio 11.0, SVG Export, v1.0 產生 y38.0014.svg Page-1 -->
<svg xmlns="http://www.w3.org/2000/svg" xmlns:xlink="http://www.w3.org/1999/xlink" xmlns:ev="http://www.w3.org/2001/xml-events"
		xmlns:v="http://schemas.microsoft.com/visio/2003/SVGExtensions/" width="5.89786in" height="3.56715in"
		viewBox="0 0 424.646 256.835" xml:space="preserve" color-interpolation-filters="sRGB" class="st5">
	<v:documentProperties v:langID="1028" v:metric="true" v:viewMarkup="false">
		<v:userDefs>
			<v:ud v:nameU="msvSubprocessMaster" v:prompt="" v:val="VT4(Box)"/>
			<v:ud v:nameU="msvNoAutoConnect" v:val="VT0(1):26"/>
		</v:userDefs>
	</v:documentProperties>

	<style type="text/css">
	<![CDATA[
		.st1 {fill:none;stroke:none;stroke-linecap:round;stroke-linejoin:round;stroke-width:0.75}
		.st2 {fill:#000000;font-family:新細明體;font-size:1.33333em}
		.st3 {stroke:#000000;stroke-linecap:round;stroke-linejoin:round;stroke-width:1}
		.st4 {stroke:#000000;stroke-linecap:round;stroke-linejoin:round;stroke-opacity:0;stroke-width:1}
		.st5 {fill:none;fill-rule:evenodd;font-size:12px;overflow:visible;stroke-linecap:square;stroke-miterlimit:3}
	]]>
	</style>

	<g v:mID="0" v:index="1" v:groupContext="foregroundPage">
		<title>頁-1</title>
		<v:pageProperties v:drawingScale="0.0393701" v:pageScale="0.0393701" v:drawingUnits="24" v:shadowOffsetX="8.50394"
				v:shadowOffsetY="-8.50394"/>
		<g id="shape1-1" v:mID="1" v:groupContext="shape" transform="translate(24.9528,-171.22)">
			<title>工作表.1</title>
			<desc>知苦集</desc>
			<v:textBlock v:margins="rect(4,4,4,4)" v:tabSpace="42.5197"/>
			<v:textRect cx="28.063" cy="228.772" width="56.13" height="56.126"/>
			<rect x="0" y="200.709" width="56.126" height="56.126" class="st1"/>
			<text x="4.06" y="233.57" class="st2" v:langID="1028"><v:paragraph v:horizAlign="1"/><v:tabList/>知苦集</text>		</g>
		<g id="shape2-4" v:mID="2" v:groupContext="shape" transform="translate(135.787,-171.22)">
			<title>工作表.2</title>
			<desc>知苦集</desc>
			<v:textBlock v:margins="rect(4,4,4,4)" v:tabSpace="42.5197"/>
			<v:textRect cx="28.063" cy="228.772" width="56.13" height="56.126"/>
			<rect x="0" y="200.709" width="56.126" height="56.126" class="st1"/>
			<text x="4.06" y="233.57" class="st2" v:langID="1028"><v:paragraph v:horizAlign="1"/><v:tabList/>知苦集</text>		</g>
		<g id="shape5-7" v:mID="5" v:groupContext="shape" transform="translate(24.9528,-128.701)">
			<title>工作表.5</title>
			<desc>知苦滅</desc>
			<v:textBlock v:margins="rect(4,4,4,4)" v:tabSpace="42.5197"/>
			<v:textRect cx="28.063" cy="228.772" width="56.13" height="56.126"/>
			<rect x="0" y="200.709" width="56.126" height="56.126" class="st1"/>
			<text x="4.06" y="233.57" class="st2" v:langID="1028"><v:paragraph v:horizAlign="1"/><v:tabList/>知苦滅</text>		</g>
		<g id="shape6-10" v:mID="6" v:groupContext="shape" transform="translate(231.598,-136.638)">
			<title>工作表.6</title>
			<desc>知滅</desc>
			<v:textBlock v:margins="rect(4,4,4,4)" v:tabSpace="42.5197"/>
			<v:textRect cx="20.126" cy="236.709" width="40.26" height="40.252"/>
			<rect x="0" y="216.583" width="40.252" height="40.252" class="st1"/>
			<text x="4.13" y="241.51" class="st2" v:langID="1028"><v:paragraph v:horizAlign="1"/><v:tabList/>知滅</text>		</g>
		<g id="shape7-13" v:mID="7" v:groupContext="shape" transform="translate(295.661,-108.291)">
			<title>工作表.7</title>
			<desc>知道</desc>
			<v:textBlock v:margins="rect(4,4,4,4)" v:tabSpace="42.5197"/>
			<v:textRect cx="20.126" cy="236.709" width="40.26" height="40.252"/>
			<rect x="0" y="216.583" width="40.252" height="40.252" class="st1"/>
			<text x="4.13" y="241.51" class="st2" v:langID="1028"><v:paragraph v:horizAlign="1"/><v:tabList/>知道</text>		</g>
		<g id="shape11-16" v:mID="11" v:groupContext="shape" transform="translate(135.787,-128.701)">
			<title>工作表.11</title>
			<desc>知苦滅</desc>
			<v:textBlock v:margins="rect(4,4,4,4)" v:tabSpace="42.5197"/>
			<v:textRect cx="28.063" cy="228.772" width="56.13" height="56.126"/>
			<rect x="0" y="200.709" width="56.126" height="56.126" class="st1"/>
			<text x="4.06" y="233.57" class="st2" v:langID="1028"><v:paragraph v:horizAlign="1"/><v:tabList/>知苦滅</text>		</g>
		<g id="shape3-19" v:mID="3" v:groupContext="shape" transform="translate(231.598,-193.331)">
			<title>工作表.3</title>
			<desc>知苦</desc>
			<v:textBlock v:margins="rect(4,4,4,4)" v:tabSpace="42.5197"/>
			<v:textRect cx="20.126" cy="236.709" width="40.26" height="40.252"/>
			<rect x="0" y="216.583" width="40.252" height="40.252" class="st1"/>
			<text x="4.13" y="241.51" class="st2" v:langID="1028"><v:paragraph v:horizAlign="1"/><v:tabList/>知苦</text>		</g>
		<g id="shape4-22" v:mID="4" v:groupContext="shape" transform="translate(231.598,-164.984)">
			<title>工作表.4</title>
			<desc>知集</desc>
			<v:textBlock v:margins="rect(4,4,4,4)" v:tabSpace="42.5197"/>
			<v:textRect cx="20.126" cy="236.709" width="40.26" height="40.252"/>
			<rect x="0" y="216.583" width="40.252" height="40.252" class="st1"/>
			<text x="4.13" y="241.51" class="st2" v:langID="1028"><v:paragraph v:horizAlign="1"/><v:tabList/>知集</text>		</g>
		<g id="shape14-25" v:mID="14" v:groupContext="shape" transform="translate(295.661,-193.331)">
			<title>工作表.14</title>
			<desc>知苦</desc>
			<v:textBlock v:margins="rect(4,4,4,4)" v:tabSpace="42.5197"/>
			<v:textRect cx="20.126" cy="236.709" width="40.26" height="40.252"/>
			<rect x="0" y="216.583" width="40.252" height="40.252" class="st1"/>
			<text x="4.13" y="241.51" class="st2" v:langID="1028"><v:paragraph v:horizAlign="1"/><v:tabList/>知苦</text>		</g>
		<g id="shape15-28" v:mID="15" v:groupContext="shape" transform="translate(295.661,-164.984)">
			<title>工作表.15</title>
			<desc>知集</desc>
			<v:textBlock v:margins="rect(4,4,4,4)" v:tabSpace="42.5197"/>
			<v:textRect cx="20.126" cy="236.709" width="40.26" height="40.252"/>
			<rect x="0" y="216.583" width="40.252" height="40.252" class="st1"/>
			<text x="4.13" y="241.51" class="st2" v:langID="1028"><v:paragraph v:horizAlign="1"/><v:tabList/>知集</text>		</g>
		<g id="shape17-31" v:mID="17" v:groupContext="shape" transform="translate(359.724,-193.331)">
			<title>工作表.17</title>
			<desc>知苦</desc>
			<v:textBlock v:margins="rect(4,4,4,4)" v:tabSpace="42.5197"/>
			<v:textRect cx="20.126" cy="236.709" width="40.26" height="40.252"/>
			<rect x="0" y="216.583" width="40.252" height="40.252" class="st1"/>
			<text x="4.13" y="241.51" class="st2" v:langID="1028"><v:paragraph v:horizAlign="1"/><v:tabList/>知苦</text>		</g>
		<g id="shape18-34" v:mID="18" v:groupContext="shape" transform="translate(359.724,-164.984)">
			<title>工作表.18</title>
			<desc>知集</desc>
			<v:textBlock v:margins="rect(4,4,4,4)" v:tabSpace="42.5197"/>
			<v:textRect cx="20.126" cy="236.709" width="40.26" height="40.252"/>
			<rect x="0" y="216.583" width="40.252" height="40.252" class="st1"/>
			<text x="4.13" y="241.51" class="st2" v:langID="1028"><v:paragraph v:horizAlign="1"/><v:tabList/>知集</text>		</g>
		<g id="shape13-37" v:mID="13" v:groupContext="shape" transform="translate(359.724,-136.638)">
			<title>工作表.13</title>
			<desc>知滅</desc>
			<v:textBlock v:margins="rect(4,4,4,4)" v:tabSpace="42.5197"/>
			<v:textRect cx="20.126" cy="236.709" width="40.26" height="40.252"/>
			<rect x="0" y="216.583" width="40.252" height="40.252" class="st1"/>
			<text x="4.13" y="241.51" class="st2" v:langID="1028"><v:paragraph v:horizAlign="1"/><v:tabList/>知滅</text>		</g>
		<g id="shape16-40" v:mID="16" v:groupContext="shape" transform="translate(295.661,-136.638)">
			<title>工作表.16</title>
			<desc>知滅</desc>
			<v:textBlock v:margins="rect(4,4,4,4)" v:tabSpace="42.5197"/>
			<v:textRect cx="20.126" cy="236.709" width="40.26" height="40.252"/>
			<rect x="0" y="216.583" width="40.252" height="40.252" class="st1"/>
			<text x="4.13" y="241.51" class="st2" v:langID="1028"><v:paragraph v:horizAlign="1"/><v:tabList/>知滅</text>		</g>
		<g id="shape12-43" v:mID="12" v:groupContext="shape" transform="translate(359.724,-108.291)">
			<title>工作表.12</title>
			<desc>知道</desc>
			<v:textBlock v:margins="rect(4,4,4,4)" v:tabSpace="42.5197"/>
			<v:textRect cx="20.126" cy="236.709" width="40.26" height="40.252"/>
			<rect x="0" y="216.583" width="40.252" height="40.252" class="st1"/>
			<text x="4.13" y="241.51" class="st2" v:langID="1028"><v:paragraph v:horizAlign="1"/><v:tabList/>知道</text>		</g>
		<g id="shape8-46" v:mID="8" v:groupContext="shape" transform="translate(72.5748,-79.9449)">
			<title>工作表.8</title>
			<desc>知味</desc>
			<v:textBlock v:margins="rect(4,4,4,4)" v:tabSpace="42.5197"/>
			<v:textRect cx="20.126" cy="236.709" width="40.26" height="40.252"/>
			<rect x="0" y="216.583" width="40.252" height="40.252" class="st1"/>
			<text x="4.13" y="241.51" class="st2" v:langID="1028"><v:paragraph v:horizAlign="1"/><v:tabList/>知味</text>		</g>
		<g id="shape9-49" v:mID="9" v:groupContext="shape" transform="translate(72.5748,-51.5984)">
			<title>工作表.9</title>
			<desc>知患</desc>
			<v:textBlock v:margins="rect(4,4,4,4)" v:tabSpace="42.5197"/>
			<v:textRect cx="20.126" cy="236.709" width="40.26" height="40.252"/>
			<rect x="0" y="216.583" width="40.252" height="40.252" class="st1"/>
			<text x="4.13" y="241.51" class="st2" v:langID="1028"><v:paragraph v:horizAlign="1"/><v:tabList/>知患</text>		</g>
		<g id="shape10-52" v:mID="10" v:groupContext="shape" transform="translate(72.5748,-23.252)">
			<title>工作表.10</title>
			<desc>知離</desc>
			<v:textBlock v:margins="rect(4,4,4,4)" v:tabSpace="42.5197"/>
			<v:textRect cx="20.126" cy="236.709" width="40.26" height="40.252"/>
			<rect x="0" y="216.583" width="40.252" height="40.252" class="st1"/>
			<text x="4.13" y="241.51" class="st2" v:langID="1028"><v:paragraph v:horizAlign="1"/><v:tabList/>知離</text>		</g>
		<g id="shape21-55" v:mID="21" v:groupContext="shape" transform="translate(135.787,-79.9449)">
			<title>工作表.21</title>
			<desc>知味</desc>
			<v:textBlock v:margins="rect(4,4,4,4)" v:tabSpace="42.5197"/>
			<v:textRect cx="20.126" cy="236.709" width="40.26" height="40.252"/>
			<rect x="0" y="216.583" width="40.252" height="40.252" class="st1"/>
			<text x="4.13" y="241.51" class="st2" v:langID="1028"><v:paragraph v:horizAlign="1"/><v:tabList/>知味</text>		</g>
		<g id="shape22-58" v:mID="22" v:groupContext="shape" transform="translate(135.787,-51.5984)">
			<title>工作表.22</title>
			<desc>知患</desc>
			<v:textBlock v:margins="rect(4,4,4,4)" v:tabSpace="42.5197"/>
			<v:textRect cx="20.126" cy="236.709" width="40.26" height="40.252"/>
			<rect x="0" y="216.583" width="40.252" height="40.252" class="st1"/>
			<text x="4.13" y="241.51" class="st2" v:langID="1028"><v:paragraph v:horizAlign="1"/><v:tabList/>知患</text>		</g>
		<g id="shape23-61" v:mID="23" v:groupContext="shape" transform="translate(135.787,-23.252)">
			<title>工作表.23</title>
			<desc>知離</desc>
			<v:textBlock v:margins="rect(4,4,4,4)" v:tabSpace="42.5197"/>
			<v:textRect cx="20.126" cy="236.709" width="40.26" height="40.252"/>
			<rect x="0" y="216.583" width="40.252" height="40.252" class="st1"/>
			<text x="4.13" y="241.51" class="st2" v:langID="1028"><v:paragraph v:horizAlign="1"/><v:tabList/>知離</text>		</g>
		<g id="shape25-64" v:mID="25" v:groupContext="shape" transform="translate(359.724,-79.9449)">
			<title>工作表.25</title>
			<desc>知味</desc>
			<v:textBlock v:margins="rect(4,4,4,4)" v:tabSpace="42.5197"/>
			<v:textRect cx="20.126" cy="236.709" width="40.26" height="40.252"/>
			<rect x="0" y="216.583" width="40.252" height="40.252" class="st1"/>
			<text x="4.13" y="241.51" class="st2" v:langID="1028"><v:paragraph v:horizAlign="1"/><v:tabList/>知味</text>		</g>
		<g id="shape26-67" v:mID="26" v:groupContext="shape" transform="translate(359.724,-51.5984)">
			<title>工作表.26</title>
			<desc>知患</desc>
			<v:textBlock v:margins="rect(4,4,4,4)" v:tabSpace="42.5197"/>
			<v:textRect cx="20.126" cy="236.709" width="40.26" height="40.252"/>
			<rect x="0" y="216.583" width="40.252" height="40.252" class="st1"/>
			<text x="4.13" y="241.51" class="st2" v:langID="1028"><v:paragraph v:horizAlign="1"/><v:tabList/>知患</text>		</g>
		<g id="shape27-70" v:mID="27" v:groupContext="shape" transform="translate(359.724,-23.252)">
			<title>工作表.27</title>
			<desc>知離</desc>
			<v:textBlock v:margins="rect(4,4,4,4)" v:tabSpace="42.5197"/>
			<v:textRect cx="20.126" cy="236.709" width="40.26" height="40.252"/>
			<rect x="0" y="216.583" width="40.252" height="40.252" class="st1"/>
			<text x="4.13" y="241.51" class="st2" v:langID="1028"><v:paragraph v:horizAlign="1"/><v:tabList/>知離</text>		</g>
		<g id="shape19-73" v:mID="19" v:groupContext="shape" transform="translate(78.5276,-199.283)">
			<title>工作表.19</title>
			<path d="M0 256.83 L59.53 256.83" class="st3"/>
		</g>
		<g id="shape20-76" v:mID="20" v:groupContext="shape" transform="translate(78.5276,-156.764)">
			<title>工作表.20</title>
			<path d="M0 256.83 L59.53 256.83" class="st3"/>
		</g>
		<g id="shape24-79" v:mID="24" v:groupContext="shape" transform="translate(190.496,-156.764)">
			<title>工作表.24</title>
			<path d="M0 256.83 L46.77 256.83" class="st3"/>
		</g>
		<g id="shape28-82" v:mID="28" v:groupContext="shape" transform="translate(366.707,-151.444) rotate(35.5377)">
			<title>工作表.28</title>
			<path d="M0 256.83 L24.38 256.83" class="st3"/>
		</g>
		<g id="shape29-85" v:mID="29" v:groupContext="shape" transform="translate(68.1431,-151.444) rotate(-35.5377)">
			<title>工作表.29</title>
			<path d="M0 256.83 L24.38 256.83" class="st3"/>
		</g>
		<g id="shape30-88" v:mID="30" v:groupContext="shape" transform="translate(268.449,-156.764)">
			<title>工作表.30</title>
			<path d="M0 256.83 L30.33 256.83" class="st3"/>
		</g>
		<g id="shape31-91" v:mID="31" v:groupContext="shape" transform="translate(268.449,-185.11)">
			<title>工作表.31</title>
			<path d="M0 256.83 L30.33 256.83" class="st3"/>
		</g>
		<g id="shape32-94" v:mID="32" v:groupContext="shape" transform="translate(268.449,-213.457)">
			<title>工作表.32</title>
			<path d="M0 256.83 L30.33 256.83" class="st3"/>
		</g>
		<g id="shape33-97" v:mID="33" v:groupContext="shape" transform="translate(333.646,-128.417)">
			<title>工作表.33</title>
			<path d="M0 256.83 L30.33 256.83" class="st3"/>
		</g>
		<g id="shape34-100" v:mID="34" v:groupContext="shape" transform="translate(173.488,-43.378)">
			<title>工作表.34</title>
			<path d="M0 256.83 L190.49 256.83" class="st3"/>
		</g>
		<g id="shape35-103" v:mID="35" v:groupContext="shape" transform="translate(173.488,-71.7244)">
			<title>工作表.35</title>
			<path d="M0 256.83 L190.49 256.83" class="st3"/>
		</g>
		<g id="shape36-106" v:mID="36" v:groupContext="shape" transform="translate(173.488,-100.071)">
			<title>工作表.36</title>
			<path d="M0 256.83 L190.49 256.83" class="st3"/>
		</g>
		<g id="shape37-109" v:mID="37" v:groupContext="shape" transform="translate(333.646,-156.764)">
			<title>工作表.37</title>
			<path d="M0 256.83 L30.33 256.83" class="st3"/>
		</g>
		<g id="shape38-112" v:mID="38" v:groupContext="shape" transform="translate(333.646,-185.11)">
			<title>工作表.38</title>
			<path d="M0 256.83 L30.33 256.83" class="st3"/>
		</g>
		<g id="shape39-115" v:mID="39" v:groupContext="shape" transform="translate(333.646,-213.457)">
			<title>工作表.39</title>
			<path d="M0 256.83 L30.33 256.83" class="st3"/>
		</g>
		<g id="shape40-118" v:mID="40" v:groupContext="shape" transform="translate(109.709,-43.378)">
			<title>工作表.40</title>
			<path d="M0 256.83 L30.33 256.83" class="st3"/>
		</g>
		<g id="shape41-121" v:mID="41" v:groupContext="shape" transform="translate(109.709,-71.7244)">
			<title>工作表.41</title>
			<path d="M0 256.83 L30.33 256.83" class="st3"/>
		</g>
		<g id="shape42-124" v:mID="42" v:groupContext="shape" transform="translate(109.709,-100.071)">
			<title>工作表.42</title>
			<path d="M0 256.83 L30.33 256.83" class="st3"/>
		</g>
		<g id="shape47-127" v:mID="47" v:groupContext="shape" transform="translate(190.496,-199.283)">
			<title>工作表.47</title>
			<path d="M0 256.83 L26.93 256.83" class="st3"/>
		</g>
		<g id="group48-130" transform="translate(148.811,237.835) rotate(-90)" v:mID="48" v:groupContext="group">
			<title>工作表.48</title>
			<g id="shape43-131" v:mID="43" v:groupContext="shape" transform="translate(475.669,-129.528) rotate(90)">
				<title>工作表.43</title>
				<path d="M0 256.83 L386.36 256.83" class="st4"/>
			</g>
			<g id="shape44-134" v:mID="44" v:groupContext="shape" transform="translate(256.835,-129.528) rotate(90)">
				<title>工作表.44</title>
				<path d="M0 256.83 L386.36 256.83" class="st4"/>
			</g>
			<g id="shape45-137" v:mID="45" v:groupContext="shape" transform="translate(-0.332687,-386.362) rotate(-0.0742173)">
				<title>工作表.45</title>
				<path d="M0 256.83 L218.83 256.83" class="st4"/>
			</g>
			<g id="shape46-140" v:mID="46" v:groupContext="shape" transform="translate(0.283465,-5.68434E-014)">
				<title>工作表.46</title>
				<path d="M0 256.83 L218.55 256.83" class="st4"/>
			</g>
		</g>
	</g>
</svg>
