<?xml version="1.0" encoding="UTF-8" standalone="no"?>
<!DOCTYPE svg PUBLIC "-//W3C//DTD SVG 1.0//EN" "http://www.w3.org/TR/2001/REC-SVG-20010904/DTD/svg10.dtd">
<!-- 由 Microsoft Visio 11.0, SVG Export, v1.0 產生 y20.0108.svg Page-1 -->
<svg xmlns="http://www.w3.org/2000/svg" xmlns:xlink="http://www.w3.org/1999/xlink" xmlns:ev="http://www.w3.org/2001/xml-events"
		xmlns:v="http://schemas.microsoft.com/visio/2003/SVGExtensions/" width="7.09361in" height="3.96615in"
		viewBox="0 0 510.74 285.563" xml:space="preserve" color-interpolation-filters="sRGB" class="st7">
	<v:documentProperties v:langID="1028" v:metric="true" v:viewMarkup="false">
		<v:userDefs>
			<v:ud v:nameU="msvNoAutoConnect" v:val="VT0(1):26"/>
		</v:userDefs>
	</v:documentProperties>

	<style type="text/css">
	<![CDATA[
		.st1 {fill:none;stroke:#000000;stroke-linecap:round;stroke-linejoin:round;stroke-opacity:0;stroke-width:1}
		.st2 {fill:#000000;font-family:新細明體;font-size:1.33333em}
		.st3 {stroke:#000000;stroke-linecap:round;stroke-linejoin:round;stroke-width:1}
		.st4 {stroke:#000000;stroke-dasharray:7,5;stroke-linecap:round;stroke-linejoin:round;stroke-width:1}
		.st5 {fill:none;stroke:#000000;stroke-linecap:round;stroke-linejoin:round;stroke-opacity:0;stroke-width:0.75}
		.st6 {stroke:#ffffff;stroke-linecap:round;stroke-linejoin:round;stroke-width:1}
		.st7 {fill:none;fill-rule:evenodd;font-size:12px;overflow:visible;stroke-linecap:square;stroke-miterlimit:3}
	]]>
	</style>

	<g v:mID="0" v:index="1" v:groupContext="foregroundPage">
		<title>Page-1</title>
		<v:pageProperties v:drawingScale="0.0393701" v:pageScale="0.0393701" v:drawingUnits="24" v:shadowOffsetX="8.50394"
				v:shadowOffsetY="-8.50394" v:shadowType="1"/>
		<g id="group29-1" transform="translate(19,-19)" v:mID="29" v:groupContext="group">
			<title>工作表.29</title>
			<g id="shape2-2" v:mID="2" v:groupContext="shape" transform="translate(73.3048,-170.027)">
				<title>工作表.2</title>
				<desc>阿毘曇論</desc>
				<v:textBlock v:margins="rect(4,4,4,4)" v:tabSpace="42.5197"/>
				<v:textRect cx="42.5197" cy="246.795" width="85.04" height="77.5359"/>
				<rect x="0" y="208.027" width="85.0394" height="77.5359" class="st1"/>
				<text x="10.52" y="251.59" class="st2" v:langID="1028"><v:paragraph v:horizAlign="1"/><v:tabList/>阿毘曇論</text>			</g>
			<g id="shape3-5" v:mID="3" v:groupContext="shape" transform="translate(86.3108,-34.6619)">
				<title>工作表.3</title>
				<desc>性空大乘經</desc>
				<v:textBlock v:margins="rect(4,4,4,4)" v:tabSpace="42.5197"/>
				<v:textRect cx="51.0236" cy="239.041" width="102.05" height="93.0431"/>
				<rect x="0" y="192.519" width="102.047" height="93.0431" class="st1"/>
				<text x="11.02" y="243.84" class="st2" v:langID="1028"><v:paragraph v:horizAlign="1"/><v:tabList/>性空大乘經</text>			</g>
			<g id="shape4-8" v:mID="4" v:groupContext="shape" transform="translate(202.531,-6.31542)">
				<title>工作表.4</title>
				<desc>真常大乘經</desc>
				<v:textBlock v:margins="rect(4,4,4,4)" v:tabSpace="42.5197"/>
				<v:textRect cx="51.0236" cy="239.041" width="102.05" height="93.0431"/>
				<rect x="0" y="192.519" width="102.047" height="93.0431" class="st1"/>
				<text x="11.02" y="243.84" class="st2" v:langID="1028"><v:paragraph v:horizAlign="1"/><v:tabList/>真常大乘經</text>			</g>
			<g id="shape5-11" v:mID="5" v:groupContext="shape" transform="translate(298.159,-84.9352)">
				<title>工作表.5</title>
				<desc>中觀復興</desc>
				<v:textBlock v:margins="rect(4,4,4,4)" v:tabSpace="42.5197"/>
				<v:textRect cx="42.5197" cy="246.795" width="85.04" height="77.5359"/>
				<rect x="0" y="208.027" width="85.0394" height="77.5359" class="st1"/>
				<text x="10.52" y="251.59" class="st2" v:langID="1028"><v:paragraph v:horizAlign="1"/><v:tabList/>中觀復興</text>			</g>
			<g id="shape6-14" v:mID="6" v:groupContext="shape" transform="translate(187.399,-99.2126)">
				<title>工作表.6</title>
				<desc>中觀</desc>
				<v:textBlock v:margins="rect(4,4,4,4)" v:tabSpace="42.5197"/>
				<v:textRect cx="27.6378" cy="260.363" width="55.28" height="50.3983"/>
				<rect x="0" y="235.164" width="55.2756" height="50.3983" class="st1"/>
				<text x="11.64" y="265.16" class="st2" v:langID="1028"><v:paragraph v:horizAlign="1"/><v:tabList/>中觀</text>			</g>
			<g id="shape8-17" v:mID="8" v:groupContext="shape" transform="translate(413.858,0)">
				<title>工作表.8</title>
				<desc>密教</desc>
				<v:textBlock v:margins="rect(4,4,4,4)" v:tabSpace="42.5197"/>
				<v:textRect cx="27.6378" cy="260.363" width="55.28" height="50.3983"/>
				<rect x="0" y="235.164" width="55.2756" height="50.3983" class="st1"/>
				<text x="11.64" y="265.16" class="st2" v:langID="1028"><v:paragraph v:horizAlign="1"/><v:tabList/>密教</text>			</g>
			<g id="shape7-20" v:mID="7" v:groupContext="shape" transform="translate(3.51719E-013,-126.85)">
				<title>工作表.7</title>
				<desc>佛教</desc>
				<v:textBlock v:margins="rect(4,4,4,4)" v:tabSpace="42.5197"/>
				<v:textRect cx="27.6378" cy="260.363" width="55.28" height="50.3983"/>
				<rect x="0" y="235.164" width="55.2756" height="50.3983" class="st1"/>
				<text x="11.64" y="265.16" class="st2" v:langID="1028"><v:paragraph v:horizAlign="1"/><v:tabList/>佛教</text>			</g>
			<g id="shape1-23" v:mID="1" v:groupContext="shape" transform="translate(235.901,-155.906)">
				<title>工作表.1</title>
				<desc>瑜伽</desc>
				<v:textBlock v:margins="rect(4,4,4,4)" v:tabSpace="42.5197"/>
				<v:textRect cx="27.6378" cy="260.363" width="55.28" height="50.3983"/>
				<rect x="0" y="235.164" width="55.2756" height="50.3983" class="st1"/>
				<text x="11.64" y="265.16" class="st2" v:langID="1028"><v:paragraph v:horizAlign="1"/><v:tabList/>瑜伽</text>			</g>
			<g id="shape9-26" v:mID="9" v:groupContext="shape" transform="translate(-39.3444,218.552) rotate(-90)">
				<title>工作表.9</title>
				<path d="M0 285.56 L113.39 285.56" class="st3"/>
			</g>
			<g id="shape13-29" v:mID="13" v:groupContext="shape" transform="translate(-197.075,-13.4077) rotate(-59.0362)">
				<title>工作表.13</title>
				<path d="M0 285.56 L66.11 285.56" class="st3"/>
			</g>
			<g id="shape14-32" v:mID="14" v:groupContext="shape" transform="translate(283.932,-27.0617) rotate(55.7843)">
				<title>工作表.14</title>
				<path d="M0 285.56 L85.7 285.56" class="st3"/>
			</g>
			<g id="shape15-35" v:mID="15" v:groupContext="shape" transform="translate(47.793,-81.1834)">
				<title>工作表.15</title>
				<path d="M0 285.56 L48.19 285.56" class="st3"/>
			</g>
			<g id="shape10-38" v:mID="10" v:groupContext="shape" transform="translate(-39.3444,161.859) rotate(-90)">
				<title>工作表.10</title>
				<path d="M56.69 285.56 L85.04 186.35 L0 237.37" class="st3"/>
			</g>
			<g id="shape11-41" v:mID="11" v:groupContext="shape" transform="translate(-39.3444,204.379) rotate(-90)">
				<title>工作表.11</title>
				<path d="M99.21 285.56 L0 271.39 L0 217.53 L42.52 237.37" class="st3"/>
			</g>
			<g id="shape12-44" v:mID="12" v:groupContext="shape" transform="translate(360.999,-14.9961) rotate(39.8056)">
				<title>工作表.12</title>
				<path d="M0 285.56 L44.28 285.56" class="st3"/>
			</g>
			<g id="shape16-47" v:mID="16" v:groupContext="shape" transform="translate(175.352,-52.837)">
				<title>工作表.16</title>
				<path d="M0 285.56 L36.85 285.56" class="st3"/>
			</g>
			<g id="shape17-50" v:mID="17" v:groupContext="shape" transform="translate(232.045,-123.703)">
				<title>工作表.17</title>
				<path d="M0 285.56 L76.54 285.56" class="st3"/>
			</g>
			<g id="shape18-53" v:mID="18" v:groupContext="shape" transform="translate(139.238,261.072) rotate(-90)">
				<title>工作表.18</title>
				<path d="M155.91 143.83 L155.91 248.71 L0 285.56" class="st3"/>
			</g>
			<g id="shape19-56" v:mID="19" v:groupContext="shape" transform="translate(627.724,31.258) rotate(62.7839)">
				<title>工作表.19</title>
				<path d="M0 285.56 L111.56 285.56" class="st3"/>
			</g>
			<g id="shape20-59" v:mID="20" v:groupContext="shape" transform="translate(363.363,-45.7358) rotate(12.8043)">
				<title>工作表.20</title>
				<path d="M0 285.56 L127.91 285.56" class="st3"/>
			</g>
			<g id="shape21-62" v:mID="21" v:groupContext="shape" transform="translate(387.95,-24.4905)">
				<title>工作表.21</title>
				<path d="M0 285.56 L36.85 285.56" class="st3"/>
			</g>
			<g id="shape22-65" v:mID="22" v:groupContext="shape" transform="translate(-44.9914,92.6003) rotate(-75.9638)">
				<title>工作表.22</title>
				<path d="M0 285.56 L58.44 285.56" class="st4"/>
			</g>
			<g id="shape23-68" v:mID="23" v:groupContext="shape" transform="translate(543.479,-12.0183) rotate(65.7723)">
				<title>工作表.23</title>
				<path d="M0 285.56 L62.17 285.56" class="st4"/>
			</g>
			<g id="shape24-71" v:mID="24" v:groupContext="shape" transform="translate(187.427,275.245) rotate(-90)">
				<title>工作表.24</title>
				<rect x="0" y="-182.154" width="212.598" height="467.717" class="st5"/>
			</g>
			<g id="shape25-73" v:mID="25" v:groupContext="shape" transform="translate(0,-222.968)">
				<title>工作表.25</title>
				<path d="M0 285.56 L469.13 285.56" class="st6"/>
			</g>
			<g id="shape26-76" v:mID="26" v:groupContext="shape" transform="translate(0,-10.3694)">
				<title>工作表.26</title>
				<path d="M0 285.56 L469.13 285.56" class="st6"/>
			</g>
			<g id="shape27-79" v:mID="27" v:groupContext="shape" transform="translate(754.696,62.5947) rotate(90)">
				<title>工作表.27</title>
				<path d="M0 285.56 L212.6 285.56" class="st6"/>
			</g>
			<g id="shape28-82" v:mID="28" v:groupContext="shape" transform="translate(285.563,62.5947) rotate(90)">
				<title>工作表.28</title>
				<path d="M0 285.56 L212.6 285.56" class="st6"/>
			</g>
		</g>
	</g>
</svg>
