<?xml version="1.0" encoding="UTF-8" standalone="no"?>
<!DOCTYPE svg PUBLIC "-//W3C//DTD SVG 1.1//EN" "http://www.w3.org/Graphics/SVG/1.1/DTD/svg11.dtd">
<!-- 由 Microsoft Visio, SVG Export 產生 y21.0181.svg 頁-1 -->
<svg xmlns="http://www.w3.org/2000/svg" xmlns:xlink="http://www.w3.org/1999/xlink" xmlns:ev="http://www.w3.org/2001/xml-events"
		width="6.00989in" height="1.4691in" viewBox="0 0 432.712 105.775" xml:space="preserve" color-interpolation-filters="sRGB"
		class="st4">
	<title>y21.0181</title>

	<style type="text/css">
	<![CDATA[
		.st1 {fill:none;stroke:none;stroke-linecap:round;stroke-linejoin:round;stroke-width:0.72}
		.st2 {fill:#000000;font-family:新細明體;font-size:1.33333em}
		.st3 {stroke:#000000;stroke-linecap:round;stroke-linejoin:round;stroke-width:0.72}
		.st4 {fill:none;fill-rule:evenodd;font-size:12px;overflow:visible;stroke-linecap:square;stroke-miterlimit:3}
	]]>
	</style>

	<g>
		<title>頁-1</title>
		<g id="group26-1" transform="translate(0.36,-0.36)">
			<title>工作表.26</title>
			<g id="shape1-2" transform="translate(3.9968E-14,-70.9528)">
				<title>工作表.1</title>
				<desc>聲聞乘二種行人</desc>
				<rect x="0" y="85.9326" width="125.606" height="19.8425" class="st1"/>
				<text x="6.8" y="100.84" class="st2">聲聞乘二種行人</text>			</g>
			<g id="shape2-5" transform="translate(3.83693E-13,-14.2598)">
				<title>工作表.2</title>
				<desc>大乘二種行人</desc>
				<rect x="0" y="85.9326" width="125.606" height="19.8425" class="st1"/>
				<text x="0.25em 1.52em 2.79em 4.06em 5.33em 6.6em" y="100.84" class="st2">大乘二種行人</text>			</g>
			<g id="shape3-8" transform="translate(153.315,-85.2126)">
				<title>工作表.3</title>
				<desc>隨信行</desc>
				<rect x="0" y="85.9326" width="56.8661" height="19.8425" class="st1"/>
				<text x="4.43" y="100.84" class="st2">隨信行</text>			</g>
			<g id="shape4-11" transform="translate(153.315,-56.6929)">
				<title>工作表.4</title>
				<desc>隨法行</desc>
				<rect x="0" y="85.9326" width="56.8661" height="19.8425" class="st1"/>
				<text x="4.43" y="100.84" class="st2">隨法行</text>			</g>
			<g id="shape5-14" transform="translate(153.315,-28.3465)">
				<title>工作表.5</title>
				<desc>智增上</desc>
				<rect x="0" y="85.9326" width="56.8661" height="19.8425" class="st1"/>
				<text x="4.43" y="100.84" class="st2">智增上</text>			</g>
			<g id="shape6-17" transform="translate(153.315,0)">
				<title>工作表.6</title>
				<desc>悲增上</desc>
				<rect x="0" y="85.9326" width="56.8661" height="19.8425" class="st1"/>
				<text x="4.43" y="100.84" class="st2">悲增上</text>			</g>
			<g id="shape7-20" transform="translate(123.87,-80.874)">
				<title>工作表.7</title>
				<path d="M0 105.78 L14.17 105.78" class="st3"/>
			</g>
			<g id="shape8-23" transform="translate(123.87,-24.1811)">
				<title>工作表.8</title>
				<path d="M0 105.78 L14.17 105.78" class="st3"/>
			</g>
			<g id="shape9-26" transform="translate(138.043,-9.83465)">
				<title>工作表.9</title>
				<path d="M0 105.78 L14.17 105.78" class="st3"/>
			</g>
			<g id="shape10-29" transform="translate(138.043,-38.1811)">
				<title>工作表.10</title>
				<path d="M0 105.78 L14.17 105.78" class="st3"/>
			</g>
			<g id="shape11-32" transform="translate(138.043,-66.7008)">
				<title>工作表.11</title>
				<path d="M0 105.78 L14.17 105.78" class="st3"/>
			</g>
			<g id="shape12-35" transform="translate(138.043,-95.0472)">
				<title>工作表.12</title>
				<path d="M0 105.78 L14.17 105.78" class="st3"/>
			</g>
			<g id="shape13-38" transform="translate(243.818,10.7279) rotate(90)">
				<title>工作表.13</title>
				<path d="M0 105.78 L28.35 105.78" class="st3"/>
			</g>
			<g id="shape14-41" transform="translate(243.818,67.594) rotate(90)">
				<title>工作表.14</title>
				<path d="M0 105.78 L28.35 105.78" class="st3"/>
			</g>
			<g id="shape17-44" transform="translate(294.339,-85.126)">
				<title>工作表.17</title>
				<desc>從信精進門入</desc>
				<rect x="0" y="85.9326" width="137.654" height="19.8425" class="st1"/>
				<text x="4.83" y="100.84" class="st2">從信（精進）門入</text>			</g>
			<g id="shape18-47" transform="translate(294.693,-0.0866142)">
				<title>工作表.18</title>
				<desc>從慈悲門入</desc>
				<rect x="0" y="85.9326" width="91.5906" height="19.8425" class="st1"/>
				<text x="5.8" y="100.84" class="st2">從慈悲門入</text>			</g>
			<g id="shape19-50" transform="translate(294.541,-42.6063)">
				<title>工作表.19</title>
				<desc>從智門入</desc>
				<rect x="0" y="85.9326" width="73.7008" height="19.8425" class="st1"/>
				<text x="4.85" y="100.84" class="st2">從智門入</text>			</g>
			<g id="shape20-53" transform="translate(208.909,-38.3543)">
				<title>工作表.20</title>
				<path d="M0 105.78 L14.17 105.78" class="st3"/>
			</g>
			<g id="shape21-56" transform="translate(208.909,-66.7008)">
				<title>工作表.21</title>
				<path d="M0 105.78 L14.17 105.78" class="st3"/>
			</g>
			<g id="shape22-59" transform="translate(117.308,67.4208) rotate(-90)">
				<title>工作表.22</title>
				<path d="M0 105.78 L28.35 105.78" class="st3"/>
			</g>
			<g id="shape23-62" transform="translate(223.083,-52.5276)">
				<title>工作表.23</title>
				<path d="M0 105.78 L70.87 105.78" class="st3"/>
			</g>
			<g id="shape24-65" transform="translate(208.445,-9.83465)">
				<title>工作表.24</title>
				<path d="M0 105.78 L85.5 105.78" class="st3"/>
			</g>
			<g id="shape25-68" transform="translate(208.445,-95.0472)">
				<title>工作表.25</title>
				<path d="M0 105.78 L85.5 105.78" class="st3"/>
			</g>
		</g>
	</g>
</svg>
