<?xml version="1.0" encoding="UTF-8" standalone="no"?>
<!DOCTYPE svg PUBLIC "-//W3C//DTD SVG 1.1//EN" "http://www.w3.org/Graphics/SVG/1.1/DTD/svg11.dtd">
<!-- 由 Microsoft Visio, SVG Export 產生 y21.0158.svg 頁-1 -->
<svg xmlns="http://www.w3.org/2000/svg" xmlns:xlink="http://www.w3.org/1999/xlink" xmlns:ev="http://www.w3.org/2001/xml-events"
		width="5.54729in" height="2.25409in" viewBox="0 0 399.405 162.295" xml:space="preserve" color-interpolation-filters="sRGB"
		class="st4">
	

	<style type="text/css">
	<![CDATA[
		.st1 {fill:none;stroke:none;stroke-linecap:round;stroke-linejoin:round;stroke-width:0.72}
		.st2 {fill:#000000;font-family:新細明體;font-size:1.33333em}
		.st3 {stroke:#000000;stroke-linecap:round;stroke-linejoin:round;stroke-width:0.72}
		.st4 {fill:none;fill-rule:evenodd;font-size:12px;overflow:visible;stroke-linecap:square;stroke-miterlimit:3}
	]]>
	</style>

	<g>
		<title>頁-1</title>
		<g id="group26-1" transform="translate(0.36,-0.36)">
			<title>工作表.26</title>
			<g id="shape1-2">
				<title>工作表.1</title>
				<desc>自行</desc>
				<rect x="0" y="142.452" width="43.4016" height="19.8425" class="st1"/>
				<text x="5.7" y="157.36" class="st2">自行</text>			</g>
			<g id="shape2-5" transform="translate(1.19904E-14,-85.0394)">
				<title>工作表.2</title>
				<desc>化他</desc>
				<rect x="0" y="142.452" width="43.4016" height="19.8425" class="st1"/>
				<text x="5.7" y="157.36" class="st2">化他</text>			</g>
			<g id="shape3-8" transform="translate(341.11,-28.3465)">
				<title>工作表.3</title>
				<desc>譬喻師</desc>
				<rect x="0" y="142.452" width="57.5748" height="19.8425" class="st1"/>
				<text x="0.25em 1.299em 2.348em" y="157.36" class="st2">譬喻師</text>			</g>
			<g id="shape4-11" transform="translate(341.11,-55.811)">
				<title>工作表.4</title>
				<desc>禪師</desc>
				<rect x="0" y="142.452" width="57.5748" height="19.8425" class="st1"/>
				<text x="0.25em 2.348em" y="157.36" class="st2">禪師</text>			</g>
			<g id="shape5-14" transform="translate(341.11,-84.1575)">
				<title>工作表.5</title>
				<desc>論師</desc>
				<rect x="0" y="142.452" width="57.5748" height="19.8425" class="st1"/>
				<text x="0.25em 2.348em" y="157.36" class="st2">論師</text>			</g>
			<g id="shape6-17" transform="translate(341.11,-113.386)">
				<title>工作表.6</title>
				<desc>律師</desc>
				<rect x="0" y="142.452" width="57.5748" height="19.8425" class="st1"/>
				<text x="0.25em 2.348em" y="157.36" class="st2">律師</text>			</g>
			<g id="shape7-20" transform="translate(341.11,-141.732)">
				<title>工作表.7</title>
				<desc>經師</desc>
				<rect x="0" y="142.452" width="57.5748" height="19.8425" class="st1"/>
				<text x="0.25em 2.348em" y="157.36" class="st2">經師</text>			</g>
			<g id="shape8-23" transform="translate(71.4646,-3.41061E-13)">
				<title>工作表.8</title>
				<desc>三學相資</desc>
				<rect x="0" y="142.452" width="73.1654" height="19.8425" class="st1"/>
				<text x="4.58" y="157.36" class="st2">三學相資</text>			</g>
			<g id="shape9-26" transform="translate(43.0827,-9.92126)">
				<title>工作表.9</title>
				<path d="M0 162.29 L28.35 162.29" class="st3"/>
			</g>
			<g id="shape10-29" transform="translate(43.0827,-94.9606)">
				<title>工作表.10</title>
				<path d="M0 162.29 L28.35 162.29" class="st3"/>
			</g>
			<g id="shape11-32" transform="translate(71.4646,-85.0394)">
				<title>工作表.11</title>
				<desc>分科專弘</desc>
				<rect x="0" y="142.452" width="73.1654" height="19.8425" class="st1"/>
				<text x="4.58" y="157.36" class="st2">分科專弘</text>			</g>
			<g id="shape12-35" transform="translate(56.9193,-56.6929)">
				<title>工作表.12</title>
				<desc>依律而住</desc>
				<rect x="0" y="142.452" width="107.449" height="19.8425" class="st1"/>
				<text x="5.72" y="157.36" class="st2">（依律而住）</text>			</g>
			<g id="shape13-38" transform="translate(142.295,-94.9606)">
				<title>工作表.13</title>
				<path d="M0 162.29 L28.35 162.29" class="st3"/>
			</g>
			<g id="shape14-41" transform="translate(199.256,-28.3465)">
				<title>工作表.14</title>
				<desc>通俗弘化</desc>
				<rect x="0" y="142.452" width="73.1654" height="19.8425" class="st1"/>
				<text x="4.58" y="157.36" class="st2">通俗弘化</text>			</g>
			<g id="shape15-44" transform="translate(199.256,-56.6929)">
				<title>工作表.15</title>
				<desc>傳授定慧</desc>
				<rect x="0" y="142.452" width="73.1654" height="19.8425" class="st1"/>
				<text x="4.58" y="157.36" class="st2">傳授定慧</text>			</g>
			<g id="shape16-47" transform="translate(199.256,-113.386)">
				<title>工作表.16</title>
				<desc>專究法義</desc>
				<rect x="0" y="142.452" width="73.1654" height="19.8425" class="st1"/>
				<text x="4.58" y="157.36" class="st2">專究法義</text>			</g>
			<g id="shape17-50" transform="translate(54.2979,197.082) rotate(-116.753)">
				<title>工作表.17</title>
				<path d="M0 162.29 L63.49 162.29" class="st3"/>
			</g>
			<g id="shape18-53" transform="translate(84.9299,210.908) rotate(-135.234)">
				<title>工作表.18</title>
				<path d="M0 162.29 L40.25 162.29" class="st3"/>
			</g>
			<g id="shape19-56" transform="translate(313.511,154.215) rotate(135.234)">
				<title>工作表.19</title>
				<path d="M0 162.29 L40.25 162.29" class="st3"/>
			</g>
			<g id="shape21-59" transform="translate(340.72,257.975) rotate(180)">
				<title>工作表.21</title>
				<path d="M0 162.29 L70.87 162.29" class="st3"/>
			</g>
			<g id="shape20-62" transform="translate(340.72,201.723) rotate(180)">
				<title>工作表.20</title>
				<path d="M0 162.29 L70.87 162.29" class="st3"/>
			</g>
			<g id="shape22-65" transform="translate(340.72,286.322) rotate(180)">
				<title>工作表.22</title>
				<path d="M0 162.29 L70.87 162.29" class="st3"/>
			</g>
			<g id="shape23-68" transform="translate(388.226,-95.6088) rotate(33.6901)">
				<title>工作表.23</title>
				<path d="M0 162.29 L51.1 162.29" class="st3"/>
			</g>
			<g id="shape24-71" transform="translate(206.265,-94.3148) rotate(-34.5049)">
				<title>工作表.24</title>
				<path d="M0 162.29 L51.6 162.29" class="st3"/>
			</g>
			<g id="shape25-74" transform="translate(43.4016,-2.83465)">
				<title>動態連接器</title>
				<path d="M0 155.21 L28.06 155.21" class="st3"/>
			</g>
		</g>
	</g>
</svg>
