<?xml version="1.0" encoding="UTF-8" standalone="no"?>
<!DOCTYPE svg PUBLIC "-//W3C//DTD SVG 1.1//EN" "http://www.w3.org/Graphics/SVG/1.1/DTD/svg11.dtd">
<!-- 由 Microsoft Visio, SVG Export 產生 y21.0054-h.svg 頁-1 -->
<svg xmlns="http://www.w3.org/2000/svg" xmlns:xlink="http://www.w3.org/1999/xlink" xmlns:ev="http://www.w3.org/2001/xml-events"
		width="5.57682in" height="1.46669in" viewBox="0 0 401.531 105.602" xml:space="preserve" color-interpolation-filters="sRGB"
		class="st4">
	<title>y21.0054</title>

	<style type="text/css">
	<![CDATA[
		.st1 {fill:none;stroke:none;stroke-linecap:round;stroke-linejoin:round;stroke-width:0.72}
		.st2 {fill:#000000;font-family:新細明體;font-size:1.33333em}
		.st3 {stroke:#000000;stroke-linecap:round;stroke-linejoin:round;stroke-width:0.72}
		.st4 {fill:none;fill-rule:evenodd;font-size:12px;overflow:visible;stroke-linecap:square;stroke-miterlimit:3}
	]]>
	</style>

	<g>
		<title>頁-1</title>
		<g id="group20-1" transform="translate(0.36,-0.36)">
			<title>工作表.20</title>
			<g id="shape1-2" transform="translate(1.19904E-14,-42.5197)">
				<title>工作表.1</title>
				<desc>僧裝</desc>
				<rect x="0" y="85.7594" width="41.2756" height="19.8425" class="st1"/>
				<text x="4.64" y="100.66" class="st2">僧裝</text>			</g>
			<g id="shape2-5" transform="translate(83.5118,-70.8661)">
				<title>工作表.2</title>
				<desc>不離俗服而表顯僧相的差別</desc>
				<rect x="0" y="85.7594" width="205.685" height="19.8425" class="st1"/>
				<text x="6.84" y="100.66" class="st2">不離俗服而表顯僧相的差別</text>			</g>
			<g id="shape3-8" transform="translate(83.5118,-14.1732)">
				<title>工作表.3</title>
				<desc>不同俗服而表顯僧相的合一</desc>
				<rect x="0" y="85.7594" width="205.685" height="19.8425" class="st1"/>
				<text x="6.84" y="100.66" class="st2">不同俗服而表顯僧相的合一</text>			</g>
			<g id="shape4-11" transform="translate(324.102,-85.0394)">
				<title>工作表.4</title>
				<desc>採用時服</desc>
				<rect x="0" y="85.7594" width="76.7087" height="19.8425" class="st1"/>
				<text x="6.35" y="100.66" class="st2">採用時服</text>			</g>
			<g id="shape5-14" transform="translate(324.102,-56.6929)">
				<title>工作表.5</title>
				<desc>表顯僧相</desc>
				<rect x="0" y="85.7594" width="76.7087" height="19.8425" class="st1"/>
				<text x="6.35" y="100.66" class="st2">表顯僧相</text>			</g>
			<g id="shape6-17" transform="translate(324.102,-28.3465)">
				<title>工作表.6</title>
				<desc>對外差別</desc>
				<rect x="0" y="85.7594" width="76.7087" height="19.8425" class="st1"/>
				<text x="6.35" y="100.66" class="st2">對外差別</text>			</g>
			<g id="shape7-20" transform="translate(324.102,0)">
				<title>工作表.7</title>
				<desc>對內平等</desc>
				<rect x="0" y="85.7594" width="76.7087" height="19.8425" class="st1"/>
				<text x="6.35" y="100.66" class="st2">對內平等</text>			</g>
			<g id="shape8-23" transform="translate(175.614,24.8145) rotate(90)">
				<title>工作表.8</title>
				<path d="M0 105.6 L56.69 105.6" class="st3"/>
			</g>
			<g id="shape9-26" transform="translate(70.0118,-80.7874)">
				<title>工作表.9</title>
				<path d="M0 105.6 L14.17 105.6" class="st3"/>
			</g>
			<g id="shape10-29" transform="translate(70.0118,-24.0945)">
				<title>工作表.10</title>
				<path d="M0 105.6 L14.17 105.6" class="st3"/>
			</g>
			<g id="shape11-32" transform="translate(41.6654,-52.4409)">
				<title>工作表.11</title>
				<path d="M0 105.6 L28.35 105.6" class="st3"/>
			</g>
			<g id="shape12-35" transform="translate(289.197,-80.7874)">
				<title>工作表.12</title>
				<path d="M0 105.6 L21.76 105.6" class="st3"/>
			</g>
			<g id="shape13-38" transform="translate(289.197,-24.0945)">
				<title>工作表.13</title>
				<path d="M0 105.6 L21.76 105.6" class="st3"/>
			</g>
			<g id="shape14-41" transform="translate(310.957,-9.92126)">
				<title>工作表.14</title>
				<path d="M0 105.6 L14.17 105.6" class="st3"/>
			</g>
			<g id="shape15-44" transform="translate(310.957,-38.2677)">
				<title>工作表.15</title>
				<path d="M0 105.6 L14.17 105.6" class="st3"/>
			</g>
			<g id="shape16-47" transform="translate(310.957,-66.6142)">
				<title>工作表.16</title>
				<path d="M0 105.6 L14.17 105.6" class="st3"/>
			</g>
			<g id="shape17-50" transform="translate(310.957,-94.9606)">
				<title>工作表.17</title>
				<path d="M0 105.6 L14.17 105.6" class="st3"/>
			</g>
			<g id="shape18-53" transform="translate(205.355,95.6806) rotate(-90)">
				<title>工作表.18</title>
				<path d="M0 105.6 L28.35 105.6" class="st3"/>
			</g>
			<g id="shape19-56" transform="translate(205.355,38.9877) rotate(-90)">
				<title>工作表.19</title>
				<path d="M0 105.6 L28.35 105.6" class="st3"/>
			</g>
		</g>
	</g>
</svg>
