<?xml version="1.0" encoding="UTF-8" standalone="no"?>
<!DOCTYPE svg PUBLIC "-//W3C//DTD SVG 1.0//EN" "http://www.w3.org/TR/2001/REC-SVG-20010904/DTD/svg10.dtd">
<!-- 由 Microsoft Visio 11.0, SVG Export, v1.0 產生 y21.0181-h.svg Page-1 -->
<svg xmlns="http://www.w3.org/2000/svg" xmlns:xlink="http://www.w3.org/1999/xlink" xmlns:ev="http://www.w3.org/2001/xml-events"
		xmlns:v="http://schemas.microsoft.com/visio/2003/SVGExtensions/" width="6.77984in" height="3.31374in"
		viewBox="0 0 488.149 238.59" xml:space="preserve" color-interpolation-filters="sRGB" class="st5">
	<title>y21.0181</title>
	<v:documentProperties v:langID="1028" v:metric="true" v:viewMarkup="false"/>

	<style type="text/css">
	<![CDATA[
		.st1 {fill:none;stroke:none;stroke-linecap:round;stroke-linejoin:round;stroke-width:0.72}
		.st2 {fill:#000000;font-family:新細明體;font-size:1.33333em}
		.st3 {stroke:#000000;stroke-linecap:round;stroke-linejoin:round;stroke-width:0.72}
		.st4 {stroke:#ffffff;stroke-linecap:round;stroke-linejoin:round;stroke-width:0.72}
		.st5 {fill:none;fill-rule:evenodd;font-size:12px;overflow:visible;stroke-linecap:square;stroke-miterlimit:3}
	]]>
	</style>

	<g v:mID="0" v:index="1" v:groupContext="foregroundPage">
		<title>Page-1</title>
		<v:pageProperties v:drawingScale="0.0393701" v:pageScale="0.0393701" v:drawingUnits="24" v:shadowOffsetX="8.50394"
				v:shadowOffsetY="-8.50394"/>
		<g id="shape1-1" v:mID="1" v:groupContext="shape" transform="translate(28.0783,-75.4129)">
			<title>工作表.1</title>
			<desc>聲聞乘二種行人</desc>
			<v:textBlock v:margins="rect(4,4,4,4)" v:tabSpace="42.5197"/>
			<v:textRect cx="62.8031" cy="177.523" width="125.61" height="122.134"/>
			<rect x="0" y="116.456" width="125.606" height="122.134" class="st1"/>
			<text x="6.8" y="182.51" class="st2" v:langID="1028"><v:paragraph v:horizAlign="1"/><v:tabList/>聲聞乘二種行人</text>		</g>
		<g id="shape2-4" v:mID="2" v:groupContext="shape" transform="translate(28.0783,-18.72)">
			<title>工作表.2</title>
			<desc>大乘二種行人</desc>
			<v:textBlock v:margins="rect(4,4,4,4)" v:tabSpace="42.5197"/>
			<v:textRect cx="62.8031" cy="177.523" width="125.61" height="122.134"/>
			<rect x="0" y="116.456" width="125.606" height="122.134" class="st1"/>
			<text x="0.25em 1.52em 2.79em 4.06em 5.33em 6.6em" y="182.51" class="st2" v:langID="1028"><v:paragraph v:horizAlign="4"/><v:tabList/>大乘二種行人</text>		</g>
		<g id="shape3-7" v:mID="3" v:groupContext="shape" transform="translate(181.393,-121.208)">
			<title>工作表.3</title>
			<desc>隨信行</desc>
			<v:textBlock v:margins="rect(4,4,4,4)" v:tabSpace="42.5197"/>
			<v:textRect cx="28.4331" cy="209.058" width="56.87" height="59.063"/>
			<rect x="0" y="179.527" width="56.8661" height="59.063" class="st1"/>
			<text x="4.43" y="214.04" class="st2" v:langID="1028"><v:paragraph v:horizAlign="1"/><v:tabList/>隨信行</text>		</g>
		<g id="shape4-10" v:mID="4" v:groupContext="shape" transform="translate(181.393,-92.6885)">
			<title>工作表.4</title>
			<desc>隨法行</desc>
			<v:textBlock v:margins="rect(4,4,4,4)" v:tabSpace="42.5197"/>
			<v:textRect cx="28.4331" cy="209.058" width="56.87" height="59.063"/>
			<rect x="0" y="179.527" width="56.8661" height="59.063" class="st1"/>
			<text x="4.43" y="214.04" class="st2" v:langID="1028"><v:paragraph v:horizAlign="1"/><v:tabList/>隨法行</text>		</g>
		<g id="shape5-13" v:mID="5" v:groupContext="shape" transform="translate(181.393,-64.342)">
			<title>工作表.5</title>
			<desc>智增上</desc>
			<v:textBlock v:margins="rect(4,4,4,4)" v:tabSpace="42.5197"/>
			<v:textRect cx="28.4331" cy="209.058" width="56.87" height="59.063"/>
			<rect x="0" y="179.527" width="56.8661" height="59.063" class="st1"/>
			<text x="4.43" y="214.04" class="st2" v:langID="1028"><v:paragraph v:horizAlign="1"/><v:tabList/>智增上</text>		</g>
		<g id="shape6-16" v:mID="6" v:groupContext="shape" transform="translate(181.393,-35.9956)">
			<title>工作表.6</title>
			<desc>悲增上</desc>
			<v:textBlock v:margins="rect(4,4,4,4)" v:tabSpace="42.5197"/>
			<v:textRect cx="28.4331" cy="209.058" width="56.87" height="59.063"/>
			<rect x="0" y="179.527" width="56.8661" height="59.063" class="st1"/>
			<text x="4.43" y="214.04" class="st2" v:langID="1028"><v:paragraph v:horizAlign="1"/><v:tabList/>悲增上</text>		</g>
		<g id="shape7-19" v:mID="7" v:groupContext="shape" transform="translate(151.948,-136.48)">
			<title>工作表.7</title>
			<path d="M0 238.59 L14.17 238.59" class="st3"/>
		</g>
		<g id="shape8-22" v:mID="8" v:groupContext="shape" transform="translate(151.948,-79.7869)">
			<title>工作表.8</title>
			<path d="M0 238.59 L14.17 238.59" class="st3"/>
		</g>
		<g id="shape9-25" v:mID="9" v:groupContext="shape" transform="translate(166.122,-65.4405)">
			<title>工作表.9</title>
			<path d="M0 238.59 L14.17 238.59" class="st3"/>
		</g>
		<g id="shape10-28" v:mID="10" v:groupContext="shape" transform="translate(166.122,-93.7869)">
			<title>工作表.10</title>
			<path d="M0 238.59 L14.17 238.59" class="st3"/>
		</g>
		<g id="shape11-31" v:mID="11" v:groupContext="shape" transform="translate(166.122,-122.307)">
			<title>工作表.11</title>
			<path d="M0 238.59 L14.17 238.59" class="st3"/>
		</g>
		<g id="shape12-34" v:mID="12" v:groupContext="shape" transform="translate(166.122,-150.653)">
			<title>工作表.12</title>
			<path d="M0 238.59 L14.17 238.59" class="st3"/>
		</g>
		<g id="shape13-37" v:mID="13" v:groupContext="shape" transform="translate(404.711,87.9365) rotate(90)">
			<title>工作表.13</title>
			<path d="M0 238.59 L28.35 238.59" class="st3"/>
		</g>
		<g id="shape14-40" v:mID="14" v:groupContext="shape" transform="translate(404.711,144.803) rotate(90)">
			<title>工作表.14</title>
			<path d="M0 238.59 L28.35 238.59" class="st3"/>
		</g>
		<g id="shape17-43" v:mID="17" v:groupContext="shape" transform="translate(322.417,-81.4365)">
			<title>工作表.17</title>
			<desc>從信精進門入</desc>
			<v:textBlock v:margins="rect(4,4,4,4)" v:tabSpace="42.5197"/>
			<v:textRect cx="68.8268" cy="169.373" width="137.66" height="138.433"/>
			<rect x="0" y="100.157" width="137.654" height="138.433" class="st1"/>
			<text x="4.83" y="174.36" class="st2" v:langID="1028"><v:paragraph v:horizAlign="1"/><v:tabList/>從信（精進）門入</text>		</g>
		<g id="shape18-46" v:mID="18" v:groupContext="shape" transform="translate(322.771,-19.0743)">
			<title>工作表.18</title>
			<desc>從慈悲門入</desc>
			<v:textBlock v:margins="rect(4,4,4,4)" v:tabSpace="42.5197"/>
			<v:textRect cx="45.7953" cy="192.05" width="91.6" height="93.0787"/>
			<rect x="0" y="145.511" width="91.5906" height="93.0787" class="st1"/>
			<text x="5.8" y="197.03" class="st2" v:langID="1028"><v:paragraph v:horizAlign="1"/><v:tabList/>從慈悲門入</text>		</g>
		<g id="shape19-49" v:mID="19" v:groupContext="shape" transform="translate(322.62,-70.6905)">
			<title>工作表.19</title>
			<desc>從智門入</desc>
			<v:textBlock v:margins="rect(4,4,4,4)" v:tabSpace="42.5197"/>
			<v:textRect cx="36.8504" cy="201.147" width="73.71" height="74.8858"/>
			<rect x="0" y="163.704" width="73.7008" height="74.8858" class="st1"/>
			<text x="4.85" y="206.13" class="st2" v:langID="1028"><v:paragraph v:horizAlign="1"/><v:tabList/>從智門入</text>		</g>
		<g id="shape20-52" v:mID="20" v:groupContext="shape" transform="translate(236.988,-93.9602)">
			<title>工作表.20</title>
			<path d="M0 238.59 L14.17 238.59" class="st3"/>
		</g>
		<g id="shape21-55" v:mID="21" v:groupContext="shape" transform="translate(236.988,-122.307)">
			<title>工作表.21</title>
			<path d="M0 238.59 L14.17 238.59" class="st3"/>
		</g>
		<g id="shape22-58" v:mID="22" v:groupContext="shape" transform="translate(12.5713,144.629) rotate(-90)">
			<title>工作表.22</title>
			<path d="M0 238.59 L28.35 238.59" class="st3"/>
		</g>
		<g id="shape23-61" v:mID="23" v:groupContext="shape" transform="translate(251.161,-108.133)">
			<title>工作表.23</title>
			<path d="M0 238.59 L70.87 238.59" class="st3"/>
		</g>
		<g id="shape24-64" v:mID="24" v:groupContext="shape" transform="translate(236.523,-65.4405)">
			<title>工作表.24</title>
			<path d="M0 238.59 L85.5 238.59" class="st3"/>
		</g>
		<g id="shape25-67" v:mID="25" v:groupContext="shape" transform="translate(236.523,-150.653)">
			<title>工作表.25</title>
			<path d="M0 238.59 L85.5 238.59" class="st3"/>
		</g>
		<g id="group28-70" transform="translate(230.839,195.653) rotate(-90)" v:mID="28" v:groupContext="group">
			<title>工作表.28</title>
			<g id="shape15-71" v:mID="15" v:groupContext="shape" transform="translate(130.394,26.4706) rotate(180)">
				<title>工作表.15</title>
				<path d="M0 238.59 L130.23 238.59" class="st4"/>
			</g>
			<g id="shape16-74" v:mID="16" v:groupContext="shape" transform="translate(130.235,477.179) rotate(180)">
				<title>工作表.16</title>
				<path d="M0 238.59 L130.23 238.59" class="st4"/>
			</g>
			<g id="shape26-77" v:mID="26" v:groupContext="shape" transform="translate(-108.355,238.505) rotate(-89.9798)">
				<title>工作表.26</title>
				<path d="M0 238.59 L450.71 238.59" class="st4"/>
			</g>
			<g id="shape27-80" v:mID="27" v:groupContext="shape" transform="translate(238.749,-212.035) rotate(90.0202)">
				<title>工作表.27</title>
				<path d="M0 238.59 L450.71 238.59" class="st4"/>
			</g>
		</g>
	</g>
</svg>
