<?xml version="1.0" encoding="UTF-8" standalone="no"?>
<!DOCTYPE svg PUBLIC "-//W3C//DTD SVG 1.0//EN" "http://www.w3.org/TR/2001/REC-SVG-20010904/DTD/svg10.dtd">
<!-- 由 Microsoft Visio 11.0, SVG Export, v1.0 產生 y40.0108.svg Page-1 -->
<svg xmlns="http://www.w3.org/2000/svg" xmlns:xlink="http://www.w3.org/1999/xlink" xmlns:ev="http://www.w3.org/2001/xml-events"
		xmlns:v="http://schemas.microsoft.com/visio/2003/SVGExtensions/" width="6.43329in" height="3.28368in"
		viewBox="0 0 463.197 236.425" xml:space="preserve" color-interpolation-filters="sRGB" class="st6">
	<v:documentProperties v:langID="1028" v:metric="true" v:viewMarkup="false">
		<v:userDefs>
			<v:ud v:nameU="msvSubprocessMaster" v:prompt="" v:val="VT4(Box)"/>
			<v:ud v:nameU="msvNoAutoConnect" v:val="VT0(1):26"/>
		</v:userDefs>
	</v:documentProperties>

	<style type="text/css">
	<![CDATA[
		.st1 {fill:none;stroke:none;stroke-linecap:round;stroke-linejoin:round;stroke-width:0.75}
		.st2 {fill:#000000;font-family:新細明體;font-size:1.33333em}
		.st3 {stroke:#000000;stroke-linecap:round;stroke-linejoin:round;stroke-width:1}
		.st4 {stroke:#000000;stroke-dasharray:3,3;stroke-linecap:round;stroke-linejoin:round;stroke-width:1}
		.st5 {stroke:#ffffff;stroke-linecap:round;stroke-linejoin:round;stroke-opacity:0;stroke-width:1}
		.st6 {fill:none;fill-rule:evenodd;font-size:12px;overflow:visible;stroke-linecap:square;stroke-miterlimit:3}
	]]>
	</style>

	<g v:mID="0" v:index="1" v:groupContext="foregroundPage">
		<title>頁-1</title>
		<v:pageProperties v:drawingScale="0.0393701" v:pageScale="0.0393701" v:drawingUnits="24" v:shadowOffsetX="8.50394"
				v:shadowOffsetY="-8.50394"/>
		<g id="group29-1" transform="translate(207.772,217.425) rotate(-90)" v:mID="29" v:groupContext="group">
			<title>工作表.29</title>
			<g id="shape1-2" v:mID="1" v:groupContext="shape" transform="translate(371.071,-82.4724) rotate(90)">
				<title>工作表.1</title>
				<desc>法敏</desc>
				<v:textBlock v:margins="rect(4,4,4,4)" v:tabSpace="42.5197"/>
				<v:textRect cx="21.2598" cy="215.165" width="42.52" height="42.5197"/>
				<rect x="0" y="193.906" width="42.5197" height="42.5197" class="st1"/>
				<text x="5.26" y="219.97" class="st2" v:langID="1028"><v:paragraph v:horizAlign="1"/><v:tabList/>法敏</text>			</g>
			<g id="shape2-5" v:mID="2" v:groupContext="shape" transform="translate(371.071,73.4331) rotate(90)">
				<title>工作表.2</title>
				<desc>法聰</desc>
				<v:textBlock v:margins="rect(4,4,4,4)" v:tabSpace="42.5197"/>
				<v:textRect cx="21.2598" cy="215.165" width="42.52" height="42.5197"/>
				<rect x="0" y="193.906" width="42.5197" height="42.5197" class="st1"/>
				<text x="5.26" y="219.97" class="st2" v:langID="1028"><v:paragraph v:horizAlign="1"/><v:tabList/>法聰</text>			</g>
			<g id="shape3-8" v:mID="3" v:groupContext="shape" transform="translate(371.071,158.472) rotate(90)">
				<title>工作表.3</title>
				<desc>僧瑗</desc>
				<v:textBlock v:margins="rect(4,4,4,4)" v:tabSpace="42.5197"/>
				<v:textRect cx="21.2598" cy="215.165" width="42.52" height="42.5197"/>
				<rect x="0" y="193.906" width="42.5197" height="42.5197" class="st1"/>
				<text x="5.26" y="219.97" class="st2" v:langID="1028"><v:paragraph v:horizAlign="1"/><v:tabList/>僧瑗</text>			</g>
			<g id="shape4-11" v:mID="4" v:groupContext="shape" transform="translate(342.724,-167.512) rotate(90)">
				<title>工作表.4</title>
				<desc>大明</desc>
				<v:textBlock v:margins="rect(4,4,4,4)" v:tabSpace="42.5197"/>
				<v:textRect cx="21.2598" cy="215.165" width="42.52" height="42.5197"/>
				<rect x="0" y="193.906" width="42.5197" height="42.5197" class="st1"/>
				<text x="5.26" y="219.97" class="st2" v:langID="1028"><v:paragraph v:horizAlign="1"/><v:tabList/>大明</text>			</g>
			<g id="shape5-14" v:mID="5" v:groupContext="shape" transform="translate(314.378,-25.7795) rotate(90)">
				<title>工作表.5</title>
				<desc>法融</desc>
				<v:textBlock v:margins="rect(4,4,4,4)" v:tabSpace="42.5197"/>
				<v:textRect cx="21.2598" cy="215.165" width="42.52" height="42.5197"/>
				<rect x="0" y="193.906" width="42.5197" height="42.5197" class="st1"/>
				<text x="5.26" y="219.97" class="st2" v:langID="1028"><v:paragraph v:horizAlign="1"/><v:tabList/>法融</text>			</g>
			<g id="shape6-17" v:mID="6" v:groupContext="shape" transform="translate(314.378,158.472) rotate(90)">
				<title>工作表.6</title>
				<desc>善伏</desc>
				<v:textBlock v:margins="rect(4,4,4,4)" v:tabSpace="42.5197"/>
				<v:textRect cx="21.2598" cy="215.165" width="42.52" height="42.5197"/>
				<rect x="0" y="193.906" width="42.5197" height="42.5197" class="st1"/>
				<text x="5.26" y="219.97" class="st2" v:langID="1028"><v:paragraph v:horizAlign="1"/><v:tabList/>善伏</text>			</g>
			<g id="shape7-20" v:mID="7" v:groupContext="shape" transform="translate(286.031,-54.126) rotate(90)">
				<title>工作表.7</title>
				<desc>寶月</desc>
				<v:textBlock v:margins="rect(4,4,4,4)" v:tabSpace="42.5197"/>
				<v:textRect cx="21.2598" cy="215.165" width="42.52" height="42.5197"/>
				<rect x="0" y="193.906" width="42.5197" height="42.5197" class="st1"/>
				<text x="5.26" y="219.97" class="st2" v:langID="1028"><v:paragraph v:horizAlign="1"/><v:tabList/>寶月</text>			</g>
			<g id="shape8-23" v:mID="8" v:groupContext="shape" transform="translate(286.031,73.4331) rotate(90)">
				<title>工作表.8</title>
				<desc>智巖</desc>
				<v:textBlock v:margins="rect(4,4,4,4)" v:tabSpace="42.5197"/>
				<v:textRect cx="21.2598" cy="215.165" width="42.52" height="42.5197"/>
				<rect x="0" y="193.906" width="42.5197" height="42.5197" class="st1"/>
				<text x="5.26" y="219.97" class="st2" v:langID="1028"><v:paragraph v:horizAlign="1"/><v:tabList/>智巖</text>			</g>
			<g id="shape9-26" v:mID="9" v:groupContext="shape" transform="translate(286.031,158.472) rotate(90)">
				<title>工作表.9</title>
				<desc>慧明</desc>
				<v:textBlock v:margins="rect(4,4,4,4)" v:tabSpace="42.5197"/>
				<v:textRect cx="21.2598" cy="215.165" width="42.52" height="42.5197"/>
				<rect x="0" y="193.906" width="42.5197" height="42.5197" class="st1"/>
				<text x="5.26" y="219.97" class="st2" v:langID="1028"><v:paragraph v:horizAlign="1"/><v:tabList/>慧明</text>			</g>
			<g id="shape10-29" v:mID="10" v:groupContext="shape" transform="translate(257.685,-54.126) rotate(90)">
				<title>工作表.10</title>
				<desc>僧璨</desc>
				<v:textBlock v:margins="rect(4,4,4,4)" v:tabSpace="42.5197"/>
				<v:textRect cx="21.2598" cy="215.165" width="42.52" height="42.5197"/>
				<rect x="0" y="193.906" width="42.5197" height="42.5197" class="st1"/>
				<text x="5.26" y="219.97" class="st2" v:langID="1028"><v:paragraph v:horizAlign="1"/><v:tabList/>僧璨</text>			</g>
			<g id="shape11-32" v:mID="11" v:groupContext="shape" transform="translate(257.685,73.4331) rotate(90)">
				<title>工作表.11</title>
				<desc>道信</desc>
				<v:textBlock v:margins="rect(4,4,4,4)" v:tabSpace="42.5197"/>
				<v:textRect cx="21.2598" cy="215.165" width="42.52" height="42.5197"/>
				<rect x="0" y="193.906" width="42.5197" height="42.5197" class="st1"/>
				<text x="5.26" y="219.97" class="st2" v:langID="1028"><v:paragraph v:horizAlign="1"/><v:tabList/>道信</text>			</g>
			<g id="shape12-35" v:mID="12" v:groupContext="shape" transform="translate(334.232,-244.062) rotate(60.9454)">
				<title>工作表.12</title>
				<path d="M0 236.43 L58.37 236.43" class="st3"/>
			</g>
			<g id="shape13-38" v:mID="13" v:groupContext="shape" transform="translate(243.712,175.311) rotate(158.199)">
				<title>工作表.13</title>
				<path d="M0 236.43 L61.06 236.43" class="st3"/>
			</g>
			<g id="shape14-41" v:mID="14" v:groupContext="shape" transform="translate(392.331,-44.2047) rotate(90)">
				<title>工作表.14</title>
				<path d="M0 236.43 L120.47 236.43" class="st3"/>
			</g>
			<g id="shape15-44" v:mID="15" v:groupContext="shape" transform="translate(278.945,-13.0236) rotate(90)">
				<title>工作表.15</title>
				<path d="M0 236.43 L87.87 236.43" class="st3"/>
			</g>
			<g id="shape16-47" v:mID="16" v:groupContext="shape" transform="translate(356.2,-69.0755) rotate(104.744)">
				<title>工作表.16</title>
				<path d="M0 236.43 L111.38 236.43" class="st3"/>
			</g>
			<g id="shape17-50" v:mID="17" v:groupContext="shape" transform="translate(307.291,-11.6063) rotate(90)">
				<title>工作表.17</title>
				<path d="M0 236.43 L87.87 236.43" class="st3"/>
			</g>
			<g id="shape18-53" v:mID="18" v:groupContext="shape" transform="translate(374.366,46.1929) rotate(112.479)">
				<title>工作表.18</title>
				<path d="M0 236.43 L222.41 236.43" class="st3"/>
			</g>
			<g id="shape19-56" v:mID="19" v:groupContext="shape" transform="translate(267.752,-84.9064) rotate(72.2996)">
				<title>工作表.19</title>
				<path d="M0 236.43 L93.23 236.43" class="st4"/>
			</g>
			<g id="shape20-59" v:mID="20" v:groupContext="shape" transform="translate(319.602,-70.2653) rotate(68.7763)">
				<title>工作表.20</title>
				<path d="M0 236.43 L156.61 236.43" class="st3"/>
			</g>
			<g id="shape21-62" v:mID="21" v:groupContext="shape" transform="translate(198.207,-66.2273) rotate(41.1859)">
				<title>工作表.21</title>
				<path d="M0 236.43 L75.33 236.43" class="st3"/>
			</g>
			<g id="shape22-65" v:mID="22" v:groupContext="shape" transform="translate(276.141,-5.59896) rotate(60.2551)">
				<title>工作表.22</title>
				<path d="M0 236.43 L57.13 236.43" class="st3"/>
			</g>
			<g id="shape23-68" v:mID="23" v:groupContext="shape" transform="translate(311.593,289.629) rotate(138.814)">
				<title>工作表.23</title>
				<path d="M0 236.43 L75.33 236.43" class="st3"/>
			</g>
			<g id="shape24-71" v:mID="24" v:groupContext="shape" transform="translate(434.85,-188.772) rotate(90)">
				<title>工作表.24</title>
				<path d="M0 236.43 L425.2 236.43" class="st5"/>
			</g>
			<g id="shape25-74" v:mID="25" v:groupContext="shape" transform="translate(307.291,111.701) rotate(90)">
				<title>工作表.25</title>
				<path d="M0 236.43 L49.61 236.43" class="st3"/>
			</g>
			<g id="shape26-77" v:mID="26" v:groupContext="shape">
				<title>工作表.26</title>
				<path d="M0 236.43 L198.43 236.43" class="st5"/>
			</g>
			<g id="shape27-80" v:mID="27" v:groupContext="shape" transform="translate(0,-425.197)">
				<title>工作表.27</title>
				<path d="M0 236.43 L198.43 236.43" class="st5"/>
			</g>
			<g id="shape28-83" v:mID="28" v:groupContext="shape" transform="translate(236.425,-188.772) rotate(90)">
				<title>工作表.28</title>
				<path d="M0 236.43 L425.2 236.43" class="st5"/>
			</g>
		</g>
	</g>
</svg>
