<?xml version="1.0" encoding="utf-8"?>
<!-- Generator: Adobe Illustrator 16.0.3, SVG Export Plug-In . SVG Version: 6.00 Build 0)  -->
<!DOCTYPE svg PUBLIC "-//W3C//DTD SVG 1.1//EN" "http://www.w3.org/Graphics/SVG/1.1/DTD/svg11.dtd">
<svg version="1.1" id="圖層_1" xmlns="http://www.w3.org/2000/svg" xmlns:xlink="http://www.w3.org/1999/xlink" x="0px" y="0px"
	 width="100px" height="100px" viewBox="0 0 100 100" enable-background="new 0 0 100 100" xml:space="preserve">
<g>
	<ellipse fill="#FFFFFF" cx="50" cy="49.629" rx="46.857" ry="46.686"/>
	<path d="M50,97.814c-26.664,0-48.357-21.616-48.357-48.186C1.643,23.059,23.336,1.443,50,1.443s48.357,21.616,48.357,48.186
		C98.357,76.198,76.664,97.814,50,97.814z M50,4.443c-25.01,0-45.357,20.271-45.357,45.186C4.643,74.544,24.99,94.814,50,94.814
		s45.357-20.271,45.357-45.186C95.357,24.713,75.01,4.443,50,4.443z"/>
</g>
<g>
	<path d="M30.937,17.022c2.232,0.775,4.17,1.572,5.811,2.393c0.318,0.273,0.479,0.547,0.479,0.82c0,0.41-0.456,0.684-1.367,0.82
		c-1.003,0.183-1.732,0.273-2.188,0.273c-1.367,4.102-2.917,8.021-4.648,11.758c-0.319,0.775-0.639,1.481-0.957,2.119
		c1.549,0.775,2.324,1.367,2.324,1.777s-0.729,0.935-2.188,1.572v35.889c0,1.458,0.113,2.552,0.342,3.281
		c0.137,0.592,0.205,1.116,0.205,1.572c0,1.367-0.844,2.096-2.529,2.188c-0.866,0-1.299-0.342-1.299-1.025V41.017
		c-0.41,0.593-0.775,1.162-1.094,1.709c-1.914,2.826-4.193,5.742-6.836,8.75l-1.094-0.889c2.415-3.145,4.443-6.129,6.084-8.955
		c1.321-2.415,2.62-5.104,3.896-8.066c1.275-3.008,2.347-5.811,3.213-8.408C29.866,22.651,30.481,19.939,30.937,17.022z
		 M35.244,28.233c1.777,0.365,4.352,0.547,7.725,0.547h5.469v-1.846c0-4.42-0.184-7.564-0.547-9.434
		c2.277,0.273,4.328,0.684,6.152,1.23c0.455,0.092,0.684,0.342,0.684,0.752s-0.273,0.752-0.82,1.025
		c-0.684,0.365-1.414,0.639-2.188,0.82v7.451h8.75v-5.742c0-2.461-0.092-4.307-0.273-5.537c2.188,0.319,4.01,0.82,5.469,1.504
		c0.547,0.273,0.82,0.615,0.82,1.025c0,0.365-0.229,0.639-0.684,0.82c-0.639,0.41-1.322,0.684-2.051,0.82v7.109h8.75l1.914-2.256
		c2.369,1.459,3.555,2.461,3.555,3.008c0,0.502-0.662,1.162-1.982,1.982v7.52c0.684,0.547,1.299,1.049,1.846,1.504
		c0.273,0.137,0.41,0.297,0.41,0.479c0,0.775-0.184,1.162-0.547,1.162H63.75v10.596h13.057l2.461-2.188
		c1.549,0.912,2.756,1.732,3.623,2.461c0.363,0.365,0.547,0.661,0.547,0.889c0,0.547-0.912,1.162-2.734,1.846
		c-0.273,3.327-0.662,6.107-1.162,8.34c-0.502,2.37-1.004,4.125-1.504,5.264c-0.547,0.957-1.141,1.686-1.777,2.188
		c-0.639,0.547-1.346,0.979-2.119,1.299c-0.73,0.273-1.277,0.41-1.641,0.41c0-0.639-0.16-1.14-0.479-1.504
		c-0.32-0.547-2.166-1.391-5.537-2.529l0.273-1.436c3.145,0.775,5.217,1.162,6.221,1.162c0.455,0,0.865-0.091,1.23-0.273
		c0.273-0.045,0.523-0.273,0.752-0.684c0.273-0.364,0.568-1.025,0.889-1.982c0.363-0.957,0.66-2.369,0.889-4.238
		c0.318-1.777,0.547-4.124,0.684-7.041H63.75v24.814c0,0.957-0.662,1.436-1.982,1.436c-1.049,0-1.572-0.57-1.572-1.709
		c0-0.547,0.045-1.254,0.137-2.119c0.09-0.957,0.137-1.777,0.137-2.461V54.757h-9.434c-0.092,0.775-0.229,1.504-0.41,2.188
		c-0.73,3.601-1.688,6.745-2.871,9.434c-1.186,2.644-2.827,5.195-4.922,7.656c-2.143,2.506-4.854,4.83-8.135,6.973l-1.025-1.162
		c3.099-2.416,5.491-4.74,7.178-6.973c1.641-2.279,3.008-4.671,4.102-7.178c0.957-2.232,1.799-5.195,2.53-8.887
		c0.09-0.774,0.182-1.458,0.273-2.051H37.158c-0.365,0.183-0.82,0.273-1.367,0.273c-0.866,0-1.299-0.182-1.299-0.547
		c0-0.182,0.022-0.364,0.068-0.547c0.045-0.228,0.159-0.752,0.342-1.572c0.318-1.458,0.615-3.167,0.889-5.127
		c0.182-1.595,0.387-3.281,0.615-5.059c0.137-1.549,0.228-2.939,0.273-4.17l3.555,2.256h8.204v-9.57h-5.469
		c-3.646,0-5.834,0.092-6.563,0.273L35.244,28.233z M48.027,52.774c0.273-2.779,0.41-5.605,0.41-8.477v-2.119h-9.024
		c-0.273,2.507-0.502,4.467-0.684,5.879c-0.183,1.413-0.434,2.917-0.752,4.512v0.205H48.027z M60.469,52.774V42.179h-8.75v2.119
		c0,3.1-0.137,5.925-0.41,8.477H60.469z M51.719,30.694v9.57h8.75v-9.57H51.719z M63.75,30.694v9.57h8.955v-9.57H63.75z"/>
</g>
</svg>
