<?xml version="1.0" encoding="UTF-8" standalone="no"?>
<!DOCTYPE svg PUBLIC "-//W3C//DTD SVG 1.1//EN" "http://www.w3.org/Graphics/SVG/1.1/DTD/svg11.dtd">
<!-- 由 Microsoft Visio, SVG Export 產生 y40.0415-1.svg 圖層_1 -->
<svg xmlns="http://www.w3.org/2000/svg" xmlns:xlink="http://www.w3.org/1999/xlink" xmlns:ev="http://www.w3.org/2001/xml-events"
		width="1.04167in" height="1.04167in" viewBox="0 0 75 75" xml:space="preserve" color-interpolation-filters="sRGB"
		class="st3">
	<style type="text/css">
	<![CDATA[
		.st1 {fill:none;stroke:none;stroke-linecap:butt;stroke-width:0.75}
		.st2 {fill:#000000;stroke:none;stroke-linecap:butt;stroke-width:0.75}
		.st3 {fill:none;fill-rule:evenodd;font-size:12px;overflow:visible;stroke-linecap:square;stroke-miterlimit:3}
	]]>
	</style>

	<g>
		<title>圖層_1</title>
		<g id="shape2-1" transform="translate(2.35725,-2.76375)">
			<title>工作表.2</title>
			<ellipse cx="35.1427" cy="39.9855" rx="35.1427" ry="35.0145" class="st1"/>
		</g>
		<g id="shape3-3" transform="translate(1.23225,-1.6395)">
			<title>工作表.3</title>
			<path d="M36.27 75 C16.27 75 0 58.79 0 38.86 C0 18.93 16.27 2.72 36.27 2.72 C56.27 2.72 72.54 18.93 72.54 38.86 C72.54
						 58.79 56.27 75 36.27 75 ZM36.27 4.97 C17.51 4.97 2.25 20.17 2.25 38.86 C2.25 57.55 17.51 72.75 36.27 72.75
						 C55.03 72.75 70.29 57.55 70.29 38.86 C70.29 20.17 55.03 4.97 36.27 4.97 Z" class="st2"/>
		</g>
		<g id="shape4-5" transform="translate(12.609,-13.8202)">
			<title>工作表.4</title>
			<path d="M13.33 29.47 C14.94 29.99 16.39 30.55 17.69 31.17 C17.93 31.37 18.05 31.56 18.05 31.73 C18.05 32.07 17.81 32.31
						 17.33 32.45 C16.54 32.69 15.81 32.81 15.13 32.81 C14.41 34.52 13.55 36.16 12.56 37.73 C12.36 38.07 12.17
						 38.41 12 38.75 L23.74 38.75 L23.74 30.76 C23.74 28.91 23.67 27.53 23.53 26.6 C25.52 26.84 27.14 27.22 28.4
						 27.73 C28.88 27.94 29.12 28.19 29.12 28.5 C29.12 28.77 28.88 28.98 28.4 29.12 C27.75 29.42 27.04 29.63 26.25
						 29.73 L26.25 38.75 L37.53 38.75 L40.35 35.42 C41.79 36.55 43.14 37.63 44.4 38.65 C44.71 38.86 44.86 39.1
						 44.86 39.37 C44.86 39.88 44.61 40.14 44.09 40.14 L26.25 40.14 L26.25 53.47 L42.61 53.47 L45.48 50.24 C46.91
						 51.33 48.26 52.39 49.53 53.42 C49.83 53.59 49.99 53.83 49.99 54.13 C49.99 54.65 49.71 54.9 49.17 54.9 L26.25
						 54.9 L26.25 70.28 C26.25 71.1 26.28 71.63 26.35 71.87 C26.42 72.45 26.46 72.95 26.46 73.36 C26.46 74.45
						 25.91 75 24.82 75 C23.96 75 23.53 74.74 23.53 74.23 C23.53 73.48 23.57 72.54 23.64 71.41 C23.7 70.21 23.74
						 69.16 23.74 68.23 L23.74 54.9 L5.9 54.9 C3.5 54.94 1.86 55.01 0.97 55.11 L0 52.85 C1.47 53.26 3.44 53.47
						 5.9 53.47 L23.74 53.47 L23.74 40.14 L11.13 40.14 C10.54 41.06 9.98 41.92 9.43 42.7 C8.37 44.17 7.26 45.49
						 6.1 46.65 C5.11 47.85 3.74 49.11 2 50.44 L1.18 49.83 C2.96 48.33 4.44 46.74 5.64 45.06 C7.01 43.18 8.31
						 41.22 9.54 39.17 C10.73 37.05 11.72 34.93 12.51 32.81 C12.92 31.75 13.19 30.64 13.33 29.47 Z" class="st2"/>
		</g>
	</g>
</svg>
