<?xml version="1.0" encoding="UTF-8" standalone="no"?>
<!DOCTYPE svg PUBLIC "-//W3C//DTD SVG 1.1//EN" "http://www.w3.org/Graphics/SVG/1.1/DTD/svg11.dtd">
<!-- 由 Microsoft Visio, SVG Export 產生 y26.0244.svg 頁-1 -->
<svg xmlns="http://www.w3.org/2000/svg" xmlns:xlink="http://www.w3.org/1999/xlink" xmlns:ev="http://www.w3.org/2001/xml-events"
		width="6.23436in" height="8.08476in" viewBox="0 0 448.874 582.102" xml:space="preserve" color-interpolation-filters="sRGB"
		class="st5">
	<style type="text/css">
	<![CDATA[
		.st1 {fill:none;stroke:#ffffff;stroke-linecap:round;stroke-linejoin:round;stroke-opacity:0;stroke-width:1}
		.st2 {fill:#000000;font-family:新細明體;font-size:1.33333em}
		.st3 {stroke:#000000;stroke-linecap:round;stroke-linejoin:round;stroke-width:1}
		.st4 {stroke:#000000;stroke-dasharray:3,3;stroke-linecap:round;stroke-linejoin:round;stroke-width:1}
		.st5 {fill:none;fill-rule:evenodd;font-size:12px;overflow:visible;stroke-linecap:square;stroke-miterlimit:3}
	]]>
	</style>

	<g>
		<title>頁-1</title>
		<g id="group49-1" transform="translate(0.5,-0.5)">
			<title>工作表.49</title>
			<g id="shape2-2" transform="translate(3.19744E-14,-501.732)">
				<title>工作表.2</title>
				<desc>內有色想觀外色</desc>
				<rect x="0" y="562.26" width="127.559" height="19.8425" class="st1"/>
				<text x="7.78" y="576.98" class="st2">內有色想觀外色</text>			</g>
			<g id="shape3-5" transform="translate(2.83465,-119.055)">
				<title>工作表.3</title>
				<desc>空無邊處</desc>
				<rect x="0" y="562.26" width="73.7008" height="19.8425" class="st1"/>
				<text x="4.85" y="576.98" class="st2">空無邊處</text>			</g>
			<g id="shape4-8" transform="translate(1.83853E-12,-34.0157)">
				<title>工作表.4</title>
				<desc>非想非非想處</desc>
				<rect x="0" y="562.26" width="107.717" height="19.8425" class="st1"/>
				<text x="5.86" y="576.98" class="st2">非想非非想處</text>			</g>
			<g id="shape5-11" transform="translate(34.0157,-558.425)">
				<title>工作表.5</title>
				<desc>八解脫</desc>
				<rect x="0" y="562.26" width="59.5276" height="19.8425" class="st1"/>
				<text x="5.76" y="576.98" class="st2">八解脫</text>			</g>
			<g id="shape6-14" transform="translate(204.094,-558.425)">
				<title>工作表.6</title>
				<desc>八勝處</desc>
				<rect x="0" y="562.26" width="59.5276" height="19.8425" class="st1"/>
				<text x="5.76" y="576.98" class="st2">八勝處</text>			</g>
			<g id="shape7-17" transform="translate(171.496,-530.787)">
				<title>工作表.7</title>
				<desc>內有色想觀外色少</desc>
				<rect x="0" y="562.26" width="143.15" height="19.8425" class="st1"/>
				<text x="7.58" y="576.98" class="st2">內有色想觀外色少</text>			</g>
			<g id="shape8-20" transform="translate(171.496,-471.969)">
				<title>工作表.8</title>
				<desc>內有色想觀外色多</desc>
				<rect x="0" y="562.26" width="143.15" height="19.8425" class="st1"/>
				<text x="7.58" y="576.98" class="st2">內有色想觀外色多</text>			</g>
			<g id="shape9-23" transform="translate(3.51719E-13,-415.276)">
				<title>工作表.9</title>
				<desc>內無色想觀外色</desc>
				<rect x="0" y="562.26" width="127.559" height="19.8425" class="st1"/>
				<text x="7.78" y="576.98" class="st2">內無色想觀外色</text>			</g>
			<g id="shape10-26" transform="translate(171.496,-443.622)">
				<title>工作表.10</title>
				<desc>內無色想觀外色少</desc>
				<rect x="0" y="562.26" width="143.15" height="19.8425" class="st1"/>
				<text x="7.58" y="576.98" class="st2">內無色想觀外色少</text>			</g>
			<g id="shape11-29" transform="translate(171.496,-389.055)">
				<title>工作表.11</title>
				<desc>內無色想觀外色多</desc>
				<rect x="0" y="562.26" width="143.15" height="19.8425" class="st1"/>
				<text x="7.58" y="576.98" class="st2">內無色想觀外色多</text>			</g>
			<g id="shape12-32" transform="translate(1.41732,-231.024)">
				<title>工作表.12</title>
				<desc>淨解脫身作證</desc>
				<rect x="0" y="562.26" width="109.134" height="19.8425" class="st1"/>
				<text x="6.57" y="576.98" class="st2">淨解脫身作證</text>			</g>
			<g id="shape13-35" transform="translate(345.827,-557.008)">
				<title>工作表.13</title>
				<desc>十遍處</desc>
				<rect x="0" y="562.26" width="59.5276" height="19.8425" class="st1"/>
				<text x="5.76" y="576.98" class="st2">十遍處</text>			</g>
			<g id="shape1-38" transform="translate(345.827,-345.827)">
				<title>工作表.1</title>
				<desc>地遍處</desc>
				<rect x="0" y="562.26" width="59.5276" height="19.8425" class="st1"/>
				<text x="5.76" y="576.98" class="st2">地遍處</text>			</g>
			<g id="shape14-41" transform="translate(345.827,-287.717)">
				<title>工作表.14</title>
				<desc>火遍處</desc>
				<rect x="0" y="562.26" width="59.5276" height="19.8425" class="st1"/>
				<text x="5.76" y="576.98" class="st2">火遍處</text>			</g>
			<g id="shape15-44" transform="translate(345.827,-260.787)">
				<title>工作表.15</title>
				<desc>風遍處</desc>
				<rect x="0" y="562.26" width="59.5276" height="19.8425" class="st1"/>
				<text x="5.76" y="576.98" class="st2">風遍處</text>			</g>
			<g id="shape16-47" transform="translate(345.827,-232.441)">
				<title>工作表.16</title>
				<desc>青遍處</desc>
				<rect x="0" y="562.26" width="59.5276" height="19.8425" class="st1"/>
				<text x="5.76" y="576.98" class="st2">青遍處</text>			</g>
			<g id="shape17-50" transform="translate(345.827,-317.48)">
				<title>工作表.17</title>
				<desc>水遍處</desc>
				<rect x="0" y="562.26" width="59.5276" height="19.8425" class="st1"/>
				<text x="5.76" y="576.98" class="st2">水遍處</text>			</g>
			<g id="shape20-53" transform="translate(345.827,-204.094)">
				<title>工作表.20</title>
				<desc>黃遍處</desc>
				<rect x="0" y="562.26" width="59.5276" height="19.8425" class="st1"/>
				<text x="5.76" y="576.98" class="st2">黃遍處</text>			</g>
			<g id="shape21-56" transform="translate(345.827,-145.984)">
				<title>工作表.21</title>
				<desc>白遍處</desc>
				<rect x="0" y="562.26" width="59.5276" height="19.8425" class="st1"/>
				<text x="5.76" y="576.98" class="st2">白遍處</text>			</g>
			<g id="shape22-59" transform="translate(345.827,-119.055)">
				<title>工作表.22</title>
				<desc>空遍處</desc>
				<rect x="0" y="562.26" width="59.5276" height="19.8425" class="st1"/>
				<text x="5.76" y="576.98" class="st2">空遍處</text>			</g>
			<g id="shape23-62" transform="translate(345.827,-90.7087)">
				<title>工作表.23</title>
				<desc>識遍處</desc>
				<rect x="0" y="562.26" width="59.5276" height="19.8425" class="st1"/>
				<text x="5.76" y="576.98" class="st2">識遍處</text>			</g>
			<g id="shape24-65" transform="translate(345.827,-175.748)">
				<title>工作表.24</title>
				<desc>赤遍處</desc>
				<rect x="0" y="562.26" width="59.5276" height="19.8425" class="st1"/>
				<text x="5.76" y="576.98" class="st2">赤遍處</text>			</g>
			<g id="shape18-68" transform="translate(171.496,-232.441)">
				<title>工作表.18</title>
				<desc>內無色想觀外色青</desc>
				<rect x="0" y="562.26" width="143.15" height="19.8425" class="st1"/>
				<text x="7.58" y="576.98" class="st2">內無色想觀外色青</text>			</g>
			<g id="shape19-71" transform="translate(171.496,-204.803)">
				<title>工作表.19</title>
				<desc>內無色想觀外色黃</desc>
				<rect x="0" y="562.26" width="143.15" height="19.8425" class="st1"/>
				<text x="7.58" y="576.98" class="st2">內無色想觀外色黃</text>			</g>
			<g id="shape25-74" transform="translate(171.496,-175.748)">
				<title>工作表.25</title>
				<desc>內無色想觀外色赤</desc>
				<rect x="0" y="562.26" width="143.15" height="19.8425" class="st1"/>
				<text x="7.58" y="576.98" class="st2">內無色想觀外色赤</text>			</g>
			<g id="shape26-77" transform="translate(171.496,-148.11)">
				<title>工作表.26</title>
				<desc>內無色想觀外色白</desc>
				<rect x="0" y="562.26" width="143.15" height="19.8425" class="st1"/>
				<text x="7.58" y="576.98" class="st2">內無色想觀外色白</text>			</g>
			<g id="shape27-80" transform="translate(2.83465,-90.7087)">
				<title>工作表.27</title>
				<desc>識無邊處</desc>
				<rect x="0" y="562.26" width="73.7008" height="19.8425" class="st1"/>
				<text x="4.85" y="576.98" class="st2">識無邊處</text>			</g>
			<g id="shape28-83" transform="translate(2.83465,-62.3622)">
				<title>工作表.28</title>
				<desc>無所有處</desc>
				<rect x="0" y="562.26" width="73.7008" height="19.8425" class="st1"/>
				<text x="4.85" y="576.98" class="st2">無所有處</text>			</g>
			<g id="shape29-86" transform="translate(1.80655E-12,-5.66929)">
				<title>工作表.29</title>
				<desc>想受滅身作證</desc>
				<rect x="0" y="562.26" width="107.717" height="19.8425" class="st1"/>
				<text x="5.86" y="576.98" class="st2">想受滅身作證</text>			</g>
			<g id="shape31-89" transform="translate(5.66929,-552.756)">
				<title>工作表.31</title>
				<path d="M0 582.1 L442.2 582.1" class="st3"/>
			</g>
			<g id="shape32-92" transform="translate(-410.606,582.102) rotate(-90)">
				<title>工作表.32</title>
				<path d="M0 582.1 L581.1 582.1" class="st3"/>
			</g>
			<g id="shape33-95" transform="translate(-241.945,582.102) rotate(-90)">
				<title>工作表.33</title>
				<path d="M0 582.1 L581.1 582.1" class="st3"/>
			</g>
			<g id="shape34-98" transform="translate(79.3701,-127.559)">
				<title>工作表.34</title>
				<path d="M0 582.1 L240.92 582.1" class="st3"/>
			</g>
			<g id="shape35-101" transform="translate(79.3701,-99.2126)">
				<title>工作表.35</title>
				<path d="M0 582.1 L240.92 582.1" class="st3"/>
			</g>
			<g id="shape36-104" transform="translate(107.717,-240.945)">
				<title>工作表.36</title>
				<path d="M0 582.1 L28.35 582.1" class="st3"/>
			</g>
			<g id="shape37-107" transform="translate(121.89,-425.197)">
				<title>工作表.37</title>
				<path d="M0 582.1 L28.35 582.1" class="st3"/>
			</g>
			<g id="shape38-110" transform="translate(121.89,-510.236)">
				<title>工作表.38</title>
				<path d="M0 582.1 L28.35 582.1" class="st3"/>
			</g>
			<g id="shape39-113" transform="translate(-370.412,-103.419) rotate(-63.4349)">
				<title>工作表.39</title>
				<path d="M0 582.1 L31.69 582.1" class="st3"/>
			</g>
			<g id="shape40-116" transform="translate(670.884,-103.419) rotate(63.4349)">
				<title>工作表.40</title>
				<path d="M0 582.1 L31.69 582.1" class="st3"/>
			</g>
			<g id="shape41-119" transform="translate(-370.412,-188.458) rotate(-63.4349)">
				<title>工作表.41</title>
				<path d="M0 582.1 L31.69 582.1" class="st3"/>
			</g>
			<g id="shape42-122" transform="translate(670.884,-188.458) rotate(63.4349)">
				<title>工作表.42</title>
				<path d="M0 582.1 L31.69 582.1" class="st3"/>
			</g>
			<g id="shape30-125" transform="translate(673.388,117.272) rotate(67.3801)">
				<title>工作表.30</title>
				<path d="M0 582.1 L92.13 582.1" class="st3"/>
			</g>
			<g id="shape43-128" transform="translate(-419.542,167.531) rotate(-72.646)">
				<title>工作表.43</title>
				<path d="M0 582.1 L118.79 582.1" class="st3"/>
			</g>
			<g id="shape44-131" transform="translate(171.496,-354.331)">
				<title>工作表.44</title>
				<path d="M0 582.1 L162.99 582.1" class="st4"/>
			</g>
			<g id="shape45-134" transform="translate(306.142,-155.906)">
				<title>工作表.45</title>
				<path d="M0 582.1 L28.35 582.1" class="st3"/>
			</g>
			<g id="shape46-137" transform="translate(306.142,-184.252)">
				<title>工作表.46</title>
				<path d="M0 582.1 L28.35 582.1" class="st3"/>
			</g>
			<g id="shape47-140" transform="translate(306.142,-212.598)">
				<title>工作表.47</title>
				<path d="M0 582.1 L28.35 582.1" class="st3"/>
			</g>
			<g id="shape48-143" transform="translate(306.142,-240.945)">
				<title>工作表.48</title>
				<path d="M0 582.1 L28.35 582.1" class="st3"/>
			</g>
		</g>
	</g>
</svg>
