<?xml version="1.0" encoding="UTF-8" standalone="no"?>
<!DOCTYPE svg PUBLIC "-//W3C//DTD SVG 1.1//EN" "http://www.w3.org/Graphics/SVG/1.1/DTD/svg11.dtd">
<!-- 由 Microsoft Visio, SVG Export 產生 y26.0222.svg 頁-1 -->
<svg xmlns="http://www.w3.org/2000/svg" xmlns:xlink="http://www.w3.org/1999/xlink" xmlns:ev="http://www.w3.org/2001/xml-events"
		width="6.73876in" height="12.7336in" viewBox="0 0 485.191 916.823" xml:space="preserve" color-interpolation-filters="sRGB"
		class="st7">
	<style type="text/css">
	<![CDATA[
		.st1 {fill:none;stroke:none;stroke-linecap:round;stroke-linejoin:round;stroke-width:0.75}
		.st2 {fill:#000000;font-family:新細明體;font-size:1.33331em}
		.st3 {baseline-shift:33.35%;font-size:0.667em}
		.st4 {fill:#000000;font-family:新細明體;font-size:1.33333em}
		.st5 {font-size:0.750009em}
		.st6 {stroke:#000000;stroke-linecap:round;stroke-linejoin:round;stroke-width:0.24}
		.st7 {fill:none;fill-rule:evenodd;font-size:12px;overflow:visible;stroke-linecap:square;stroke-miterlimit:3}
	]]>
	</style>

	<g>
		<title>頁-1</title>
		<g id="group97-1" transform="translate(0.375,-0.12)">
			<title>工作表.97</title>
			<g id="shape1-2" transform="translate(5.19584E-14,-855.213)">
				<title>工作表.1</title>
				<desc>上</desc>
				<rect x="0" y="892.445" width="24.378" height="24.378" class="st1"/>
				<text x="6.85" y="909.96" class="st2"><tspan class="st3">上</tspan></text>			</g>
			<g id="shape2-6" transform="translate(5.19584E-14,-599.244)">
				<title>工作表.2</title>
				<desc>中</desc>
				<rect x="0" y="892.445" width="24.378" height="24.378" class="st1"/>
				<text x="6.85" y="909.96" class="st2"><tspan class="st3">中</tspan></text>			</g>
			<g id="shape3-10" transform="translate(5.19584E-14,-269.291)">
				<title>工作表.3</title>
				<desc>下</desc>
				<rect x="0" y="892.445" width="24.378" height="24.378" class="st1"/>
				<text x="6.85" y="909.96" class="st2"><tspan class="st3">下</tspan></text>			</g>
			<g id="shape4-14" transform="translate(21.8504,-889.795)">
				<title>工作表.4</title>
				<desc>.</desc>
				<rect x="0" y="894.146" width="40.252" height="22.6772" class="st1"/>
				<text x="10.71" y="910.28" class="st4">Ａ<tspan class="st5">.</tspan></text>			</g>
			<g id="shape5-18" transform="translate(152.244,-889.795)">
				<title>工作表.5</title>
				<desc>.</desc>
				<rect x="0" y="894.146" width="40.252" height="22.6772" class="st1"/>
				<text x="10.71" y="910.28" class="st4">Ｂ<tspan class="st5">.</tspan></text>			</g>
			<g id="shape6-22" transform="translate(301.913,-889.795)">
				<title>工作表.6</title>
				<desc>.</desc>
				<rect x="0" y="894.146" width="40.252" height="22.6772" class="st1"/>
				<text x="10.71" y="910.28" class="st4">Ｃ<tspan class="st5">.</tspan></text>			</g>
			<g id="shape7-26" transform="translate(415.583,-889.795)">
				<title>工作表.7</title>
				<desc>.</desc>
				<rect x="0" y="894.146" width="40.252" height="22.6772" class="st1"/>
				<text x="10.71" y="910.28" class="st4">Ｄ<tspan class="st5">.</tspan></text>			</g>
			<g id="shape8-30" transform="translate(-796.894,916.823) rotate(-90)">
				<title>工作表.8</title>
				<path d="M0 916.82 L916.58 916.82" class="st6"/>
			</g>
			<g id="shape10-33" transform="translate(15.8976,-853.228)">
				<title>工作表.10</title>
				<desc>去家作沙門‧</desc>
				<rect x="0" y="894.146" width="104.031" height="22.6772" class="st1"/>
				<text x="4.02" y="910.28" class="st4">去家作沙門‧</text>			</g>
			<g id="shape11-36" transform="translate(128.409,-855.213)">
				<title>工作表.11</title>
				<desc>上</desc>
				<rect x="0" y="892.445" width="24.378" height="24.378" class="st1"/>
				<text x="6.85" y="909.96" class="st2"><tspan class="st3">上</tspan></text>			</g>
			<g id="shape13-40" transform="translate(144.307,-853.937)">
				<title>工作表.13</title>
				<desc>捨家作沙門‧</desc>
				<rect x="0" y="894.146" width="104.031" height="22.6772" class="st1"/>
				<text x="4.02" y="910.28" class="st4">捨家作沙門‧</text>			</g>
			<g id="shape14-43" transform="translate(-656.295,916.823) rotate(-90)">
				<title>工作表.14</title>
				<path d="M0 916.82 L916.58 916.82" class="st6"/>
			</g>
			<g id="shape15-46" transform="translate(272.717,-853.937)">
				<title>工作表.15</title>
				<desc>發菩提心‧</desc>
				<rect x="0" y="894.146" width="92.4094" height="22.6772" class="st1"/>
				<text x="8.28" y="910.28" class="st4">發菩提心‧</text>			</g>
			<g id="shape16-49" transform="translate(-539.508,916.823) rotate(-90)">
				<title>工作表.16</title>
				<path d="M0 916.82 L916.58 916.82" class="st6"/>
			</g>
			<g id="shape17-52" transform="translate(389.504,-853.937)">
				<title>工作表.17</title>
				<desc>聞此經典受</desc>
				<rect x="0" y="894.146" width="92.4094" height="22.6772" class="st1"/>
				<text x="6.2" y="910.28" class="st4">聞此經典受</text>			</g>
			<g id="shape18-55" transform="translate(15.8976,-816.661)">
				<title>工作表.18</title>
				<desc>作菩薩道‧</desc>
				<rect x="0" y="894.146" width="92.4094" height="22.6772" class="st1"/>
				<text x="6.2" y="910.28" class="st4">作菩薩道‧</text>			</g>
			<g id="shape19-58" transform="translate(15.8976,-780.094)">
				<title>工作表.19</title>
				<desc>奉行六度‧</desc>
				<rect x="0" y="894.146" width="92.4094" height="22.6772" class="st1"/>
				<text x="6.2" y="910.28" class="st4">奉行六度‧</text>			</g>
			<g id="shape20-61" transform="translate(15.8976,-743.528)">
				<title>工作表.20</title>
				<desc>慈心精進‧</desc>
				<rect x="0" y="894.146" width="92.4094" height="22.6772" class="st1"/>
				<text x="6.2" y="910.28" class="st4">慈心精進‧</text>			</g>
			<g id="shape21-64" transform="translate(17.0079,-706.795)">
				<title>工作表.21</title>
				<desc>不瞋不貪‧</desc>
				<rect x="0" y="894.146" width="92.4094" height="22.6772" class="st1"/>
				<text x="6.2" y="910.28" class="st4">不瞋不貪‧</text>			</g>
			<g id="shape22-67" transform="translate(15.8976,-670.394)">
				<title>工作表.22</title>
				<desc>常念至心不</desc>
				<rect x="0" y="894.146" width="92.4094" height="22.6772" class="st1"/>
				<text x="6.2" y="910.28" class="st4">常念至心不</text>			</g>
			<g id="shape23-70" transform="translate(18.7087,-633.827)">
				<title>工作表.23</title>
				<desc>斷絕</desc>
				<rect x="0" y="894.146" width="92.4094" height="22.6772" class="st1"/>
				<text x="4" y="910.28" class="st4">斷絕</text>			</g>
			<g id="shape24-73" transform="translate(15.8976,-597.26)">
				<title>工作表.24</title>
				<desc>在家布施‧</desc>
				<rect x="0" y="894.146" width="92.4094" height="22.6772" class="st1"/>
				<text x="6.2" y="910.28" class="st4">在家布施‧</text>			</g>
			<g id="shape25-76" transform="translate(15.8976,-560.693)">
				<title>工作表.25</title>
				<desc>深信佛語‧</desc>
				<rect x="0" y="894.146" width="92.4094" height="22.6772" class="st1"/>
				<text x="6.2" y="910.28" class="st4">深信佛語‧</text>			</g>
			<g id="shape26-79" transform="translate(15.8976,-524.126)">
				<title>工作表.26</title>
				<desc>飯沙門‧起</desc>
				<rect x="0" y="894.146" width="92.4094" height="22.6772" class="st1"/>
				<text x="6.2" y="910.28" class="st4">飯沙門‧起</text>			</g>
			<g id="shape27-82" transform="translate(15.8976,-487.559)">
				<title>工作表.27</title>
				<desc>寺塔供養‧</desc>
				<rect x="0" y="894.146" width="92.4094" height="22.6772" class="st1"/>
				<text x="6.2" y="910.28" class="st4">寺塔供養‧</text>			</g>
			<g id="shape28-85" transform="translate(15.8976,-414.425)">
				<title>工作表.28</title>
				<desc>齋戒清淨‧</desc>
				<rect x="0" y="894.146" width="92.4094" height="22.6772" class="st1"/>
				<text x="6.2" y="910.28" class="st4">齋戒清淨‧</text>			</g>
			<g id="shape29-88" transform="translate(15.8976,-450.992)">
				<title>工作表.29</title>
				<desc>慈心精進‧</desc>
				<rect x="0" y="894.146" width="92.4094" height="22.6772" class="st1"/>
				<text x="6.2" y="910.28" class="st4">慈心精進‧</text>			</g>
			<g id="shape30-91" transform="translate(15.8976,-377.858)">
				<title>工作表.30</title>
				<desc>不瞋斷愛‧</desc>
				<rect x="0" y="894.146" width="92.4094" height="22.6772" class="st1"/>
				<text x="6.2" y="910.28" class="st4">不瞋斷愛‧</text>			</g>
			<g id="shape31-94" transform="translate(15.8976,-342.709)">
				<title>工作表.31</title>
				<desc>一日一夜不</desc>
				<rect x="0" y="894.146" width="92.4094" height="22.6772" class="st1"/>
				<text x="6.2" y="910.28" class="st4">一日一夜不</text>			</g>
			<g id="shape32-97" transform="translate(15.8976,-269.575)">
				<title>工作表.32</title>
				<desc>斷愛欲‧不</desc>
				<rect x="0" y="894.146" width="92.4094" height="22.6772" class="st1"/>
				<text x="4" y="910.28" class="st4">斷愛欲‧不</text>			</g>
			<g id="shape33-100" transform="translate(17.8583,-306.142)">
				<title>工作表.33</title>
				<desc>斷絕</desc>
				<rect x="0" y="894.146" width="92.4094" height="22.6772" class="st1"/>
				<text x="4" y="910.28" class="st4">斷絕</text>			</g>
			<g id="shape34-103" transform="translate(15.8976,-233.008)">
				<title>工作表.34</title>
				<desc>嗔怒‧慈心</desc>
				<rect x="0" y="894.146" width="92.4094" height="22.6772" class="st1"/>
				<text x="4" y="910.28" class="st4">嗔怒‧慈心</text>			</g>
			<g id="shape35-106" transform="translate(15.8976,-196.441)">
				<title>工作表.35</title>
				<desc>精進‧齋戒</desc>
				<rect x="0" y="894.146" width="92.4094" height="22.6772" class="st1"/>
				<text x="4" y="910.28" class="st4">精進‧齋戒</text>			</g>
			<g id="shape36-109" transform="translate(15.8976,-159.874)">
				<title>工作表.36</title>
				<desc>清淨‧念欲</desc>
				<rect x="0" y="894.146" width="92.4094" height="22.6772" class="st1"/>
				<text x="4" y="910.28" class="st4">清淨‧念欲</text>			</g>
			<g id="shape37-112" transform="translate(15.8976,-123.307)">
				<title>工作表.37</title>
				<desc>往生‧晝夜</desc>
				<rect x="0" y="894.146" width="92.4094" height="22.6772" class="st1"/>
				<text x="4" y="910.28" class="st4">往生‧晝夜</text>			</g>
			<g id="shape38-115" transform="translate(15.8976,-86.1732)">
				<title>工作表.38</title>
				<desc>十日不斷絕</desc>
				<rect x="0" y="894.146" width="92.4094" height="22.6772" class="st1"/>
				<text x="4" y="910.28" class="st4">十日不斷絕</text>			</g>
			<g id="shape39-118" transform="translate(144.307,-816.661)">
				<title>工作表.39</title>
				<desc>發菩提心‧</desc>
				<rect x="0" y="894.146" width="92.4094" height="22.6772" class="st1"/>
				<text x="6.2" y="910.28" class="st4">發菩提心‧</text>			</g>
			<g id="shape40-121" transform="translate(144.307,-780.094)">
				<title>工作表.40</title>
				<desc>修諸功德‧</desc>
				<rect x="0" y="894.146" width="92.4094" height="22.6772" class="st1"/>
				<text x="6.2" y="910.28" class="st4">修諸功德‧</text>			</g>
			<g id="shape41-124" transform="translate(144.307,-743.528)">
				<title>工作表.41</title>
				<desc>一向專念無</desc>
				<rect x="0" y="894.146" width="92.4094" height="22.6772" class="st1"/>
				<text x="6.2" y="910.28" class="st4">一向專念無</text>			</g>
			<g id="shape42-127" transform="translate(146.268,-706.961)">
				<title>工作表.42</title>
				<desc>量壽佛</desc>
				<rect x="0" y="894.146" width="92.4094" height="22.6772" class="st1"/>
				<text x="4" y="910.28" class="st4">量壽佛</text>			</g>
			<g id="shape43-130" transform="translate(144.307,-597.26)">
				<title>工作表.43</title>
				<desc>發無上菩提</desc>
				<rect x="0" y="894.146" width="92.4094" height="22.6772" class="st1"/>
				<text x="6.2" y="910.28" class="st4">發無上菩提</text>			</g>
			<g id="shape44-133" transform="translate(144.307,-560.693)">
				<title>工作表.44</title>
				<desc>心‧一向專</desc>
				<rect x="0" y="894.146" width="92.4094" height="22.6772" class="st1"/>
				<text x="6.2" y="910.28" class="st4">心‧一向專</text>			</g>
			<g id="shape45-136" transform="translate(144.307,-524.126)">
				<title>工作表.45</title>
				<desc>念‧多少修</desc>
				<rect x="0" y="894.146" width="92.4094" height="22.6772" class="st1"/>
				<text x="6.2" y="910.28" class="st4">念‧多少修</text>			</g>
			<g id="shape46-139" transform="translate(144.307,-487.559)">
				<title>工作表.46</title>
				<desc>善‧飯沙門</desc>
				<rect x="0" y="894.146" width="92.4094" height="22.6772" class="st1"/>
				<text x="6.2" y="910.28" class="st4">善‧飯沙門</text>			</g>
			<g id="shape47-142" transform="translate(144.307,-450.992)">
				<title>工作表.47</title>
				<desc>‧起塔像供</desc>
				<rect x="0" y="894.146" width="92.4094" height="22.6772" class="st1"/>
				<text x="6.2" y="910.28" class="st4">‧起塔像供</text>			</g>
			<g id="shape48-145" transform="translate(144.307,-414.425)">
				<title>工作表.48</title>
				<desc>養‧奉持齋</desc>
				<rect x="0" y="894.146" width="92.4094" height="22.6772" class="st1"/>
				<text x="6.2" y="910.28" class="st4">養‧奉持齋</text>			</g>
			<g id="shape49-148" transform="translate(146.835,-377.858)">
				<title>工作表.49</title>
				<desc>戒</desc>
				<rect x="0" y="894.146" width="92.4094" height="22.6772" class="st1"/>
				<text x="4" y="910.28" class="st4">戒</text>			</g>
			<g id="shape52-151" transform="translate(144.307,-196.441)">
				<title>工作表.52</title>
				<desc>意乃至十念</desc>
				<rect x="0" y="894.146" width="92.4094" height="22.6772" class="st1"/>
				<text x="6.2" y="910.28" class="st4">意乃至十念</text>			</g>
			<g id="shape53-154" transform="translate(144.307,-159.874)">
				<title>工作表.53</title>
				<desc>‧聞深法信</desc>
				<rect x="0" y="894.146" width="92.4094" height="22.6772" class="st1"/>
				<text x="6.2" y="910.28" class="st4">‧聞深法信</text>			</g>
			<g id="shape54-157" transform="translate(144.307,-123.307)">
				<title>工作表.54</title>
				<desc>樂不疑‧乃</desc>
				<rect x="0" y="894.146" width="92.4094" height="22.6772" class="st1"/>
				<text x="6.2" y="910.28" class="st4">樂不疑‧乃</text>			</g>
			<g id="shape55-160" transform="translate(144.307,-86.1732)">
				<title>工作表.55</title>
				<desc>至一念念於</desc>
				<rect x="0" y="894.146" width="92.4094" height="22.6772" class="st1"/>
				<text x="6.2" y="910.28" class="st4">至一念念於</text>			</g>
			<g id="shape56-163" transform="translate(146.835,-49.6063)">
				<title>工作表.56</title>
				<desc>彼佛</desc>
				<rect x="0" y="894.146" width="92.4094" height="22.6772" class="st1"/>
				<text x="4" y="910.28" class="st4">彼佛</text>			</g>
			<g id="shape50-166" transform="translate(144.307,-269.575)">
				<title>工作表.50</title>
				<desc>發無上菩提</desc>
				<rect x="0" y="894.146" width="92.4094" height="22.6772" class="st1"/>
				<text x="6.2" y="910.28" class="st4">發無上菩提</text>			</g>
			<g id="shape51-169" transform="translate(143.457,-233.008)">
				<title>工作表.51</title>
				<desc>心‧一向專</desc>
				<rect x="0" y="894.146" width="92.4094" height="22.6772" class="st1"/>
				<text x="6.2" y="910.28" class="st4">心‧一向專</text>			</g>
			<g id="shape57-172" transform="translate(272.717,-816.661)">
				<title>工作表.57</title>
				<desc>專念無量壽</desc>
				<rect x="0" y="894.146" width="92.4094" height="22.6772" class="st1"/>
				<text x="6.2" y="910.28" class="st4">專念無量壽</text>			</g>
			<g id="shape58-175" transform="translate(272.717,-780.094)">
				<title>工作表.58</title>
				<desc>佛‧恒殖眾</desc>
				<rect x="0" y="894.146" width="92.4094" height="22.6772" class="st1"/>
				<text x="6.2" y="910.28" class="st4">佛‧恒殖眾</text>			</g>
			<g id="shape59-178" transform="translate(272.717,-743.528)">
				<title>工作表.59</title>
				<desc>多善根‧發</desc>
				<rect x="0" y="894.146" width="92.4094" height="22.6772" class="st1"/>
				<text x="6.2" y="910.28" class="st4">多善根‧發</text>			</g>
			<g id="shape60-181" transform="translate(272.717,-706.961)">
				<title>工作表.60</title>
				<desc>心迴向願生</desc>
				<rect x="0" y="894.146" width="92.4094" height="22.6772" class="st1"/>
				<text x="6.2" y="910.28" class="st4">心迴向願生</text>			</g>
			<g id="shape61-184" transform="translate(275.244,-670.394)">
				<title>工作表.61</title>
				<desc>彼國</desc>
				<rect x="0" y="894.146" width="92.4094" height="22.6772" class="st1"/>
				<text x="4" y="910.28" class="st4">彼國</text>			</g>
			<g id="shape62-187" transform="translate(272.717,-597.26)">
				<title>工作表.62</title>
				<desc>發菩提心‧</desc>
				<rect x="0" y="894.146" width="92.4094" height="22.6772" class="st1"/>
				<text x="6.2" y="910.28" class="st4">發菩提心‧</text>			</g>
			<g id="shape63-190" transform="translate(272.717,-560.693)">
				<title>工作表.63</title>
				<desc>不能專念‧</desc>
				<rect x="0" y="894.146" width="92.4094" height="22.6772" class="st1"/>
				<text x="6.2" y="910.28" class="st4">不能專念‧</text>			</g>
			<g id="shape64-193" transform="translate(272.717,-524.126)">
				<title>工作表.64</title>
				<desc>不種眾多善</desc>
				<rect x="0" y="894.146" width="92.4094" height="22.6772" class="st1"/>
				<text x="6.2" y="910.28" class="st4">不種眾多善</text>			</g>
			<g id="shape65-196" transform="translate(272.717,-487.559)">
				<title>工作表.65</title>
				<desc>根‧隨己修</desc>
				<rect x="0" y="894.146" width="92.4094" height="22.6772" class="st1"/>
				<text x="6.2" y="910.28" class="st4">根‧隨己修</text>			</g>
			<g id="shape66-199" transform="translate(272.717,-450.992)">
				<title>工作表.66</title>
				<desc>行諸善功德</desc>
				<rect x="0" y="894.146" width="92.4094" height="22.6772" class="st1"/>
				<text x="6.2" y="910.28" class="st4">行諸善功德</text>			</g>
			<g id="shape67-202" transform="translate(272.717,-414.425)">
				<title>工作表.67</title>
				<desc>‧迴向願欲</desc>
				<rect x="0" y="894.146" width="92.4094" height="22.6772" class="st1"/>
				<text x="6.2" y="910.28" class="st4">‧迴向願欲</text>			</g>
			<g id="shape68-205" transform="translate(274.961,-377.858)">
				<title>工作表.68</title>
				<desc>往生</desc>
				<rect x="0" y="894.146" width="92.4094" height="22.6772" class="st1"/>
				<text x="4" y="910.28" class="st4">往生</text>			</g>
			<g id="shape69-208" transform="translate(272.717,-269.575)">
				<title>工作表.69</title>
				<desc>住大乘‧清</desc>
				<rect x="0" y="894.146" width="92.4094" height="22.6772" class="st1"/>
				<text x="6.2" y="910.28" class="st4">住大乘‧清</text>			</g>
			<g id="shape70-211" transform="translate(272.717,-233.008)">
				<title>工作表.70</title>
				<desc>淨心向無量</desc>
				<rect x="0" y="894.146" width="92.4094" height="22.6772" class="st1"/>
				<text x="6.2" y="910.28" class="st4">淨心向無量</text>			</g>
			<g id="shape71-214" transform="translate(272.717,-196.441)">
				<title>工作表.71</title>
				<desc>壽佛乃至十</desc>
				<rect x="0" y="894.146" width="92.4094" height="22.6772" class="st1"/>
				<text x="6.2" y="910.28" class="st4">壽佛乃至十</text>			</g>
			<g id="shape72-217" transform="translate(272.717,-159.874)">
				<title>工作表.72</title>
				<desc>念‧聞深法</desc>
				<rect x="0" y="894.146" width="92.4094" height="22.6772" class="st1"/>
				<text x="6.2" y="910.28" class="st4">念‧聞深法</text>			</g>
			<g id="shape73-220" transform="translate(272.717,-123.307)">
				<title>工作表.73</title>
				<desc>信樂不疑‧</desc>
				<rect x="0" y="894.146" width="92.4094" height="22.6772" class="st1"/>
				<text x="6.2" y="910.28" class="st4">信樂不疑‧</text>			</g>
			<g id="shape74-223" transform="translate(272.717,-86.1732)">
				<title>工作表.74</title>
				<desc>乃至一念淨</desc>
				<rect x="0" y="894.146" width="92.4094" height="22.6772" class="st1"/>
				<text x="6.2" y="910.28" class="st4">乃至一念淨</text>			</g>
			<g id="shape75-226" transform="translate(272.717,-49.6063)">
				<title>工作表.75</title>
				<desc>心念無量壽</desc>
				<rect x="0" y="894.146" width="92.4094" height="22.6772" class="st1"/>
				<text x="6.2" y="910.28" class="st4">心念無量壽</text>			</g>
			<g id="shape76-229" transform="translate(274.961,-13.0394)">
				<title>工作表.76</title>
				<desc>佛</desc>
				<rect x="0" y="894.146" width="92.4094" height="22.6772" class="st1"/>
				<text x="4" y="910.28" class="st4">佛</text>			</g>
			<g id="shape77-232" transform="translate(389.504,-816.661)">
				<title>工作表.77</title>
				<desc>持讀誦書寫</desc>
				<rect x="0" y="894.146" width="92.4094" height="22.6772" class="st1"/>
				<text x="6.2" y="910.28" class="st4">持讀誦書寫</text>			</g>
			<g id="shape78-235" transform="translate(389.504,-780.094)">
				<title>工作表.78</title>
				<desc>供養‧晝夜</desc>
				<rect x="0" y="894.146" width="92.4094" height="22.6772" class="st1"/>
				<text x="6.2" y="910.28" class="st4">供養‧晝夜</text>			</g>
			<g id="shape79-238" transform="translate(389.504,-743.528)">
				<title>工作表.79</title>
				<desc>相續求生彼</desc>
				<rect x="0" y="894.146" width="92.4094" height="22.6772" class="st1"/>
				<text x="6.2" y="910.28" class="st4">相續求生彼</text>			</g>
			<g id="shape80-241" transform="translate(392.031,-706.961)">
				<title>工作表.80</title>
				<desc>剎</desc>
				<rect x="0" y="894.146" width="92.4094" height="22.6772" class="st1"/>
				<text x="4" y="910.28" class="st4">剎</text>			</g>
			<g id="shape81-244" transform="translate(389.504,-597.26)">
				<title>工作表.81</title>
				<desc>發菩提心‧</desc>
				<rect x="0" y="894.146" width="92.4094" height="22.6772" class="st1"/>
				<text x="8.28" y="910.28" class="st4">發菩提心‧</text>			</g>
			<g id="shape82-247" transform="translate(389.504,-560.693)">
				<title>工作表.82</title>
				<desc>持戒不犯‧</desc>
				<rect x="0" y="894.146" width="92.4094" height="22.6772" class="st1"/>
				<text x="8.28" y="910.28" class="st4">持戒不犯‧</text>			</g>
			<g id="shape83-250" transform="translate(389.504,-524.126)">
				<title>工作表.83</title>
				<desc>饒益有情‧</desc>
				<rect x="0" y="894.146" width="92.4094" height="22.6772" class="st1"/>
				<text x="6.2" y="910.28" class="st4">饒益有情‧</text>			</g>
			<g id="shape84-253" transform="translate(389.504,-487.559)">
				<title>工作表.84</title>
				<desc>所作善根迴</desc>
				<rect x="0" y="894.146" width="92.4094" height="22.6772" class="st1"/>
				<text x="6.2" y="910.28" class="st4">所作善根迴</text>			</g>
			<g id="shape85-256" transform="translate(389.504,-450.992)">
				<title>工作表.85</title>
				<desc>向‧憶念無</desc>
				<rect x="0" y="894.146" width="92.4094" height="22.6772" class="st1"/>
				<text x="6.2" y="910.28" class="st4">向‧憶念無</text>			</g>
			<g id="shape86-259" transform="translate(389.504,-414.425)">
				<title>工作表.86</title>
				<desc>量壽佛及彼</desc>
				<rect x="0" y="894.146" width="92.4094" height="22.6772" class="st1"/>
				<text x="6.2" y="910.28" class="st4">量壽佛及彼</text>			</g>
			<g id="shape87-262" transform="translate(391.181,-377.858)">
				<title>工作表.87</title>
				<desc>國土</desc>
				<rect x="0" y="894.146" width="92.4094" height="22.6772" class="st1"/>
				<text x="4" y="910.28" class="st4">國土</text>			</g>
			<g id="shape88-265" transform="translate(389.504,-269.575)">
				<title>工作表.88</title>
				<desc>發十種心─</desc>
				<rect x="0" y="894.146" width="92.4094" height="22.6772" class="st1"/>
				<text x="6.2" y="910.28" class="st4">發十種心─</text>			</g>
			<g id="shape89-268" transform="translate(389.504,-233.008)">
				<title>工作表.89</title>
				<desc>─十善‧晝</desc>
				<rect x="0" y="894.146" width="92.4094" height="22.6772" class="st1"/>
				<text x="6.2" y="910.28" class="st4">─十善‧晝</text>			</g>
			<g id="shape90-271" transform="translate(389.504,-196.441)">
				<title>工作表.90</title>
				<desc>夜思惟極樂</desc>
				<rect x="0" y="894.146" width="92.4094" height="22.6772" class="st1"/>
				<text x="6.2" y="910.28" class="st4">夜思惟極樂</text>			</g>
			<g id="shape91-274" transform="translate(389.504,-159.874)">
				<title>工作表.91</title>
				<desc>國依正莊嚴</desc>
				<rect x="0" y="894.146" width="92.4094" height="22.6772" class="st1"/>
				<text x="6.2" y="910.28" class="st4">國依正莊嚴</text>			</g>
			<g id="shape92-277" transform="translate(390.354,-123.307)">
				<title>工作表.92</title>
				<desc>‧志心歸依</desc>
				<rect x="0" y="894.146" width="92.4094" height="22.6772" class="st1"/>
				<text x="6.2" y="910.28" class="st4">‧志心歸依</text>			</g>
			<g id="shape93-280" transform="translate(389.504,-86.1732)">
				<title>工作表.93</title>
				<desc>‧頂禮供養</desc>
				<rect x="0" y="894.146" width="92.4094" height="22.6772" class="st1"/>
				<text x="6.2" y="910.28" class="st4">‧頂禮供養</text>			</g>
			<g id="shape95-283" transform="translate(128.409,-599.244)">
				<title>工作表.95</title>
				<desc>中</desc>
				<rect x="0" y="892.445" width="24.378" height="24.378" class="st1"/>
				<text x="6.85" y="909.96" class="st2"><tspan class="st3">中</tspan></text>			</g>
			<g id="shape96-287" transform="translate(128.409,-269.291)">
				<title>工作表.96</title>
				<desc>下</desc>
				<rect x="0" y="892.445" width="24.378" height="24.378" class="st1"/>
				<text x="6.85" y="909.96" class="st2"><tspan class="st3">下</tspan></text>			</g>
		</g>
	</g>
</svg>
