<?xml version="1.0" encoding="UTF-8" standalone="no"?>
<!DOCTYPE svg PUBLIC "-//W3C//DTD SVG 1.1//EN" "http://www.w3.org/Graphics/SVG/1.1/DTD/svg11.dtd">
<!-- 由 Microsoft Visio, SVG Export 產生 y26.0147.svg 頁-1 -->
<svg xmlns="http://www.w3.org/2000/svg" xmlns:xlink="http://www.w3.org/1999/xlink" xmlns:ev="http://www.w3.org/2001/xml-events"
		width="8.06199in" height="5.12144in" viewBox="0 0 580.464 368.744" xml:space="preserve" color-interpolation-filters="sRGB"
		class="st6">
	<style type="text/css">
	<![CDATA[
		.st1 {fill:none;stroke:none;stroke-linecap:round;stroke-linejoin:round;stroke-width:0.75}
		.st2 {fill:#000000;font-family:新細明體;font-size:1.33333em}
		.st3 {stroke:#000000;stroke-linecap:round;stroke-linejoin:round;stroke-width:0.24}
		.st4 {font-size:0.750009em}
		.st5 {fill:#000000;font-family:新細明體;font-size:1.33333em;letter-spacing:-0.187501em}
		.st6 {fill:none;fill-rule:evenodd;font-size:12px;overflow:visible;stroke-linecap:square;stroke-miterlimit:3}
	]]>
	</style>

	<g>
		<title>頁-1</title>
		<g id="group189-1" transform="translate(0.375,-0.12)">
			<title>工作表.189</title>
			<g id="shape1-2" transform="translate(1.27898E-12,-287.717)">
				<title>工作表.1</title>
				<desc>稱讚如來</desc>
				<rect x="0" y="348.901" width="72" height="19.8425" class="st1"/>
				<text x="4" y="363.62" class="st2">稱讚如來</text>			</g>
			<g id="shape2-5" transform="translate(1.27898E-12,-259.37)">
				<title>工作表.2</title>
				<desc>廣修供養</desc>
				<rect x="0" y="348.901" width="72" height="19.8425" class="st1"/>
				<text x="4" y="363.62" class="st2">廣修供養</text>			</g>
			<g id="shape3-8" transform="translate(1.27898E-12,-231.024)">
				<title>工作表.3</title>
				<desc>懺悔業障</desc>
				<rect x="0" y="348.901" width="72" height="19.8425" class="st1"/>
				<text x="4" y="363.62" class="st2">懺悔業障</text>			</g>
			<g id="shape4-11" transform="translate(1.53477E-12,-202.677)">
				<title>工作表.4</title>
				<desc>隨喜功德</desc>
				<rect x="0" y="348.901" width="72" height="19.8425" class="st1"/>
				<text x="4" y="363.62" class="st2">隨喜功德</text>			</g>
			<g id="shape5-14" transform="translate(1.53477E-12,-174.331)">
				<title>工作表.5</title>
				<desc>請轉法輪</desc>
				<rect x="0" y="348.901" width="72" height="19.8425" class="st1"/>
				<text x="4" y="363.62" class="st2">請轉法輪</text>			</g>
			<g id="shape6-17" transform="translate(1.53477E-12,-145.984)">
				<title>工作表.6</title>
				<desc>請佛住世</desc>
				<rect x="0" y="348.901" width="72" height="19.8425" class="st1"/>
				<text x="4" y="363.62" class="st2">請佛住世</text>			</g>
			<g id="shape7-20" transform="translate(1.79057E-12,-117.638)">
				<title>工作表.7</title>
				<desc>常隨佛學</desc>
				<rect x="0" y="348.901" width="72" height="19.8425" class="st1"/>
				<text x="4" y="363.62" class="st2">常隨佛學</text>			</g>
			<g id="shape8-23" transform="translate(1.79057E-12,-89.2913)">
				<title>工作表.8</title>
				<desc>恒順眾生</desc>
				<rect x="0" y="348.901" width="72" height="19.8425" class="st1"/>
				<text x="4" y="363.62" class="st2">恒順眾生</text>			</g>
			<g id="shape9-26" transform="translate(2.04636E-12,-60.9449)">
				<title>工作表.9</title>
				<desc>普皆迴向</desc>
				<rect x="0" y="348.901" width="72" height="19.8425" class="st1"/>
				<text x="4" y="363.62" class="st2">普皆迴向</text>			</g>
			<g id="shape10-29" transform="translate(2.04636E-12,-32.5984)">
				<title>工作表.10</title>
				<desc>發廣大願</desc>
				<rect x="0" y="348.901" width="72" height="19.8425" class="st1"/>
				<text x="4" y="363.62" class="st2">發廣大願</text>			</g>
			<g id="shape11-32" transform="translate(2.04636E-12,-4.25197)">
				<title>工作表.11</title>
				<desc>歸依三寶</desc>
				<rect x="0" y="348.901" width="72" height="19.8425" class="st1"/>
				<text x="4" y="363.62" class="st2">歸依三寶</text>			</g>
			<g id="shape13-35" transform="translate(91.5591,-344.409)">
				<title>工作表.13</title>
				<rect x="0" y="348.901" width="22.6772" height="19.8425" class="st1"/>
				<text x="4" y="363.62" class="st2">Ａ</text>			</g>
			<g id="shape15-38" transform="translate(-293.909,368.744) rotate(-90)">
				<title>工作表.15</title>
				<path d="M0 368.74 L368.5 368.74" class="st3"/>
			</g>
			<g id="shape14-41" transform="translate(579.969,454.023) rotate(180)">
				<title>工作表.14</title>
				<path d="M0 368.74 L168.38 368.74" class="st3"/>
			</g>
			<g id="shape16-44" transform="translate(1.02318E-12,-283.465)">
				<title>工作表.16</title>
				<path d="M0 368.74 L74.83 368.74" class="st3"/>
			</g>
			<g id="shape17-47" transform="translate(3.19744E-13,-255.118)">
				<title>工作表.17</title>
				<path d="M0 368.74 L579.97 368.74" class="st3"/>
			</g>
			<g id="shape18-50" transform="translate(1.02318E-12,-311.811)">
				<title>工作表.18</title>
				<path d="M0 368.74 L74.83 368.74" class="st3"/>
			</g>
			<g id="shape19-53" transform="translate(3.19744E-13,-226.772)">
				<title>工作表.19</title>
				<path d="M0 368.74 L579.97 368.74" class="st3"/>
			</g>
			<g id="shape20-56" transform="translate(3.19744E-13,-198.425)">
				<title>工作表.20</title>
				<path d="M0 368.74 L579.97 368.74" class="st3"/>
			</g>
			<g id="shape21-59" transform="translate(1.53477E-12,-170.079)">
				<title>工作表.21</title>
				<path d="M0 368.74 L74.83 368.74" class="st3"/>
			</g>
			<g id="shape22-62" transform="translate(7.03437E-13,-141.732)">
				<title>工作表.22</title>
				<path d="M0 368.74 L579.97 368.74" class="st3"/>
			</g>
			<g id="shape23-65" transform="translate(1.79057E-12,-113.386)">
				<title>工作表.23</title>
				<path d="M0 368.74 L74.83 368.74" class="st3"/>
			</g>
			<g id="shape24-68" transform="translate(8.31335E-13,-85.0394)">
				<title>工作表.24</title>
				<path d="M0 368.74 L579.97 368.74" class="st3"/>
			</g>
			<g id="shape25-71" transform="translate(1.85452E-12,-56.6929)">
				<title>工作表.25</title>
				<path d="M0 368.74 L130.96 368.74" class="st3"/>
			</g>
			<g id="shape26-74" transform="translate(2.04636E-12,-28.3465)">
				<title>工作表.26</title>
				<path d="M0 368.74 L74.83 368.74" class="st3"/>
			</g>
			<g id="shape27-77">
				<title>工作表.27</title>
				<path d="M0 368.74 L579.97 368.74" class="st3"/>
			</g>
			<g id="shape28-80" transform="translate(187.087,-311.811)">
				<title>工作表.28</title>
				<path d="M0 368.74 L392.88 368.74" class="st3"/>
			</g>
			<g id="shape29-83" transform="translate(-237.783,368.744) rotate(-90)">
				<title>工作表.29</title>
				<path d="M0 368.74 L368.5 368.74" class="st3"/>
			</g>
			<g id="shape30-86" transform="translate(-69.4054,368.744) rotate(-90)">
				<title>工作表.30</title>
				<path d="M0 368.74 L368.5 368.74" class="st3"/>
			</g>
			<g id="shape31-89" transform="translate(-13.2794,368.744) rotate(-90)">
				<title>工作表.31</title>
				<path d="M0 368.74 L368.5 368.74" class="st3"/>
			</g>
			<g id="shape32-92" transform="translate(-181.657,368.744) rotate(-90)">
				<title>工作表.32</title>
				<path d="M0 368.74 L368.5 368.74" class="st3"/>
			</g>
			<g id="shape33-95" transform="translate(98.9726,368.744) rotate(-90)">
				<title>工作表.33</title>
				<path d="M0 368.74 L368.5 368.74" class="st3"/>
			</g>
			<g id="shape34-98" transform="translate(155.099,368.744) rotate(-90)">
				<title>工作表.34</title>
				<path d="M0 368.74 L368.5 368.74" class="st3"/>
			</g>
			<g id="shape35-101" transform="translate(-125.531,368.744) rotate(-90)">
				<title>工作表.35</title>
				<path d="M0 368.74 L368.5 368.74" class="st3"/>
			</g>
			<g id="shape36-104" transform="translate(42.8466,368.744) rotate(-90)">
				<title>工作表.36</title>
				<path d="M0 368.74 L368.5 368.74" class="st3"/>
			</g>
			<g id="shape37-107" transform="translate(147.685,-344.409)">
				<title>工作表.37</title>
				<rect x="0" y="348.901" width="22.6772" height="19.8425" class="st1"/>
				<text x="4" y="363.62" class="st2">Ｂ</text>			</g>
			<g id="shape38-110" transform="translate(203.811,-344.409)">
				<title>工作表.38</title>
				<rect x="0" y="348.901" width="22.6772" height="19.8425" class="st1"/>
				<text x="4" y="363.62" class="st2">Ｃ</text>			</g>
			<g id="shape39-113" transform="translate(259.937,-344.409)">
				<title>工作表.39</title>
				<rect x="0" y="348.901" width="22.6772" height="19.8425" class="st1"/>
				<text x="4" y="363.62" class="st2">Ｄ</text>			</g>
			<g id="shape40-116" transform="translate(316.063,-344.409)">
				<title>工作表.40</title>
				<rect x="0" y="348.901" width="22.6772" height="19.8425" class="st1"/>
				<text x="4" y="363.62" class="st2">Ｅ</text>			</g>
			<g id="shape41-119" transform="translate(372.189,-344.409)">
				<title>工作表.41</title>
				<rect x="0" y="348.901" width="22.6772" height="19.8425" class="st1"/>
				<text x="4" y="363.62" class="st2">Ｆ</text>			</g>
			<g id="shape42-122" transform="translate(428.315,-344.409)">
				<title>工作表.42</title>
				<rect x="0" y="348.901" width="22.6772" height="19.8425" class="st1"/>
				<text x="4" y="363.62" class="st2">Ｇ</text>			</g>
			<g id="shape43-125" transform="translate(484.441,-344.409)">
				<title>工作表.43</title>
				<rect x="0" y="348.901" width="22.6772" height="19.8425" class="st1"/>
				<text x="4" y="363.62" class="st2">Ｈ</text>			</g>
			<g id="shape44-128" transform="translate(1.02318E-12,-316.063)">
				<title>工作表.44</title>
				<desc>禮敬諸佛</desc>
				<rect x="0" y="348.901" width="72" height="19.8425" class="st1"/>
				<text x="4" y="363.62" class="st2">禮敬諸佛</text>			</g>
			<g id="shape45-131" transform="translate(540.567,-344.409)">
				<title>工作表.45</title>
				<rect x="0" y="348.901" width="22.6772" height="19.8425" class="st1"/>
				<text x="4" y="363.62" class="st2">Ｉ</text>			</g>
			<g id="shape12-134" transform="translate(0,-340.157)">
				<title>工作表.12</title>
				<path d="M0 368.74 L579.97 368.74" class="st3"/>
			</g>
			<g id="shape46-137" transform="translate(200.976,-316.063)">
				<title>工作表.46</title>
				<desc>.</desc>
				<rect x="0" y="348.901" width="28.3465" height="19.8425" class="st1"/>
				<text x="4.76" y="363.62" class="st2">１<tspan class="st4">.</tspan></text>			</g>
			<g id="shape47-141" transform="translate(257.102,-316.063)">
				<title>工作表.47</title>
				<desc>.</desc>
				<rect x="0" y="348.901" width="28.3465" height="19.8425" class="st1"/>
				<text x="4.76" y="363.62" class="st2">１<tspan class="st4">.</tspan></text>			</g>
			<g id="shape48-145" transform="translate(313.228,-316.063)">
				<title>工作表.48</title>
				<desc>.</desc>
				<rect x="0" y="348.901" width="28.3465" height="19.8425" class="st1"/>
				<text x="4.76" y="363.62" class="st2">１<tspan class="st4">.</tspan></text>			</g>
			<g id="shape49-149" transform="translate(369.354,-316.063)">
				<title>工作表.49</title>
				<desc>.</desc>
				<rect x="0" y="348.901" width="28.3465" height="19.8425" class="st1"/>
				<text x="4.76" y="363.62" class="st2">１<tspan class="st4">.</tspan></text>			</g>
			<g id="shape50-153" transform="translate(425.48,-316.063)">
				<title>工作表.50</title>
				<desc>.</desc>
				<rect x="0" y="348.901" width="28.3465" height="19.8425" class="st1"/>
				<text x="4.76" y="363.62" class="st2">１<tspan class="st4">.</tspan></text>			</g>
			<g id="shape51-157" transform="translate(481.606,-316.063)">
				<title>工作表.51</title>
				<desc>.</desc>
				<rect x="0" y="348.901" width="28.3465" height="19.8425" class="st1"/>
				<text x="4.76" y="363.62" class="st2">１<tspan class="st4">.</tspan></text>			</g>
			<g id="shape52-161" transform="translate(537.732,-316.063)">
				<title>工作表.52</title>
				<desc>.</desc>
				<rect x="0" y="348.901" width="28.3465" height="19.8425" class="st1"/>
				<text x="4.76" y="363.62" class="st2">１<tspan class="st4">.</tspan></text>			</g>
			<g id="shape53-165" transform="translate(88.7244,-231.024)">
				<title>工作表.53</title>
				<desc>.</desc>
				<rect x="0" y="348.901" width="28.3465" height="19.8425" class="st1"/>
				<text x="4.76" y="363.62" class="st2">１<tspan class="st4">.</tspan></text>			</g>
			<g id="shape54-169" transform="translate(144.85,-89.2913)">
				<title>工作表.54</title>
				<desc>.</desc>
				<rect x="0" y="348.901" width="28.3465" height="19.8425" class="st1"/>
				<text x="4.76" y="363.62" class="st2">１<tspan class="st4">.</tspan></text>			</g>
			<g id="shape55-173" transform="translate(425.48,-287.717)">
				<title>工作表.55</title>
				<desc>.</desc>
				<rect x="0" y="348.901" width="28.3465" height="19.8425" class="st1"/>
				<text x="4.76" y="363.62" class="st2">２<tspan class="st4">.</tspan></text>			</g>
			<g id="shape56-177" transform="translate(481.606,-287.717)">
				<title>工作表.56</title>
				<desc>.</desc>
				<rect x="0" y="348.901" width="28.3465" height="19.8425" class="st1"/>
				<text x="4.76" y="363.62" class="st2">２<tspan class="st4">.</tspan></text>			</g>
			<g id="shape57-181" transform="translate(257.102,-259.37)">
				<title>工作表.57</title>
				<desc>.</desc>
				<rect x="0" y="348.901" width="28.3465" height="19.8425" class="st1"/>
				<text x="4.76" y="363.62" class="st2">２<tspan class="st4">.</tspan></text>			</g>
			<g id="shape58-185" transform="translate(537.732,-259.37)">
				<title>工作表.58</title>
				<desc>.</desc>
				<rect x="0" y="348.901" width="28.3465" height="19.8425" class="st1"/>
				<text x="4.76" y="363.62" class="st2">２<tspan class="st4">.</tspan></text>			</g>
			<g id="shape59-189" transform="translate(313.228,-231.024)">
				<title>工作表.59</title>
				<desc>.</desc>
				<rect x="0" y="348.901" width="28.3465" height="19.8425" class="st1"/>
				<text x="4.76" y="363.62" class="st2">２<tspan class="st4">.</tspan></text>			</g>
			<g id="shape60-193" transform="translate(369.354,-231.024)">
				<title>工作表.60</title>
				<desc>.</desc>
				<rect x="0" y="348.901" width="28.3465" height="19.8425" class="st1"/>
				<text x="4.76" y="363.62" class="st2">２<tspan class="st4">.</tspan></text>			</g>
			<g id="shape61-197" transform="translate(88.7244,-202.677)">
				<title>工作表.61</title>
				<desc>.</desc>
				<rect x="0" y="348.901" width="28.3465" height="19.8425" class="st1"/>
				<text x="4.76" y="363.62" class="st2">２<tspan class="st4">.</tspan></text>			</g>
			<g id="shape62-201" transform="translate(144.85,-202.677)">
				<title>工作表.62</title>
				<desc>.</desc>
				<rect x="0" y="348.901" width="28.3465" height="19.8425" class="st1"/>
				<text x="4.76" y="363.62" class="st2">２<tspan class="st4">.</tspan></text>			</g>
			<g id="shape63-205" transform="translate(200.976,-4.25197)">
				<title>工作表.63</title>
				<desc>.</desc>
				<rect x="0" y="348.901" width="28.3465" height="19.8425" class="st1"/>
				<text x="4.76" y="363.62" class="st2">２<tspan class="st4">.</tspan></text>			</g>
			<g id="shape64-209" transform="translate(88.7244,-160.157)">
				<title>工作表.64</title>
				<desc>.</desc>
				<rect x="0" y="348.901" width="28.3465" height="19.8425" class="st1"/>
				<text x="4.76" y="363.62" class="st2">３<tspan class="st4">.</tspan></text>			</g>
			<g id="shape65-213" transform="translate(144.85,-231.024)">
				<title>工作表.65</title>
				<desc>.</desc>
				<rect x="0" y="348.901" width="28.3465" height="19.8425" class="st1"/>
				<text x="4.76" y="363.62" class="st2">３<tspan class="st4">.</tspan></text>			</g>
			<g id="shape66-217" transform="translate(200.976,-231.024)">
				<title>工作表.66</title>
				<desc>.</desc>
				<rect x="0" y="348.901" width="28.3465" height="19.8425" class="st1"/>
				<text x="4.76" y="363.62" class="st2">３<tspan class="st4">.</tspan></text>			</g>
			<g id="shape67-221" transform="translate(257.102,-231.024)">
				<title>工作表.67</title>
				<desc>.</desc>
				<rect x="0" y="348.901" width="28.3465" height="19.8425" class="st1"/>
				<text x="4.76" y="363.62" class="st2">３<tspan class="st4">.</tspan></text>			</g>
			<g id="shape68-225" transform="translate(425.48,-259.37)">
				<title>工作表.68</title>
				<desc>.</desc>
				<rect x="0" y="348.901" width="28.3465" height="19.8425" class="st1"/>
				<text x="4.76" y="363.62" class="st2">３<tspan class="st4">.</tspan></text>			</g>
			<g id="shape69-229" transform="translate(481.606,-259.37)">
				<title>工作表.69</title>
				<desc>.</desc>
				<rect x="0" y="348.901" width="28.3465" height="19.8425" class="st1"/>
				<text x="4.76" y="363.62" class="st2">３<tspan class="st4">.</tspan></text>			</g>
			<g id="shape70-233" transform="translate(313.228,-202.677)">
				<title>工作表.70</title>
				<desc>.</desc>
				<rect x="0" y="348.901" width="28.3465" height="19.8425" class="st1"/>
				<text x="4.76" y="363.62" class="st2">３<tspan class="st4">.</tspan></text>			</g>
			<g id="shape71-237" transform="translate(369.354,-202.677)">
				<title>工作表.71</title>
				<desc>.</desc>
				<rect x="0" y="348.901" width="28.3465" height="19.8425" class="st1"/>
				<text x="4.76" y="363.62" class="st2">３<tspan class="st4">.</tspan></text>			</g>
			<g id="shape72-241" transform="translate(425.48,-231.024)">
				<title>工作表.72</title>
				<desc>.</desc>
				<rect x="0" y="348.901" width="28.3465" height="19.8425" class="st1"/>
				<text x="4.76" y="363.62" class="st2">４<tspan class="st4">.</tspan></text>			</g>
			<g id="shape73-245" transform="translate(481.606,-231.024)">
				<title>工作表.73</title>
				<desc>.</desc>
				<rect x="0" y="348.901" width="28.3465" height="19.8425" class="st1"/>
				<text x="4.76" y="363.62" class="st2">４<tspan class="st4">.</tspan></text>			</g>
			<g id="shape74-249" transform="translate(257.102,-202.677)">
				<title>工作表.74</title>
				<desc>.</desc>
				<rect x="0" y="348.901" width="28.3465" height="19.8425" class="st1"/>
				<text x="4.76" y="363.62" class="st2">４<tspan class="st4">.</tspan></text>			</g>
			<g id="shape75-253" transform="translate(537.732,-202.677)">
				<title>工作表.75</title>
				<desc>.</desc>
				<rect x="0" y="348.901" width="28.3465" height="19.8425" class="st1"/>
				<text x="4.76" y="363.62" class="st2">４<tspan class="st4">.</tspan></text>			</g>
			<g id="shape76-257" transform="translate(313.228,-174.331)">
				<title>工作表.76</title>
				<desc>.</desc>
				<rect x="0" y="348.901" width="28.3465" height="19.8425" class="st1"/>
				<text x="4.76" y="363.62" class="st2">４<tspan class="st4">.</tspan></text>			</g>
			<g id="shape77-261" transform="translate(369.354,-174.331)">
				<title>工作表.77</title>
				<desc>.</desc>
				<rect x="0" y="348.901" width="28.3465" height="19.8425" class="st1"/>
				<text x="4.76" y="363.62" class="st2">４<tspan class="st4">.</tspan></text>			</g>
			<g id="shape78-265" transform="translate(88.7244,-60.9449)">
				<title>工作表.78</title>
				<desc>.</desc>
				<rect x="0" y="348.901" width="28.3465" height="19.8425" class="st1"/>
				<text x="4.76" y="363.62" class="st2">４<tspan class="st4">.</tspan></text>			</g>
			<g id="shape79-269" transform="translate(200.976,-202.677)">
				<title>工作表.79</title>
				<desc>.</desc>
				<rect x="0" y="348.901" width="28.3465" height="19.8425" class="st1"/>
				<text x="4.76" y="363.62" class="st2">５<tspan class="st4">.</tspan></text>			</g>
			<g id="shape80-273" transform="translate(425.48,-202.677)">
				<title>工作表.80</title>
				<desc>.</desc>
				<rect x="0" y="348.901" width="28.3465" height="19.8425" class="st1"/>
				<text x="4.76" y="363.62" class="st2">５<tspan class="st4">.</tspan></text>			</g>
			<g id="shape81-277" transform="translate(481.606,-202.677)">
				<title>工作表.81</title>
				<desc>.</desc>
				<rect x="0" y="348.901" width="28.3465" height="19.8425" class="st1"/>
				<text x="4.76" y="363.62" class="st2">５<tspan class="st4">.</tspan></text>			</g>
			<g id="shape82-281" transform="translate(257.102,-160.157)">
				<title>工作表.82</title>
				<desc>.</desc>
				<rect x="0" y="348.901" width="28.3465" height="19.8425" class="st1"/>
				<text x="4.76" y="363.62" class="st2">５<tspan class="st4">.</tspan></text>			</g>
			<g id="shape83-285" transform="translate(537.732,-174.331)">
				<title>工作表.83</title>
				<desc>.</desc>
				<rect x="0" y="348.901" width="28.3465" height="19.8425" class="st1"/>
				<text x="4.76" y="363.62" class="st2">５<tspan class="st4">.</tspan></text>			</g>
			<g id="shape84-289" transform="translate(313.228,-145.984)">
				<title>工作表.84</title>
				<desc>.</desc>
				<rect x="0" y="348.901" width="28.3465" height="19.8425" class="st1"/>
				<text x="4.76" y="363.62" class="st2">５<tspan class="st4">.</tspan></text>			</g>
			<g id="shape85-293" transform="translate(369.354,-145.984)">
				<title>工作表.85</title>
				<desc>.</desc>
				<rect x="0" y="348.901" width="28.3465" height="19.8425" class="st1"/>
				<text x="4.76" y="363.62" class="st2">５<tspan class="st4">.</tspan></text>			</g>
			<g id="shape86-297" transform="translate(369.354,-259.37)">
				<title>工作表.86</title>
				<desc>.</desc>
				<rect x="0" y="348.901" width="28.3465" height="19.8425" class="st1"/>
				<text x="4.76" y="363.62" class="st2">６<tspan class="st4">.</tspan></text>			</g>
			<g id="shape87-301" transform="translate(425.48,-174.331)">
				<title>工作表.87</title>
				<desc>.</desc>
				<rect x="0" y="348.901" width="28.3465" height="19.8425" class="st1"/>
				<text x="4.76" y="363.62" class="st2">６<tspan class="st4">.</tspan></text>			</g>
			<g id="shape88-305" transform="translate(481.606,-174.331)">
				<title>工作表.88</title>
				<desc>.</desc>
				<rect x="0" y="348.901" width="28.3465" height="19.8425" class="st1"/>
				<text x="4.76" y="363.62" class="st2">６<tspan class="st4">.</tspan></text>			</g>
			<g id="shape89-309" transform="translate(537.732,-145.984)">
				<title>工作表.89</title>
				<desc>.</desc>
				<rect x="0" y="348.901" width="28.3465" height="19.8425" class="st1"/>
				<text x="4.76" y="363.62" class="st2">６<tspan class="st4">.</tspan></text>			</g>
			<g id="shape90-313" transform="translate(200.976,-60.9449)">
				<title>工作表.90</title>
				<desc>.</desc>
				<rect x="0" y="348.901" width="28.3465" height="19.8425" class="st1"/>
				<text x="4.76" y="363.62" class="st2">６<tspan class="st4">.</tspan></text>			</g>
			<g id="shape91-317" transform="translate(313.228,-60.9449)">
				<title>工作表.91</title>
				<desc>.</desc>
				<rect x="0" y="348.901" width="28.3465" height="19.8425" class="st1"/>
				<text x="4.76" y="363.62" class="st2">６<tspan class="st4">.</tspan></text>			</g>
			<g id="shape92-321" transform="translate(257.102,-32.5984)">
				<title>工作表.92</title>
				<desc>.</desc>
				<rect x="0" y="348.901" width="28.3465" height="19.8425" class="st1"/>
				<text x="4.76" y="363.62" class="st2">６<tspan class="st4">.</tspan></text>			</g>
			<g id="shape93-325" transform="translate(425.48,-145.984)">
				<title>工作表.93</title>
				<desc>.</desc>
				<rect x="0" y="348.901" width="28.3465" height="19.8425" class="st1"/>
				<text x="4.76" y="363.62" class="st2">７<tspan class="st4">.</tspan></text>			</g>
			<g id="shape94-329" transform="translate(481.606,-145.984)">
				<title>工作表.94</title>
				<desc>.</desc>
				<rect x="0" y="348.901" width="28.3465" height="19.8425" class="st1"/>
				<text x="4.76" y="363.62" class="st2">７<tspan class="st4">.</tspan></text>			</g>
			<g id="shape95-333" transform="translate(257.102,-60.9449)">
				<title>工作表.95</title>
				<desc>.</desc>
				<rect x="0" y="348.901" width="28.3465" height="19.8425" class="st1"/>
				<text x="4.76" y="363.62" class="st2">７<tspan class="st4">.</tspan></text>			</g>
			<g id="shape96-337" transform="translate(200.976,-32.5984)">
				<title>工作表.96</title>
				<desc>.</desc>
				<rect x="0" y="348.901" width="28.3465" height="19.8425" class="st1"/>
				<text x="4.76" y="363.62" class="st2">７<tspan class="st4">.</tspan></text>			</g>
			<g id="shape97-341" transform="translate(537.732,-60.9449)">
				<title>工作表.97</title>
				<desc>.</desc>
				<rect x="0" y="348.901" width="28.3465" height="19.8425" class="st1"/>
				<text x="4.76" y="363.62" class="st2">７<tspan class="st4">.</tspan></text>			</g>
			<g id="shape98-345" transform="translate(425.48,-60.9449)">
				<title>工作表.98</title>
				<desc>.</desc>
				<rect x="0" y="348.901" width="28.3465" height="19.8425" class="st1"/>
				<text x="4.76" y="363.62" class="st2">８<tspan class="st4">.</tspan></text>			</g>
			<g id="shape99-349" transform="translate(481.606,-117.638)">
				<title>工作表.99</title>
				<desc>.</desc>
				<rect x="0" y="348.901" width="28.3465" height="19.8425" class="st1"/>
				<text x="4.76" y="363.62" class="st2">８<tspan class="st4">.</tspan></text>			</g>
			<g id="shape100-353" transform="translate(481.606,-89.2913)">
				<title>工作表.100</title>
				<desc>.</desc>
				<rect x="0" y="348.901" width="28.3465" height="19.8425" class="st1"/>
				<text x="4.76" y="363.62" class="st2">９<tspan class="st4">.</tspan></text>			</g>
			<g id="shape101-357" transform="translate(475.937,-60.9449)">
				<title>工作表.101</title>
				<desc>.</desc>
				<rect x="0" y="348.901" width="39.685" height="19.8425" class="st1"/>
				<text x="6.38" y="363.62" class="st5">１０.</text>			</g>
			<g id="shape102-360" transform="translate(579.969,567.409) rotate(180)">
				<title>工作表.102</title>
				<path d="M0 368.74 L280.63 368.74" class="st3"/>
			</g>
			<g id="shape103-363" transform="translate(187.087,624.102) rotate(180)">
				<title>工作表.103</title>
				<path d="M0 368.74 L56.13 368.74" class="st3"/>
			</g>
			<g id="shape104-366" transform="translate(523.843,624.102) rotate(180)">
				<title>工作表.104</title>
				<path d="M0 368.74 L56.13 368.74" class="st3"/>
			</g>
			<g id="shape105-369" transform="translate(355.465,680.795) rotate(180)">
				<title>工作表.105</title>
				<path d="M0 368.74 L168.38 368.74" class="st3"/>
			</g>
			<g id="shape106-372" transform="translate(299.339,709.141) rotate(180)">
				<title>工作表.106</title>
				<path d="M0 368.74 L112.25 368.74" class="st3"/>
			</g>
			<g id="shape107-375" transform="translate(579.969,680.795) rotate(180)">
				<title>工作表.107</title>
				<path d="M0 368.74 L168.38 368.74" class="st3"/>
			</g>
			<g id="shape113-378" transform="translate(538.016,-231.024)">
				<title>工作表.113</title>
				<desc>.</desc>
				<rect x="0" y="348.901" width="28.3465" height="19.8425" class="st1"/>
				<text x="4.76" y="363.62" class="st2">３<tspan class="st4">.</tspan></text>			</g>
			<g id="shape114-382" transform="translate(369.071,-60.9449)">
				<title>工作表.114</title>
				<desc>.</desc>
				<rect x="0" y="348.901" width="28.3465" height="19.8425" class="st1"/>
				<text x="4.76" y="363.62" class="st2">７<tspan class="st4">.</tspan></text>			</g>
			<g id="shape115-386" transform="translate(144.85,-161.575)">
				<title>工作表.115</title>
				<desc>.</desc>
				<rect x="0" y="348.901" width="28.3465" height="19.8425" class="st1"/>
				<text x="4.76" y="363.62" class="st2">４<tspan class="st4">.</tspan></text>			</g>
			<g id="shape116-390" transform="translate(201.827,-161.575)">
				<title>工作表.116</title>
				<desc>.</desc>
				<rect x="0" y="348.901" width="28.3465" height="19.8425" class="st1"/>
				<text x="4.76" y="363.62" class="st2">４<tspan class="st4">.</tspan></text>			</g>
		</g>
	</g>
</svg>
