<?xml version="1.0" encoding="UTF-8" standalone="no"?>
<!DOCTYPE svg PUBLIC "-//W3C//DTD SVG 1.0//EN" "http://www.w3.org/TR/2001/REC-SVG-20010904/DTD/svg10.dtd">
<!-- 由 Microsoft Visio 11.0, SVG Export, v1.0 產生 y26.0147.svg Page-1 -->
<svg xmlns="http://www.w3.org/2000/svg" xmlns:xlink="http://www.w3.org/1999/xlink" xmlns:ev="http://www.w3.org/2001/xml-events"
		xmlns:v="http://schemas.microsoft.com/visio/2003/SVGExtensions/" width="11.6929in" height="8.26772in"
		viewBox="0 0 841.89 595.276" xml:space="preserve" color-interpolation-filters="sRGB" class="st7">
	<v:documentProperties v:langID="1028" v:metric="true" v:viewMarkup="false">
		<v:userDefs>
			<v:ud v:nameU="msvSubprocessMaster" v:prompt="" v:val="VT4(Box)"/>
			<v:ud v:nameU="msvNoAutoConnect" v:val="VT0(1):26"/>
		</v:userDefs>
	</v:documentProperties>

	<style type="text/css">
	<![CDATA[
		.st1 {stroke:#000000;stroke-linecap:round;stroke-linejoin:round;stroke-opacity:0;stroke-width:0.24}
		.st2 {fill:none;stroke:none;stroke-linecap:round;stroke-linejoin:round;stroke-width:0.75}
		.st3 {fill:#000000;font-family:新細明體;font-size:1.33333em}
		.st4 {stroke:#000000;stroke-linecap:round;stroke-linejoin:round;stroke-width:0.24}
		.st5 {font-size:0.750009em}
		.st6 {fill:#000000;font-family:新細明體;font-size:1.33333em;letter-spacing:-0.187501em}
		.st7 {fill:none;fill-rule:evenodd;font-size:12px;overflow:visible;stroke-linecap:square;stroke-miterlimit:3}
	]]>
	</style>

	<g v:mID="0" v:index="1" v:groupContext="foregroundPage">
		<title>頁-1</title>
		<v:pageProperties v:drawingScale="0.0393701" v:pageScale="0.0393701" v:drawingUnits="24" v:shadowOffsetX="8.50394"
				v:shadowOffsetY="-8.50394"/>
		<g id="group108-1" transform="translate(134.079,487.559) rotate(-90)" v:mID="108" v:groupContext="group">
			<title>工作表.108</title>
			<g id="shape109-2" v:mID="109" v:groupContext="shape" transform="translate(595.276,3.9685) rotate(90)">
				<title>工作表.109</title>
				<path d="M0 595.28 L591.31 595.28" class="st1"/>
			</g>
			<g id="shape110-5" v:mID="110" v:groupContext="shape" transform="translate(0,-591.307)">
				<title>工作表.110</title>
				<path d="M0 595.28 L385.51 595.28" class="st1"/>
			</g>
			<g id="shape111-8" v:mID="111" v:groupContext="shape" transform="translate(980.787,3.9685) rotate(90)">
				<title>工作表.111</title>
				<path d="M0 595.28 L591.31 595.28" class="st1"/>
			</g>
			<g id="shape112-11" v:mID="112" v:groupContext="shape">
				<title>工作表.112</title>
				<path d="M0 595.28 L385.51 595.28" class="st1"/>
			</g>
		</g>
		<g id="shape1-14" v:mID="1" v:groupContext="shape" transform="translate(143.717,-381.827)">
			<title>工作表.1</title>
			<desc>稱讚如來</desc>
			<v:textBlock v:margins="rect(4,4,4,4)" v:tabSpace="42.5197"/>
			<v:textRect cx="36" cy="559.276" width="72" height="72"/>
			<rect x="0" y="523.276" width="72" height="72" class="st2"/>
			<text x="4" y="564.08" class="st3" v:langID="1028"><v:paragraph v:horizAlign="1"/><v:tabList/>稱讚如來</text>		</g>
		<g id="shape2-17" v:mID="2" v:groupContext="shape" transform="translate(143.717,-353.48)">
			<title>工作表.2</title>
			<desc>廣修供養</desc>
			<v:textBlock v:margins="rect(4,4,4,4)" v:tabSpace="42.5197"/>
			<v:textRect cx="36" cy="559.276" width="72" height="72"/>
			<rect x="0" y="523.276" width="72" height="72" class="st2"/>
			<text x="4" y="564.08" class="st3" v:langID="1028"><v:paragraph v:horizAlign="1"/><v:tabList/>廣修供養</text>		</g>
		<g id="shape3-20" v:mID="3" v:groupContext="shape" transform="translate(143.717,-325.134)">
			<title>工作表.3</title>
			<desc>懺悔業障</desc>
			<v:textBlock v:margins="rect(4,4,4,4)" v:tabSpace="42.5197"/>
			<v:textRect cx="36" cy="559.276" width="72" height="72"/>
			<rect x="0" y="523.276" width="72" height="72" class="st2"/>
			<text x="4" y="564.08" class="st3" v:langID="1028"><v:paragraph v:horizAlign="1"/><v:tabList/>懺悔業障</text>		</g>
		<g id="shape4-23" v:mID="4" v:groupContext="shape" transform="translate(143.717,-296.787)">
			<title>工作表.4</title>
			<desc>隨喜功德</desc>
			<v:textBlock v:margins="rect(4,4,4,4)" v:tabSpace="42.5197"/>
			<v:textRect cx="36" cy="559.276" width="72" height="72"/>
			<rect x="0" y="523.276" width="72" height="72" class="st2"/>
			<text x="4" y="564.08" class="st3" v:langID="1028"><v:paragraph v:horizAlign="1"/><v:tabList/>隨喜功德</text>		</g>
		<g id="shape5-26" v:mID="5" v:groupContext="shape" transform="translate(143.717,-268.441)">
			<title>工作表.5</title>
			<desc>請轉法輪</desc>
			<v:textBlock v:margins="rect(4,4,4,4)" v:tabSpace="42.5197"/>
			<v:textRect cx="36" cy="559.276" width="72" height="72"/>
			<rect x="0" y="523.276" width="72" height="72" class="st2"/>
			<text x="4" y="564.08" class="st3" v:langID="1028"><v:paragraph v:horizAlign="1"/><v:tabList/>請轉法輪</text>		</g>
		<g id="shape6-29" v:mID="6" v:groupContext="shape" transform="translate(143.717,-240.094)">
			<title>工作表.6</title>
			<desc>請佛住世</desc>
			<v:textBlock v:margins="rect(4,4,4,4)" v:tabSpace="42.5197"/>
			<v:textRect cx="36" cy="559.276" width="72" height="72"/>
			<rect x="0" y="523.276" width="72" height="72" class="st2"/>
			<text x="4" y="564.08" class="st3" v:langID="1028"><v:paragraph v:horizAlign="1"/><v:tabList/>請佛住世</text>		</g>
		<g id="shape7-32" v:mID="7" v:groupContext="shape" transform="translate(143.717,-211.748)">
			<title>工作表.7</title>
			<desc>常隨佛學</desc>
			<v:textBlock v:margins="rect(4,4,4,4)" v:tabSpace="42.5197"/>
			<v:textRect cx="36" cy="559.276" width="72" height="72"/>
			<rect x="0" y="523.276" width="72" height="72" class="st2"/>
			<text x="4" y="564.08" class="st3" v:langID="1028"><v:paragraph v:horizAlign="1"/><v:tabList/>常隨佛學</text>		</g>
		<g id="shape8-35" v:mID="8" v:groupContext="shape" transform="translate(143.717,-183.402)">
			<title>工作表.8</title>
			<desc>恒順眾生</desc>
			<v:textBlock v:margins="rect(4,4,4,4)" v:tabSpace="42.5197"/>
			<v:textRect cx="36" cy="559.276" width="72" height="72"/>
			<rect x="0" y="523.276" width="72" height="72" class="st2"/>
			<text x="4" y="564.08" class="st3" v:langID="1028"><v:paragraph v:horizAlign="1"/><v:tabList/>恒順眾生</text>		</g>
		<g id="shape9-38" v:mID="9" v:groupContext="shape" transform="translate(143.717,-155.055)">
			<title>工作表.9</title>
			<desc>普皆迴向</desc>
			<v:textBlock v:margins="rect(4,4,4,4)" v:tabSpace="42.5197"/>
			<v:textRect cx="36" cy="559.276" width="72" height="72"/>
			<rect x="0" y="523.276" width="72" height="72" class="st2"/>
			<text x="4" y="564.08" class="st3" v:langID="1028"><v:paragraph v:horizAlign="1"/><v:tabList/>普皆迴向</text>		</g>
		<g id="shape10-41" v:mID="10" v:groupContext="shape" transform="translate(143.717,-126.709)">
			<title>工作表.10</title>
			<desc>發廣大願</desc>
			<v:textBlock v:margins="rect(4,4,4,4)" v:tabSpace="42.5197"/>
			<v:textRect cx="36" cy="559.276" width="72" height="72"/>
			<rect x="0" y="523.276" width="72" height="72" class="st2"/>
			<text x="4" y="564.08" class="st3" v:langID="1028"><v:paragraph v:horizAlign="1"/><v:tabList/>發廣大願</text>		</g>
		<g id="shape11-44" v:mID="11" v:groupContext="shape" transform="translate(143.717,-98.3622)">
			<title>工作表.11</title>
			<desc>皈依三寶</desc>
			<v:textBlock v:margins="rect(4,4,4,4)" v:tabSpace="42.5197"/>
			<v:textRect cx="36" cy="559.276" width="72" height="72"/>
			<rect x="0" y="523.276" width="72" height="72" class="st2"/>
			<text x="4" y="564.08" class="st3" v:langID="1028"><v:paragraph v:horizAlign="1"/><v:tabList/>皈依三寶</text>		</g>
		<g id="shape13-47" v:mID="13" v:groupContext="shape" transform="translate(218.551,-446.457)">
			<title>工作表.13</title>
			<v:textBlock v:margins="rect(4,4,4,4)" v:tabSpace="42.5197"/>
			<v:textRect cx="28.063" cy="567.213" width="56.13" height="56.126"/>
			<rect x="0" y="539.15" width="56.126" height="56.126" class="st2"/>
			<text x="20.06" y="572.01" class="st3" v:langID="1028"><v:paragraph v:horizAlign="1"/><v:tabList/>Ａ</text>		</g>
		<g id="shape15-50" v:mID="15" v:groupContext="shape" transform="translate(-376.724,475.087) rotate(-90)">
			<title>工作表.15</title>
			<path d="M0 595.28 L368.5 595.28" class="st4"/>
		</g>
		<g id="shape14-53" v:mID="14" v:groupContext="shape" transform="translate(723.685,786.898) rotate(180)">
			<title>工作表.14</title>
			<path d="M0 595.28 L168.38 595.28" class="st4"/>
		</g>
		<g id="shape16-56" v:mID="16" v:groupContext="shape" transform="translate(143.717,-403.654)">
			<title>工作表.16</title>
			<path d="M0 595.28 L74.83 595.28" class="st4"/>
		</g>
		<g id="shape17-59" v:mID="17" v:groupContext="shape" transform="translate(143.717,-375.307)">
			<title>工作表.17</title>
			<path d="M0 595.28 L579.97 595.28" class="st4"/>
		</g>
		<g id="shape18-62" v:mID="18" v:groupContext="shape" transform="translate(143.717,-432)">
			<title>工作表.18</title>
			<path d="M0 595.28 L74.83 595.28" class="st4"/>
		</g>
		<g id="shape19-65" v:mID="19" v:groupContext="shape" transform="translate(143.717,-346.961)">
			<title>工作表.19</title>
			<path d="M0 595.28 L579.97 595.28" class="st4"/>
		</g>
		<g id="shape20-68" v:mID="20" v:groupContext="shape" transform="translate(143.717,-318.614)">
			<title>工作表.20</title>
			<path d="M0 595.28 L579.97 595.28" class="st4"/>
		</g>
		<g id="shape21-71" v:mID="21" v:groupContext="shape" transform="translate(143.717,-290.268)">
			<title>工作表.21</title>
			<path d="M0 595.28 L74.83 595.28" class="st4"/>
		</g>
		<g id="shape22-74" v:mID="22" v:groupContext="shape" transform="translate(143.717,-261.921)">
			<title>工作表.22</title>
			<path d="M0 595.28 L579.97 595.28" class="st4"/>
		</g>
		<g id="shape23-77" v:mID="23" v:groupContext="shape" transform="translate(143.717,-233.575)">
			<title>工作表.23</title>
			<path d="M0 595.28 L74.83 595.28" class="st4"/>
		</g>
		<g id="shape24-80" v:mID="24" v:groupContext="shape" transform="translate(143.717,-205.228)">
			<title>工作表.24</title>
			<path d="M0 595.28 L579.97 595.28" class="st4"/>
		</g>
		<g id="shape25-83" v:mID="25" v:groupContext="shape" transform="translate(143.717,-176.882)">
			<title>工作表.25</title>
			<path d="M0 595.28 L130.96 595.28" class="st4"/>
		</g>
		<g id="shape26-86" v:mID="26" v:groupContext="shape" transform="translate(143.717,-148.535)">
			<title>工作表.26</title>
			<path d="M0 595.28 L74.83 595.28" class="st4"/>
		</g>
		<g id="shape27-89" v:mID="27" v:groupContext="shape" transform="translate(143.717,-120.189)">
			<title>工作表.27</title>
			<path d="M0 595.28 L579.97 595.28" class="st4"/>
		</g>
		<g id="shape28-92" v:mID="28" v:groupContext="shape" transform="translate(330.803,-432)">
			<title>工作表.28</title>
			<path d="M0 595.28 L392.88 595.28" class="st4"/>
		</g>
		<g id="shape29-95" v:mID="29" v:groupContext="shape" transform="translate(-320.598,475.087) rotate(-90)">
			<title>工作表.29</title>
			<path d="M0 595.28 L368.5 595.28" class="st4"/>
		</g>
		<g id="shape30-98" v:mID="30" v:groupContext="shape" transform="translate(-152.22,475.087) rotate(-90)">
			<title>工作表.30</title>
			<path d="M0 595.28 L368.5 595.28" class="st4"/>
		</g>
		<g id="shape31-101" v:mID="31" v:groupContext="shape" transform="translate(-96.0945,475.087) rotate(-90)">
			<title>工作表.31</title>
			<path d="M0 595.28 L368.5 595.28" class="st4"/>
		</g>
		<g id="shape32-104" v:mID="32" v:groupContext="shape" transform="translate(-264.472,475.087) rotate(-90)">
			<title>工作表.32</title>
			<path d="M0 595.28 L368.5 595.28" class="st4"/>
		</g>
		<g id="shape33-107" v:mID="33" v:groupContext="shape" transform="translate(16.1575,475.087) rotate(-90)">
			<title>工作表.33</title>
			<path d="M0 595.28 L368.5 595.28" class="st4"/>
		</g>
		<g id="shape34-110" v:mID="34" v:groupContext="shape" transform="translate(72.2835,475.087) rotate(-90)">
			<title>工作表.34</title>
			<path d="M0 595.28 L368.5 595.28" class="st4"/>
		</g>
		<g id="shape35-113" v:mID="35" v:groupContext="shape" transform="translate(-208.346,475.087) rotate(-90)">
			<title>工作表.35</title>
			<path d="M0 595.28 L368.5 595.28" class="st4"/>
		</g>
		<g id="shape36-116" v:mID="36" v:groupContext="shape" transform="translate(-39.9685,475.087) rotate(-90)">
			<title>工作表.36</title>
			<path d="M0 595.28 L368.5 595.28" class="st4"/>
		</g>
		<g id="shape37-119" v:mID="37" v:groupContext="shape" transform="translate(274.677,-446.457)">
			<title>工作表.37</title>
			<v:textBlock v:margins="rect(4,4,4,4)" v:tabSpace="42.5197"/>
			<v:textRect cx="28.063" cy="567.213" width="56.13" height="56.126"/>
			<rect x="0" y="539.15" width="56.126" height="56.126" class="st2"/>
			<text x="20.06" y="572.01" class="st3" v:langID="1028"><v:paragraph v:horizAlign="1"/><v:tabList/>Ｂ</text>		</g>
		<g id="shape38-122" v:mID="38" v:groupContext="shape" transform="translate(330.803,-446.457)">
			<title>工作表.38</title>
			<v:textBlock v:margins="rect(4,4,4,4)" v:tabSpace="42.5197"/>
			<v:textRect cx="28.063" cy="567.213" width="56.13" height="56.126"/>
			<rect x="0" y="539.15" width="56.126" height="56.126" class="st2"/>
			<text x="20.06" y="572.01" class="st3" v:langID="1028"><v:paragraph v:horizAlign="1"/><v:tabList/>Ｃ</text>		</g>
		<g id="shape39-125" v:mID="39" v:groupContext="shape" transform="translate(386.929,-446.457)">
			<title>工作表.39</title>
			<v:textBlock v:margins="rect(4,4,4,4)" v:tabSpace="42.5197"/>
			<v:textRect cx="28.063" cy="567.213" width="56.13" height="56.126"/>
			<rect x="0" y="539.15" width="56.126" height="56.126" class="st2"/>
			<text x="20.06" y="572.01" class="st3" v:langID="1028"><v:paragraph v:horizAlign="1"/><v:tabList/>Ｄ</text>		</g>
		<g id="shape40-128" v:mID="40" v:groupContext="shape" transform="translate(443.055,-446.457)">
			<title>工作表.40</title>
			<v:textBlock v:margins="rect(4,4,4,4)" v:tabSpace="42.5197"/>
			<v:textRect cx="28.063" cy="567.213" width="56.13" height="56.126"/>
			<rect x="0" y="539.15" width="56.126" height="56.126" class="st2"/>
			<text x="20.06" y="572.01" class="st3" v:langID="1028"><v:paragraph v:horizAlign="1"/><v:tabList/>Ｅ</text>		</g>
		<g id="shape41-131" v:mID="41" v:groupContext="shape" transform="translate(499.181,-446.457)">
			<title>工作表.41</title>
			<v:textBlock v:margins="rect(4,4,4,4)" v:tabSpace="42.5197"/>
			<v:textRect cx="28.063" cy="567.213" width="56.13" height="56.126"/>
			<rect x="0" y="539.15" width="56.126" height="56.126" class="st2"/>
			<text x="20.06" y="572.01" class="st3" v:langID="1028"><v:paragraph v:horizAlign="1"/><v:tabList/>Ｆ</text>		</g>
		<g id="shape42-134" v:mID="42" v:groupContext="shape" transform="translate(555.307,-446.457)">
			<title>工作表.42</title>
			<v:textBlock v:margins="rect(4,4,4,4)" v:tabSpace="42.5197"/>
			<v:textRect cx="28.063" cy="567.213" width="56.13" height="56.126"/>
			<rect x="0" y="539.15" width="56.126" height="56.126" class="st2"/>
			<text x="20.06" y="572.01" class="st3" v:langID="1028"><v:paragraph v:horizAlign="1"/><v:tabList/>Ｇ</text>		</g>
		<g id="shape43-137" v:mID="43" v:groupContext="shape" transform="translate(611.433,-446.457)">
			<title>工作表.43</title>
			<v:textBlock v:margins="rect(4,4,4,4)" v:tabSpace="42.5197"/>
			<v:textRect cx="28.063" cy="567.213" width="56.13" height="56.126"/>
			<rect x="0" y="539.15" width="56.126" height="56.126" class="st2"/>
			<text x="20.06" y="572.01" class="st3" v:langID="1028"><v:paragraph v:horizAlign="1"/><v:tabList/>Ｈ</text>		</g>
		<g id="shape44-140" v:mID="44" v:groupContext="shape" transform="translate(143.717,-410.173)">
			<title>工作表.44</title>
			<desc>禮敬諸佛</desc>
			<v:textBlock v:margins="rect(4,4,4,4)" v:tabSpace="42.5197"/>
			<v:textRect cx="36" cy="559.276" width="72" height="72"/>
			<rect x="0" y="523.276" width="72" height="72" class="st2"/>
			<text x="4" y="564.08" class="st3" v:langID="1028"><v:paragraph v:horizAlign="1"/><v:tabList/>禮敬諸佛</text>		</g>
		<g id="shape45-143" v:mID="45" v:groupContext="shape" transform="translate(667.559,-446.457)">
			<title>工作表.45</title>
			<v:textBlock v:margins="rect(4,4,4,4)" v:tabSpace="42.5197"/>
			<v:textRect cx="28.063" cy="567.213" width="56.13" height="56.126"/>
			<rect x="0" y="539.15" width="56.126" height="56.126" class="st2"/>
			<text x="20.06" y="572.01" class="st3" v:langID="1028"><v:paragraph v:horizAlign="1"/><v:tabList/>Ｉ</text>		</g>
		<g id="shape12-146" v:mID="12" v:groupContext="shape" transform="translate(143.717,-460.346)">
			<title>工作表.12</title>
			<path d="M0 595.28 L579.97 595.28" class="st4"/>
		</g>
		<g id="shape46-149" v:mID="46" v:groupContext="shape" transform="translate(338.74,-426.047)">
			<title>工作表.46</title>
			<desc>.</desc>
			<v:textBlock v:margins="rect(4,4,4,4)" v:tabSpace="42.5197"/>
			<v:textRect cx="20.126" cy="575.15" width="40.26" height="40.252"/>
			<rect x="0" y="555.024" width="40.252" height="40.252" class="st2"/>
			<text x="10.71" y="579.95" class="st3" v:langID="1028"><v:paragraph v:horizAlign="1"/><v:tabList/>１<tspan class="st5">.</tspan></text>		</g>
		<g id="shape47-153" v:mID="47" v:groupContext="shape" transform="translate(394.866,-426.047)">
			<title>工作表.47</title>
			<desc>.</desc>
			<v:textBlock v:margins="rect(4,4,4,4)" v:tabSpace="42.5197"/>
			<v:textRect cx="20.126" cy="575.15" width="40.26" height="40.252"/>
			<rect x="0" y="555.024" width="40.252" height="40.252" class="st2"/>
			<text x="10.71" y="579.95" class="st3" v:langID="1028"><v:paragraph v:horizAlign="1"/><v:tabList/>１<tspan class="st5">.</tspan></text>		</g>
		<g id="shape48-157" v:mID="48" v:groupContext="shape" transform="translate(450.992,-426.047)">
			<title>工作表.48</title>
			<desc>.</desc>
			<v:textBlock v:margins="rect(4,4,4,4)" v:tabSpace="42.5197"/>
			<v:textRect cx="20.126" cy="575.15" width="40.26" height="40.252"/>
			<rect x="0" y="555.024" width="40.252" height="40.252" class="st2"/>
			<text x="10.71" y="579.95" class="st3" v:langID="1028"><v:paragraph v:horizAlign="1"/><v:tabList/>１<tspan class="st5">.</tspan></text>		</g>
		<g id="shape49-161" v:mID="49" v:groupContext="shape" transform="translate(507.118,-426.047)">
			<title>工作表.49</title>
			<desc>.</desc>
			<v:textBlock v:margins="rect(4,4,4,4)" v:tabSpace="42.5197"/>
			<v:textRect cx="20.126" cy="575.15" width="40.26" height="40.252"/>
			<rect x="0" y="555.024" width="40.252" height="40.252" class="st2"/>
			<text x="10.71" y="579.95" class="st3" v:langID="1028"><v:paragraph v:horizAlign="1"/><v:tabList/>１<tspan class="st5">.</tspan></text>		</g>
		<g id="shape50-165" v:mID="50" v:groupContext="shape" transform="translate(563.244,-426.047)">
			<title>工作表.50</title>
			<desc>.</desc>
			<v:textBlock v:margins="rect(4,4,4,4)" v:tabSpace="42.5197"/>
			<v:textRect cx="20.126" cy="575.15" width="40.26" height="40.252"/>
			<rect x="0" y="555.024" width="40.252" height="40.252" class="st2"/>
			<text x="10.71" y="579.95" class="st3" v:langID="1028"><v:paragraph v:horizAlign="1"/><v:tabList/>１<tspan class="st5">.</tspan></text>		</g>
		<g id="shape51-169" v:mID="51" v:groupContext="shape" transform="translate(619.37,-426.047)">
			<title>工作表.51</title>
			<desc>.</desc>
			<v:textBlock v:margins="rect(4,4,4,4)" v:tabSpace="42.5197"/>
			<v:textRect cx="20.126" cy="575.15" width="40.26" height="40.252"/>
			<rect x="0" y="555.024" width="40.252" height="40.252" class="st2"/>
			<text x="10.71" y="579.95" class="st3" v:langID="1028"><v:paragraph v:horizAlign="1"/><v:tabList/>１<tspan class="st5">.</tspan></text>		</g>
		<g id="shape52-173" v:mID="52" v:groupContext="shape" transform="translate(675.496,-426.047)">
			<title>工作表.52</title>
			<desc>.</desc>
			<v:textBlock v:margins="rect(4,4,4,4)" v:tabSpace="42.5197"/>
			<v:textRect cx="20.126" cy="575.15" width="40.26" height="40.252"/>
			<rect x="0" y="555.024" width="40.252" height="40.252" class="st2"/>
			<text x="10.71" y="579.95" class="st3" v:langID="1028"><v:paragraph v:horizAlign="1"/><v:tabList/>１<tspan class="st5">.</tspan></text>		</g>
		<g id="shape53-177" v:mID="53" v:groupContext="shape" transform="translate(226.488,-341.008)">
			<title>工作表.53</title>
			<desc>.</desc>
			<v:textBlock v:margins="rect(4,4,4,4)" v:tabSpace="42.5197"/>
			<v:textRect cx="20.126" cy="575.15" width="40.26" height="40.252"/>
			<rect x="0" y="555.024" width="40.252" height="40.252" class="st2"/>
			<text x="10.71" y="579.95" class="st3" v:langID="1028"><v:paragraph v:horizAlign="1"/><v:tabList/>１<tspan class="st5">.</tspan></text>		</g>
		<g id="shape54-181" v:mID="54" v:groupContext="shape" transform="translate(282.614,-199.276)">
			<title>工作表.54</title>
			<desc>.</desc>
			<v:textBlock v:margins="rect(4,4,4,4)" v:tabSpace="42.5197"/>
			<v:textRect cx="20.126" cy="575.15" width="40.26" height="40.252"/>
			<rect x="0" y="555.024" width="40.252" height="40.252" class="st2"/>
			<text x="10.71" y="579.95" class="st3" v:langID="1028"><v:paragraph v:horizAlign="1"/><v:tabList/>１<tspan class="st5">.</tspan></text>		</g>
		<g id="shape55-185" v:mID="55" v:groupContext="shape" transform="translate(563.244,-397.701)">
			<title>工作表.55</title>
			<desc>.</desc>
			<v:textBlock v:margins="rect(4,4,4,4)" v:tabSpace="42.5197"/>
			<v:textRect cx="20.126" cy="575.15" width="40.26" height="40.252"/>
			<rect x="0" y="555.024" width="40.252" height="40.252" class="st2"/>
			<text x="10.71" y="579.95" class="st3" v:langID="1028"><v:paragraph v:horizAlign="1"/><v:tabList/>２<tspan class="st5">.</tspan></text>		</g>
		<g id="shape56-189" v:mID="56" v:groupContext="shape" transform="translate(619.37,-397.701)">
			<title>工作表.56</title>
			<desc>.</desc>
			<v:textBlock v:margins="rect(4,4,4,4)" v:tabSpace="42.5197"/>
			<v:textRect cx="20.126" cy="575.15" width="40.26" height="40.252"/>
			<rect x="0" y="555.024" width="40.252" height="40.252" class="st2"/>
			<text x="10.71" y="579.95" class="st3" v:langID="1028"><v:paragraph v:horizAlign="1"/><v:tabList/>２<tspan class="st5">.</tspan></text>		</g>
		<g id="shape57-193" v:mID="57" v:groupContext="shape" transform="translate(394.866,-369.354)">
			<title>工作表.57</title>
			<desc>.</desc>
			<v:textBlock v:margins="rect(4,4,4,4)" v:tabSpace="42.5197"/>
			<v:textRect cx="20.126" cy="575.15" width="40.26" height="40.252"/>
			<rect x="0" y="555.024" width="40.252" height="40.252" class="st2"/>
			<text x="10.71" y="579.95" class="st3" v:langID="1028"><v:paragraph v:horizAlign="1"/><v:tabList/>２<tspan class="st5">.</tspan></text>		</g>
		<g id="shape58-197" v:mID="58" v:groupContext="shape" transform="translate(675.496,-369.354)">
			<title>工作表.58</title>
			<desc>.</desc>
			<v:textBlock v:margins="rect(4,4,4,4)" v:tabSpace="42.5197"/>
			<v:textRect cx="20.126" cy="575.15" width="40.26" height="40.252"/>
			<rect x="0" y="555.024" width="40.252" height="40.252" class="st2"/>
			<text x="10.71" y="579.95" class="st3" v:langID="1028"><v:paragraph v:horizAlign="1"/><v:tabList/>２<tspan class="st5">.</tspan></text>		</g>
		<g id="shape59-201" v:mID="59" v:groupContext="shape" transform="translate(450.992,-341.008)">
			<title>工作表.59</title>
			<desc>.</desc>
			<v:textBlock v:margins="rect(4,4,4,4)" v:tabSpace="42.5197"/>
			<v:textRect cx="20.126" cy="575.15" width="40.26" height="40.252"/>
			<rect x="0" y="555.024" width="40.252" height="40.252" class="st2"/>
			<text x="10.71" y="579.95" class="st3" v:langID="1028"><v:paragraph v:horizAlign="1"/><v:tabList/>２<tspan class="st5">.</tspan></text>		</g>
		<g id="shape60-205" v:mID="60" v:groupContext="shape" transform="translate(507.118,-341.008)">
			<title>工作表.60</title>
			<desc>.</desc>
			<v:textBlock v:margins="rect(4,4,4,4)" v:tabSpace="42.5197"/>
			<v:textRect cx="20.126" cy="575.15" width="40.26" height="40.252"/>
			<rect x="0" y="555.024" width="40.252" height="40.252" class="st2"/>
			<text x="10.71" y="579.95" class="st3" v:langID="1028"><v:paragraph v:horizAlign="1"/><v:tabList/>２<tspan class="st5">.</tspan></text>		</g>
		<g id="shape61-209" v:mID="61" v:groupContext="shape" transform="translate(226.488,-312.661)">
			<title>工作表.61</title>
			<desc>.</desc>
			<v:textBlock v:margins="rect(4,4,4,4)" v:tabSpace="42.5197"/>
			<v:textRect cx="20.126" cy="575.15" width="40.26" height="40.252"/>
			<rect x="0" y="555.024" width="40.252" height="40.252" class="st2"/>
			<text x="10.71" y="579.95" class="st3" v:langID="1028"><v:paragraph v:horizAlign="1"/><v:tabList/>２<tspan class="st5">.</tspan></text>		</g>
		<g id="shape62-213" v:mID="62" v:groupContext="shape" transform="translate(282.614,-312.661)">
			<title>工作表.62</title>
			<desc>.</desc>
			<v:textBlock v:margins="rect(4,4,4,4)" v:tabSpace="42.5197"/>
			<v:textRect cx="20.126" cy="575.15" width="40.26" height="40.252"/>
			<rect x="0" y="555.024" width="40.252" height="40.252" class="st2"/>
			<text x="10.71" y="579.95" class="st3" v:langID="1028"><v:paragraph v:horizAlign="1"/><v:tabList/>２<tspan class="st5">.</tspan></text>		</g>
		<g id="shape63-217" v:mID="63" v:groupContext="shape" transform="translate(338.74,-114.236)">
			<title>工作表.63</title>
			<desc>.</desc>
			<v:textBlock v:margins="rect(4,4,4,4)" v:tabSpace="42.5197"/>
			<v:textRect cx="20.126" cy="575.15" width="40.26" height="40.252"/>
			<rect x="0" y="555.024" width="40.252" height="40.252" class="st2"/>
			<text x="10.71" y="579.95" class="st3" v:langID="1028"><v:paragraph v:horizAlign="1"/><v:tabList/>２<tspan class="st5">.</tspan></text>		</g>
		<g id="shape64-221" v:mID="64" v:groupContext="shape" transform="translate(226.488,-270.142)">
			<title>工作表.64</title>
			<desc>.</desc>
			<v:textBlock v:margins="rect(4,4,4,4)" v:tabSpace="42.5197"/>
			<v:textRect cx="20.126" cy="575.15" width="40.26" height="40.252"/>
			<rect x="0" y="555.024" width="40.252" height="40.252" class="st2"/>
			<text x="10.71" y="579.95" class="st3" v:langID="1028"><v:paragraph v:horizAlign="1"/><v:tabList/>３<tspan class="st5">.</tspan></text>		</g>
		<g id="shape65-225" v:mID="65" v:groupContext="shape" transform="translate(282.614,-341.008)">
			<title>工作表.65</title>
			<desc>.</desc>
			<v:textBlock v:margins="rect(4,4,4,4)" v:tabSpace="42.5197"/>
			<v:textRect cx="20.126" cy="575.15" width="40.26" height="40.252"/>
			<rect x="0" y="555.024" width="40.252" height="40.252" class="st2"/>
			<text x="10.71" y="579.95" class="st3" v:langID="1028"><v:paragraph v:horizAlign="1"/><v:tabList/>３<tspan class="st5">.</tspan></text>		</g>
		<g id="shape66-229" v:mID="66" v:groupContext="shape" transform="translate(338.74,-341.008)">
			<title>工作表.66</title>
			<desc>.</desc>
			<v:textBlock v:margins="rect(4,4,4,4)" v:tabSpace="42.5197"/>
			<v:textRect cx="20.126" cy="575.15" width="40.26" height="40.252"/>
			<rect x="0" y="555.024" width="40.252" height="40.252" class="st2"/>
			<text x="10.71" y="579.95" class="st3" v:langID="1028"><v:paragraph v:horizAlign="1"/><v:tabList/>３<tspan class="st5">.</tspan></text>		</g>
		<g id="shape67-233" v:mID="67" v:groupContext="shape" transform="translate(394.866,-341.008)">
			<title>工作表.67</title>
			<desc>.</desc>
			<v:textBlock v:margins="rect(4,4,4,4)" v:tabSpace="42.5197"/>
			<v:textRect cx="20.126" cy="575.15" width="40.26" height="40.252"/>
			<rect x="0" y="555.024" width="40.252" height="40.252" class="st2"/>
			<text x="10.71" y="579.95" class="st3" v:langID="1028"><v:paragraph v:horizAlign="1"/><v:tabList/>３<tspan class="st5">.</tspan></text>		</g>
		<g id="shape68-237" v:mID="68" v:groupContext="shape" transform="translate(563.244,-369.354)">
			<title>工作表.68</title>
			<desc>.</desc>
			<v:textBlock v:margins="rect(4,4,4,4)" v:tabSpace="42.5197"/>
			<v:textRect cx="20.126" cy="575.15" width="40.26" height="40.252"/>
			<rect x="0" y="555.024" width="40.252" height="40.252" class="st2"/>
			<text x="10.71" y="579.95" class="st3" v:langID="1028"><v:paragraph v:horizAlign="1"/><v:tabList/>３<tspan class="st5">.</tspan></text>		</g>
		<g id="shape69-241" v:mID="69" v:groupContext="shape" transform="translate(619.37,-369.354)">
			<title>工作表.69</title>
			<desc>.</desc>
			<v:textBlock v:margins="rect(4,4,4,4)" v:tabSpace="42.5197"/>
			<v:textRect cx="20.126" cy="575.15" width="40.26" height="40.252"/>
			<rect x="0" y="555.024" width="40.252" height="40.252" class="st2"/>
			<text x="10.71" y="579.95" class="st3" v:langID="1028"><v:paragraph v:horizAlign="1"/><v:tabList/>３<tspan class="st5">.</tspan></text>		</g>
		<g id="shape70-245" v:mID="70" v:groupContext="shape" transform="translate(450.992,-312.661)">
			<title>工作表.70</title>
			<desc>.</desc>
			<v:textBlock v:margins="rect(4,4,4,4)" v:tabSpace="42.5197"/>
			<v:textRect cx="20.126" cy="575.15" width="40.26" height="40.252"/>
			<rect x="0" y="555.024" width="40.252" height="40.252" class="st2"/>
			<text x="10.71" y="579.95" class="st3" v:langID="1028"><v:paragraph v:horizAlign="1"/><v:tabList/>３<tspan class="st5">.</tspan></text>		</g>
		<g id="shape71-249" v:mID="71" v:groupContext="shape" transform="translate(507.118,-312.661)">
			<title>工作表.71</title>
			<desc>.</desc>
			<v:textBlock v:margins="rect(4,4,4,4)" v:tabSpace="42.5197"/>
			<v:textRect cx="20.126" cy="575.15" width="40.26" height="40.252"/>
			<rect x="0" y="555.024" width="40.252" height="40.252" class="st2"/>
			<text x="10.71" y="579.95" class="st3" v:langID="1028"><v:paragraph v:horizAlign="1"/><v:tabList/>３<tspan class="st5">.</tspan></text>		</g>
		<g id="shape72-253" v:mID="72" v:groupContext="shape" transform="translate(563.244,-341.008)">
			<title>工作表.72</title>
			<desc>.</desc>
			<v:textBlock v:margins="rect(4,4,4,4)" v:tabSpace="42.5197"/>
			<v:textRect cx="20.126" cy="575.15" width="40.26" height="40.252"/>
			<rect x="0" y="555.024" width="40.252" height="40.252" class="st2"/>
			<text x="10.71" y="579.95" class="st3" v:langID="1028"><v:paragraph v:horizAlign="1"/><v:tabList/>４<tspan class="st5">.</tspan></text>		</g>
		<g id="shape73-257" v:mID="73" v:groupContext="shape" transform="translate(619.37,-341.008)">
			<title>工作表.73</title>
			<desc>.</desc>
			<v:textBlock v:margins="rect(4,4,4,4)" v:tabSpace="42.5197"/>
			<v:textRect cx="20.126" cy="575.15" width="40.26" height="40.252"/>
			<rect x="0" y="555.024" width="40.252" height="40.252" class="st2"/>
			<text x="10.71" y="579.95" class="st3" v:langID="1028"><v:paragraph v:horizAlign="1"/><v:tabList/>４<tspan class="st5">.</tspan></text>		</g>
		<g id="shape74-261" v:mID="74" v:groupContext="shape" transform="translate(394.866,-312.661)">
			<title>工作表.74</title>
			<desc>.</desc>
			<v:textBlock v:margins="rect(4,4,4,4)" v:tabSpace="42.5197"/>
			<v:textRect cx="20.126" cy="575.15" width="40.26" height="40.252"/>
			<rect x="0" y="555.024" width="40.252" height="40.252" class="st2"/>
			<text x="10.71" y="579.95" class="st3" v:langID="1028"><v:paragraph v:horizAlign="1"/><v:tabList/>４<tspan class="st5">.</tspan></text>		</g>
		<g id="shape75-265" v:mID="75" v:groupContext="shape" transform="translate(675.496,-312.661)">
			<title>工作表.75</title>
			<desc>.</desc>
			<v:textBlock v:margins="rect(4,4,4,4)" v:tabSpace="42.5197"/>
			<v:textRect cx="20.126" cy="575.15" width="40.26" height="40.252"/>
			<rect x="0" y="555.024" width="40.252" height="40.252" class="st2"/>
			<text x="10.71" y="579.95" class="st3" v:langID="1028"><v:paragraph v:horizAlign="1"/><v:tabList/>４<tspan class="st5">.</tspan></text>		</g>
		<g id="shape76-269" v:mID="76" v:groupContext="shape" transform="translate(450.992,-284.315)">
			<title>工作表.76</title>
			<desc>.</desc>
			<v:textBlock v:margins="rect(4,4,4,4)" v:tabSpace="42.5197"/>
			<v:textRect cx="20.126" cy="575.15" width="40.26" height="40.252"/>
			<rect x="0" y="555.024" width="40.252" height="40.252" class="st2"/>
			<text x="10.71" y="579.95" class="st3" v:langID="1028"><v:paragraph v:horizAlign="1"/><v:tabList/>４<tspan class="st5">.</tspan></text>		</g>
		<g id="shape77-273" v:mID="77" v:groupContext="shape" transform="translate(507.118,-284.315)">
			<title>工作表.77</title>
			<desc>.</desc>
			<v:textBlock v:margins="rect(4,4,4,4)" v:tabSpace="42.5197"/>
			<v:textRect cx="20.126" cy="575.15" width="40.26" height="40.252"/>
			<rect x="0" y="555.024" width="40.252" height="40.252" class="st2"/>
			<text x="10.71" y="579.95" class="st3" v:langID="1028"><v:paragraph v:horizAlign="1"/><v:tabList/>４<tspan class="st5">.</tspan></text>		</g>
		<g id="shape78-277" v:mID="78" v:groupContext="shape" transform="translate(226.488,-170.929)">
			<title>工作表.78</title>
			<desc>.</desc>
			<v:textBlock v:margins="rect(4,4,4,4)" v:tabSpace="42.5197"/>
			<v:textRect cx="20.126" cy="575.15" width="40.26" height="40.252"/>
			<rect x="0" y="555.024" width="40.252" height="40.252" class="st2"/>
			<text x="10.71" y="579.95" class="st3" v:langID="1028"><v:paragraph v:horizAlign="1"/><v:tabList/>４<tspan class="st5">.</tspan></text>		</g>
		<g id="shape79-281" v:mID="79" v:groupContext="shape" transform="translate(338.74,-312.661)">
			<title>工作表.79</title>
			<desc>.</desc>
			<v:textBlock v:margins="rect(4,4,4,4)" v:tabSpace="42.5197"/>
			<v:textRect cx="20.126" cy="575.15" width="40.26" height="40.252"/>
			<rect x="0" y="555.024" width="40.252" height="40.252" class="st2"/>
			<text x="10.71" y="579.95" class="st3" v:langID="1028"><v:paragraph v:horizAlign="1"/><v:tabList/>５<tspan class="st5">.</tspan></text>		</g>
		<g id="shape80-285" v:mID="80" v:groupContext="shape" transform="translate(563.244,-312.661)">
			<title>工作表.80</title>
			<desc>.</desc>
			<v:textBlock v:margins="rect(4,4,4,4)" v:tabSpace="42.5197"/>
			<v:textRect cx="20.126" cy="575.15" width="40.26" height="40.252"/>
			<rect x="0" y="555.024" width="40.252" height="40.252" class="st2"/>
			<text x="10.71" y="579.95" class="st3" v:langID="1028"><v:paragraph v:horizAlign="1"/><v:tabList/>５<tspan class="st5">.</tspan></text>		</g>
		<g id="shape81-289" v:mID="81" v:groupContext="shape" transform="translate(619.37,-312.661)">
			<title>工作表.81</title>
			<desc>.</desc>
			<v:textBlock v:margins="rect(4,4,4,4)" v:tabSpace="42.5197"/>
			<v:textRect cx="20.126" cy="575.15" width="40.26" height="40.252"/>
			<rect x="0" y="555.024" width="40.252" height="40.252" class="st2"/>
			<text x="10.71" y="579.95" class="st3" v:langID="1028"><v:paragraph v:horizAlign="1"/><v:tabList/>５<tspan class="st5">.</tspan></text>		</g>
		<g id="shape82-293" v:mID="82" v:groupContext="shape" transform="translate(394.866,-270.142)">
			<title>工作表.82</title>
			<desc>.</desc>
			<v:textBlock v:margins="rect(4,4,4,4)" v:tabSpace="42.5197"/>
			<v:textRect cx="20.126" cy="575.15" width="40.26" height="40.252"/>
			<rect x="0" y="555.024" width="40.252" height="40.252" class="st2"/>
			<text x="10.71" y="579.95" class="st3" v:langID="1028"><v:paragraph v:horizAlign="1"/><v:tabList/>５<tspan class="st5">.</tspan></text>		</g>
		<g id="shape83-297" v:mID="83" v:groupContext="shape" transform="translate(675.496,-284.315)">
			<title>工作表.83</title>
			<desc>.</desc>
			<v:textBlock v:margins="rect(4,4,4,4)" v:tabSpace="42.5197"/>
			<v:textRect cx="20.126" cy="575.15" width="40.26" height="40.252"/>
			<rect x="0" y="555.024" width="40.252" height="40.252" class="st2"/>
			<text x="10.71" y="579.95" class="st3" v:langID="1028"><v:paragraph v:horizAlign="1"/><v:tabList/>５<tspan class="st5">.</tspan></text>		</g>
		<g id="shape84-301" v:mID="84" v:groupContext="shape" transform="translate(450.992,-255.969)">
			<title>工作表.84</title>
			<desc>.</desc>
			<v:textBlock v:margins="rect(4,4,4,4)" v:tabSpace="42.5197"/>
			<v:textRect cx="20.126" cy="575.15" width="40.26" height="40.252"/>
			<rect x="0" y="555.024" width="40.252" height="40.252" class="st2"/>
			<text x="10.71" y="579.95" class="st3" v:langID="1028"><v:paragraph v:horizAlign="1"/><v:tabList/>５<tspan class="st5">.</tspan></text>		</g>
		<g id="shape85-305" v:mID="85" v:groupContext="shape" transform="translate(507.118,-255.969)">
			<title>工作表.85</title>
			<desc>.</desc>
			<v:textBlock v:margins="rect(4,4,4,4)" v:tabSpace="42.5197"/>
			<v:textRect cx="20.126" cy="575.15" width="40.26" height="40.252"/>
			<rect x="0" y="555.024" width="40.252" height="40.252" class="st2"/>
			<text x="10.71" y="579.95" class="st3" v:langID="1028"><v:paragraph v:horizAlign="1"/><v:tabList/>５<tspan class="st5">.</tspan></text>		</g>
		<g id="shape86-309" v:mID="86" v:groupContext="shape" transform="translate(507.118,-369.354)">
			<title>工作表.86</title>
			<desc>.</desc>
			<v:textBlock v:margins="rect(4,4,4,4)" v:tabSpace="42.5197"/>
			<v:textRect cx="20.126" cy="575.15" width="40.26" height="40.252"/>
			<rect x="0" y="555.024" width="40.252" height="40.252" class="st2"/>
			<text x="10.71" y="579.95" class="st3" v:langID="1028"><v:paragraph v:horizAlign="1"/><v:tabList/>６<tspan class="st5">.</tspan></text>		</g>
		<g id="shape87-313" v:mID="87" v:groupContext="shape" transform="translate(563.244,-284.315)">
			<title>工作表.87</title>
			<desc>.</desc>
			<v:textBlock v:margins="rect(4,4,4,4)" v:tabSpace="42.5197"/>
			<v:textRect cx="20.126" cy="575.15" width="40.26" height="40.252"/>
			<rect x="0" y="555.024" width="40.252" height="40.252" class="st2"/>
			<text x="10.71" y="579.95" class="st3" v:langID="1028"><v:paragraph v:horizAlign="1"/><v:tabList/>６<tspan class="st5">.</tspan></text>		</g>
		<g id="shape88-317" v:mID="88" v:groupContext="shape" transform="translate(619.37,-284.315)">
			<title>工作表.88</title>
			<desc>.</desc>
			<v:textBlock v:margins="rect(4,4,4,4)" v:tabSpace="42.5197"/>
			<v:textRect cx="20.126" cy="575.15" width="40.26" height="40.252"/>
			<rect x="0" y="555.024" width="40.252" height="40.252" class="st2"/>
			<text x="10.71" y="579.95" class="st3" v:langID="1028"><v:paragraph v:horizAlign="1"/><v:tabList/>６<tspan class="st5">.</tspan></text>		</g>
		<g id="shape89-321" v:mID="89" v:groupContext="shape" transform="translate(675.496,-255.969)">
			<title>工作表.89</title>
			<desc>.</desc>
			<v:textBlock v:margins="rect(4,4,4,4)" v:tabSpace="42.5197"/>
			<v:textRect cx="20.126" cy="575.15" width="40.26" height="40.252"/>
			<rect x="0" y="555.024" width="40.252" height="40.252" class="st2"/>
			<text x="10.71" y="579.95" class="st3" v:langID="1028"><v:paragraph v:horizAlign="1"/><v:tabList/>６<tspan class="st5">.</tspan></text>		</g>
		<g id="shape90-325" v:mID="90" v:groupContext="shape" transform="translate(338.74,-170.929)">
			<title>工作表.90</title>
			<desc>.</desc>
			<v:textBlock v:margins="rect(4,4,4,4)" v:tabSpace="42.5197"/>
			<v:textRect cx="20.126" cy="575.15" width="40.26" height="40.252"/>
			<rect x="0" y="555.024" width="40.252" height="40.252" class="st2"/>
			<text x="10.71" y="579.95" class="st3" v:langID="1028"><v:paragraph v:horizAlign="1"/><v:tabList/>６<tspan class="st5">.</tspan></text>		</g>
		<g id="shape91-329" v:mID="91" v:groupContext="shape" transform="translate(450.992,-170.929)">
			<title>工作表.91</title>
			<desc>.</desc>
			<v:textBlock v:margins="rect(4,4,4,4)" v:tabSpace="42.5197"/>
			<v:textRect cx="20.126" cy="575.15" width="40.26" height="40.252"/>
			<rect x="0" y="555.024" width="40.252" height="40.252" class="st2"/>
			<text x="10.71" y="579.95" class="st3" v:langID="1028"><v:paragraph v:horizAlign="1"/><v:tabList/>６<tspan class="st5">.</tspan></text>		</g>
		<g id="shape92-333" v:mID="92" v:groupContext="shape" transform="translate(394.866,-142.583)">
			<title>工作表.92</title>
			<desc>.</desc>
			<v:textBlock v:margins="rect(4,4,4,4)" v:tabSpace="42.5197"/>
			<v:textRect cx="20.126" cy="575.15" width="40.26" height="40.252"/>
			<rect x="0" y="555.024" width="40.252" height="40.252" class="st2"/>
			<text x="10.71" y="579.95" class="st3" v:langID="1028"><v:paragraph v:horizAlign="1"/><v:tabList/>６<tspan class="st5">.</tspan></text>		</g>
		<g id="shape93-337" v:mID="93" v:groupContext="shape" transform="translate(563.244,-255.969)">
			<title>工作表.93</title>
			<desc>.</desc>
			<v:textBlock v:margins="rect(4,4,4,4)" v:tabSpace="42.5197"/>
			<v:textRect cx="20.126" cy="575.15" width="40.26" height="40.252"/>
			<rect x="0" y="555.024" width="40.252" height="40.252" class="st2"/>
			<text x="10.71" y="579.95" class="st3" v:langID="1028"><v:paragraph v:horizAlign="1"/><v:tabList/>７<tspan class="st5">.</tspan></text>		</g>
		<g id="shape94-341" v:mID="94" v:groupContext="shape" transform="translate(619.37,-255.969)">
			<title>工作表.94</title>
			<desc>.</desc>
			<v:textBlock v:margins="rect(4,4,4,4)" v:tabSpace="42.5197"/>
			<v:textRect cx="20.126" cy="575.15" width="40.26" height="40.252"/>
			<rect x="0" y="555.024" width="40.252" height="40.252" class="st2"/>
			<text x="10.71" y="579.95" class="st3" v:langID="1028"><v:paragraph v:horizAlign="1"/><v:tabList/>７<tspan class="st5">.</tspan></text>		</g>
		<g id="shape95-345" v:mID="95" v:groupContext="shape" transform="translate(394.866,-170.929)">
			<title>工作表.95</title>
			<desc>.</desc>
			<v:textBlock v:margins="rect(4,4,4,4)" v:tabSpace="42.5197"/>
			<v:textRect cx="20.126" cy="575.15" width="40.26" height="40.252"/>
			<rect x="0" y="555.024" width="40.252" height="40.252" class="st2"/>
			<text x="10.71" y="579.95" class="st3" v:langID="1028"><v:paragraph v:horizAlign="1"/><v:tabList/>７<tspan class="st5">.</tspan></text>		</g>
		<g id="shape96-349" v:mID="96" v:groupContext="shape" transform="translate(338.74,-142.583)">
			<title>工作表.96</title>
			<desc>.</desc>
			<v:textBlock v:margins="rect(4,4,4,4)" v:tabSpace="42.5197"/>
			<v:textRect cx="20.126" cy="575.15" width="40.26" height="40.252"/>
			<rect x="0" y="555.024" width="40.252" height="40.252" class="st2"/>
			<text x="10.71" y="579.95" class="st3" v:langID="1028"><v:paragraph v:horizAlign="1"/><v:tabList/>７<tspan class="st5">.</tspan></text>		</g>
		<g id="shape97-353" v:mID="97" v:groupContext="shape" transform="translate(675.496,-170.929)">
			<title>工作表.97</title>
			<desc>.</desc>
			<v:textBlock v:margins="rect(4,4,4,4)" v:tabSpace="42.5197"/>
			<v:textRect cx="20.126" cy="575.15" width="40.26" height="40.252"/>
			<rect x="0" y="555.024" width="40.252" height="40.252" class="st2"/>
			<text x="10.71" y="579.95" class="st3" v:langID="1028"><v:paragraph v:horizAlign="1"/><v:tabList/>７<tspan class="st5">.</tspan></text>		</g>
		<g id="shape98-357" v:mID="98" v:groupContext="shape" transform="translate(563.244,-170.929)">
			<title>工作表.98</title>
			<desc>.</desc>
			<v:textBlock v:margins="rect(4,4,4,4)" v:tabSpace="42.5197"/>
			<v:textRect cx="20.126" cy="575.15" width="40.26" height="40.252"/>
			<rect x="0" y="555.024" width="40.252" height="40.252" class="st2"/>
			<text x="10.71" y="579.95" class="st3" v:langID="1028"><v:paragraph v:horizAlign="1"/><v:tabList/>８<tspan class="st5">.</tspan></text>		</g>
		<g id="shape99-361" v:mID="99" v:groupContext="shape" transform="translate(619.37,-227.622)">
			<title>工作表.99</title>
			<desc>.</desc>
			<v:textBlock v:margins="rect(4,4,4,4)" v:tabSpace="42.5197"/>
			<v:textRect cx="20.126" cy="575.15" width="40.26" height="40.252"/>
			<rect x="0" y="555.024" width="40.252" height="40.252" class="st2"/>
			<text x="10.71" y="579.95" class="st3" v:langID="1028"><v:paragraph v:horizAlign="1"/><v:tabList/>８<tspan class="st5">.</tspan></text>		</g>
		<g id="shape100-365" v:mID="100" v:groupContext="shape" transform="translate(619.37,-199.276)">
			<title>工作表.100</title>
			<desc>.</desc>
			<v:textBlock v:margins="rect(4,4,4,4)" v:tabSpace="42.5197"/>
			<v:textRect cx="20.126" cy="575.15" width="40.26" height="40.252"/>
			<rect x="0" y="555.024" width="40.252" height="40.252" class="st2"/>
			<text x="10.71" y="579.95" class="st3" v:langID="1028"><v:paragraph v:horizAlign="1"/><v:tabList/>９<tspan class="st5">.</tspan></text>		</g>
		<g id="shape101-369" v:mID="101" v:groupContext="shape" transform="translate(611.433,-159.874)">
			<title>工作表.101</title>
			<desc>.</desc>
			<v:textBlock v:margins="rect(4,4,4,4)" v:tabSpace="42.5197"/>
			<v:textRect cx="28.063" cy="567.213" width="56.13" height="56.126"/>
			<rect x="0" y="539.15" width="56.126" height="56.126" class="st2"/>
			<text x="14.61" y="572.01" class="st6" v:langID="1028"><v:paragraph v:horizAlign="1"/><v:tabList/>１０.</text>		</g>
		<g id="shape102-372" v:mID="102" v:groupContext="shape" transform="translate(723.685,900.283) rotate(180)">
			<title>工作表.102</title>
			<path d="M0 595.28 L280.63 595.28" class="st4"/>
		</g>
		<g id="shape103-375" v:mID="103" v:groupContext="shape" transform="translate(330.803,956.976) rotate(180)">
			<title>工作表.103</title>
			<path d="M0 595.28 L56.13 595.28" class="st4"/>
		</g>
		<g id="shape104-378" v:mID="104" v:groupContext="shape" transform="translate(667.559,956.976) rotate(180)">
			<title>工作表.104</title>
			<path d="M0 595.28 L56.13 595.28" class="st4"/>
		</g>
		<g id="shape105-381" v:mID="105" v:groupContext="shape" transform="translate(499.181,1013.67) rotate(180)">
			<title>工作表.105</title>
			<path d="M0 595.28 L168.38 595.28" class="st4"/>
		</g>
		<g id="shape106-384" v:mID="106" v:groupContext="shape" transform="translate(443.055,1042.02) rotate(180)">
			<title>工作表.106</title>
			<path d="M0 595.28 L112.25 595.28" class="st4"/>
		</g>
		<g id="shape107-387" v:mID="107" v:groupContext="shape" transform="translate(723.685,1013.67) rotate(180)">
			<title>工作表.107</title>
			<path d="M0 595.28 L168.38 595.28" class="st4"/>
		</g>
	</g>
</svg>
