<?xml version="1.0" encoding="UTF-8" standalone="no"?>
<!DOCTYPE svg PUBLIC "-//W3C//DTD SVG 1.0//EN" "http://www.w3.org/TR/2001/REC-SVG-20010904/DTD/svg10.dtd">
<!-- 由 Microsoft Visio 11.0, SVG Export, v1.0 產生 y26.0244.svg Page-1 -->
<svg xmlns="http://www.w3.org/2000/svg" xmlns:xlink="http://www.w3.org/1999/xlink" xmlns:ev="http://www.w3.org/2001/xml-events"
		xmlns:v="http://schemas.microsoft.com/visio/2003/SVGExtensions/" width="6.74825in" height="9.56321in"
		viewBox="0 0 485.874 688.551" xml:space="preserve" color-interpolation-filters="sRGB" class="st5">
	<v:documentProperties v:langID="1028" v:metric="true" v:viewMarkup="false">
		<v:userDefs>
			<v:ud v:nameU="msvSubprocessMaster" v:prompt="" v:val="VT4(Box)"/>
			<v:ud v:nameU="msvNoAutoConnect" v:val="VT0(1):26"/>
		</v:userDefs>
	</v:documentProperties>

	<style type="text/css">
	<![CDATA[
		.st1 {fill:none;stroke:#ffffff;stroke-linecap:round;stroke-linejoin:round;stroke-opacity:0;stroke-width:1}
		.st2 {fill:#000000;font-family:新細明體;font-size:1.33333em}
		.st3 {stroke:#000000;stroke-linecap:round;stroke-linejoin:round;stroke-width:1}
		.st4 {stroke:#000000;stroke-dasharray:3,3;stroke-linecap:round;stroke-linejoin:round;stroke-width:1}
		.st5 {fill:none;fill-rule:evenodd;font-size:12px;overflow:visible;stroke-linecap:square;stroke-miterlimit:3}
	]]>
	</style>

	<g v:mID="0" v:index="1" v:groupContext="foregroundPage">
		<title>頁-1</title>
		<v:pageProperties v:drawingScale="0.0393701" v:pageScale="0.0393701" v:drawingUnits="24" v:shadowOffsetX="8.50394"
				v:shadowOffsetY="-8.50394"/>
		<g id="group49-1" transform="translate(-221.677,669.551) rotate(-90)" v:mID="49" v:groupContext="group">
			<title>工作表.49</title>
			<g id="shape2-2" v:mID="2" v:groupContext="shape" transform="translate(1174.69,240.677) rotate(90)">
				<title>工作表.2</title>
				<desc>內有色想觀外色</desc>
				<v:textBlock v:margins="rect(4,4,4,4)" v:tabSpace="42.5197"/>
				<v:textRect cx="63.7795" cy="624.772" width="127.56" height="127.559"/>
				<rect x="0" y="560.992" width="127.559" height="127.559" class="st1"/>
				<text x="7.78" y="629.57" class="st2" v:langID="1028"><v:paragraph v:horizAlign="1"/><v:tabList/>內有色想觀外色</text>			</g>
			<g id="shape3-5" v:mID="3" v:groupContext="shape" transform="translate(818.945,243.512) rotate(90)">
				<title>工作表.3</title>
				<desc>空無邊處</desc>
				<v:textBlock v:margins="rect(4,4,4,4)" v:tabSpace="42.5197"/>
				<v:textRect cx="36.8504" cy="651.701" width="73.71" height="73.7008"/>
				<rect x="0" y="614.85" width="73.7008" height="73.7008" class="st1"/>
				<text x="4.85" y="656.5" class="st2" v:langID="1028"><v:paragraph v:horizAlign="1"/><v:tabList/>空無邊處</text>			</g>
			<g id="shape4-8" v:mID="4" v:groupContext="shape" transform="translate(716.898,240.677) rotate(90)">
				<title>工作表.4</title>
				<desc>非想非非想處</desc>
				<v:textBlock v:margins="rect(4,4,4,4)" v:tabSpace="42.5197"/>
				<v:textRect cx="53.8583" cy="634.693" width="107.72" height="107.717"/>
				<rect x="0" y="580.835" width="107.717" height="107.717" class="st1"/>
				<text x="5.86" y="639.49" class="st2" v:langID="1028"><v:paragraph v:horizAlign="1"/><v:tabList/>非想非非想處</text>			</g>
			<g id="shape5-11" v:mID="5" v:groupContext="shape" transform="translate(1265.4,274.693) rotate(90)">
				<title>工作表.5</title>
				<desc>八解脫</desc>
				<v:textBlock v:margins="rect(4,4,4,4)" v:tabSpace="42.5197"/>
				<v:textRect cx="29.7638" cy="658.787" width="59.53" height="59.5276"/>
				<rect x="0" y="629.024" width="59.5276" height="59.5276" class="st1"/>
				<text x="5.76" y="663.59" class="st2" v:langID="1028"><v:paragraph v:horizAlign="1"/><v:tabList/>八解脫</text>			</g>
			<g id="shape6-14" v:mID="6" v:groupContext="shape" transform="translate(1265.4,444.772) rotate(90)">
				<title>工作表.6</title>
				<desc>八勝處</desc>
				<v:textBlock v:margins="rect(4,4,4,4)" v:tabSpace="42.5197"/>
				<v:textRect cx="29.7638" cy="658.787" width="59.53" height="59.5276"/>
				<rect x="0" y="629.024" width="59.5276" height="59.5276" class="st1"/>
				<text x="5.76" y="663.59" class="st2" v:langID="1028"><v:paragraph v:horizAlign="1"/><v:tabList/>八勝處</text>			</g>
			<g id="shape7-17" v:mID="7" v:groupContext="shape" transform="translate(1195.95,412.173) rotate(90)">
				<title>工作表.7</title>
				<desc>內有色想觀外色少</desc>
				<v:textBlock v:margins="rect(4,4,4,4)" v:tabSpace="42.5197"/>
				<v:textRect cx="71.5748" cy="616.976" width="143.15" height="143.15"/>
				<rect x="0" y="545.402" width="143.15" height="143.15" class="st1"/>
				<text x="7.58" y="621.78" class="st2" v:langID="1028"><v:paragraph v:horizAlign="1"/><v:tabList/>內有色想觀外色少</text>			</g>
			<g id="shape8-20" v:mID="8" v:groupContext="shape" transform="translate(1137.13,412.173) rotate(90)">
				<title>工作表.8</title>
				<desc>內有色想觀外色多</desc>
				<v:textBlock v:margins="rect(4,4,4,4)" v:tabSpace="42.5197"/>
				<v:textRect cx="71.5748" cy="616.976" width="143.15" height="143.15"/>
				<rect x="0" y="545.402" width="143.15" height="143.15" class="st1"/>
				<text x="7.58" y="621.78" class="st2" v:langID="1028"><v:paragraph v:horizAlign="1"/><v:tabList/>內有色想觀外色多</text>			</g>
			<g id="shape9-23" v:mID="9" v:groupContext="shape" transform="translate(1088.24,240.677) rotate(90)">
				<title>工作表.9</title>
				<desc>內無色想觀外色</desc>
				<v:textBlock v:margins="rect(4,4,4,4)" v:tabSpace="42.5197"/>
				<v:textRect cx="63.7795" cy="624.772" width="127.56" height="127.559"/>
				<rect x="0" y="560.992" width="127.559" height="127.559" class="st1"/>
				<text x="7.78" y="629.57" class="st2" v:langID="1028"><v:paragraph v:horizAlign="1"/><v:tabList/>內無色想觀外色</text>			</g>
			<g id="shape10-26" v:mID="10" v:groupContext="shape" transform="translate(1108.79,412.173) rotate(90)">
				<title>工作表.10</title>
				<desc>內無色想觀外色少</desc>
				<v:textBlock v:margins="rect(4,4,4,4)" v:tabSpace="42.5197"/>
				<v:textRect cx="71.5748" cy="616.976" width="143.15" height="143.15"/>
				<rect x="0" y="545.402" width="143.15" height="143.15" class="st1"/>
				<text x="7.58" y="621.78" class="st2" v:langID="1028"><v:paragraph v:horizAlign="1"/><v:tabList/>內無色想觀外色少</text>			</g>
			<g id="shape11-29" v:mID="11" v:groupContext="shape" transform="translate(1054.22,412.173) rotate(90)">
				<title>工作表.11</title>
				<desc>內無色想觀外色多</desc>
				<v:textBlock v:margins="rect(4,4,4,4)" v:tabSpace="42.5197"/>
				<v:textRect cx="71.5748" cy="616.976" width="143.15" height="143.15"/>
				<rect x="0" y="545.402" width="143.15" height="143.15" class="st1"/>
				<text x="7.58" y="621.78" class="st2" v:langID="1028"><v:paragraph v:horizAlign="1"/><v:tabList/>內無色想觀外色多</text>			</g>
			<g id="shape12-32" v:mID="12" v:groupContext="shape" transform="translate(913.197,242.094) rotate(90)">
				<title>工作表.12</title>
				<desc>淨解脫身作證</desc>
				<v:textBlock v:margins="rect(4,4,4,4)" v:tabSpace="42.5197"/>
				<v:textRect cx="54.5669" cy="633.984" width="109.14" height="109.134"/>
				<rect x="0" y="579.417" width="109.134" height="109.134" class="st1"/>
				<text x="6.57" y="638.78" class="st2" v:langID="1028"><v:paragraph v:horizAlign="1"/><v:tabList/>淨解脫身作證</text>			</g>
			<g id="shape13-35" v:mID="13" v:groupContext="shape" transform="translate(1263.98,586.504) rotate(90)">
				<title>工作表.13</title>
				<desc>十遍處</desc>
				<v:textBlock v:margins="rect(4,4,4,4)" v:tabSpace="42.5197"/>
				<v:textRect cx="29.7638" cy="658.787" width="59.53" height="59.5276"/>
				<rect x="0" y="629.024" width="59.5276" height="59.5276" class="st1"/>
				<text x="5.76" y="663.59" class="st2" v:langID="1028"><v:paragraph v:horizAlign="1"/><v:tabList/>十遍處</text>			</g>
			<g id="shape1-38" v:mID="1" v:groupContext="shape" transform="translate(1052.8,586.504) rotate(90)">
				<title>工作表.1</title>
				<desc>地遍處</desc>
				<v:textBlock v:margins="rect(4,4,4,4)" v:tabSpace="42.5197"/>
				<v:textRect cx="29.7638" cy="658.787" width="59.53" height="59.5276"/>
				<rect x="0" y="629.024" width="59.5276" height="59.5276" class="st1"/>
				<text x="5.76" y="663.59" class="st2" v:langID="1028"><v:paragraph v:horizAlign="1"/><v:tabList/>地遍處</text>			</g>
			<g id="shape14-41" v:mID="14" v:groupContext="shape" transform="translate(994.693,586.504) rotate(90)">
				<title>工作表.14</title>
				<desc>火遍處</desc>
				<v:textBlock v:margins="rect(4,4,4,4)" v:tabSpace="42.5197"/>
				<v:textRect cx="29.7638" cy="658.787" width="59.53" height="59.5276"/>
				<rect x="0" y="629.024" width="59.5276" height="59.5276" class="st1"/>
				<text x="5.76" y="663.59" class="st2" v:langID="1028"><v:paragraph v:horizAlign="1"/><v:tabList/>火遍處</text>			</g>
			<g id="shape15-44" v:mID="15" v:groupContext="shape" transform="translate(967.764,586.504) rotate(90)">
				<title>工作表.15</title>
				<desc>風遍處</desc>
				<v:textBlock v:margins="rect(4,4,4,4)" v:tabSpace="42.5197"/>
				<v:textRect cx="29.7638" cy="658.787" width="59.53" height="59.5276"/>
				<rect x="0" y="629.024" width="59.5276" height="59.5276" class="st1"/>
				<text x="5.76" y="663.59" class="st2" v:langID="1028"><v:paragraph v:horizAlign="1"/><v:tabList/>風遍處</text>			</g>
			<g id="shape16-47" v:mID="16" v:groupContext="shape" transform="translate(939.417,586.504) rotate(90)">
				<title>工作表.16</title>
				<desc>青遍處</desc>
				<v:textBlock v:margins="rect(4,4,4,4)" v:tabSpace="42.5197"/>
				<v:textRect cx="29.7638" cy="658.787" width="59.53" height="59.5276"/>
				<rect x="0" y="629.024" width="59.5276" height="59.5276" class="st1"/>
				<text x="5.76" y="663.59" class="st2" v:langID="1028"><v:paragraph v:horizAlign="1"/><v:tabList/>青遍處</text>			</g>
			<g id="shape17-50" v:mID="17" v:groupContext="shape" transform="translate(1024.46,586.504) rotate(90)">
				<title>工作表.17</title>
				<desc>水遍處</desc>
				<v:textBlock v:margins="rect(4,4,4,4)" v:tabSpace="42.5197"/>
				<v:textRect cx="29.7638" cy="658.787" width="59.53" height="59.5276"/>
				<rect x="0" y="629.024" width="59.5276" height="59.5276" class="st1"/>
				<text x="5.76" y="663.59" class="st2" v:langID="1028"><v:paragraph v:horizAlign="1"/><v:tabList/>水遍處</text>			</g>
			<g id="shape20-53" v:mID="20" v:groupContext="shape" transform="translate(911.071,586.504) rotate(90)">
				<title>工作表.20</title>
				<desc>黃遍處</desc>
				<v:textBlock v:margins="rect(4,4,4,4)" v:tabSpace="42.5197"/>
				<v:textRect cx="29.7638" cy="658.787" width="59.53" height="59.5276"/>
				<rect x="0" y="629.024" width="59.5276" height="59.5276" class="st1"/>
				<text x="5.76" y="663.59" class="st2" v:langID="1028"><v:paragraph v:horizAlign="1"/><v:tabList/>黃遍處</text>			</g>
			<g id="shape21-56" v:mID="21" v:groupContext="shape" transform="translate(852.961,586.504) rotate(90)">
				<title>工作表.21</title>
				<desc>白遍處</desc>
				<v:textBlock v:margins="rect(4,4,4,4)" v:tabSpace="42.5197"/>
				<v:textRect cx="29.7638" cy="658.787" width="59.53" height="59.5276"/>
				<rect x="0" y="629.024" width="59.5276" height="59.5276" class="st1"/>
				<text x="5.76" y="663.59" class="st2" v:langID="1028"><v:paragraph v:horizAlign="1"/><v:tabList/>白遍處</text>			</g>
			<g id="shape22-59" v:mID="22" v:groupContext="shape" transform="translate(826.031,586.504) rotate(90)">
				<title>工作表.22</title>
				<desc>空遍處</desc>
				<v:textBlock v:margins="rect(4,4,4,4)" v:tabSpace="42.5197"/>
				<v:textRect cx="29.7638" cy="658.787" width="59.53" height="59.5276"/>
				<rect x="0" y="629.024" width="59.5276" height="59.5276" class="st1"/>
				<text x="5.76" y="663.59" class="st2" v:langID="1028"><v:paragraph v:horizAlign="1"/><v:tabList/>空遍處</text>			</g>
			<g id="shape23-62" v:mID="23" v:groupContext="shape" transform="translate(797.685,586.504) rotate(90)">
				<title>工作表.23</title>
				<desc>識遍處</desc>
				<v:textBlock v:margins="rect(4,4,4,4)" v:tabSpace="42.5197"/>
				<v:textRect cx="29.7638" cy="658.787" width="59.53" height="59.5276"/>
				<rect x="0" y="629.024" width="59.5276" height="59.5276" class="st1"/>
				<text x="5.76" y="663.59" class="st2" v:langID="1028"><v:paragraph v:horizAlign="1"/><v:tabList/>識遍處</text>			</g>
			<g id="shape24-65" v:mID="24" v:groupContext="shape" transform="translate(882.724,586.504) rotate(90)">
				<title>工作表.24</title>
				<desc>赤遍處</desc>
				<v:textBlock v:margins="rect(4,4,4,4)" v:tabSpace="42.5197"/>
				<v:textRect cx="29.7638" cy="658.787" width="59.53" height="59.5276"/>
				<rect x="0" y="629.024" width="59.5276" height="59.5276" class="st1"/>
				<text x="5.76" y="663.59" class="st2" v:langID="1028"><v:paragraph v:horizAlign="1"/><v:tabList/>赤遍處</text>			</g>
			<g id="shape18-68" v:mID="18" v:groupContext="shape" transform="translate(897.606,412.173) rotate(90)">
				<title>工作表.18</title>
				<desc>內無色想觀外色青</desc>
				<v:textBlock v:margins="rect(4,4,4,4)" v:tabSpace="42.5197"/>
				<v:textRect cx="71.5748" cy="616.976" width="143.15" height="143.15"/>
				<rect x="0" y="545.402" width="143.15" height="143.15" class="st1"/>
				<text x="7.58" y="621.78" class="st2" v:langID="1028"><v:paragraph v:horizAlign="1"/><v:tabList/>內無色想觀外色青</text>			</g>
			<g id="shape19-71" v:mID="19" v:groupContext="shape" transform="translate(869.969,412.173) rotate(90)">
				<title>工作表.19</title>
				<desc>內無色想觀外色黃</desc>
				<v:textBlock v:margins="rect(4,4,4,4)" v:tabSpace="42.5197"/>
				<v:textRect cx="71.5748" cy="616.976" width="143.15" height="143.15"/>
				<rect x="0" y="545.402" width="143.15" height="143.15" class="st1"/>
				<text x="7.58" y="621.78" class="st2" v:langID="1028"><v:paragraph v:horizAlign="1"/><v:tabList/>內無色想觀外色黃</text>			</g>
			<g id="shape25-74" v:mID="25" v:groupContext="shape" transform="translate(840.913,412.173) rotate(90)">
				<title>工作表.25</title>
				<desc>內無色想觀外色赤</desc>
				<v:textBlock v:margins="rect(4,4,4,4)" v:tabSpace="42.5197"/>
				<v:textRect cx="71.5748" cy="616.976" width="143.15" height="143.15"/>
				<rect x="0" y="545.402" width="143.15" height="143.15" class="st1"/>
				<text x="7.58" y="621.78" class="st2" v:langID="1028"><v:paragraph v:horizAlign="1"/><v:tabList/>內無色想觀外色赤</text>			</g>
			<g id="shape26-77" v:mID="26" v:groupContext="shape" transform="translate(813.276,412.173) rotate(90)">
				<title>工作表.26</title>
				<desc>內無色想觀外色白</desc>
				<v:textBlock v:margins="rect(4,4,4,4)" v:tabSpace="42.5197"/>
				<v:textRect cx="71.5748" cy="616.976" width="143.15" height="143.15"/>
				<rect x="0" y="545.402" width="143.15" height="143.15" class="st1"/>
				<text x="7.58" y="621.78" class="st2" v:langID="1028"><v:paragraph v:horizAlign="1"/><v:tabList/>內無色想觀外色白</text>			</g>
			<g id="shape27-80" v:mID="27" v:groupContext="shape" transform="translate(790.598,243.512) rotate(90)">
				<title>工作表.27</title>
				<desc>識無邊處</desc>
				<v:textBlock v:margins="rect(4,4,4,4)" v:tabSpace="42.5197"/>
				<v:textRect cx="36.8504" cy="651.701" width="73.71" height="73.7008"/>
				<rect x="0" y="614.85" width="73.7008" height="73.7008" class="st1"/>
				<text x="4.85" y="656.5" class="st2" v:langID="1028"><v:paragraph v:horizAlign="1"/><v:tabList/>識無邊處</text>			</g>
			<g id="shape28-83" v:mID="28" v:groupContext="shape" transform="translate(762.252,243.512) rotate(90)">
				<title>工作表.28</title>
				<desc>無所有處</desc>
				<v:textBlock v:margins="rect(4,4,4,4)" v:tabSpace="42.5197"/>
				<v:textRect cx="36.8504" cy="651.701" width="73.71" height="73.7008"/>
				<rect x="0" y="614.85" width="73.7008" height="73.7008" class="st1"/>
				<text x="4.85" y="656.5" class="st2" v:langID="1028"><v:paragraph v:horizAlign="1"/><v:tabList/>無所有處</text>			</g>
			<g id="shape29-86" v:mID="29" v:groupContext="shape" transform="translate(688.551,240.677) rotate(90)">
				<title>工作表.29</title>
				<desc>想受滅身作證</desc>
				<v:textBlock v:margins="rect(4,4,4,4)" v:tabSpace="42.5197"/>
				<v:textRect cx="53.8583" cy="634.693" width="107.72" height="107.717"/>
				<rect x="0" y="580.835" width="107.717" height="107.717" class="st1"/>
				<text x="5.86" y="639.49" class="st2" v:langID="1028"><v:paragraph v:horizAlign="1"/><v:tabList/>想受滅身作證</text>			</g>
			<g id="shape31-89" v:mID="31" v:groupContext="shape" transform="translate(1279.57,246.346) rotate(90)">
				<title>工作表.31</title>
				<path d="M0 688.55 L442.2 688.55" class="st3"/>
			</g>
			<g id="shape32-92" v:mID="32" v:groupContext="shape" transform="translate(38.2677,-276.378)">
				<title>工作表.32</title>
				<path d="M0 688.55 L581.1 688.55" class="st3"/>
			</g>
			<g id="shape33-95" v:mID="33" v:groupContext="shape" transform="translate(38.2677,-107.717)">
				<title>工作表.33</title>
				<path d="M0 688.55 L581.1 688.55" class="st3"/>
			</g>
			<g id="shape34-98" v:mID="34" v:groupContext="shape" transform="translate(854.378,320.047) rotate(90)">
				<title>工作表.34</title>
				<path d="M0 688.55 L240.92 688.55" class="st3"/>
			</g>
			<g id="shape35-101" v:mID="35" v:groupContext="shape" transform="translate(826.031,320.047) rotate(90)">
				<title>工作表.35</title>
				<path d="M0 688.55 L240.92 688.55" class="st3"/>
			</g>
			<g id="shape36-104" v:mID="36" v:groupContext="shape" transform="translate(967.764,348.394) rotate(90)">
				<title>工作表.36</title>
				<path d="M0 688.55 L28.35 688.55" class="st3"/>
			</g>
			<g id="shape37-107" v:mID="37" v:groupContext="shape" transform="translate(1152.02,362.567) rotate(90)">
				<title>工作表.37</title>
				<path d="M0 688.55 L28.35 688.55" class="st3"/>
			</g>
			<g id="shape38-110" v:mID="38" v:groupContext="shape" transform="translate(1237.06,362.567) rotate(90)">
				<title>工作表.38</title>
				<path d="M0 688.55 L28.35 688.55" class="st3"/>
			</g>
			<g id="shape39-113" v:mID="39" v:groupContext="shape" transform="translate(771.394,-224.946) rotate(26.5651)">
				<title>工作表.39</title>
				<path d="M0 688.55 L31.69 688.55" class="st3"/>
			</g>
			<g id="shape40-116" v:mID="40" v:groupContext="shape" transform="translate(771.394,1006.77) rotate(153.435)">
				<title>工作表.40</title>
				<path d="M0 688.55 L31.69 688.55" class="st3"/>
			</g>
			<g id="shape41-119" v:mID="41" v:groupContext="shape" transform="translate(856.433,-224.946) rotate(26.5651)">
				<title>工作表.41</title>
				<path d="M0 688.55 L31.69 688.55" class="st3"/>
			</g>
			<g id="shape42-122" v:mID="42" v:groupContext="shape" transform="translate(856.433,1006.77) rotate(153.435)">
				<title>工作表.42</title>
				<path d="M0 688.55 L31.69 688.55" class="st3"/>
			</g>
			<g id="shape30-125" v:mID="30" v:groupContext="shape" transform="translate(544.04,1012.33) rotate(157.38)">
				<title>工作表.30</title>
				<path d="M0 688.55 L92.13 688.55" class="st3"/>
			</g>
			<g id="shape43-128" v:mID="43" v:groupContext="shape" transform="translate(484.59,-280.468) rotate(17.354)">
				<title>工作表.43</title>
				<path d="M0 688.55 L118.79 688.55" class="st3"/>
			</g>
			<g id="shape44-131" v:mID="44" v:groupContext="shape" transform="translate(1081.15,412.173) rotate(90)">
				<title>工作表.44</title>
				<path d="M0 688.55 L162.99 688.55" class="st4"/>
			</g>
			<g id="shape45-134" v:mID="45" v:groupContext="shape" transform="translate(882.724,546.819) rotate(90)">
				<title>工作表.45</title>
				<path d="M0 688.55 L28.35 688.55" class="st3"/>
			</g>
			<g id="shape46-137" v:mID="46" v:groupContext="shape" transform="translate(911.071,546.819) rotate(90)">
				<title>工作表.46</title>
				<path d="M0 688.55 L28.35 688.55" class="st3"/>
			</g>
			<g id="shape47-140" v:mID="47" v:groupContext="shape" transform="translate(939.417,546.819) rotate(90)">
				<title>工作表.47</title>
				<path d="M0 688.55 L28.35 688.55" class="st3"/>
			</g>
			<g id="shape48-143" v:mID="48" v:groupContext="shape" transform="translate(967.764,546.819) rotate(90)">
				<title>工作表.48</title>
				<path d="M0 688.55 L28.35 688.55" class="st3"/>
			</g>
		</g>
	</g>
</svg>
