<?xml version="1.0" encoding="UTF-8" standalone="no"?>
<!DOCTYPE svg PUBLIC "-//W3C//DTD SVG 1.1//EN" "http://www.w3.org/Graphics/SVG/1.1/DTD/svg11.dtd">
<!-- 由 Microsoft Visio, SVG Export 產生 y35.0156.svg 頁-1 -->
<svg xmlns="http://www.w3.org/2000/svg" xmlns:xlink="http://www.w3.org/1999/xlink" xmlns:ev="http://www.w3.org/2001/xml-events"
		width="7.58424in" height="5.2805in" viewBox="0 0 546.065 380.196" xml:space="preserve" color-interpolation-filters="sRGB"
		class="st5">
	<style type="text/css">
	<![CDATA[
		.st1 {fill:none;stroke:none;stroke-linecap:round;stroke-linejoin:round;stroke-width:0.75}
		.st2 {fill:#000000;font-family:新細明體;font-size:1.33333em}
		.st3 {stroke:#000000;stroke-linecap:round;stroke-linejoin:round;stroke-width:0.24}
		.st4 {fill:#000000;font-family:新細明體;font-size:0.916672em}
		.st5 {fill:none;fill-rule:evenodd;font-size:12px;overflow:visible;stroke-linecap:square;stroke-miterlimit:3}
	]]>
	</style>

	<g>
		<title>頁-1</title>
		<g id="group169-1" transform="translate(0.375,-0.12)">
			<title>工作表.169</title>
			<g id="shape1-2" transform="translate(2.79776E-14,-260.929)">
				<title>工作表.1</title>
				<desc>衣著</desc>
				<rect x="0" y="360.353" width="40.252" height="19.8425" class="st1"/>
				<text x="4.13" y="375.07" class="st2">衣著</text>			</g>
			<g id="shape2-5" transform="translate(1.91847E-13,-224.362)">
				<title>工作表.2</title>
				<desc>入白衣舍‧坐</desc>
				<rect x="0" y="360.353" width="104.031" height="19.8425" class="st1"/>
				<text x="4.02" y="375.07" class="st2">入白衣舍‧坐</text>			</g>
			<g id="shape3-8" transform="translate(7.99361E-14,-187.795)">
				<title>工作表.3</title>
				<desc>受飲食‧鉢</desc>
				<rect x="0" y="360.353" width="88.1575" height="19.8425" class="st1"/>
				<text x="4.08" y="375.07" class="st2">受飲食‧鉢</text>			</g>
			<g id="shape4-11" transform="translate(5.39568E-13,-151.228)">
				<title>工作表.4</title>
				<desc>說法</desc>
				<rect x="0" y="360.353" width="40.252" height="19.8425" class="st1"/>
				<text x="4.13" y="375.07" class="st2">說法</text>			</g>
			<g id="shape5-14" transform="translate(5.27578E-13,-114.661)">
				<title>工作表.5</title>
				<desc>大小便</desc>
				<rect x="0" y="360.353" width="56.126" height="19.8425" class="st1"/>
				<text x="4.06" y="375.07" class="st2">大小便</text>			</g>
			<g id="shape6-17" transform="translate(5.11591E-13,-78.0945)">
				<title>工作表.6</title>
				<desc>上樹觀望</desc>
				<rect x="0" y="360.353" width="72" height="19.8425" class="st1"/>
				<text x="4" y="375.07" class="st2">上樹觀望</text>			</g>
			<g id="shape7-20" transform="translate(9.07274E-13,-41.5276)">
				<title>工作表.7</title>
				<desc>塔‧像</desc>
				<rect x="0" y="360.353" width="56.126" height="19.8425" class="st1"/>
				<text x="4.06" y="375.07" class="st2">塔‧像</text>			</g>
			<g id="shape9-23" transform="translate(48.189,-4.96063)">
				<title>工作表.9</title>
				<desc>合計</desc>
				<rect x="0" y="360.353" width="72" height="19.8425" class="st1"/>
				<text x="4" y="375.07" class="st2">（合計）</text>			</g>
			<g id="shape10-26" transform="translate(186.307,-307.701)">
				<title>工作表.10</title>
				<desc>優波離問</desc>
				<rect x="0" y="308.196" width="19.8425" height="72" class="st1"/>
				<text x="9.92" y="312.2" writing-mode="tb-rl" class="st2">優波離問</text>			</g>
			<g id="shape11-29" transform="translate(162.283,-307.701)">
				<title>工作表.11</title>
				<desc>僧祇戒本</desc>
				<rect x="0" y="308.196" width="19.8425" height="72" class="st1"/>
				<text x="9.92" y="312.2" writing-mode="tb-rl" class="st2">僧祇戒本</text>			</g>
			<g id="shape12-32" transform="translate(210.331,-307.701)">
				<title>工作表.12</title>
				<desc>銅鍱戒本</desc>
				<rect x="0" y="308.196" width="19.8425" height="72" class="st1"/>
				<text x="9.92" y="312.2" writing-mode="tb-rl" class="st2">銅鍱戒本</text>			</g>
			<g id="shape13-35" transform="translate(282.402,-307.701)">
				<title>工作表.13</title>
				<desc>五分戒本</desc>
				<rect x="0" y="308.196" width="19.8425" height="72" class="st1"/>
				<text x="9.92" y="312.2" writing-mode="tb-rl" class="st2">五分戒本</text>			</g>
			<g id="shape14-38" transform="translate(234.354,-307.701)">
				<title>工作表.14</title>
				<desc>四分戒本</desc>
				<rect x="0" y="308.196" width="19.8425" height="72" class="st1"/>
				<text x="9.92" y="312.2" writing-mode="tb-rl" class="st2">四分戒本</text>			</g>
			<g id="shape15-41" transform="translate(258.378,-307.701)">
				<title>工作表.15</title>
				<desc>解脫戒經</desc>
				<rect x="0" y="308.196" width="19.8425" height="72" class="st1"/>
				<text x="9.92" y="312.2" writing-mode="tb-rl" class="st2">解脫戒經</text>			</g>
			<g id="shape16-44" transform="translate(354.472,-307.701)">
				<title>工作表.16</title>
				<desc>十誦別本</desc>
				<rect x="0" y="308.196" width="19.8425" height="72" class="st1"/>
				<text x="9.92" y="312.2" writing-mode="tb-rl" class="st2">十誦別本</text>			</g>
			<g id="shape17-47" transform="translate(450.567,-307.701)">
				<title>工作表.17</title>
				<desc>十誦律本</desc>
				<rect x="0" y="308.196" width="19.8425" height="72" class="st1"/>
				<text x="9.92" y="312.2" writing-mode="tb-rl" class="st2">十誦律本</text>			</g>
			<g id="shape18-50" transform="translate(426.543,-307.701)">
				<title>工作表.18</title>
				<desc>十誦古本</desc>
				<rect x="0" y="308.196" width="19.8425" height="72" class="st1"/>
				<text x="9.92" y="312.2" writing-mode="tb-rl" class="st2">十誦古本</text>			</g>
			<g id="shape19-53" transform="translate(474.591,-307.701)">
				<title>工作表.19</title>
				<desc>十誦戒本</desc>
				<rect x="0" y="308.196" width="19.8425" height="72" class="st1"/>
				<text x="9.92" y="312.2" writing-mode="tb-rl" class="st2">十誦戒本</text>			</g>
			<g id="shape20-56" transform="translate(498.614,-307.701)">
				<title>工作表.20</title>
				<desc>十誦梵本</desc>
				<rect x="0" y="308.196" width="19.8425" height="72" class="st1"/>
				<text x="9.92" y="312.2" writing-mode="tb-rl" class="st2">十誦梵本</text>			</g>
			<g id="shape21-59" transform="translate(522.638,-307.701)">
				<title>工作表.21</title>
				<desc>鼻奈耶</desc>
				<rect x="0" y="308.196" width="19.8425" height="72" class="st1"/>
				<text x="9.92" y="19.512em 21.012em 22.512em" writing-mode="tb-rl" class="st2">鼻奈耶</text>			</g>
			<g id="shape22-62" transform="translate(401.953,-307.701)">
				<title>工作表.22</title>
				<desc>根有戒經</desc>
				<rect x="0" y="308.196" width="19.8425" height="72" class="st1"/>
				<text x="9.92" y="312.2" writing-mode="tb-rl" class="st2">根有戒經</text>			</g>
			<g id="shape23-65" transform="translate(330.449,-307.701)">
				<title>工作表.23</title>
				<desc>根有梵本</desc>
				<rect x="0" y="308.196" width="19.8425" height="72" class="st1"/>
				<text x="9.92" y="312.2" writing-mode="tb-rl" class="st2">根有梵本</text>			</g>
			<g id="shape24-68" transform="translate(306.425,-307.701)">
				<title>工作表.24</title>
				<desc>根有藏本</desc>
				<rect x="0" y="308.196" width="19.8425" height="72" class="st1"/>
				<text x="9.92" y="312.2" writing-mode="tb-rl" class="st2">根有藏本</text>			</g>
			<g id="shape25-71" transform="translate(378.496,-307.701)">
				<title>工作表.25</title>
				<desc>名義大集</desc>
				<rect x="0" y="308.196" width="19.8425" height="72" class="st1"/>
				<text x="9.92" y="312.2" writing-mode="tb-rl" class="st2">名義大集</text>			</g>
			<g id="shape27-74" transform="translate(-232.227,380.196) rotate(-90)">
				<title>工作表.27</title>
				<path d="M0 380.2 L377.01 380.2" class="st3"/>
			</g>
			<g id="shape28-77" transform="translate(544.252,465.163) rotate(180)">
				<title>工作表.28</title>
				<path d="M0 380.2 L542.83 380.2" class="st3"/>
			</g>
			<g id="shape40-80" transform="translate(160.866,-4.96063)">
				<title>工作表.40</title>
				<desc>66</desc>
				<rect x="0" y="360.353" width="22.6772" height="19.8425" class="st1"/>
				<text x="6.17" y="373.57" class="st4">66</text>			</g>
			<g id="shape41-83" transform="translate(162.283,-41.5276)">
				<title>工作表.41</title>
				<desc>‧</desc>
				<rect x="0" y="360.353" width="19.8425" height="19.8425" class="st1"/>
				<text x="4.42" y="373.57" class="st4">‧</text>			</g>
			<g id="shape42-86" transform="translate(162.283,-78.0945)">
				<title>工作表.42</title>
				<desc>‧</desc>
				<rect x="0" y="360.353" width="19.8425" height="19.8425" class="st1"/>
				<text x="4.42" y="373.57" class="st4">‧</text>			</g>
			<g id="shape43-89" transform="translate(162.283,-114.661)">
				<title>工作表.43</title>
				<desc>3</desc>
				<rect x="0" y="360.353" width="19.8425" height="19.8425" class="st1"/>
				<text x="7.34" y="373.57" class="st4">3</text>			</g>
			<g id="shape44-92" transform="translate(162.283,-151.228)">
				<title>工作表.44</title>
				<desc>16</desc>
				<rect x="0" y="360.353" width="19.8425" height="19.8425" class="st1"/>
				<text x="4.75" y="373.57" class="st4">16</text>			</g>
			<g id="shape45-95" transform="translate(162.283,-187.795)">
				<title>工作表.45</title>
				<desc>24</desc>
				<rect x="0" y="360.353" width="19.8425" height="19.8425" class="st1"/>
				<text x="4.75" y="373.57" class="st4">24</text>			</g>
			<g id="shape46-98" transform="translate(162.283,-224.362)">
				<title>工作表.46</title>
				<desc>21</desc>
				<rect x="0" y="360.353" width="19.8425" height="19.8425" class="st1"/>
				<text x="4.75" y="373.57" class="st4">21</text>			</g>
			<g id="shape47-101" transform="translate(162.283,-260.929)">
				<title>工作表.47</title>
				<desc>2</desc>
				<rect x="0" y="360.353" width="19.8425" height="19.8425" class="st1"/>
				<text x="7.34" y="373.57" class="st4">2</text>			</g>
			<g id="shape48-104" transform="translate(184.89,-4.96063)">
				<title>工作表.48</title>
				<desc>72</desc>
				<rect x="0" y="360.353" width="22.6772" height="19.8425" class="st1"/>
				<text x="6.17" y="373.57" class="st4">72</text>			</g>
			<g id="shape49-107" transform="translate(186.307,-41.5276)">
				<title>工作表.49</title>
				<desc>‧</desc>
				<rect x="0" y="360.353" width="19.8425" height="19.8425" class="st1"/>
				<text x="4.42" y="373.57" class="st4">‧</text>			</g>
			<g id="shape50-110" transform="translate(186.307,-78.0945)">
				<title>工作表.50</title>
				<desc>‧</desc>
				<rect x="0" y="360.353" width="19.8425" height="19.8425" class="st1"/>
				<text x="4.42" y="373.57" class="st4">‧</text>			</g>
			<g id="shape51-113" transform="translate(186.307,-114.661)">
				<title>工作表.51</title>
				<desc>3</desc>
				<rect x="0" y="360.353" width="19.8425" height="19.8425" class="st1"/>
				<text x="7.34" y="373.57" class="st4">3</text>			</g>
			<g id="shape52-116" transform="translate(186.307,-151.228)">
				<title>工作表.52</title>
				<desc>16</desc>
				<rect x="0" y="360.353" width="19.8425" height="19.8425" class="st1"/>
				<text x="4.75" y="373.57" class="st4">16</text>			</g>
			<g id="shape53-119" transform="translate(186.307,-187.795)">
				<title>工作表.53</title>
				<desc>29</desc>
				<rect x="0" y="360.353" width="19.8425" height="19.8425" class="st1"/>
				<text x="4.75" y="373.57" class="st4">29</text>			</g>
			<g id="shape54-122" transform="translate(186.307,-224.362)">
				<title>工作表.54</title>
				<desc>22</desc>
				<rect x="0" y="360.353" width="19.8425" height="19.8425" class="st1"/>
				<text x="4.75" y="373.57" class="st4">22</text>			</g>
			<g id="shape55-125" transform="translate(186.307,-260.929)">
				<title>工作表.55</title>
				<desc>2</desc>
				<rect x="0" y="360.353" width="19.8425" height="19.8425" class="st1"/>
				<text x="7.34" y="373.57" class="st4">2</text>			</g>
			<g id="shape56-128" transform="translate(208.913,-4.96063)">
				<title>工作表.56</title>
				<desc>75</desc>
				<rect x="0" y="360.353" width="22.6772" height="19.8425" class="st1"/>
				<text x="6.17" y="373.57" class="st4">75</text>			</g>
			<g id="shape57-131" transform="translate(210.331,-41.5276)">
				<title>工作表.57</title>
				<desc>‧</desc>
				<rect x="0" y="360.353" width="19.8425" height="19.8425" class="st1"/>
				<text x="4.42" y="373.57" class="st4">‧</text>			</g>
			<g id="shape58-134" transform="translate(210.331,-78.0945)">
				<title>工作表.58</title>
				<desc>‧</desc>
				<rect x="0" y="360.353" width="19.8425" height="19.8425" class="st1"/>
				<text x="4.42" y="373.57" class="st4">‧</text>			</g>
			<g id="shape59-137" transform="translate(210.331,-114.661)">
				<title>工作表.59</title>
				<desc>3</desc>
				<rect x="0" y="360.353" width="19.8425" height="19.8425" class="st1"/>
				<text x="7.34" y="373.57" class="st4">3</text>			</g>
			<g id="shape60-140" transform="translate(210.331,-151.228)">
				<title>工作表.60</title>
				<desc>16</desc>
				<rect x="0" y="360.353" width="19.8425" height="19.8425" class="st1"/>
				<text x="4.75" y="373.57" class="st4">16</text>			</g>
			<g id="shape61-143" transform="translate(210.331,-187.795)">
				<title>工作表.61</title>
				<desc>30</desc>
				<rect x="0" y="360.353" width="19.8425" height="19.8425" class="st1"/>
				<text x="4.75" y="373.57" class="st4">30</text>			</g>
			<g id="shape62-146" transform="translate(210.331,-224.362)">
				<title>工作表.62</title>
				<desc>24</desc>
				<rect x="0" y="360.353" width="19.8425" height="19.8425" class="st1"/>
				<text x="4.75" y="373.57" class="st4">24</text>			</g>
			<g id="shape63-149" transform="translate(210.331,-260.929)">
				<title>工作表.63</title>
				<desc>2</desc>
				<rect x="0" y="360.353" width="19.8425" height="19.8425" class="st1"/>
				<text x="7.34" y="373.57" class="st4">2</text>			</g>
			<g id="shape64-152" transform="translate(231.52,-4.96063)">
				<title>工作表.64</title>
				<desc>100</desc>
				<rect x="0" y="360.353" width="25.5118" height="19.8425" class="st1"/>
				<text x="5.01" y="373.57" class="st4">100</text>			</g>
			<g id="shape65-155" transform="translate(234.354,-41.5276)">
				<title>工作表.65</title>
				<desc>26</desc>
				<rect x="0" y="360.353" width="19.8425" height="19.8425" class="st1"/>
				<text x="4.75" y="373.57" class="st4">26</text>			</g>
			<g id="shape66-158" transform="translate(234.354,-78.0945)">
				<title>工作表.66</title>
				<desc>1</desc>
				<rect x="0" y="360.353" width="19.8425" height="19.8425" class="st1"/>
				<text x="7.34" y="373.57" class="st4">1</text>			</g>
			<g id="shape67-161" transform="translate(234.354,-114.661)">
				<title>工作表.67</title>
				<desc>3</desc>
				<rect x="0" y="360.353" width="19.8425" height="19.8425" class="st1"/>
				<text x="7.34" y="373.57" class="st4">3</text>			</g>
			<g id="shape68-164" transform="translate(234.354,-151.228)">
				<title>工作表.68</title>
				<desc>20</desc>
				<rect x="0" y="360.353" width="19.8425" height="19.8425" class="st1"/>
				<text x="4.75" y="373.57" class="st4">20</text>			</g>
			<g id="shape69-167" transform="translate(234.354,-187.795)">
				<title>工作表.69</title>
				<desc>23</desc>
				<rect x="0" y="360.353" width="19.8425" height="19.8425" class="st1"/>
				<text x="4.75" y="373.57" class="st4">23</text>			</g>
			<g id="shape70-170" transform="translate(234.354,-224.362)">
				<title>工作表.70</title>
				<desc>25</desc>
				<rect x="0" y="360.353" width="19.8425" height="19.8425" class="st1"/>
				<text x="4.75" y="373.57" class="st4">25</text>			</g>
			<g id="shape71-173" transform="translate(234.354,-260.929)">
				<title>工作表.71</title>
				<desc>2</desc>
				<rect x="0" y="360.353" width="19.8425" height="19.8425" class="st1"/>
				<text x="7.34" y="373.57" class="st4">2</text>			</g>
			<g id="shape72-176" transform="translate(256.961,-4.96063)">
				<title>工作表.72</title>
				<desc>96</desc>
				<rect x="0" y="360.353" width="22.6772" height="19.8425" class="st1"/>
				<text x="6.17" y="373.57" class="st4">96</text>			</g>
			<g id="shape73-179" transform="translate(258.378,-41.5276)">
				<title>工作表.73</title>
				<desc>‧</desc>
				<rect x="0" y="360.353" width="19.8425" height="19.8425" class="st1"/>
				<text x="4.42" y="373.57" class="st4">‧</text>			</g>
			<g id="shape74-182" transform="translate(258.378,-78.0945)">
				<title>工作表.74</title>
				<desc>1</desc>
				<rect x="0" y="360.353" width="19.8425" height="19.8425" class="st1"/>
				<text x="7.34" y="373.57" class="st4">1</text>			</g>
			<g id="shape75-185" transform="translate(258.378,-114.661)">
				<title>工作表.75</title>
				<desc>3</desc>
				<rect x="0" y="360.353" width="19.8425" height="19.8425" class="st1"/>
				<text x="7.34" y="373.57" class="st4">3</text>			</g>
			<g id="shape76-188" transform="translate(258.378,-151.228)">
				<title>工作表.76</title>
				<desc>19</desc>
				<rect x="0" y="360.353" width="19.8425" height="19.8425" class="st1"/>
				<text x="4.75" y="373.57" class="st4">19</text>			</g>
			<g id="shape77-191" transform="translate(258.378,-187.795)">
				<title>工作表.77</title>
				<desc>34</desc>
				<rect x="0" y="360.353" width="19.8425" height="19.8425" class="st1"/>
				<text x="4.75" y="373.57" class="st4">34</text>			</g>
			<g id="shape78-194" transform="translate(258.378,-224.362)">
				<title>工作表.78</title>
				<desc>29</desc>
				<rect x="0" y="360.353" width="19.8425" height="19.8425" class="st1"/>
				<text x="4.75" y="373.57" class="st4">29</text>			</g>
			<g id="shape79-197" transform="translate(258.378,-260.929)">
				<title>工作表.79</title>
				<desc>10</desc>
				<rect x="0" y="360.353" width="19.8425" height="19.8425" class="st1"/>
				<text x="4.75" y="373.57" class="st4">10</text>			</g>
			<g id="shape80-200" transform="translate(279.567,-4.96063)">
				<title>工作表.80</title>
				<desc>100</desc>
				<rect x="0" y="360.353" width="25.5118" height="19.8425" class="st1"/>
				<text x="5.01" y="373.57" class="st4">100</text>			</g>
			<g id="shape81-203" transform="translate(282.402,-41.5276)">
				<title>工作表.81</title>
				<desc>‧</desc>
				<rect x="0" y="360.353" width="19.8425" height="19.8425" class="st1"/>
				<text x="4.42" y="373.57" class="st4">‧</text>			</g>
			<g id="shape82-206" transform="translate(282.402,-78.0945)">
				<title>工作表.82</title>
				<desc>1</desc>
				<rect x="0" y="360.353" width="19.8425" height="19.8425" class="st1"/>
				<text x="7.34" y="373.57" class="st4">1</text>			</g>
			<g id="shape83-209" transform="translate(282.402,-114.661)">
				<title>工作表.83</title>
				<desc>3</desc>
				<rect x="0" y="360.353" width="19.8425" height="19.8425" class="st1"/>
				<text x="7.34" y="373.57" class="st4">3</text>			</g>
			<g id="shape84-212" transform="translate(282.402,-151.228)">
				<title>工作表.84</title>
				<desc>16</desc>
				<rect x="0" y="360.353" width="19.8425" height="19.8425" class="st1"/>
				<text x="4.75" y="373.57" class="st4">16</text>			</g>
			<g id="shape85-215" transform="translate(282.402,-187.795)">
				<title>工作表.85</title>
				<desc>30</desc>
				<rect x="0" y="360.353" width="19.8425" height="19.8425" class="st1"/>
				<text x="4.75" y="373.57" class="st4">30</text>			</g>
			<g id="shape86-218" transform="translate(282.402,-224.362)">
				<title>工作表.86</title>
				<desc>40</desc>
				<rect x="0" y="360.353" width="19.8425" height="19.8425" class="st1"/>
				<text x="4.75" y="373.57" class="st4">40</text>			</g>
			<g id="shape87-221" transform="translate(282.402,-260.929)">
				<title>工作表.87</title>
				<desc>10</desc>
				<rect x="0" y="360.353" width="19.8425" height="19.8425" class="st1"/>
				<text x="4.75" y="373.57" class="st4">10</text>			</g>
			<g id="shape88-224" transform="translate(303.591,-4.96063)">
				<title>工作表.88</title>
				<desc>108</desc>
				<rect x="0" y="360.353" width="25.5118" height="19.8425" class="st1"/>
				<text x="5.01" y="373.57" class="st4">108</text>			</g>
			<g id="shape89-227" transform="translate(306.425,-41.5276)">
				<title>工作表.89</title>
				<desc>‧</desc>
				<rect x="0" y="360.353" width="19.8425" height="19.8425" class="st1"/>
				<text x="4.42" y="373.57" class="st4">‧</text>			</g>
			<g id="shape90-230" transform="translate(306.425,-78.0945)">
				<title>工作表.90</title>
				<desc>1</desc>
				<rect x="0" y="360.353" width="19.8425" height="19.8425" class="st1"/>
				<text x="7.34" y="373.57" class="st4">1</text>			</g>
			<g id="shape91-233" transform="translate(306.425,-114.661)">
				<title>工作表.91</title>
				<desc>3</desc>
				<rect x="0" y="360.353" width="19.8425" height="19.8425" class="st1"/>
				<text x="7.34" y="373.57" class="st4">3</text>			</g>
			<g id="shape92-236" transform="translate(306.425,-151.228)">
				<title>工作表.92</title>
				<desc>26</desc>
				<rect x="0" y="360.353" width="19.8425" height="19.8425" class="st1"/>
				<text x="4.75" y="373.57" class="st4">26</text>			</g>
			<g id="shape93-239" transform="translate(306.425,-187.795)">
				<title>工作表.93</title>
				<desc>39</desc>
				<rect x="0" y="360.353" width="19.8425" height="19.8425" class="st1"/>
				<text x="4.75" y="373.57" class="st4">39</text>			</g>
			<g id="shape94-242" transform="translate(306.425,-224.362)">
				<title>工作表.94</title>
				<desc>29</desc>
				<rect x="0" y="360.353" width="19.8425" height="19.8425" class="st1"/>
				<text x="4.75" y="373.57" class="st4">29</text>			</g>
			<g id="shape95-245" transform="translate(306.425,-260.929)">
				<title>工作表.95</title>
				<desc>10</desc>
				<rect x="0" y="360.353" width="19.8425" height="19.8425" class="st1"/>
				<text x="4.75" y="373.57" class="st4">10</text>			</g>
			<g id="shape96-248" transform="translate(327.614,-4.96063)">
				<title>工作表.96</title>
				<desc>108</desc>
				<rect x="0" y="360.353" width="25.5118" height="19.8425" class="st1"/>
				<text x="5.01" y="373.57" class="st4">108</text>			</g>
			<g id="shape97-251" transform="translate(330.449,-41.5276)">
				<title>工作表.97</title>
				<desc>‧</desc>
				<rect x="0" y="360.353" width="19.8425" height="19.8425" class="st1"/>
				<text x="4.42" y="373.57" class="st4">‧</text>			</g>
			<g id="shape98-254" transform="translate(330.449,-78.0945)">
				<title>工作表.98</title>
				<desc>1</desc>
				<rect x="0" y="360.353" width="19.8425" height="19.8425" class="st1"/>
				<text x="7.34" y="373.57" class="st4">1</text>			</g>
			<g id="shape99-257" transform="translate(330.449,-114.661)">
				<title>工作表.99</title>
				<desc>3</desc>
				<rect x="0" y="360.353" width="19.8425" height="19.8425" class="st1"/>
				<text x="7.34" y="373.57" class="st4">3</text>			</g>
			<g id="shape100-260" transform="translate(330.449,-151.228)">
				<title>工作表.100</title>
				<desc>26</desc>
				<rect x="0" y="360.353" width="19.8425" height="19.8425" class="st1"/>
				<text x="4.75" y="373.57" class="st4">26</text>			</g>
			<g id="shape101-263" transform="translate(330.449,-187.795)">
				<title>工作表.101</title>
				<desc>39</desc>
				<rect x="0" y="360.353" width="19.8425" height="19.8425" class="st1"/>
				<text x="4.75" y="373.57" class="st4">39</text>			</g>
			<g id="shape102-266" transform="translate(330.449,-224.362)">
				<title>工作表.102</title>
				<desc>29</desc>
				<rect x="0" y="360.353" width="19.8425" height="19.8425" class="st1"/>
				<text x="4.75" y="373.57" class="st4">29</text>			</g>
			<g id="shape103-269" transform="translate(330.449,-260.929)">
				<title>工作表.103</title>
				<desc>10</desc>
				<rect x="0" y="360.353" width="19.8425" height="19.8425" class="st1"/>
				<text x="4.75" y="373.57" class="st4">10</text>			</g>
			<g id="shape104-272" transform="translate(351.638,-4.96063)">
				<title>工作表.104</title>
				<desc>108</desc>
				<rect x="0" y="360.353" width="25.5118" height="19.8425" class="st1"/>
				<text x="5.01" y="373.57" class="st4">108</text>			</g>
			<g id="shape105-275" transform="translate(354.472,-41.5276)">
				<title>工作表.105</title>
				<desc>‧</desc>
				<rect x="0" y="360.353" width="19.8425" height="19.8425" class="st1"/>
				<text x="4.42" y="373.57" class="st4">‧</text>			</g>
			<g id="shape106-278" transform="translate(354.472,-78.0945)">
				<title>工作表.106</title>
				<desc>1</desc>
				<rect x="0" y="360.353" width="19.8425" height="19.8425" class="st1"/>
				<text x="7.34" y="373.57" class="st4">1</text>			</g>
			<g id="shape107-281" transform="translate(354.472,-114.661)">
				<title>工作表.107</title>
				<desc>3</desc>
				<rect x="0" y="360.353" width="19.8425" height="19.8425" class="st1"/>
				<text x="7.34" y="373.57" class="st4">3</text>			</g>
			<g id="shape108-284" transform="translate(354.472,-151.228)">
				<title>工作表.108</title>
				<desc>21</desc>
				<rect x="0" y="360.353" width="19.8425" height="19.8425" class="st1"/>
				<text x="4.75" y="373.57" class="st4">21</text>			</g>
			<g id="shape109-287" transform="translate(354.472,-187.795)">
				<title>工作表.109</title>
				<desc>27</desc>
				<rect x="0" y="360.353" width="19.8425" height="19.8425" class="st1"/>
				<text x="4.75" y="373.57" class="st4">27</text>			</g>
			<g id="shape110-290" transform="translate(354.472,-224.362)">
				<title>工作表.110</title>
				<desc>46</desc>
				<rect x="0" y="360.353" width="19.8425" height="19.8425" class="st1"/>
				<text x="4.75" y="373.57" class="st4">46</text>			</g>
			<g id="shape111-293" transform="translate(354.472,-260.929)">
				<title>工作表.111</title>
				<desc>10</desc>
				<rect x="0" y="360.353" width="19.8425" height="19.8425" class="st1"/>
				<text x="4.75" y="373.57" class="st4">10</text>			</g>
			<g id="shape112-296" transform="translate(375.661,-4.96063)">
				<title>工作表.112</title>
				<desc>105</desc>
				<rect x="0" y="360.353" width="25.5118" height="19.8425" class="st1"/>
				<text x="5.01" y="373.57" class="st4">105</text>			</g>
			<g id="shape113-299" transform="translate(378.496,-41.5276)">
				<title>工作表.113</title>
				<desc>‧</desc>
				<rect x="0" y="360.353" width="19.8425" height="19.8425" class="st1"/>
				<text x="4.42" y="373.57" class="st4">‧</text>			</g>
			<g id="shape114-302" transform="translate(378.496,-78.0945)">
				<title>工作表.114</title>
				<desc>1</desc>
				<rect x="0" y="360.353" width="19.8425" height="19.8425" class="st1"/>
				<text x="7.34" y="373.57" class="st4">1</text>			</g>
			<g id="shape115-305" transform="translate(378.496,-114.661)">
				<title>工作表.115</title>
				<desc>3</desc>
				<rect x="0" y="360.353" width="19.8425" height="19.8425" class="st1"/>
				<text x="7.34" y="373.57" class="st4">3</text>			</g>
			<g id="shape116-308" transform="translate(378.496,-151.228)">
				<title>工作表.116</title>
				<desc>25</desc>
				<rect x="0" y="360.353" width="19.8425" height="19.8425" class="st1"/>
				<text x="4.75" y="373.57" class="st4">25</text>			</g>
			<g id="shape117-311" transform="translate(378.496,-187.795)">
				<title>工作表.117</title>
				<desc>37</desc>
				<rect x="0" y="360.353" width="19.8425" height="19.8425" class="st1"/>
				<text x="4.75" y="373.57" class="st4">37</text>			</g>
			<g id="shape118-314" transform="translate(378.496,-224.362)">
				<title>工作表.118</title>
				<desc>29</desc>
				<rect x="0" y="360.353" width="19.8425" height="19.8425" class="st1"/>
				<text x="4.75" y="373.57" class="st4">29</text>			</g>
			<g id="shape119-317" transform="translate(378.496,-260.929)">
				<title>工作表.119</title>
				<desc>10</desc>
				<rect x="0" y="360.353" width="19.8425" height="19.8425" class="st1"/>
				<text x="4.75" y="373.57" class="st4">10</text>			</g>
			<g id="shape120-320" transform="translate(400.535,-4.96063)">
				<title>工作表.120</title>
				<desc>99</desc>
				<rect x="0" y="360.353" width="22.6772" height="19.8425" class="st1"/>
				<text x="6.17" y="373.57" class="st4">99</text>			</g>
			<g id="shape121-323" transform="translate(401.953,-41.5276)">
				<title>工作表.121</title>
				<desc>‧</desc>
				<rect x="0" y="360.353" width="19.8425" height="19.8425" class="st1"/>
				<text x="4.42" y="373.57" class="st4">‧</text>			</g>
			<g id="shape122-326" transform="translate(401.953,-78.0945)">
				<title>工作表.122</title>
				<desc>1</desc>
				<rect x="0" y="360.353" width="19.8425" height="19.8425" class="st1"/>
				<text x="7.34" y="373.57" class="st4">1</text>			</g>
			<g id="shape123-329" transform="translate(401.953,-114.661)">
				<title>工作表.123</title>
				<desc>3</desc>
				<rect x="0" y="360.353" width="19.8425" height="19.8425" class="st1"/>
				<text x="7.34" y="373.57" class="st4">3</text>			</g>
			<g id="shape124-332" transform="translate(401.953,-151.228)">
				<title>工作表.124</title>
				<desc>22</desc>
				<rect x="0" y="360.353" width="19.8425" height="19.8425" class="st1"/>
				<text x="4.75" y="373.57" class="st4">22</text>			</g>
			<g id="shape125-335" transform="translate(401.953,-187.795)">
				<title>工作表.125</title>
				<desc>35</desc>
				<rect x="0" y="360.353" width="19.8425" height="19.8425" class="st1"/>
				<text x="4.75" y="373.57" class="st4">35</text>			</g>
			<g id="shape126-338" transform="translate(401.953,-224.362)">
				<title>工作表.126</title>
				<desc>26</desc>
				<rect x="0" y="360.353" width="19.8425" height="19.8425" class="st1"/>
				<text x="4.75" y="373.57" class="st4">26</text>			</g>
			<g id="shape127-341" transform="translate(401.953,-260.929)">
				<title>工作表.127</title>
				<desc>12</desc>
				<rect x="0" y="360.353" width="19.8425" height="19.8425" class="st1"/>
				<text x="4.75" y="373.57" class="st4">12</text>			</g>
			<g id="shape128-344" transform="translate(423.709,-4.96063)">
				<title>工作表.128</title>
				<desc>107</desc>
				<rect x="0" y="360.353" width="25.5118" height="19.8425" class="st1"/>
				<text x="5.01" y="373.57" class="st4">107</text>			</g>
			<g id="shape129-347" transform="translate(426.543,-41.5276)">
				<title>工作表.129</title>
				<desc>‧</desc>
				<rect x="0" y="360.353" width="19.8425" height="19.8425" class="st1"/>
				<text x="4.42" y="373.57" class="st4">‧</text>			</g>
			<g id="shape130-350" transform="translate(426.543,-78.0945)">
				<title>工作表.130</title>
				<desc>1</desc>
				<rect x="0" y="360.353" width="19.8425" height="19.8425" class="st1"/>
				<text x="7.34" y="373.57" class="st4">1</text>			</g>
			<g id="shape131-353" transform="translate(426.543,-114.661)">
				<title>工作表.131</title>
				<desc>3</desc>
				<rect x="0" y="360.353" width="19.8425" height="19.8425" class="st1"/>
				<text x="7.34" y="373.57" class="st4">3</text>			</g>
			<g id="shape132-356" transform="translate(426.543,-151.228)">
				<title>工作表.132</title>
				<desc>19</desc>
				<rect x="0" y="360.353" width="19.8425" height="19.8425" class="st1"/>
				<text x="4.75" y="373.57" class="st4">19</text>			</g>
			<g id="shape133-359" transform="translate(426.543,-187.795)">
				<title>工作表.133</title>
				<desc>28</desc>
				<rect x="0" y="360.353" width="19.8425" height="19.8425" class="st1"/>
				<text x="4.75" y="373.57" class="st4">28</text>			</g>
			<g id="shape134-362" transform="translate(426.543,-224.362)">
				<title>工作表.134</title>
				<desc>40</desc>
				<rect x="0" y="360.353" width="19.8425" height="19.8425" class="st1"/>
				<text x="4.75" y="373.57" class="st4">40</text>			</g>
			<g id="shape135-365" transform="translate(426.543,-260.929)">
				<title>工作表.135</title>
				<desc>16</desc>
				<rect x="0" y="360.353" width="19.8425" height="19.8425" class="st1"/>
				<text x="4.75" y="373.57" class="st4">16</text>			</g>
			<g id="shape136-368" transform="translate(447.732,-4.96063)">
				<title>工作表.136</title>
				<desc>107</desc>
				<rect x="0" y="360.353" width="25.5118" height="19.8425" class="st1"/>
				<text x="5.01" y="373.57" class="st4">107</text>			</g>
			<g id="shape137-371" transform="translate(450.567,-41.5276)">
				<title>工作表.137</title>
				<desc>‧</desc>
				<rect x="0" y="360.353" width="19.8425" height="19.8425" class="st1"/>
				<text x="4.42" y="373.57" class="st4">‧</text>			</g>
			<g id="shape138-374" transform="translate(450.567,-78.0945)">
				<title>工作表.138</title>
				<desc>1</desc>
				<rect x="0" y="360.353" width="19.8425" height="19.8425" class="st1"/>
				<text x="7.34" y="373.57" class="st4">1</text>			</g>
			<g id="shape139-377" transform="translate(450.567,-114.661)">
				<title>工作表.139</title>
				<desc>3</desc>
				<rect x="0" y="360.353" width="19.8425" height="19.8425" class="st1"/>
				<text x="7.34" y="373.57" class="st4">3</text>			</g>
			<g id="shape140-380" transform="translate(450.567,-151.228)">
				<title>工作表.140</title>
				<desc>19</desc>
				<rect x="0" y="360.353" width="19.8425" height="19.8425" class="st1"/>
				<text x="4.75" y="373.57" class="st4">19</text>			</g>
			<g id="shape141-383" transform="translate(450.567,-187.795)">
				<title>工作表.141</title>
				<desc>27</desc>
				<rect x="0" y="360.353" width="19.8425" height="19.8425" class="st1"/>
				<text x="4.75" y="373.57" class="st4">27</text>			</g>
			<g id="shape142-386" transform="translate(450.567,-224.362)">
				<title>工作表.142</title>
				<desc>41</desc>
				<rect x="0" y="360.353" width="19.8425" height="19.8425" class="st1"/>
				<text x="4.75" y="373.57" class="st4">41</text>			</g>
			<g id="shape143-389" transform="translate(450.567,-260.929)">
				<title>工作表.143</title>
				<desc>16</desc>
				<rect x="0" y="360.353" width="19.8425" height="19.8425" class="st1"/>
				<text x="4.75" y="373.57" class="st4">16</text>			</g>
			<g id="shape144-392" transform="translate(471.756,-4.96063)">
				<title>工作表.144</title>
				<desc>113</desc>
				<rect x="0" y="360.353" width="25.5118" height="19.8425" class="st1"/>
				<text x="5.01" y="373.57" class="st4">113</text>			</g>
			<g id="shape145-395" transform="translate(474.591,-41.5276)">
				<title>工作表.145</title>
				<desc>‧</desc>
				<rect x="0" y="360.353" width="19.8425" height="19.8425" class="st1"/>
				<text x="4.42" y="373.57" class="st4">‧</text>			</g>
			<g id="shape146-398" transform="translate(474.591,-78.0945)">
				<title>工作表.146</title>
				<desc>1</desc>
				<rect x="0" y="360.353" width="19.8425" height="19.8425" class="st1"/>
				<text x="7.34" y="373.57" class="st4">1</text>			</g>
			<g id="shape147-401" transform="translate(474.591,-114.661)">
				<title>工作表.147</title>
				<desc>3</desc>
				<rect x="0" y="360.353" width="19.8425" height="19.8425" class="st1"/>
				<text x="7.34" y="373.57" class="st4">3</text>			</g>
			<g id="shape148-404" transform="translate(474.591,-151.228)">
				<title>工作表.148</title>
				<desc>21</desc>
				<rect x="0" y="360.353" width="19.8425" height="19.8425" class="st1"/>
				<text x="4.75" y="373.57" class="st4">21</text>			</g>
			<g id="shape149-407" transform="translate(474.591,-187.795)">
				<title>工作表.149</title>
				<desc>27</desc>
				<rect x="0" y="360.353" width="19.8425" height="19.8425" class="st1"/>
				<text x="4.75" y="373.57" class="st4">27</text>			</g>
			<g id="shape150-410" transform="translate(474.591,-224.362)">
				<title>工作表.150</title>
				<desc>45</desc>
				<rect x="0" y="360.353" width="19.8425" height="19.8425" class="st1"/>
				<text x="4.75" y="373.57" class="st4">45</text>			</g>
			<g id="shape151-413" transform="translate(474.591,-260.929)">
				<title>工作表.151</title>
				<desc>16</desc>
				<rect x="0" y="360.353" width="19.8425" height="19.8425" class="st1"/>
				<text x="4.75" y="373.57" class="st4">16</text>			</g>
			<g id="shape152-416" transform="translate(495.78,-4.96063)">
				<title>工作表.152</title>
				<desc>113</desc>
				<rect x="0" y="360.353" width="25.5118" height="19.8425" class="st1"/>
				<text x="5.01" y="373.57" class="st4">113</text>			</g>
			<g id="shape153-419" transform="translate(498.614,-41.5276)">
				<title>工作表.153</title>
				<desc>‧</desc>
				<rect x="0" y="360.353" width="19.8425" height="19.8425" class="st1"/>
				<text x="4.42" y="373.57" class="st4">‧</text>			</g>
			<g id="shape154-422" transform="translate(498.614,-78.0945)">
				<title>工作表.154</title>
				<desc>1</desc>
				<rect x="0" y="360.353" width="19.8425" height="19.8425" class="st1"/>
				<text x="7.34" y="373.57" class="st4">1</text>			</g>
			<g id="shape155-425" transform="translate(498.614,-114.661)">
				<title>工作表.155</title>
				<desc>3</desc>
				<rect x="0" y="360.353" width="19.8425" height="19.8425" class="st1"/>
				<text x="7.34" y="373.57" class="st4">3</text>			</g>
			<g id="shape156-428" transform="translate(498.614,-151.228)">
				<title>工作表.156</title>
				<desc>21</desc>
				<rect x="0" y="360.353" width="19.8425" height="19.8425" class="st1"/>
				<text x="4.75" y="373.57" class="st4">21</text>			</g>
			<g id="shape157-431" transform="translate(498.614,-187.795)">
				<title>工作表.157</title>
				<desc>27</desc>
				<rect x="0" y="360.353" width="19.8425" height="19.8425" class="st1"/>
				<text x="4.75" y="373.57" class="st4">27</text>			</g>
			<g id="shape158-434" transform="translate(498.614,-224.362)">
				<title>工作表.158</title>
				<desc>45</desc>
				<rect x="0" y="360.353" width="19.8425" height="19.8425" class="st1"/>
				<text x="4.75" y="373.57" class="st4">45</text>			</g>
			<g id="shape159-437" transform="translate(498.614,-260.929)">
				<title>工作表.159</title>
				<desc>16</desc>
				<rect x="0" y="360.353" width="19.8425" height="19.8425" class="st1"/>
				<text x="4.75" y="373.57" class="st4">16</text>			</g>
			<g id="shape160-440" transform="translate(519.803,-4.96063)">
				<title>工作表.160</title>
				<desc>113</desc>
				<rect x="0" y="360.353" width="25.5118" height="19.8425" class="st1"/>
				<text x="5.01" y="373.57" class="st4">113</text>			</g>
			<g id="shape161-443" transform="translate(522.638,-41.5276)">
				<title>工作表.161</title>
				<desc>‧</desc>
				<rect x="0" y="360.353" width="19.8425" height="19.8425" class="st1"/>
				<text x="4.42" y="373.57" class="st4">‧</text>			</g>
			<g id="shape162-446" transform="translate(522.638,-78.0945)">
				<title>工作表.162</title>
				<desc>1</desc>
				<rect x="0" y="360.353" width="19.8425" height="19.8425" class="st1"/>
				<text x="7.34" y="373.57" class="st4">1</text>			</g>
			<g id="shape163-449" transform="translate(522.638,-114.661)">
				<title>工作表.163</title>
				<desc>3</desc>
				<rect x="0" y="360.353" width="19.8425" height="19.8425" class="st1"/>
				<text x="7.34" y="373.57" class="st4">3</text>			</g>
			<g id="shape164-452" transform="translate(522.638,-151.228)">
				<title>工作表.164</title>
				<desc>20</desc>
				<rect x="0" y="360.353" width="19.8425" height="19.8425" class="st1"/>
				<text x="4.75" y="373.57" class="st4">20</text>			</g>
			<g id="shape165-455" transform="translate(522.638,-187.795)">
				<title>工作表.165</title>
				<desc>26</desc>
				<rect x="0" y="360.353" width="19.8425" height="19.8425" class="st1"/>
				<text x="4.75" y="373.57" class="st4">26</text>			</g>
			<g id="shape166-458" transform="translate(522.638,-224.362)">
				<title>工作表.166</title>
				<desc>47</desc>
				<rect x="0" y="360.353" width="19.8425" height="19.8425" class="st1"/>
				<text x="4.75" y="373.57" class="st4">47</text>			</g>
			<g id="shape167-461" transform="translate(522.638,-260.929)">
				<title>工作表.167</title>
				<desc>16</desc>
				<rect x="0" y="360.353" width="19.8425" height="19.8425" class="st1"/>
				<text x="4.75" y="373.57" class="st4">16</text>			</g>
		</g>
	</g>
</svg>
