<?xml version="1.0" encoding="UTF-8" standalone="no"?>
<!DOCTYPE svg PUBLIC "-//W3C//DTD SVG 1.1//EN" "http://www.w3.org/Graphics/SVG/1.1/DTD/svg11.dtd">
<!-- 由 Microsoft Visio, SVG Export 產生 y35.0380-h.svg 頁-1 -->
<svg xmlns="http://www.w3.org/2000/svg" xmlns:xlink="http://www.w3.org/1999/xlink" xmlns:ev="http://www.w3.org/2001/xml-events"
		width="8.34506in" height="7.45924in" viewBox="0 0 600.844 537.065" xml:space="preserve" color-interpolation-filters="sRGB"
		class="st4">
	<style type="text/css">
	<![CDATA[
		.st1 {fill:none;stroke:none;stroke-linecap:round;stroke-linejoin:round;stroke-width:0.75}
		.st2 {fill:#000000;font-family:新細明體;font-size:1.33333em}
		.st3 {fill:#000000;font-family:新細明體;font-size:1.00001em}
		.st4 {fill:none;fill-rule:evenodd;font-size:12px;overflow:visible;stroke-linecap:square;stroke-miterlimit:3}
	]]>
	</style>

	<g>
		<title>頁-1</title>
		<g id="group102-1" transform="translate(0.375,-0.375)">
			<title>工作表.102</title>
			<g id="shape1-2" transform="translate(384.094,-36.5669)">
				<title>工作表.1</title>
				<desc>　先作比丘清淨持戒如法還戒</desc>
				<rect x="0" y="512.687" width="216" height="24.378" class="st1"/>
				<text x="20" y="529.68" class="st2">先作比丘清淨持戒如法還戒</text>			</g>
			<g id="shape2-5" transform="translate(-4.79616E-14,-511.937)">
				<title>工作表.2</title>
				<desc>〔銅鍱律〕</desc>
				<rect x="0" y="512.687" width="88.1575" height="24.378" class="st1"/>
				<text x="4.08" y="529.68" class="st2">〔銅鍱律〕</text>			</g>
			<g id="shape3-8" transform="translate(127.984,-511.937)">
				<title>工作表.3</title>
				<desc>〔四分律〕</desc>
				<rect x="0" y="512.687" width="88.1575" height="24.378" class="st1"/>
				<text x="4.08" y="529.68" class="st2">〔四分律〕</text>			</g>
			<g id="shape4-11" transform="translate(255.969,-511.937)">
				<title>工作表.4</title>
				<desc>〔五分律〕</desc>
				<rect x="0" y="512.687" width="88.1575" height="24.378" class="st1"/>
				<text x="4.08" y="529.68" class="st2">〔五分律〕</text>			</g>
			<g id="shape5-14" transform="translate(384.094,-511.937)">
				<title>工作表.5</title>
				<desc>〔十誦律〕</desc>
				<rect x="0" y="512.687" width="88.1575" height="24.378" class="st1"/>
				<text x="4.08" y="529.68" class="st2">〔十誦律〕</text>			</g>
			<g id="shape6-17" transform="translate(2.67786E-13,-475.37)">
				<title>工作表.6</title>
				<desc>　重病</desc>
				<rect x="0" y="512.687" width="56.126" height="24.378" class="st1"/>
				<text x="20.06" y="529.68" class="st2">重病</text>			</g>
			<g id="shape7-20" transform="translate(1.09912E-13,-475.37)">
				<title>工作表.7</title>
				<desc>1</desc>
				<rect x="0" y="512.687" width="24.378" height="24.378" class="st1"/>
				<text x="9.37" y="528.48" class="st3">1</text>			</g>
			<g id="shape8-23" transform="translate(127.984,-475.37)">
				<title>工作表.8</title>
				<desc>　重病</desc>
				<rect x="0" y="512.687" width="56.126" height="24.378" class="st1"/>
				<text x="20.06" y="529.68" class="st2">重病</text>			</g>
			<g id="shape9-26" transform="translate(127.984,-475.37)">
				<title>工作表.9</title>
				<desc>1 0</desc>
				<rect x="0" y="512.687" width="24.378" height="24.378" class="st1"/>
				<text x="4.99" y="528.48" class="st3">1 0</text>			</g>
			<g id="shape10-29" transform="translate(255.969,-475.37)">
				<title>工作表.10</title>
				<desc>　重病</desc>
				<rect x="0" y="512.687" width="56.126" height="24.378" class="st1"/>
				<text x="20.06" y="529.68" class="st2">重病</text>			</g>
			<g id="shape11-32" transform="translate(255.969,-475.37)">
				<title>工作表.11</title>
				<desc>1</desc>
				<rect x="0" y="512.687" width="24.378" height="24.378" class="st1"/>
				<text x="9.37" y="528.48" class="st3">1</text>			</g>
			<g id="shape12-35" transform="translate(384.094,-475.37)">
				<title>工作表.12</title>
				<desc>　重病</desc>
				<rect x="0" y="512.687" width="56.126" height="24.378" class="st1"/>
				<text x="20.06" y="529.68" class="st2">重病</text>			</g>
			<g id="shape13-38" transform="translate(384.094,-475.37)">
				<title>工作表.13</title>
				<desc>1 1</desc>
				<rect x="0" y="512.687" width="24.378" height="24.378" class="st1"/>
				<text x="4.99" y="528.48" class="st3">1 1</text>			</g>
			<g id="shape14-41" transform="translate(3.43725E-13,-438.803)">
				<title>工作表.14</title>
				<desc>　人</desc>
				<rect x="0" y="512.687" width="40.252" height="24.378" class="st1"/>
				<text x="20.13" y="529.68" class="st2">人</text>			</g>
			<g id="shape15-44" transform="translate(2.3781E-13,-438.803)">
				<title>工作表.15</title>
				<desc>2</desc>
				<rect x="0" y="512.687" width="24.378" height="24.378" class="st1"/>
				<text x="9.37" y="528.48" class="st3">2</text>			</g>
			<g id="shape16-47" transform="translate(255.969,-438.803)">
				<title>工作表.16</title>
				<desc>　人</desc>
				<rect x="0" y="512.687" width="40.252" height="24.378" class="st1"/>
				<text x="20.13" y="529.68" class="st2">人</text>			</g>
			<g id="shape17-50" transform="translate(255.969,-438.803)">
				<title>工作表.17</title>
				<desc>6</desc>
				<rect x="0" y="512.687" width="24.378" height="24.378" class="st1"/>
				<text x="9.37" y="528.48" class="st3">6</text>			</g>
			<g id="shape18-53" transform="translate(4.7562E-13,-402.236)">
				<title>工作表.18</title>
				<desc>　男</desc>
				<rect x="0" y="512.687" width="40.252" height="24.378" class="st1"/>
				<text x="20.13" y="529.68" class="st2">男</text>			</g>
			<g id="shape19-56" transform="translate(2.3781E-13,-402.236)">
				<title>工作表.19</title>
				<desc>3</desc>
				<rect x="0" y="512.687" width="24.378" height="24.378" class="st1"/>
				<text x="9.37" y="528.48" class="st3">3</text>			</g>
			<g id="shape20-59" transform="translate(127.984,-402.236)">
				<title>工作表.20</title>
				<desc>　丈夫</desc>
				<rect x="0" y="512.687" width="56.126" height="24.378" class="st1"/>
				<text x="20.06" y="529.68" class="st2">丈夫</text>			</g>
			<g id="shape21-62" transform="translate(127.984,-402.236)">
				<title>工作表.21</title>
				<desc>9</desc>
				<rect x="0" y="512.687" width="24.378" height="24.378" class="st1"/>
				<text x="9.37" y="528.48" class="st3">9</text>			</g>
			<g id="shape22-65" transform="translate(255.969,-402.236)">
				<title>工作表.22</title>
				<desc>　丈夫</desc>
				<rect x="0" y="512.687" width="56.126" height="24.378" class="st1"/>
				<text x="20.06" y="529.68" class="st2">丈夫</text>			</g>
			<g id="shape23-68" transform="translate(255.969,-402.236)">
				<title>工作表.23</title>
				<desc>5</desc>
				<rect x="0" y="512.687" width="24.378" height="24.378" class="st1"/>
				<text x="9.37" y="528.48" class="st3">5</text>			</g>
			<g id="shape24-71" transform="translate(384.094,-402.236)">
				<title>工作表.24</title>
				<desc>　丈夫</desc>
				<rect x="0" y="512.687" width="56.126" height="24.378" class="st1"/>
				<text x="20.06" y="529.68" class="st2">丈夫</text>			</g>
			<g id="shape25-74" transform="translate(384.094,-402.236)">
				<title>工作表.25</title>
				<desc>1</desc>
				<rect x="0" y="512.687" width="24.378" height="24.378" class="st1"/>
				<text x="9.37" y="528.48" class="st3">1</text>			</g>
			<g id="shape26-77" transform="translate(5.27578E-13,-365.669)">
				<title>工作表.26</title>
				<desc>　自在</desc>
				<rect x="0" y="512.687" width="56.126" height="24.378" class="st1"/>
				<text x="20.06" y="529.68" class="st2">自在</text>			</g>
			<g id="shape27-80" transform="translate(4.97602E-13,-365.669)">
				<title>工作表.27</title>
				<desc>4</desc>
				<rect x="0" y="512.687" width="24.378" height="24.378" class="st1"/>
				<text x="9.37" y="528.48" class="st3">4</text>			</g>
			<g id="shape28-83" transform="translate(127.984,-365.669)">
				<title>工作表.28</title>
				<desc>　奴</desc>
				<rect x="0" y="512.687" width="40.252" height="24.378" class="st1"/>
				<text x="20.13" y="529.68" class="st2">奴</text>			</g>
			<g id="shape29-86" transform="translate(127.984,-365.669)">
				<title>工作表.29</title>
				<desc>7</desc>
				<rect x="0" y="512.687" width="24.378" height="24.378" class="st1"/>
				<text x="9.37" y="528.48" class="st3">7</text>			</g>
			<g id="shape30-89" transform="translate(255.969,-365.669)">
				<title>工作表.30</title>
				<desc>　奴</desc>
				<rect x="0" y="512.687" width="40.252" height="24.378" class="st1"/>
				<text x="20.13" y="529.68" class="st2">奴</text>			</g>
			<g id="shape31-92" transform="translate(255.969,-365.669)">
				<title>工作表.31</title>
				<desc>4</desc>
				<rect x="0" y="512.687" width="24.378" height="24.378" class="st1"/>
				<text x="9.37" y="528.48" class="st3">4</text>			</g>
			<g id="shape32-95" transform="translate(384.094,-365.669)">
				<title>工作表.32</title>
				<desc>　奴　客作　買得　破得</desc>
				<rect x="0" y="512.687" width="184.252" height="24.378" class="st1"/>
				<text x="20.13" y="529.68" class="st2">奴　客作　買得　破得</text>			</g>
			<g id="shape33-98" transform="translate(384.094,-365.669)">
				<title>工作表.33</title>
				<desc>3</desc>
				<rect x="0" y="512.687" width="24.378" height="24.378" class="st1"/>
				<text x="9.37" y="528.48" class="st3">3</text>			</g>
			<g id="shape34-101" transform="translate(7.79377E-13,-329.102)">
				<title>工作表.34</title>
				<desc>　負債</desc>
				<rect x="0" y="512.687" width="56.126" height="24.378" class="st1"/>
				<text x="20.06" y="529.68" class="st2">負債</text>			</g>
			<g id="shape35-104" transform="translate(6.27498E-13,-329.102)">
				<title>工作表.35</title>
				<desc>5</desc>
				<rect x="0" y="512.687" width="24.378" height="24.378" class="st1"/>
				<text x="9.37" y="528.48" class="st3">5</text>			</g>
			<g id="shape36-107" transform="translate(127.984,-329.102)">
				<title>工作表.36</title>
				<desc>　負債</desc>
				<rect x="0" y="512.687" width="56.126" height="24.378" class="st1"/>
				<text x="20.06" y="529.68" class="st2">負債</text>			</g>
			<g id="shape37-110" transform="translate(127.984,-329.102)">
				<title>工作表.37</title>
				<desc>6</desc>
				<rect x="0" y="512.687" width="24.378" height="24.378" class="st1"/>
				<text x="9.37" y="528.48" class="st3">6</text>			</g>
			<g id="shape38-113" transform="translate(255.969,-329.102)">
				<title>工作表.38</title>
				<desc>　負債</desc>
				<rect x="0" y="512.687" width="56.126" height="24.378" class="st1"/>
				<text x="20.06" y="529.68" class="st2">負債</text>			</g>
			<g id="shape39-116" transform="translate(255.969,-329.102)">
				<title>工作表.39</title>
				<desc>2</desc>
				<rect x="0" y="512.687" width="24.378" height="24.378" class="st1"/>
				<text x="9.37" y="528.48" class="st3">2</text>			</g>
			<g id="shape40-119" transform="translate(384.094,-329.102)">
				<title>工作表.40</title>
				<desc>　負債</desc>
				<rect x="0" y="512.687" width="56.126" height="24.378" class="st1"/>
				<text x="20.06" y="529.68" class="st2">負債</text>			</g>
			<g id="shape41-122" transform="translate(384.094,-329.102)">
				<title>工作表.41</title>
				<desc>1 0</desc>
				<rect x="0" y="512.687" width="24.378" height="24.378" class="st1"/>
				<text x="4.99" y="528.48" class="st3">1 0</text>			</g>
			<g id="shape42-125" transform="translate(7.79377E-13,-292.535)">
				<title>工作表.42</title>
				<desc>　王臣</desc>
				<rect x="0" y="512.687" width="56.126" height="24.378" class="st1"/>
				<text x="20.06" y="529.68" class="st2">王臣</text>			</g>
			<g id="shape43-128" transform="translate(1.00919E-12,-292.535)">
				<title>工作表.43</title>
				<desc>6</desc>
				<rect x="0" y="512.687" width="24.378" height="24.378" class="st1"/>
				<text x="9.37" y="528.48" class="st3">6</text>			</g>
			<g id="shape44-131" transform="translate(127.984,-292.535)">
				<title>工作表.44</title>
				<desc>　官人</desc>
				<rect x="0" y="512.687" width="56.126" height="24.378" class="st1"/>
				<text x="20.06" y="529.68" class="st2">官人</text>			</g>
			<g id="shape45-134" transform="translate(127.984,-292.535)">
				<title>工作表.45</title>
				<desc>8</desc>
				<rect x="0" y="512.687" width="24.378" height="24.378" class="st1"/>
				<text x="9.37" y="528.48" class="st3">8</text>			</g>
			<g id="shape46-137" transform="translate(255.969,-292.535)">
				<title>工作表.46</title>
				<desc>　官人</desc>
				<rect x="0" y="512.687" width="56.126" height="24.378" class="st1"/>
				<text x="20.06" y="529.68" class="st2">官人</text>			</g>
			<g id="shape47-140" transform="translate(255.969,-292.535)">
				<title>工作表.47</title>
				<desc>3</desc>
				<rect x="0" y="512.687" width="24.378" height="24.378" class="st1"/>
				<text x="9.37" y="528.48" class="st3">3</text>			</g>
			<g id="shape48-143" transform="translate(384.094,-292.535)">
				<title>工作表.48</title>
				<desc>　官人　犯官事　陰謀王家</desc>
				<rect x="0" y="512.687" width="200.126" height="24.378" class="st1"/>
				<text x="20.06" y="529.68" class="st2">官人　犯官事　陰謀王家</text>			</g>
			<g id="shape49-146" transform="translate(384.094,-292.535)">
				<title>工作表.49</title>
				<desc>7</desc>
				<rect x="0" y="512.687" width="24.378" height="24.378" class="st1"/>
				<text x="9.37" y="528.48" class="st3">7</text>			</g>
			<g id="shape50-149" transform="translate(415.843,-365.669)">
				<title>工作表.50</title>
				<desc>4</desc>
				<rect x="0" y="512.687" width="24.378" height="24.378" class="st1"/>
				<text x="9.37" y="528.48" class="st3">4</text>			</g>
			<g id="shape51-152" transform="translate(432,-292.535)">
				<title>工作表.51</title>
				<desc>8</desc>
				<rect x="0" y="512.687" width="24.378" height="24.378" class="st1"/>
				<text x="9.37" y="528.48" class="st3">8</text>			</g>
			<g id="shape52-155" transform="translate(464.031,-365.669)">
				<title>工作表.52</title>
				<desc>5</desc>
				<rect x="0" y="512.687" width="24.378" height="24.378" class="st1"/>
				<text x="9.37" y="528.48" class="st3">5</text>			</g>
			<g id="shape53-158" transform="translate(496.063,-292.535)">
				<title>工作表.53</title>
				<desc>9</desc>
				<rect x="0" y="512.687" width="24.378" height="24.378" class="st1"/>
				<text x="9.37" y="528.48" class="st3">9</text>			</g>
			<g id="shape54-161" transform="translate(511.937,-365.669)">
				<title>工作表.54</title>
				<desc>6</desc>
				<rect x="0" y="512.687" width="24.378" height="24.378" class="st1"/>
				<text x="9.37" y="528.48" class="st3">6</text>			</g>
			<g id="shape55-164" transform="translate(1.02318E-12,-255.969)">
				<title>工作表.55</title>
				<desc>　父母許</desc>
				<rect x="0" y="512.687" width="72" height="24.378" class="st1"/>
				<text x="20" y="529.68" class="st2">父母許</text>			</g>
			<g id="shape56-167" transform="translate(8.79297E-13,-255.969)">
				<title>工作表.56</title>
				<desc>7</desc>
				<rect x="0" y="512.687" width="24.378" height="24.378" class="st1"/>
				<text x="9.37" y="528.48" class="st3">7</text>			</g>
			<g id="shape57-170" transform="translate(127.984,-255.969)">
				<title>工作表.57</title>
				<desc>　父母聽</desc>
				<rect x="0" y="512.687" width="72" height="24.378" class="st1"/>
				<text x="20" y="529.68" class="st2">父母聽</text>			</g>
			<g id="shape58-173" transform="translate(127.984,-255.969)">
				<title>工作表.58</title>
				<desc>5</desc>
				<rect x="0" y="512.687" width="24.378" height="24.378" class="st1"/>
				<text x="9.37" y="528.48" class="st3">5</text>			</g>
			<g id="shape59-176" transform="translate(255.969,-255.969)">
				<title>工作表.59</title>
				<desc>　父母聽</desc>
				<rect x="0" y="512.687" width="72" height="24.378" class="st1"/>
				<text x="20" y="529.68" class="st2">父母聽</text>			</g>
			<g id="shape60-179" transform="translate(255.969,-255.969)">
				<title>工作表.60</title>
				<desc>1 3</desc>
				<rect x="0" y="512.687" width="24.378" height="24.378" class="st1"/>
				<text x="4.99" y="528.48" class="st3">1 3</text>			</g>
			<g id="shape61-182" transform="translate(384.094,-255.969)">
				<title>工作表.61</title>
				<desc>　父母聽</desc>
				<rect x="0" y="512.687" width="72" height="24.378" class="st1"/>
				<text x="20" y="529.68" class="st2">父母聽</text>			</g>
			<g id="shape62-185" transform="translate(384.094,-255.969)">
				<title>工作表.62</title>
				<desc>1 2</desc>
				<rect x="0" y="512.687" width="24.378" height="24.378" class="st1"/>
				<text x="4.99" y="528.48" class="st3">1 2</text>			</g>
			<g id="shape63-188" transform="translate(1.23102E-12,-219.402)">
				<title>工作表.63</title>
				<desc>　年滿二十</desc>
				<rect x="0" y="512.687" width="88.1575" height="24.378" class="st1"/>
				<text x="20.08" y="529.68" class="st2">年滿二十</text>			</g>
			<g id="shape64-191" transform="translate(1.00919E-12,-219.402)">
				<title>工作表.64</title>
				<desc>8</desc>
				<rect x="0" y="512.687" width="24.378" height="24.378" class="st1"/>
				<text x="9.37" y="528.48" class="st3">8</text>			</g>
			<g id="shape65-194" transform="translate(127.984,-219.402)">
				<title>工作表.65</title>
				<desc>　年滿二十</desc>
				<rect x="0" y="512.687" width="88.1575" height="24.378" class="st1"/>
				<text x="20.08" y="529.68" class="st2">年滿二十</text>			</g>
			<g id="shape66-197" transform="translate(127.984,-219.402)">
				<title>工作表.66</title>
				<desc>3</desc>
				<rect x="0" y="512.687" width="24.378" height="24.378" class="st1"/>
				<text x="9.37" y="528.48" class="st3">3</text>			</g>
			<g id="shape67-200" transform="translate(255.969,-219.402)">
				<title>工作表.67</title>
				<desc>　年滿二十</desc>
				<rect x="0" y="512.687" width="88.1575" height="24.378" class="st1"/>
				<text x="20.08" y="529.68" class="st2">年滿二十</text>			</g>
			<g id="shape68-203" transform="translate(255.969,-219.402)">
				<title>工作表.68</title>
				<desc>7</desc>
				<rect x="0" y="512.687" width="24.378" height="24.378" class="st1"/>
				<text x="9.37" y="528.48" class="st3">7</text>			</g>
			<g id="shape69-206" transform="translate(384.094,-219.402)">
				<title>工作表.69</title>
				<desc>　年滿二十</desc>
				<rect x="0" y="512.687" width="88.1575" height="24.378" class="st1"/>
				<text x="20.08" y="529.68" class="st2">年滿二十</text>			</g>
			<g id="shape70-209" transform="translate(384.094,-219.402)">
				<title>工作表.70</title>
				<desc>2</desc>
				<rect x="0" y="512.687" width="24.378" height="24.378" class="st1"/>
				<text x="9.37" y="528.48" class="st3">2</text>			</g>
			<g id="shape71-212" transform="translate(1.27898E-12,-182.835)">
				<title>工作表.71</title>
				<desc>　衣缽具</desc>
				<rect x="0" y="512.687" width="72" height="24.378" class="st1"/>
				<text x="20" y="529.68" class="st2">衣缽具</text>			</g>
			<g id="shape72-215" transform="translate(1.00919E-12,-182.835)">
				<title>工作表.72</title>
				<desc>9</desc>
				<rect x="0" y="512.687" width="24.378" height="24.378" class="st1"/>
				<text x="9.37" y="528.48" class="st3">9</text>			</g>
			<g id="shape73-218" transform="translate(127.984,-182.835)">
				<title>工作表.73</title>
				<desc>　衣缽具</desc>
				<rect x="0" y="512.687" width="72" height="24.378" class="st1"/>
				<text x="20" y="529.68" class="st2">衣缽具</text>			</g>
			<g id="shape74-221" transform="translate(127.984,-182.835)">
				<title>工作表.74</title>
				<desc>4</desc>
				<rect x="0" y="512.687" width="24.378" height="24.378" class="st1"/>
				<text x="9.37" y="528.48" class="st3">4</text>			</g>
			<g id="shape75-224" transform="translate(255.969,-182.835)">
				<title>工作表.75</title>
				<desc>　衣缽具</desc>
				<rect x="0" y="512.687" width="72" height="24.378" class="st1"/>
				<text x="20" y="529.68" class="st2">衣缽具</text>			</g>
			<g id="shape76-227" transform="translate(255.969,-182.835)">
				<title>工作表.76</title>
				<desc>8</desc>
				<rect x="0" y="512.687" width="24.378" height="24.378" class="st1"/>
				<text x="9.37" y="528.48" class="st3">8</text>			</g>
			<g id="shape77-230" transform="translate(384.094,-182.835)">
				<title>工作表.77</title>
				<desc>　衣缽具</desc>
				<rect x="0" y="512.687" width="72" height="24.378" class="st1"/>
				<text x="20" y="529.68" class="st2">衣缽具</text>			</g>
			<g id="shape78-233" transform="translate(384.094,-182.835)">
				<title>工作表.78</title>
				<desc>1 4</desc>
				<rect x="0" y="512.687" width="24.378" height="24.378" class="st1"/>
				<text x="4.99" y="528.48" class="st3">1 4</text>			</g>
			<g id="shape79-236" transform="translate(255.969,-146.268)">
				<title>工作表.79</title>
				<desc>　受和尚</desc>
				<rect x="0" y="512.687" width="72" height="24.378" class="st1"/>
				<text x="20" y="529.68" class="st2">受和尚</text>			</g>
			<g id="shape80-239" transform="translate(255.969,-146.268)">
				<title>工作表.80</title>
				<desc>9</desc>
				<rect x="0" y="512.687" width="24.378" height="24.378" class="st1"/>
				<text x="9.37" y="528.48" class="st3">9</text>			</g>
			<g id="shape81-242" transform="translate(1.55076E-12,-109.701)">
				<title>工作表.81</title>
				<desc>　自名</desc>
				<rect x="0" y="512.687" width="56.126" height="24.378" class="st1"/>
				<text x="20.06" y="529.68" class="st2">自名</text>			</g>
			<g id="shape82-245" transform="translate(1.39089E-12,-109.701)">
				<title>工作表.82</title>
				<desc>1 0</desc>
				<rect x="0" y="512.687" width="24.378" height="24.378" class="st1"/>
				<text x="4.99" y="528.48" class="st3">1 0</text>			</g>
			<g id="shape83-248" transform="translate(127.984,-109.701)">
				<title>工作表.83</title>
				<desc>　自名</desc>
				<rect x="0" y="512.687" width="56.126" height="24.378" class="st1"/>
				<text x="20.06" y="529.68" class="st2">自名</text>			</g>
			<g id="shape84-251" transform="translate(127.984,-109.701)">
				<title>工作表.84</title>
				<desc>1</desc>
				<rect x="0" y="512.687" width="24.378" height="24.378" class="st1"/>
				<text x="9.37" y="528.48" class="st3">1</text>			</g>
			<g id="shape85-254" transform="translate(255.969,-109.701)">
				<title>工作表.85</title>
				<desc>　自字</desc>
				<rect x="0" y="512.687" width="56.126" height="24.378" class="st1"/>
				<text x="20.06" y="529.68" class="st2">自字</text>			</g>
			<g id="shape86-257" transform="translate(255.969,-109.701)">
				<title>工作表.86</title>
				<desc>1 0</desc>
				<rect x="0" y="512.687" width="24.378" height="24.378" class="st1"/>
				<text x="4.99" y="528.48" class="st3">1 0</text>			</g>
			<g id="shape87-260" transform="translate(384.094,-109.701)">
				<title>工作表.87</title>
				<desc>　名字</desc>
				<rect x="0" y="512.687" width="56.126" height="24.378" class="st1"/>
				<text x="20.06" y="529.68" class="st2">名字</text>			</g>
			<g id="shape88-263" transform="translate(384.094,-109.701)">
				<title>工作表.88</title>
				<desc>1 5</desc>
				<rect x="0" y="512.687" width="24.378" height="24.378" class="st1"/>
				<text x="4.99" y="528.48" class="st3">1 5</text>			</g>
			<g id="shape89-266" transform="translate(1.53477E-12,-73.1339)">
				<title>工作表.89</title>
				<desc>　和尚名</desc>
				<rect x="0" y="512.687" width="72" height="24.378" class="st1"/>
				<text x="20" y="529.68" class="st2">和尚名</text>			</g>
			<g id="shape90-269" transform="translate(1.39089E-12,-73.1339)">
				<title>工作表.90</title>
				<desc>1 1</desc>
				<rect x="0" y="512.687" width="24.378" height="24.378" class="st1"/>
				<text x="4.99" y="528.48" class="st3">1 1</text>			</g>
			<g id="shape91-272" transform="translate(127.984,-73.1339)">
				<title>工作表.91</title>
				<desc>　和尚名</desc>
				<rect x="0" y="512.687" width="72" height="24.378" class="st1"/>
				<text x="20" y="529.68" class="st2">和尚名</text>			</g>
			<g id="shape92-275" transform="translate(127.984,-73.1339)">
				<title>工作表.92</title>
				<desc>2</desc>
				<rect x="0" y="512.687" width="24.378" height="24.378" class="st1"/>
				<text x="9.37" y="528.48" class="st3">2</text>			</g>
			<g id="shape93-278" transform="translate(255.969,-73.1339)">
				<title>工作表.93</title>
				<desc>　和尚字</desc>
				<rect x="0" y="512.687" width="72" height="24.378" class="st1"/>
				<text x="20" y="529.68" class="st2">和尚字</text>			</g>
			<g id="shape94-281" transform="translate(255.969,-73.1339)">
				<title>工作表.94</title>
				<desc>1 1</desc>
				<rect x="0" y="512.687" width="24.378" height="24.378" class="st1"/>
				<text x="4.99" y="528.48" class="st3">1 1</text>			</g>
			<g id="shape95-284" transform="translate(384.094,-73.1339)">
				<title>工作表.95</title>
				<desc>　和尚名</desc>
				<rect x="0" y="512.687" width="72" height="24.378" class="st1"/>
				<text x="20" y="529.68" class="st2">和尚名</text>			</g>
			<g id="shape96-287" transform="translate(384.094,-73.1339)">
				<title>工作表.96</title>
				<desc>1 6</desc>
				<rect x="0" y="512.687" width="24.378" height="24.378" class="st1"/>
				<text x="4.99" y="528.48" class="st3">1 6</text>			</g>
			<g id="shape97-290" transform="translate(255.969,-36.5669)">
				<title>工作表.97</title>
				<desc>　曾出家持戒</desc>
				<rect x="0" y="512.687" width="104.031" height="24.378" class="st1"/>
				<text x="20.02" y="529.68" class="st2">曾出家持戒</text>			</g>
			<g id="shape98-293" transform="translate(255.969,-36.5669)">
				<title>工作表.98</title>
				<desc>1 2</desc>
				<rect x="0" y="512.687" width="24.378" height="24.378" class="st1"/>
				<text x="4.99" y="528.48" class="st3">1 2</text>			</g>
			<g id="shape99-296" transform="translate(384.094,-36.5669)">
				<title>工作表.99</title>
				<desc>1 7</desc>
				<rect x="0" y="512.687" width="24.378" height="24.378" class="st1"/>
				<text x="4.99" y="528.48" class="st3">1 7</text>			</g>
			<g id="shape100-299" transform="translate(255.969,-2.27374E-13)">
				<title>工作表.100</title>
				<desc>　欲受戒</desc>
				<rect x="0" y="512.687" width="72" height="24.378" class="st1"/>
				<text x="20" y="529.68" class="st2">欲受戒</text>			</g>
			<g id="shape101-302" transform="translate(255.969,-1.13687E-13)">
				<title>工作表.101</title>
				<desc>1 4</desc>
				<rect x="0" y="512.687" width="24.378" height="24.378" class="st1"/>
				<text x="4.99" y="528.48" class="st3">1 4</text>			</g>
		</g>
	</g>
</svg>
