<?xml version="1.0" encoding="UTF-8" standalone="no"?>
<!DOCTYPE svg PUBLIC "-//W3C//DTD SVG 1.1//EN" "http://www.w3.org/Graphics/SVG/1.1/DTD/svg11.dtd">
<!-- 由 Microsoft Visio, SVG Export 產生 y35.0292-h.svg 頁-1 -->
<svg xmlns="http://www.w3.org/2000/svg" xmlns:xlink="http://www.w3.org/1999/xlink" xmlns:ev="http://www.w3.org/2001/xml-events"
		width="4.91396in" height="2.3175in" viewBox="0 0 353.805 166.86" xml:space="preserve" color-interpolation-filters="sRGB"
		class="st4">
	<style type="text/css">
	<![CDATA[
		.st1 {fill:none;stroke:none;stroke-linecap:round;stroke-linejoin:round;stroke-width:0.75}
		.st2 {fill:#000000;font-family:新細明體;font-size:1.33333em}
		.st3 {stroke:#000000;stroke-linecap:round;stroke-linejoin:round;stroke-width:0.24}
		.st4 {fill:none;fill-rule:evenodd;font-size:12px;overflow:visible;stroke-linecap:square;stroke-miterlimit:3}
	]]>
	</style>

	<g>
		<title>頁-1</title>
		<g id="group16-1" transform="translate(0.375,-0.375)">
			<title>工作表.16</title>
			<g id="shape1-2" transform="translate(0,-146.268)">
				<title>工作表.1</title>
				<desc>經(Sutta)</desc>
				<rect x="0" y="147.018" width="72" height="19.8425" class="st1"/>
				<text x="4" y="161.74" class="st2">經(Sutta)</text>			</g>
			<g id="shape2-5" transform="translate(3.35731E-13,-109.701)">
				<title>工作表.2</title>
				<desc>律(Vinaya)</desc>
				<rect x="0" y="147.018" width="88.1575" height="19.8425" class="st1"/>
				<text x="4" y="161.74" class="st2">律(Vinaya)</text>			</g>
			<g id="shape3-8" transform="translate(4.07674E-13,-73.1339)">
				<title>工作表.3</title>
				<desc>隨法(Anuloma)</desc>
				<rect x="0" y="147.018" width="120.189" height="19.8425" class="st1"/>
				<text x="4" y="161.74" class="st2">隨法(Anuloma)</text>			</g>
			<g id="shape4-11" transform="translate(3.11751E-13,-36.5669)">
				<title>工作表.4</title>
				<desc>所制(Paññatta)</desc>
				<rect x="0" y="147.018" width="104.031" height="19.8425" class="st1"/>
				<text x="4" y="161.74" class="st2">所制(Paññatta)</text>			</g>
			<g id="shape5-14">
				<title>工作表.5</title>
				<desc>隨順法(Anulomika)</desc>
				<rect x="0" y="147.018" width="152.22" height="19.8425" class="st1"/>
				<text x="4" y="161.74" class="st2">隨順法(Anulomika)</text>			</g>
			<g id="shape6-17" transform="translate(184.961,-146.268)">
				<title>工作表.6</title>
				<desc>二部波羅提木叉經分別</desc>
				<rect x="0" y="147.018" width="168.094" height="19.8425" class="st1"/>
				<text x="4" y="161.74" class="st2">二部波羅提木叉經分別</text>			</g>
			<g id="shape7-20" transform="translate(184.961,-109.701)">
				<title>工作表.7</title>
				<desc>犍度</desc>
				<rect x="0" y="147.018" width="40.252" height="19.8425" class="st1"/>
				<text x="4" y="161.74" class="st2">犍度</text>			</g>
			<g id="shape8-23" transform="translate(184.961,-73.1339)">
				<title>工作表.8</title>
				<desc>附隨</desc>
				<rect x="0" y="147.018" width="40.252" height="19.8425" class="st1"/>
				<text x="4" y="161.74" class="st2">附隨</text>			</g>
			<g id="shape9-26" transform="translate(184.961,-36.5669)">
				<title>工作表.9</title>
				<desc>一切律藏</desc>
				<rect x="0" y="147.018" width="72" height="19.8425" class="st1"/>
				<text x="4" y="161.74" class="st2">一切律藏</text>			</g>
			<g id="shape10-29" transform="translate(184.961,-4.83169E-13)">
				<title>工作表.10</title>
				<desc>四大處四大說</desc>
				<rect x="0" y="147.018" width="140.102" height="19.8425" class="st1"/>
				<text x="4" y="161.74" class="st2">四大處（四大說）</text>			</g>
			<g id="shape11-32" transform="translate(187.228,177.531) rotate(180)">
				<title>工作表.11</title>
				<path d="M0 166.86 L124.3 166.86" class="st3"/>
			</g>
			<g id="shape12-35" transform="translate(187.228,214.098) rotate(180)">
				<title>工作表.12</title>
				<path d="M0 166.86 L111.54 166.86" class="st3"/>
			</g>
			<g id="shape13-38" transform="translate(187.228,250.665) rotate(180)">
				<title>工作表.13</title>
				<path d="M0 166.86 L83.2 166.86" class="st3"/>
			</g>
			<g id="shape14-41" transform="translate(187.228,287.232) rotate(180)">
				<title>工作表.14</title>
				<path d="M0 166.86 L86.6 166.86" class="st3"/>
			</g>
			<g id="shape15-44" transform="translate(187.228,323.799) rotate(180)">
				<title>工作表.15</title>
				<path d="M0 166.86 L50.6 166.86" class="st3"/>
			</g>
		</g>
	</g>
</svg>
