<?xml version="1.0" encoding="UTF-8" standalone="no"?>
<!DOCTYPE svg PUBLIC "-//W3C//DTD SVG 1.0//EN" "http://www.w3.org/TR/2001/REC-SVG-20010904/DTD/svg10.dtd">
<!-- 由 Microsoft Visio 11.0, SVG Export, v1.0 產生 y35.0380.svg Page-1 -->
<svg xmlns="http://www.w3.org/2000/svg" xmlns:xlink="http://www.w3.org/1999/xlink" xmlns:ev="http://www.w3.org/2001/xml-events"
		xmlns:v="http://schemas.microsoft.com/visio/2003/SVGExtensions/" width="8.85548in" height="7.96965in"
		viewBox="0 0 637.594 573.815" xml:space="preserve" color-interpolation-filters="sRGB" class="st4">
	<v:documentProperties v:langID="1028" v:metric="true" v:viewMarkup="false">
		<v:userDefs>
			<v:ud v:nameU="msvSubprocessMaster" v:prompt="" v:val="VT4(Box)"/>
			<v:ud v:nameU="msvNoAutoConnect" v:val="VT0(1):26"/>
		</v:userDefs>
	</v:documentProperties>

	<style type="text/css">
	<![CDATA[
		.st1 {fill:none;stroke:none;stroke-linecap:round;stroke-linejoin:round;stroke-width:0.75}
		.st2 {fill:#000000;font-family:新細明體;font-size:1.33333em}
		.st3 {fill:#000000;font-family:新細明體;font-size:1.00001em}
		.st4 {fill:none;fill-rule:evenodd;font-size:12px;overflow:visible;stroke-linecap:square;stroke-miterlimit:3}
	]]>
	</style>

	<g v:mID="0" v:index="1" v:groupContext="foregroundPage">
		<title>頁-1</title>
		<v:pageProperties v:drawingScale="0.0393701" v:pageScale="0.0393701" v:drawingUnits="24" v:shadowOffsetX="8.50394"
				v:shadowOffsetY="-8.50394"/>
		<g id="shape1-1" v:mID="1" v:groupContext="shape" transform="translate(402.844,-55.3169)">
			<title>工作表.1</title>
			<desc>　先作比丘清淨持戒如法還戒</desc>
			<v:textBlock v:margins="rect(4,4,4,4)" v:tabSpace="42.5197"/>
			<v:textRect cx="108" cy="561.626" width="216" height="24.378"/>
			<rect x="0" y="549.437" width="216" height="24.378" class="st1"/>
			<text x="20" y="566.43" class="st2" v:langID="1028"><v:paragraph v:horizAlign="1"/><v:tabList/>　先作比丘清淨持戒如法還戒</text>		</g>
		<g id="shape2-4" v:mID="2" v:groupContext="shape" transform="translate(18.75,-530.687)">
			<title>工作表.2</title>
			<desc>〔銅鍱律〕</desc>
			<v:textBlock v:margins="rect(4,4,4,4)" v:tabSpace="42.5197"/>
			<v:textRect cx="44.0787" cy="561.626" width="88.16" height="24.378"/>
			<rect x="0" y="549.437" width="88.1575" height="24.378" class="st1"/>
			<text x="4.08" y="566.43" class="st2" v:langID="1028"><v:paragraph v:horizAlign="1"/><v:tabList/>〔銅鍱律〕</text>		</g>
		<g id="shape3-7" v:mID="3" v:groupContext="shape" transform="translate(146.734,-530.687)">
			<title>工作表.3</title>
			<desc>〔四分律〕</desc>
			<v:textBlock v:margins="rect(4,4,4,4)" v:tabSpace="42.5197"/>
			<v:textRect cx="44.0787" cy="561.626" width="88.16" height="24.378"/>
			<rect x="0" y="549.437" width="88.1575" height="24.378" class="st1"/>
			<text x="4.08" y="566.43" class="st2" v:langID="1028"><v:paragraph v:horizAlign="1"/><v:tabList/>〔四分律〕</text>		</g>
		<g id="shape4-10" v:mID="4" v:groupContext="shape" transform="translate(274.719,-530.687)">
			<title>工作表.4</title>
			<desc>〔五分律〕</desc>
			<v:textBlock v:margins="rect(4,4,4,4)" v:tabSpace="42.5197"/>
			<v:textRect cx="44.0787" cy="561.626" width="88.16" height="24.378"/>
			<rect x="0" y="549.437" width="88.1575" height="24.378" class="st1"/>
			<text x="4.08" y="566.43" class="st2" v:langID="1028"><v:paragraph v:horizAlign="1"/><v:tabList/>〔五分律〕</text>		</g>
		<g id="shape5-13" v:mID="5" v:groupContext="shape" transform="translate(402.844,-530.687)">
			<title>工作表.5</title>
			<desc>〔十誦律〕</desc>
			<v:textBlock v:margins="rect(4,4,4,4)" v:tabSpace="42.5197"/>
			<v:textRect cx="44.0787" cy="561.626" width="88.16" height="24.378"/>
			<rect x="0" y="549.437" width="88.1575" height="24.378" class="st1"/>
			<text x="4.08" y="566.43" class="st2" v:langID="1028"><v:paragraph v:horizAlign="1"/><v:tabList/>〔十誦律〕</text>		</g>
		<g id="shape6-16" v:mID="6" v:groupContext="shape" transform="translate(18.75,-478.246)">
			<title>工作表.6</title>
			<desc>　重病</desc>
			<v:textBlock v:margins="rect(4,4,4,4)" v:tabSpace="42.5197"/>
			<v:textRect cx="28.063" cy="545.752" width="56.13" height="56.126"/>
			<rect x="0" y="517.689" width="56.126" height="56.126" class="st1"/>
			<text x="20.06" y="550.55" class="st2" v:langID="1028"><v:paragraph v:horizAlign="1"/><v:tabList/>　重病</text>		</g>
		<g id="shape7-19" v:mID="7" v:groupContext="shape" transform="translate(18.75,-494.12)">
			<title>工作表.7</title>
			<desc>1</desc>
			<v:textBlock v:margins="rect(4,4,4,4)" v:tabSpace="42.5197"/>
			<v:textRect cx="12.189" cy="561.626" width="24.38" height="24.378"/>
			<rect x="0" y="549.437" width="24.378" height="24.378" class="st1"/>
			<text x="9.37" y="565.23" class="st3" v:langID="1028"><v:paragraph v:horizAlign="1"/><v:tabList/>1</text>		</g>
		<g id="shape8-22" v:mID="8" v:groupContext="shape" transform="translate(146.734,-478.246)">
			<title>工作表.8</title>
			<desc>　重病</desc>
			<v:textBlock v:margins="rect(4,4,4,4)" v:tabSpace="42.5197"/>
			<v:textRect cx="28.063" cy="545.752" width="56.13" height="56.126"/>
			<rect x="0" y="517.689" width="56.126" height="56.126" class="st1"/>
			<text x="20.06" y="550.55" class="st2" v:langID="1028"><v:paragraph v:horizAlign="1"/><v:tabList/>　重病</text>		</g>
		<g id="shape9-25" v:mID="9" v:groupContext="shape" transform="translate(146.734,-494.12)">
			<title>工作表.9</title>
			<desc>1 0</desc>
			<v:textBlock v:margins="rect(4,4,4,4)" v:tabSpace="42.5197"/>
			<v:textRect cx="12.189" cy="561.626" width="24.38" height="24.378"/>
			<rect x="0" y="549.437" width="24.378" height="24.378" class="st1"/>
			<text x="4.99" y="565.23" class="st3" v:langID="1028"><v:paragraph v:horizAlign="1"/><v:tabList/>1 0</text>		</g>
		<g id="shape10-28" v:mID="10" v:groupContext="shape" transform="translate(274.719,-478.246)">
			<title>工作表.10</title>
			<desc>　重病</desc>
			<v:textBlock v:margins="rect(4,4,4,4)" v:tabSpace="42.5197"/>
			<v:textRect cx="28.063" cy="545.752" width="56.13" height="56.126"/>
			<rect x="0" y="517.689" width="56.126" height="56.126" class="st1"/>
			<text x="20.06" y="550.55" class="st2" v:langID="1028"><v:paragraph v:horizAlign="1"/><v:tabList/>　重病</text>		</g>
		<g id="shape11-31" v:mID="11" v:groupContext="shape" transform="translate(274.719,-494.12)">
			<title>工作表.11</title>
			<desc>1</desc>
			<v:textBlock v:margins="rect(4,4,4,4)" v:tabSpace="42.5197"/>
			<v:textRect cx="12.189" cy="561.626" width="24.38" height="24.378"/>
			<rect x="0" y="549.437" width="24.378" height="24.378" class="st1"/>
			<text x="9.37" y="565.23" class="st3" v:langID="1028"><v:paragraph v:horizAlign="1"/><v:tabList/>1</text>		</g>
		<g id="shape12-34" v:mID="12" v:groupContext="shape" transform="translate(402.844,-478.246)">
			<title>工作表.12</title>
			<desc>　重病</desc>
			<v:textBlock v:margins="rect(4,4,4,4)" v:tabSpace="42.5197"/>
			<v:textRect cx="28.063" cy="545.752" width="56.13" height="56.126"/>
			<rect x="0" y="517.689" width="56.126" height="56.126" class="st1"/>
			<text x="20.06" y="550.55" class="st2" v:langID="1028"><v:paragraph v:horizAlign="1"/><v:tabList/>　重病</text>		</g>
		<g id="shape13-37" v:mID="13" v:groupContext="shape" transform="translate(402.844,-494.12)">
			<title>工作表.13</title>
			<desc>1 1</desc>
			<v:textBlock v:margins="rect(4,4,4,4)" v:tabSpace="42.5197"/>
			<v:textRect cx="12.189" cy="561.626" width="24.38" height="24.378"/>
			<rect x="0" y="549.437" width="24.378" height="24.378" class="st1"/>
			<text x="4.99" y="565.23" class="st3" v:langID="1028"><v:paragraph v:horizAlign="1"/><v:tabList/>1 1</text>		</g>
		<g id="shape14-40" v:mID="14" v:groupContext="shape" transform="translate(18.75,-449.616)">
			<title>工作表.14</title>
			<desc>　人</desc>
			<v:textBlock v:margins="rect(4,4,4,4)" v:tabSpace="42.5197"/>
			<v:textRect cx="20.126" cy="553.689" width="40.26" height="40.252"/>
			<rect x="0" y="533.563" width="40.252" height="40.252" class="st1"/>
			<text x="20.13" y="558.49" class="st2" v:langID="1028"><v:paragraph v:horizAlign="1"/><v:tabList/>　人</text>		</g>
		<g id="shape15-43" v:mID="15" v:groupContext="shape" transform="translate(18.75,-457.553)">
			<title>工作表.15</title>
			<desc>2</desc>
			<v:textBlock v:margins="rect(4,4,4,4)" v:tabSpace="42.5197"/>
			<v:textRect cx="12.189" cy="561.626" width="24.38" height="24.378"/>
			<rect x="0" y="549.437" width="24.378" height="24.378" class="st1"/>
			<text x="9.37" y="565.23" class="st3" v:langID="1028"><v:paragraph v:horizAlign="1"/><v:tabList/>2</text>		</g>
		<g id="shape16-46" v:mID="16" v:groupContext="shape" transform="translate(274.719,-449.616)">
			<title>工作表.16</title>
			<desc>　人</desc>
			<v:textBlock v:margins="rect(4,4,4,4)" v:tabSpace="42.5197"/>
			<v:textRect cx="20.126" cy="553.689" width="40.26" height="40.252"/>
			<rect x="0" y="533.563" width="40.252" height="40.252" class="st1"/>
			<text x="20.13" y="558.49" class="st2" v:langID="1028"><v:paragraph v:horizAlign="1"/><v:tabList/>　人</text>		</g>
		<g id="shape17-49" v:mID="17" v:groupContext="shape" transform="translate(274.719,-457.553)">
			<title>工作表.17</title>
			<desc>6</desc>
			<v:textBlock v:margins="rect(4,4,4,4)" v:tabSpace="42.5197"/>
			<v:textRect cx="12.189" cy="561.626" width="24.38" height="24.378"/>
			<rect x="0" y="549.437" width="24.378" height="24.378" class="st1"/>
			<text x="9.37" y="565.23" class="st3" v:langID="1028"><v:paragraph v:horizAlign="1"/><v:tabList/>6</text>		</g>
		<g id="shape18-52" v:mID="18" v:groupContext="shape" transform="translate(18.75,-413.049)">
			<title>工作表.18</title>
			<desc>　男</desc>
			<v:textBlock v:margins="rect(4,4,4,4)" v:tabSpace="42.5197"/>
			<v:textRect cx="20.126" cy="553.689" width="40.26" height="40.252"/>
			<rect x="0" y="533.563" width="40.252" height="40.252" class="st1"/>
			<text x="20.13" y="558.49" class="st2" v:langID="1028"><v:paragraph v:horizAlign="1"/><v:tabList/>　男</text>		</g>
		<g id="shape19-55" v:mID="19" v:groupContext="shape" transform="translate(18.75,-420.986)">
			<title>工作表.19</title>
			<desc>3</desc>
			<v:textBlock v:margins="rect(4,4,4,4)" v:tabSpace="42.5197"/>
			<v:textRect cx="12.189" cy="561.626" width="24.38" height="24.378"/>
			<rect x="0" y="549.437" width="24.378" height="24.378" class="st1"/>
			<text x="9.37" y="565.23" class="st3" v:langID="1028"><v:paragraph v:horizAlign="1"/><v:tabList/>3</text>		</g>
		<g id="shape20-58" v:mID="20" v:groupContext="shape" transform="translate(146.734,-405.112)">
			<title>工作表.20</title>
			<desc>　丈夫</desc>
			<v:textBlock v:margins="rect(4,4,4,4)" v:tabSpace="42.5197"/>
			<v:textRect cx="28.063" cy="545.752" width="56.13" height="56.126"/>
			<rect x="0" y="517.689" width="56.126" height="56.126" class="st1"/>
			<text x="20.06" y="550.55" class="st2" v:langID="1028"><v:paragraph v:horizAlign="1"/><v:tabList/>　丈夫</text>		</g>
		<g id="shape21-61" v:mID="21" v:groupContext="shape" transform="translate(146.734,-420.986)">
			<title>工作表.21</title>
			<desc>9</desc>
			<v:textBlock v:margins="rect(4,4,4,4)" v:tabSpace="42.5197"/>
			<v:textRect cx="12.189" cy="561.626" width="24.38" height="24.378"/>
			<rect x="0" y="549.437" width="24.378" height="24.378" class="st1"/>
			<text x="9.37" y="565.23" class="st3" v:langID="1028"><v:paragraph v:horizAlign="1"/><v:tabList/>9</text>		</g>
		<g id="shape22-64" v:mID="22" v:groupContext="shape" transform="translate(274.719,-405.112)">
			<title>工作表.22</title>
			<desc>　丈夫</desc>
			<v:textBlock v:margins="rect(4,4,4,4)" v:tabSpace="42.5197"/>
			<v:textRect cx="28.063" cy="545.752" width="56.13" height="56.126"/>
			<rect x="0" y="517.689" width="56.126" height="56.126" class="st1"/>
			<text x="20.06" y="550.55" class="st2" v:langID="1028"><v:paragraph v:horizAlign="1"/><v:tabList/>　丈夫</text>		</g>
		<g id="shape23-67" v:mID="23" v:groupContext="shape" transform="translate(274.719,-420.986)">
			<title>工作表.23</title>
			<desc>5</desc>
			<v:textBlock v:margins="rect(4,4,4,4)" v:tabSpace="42.5197"/>
			<v:textRect cx="12.189" cy="561.626" width="24.38" height="24.378"/>
			<rect x="0" y="549.437" width="24.378" height="24.378" class="st1"/>
			<text x="9.37" y="565.23" class="st3" v:langID="1028"><v:paragraph v:horizAlign="1"/><v:tabList/>5</text>		</g>
		<g id="shape24-70" v:mID="24" v:groupContext="shape" transform="translate(402.844,-405.112)">
			<title>工作表.24</title>
			<desc>　丈夫</desc>
			<v:textBlock v:margins="rect(4,4,4,4)" v:tabSpace="42.5197"/>
			<v:textRect cx="28.063" cy="545.752" width="56.13" height="56.126"/>
			<rect x="0" y="517.689" width="56.126" height="56.126" class="st1"/>
			<text x="20.06" y="550.55" class="st2" v:langID="1028"><v:paragraph v:horizAlign="1"/><v:tabList/>　丈夫</text>		</g>
		<g id="shape25-73" v:mID="25" v:groupContext="shape" transform="translate(402.844,-420.986)">
			<title>工作表.25</title>
			<desc>1</desc>
			<v:textBlock v:margins="rect(4,4,4,4)" v:tabSpace="42.5197"/>
			<v:textRect cx="12.189" cy="561.626" width="24.38" height="24.378"/>
			<rect x="0" y="549.437" width="24.378" height="24.378" class="st1"/>
			<text x="9.37" y="565.23" class="st3" v:langID="1028"><v:paragraph v:horizAlign="1"/><v:tabList/>1</text>		</g>
		<g id="shape26-76" v:mID="26" v:groupContext="shape" transform="translate(18.75,-368.545)">
			<title>工作表.26</title>
			<desc>　自在</desc>
			<v:textBlock v:margins="rect(4,4,4,4)" v:tabSpace="42.5197"/>
			<v:textRect cx="28.063" cy="545.752" width="56.13" height="56.126"/>
			<rect x="0" y="517.689" width="56.126" height="56.126" class="st1"/>
			<text x="20.06" y="550.55" class="st2" v:langID="1028"><v:paragraph v:horizAlign="1"/><v:tabList/>　自在</text>		</g>
		<g id="shape27-79" v:mID="27" v:groupContext="shape" transform="translate(18.75,-384.419)">
			<title>工作表.27</title>
			<desc>4</desc>
			<v:textBlock v:margins="rect(4,4,4,4)" v:tabSpace="42.5197"/>
			<v:textRect cx="12.189" cy="561.626" width="24.38" height="24.378"/>
			<rect x="0" y="549.437" width="24.378" height="24.378" class="st1"/>
			<text x="9.37" y="565.23" class="st3" v:langID="1028"><v:paragraph v:horizAlign="1"/><v:tabList/>4</text>		</g>
		<g id="shape28-82" v:mID="28" v:groupContext="shape" transform="translate(146.734,-376.482)">
			<title>工作表.28</title>
			<desc>　奴</desc>
			<v:textBlock v:margins="rect(4,4,4,4)" v:tabSpace="42.5197"/>
			<v:textRect cx="20.126" cy="553.689" width="40.26" height="40.252"/>
			<rect x="0" y="533.563" width="40.252" height="40.252" class="st1"/>
			<text x="20.13" y="558.49" class="st2" v:langID="1028"><v:paragraph v:horizAlign="1"/><v:tabList/>　奴</text>		</g>
		<g id="shape29-85" v:mID="29" v:groupContext="shape" transform="translate(146.734,-384.419)">
			<title>工作表.29</title>
			<desc>7</desc>
			<v:textBlock v:margins="rect(4,4,4,4)" v:tabSpace="42.5197"/>
			<v:textRect cx="12.189" cy="561.626" width="24.38" height="24.378"/>
			<rect x="0" y="549.437" width="24.378" height="24.378" class="st1"/>
			<text x="9.37" y="565.23" class="st3" v:langID="1028"><v:paragraph v:horizAlign="1"/><v:tabList/>7</text>		</g>
		<g id="shape30-88" v:mID="30" v:groupContext="shape" transform="translate(274.719,-376.482)">
			<title>工作表.30</title>
			<desc>　奴</desc>
			<v:textBlock v:margins="rect(4,4,4,4)" v:tabSpace="42.5197"/>
			<v:textRect cx="20.126" cy="553.689" width="40.26" height="40.252"/>
			<rect x="0" y="533.563" width="40.252" height="40.252" class="st1"/>
			<text x="20.13" y="558.49" class="st2" v:langID="1028"><v:paragraph v:horizAlign="1"/><v:tabList/>　奴</text>		</g>
		<g id="shape31-91" v:mID="31" v:groupContext="shape" transform="translate(274.719,-384.419)">
			<title>工作表.31</title>
			<desc>4</desc>
			<v:textBlock v:margins="rect(4,4,4,4)" v:tabSpace="42.5197"/>
			<v:textRect cx="12.189" cy="561.626" width="24.38" height="24.378"/>
			<rect x="0" y="549.437" width="24.378" height="24.378" class="st1"/>
			<text x="9.37" y="565.23" class="st3" v:langID="1028"><v:paragraph v:horizAlign="1"/><v:tabList/>4</text>		</g>
		<g id="shape32-94" v:mID="32" v:groupContext="shape" transform="translate(402.844,-304.482)">
			<title>工作表.32</title>
			<desc>　奴　客作　買得　破得</desc>
			<v:textBlock v:margins="rect(4,4,4,4)" v:tabSpace="42.5197"/>
			<v:textRect cx="92.126" cy="481.689" width="184.26" height="184.252"/>
			<rect x="0" y="389.563" width="184.252" height="184.252" class="st1"/>
			<text x="20.13" y="486.49" class="st2" v:langID="1028"><v:paragraph v:horizAlign="1"/><v:tabList/>　奴　客作　買得　破得</text>		</g>
		<g id="shape33-97" v:mID="33" v:groupContext="shape" transform="translate(402.844,-384.419)">
			<title>工作表.33</title>
			<desc>3</desc>
			<v:textBlock v:margins="rect(4,4,4,4)" v:tabSpace="42.5197"/>
			<v:textRect cx="12.189" cy="561.626" width="24.38" height="24.378"/>
			<rect x="0" y="549.437" width="24.378" height="24.378" class="st1"/>
			<text x="9.37" y="565.23" class="st3" v:langID="1028"><v:paragraph v:horizAlign="1"/><v:tabList/>3</text>		</g>
		<g id="shape34-100" v:mID="34" v:groupContext="shape" transform="translate(18.75,-331.978)">
			<title>工作表.34</title>
			<desc>　負債</desc>
			<v:textBlock v:margins="rect(4,4,4,4)" v:tabSpace="42.5197"/>
			<v:textRect cx="28.063" cy="545.752" width="56.13" height="56.126"/>
			<rect x="0" y="517.689" width="56.126" height="56.126" class="st1"/>
			<text x="20.06" y="550.55" class="st2" v:langID="1028"><v:paragraph v:horizAlign="1"/><v:tabList/>　負債</text>		</g>
		<g id="shape35-103" v:mID="35" v:groupContext="shape" transform="translate(18.75,-347.852)">
			<title>工作表.35</title>
			<desc>5</desc>
			<v:textBlock v:margins="rect(4,4,4,4)" v:tabSpace="42.5197"/>
			<v:textRect cx="12.189" cy="561.626" width="24.38" height="24.378"/>
			<rect x="0" y="549.437" width="24.378" height="24.378" class="st1"/>
			<text x="9.37" y="565.23" class="st3" v:langID="1028"><v:paragraph v:horizAlign="1"/><v:tabList/>5</text>		</g>
		<g id="shape36-106" v:mID="36" v:groupContext="shape" transform="translate(146.734,-331.978)">
			<title>工作表.36</title>
			<desc>　負債</desc>
			<v:textBlock v:margins="rect(4,4,4,4)" v:tabSpace="42.5197"/>
			<v:textRect cx="28.063" cy="545.752" width="56.13" height="56.126"/>
			<rect x="0" y="517.689" width="56.126" height="56.126" class="st1"/>
			<text x="20.06" y="550.55" class="st2" v:langID="1028"><v:paragraph v:horizAlign="1"/><v:tabList/>　負債</text>		</g>
		<g id="shape37-109" v:mID="37" v:groupContext="shape" transform="translate(146.734,-347.852)">
			<title>工作表.37</title>
			<desc>6</desc>
			<v:textBlock v:margins="rect(4,4,4,4)" v:tabSpace="42.5197"/>
			<v:textRect cx="12.189" cy="561.626" width="24.38" height="24.378"/>
			<rect x="0" y="549.437" width="24.378" height="24.378" class="st1"/>
			<text x="9.37" y="565.23" class="st3" v:langID="1028"><v:paragraph v:horizAlign="1"/><v:tabList/>6</text>		</g>
		<g id="shape38-112" v:mID="38" v:groupContext="shape" transform="translate(274.719,-331.978)">
			<title>工作表.38</title>
			<desc>　負債</desc>
			<v:textBlock v:margins="rect(4,4,4,4)" v:tabSpace="42.5197"/>
			<v:textRect cx="28.063" cy="545.752" width="56.13" height="56.126"/>
			<rect x="0" y="517.689" width="56.126" height="56.126" class="st1"/>
			<text x="20.06" y="550.55" class="st2" v:langID="1028"><v:paragraph v:horizAlign="1"/><v:tabList/>　負債</text>		</g>
		<g id="shape39-115" v:mID="39" v:groupContext="shape" transform="translate(274.719,-347.852)">
			<title>工作表.39</title>
			<desc>2</desc>
			<v:textBlock v:margins="rect(4,4,4,4)" v:tabSpace="42.5197"/>
			<v:textRect cx="12.189" cy="561.626" width="24.38" height="24.378"/>
			<rect x="0" y="549.437" width="24.378" height="24.378" class="st1"/>
			<text x="9.37" y="565.23" class="st3" v:langID="1028"><v:paragraph v:horizAlign="1"/><v:tabList/>2</text>		</g>
		<g id="shape40-118" v:mID="40" v:groupContext="shape" transform="translate(402.844,-331.978)">
			<title>工作表.40</title>
			<desc>　負債</desc>
			<v:textBlock v:margins="rect(4,4,4,4)" v:tabSpace="42.5197"/>
			<v:textRect cx="28.063" cy="545.752" width="56.13" height="56.126"/>
			<rect x="0" y="517.689" width="56.126" height="56.126" class="st1"/>
			<text x="20.06" y="550.55" class="st2" v:langID="1028"><v:paragraph v:horizAlign="1"/><v:tabList/>　負債</text>		</g>
		<g id="shape41-121" v:mID="41" v:groupContext="shape" transform="translate(402.844,-347.852)">
			<title>工作表.41</title>
			<desc>1 0</desc>
			<v:textBlock v:margins="rect(4,4,4,4)" v:tabSpace="42.5197"/>
			<v:textRect cx="12.189" cy="561.626" width="24.38" height="24.378"/>
			<rect x="0" y="549.437" width="24.378" height="24.378" class="st1"/>
			<text x="4.99" y="565.23" class="st3" v:langID="1028"><v:paragraph v:horizAlign="1"/><v:tabList/>1 0</text>		</g>
		<g id="shape42-124" v:mID="42" v:groupContext="shape" transform="translate(18.75,-295.411)">
			<title>工作表.42</title>
			<desc>　王臣</desc>
			<v:textBlock v:margins="rect(4,4,4,4)" v:tabSpace="42.5197"/>
			<v:textRect cx="28.063" cy="545.752" width="56.13" height="56.126"/>
			<rect x="0" y="517.689" width="56.126" height="56.126" class="st1"/>
			<text x="20.06" y="550.55" class="st2" v:langID="1028"><v:paragraph v:horizAlign="1"/><v:tabList/>　王臣</text>		</g>
		<g id="shape43-127" v:mID="43" v:groupContext="shape" transform="translate(18.75,-311.285)">
			<title>工作表.43</title>
			<desc>6</desc>
			<v:textBlock v:margins="rect(4,4,4,4)" v:tabSpace="42.5197"/>
			<v:textRect cx="12.189" cy="561.626" width="24.38" height="24.378"/>
			<rect x="0" y="549.437" width="24.378" height="24.378" class="st1"/>
			<text x="9.37" y="565.23" class="st3" v:langID="1028"><v:paragraph v:horizAlign="1"/><v:tabList/>6</text>		</g>
		<g id="shape44-130" v:mID="44" v:groupContext="shape" transform="translate(146.734,-295.411)">
			<title>工作表.44</title>
			<desc>　官人</desc>
			<v:textBlock v:margins="rect(4,4,4,4)" v:tabSpace="42.5197"/>
			<v:textRect cx="28.063" cy="545.752" width="56.13" height="56.126"/>
			<rect x="0" y="517.689" width="56.126" height="56.126" class="st1"/>
			<text x="20.06" y="550.55" class="st2" v:langID="1028"><v:paragraph v:horizAlign="1"/><v:tabList/>　官人</text>		</g>
		<g id="shape45-133" v:mID="45" v:groupContext="shape" transform="translate(146.734,-311.285)">
			<title>工作表.45</title>
			<desc>8</desc>
			<v:textBlock v:margins="rect(4,4,4,4)" v:tabSpace="42.5197"/>
			<v:textRect cx="12.189" cy="561.626" width="24.38" height="24.378"/>
			<rect x="0" y="549.437" width="24.378" height="24.378" class="st1"/>
			<text x="9.37" y="565.23" class="st3" v:langID="1028"><v:paragraph v:horizAlign="1"/><v:tabList/>8</text>		</g>
		<g id="shape46-136" v:mID="46" v:groupContext="shape" transform="translate(274.719,-295.411)">
			<title>工作表.46</title>
			<desc>　官人</desc>
			<v:textBlock v:margins="rect(4,4,4,4)" v:tabSpace="42.5197"/>
			<v:textRect cx="28.063" cy="545.752" width="56.13" height="56.126"/>
			<rect x="0" y="517.689" width="56.126" height="56.126" class="st1"/>
			<text x="20.06" y="550.55" class="st2" v:langID="1028"><v:paragraph v:horizAlign="1"/><v:tabList/>　官人</text>		</g>
		<g id="shape47-139" v:mID="47" v:groupContext="shape" transform="translate(274.719,-311.285)">
			<title>工作表.47</title>
			<desc>3</desc>
			<v:textBlock v:margins="rect(4,4,4,4)" v:tabSpace="42.5197"/>
			<v:textRect cx="12.189" cy="561.626" width="24.38" height="24.378"/>
			<rect x="0" y="549.437" width="24.378" height="24.378" class="st1"/>
			<text x="9.37" y="565.23" class="st3" v:langID="1028"><v:paragraph v:horizAlign="1"/><v:tabList/>3</text>		</g>
		<g id="shape48-142" v:mID="48" v:groupContext="shape" transform="translate(402.844,-223.411)">
			<title>工作表.48</title>
			<desc>　官人　犯官事　陰謀王家</desc>
			<v:textBlock v:margins="rect(4,4,4,4)" v:tabSpace="42.5197"/>
			<v:textRect cx="100.063" cy="473.752" width="200.13" height="200.126"/>
			<rect x="0" y="373.689" width="200.126" height="200.126" class="st1"/>
			<text x="20.06" y="478.55" class="st2" v:langID="1028"><v:paragraph v:horizAlign="1"/><v:tabList/>　官人　犯官事　陰謀王家</text>		</g>
		<g id="shape49-145" v:mID="49" v:groupContext="shape" transform="translate(402.844,-311.285)">
			<title>工作表.49</title>
			<desc>7</desc>
			<v:textBlock v:margins="rect(4,4,4,4)" v:tabSpace="42.5197"/>
			<v:textRect cx="12.189" cy="561.626" width="24.38" height="24.378"/>
			<rect x="0" y="549.437" width="24.378" height="24.378" class="st1"/>
			<text x="9.37" y="565.23" class="st3" v:langID="1028"><v:paragraph v:horizAlign="1"/><v:tabList/>7</text>		</g>
		<g id="shape50-148" v:mID="50" v:groupContext="shape" transform="translate(434.593,-384.419)">
			<title>工作表.50</title>
			<desc>4</desc>
			<v:textBlock v:margins="rect(4,4,4,4)" v:tabSpace="42.5197"/>
			<v:textRect cx="12.189" cy="561.626" width="24.38" height="24.378"/>
			<rect x="0" y="549.437" width="24.378" height="24.378" class="st1"/>
			<text x="9.37" y="565.23" class="st3" v:langID="1028"><v:paragraph v:horizAlign="1"/><v:tabList/>4</text>		</g>
		<g id="shape51-151" v:mID="51" v:groupContext="shape" transform="translate(450.75,-311.285)">
			<title>工作表.51</title>
			<desc>8</desc>
			<v:textBlock v:margins="rect(4,4,4,4)" v:tabSpace="42.5197"/>
			<v:textRect cx="12.189" cy="561.626" width="24.38" height="24.378"/>
			<rect x="0" y="549.437" width="24.378" height="24.378" class="st1"/>
			<text x="9.37" y="565.23" class="st3" v:langID="1028"><v:paragraph v:horizAlign="1"/><v:tabList/>8</text>		</g>
		<g id="shape52-154" v:mID="52" v:groupContext="shape" transform="translate(482.781,-384.419)">
			<title>工作表.52</title>
			<desc>5</desc>
			<v:textBlock v:margins="rect(4,4,4,4)" v:tabSpace="42.5197"/>
			<v:textRect cx="12.189" cy="561.626" width="24.38" height="24.378"/>
			<rect x="0" y="549.437" width="24.378" height="24.378" class="st1"/>
			<text x="9.37" y="565.23" class="st3" v:langID="1028"><v:paragraph v:horizAlign="1"/><v:tabList/>5</text>		</g>
		<g id="shape53-157" v:mID="53" v:groupContext="shape" transform="translate(514.813,-311.285)">
			<title>工作表.53</title>
			<desc>9</desc>
			<v:textBlock v:margins="rect(4,4,4,4)" v:tabSpace="42.5197"/>
			<v:textRect cx="12.189" cy="561.626" width="24.38" height="24.378"/>
			<rect x="0" y="549.437" width="24.378" height="24.378" class="st1"/>
			<text x="9.37" y="565.23" class="st3" v:langID="1028"><v:paragraph v:horizAlign="1"/><v:tabList/>9</text>		</g>
		<g id="shape54-160" v:mID="54" v:groupContext="shape" transform="translate(530.687,-384.419)">
			<title>工作表.54</title>
			<desc>6</desc>
			<v:textBlock v:margins="rect(4,4,4,4)" v:tabSpace="42.5197"/>
			<v:textRect cx="12.189" cy="561.626" width="24.38" height="24.378"/>
			<rect x="0" y="549.437" width="24.378" height="24.378" class="st1"/>
			<text x="9.37" y="565.23" class="st3" v:langID="1028"><v:paragraph v:horizAlign="1"/><v:tabList/>6</text>		</g>
		<g id="shape55-163" v:mID="55" v:groupContext="shape" transform="translate(18.75,-250.907)">
			<title>工作表.55</title>
			<desc>　父母許</desc>
			<v:textBlock v:margins="rect(4,4,4,4)" v:tabSpace="42.5197"/>
			<v:textRect cx="36" cy="537.815" width="72" height="72"/>
			<rect x="0" y="501.815" width="72" height="72" class="st1"/>
			<text x="20" y="542.62" class="st2" v:langID="1028"><v:paragraph v:horizAlign="1"/><v:tabList/>　父母許</text>		</g>
		<g id="shape56-166" v:mID="56" v:groupContext="shape" transform="translate(18.75,-274.719)">
			<title>工作表.56</title>
			<desc>7</desc>
			<v:textBlock v:margins="rect(4,4,4,4)" v:tabSpace="42.5197"/>
			<v:textRect cx="12.189" cy="561.626" width="24.38" height="24.378"/>
			<rect x="0" y="549.437" width="24.378" height="24.378" class="st1"/>
			<text x="9.37" y="565.23" class="st3" v:langID="1028"><v:paragraph v:horizAlign="1"/><v:tabList/>7</text>		</g>
		<g id="shape57-169" v:mID="57" v:groupContext="shape" transform="translate(146.734,-250.907)">
			<title>工作表.57</title>
			<desc>　父母聽</desc>
			<v:textBlock v:margins="rect(4,4,4,4)" v:tabSpace="42.5197"/>
			<v:textRect cx="36" cy="537.815" width="72" height="72"/>
			<rect x="0" y="501.815" width="72" height="72" class="st1"/>
			<text x="20" y="542.62" class="st2" v:langID="1028"><v:paragraph v:horizAlign="1"/><v:tabList/>　父母聽</text>		</g>
		<g id="shape58-172" v:mID="58" v:groupContext="shape" transform="translate(146.734,-274.719)">
			<title>工作表.58</title>
			<desc>5</desc>
			<v:textBlock v:margins="rect(4,4,4,4)" v:tabSpace="42.5197"/>
			<v:textRect cx="12.189" cy="561.626" width="24.38" height="24.378"/>
			<rect x="0" y="549.437" width="24.378" height="24.378" class="st1"/>
			<text x="9.37" y="565.23" class="st3" v:langID="1028"><v:paragraph v:horizAlign="1"/><v:tabList/>5</text>		</g>
		<g id="shape59-175" v:mID="59" v:groupContext="shape" transform="translate(274.719,-250.907)">
			<title>工作表.59</title>
			<desc>　父母聽</desc>
			<v:textBlock v:margins="rect(4,4,4,4)" v:tabSpace="42.5197"/>
			<v:textRect cx="36" cy="537.815" width="72" height="72"/>
			<rect x="0" y="501.815" width="72" height="72" class="st1"/>
			<text x="20" y="542.62" class="st2" v:langID="1028"><v:paragraph v:horizAlign="1"/><v:tabList/>　父母聽</text>		</g>
		<g id="shape60-178" v:mID="60" v:groupContext="shape" transform="translate(274.719,-274.719)">
			<title>工作表.60</title>
			<desc>1 3</desc>
			<v:textBlock v:margins="rect(4,4,4,4)" v:tabSpace="42.5197"/>
			<v:textRect cx="12.189" cy="561.626" width="24.38" height="24.378"/>
			<rect x="0" y="549.437" width="24.378" height="24.378" class="st1"/>
			<text x="4.99" y="565.23" class="st3" v:langID="1028"><v:paragraph v:horizAlign="1"/><v:tabList/>1 3</text>		</g>
		<g id="shape61-181" v:mID="61" v:groupContext="shape" transform="translate(402.844,-250.907)">
			<title>工作表.61</title>
			<desc>　父母聽</desc>
			<v:textBlock v:margins="rect(4,4,4,4)" v:tabSpace="42.5197"/>
			<v:textRect cx="36" cy="537.815" width="72" height="72"/>
			<rect x="0" y="501.815" width="72" height="72" class="st1"/>
			<text x="20" y="542.62" class="st2" v:langID="1028"><v:paragraph v:horizAlign="1"/><v:tabList/>　父母聽</text>		</g>
		<g id="shape62-184" v:mID="62" v:groupContext="shape" transform="translate(402.844,-274.719)">
			<title>工作表.62</title>
			<desc>1 2</desc>
			<v:textBlock v:margins="rect(4,4,4,4)" v:tabSpace="42.5197"/>
			<v:textRect cx="12.189" cy="561.626" width="24.38" height="24.378"/>
			<rect x="0" y="549.437" width="24.378" height="24.378" class="st1"/>
			<text x="4.99" y="565.23" class="st3" v:langID="1028"><v:paragraph v:horizAlign="1"/><v:tabList/>1 2</text>		</g>
		<g id="shape63-187" v:mID="63" v:groupContext="shape" transform="translate(18.75,-206.262)">
			<title>工作表.63</title>
			<desc>　年滿二十</desc>
			<v:textBlock v:margins="rect(4,4,4,4)" v:tabSpace="42.5197"/>
			<v:textRect cx="44.0787" cy="529.736" width="88.16" height="88.1575"/>
			<rect x="0" y="485.657" width="88.1575" height="88.1575" class="st1"/>
			<text x="20.08" y="534.54" class="st2" v:langID="1028"><v:paragraph v:horizAlign="1"/><v:tabList/>　年滿二十</text>		</g>
		<g id="shape64-190" v:mID="64" v:groupContext="shape" transform="translate(18.75,-238.152)">
			<title>工作表.64</title>
			<desc>8</desc>
			<v:textBlock v:margins="rect(4,4,4,4)" v:tabSpace="42.5197"/>
			<v:textRect cx="12.189" cy="561.626" width="24.38" height="24.378"/>
			<rect x="0" y="549.437" width="24.378" height="24.378" class="st1"/>
			<text x="9.37" y="565.23" class="st3" v:langID="1028"><v:paragraph v:horizAlign="1"/><v:tabList/>8</text>		</g>
		<g id="shape65-193" v:mID="65" v:groupContext="shape" transform="translate(146.734,-206.262)">
			<title>工作表.65</title>
			<desc>　年滿二十</desc>
			<v:textBlock v:margins="rect(4,4,4,4)" v:tabSpace="42.5197"/>
			<v:textRect cx="44.0787" cy="529.736" width="88.16" height="88.1575"/>
			<rect x="0" y="485.657" width="88.1575" height="88.1575" class="st1"/>
			<text x="20.08" y="534.54" class="st2" v:langID="1028"><v:paragraph v:horizAlign="1"/><v:tabList/>　年滿二十</text>		</g>
		<g id="shape66-196" v:mID="66" v:groupContext="shape" transform="translate(146.734,-238.152)">
			<title>工作表.66</title>
			<desc>3</desc>
			<v:textBlock v:margins="rect(4,4,4,4)" v:tabSpace="42.5197"/>
			<v:textRect cx="12.189" cy="561.626" width="24.38" height="24.378"/>
			<rect x="0" y="549.437" width="24.378" height="24.378" class="st1"/>
			<text x="9.37" y="565.23" class="st3" v:langID="1028"><v:paragraph v:horizAlign="1"/><v:tabList/>3</text>		</g>
		<g id="shape67-199" v:mID="67" v:groupContext="shape" transform="translate(274.719,-206.262)">
			<title>工作表.67</title>
			<desc>　年滿二十</desc>
			<v:textBlock v:margins="rect(4,4,4,4)" v:tabSpace="42.5197"/>
			<v:textRect cx="44.0787" cy="529.736" width="88.16" height="88.1575"/>
			<rect x="0" y="485.657" width="88.1575" height="88.1575" class="st1"/>
			<text x="20.08" y="534.54" class="st2" v:langID="1028"><v:paragraph v:horizAlign="1"/><v:tabList/>　年滿二十</text>		</g>
		<g id="shape68-202" v:mID="68" v:groupContext="shape" transform="translate(274.719,-238.152)">
			<title>工作表.68</title>
			<desc>7</desc>
			<v:textBlock v:margins="rect(4,4,4,4)" v:tabSpace="42.5197"/>
			<v:textRect cx="12.189" cy="561.626" width="24.38" height="24.378"/>
			<rect x="0" y="549.437" width="24.378" height="24.378" class="st1"/>
			<text x="9.37" y="565.23" class="st3" v:langID="1028"><v:paragraph v:horizAlign="1"/><v:tabList/>7</text>		</g>
		<g id="shape69-205" v:mID="69" v:groupContext="shape" transform="translate(402.844,-206.262)">
			<title>工作表.69</title>
			<desc>　年滿二十</desc>
			<v:textBlock v:margins="rect(4,4,4,4)" v:tabSpace="42.5197"/>
			<v:textRect cx="44.0787" cy="529.736" width="88.16" height="88.1575"/>
			<rect x="0" y="485.657" width="88.1575" height="88.1575" class="st1"/>
			<text x="20.08" y="534.54" class="st2" v:langID="1028"><v:paragraph v:horizAlign="1"/><v:tabList/>　年滿二十</text>		</g>
		<g id="shape70-208" v:mID="70" v:groupContext="shape" transform="translate(402.844,-238.152)">
			<title>工作表.70</title>
			<desc>2</desc>
			<v:textBlock v:margins="rect(4,4,4,4)" v:tabSpace="42.5197"/>
			<v:textRect cx="12.189" cy="561.626" width="24.38" height="24.378"/>
			<rect x="0" y="549.437" width="24.378" height="24.378" class="st1"/>
			<text x="9.37" y="565.23" class="st3" v:langID="1028"><v:paragraph v:horizAlign="1"/><v:tabList/>2</text>		</g>
		<g id="shape71-211" v:mID="71" v:groupContext="shape" transform="translate(18.75,-177.774)">
			<title>工作表.71</title>
			<desc>　衣缽具</desc>
			<v:textBlock v:margins="rect(4,4,4,4)" v:tabSpace="42.5197"/>
			<v:textRect cx="36" cy="537.815" width="72" height="72"/>
			<rect x="0" y="501.815" width="72" height="72" class="st1"/>
			<text x="20" y="542.62" class="st2" v:langID="1028"><v:paragraph v:horizAlign="1"/><v:tabList/>　衣缽具</text>		</g>
		<g id="shape72-214" v:mID="72" v:groupContext="shape" transform="translate(18.75,-201.585)">
			<title>工作表.72</title>
			<desc>9</desc>
			<v:textBlock v:margins="rect(4,4,4,4)" v:tabSpace="42.5197"/>
			<v:textRect cx="12.189" cy="561.626" width="24.38" height="24.378"/>
			<rect x="0" y="549.437" width="24.378" height="24.378" class="st1"/>
			<text x="9.37" y="565.23" class="st3" v:langID="1028"><v:paragraph v:horizAlign="1"/><v:tabList/>9</text>		</g>
		<g id="shape73-217" v:mID="73" v:groupContext="shape" transform="translate(146.734,-177.774)">
			<title>工作表.73</title>
			<desc>　衣缽具</desc>
			<v:textBlock v:margins="rect(4,4,4,4)" v:tabSpace="42.5197"/>
			<v:textRect cx="36" cy="537.815" width="72" height="72"/>
			<rect x="0" y="501.815" width="72" height="72" class="st1"/>
			<text x="20" y="542.62" class="st2" v:langID="1028"><v:paragraph v:horizAlign="1"/><v:tabList/>　衣缽具</text>		</g>
		<g id="shape74-220" v:mID="74" v:groupContext="shape" transform="translate(146.734,-201.585)">
			<title>工作表.74</title>
			<desc>4</desc>
			<v:textBlock v:margins="rect(4,4,4,4)" v:tabSpace="42.5197"/>
			<v:textRect cx="12.189" cy="561.626" width="24.38" height="24.378"/>
			<rect x="0" y="549.437" width="24.378" height="24.378" class="st1"/>
			<text x="9.37" y="565.23" class="st3" v:langID="1028"><v:paragraph v:horizAlign="1"/><v:tabList/>4</text>		</g>
		<g id="shape75-223" v:mID="75" v:groupContext="shape" transform="translate(274.719,-177.774)">
			<title>工作表.75</title>
			<desc>　衣缽具</desc>
			<v:textBlock v:margins="rect(4,4,4,4)" v:tabSpace="42.5197"/>
			<v:textRect cx="36" cy="537.815" width="72" height="72"/>
			<rect x="0" y="501.815" width="72" height="72" class="st1"/>
			<text x="20" y="542.62" class="st2" v:langID="1028"><v:paragraph v:horizAlign="1"/><v:tabList/>　衣缽具</text>		</g>
		<g id="shape76-226" v:mID="76" v:groupContext="shape" transform="translate(274.719,-201.585)">
			<title>工作表.76</title>
			<desc>8</desc>
			<v:textBlock v:margins="rect(4,4,4,4)" v:tabSpace="42.5197"/>
			<v:textRect cx="12.189" cy="561.626" width="24.38" height="24.378"/>
			<rect x="0" y="549.437" width="24.378" height="24.378" class="st1"/>
			<text x="9.37" y="565.23" class="st3" v:langID="1028"><v:paragraph v:horizAlign="1"/><v:tabList/>8</text>		</g>
		<g id="shape77-229" v:mID="77" v:groupContext="shape" transform="translate(402.844,-177.774)">
			<title>工作表.77</title>
			<desc>　衣缽具</desc>
			<v:textBlock v:margins="rect(4,4,4,4)" v:tabSpace="42.5197"/>
			<v:textRect cx="36" cy="537.815" width="72" height="72"/>
			<rect x="0" y="501.815" width="72" height="72" class="st1"/>
			<text x="20" y="542.62" class="st2" v:langID="1028"><v:paragraph v:horizAlign="1"/><v:tabList/>　衣缽具</text>		</g>
		<g id="shape78-232" v:mID="78" v:groupContext="shape" transform="translate(402.844,-201.585)">
			<title>工作表.78</title>
			<desc>1 4</desc>
			<v:textBlock v:margins="rect(4,4,4,4)" v:tabSpace="42.5197"/>
			<v:textRect cx="12.189" cy="561.626" width="24.38" height="24.378"/>
			<rect x="0" y="549.437" width="24.378" height="24.378" class="st1"/>
			<text x="4.99" y="565.23" class="st3" v:langID="1028"><v:paragraph v:horizAlign="1"/><v:tabList/>1 4</text>		</g>
		<g id="shape79-235" v:mID="79" v:groupContext="shape" transform="translate(274.719,-141.207)">
			<title>工作表.79</title>
			<desc>　受和尚</desc>
			<v:textBlock v:margins="rect(4,4,4,4)" v:tabSpace="42.5197"/>
			<v:textRect cx="36" cy="537.815" width="72" height="72"/>
			<rect x="0" y="501.815" width="72" height="72" class="st1"/>
			<text x="20" y="542.62" class="st2" v:langID="1028"><v:paragraph v:horizAlign="1"/><v:tabList/>　受和尚</text>		</g>
		<g id="shape80-238" v:mID="80" v:groupContext="shape" transform="translate(274.719,-165.018)">
			<title>工作表.80</title>
			<desc>9</desc>
			<v:textBlock v:margins="rect(4,4,4,4)" v:tabSpace="42.5197"/>
			<v:textRect cx="12.189" cy="561.626" width="24.38" height="24.378"/>
			<rect x="0" y="549.437" width="24.378" height="24.378" class="st1"/>
			<text x="9.37" y="565.23" class="st3" v:langID="1028"><v:paragraph v:horizAlign="1"/><v:tabList/>9</text>		</g>
		<g id="shape81-241" v:mID="81" v:groupContext="shape" transform="translate(18.75,-112.577)">
			<title>工作表.81</title>
			<desc>　自名</desc>
			<v:textBlock v:margins="rect(4,4,4,4)" v:tabSpace="42.5197"/>
			<v:textRect cx="28.063" cy="545.752" width="56.13" height="56.126"/>
			<rect x="0" y="517.689" width="56.126" height="56.126" class="st1"/>
			<text x="20.06" y="550.55" class="st2" v:langID="1028"><v:paragraph v:horizAlign="1"/><v:tabList/>　自名</text>		</g>
		<g id="shape82-244" v:mID="82" v:groupContext="shape" transform="translate(18.75,-128.451)">
			<title>工作表.82</title>
			<desc>1 0</desc>
			<v:textBlock v:margins="rect(4,4,4,4)" v:tabSpace="42.5197"/>
			<v:textRect cx="12.189" cy="561.626" width="24.38" height="24.378"/>
			<rect x="0" y="549.437" width="24.378" height="24.378" class="st1"/>
			<text x="4.99" y="565.23" class="st3" v:langID="1028"><v:paragraph v:horizAlign="1"/><v:tabList/>1 0</text>		</g>
		<g id="shape83-247" v:mID="83" v:groupContext="shape" transform="translate(146.734,-112.577)">
			<title>工作表.83</title>
			<desc>　自名</desc>
			<v:textBlock v:margins="rect(4,4,4,4)" v:tabSpace="42.5197"/>
			<v:textRect cx="28.063" cy="545.752" width="56.13" height="56.126"/>
			<rect x="0" y="517.689" width="56.126" height="56.126" class="st1"/>
			<text x="20.06" y="550.55" class="st2" v:langID="1028"><v:paragraph v:horizAlign="1"/><v:tabList/>　自名</text>		</g>
		<g id="shape84-250" v:mID="84" v:groupContext="shape" transform="translate(146.734,-128.451)">
			<title>工作表.84</title>
			<desc>1</desc>
			<v:textBlock v:margins="rect(4,4,4,4)" v:tabSpace="42.5197"/>
			<v:textRect cx="12.189" cy="561.626" width="24.38" height="24.378"/>
			<rect x="0" y="549.437" width="24.378" height="24.378" class="st1"/>
			<text x="9.37" y="565.23" class="st3" v:langID="1028"><v:paragraph v:horizAlign="1"/><v:tabList/>1</text>		</g>
		<g id="shape85-253" v:mID="85" v:groupContext="shape" transform="translate(274.719,-112.577)">
			<title>工作表.85</title>
			<desc>　自字</desc>
			<v:textBlock v:margins="rect(4,4,4,4)" v:tabSpace="42.5197"/>
			<v:textRect cx="28.063" cy="545.752" width="56.13" height="56.126"/>
			<rect x="0" y="517.689" width="56.126" height="56.126" class="st1"/>
			<text x="20.06" y="550.55" class="st2" v:langID="1028"><v:paragraph v:horizAlign="1"/><v:tabList/>　自字</text>		</g>
		<g id="shape86-256" v:mID="86" v:groupContext="shape" transform="translate(274.719,-128.451)">
			<title>工作表.86</title>
			<desc>1 0</desc>
			<v:textBlock v:margins="rect(4,4,4,4)" v:tabSpace="42.5197"/>
			<v:textRect cx="12.189" cy="561.626" width="24.38" height="24.378"/>
			<rect x="0" y="549.437" width="24.378" height="24.378" class="st1"/>
			<text x="4.99" y="565.23" class="st3" v:langID="1028"><v:paragraph v:horizAlign="1"/><v:tabList/>1 0</text>		</g>
		<g id="shape87-259" v:mID="87" v:groupContext="shape" transform="translate(402.844,-112.577)">
			<title>工作表.87</title>
			<desc>　名字</desc>
			<v:textBlock v:margins="rect(4,4,4,4)" v:tabSpace="42.5197"/>
			<v:textRect cx="28.063" cy="545.752" width="56.13" height="56.126"/>
			<rect x="0" y="517.689" width="56.126" height="56.126" class="st1"/>
			<text x="20.06" y="550.55" class="st2" v:langID="1028"><v:paragraph v:horizAlign="1"/><v:tabList/>　名字</text>		</g>
		<g id="shape88-262" v:mID="88" v:groupContext="shape" transform="translate(402.844,-128.451)">
			<title>工作表.88</title>
			<desc>1 5</desc>
			<v:textBlock v:margins="rect(4,4,4,4)" v:tabSpace="42.5197"/>
			<v:textRect cx="12.189" cy="561.626" width="24.38" height="24.378"/>
			<rect x="0" y="549.437" width="24.378" height="24.378" class="st1"/>
			<text x="4.99" y="565.23" class="st3" v:langID="1028"><v:paragraph v:horizAlign="1"/><v:tabList/>1 5</text>		</g>
		<g id="shape89-265" v:mID="89" v:groupContext="shape" transform="translate(18.75,-68.0728)">
			<title>工作表.89</title>
			<desc>　和尚名</desc>
			<v:textBlock v:margins="rect(4,4,4,4)" v:tabSpace="42.5197"/>
			<v:textRect cx="36" cy="537.815" width="72" height="72"/>
			<rect x="0" y="501.815" width="72" height="72" class="st1"/>
			<text x="20" y="542.62" class="st2" v:langID="1028"><v:paragraph v:horizAlign="1"/><v:tabList/>　和尚名</text>		</g>
		<g id="shape90-268" v:mID="90" v:groupContext="shape" transform="translate(18.75,-91.8839)">
			<title>工作表.90</title>
			<desc>1 1</desc>
			<v:textBlock v:margins="rect(4,4,4,4)" v:tabSpace="42.5197"/>
			<v:textRect cx="12.189" cy="561.626" width="24.38" height="24.378"/>
			<rect x="0" y="549.437" width="24.378" height="24.378" class="st1"/>
			<text x="4.99" y="565.23" class="st3" v:langID="1028"><v:paragraph v:horizAlign="1"/><v:tabList/>1 1</text>		</g>
		<g id="shape91-271" v:mID="91" v:groupContext="shape" transform="translate(146.734,-68.0728)">
			<title>工作表.91</title>
			<desc>　和尚名</desc>
			<v:textBlock v:margins="rect(4,4,4,4)" v:tabSpace="42.5197"/>
			<v:textRect cx="36" cy="537.815" width="72" height="72"/>
			<rect x="0" y="501.815" width="72" height="72" class="st1"/>
			<text x="20" y="542.62" class="st2" v:langID="1028"><v:paragraph v:horizAlign="1"/><v:tabList/>　和尚名</text>		</g>
		<g id="shape92-274" v:mID="92" v:groupContext="shape" transform="translate(146.734,-91.8839)">
			<title>工作表.92</title>
			<desc>2</desc>
			<v:textBlock v:margins="rect(4,4,4,4)" v:tabSpace="42.5197"/>
			<v:textRect cx="12.189" cy="561.626" width="24.38" height="24.378"/>
			<rect x="0" y="549.437" width="24.378" height="24.378" class="st1"/>
			<text x="9.37" y="565.23" class="st3" v:langID="1028"><v:paragraph v:horizAlign="1"/><v:tabList/>2</text>		</g>
		<g id="shape93-277" v:mID="93" v:groupContext="shape" transform="translate(274.719,-68.0728)">
			<title>工作表.93</title>
			<desc>　和尚字</desc>
			<v:textBlock v:margins="rect(4,4,4,4)" v:tabSpace="42.5197"/>
			<v:textRect cx="36" cy="537.815" width="72" height="72"/>
			<rect x="0" y="501.815" width="72" height="72" class="st1"/>
			<text x="20" y="542.62" class="st2" v:langID="1028"><v:paragraph v:horizAlign="1"/><v:tabList/>　和尚字</text>		</g>
		<g id="shape94-280" v:mID="94" v:groupContext="shape" transform="translate(274.719,-91.8839)">
			<title>工作表.94</title>
			<desc>1 1</desc>
			<v:textBlock v:margins="rect(4,4,4,4)" v:tabSpace="42.5197"/>
			<v:textRect cx="12.189" cy="561.626" width="24.38" height="24.378"/>
			<rect x="0" y="549.437" width="24.378" height="24.378" class="st1"/>
			<text x="4.99" y="565.23" class="st3" v:langID="1028"><v:paragraph v:horizAlign="1"/><v:tabList/>1 1</text>		</g>
		<g id="shape95-283" v:mID="95" v:groupContext="shape" transform="translate(402.844,-68.0728)">
			<title>工作表.95</title>
			<desc>　和尚名</desc>
			<v:textBlock v:margins="rect(4,4,4,4)" v:tabSpace="42.5197"/>
			<v:textRect cx="36" cy="537.815" width="72" height="72"/>
			<rect x="0" y="501.815" width="72" height="72" class="st1"/>
			<text x="20" y="542.62" class="st2" v:langID="1028"><v:paragraph v:horizAlign="1"/><v:tabList/>　和尚名</text>		</g>
		<g id="shape96-286" v:mID="96" v:groupContext="shape" transform="translate(402.844,-91.8839)">
			<title>工作表.96</title>
			<desc>1 6</desc>
			<v:textBlock v:margins="rect(4,4,4,4)" v:tabSpace="42.5197"/>
			<v:textRect cx="12.189" cy="561.626" width="24.38" height="24.378"/>
			<rect x="0" y="549.437" width="24.378" height="24.378" class="st1"/>
			<text x="4.99" y="565.23" class="st3" v:langID="1028"><v:paragraph v:horizAlign="1"/><v:tabList/>1 6</text>		</g>
		<g id="shape97-289" v:mID="97" v:groupContext="shape" transform="translate(274.719,-55.3169)">
			<title>工作表.97</title>
			<desc>　曾出家持戒</desc>
			<v:textBlock v:margins="rect(4,4,4,4)" v:tabSpace="42.5197"/>
			<v:textRect cx="52.0157" cy="561.626" width="104.04" height="24.378"/>
			<rect x="0" y="549.437" width="104.031" height="24.378" class="st1"/>
			<text x="20.02" y="566.43" class="st2" v:langID="1028"><v:paragraph v:horizAlign="1"/><v:tabList/>　曾出家持戒</text>		</g>
		<g id="shape98-292" v:mID="98" v:groupContext="shape" transform="translate(274.719,-55.3169)">
			<title>工作表.98</title>
			<desc>1 2</desc>
			<v:textBlock v:margins="rect(4,4,4,4)" v:tabSpace="42.5197"/>
			<v:textRect cx="12.189" cy="561.626" width="24.38" height="24.378"/>
			<rect x="0" y="549.437" width="24.378" height="24.378" class="st1"/>
			<text x="4.99" y="565.23" class="st3" v:langID="1028"><v:paragraph v:horizAlign="1"/><v:tabList/>1 2</text>		</g>
		<g id="shape99-295" v:mID="99" v:groupContext="shape" transform="translate(402.844,-55.3169)">
			<title>工作表.99</title>
			<desc>1 7</desc>
			<v:textBlock v:margins="rect(4,4,4,4)" v:tabSpace="42.5197"/>
			<v:textRect cx="12.189" cy="561.626" width="24.38" height="24.378"/>
			<rect x="0" y="549.437" width="24.378" height="24.378" class="st1"/>
			<text x="4.99" y="565.23" class="st3" v:langID="1028"><v:paragraph v:horizAlign="1"/><v:tabList/>1 7</text>		</g>
		<g id="shape100-298" v:mID="100" v:groupContext="shape" transform="translate(274.719,-18.75)">
			<title>工作表.100</title>
			<desc>　欲受戒</desc>
			<v:textBlock v:margins="rect(4,4,4,4)" v:tabSpace="42.5197"/>
			<v:textRect cx="36" cy="561.626" width="72" height="24.378"/>
			<rect x="0" y="549.437" width="72" height="24.378" class="st1"/>
			<text x="20" y="566.43" class="st2" v:langID="1028"><v:paragraph v:horizAlign="1"/><v:tabList/>　欲受戒</text>		</g>
		<g id="shape101-301" v:mID="101" v:groupContext="shape" transform="translate(274.719,-18.75)">
			<title>工作表.101</title>
			<desc>1 4</desc>
			<v:textBlock v:margins="rect(4,4,4,4)" v:tabSpace="42.5197"/>
			<v:textRect cx="12.189" cy="561.626" width="24.38" height="24.378"/>
			<rect x="0" y="549.437" width="24.378" height="24.378" class="st1"/>
			<text x="4.99" y="565.23" class="st3" v:langID="1028"><v:paragraph v:horizAlign="1"/><v:tabList/>1 4</text>		</g>
	</g>
</svg>
