<?xml version="1.0" encoding="UTF-8" standalone="no"?>
<!DOCTYPE svg PUBLIC "-//W3C//DTD SVG 1.1//EN" "http://www.w3.org/Graphics/SVG/1.1/DTD/svg11.dtd">
<!-- 由 Microsoft Visio, SVG Export 產生 y35.0789.svg 頁-1 -->
<svg xmlns="http://www.w3.org/2000/svg" xmlns:xlink="http://www.w3.org/1999/xlink" xmlns:ev="http://www.w3.org/2001/xml-events"
		xmlns:v="http://schemas.microsoft.com/visio/2003/SVGExtensions/" width="4.48483in" height="2.4141in"
		viewBox="0 0 322.907 173.815" xml:space="preserve" color-interpolation-filters="sRGB" class="st7">
	<v:documentProperties v:langID="1028" v:metric="true" v:viewMarkup="false"/>

	<style type="text/css">
	<![CDATA[
		.st1 {fill:#ffffff;stroke:none;stroke-linecap:round;stroke-linejoin:round;stroke-width:0.75}
		.st2 {fill:#000000;font-family:新細明體;font-size:1.00001em}
		.st3 {stroke:#000000;stroke-linecap:round;stroke-linejoin:round;stroke-width:0.24}
		.st4 {stroke:#000000;stroke-linecap:round;stroke-linejoin:round;stroke-width:0.75}
		.st5 {stroke:#000000;stroke-dasharray:0.75,1.5;stroke-linecap:round;stroke-linejoin:round;stroke-width:0.75}
		.st6 {stroke:#000000;stroke-dasharray:0,2.25;stroke-linecap:round;stroke-linejoin:round;stroke-width:0.75}
		.st7 {fill:none;fill-rule:evenodd;font-size:12px;overflow:visible;stroke-linecap:square;stroke-miterlimit:3}
	]]>
	</style>

	<g v:mID="0" v:index="1" v:groupContext="foregroundPage">
		<title>頁-1</title>
		<v:pageProperties v:drawingScale="0.0393701" v:pageScale="0.0393701" v:drawingUnits="24" v:shadowOffsetX="8.50394"
				v:shadowOffsetY="-8.50394"/>
		<g id="group28-1" transform="translate(0.375,-0.375)" v:mID="28" v:groupContext="group">
			<title>工作表.28</title>
			<g id="shape1-2" v:mID="1" v:groupContext="shape" transform="translate(1.59872E-14,-150.661)">
				<title>工作表.1</title>
				<desc>雜</desc>
				<v:textBlock v:margins="rect(4,4,4,4)" v:tabSpace="42.5197"/>
				<v:textRect cx="11.5604" cy="162.613" width="23.13" height="22.4037"/>
				<rect x="0" y="151.411" width="23.1208" height="22.4037" class="st1"/>
				<text x="5.56" y="166.21" class="st2" v:langID="1028"><v:paragraph v:horizAlign="1"/><v:tabList/>雜</text>			</g>
			<g id="shape2-5" v:mID="2" v:groupContext="shape" transform="translate(67.0394,-150.661)">
				<title>工作表.2</title>
				<desc>修多羅</desc>
				<v:textBlock v:margins="rect(4,4,4,4)" v:tabSpace="42.5197"/>
				<v:textRect cx="23.5605" cy="162.613" width="47.13" height="22.4037"/>
				<rect x="0" y="151.411" width="47.121" height="22.4037" class="st1"/>
				<text x="5.56" y="166.21" class="st2" v:langID="1028"><v:paragraph v:horizAlign="1"/><v:tabList/>修多羅</text>			</g>
			<g id="shape3-8" v:mID="3" v:groupContext="shape" transform="translate(79.0395,-124.588)">
				<title>工作表.3</title>
				<desc>祇夜</desc>
				<v:textBlock v:margins="rect(4,4,4,4)" v:tabSpace="42.5197"/>
				<v:textRect cx="17.5604" cy="162.613" width="35.13" height="22.4037"/>
				<rect x="0" y="151.411" width="35.1209" height="22.4037" class="st1"/>
				<text x="5.56" y="166.21" class="st2" v:langID="1028"><v:paragraph v:horizAlign="1"/><v:tabList/>祇夜</text>			</g>
			<g id="shape4-11" v:mID="4" v:groupContext="shape" transform="translate(79.0395,-86.1832)">
				<title>工作表.4</title>
				<desc>記說</desc>
				<v:textBlock v:margins="rect(4,4,4,4)" v:tabSpace="42.5197"/>
				<v:textRect cx="17.5604" cy="162.613" width="35.13" height="22.4037"/>
				<rect x="0" y="151.411" width="35.1209" height="22.4037" class="st1"/>
				<text x="5.56" y="166.21" class="st2" v:langID="1028"><v:paragraph v:horizAlign="1"/><v:tabList/>記說</text>			</g>
			<g id="shape5-14" v:mID="5" v:groupContext="shape" transform="translate(123.732,-99.2126)">
				<title>工作表.5</title>
				<desc>弟子所說</desc>
				<v:textBlock v:margins="rect(4,4,4,4)" v:tabSpace="42.5197"/>
				<v:textRect cx="29.5605" cy="162.613" width="59.13" height="22.4037"/>
				<rect x="0" y="151.411" width="59.1211" height="22.4037" class="st1"/>
				<text x="5.56" y="166.21" class="st2" v:langID="1028"><v:paragraph v:horizAlign="1"/><v:tabList/>弟子所說</text>			</g>
			<g id="shape6-17" v:mID="6" v:groupContext="shape" transform="translate(123.732,-74.9814)">
				<title>工作表.6</title>
				<desc>如來所說</desc>
				<v:textBlock v:margins="rect(4,4,4,4)" v:tabSpace="42.5197"/>
				<v:textRect cx="29.5605" cy="162.613" width="59.13" height="22.4037"/>
				<rect x="0" y="151.411" width="59.1211" height="22.4037" class="st1"/>
				<text x="5.56" y="166.21" class="st2" v:langID="1028"><v:paragraph v:horizAlign="1"/><v:tabList/>如來所說</text>			</g>
			<g id="shape7-20" v:mID="7" v:groupContext="shape" transform="translate(146.329,-50.7502)">
				<title>工作表.7</title>
				<desc>新增</desc>
				<v:textBlock v:margins="rect(4,4,4,4)" v:tabSpace="42.5197"/>
				<v:textRect cx="29.5605" cy="162.613" width="59.13" height="22.4037"/>
				<rect x="0" y="151.411" width="59.1211" height="22.4037" class="st1"/>
				<text x="5.56" y="166.21" class="st2" v:langID="1028"><v:paragraph v:horizAlign="1"/><v:tabList/>（新增）</text>			</g>
			<g id="shape8-23" v:mID="8" v:groupContext="shape" transform="translate(172.408,-26.519)">
				<title>工作表.8</title>
				<desc>新增</desc>
				<v:textBlock v:margins="rect(4,4,4,4)" v:tabSpace="42.5197"/>
				<v:textRect cx="29.5605" cy="162.613" width="59.13" height="22.4037"/>
				<rect x="0" y="151.411" width="59.1211" height="22.4037" class="st1"/>
				<text x="5.56" y="166.21" class="st2" v:langID="1028"><v:paragraph v:horizAlign="1"/><v:tabList/>（新增）</text>			</g>
			<g id="shape9-26" v:mID="9" v:groupContext="shape" transform="translate(199.054,1.13687E-13)">
				<title>工作表.9</title>
				<desc>新增</desc>
				<v:textBlock v:margins="rect(4,4,4,4)" v:tabSpace="42.5197"/>
				<v:textRect cx="29.5605" cy="162.613" width="59.13" height="22.4037"/>
				<rect x="0" y="151.411" width="59.1211" height="22.4037" class="st1"/>
				<text x="5.56" y="166.21" class="st2" v:langID="1028"><v:paragraph v:horizAlign="1"/><v:tabList/>（新增）</text>			</g>
			<g id="shape10-29" v:mID="10" v:groupContext="shape" transform="translate(225.558,-50.7502)">
				<title>工作表.10</title>
				<desc>中</desc>
				<v:textBlock v:margins="rect(4,4,4,4)" v:tabSpace="42.5197"/>
				<v:textRect cx="11.5604" cy="162.613" width="23.13" height="22.4037"/>
				<rect x="0" y="151.411" width="23.1208" height="22.4037" class="st1"/>
				<text x="5.56" y="166.21" class="st2" v:langID="1028"><v:paragraph v:horizAlign="1"/><v:tabList/>中</text>			</g>
			<g id="shape11-32" v:mID="11" v:groupContext="shape" transform="translate(255.95,-26.519)">
				<title>工作表.11</title>
				<desc>長</desc>
				<v:textBlock v:margins="rect(4,4,4,4)" v:tabSpace="42.5197"/>
				<v:textRect cx="11.5604" cy="162.613" width="23.13" height="22.4037"/>
				<rect x="0" y="151.411" width="23.1208" height="22.4037" class="st1"/>
				<text x="5.56" y="166.21" class="st2" v:langID="1028"><v:paragraph v:horizAlign="1"/><v:tabList/>長</text>			</g>
			<g id="shape12-35" v:mID="12" v:groupContext="shape" transform="translate(287.037,0)">
				<title>工作表.12</title>
				<desc>增壹</desc>
				<v:textBlock v:margins="rect(4,4,4,4)" v:tabSpace="42.5197"/>
				<v:textRect cx="17.5604" cy="162.613" width="35.13" height="22.4037"/>
				<rect x="0" y="151.411" width="35.1209" height="22.4037" class="st1"/>
				<text x="5.56" y="166.21" class="st2" v:langID="1028"><v:paragraph v:horizAlign="1"/><v:tabList/>增壹</text>			</g>
			<g id="shape13-38" v:mID="13" v:groupContext="shape" transform="translate(116.146,-82.2147)">
				<title>左大括弧</title>
				<v:userDefs>
					<v:ud v:nameU="visVersion" v:prompt="" v:val="VT0(15):26"/>
				</v:userDefs>
				<path d="M5.6 173.82 A7.49852 5.40791 0 0 1 2.96 171.04 A2.12598 2.12598 0 0 1 2.8 170.24 L2.8 159.06 A1.40023 1.40023
							 -180 0 0 1.4 157.66 L0 157.66 L0 157.66 A2.80046 2.80046 -180 0 0 2.8 154.86 L2.8 145.08 A2.12598 2.12598
							 0 0 1 2.96 144.27 A7.49852 5.40791 0 0 1 5.6 141.5" class="st3"/>
			</g>
			<g id="shape14-41" v:mID="14" v:groupContext="shape" transform="translate(23.1208,-162.719)">
				<title>工作表.14</title>
				<path d="M0 173.82 L43.92 173.82" class="st4"/>
			</g>
			<g id="shape15-44" v:mID="15" v:groupContext="shape" transform="translate(196.936,11.0965) rotate(90)">
				<title>工作表.15</title>
				<path d="M0 173.82 L65.2 173.82" class="st4"/>
			</g>
			<g id="shape16-47" v:mID="16" v:groupContext="shape" transform="translate(23.1208,-135.79)">
				<title>工作表.16</title>
				<path d="M0 173.82 L55.92 173.82" class="st4"/>
			</g>
			<g id="shape17-50" v:mID="17" v:groupContext="shape" transform="translate(23.1208,-97.5218)">
				<title>工作表.17</title>
				<path d="M0 173.82 L55.92 173.82" class="st4"/>
			</g>
			<g id="shape18-53" v:mID="18" v:groupContext="shape" transform="translate(114.16,-162.719)">
				<title>工作表.18</title>
				<path d="M0 173.82 L111.62 173.82" class="st4"/>
			</g>
			<g id="shape19-56" v:mID="19" v:groupContext="shape" transform="translate(399.594,11.4851) rotate(90.1281)">
				<title>工作表.19</title>
				<path d="M0 173.82 L99.21 173.82" class="st4"/>
			</g>
			<g id="shape20-59" v:mID="20" v:groupContext="shape" transform="translate(200.268,-63.5061)">
				<title>工作表.20</title>
				<path d="M0 173.82 L25.29 173.82" class="st4"/>
			</g>
			<g id="shape21-62" v:mID="21" v:groupContext="shape" transform="translate(182.853,-110.278)">
				<title>工作表.21</title>
				<path d="M0 173.82 L42.81 173.82" class="st4"/>
			</g>
			<g id="shape22-65" v:mID="22" v:groupContext="shape" transform="translate(114.16,-137.207)">
				<title>工作表.22</title>
				<path d="M0 173.82 L141.79 173.82" class="st5"/>
			</g>
			<g id="shape23-68" v:mID="23" v:groupContext="shape" transform="translate(82.1347,138.656) rotate(-90)">
				<title>工作表.23</title>
				<path d="M0 173.82 L102.05 173.82" class="st6"/>
			</g>
			<g id="shape24-71" v:mID="24" v:groupContext="shape" transform="translate(182.853,-12.4825)">
				<title>工作表.24</title>
				<path d="M0 100.11 L73.1 100.11 L102.45 100.11 L102.45 173.82 L70.87 173.82" class="st5"/>
			</g>
			<g id="shape25-74" v:mID="25" v:groupContext="shape" transform="translate(248.679,-63.5061)">
				<title>工作表.25</title>
				<path d="M0 173.82 L7.27 173.82" class="st5"/>
			</g>
			<g id="shape26-77" v:mID="26" v:groupContext="shape" transform="translate(222.945,-36.5769)">
				<title>工作表.26</title>
				<path d="M0 173.82 L33 173.82" class="st5"/>
			</g>
			<g id="shape27-80" v:mID="27" v:groupContext="shape" transform="translate(279.071,-37.9943)">
				<title>工作表.27</title>
				<path d="M0 173.82 L6.24 173.82" class="st5"/>
			</g>
		</g>
	</g>
</svg>
