<?xml version="1.0" encoding="UTF-8" standalone="no"?>
<!DOCTYPE svg PUBLIC "-//W3C//DTD SVG 1.1//EN" "http://www.w3.org/Graphics/SVG/1.1/DTD/svg11.dtd">
<!-- 由 Microsoft Visio, SVG Export 產生 y35.0523.svg 頁-1 -->
<svg xmlns="http://www.w3.org/2000/svg" xmlns:xlink="http://www.w3.org/1999/xlink" xmlns:ev="http://www.w3.org/2001/xml-events"
		width="4.68168in" height="1.96199in" viewBox="0 0 337.081 141.263" xml:space="preserve" color-interpolation-filters="sRGB"
		class="st6">
	<style type="text/css">
	<![CDATA[
		.st1 {fill:none}
		.st2 {stroke:#000000;stroke-linecap:round;stroke-linejoin:round;stroke-width:0.24}
		.st3 {fill:#ffffff;stroke:none;stroke-linecap:round;stroke-linejoin:round;stroke-width:0.749999}
		.st4 {fill:#000000;font-family:新細明體;font-size:1.00001em}
		.st5 {stroke:#000000;stroke-linecap:round;stroke-linejoin:round;stroke-width:0.749999}
		.st6 {fill:none;fill-rule:evenodd;font-size:12px;overflow:visible;stroke-linecap:square;stroke-miterlimit:3}
	]]>
	</style>

	<g>
		<title>頁-1</title>
		<g id="group19-1" transform="translate(0.374999,-0.374999)">
			<title>工作表.19</title>
			<g id="shape1-2" transform="translate(173.339,-89.9416)">
				<title>左大括弧.2</title>
				<path d="M7.09 141.26 A9.48755 7.11566 180 0 1 4.06 138.29 A4.25196 4.25196 0 0 1 3.54 136.26 L3.54 121.77 A1.77165
							 1.77165 -180 0 0 1.77 120 L0 120 A3.5433 3.5433 -180 0 0 3.54 116.46 L3.54 103.74 A4.25196 4.25196 0
							 0 1 4.06 101.71 A9.48755 7.11566 180 0 1 7.09 98.74 L7.09 141.26 Z" class="st1"/>
				<path d="M7.09 141.26 A9.48755 7.11566 180 0 1 4.06 138.29 A4.25196 4.25196 0 0 1 3.54 136.26 L3.54 121.77 A1.77165
							 1.77165 -180 0 0 1.77 120 L0 120 A3.5433 3.5433 -180 0 0 3.54 116.46 L3.54 103.74 A4.25196 4.25196 0
							 0 1 4.06 101.71 A9.48755 7.11566 180 0 1 7.09 98.74" class="st2"/>
			</g>
			<g id="shape2-5" transform="translate(2.5054,-68.8979)">
				<title>工作表.3</title>
				<desc>所問如理</desc>
				<rect x="0" y="118.86" width="59.121" height="22.4037" class="st3"/>
				<text x="5.56" y="133.66" class="st4">所問如理</text>			</g>
			<g id="shape3-8" transform="translate(180.425,-118.11)">
				<title>工作表.4</title>
				<desc>法義決定</desc>
				<rect x="0" y="118.86" width="59.121" height="22.4037" class="st3"/>
				<text x="5.56" y="133.66" class="st4">法義決定</text>			</g>
			<g id="shape4-11" transform="translate(277.21,-118.11)">
				<title>工作表.5</title>
				<desc>應一向記</desc>
				<rect x="0" y="118.86" width="59.121" height="22.4037" class="st3"/>
				<text x="5.56" y="133.66" class="st4">應一向記</text>			</g>
			<g id="shape5-14" transform="translate(92.9579,-98.4249)">
				<title>工作表.6</title>
				<desc>詞意明確</desc>
				<rect x="0" y="118.86" width="59.121" height="22.4037" class="st3"/>
				<text x="5.56" y="133.66" class="st4">詞意明確</text>			</g>
			<g id="shape6-17" transform="translate(180.425,-78.7399)">
				<title>工作表.7</title>
				<desc>法義不定</desc>
				<rect x="0" y="118.86" width="59.121" height="22.4037" class="st3"/>
				<text x="5.56" y="133.66" class="st4">法義不定</text>			</g>
			<g id="shape7-20" transform="translate(277.21,-78.7399)">
				<title>工作表.8</title>
				<desc>應分別記</desc>
				<rect x="0" y="118.86" width="59.121" height="22.4037" class="st3"/>
				<text x="5.56" y="133.66" class="st4">應分別記</text>			</g>
			<g id="shape8-23" transform="translate(92.9579,-39.3699)">
				<title>工作表.9</title>
				<desc>詞意不明</desc>
				<rect x="0" y="118.86" width="59.121" height="22.4037" class="st3"/>
				<text x="5.56" y="133.66" class="st4">詞意不明</text>			</g>
			<g id="shape9-26" transform="translate(277.21,-39.3699)">
				<title>工作表.10</title>
				<desc>應反詰記</desc>
				<rect x="0" y="118.86" width="59.121" height="22.4037" class="st3"/>
				<text x="5.56" y="133.66" class="st4">應反詰記</text>			</g>
			<g id="shape10-29" transform="translate(277.21,0)">
				<title>工作表.11</title>
				<desc>應捨置記</desc>
				<rect x="0" y="118.86" width="59.121" height="22.4037" class="st3"/>
				<text x="5.56" y="133.66" class="st4">應捨置記</text>			</g>
			<g id="shape11-32">
				<title>工作表.12</title>
				<desc>所問非理</desc>
				<rect x="0" y="118.86" width="59.121" height="22.4037" class="st3"/>
				<text x="5.56" y="133.66" class="st4">所問非理</text>			</g>
			<g id="shape12-35" transform="translate(84.0469,-50.5716)">
				<title>左大括弧.13</title>
				<path d="M7.09 141.26 A10.1464 9.48755 90 0 1 4.28 137.56 A8.50393 8.50393 0 0 1 3.54 134.1 L3.54 112.72 A1.77165
							 1.77165 -180 0 0 1.77 110.94 L0 110.94 A3.5433 3.5433 -180 0 0 3.54 107.4 L3.54 87.79 A8.50393 8.50393
							 0 0 1 4.28 84.33 A10.1464 9.48755 90 0 1 7.09 80.63 L7.09 141.26 Z" class="st1"/>
				<path d="M7.09 141.26 A10.1464 9.48755 90 0 1 4.28 137.56 A8.50393 8.50393 0 0 1 3.54 134.1 L3.54 112.72 A1.77165
							 1.77165 -180 0 0 1.77 110.94 L0 110.94 A3.5433 3.5433 -180 0 0 3.54 107.4 L3.54 87.79 A8.50393 8.50393
							 0 0 1 4.28 84.33 A10.1464 9.48755 90 0 1 7.09 80.63" class="st2"/>
			</g>
			<g id="shape13-38" transform="translate(61.6264,-80.0236)">
				<title>動態連接器</title>
				<path d="M0 141.26 L19.59 141.26 L0 141.26 Z" class="st1"/>
				<path d="M0 141.26 L19.59 141.26" class="st5"/>
			</g>
			<g id="shape14-41" transform="translate(152.079,-111.205)">
				<title>動態連接器.17</title>
				<path d="M0 141.26 L21.26 141.26 L0 141.26 Z" class="st1"/>
				<path d="M0 141.26 L21.26 141.26" class="st5"/>
			</g>
			<g id="shape15-44" transform="translate(239.546,-129.315)">
				<title>動態連接器.18</title>
				<path d="M0 141.26 L37.66 141.26 L0 141.26 Z" class="st1"/>
				<path d="M0 141.26 L37.66 141.26" class="st5"/>
			</g>
			<g id="shape16-47" transform="translate(239.546,-89.9446)">
				<title>動態連接器.19</title>
				<path d="M0 141.26 L37.66 141.26 L0 141.26 Z" class="st1"/>
				<path d="M0 141.26 L37.66 141.26" class="st5"/>
			</g>
			<g id="shape17-50" transform="translate(152.08,-50.5746)">
				<title>動態連接器.20</title>
				<path d="M125.13 141.26 L0 141.26 L125.13 141.26 Z" class="st1"/>
				<path d="M125.13 141.26 L0 141.26" class="st5"/>
			</g>
			<g id="shape18-53" transform="translate(59.121,-11.2047)">
				<title>動態連接器.21</title>
				<path d="M0 141.26 L218.09 141.26 L0 141.26 Z" class="st1"/>
				<path d="M0 141.26 L218.09 141.26" class="st5"/>
			</g>
		</g>
	</g>
</svg>
