<?xml version="1.0" encoding="UTF-8" standalone="no"?>
<!DOCTYPE svg PUBLIC "-//W3C//DTD SVG 1.1//EN" "http://www.w3.org/Graphics/SVG/1.1/DTD/svg11.dtd">
<!-- 由 Microsoft Visio, SVG Export 產生 y35.0453.svg 頁-1 -->
<svg xmlns="http://www.w3.org/2000/svg" xmlns:xlink="http://www.w3.org/1999/xlink" xmlns:ev="http://www.w3.org/2001/xml-events"
		width="8.58365in" height="2.8805in" viewBox="0 0 618.023 207.396" xml:space="preserve" color-interpolation-filters="sRGB"
		class="st5">
	<style type="text/css">
	<![CDATA[
		.st1 {fill:none;stroke:none;stroke-linecap:round;stroke-linejoin:round;stroke-width:0.75}
		.st2 {fill:#000000;font-family:新細明體;font-size:1.33333em}
		.st3 {fill:#000000;font-family:新細明體;font-size:1.00001em}
		.st4 {stroke:#000000;stroke-linecap:round;stroke-linejoin:round;stroke-width:0.24}
		.st5 {fill:none;fill-rule:evenodd;font-size:12px;overflow:visible;stroke-linecap:square;stroke-miterlimit:3}
	]]>
	</style>

	<g>
		<title>頁-1</title>
		<g id="group57-1" transform="translate(0.375,-0.375)">
			<title>工作表.57</title>
			<g id="shape1-2" transform="translate(3.9968E-13,-37.7008)">
				<title>工作表.1</title>
				<desc>〔十誦律〕</desc>
				<rect x="0" y="184.719" width="88.1575" height="22.6772" class="st1"/>
				<text x="4.08" y="200.86" class="st2">〔十誦律〕</text>			</g>
			<g id="shape2-5" transform="translate(5.27578E-13,-1.13386)">
				<title>工作表.2</title>
				<desc>〔根有律〕</desc>
				<rect x="0" y="184.719" width="88.1575" height="22.6772" class="st1"/>
				<text x="4.08" y="200.86" class="st2">〔根有律〕</text>			</g>
			<g id="shape3-8" transform="translate(112.11,-1.13386)">
				<title>工作表.3</title>
				<desc>　比丘</desc>
				<rect x="0" y="184.719" width="56.126" height="22.6772" class="st1"/>
				<text x="20.06" y="200.86" class="st2">比丘</text>			</g>
			<g id="shape4-11" transform="translate(112.11,0)">
				<title>工作表.4</title>
				<desc>1</desc>
				<rect x="0" y="182.451" width="24.9449" height="24.9449" class="st1"/>
				<text x="9.65" y="198.52" class="st3">1</text>			</g>
			<g id="shape5-14" transform="translate(192.047,-1.13386)">
				<title>工作表.5</title>
				<desc>　比丘尼</desc>
				<rect x="0" y="184.719" width="72" height="22.6772" class="st1"/>
				<text x="20" y="200.86" class="st2">比丘尼</text>			</g>
			<g id="shape6-17" transform="translate(192.047,-2.27374E-13)">
				<title>工作表.6</title>
				<desc>2</desc>
				<rect x="0" y="182.451" width="24.9449" height="24.9449" class="st1"/>
				<text x="9.65" y="198.52" class="st3">2</text>			</g>
			<g id="shape7-20" transform="translate(288.142,-1.13386)">
				<title>工作表.7</title>
				<desc>　律事一七‧　律雜事</desc>
				<rect x="0" y="184.719" width="200.126" height="22.6772" class="st1"/>
				<text x="20.06" y="200.86" class="st2">律事（一七）‧　律雜事</text>			</g>
			<g id="shape8-23" transform="translate(288.142,-1.13386)">
				<title>工作表.8</title>
				<desc>3</desc>
				<rect x="0" y="184.719" width="24.9449" height="22.6772" class="st1"/>
				<text x="9.65" y="199.66" class="st3">3</text>			</g>
			<g id="shape9-26" transform="translate(415.701,-1.13386)">
				<title>工作表.9</title>
				<desc>4</desc>
				<rect x="0" y="184.719" width="24.9449" height="22.6772" class="st1"/>
				<text x="9.65" y="199.66" class="st3">4</text>			</g>
			<g id="shape10-29" transform="translate(496.063,-1.13386)">
				<title>工作表.10</title>
				<desc>　增一等多種</desc>
				<rect x="0" y="184.719" width="104.031" height="22.6772" class="st1"/>
				<text x="20.02" y="200.86" class="st2">增一等多種</text>			</g>
			<g id="shape11-32" transform="translate(496.063,-1.33582E-12)">
				<title>工作表.11</title>
				<desc>5</desc>
				<rect x="0" y="182.451" width="24.9449" height="24.9449" class="st1"/>
				<text x="9.65" y="198.52" class="st3">5</text>			</g>
			<g id="shape12-35" transform="translate(-97.2697,203.144) rotate(-90)">
				<title>工作表.12</title>
				<path d="M0 207.4 L199.84 207.4" class="st4"/>
			</g>
			<g id="shape13-38" transform="translate(-15.065,203.144) rotate(-90)">
				<title>工作表.13</title>
				<path d="M0 207.4 L172.77 207.4" class="st4"/>
			</g>
			<g id="shape14-41" transform="translate(80.7461,203.144) rotate(-90)">
				<title>工作表.14</title>
				<path d="M0 207.4 L199.84 207.4" class="st4"/>
			</g>
			<g id="shape15-44" transform="translate(284.77,203.144) rotate(-90)">
				<title>工作表.15</title>
				<path d="M0 207.4 L199.84 207.4" class="st4"/>
			</g>
			<g id="shape16-47" transform="translate(617.528,237.768) rotate(180)">
				<title>工作表.16</title>
				<path d="M0 207.4 L610.87 207.4" class="st4"/>
			</g>
			<g id="shape17-50" transform="translate(2.71783E-13,-74.2677)">
				<title>工作表.17</title>
				<desc>〔四分律〕</desc>
				<rect x="0" y="184.719" width="88.1575" height="22.6772" class="st1"/>
				<text x="4.08" y="200.86" class="st2">〔四分律〕</text>			</g>
			<g id="shape18-53" transform="translate(1.43885E-13,-110.835)">
				<title>工作表.18</title>
				<desc>〔銅鍱律〕</desc>
				<rect x="0" y="184.719" width="88.1575" height="22.6772" class="st1"/>
				<text x="4.08" y="200.86" class="st2">〔銅鍱律〕</text>			</g>
			<g id="shape19-56" transform="translate(1.59872E-14,-147.402)">
				<title>工作表.19</title>
				<desc>〔五分律〕</desc>
				<rect x="0" y="184.719" width="88.1575" height="22.6772" class="st1"/>
				<text x="4.08" y="200.86" class="st2">〔五分律〕</text>			</g>
			<g id="shape20-59" transform="translate(148.252,-183.969)">
				<title>工作表.20</title>
				<desc>〔經分別〕</desc>
				<rect x="0" y="184.719" width="88.1575" height="22.6772" class="st1"/>
				<text x="4.08" y="200.86" class="st2">〔經分別〕</text>			</g>
			<g id="shape21-62" transform="translate(112.11,-37.7008)">
				<title>工作表.21</title>
				<desc>　比丘</desc>
				<rect x="0" y="184.719" width="56.126" height="22.6772" class="st1"/>
				<text x="20.06" y="200.86" class="st2">比丘</text>			</g>
			<g id="shape22-65" transform="translate(112.11,-36.5669)">
				<title>工作表.22</title>
				<desc>1</desc>
				<rect x="0" y="182.451" width="24.9449" height="24.9449" class="st1"/>
				<text x="9.65" y="198.52" class="st3">1</text>			</g>
			<g id="shape23-68" transform="translate(112.11,-74.2677)">
				<title>工作表.23</title>
				<desc>　比丘</desc>
				<rect x="0" y="184.719" width="56.126" height="22.6772" class="st1"/>
				<text x="20.06" y="200.86" class="st2">比丘</text>			</g>
			<g id="shape24-71" transform="translate(112.11,-73.1339)">
				<title>工作表.24</title>
				<desc>1</desc>
				<rect x="0" y="182.451" width="24.9449" height="24.9449" class="st1"/>
				<text x="9.65" y="198.52" class="st3">1</text>			</g>
			<g id="shape25-74" transform="translate(112.11,-110.835)">
				<title>工作表.25</title>
				<desc>　比丘</desc>
				<rect x="0" y="184.719" width="56.126" height="22.6772" class="st1"/>
				<text x="20.06" y="200.86" class="st2">比丘</text>			</g>
			<g id="shape26-77" transform="translate(112.11,-109.701)">
				<title>工作表.26</title>
				<desc>1</desc>
				<rect x="0" y="182.451" width="24.9449" height="24.9449" class="st1"/>
				<text x="9.65" y="198.52" class="st3">1</text>			</g>
			<g id="shape27-80" transform="translate(112.11,-147.402)">
				<title>工作表.27</title>
				<desc>　比丘</desc>
				<rect x="0" y="184.719" width="56.126" height="22.6772" class="st1"/>
				<text x="20.06" y="200.86" class="st2">比丘</text>			</g>
			<g id="shape28-83" transform="translate(112.11,-146.268)">
				<title>工作表.28</title>
				<desc>1</desc>
				<rect x="0" y="182.451" width="24.9449" height="24.9449" class="st1"/>
				<text x="9.65" y="198.52" class="st3">1</text>			</g>
			<g id="shape29-86" transform="translate(192.047,-147.402)">
				<title>工作表.29</title>
				<desc>　比丘尼</desc>
				<rect x="0" y="184.719" width="72" height="22.6772" class="st1"/>
				<text x="20" y="200.86" class="st2">比丘尼</text>			</g>
			<g id="shape30-89" transform="translate(192.047,-146.268)">
				<title>工作表.30</title>
				<desc>2</desc>
				<rect x="0" y="182.451" width="24.9449" height="24.9449" class="st1"/>
				<text x="9.65" y="198.52" class="st3">2</text>			</g>
			<g id="shape31-92" transform="translate(192.047,-37.7008)">
				<title>工作表.31</title>
				<desc>　比丘尼</desc>
				<rect x="0" y="184.719" width="72" height="22.6772" class="st1"/>
				<text x="20" y="200.86" class="st2">比丘尼</text>			</g>
			<g id="shape32-95" transform="translate(192.047,-36.5669)">
				<title>工作表.32</title>
				<desc>5</desc>
				<rect x="0" y="182.451" width="24.9449" height="24.9449" class="st1"/>
				<text x="9.65" y="198.52" class="st3">5</text>			</g>
			<g id="shape33-98" transform="translate(192.047,-110.835)">
				<title>工作表.33</title>
				<desc>　比丘尼</desc>
				<rect x="0" y="184.719" width="72" height="22.6772" class="st1"/>
				<text x="20" y="200.86" class="st2">比丘尼</text>			</g>
			<g id="shape34-101" transform="translate(192.047,-109.701)">
				<title>工作表.34</title>
				<desc>2</desc>
				<rect x="0" y="182.451" width="24.9449" height="24.9449" class="st1"/>
				<text x="9.65" y="198.52" class="st3">2</text>			</g>
			<g id="shape35-104" transform="translate(192.047,-74.2677)">
				<title>工作表.35</title>
				<desc>　比丘尼</desc>
				<rect x="0" y="184.719" width="72" height="22.6772" class="st1"/>
				<text x="20" y="200.86" class="st2">比丘尼</text>			</g>
			<g id="shape36-107" transform="translate(192.047,-73.1339)">
				<title>工作表.36</title>
				<desc>2</desc>
				<rect x="0" y="182.451" width="24.9449" height="24.9449" class="st1"/>
				<text x="9.65" y="198.52" class="st3">2</text>			</g>
			<g id="shape37-110" transform="translate(288.142,-37.7008)">
				<title>工作表.37</title>
				<desc>　七法‧　八法‧　雜誦</desc>
				<rect x="0" y="184.719" width="184.252" height="22.6772" class="st1"/>
				<text x="20.13" y="200.86" class="st2">七法‧　八法‧　雜誦</text>			</g>
			<g id="shape38-113" transform="translate(288.142,-37.7008)">
				<title>工作表.38</title>
				<desc>2</desc>
				<rect x="0" y="184.719" width="24.9449" height="22.6772" class="st1"/>
				<text x="9.65" y="199.66" class="st3">2</text>			</g>
			<g id="shape39-116" transform="translate(288.142,-74.2677)">
				<title>工作表.39</title>
				<desc>　二十犍度‧　二結集</desc>
				<rect x="0" y="184.719" width="168.094" height="22.6772" class="st1"/>
				<text x="20.05" y="200.86" class="st2">二十犍度‧　二結集</text>			</g>
			<g id="shape40-119" transform="translate(288.142,-73.1339)">
				<title>工作表.40</title>
				<desc>3</desc>
				<rect x="0" y="182.451" width="24.9449" height="24.9449" class="st1"/>
				<text x="9.65" y="198.52" class="st3">3</text>			</g>
			<g id="shape41-122" transform="translate(288.142,-110.835)">
				<title>工作表.41</title>
				<desc>　二十二犍度</desc>
				<rect x="0" y="184.719" width="104.031" height="22.6772" class="st1"/>
				<text x="20.02" y="200.86" class="st2">二十二犍度</text>			</g>
			<g id="shape42-125" transform="translate(288.142,-109.701)">
				<title>工作表.42</title>
				<desc>3</desc>
				<rect x="0" y="182.451" width="24.9449" height="24.9449" class="st1"/>
				<text x="9.65" y="198.52" class="st3">3</text>			</g>
			<g id="shape43-128" transform="translate(288.142,-147.402)">
				<title>工作表.43</title>
				<desc>　二十一法</desc>
				<rect x="0" y="184.719" width="88.1575" height="22.6772" class="st1"/>
				<text x="20.08" y="200.86" class="st2">二十一法</text>			</g>
			<g id="shape44-131" transform="translate(288.142,-146.268)">
				<title>工作表.44</title>
				<desc>3</desc>
				<rect x="0" y="182.451" width="24.9449" height="24.9449" class="st1"/>
				<text x="9.65" y="198.52" class="st3">3</text>			</g>
			<g id="shape45-134" transform="translate(496.063,-37.7008)">
				<title>工作表.45</title>
				<desc>　增一等多種</desc>
				<rect x="0" y="184.719" width="104.031" height="22.6772" class="st1"/>
				<text x="20.02" y="200.86" class="st2">增一等多種</text>			</g>
			<g id="shape46-137" transform="translate(496.063,-36.5669)">
				<title>工作表.46</title>
				<desc>6</desc>
				<rect x="0" y="182.451" width="24.9449" height="24.9449" class="st1"/>
				<text x="9.65" y="198.52" class="st3">6</text>			</g>
			<g id="shape47-140" transform="translate(496.063,-74.2677)">
				<title>工作表.47</title>
				<desc>　增一‧　調部</desc>
				<rect x="0" y="184.719" width="120.189" height="22.6772" class="st1"/>
				<text x="20.09" y="200.86" class="st2">增一‧　調部</text>			</g>
			<g id="shape48-143" transform="translate(496.063,-73.1339)">
				<title>工作表.48</title>
				<desc>5</desc>
				<rect x="0" y="182.451" width="24.9449" height="24.9449" class="st1"/>
				<text x="9.65" y="198.52" class="st3">5</text>			</g>
			<g id="shape49-146" transform="translate(496.063,-110.835)">
				<title>工作表.49</title>
				<desc>　十九章</desc>
				<rect x="0" y="184.719" width="72" height="22.6772" class="st1"/>
				<text x="20" y="200.86" class="st2">十九章</text>			</g>
			<g id="shape50-149" transform="translate(496.063,-109.701)">
				<title>工作表.50</title>
				<desc>4</desc>
				<rect x="0" y="182.451" width="24.9449" height="24.9449" class="st1"/>
				<text x="9.65" y="198.52" class="st3">4</text>			</g>
			<g id="shape53-152" transform="translate(352.205,-183.969)">
				<title>工作表.53</title>
				<desc>〔犍度〕</desc>
				<rect x="0" y="184.719" width="72" height="22.6772" class="st1"/>
				<text x="4" y="200.86" class="st2">〔犍度〕</text>			</g>
			<g id="shape54-155" transform="translate(520.016,-183.969)">
				<title>工作表.54</title>
				<desc>〔附隨〕</desc>
				<rect x="0" y="184.719" width="72" height="22.6772" class="st1"/>
				<text x="4" y="200.86" class="st2">〔附隨〕</text>			</g>
			<g id="shape51-158" transform="translate(383.669,-74.2677)">
				<title>工作表.51</title>
				<desc>4</desc>
				<rect x="0" y="184.719" width="24.9449" height="22.6772" class="st1"/>
				<text x="9.65" y="199.66" class="st3">4</text>			</g>
			<g id="shape52-161" transform="translate(351.78,-37.7008)">
				<title>工作表.52</title>
				<desc>3</desc>
				<rect x="0" y="184.719" width="24.9449" height="22.6772" class="st1"/>
				<text x="9.65" y="199.66" class="st3">3</text>			</g>
			<g id="shape55-164" transform="translate(415.701,-37.7008)">
				<title>工作表.55</title>
				<desc>4</desc>
				<rect x="0" y="184.719" width="24.9449" height="22.6772" class="st1"/>
				<text x="9.65" y="199.66" class="st3">4</text>			</g>
			<g id="shape56-167" transform="translate(559.559,-73.1339)">
				<title>工作表.56</title>
				<desc>6</desc>
				<rect x="0" y="182.451" width="24.9449" height="24.9449" class="st1"/>
				<text x="9.65" y="198.52" class="st3">6</text>			</g>
		</g>
	</g>
</svg>
