<?xml version="1.0" encoding="UTF-8" standalone="no"?>
<!DOCTYPE svg PUBLIC "-//W3C//DTD SVG 1.1//EN" "http://www.w3.org/Graphics/SVG/1.1/DTD/svg11.dtd">
<!-- 由 Microsoft Visio, SVG Export 產生 y35.0366-h.svg 頁-1 -->
<svg xmlns="http://www.w3.org/2000/svg" xmlns:xlink="http://www.w3.org/1999/xlink" xmlns:ev="http://www.w3.org/2001/xml-events"
		width="8.57538in" height="5.40412in" viewBox="0 0 617.427 389.096" xml:space="preserve" color-interpolation-filters="sRGB"
		class="st5">
	<style type="text/css">
	<![CDATA[
		.st1 {fill:none;stroke:none;stroke-linecap:round;stroke-linejoin:round;stroke-width:0.75}
		.st2 {fill:#000000;font-family:新細明體;font-size:1.33333em}
		.st3 {fill:#000000;font-family:新細明體;font-size:1.00001em}
		.st4 {stroke:#000000;stroke-linecap:round;stroke-linejoin:round;stroke-width:0.24}
		.st5 {fill:none;fill-rule:evenodd;font-size:12px;overflow:visible;stroke-linecap:square;stroke-miterlimit:3}
	]]>
	</style>

	<g>
		<title>頁-1</title>
		<g id="group56-1" transform="translate(0.375,-0.375)">
			<title>工作表.56</title>
			<g id="shape1-2" transform="translate(208.63,-329.102)">
				<title>工作表.1</title>
				<desc>　和上　弟子　供養和上　</desc>
				<rect x="0" y="366.419" width="200.126" height="22.6772" class="st1"/>
				<text x="20" y="382.56" class="st2">和上　弟子　供養和上</text>			</g>
			<g id="shape2-5" transform="translate(0.566929,-365.669)">
				<title>工作表.2</title>
				<desc>〔僧祇律〕</desc>
				<rect x="0" y="366.419" width="88.1575" height="22.6772" class="st1"/>
				<text x="4" y="382.56" class="st2">〔僧祇律〕</text>			</g>
			<g id="shape3-8" transform="translate(208.63,-365.669)">
				<title>工作表.3</title>
				<desc>〔毘尼摩得勒伽〕</desc>
				<rect x="0" y="366.419" width="136.063" height="22.6772" class="st1"/>
				<text x="4" y="382.56" class="st2">〔毘尼摩得勒伽〕</text>			</g>
			<g id="shape4-11" transform="translate(416.551,-365.669)">
				<title>工作表.4</title>
				<desc>〔毘尼母經〕</desc>
				<rect x="0" y="366.419" width="104.031" height="22.6772" class="st1"/>
				<text x="4" y="382.56" class="st2">〔毘尼母經〕</text>			</g>
			<g id="shape7-14" transform="translate(336.472,-365.669)">
				<title>工作表.7</title>
				<desc>①</desc>
				<rect x="0" y="366.419" width="24.378" height="22.6772" class="st1"/>
				<text x="6.19" y="381.36" class="st3">①</text>			</g>
			<g id="shape8-17" transform="translate(0.566929,-292.535)">
				<title>工作表.8</title>
				<desc>　弟子法有關依止部分</desc>
				<rect x="0" y="366.419" width="200.126" height="22.6772" class="st1"/>
				<text x="20" y="382.56" class="st2">弟子法（有關依止部分，</text>			</g>
			<g id="shape9-20" transform="translate(0.566929,-255.969)">
				<title>工作表.9</title>
				<desc>　綜合在內</desc>
				<rect x="0" y="366.419" width="104.031" height="22.6772" class="st1"/>
				<text x="20" y="382.56" class="st2">綜合在內）</text>			</g>
			<g id="shape5-23" transform="translate(0.566929,-329.102)">
				<title>工作表.5</title>
				<desc>　和上阿闍黎共住弟子依止</desc>
				<rect x="0" y="366.419" width="200.126" height="22.6772" class="st1"/>
				<text x="20" y="382.56" class="st2">和上阿闍黎共住弟子依止</text>			</g>
			<g id="shape6-26" transform="translate(-2.19824E-14,-329.102)">
				<title>工作表.6</title>
				<desc>4 3</desc>
				<rect x="0" y="366.419" width="25.5118" height="22.6772" class="st1"/>
				<text x="5.56" y="381.36" class="st3">4 3</text>			</g>
			<g id="shape12-29" transform="translate(0.566929,-219.402)">
				<title>工作表.12</title>
				<desc>　沙彌法此上是「雜誦跋</desc>
				<rect x="0" y="366.419" width="200.126" height="22.6772" class="st1"/>
				<text x="20" y="382.56" class="st2">沙彌法（此上是「雜誦跋</text>			</g>
			<g id="shape13-32" transform="translate(4.89608E-13,-219.402)">
				<title>工作表.13</title>
				<desc>4 4</desc>
				<rect x="0" y="366.419" width="25.5118" height="22.6772" class="st1"/>
				<text x="5.56" y="381.36" class="st3">4 4</text>			</g>
			<g id="shape10-35" transform="translate(0.566929,-182.835)">
				<title>工作表.10</title>
				<desc>　渠法」</desc>
				<rect x="0" y="366.419" width="104.031" height="22.6772" class="st1"/>
				<text x="20" y="382.56" class="st2">渠法」）</text>			</g>
			<g id="shape11-38" transform="translate(0.566929,-146.268)">
				<title>工作表.11</title>
				<desc>　和上教共行弟子　共行弟</desc>
				<rect x="0" y="366.419" width="200.126" height="22.6772" class="st1"/>
				<text x="20" y="382.56" class="st2">和上教共行弟子　共行弟</text>			</g>
			<g id="shape14-41" transform="translate(6.11511E-13,-146.268)">
				<title>工作表.14</title>
				<desc>7</desc>
				<rect x="0" y="366.419" width="25.5118" height="22.6772" class="st1"/>
				<text x="9.94" y="381.36" class="st3">7</text>			</g>
			<g id="shape15-44" transform="translate(128.693,-146.268)">
				<title>工作表.15</title>
				<desc>8</desc>
				<rect x="0" y="366.419" width="24.378" height="22.6772" class="st1"/>
				<text x="9.37" y="381.36" class="st3">8</text>			</g>
			<g id="shape16-47" transform="translate(0.566929,-109.701)">
				<title>工作表.16</title>
				<desc>　子事和上</desc>
				<rect x="0" y="366.419" width="88.1575" height="22.6772" class="st1"/>
				<text x="20" y="382.56" class="st2">子事和上</text>			</g>
			<g id="shape17-50" transform="translate(0.566929,-73.1339)">
				<title>工作表.17</title>
				<desc>　阿闍黎教依止弟子　依止</desc>
				<rect x="0" y="366.419" width="200.126" height="22.6772" class="st1"/>
				<text x="20" y="382.56" class="st2">阿闍黎教依止弟子　依止</text>			</g>
			<g id="shape18-53" transform="translate(8.71303E-13,-73.7008)">
				<title>工作表.18</title>
				<desc>9</desc>
				<rect x="0" y="366.419" width="25.5118" height="22.6772" class="st1"/>
				<text x="9.94" y="381.36" class="st3">9</text>			</g>
			<g id="shape19-56" transform="translate(144.283,-73.1339)">
				<title>工作表.19</title>
				<desc>1 0</desc>
				<rect x="0" y="366.419" width="24.378" height="22.6772" class="st1"/>
				<text x="4.99" y="381.36" class="st3">1 0</text>			</g>
			<g id="shape20-59" transform="translate(0.566929,-36.5669)">
				<title>工作表.20</title>
				<desc>　弟子事阿闍黎</desc>
				<rect x="0" y="366.419" width="120.189" height="22.6772" class="st1"/>
				<text x="20" y="382.56" class="st2">弟子事阿闍黎</text>			</g>
			<g id="shape21-62" transform="translate(28.4882,0)">
				<title>工作表.21</title>
				<desc>此上是「威儀法」</desc>
				<rect x="0" y="366.419" width="168.094" height="22.6772" class="st1"/>
				<text x="4" y="382.56" class="st2">（此上是「威儀法」）</text>			</g>
			<g id="shape22-65" transform="translate(208.63,-329.102)">
				<title>工作表.22</title>
				<desc>158</desc>
				<rect x="0" y="366.419" width="25.5118" height="22.6772" class="st1"/>
				<text x="4.3" y="381.36" class="st3">158</text>			</g>
			<g id="shape23-68" transform="translate(255.969,-329.102)">
				<title>工作表.23</title>
				<desc>159</desc>
				<rect x="0" y="366.419" width="25.5118" height="22.6772" class="st1"/>
				<text x="4.3" y="381.36" class="st3">159</text>			</g>
			<g id="shape24-71" transform="translate(303.874,-329.102)">
				<title>工作表.24</title>
				<desc>160</desc>
				<rect x="0" y="366.419" width="25.5118" height="22.6772" class="st1"/>
				<text x="4.3" y="381.36" class="st3">160</text>			</g>
			<g id="shape25-74" transform="translate(208.63,-292.535)">
				<title>工作表.25</title>
				<desc>　阿闍黎　近住弟子　和上</desc>
				<rect x="0" y="366.419" width="200.126" height="22.6772" class="st1"/>
				<text x="20" y="382.56" class="st2">阿闍黎　近住弟子　和上</text>			</g>
			<g id="shape26-77" transform="translate(383.244,-329.102)">
				<title>工作表.26</title>
				<desc>161</desc>
				<rect x="0" y="366.419" width="25.5118" height="22.6772" class="st1"/>
				<text x="4.3" y="381.36" class="st3">161</text>			</g>
			<g id="shape27-80" transform="translate(271.843,-292.535)">
				<title>工作表.27</title>
				<desc>162</desc>
				<rect x="0" y="366.419" width="25.5118" height="22.6772" class="st1"/>
				<text x="4.3" y="381.36" class="st3">162</text>			</g>
			<g id="shape28-83" transform="translate(351.78,-292.535)">
				<title>工作表.28</title>
				<desc>163</desc>
				<rect x="0" y="366.419" width="25.5118" height="22.6772" class="st1"/>
				<text x="4.3" y="381.36" class="st3">163</text>			</g>
			<g id="shape29-86" transform="translate(208.63,-255.969)">
				<title>工作表.29</title>
				<desc>　阿闍黎共行弟子近住弟子</desc>
				<rect x="0" y="366.419" width="200.126" height="22.6772" class="st1"/>
				<text x="20" y="382.56" class="st2">阿闍黎共行弟子近住弟子</text>			</g>
			<g id="shape30-89" transform="translate(208.63,-219.402)">
				<title>工作表.30</title>
				<desc>　沙彌　依止　與依止　受</desc>
				<rect x="0" y="366.419" width="200.126" height="22.6772" class="st1"/>
				<text x="20" y="382.56" class="st2">沙彌　依止　與依止　受</text>			</g>
			<g id="shape31-92" transform="translate(208.63,-219.402)">
				<title>工作表.31</title>
				<desc>164</desc>
				<rect x="0" y="366.419" width="25.5118" height="22.6772" class="st1"/>
				<text x="4.3" y="381.36" class="st3">164</text>			</g>
			<g id="shape32-95" transform="translate(255.969,-219.402)">
				<title>工作表.32</title>
				<desc>154</desc>
				<rect x="0" y="366.419" width="25.5118" height="22.6772" class="st1"/>
				<text x="4.3" y="381.36" class="st3">154</text>			</g>
			<g id="shape33-98" transform="translate(303.874,-219.402)">
				<title>工作表.33</title>
				<desc>156</desc>
				<rect x="0" y="366.419" width="25.5118" height="22.6772" class="st1"/>
				<text x="4.3" y="381.36" class="st3">156</text>			</g>
			<g id="shape34-101" transform="translate(367.937,-219.402)">
				<title>工作表.34</title>
				<desc>155</desc>
				<rect x="0" y="366.419" width="25.5118" height="22.6772" class="st1"/>
				<text x="4.3" y="381.36" class="st3">155</text>			</g>
			<g id="shape35-104" transform="translate(208.63,-182.835)">
				<title>工作表.35</title>
				<desc>　依止　捨依止</desc>
				<rect x="0" y="366.419" width="120.189" height="22.6772" class="st1"/>
				<text x="20" y="382.56" class="st2">依止　捨依止</text>			</g>
			<g id="shape36-107" transform="translate(255.969,-182.835)">
				<title>工作表.36</title>
				<desc>157</desc>
				<rect x="0" y="366.419" width="25.5118" height="22.6772" class="st1"/>
				<text x="4.3" y="381.36" class="st3">157</text>			</g>
			<g id="shape37-110" transform="translate(208.63,-146.268)">
				<title>工作表.37</title>
				<desc>　和上　共行弟子</desc>
				<rect x="0" y="366.419" width="136.063" height="22.6772" class="st1"/>
				<text x="20" y="382.56" class="st2">和上　共行弟子</text>			</g>
			<g id="shape38-113" transform="translate(208.63,-146.268)">
				<title>工作表.38</title>
				<desc>275</desc>
				<rect x="0" y="366.419" width="25.5118" height="22.6772" class="st1"/>
				<text x="4.3" y="381.36" class="st3">275</text>			</g>
			<g id="shape39-116" transform="translate(255.969,-146.268)">
				<title>工作表.39</title>
				<desc>276</desc>
				<rect x="0" y="366.419" width="25.5118" height="22.6772" class="st1"/>
				<text x="4.3" y="381.36" class="st3">276</text>			</g>
			<g id="shape40-119" transform="translate(208.63,-73.1339)">
				<title>工作表.40</title>
				<desc>　阿闍黎　近住弟子</desc>
				<rect x="0" y="366.419" width="152.22" height="22.6772" class="st1"/>
				<text x="20" y="382.56" class="st2">阿闍黎　近住弟子</text>			</g>
			<g id="shape41-122" transform="translate(208.63,-73.1339)">
				<title>工作表.41</title>
				<desc>277</desc>
				<rect x="0" y="366.419" width="25.5118" height="22.6772" class="st1"/>
				<text x="4.3" y="381.36" class="st3">277</text>			</g>
			<g id="shape42-125" transform="translate(271.843,-73.1339)">
				<title>工作表.42</title>
				<desc>278</desc>
				<rect x="0" y="366.419" width="25.5118" height="22.6772" class="st1"/>
				<text x="4.3" y="381.36" class="st3">278</text>			</g>
			<g id="shape43-128" transform="translate(208.63,-5.11591E-13)">
				<title>工作表.43</title>
				<desc>　沙彌</desc>
				<rect x="0" y="366.419" width="56.126" height="22.6772" class="st1"/>
				<text x="20" y="382.56" class="st2">沙彌</text>			</g>
			<g id="shape44-131" transform="translate(208.63,-3.97904E-13)">
				<title>工作表.44</title>
				<desc>279</desc>
				<rect x="0" y="366.419" width="25.5118" height="22.6772" class="st1"/>
				<text x="4.3" y="381.36" class="st3">279</text>			</g>
			<g id="shape45-134" transform="translate(416.551,-182.835)">
				<title>工作表.45</title>
				<desc>　失依止</desc>
				<rect x="0" y="366.419" width="72" height="22.6772" class="st1"/>
				<text x="20" y="382.56" class="st2">失依止</text>			</g>
			<g id="shape46-137" transform="translate(416.551,-182.835)">
				<title>工作表.46</title>
				<desc>217</desc>
				<rect x="0" y="366.419" width="25.5118" height="22.6772" class="st1"/>
				<text x="4.3" y="381.36" class="st3">217</text>			</g>
			<g id="shape47-140" transform="translate(416.551,-1.3074E-12)">
				<title>工作表.47</title>
				<desc>　沙彌法</desc>
				<rect x="0" y="366.419" width="72" height="22.6772" class="st1"/>
				<text x="20" y="382.56" class="st2">沙彌法</text>			</g>
			<g id="shape48-143" transform="translate(416.551,-1.19371E-12)">
				<title>工作表.48</title>
				<desc>208</desc>
				<rect x="0" y="366.419" width="25.5118" height="22.6772" class="st1"/>
				<text x="4.3" y="381.36" class="st3">208</text>			</g>
			<g id="shape49-146" transform="translate(416.551,-109.701)">
				<title>工作表.49</title>
				<desc>　尚阿闍黎</desc>
				<rect x="0" y="366.419" width="88.1575" height="22.6772" class="st1"/>
				<text x="20" y="382.56" class="st2">尚阿闍黎</text>			</g>
			<g id="shape50-149" transform="translate(416.551,-146.268)">
				<title>工作表.50</title>
				<desc>　共行弟子共宿弟子奉事和</desc>
				<rect x="0" y="366.419" width="200.126" height="22.6772" class="st1"/>
				<text x="20" y="382.56" class="st2">共行弟子共宿弟子奉事和</text>			</g>
			<g id="shape51-152" transform="translate(416.551,-146.268)">
				<title>工作表.51</title>
				<desc>206</desc>
				<rect x="0" y="366.419" width="25.5118" height="22.6772" class="st1"/>
				<text x="4.3" y="381.36" class="st3">206</text>			</g>
			<g id="shape52-155" transform="translate(416.551,-73.1339)">
				<title>工作表.52</title>
				<desc>　和尚阿闍黎畜弟子法</desc>
				<rect x="0" y="366.419" width="168.094" height="22.6772" class="st1"/>
				<text x="20" y="382.56" class="st2">和尚阿闍黎畜弟子法</text>			</g>
			<g id="shape53-158" transform="translate(416.551,-73.1339)">
				<title>工作表.53</title>
				<desc>207</desc>
				<rect x="0" y="366.419" width="25.5118" height="22.6772" class="st1"/>
				<text x="4.3" y="381.36" class="st3">207</text>			</g>
			<g id="shape54-161" transform="translate(-180.467,385.128) rotate(-90)">
				<title>工作表.54</title>
				<path d="M0 389.1 L343.98 389.1" class="st4"/>
			</g>
			<g id="shape55-164" transform="translate(27.4547,385.128) rotate(-90)">
				<title>工作表.55</title>
				<path d="M0 389.1 L343.98 389.1" class="st4"/>
			</g>
		</g>
	</g>
</svg>
