<?xml version="1.0" encoding="UTF-8" standalone="no"?>
<!DOCTYPE svg PUBLIC "-//W3C//DTD SVG 1.1//EN" "http://www.w3.org/Graphics/SVG/1.1/DTD/svg11.dtd">
<!-- 由 Microsoft Visio, SVG Export 產生 y35.0324-h.svg 頁-1 -->
<svg xmlns="http://www.w3.org/2000/svg" xmlns:xlink="http://www.w3.org/1999/xlink" xmlns:ev="http://www.w3.org/2001/xml-events"
		width="8.44933in" height="4.90729in" viewBox="0 0 608.352 353.325" xml:space="preserve" color-interpolation-filters="sRGB"
		class="st4">
	<style type="text/css">
	<![CDATA[
		.st1 {fill:none;stroke:none;stroke-linecap:round;stroke-linejoin:round;stroke-width:0.75}
		.st2 {fill:#000000;font-family:新細明體;font-size:1.33333em}
		.st3 {stroke:#000000;stroke-linecap:round;stroke-linejoin:round;stroke-width:0.24}
		.st4 {fill:none;fill-rule:evenodd;font-size:12px;overflow:visible;stroke-linecap:square;stroke-miterlimit:3}
	]]>
	</style>

	<g>
		<title>頁-1</title>
		<g id="group63-1" transform="translate(0.375,-0.375)">
			<title>工作表.63</title>
			<g id="shape8-2" transform="translate(0.992126,-296.166)">
				<title>工作表.8</title>
				<desc>受具足────　出　家────　受　戒────　大──────　受　戒</desc>
				<rect x="0" y="333.483" width="600.094" height="19.8425" class="st1"/>
				<text x="20.62" y="348.2" class="st2">受具足────　出　家────　受　戒────　大──────　受　戒</text>			</g>
			<g id="shape1-5" transform="translate(0.992126,-259.599)">
				<title>工作表.1</title>
				<desc>布　薩────　布　薩────　說　戒────　布　薩────　布　薩</desc>
				<rect x="0" y="333.483" width="600.094" height="19.8425" class="st1"/>
				<text x="20.62" y="348.2" class="st2">布　薩────　布　薩────　說　戒────　布　薩────　布　薩</text>			</g>
			<g id="shape2-8" transform="translate(0.992126,-332.733)">
				<title>工作表.2</title>
				<desc>〔十誦律〕</desc>
				<rect x="0" y="333.483" width="88.1575" height="19.8425" class="st1"/>
				<text x="4" y="348.2" class="st2">〔十誦律〕</text>			</g>
			<g id="shape3-11" transform="translate(256.961,-332.733)">
				<title>工作表.3</title>
				<desc>〔四分律〕</desc>
				<rect x="0" y="333.483" width="88.1575" height="19.8425" class="st1"/>
				<text x="4" y="348.2" class="st2">〔四分律〕</text>			</g>
			<g id="shape4-14" transform="translate(384.945,-332.733)">
				<title>工作表.4</title>
				<desc>〔銅鍱律〕</desc>
				<rect x="0" y="333.483" width="88.1575" height="19.8425" class="st1"/>
				<text x="4" y="348.2" class="st2">〔銅鍱律〕</text>			</g>
			<g id="shape5-17" transform="translate(512.929,-332.733)">
				<title>工作表.5</title>
				<desc>〔五分律〕</desc>
				<rect x="0" y="333.483" width="88.1575" height="19.8425" class="st1"/>
				<text x="4" y="348.2" class="st2">〔五分律〕</text>			</g>
			<g id="shape6-20" transform="translate(128.976,-332.733)">
				<title>工作表.6</title>
				<desc>〔根有律〕</desc>
				<rect x="0" y="333.483" width="88.1575" height="19.8425" class="st1"/>
				<text x="4" y="348.2" class="st2">〔根有律〕</text>			</g>
			<g id="shape7-23" transform="translate(0.992126,-296.166)">
				<title>工作表.7</title>
				<desc>1.</desc>
				<rect x="0" y="333.483" width="24.378" height="19.8425" class="st1"/>
				<text x="6.55" y="348.2" class="st2">1.</text>			</g>
			<g id="shape9-26" transform="translate(128.976,-296.166)">
				<title>工作表.9</title>
				<desc>1.</desc>
				<rect x="0" y="333.483" width="24.378" height="19.8425" class="st1"/>
				<text x="6.55" y="348.2" class="st2">1.</text>			</g>
			<g id="shape10-29" transform="translate(257.102,-296.166)">
				<title>工作表.10</title>
				<desc>1.</desc>
				<rect x="0" y="333.483" width="24.378" height="19.8425" class="st1"/>
				<text x="6.55" y="348.2" class="st2">1.</text>			</g>
			<g id="shape11-32" transform="translate(384.945,-296.166)">
				<title>工作表.11</title>
				<desc>1.</desc>
				<rect x="0" y="333.483" width="24.378" height="19.8425" class="st1"/>
				<text x="6.55" y="348.2" class="st2">1.</text>			</g>
			<g id="shape12-35" transform="translate(512.787,-296.166)">
				<title>工作表.12</title>
				<desc>1.</desc>
				<rect x="0" y="333.483" width="24.378" height="19.8425" class="st1"/>
				<text x="6.55" y="348.2" class="st2">1.</text>			</g>
			<g id="shape13-38" transform="translate(0.992126,-259.599)">
				<title>工作表.13</title>
				<desc>2.</desc>
				<rect x="0" y="333.483" width="24.378" height="19.8425" class="st1"/>
				<text x="6.55" y="348.2" class="st2">2.</text>			</g>
			<g id="shape14-41" transform="translate(128.976,-259.599)">
				<title>工作表.14</title>
				<desc>2.</desc>
				<rect x="0" y="333.483" width="24.378" height="19.8425" class="st1"/>
				<text x="6.55" y="348.2" class="st2">2.</text>			</g>
			<g id="shape15-44" transform="translate(257.102,-259.599)">
				<title>工作表.15</title>
				<desc>2.</desc>
				<rect x="0" y="333.483" width="24.378" height="19.8425" class="st1"/>
				<text x="6.55" y="348.2" class="st2">2.</text>			</g>
			<g id="shape16-47" transform="translate(384.945,-259.599)">
				<title>工作表.16</title>
				<desc>2.</desc>
				<rect x="0" y="333.483" width="24.378" height="19.8425" class="st1"/>
				<text x="6.55" y="348.2" class="st2">2.</text>			</g>
			<g id="shape17-50" transform="translate(512.787,-259.599)">
				<title>工作表.17</title>
				<desc>2.</desc>
				<rect x="0" y="333.483" width="24.378" height="19.8425" class="st1"/>
				<text x="6.55" y="348.2" class="st2">2.</text>			</g>
			<g id="shape18-53" transform="translate(0.992126,-223.032)">
				<title>工作表.18</title>
				<desc>自　恣────　隨　意────　自　恣────　自　恣────　自　恣</desc>
				<rect x="0" y="333.483" width="600.094" height="19.8425" class="st1"/>
				<text x="20.62" y="348.2" class="st2">自　恣────　隨　意────　自　恣────　自　恣────　自　恣</text>			</g>
			<g id="shape19-56" transform="translate(0.992126,-223.032)">
				<title>工作表.19</title>
				<desc>3.</desc>
				<rect x="0" y="333.483" width="24.378" height="19.8425" class="st1"/>
				<text x="6.55" y="348.2" class="st2">3.</text>			</g>
			<g id="shape20-59" transform="translate(128.976,-223.032)">
				<title>工作表.20</title>
				<desc>3.</desc>
				<rect x="0" y="333.483" width="24.378" height="19.8425" class="st1"/>
				<text x="6.55" y="348.2" class="st2">3.</text>			</g>
			<g id="shape21-62" transform="translate(257.102,-223.032)">
				<title>工作表.21</title>
				<desc>4.</desc>
				<rect x="0" y="333.483" width="24.378" height="19.8425" class="st1"/>
				<text x="6.55" y="348.2" class="st2">4.</text>			</g>
			<g id="shape22-65" transform="translate(384.945,-223.032)">
				<title>工作表.22</title>
				<desc>4.</desc>
				<rect x="0" y="333.483" width="24.378" height="19.8425" class="st1"/>
				<text x="6.55" y="348.2" class="st2">4.</text>			</g>
			<g id="shape23-68" transform="translate(512.787,-223.032)">
				<title>工作表.23</title>
				<desc>4.</desc>
				<rect x="0" y="333.483" width="24.378" height="19.8425" class="st1"/>
				<text x="6.55" y="348.2" class="st2">4.</text>			</g>
			<g id="shape24-71" transform="translate(0.992126,-186.465)">
				<title>工作表.24</title>
				<desc>安　居────　安　居────　安　居────　入雨安居───　安　居</desc>
				<rect x="0" y="333.483" width="600.094" height="19.8425" class="st1"/>
				<text x="20.62" y="348.2" class="st2">安　居────　安　居────　安　居────　入雨安居───　安　居</text>			</g>
			<g id="shape25-74" transform="translate(0.992126,-149.898)">
				<title>工作表.25</title>
				<desc>皮　革────　皮　革────　皮　革────　皮　革────　皮　革</desc>
				<rect x="0" y="333.483" width="600.094" height="19.8425" class="st1"/>
				<text x="20.62" y="348.2" class="st2">皮　革────　皮　革────　皮　革────　皮　革────　皮　革</text>			</g>
			<g id="shape26-77" transform="translate(0.992126,-40.1971)">
				<title>工作表.26</title>
				<desc>衣──────　衣──────　衣──────　衣──────　衣</desc>
				<rect x="0" y="333.483" width="568.063" height="19.8425" class="st1"/>
				<text x="20.62" y="348.2" class="st2">衣──────　衣──────　衣──────　衣──────　衣</text>			</g>
			<g id="shape27-80" transform="translate(0.992126,-186.465)">
				<title>工作表.27</title>
				<desc>4.</desc>
				<rect x="0" y="333.483" width="24.378" height="19.8425" class="st1"/>
				<text x="6.55" y="348.2" class="st2">4.</text>			</g>
			<g id="shape28-83" transform="translate(128.976,-186.465)">
				<title>工作表.28</title>
				<desc>4.</desc>
				<rect x="0" y="333.483" width="24.378" height="19.8425" class="st1"/>
				<text x="6.55" y="348.2" class="st2">4.</text>			</g>
			<g id="shape29-86" transform="translate(257.102,-186.465)">
				<title>工作表.29</title>
				<desc>3.</desc>
				<rect x="0" y="333.483" width="24.378" height="19.8425" class="st1"/>
				<text x="6.55" y="348.2" class="st2">3.</text>			</g>
			<g id="shape30-89" transform="translate(384.945,-186.465)">
				<title>工作表.30</title>
				<desc>3.</desc>
				<rect x="0" y="333.483" width="24.378" height="19.8425" class="st1"/>
				<text x="6.55" y="348.2" class="st2">3.</text>			</g>
			<g id="shape31-92" transform="translate(512.787,-186.465)">
				<title>工作表.31</title>
				<desc>3.</desc>
				<rect x="0" y="333.483" width="24.378" height="19.8425" class="st1"/>
				<text x="6.55" y="348.2" class="st2">3.</text>			</g>
			<g id="shape32-95" transform="translate(0.992126,-149.898)">
				<title>工作表.32</title>
				<desc>5.</desc>
				<rect x="0" y="333.483" width="24.378" height="19.8425" class="st1"/>
				<text x="6.55" y="348.2" class="st2">5.</text>			</g>
			<g id="shape33-98" transform="translate(128.976,-149.898)">
				<title>工作表.33</title>
				<desc>5.</desc>
				<rect x="0" y="333.483" width="24.378" height="19.8425" class="st1"/>
				<text x="6.55" y="348.2" class="st2">5.</text>			</g>
			<g id="shape34-101" transform="translate(257.102,-149.898)">
				<title>工作表.34</title>
				<desc>5.</desc>
				<rect x="0" y="333.483" width="24.378" height="19.8425" class="st1"/>
				<text x="6.55" y="348.2" class="st2">5.</text>			</g>
			<g id="shape35-104" transform="translate(384.945,-149.898)">
				<title>工作表.35</title>
				<desc>5.</desc>
				<rect x="0" y="333.483" width="24.378" height="19.8425" class="st1"/>
				<text x="6.55" y="348.2" class="st2">5.</text>			</g>
			<g id="shape36-107" transform="translate(512.787,-149.898)">
				<title>工作表.36</title>
				<desc>6.</desc>
				<rect x="0" y="333.483" width="24.378" height="19.8425" class="st1"/>
				<text x="6.55" y="348.2" class="st2">6.</text>			</g>
			<g id="shape37-110" transform="translate(1.09912E-13,-40.1971)">
				<title>工作表.37</title>
				<desc>7.</desc>
				<rect x="0" y="333.483" width="24.378" height="19.8425" class="st1"/>
				<text x="6.55" y="348.2" class="st2">7.</text>			</g>
			<g id="shape38-113" transform="translate(129.26,-40.1971)">
				<title>工作表.38</title>
				<desc>7.</desc>
				<rect x="0" y="333.483" width="24.378" height="19.8425" class="st1"/>
				<text x="6.55" y="348.2" class="st2">7.</text>			</g>
			<g id="shape39-116" transform="translate(256.252,-40.1971)">
				<title>工作表.39</title>
				<desc>6.</desc>
				<rect x="0" y="333.483" width="24.378" height="19.8425" class="st1"/>
				<text x="6.55" y="348.2" class="st2">6.</text>			</g>
			<g id="shape40-119" transform="translate(384.378,-40.1971)">
				<title>工作表.40</title>
				<desc>8.</desc>
				<rect x="0" y="333.483" width="24.378" height="19.8425" class="st1"/>
				<text x="6.55" y="348.2" class="st2">8.</text>			</g>
			<g id="shape41-122" transform="translate(513.638,-40.1971)">
				<title>工作表.41</title>
				<desc>5.</desc>
				<rect x="0" y="333.483" width="24.378" height="19.8425" class="st1"/>
				<text x="6.55" y="348.2" class="st2">5.</text>			</g>
			<g id="shape42-125" transform="translate(0.992126,-95.0475)">
				<title>工作表.42</title>
				<desc>醫　藥────　藥──────　藥──────　藥</desc>
				<rect x="0" y="333.483" width="440.22" height="19.8425" class="st1"/>
				<text x="20.62" y="348.2" class="st2">醫　藥────　藥──────　藥──────　藥</text>			</g>
			<g id="shape43-128" transform="translate(1.15215,-95.0475)">
				<title>工作表.43</title>
				<desc>6.</desc>
				<rect x="0" y="333.483" width="24.378" height="19.8425" class="st1"/>
				<text x="6.55" y="348.2" class="st2">6.</text>			</g>
			<g id="shape44-131" transform="translate(129.26,-95.0475)">
				<title>工作表.44</title>
				<desc>6.</desc>
				<rect x="0" y="333.483" width="24.378" height="19.8425" class="st1"/>
				<text x="6.55" y="348.2" class="st2">6.</text>			</g>
			<g id="shape45-134" transform="translate(253.984,-95.0475)">
				<title>工作表.45</title>
				<desc>7.</desc>
				<rect x="0" y="333.483" width="24.378" height="19.8425" class="st1"/>
				<text x="6.55" y="348.2" class="st2">7.</text>			</g>
			<g id="shape46-137" transform="translate(383.244,-95.0475)">
				<title>工作表.46</title>
				<desc>6.</desc>
				<rect x="0" y="333.483" width="24.378" height="19.8425" class="st1"/>
				<text x="6.55" y="348.2" class="st2">6.</text>			</g>
			<g id="shape47-140" transform="translate(512.787,-113.331)">
				<title>工作表.47</title>
				<desc>藥</desc>
				<rect x="0" y="333.483" width="56.126" height="19.8425" class="st1"/>
				<text x="20.62" y="348.2" class="st2">藥</text>			</g>
			<g id="shape48-143" transform="translate(512.787,-76.764)">
				<title>工作表.48</title>
				<desc>食</desc>
				<rect x="0" y="333.483" width="56.126" height="19.8425" class="st1"/>
				<text x="20.62" y="348.2" class="st2">食</text>			</g>
			<g id="shape49-146" transform="translate(512.787,-113.331)">
				<title>工作表.49</title>
				<desc>7.</desc>
				<rect x="0" y="333.483" width="24.378" height="19.8425" class="st1"/>
				<text x="6.55" y="348.2" class="st2">7.</text>			</g>
			<g id="shape50-149" transform="translate(512.787,-76.764)">
				<title>工作表.50</title>
				<desc>8.</desc>
				<rect x="0" y="333.483" width="24.378" height="19.8425" class="st1"/>
				<text x="6.55" y="348.2" class="st2">8.</text>			</g>
			<g id="shape51-152" transform="translate(440.703,612.533) rotate(-168.228)">
				<title>工作表.51</title>
				<path d="M0 353.33 L89.62 353.33" class="st3"/>
			</g>
			<g id="shape52-155" transform="translate(584.872,575.966) rotate(168.228)">
				<title>工作表.52</title>
				<path d="M0 353.33 L89.62 353.33" class="st3"/>
			</g>
			<g id="shape55-158" transform="translate(0.393187,0)">
				<title>工作表.55</title>
				<desc>迦絺那衣───　迦絺那衣───　迦絺那衣───　迦絺那衣───　迦絺那衣</desc>
				<rect x="0" y="333.483" width="607.209" height="19.8425" class="st1"/>
				<text x="20.62" y="348.2" class="st2">迦絺那衣───　迦絺那衣───　迦絺那衣───　迦絺那衣───　迦絺那衣</text>			</g>
			<g id="shape58-161" transform="translate(0.141732,-5.68434E-14)">
				<title>工作表.58</title>
				<desc>8.</desc>
				<rect x="0" y="333.483" width="24.378" height="19.8425" class="st1"/>
				<text x="6.55" y="348.2" class="st2">8.</text>			</g>
			<g id="shape59-164" transform="translate(129.685,0)">
				<title>工作表.59</title>
				<desc>8.</desc>
				<rect x="0" y="333.483" width="24.378" height="19.8425" class="st1"/>
				<text x="6.55" y="348.2" class="st2">8.</text>			</g>
			<g id="shape60-167" transform="translate(256.174,0)">
				<title>工作表.60</title>
				<desc>8.</desc>
				<rect x="0" y="333.483" width="24.378" height="19.8425" class="st1"/>
				<text x="6.55" y="348.2" class="st2">8.</text>			</g>
			<g id="shape61-170" transform="translate(384.282,-0.502921)">
				<title>工作表.61</title>
				<desc>7.</desc>
				<rect x="0" y="333.483" width="24.378" height="19.8425" class="st1"/>
				<text x="6.55" y="348.2" class="st2">7.</text>			</g>
			<g id="shape62-173" transform="translate(514.218,0)">
				<title>工作表.62</title>
				<desc>9.</desc>
				<rect x="0" y="333.483" width="24.378" height="19.8425" class="st1"/>
				<text x="6.55" y="348.2" class="st2">9.</text>			</g>
		</g>
	</g>
</svg>
