<?xml version="1.0" encoding="UTF-8" standalone="no"?>
<!DOCTYPE svg PUBLIC "-//W3C//DTD SVG 1.1//EN" "http://www.w3.org/Graphics/SVG/1.1/DTD/svg11.dtd">
<!-- 由 Microsoft Visio, SVG Export 產生 y35.0382.svg 頁-1 -->
<svg xmlns="http://www.w3.org/2000/svg" xmlns:xlink="http://www.w3.org/1999/xlink" xmlns:ev="http://www.w3.org/2001/xml-events"
		width="7.90412in" height="8.41199in" viewBox="0 0 569.096 605.663" xml:space="preserve" color-interpolation-filters="sRGB"
		class="st4">
	<style type="text/css">
	<![CDATA[
		.st1 {fill:none;stroke:none;stroke-linecap:round;stroke-linejoin:round;stroke-width:0.75}
		.st2 {fill:#000000;font-family:新細明體;font-size:1.33333em}
		.st3 {fill:#000000;font-family:新細明體;font-size:1.00001em}
		.st4 {fill:none;fill-rule:evenodd;font-size:12px;overflow:visible;stroke-linecap:square;stroke-miterlimit:3}
	]]>
	</style>

	<g>
		<title>頁-1</title>
		<g id="shape2-1" transform="translate(0.375,-585.446)">
			<title>工作表.2</title>
			<desc>〔四分律〕</desc>
			<rect x="0" y="585.821" width="88.1575" height="19.8425" class="st1"/>
			<text x="4.08" y="600.54" class="st2">〔四分律〕</text>		</g>
		<g id="shape3-4" transform="translate(128.359,-585.446)">
			<title>工作表.3</title>
			<desc>〔十誦律〕</desc>
			<rect x="0" y="585.821" width="88.1575" height="19.8425" class="st1"/>
			<text x="4.08" y="600.54" class="st2">〔十誦律〕</text>		</g>
		<g id="shape4-7" transform="translate(256.344,-585.446)">
			<title>工作表.4</title>
			<desc>〔毘尼摩得勒伽〕</desc>
			<rect x="0" y="585.821" width="152.22" height="19.8425" class="st1"/>
			<text x="12.11" y="600.54" class="st2">〔毘尼摩得勒伽〕</text>		</g>
		<g id="shape5-10" transform="translate(416.501,-585.446)">
			<title>工作表.5</title>
			<desc>〔毘尼母經〕</desc>
			<rect x="0" y="585.821" width="104.031" height="19.8425" class="st1"/>
			<text x="4.02" y="600.54" class="st2">〔毘尼母經〕</text>		</g>
		<g id="shape6-13" transform="translate(0.375,-548.879)">
			<title>工作表.6</title>
			<desc>　犯邊罪</desc>
			<rect x="0" y="585.821" width="72" height="19.8425" class="st1"/>
			<text x="20" y="600.54" class="st2">犯邊罪</text>		</g>
		<g id="shape7-16" transform="translate(0.375,-548.879)">
			<title>工作表.7</title>
			<desc>1</desc>
			<rect x="0" y="585.821" width="24.378" height="19.8425" class="st1"/>
			<text x="9.37" y="599.34" class="st3">1</text>		</g>
		<g id="shape8-19" transform="translate(128.359,-548.879)">
			<title>工作表.8</title>
			<desc>　滅羯磨人</desc>
			<rect x="0" y="585.821" width="88.1575" height="19.8425" class="st1"/>
			<text x="20.08" y="600.54" class="st2">滅羯磨人</text>		</g>
		<g id="shape9-22" transform="translate(128.359,-548.879)">
			<title>工作表.9</title>
			<desc>1 1</desc>
			<rect x="0" y="585.821" width="24.378" height="19.8425" class="st1"/>
			<text x="4.99" y="599.34" class="st3">1 1</text>		</g>
		<g id="shape10-25" transform="translate(256.344,-548.879)">
			<title>工作表.10</title>
			<desc>　不共住本不和合人</desc>
			<rect x="0" y="585.821" width="152.22" height="19.8425" class="st1"/>
			<text x="20.11" y="600.54" class="st2">不共住本不和合人</text>		</g>
		<g id="shape11-28" transform="translate(256.344,-548.879)">
			<title>工作表.11</title>
			<desc>1 0</desc>
			<rect x="0" y="585.821" width="24.378" height="19.8425" class="st1"/>
			<text x="4.99" y="599.34" class="st3">1 0</text>		</g>
		<g id="shape12-31" transform="translate(128.359,-512.312)">
			<title>工作表.12</title>
			<desc>　先破戒</desc>
			<rect x="0" y="585.821" width="72" height="19.8425" class="st1"/>
			<text x="20" y="600.54" class="st2">先破戒</text>		</g>
		<g id="shape13-34" transform="translate(128.359,-512.312)">
			<title>工作表.13</title>
			<desc>6</desc>
			<rect x="0" y="585.821" width="24.378" height="19.8425" class="st1"/>
			<text x="9.37" y="599.34" class="st3">6</text>		</g>
		<g id="shape14-37" transform="translate(416.501,-512.312)">
			<title>工作表.14</title>
			<desc>　曾毀五戒八戒十戒</desc>
			<rect x="0" y="585.821" width="152.22" height="19.8425" class="st1"/>
			<text x="20.11" y="600.54" class="st2">曾毀五戒八戒十戒</text>		</g>
		<g id="shape15-40" transform="translate(416.501,-512.312)">
			<title>工作表.15</title>
			<desc>1</desc>
			<rect x="0" y="585.821" width="24.378" height="19.8425" class="st1"/>
			<text x="9.37" y="599.34" class="st3">1</text>		</g>
		<g id="shape16-43" transform="translate(0.375,-475.745)">
			<title>工作表.16</title>
			<desc>　犯比丘尼</desc>
			<rect x="0" y="585.821" width="88.1575" height="19.8425" class="st1"/>
			<text x="20.08" y="600.54" class="st2">犯比丘尼</text>		</g>
		<g id="shape17-46" transform="translate(0.375,-475.745)">
			<title>工作表.17</title>
			<desc>2</desc>
			<rect x="0" y="585.821" width="24.378" height="19.8425" class="st1"/>
			<text x="9.37" y="599.34" class="st3">2</text>		</g>
		<g id="shape18-49" transform="translate(128.359,-474.895)">
			<title>工作表.18</title>
			<desc>　汙比丘尼</desc>
			<rect x="0" y="585.821" width="88.1575" height="19.8425" class="st1"/>
			<text x="20.08" y="600.54" class="st2">汙比丘尼</text>		</g>
		<g id="shape19-52" transform="translate(128.359,-474.895)">
			<title>工作表.19</title>
			<desc>9</desc>
			<rect x="0" y="585.821" width="24.378" height="19.8425" class="st1"/>
			<text x="9.37" y="599.34" class="st3">9</text>		</g>
		<g id="shape20-55" transform="translate(256.344,-474.895)">
			<title>工作表.20</title>
			<desc>　汙染比丘尼</desc>
			<rect x="0" y="585.821" width="104.031" height="19.8425" class="st1"/>
			<text x="20.02" y="600.54" class="st2">汙染比丘尼</text>		</g>
		<g id="shape21-58" transform="translate(256.344,-474.895)">
			<title>工作表.21</title>
			<desc>8</desc>
			<rect x="0" y="585.821" width="24.378" height="19.8425" class="st1"/>
			<text x="9.37" y="599.34" class="st3">8</text>		</g>
		<g id="shape22-61" transform="translate(416.501,-474.895)">
			<title>工作表.22</title>
			<desc>　破比丘尼淨行</desc>
			<rect x="0" y="585.821" width="120.189" height="19.8425" class="st1"/>
			<text x="20.09" y="600.54" class="st2">破比丘尼淨行</text>		</g>
		<g id="shape23-64" transform="translate(416.501,-474.895)">
			<title>工作表.23</title>
			<desc>2</desc>
			<rect x="0" y="585.821" width="24.378" height="19.8425" class="st1"/>
			<text x="9.37" y="599.34" class="st3">2</text>		</g>
		<g id="shape24-67" transform="translate(0.375,-439.178)">
			<title>工作表.24</title>
			<desc>　賊心入道</desc>
			<rect x="0" y="585.821" width="88.1575" height="19.8425" class="st1"/>
			<text x="20.08" y="600.54" class="st2">賊心入道</text>		</g>
		<g id="shape25-70" transform="translate(0.375,-439.178)">
			<title>工作表.25</title>
			<desc>3</desc>
			<rect x="0" y="585.821" width="24.378" height="19.8425" class="st1"/>
			<text x="9.37" y="599.34" class="st3">3</text>		</g>
		<g id="shape26-73" transform="translate(128.359,-439.178)">
			<title>工作表.26</title>
			<desc>　賊住比丘</desc>
			<rect x="0" y="585.821" width="88.1575" height="19.8425" class="st1"/>
			<text x="20.08" y="600.54" class="st2">賊住比丘</text>		</g>
		<g id="shape27-76" transform="translate(128.359,-439.178)">
			<title>工作表.27</title>
			<desc>7</desc>
			<rect x="0" y="585.821" width="24.378" height="19.8425" class="st1"/>
			<text x="9.37" y="599.34" class="st3">7</text>		</g>
		<g id="shape28-79" transform="translate(256.344,-439.178)">
			<title>工作表.28</title>
			<desc>　賊住</desc>
			<rect x="0" y="585.821" width="56.126" height="19.8425" class="st1"/>
			<text x="20.06" y="600.54" class="st2">賊住</text>		</g>
		<g id="shape29-82" transform="translate(256.344,-439.178)">
			<title>工作表.29</title>
			<desc>9</desc>
			<rect x="0" y="585.821" width="24.378" height="19.8425" class="st1"/>
			<text x="9.37" y="599.34" class="st3">9</text>		</g>
		<g id="shape30-85" transform="translate(416.501,-439.178)">
			<title>工作表.30</title>
			<desc>　自剃頭</desc>
			<rect x="0" y="585.821" width="72" height="19.8425" class="st1"/>
			<text x="20" y="600.54" class="st2">自剃頭</text>		</g>
		<g id="shape31-88" transform="translate(416.501,-439.178)">
			<title>工作表.31</title>
			<desc>3</desc>
			<rect x="0" y="585.821" width="24.378" height="19.8425" class="st1"/>
			<text x="9.37" y="599.34" class="st3">3</text>		</g>
		<g id="shape32-91" transform="translate(416.501,-402.611)">
			<title>工作表.32</title>
			<desc>　越濟人</desc>
			<rect x="0" y="585.821" width="72" height="19.8425" class="st1"/>
			<text x="20" y="600.54" class="st2">越濟人</text>		</g>
		<g id="shape33-94" transform="translate(416.501,-402.611)">
			<title>工作表.33</title>
			<desc>4</desc>
			<rect x="0" y="585.821" width="24.378" height="19.8425" class="st1"/>
			<text x="9.37" y="599.34" class="st3">4</text>		</g>
		<g id="shape34-97" transform="translate(128.359,-402.611)">
			<title>工作表.34</title>
			<desc>　越濟人</desc>
			<rect x="0" y="585.821" width="72" height="19.8425" class="st1"/>
			<text x="20" y="600.54" class="st2">越濟人</text>		</g>
		<g id="shape35-100" transform="translate(128.359,-402.611)">
			<title>工作表.35</title>
			<desc>1 0</desc>
			<rect x="0" y="585.821" width="24.378" height="19.8425" class="st1"/>
			<text x="4.99" y="599.34" class="st3">1 0</text>		</g>
		<g id="shape36-103" transform="translate(0.375,-402.611)">
			<title>工作表.36</title>
			<desc>　壞二道</desc>
			<rect x="0" y="585.821" width="72" height="19.8425" class="st1"/>
			<text x="20" y="600.54" class="st2">壞二道</text>		</g>
		<g id="shape37-106" transform="translate(0.375,-402.611)">
			<title>工作表.37</title>
			<desc>4</desc>
			<rect x="0" y="585.821" width="24.378" height="19.8425" class="st1"/>
			<text x="9.37" y="599.34" class="st3">4</text>		</g>
		<g id="shape38-109" transform="translate(256.344,-402.611)">
			<title>工作表.38</title>
			<desc>　越濟</desc>
			<rect x="0" y="585.821" width="56.126" height="19.8425" class="st1"/>
			<text x="20.06" y="600.54" class="st2">越濟</text>		</g>
		<g id="shape39-112" transform="translate(256.344,-402.611)">
			<title>工作表.39</title>
			<desc>6</desc>
			<rect x="0" y="585.821" width="24.378" height="19.8425" class="st1"/>
			<text x="9.37" y="599.34" class="st3">6</text>		</g>
		<g id="shape40-115" transform="translate(128.359,-366.044)">
			<title>工作表.40</title>
			<desc>　先來不能男</desc>
			<rect x="0" y="585.821" width="104.031" height="19.8425" class="st1"/>
			<text x="20.02" y="600.54" class="st2">先來不能男</text>		</g>
		<g id="shape41-118" transform="translate(128.359,-366.044)">
			<title>工作表.41</title>
			<desc>8</desc>
			<rect x="0" y="585.821" width="24.378" height="19.8425" class="st1"/>
			<text x="9.37" y="599.34" class="st3">8</text>		</g>
		<g id="shape42-121" transform="translate(0.375,-366.044)">
			<title>工作表.42</title>
			<desc>　黃門</desc>
			<rect x="0" y="585.821" width="56.126" height="19.8425" class="st1"/>
			<text x="20.06" y="600.54" class="st2">黃門</text>		</g>
		<g id="shape43-124" transform="translate(0.375,-366.044)">
			<title>工作表.43</title>
			<desc>5</desc>
			<rect x="0" y="585.821" width="24.378" height="19.8425" class="st1"/>
			<text x="9.37" y="599.34" class="st3">5</text>		</g>
		<g id="shape44-127" transform="translate(256.344,-366.044)">
			<title>工作表.44</title>
			<desc>　非男</desc>
			<rect x="0" y="585.821" width="56.126" height="19.8425" class="st1"/>
			<text x="20.06" y="600.54" class="st2">非男</text>		</g>
		<g id="shape45-130" transform="translate(256.344,-366.044)">
			<title>工作表.45</title>
			<desc>7</desc>
			<rect x="0" y="585.821" width="24.378" height="19.8425" class="st1"/>
			<text x="9.37" y="599.34" class="st3">7</text>		</g>
		<g id="shape46-133" transform="translate(416.501,-366.044)">
			<title>工作表.46</title>
			<desc>　黃門</desc>
			<rect x="0" y="585.821" width="56.126" height="19.8425" class="st1"/>
			<text x="20.06" y="600.54" class="st2">黃門</text>		</g>
		<g id="shape47-136" transform="translate(416.501,-366.044)">
			<title>工作表.47</title>
			<desc>5</desc>
			<rect x="0" y="585.821" width="24.378" height="19.8425" class="st1"/>
			<text x="9.37" y="599.34" class="st3">5</text>		</g>
		<g id="shape48-139" transform="translate(0.375,-329.477)">
			<title>工作表.48</title>
			<desc>　殺父</desc>
			<rect x="0" y="585.821" width="56.126" height="19.8425" class="st1"/>
			<text x="20.06" y="600.54" class="st2">殺父</text>		</g>
		<g id="shape49-142" transform="translate(0.375,-329.477)">
			<title>工作表.49</title>
			<desc>6</desc>
			<rect x="0" y="585.821" width="24.378" height="19.8425" class="st1"/>
			<text x="9.37" y="599.34" class="st3">6</text>		</g>
		<g id="shape50-145" transform="translate(256.344,-329.477)">
			<title>工作表.50</title>
			<desc>　殺父</desc>
			<rect x="0" y="585.821" width="56.126" height="19.8425" class="st1"/>
			<text x="20.06" y="600.54" class="st2">殺父</text>		</g>
		<g id="shape51-148" transform="translate(256.344,-329.477)">
			<title>工作表.51</title>
			<desc>1</desc>
			<rect x="0" y="585.821" width="24.378" height="19.8425" class="st1"/>
			<text x="9.37" y="599.34" class="st3">1</text>		</g>
		<g id="shape52-151" transform="translate(416.501,-329.477)">
			<title>工作表.52</title>
			<desc>　殺父</desc>
			<rect x="0" y="585.821" width="56.126" height="19.8425" class="st1"/>
			<text x="20.06" y="600.54" class="st2">殺父</text>		</g>
		<g id="shape53-154" transform="translate(416.501,-329.477)">
			<title>工作表.53</title>
			<desc>6</desc>
			<rect x="0" y="585.821" width="24.378" height="19.8425" class="st1"/>
			<text x="9.37" y="599.34" class="st3">6</text>		</g>
		<g id="shape54-157" transform="translate(0.375,-292.91)">
			<title>工作表.54</title>
			<desc>　殺母</desc>
			<rect x="0" y="585.821" width="56.126" height="19.8425" class="st1"/>
			<text x="20.06" y="600.54" class="st2">殺母</text>		</g>
		<g id="shape55-160" transform="translate(0.375,-292.91)">
			<title>工作表.55</title>
			<desc>7</desc>
			<rect x="0" y="585.821" width="24.378" height="19.8425" class="st1"/>
			<text x="9.37" y="599.34" class="st3">7</text>		</g>
		<g id="shape56-163" transform="translate(128.359,-329.477)">
			<title>工作表.56</title>
			<desc>　殺父</desc>
			<rect x="0" y="585.821" width="56.126" height="19.8425" class="st1"/>
			<text x="20.06" y="600.54" class="st2">殺父</text>		</g>
		<g id="shape57-166" transform="translate(128.359,-329.477)">
			<title>工作表.57</title>
			<desc>1</desc>
			<rect x="0" y="585.821" width="24.378" height="19.8425" class="st1"/>
			<text x="9.37" y="599.34" class="st3">1</text>		</g>
		<g id="shape58-169" transform="translate(128.359,-292.91)">
			<title>工作表.58</title>
			<desc>　殺母</desc>
			<rect x="0" y="585.821" width="56.126" height="19.8425" class="st1"/>
			<text x="20.06" y="600.54" class="st2">殺母</text>		</g>
		<g id="shape59-172" transform="translate(128.359,-292.91)">
			<title>工作表.59</title>
			<desc>2</desc>
			<rect x="0" y="585.821" width="24.378" height="19.8425" class="st1"/>
			<text x="9.37" y="599.34" class="st3">2</text>		</g>
		<g id="shape60-175" transform="translate(256.344,-292.91)">
			<title>工作表.60</title>
			<desc>　殺母</desc>
			<rect x="0" y="585.821" width="56.126" height="19.8425" class="st1"/>
			<text x="20.06" y="600.54" class="st2">殺母</text>		</g>
		<g id="shape61-178" transform="translate(256.344,-292.91)">
			<title>工作表.61</title>
			<desc>2</desc>
			<rect x="0" y="585.821" width="24.378" height="19.8425" class="st1"/>
			<text x="9.37" y="599.34" class="st3">2</text>		</g>
		<g id="shape62-181" transform="translate(416.501,-292.91)">
			<title>工作表.62</title>
			<desc>　殺母</desc>
			<rect x="0" y="585.821" width="56.126" height="19.8425" class="st1"/>
			<text x="20.06" y="600.54" class="st2">殺母</text>		</g>
		<g id="shape63-184" transform="translate(416.501,-292.91)">
			<title>工作表.63</title>
			<desc>7</desc>
			<rect x="0" y="585.821" width="24.378" height="19.8425" class="st1"/>
			<text x="9.37" y="599.34" class="st3">7</text>		</g>
		<g id="shape64-187" transform="translate(0.375,-256.344)">
			<title>工作表.64</title>
			<desc>　殺阿羅漢</desc>
			<rect x="0" y="585.821" width="88.1575" height="19.8425" class="st1"/>
			<text x="20.08" y="600.54" class="st2">殺阿羅漢</text>		</g>
		<g id="shape65-190" transform="translate(0.375,-256.344)">
			<title>工作表.65</title>
			<desc>8</desc>
			<rect x="0" y="585.821" width="24.378" height="19.8425" class="st1"/>
			<text x="9.37" y="599.34" class="st3">8</text>		</g>
		<g id="shape66-193" transform="translate(128.359,-256.344)">
			<title>工作表.66</title>
			<desc>　殺阿羅漢</desc>
			<rect x="0" y="585.821" width="88.1575" height="19.8425" class="st1"/>
			<text x="20.08" y="600.54" class="st2">殺阿羅漢</text>		</g>
		<g id="shape67-196" transform="translate(128.359,-256.344)">
			<title>工作表.67</title>
			<desc>3</desc>
			<rect x="0" y="585.821" width="24.378" height="19.8425" class="st1"/>
			<text x="9.37" y="599.34" class="st3">3</text>		</g>
		<g id="shape68-199" transform="translate(256.344,-256.344)">
			<title>工作表.68</title>
			<desc>　殺阿羅漢</desc>
			<rect x="0" y="585.821" width="88.1575" height="19.8425" class="st1"/>
			<text x="20.08" y="600.54" class="st2">殺阿羅漢</text>		</g>
		<g id="shape69-202" transform="translate(256.344,-256.344)">
			<title>工作表.69</title>
			<desc>3</desc>
			<rect x="0" y="585.821" width="24.378" height="19.8425" class="st1"/>
			<text x="9.37" y="599.34" class="st3">3</text>		</g>
		<g id="shape70-205" transform="translate(416.501,-256.344)">
			<title>工作表.70</title>
			<desc>　殺阿羅漢</desc>
			<rect x="0" y="585.821" width="88.1575" height="19.8425" class="st1"/>
			<text x="20.08" y="600.54" class="st2">殺阿羅漢</text>		</g>
		<g id="shape71-208" transform="translate(416.501,-256.344)">
			<title>工作表.71</title>
			<desc>8</desc>
			<rect x="0" y="585.821" width="24.378" height="19.8425" class="st1"/>
			<text x="9.37" y="599.34" class="st3">8</text>		</g>
		<g id="shape72-211" transform="translate(0.375,-219.777)">
			<title>工作表.72</title>
			<desc>　破僧</desc>
			<rect x="0" y="585.821" width="56.126" height="19.8425" class="st1"/>
			<text x="20.06" y="600.54" class="st2">破僧</text>		</g>
		<g id="shape73-214" transform="translate(0.375,-219.777)">
			<title>工作表.73</title>
			<desc>9</desc>
			<rect x="0" y="585.821" width="24.378" height="19.8425" class="st1"/>
			<text x="9.37" y="599.34" class="st3">9</text>		</g>
		<g id="shape74-217" transform="translate(128.359,-219.777)">
			<title>工作表.74</title>
			<desc>　破僧</desc>
			<rect x="0" y="585.821" width="56.126" height="19.8425" class="st1"/>
			<text x="20.06" y="600.54" class="st2">破僧</text>		</g>
		<g id="shape75-220" transform="translate(128.359,-219.777)">
			<title>工作表.75</title>
			<desc>4</desc>
			<rect x="0" y="585.821" width="24.378" height="19.8425" class="st1"/>
			<text x="9.37" y="599.34" class="st3">4</text>		</g>
		<g id="shape76-223" transform="translate(256.344,-219.777)">
			<title>工作表.76</title>
			<desc>　破僧</desc>
			<rect x="0" y="585.821" width="56.126" height="19.8425" class="st1"/>
			<text x="20.06" y="600.54" class="st2">破僧</text>		</g>
		<g id="shape77-226" transform="translate(256.344,-219.777)">
			<title>工作表.77</title>
			<desc>4</desc>
			<rect x="0" y="585.821" width="24.378" height="19.8425" class="st1"/>
			<text x="9.37" y="599.34" class="st3">4</text>		</g>
		<g id="shape78-229" transform="translate(416.501,-219.777)">
			<title>工作表.78</title>
			<desc>　破和合僧</desc>
			<rect x="0" y="585.821" width="88.1575" height="19.8425" class="st1"/>
			<text x="20.08" y="600.54" class="st2">破和合僧</text>		</g>
		<g id="shape79-232" transform="translate(416.501,-219.777)">
			<title>工作表.79</title>
			<desc>9</desc>
			<rect x="0" y="585.821" width="24.378" height="19.8425" class="st1"/>
			<text x="9.37" y="599.34" class="st3">9</text>		</g>
		<g id="shape80-235" transform="translate(0.375,-183.21)">
			<title>工作表.80</title>
			<desc>　惡心出佛身血</desc>
			<rect x="0" y="585.821" width="120.189" height="19.8425" class="st1"/>
			<text x="20.09" y="600.54" class="st2">惡心出佛身血</text>		</g>
		<g id="shape81-238" transform="translate(0.375,-183.21)">
			<title>工作表.81</title>
			<desc>1 0</desc>
			<rect x="0" y="585.821" width="24.378" height="19.8425" class="st1"/>
			<text x="4.99" y="599.34" class="st3">1 0</text>		</g>
		<g id="shape82-241" transform="translate(128.359,-183.21)">
			<title>工作表.82</title>
			<desc>　惡心出佛身血</desc>
			<rect x="0" y="585.821" width="120.189" height="19.8425" class="st1"/>
			<text x="20.09" y="600.54" class="st2">惡心出佛身血</text>		</g>
		<g id="shape83-244" transform="translate(128.359,-183.21)">
			<title>工作表.83</title>
			<desc>5</desc>
			<rect x="0" y="585.821" width="24.378" height="19.8425" class="st1"/>
			<text x="9.37" y="599.34" class="st3">5</text>		</g>
		<g id="shape84-247" transform="translate(256.344,-183.21)">
			<title>工作表.84</title>
			<desc>　惡心出佛身血</desc>
			<rect x="0" y="585.821" width="120.189" height="19.8425" class="st1"/>
			<text x="20.09" y="600.54" class="st2">惡心出佛身血</text>		</g>
		<g id="shape85-250" transform="translate(256.344,-183.21)">
			<title>工作表.85</title>
			<desc>5</desc>
			<rect x="0" y="585.821" width="24.378" height="19.8425" class="st1"/>
			<text x="9.37" y="599.34" class="st3">5</text>		</g>
		<g id="shape86-253" transform="translate(416.501,-183.21)">
			<title>工作表.86</title>
			<desc>　出佛身血</desc>
			<rect x="0" y="585.821" width="88.1575" height="19.8425" class="st1"/>
			<text x="20.08" y="600.54" class="st2">出佛身血</text>		</g>
		<g id="shape87-256" transform="translate(416.501,-183.21)">
			<title>工作表.87</title>
			<desc>1 0</desc>
			<rect x="0" y="585.821" width="24.378" height="19.8425" class="st1"/>
			<text x="4.99" y="599.34" class="st3">1 0</text>		</g>
		<g id="shape88-259" transform="translate(0.375,-146.643)">
			<title>工作表.88</title>
			<desc>　非人</desc>
			<rect x="0" y="585.821" width="56.126" height="19.8425" class="st1"/>
			<text x="20.06" y="600.54" class="st2">非人</text>		</g>
		<g id="shape89-262" transform="translate(0.375,-146.643)">
			<title>工作表.89</title>
			<desc>1 1</desc>
			<rect x="0" y="585.821" width="24.378" height="19.8425" class="st1"/>
			<text x="4.99" y="599.34" class="st3">1 1</text>		</g>
		<g id="shape90-265" transform="translate(128.359,-146.643)">
			<title>工作表.90</title>
			<desc>　非人</desc>
			<rect x="0" y="585.821" width="56.126" height="19.8425" class="st1"/>
			<text x="20.06" y="600.54" class="st2">非人</text>		</g>
		<g id="shape91-268" transform="translate(128.359,-146.643)">
			<title>工作表.91</title>
			<desc>1 2</desc>
			<rect x="0" y="585.821" width="24.378" height="19.8425" class="st1"/>
			<text x="4.99" y="599.34" class="st3">1 2</text>		</g>
		<g id="shape92-271" transform="translate(256.344,-146.643)">
			<title>工作表.92</title>
			<desc>　化人</desc>
			<rect x="0" y="585.821" width="56.126" height="19.8425" class="st1"/>
			<text x="20.06" y="600.54" class="st2">化人</text>		</g>
		<g id="shape93-274" transform="translate(256.344,-146.643)">
			<title>工作表.93</title>
			<desc>1 3</desc>
			<rect x="0" y="585.821" width="24.378" height="19.8425" class="st1"/>
			<text x="4.99" y="599.34" class="st3">1 3</text>		</g>
		<g id="shape94-277" transform="translate(416.501,-146.643)">
			<title>工作表.94</title>
			<desc>　非人</desc>
			<rect x="0" y="585.821" width="56.126" height="19.8425" class="st1"/>
			<text x="20.06" y="600.54" class="st2">非人</text>		</g>
		<g id="shape95-280" transform="translate(416.501,-146.643)">
			<title>工作表.95</title>
			<desc>1 1</desc>
			<rect x="0" y="585.821" width="24.378" height="19.8425" class="st1"/>
			<text x="4.99" y="599.34" class="st3">1 1</text>		</g>
		<g id="shape96-283" transform="translate(0.375,-110.076)">
			<title>工作表.96</title>
			<desc>　畜生</desc>
			<rect x="0" y="585.821" width="56.126" height="19.8425" class="st1"/>
			<text x="20.06" y="600.54" class="st2">畜生</text>		</g>
		<g id="shape97-286" transform="translate(0.375,-110.076)">
			<title>工作表.97</title>
			<desc>1 2</desc>
			<rect x="0" y="585.821" width="24.378" height="19.8425" class="st1"/>
			<text x="4.99" y="599.34" class="st3">1 2</text>		</g>
		<g id="shape98-289" transform="translate(416.501,-110.076)">
			<title>工作表.98</title>
			<desc>　畜生</desc>
			<rect x="0" y="585.821" width="56.126" height="19.8425" class="st1"/>
			<text x="20.06" y="600.54" class="st2">畜生</text>		</g>
		<g id="shape99-292" transform="translate(416.501,-110.076)">
			<title>工作表.99</title>
			<desc>1 2</desc>
			<rect x="0" y="585.821" width="24.378" height="19.8425" class="st1"/>
			<text x="4.99" y="599.34" class="st3">1 2</text>		</g>
		<g id="shape100-295" transform="translate(0.375,-73.5089)">
			<title>工作表.100</title>
			<desc>　二形</desc>
			<rect x="0" y="585.821" width="56.126" height="19.8425" class="st1"/>
			<text x="20.06" y="600.54" class="st2">二形</text>		</g>
		<g id="shape101-298" transform="translate(0.375,-73.5089)">
			<title>工作表.101</title>
			<desc>1 3</desc>
			<rect x="0" y="585.821" width="24.378" height="19.8425" class="st1"/>
			<text x="4.99" y="599.34" class="st3">1 3</text>		</g>
		<g id="shape102-301" transform="translate(416.501,-73.5089)">
			<title>工作表.102</title>
			<desc>　二根</desc>
			<rect x="0" y="585.821" width="56.126" height="19.8425" class="st1"/>
			<text x="20.06" y="600.54" class="st2">二根</text>		</g>
		<g id="shape103-304" transform="translate(416.501,-73.5089)">
			<title>工作表.103</title>
			<desc>1 3</desc>
			<rect x="0" y="585.821" width="24.378" height="19.8425" class="st1"/>
			<text x="4.99" y="599.34" class="st3">1 3</text>		</g>
		<g id="shape104-307" transform="translate(256.344,-36.9419)">
			<title>工作表.104</title>
			<desc>　不滿二十</desc>
			<rect x="0" y="585.821" width="88.1575" height="19.8425" class="st1"/>
			<text x="20.08" y="600.54" class="st2">不滿二十</text>		</g>
		<g id="shape105-310" transform="translate(256.344,-36.9419)">
			<title>工作表.105</title>
			<desc>1 1</desc>
			<rect x="0" y="585.821" width="24.378" height="19.8425" class="st1"/>
			<text x="4.99" y="599.34" class="st3">1 1</text>		</g>
		<g id="shape106-313" transform="translate(256.344,-0.375)">
			<title>工作表.106</title>
			<desc>　自言非比丘</desc>
			<rect x="0" y="585.821" width="104.031" height="19.8425" class="st1"/>
			<text x="20.02" y="600.54" class="st2">自言非比丘</text>		</g>
		<g id="shape107-316" transform="translate(256.344,-0.375)">
			<title>工作表.107</title>
			<desc>1 2</desc>
			<rect x="0" y="585.821" width="24.378" height="19.8425" class="st1"/>
			<text x="4.99" y="599.34" class="st3">1 2</text>		</g>
	</g>
</svg>
