<?xml version="1.0" encoding="UTF-8" standalone="no"?>
<!DOCTYPE svg PUBLIC "-//W3C//DTD SVG 1.1//EN" "http://www.w3.org/Graphics/SVG/1.1/DTD/svg11.dtd">
<!-- 由 Microsoft Visio, SVG Export 產生 y35.0486.svg 頁-1 -->
<svg xmlns="http://www.w3.org/2000/svg" xmlns:xlink="http://www.w3.org/1999/xlink" xmlns:ev="http://www.w3.org/2001/xml-events"
		width="5.09838in" height="1.13356in" viewBox="0 0 367.083 81.6161" xml:space="preserve" color-interpolation-filters="sRGB"
		class="st4">
	<style type="text/css">
	<![CDATA[
		.st1 {fill:none;stroke:none;stroke-linecap:round;stroke-linejoin:round;stroke-width:0.75}
		.st2 {fill:#000000;font-family:新細明體;font-size:1.00001em}
		.st3 {stroke:#000000;stroke-linecap:round;stroke-linejoin:round;stroke-width:1}
		.st4 {fill:none;fill-rule:evenodd;font-size:12px;overflow:visible;stroke-linecap:square;stroke-miterlimit:3}
	]]>
	</style>

	<g>
		<title>頁-1</title>
		<g id="group30-1" transform="translate(0.375,-0.375)">
			<title>工作表.30</title>
			<g id="shape7-2" transform="translate(142.079,-60.8661)">
				<title>工作表.7</title>
				<desc>一長‧二中。三雜相應</desc>
				<rect x="0" y="61.6161" width="224.254" height="20" class="st1"/>
				<text x="4" y="75.22" class="st2">（一）長‧（二）中。（三）雜（相應）</text>			</g>
			<g id="shape9-5" transform="translate(142.079,-39.6535)">
				<title>工作表.9</title>
				<desc>四增一增支</desc>
				<rect x="0" y="61.6161" width="126.992" height="20" class="st1"/>
				<text x="4" y="75.22" class="st2">（四）增一（增支）</text>			</g>
			<g id="shape12-8" transform="translate(142.079,-18.4409)">
				<title>工作表.12</title>
				<desc>一相應‧二中。三長</desc>
				<rect x="0" y="61.6161" width="192.756" height="20" class="st1"/>
				<text x="4" y="75.22" class="st2">（一）相應‧（二）中。（三）長</text>			</g>
			<g id="shape15-11" transform="translate(142.079,2.84217E-14)">
				<title>工作表.15</title>
				<desc>四增一</desc>
				<rect x="0" y="61.6161" width="76" height="20" class="st1"/>
				<text x="4" y="75.22" class="st2">（四）增一</text>			</g>
			<g id="shape2-14" transform="translate(9.38583,-50.8661)">
				<title>工作表.2</title>
				<desc>大眾部等說</desc>
				<rect x="0" y="61.6161" width="76" height="20" class="st1"/>
				<text x="8" y="75.22" class="st2">大眾部等說</text>			</g>
			<g id="shape4-17" transform="translate(1.59872E-14,-8.34646)">
				<title>工作表.4</title>
				<desc>說一切有部說</desc>
				<rect x="0" y="61.6161" width="85.3858" height="20" class="st1"/>
				<text x="6.69" y="75.22" class="st2">說一切有部說</text>			</g>
			<g id="shape22-20" transform="translate(85.3858,-60.8268)">
				<title>工作表.22</title>
				<path d="M0 81.62 L22.44 81.62" class="st3"/>
			</g>
			<g id="shape23-23" transform="translate(84.8706,-57.5318) rotate(-16.336)">
				<title>工作表.23</title>
				<path d="M0 81.62 L35.69 81.62" class="st3"/>
			</g>
			<g id="shape24-26" transform="translate(134.954,-56.1866) rotate(19.4132)">
				<title>工作表.24</title>
				<path d="M0 81.62 L36.32 81.62" class="st3"/>
			</g>
			<g id="shape27-29" transform="translate(85.3858,-18.3071)">
				<title>工作表.27</title>
				<path d="M0 81.62 L22.44 81.62" class="st3"/>
			</g>
			<g id="shape28-32" transform="translate(84.8706,-15.0121) rotate(-16.336)">
				<title>工作表.28</title>
				<path d="M0 81.62 L35.69 81.62" class="st3"/>
			</g>
			<g id="shape29-35" transform="translate(134.954,-13.6669) rotate(19.4132)">
				<title>工作表.29</title>
				<path d="M0 81.62 L36.32 81.62" class="st3"/>
			</g>
		</g>
	</g>
</svg>
