<?xml version="1.0" encoding="UTF-8" standalone="no"?>
<!DOCTYPE svg PUBLIC "-//W3C//DTD SVG 1.1//EN" "http://www.w3.org/Graphics/SVG/1.1/DTD/svg11.dtd">
<!-- 由 Microsoft Visio, SVG Export 產生 y35.0471.svg 頁-1 -->
<svg xmlns="http://www.w3.org/2000/svg" xmlns:xlink="http://www.w3.org/1999/xlink" xmlns:ev="http://www.w3.org/2001/xml-events"
		width="9.22356in" height="5.15392in" viewBox="0 0 664.096 371.083" xml:space="preserve" color-interpolation-filters="sRGB"
		class="st7">
	<style type="text/css">
	<![CDATA[
		.st1 {fill:none;stroke:none;stroke-linecap:round;stroke-linejoin:round;stroke-width:0.75}
		.st2 {fill:#000000;font-family:Times New Roman;font-size:1.33333em}
		.st3 {fill:#000000;font-family:新細明體;font-size:1.33333em}
		.st4 {font-family:Times New Roman;font-size:1em}
		.st5 {stroke:#000000;stroke-linecap:round;stroke-linejoin:round;stroke-width:0.24}
		.st6 {fill:#000000;font-family:Times New Roman;font-size:1.00001em}
		.st7 {fill:none;fill-rule:evenodd;font-size:12px;overflow:visible;stroke-linecap:square;stroke-miterlimit:3}
	]]>
	</style>

	<g>
		<title>頁-1</title>
		<g id="group94-1" transform="translate(0.375,-0.12)">
			<title>工作表.94</title>
			<g id="shape72-2" transform="translate(192.024,-82.8425)">
				<title>工作表.72</title>
				<desc>Munigāthā</desc>
				<rect x="0" y="351.24" width="120.189" height="19.8425" class="st1"/>
				<text x="16" y="365.96" class="st2">Munigāthā</text>			</g>
			<g id="shape1-5" transform="translate(1.00787,-341.079)">
				<title>工作表.1</title>
				<desc>〔十誦律〕</desc>
				<rect x="0" y="351.24" width="88.1575" height="19.8425" class="st1"/>
				<text x="4" y="366.14" class="st3">〔十誦律〕</text>			</g>
			<g id="shape2-8" transform="translate(1.29097E-12,-7.65354)">
				<title>工作表.2</title>
				<desc>修多羅</desc>
				<rect x="0" y="351.24" width="56.126" height="19.8425" class="st1"/>
				<text x="4.06" y="366.14" class="st3">修多羅</text>			</g>
			<g id="shape3-11" transform="translate(80.9449,-341.079)">
				<title>工作表.3</title>
				<desc>〔根有律雜事〕</desc>
				<rect x="0" y="351.24" width="120.189" height="19.8425" class="st1"/>
				<text x="4" y="366.14" class="st3">〔根有律雜事〕</text>			</g>
			<g id="shape4-14" transform="translate(192.024,-341.079)">
				<title>工作表.4</title>
				<desc>〔Divy.Ⅰ〕</desc>
				<rect x="0" y="351.24" width="104.031" height="19.8425" class="st1"/>
				<text x="4" y="366.14" class="st3">〔<tspan class="st4">Divy.Ⅰ</tspan>〕</text>			</g>
			<g id="shape5-18" transform="translate(303.992,-341.079)">
				<title>工作表.5</title>
				<desc>〔Divy.Ⅱ〕</desc>
				<rect x="0" y="351.24" width="104.031" height="19.8425" class="st1"/>
				<text x="4" y="366.14" class="st3">〔<tspan class="st4">Divy.Ⅱ</tspan>〕</text>			</g>
			<g id="shape6-22" transform="translate(416.102,-341.079)">
				<title>工作表.6</title>
				<desc>〔雜阿含經〕</desc>
				<rect x="0" y="351.24" width="104.031" height="19.8425" class="st1"/>
				<text x="4" y="366.14" class="st3">〔雜阿含經〕</text>			</g>
			<g id="shape7-25" transform="translate(537.488,-341.079)">
				<title>工作表.7</title>
				<desc>〔Gilgit MS〕</desc>
				<rect x="0" y="351.24" width="120.189" height="19.8425" class="st1"/>
				<text x="4" y="366.14" class="st3">〔<tspan class="st4">Gilgit MS</tspan>〕</text>			</g>
			<g id="shape8-29" transform="translate(648.382,409.448) rotate(180)">
				<title>工作表.8</title>
				<path d="M0 371.08 L647.37 371.08" class="st5"/>
			</g>
			<g id="shape9-32" transform="translate(5.19584E-14,-267.945)">
				<title>工作表.9</title>
				<desc>1</desc>
				<rect x="0" y="351.24" width="24.378" height="19.8425" class="st1"/>
				<text x="9.19" y="364.76" class="st6">1</text>			</g>
			<g id="shape10-35" transform="translate(1.59872E-14,-267.945)">
				<title>工作表.10</title>
				<desc>波羅延</desc>
				<rect x="0" y="351.24" width="88.1575" height="19.8425" class="st1"/>
				<text x="16" y="366.14" class="st3">波羅延</text>			</g>
			<g id="shape11-38" transform="translate(80.9449,-299.693)">
				<title>工作表.11</title>
				<desc>嗢拕南頌</desc>
				<rect x="0" y="351.24" width="88.1575" height="19.8425" class="st1"/>
				<text x="16" y="366.14" class="st3">嗢拕南頌</text>			</g>
			<g id="shape12-41" transform="translate(80.9449,-299.693)">
				<title>工作表.12</title>
				<desc>1</desc>
				<rect x="0" y="351.24" width="24.378" height="19.8425" class="st1"/>
				<text x="9.19" y="364.76" class="st6">1</text>			</g>
			<g id="shape13-44" transform="translate(2.71783E-13,-231.378)">
				<title>工作表.13</title>
				<desc>薩耆陀舍</desc>
				<rect x="0" y="351.24" width="88.1575" height="19.8425" class="st1"/>
				<text x="16" y="366.14" class="st3">薩耆陀舍</text>			</g>
			<g id="shape14-47" transform="translate(5.19584E-14,-231.378)">
				<title>工作表.14</title>
				<desc>2</desc>
				<rect x="0" y="351.24" width="24.378" height="19.8425" class="st1"/>
				<text x="9.19" y="364.76" class="st6">2</text>			</g>
			<g id="shape15-50" transform="translate(416.102,-299.693)">
				<title>工作表.15</title>
				<desc>憂陀那</desc>
				<rect x="0" y="351.24" width="104.031" height="19.8425" class="st1"/>
				<text x="16" y="366.14" class="st3">憂陀那</text>			</g>
			<g id="shape16-53" transform="translate(416.102,-299.693)">
				<title>工作表.16</title>
				<desc>1</desc>
				<rect x="0" y="351.24" width="24.378" height="19.8425" class="st1"/>
				<text x="9.19" y="364.76" class="st6">1</text>			</g>
			<g id="shape17-56" transform="translate(416.102,-267.945)">
				<title>工作表.17</title>
				<desc>波羅延那</desc>
				<rect x="0" y="351.24" width="104.031" height="19.8425" class="st1"/>
				<text x="16" y="366.14" class="st3">波羅延那</text>			</g>
			<g id="shape18-59" transform="translate(416.102,-267.945)">
				<title>工作表.18</title>
				<desc>2</desc>
				<rect x="0" y="351.24" width="24.378" height="19.8425" class="st1"/>
				<text x="9.19" y="364.76" class="st6">2</text>			</g>
			<g id="shape19-62" transform="translate(416.102,-231.378)">
				<title>工作表.19</title>
				<desc>見真諦</desc>
				<rect x="0" y="351.24" width="104.031" height="19.8425" class="st1"/>
				<text x="16" y="366.14" class="st3">見真諦</text>			</g>
			<g id="shape20-65" transform="translate(416.102,-231.378)">
				<title>工作表.20</title>
				<desc>3</desc>
				<rect x="0" y="351.24" width="24.378" height="19.8425" class="st1"/>
				<text x="9.19" y="364.76" class="st6">3</text>			</g>
			<g id="shape21-68" transform="translate(416.102,-194.811)">
				<title>工作表.21</title>
				<desc>諸上座所說偈</desc>
				<rect x="0" y="351.24" width="120.189" height="19.8425" class="st1"/>
				<text x="16" y="366.14" class="st3">諸上座所說偈</text>			</g>
			<g id="shape22-71" transform="translate(416.102,-194.811)">
				<title>工作表.22</title>
				<desc>4</desc>
				<rect x="0" y="351.24" width="24.378" height="19.8425" class="st1"/>
				<text x="9.19" y="364.76" class="st6">4</text>			</g>
			<g id="shape24-74" transform="translate(416.102,-155.197)">
				<title>工作表.24</title>
				<desc>比丘尼所說偈</desc>
				<rect x="0" y="351.24" width="120.189" height="19.8425" class="st1"/>
				<text x="16" y="366.14" class="st3">比丘尼所說偈</text>			</g>
			<g id="shape25-77" transform="translate(416.102,-155.197)">
				<title>工作表.25</title>
				<desc>5</desc>
				<rect x="0" y="351.24" width="24.378" height="19.8425" class="st1"/>
				<text x="9.19" y="364.76" class="st6">5</text>			</g>
			<g id="shape27-80" transform="translate(416.102,-119.409)">
				<title>工作表.27</title>
				<desc>尸路偈</desc>
				<rect x="0" y="351.24" width="104.031" height="19.8425" class="st1"/>
				<text x="16" y="366.14" class="st3">尸路偈</text>			</g>
			<g id="shape28-83" transform="translate(416.102,-119.409)">
				<title>工作表.28</title>
				<desc>6</desc>
				<rect x="0" y="351.24" width="24.378" height="19.8425" class="st1"/>
				<text x="9.19" y="364.76" class="st6">6</text>			</g>
			<g id="shape29-86" transform="translate(416.102,-82.8425)">
				<title>工作表.29</title>
				<desc>牟尼偈</desc>
				<rect x="0" y="351.24" width="104.031" height="19.8425" class="st1"/>
				<text x="16" y="366.14" class="st3">牟尼偈</text>			</g>
			<g id="shape30-89" transform="translate(416.102,-82.8425)">
				<title>工作表.30</title>
				<desc>8</desc>
				<rect x="0" y="351.24" width="24.378" height="19.8425" class="st1"/>
				<text x="9.19" y="364.76" class="st6">8</text>			</g>
			<g id="shape31-92" transform="translate(416.102,-46.2756)">
				<title>工作表.31</title>
				<desc>義　品</desc>
				<rect x="0" y="351.24" width="104.031" height="19.8425" class="st1"/>
				<text x="16" y="366.14" class="st3">義　品</text>			</g>
			<g id="shape32-95" transform="translate(416.102,-46.2756)">
				<title>工作表.32</title>
				<desc>7</desc>
				<rect x="0" y="351.24" width="24.378" height="19.8425" class="st1"/>
				<text x="9.19" y="364.76" class="st6">7</text>			</g>
			<g id="shape33-98" transform="translate(416.102,-7.65354)">
				<title>工作表.33</title>
				<desc>修多羅</desc>
				<rect x="0" y="351.24" width="104.031" height="19.8425" class="st1"/>
				<text x="16" y="366.14" class="st3">修多羅</text>			</g>
			<g id="shape34-101" transform="translate(192.024,-82.8425)">
				<title>工作表.34</title>
				<desc>5</desc>
				<rect x="0" y="351.24" width="24.378" height="19.8425" class="st1"/>
				<text x="9.19" y="364.76" class="st6">5</text>			</g>
			<g id="shape35-104" transform="translate(192.024,-299.693)">
				<title>工作表.35</title>
				<desc>Udāna</desc>
				<rect x="0" y="351.24" width="88.1575" height="19.8425" class="st1"/>
				<text x="16" y="365.96" class="st2">Udāna</text>			</g>
			<g id="shape36-107" transform="translate(192.024,-299.693)">
				<title>工作表.36</title>
				<desc>1</desc>
				<rect x="0" y="351.24" width="24.378" height="19.8425" class="st1"/>
				<text x="9.19" y="364.76" class="st6">1</text>			</g>
			<g id="shape37-110" transform="translate(303.992,-299.693)">
				<title>工作表.37</title>
				<desc>Udāna</desc>
				<rect x="0" y="351.24" width="88.1575" height="19.8425" class="st1"/>
				<text x="16" y="365.96" class="st2">Udāna</text>			</g>
			<g id="shape38-113" transform="translate(303.992,-299.693)">
				<title>工作表.38</title>
				<desc>1</desc>
				<rect x="0" y="351.24" width="24.378" height="19.8425" class="st1"/>
				<text x="9.19" y="364.76" class="st6">1</text>			</g>
			<g id="shape39-116" transform="translate(537.488,-299.693)">
				<title>工作表.39</title>
				<desc>Udāna</desc>
				<rect x="0" y="351.24" width="88.1575" height="19.8425" class="st1"/>
				<text x="16" y="365.96" class="st2">Udāna</text>			</g>
			<g id="shape40-119" transform="translate(537.488,-299.693)">
				<title>工作表.40</title>
				<desc>1</desc>
				<rect x="0" y="351.24" width="24.378" height="19.8425" class="st1"/>
				<text x="9.19" y="364.76" class="st6">1</text>			</g>
			<g id="shape41-122" transform="translate(192.024,-267.945)">
				<title>工作表.41</title>
				<desc>Pārāyaṇa</desc>
				<rect x="0" y="351.24" width="104.031" height="19.8425" class="st1"/>
				<text x="16" y="365.96" class="st2">Pārāyaṇa</text>			</g>
			<g id="shape42-125" transform="translate(192.024,-267.945)">
				<title>工作表.42</title>
				<desc>2</desc>
				<rect x="0" y="351.24" width="24.378" height="19.8425" class="st1"/>
				<text x="9.19" y="364.76" class="st6">2</text>			</g>
			<g id="shape43-128" transform="translate(303.992,-267.945)">
				<title>工作表.43</title>
				<desc>Pārāyaṇa</desc>
				<rect x="0" y="351.24" width="104.031" height="19.8425" class="st1"/>
				<text x="16" y="365.96" class="st2">Pārāyaṇa</text>			</g>
			<g id="shape44-131" transform="translate(303.992,-267.945)">
				<title>工作表.44</title>
				<desc>2</desc>
				<rect x="0" y="351.24" width="24.378" height="19.8425" class="st1"/>
				<text x="9.19" y="364.76" class="st6">2</text>			</g>
			<g id="shape45-134" transform="translate(537.488,-267.945)">
				<title>工作表.45</title>
				<desc>Pārāyaṇa</desc>
				<rect x="0" y="351.24" width="104.031" height="19.8425" class="st1"/>
				<text x="16" y="365.96" class="st2">Pārāyaṇa</text>			</g>
			<g id="shape46-137" transform="translate(537.488,-267.945)">
				<title>工作表.46</title>
				<desc>2</desc>
				<rect x="0" y="351.24" width="24.378" height="19.8425" class="st1"/>
				<text x="9.19" y="364.76" class="st6">2</text>			</g>
			<g id="shape47-140" transform="translate(192.024,-231.378)">
				<title>工作表.47</title>
				<desc>Satyadṛśa</desc>
				<rect x="0" y="351.24" width="104.031" height="19.8425" class="st1"/>
				<text x="16" y="365.96" class="st2">Satyadṛśa</text>			</g>
			<g id="shape48-143" transform="translate(192.024,-231.378)">
				<title>工作表.48</title>
				<desc>3</desc>
				<rect x="0" y="351.24" width="24.378" height="19.8425" class="st1"/>
				<text x="9.19" y="364.76" class="st6">3</text>			</g>
			<g id="shape49-146" transform="translate(303.992,-231.378)">
				<title>工作表.49</title>
				<desc>Satyadṛśa</desc>
				<rect x="0" y="351.24" width="104.031" height="19.8425" class="st1"/>
				<text x="16" y="365.96" class="st2">Satyadṛśa</text>			</g>
			<g id="shape50-149" transform="translate(303.992,-231.378)">
				<title>工作表.50</title>
				<desc>3</desc>
				<rect x="0" y="351.24" width="24.378" height="19.8425" class="st1"/>
				<text x="9.19" y="364.76" class="st6">3</text>			</g>
			<g id="shape51-152" transform="translate(537.488,-231.378)">
				<title>工作表.51</title>
				<desc>Satyadṛśa</desc>
				<rect x="0" y="351.24" width="104.031" height="19.8425" class="st1"/>
				<text x="16" y="365.96" class="st2">Satyadṛśa</text>			</g>
			<g id="shape52-155" transform="translate(537.488,-231.378)">
				<title>工作表.52</title>
				<desc>3</desc>
				<rect x="0" y="351.24" width="24.378" height="19.8425" class="st1"/>
				<text x="9.19" y="364.76" class="st6">3</text>			</g>
			<g id="shape53-158" transform="translate(303.992,-194.811)">
				<title>工作表.53</title>
				<desc>Sthaviragāthā</desc>
				<rect x="0" y="351.24" width="125.858" height="19.8425" class="st1"/>
				<text x="16" y="365.96" class="st2">Sthaviragāthā</text>			</g>
			<g id="shape54-161" transform="translate(303.992,-194.811)">
				<title>工作表.54</title>
				<desc>4</desc>
				<rect x="0" y="351.24" width="24.378" height="19.8425" class="st1"/>
				<text x="9.19" y="364.76" class="st6">4</text>			</g>
			<g id="shape55-164" transform="translate(537.488,-194.811)">
				<title>工作表.55</title>
				<desc>Sthaviragāthā</desc>
				<rect x="0" y="351.24" width="125.858" height="19.8425" class="st1"/>
				<text x="16" y="365.96" class="st2">Sthaviragāthā</text>			</g>
			<g id="shape56-167" transform="translate(537.488,-194.811)">
				<title>工作表.56</title>
				<desc>6</desc>
				<rect x="0" y="351.24" width="24.378" height="19.8425" class="st1"/>
				<text x="9.19" y="364.76" class="st6">6</text>			</g>
			<g id="shape58-170" transform="translate(537.488,-155.197)">
				<title>工作表.58</title>
				<desc>Sthavirīgāthā</desc>
				<rect x="0" y="351.24" width="120.189" height="19.8425" class="st1"/>
				<text x="16" y="365.96" class="st2">Sthavirīgāthā</text>			</g>
			<g id="shape59-173" transform="translate(537.488,-155.197)">
				<title>工作表.59</title>
				<desc>7</desc>
				<rect x="0" y="351.24" width="24.378" height="19.8425" class="st1"/>
				<text x="9.19" y="364.76" class="st6">7</text>			</g>
			<g id="shape61-176" transform="translate(80.9449,-194.811)">
				<title>工作表.61</title>
				<desc>諸上座頌</desc>
				<rect x="0" y="351.24" width="88.1575" height="19.8425" class="st1"/>
				<text x="16" y="366.14" class="st3">諸上座頌</text>			</g>
			<g id="shape62-179" transform="translate(80.9449,-194.811)">
				<title>工作表.62</title>
				<desc>2</desc>
				<rect x="0" y="351.24" width="24.378" height="19.8425" class="st1"/>
				<text x="9.19" y="364.76" class="st6">2</text>			</g>
			<g id="shape63-182" transform="translate(80.9449,-119.409)">
				<title>工作表.63</title>
				<desc>世羅尼頌</desc>
				<rect x="0" y="351.24" width="88.1575" height="19.8425" class="st1"/>
				<text x="16" y="366.14" class="st3">世羅尼頌</text>			</g>
			<g id="shape64-185" transform="translate(80.9449,-119.409)">
				<title>工作表.64</title>
				<desc>3</desc>
				<rect x="0" y="351.24" width="24.378" height="19.8425" class="st1"/>
				<text x="9.19" y="364.76" class="st6">3</text>			</g>
			<g id="shape65-188" transform="translate(80.9449,-82.8425)">
				<title>工作表.65</title>
				<desc>牟尼之頌</desc>
				<rect x="0" y="351.24" width="88.1575" height="19.8425" class="st1"/>
				<text x="16" y="366.14" class="st3">牟尼之頌</text>			</g>
			<g id="shape66-191" transform="translate(80.9449,-82.8425)">
				<title>工作表.66</title>
				<desc>4</desc>
				<rect x="0" y="351.24" width="24.378" height="19.8425" class="st1"/>
				<text x="9.19" y="364.76" class="st6">4</text>			</g>
			<g id="shape67-194" transform="translate(80.9449,-46.2756)">
				<title>工作表.67</title>
				<desc>眾　　義</desc>
				<rect x="0" y="351.24" width="88.1575" height="19.8425" class="st1"/>
				<text x="16" y="366.14" class="st3">眾　　義</text>			</g>
			<g id="shape68-197" transform="translate(80.9449,-46.2756)">
				<title>工作表.68</title>
				<desc>5</desc>
				<rect x="0" y="351.24" width="24.378" height="19.8425" class="st1"/>
				<text x="9.19" y="364.76" class="st6">5</text>			</g>
			<g id="shape69-200" transform="translate(80.9449,-7.65354)">
				<title>工作表.69</title>
				<desc>經</desc>
				<rect x="0" y="351.24" width="88.1575" height="19.8425" class="st1"/>
				<text x="16" y="366.14" class="st3">經</text>			</g>
			<g id="shape71-203" transform="translate(192.024,-119.409)">
				<title>工作表.71</title>
				<desc>Śailagāthā</desc>
				<rect x="0" y="351.24" width="120.189" height="19.8425" class="st1"/>
				<text x="16" y="365.96" class="st2">Śailagāthā</text>			</g>
			<g id="shape70-206" transform="translate(192.024,-119.409)">
				<title>工作表.70</title>
				<desc>4</desc>
				<rect x="0" y="351.24" width="24.378" height="19.8425" class="st1"/>
				<text x="9.19" y="364.76" class="st6">4</text>			</g>
			<g id="shape73-209" transform="translate(192.024,-46.2756)">
				<title>工作表.73</title>
				<desc>Arthavargīya</desc>
				<rect x="0" y="351.24" width="120.189" height="19.8425" class="st1"/>
				<text x="16" y="365.96" class="st2">Arthavargīya</text>			</g>
			<g id="shape74-212" transform="translate(192.024,-46.2756)">
				<title>工作表.74</title>
				<desc>6</desc>
				<rect x="0" y="351.24" width="24.378" height="19.8425" class="st1"/>
				<text x="9.19" y="364.76" class="st6">6</text>			</g>
			<g id="shape75-215" transform="translate(303.992,-82.8425)">
				<title>工作表.75</title>
				<desc>Munigāthā</desc>
				<rect x="0" y="351.24" width="120.189" height="19.8425" class="st1"/>
				<text x="16" y="365.96" class="st2">Munigāthā</text>			</g>
			<g id="shape76-218" transform="translate(303.992,-82.8425)">
				<title>工作表.76</title>
				<desc>6</desc>
				<rect x="0" y="351.24" width="24.378" height="19.8425" class="st1"/>
				<text x="9.19" y="364.76" class="st6">6</text>			</g>
			<g id="shape77-221" transform="translate(303.992,-119.409)">
				<title>工作表.77</title>
				<desc>Śailagāthā</desc>
				<rect x="0" y="351.24" width="120.189" height="19.8425" class="st1"/>
				<text x="16" y="365.96" class="st2">Śailagāthā</text>			</g>
			<g id="shape78-224" transform="translate(303.992,-119.409)">
				<title>工作表.78</title>
				<desc>5</desc>
				<rect x="0" y="351.24" width="24.378" height="19.8425" class="st1"/>
				<text x="9.19" y="364.76" class="st6">5</text>			</g>
			<g id="shape79-227" transform="translate(303.992,-46.2756)">
				<title>工作表.79</title>
				<desc>Arthavargīya</desc>
				<rect x="0" y="351.24" width="120.189" height="19.8425" class="st1"/>
				<text x="16" y="365.96" class="st2">Arthavargīya</text>			</g>
			<g id="shape80-230" transform="translate(303.992,-46.2756)">
				<title>工作表.80</title>
				<desc>7</desc>
				<rect x="0" y="351.24" width="24.378" height="19.8425" class="st1"/>
				<text x="9.19" y="364.76" class="st6">7</text>			</g>
			<g id="shape81-233" transform="translate(537.488,-82.8425)">
				<title>工作表.81</title>
				<desc>Munigāthā</desc>
				<rect x="0" y="351.24" width="120.189" height="19.8425" class="st1"/>
				<text x="16" y="365.96" class="st2">Munigāthā</text>			</g>
			<g id="shape82-236" transform="translate(537.488,-82.8425)">
				<title>工作表.82</title>
				<desc>5</desc>
				<rect x="0" y="351.24" width="24.378" height="19.8425" class="st1"/>
				<text x="9.19" y="364.76" class="st6">5</text>			</g>
			<g id="shape83-239" transform="translate(537.488,-119.409)">
				<title>工作表.83</title>
				<desc>Śailagāthā</desc>
				<rect x="0" y="351.24" width="120.189" height="19.8425" class="st1"/>
				<text x="16" y="365.96" class="st2">Śailagāthā</text>			</g>
			<g id="shape84-242" transform="translate(537.488,-119.409)">
				<title>工作表.84</title>
				<desc>4</desc>
				<rect x="0" y="351.24" width="24.378" height="19.8425" class="st1"/>
				<text x="9.19" y="364.76" class="st6">4</text>			</g>
			<g id="shape85-245" transform="translate(537.488,-46.2756)">
				<title>工作表.85</title>
				<desc>Arthavargīya</desc>
				<rect x="0" y="351.24" width="120.189" height="19.8425" class="st1"/>
				<text x="16" y="365.96" class="st2">Arthavargīya</text>			</g>
			<g id="shape86-248" transform="translate(537.488,-46.2756)">
				<title>工作表.86</title>
				<desc>8</desc>
				<rect x="0" y="351.24" width="24.378" height="19.8425" class="st1"/>
				<text x="9.19" y="364.76" class="st6">8</text>			</g>
			<g id="shape88-251" transform="translate(537.488,-7.65354)">
				<title>工作表.88</title>
				<desc>Sūtra</desc>
				<rect x="0" y="351.24" width="120.189" height="19.8425" class="st1"/>
				<text x="16" y="365.96" class="st2">Sūtra</text>			</g>
			<g id="shape89-254" transform="translate(-286.453,371.083) rotate(-90)">
				<title>工作表.89</title>
				<path d="M0 371.08 L370.84 371.08" class="st5"/>
			</g>
			<g id="shape90-257" transform="translate(-173.248,371.083) rotate(-90)">
				<title>工作表.90</title>
				<path d="M0 371.08 L370.84 371.08" class="st5"/>
			</g>
			<g id="shape91-260" transform="translate(-65.5313,371.083) rotate(-90)">
				<title>工作表.91</title>
				<path d="M0 371.08 L370.84 371.08" class="st5"/>
			</g>
			<g id="shape92-263" transform="translate(50.6891,371.083) rotate(-90)">
				<title>工作表.92</title>
				<path d="M0 371.08 L370.84 371.08" class="st5"/>
			</g>
			<g id="shape93-266" transform="translate(167.823,371.083) rotate(-90)">
				<title>工作表.93</title>
				<path d="M0 371.08 L370.84 371.08" class="st5"/>
			</g>
		</g>
	</g>
</svg>
