<?xml version="1.0" encoding="UTF-8" standalone="no"?>
<!DOCTYPE svg PUBLIC "-//W3C//DTD SVG 1.1//EN" "http://www.w3.org/Graphics/SVG/1.1/DTD/svg11.dtd">
<!-- 由 Microsoft Visio, SVG Export 產生 y35.0687.svg y35.0687 -->
<svg xmlns="http://www.w3.org/2000/svg" xmlns:xlink="http://www.w3.org/1999/xlink" xmlns:ev="http://www.w3.org/2001/xml-events"
		width="6.06882in" height="8.08267in" viewBox="0 0 436.955 581.952" xml:space="preserve" color-interpolation-filters="sRGB"
		class="st8">
	<style type="text/css">
	<![CDATA[
		.st1 {fill:none;stroke:none;stroke-linecap:round;stroke-linejoin:round;stroke-width:0.75}
		.st2 {fill:none;stroke:none;stroke-linecap:butt;stroke-width:0.75}
		.st3 {fill:#000000;font-family:新細明體;font-size:1.00001em}
		.st4 {fill:none}
		.st5 {stroke:#000000;stroke-linecap:round;stroke-linejoin:round;stroke-width:1}
		.st6 {stroke:#000000;stroke-dasharray:7,5;stroke-linecap:round;stroke-linejoin:round;stroke-width:1}
		.st7 {stroke:#000000;stroke-linecap:round;stroke-linejoin:round;stroke-width:0.75}
		.st8 {fill:none;fill-rule:evenodd;font-size:12px;overflow:visible;stroke-linecap:square;stroke-miterlimit:3}
	]]>
	</style>

	<g>
		<title>y35.0687</title>
		<g id="group249-1" transform="translate(0.375,-0.374393)">
			<title>工作表.249</title>
			<g id="group3-2" transform="translate(3.19744E-14,-558.799)">
				<title>工作表.1</title>
				<desc>〔雜阿含經〕</desc>
				<g id="shape4-3">
					<title>工作表.4</title>
					<rect x="0" y="559.549" width="83.1212" height="22.4037" class="st1"/>
				</g>
				<g id="shape5-5" transform="translate(5.56,-4.00266)">
					<title>工作表.5</title>
					<desc>〔雜阿含經〕</desc>
					<rect x="0" y="567.552" width="72.0007" height="14.4001" class="st2"/>
					<text x="0" y="578.35" class="st3">〔雜阿含經〕</text>				</g>
			</g>
			<g id="group6-8" transform="translate(238.292,-558.217)">
				<title>工作表.2</title>
				<desc>〔相應部〕</desc>
				<g id="shape7-9">
					<title>工作表.7</title>
					<rect x="0" y="559.549" width="71.1212" height="22.4037" class="st1"/>
				</g>
				<g id="shape8-11" transform="translate(5.56,-4.00266)">
					<title>工作表.8</title>
					<desc>〔相應部〕</desc>
					<rect x="0" y="567.552" width="60.0006" height="14.4001" class="st2"/>
					<text x="-0" y="578.35" class="st3">〔相應部〕</text>				</g>
			</g>
			<g id="group9-14" transform="translate(2.79776E-13,-527.754)">
				<title>工作表.3</title>
				<desc>Ⅰ五取蘊</desc>
				<g id="shape10-15">
					<title>工作表.10</title>
					<rect x="0" y="559.549" width="59.1211" height="22.4037" class="st1"/>
				</g>
				<g id="shape11-17" transform="translate(5.56,-4.00266)">
					<title>工作表.11</title>
					<desc>Ⅰ五取蘊</desc>
					<rect x="0" y="567.552" width="48.0005" height="14.4001" class="st2"/>
					<text x="0" y="578.35" class="st3">Ⅰ五取蘊</text>				</g>
			</g>
			<g id="group12-20" transform="translate(116.296,-527.754)">
				<title>工作表.4</title>
				<desc>取蘊</desc>
				<g id="shape13-21">
					<title>工作表.13</title>
					<rect x="0" y="559.549" width="35.1209" height="22.4037" class="st1"/>
				</g>
				<g id="shape14-23" transform="translate(5.56,-4.00266)">
					<title>工作表.14</title>
					<desc>取蘊</desc>
					<rect x="0" y="567.552" width="24.0002" height="14.4001" class="st2"/>
					<text x="0" y="578.35" class="st3">取蘊</text>				</g>
			</g>
			<g id="group15-26" transform="translate(238.292,-527.754)">
				<title>工作表.5</title>
				<desc>22蘊相應</desc>
				<g id="shape16-27">
					<title>工作表.16</title>
					<rect x="0" y="559.549" width="58.3946" height="22.4037" class="st1"/>
				</g>
				<g id="shape17-29" transform="translate(5.56,-4.00266)">
					<title>工作表.17</title>
					<desc>22蘊相應</desc>
					<rect x="0" y="567.552" width="60.0006" height="14.4001" class="st2"/>
					<text x="0" y="578.35" class="st3">22蘊相應</text>				</g>
			</g>
			<g id="group18-32" transform="translate(377.084,-527.754)">
				<title>工作表.6</title>
				<desc>Ⅲ蘊品</desc>
				<g id="shape19-33">
					<title>工作表.19</title>
					<rect x="0" y="559.549" width="47.121" height="22.4037" class="st1"/>
				</g>
				<g id="shape20-35" transform="translate(5.56,-4.00266)">
					<title>工作表.20</title>
					<desc>Ⅲ蘊品</desc>
					<rect x="0" y="567.552" width="36.0004" height="14.4001" class="st2"/>
					<text x="0" y="578.35" class="st3">Ⅲ蘊品</text>				</g>
			</g>
			<g id="group21-38" transform="translate(-3.9968E-15,-496.71)">
				<title>工作表.7</title>
				<desc>Ⅱ六處</desc>
				<g id="shape22-39">
					<title>工作表.22</title>
					<rect x="0" y="559.549" width="47.121" height="22.4037" class="st1"/>
				</g>
				<g id="shape23-41" transform="translate(5.56,-4.00266)">
					<title>工作表.23</title>
					<desc>Ⅱ六處</desc>
					<rect x="0" y="567.552" width="36.0004" height="14.4001" class="st2"/>
					<text x="0" y="578.35" class="st3">Ⅱ六處</text>				</g>
			</g>
			<g id="group24-44" transform="translate(116.296,-496.71)">
				<title>工作表.8</title>
				<desc>處</desc>
				<g id="shape25-45">
					<title>工作表.25</title>
					<rect x="0" y="559.549" width="23.1208" height="22.4037" class="st1"/>
				</g>
				<g id="shape26-47" transform="translate(5.56,-4.00266)">
					<title>工作表.26</title>
					<desc>處</desc>
					<rect x="0" y="567.552" width="12.0001" height="14.4001" class="st2"/>
					<text x="-0" y="578.35" class="st3">處</text>				</g>
			</g>
			<g id="group27-50" transform="translate(238.292,-496.71)">
				<title>工作表.9</title>
				<desc>35六處相應</desc>
				<g id="shape28-51">
					<title>工作表.28</title>
					<rect x="0" y="559.549" width="58.3946" height="22.4037" class="st1"/>
				</g>
				<g id="shape29-53" transform="translate(5.56,-4.00266)">
					<title>工作表.29</title>
					<desc>35六處相應</desc>
					<rect x="0" y="567.552" width="72.0007" height="14.4001" class="st2"/>
					<text x="0" y="578.35" class="st3">35六處相應</text>				</g>
			</g>
			<g id="group30-56" transform="translate(377.084,-484.091)">
				<title>工作表.10</title>
				<desc>Ⅳ處品</desc>
				<g id="shape31-57">
					<title>工作表.31</title>
					<rect x="0" y="559.549" width="47.121" height="22.4037" class="st1"/>
				</g>
				<g id="shape32-59" transform="translate(5.56,-4.00266)">
					<title>工作表.32</title>
					<desc>Ⅳ處品</desc>
					<rect x="0" y="567.552" width="36.0004" height="14.4001" class="st2"/>
					<text x="0" y="578.35" class="st3">Ⅳ處品</text>				</g>
			</g>
			<g id="group33-62" transform="translate(238.292,-465.666)">
				<title>工作表.11</title>
				<desc>36受相應</desc>
				<g id="shape34-63">
					<title>工作表.34</title>
					<rect x="0" y="559.549" width="58.3946" height="22.4037" class="st1"/>
				</g>
				<g id="shape35-65" transform="translate(5.56,-4.00266)">
					<title>工作表.35</title>
					<desc>36受相應</desc>
					<rect x="0" y="567.552" width="60.0006" height="14.4001" class="st2"/>
					<text x="0" y="578.35" class="st3">36受相應</text>				</g>
			</g>
			<g id="group36-68" transform="translate(-3.9968E-15,-391.691)">
				<title>工作表.12</title>
				<desc>Ⅲ因緣</desc>
				<g id="shape37-69">
					<title>工作表.37</title>
					<rect x="0" y="559.549" width="47.121" height="22.4037" class="st1"/>
				</g>
				<g id="shape38-71" transform="translate(5.56,-4.00266)">
					<title>工作表.38</title>
					<desc>Ⅲ因緣</desc>
					<rect x="0" y="567.552" width="36.0004" height="14.4001" class="st2"/>
					<text x="0" y="578.35" class="st3">Ⅲ因緣</text>				</g>
			</g>
			<g id="group39-74" transform="translate(377.084,-380.353)">
				<title>工作表.13</title>
				<desc>Ⅱ因緣品</desc>
				<g id="shape40-75">
					<title>工作表.40</title>
					<rect x="0" y="559.549" width="59.1211" height="22.4037" class="st1"/>
				</g>
				<g id="shape41-77" transform="translate(5.56,-4.00266)">
					<title>工作表.41</title>
					<desc>Ⅱ因緣品</desc>
					<rect x="0" y="567.552" width="48.0005" height="14.4001" class="st2"/>
					<text x="0" y="578.35" class="st3">Ⅱ因緣品</text>				</g>
			</g>
			<g id="group42-80" transform="translate(238.292,-420.038)">
				<title>工作表.14</title>
				<desc>12因緣相應</desc>
				<g id="shape43-81">
					<title>工作表.43</title>
					<rect x="0" y="559.549" width="70.3947" height="22.4037" class="st1"/>
				</g>
				<g id="shape44-83" transform="translate(5.56,-4.00266)">
					<title>工作表.44</title>
					<desc>12因緣相應</desc>
					<rect x="0" y="567.552" width="72.0007" height="14.4001" class="st2"/>
					<text x="0" y="578.35" class="st3">12因緣相應</text>				</g>
			</g>
			<g id="group45-86" transform="translate(116.296,-434.621)">
				<title>工作表.15</title>
				<desc>緣起</desc>
				<g id="shape46-87">
					<title>工作表.46</title>
					<rect x="0" y="559.549" width="35.1209" height="22.4037" class="st1"/>
				</g>
				<g id="shape47-89" transform="translate(5.56,-4.00266)">
					<title>工作表.47</title>
					<desc>緣起</desc>
					<rect x="0" y="567.552" width="24.0002" height="14.4001" class="st2"/>
					<text x="0" y="578.35" class="st3">緣起</text>				</g>
			</g>
			<g id="group48-92" transform="translate(116.296,-403.577)">
				<title>工作表.16</title>
				<desc>食</desc>
				<g id="shape49-93">
					<title>工作表.49</title>
					<rect x="0" y="559.549" width="23.1208" height="22.4037" class="st1"/>
				</g>
				<g id="shape50-95" transform="translate(5.56,-4.00266)">
					<title>工作表.50</title>
					<desc>食</desc>
					<rect x="0" y="567.552" width="12.0001" height="14.4001" class="st2"/>
					<text x="-0" y="578.35" class="st3">食</text>				</g>
			</g>
			<g id="group51-98" transform="translate(116.296,-372.532)">
				<title>工作表.17</title>
				<desc>諦</desc>
				<g id="shape52-99">
					<title>工作表.52</title>
					<rect x="0" y="559.549" width="23.1208" height="22.4037" class="st1"/>
				</g>
				<g id="shape53-101" transform="translate(5.56,-4.00266)">
					<title>工作表.53</title>
					<desc>諦</desc>
					<rect x="0" y="567.552" width="12.0001" height="14.4001" class="st2"/>
					<text x="-0" y="578.35" class="st3">諦</text>				</g>
			</g>
			<g id="group54-104" transform="translate(116.296,-341.488)">
				<title>工作表.18</title>
				<desc>界</desc>
				<g id="shape55-105">
					<title>工作表.55</title>
					<rect x="0" y="559.549" width="23.1208" height="22.4037" class="st1"/>
				</g>
				<g id="shape56-107" transform="translate(5.56,-4.00266)">
					<title>工作表.56</title>
					<desc>界</desc>
					<rect x="0" y="567.552" width="12.0001" height="14.4001" class="st2"/>
					<text x="-0" y="578.35" class="st3">界</text>				</g>
			</g>
			<g id="group57-110" transform="translate(238.292,-341.488)">
				<title>工作表.19</title>
				<desc>14界相應</desc>
				<g id="shape58-111">
					<title>工作表.58</title>
					<rect x="0" y="559.549" width="58.3946" height="22.4037" class="st1"/>
				</g>
				<g id="shape59-113" transform="translate(5.56,-4.00266)">
					<title>工作表.59</title>
					<desc>14界相應</desc>
					<rect x="0" y="567.552" width="60.0006" height="14.4001" class="st2"/>
					<text x="0" y="578.35" class="st3">14界相應</text>				</g>
			</g>
			<g id="group60-116" transform="translate(1.79856E-13,-170.726)">
				<title>工作表.20</title>
				<desc>Ⅳ菩提分法</desc>
				<g id="shape61-117">
					<title>工作表.61</title>
					<rect x="0" y="559.549" width="71.1212" height="22.4037" class="st1"/>
				</g>
				<g id="shape62-119" transform="translate(5.56,-4.00266)">
					<title>工作表.62</title>
					<desc>Ⅳ菩提分法</desc>
					<rect x="0" y="567.552" width="60.0006" height="14.4001" class="st2"/>
					<text x="0" y="578.35" class="st3">Ⅳ菩提分法</text>				</g>
			</g>
			<g id="group63-122" transform="translate(378.85,-170.726)">
				<title>工作表.21</title>
				<desc>Ⅴ大品</desc>
				<g id="shape64-123">
					<title>工作表.64</title>
					<rect x="0" y="559.549" width="47.121" height="22.4037" class="st1"/>
				</g>
				<g id="shape65-125" transform="translate(5.56,-4.00266)">
					<title>工作表.65</title>
					<desc>Ⅴ大品</desc>
					<rect x="0" y="567.552" width="36.0004" height="14.4001" class="st2"/>
					<text x="0" y="578.35" class="st3">Ⅴ大品</text>				</g>
			</g>
			<g id="group66-128" transform="translate(116.296,-310.444)">
				<title>工作表.22</title>
				<desc>念住</desc>
				<g id="shape67-129">
					<title>工作表.67</title>
					<rect x="0" y="559.549" width="35.1209" height="22.4037" class="st1"/>
				</g>
				<g id="shape68-131" transform="translate(5.56,-4.00266)">
					<title>工作表.68</title>
					<desc>念住</desc>
					<rect x="0" y="567.552" width="24.0002" height="14.4001" class="st2"/>
					<text x="0" y="578.35" class="st3">念住</text>				</g>
			</g>
			<g id="group69-134" transform="translate(238.292,-310.444)">
				<title>工作表.23</title>
				<desc>47念住相應</desc>
				<g id="shape70-135">
					<title>工作表.70</title>
					<rect x="0" y="559.549" width="70.3947" height="22.4037" class="st1"/>
				</g>
				<g id="shape71-137" transform="translate(5.56,-4.00266)">
					<title>工作表.71</title>
					<desc>47念住相應</desc>
					<rect x="0" y="567.552" width="72.0007" height="14.4001" class="st2"/>
					<text x="0" y="578.35" class="st3">47念住相應</text>				</g>
			</g>
			<g id="group72-140" transform="translate(116.296,-279.399)">
				<title>工作表.24</title>
				<desc>正斷佚</desc>
				<g id="shape73-141">
					<title>工作表.73</title>
					<rect x="0" y="559.549" width="71.1212" height="22.4037" class="st1"/>
				</g>
				<g id="shape74-143" transform="translate(5.56,-4.00266)">
					<title>工作表.74</title>
					<desc>正斷佚</desc>
					<rect x="0" y="567.552" width="60.0006" height="14.4001" class="st2"/>
					<text x="0" y="578.35" class="st3">正斷（佚）</text>				</g>
			</g>
			<g id="group75-146" transform="translate(238.292,-279.399)">
				<title>工作表.25</title>
				<desc>49正勤相應</desc>
				<g id="shape76-147">
					<title>工作表.76</title>
					<rect x="0" y="559.549" width="70.3947" height="22.4037" class="st1"/>
				</g>
				<g id="shape77-149" transform="translate(5.56,-4.00266)">
					<title>工作表.77</title>
					<desc>49正勤相應</desc>
					<rect x="0" y="567.552" width="72.0007" height="14.4001" class="st2"/>
					<text x="0" y="578.35" class="st3">49正勤相應</text>				</g>
			</g>
			<g id="group78-152" transform="translate(116.296,-248.355)">
				<title>工作表.26</title>
				<desc>神足佚</desc>
				<g id="shape79-153">
					<title>工作表.79</title>
					<rect x="0" y="559.549" width="71.1212" height="22.4037" class="st1"/>
				</g>
				<g id="shape80-155" transform="translate(5.56,-4.00266)">
					<title>工作表.80</title>
					<desc>神足佚</desc>
					<rect x="0" y="567.552" width="60.0006" height="14.4001" class="st2"/>
					<text x="0" y="578.35" class="st3">神足（佚）</text>				</g>
			</g>
			<g id="group81-158" transform="translate(238.292,-248.355)">
				<title>工作表.27</title>
				<desc>51神足相應</desc>
				<g id="shape82-159">
					<title>工作表.82</title>
					<rect x="0" y="559.549" width="70.3947" height="22.4037" class="st1"/>
				</g>
				<g id="shape83-161" transform="translate(5.56,-4.00266)">
					<title>工作表.83</title>
					<desc>51神足相應</desc>
					<rect x="0" y="567.552" width="72.0007" height="14.4001" class="st2"/>
					<text x="0" y="578.35" class="st3">51神足相應</text>				</g>
			</g>
			<g id="group84-164" transform="translate(116.296,-217.311)">
				<title>工作表.28</title>
				<desc>根</desc>
				<g id="shape85-165">
					<title>工作表.85</title>
					<rect x="0" y="559.549" width="23.1208" height="22.4037" class="st1"/>
				</g>
				<g id="shape86-167" transform="translate(5.56,-4.00266)">
					<title>工作表.86</title>
					<desc>根</desc>
					<rect x="0" y="567.552" width="12.0001" height="14.4001" class="st2"/>
					<text x="-0" y="578.35" class="st3">根</text>				</g>
			</g>
			<g id="group87-170" transform="translate(238.292,-217.311)">
				<title>工作表.29</title>
				<desc>48根相應</desc>
				<g id="shape88-171">
					<title>工作表.88</title>
					<rect x="0" y="559.549" width="58.3946" height="22.4037" class="st1"/>
				</g>
				<g id="shape89-173" transform="translate(5.56,-4.00266)">
					<title>工作表.89</title>
					<desc>48根相應</desc>
					<rect x="0" y="567.552" width="60.0006" height="14.4001" class="st2"/>
					<text x="0" y="578.35" class="st3">48根相應</text>				</g>
			</g>
			<g id="group90-176" transform="translate(116.296,-186.266)">
				<title>工作表.30</title>
				<desc>力</desc>
				<g id="shape91-177">
					<title>工作表.91</title>
					<rect x="0" y="559.549" width="23.1208" height="22.4037" class="st1"/>
				</g>
				<g id="shape92-179" transform="translate(5.56,-4.00266)">
					<title>工作表.92</title>
					<desc>力</desc>
					<rect x="0" y="567.552" width="12.0001" height="14.4001" class="st2"/>
					<text x="-0" y="578.35" class="st3">力</text>				</g>
			</g>
			<g id="group93-182" transform="translate(238.292,-186.266)">
				<title>工作表.31</title>
				<desc>50力相應</desc>
				<g id="shape94-183">
					<title>工作表.94</title>
					<rect x="0" y="559.549" width="58.3946" height="22.4037" class="st1"/>
				</g>
				<g id="shape95-185" transform="translate(5.56,-4.00266)">
					<title>工作表.95</title>
					<desc>50力相應</desc>
					<rect x="0" y="567.552" width="60.0006" height="14.4001" class="st2"/>
					<text x="0" y="578.35" class="st3">50力相應</text>				</g>
			</g>
			<g id="group96-188" transform="translate(238.292,-155.222)">
				<title>工作表.32</title>
				<desc>46覺支相應</desc>
				<g id="shape97-189">
					<title>工作表.97</title>
					<rect x="0" y="559.549" width="70.3947" height="22.4037" class="st1"/>
				</g>
				<g id="shape98-191" transform="translate(5.56,-4.00266)">
					<title>工作表.98</title>
					<desc>46覺支相應</desc>
					<rect x="0" y="567.552" width="72.0007" height="14.4001" class="st2"/>
					<text x="0" y="578.35" class="st3">46覺支相應</text>				</g>
			</g>
			<g id="group99-194" transform="translate(116.296,-155.222)">
				<title>工作表.33</title>
				<desc>覺分</desc>
				<g id="shape100-195">
					<title>工作表.100</title>
					<rect x="0" y="559.549" width="35.1209" height="22.4037" class="st1"/>
				</g>
				<g id="shape101-197" transform="translate(5.56,-4.00266)">
					<title>工作表.101</title>
					<desc>覺分</desc>
					<rect x="0" y="567.552" width="24.0002" height="14.4001" class="st2"/>
					<text x="0" y="578.35" class="st3">覺分</text>				</g>
			</g>
			<g id="group102-200" transform="translate(116.296,-124.177)">
				<title>工作表.34</title>
				<desc>道分</desc>
				<g id="shape103-201">
					<title>工作表.103</title>
					<rect x="0" y="559.549" width="35.1209" height="22.4037" class="st1"/>
				</g>
				<g id="shape104-203" transform="translate(5.56,-4.00266)">
					<title>工作表.104</title>
					<desc>道分</desc>
					<rect x="0" y="567.552" width="24.0002" height="14.4001" class="st2"/>
					<text x="0" y="578.35" class="st3">道分</text>				</g>
			</g>
			<g id="group105-206" transform="translate(238.292,-124.177)">
				<title>工作表.35</title>
				<desc>45道支相應</desc>
				<g id="shape106-207">
					<title>工作表.106</title>
					<rect x="0" y="559.549" width="70.3947" height="22.4037" class="st1"/>
				</g>
				<g id="shape107-209" transform="translate(5.56,-4.00266)">
					<title>工作表.107</title>
					<desc>45道支相應</desc>
					<rect x="0" y="567.552" width="72.0007" height="14.4001" class="st2"/>
					<text x="0" y="578.35" class="st3">45道支相應</text>				</g>
			</g>
			<g id="group108-212" transform="translate(116.296,-93.1331)">
				<title>工作表.36</title>
				<desc>息念</desc>
				<g id="shape109-213">
					<title>工作表.109</title>
					<rect x="0" y="559.549" width="35.1209" height="22.4037" class="st1"/>
				</g>
				<g id="shape110-215" transform="translate(5.56,-4.00266)">
					<title>工作表.110</title>
					<desc>息念</desc>
					<rect x="0" y="567.552" width="24.0002" height="14.4001" class="st2"/>
					<text x="0" y="578.35" class="st3">息念</text>				</g>
			</g>
			<g id="group111-218" transform="translate(238.292,-93.1331)">
				<title>工作表.37</title>
				<desc>54入出息相應</desc>
				<g id="shape112-219">
					<title>工作表.112</title>
					<rect x="0" y="559.549" width="82.3948" height="22.4037" class="st1"/>
				</g>
				<g id="shape113-221" transform="translate(5.56,-4.00266)">
					<title>工作表.113</title>
					<desc>54入出息相應</desc>
					<rect x="0" y="567.552" width="84.0008" height="14.4001" class="st2"/>
					<text x="0" y="578.35" class="st3">54入出息相應</text>				</g>
			</g>
			<g id="group114-224" transform="translate(116.296,-62.0887)">
				<title>工作表.38</title>
				<desc>學</desc>
				<g id="shape115-225">
					<title>工作表.115</title>
					<rect x="0" y="559.549" width="23.1208" height="22.4037" class="st1"/>
				</g>
				<g id="shape116-227" transform="translate(5.56,-4.00266)">
					<title>工作表.116</title>
					<desc>學</desc>
					<rect x="0" y="567.552" width="12.0001" height="14.4001" class="st2"/>
					<text x="-0" y="578.35" class="st3">學</text>				</g>
			</g>
			<g id="group117-230" transform="translate(116.296,-31.0444)">
				<title>工作表.39</title>
				<desc>證淨</desc>
				<g id="shape118-231">
					<title>工作表.118</title>
					<rect x="0" y="559.549" width="35.1209" height="22.4037" class="st1"/>
				</g>
				<g id="shape119-233" transform="translate(5.56,-4.00266)">
					<title>工作表.119</title>
					<desc>證淨</desc>
					<rect x="0" y="567.552" width="24.0002" height="14.4001" class="st2"/>
					<text x="0" y="578.35" class="st3">證淨</text>				</g>
			</g>
			<g id="group120-236" transform="translate(238.292,-31.0444)">
				<title>工作表.40</title>
				<desc>55預流相應</desc>
				<g id="shape121-237">
					<title>工作表.121</title>
					<rect x="0" y="559.549" width="70.3947" height="22.4037" class="st1"/>
				</g>
				<g id="shape122-239" transform="translate(5.56,-4.00266)">
					<title>工作表.122</title>
					<desc>55預流相應</desc>
					<rect x="0" y="567.552" width="72.0007" height="14.4001" class="st2"/>
					<text x="0" y="578.35" class="st3">55預流相應</text>				</g>
			</g>
			<g id="group123-242" transform="translate(238.292,0)">
				<title>工作表.41</title>
				<desc>56諦</desc>
				<g id="shape124-243">
					<title>工作表.124</title>
					<rect x="0" y="559.549" width="34.3944" height="22.4037" class="st1"/>
				</g>
				<g id="shape125-245" transform="translate(5.56,-4.00266)">
					<title>工作表.125</title>
					<desc>56諦</desc>
					<rect x="0" y="567.552" width="36.0004" height="14.4001" class="st2"/>
					<text x="-0" y="578.35" class="st3">56諦</text>				</g>
			</g>
			<g id="group126-248" transform="translate(59.1211,-539.096)">
				<title>工作表.42</title>
				<g id="shape127-249">
					<title>工作表.127</title>
					<path d="M0 581.95 L57.17 581.95 L0 581.95 Z" class="st4"/>
					<path d="M0 581.95 L57.17 581.95" class="st5"/>
				</g>
			</g>
			<g id="group128-252" transform="translate(151.416,-539.096)">
				<title>工作表.43</title>
				<g id="shape129-253">
					<title>工作表.129</title>
					<path d="M0 581.95 L86.88 581.95 L0 581.95 Z" class="st4"/>
					<path d="M0 581.95 L86.88 581.95" class="st5"/>
				</g>
			</g>
			<g id="group130-256" transform="translate(296.687,-539.096)">
				<title>工作表.44</title>
				<g id="shape131-257">
					<title>工作表.131</title>
					<path d="M0 581.95 L80.4 581.95 L0 581.95 Z" class="st4"/>
					<path d="M0 581.95 L80.4 581.95" class="st5"/>
				</g>
			</g>
			<g id="group132-260" transform="translate(47.121,-507.915)">
				<title>工作表.45</title>
				<g id="shape133-261">
					<title>工作表.133</title>
					<path d="M0 581.95 L69.17 581.95 L0 581.95 Z" class="st4"/>
					<path d="M0 581.95 L69.17 581.95" class="st5"/>
				</g>
			</g>
			<g id="group134-264" transform="translate(139.416,-507.915)">
				<title>工作表.46</title>
				<g id="shape135-265">
					<title>工作表.135</title>
					<path d="M0 581.95 L98.88 581.95 L0 581.95 Z" class="st4"/>
					<path d="M0 581.95 L98.88 581.95" class="st5"/>
				</g>
			</g>
			<g id="group136-268" transform="translate(336.331,-496.576)">
				<title>工作表.47</title>
				<g id="shape137-269">
					<title>工作表.137</title>
					<path d="M0 581.95 L40.75 581.95 L0 581.95 Z" class="st4"/>
					<path d="M0 581.95 L40.75 581.95" class="st5"/>
				</g>
			</g>
			<g id="group140-272" transform="translate(67.2435,-432.429) rotate(-23.22)">
				<title>工作表.49</title>
				<g id="shape141-273">
					<title>工作表.141</title>
					<path d="M0 581.95 L43.14 581.95 L0 581.95 Z" class="st4"/>
					<path d="M0 581.95 L43.14 581.95" class="st5"/>
				</g>
			</g>
			<g id="group142-276" transform="translate(698.248,458.915) rotate(127.781)">
				<title>工作表.50</title>
				<g id="shape143-277">
					<title>工作表.143</title>
					<path d="M0 581.95 L161.39 581.95 L0 581.95 Z" class="st4"/>
					<path d="M0 581.95 L161.39 581.95" class="st6"/>
				</g>
			</g>
			<g id="group144-280" transform="translate(56.8407,-409.901) rotate(-8.15744)">
				<title>工作表.51</title>
				<g id="shape145-281">
					<title>工作表.145</title>
					<path d="M0 581.95 L99.89 581.95 L0 581.95 Z" class="st4"/>
					<path d="M0 581.95 L99.89 581.95" class="st6"/>
				</g>
			</g>
			<g id="group146-284" transform="translate(245.12,-436.542) rotate(9.26583)">
				<title>工作表.52</title>
				<g id="shape147-285">
					<title>工作表.147</title>
					<path d="M0 581.95 L88.02 581.95 L0 581.95 Z" class="st4"/>
					<path d="M0 581.95 L88.02 581.95" class="st5"/>
				</g>
			</g>
			<g id="group148-288" transform="translate(47.121,-403.033)">
				<title>工作表.53</title>
				<g id="shape149-289">
					<title>工作表.149</title>
					<path d="M0 581.95 L22.75 581.95 L69.17 540.85 L0 581.95 Z" class="st4"/>
					<path d="M0 581.95 L22.75 581.95 L69.17 540.85" class="st5"/>
				</g>
			</g>
			<g id="group150-292" transform="translate(-84.3224,-382.233) rotate(-15.3647)">
				<title>工作表.54</title>
				<g id="shape151-293">
					<title>工作表.151</title>
					<path d="M0 581.95 L48.14 581.95 L0 581.95 Z" class="st4"/>
					<path d="M0 581.95 L48.14 581.95" class="st5"/>
				</g>
			</g>
			<g id="group152-296" transform="translate(255.152,-372.752) rotate(18.5645)">
				<title>工作表.55</title>
				<g id="shape153-297">
					<title>工作表.153</title>
					<path d="M0 581.95 L48.97 581.95 L0 581.95 Z" class="st4"/>
					<path d="M0 581.95 L48.97 581.95" class="st5"/>
				</g>
			</g>
			<g id="group154-300" transform="translate(500.333,-212.711) rotate(47.7039)">
				<title>工作表.56</title>
				<g id="shape155-301">
					<title>工作表.155</title>
					<path d="M0 581.95 L68.98 581.95 L0 581.95 Z" class="st4"/>
					<path d="M0 581.95 L68.98 581.95" class="st5"/>
				</g>
			</g>
			<g id="group156-304" transform="translate(308.687,-429.962)">
				<title>工作表.57</title>
				<g id="shape157-305">
					<title>工作表.157</title>
					<path d="M0 581.95 L30.48 581.95 L0 581.95 Z" class="st4"/>
					<path d="M0 581.95 L30.48 581.95" class="st5"/>
				</g>
			</g>
			<g id="group158-308" transform="translate(296.687,-352.009)">
				<title>工作表.58</title>
				<g id="shape159-309">
					<title>工作表.159</title>
					<path d="M0 581.95 L42.48 581.95 L0 581.95 Z" class="st4"/>
					<path d="M0 581.95 L42.48 581.95" class="st5"/>
				</g>
			</g>
			<g id="group160-312" transform="translate(352.786,-390.48)">
				<title>工作表.59</title>
				<g id="shape161-313">
					<title>工作表.161</title>
					<path d="M0 581.95 L24.3 581.95 L0 581.95 Z" class="st4"/>
					<path d="M0 581.95 L24.3 581.95" class="st5"/>
				</g>
			</g>
			<g id="group162-316" transform="translate(889.304,-37.7935) rotate(70.9666)">
				<title>工作表.60</title>
				<g id="shape163-317">
					<title>工作表.163</title>
					<path d="M0 581.95 L41.77 581.95 L0 581.95 Z" class="st4"/>
					<path d="M0 581.95 L41.77 581.95" class="st5"/>
				</g>
			</g>
			<g id="group164-320" transform="translate(901.371,385.706) rotate(109.497)">
				<title>工作表.61</title>
				<g id="shape165-321">
					<title>工作表.165</title>
					<path d="M0 581.95 L40.81 581.95 L0 581.95 Z" class="st4"/>
					<path d="M0 581.95 L40.81 581.95" class="st5"/>
				</g>
			</g>
			<g id="group166-324" transform="translate(139.416,-352.009)">
				<title>工作表.63</title>
				<g id="shape167-325">
					<title>工作表.167</title>
					<path d="M0 581.95 L98.88 581.95 L0 581.95 Z" class="st4"/>
					<path d="M0 581.95 L98.88 581.95" class="st5"/>
				</g>
			</g>
			<g id="group168-328" transform="translate(139.416,-383.19)">
				<title>工作表.64</title>
				<g id="shape169-329">
					<title>工作表.169</title>
					<path d="M0 581.95 L38.17 581.95 L0 581.95 Z" class="st4"/>
					<path d="M0 581.95 L38.17 581.95" class="st5"/>
				</g>
			</g>
			<g id="group170-332" transform="translate(-336.04,663.987) rotate(-99.2838)">
				<title>工作表.65</title>
				<g id="shape171-333">
					<title>工作表.171</title>
					<path d="M0 581.95 L376.27 581.95 L0 581.95 Z" class="st4"/>
					<path d="M0 581.95 L376.27 581.95" class="st5"/>
				</g>
			</g>
			<g id="group172-336" transform="translate(151.416,-323.663)">
				<title>工作表.66</title>
				<g id="shape173-337">
					<title>工作表.173</title>
					<path d="M0 581.95 L86.88 581.95 L0 581.95 Z" class="st4"/>
					<path d="M0 581.95 L86.88 581.95" class="st5"/>
				</g>
			</g>
			<g id="group174-340" transform="translate(187.417,-289.647)">
				<title>工作表.67</title>
				<g id="shape175-341">
					<title>工作表.175</title>
					<path d="M0 581.95 L50.88 581.95 L0 581.95 Z" class="st4"/>
					<path d="M0 581.95 L50.88 581.95" class="st5"/>
				</g>
			</g>
			<g id="group176-344" transform="translate(187.417,-259.883)">
				<title>工作表.68</title>
				<g id="shape177-345">
					<title>工作表.177</title>
					<path d="M0 581.95 L50.88 581.95 L0 581.95 Z" class="st4"/>
					<path d="M0 581.95 L50.88 581.95" class="st5"/>
				</g>
			</g>
			<g id="group178-348" transform="translate(139.416,-227.285)">
				<title>工作表.69</title>
				<g id="shape179-349">
					<title>工作表.179</title>
					<path d="M0 581.95 L98.88 581.95 L0 581.95 Z" class="st4"/>
					<path d="M0 581.95 L98.88 581.95" class="st5"/>
				</g>
			</g>
			<g id="group180-352" transform="translate(139.416,-196.104)">
				<title>工作表.70</title>
				<g id="shape181-353">
					<title>工作表.181</title>
					<path d="M0 581.95 L98.88 581.95 L0 581.95 Z" class="st4"/>
					<path d="M0 581.95 L98.88 581.95" class="st5"/>
				</g>
			</g>
			<g id="group182-356" transform="translate(151.416,-167.757)">
				<title>工作表.71</title>
				<g id="shape183-357">
					<title>工作表.183</title>
					<path d="M0 581.95 L86.88 581.95 L0 581.95 Z" class="st4"/>
					<path d="M0 581.95 L86.88 581.95" class="st5"/>
				</g>
			</g>
			<g id="group184-360" transform="translate(151.416,-133.742)">
				<title>工作表.72</title>
				<g id="shape185-361">
					<title>工作表.185</title>
					<path d="M0 581.95 L86.88 581.95 L0 581.95 Z" class="st4"/>
					<path d="M0 581.95 L86.88 581.95" class="st5"/>
				</g>
			</g>
			<g id="group186-364" transform="translate(151.416,-103.978)">
				<title>工作表.73</title>
				<g id="shape187-365">
					<title>工作表.187</title>
					<path d="M0 581.95 L86.88 581.95 L0 581.95 Z" class="st4"/>
					<path d="M0 581.95 L86.88 581.95" class="st5"/>
				</g>
			</g>
			<g id="group188-368" transform="translate(151.416,-43.0327)">
				<title>工作表.74</title>
				<g id="shape189-369">
					<title>工作表.189</title>
					<path d="M0 581.95 L82.2 581.95 L86.88 581.95 L0 581.95 Z" class="st4"/>
					<path d="M0 581.95 L82.2 581.95 L86.88 581.95" class="st5"/>
				</g>
			</g>
			<g id="group190-372" transform="translate(670.767,435.019) rotate(107.679)">
				<title>工作表.75</title>
				<g id="shape191-373">
					<title>工作表.191</title>
					<path d="M0 581.95 L148.76 581.95 L0 581.95 Z" class="st4"/>
					<path d="M0 581.95 L148.76 581.95" class="st5"/>
				</g>
			</g>
			<g id="group192-376" transform="translate(651.891,521.339) rotate(113.024)">
				<title>工作表.76</title>
				<g id="shape193-377">
					<title>工作表.193</title>
					<path d="M0 581.95 L115.5 581.95 L0 581.95 Z" class="st4"/>
					<path d="M0 581.95 L115.5 581.95" class="st5"/>
				</g>
			</g>
			<g id="group194-380" transform="translate(619.812,613.865) rotate(120.093)">
				<title>工作表.77</title>
				<g id="shape195-381">
					<title>工作表.195</title>
					<path d="M0 581.95 L90.1 581.95 L0 581.95 Z" class="st4"/>
					<path d="M0 581.95 L90.1 581.95" class="st5"/>
				</g>
			</g>
			<g id="group196-384" transform="translate(546.572,742.252) rotate(132.323)">
				<title>工作表.78</title>
				<g id="shape197-385">
					<title>工作表.197</title>
					<path d="M0 581.95 L67.09 581.95 L0 581.95 Z" class="st4"/>
					<path d="M0 581.95 L67.09 581.95" class="st5"/>
				</g>
			</g>
			<g id="group198-388" transform="translate(290.508,941.118) rotate(162.581)">
				<title>工作表.79</title>
				<g id="shape199-389">
					<title>工作表.199</title>
					<path d="M0 581.95 L47.35 581.95 L0 581.95 Z" class="st4"/>
					<path d="M0 581.95 L47.35 581.95" class="st5"/>
				</g>
			</g>
			<g id="group200-392" transform="translate(-57.9164,969.465) rotate(-162.581)">
				<title>工作表.80</title>
				<g id="shape201-393">
					<title>工作表.201</title>
					<path d="M0 581.95 L47.35 581.95 L0 581.95 Z" class="st4"/>
					<path d="M0 581.95 L47.35 581.95" class="st5"/>
				</g>
			</g>
			<g id="group202-396" transform="translate(-313.98,841.465) rotate(-132.323)">
				<title>工作表.81</title>
				<g id="shape203-397">
					<title>工作表.203</title>
					<path d="M0 581.95 L67.09 581.95 L0 581.95 Z" class="st4"/>
					<path d="M0 581.95 L67.09 581.95" class="st5"/>
				</g>
			</g>
			<g id="group204-400" transform="translate(-387.22,769.77) rotate(-120.093)">
				<title>工作表.82</title>
				<g id="shape205-401">
					<title>工作表.205</title>
					<path d="M0 581.95 L90.1 581.95 L0 581.95 Z" class="st4"/>
					<path d="M0 581.95 L90.1 581.95" class="st5"/>
				</g>
			</g>
			<g id="group206-404" transform="translate(-419.3,733.938) rotate(-113.024)">
				<title>工作表.83</title>
				<g id="shape207-405">
					<title>工作表.207</title>
					<path d="M0 581.95 L115.5 581.95 L0 581.95 Z" class="st4"/>
					<path d="M0 581.95 L115.5 581.95" class="st5"/>
				</g>
			</g>
			<g id="group208-408" transform="translate(-438.176,718.484) rotate(-107.679)">
				<title>工作表.84</title>
				<g id="shape209-409">
					<title>工作表.209</title>
					<path d="M0 581.95 L148.76 581.95 L0 581.95 Z" class="st4"/>
					<path d="M0 581.95 L148.76 581.95" class="st5"/>
				</g>
			</g>
			<g id="group210-412" transform="translate(308.687,-323.663)">
				<title>工作表.85</title>
				<g id="shape211-413">
					<title>工作表.211</title>
					<path d="M0 581.95 L20.56 581.95 L0 581.95 Z" class="st4"/>
					<path d="M0 581.95 L20.56 581.95" class="st5"/>
				</g>
			</g>
			<g id="group212-416" transform="translate(308.687,-181.931)">
				<title>工作表.86</title>
				<g id="shape213-417">
					<title>工作表.213</title>
					<path d="M0 471.4 L20.56 471.4 L70.16 581.95 L0 471.4 Z" class="st4"/>
					<path d="M0 471.4 L20.56 471.4 L70.16 581.95" class="st5"/>
				</g>
			</g>
			<g id="group214-420" transform="translate(308.687,-259.883)">
				<title>工作表.87</title>
				<g id="shape215-421">
					<title>工作表.215</title>
					<path d="M0 581.95 L20.56 581.95 L0 581.95 Z" class="st4"/>
					<path d="M0 581.95 L20.56 581.95" class="st5"/>
				</g>
			</g>
			<g id="group216-424" transform="translate(296.687,-227.285)">
				<title>工作表.88</title>
				<g id="shape217-425">
					<title>工作表.217</title>
					<path d="M0 581.95 L32.56 581.95 L0 581.95 Z" class="st4"/>
					<path d="M0 581.95 L32.56 581.95" class="st5"/>
				</g>
			</g>
			<g id="group218-428" transform="translate(296.687,-196.104)">
				<title>工作表.89</title>
				<g id="shape219-429">
					<title>工作表.219</title>
					<path d="M0 581.95 L32.56 581.95 L0 581.95 Z" class="st4"/>
					<path d="M0 581.95 L32.56 581.95" class="st5"/>
				</g>
			</g>
			<g id="group220-432" transform="translate(308.687,-167.757)">
				<title>工作表.90</title>
				<g id="shape221-433">
					<title>工作表.221</title>
					<path d="M0 581.95 L20.56 581.95 L0 581.95 Z" class="st4"/>
					<path d="M0 581.95 L20.56 581.95" class="st5"/>
				</g>
			</g>
			<g id="group222-436" transform="translate(308.687,-133.742)">
				<title>工作表.91</title>
				<g id="shape223-437">
					<title>工作表.223</title>
					<path d="M0 581.95 L20.56 581.95 L0 581.95 Z" class="st4"/>
					<path d="M0 581.95 L20.56 581.95" class="st5"/>
				</g>
			</g>
			<g id="group224-440" transform="translate(320.687,-103.978)">
				<title>工作表.92</title>
				<g id="shape225-441">
					<title>工作表.225</title>
					<path d="M0 581.95 L7.95 581.95 L0 581.95 Z" class="st4"/>
					<path d="M0 581.95 L7.95 581.95" class="st5"/>
				</g>
			</g>
			<g id="group226-444" transform="translate(308.687,-43.0327)">
				<title>工作表.93</title>
				<g id="shape227-445">
					<title>工作表.227</title>
					<path d="M0 581.95 L20.56 581.95 L0 581.95 Z" class="st4"/>
					<path d="M0 581.95 L20.56 581.95" class="st5"/>
				</g>
			</g>
			<g id="group228-448" transform="translate(272.686,-11.8516)">
				<title>工作表.94</title>
				<g id="shape229-449">
					<title>工作表.229</title>
					<path d="M0 581.95 L56.56 581.95 L0 581.95 Z" class="st4"/>
					<path d="M0 581.95 L56.56 581.95" class="st5"/>
				</g>
			</g>
			<g id="group230-452" transform="translate(878.527,66.0431) rotate(70.71)">
				<title>工作表.95</title>
				<g id="shape231-453">
					<title>工作表.231</title>
					<path d="M0 581.95 L150.16 581.95 L0 581.95 Z" class="st4"/>
					<path d="M0 581.95 L150.16 581.95" class="st5"/>
				</g>
			</g>
			<g id="group232-456" transform="translate(820.217,9.6344) rotate(57.5288)">
				<title>工作表.96</title>
				<g id="shape233-457">
					<title>工作表.233</title>
					<path d="M0 581.95 L92.4 581.95 L0 581.95 Z" class="st4"/>
					<path d="M0 581.95 L92.4 581.95" class="st5"/>
				</g>
			</g>
			<g id="group234-460" transform="translate(721.93,-74.8293) rotate(42.4362)">
				<title>工作表.97</title>
				<g id="shape235-461">
					<title>工作表.235</title>
					<path d="M0 581.95 L67.21 581.95 L0 581.95 Z" class="st4"/>
					<path d="M0 581.95 L67.21 581.95" class="st5"/>
				</g>
			</g>
			<g id="group236-464" transform="translate(489.12,-173.713) rotate(15.9454)">
				<title>工作表.98</title>
				<g id="shape237-465">
					<title>工作表.237</title>
					<path d="M0 581.95 L51.59 581.95 L0 581.95 Z" class="st4"/>
					<path d="M0 581.95 L51.59 581.95" class="st5"/>
				</g>
			</g>
			<g id="group238-468" transform="translate(169.368,-145.366) rotate(-15.9454)">
				<title>工作表.99</title>
				<g id="shape239-469">
					<title>工作表.239</title>
					<path d="M0 581.95 L51.59 581.95 L0 581.95 Z" class="st4"/>
					<path d="M0 581.95 L51.59 581.95" class="st5"/>
				</g>
			</g>
			<g id="group240-472" transform="translate(-76.2535,30.7892) rotate(-44.1697)">
				<title>工作表.100</title>
				<g id="shape241-473">
					<title>工作表.241</title>
					<path d="M0 581.95 L69.16 581.95 L0 581.95 Z" class="st4"/>
					<path d="M0 581.95 L69.16 581.95" class="st5"/>
				</g>
			</g>
			<g id="group242-476" transform="translate(-160.602,162.831) rotate(-57.2122)">
				<title>工作表.101</title>
				<g id="shape243-477">
					<title>工作表.243</title>
					<path d="M0 581.95 L92.73 581.95 L0 581.95 Z" class="st4"/>
					<path d="M0 581.95 L92.73 581.95" class="st5"/>
				</g>
			</g>
			<g id="group244-480" transform="translate(-229.432,407.156) rotate(-73.7398)">
				<title>工作表.102</title>
				<g id="shape245-481">
					<title>工作表.245</title>
					<path d="M0 581.95 L177.17 581.95 L0 581.95 Z" class="st4"/>
					<path d="M0 581.95 L177.17 581.95" class="st5"/>
				</g>
			</g>
			<g id="group246-484" transform="translate(-218.807,343.19) rotate(-70.3462)">
				<title>工作表.103</title>
				<g id="shape247-485">
					<title>工作表.247</title>
					<path d="M0 581.95 L147.49 581.95 L0 581.95 Z" class="st4"/>
					<path d="M0 581.95 L147.49 581.95" class="st5"/>
				</g>
			</g>
			<g id="shape248-488" transform="translate(509.163,-471.371) rotate(20.472)">
				<title>工作表.248</title>
				<path d="M0 581.95 L33.02 581.95" class="st7"/>
			</g>
		</g>
	</g>
</svg>
