<?xml version="1.0" encoding="UTF-8" standalone="no"?>
<!DOCTYPE svg PUBLIC "-//W3C//DTD SVG 1.1//EN" "http://www.w3.org/Graphics/SVG/1.1/DTD/svg11.dtd">
<!-- 由 Microsoft Visio, SVG Export 產生 y35.0523.svg Page-1 -->
<svg xmlns="http://www.w3.org/2000/svg" xmlns:xlink="http://www.w3.org/1999/xlink" xmlns:ev="http://www.w3.org/2001/xml-events"
		xmlns:v="http://schemas.microsoft.com/visio/2003/SVGExtensions/" width="8.26772in" height="11.6929in"
		viewBox="0 0 595.276 841.89" xml:space="preserve" color-interpolation-filters="sRGB" class="st5">
	<v:documentProperties v:langID="1028" v:metric="true" v:viewMarkup="false">
		<v:userDefs>
			<v:ud v:nameU="msvNoAutoConnect" v:val="VT0(1):26"/>
		</v:userDefs>
	</v:documentProperties>

	<style type="text/css">
	<![CDATA[
		.st1 {stroke:#000000;stroke-linecap:round;stroke-linejoin:round;stroke-width:0.24}
		.st2 {fill:#ffffff;stroke:none;stroke-linecap:round;stroke-linejoin:round;stroke-width:0.75}
		.st3 {fill:#000000;font-family:新細明體;font-size:1.00001em}
		.st4 {stroke:#000000;stroke-linecap:round;stroke-linejoin:round;stroke-width:0.75}
		.st5 {fill:none;fill-rule:evenodd;font-size:12px;overflow:visible;stroke-linecap:square;stroke-miterlimit:3}
	]]>
	</style>

	<g v:mID="0" v:index="1" v:groupContext="foregroundPage">
		<title>頁-1</title>
		<v:pageProperties v:drawingScale="0.0393701" v:pageScale="0.0393701" v:drawingUnits="24" v:shadowOffsetX="8.50394"
				v:shadowOffsetY="-8.50394"/>
		<v:layer v:name="連接器" v:index="0"/>
		<g id="shape2-1" v:mID="2" v:groupContext="shape" transform="translate(191.339,-772.441)">
			<title>左大括弧.2</title>
			<v:userDefs>
				<v:ud v:nameU="visVersion" v:prompt="" v:val="VT0(15):26"/>
			</v:userDefs>
			<path d="M7.09 841.89 A9.48756 7.11567 0 0 1 4.06 838.92 A4.25197 4.25197 0 0 1 3.54 836.89 L3.54 822.4 A1.77165 1.77165
						 -180 0 0 1.77 820.63 L0 820.63 L0 820.63 A3.54331 3.54331 -180 0 0 3.54 817.09 L3.54 804.37 A4.25197 4.25197
						 0 0 1 4.06 802.34 A9.48756 7.11567 0 0 1 7.09 799.37" class="st1"/>
		</g>
		<g id="shape3-4" v:mID="3" v:groupContext="shape" transform="translate(20.5054,-751.397)">
			<title>工作表.3</title>
			<desc>所問如理</desc>
			<v:textBlock v:margins="rect(4,4,4,4)" v:tabSpace="42.5197"/>
			<v:textRect cx="29.5605" cy="830.688" width="59.13" height="22.4037"/>
			<rect x="0" y="819.486" width="59.1211" height="22.4037" class="st2"/>
			<text x="5.56" y="834.29" class="st3" v:langID="1028"><v:paragraph v:horizAlign="1"/><v:tabList/>所問如理</text>		</g>
		<g id="shape4-7" v:mID="4" v:groupContext="shape" transform="translate(198.425,-800.609)">
			<title>工作表.4</title>
			<desc>法義決定</desc>
			<v:textBlock v:margins="rect(4,4,4,4)" v:tabSpace="42.5197"/>
			<v:textRect cx="29.5605" cy="830.688" width="59.13" height="22.4037"/>
			<rect x="0" y="819.486" width="59.1211" height="22.4037" class="st2"/>
			<text x="5.56" y="834.29" class="st3" v:langID="1028"><v:paragraph v:horizAlign="1"/><v:tabList/>法義決定</text>		</g>
		<g id="shape5-10" v:mID="5" v:groupContext="shape" transform="translate(295.21,-800.609)">
			<title>工作表.5</title>
			<desc>應一向記</desc>
			<v:textBlock v:margins="rect(4,4,4,4)" v:tabSpace="42.5197"/>
			<v:textRect cx="29.5605" cy="830.688" width="59.13" height="22.4037"/>
			<rect x="0" y="819.486" width="59.1211" height="22.4037" class="st2"/>
			<text x="5.56" y="834.29" class="st3" v:langID="1028"><v:paragraph v:horizAlign="1"/><v:tabList/>應一向記</text>		</g>
		<g id="shape6-13" v:mID="6" v:groupContext="shape" transform="translate(110.958,-780.924)">
			<title>工作表.6</title>
			<desc>詞意明確</desc>
			<v:textBlock v:margins="rect(4,4,4,4)" v:tabSpace="42.5197"/>
			<v:textRect cx="29.5605" cy="830.688" width="59.13" height="22.4037"/>
			<rect x="0" y="819.486" width="59.1211" height="22.4037" class="st2"/>
			<text x="5.56" y="834.29" class="st3" v:langID="1028"><v:paragraph v:horizAlign="1"/><v:tabList/>詞意明確</text>		</g>
		<g id="shape7-16" v:mID="7" v:groupContext="shape" transform="translate(198.425,-761.239)">
			<title>工作表.7</title>
			<desc>法義不定</desc>
			<v:textBlock v:margins="rect(4,4,4,4)" v:tabSpace="42.5197"/>
			<v:textRect cx="29.5605" cy="830.688" width="59.13" height="22.4037"/>
			<rect x="0" y="819.486" width="59.1211" height="22.4037" class="st2"/>
			<text x="5.56" y="834.29" class="st3" v:langID="1028"><v:paragraph v:horizAlign="1"/><v:tabList/>法義不定</text>		</g>
		<g id="shape8-19" v:mID="8" v:groupContext="shape" transform="translate(295.21,-761.239)">
			<title>工作表.8</title>
			<desc>應分別記</desc>
			<v:textBlock v:margins="rect(4,4,4,4)" v:tabSpace="42.5197"/>
			<v:textRect cx="29.5605" cy="830.688" width="59.13" height="22.4037"/>
			<rect x="0" y="819.486" width="59.1211" height="22.4037" class="st2"/>
			<text x="5.56" y="834.29" class="st3" v:langID="1028"><v:paragraph v:horizAlign="1"/><v:tabList/>應分別記</text>		</g>
		<g id="shape9-22" v:mID="9" v:groupContext="shape" transform="translate(110.958,-721.869)">
			<title>工作表.9</title>
			<desc>詞意不明</desc>
			<v:textBlock v:margins="rect(4,4,4,4)" v:tabSpace="42.5197"/>
			<v:textRect cx="29.5605" cy="830.688" width="59.13" height="22.4037"/>
			<rect x="0" y="819.486" width="59.1211" height="22.4037" class="st2"/>
			<text x="5.56" y="834.29" class="st3" v:langID="1028"><v:paragraph v:horizAlign="1"/><v:tabList/>詞意不明</text>		</g>
		<g id="shape10-25" v:mID="10" v:groupContext="shape" transform="translate(295.21,-721.869)">
			<title>工作表.10</title>
			<desc>應反詰記</desc>
			<v:textBlock v:margins="rect(4,4,4,4)" v:tabSpace="42.5197"/>
			<v:textRect cx="29.5605" cy="830.688" width="59.13" height="22.4037"/>
			<rect x="0" y="819.486" width="59.1211" height="22.4037" class="st2"/>
			<text x="5.56" y="834.29" class="st3" v:langID="1028"><v:paragraph v:horizAlign="1"/><v:tabList/>應反詰記</text>		</g>
		<g id="shape11-28" v:mID="11" v:groupContext="shape" transform="translate(295.21,-682.499)">
			<title>工作表.11</title>
			<desc>應捨置記</desc>
			<v:textBlock v:margins="rect(4,4,4,4)" v:tabSpace="42.5197"/>
			<v:textRect cx="29.5605" cy="830.688" width="59.13" height="22.4037"/>
			<rect x="0" y="819.486" width="59.1211" height="22.4037" class="st2"/>
			<text x="5.56" y="834.29" class="st3" v:langID="1028"><v:paragraph v:horizAlign="1"/><v:tabList/>應捨置記</text>		</g>
		<g id="shape12-31" v:mID="12" v:groupContext="shape" transform="translate(18,-682.499)">
			<title>工作表.12</title>
			<desc>所問非理</desc>
			<v:textBlock v:margins="rect(4,4,4,4)" v:tabSpace="42.5197"/>
			<v:textRect cx="29.5605" cy="830.688" width="59.13" height="22.4037"/>
			<rect x="0" y="819.486" width="59.1211" height="22.4037" class="st2"/>
			<text x="5.56" y="834.29" class="st3" v:langID="1028"><v:paragraph v:horizAlign="1"/><v:tabList/>所問非理</text>		</g>
		<g id="shape13-34" v:mID="13" v:groupContext="shape" transform="translate(102.047,-733.071)">
			<title>左大括弧.13</title>
			<v:userDefs>
				<v:ud v:nameU="visVersion" v:prompt="" v:val="VT0(15):26"/>
			</v:userDefs>
			<path d="M7.09 841.89 A9.48756 10.1464 0 0 1 4.28 838.19 A8.50394 8.50394 0 0 1 3.54 834.73 L3.54 813.35 A1.77165 1.77165
						 -180 0 0 1.77 811.57 L0 811.57 L0 811.57 A3.54331 3.54331 -180 0 0 3.54 808.03 L3.54 788.42 A8.50394 8.50394
						 0 0 1 4.28 784.96 A9.48756 10.1464 0 0 1 7.09 781.26" class="st1"/>
		</g>
		<g id="shape16-37" v:mID="16" v:groupContext="shape" v:layerMember="0" transform="translate(79.6265,-755.433)">
			<title>動態連接器</title>
			<path d="M0 834.8 L19.59 834.8" class="st4"/>
		</g>
		<g id="shape17-40" v:mID="17" v:groupContext="shape" v:layerMember="0" transform="translate(170.079,-786.614)">
			<title>動態連接器.17</title>
			<path d="M0 834.8 L21.26 834.8" class="st4"/>
		</g>
		<g id="shape18-43" v:mID="18" v:groupContext="shape" v:layerMember="0" transform="translate(257.546,-804.724)">
			<title>動態連接器.18</title>
			<path d="M0 834.8 L37.66 834.8" class="st4"/>
		</g>
		<g id="shape19-46" v:mID="19" v:groupContext="shape" v:layerMember="0" transform="translate(257.546,-765.354)">
			<title>動態連接器.19</title>
			<path d="M0 834.8 L37.66 834.8" class="st4"/>
		</g>
		<g id="shape20-49" v:mID="20" v:groupContext="shape" v:layerMember="0" transform="translate(295.21,-725.984)">
			<title>動態連接器.20</title>
			<path d="M0 834.8 L-125.13 834.8" class="st4"/>
		</g>
		<g id="shape21-52" v:mID="21" v:groupContext="shape" v:layerMember="0" transform="translate(77.1211,-686.614)">
			<title>動態連接器.21</title>
			<path d="M0 834.8 L218.09 834.8" class="st4"/>
		</g>
	</g>
</svg>
