<?xml version="1.0" encoding="UTF-8" standalone="no"?>
<!DOCTYPE svg PUBLIC "-//W3C//DTD SVG 1.1//EN" "http://www.w3.org/Graphics/SVG/1.1/DTD/svg11.dtd">
<!-- 由 Microsoft Visio, SVG Export 產生 y35.0525.svg 頁-1 -->
<svg xmlns="http://www.w3.org/2000/svg" xmlns:xlink="http://www.w3.org/1999/xlink" xmlns:ev="http://www.w3.org/2001/xml-events"
		width="4.27313in" height="1.15045in" viewBox="0 0 307.666 82.8326" xml:space="preserve" color-interpolation-filters="sRGB"
		class="st6">
	<style type="text/css">
	<![CDATA[
		.st1 {fill:#ffffff;stroke:none;stroke-linecap:round;stroke-linejoin:round;stroke-width:0.749999}
		.st2 {fill:#000000;font-family:新細明體;font-size:1.00001em}
		.st3 {fill:none}
		.st4 {stroke:#000000;stroke-linecap:round;stroke-linejoin:round;stroke-width:0.24}
		.st5 {stroke:#000000;stroke-linecap:round;stroke-linejoin:round;stroke-width:0.749999}
		.st6 {fill:none;fill-rule:evenodd;font-size:12px;overflow:visible;stroke-linecap:square;stroke-miterlimit:3}
	]]>
	</style>

	<g>
		<title>頁-1</title>
		<g id="group13-1" transform="translate(0.374999,-0.374999)">
			<title>工作表.13</title>
			<g id="shape1-2" transform="translate(259.795,-59.6789)">
				<title>工作表.1</title>
				<desc>廣分別</desc>
				<rect x="0" y="60.4289" width="47.1209" height="22.4037" class="st1"/>
				<text x="5.56" y="75.23" class="st2">廣分別</text>			</g>
			<g id="shape2-5" transform="translate(258.912,-29.49)">
				<title>工作表.2</title>
				<desc>廣問答</desc>
				<rect x="0" y="60.4289" width="47.1209" height="22.4037" class="st1"/>
				<text x="5.56" y="75.23" class="st2">廣問答</text>			</g>
			<g id="shape3-8" transform="translate(180.73,-43.6629)">
				<title>工作表.3</title>
				<desc>問答與分別</desc>
				<rect x="0" y="60.4289" width="71.1211" height="22.4037" class="st1"/>
				<text x="5.56" y="75.23" class="st2">問答與分別</text>			</g>
			<g id="shape4-11" transform="translate(180.73,-1.27898E-13)">
				<title>工作表.4</title>
				<desc>所證與所生</desc>
				<rect x="0" y="60.4289" width="71.1211" height="22.4037" class="st1"/>
				<text x="5.56" y="75.23" class="st2">所證與所生</text>			</g>
			<g id="shape5-14" transform="translate(72.6245,-43.6629)">
				<title>工作表.5</title>
				<desc>形式一般的</desc>
				<rect x="0" y="60.4289" width="95.1212" height="22.4037" class="st1"/>
				<text x="5.56" y="75.23" class="st2">形式（一般的）</text>			</g>
			<g id="shape6-17" transform="translate(72.6245,-1.27898E-13)">
				<title>工作表.6</title>
				<desc>內容特殊的</desc>
				<rect x="0" y="60.4289" width="95.1212" height="22.4037" class="st1"/>
				<text x="5.56" y="75.23" class="st2">內容（特殊的）</text>			</g>
			<g id="shape7-20" transform="translate(-1.59872E-14,-20.986)">
				<title>工作表.7</title>
				<desc>記說</desc>
				<rect x="0" y="60.4289" width="35.1208" height="22.4037" class="st1"/>
				<text x="5.56" y="75.23" class="st2">記說</text>			</g>
			<g id="shape8-23" transform="translate(251.851,-39.5556)">
				<title>左大括弧</title>
				<path d="M7.31 82.83 A9.79301 5.43245 180 0 1 3.95 80.21 A2.12598 2.12598 0 0 1 3.66 79.12 L3.66 69.49 A1.82869 1.82869
							 -180 0 0 1.83 67.66 L0 67.66 A3.65738 3.65738 -180 0 0 3.66 64 L3.66 54.07 A2.12598 2.12598 0 0 1 3.95
							 52.99 A9.79301 5.43245 180 0 1 7.31 50.37 L7.31 82.83 Z" class="st3"/>
				<path d="M7.31 82.83 A9.79301 5.43245 180 0 1 3.95 80.21 A2.12598 2.12598 0 0 1 3.66 79.12 L3.66 69.49 A1.82869 1.82869
							 -180 0 0 1.83 67.66 L0 67.66 A3.65738 3.65738 -180 0 0 3.66 64 L3.66 54.07 A2.12598 2.12598 0 0 1 3.95
							 52.99 A9.79301 5.43245 180 0 1 7.31 50.37" class="st4"/>
			</g>
			<g id="shape9-26" transform="translate(65.3938,-11.2017)">
				<title>左大括弧.10</title>
				<path d="M7.31 82.83 A9.79301 7.49851 180 0 1 4.09 79.52 A4.25196 4.25196 0 0 1 3.66 77.64 L3.66 63.72 A1.82869 1.82869
							 -180 0 0 1.83 61.89 L0 61.89 A3.65738 3.65738 -180 0 0 3.66 58.23 L3.66 43.21 A4.25196 4.25196 0 0 1
							 4.09 41.34 A9.79301 7.49851 180 0 1 7.31 38.02 L7.31 82.83 Z" class="st3"/>
				<path d="M7.31 82.83 A9.79301 7.49851 180 0 1 4.09 79.52 A4.25196 4.25196 0 0 1 3.66 77.64 L3.66 63.72 A1.82869 1.82869
							 -180 0 0 1.83 61.89 L0 61.89 A3.65738 3.65738 -180 0 0 3.66 58.23 L3.66 43.21 A4.25196 4.25196 0 0 1
							 4.09 41.34 A9.79301 7.49851 180 0 1 7.31 38.02" class="st4"/>
			</g>
			<g id="shape10-29" transform="translate(167.741,-54.8686)">
				<title>動態連接器</title>
				<path d="M0 82.83 L12.99 82.83 L0 82.83 Z" class="st3"/>
				<path d="M0 82.83 L12.99 82.83" class="st5"/>
			</g>
			<g id="shape11-32" transform="translate(167.741,-11.2047)">
				<title>動態連接器.12</title>
				<path d="M0 82.83 L12.99 82.83 L0 82.83 Z" class="st3"/>
				<path d="M0 82.83 L12.99 82.83" class="st5"/>
			</g>
			<g id="shape12-35" transform="translate(35.1208,-32.1907)">
				<title>動態連接器.13</title>
				<path d="M0 82.83 L30.83 82.83 L0 82.83 Z" class="st3"/>
				<path d="M0 82.83 L30.83 82.83" class="st5"/>
			</g>
		</g>
	</g>
</svg>
