<?xml version="1.0" encoding="UTF-8" standalone="no"?>
<!DOCTYPE svg PUBLIC "-//W3C//DTD SVG 1.1//EN" "http://www.w3.org/Graphics/SVG/1.1/DTD/svg11.dtd">
<!-- 由 Microsoft Visio, SVG Export 產生 y35.0153.svg 頁-1 -->
<svg xmlns="http://www.w3.org/2000/svg" xmlns:xlink="http://www.w3.org/1999/xlink" xmlns:ev="http://www.w3.org/2001/xml-events"
		width="7.45136in" height="3.7112in" viewBox="0 0 536.498 267.207" xml:space="preserve" color-interpolation-filters="sRGB"
		class="st5">
	<style type="text/css">
	<![CDATA[
		.st1 {fill:none;stroke:none;stroke-linecap:round;stroke-linejoin:round;stroke-width:0.75}
		.st2 {fill:#000000;font-family:新細明體;font-size:1.33333em}
		.st3 {stroke:#000000;stroke-linecap:round;stroke-linejoin:round;stroke-width:0.24}
		.st4 {fill:#000000;font-family:新細明體;font-size:0.916672em}
		.st5 {fill:none;fill-rule:evenodd;font-size:12px;overflow:visible;stroke-linecap:square;stroke-miterlimit:3}
	]]>
	</style>

	<g>
		<title>頁-1</title>
		<g id="group160-1" transform="translate(0.375,-0.375)">
			<title>工作表.160</title>
			<g id="shape1-2" transform="translate(2.39808E-14,-146.268)">
				<title>工作表.1</title>
				<desc>共尼獨在屏處坐</desc>
				<rect x="0" y="244.53" width="120.189" height="22.6772" class="st1"/>
				<text x="4.09" y="260.67" class="st2">共尼獨在屏處坐</text>			</g>
			<g id="shape2-5" transform="translate(1.91847E-13,-109.701)">
				<title>工作表.2</title>
				<desc>食家與女人坐</desc>
				<rect x="0" y="244.53" width="104.031" height="22.6772" class="st1"/>
				<text x="4.02" y="260.67" class="st2">食家與女人坐</text>			</g>
			<g id="shape3-8" transform="translate(2.79776E-13,-73.1339)">
				<title>工作表.3</title>
				<desc>食家與女屏處坐</desc>
				<rect x="0" y="244.53" width="120.189" height="22.6772" class="st1"/>
				<text x="4.09" y="260.67" class="st2">食家與女屏處坐</text>			</g>
			<g id="shape4-11" transform="translate(4.07674E-13,-36.5669)">
				<title>工作表.4</title>
				<desc>獨與女人屏處坐</desc>
				<rect x="0" y="244.53" width="120.189" height="22.6772" class="st1"/>
				<text x="4.09" y="260.67" class="st2">獨與女人屏處坐</text>			</g>
			<g id="shape5-14">
				<title>工作表.5</title>
				<desc>獨與女人露處坐</desc>
				<rect x="0" y="244.53" width="120.189" height="22.6772" class="st1"/>
				<text x="4.09" y="260.67" class="st2">獨與女人露處坐</text>			</g>
			<g id="shape10-17" transform="translate(224.787,-194.457)">
				<title>工作表.10</title>
				<desc>優波離問</desc>
				<rect x="0" y="195.207" width="22.6772" height="72" class="st1"/>
				<text x="11.34" y="199.21" writing-mode="tb-rl" class="st2">優波離問</text>			</g>
			<g id="shape11-20" transform="translate(465.024,-194.457)">
				<title>工作表.11</title>
				<desc>僧祇戒本</desc>
				<rect x="0" y="195.207" width="22.6772" height="72" class="st1"/>
				<text x="11.34" y="199.21" writing-mode="tb-rl" class="st2">僧祇戒本</text>			</g>
			<g id="shape12-23" transform="translate(176.74,-194.457)">
				<title>工作表.12</title>
				<desc>銅鍱戒本</desc>
				<rect x="0" y="195.207" width="22.6772" height="72" class="st1"/>
				<text x="11.34" y="199.21" writing-mode="tb-rl" class="st2">銅鍱戒本</text>			</g>
			<g id="shape13-26" transform="translate(272.835,-194.457)">
				<title>工作表.13</title>
				<desc>五分戒本</desc>
				<rect x="0" y="195.207" width="22.6772" height="72" class="st1"/>
				<text x="11.34" y="199.21" writing-mode="tb-rl" class="st2">五分戒本</text>			</g>
			<g id="shape14-29" transform="translate(320.882,-194.457)">
				<title>工作表.14</title>
				<desc>四分戒本</desc>
				<rect x="0" y="195.207" width="22.6772" height="72" class="st1"/>
				<text x="11.34" y="199.21" writing-mode="tb-rl" class="st2">四分戒本</text>			</g>
			<g id="shape15-32" transform="translate(513.071,-194.457)">
				<title>工作表.15</title>
				<desc>解脫戒經</desc>
				<rect x="0" y="195.207" width="22.6772" height="72" class="st1"/>
				<text x="11.34" y="199.21" writing-mode="tb-rl" class="st2">解脫戒經</text>			</g>
			<g id="shape19-35" transform="translate(368.929,-194.457)">
				<title>工作表.19</title>
				<desc>十誦戒本</desc>
				<rect x="0" y="195.207" width="22.6772" height="72" class="st1"/>
				<text x="11.34" y="199.21" writing-mode="tb-rl" class="st2">十誦戒本</text>			</g>
			<g id="shape22-38" transform="translate(416.409,-194.457)">
				<title>工作表.22</title>
				<desc>根有戒經</desc>
				<rect x="0" y="195.207" width="22.6772" height="72" class="st1"/>
				<text x="11.34" y="199.21" writing-mode="tb-rl" class="st2">根有戒經</text>			</g>
			<g id="shape27-41" transform="translate(-103.364,264.23) rotate(-90)">
				<title>工作表.27</title>
				<path d="M0 267.21 L260.79 267.21" class="st3"/>
			</g>
			<g id="shape28-44" transform="translate(534.614,352.429) rotate(180)">
				<title>工作表.28</title>
				<path d="M0 267.21 L531.5 267.21" class="st3"/>
			</g>
			<g id="shape43-47" transform="translate(176.74,-4.54747E-13)">
				<title>工作表.43</title>
				<desc>45</desc>
				<rect x="0" y="244.53" width="22.6772" height="22.6772" class="st1"/>
				<text x="6.17" y="259.17" class="st4">45</text>			</g>
			<g id="shape44-50" transform="translate(176.74,-36.5669)">
				<title>工作表.44</title>
				<desc>41</desc>
				<rect x="0" y="244.53" width="22.6772" height="22.6772" class="st1"/>
				<text x="6.17" y="259.17" class="st4">41</text>			</g>
			<g id="shape45-53" transform="translate(176.74,-73.1339)">
				<title>工作表.45</title>
				<desc>‧</desc>
				<rect x="0" y="244.53" width="22.6772" height="22.6772" class="st1"/>
				<text x="5.84" y="259.17" class="st4">‧</text>			</g>
			<g id="shape46-56" transform="translate(176.74,-109.701)">
				<title>工作表.46</title>
				<desc>43</desc>
				<rect x="0" y="244.53" width="22.6772" height="22.6772" class="st1"/>
				<text x="6.17" y="259.17" class="st4">43</text>			</g>
			<g id="shape47-59" transform="translate(176.74,-146.268)">
				<title>工作表.47</title>
				<desc>30</desc>
				<rect x="0" y="244.53" width="22.6772" height="22.6772" class="st1"/>
				<text x="6.17" y="259.17" class="st4">30</text>			</g>
			<g id="shape59-62" transform="translate(224.787,-6.25278E-13)">
				<title>工作表.59</title>
				<desc>31</desc>
				<rect x="0" y="244.53" width="22.6772" height="22.6772" class="st1"/>
				<text x="6.17" y="259.17" class="st4">31</text>			</g>
			<g id="shape60-65" transform="translate(224.787,-36.5669)">
				<title>工作表.60</title>
				<desc>45</desc>
				<rect x="0" y="244.53" width="22.6772" height="22.6772" class="st1"/>
				<text x="6.17" y="259.17" class="st4">45</text>			</g>
			<g id="shape61-68" transform="translate(224.787,-73.1339)">
				<title>工作表.61</title>
				<desc>‧</desc>
				<rect x="0" y="244.53" width="22.6772" height="22.6772" class="st1"/>
				<text x="5.84" y="259.17" class="st4">‧</text>			</g>
			<g id="shape62-71" transform="translate(224.787,-109.701)">
				<title>工作表.62</title>
				<desc>44</desc>
				<rect x="0" y="244.53" width="22.6772" height="22.6772" class="st1"/>
				<text x="6.17" y="259.17" class="st4">44</text>			</g>
			<g id="shape63-74" transform="translate(224.787,-146.268)">
				<title>工作表.63</title>
				<desc>30</desc>
				<rect x="0" y="244.53" width="22.6772" height="22.6772" class="st1"/>
				<text x="6.17" y="259.17" class="st4">30</text>			</g>
			<g id="shape75-77" transform="translate(272.835,-7.38964E-13)">
				<title>工作表.75</title>
				<desc>44</desc>
				<rect x="0" y="244.53" width="22.6772" height="22.6772" class="st1"/>
				<text x="6.17" y="259.17" class="st4">44</text>			</g>
			<g id="shape76-80" transform="translate(272.835,-36.5669)">
				<title>工作表.76</title>
				<desc>43</desc>
				<rect x="0" y="244.53" width="22.6772" height="22.6772" class="st1"/>
				<text x="6.17" y="259.17" class="st4">43</text>			</g>
			<g id="shape77-83" transform="translate(272.835,-73.1339)">
				<title>工作表.77</title>
				<desc>‧</desc>
				<rect x="0" y="244.53" width="22.6772" height="22.6772" class="st1"/>
				<text x="5.84" y="259.17" class="st4">‧</text>			</g>
			<g id="shape78-86" transform="translate(272.835,-109.701)">
				<title>工作表.78</title>
				<desc>42</desc>
				<rect x="0" y="244.53" width="22.6772" height="22.6772" class="st1"/>
				<text x="6.17" y="259.17" class="st4">42</text>			</g>
			<g id="shape79-89" transform="translate(272.835,-146.268)">
				<title>工作表.79</title>
				<desc>25</desc>
				<rect x="0" y="244.53" width="22.6772" height="22.6772" class="st1"/>
				<text x="6.17" y="259.17" class="st4">25</text>			</g>
			<g id="shape91-92" transform="translate(320.882,-9.66338E-13)">
				<title>工作表.91</title>
				<desc>45</desc>
				<rect x="0" y="244.53" width="22.6772" height="22.6772" class="st1"/>
				<text x="6.17" y="259.17" class="st4">45</text>			</g>
			<g id="shape92-95" transform="translate(320.882,-36.5669)">
				<title>工作表.92</title>
				<desc>‧</desc>
				<rect x="0" y="244.53" width="22.6772" height="22.6772" class="st1"/>
				<text x="5.84" y="259.17" class="st4">‧</text>			</g>
			<g id="shape93-98" transform="translate(320.882,-73.1339)">
				<title>工作表.93</title>
				<desc>44</desc>
				<rect x="0" y="244.53" width="22.6772" height="22.6772" class="st1"/>
				<text x="6.17" y="259.17" class="st4">44</text>			</g>
			<g id="shape94-101" transform="translate(320.882,-109.701)">
				<title>工作表.94</title>
				<desc>43</desc>
				<rect x="0" y="244.53" width="22.6772" height="22.6772" class="st1"/>
				<text x="6.17" y="259.17" class="st4">43</text>			</g>
			<g id="shape95-104" transform="translate(320.882,-146.268)">
				<title>工作表.95</title>
				<desc>26</desc>
				<rect x="0" y="244.53" width="22.6772" height="22.6772" class="st1"/>
				<text x="6.17" y="259.17" class="st4">26</text>			</g>
			<g id="shape107-107" transform="translate(368.929,-1.13687E-12)">
				<title>工作表.107</title>
				<desc>29</desc>
				<rect x="0" y="244.53" width="22.6772" height="22.6772" class="st1"/>
				<text x="6.17" y="259.17" class="st4">29</text>			</g>
			<g id="shape108-110" transform="translate(368.929,-36.5669)">
				<title>工作表.108</title>
				<desc>‧</desc>
				<rect x="0" y="244.53" width="22.6772" height="22.6772" class="st1"/>
				<text x="5.84" y="259.17" class="st4">‧</text>			</g>
			<g id="shape109-113" transform="translate(368.929,-73.1339)">
				<title>工作表.109</title>
				<desc>43</desc>
				<rect x="0" y="244.53" width="22.6772" height="22.6772" class="st1"/>
				<text x="6.17" y="259.17" class="st4">43</text>			</g>
			<g id="shape110-116" transform="translate(368.929,-109.701)">
				<title>工作表.110</title>
				<desc>42</desc>
				<rect x="0" y="244.53" width="22.6772" height="22.6772" class="st1"/>
				<text x="6.17" y="259.17" class="st4">42</text>			</g>
			<g id="shape111-119" transform="translate(368.929,-146.268)">
				<title>工作表.111</title>
				<desc>28</desc>
				<rect x="0" y="244.53" width="22.6772" height="22.6772" class="st1"/>
				<text x="6.17" y="259.17" class="st4">28</text>			</g>
			<g id="shape123-122" transform="translate(416.409,-1.42109E-12)">
				<title>工作表.123</title>
				<desc>‧</desc>
				<rect x="0" y="244.53" width="22.6772" height="22.6772" class="st1"/>
				<text x="5.84" y="259.17" class="st4">‧</text>			</g>
			<g id="shape124-125" transform="translate(416.409,-36.5669)">
				<title>工作表.124</title>
				<desc>28</desc>
				<rect x="0" y="244.53" width="22.6772" height="22.6772" class="st1"/>
				<text x="6.17" y="259.17" class="st4">28</text>			</g>
			<g id="shape125-128" transform="translate(416.409,-73.1339)">
				<title>工作表.125</title>
				<desc>43</desc>
				<rect x="0" y="244.53" width="22.6772" height="22.6772" class="st1"/>
				<text x="6.17" y="259.17" class="st4">43</text>			</g>
			<g id="shape126-131" transform="translate(416.409,-109.701)">
				<title>工作表.126</title>
				<desc>42</desc>
				<rect x="0" y="244.53" width="22.6772" height="22.6772" class="st1"/>
				<text x="6.17" y="259.17" class="st4">42</text>			</g>
			<g id="shape127-134" transform="translate(416.409,-146.268)">
				<title>工作表.127</title>
				<desc>29</desc>
				<rect x="0" y="244.53" width="22.6772" height="22.6772" class="st1"/>
				<text x="6.17" y="259.17" class="st4">29</text>			</g>
			<g id="shape139-137" transform="translate(465.024,-1.47793E-12)">
				<title>工作表.139</title>
				<desc>‧</desc>
				<rect x="0" y="244.53" width="22.6772" height="22.6772" class="st1"/>
				<text x="5.84" y="259.17" class="st4">‧</text>			</g>
			<g id="shape140-140" transform="translate(465.024,-36.5669)">
				<title>工作表.140</title>
				<desc>70</desc>
				<rect x="0" y="244.53" width="22.6772" height="22.6772" class="st1"/>
				<text x="6.17" y="259.17" class="st4">70</text>			</g>
			<g id="shape141-143" transform="translate(465.024,-73.1339)">
				<title>工作表.141</title>
				<desc>54</desc>
				<rect x="0" y="244.53" width="22.6772" height="22.6772" class="st1"/>
				<text x="6.17" y="259.17" class="st4">54</text>			</g>
			<g id="shape142-146" transform="translate(465.024,-109.701)">
				<title>工作表.142</title>
				<desc>53</desc>
				<rect x="0" y="244.53" width="22.6772" height="22.6772" class="st1"/>
				<text x="6.17" y="259.17" class="st4">53</text>			</g>
			<g id="shape143-149" transform="translate(465.024,-146.268)">
				<title>工作表.143</title>
				<desc>25</desc>
				<rect x="0" y="244.53" width="22.6772" height="22.6772" class="st1"/>
				<text x="6.17" y="259.17" class="st4">25</text>			</g>
			<g id="shape155-152" transform="translate(513.071,-1.64846E-12)">
				<title>工作表.155</title>
				<desc>‧</desc>
				<rect x="0" y="244.53" width="22.6772" height="22.6772" class="st1"/>
				<text x="5.84" y="259.17" class="st4">‧</text>			</g>
			<g id="shape156-155" transform="translate(513.071,-36.5669)">
				<title>工作表.156</title>
				<desc>29</desc>
				<rect x="0" y="244.53" width="22.6772" height="22.6772" class="st1"/>
				<text x="6.17" y="259.17" class="st4">29</text>			</g>
			<g id="shape157-158" transform="translate(513.071,-73.1339)">
				<title>工作表.157</title>
				<desc>42</desc>
				<rect x="0" y="244.53" width="22.6772" height="22.6772" class="st1"/>
				<text x="6.17" y="259.17" class="st4">42</text>			</g>
			<g id="shape158-161" transform="translate(513.071,-109.701)">
				<title>工作表.158</title>
				<desc>43</desc>
				<rect x="0" y="244.53" width="22.6772" height="22.6772" class="st1"/>
				<text x="6.17" y="259.17" class="st4">43</text>			</g>
			<g id="shape159-164" transform="translate(513.071,-146.268)">
				<title>工作表.159</title>
				<desc>‧</desc>
				<rect x="0" y="244.53" width="22.6772" height="22.6772" class="st1"/>
				<text x="5.84" y="259.17" class="st4">‧</text>			</g>
		</g>
	</g>
</svg>
