<?xml version="1.0" encoding="UTF-8" standalone="no"?>
<!DOCTYPE svg PUBLIC "-//W3C//DTD SVG 1.1//EN" "http://www.w3.org/Graphics/SVG/1.1/DTD/svg11.dtd">
<!-- 由 Microsoft Visio, SVG Export 產生 y35.0525.svg 頁-1 -->
<svg xmlns="http://www.w3.org/2000/svg" xmlns:xlink="http://www.w3.org/1999/xlink" xmlns:ev="http://www.w3.org/2001/xml-events"
		width="4.27314in" height="1.15046in" viewBox="0 0 307.666 82.833" xml:space="preserve" color-interpolation-filters="sRGB"
		class="st5">
	<style type="text/css">
	<![CDATA[
		.st1 {fill:none;stroke:none;stroke-linecap:round;stroke-linejoin:round;stroke-width:0.75}
		.st2 {fill:#000000;font-family:新細明體;font-size:1.00001em}
		.st3 {stroke:#000000;stroke-linecap:round;stroke-linejoin:round;stroke-width:0.24}
		.st4 {stroke:#000000;stroke-linecap:round;stroke-linejoin:round;stroke-width:0.75}
		.st5 {fill:none;fill-rule:evenodd;font-size:12px;overflow:visible;stroke-linecap:square;stroke-miterlimit:3}
	]]>
	</style>

	<g>
		<title>頁-1</title>
		<g id="group14-1" transform="translate(0.375,-0.375)">
			<title>工作表.14</title>
			<g id="shape1-2" transform="translate(259.795,-59.6793)">
				<title>工作表.1</title>
				<desc>廣分別</desc>
				<rect x="0" y="60.4293" width="47.121" height="22.4037" class="st1"/>
				<text x="5.56" y="75.23" class="st2">廣分別</text>			</g>
			<g id="shape2-5" transform="translate(258.912,-29.4903)">
				<title>工作表.2</title>
				<desc>廣問答</desc>
				<rect x="0" y="60.4293" width="47.121" height="22.4037" class="st1"/>
				<text x="5.56" y="75.23" class="st2">廣問答</text>			</g>
			<g id="shape3-8" transform="translate(180.73,-43.6636)">
				<title>工作表.3</title>
				<desc>問答與分別</desc>
				<rect x="0" y="60.4293" width="71.1212" height="22.4037" class="st1"/>
				<text x="5.56" y="75.23" class="st2">問答與分別</text>			</g>
			<g id="shape4-11" transform="translate(180.73,7.10543E-14)">
				<title>工作表.4</title>
				<desc>所證與所生</desc>
				<rect x="0" y="60.4293" width="71.1212" height="22.4037" class="st1"/>
				<text x="5.56" y="75.23" class="st2">所證與所生</text>			</g>
			<g id="shape5-14" transform="translate(72.6246,-43.6636)">
				<title>工作表.5</title>
				<desc>形式一般的</desc>
				<rect x="0" y="60.4293" width="95.1213" height="22.4037" class="st1"/>
				<text x="5.56" y="75.23" class="st2">形式（一般的）</text>			</g>
			<g id="shape6-17" transform="translate(72.6246,7.10543E-14)">
				<title>工作表.6</title>
				<desc>內容特殊的</desc>
				<rect x="0" y="60.4293" width="95.1213" height="22.4037" class="st1"/>
				<text x="5.56" y="75.23" class="st2">內容（特殊的）</text>			</g>
			<g id="shape7-20" transform="translate(0,-20.9864)">
				<title>工作表.7</title>
				<desc>記說</desc>
				<rect x="0" y="60.4293" width="35.1209" height="22.4037" class="st1"/>
				<text x="5.56" y="75.23" class="st2">記說</text>			</g>
			<g id="shape9-23" transform="translate(251.851,-39.5558)">
				<title>左大括弧</title>
				<path d="M7.31 82.83 A9.79302 5.43246 0 0 1 3.95 80.21 A2.12598 2.12598 0 0 1 3.66 79.13 L3.66 69.49 A1.82869 1.82869
							 -180 0 0 1.83 67.66 L0 67.66 L0 67.66 A3.65739 3.65739 -180 0 0 3.66 64 L3.66 54.08 A2.12598 2.12598
							 0 0 1 3.95 52.99 A9.79302 5.43246 0 0 1 7.31 50.37" class="st3"/>
			</g>
			<g id="shape10-26" transform="translate(65.3939,-11.2019)">
				<title>左大括弧.10</title>
				<path d="M7.31 82.83 A9.79302 7.49852 0 0 1 4.09 79.52 A4.25197 4.25197 0 0 1 3.66 77.64 L3.66 63.72 A1.82869 1.82869
							 -180 0 0 1.83 61.89 L0 61.89 L0 61.89 A3.65739 3.65739 -180 0 0 3.66 58.23 L3.66 43.22 A4.25197 4.25197
							 0 0 1 4.09 41.34 A9.79302 7.49852 0 0 1 7.31 38.03" class="st3"/>
			</g>
			<g id="shape11-29" transform="translate(167.151,-47.7788)">
				<title>動態連接器</title>
				<path d="M0.59 75.75 L13.58 75.75" class="st4"/>
			</g>
			<g id="shape12-32" transform="translate(167.151,-4.11524)">
				<title>動態連接器.12</title>
				<path d="M0.59 75.75 L13.58 75.75" class="st4"/>
			</g>
			<g id="shape13-35" transform="translate(35.1209,-25.1016)">
				<title>動態連接器.13</title>
				<path d="M0 75.75 L30.83 75.75" class="st4"/>
			</g>
		</g>
	</g>
</svg>
