<?xml version="1.0" encoding="UTF-8" standalone="no"?>
<!DOCTYPE svg PUBLIC "-//W3C//DTD SVG 1.1//EN" "http://www.w3.org/Graphics/SVG/1.1/DTD/svg11.dtd">
<!-- 由 Microsoft Visio, SVG Export 產生 y35.0789.svg 頁-1 -->
<svg xmlns="http://www.w3.org/2000/svg" xmlns:xlink="http://www.w3.org/1999/xlink" xmlns:ev="http://www.w3.org/2001/xml-events"
		width="4.48483in" height="2.4141in" viewBox="0 0 322.907 173.815" xml:space="preserve" color-interpolation-filters="sRGB"
		class="st6">
	<style type="text/css">
	<![CDATA[
		.st1 {fill:none;stroke:none;stroke-linecap:round;stroke-linejoin:round;stroke-width:0.75}
		.st2 {fill:#000000;font-family:新細明體;font-size:1.00001em}
		.st3 {stroke:#000000;stroke-linecap:round;stroke-linejoin:round;stroke-width:1}
		.st4 {stroke:#000000;stroke-dasharray:1,2;stroke-linecap:round;stroke-linejoin:round;stroke-width:1}
		.st5 {stroke:#000000;stroke-dasharray:0,3;stroke-linecap:round;stroke-linejoin:round;stroke-width:1}
		.st6 {fill:none;fill-rule:evenodd;font-size:12px;overflow:visible;stroke-linecap:square;stroke-miterlimit:3}
	]]>
	</style>

	<g>
		<title>頁-1</title>
		<g id="group28-1" transform="translate(0.375,-0.375)">
			<title>工作表.28</title>
			<g id="shape1-2" transform="translate(1.59872E-14,-150.661)">
				<title>工作表.1</title>
				<desc>雜</desc>
				<rect x="0" y="151.411" width="23.1208" height="22.4037" class="st1"/>
				<text x="5.56" y="166.21" class="st2">雜</text>			</g>
			<g id="shape2-5" transform="translate(67.0394,-150.661)">
				<title>工作表.2</title>
				<desc>修多羅</desc>
				<rect x="0" y="151.411" width="47.121" height="22.4037" class="st1"/>
				<text x="5.56" y="166.21" class="st2">修多羅</text>			</g>
			<g id="shape3-8" transform="translate(79.0395,-124.588)">
				<title>工作表.3</title>
				<desc>祇夜</desc>
				<rect x="0" y="151.411" width="35.1209" height="22.4037" class="st1"/>
				<text x="5.56" y="166.21" class="st2">祇夜</text>			</g>
			<g id="shape4-11" transform="translate(79.0395,-86.1832)">
				<title>工作表.4</title>
				<desc>記說</desc>
				<rect x="0" y="151.411" width="35.1209" height="22.4037" class="st1"/>
				<text x="5.56" y="166.21" class="st2">記說</text>			</g>
			<g id="shape5-14" transform="translate(123.732,-99.2126)">
				<title>工作表.5</title>
				<desc>弟子所說</desc>
				<rect x="0" y="151.411" width="59.1211" height="22.4037" class="st1"/>
				<text x="5.56" y="166.21" class="st2">弟子所說</text>			</g>
			<g id="shape6-17" transform="translate(123.732,-74.9814)">
				<title>工作表.6</title>
				<desc>如來所說</desc>
				<rect x="0" y="151.411" width="59.1211" height="22.4037" class="st1"/>
				<text x="5.56" y="166.21" class="st2">如來所說</text>			</g>
			<g id="shape7-20" transform="translate(146.329,-50.7502)">
				<title>工作表.7</title>
				<desc>新增</desc>
				<rect x="0" y="151.411" width="59.1211" height="22.4037" class="st1"/>
				<text x="5.56" y="166.21" class="st2">（新增）</text>			</g>
			<g id="shape8-23" transform="translate(172.408,-26.519)">
				<title>工作表.8</title>
				<desc>新增</desc>
				<rect x="0" y="151.411" width="59.1211" height="22.4037" class="st1"/>
				<text x="5.56" y="166.21" class="st2">（新增）</text>			</g>
			<g id="shape9-26" transform="translate(199.054,1.13687E-13)">
				<title>工作表.9</title>
				<desc>新增</desc>
				<rect x="0" y="151.411" width="59.1211" height="22.4037" class="st1"/>
				<text x="5.56" y="166.21" class="st2">（新增）</text>			</g>
			<g id="shape10-29" transform="translate(225.558,-50.7502)">
				<title>工作表.10</title>
				<desc>中</desc>
				<rect x="0" y="151.411" width="23.1208" height="22.4037" class="st1"/>
				<text x="5.56" y="166.21" class="st2">中</text>			</g>
			<g id="shape11-32" transform="translate(255.95,-26.519)">
				<title>工作表.11</title>
				<desc>長</desc>
				<rect x="0" y="151.411" width="23.1208" height="22.4037" class="st1"/>
				<text x="5.56" y="166.21" class="st2">長</text>			</g>
			<g id="shape12-35" transform="translate(287.037,0)">
				<title>工作表.12</title>
				<desc>增壹</desc>
				<rect x="0" y="151.411" width="35.1209" height="22.4037" class="st1"/>
				<text x="5.56" y="166.21" class="st2">增壹</text>			</g>
			<g id="shape13-38" transform="translate(116.146,-82.2147)">
				<title>左大括弧</title>
				<path d="M5.6 173.82 A7.49852 5.40791 0 0 1 2.96 171.04 A2.12598 2.12598 0 0 1 2.8 170.24 L2.8 159.06 A1.40023 1.40023
							 -180 0 0 1.4 157.66 L0 157.66 L0 157.66 A2.80046 2.80046 -180 0 0 2.8 154.86 L2.8 145.08 A2.12598 2.12598
							 0 0 1 2.96 144.27 A7.49852 5.40791 0 0 1 5.6 141.5" class="st3"/>
			</g>
			<g id="shape14-41" transform="translate(23.1208,-162.719)">
				<title>工作表.14</title>
				<path d="M0 173.82 L43.92 173.82" class="st3"/>
			</g>
			<g id="shape15-44" transform="translate(196.936,11.0965) rotate(90)">
				<title>工作表.15</title>
				<path d="M0 173.82 L65.2 173.82" class="st3"/>
			</g>
			<g id="shape16-47" transform="translate(23.1208,-135.79)">
				<title>工作表.16</title>
				<path d="M0 173.82 L55.92 173.82" class="st3"/>
			</g>
			<g id="shape17-50" transform="translate(23.1208,-97.5218)">
				<title>工作表.17</title>
				<path d="M0 173.82 L55.92 173.82" class="st3"/>
			</g>
			<g id="shape18-53" transform="translate(114.16,-162.719)">
				<title>工作表.18</title>
				<path d="M0 173.82 L111.62 173.82" class="st3"/>
			</g>
			<g id="shape19-56" transform="translate(399.594,11.4851) rotate(90.1281)">
				<title>工作表.19</title>
				<path d="M0 173.82 L99.21 173.82" class="st3"/>
			</g>
			<g id="shape20-59" transform="translate(200.268,-63.5061)">
				<title>工作表.20</title>
				<path d="M0 173.82 L25.29 173.82" class="st3"/>
			</g>
			<g id="shape21-62" transform="translate(182.853,-110.278)">
				<title>工作表.21</title>
				<path d="M0 173.82 L42.81 173.82" class="st3"/>
			</g>
			<g id="shape22-65" transform="translate(114.16,-137.207)">
				<title>工作表.22</title>
				<path d="M0 173.82 L141.79 173.82" class="st4"/>
			</g>
			<g id="shape23-68" transform="translate(82.1347,138.656) rotate(-90)">
				<title>工作表.23</title>
				<path d="M0 173.82 L102.05 173.82" class="st5"/>
			</g>
			<g id="shape24-71" transform="translate(182.853,-12.4825)">
				<title>工作表.24</title>
				<path d="M0 100.11 L73.1 100.11 L102.45 100.11 L102.45 173.82 L70.87 173.82" class="st4"/>
			</g>
			<g id="shape25-74" transform="translate(248.679,-63.5061)">
				<title>工作表.25</title>
				<path d="M0 173.82 L7.27 173.82" class="st4"/>
			</g>
			<g id="shape26-77" transform="translate(222.945,-36.5769)">
				<title>工作表.26</title>
				<path d="M0 173.82 L33 173.82" class="st4"/>
			</g>
			<g id="shape27-80" transform="translate(279.071,-37.9943)">
				<title>工作表.27</title>
				<path d="M0 173.82 L6.24 173.82" class="st4"/>
			</g>
		</g>
	</g>
</svg>
