<?xml version="1.0" encoding="UTF-8" standalone="no"?>
<!DOCTYPE svg PUBLIC "-//W3C//DTD SVG 1.1//EN" "http://www.w3.org/Graphics/SVG/1.1/DTD/svg11.dtd">
<!-- 由 Microsoft Visio, SVG Export 產生 y35.0687.svg 頁-1 -->
<svg xmlns="http://www.w3.org/2000/svg" xmlns:xlink="http://www.w3.org/1999/xlink" xmlns:ev="http://www.w3.org/2001/xml-events"
		width="6.06882in" height="8.08267in" viewBox="0 0 436.955 581.952" xml:space="preserve" color-interpolation-filters="sRGB"
		class="st5">
	<style type="text/css">
	<![CDATA[
		.st1 {fill:none;stroke:none;stroke-linecap:round;stroke-linejoin:round;stroke-width:0.75}
		.st2 {fill:#000000;font-family:新細明體;font-size:1.00001em}
		.st3 {stroke:#000000;stroke-linecap:round;stroke-linejoin:round;stroke-width:1}
		.st4 {stroke:#000000;stroke-dasharray:7,5;stroke-linecap:round;stroke-linejoin:round;stroke-width:1}
		.st5 {fill:none;fill-rule:evenodd;font-size:12px;overflow:visible;stroke-linecap:square;stroke-miterlimit:3}
	]]>
	</style>

	<g>
		<title>頁-1</title>
		<g id="group104-1" transform="translate(0.375,-0.375)">
			<title>工作表.104</title>
			<g id="shape1-2" transform="translate(3.9968E-14,-558.799)">
				<title>工作表.1</title>
				<desc>〔雜阿含經〕</desc>
				<rect x="0" y="559.549" width="83.1212" height="22.4037" class="st1"/>
				<text x="5.56" y="574.35" class="st2">〔雜阿含經〕</text>			</g>
			<g id="shape2-5" transform="translate(238.292,-558.217)">
				<title>工作表.2</title>
				<desc>〔相應部〕</desc>
				<rect x="0" y="559.549" width="71.1212" height="22.4037" class="st1"/>
				<text x="5.56" y="574.35" class="st2">〔相應部〕</text>			</g>
			<g id="shape3-8" transform="translate(7.99361E-15,-527.754)">
				<title>工作表.3</title>
				<desc>Ⅰ五取蘊</desc>
				<rect x="0" y="559.549" width="59.1211" height="22.4037" class="st1"/>
				<text x="5.56" y="574.35" class="st2">Ⅰ五取蘊</text>			</g>
			<g id="shape4-11" transform="translate(116.296,-527.754)">
				<title>工作表.4</title>
				<desc>取蘊</desc>
				<rect x="0" y="559.549" width="35.1209" height="22.4037" class="st1"/>
				<text x="5.56" y="574.35" class="st2">取蘊</text>			</g>
			<g id="shape5-14" transform="translate(238.292,-527.754)">
				<title>工作表.5</title>
				<desc>22蘊相應</desc>
				<rect x="0" y="559.549" width="58.3946" height="22.4037" class="st1"/>
				<text x="5.56" y="574.35" class="st2">22蘊相應</text>			</g>
			<g id="shape6-17" transform="translate(377.084,-527.754)">
				<title>工作表.6</title>
				<desc>Ⅲ蘊品</desc>
				<rect x="0" y="559.549" width="47.121" height="22.4037" class="st1"/>
				<text x="5.56" y="574.35" class="st2">Ⅲ蘊品</text>			</g>
			<g id="shape7-20" transform="translate(1.59872E-14,-496.71)">
				<title>工作表.7</title>
				<desc>Ⅱ六處</desc>
				<rect x="0" y="559.549" width="47.121" height="22.4037" class="st1"/>
				<text x="5.56" y="574.35" class="st2">Ⅱ六處</text>			</g>
			<g id="shape8-23" transform="translate(116.296,-496.71)">
				<title>工作表.8</title>
				<desc>處</desc>
				<rect x="0" y="559.549" width="23.1208" height="22.4037" class="st1"/>
				<text x="5.56" y="574.35" class="st2">處</text>			</g>
			<g id="shape9-26" transform="translate(238.292,-496.71)">
				<title>工作表.9</title>
				<desc>35處相應</desc>
				<rect x="0" y="559.549" width="58.3946" height="22.4037" class="st1"/>
				<text x="5.56" y="574.35" class="st2">35處相應</text>			</g>
			<g id="shape10-29" transform="translate(377.084,-484.091)">
				<title>工作表.10</title>
				<desc>Ⅳ處品</desc>
				<rect x="0" y="559.549" width="47.121" height="22.4037" class="st1"/>
				<text x="5.56" y="574.35" class="st2">Ⅳ處品</text>			</g>
			<g id="shape11-32" transform="translate(238.292,-465.666)">
				<title>工作表.11</title>
				<desc>36受相應</desc>
				<rect x="0" y="559.549" width="58.3946" height="22.4037" class="st1"/>
				<text x="5.56" y="574.35" class="st2">36受相應</text>			</g>
			<g id="shape12-35" transform="translate(1.59872E-14,-391.691)">
				<title>工作表.12</title>
				<desc>Ⅲ因緣</desc>
				<rect x="0" y="559.549" width="47.121" height="22.4037" class="st1"/>
				<text x="5.56" y="574.35" class="st2">Ⅲ因緣</text>			</g>
			<g id="shape13-38" transform="translate(377.084,-380.353)">
				<title>工作表.13</title>
				<desc>Ⅱ因緣品</desc>
				<rect x="0" y="559.549" width="59.1211" height="22.4037" class="st1"/>
				<text x="5.56" y="574.35" class="st2">Ⅱ因緣品</text>			</g>
			<g id="shape14-41" transform="translate(238.292,-420.038)">
				<title>工作表.14</title>
				<desc>12因緣相應</desc>
				<rect x="0" y="559.549" width="70.3947" height="22.4037" class="st1"/>
				<text x="5.56" y="574.35" class="st2">12因緣相應</text>			</g>
			<g id="shape15-44" transform="translate(116.296,-434.621)">
				<title>工作表.15</title>
				<desc>緣起</desc>
				<rect x="0" y="559.549" width="35.1209" height="22.4037" class="st1"/>
				<text x="5.56" y="574.35" class="st2">緣起</text>			</g>
			<g id="shape16-47" transform="translate(116.296,-403.577)">
				<title>工作表.16</title>
				<desc>食</desc>
				<rect x="0" y="559.549" width="23.1208" height="22.4037" class="st1"/>
				<text x="5.56" y="574.35" class="st2">食</text>			</g>
			<g id="shape17-50" transform="translate(116.296,-372.532)">
				<title>工作表.17</title>
				<desc>諦</desc>
				<rect x="0" y="559.549" width="23.1208" height="22.4037" class="st1"/>
				<text x="5.56" y="574.35" class="st2">諦</text>			</g>
			<g id="shape18-53" transform="translate(116.296,-341.488)">
				<title>工作表.18</title>
				<desc>界</desc>
				<rect x="0" y="559.549" width="23.1208" height="22.4037" class="st1"/>
				<text x="5.56" y="574.35" class="st2">界</text>			</g>
			<g id="shape19-56" transform="translate(238.292,-341.488)">
				<title>工作表.19</title>
				<desc>14界相應</desc>
				<rect x="0" y="559.549" width="58.3946" height="22.4037" class="st1"/>
				<text x="5.56" y="574.35" class="st2">14界相應</text>			</g>
			<g id="shape20-59" transform="translate(1.19904E-14,-170.726)">
				<title>工作表.20</title>
				<desc>Ⅳ菩提分法</desc>
				<rect x="0" y="559.549" width="71.1212" height="22.4037" class="st1"/>
				<text x="5.56" y="574.35" class="st2">Ⅳ菩提分法</text>			</g>
			<g id="shape21-62" transform="translate(378.85,-170.726)">
				<title>工作表.21</title>
				<desc>Ⅴ大品</desc>
				<rect x="0" y="559.549" width="47.121" height="22.4037" class="st1"/>
				<text x="5.56" y="574.35" class="st2">Ⅴ大品</text>			</g>
			<g id="shape22-65" transform="translate(116.296,-310.444)">
				<title>工作表.22</title>
				<desc>念住</desc>
				<rect x="0" y="559.549" width="35.1209" height="22.4037" class="st1"/>
				<text x="5.56" y="574.35" class="st2">念住</text>			</g>
			<g id="shape23-68" transform="translate(238.292,-310.444)">
				<title>工作表.23</title>
				<desc>47念住相應</desc>
				<rect x="0" y="559.549" width="70.3947" height="22.4037" class="st1"/>
				<text x="5.56" y="574.35" class="st2">47念住相應</text>			</g>
			<g id="shape24-71" transform="translate(116.296,-279.399)">
				<title>工作表.24</title>
				<desc>正斷佚</desc>
				<rect x="0" y="559.549" width="71.1212" height="22.4037" class="st1"/>
				<text x="5.56" y="574.35" class="st2">正斷（佚）</text>			</g>
			<g id="shape25-74" transform="translate(238.292,-279.399)">
				<title>工作表.25</title>
				<desc>49正勤相應</desc>
				<rect x="0" y="559.549" width="70.3947" height="22.4037" class="st1"/>
				<text x="5.56" y="574.35" class="st2">49正勤相應</text>			</g>
			<g id="shape26-77" transform="translate(116.296,-248.355)">
				<title>工作表.26</title>
				<desc>神足佚</desc>
				<rect x="0" y="559.549" width="71.1212" height="22.4037" class="st1"/>
				<text x="5.56" y="574.35" class="st2">神足（佚）</text>			</g>
			<g id="shape27-80" transform="translate(238.292,-248.355)">
				<title>工作表.27</title>
				<desc>51神足相應</desc>
				<rect x="0" y="559.549" width="70.3947" height="22.4037" class="st1"/>
				<text x="5.56" y="574.35" class="st2">51神足相應</text>			</g>
			<g id="shape28-83" transform="translate(116.296,-217.311)">
				<title>工作表.28</title>
				<desc>根</desc>
				<rect x="0" y="559.549" width="23.1208" height="22.4037" class="st1"/>
				<text x="5.56" y="574.35" class="st2">根</text>			</g>
			<g id="shape29-86" transform="translate(238.292,-217.311)">
				<title>工作表.29</title>
				<desc>48根相應</desc>
				<rect x="0" y="559.549" width="58.3946" height="22.4037" class="st1"/>
				<text x="5.56" y="574.35" class="st2">48根相應</text>			</g>
			<g id="shape30-89" transform="translate(116.296,-186.266)">
				<title>工作表.30</title>
				<desc>力</desc>
				<rect x="0" y="559.549" width="23.1208" height="22.4037" class="st1"/>
				<text x="5.56" y="574.35" class="st2">力</text>			</g>
			<g id="shape31-92" transform="translate(238.292,-186.266)">
				<title>工作表.31</title>
				<desc>50力相應</desc>
				<rect x="0" y="559.549" width="58.3946" height="22.4037" class="st1"/>
				<text x="5.56" y="574.35" class="st2">50力相應</text>			</g>
			<g id="shape32-95" transform="translate(238.292,-155.222)">
				<title>工作表.32</title>
				<desc>46覺支相應</desc>
				<rect x="0" y="559.549" width="70.3947" height="22.4037" class="st1"/>
				<text x="5.56" y="574.35" class="st2">46覺支相應</text>			</g>
			<g id="shape33-98" transform="translate(116.296,-155.222)">
				<title>工作表.33</title>
				<desc>覺分</desc>
				<rect x="0" y="559.549" width="35.1209" height="22.4037" class="st1"/>
				<text x="5.56" y="574.35" class="st2">覺分</text>			</g>
			<g id="shape34-101" transform="translate(116.296,-124.177)">
				<title>工作表.34</title>
				<desc>道分</desc>
				<rect x="0" y="559.549" width="35.1209" height="22.4037" class="st1"/>
				<text x="5.56" y="574.35" class="st2">道分</text>			</g>
			<g id="shape35-104" transform="translate(238.292,-124.177)">
				<title>工作表.35</title>
				<desc>45道支相應</desc>
				<rect x="0" y="559.549" width="70.3947" height="22.4037" class="st1"/>
				<text x="5.56" y="574.35" class="st2">45道支相應</text>			</g>
			<g id="shape36-107" transform="translate(116.296,-93.1331)">
				<title>工作表.36</title>
				<desc>息念</desc>
				<rect x="0" y="559.549" width="35.1209" height="22.4037" class="st1"/>
				<text x="5.56" y="574.35" class="st2">息念</text>			</g>
			<g id="shape37-110" transform="translate(238.292,-93.1331)">
				<title>工作表.37</title>
				<desc>54入出息相應</desc>
				<rect x="0" y="559.549" width="82.3948" height="22.4037" class="st1"/>
				<text x="5.56" y="574.35" class="st2">54入出息相應</text>			</g>
			<g id="shape38-113" transform="translate(116.296,-62.0887)">
				<title>工作表.38</title>
				<desc>學</desc>
				<rect x="0" y="559.549" width="23.1208" height="22.4037" class="st1"/>
				<text x="5.56" y="574.35" class="st2">學</text>			</g>
			<g id="shape39-116" transform="translate(116.296,-31.0444)">
				<title>工作表.39</title>
				<desc>證淨</desc>
				<rect x="0" y="559.549" width="35.1209" height="22.4037" class="st1"/>
				<text x="5.56" y="574.35" class="st2">證淨</text>			</g>
			<g id="shape40-119" transform="translate(238.292,-31.0444)">
				<title>工作表.40</title>
				<desc>55預流相應</desc>
				<rect x="0" y="559.549" width="70.3947" height="22.4037" class="st1"/>
				<text x="5.56" y="574.35" class="st2">55預流相應</text>			</g>
			<g id="shape41-122" transform="translate(238.292,0)">
				<title>工作表.41</title>
				<desc>56諦</desc>
				<rect x="0" y="559.549" width="34.3944" height="22.4037" class="st1"/>
				<text x="5.56" y="574.35" class="st2">56諦</text>			</g>
			<g id="shape42-125" transform="translate(59.1211,-539.093)">
				<title>工作表.42</title>
				<path d="M0 581.95 L57.17 581.95" class="st3"/>
			</g>
			<g id="shape43-128" transform="translate(151.416,-539.093)">
				<title>工作表.43</title>
				<path d="M0 581.95 L86.88 581.95" class="st3"/>
			</g>
			<g id="shape44-131" transform="translate(296.687,-539.093)">
				<title>工作表.44</title>
				<path d="M0 581.95 L80.4 581.95" class="st3"/>
			</g>
			<g id="shape45-134" transform="translate(47.121,-507.912)">
				<title>工作表.45</title>
				<path d="M0 581.95 L69.17 581.95" class="st3"/>
			</g>
			<g id="shape46-137" transform="translate(139.416,-507.912)">
				<title>工作表.46</title>
				<path d="M0 581.95 L98.88 581.95" class="st3"/>
			</g>
			<g id="shape47-140" transform="translate(336.331,-496.573)">
				<title>工作表.47</title>
				<path d="M0 581.95 L40.75 581.95" class="st3"/>
			</g>
			<g id="shape48-143" transform="translate(456.714,-485.477) rotate(15.961)">
				<title>工作表.48</title>
				<path d="M0 581.95 L41.23 581.95" class="st3"/>
			</g>
			<g id="shape49-146" transform="translate(67.2444,-432.426) rotate(-23.22)">
				<title>工作表.49</title>
				<path d="M0 581.95 L43.14 581.95" class="st3"/>
			</g>
			<g id="shape50-149" transform="translate(698.246,458.914) rotate(127.781)">
				<title>工作表.50</title>
				<path d="M0 581.95 L161.39 581.95" class="st4"/>
			</g>
			<g id="shape51-152" transform="translate(56.841,-409.898) rotate(-8.15744)">
				<title>工作表.51</title>
				<path d="M0 581.95 L99.89 581.95" class="st4"/>
			</g>
			<g id="shape52-155" transform="translate(245.12,-436.539) rotate(9.26583)">
				<title>工作表.52</title>
				<path d="M0 581.95 L88.02 581.95" class="st3"/>
			</g>
			<g id="shape53-158" transform="translate(47.121,-403.03)">
				<title>工作表.53</title>
				<path d="M0 581.95 L22.75 581.95 L69.17 540.85" class="st3"/>
			</g>
			<g id="shape54-161" transform="translate(-84.3218,-382.23) rotate(-15.3647)">
				<title>工作表.54</title>
				<path d="M0 581.95 L48.14 581.95" class="st3"/>
			</g>
			<g id="shape55-164" transform="translate(255.151,-372.749) rotate(18.5645)">
				<title>工作表.55</title>
				<path d="M0 581.95 L48.97 581.95" class="st3"/>
			</g>
			<g id="shape56-167" transform="translate(500.331,-212.709) rotate(47.7039)">
				<title>工作表.56</title>
				<path d="M0 581.95 L68.98 581.95" class="st3"/>
			</g>
			<g id="shape57-170" transform="translate(308.687,-429.959)">
				<title>工作表.57</title>
				<path d="M0 581.95 L30.48 581.95" class="st3"/>
			</g>
			<g id="shape58-173" transform="translate(296.687,-352.006)">
				<title>工作表.58</title>
				<path d="M0 581.95 L42.48 581.95" class="st3"/>
			</g>
			<g id="shape59-176" transform="translate(352.786,-390.477)">
				<title>工作表.59</title>
				<path d="M0 581.95 L24.3 581.95" class="st3"/>
			</g>
			<g id="shape60-179" transform="translate(889.302,-37.7923) rotate(70.9666)">
				<title>工作表.60</title>
				<path d="M0 581.95 L41.77 581.95" class="st3"/>
			</g>
			<g id="shape61-182" transform="translate(901.369,385.706) rotate(109.497)">
				<title>工作表.61</title>
				<path d="M0 581.95 L40.81 581.95" class="st3"/>
			</g>
			<g id="shape63-185" transform="translate(139.416,-352.006)">
				<title>工作表.63</title>
				<path d="M0 581.95 L98.88 581.95" class="st3"/>
			</g>
			<g id="shape64-188" transform="translate(139.416,-383.187)">
				<title>工作表.64</title>
				<path d="M0 581.95 L38.17 581.95" class="st3"/>
			</g>
			<g id="shape65-191" transform="translate(-336.038,663.987) rotate(-99.2838)">
				<title>工作表.65</title>
				<path d="M0 581.95 L376.27 581.95" class="st3"/>
			</g>
			<g id="shape66-194" transform="translate(151.416,-323.66)">
				<title>工作表.66</title>
				<path d="M0 581.95 L86.88 581.95" class="st3"/>
			</g>
			<g id="shape67-197" transform="translate(187.417,-289.644)">
				<title>工作表.67</title>
				<path d="M0 581.95 L50.88 581.95" class="st3"/>
			</g>
			<g id="shape68-200" transform="translate(187.417,-259.88)">
				<title>工作表.68</title>
				<path d="M0 581.95 L50.88 581.95" class="st3"/>
			</g>
			<g id="shape69-203" transform="translate(139.416,-227.282)">
				<title>工作表.69</title>
				<path d="M0 581.95 L98.88 581.95" class="st3"/>
			</g>
			<g id="shape70-206" transform="translate(139.416,-196.101)">
				<title>工作表.70</title>
				<path d="M0 581.95 L98.88 581.95" class="st3"/>
			</g>
			<g id="shape71-209" transform="translate(151.416,-167.754)">
				<title>工作表.71</title>
				<path d="M0 581.95 L86.88 581.95" class="st3"/>
			</g>
			<g id="shape72-212" transform="translate(151.416,-133.739)">
				<title>工作表.72</title>
				<path d="M0 581.95 L86.88 581.95" class="st3"/>
			</g>
			<g id="shape73-215" transform="translate(151.416,-103.975)">
				<title>工作表.73</title>
				<path d="M0 581.95 L86.88 581.95" class="st3"/>
			</g>
			<g id="shape74-218" transform="translate(151.416,-43.03)">
				<title>工作表.74</title>
				<path d="M0 581.95 L82.2 581.95 L86.88 581.95" class="st3"/>
			</g>
			<g id="shape75-221" transform="translate(670.765,435.019) rotate(107.679)">
				<title>工作表.75</title>
				<path d="M0 581.95 L148.76 581.95" class="st3"/>
			</g>
			<g id="shape76-224" transform="translate(651.889,521.339) rotate(113.024)">
				<title>工作表.76</title>
				<path d="M0 581.95 L115.5 581.95" class="st3"/>
			</g>
			<g id="shape77-227" transform="translate(619.81,613.864) rotate(120.093)">
				<title>工作表.77</title>
				<path d="M0 581.95 L90.1 581.95" class="st3"/>
			</g>
			<g id="shape78-230" transform="translate(546.57,742.251) rotate(132.323)">
				<title>工作表.78</title>
				<path d="M0 581.95 L67.09 581.95" class="st3"/>
			</g>
			<g id="shape79-233" transform="translate(290.507,941.116) rotate(162.581)">
				<title>工作表.79</title>
				<path d="M0 581.95 L47.35 581.95" class="st3"/>
			</g>
			<g id="shape80-236" transform="translate(-57.9157,969.463) rotate(-162.581)">
				<title>工作表.80</title>
				<path d="M0 581.95 L47.35 581.95" class="st3"/>
			</g>
			<g id="shape81-239" transform="translate(-313.978,841.464) rotate(-132.323)">
				<title>工作表.81</title>
				<path d="M0 581.95 L67.09 581.95" class="st3"/>
			</g>
			<g id="shape82-242" transform="translate(-387.218,769.769) rotate(-120.093)">
				<title>工作表.82</title>
				<path d="M0 581.95 L90.1 581.95" class="st3"/>
			</g>
			<g id="shape83-245" transform="translate(-419.298,733.938) rotate(-113.024)">
				<title>工作表.83</title>
				<path d="M0 581.95 L115.5 581.95" class="st3"/>
			</g>
			<g id="shape84-248" transform="translate(-438.174,718.484) rotate(-107.679)">
				<title>工作表.84</title>
				<path d="M0 581.95 L148.76 581.95" class="st3"/>
			</g>
			<g id="shape85-251" transform="translate(308.687,-323.66)">
				<title>工作表.85</title>
				<path d="M0 581.95 L20.56 581.95" class="st3"/>
			</g>
			<g id="shape86-254" transform="translate(308.687,-181.928)">
				<title>工作表.86</title>
				<path d="M0 471.4 L20.56 471.4 L70.16 581.95" class="st3"/>
			</g>
			<g id="shape87-257" transform="translate(308.687,-259.88)">
				<title>工作表.87</title>
				<path d="M0 581.95 L20.56 581.95" class="st3"/>
			</g>
			<g id="shape88-260" transform="translate(296.687,-227.282)">
				<title>工作表.88</title>
				<path d="M0 581.95 L32.56 581.95" class="st3"/>
			</g>
			<g id="shape89-263" transform="translate(296.687,-196.101)">
				<title>工作表.89</title>
				<path d="M0 581.95 L32.56 581.95" class="st3"/>
			</g>
			<g id="shape90-266" transform="translate(308.687,-167.754)">
				<title>工作表.90</title>
				<path d="M0 581.95 L20.56 581.95" class="st3"/>
			</g>
			<g id="shape91-269" transform="translate(308.687,-133.739)">
				<title>工作表.91</title>
				<path d="M0 581.95 L20.56 581.95" class="st3"/>
			</g>
			<g id="shape92-272" transform="translate(320.687,-103.975)">
				<title>工作表.92</title>
				<path d="M0 581.95 L7.95 581.95" class="st3"/>
			</g>
			<g id="shape93-275" transform="translate(308.687,-43.03)">
				<title>工作表.93</title>
				<path d="M0 581.95 L20.56 581.95" class="st3"/>
			</g>
			<g id="shape94-278" transform="translate(272.686,-11.8489)">
				<title>工作表.94</title>
				<path d="M0 581.95 L56.56 581.95" class="st3"/>
			</g>
			<g id="shape95-281" transform="translate(878.525,66.0443) rotate(70.71)">
				<title>工作表.95</title>
				<path d="M0 581.95 L150.16 581.95" class="st3"/>
			</g>
			<g id="shape96-284" transform="translate(820.215,9.63609) rotate(57.5288)">
				<title>工作表.96</title>
				<path d="M0 581.95 L92.4 581.95" class="st3"/>
			</g>
			<g id="shape97-287" transform="translate(721.928,-74.8272) rotate(42.4362)">
				<title>工作表.97</title>
				<path d="M0 581.95 L67.21 581.95" class="st3"/>
			</g>
			<g id="shape98-290" transform="translate(489.119,-173.71) rotate(15.9454)">
				<title>工作表.98</title>
				<path d="M0 581.95 L51.59 581.95" class="st3"/>
			</g>
			<g id="shape99-293" transform="translate(169.369,-145.363) rotate(-15.9454)">
				<title>工作表.99</title>
				<path d="M0 581.95 L51.59 581.95" class="st3"/>
			</g>
			<g id="shape100-296" transform="translate(-76.252,30.7913) rotate(-44.1697)">
				<title>工作表.100</title>
				<path d="M0 581.95 L69.16 581.95" class="st3"/>
			</g>
			<g id="shape101-299" transform="translate(-160.6,162.833) rotate(-57.2122)">
				<title>工作表.101</title>
				<path d="M0 581.95 L92.73 581.95" class="st3"/>
			</g>
			<g id="shape102-302" transform="translate(-229.43,407.157) rotate(-73.7398)">
				<title>工作表.102</title>
				<path d="M0 581.95 L177.17 581.95" class="st3"/>
			</g>
			<g id="shape103-305" transform="translate(-218.805,343.191) rotate(-70.3462)">
				<title>工作表.103</title>
				<path d="M0 581.95 L147.49 581.95" class="st3"/>
			</g>
		</g>
	</g>
</svg>
