<?xml version="1.0" encoding="UTF-8" standalone="no"?>
<!DOCTYPE svg PUBLIC "-//W3C//DTD SVG 1.1//EN" "http://www.w3.org/Graphics/SVG/1.1/DTD/svg11.dtd">
<!-- 由 Microsoft Visio, SVG Export 產生 y35.0465.svg 頁-1 -->
<svg xmlns="http://www.w3.org/2000/svg" xmlns:xlink="http://www.w3.org/1999/xlink" xmlns:ev="http://www.w3.org/2001/xml-events"
		width="9.43365in" height="9.98286in" viewBox="0 0 679.222 718.766" xml:space="preserve" color-interpolation-filters="sRGB"
		class="st4">
	<style type="text/css">
	<![CDATA[
		.st1 {fill:none;stroke:none;stroke-linecap:round;stroke-linejoin:round;stroke-width:0.75}
		.st2 {fill:#000000;font-family:新細明體;font-size:1.33333em}
		.st3 {fill:#000000;font-family:Times New Roman;font-size:1.33333em}
		.st4 {fill:none;fill-rule:evenodd;font-size:12px;overflow:visible;stroke-linecap:square;stroke-miterlimit:3}
	]]>
	</style>

	<g>
		<title>頁-1</title>
		<g id="group89-1" transform="translate(0.375,-0.375)">
			<title>工作表.89</title>
			<g id="shape1-2" transform="translate(0,-693.638)">
				<title>工作表.1</title>
				<desc>〔錫蘭長部師所傳〕</desc>
				<rect x="0" y="694.388" width="152.22" height="24.378" class="st1"/>
				<text x="4" y="711.56" class="st2">〔錫蘭長部師所傳〕</text>			</g>
			<g id="shape2-5" transform="translate(250.4,-693.638)">
				<title>工作表.2</title>
				<desc>〔錫蘭中部師所傳〕</desc>
				<rect x="0" y="694.388" width="152.22" height="24.378" class="st1"/>
				<text x="4" y="711.56" class="st2">〔錫蘭中部師所傳〕</text>			</g>
			<g id="shape3-8" transform="translate(474.479,-693.638)">
				<title>工作表.3</title>
				<desc>〔緬甸所傳〕</desc>
				<rect x="0" y="694.388" width="104.031" height="24.378" class="st1"/>
				<text x="4" y="711.56" class="st2">〔緬甸所傳〕</text>			</g>
			<g id="shape4-11" transform="translate(250.4,-657.071)">
				<title>工作表.4</title>
				<desc>Khuddakapāṭha</desc>
				<rect x="0" y="694.388" width="184.252" height="24.378" class="st1"/>
				<text x="4" y="711.38" class="st3">Khuddakapāṭha</text>			</g>
			<g id="shape5-14" transform="translate(2.07834E-13,-620.504)">
				<title>工作表.5</title>
				<desc>Dhammapada</desc>
				<rect x="0" y="694.388" width="184.252" height="24.378" class="st1"/>
				<text x="4" y="711.38" class="st3">Dhammapada</text>			</g>
			<g id="shape6-17" transform="translate(2.07834E-13,-583.937)">
				<title>工作表.6</title>
				<desc>Udāna</desc>
				<rect x="0" y="694.388" width="184.252" height="24.378" class="st1"/>
				<text x="4" y="711.38" class="st3">Udāna</text>			</g>
			<g id="shape7-20" transform="translate(2.07834E-13,-547.37)">
				<title>工作表.7</title>
				<desc>Itivuttaka</desc>
				<rect x="0" y="694.388" width="184.252" height="24.378" class="st1"/>
				<text x="4" y="711.38" class="st3">Itivuttaka</text>			</g>
			<g id="shape8-23" transform="translate(2.07834E-13,-510.803)">
				<title>工作表.8</title>
				<desc>Sutta-nipāta</desc>
				<rect x="0" y="694.388" width="184.252" height="24.378" class="st1"/>
				<text x="4" y="711.38" class="st3">Sutta-nipāta</text>			</g>
			<g id="shape9-26" transform="translate(7.19425E-13,-474.236)">
				<title>工作表.9</title>
				<desc>Vimānavatth</desc>
				<rect x="0" y="694.388" width="184.252" height="24.378" class="st1"/>
				<text x="4" y="711.38" class="st3">Vimānavatth</text>			</g>
			<g id="shape10-29" transform="translate(4.95604E-13,-437.669)">
				<title>工作表.10</title>
				<desc>Petavatthu</desc>
				<rect x="0" y="694.388" width="184.252" height="24.378" class="st1"/>
				<text x="4" y="711.38" class="st3">Petavatthu</text>			</g>
			<g id="shape11-32" transform="translate(7.19425E-13,-401.102)">
				<title>工作表.11</title>
				<desc>Theragāthā</desc>
				<rect x="0" y="694.388" width="184.252" height="24.378" class="st1"/>
				<text x="4" y="711.38" class="st3">Theragāthā</text>			</g>
			<g id="shape12-35" transform="translate(1.00719E-12,-364.535)">
				<title>工作表.12</title>
				<desc>Therīgāthā</desc>
				<rect x="0" y="694.388" width="200.126" height="24.378" class="st1"/>
				<text x="4" y="711.38" class="st3">Therīgāthā</text>			</g>
			<g id="shape13-38" transform="translate(1.00719E-12,-327.968)">
				<title>工作表.13</title>
				<desc>Jātaka</desc>
				<rect x="0" y="694.388" width="184.252" height="24.378" class="st1"/>
				<text x="4" y="711.38" class="st3">Jātaka</text>			</g>
			<g id="shape14-41" transform="translate(1.00719E-12,-291.402)">
				<title>工作表.14</title>
				<desc>Niddesa</desc>
				<rect x="0" y="694.388" width="184.252" height="24.378" class="st1"/>
				<text x="4" y="711.38" class="st3">Niddesa</text>			</g>
			<g id="shape15-44" transform="translate(1.5028E-12,-254.835)">
				<title>工作表.15</title>
				<desc>Paṭisambhidāmagga</desc>
				<rect x="0" y="694.388" width="184.252" height="24.378" class="st1"/>
				<text x="4" y="711.38" class="st3">Paṭisambhidāmagga</text>			</g>
			<g id="shape17-47" transform="translate(250.4,-219.402)">
				<title>工作表.17</title>
				<desc>Apadāna</desc>
				<rect x="0" y="694.388" width="184.252" height="24.378" class="st1"/>
				<text x="4" y="711.38" class="st3">Apadāna</text>			</g>
			<g id="shape18-50" transform="translate(250.4,-182.835)">
				<title>工作表.18</title>
				<desc>Buddhavaṃśa</desc>
				<rect x="0" y="694.388" width="184.252" height="24.378" class="st1"/>
				<text x="4" y="711.38" class="st3">Buddhavaṃśa</text>			</g>
			<g id="shape19-53" transform="translate(250.4,-146.268)">
				<title>工作表.19</title>
				<desc>Cariyāpiṭaka</desc>
				<rect x="0" y="694.388" width="184.252" height="24.378" class="st1"/>
				<text x="4" y="711.38" class="st3">Cariyāpiṭaka</text>			</g>
			<g id="shape20-56" transform="translate(474.479,-109.701)">
				<title>工作表.20</title>
				<desc>Milindapañha</desc>
				<rect x="0" y="694.388" width="200.126" height="24.378" class="st1"/>
				<text x="4" y="711.38" class="st3">Milindapañha</text>			</g>
			<g id="shape21-59" transform="translate(474.479,-73.1339)">
				<title>工作表.21</title>
				<desc>Sutta-saṃgaha</desc>
				<rect x="0" y="694.388" width="184.252" height="24.378" class="st1"/>
				<text x="4" y="711.38" class="st3">Sutta-saṃgaha</text>			</g>
			<g id="shape22-62" transform="translate(474.479,-36.5669)">
				<title>工作表.22</title>
				<desc>Peṭakopadeśa</desc>
				<rect x="0" y="694.388" width="184.252" height="24.378" class="st1"/>
				<text x="4" y="711.38" class="st3">Peṭakopadeśa</text>			</g>
			<g id="shape23-65" transform="translate(474.479,0)">
				<title>工作表.23</title>
				<desc>Nettipakaraṇa</desc>
				<rect x="0" y="694.388" width="184.252" height="24.378" class="st1"/>
				<text x="4" y="711.38" class="st3">Nettipakaraṇa</text>			</g>
			<g id="shape24-68" transform="translate(250.4,-620.504)">
				<title>工作表.24</title>
				<desc>同</desc>
				<rect x="0" y="694.388" width="24.378" height="24.378" class="st1"/>
				<text x="4.19" y="711.56" class="st2">同</text>			</g>
			<g id="shape25-71" transform="translate(250.4,-583.937)">
				<title>工作表.25</title>
				<desc>同</desc>
				<rect x="0" y="694.388" width="24.378" height="24.378" class="st1"/>
				<text x="4.19" y="711.56" class="st2">同</text>			</g>
			<g id="shape26-74" transform="translate(250.4,-547.37)">
				<title>工作表.26</title>
				<desc>同</desc>
				<rect x="0" y="694.388" width="24.378" height="24.378" class="st1"/>
				<text x="4.19" y="711.56" class="st2">同</text>			</g>
			<g id="shape27-77" transform="translate(250.4,-510.803)">
				<title>工作表.27</title>
				<desc>同</desc>
				<rect x="0" y="694.388" width="24.378" height="24.378" class="st1"/>
				<text x="4.19" y="711.56" class="st2">同</text>			</g>
			<g id="shape28-80" transform="translate(250.4,-474.236)">
				<title>工作表.28</title>
				<desc>同</desc>
				<rect x="0" y="694.388" width="24.378" height="24.378" class="st1"/>
				<text x="4.19" y="711.56" class="st2">同</text>			</g>
			<g id="shape29-83" transform="translate(250.4,-437.669)">
				<title>工作表.29</title>
				<desc>同</desc>
				<rect x="0" y="694.388" width="24.378" height="24.378" class="st1"/>
				<text x="4.19" y="711.56" class="st2">同</text>			</g>
			<g id="shape30-86" transform="translate(250.4,-401.102)">
				<title>工作表.30</title>
				<desc>同</desc>
				<rect x="0" y="694.388" width="24.378" height="24.378" class="st1"/>
				<text x="4.19" y="711.56" class="st2">同</text>			</g>
			<g id="shape31-89" transform="translate(250.4,-364.535)">
				<title>工作表.31</title>
				<desc>同</desc>
				<rect x="0" y="694.388" width="24.378" height="24.378" class="st1"/>
				<text x="4.19" y="711.56" class="st2">同</text>			</g>
			<g id="shape32-92" transform="translate(250.4,-327.969)">
				<title>工作表.32</title>
				<desc>同</desc>
				<rect x="0" y="694.388" width="24.378" height="24.378" class="st1"/>
				<text x="4.19" y="711.56" class="st2">同</text>			</g>
			<g id="shape33-95" transform="translate(250.4,-291.402)">
				<title>工作表.33</title>
				<desc>同</desc>
				<rect x="0" y="694.388" width="24.378" height="24.378" class="st1"/>
				<text x="4.19" y="711.56" class="st2">同</text>			</g>
			<g id="shape34-98" transform="translate(474.479,-146.268)">
				<title>工作表.34</title>
				<desc>同</desc>
				<rect x="0" y="694.388" width="24.378" height="24.378" class="st1"/>
				<text x="4.19" y="711.56" class="st2">同</text>			</g>
			<g id="shape35-101" transform="translate(474.479,-182.835)">
				<title>工作表.35</title>
				<desc>同</desc>
				<rect x="0" y="694.388" width="24.378" height="24.378" class="st1"/>
				<text x="4.19" y="711.56" class="st2">同</text>			</g>
			<g id="shape36-104" transform="translate(474.479,-219.402)">
				<title>工作表.36</title>
				<desc>同</desc>
				<rect x="0" y="694.388" width="24.378" height="24.378" class="st1"/>
				<text x="4.19" y="711.56" class="st2">同</text>			</g>
			<g id="shape37-107" transform="translate(474.479,-254.835)">
				<title>工作表.37</title>
				<desc>同</desc>
				<rect x="0" y="694.388" width="24.378" height="24.378" class="st1"/>
				<text x="4.19" y="711.56" class="st2">同</text>			</g>
			<g id="shape38-110" transform="translate(474.479,-291.402)">
				<title>工作表.38</title>
				<desc>同</desc>
				<rect x="0" y="694.388" width="24.378" height="24.378" class="st1"/>
				<text x="4.19" y="711.56" class="st2">同</text>			</g>
			<g id="shape39-113" transform="translate(474.479,-327.969)">
				<title>工作表.39</title>
				<desc>同</desc>
				<rect x="0" y="694.388" width="24.378" height="24.378" class="st1"/>
				<text x="4.19" y="711.56" class="st2">同</text>			</g>
			<g id="shape40-116" transform="translate(474.479,-364.535)">
				<title>工作表.40</title>
				<desc>同</desc>
				<rect x="0" y="694.388" width="24.378" height="24.378" class="st1"/>
				<text x="4.19" y="711.56" class="st2">同</text>			</g>
			<g id="shape41-119" transform="translate(474.479,-401.102)">
				<title>工作表.41</title>
				<desc>同</desc>
				<rect x="0" y="694.388" width="24.378" height="24.378" class="st1"/>
				<text x="4.19" y="711.56" class="st2">同</text>			</g>
			<g id="shape42-122" transform="translate(474.479,-437.669)">
				<title>工作表.42</title>
				<desc>同</desc>
				<rect x="0" y="694.388" width="24.378" height="24.378" class="st1"/>
				<text x="4.19" y="711.56" class="st2">同</text>			</g>
			<g id="shape43-125" transform="translate(474.479,-474.236)">
				<title>工作表.43</title>
				<desc>同</desc>
				<rect x="0" y="694.388" width="24.378" height="24.378" class="st1"/>
				<text x="4.19" y="711.56" class="st2">同</text>			</g>
			<g id="shape44-128" transform="translate(474.479,-510.803)">
				<title>工作表.44</title>
				<desc>同</desc>
				<rect x="0" y="694.388" width="24.378" height="24.378" class="st1"/>
				<text x="4.19" y="711.56" class="st2">同</text>			</g>
			<g id="shape45-131" transform="translate(474.479,-547.37)">
				<title>工作表.45</title>
				<desc>同</desc>
				<rect x="0" y="694.388" width="24.378" height="24.378" class="st1"/>
				<text x="4.19" y="711.56" class="st2">同</text>			</g>
			<g id="shape46-134" transform="translate(474.479,-583.937)">
				<title>工作表.46</title>
				<desc>同</desc>
				<rect x="0" y="694.388" width="24.378" height="24.378" class="st1"/>
				<text x="4.19" y="711.56" class="st2">同</text>			</g>
			<g id="shape47-137" transform="translate(474.479,-620.504)">
				<title>工作表.47</title>
				<desc>同</desc>
				<rect x="0" y="694.388" width="24.378" height="24.378" class="st1"/>
				<text x="4.19" y="711.56" class="st2">同</text>			</g>
			<g id="shape48-140" transform="translate(474.479,-657.071)">
				<title>工作表.48</title>
				<desc>同</desc>
				<rect x="0" y="694.388" width="24.378" height="24.378" class="st1"/>
				<text x="4.19" y="711.56" class="st2">同</text>			</g>
			<g id="shape49-143" transform="translate(250.4,-254.835)">
				<title>工作表.49</title>
				<desc>同</desc>
				<rect x="0" y="694.388" width="24.378" height="24.378" class="st1"/>
				<text x="12.19" y="698.58" writing-mode="tb-rl" class="st2">同</text>			</g>
			<g id="shape66-146" transform="translate(293.771,-655.937)">
				<title>工作表.66</title>
				<desc>小誦</desc>
				<rect x="0" y="694.388" width="184.252" height="24.378" class="st1"/>
				<text x="116.25" y="711.56" class="st2">（小誦）</text>			</g>
			<g id="shape67-149" transform="translate(43.3701,-619.37)">
				<title>工作表.67</title>
				<desc>法句</desc>
				<rect x="0" y="694.388" width="184.252" height="24.378" class="st1"/>
				<text x="116.25" y="711.56" class="st2">（法句）</text>			</g>
			<g id="shape68-152" transform="translate(43.3701,-582.803)">
				<title>工作表.68</title>
				<desc>自說</desc>
				<rect x="0" y="694.388" width="184.252" height="24.378" class="st1"/>
				<text x="116.25" y="711.56" class="st2">（自說）</text>			</g>
			<g id="shape69-155" transform="translate(43.3701,-546.236)">
				<title>工作表.69</title>
				<desc>如是語</desc>
				<rect x="0" y="694.388" width="184.252" height="24.378" class="st1"/>
				<text x="100.25" y="711.56" class="st2">（如是語）</text>			</g>
			<g id="shape70-158" transform="translate(43.3701,-509.669)">
				<title>工作表.70</title>
				<desc>經集</desc>
				<rect x="0" y="694.388" width="184.252" height="24.378" class="st1"/>
				<text x="116.25" y="711.56" class="st2">（經集）</text>			</g>
			<g id="shape71-161" transform="translate(43.3701,-473.102)">
				<title>工作表.71</title>
				<desc>天宮事</desc>
				<rect x="0" y="694.388" width="184.252" height="24.378" class="st1"/>
				<text x="100.25" y="711.56" class="st2">（天宮事）</text>			</g>
			<g id="shape72-164" transform="translate(43.3701,-436.535)">
				<title>工作表.72</title>
				<desc>餓鬼事</desc>
				<rect x="0" y="694.388" width="184.252" height="24.378" class="st1"/>
				<text x="100.25" y="711.56" class="st2">（餓鬼事）</text>			</g>
			<g id="shape73-167" transform="translate(43.3701,-399.969)">
				<title>工作表.73</title>
				<desc>長老偈</desc>
				<rect x="0" y="694.388" width="184.252" height="24.378" class="st1"/>
				<text x="100.25" y="711.56" class="st2">（長老偈）</text>			</g>
			<g id="shape74-170" transform="translate(27.4961,-363.402)">
				<title>工作表.74</title>
				<desc>長老尼偈</desc>
				<rect x="0" y="694.388" width="200.126" height="24.378" class="st1"/>
				<text x="100.13" y="711.56" class="st2">（長老尼偈）</text>			</g>
			<g id="shape75-173" transform="translate(43.3701,-326.835)">
				<title>工作表.75</title>
				<desc>本生</desc>
				<rect x="0" y="694.388" width="184.252" height="24.378" class="st1"/>
				<text x="116.25" y="711.56" class="st2">（本生）</text>			</g>
			<g id="shape76-176" transform="translate(43.3701,-290.268)">
				<title>工作表.76</title>
				<desc>義釋</desc>
				<rect x="0" y="694.388" width="184.252" height="24.378" class="st1"/>
				<text x="116.25" y="711.56" class="st2">（義釋）</text>			</g>
			<g id="shape77-179" transform="translate(43.3701,-253.701)">
				<title>工作表.77</title>
				<desc>無礙解道</desc>
				<rect x="0" y="694.388" width="184.252" height="24.378" class="st1"/>
				<text x="84.25" y="711.56" class="st2">（無礙解道）</text>			</g>
			<g id="shape79-182" transform="translate(293.771,-218.268)">
				<title>工作表.79</title>
				<desc>譬喻</desc>
				<rect x="0" y="694.388" width="184.252" height="24.378" class="st1"/>
				<text x="116.25" y="711.56" class="st2">（譬喻）</text>			</g>
			<g id="shape80-185" transform="translate(293.771,-181.701)">
				<title>工作表.80</title>
				<desc>佛種姓</desc>
				<rect x="0" y="694.388" width="184.252" height="24.378" class="st1"/>
				<text x="100.25" y="711.56" class="st2">（佛種姓）</text>			</g>
			<g id="shape81-188" transform="translate(293.771,-145.134)">
				<title>工作表.81</title>
				<desc>所行藏</desc>
				<rect x="0" y="694.388" width="184.252" height="24.378" class="st1"/>
				<text x="100.25" y="711.56" class="st2">（所行藏）</text>			</g>
			<g id="shape85-191" transform="translate(478.346,-109.701)">
				<title>工作表.85</title>
				<desc>彌陵陀問</desc>
				<rect x="0" y="694.388" width="200.126" height="24.378" class="st1"/>
				<text x="100.13" y="711.56" class="st2">（彌陵陀問）</text>			</g>
			<g id="shape86-194" transform="translate(494.22,-73.1339)">
				<title>工作表.86</title>
				<desc>經攝</desc>
				<rect x="0" y="694.388" width="184.252" height="24.378" class="st1"/>
				<text x="116.25" y="711.56" class="st2">（經攝）</text>			</g>
			<g id="shape87-197" transform="translate(494.22,-36.5669)">
				<title>工作表.87</title>
				<desc>藏論</desc>
				<rect x="0" y="694.388" width="184.252" height="24.378" class="st1"/>
				<text x="116.25" y="711.56" class="st2">（藏論）</text>			</g>
			<g id="shape88-200" transform="translate(494.22,0)">
				<title>工作表.88</title>
				<desc>指導論</desc>
				<rect x="0" y="694.388" width="184.252" height="24.378" class="st1"/>
				<text x="100.25" y="711.56" class="st2">（指導論）</text>			</g>
		</g>
	</g>
</svg>
