<?xml version="1.0" encoding="UTF-8" standalone="no"?>
<!DOCTYPE svg PUBLIC "-//W3C//DTD SVG 1.1//EN" "http://www.w3.org/Graphics/SVG/1.1/DTD/svg11.dtd">
<!-- 由 Microsoft Visio, SVG Export 產生 y35.0425.svg 頁-1 -->
<svg xmlns="http://www.w3.org/2000/svg" xmlns:xlink="http://www.w3.org/1999/xlink" xmlns:ev="http://www.w3.org/2001/xml-events"
		width="8.5675in" height="5.91199in" viewBox="0 0 616.86 425.663" xml:space="preserve" color-interpolation-filters="sRGB"
		class="st5">
	<style type="text/css">
	<![CDATA[
		.st1 {fill:none;stroke:none;stroke-linecap:round;stroke-linejoin:round;stroke-width:0.75}
		.st2 {fill:#000000;font-family:新細明體;font-size:1.33333em}
		.st3 {stroke:#000000;stroke-linecap:round;stroke-linejoin:round;stroke-width:0.24}
		.st4 {fill:#000000;font-family:新細明體;font-size:1.00001em}
		.st5 {fill:none;fill-rule:evenodd;font-size:12px;overflow:visible;stroke-linecap:square;stroke-miterlimit:3}
	]]>
	</style>

	<g>
		<title>頁-1</title>
		<g id="group104-1" transform="translate(0.375,-0.375)">
			<title>工作表.104</title>
			<g id="shape1-2" transform="translate(7.19425E-13,-146.268)">
				<title>工作表.1</title>
				<desc>　洗淨過分</desc>
				<rect x="0" y="402.986" width="88.1575" height="22.6772" class="st1"/>
				<text x="20.08" y="419.13" class="st2">洗淨過分</text>			</g>
			<g id="shape2-5" transform="translate(16.0157,-402.236)">
				<title>工作表.2</title>
				<desc>〔雜跋渠〕</desc>
				<rect x="0" y="402.986" width="88.1575" height="22.6772" class="st1"/>
				<text x="4.08" y="419.13" class="st2">〔雜跋渠〕</text>			</g>
			<g id="shape3-8" transform="translate(112.11,-402.236)">
				<title>工作表.3</title>
				<desc>〔僧祇律〕</desc>
				<rect x="0" y="402.986" width="88.1575" height="22.6772" class="st1"/>
				<text x="4.08" y="419.13" class="st2">〔僧祇律〕</text>			</g>
			<g id="shape4-11" transform="translate(192.047,-402.236)">
				<title>工作表.4</title>
				<desc>〔銅鍱律〕</desc>
				<rect x="0" y="402.986" width="88.1575" height="22.6772" class="st1"/>
				<text x="4.08" y="419.13" class="st2">〔銅鍱律〕</text>			</g>
			<g id="shape5-14" transform="translate(272.126,-402.236)">
				<title>工作表.5</title>
				<desc>〔四分律〕</desc>
				<rect x="0" y="402.986" width="88.1575" height="22.6772" class="st1"/>
				<text x="4.08" y="419.13" class="st2">〔四分律〕</text>			</g>
			<g id="shape6-17" transform="translate(352.063,-402.236)">
				<title>工作表.6</title>
				<desc>〔五分律〕</desc>
				<rect x="0" y="402.986" width="88.1575" height="22.6772" class="st1"/>
				<text x="4.08" y="419.13" class="st2">〔五分律〕</text>			</g>
			<g id="shape7-20" transform="translate(432,-402.236)">
				<title>工作表.7</title>
				<desc>〔十誦律〕</desc>
				<rect x="0" y="402.986" width="88.1575" height="22.6772" class="st1"/>
				<text x="4.08" y="419.13" class="st2">〔十誦律〕</text>			</g>
			<g id="shape8-23" transform="translate(512.079,-402.236)">
				<title>工作表.8</title>
				<desc>〔根有尼律〕</desc>
				<rect x="0" y="402.986" width="104.031" height="22.6772" class="st1"/>
				<text x="4.02" y="419.13" class="st2">〔根有尼律〕</text>			</g>
			<g id="shape9-26" transform="translate(1.59872E-14,-365.669)">
				<title>工作表.9</title>
				<desc>　纏腰</desc>
				<rect x="0" y="402.986" width="56.126" height="22.6772" class="st1"/>
				<text x="20.06" y="419.13" class="st2">纏腰</text>			</g>
			<g id="shape10-29" transform="translate(2.07834E-13,-329.102)">
				<title>工作表.10</title>
				<desc>　著嚴飾服</desc>
				<rect x="0" y="402.986" width="88.1575" height="22.6772" class="st1"/>
				<text x="20.08" y="419.13" class="st2">著嚴飾服</text>			</g>
			<g id="shape11-32" transform="translate(2.55795E-13,-292.535)">
				<title>工作表.11</title>
				<desc>　僧祇支</desc>
				<rect x="0" y="402.986" width="72" height="22.6772" class="st1"/>
				<text x="20" y="419.13" class="st2">僧祇支</text>			</g>
			<g id="shape12-35" transform="translate(5.27578E-13,-255.969)">
				<title>工作表.12</title>
				<desc>　浴衣</desc>
				<rect x="0" y="402.986" width="56.126" height="22.6772" class="st1"/>
				<text x="20.06" y="419.13" class="st2">浴衣</text>			</g>
			<g id="shape13-38" transform="translate(5.27578E-13,-219.402)">
				<title>工作表.13</title>
				<desc>　拍陰</desc>
				<rect x="0" y="402.986" width="56.126" height="22.6772" class="st1"/>
				<text x="20.06" y="419.13" class="st2">拍陰</text>			</g>
			<g id="shape14-41" transform="translate(-310.577,424.53) rotate(-90)">
				<title>工作表.14</title>
				<path d="M0 425.66 L423.78 425.66" class="st3"/>
			</g>
			<g id="shape15-44" transform="translate(607.181,456.177) rotate(180)">
				<title>工作表.15</title>
				<path d="M0 425.66 L602.36 425.66" class="st3"/>
			</g>
			<g id="shape16-47" transform="translate(7.67386E-13,-182.835)">
				<title>工作表.16</title>
				<desc>　胡膠形</desc>
				<rect x="0" y="402.986" width="72" height="22.6772" class="st1"/>
				<text x="20" y="419.13" class="st2">胡膠形</text>			</g>
			<g id="shape17-50" transform="translate(1.02318E-12,-109.701)">
				<title>工作表.17</title>
				<desc>　月期衣</desc>
				<rect x="0" y="402.986" width="72" height="22.6772" class="st1"/>
				<text x="20" y="419.13" class="st2">月期衣</text>			</g>
			<g id="shape18-53" transform="translate(1.03917E-12,-73.1339)">
				<title>工作表.18</title>
				<desc>　懸注</desc>
				<rect x="0" y="402.986" width="56.126" height="22.6772" class="st1"/>
				<text x="20.06" y="419.13" class="st2">懸注</text>			</g>
			<g id="shape19-56" transform="translate(1.29097E-12,-36.5669)">
				<title>工作表.19</title>
				<desc>　流水</desc>
				<rect x="0" y="402.986" width="56.126" height="22.6772" class="st1"/>
				<text x="20.06" y="419.13" class="st2">流水</text>			</g>
			<g id="shape20-59">
				<title>工作表.20</title>
				<desc>　紡縷</desc>
				<rect x="0" y="402.986" width="56.126" height="22.6772" class="st1"/>
				<text x="20.06" y="419.13" class="st2">紡縷</text>			</g>
			<g id="shape21-62" transform="translate(-2.19824E-14,-365.669)">
				<title>工作表.21</title>
				<desc>3</desc>
				<rect x="0" y="402.986" width="24.9449" height="22.6772" class="st1"/>
				<text x="9.65" y="417.92" class="st4">3</text>			</g>
			<g id="shape22-65" transform="translate(2.35811E-13,-329.102)">
				<title>工作表.22</title>
				<desc>4</desc>
				<rect x="0" y="402.986" width="24.9449" height="22.6772" class="st1"/>
				<text x="9.65" y="417.92" class="st4">4</text>			</g>
			<g id="shape23-68" transform="translate(4.89608E-13,-292.535)">
				<title>工作表.23</title>
				<desc>9</desc>
				<rect x="0" y="402.986" width="24.9449" height="22.6772" class="st1"/>
				<text x="9.65" y="417.92" class="st4">9</text>			</g>
			<g id="shape24-71" transform="translate(4.89608E-13,-255.969)">
				<title>工作表.24</title>
				<desc>1 0</desc>
				<rect x="0" y="402.986" width="24.9449" height="22.6772" class="st1"/>
				<text x="5.28" y="417.92" class="st4">1 0</text>			</g>
			<g id="shape25-74" transform="translate(4.89608E-13,-219.402)">
				<title>工作表.25</title>
				<desc>1 1</desc>
				<rect x="0" y="402.986" width="24.9449" height="22.6772" class="st1"/>
				<text x="5.28" y="417.92" class="st4">1 1</text>			</g>
			<g id="shape26-77" transform="translate(7.47402E-13,-182.835)">
				<title>工作表.26</title>
				<desc>1 2</desc>
				<rect x="0" y="402.986" width="24.9449" height="22.6772" class="st1"/>
				<text x="5.28" y="417.92" class="st4">1 2</text>			</g>
			<g id="shape27-80" transform="translate(7.47402E-13,-146.268)">
				<title>工作表.27</title>
				<desc>1 3</desc>
				<rect x="0" y="402.986" width="24.9449" height="22.6772" class="st1"/>
				<text x="5.28" y="417.92" class="st4">1 3</text>			</g>
			<g id="shape28-83" transform="translate(9.99201E-13,-109.701)">
				<title>工作表.28</title>
				<desc>1 4</desc>
				<rect x="0" y="402.986" width="24.9449" height="22.6772" class="st1"/>
				<text x="5.28" y="417.92" class="st4">1 4</text>			</g>
			<g id="shape29-86" transform="translate(9.99201E-13,-73.1339)">
				<title>工作表.29</title>
				<desc>1 5</desc>
				<rect x="0" y="402.986" width="24.9449" height="22.6772" class="st1"/>
				<text x="5.28" y="417.92" class="st4">1 5</text>			</g>
			<g id="shape30-89" transform="translate(1.25899E-12,-36.5669)">
				<title>工作表.30</title>
				<desc>1 6</desc>
				<rect x="0" y="402.986" width="24.9449" height="22.6772" class="st1"/>
				<text x="5.28" y="417.92" class="st4">1 6</text>			</g>
			<g id="shape31-92">
				<title>工作表.31</title>
				<desc>2 8</desc>
				<rect x="0" y="402.986" width="24.9449" height="22.6772" class="st1"/>
				<text x="5.28" y="417.92" class="st4">2 8</text>			</g>
			<g id="shape32-95" transform="translate(143.717,-365.669)">
				<title>工作表.32</title>
				<desc>˙</desc>
				<rect x="0" y="402.986" width="24.9449" height="22.6772" class="st1"/>
				<text x="6.47" y="417.92" class="st4">˙</text>			</g>
			<g id="shape33-98" transform="translate(143.717,-329.102)">
				<title>工作表.33</title>
				<desc>˙</desc>
				<rect x="0" y="402.986" width="24.9449" height="22.6772" class="st1"/>
				<text x="6.47" y="417.92" class="st4">˙</text>			</g>
			<g id="shape34-101" transform="translate(223.654,-365.669)">
				<title>工作表.34</title>
				<desc>˙</desc>
				<rect x="0" y="402.986" width="24.9449" height="22.6772" class="st1"/>
				<text x="6.47" y="417.92" class="st4">˙</text>			</g>
			<g id="shape35-104" transform="translate(303.732,-365.669)">
				<title>工作表.35</title>
				<desc>˙</desc>
				<rect x="0" y="402.986" width="24.9449" height="22.6772" class="st1"/>
				<text x="6.47" y="417.92" class="st4">˙</text>			</g>
			<g id="shape36-107" transform="translate(383.669,-365.669)">
				<title>工作表.36</title>
				<desc>156</desc>
				<rect x="0" y="402.986" width="24.9449" height="22.6772" class="st1"/>
				<text x="4.02" y="417.92" class="st4">156</text>			</g>
			<g id="shape37-110" transform="translate(463.606,-365.669)">
				<title>工作表.37</title>
				<desc>˙</desc>
				<rect x="0" y="402.986" width="24.9449" height="22.6772" class="st1"/>
				<text x="6.47" y="417.92" class="st4">˙</text>			</g>
			<g id="shape38-113" transform="translate(551.622,-365.669)">
				<title>工作表.38</title>
				<desc>147</desc>
				<rect x="0" y="402.986" width="24.9449" height="22.6772" class="st1"/>
				<text x="4.02" y="417.92" class="st4">147</text>			</g>
			<g id="shape39-116" transform="translate(143.717,-292.535)">
				<title>工作表.39</title>
				<desc>7 4</desc>
				<rect x="0" y="402.986" width="24.9449" height="22.6772" class="st1"/>
				<text x="5.28" y="417.92" class="st4">7 4</text>			</g>
			<g id="shape40-119" transform="translate(143.717,-255.969)">
				<title>工作表.40</title>
				<desc>7 5</desc>
				<rect x="0" y="402.986" width="24.9449" height="22.6772" class="st1"/>
				<text x="5.28" y="417.92" class="st4">7 5</text>			</g>
			<g id="shape41-122" transform="translate(143.717,-219.402)">
				<title>工作表.41</title>
				<desc>˙</desc>
				<rect x="0" y="402.986" width="24.9449" height="22.6772" class="st1"/>
				<text x="6.47" y="417.92" class="st4">˙</text>			</g>
			<g id="shape42-125" transform="translate(143.717,-182.835)">
				<title>工作表.42</title>
				<desc>˙</desc>
				<rect x="0" y="402.986" width="24.9449" height="22.6772" class="st1"/>
				<text x="6.47" y="417.92" class="st4">˙</text>			</g>
			<g id="shape43-128" transform="translate(143.717,-146.268)">
				<title>工作表.43</title>
				<desc>˙</desc>
				<rect x="0" y="402.986" width="24.9449" height="22.6772" class="st1"/>
				<text x="6.47" y="417.92" class="st4">˙</text>			</g>
			<g id="shape44-131" transform="translate(143.717,-109.701)">
				<title>工作表.44</title>
				<desc>˙</desc>
				<rect x="0" y="402.986" width="24.9449" height="22.6772" class="st1"/>
				<text x="6.47" y="417.92" class="st4">˙</text>			</g>
			<g id="shape45-134" transform="translate(143.717,-73.1339)">
				<title>工作表.45</title>
				<desc>˙</desc>
				<rect x="0" y="402.986" width="24.9449" height="22.6772" class="st1"/>
				<text x="6.47" y="417.92" class="st4">˙</text>			</g>
			<g id="shape46-137" transform="translate(143.717,-36.5669)">
				<title>工作表.46</title>
				<desc>˙</desc>
				<rect x="0" y="402.986" width="24.9449" height="22.6772" class="st1"/>
				<text x="6.47" y="417.92" class="st4">˙</text>			</g>
			<g id="shape47-140" transform="translate(143.717,-5.11591E-13)">
				<title>工作表.47</title>
				<desc>˙</desc>
				<rect x="0" y="402.986" width="24.9449" height="22.6772" class="st1"/>
				<text x="6.47" y="417.92" class="st4">˙</text>			</g>
			<g id="shape48-143" transform="translate(223.654,-73.1339)">
				<title>工作表.48</title>
				<desc>˙</desc>
				<rect x="0" y="402.986" width="24.9449" height="22.6772" class="st1"/>
				<text x="6.47" y="417.92" class="st4">˙</text>			</g>
			<g id="shape49-146" transform="translate(223.654,-36.5669)">
				<title>工作表.49</title>
				<desc>˙</desc>
				<rect x="0" y="402.986" width="24.9449" height="22.6772" class="st1"/>
				<text x="6.47" y="417.92" class="st4">˙</text>			</g>
			<g id="shape50-149" transform="translate(303.732,-36.5669)">
				<title>工作表.50</title>
				<desc>˙</desc>
				<rect x="0" y="402.986" width="24.9449" height="22.6772" class="st1"/>
				<text x="6.47" y="417.92" class="st4">˙</text>			</g>
			<g id="shape51-152" transform="translate(303.732,-73.1339)">
				<title>工作表.51</title>
				<desc>˙</desc>
				<rect x="0" y="402.986" width="24.9449" height="22.6772" class="st1"/>
				<text x="6.47" y="417.92" class="st4">˙</text>			</g>
			<g id="shape52-155" transform="translate(303.732,-109.701)">
				<title>工作表.52</title>
				<desc>˙</desc>
				<rect x="0" y="402.986" width="24.9449" height="22.6772" class="st1"/>
				<text x="6.47" y="417.92" class="st4">˙</text>			</g>
			<g id="shape53-158" transform="translate(383.669,-109.701)">
				<title>工作表.53</title>
				<desc>˙</desc>
				<rect x="0" y="402.986" width="24.9449" height="22.6772" class="st1"/>
				<text x="6.47" y="417.92" class="st4">˙</text>			</g>
			<g id="shape54-161" transform="translate(463.606,-73.1339)">
				<title>工作表.54</title>
				<desc>˙</desc>
				<rect x="0" y="402.986" width="24.9449" height="22.6772" class="st1"/>
				<text x="6.47" y="417.92" class="st4">˙</text>			</g>
			<g id="shape55-164" transform="translate(463.606,-36.5669)">
				<title>工作表.55</title>
				<desc>˙</desc>
				<rect x="0" y="402.986" width="24.9449" height="22.6772" class="st1"/>
				<text x="6.47" y="417.92" class="st4">˙</text>			</g>
			<g id="shape56-167" transform="translate(463.606,-292.535)">
				<title>工作表.56</title>
				<desc>˙</desc>
				<rect x="0" y="402.986" width="24.9449" height="22.6772" class="st1"/>
				<text x="6.47" y="417.92" class="st4">˙</text>			</g>
			<g id="shape57-170" transform="translate(551.622,-292.535)">
				<title>工作表.57</title>
				<desc>˙</desc>
				<rect x="0" y="402.986" width="24.9449" height="22.6772" class="st1"/>
				<text x="6.47" y="417.92" class="st4">˙</text>			</g>
			<g id="shape58-173" transform="translate(551.622,-73.1339)">
				<title>工作表.58</title>
				<desc>˙</desc>
				<rect x="0" y="402.986" width="24.9449" height="22.6772" class="st1"/>
				<text x="6.47" y="417.92" class="st4">˙</text>			</g>
			<g id="shape59-176" transform="translate(551.622,-36.5669)">
				<title>工作表.59</title>
				<desc>˙</desc>
				<rect x="0" y="402.986" width="24.9449" height="22.6772" class="st1"/>
				<text x="6.47" y="417.92" class="st4">˙</text>			</g>
			<g id="shape60-179" transform="translate(223.654,-329.102)">
				<title>工作表.60</title>
				<desc>8 1</desc>
				<rect x="0" y="402.986" width="24.9449" height="22.6772" class="st1"/>
				<text x="5.28" y="417.92" class="st4">8 1</text>			</g>
			<g id="shape61-182" transform="translate(223.654,-292.535)">
				<title>工作表.61</title>
				<desc>9 6</desc>
				<rect x="0" y="402.986" width="24.9449" height="22.6772" class="st1"/>
				<text x="5.28" y="417.92" class="st4">9 6</text>			</g>
			<g id="shape62-185" transform="translate(223.654,-255.969)">
				<title>工作表.62</title>
				<desc>2 2</desc>
				<rect x="0" y="402.986" width="24.9449" height="22.6772" class="st1"/>
				<text x="5.28" y="417.92" class="st4">2 2</text>			</g>
			<g id="shape63-188" transform="translate(223.654,-219.402)">
				<title>工作表.63</title>
				<desc>3</desc>
				<rect x="0" y="402.986" width="24.9449" height="22.6772" class="st1"/>
				<text x="9.65" y="417.92" class="st4">3</text>			</g>
			<g id="shape64-191" transform="translate(223.654,-182.835)">
				<title>工作表.64</title>
				<desc>4</desc>
				<rect x="0" y="402.986" width="24.9449" height="22.6772" class="st1"/>
				<text x="9.65" y="417.92" class="st4">4</text>			</g>
			<g id="shape65-194" transform="translate(223.654,-146.268)">
				<title>工作表.65</title>
				<desc>5</desc>
				<rect x="0" y="402.986" width="24.9449" height="22.6772" class="st1"/>
				<text x="9.65" y="417.92" class="st4">5</text>			</g>
			<g id="shape66-197" transform="translate(223.654,-109.701)">
				<title>工作表.66</title>
				<desc>4 7</desc>
				<rect x="0" y="402.986" width="24.9449" height="22.6772" class="st1"/>
				<text x="5.28" y="417.92" class="st4">4 7</text>			</g>
			<g id="shape67-200" transform="translate(223.654,-7.95808E-13)">
				<title>工作表.67</title>
				<desc>4 3</desc>
				<rect x="0" y="402.986" width="24.9449" height="22.6772" class="st1"/>
				<text x="5.28" y="417.92" class="st4">4 3</text>			</g>
			<g id="shape68-203" transform="translate(303.732,-329.102)">
				<title>工作表.68</title>
				<desc>157</desc>
				<rect x="0" y="402.986" width="24.9449" height="22.6772" class="st1"/>
				<text x="4.02" y="417.92" class="st4">157</text>			</g>
			<g id="shape69-206" transform="translate(303.732,-292.535)">
				<title>工作表.69</title>
				<desc>160</desc>
				<rect x="0" y="402.986" width="24.9449" height="22.6772" class="st1"/>
				<text x="4.02" y="417.92" class="st4">160</text>			</g>
			<g id="shape70-209" transform="translate(303.732,-255.969)">
				<title>工作表.70</title>
				<desc>102</desc>
				<rect x="0" y="402.986" width="24.9449" height="22.6772" class="st1"/>
				<text x="4.02" y="417.92" class="st4">102</text>			</g>
			<g id="shape71-212" transform="translate(303.732,-219.402)">
				<title>工作表.71</title>
				<desc>7 4</desc>
				<rect x="0" y="402.986" width="24.9449" height="22.6772" class="st1"/>
				<text x="5.28" y="417.92" class="st4">7 4</text>			</g>
			<g id="shape72-215" transform="translate(303.732,-182.835)">
				<title>工作表.72</title>
				<desc>7 3</desc>
				<rect x="0" y="402.986" width="24.9449" height="22.6772" class="st1"/>
				<text x="5.28" y="417.92" class="st4">7 3</text>			</g>
			<g id="shape73-218" transform="translate(303.732,-146.268)">
				<title>工作表.73</title>
				<desc>7 2</desc>
				<rect x="0" y="402.986" width="24.9449" height="22.6772" class="st1"/>
				<text x="5.28" y="417.92" class="st4">7 2</text>			</g>
			<g id="shape74-221" transform="translate(303.732,-1.02318E-12)">
				<title>工作表.74</title>
				<desc>114</desc>
				<rect x="0" y="402.986" width="24.9449" height="22.6772" class="st1"/>
				<text x="4.02" y="417.92" class="st4">114</text>			</g>
			<g id="shape75-224" transform="translate(383.669,-329.102)">
				<title>工作表.75</title>
				<desc>161</desc>
				<rect x="0" y="402.986" width="24.9449" height="22.6772" class="st1"/>
				<text x="4.02" y="417.92" class="st4">161</text>			</g>
			<g id="shape76-227" transform="translate(383.669,-292.535)">
				<title>工作表.76</title>
				<desc>181</desc>
				<rect x="0" y="402.986" width="24.9449" height="22.6772" class="st1"/>
				<text x="4.02" y="417.92" class="st4">181</text>			</g>
			<g id="shape77-230" transform="translate(383.669,-255.969)">
				<title>工作表.77</title>
				<desc>8 2</desc>
				<rect x="0" y="402.986" width="24.9449" height="22.6772" class="st1"/>
				<text x="5.28" y="417.92" class="st4">8 2</text>			</g>
			<g id="shape78-233" transform="translate(383.669,-219.402)">
				<title>工作表.78</title>
				<desc>7 1</desc>
				<rect x="0" y="402.986" width="24.9449" height="22.6772" class="st1"/>
				<text x="5.28" y="417.92" class="st4">7 1</text>			</g>
			<g id="shape79-236" transform="translate(383.669,-182.835)">
				<title>工作表.79</title>
				<desc>7 2</desc>
				<rect x="0" y="402.986" width="24.9449" height="22.6772" class="st1"/>
				<text x="5.28" y="417.92" class="st4">7 2</text>			</g>
			<g id="shape80-239" transform="translate(383.669,-146.268)">
				<title>工作表.80</title>
				<desc>7 3</desc>
				<rect x="0" y="402.986" width="24.9449" height="22.6772" class="st1"/>
				<text x="5.28" y="417.92" class="st4">7 3</text>			</g>
			<g id="shape81-242" transform="translate(383.669,-73.1339)">
				<title>工作表.81</title>
				<desc>202</desc>
				<rect x="0" y="402.986" width="24.9449" height="22.6772" class="st1"/>
				<text x="4.02" y="417.92" class="st4">202</text>			</g>
			<g id="shape82-245" transform="translate(383.669,-36.5669)">
				<title>工作表.82</title>
				<desc>201</desc>
				<rect x="0" y="402.986" width="24.9449" height="22.6772" class="st1"/>
				<text x="4.02" y="417.92" class="st4">201</text>			</g>
			<g id="shape83-248" transform="translate(383.669,-1.36424E-12)">
				<title>工作表.83</title>
				<desc>163</desc>
				<rect x="0" y="402.986" width="24.9449" height="22.6772" class="st1"/>
				<text x="4.02" y="417.92" class="st4">163</text>			</g>
			<g id="shape84-251" transform="translate(463.606,-329.102)">
				<title>工作表.84</title>
				<desc>160</desc>
				<rect x="0" y="402.986" width="24.9449" height="22.6772" class="st1"/>
				<text x="4.02" y="417.92" class="st4">160</text>			</g>
			<g id="shape85-254" transform="translate(463.606,-255.969)">
				<title>工作表.85</title>
				<desc>128</desc>
				<rect x="0" y="402.986" width="24.9449" height="22.6772" class="st1"/>
				<text x="4.02" y="417.92" class="st4">128</text>			</g>
			<g id="shape86-257" transform="translate(463.606,-219.402)">
				<title>工作表.86</title>
				<desc>7 5</desc>
				<rect x="0" y="402.986" width="24.9449" height="22.6772" class="st1"/>
				<text x="5.28" y="417.92" class="st4">7 5</text>			</g>
			<g id="shape87-260" transform="translate(463.606,-182.835)">
				<title>工作表.87</title>
				<desc>8 5</desc>
				<rect x="0" y="402.986" width="24.9449" height="22.6772" class="st1"/>
				<text x="5.28" y="417.92" class="st4">8 5</text>			</g>
			<g id="shape88-263" transform="translate(463.606,-146.268)">
				<title>工作表.88</title>
				<desc>7 4</desc>
				<rect x="0" y="402.986" width="24.9449" height="22.6772" class="st1"/>
				<text x="5.28" y="417.92" class="st4">7 4</text>			</g>
			<g id="shape89-266" transform="translate(463.606,-109.701)">
				<title>工作表.89</title>
				<desc>133</desc>
				<rect x="0" y="402.986" width="24.9449" height="22.6772" class="st1"/>
				<text x="4.02" y="417.92" class="st4">133</text>			</g>
			<g id="shape90-269" transform="translate(463.606,-1.59162E-12)">
				<title>工作表.90</title>
				<desc>146</desc>
				<rect x="0" y="402.986" width="24.9449" height="22.6772" class="st1"/>
				<text x="4.02" y="417.92" class="st4">146</text>			</g>
			<g id="shape91-272" transform="translate(551.622,-329.102)">
				<title>工作表.91</title>
				<desc>170</desc>
				<rect x="0" y="402.986" width="24.9449" height="22.6772" class="st1"/>
				<text x="4.02" y="417.92" class="st4">170</text>			</g>
			<g id="shape92-275" transform="translate(551.622,-255.969)">
				<title>工作表.92</title>
				<desc>139</desc>
				<rect x="0" y="402.986" width="24.9449" height="22.6772" class="st1"/>
				<text x="4.02" y="417.92" class="st4">139</text>			</g>
			<g id="shape93-278" transform="translate(551.622,-219.402)">
				<title>工作表.93</title>
				<desc>7 6</desc>
				<rect x="0" y="402.986" width="24.9449" height="22.6772" class="st1"/>
				<text x="5.28" y="417.92" class="st4">7 6</text>			</g>
			<g id="shape94-281" transform="translate(551.622,-182.835)">
				<title>工作表.94</title>
				<desc>9 4</desc>
				<rect x="0" y="402.986" width="24.9449" height="22.6772" class="st1"/>
				<text x="5.28" y="417.92" class="st4">9 4</text>			</g>
			<g id="shape95-284" transform="translate(551.622,-146.268)">
				<title>工作表.95</title>
				<desc>7 5</desc>
				<rect x="0" y="402.986" width="24.9449" height="22.6772" class="st1"/>
				<text x="5.28" y="417.92" class="st4">7 5</text>			</g>
			<g id="shape96-287" transform="translate(551.622,-109.701)">
				<title>工作表.96</title>
				<desc>143</desc>
				<rect x="0" y="402.986" width="24.9449" height="22.6772" class="st1"/>
				<text x="4.02" y="417.92" class="st4">143</text>			</g>
			<g id="shape97-290" transform="translate(539.15,-1.87583E-12)">
				<title>工作表.97</title>
				<desc>155</desc>
				<rect x="0" y="402.986" width="24.9449" height="22.6772" class="st1"/>
				<text x="4.02" y="417.92" class="st4">155</text>			</g>
			<g id="shape98-293" transform="translate(564.094,-1.93268E-12)">
				<title>工作表.98</title>
				<desc>156</desc>
				<rect x="0" y="402.986" width="24.9449" height="22.6772" class="st1"/>
				<text x="4.02" y="417.92" class="st4">156</text>			</g>
			<g id="shape99-296" transform="translate(-229.506,424.53) rotate(-90)">
				<title>工作表.99</title>
				<path d="M0 425.66 L423.78 425.66" class="st3"/>
			</g>
			<g id="shape100-299" transform="translate(-149.498,424.53) rotate(-90)">
				<title>工作表.100</title>
				<path d="M0 425.66 L423.78 425.66" class="st3"/>
			</g>
			<g id="shape101-302" transform="translate(-69.4902,424.53) rotate(-90)">
				<title>工作表.101</title>
				<path d="M0 425.66 L423.78 425.66" class="st3"/>
			</g>
			<g id="shape102-305" transform="translate(10.4469,424.53) rotate(-90)">
				<title>工作表.102</title>
				<path d="M0 425.66 L423.78 425.66" class="st3"/>
			</g>
			<g id="shape103-308" transform="translate(90.4547,424.53) rotate(-90)">
				<title>工作表.103</title>
				<path d="M0 425.66 L423.78 425.66" class="st3"/>
			</g>
		</g>
	</g>
</svg>
