<?xml version="1.0" encoding="UTF-8" standalone="no"?>
<!DOCTYPE svg PUBLIC "-//W3C//DTD SVG 1.1//EN" "http://www.w3.org/Graphics/SVG/1.1/DTD/svg11.dtd">
<!-- 由 Microsoft Visio, SVG Export 產生 y35.0388-h.svg 頁-1 -->
<svg xmlns="http://www.w3.org/2000/svg" xmlns:xlink="http://www.w3.org/1999/xlink" xmlns:ev="http://www.w3.org/2001/xml-events"
		width="3.47927in" height="4.43365in" viewBox="0 0 250.507 319.222" xml:space="preserve" color-interpolation-filters="sRGB"
		class="st5">
	<style type="text/css">
	<![CDATA[
		.st1 {fill:none;stroke:none;stroke-linecap:round;stroke-linejoin:round;stroke-width:0.75}
		.st2 {fill:#000000;font-family:新細明體;font-size:1.33333em}
		.st3 {fill:#000000;font-family:新細明體;font-size:1.00001em}
		.st4 {stroke:#000000;stroke-linecap:round;stroke-linejoin:round;stroke-width:0.24}
		.st5 {fill:none;fill-rule:evenodd;font-size:12px;overflow:visible;stroke-linecap:square;stroke-miterlimit:3}
	]]>
	</style>

	<g>
		<title>頁-1</title>
		<g id="group21-1" transform="translate(0.375,-0.375)">
			<title>工作表.21</title>
			<g id="shape1-2" transform="translate(1.72594,-255.969)">
				<title>工作表.1</title>
				<desc>空靜處教師──空靜處問遮法</desc>
				<rect x="0" y="299.38" width="248.031" height="19.8425" class="st1"/>
				<text x="20.62" y="314.1" class="st2">空靜處教師──空靜處問遮法</text>			</g>
			<g id="shape2-5" transform="translate(1.72594,-292.535)">
				<title>工作表.2</title>
				<desc>羯磨師──立教師</desc>
				<rect x="0" y="299.38" width="168.094" height="19.8425" class="st1"/>
				<text x="20.62" y="314.1" class="st2">羯磨師──立教師</text>			</g>
			<g id="shape3-8" transform="translate(1.72594,-219.402)">
				<title>工作表.3</title>
				<desc>羯磨師──白聽受具者入眾中</desc>
				<rect x="0" y="299.38" width="248.031" height="19.8425" class="st1"/>
				<text x="20.62" y="314.1" class="st2">羯磨師──白聽受具者入眾中</text>			</g>
			<g id="shape4-11" transform="translate(1.72594,-182.835)">
				<title>工作表.4</title>
				<desc>戒師──授與衣鉢教受持</desc>
				<rect x="0" y="299.38" width="232.157" height="19.8425" class="st1"/>
				<text x="20.62" y="314.1" class="st2">戒師──授與衣鉢，教受持</text>			</g>
			<g id="shape5-14" transform="translate(1.72594,-146.268)">
				<title>工作表.5</title>
				<desc>羯磨師──白聽乞受具</desc>
				<rect x="0" y="299.38" width="200.126" height="19.8425" class="st1"/>
				<text x="20.62" y="314.1" class="st2">羯磨師──白聽乞受具</text>			</g>
			<g id="shape6-17" transform="translate(1.72594,-109.701)">
				<title>工作表.6</title>
				<desc>戒師──教乞受具</desc>
				<rect x="0" y="299.38" width="168.094" height="19.8425" class="st1"/>
				<text x="20.62" y="314.1" class="st2">戒師──教乞受具</text>			</g>
			<g id="shape7-20" transform="translate(0,-72.2126)">
				<title>工作表.7</title>
				<desc>羯磨師───白聽問遮法</desc>
				<rect x="0" y="299.38" width="216" height="19.8425" class="st1"/>
				<text x="20.62" y="314.1" class="st2">羯磨師───白聽問遮法</text>			</g>
			<g id="shape8-23" transform="translate(113.836,-36.5669)">
				<title>工作表.8</title>
				<desc>眾中問遮法</desc>
				<rect x="0" y="299.38" width="88.1575" height="19.8425" class="st1"/>
				<text x="4.08" y="314.1" class="st2">眾中問遮法</text>			</g>
			<g id="shape9-26" transform="translate(113.836,0)">
				<title>工作表.9</title>
				<desc>白四羯磨</desc>
				<rect x="0" y="299.38" width="72" height="19.8425" class="st1"/>
				<text x="4" y="314.1" class="st2">白四羯磨</text>			</g>
			<g id="shape10-29" transform="translate(1.72594,-292.535)">
				<title>工作表.10</title>
				<desc>1.</desc>
				<rect x="0" y="299.38" width="24.378" height="19.8425" class="st1"/>
				<text x="7.96" y="312.9" class="st3">1.</text>			</g>
			<g id="shape11-32" transform="translate(148.702,-286.441)">
				<title>工作表.11</title>
				<desc>白二</desc>
				<rect x="0" y="287.191" width="32.0315" height="32.0315" class="st1"/>
				<text x="4" y="301.99" class="st3">白二</text>			</g>
			<g id="shape12-35" transform="translate(1.72594,-73.1339)">
				<title>工作表.12</title>
				<desc>7.</desc>
				<rect x="0" y="299.38" width="24.378" height="19.8425" class="st1"/>
				<text x="7.96" y="312.9" class="st3">7.</text>			</g>
			<g id="shape13-38" transform="translate(1.72594,-255.969)">
				<title>工作表.13</title>
				<desc>2.</desc>
				<rect x="0" y="299.38" width="24.378" height="19.8425" class="st1"/>
				<text x="7.96" y="312.9" class="st3">2.</text>			</g>
			<g id="shape14-41" transform="translate(1.72594,-219.402)">
				<title>工作表.14</title>
				<desc>3.</desc>
				<rect x="0" y="299.38" width="24.378" height="19.8425" class="st1"/>
				<text x="7.96" y="312.9" class="st3">3.</text>			</g>
			<g id="shape15-44" transform="translate(1.72594,-182.835)">
				<title>工作表.15</title>
				<desc>4.</desc>
				<rect x="0" y="299.38" width="24.378" height="19.8425" class="st1"/>
				<text x="7.96" y="312.9" class="st3">4.</text>			</g>
			<g id="shape16-47" transform="translate(1.72594,-146.268)">
				<title>工作表.16</title>
				<desc>5.</desc>
				<rect x="0" y="299.38" width="24.378" height="19.8425" class="st1"/>
				<text x="7.96" y="312.9" class="st3">5.</text>			</g>
			<g id="shape17-50" transform="translate(1.72594,-109.701)">
				<title>工作表.17</title>
				<desc>6.</desc>
				<rect x="0" y="299.38" width="24.378" height="19.8425" class="st1"/>
				<text x="7.96" y="312.9" class="st3">6.</text>			</g>
			<g id="shape18-53" transform="translate(148.702,-103.606)">
				<title>工作表.18</title>
				<desc>三乞</desc>
				<rect x="0" y="287.191" width="32.0315" height="32.0315" class="st1"/>
				<text x="4" y="301.99" class="st3">三乞</text>			</g>
			<g id="shape19-56" transform="translate(-70.278,530.768) rotate(-143.932)">
				<title>工作表.19</title>
				<path d="M0 319.22 L60.73 319.22" class="st4"/>
			</g>
			<g id="shape20-59" transform="translate(-146.464,488.577) rotate(-124.167)">
				<title>工作表.20</title>
				<path d="M0 319.22 L87.45 319.22" class="st4"/>
			</g>
		</g>
	</g>
</svg>
