<?xml version="1.0" encoding="UTF-8" standalone="no"?>
<!DOCTYPE svg PUBLIC "-//W3C//DTD SVG 1.1//EN" "http://www.w3.org/Graphics/SVG/1.1/DTD/svg11.dtd">
<!-- 由 Microsoft Visio, SVG Export 產生 y35.0154-h.svg 頁-1 -->
<svg xmlns="http://www.w3.org/2000/svg" xmlns:xlink="http://www.w3.org/1999/xlink" xmlns:ev="http://www.w3.org/2001/xml-events"
		width="6.78404in" height="3.26239in" viewBox="0 0 488.451 234.892" xml:space="preserve" color-interpolation-filters="sRGB"
		class="st5">
	<style type="text/css">
	<![CDATA[
		.st1 {fill:none;stroke:none;stroke-linecap:round;stroke-linejoin:round;stroke-width:0.75}
		.st2 {fill:#000000;font-family:新細明體;font-size:1.33333em}
		.st3 {stroke:#000000;stroke-linecap:round;stroke-linejoin:round;stroke-width:0.24}
		.st4 {fill:#000000;font-family:新細明體;font-size:0.916672em}
		.st5 {fill:none;fill-rule:evenodd;font-size:12px;overflow:visible;stroke-linecap:square;stroke-miterlimit:3}
	]]>
	</style>

	<g>
		<title>頁-1</title>
		<g id="shape1-1" transform="translate(0.375,-146.643)">
			<title>工作表.1</title>
			<desc>非僧差教誡尼</desc>
			<rect x="0" y="212.215" width="104.031" height="22.6772" class="st1"/>
			<text x="4.02" y="228.35" class="st2">非僧差教誡尼</text>		</g>
		<g id="shape2-4" transform="translate(0.375,-36.9419)">
			<title>工作表.2</title>
			<desc>教誡尼至日暮</desc>
			<rect x="0" y="212.215" width="104.031" height="22.6772" class="st1"/>
			<text x="4.02" y="228.35" class="st2">教誡尼至日暮</text>		</g>
		<g id="shape3-7" transform="translate(0.375,-73.5089)">
			<title>工作表.3</title>
			<desc>(界外自差教尼)</desc>
			<rect x="0" y="212.215" width="120.189" height="22.6772" class="st1"/>
			<text x="7.08" y="228.35" class="st2">(界外自差教尼)</text>		</g>
		<g id="shape4-10" transform="translate(0.375,-0.375)">
			<title>工作表.4</title>
			<desc>自往尼住處教誡</desc>
			<rect x="0" y="212.215" width="120.189" height="22.6772" class="st1"/>
			<text x="4.09" y="228.35" class="st2">自往尼住處教誡</text>		</g>
		<g id="shape10-13" transform="translate(225.162,-178.391)">
			<title>工作表.10</title>
			<desc>五分律</desc>
			<rect x="0" y="178.766" width="22.6772" height="56.126" class="st1"/>
			<text x="11.34" y="182.83" writing-mode="tb-rl" class="st2">五分律</text>		</g>
		<g id="shape11-16" transform="translate(465.399,-178.391)">
			<title>工作表.11</title>
			<desc>根有律</desc>
			<rect x="0" y="178.766" width="22.6772" height="56.126" class="st1"/>
			<text x="11.34" y="182.83" writing-mode="tb-rl" class="st2">根有律</text>		</g>
		<g id="shape12-19" transform="translate(177.115,-178.391)">
			<title>工作表.12</title>
			<desc>銅鍱律</desc>
			<rect x="0" y="178.766" width="22.6772" height="56.126" class="st1"/>
			<text x="11.34" y="182.83" writing-mode="tb-rl" class="st2">銅鍱律</text>		</g>
		<g id="shape13-22" transform="translate(273.21,-178.391)">
			<title>工作表.13</title>
			<desc>僧祇律</desc>
			<rect x="0" y="178.766" width="22.6772" height="56.126" class="st1"/>
			<text x="11.34" y="182.83" writing-mode="tb-rl" class="st2">僧祇律</text>		</g>
		<g id="shape14-25" transform="translate(321.257,-178.391)">
			<title>工作表.14</title>
			<desc>鼻奈耶</desc>
			<rect x="0" y="178.766" width="22.6772" height="56.126" class="st1"/>
			<text x="11.34" y="182.83" writing-mode="tb-rl" class="st2">鼻奈耶</text>		</g>
		<g id="shape19-28" transform="translate(369.304,-178.391)">
			<title>工作表.19</title>
			<desc>四分律</desc>
			<rect x="0" y="178.766" width="22.6772" height="56.126" class="st1"/>
			<text x="11.34" y="182.83" writing-mode="tb-rl" class="st2">四分律</text>		</g>
		<g id="shape22-31" transform="translate(416.784,-178.391)">
			<title>工作表.22</title>
			<desc>十誦律</desc>
			<rect x="0" y="178.766" width="22.6772" height="56.126" class="st1"/>
			<text x="11.34" y="182.83" writing-mode="tb-rl" class="st2">十誦律</text>		</g>
		<g id="shape27-34" transform="translate(-70.6742,231.54) rotate(-90)">
			<title>工作表.27</title>
			<path d="M0 234.89 L228.19 234.89" class="st3"/>
		</g>
		<g id="shape28-37" transform="translate(486.8,295.786) rotate(180)">
			<title>工作表.28</title>
			<path d="M0 234.89 L483.31 234.89" class="st3"/>
		</g>
		<g id="shape44-40" transform="translate(177.115,-36.9419)">
			<title>工作表.44</title>
			<desc>22</desc>
			<rect x="0" y="212.215" width="22.6772" height="22.6772" class="st1"/>
			<text x="6.17" y="226.85" class="st4">22</text>		</g>
		<g id="shape46-43" transform="translate(177.115,-110.076)">
			<title>工作表.46</title>
			<desc>21</desc>
			<rect x="0" y="212.215" width="22.6772" height="22.6772" class="st1"/>
			<text x="6.17" y="226.85" class="st4">21</text>		</g>
		<g id="shape60-46" transform="translate(225.162,-36.9419)">
			<title>工作表.60</title>
			<desc>22</desc>
			<rect x="0" y="212.215" width="22.6772" height="22.6772" class="st1"/>
			<text x="6.17" y="226.85" class="st4">22</text>		</g>
		<g id="shape61-49" transform="translate(273.21,-0.375)">
			<title>工作表.61</title>
			<desc>23</desc>
			<rect x="0" y="212.215" width="22.6772" height="22.6772" class="st1"/>
			<text x="6.17" y="226.85" class="st4">23</text>		</g>
		<g id="shape62-52" transform="translate(225.162,-110.076)">
			<title>工作表.62</title>
			<desc>21</desc>
			<rect x="0" y="212.215" width="22.6772" height="22.6772" class="st1"/>
			<text x="6.17" y="226.85" class="st4">21</text>		</g>
		<g id="shape63-55" transform="translate(225.162,-0.375)">
			<title>工作表.63</title>
			<desc>23</desc>
			<rect x="0" y="212.215" width="22.6772" height="22.6772" class="st1"/>
			<text x="6.17" y="226.85" class="st4">23</text>		</g>
		<g id="shape76-58" transform="translate(273.21,-36.9419)">
			<title>工作表.76</title>
			<desc>22</desc>
			<rect x="0" y="212.215" width="22.6772" height="22.6772" class="st1"/>
			<text x="6.17" y="226.85" class="st4">22</text>		</g>
		<g id="shape77-61" transform="translate(273.21,-73.5089)">
			<title>工作表.77</title>
			<desc>23</desc>
			<rect x="0" y="212.215" width="22.6772" height="22.6772" class="st1"/>
			<text x="6.17" y="226.85" class="st4">23</text>		</g>
		<g id="shape78-64" transform="translate(263.288,-73.5089)">
			<title>工作表.78</title>
			<desc>　</desc>
			<rect x="0" y="212.215" width="42.5197" height="22.6772" class="st1"/>
			<text x="4.76" y="226.85" class="st4">（　）</text>		</g>
		<g id="shape79-67" transform="translate(273.21,-146.643)">
			<title>工作表.79</title>
			<desc>21</desc>
			<rect x="0" y="212.215" width="22.6772" height="22.6772" class="st1"/>
			<text x="6.17" y="226.85" class="st4">21</text>		</g>
		<g id="shape92-70" transform="translate(321.257,-73.5089)">
			<title>工作表.92</title>
			<desc>‧</desc>
			<rect x="0" y="212.215" width="22.6772" height="22.6772" class="st1"/>
			<text x="5.84" y="226.85" class="st4">‧</text>		</g>
		<g id="shape93-73" transform="translate(321.257,-36.9419)">
			<title>工作表.93</title>
			<desc>22</desc>
			<rect x="0" y="212.215" width="22.6772" height="22.6772" class="st1"/>
			<text x="6.17" y="226.85" class="st4">22</text>		</g>
		<g id="shape94-76" transform="translate(321.257,-0.375)">
			<title>工作表.94</title>
			<desc>‧</desc>
			<rect x="0" y="212.215" width="22.6772" height="22.6772" class="st1"/>
			<text x="5.84" y="226.85" class="st4">‧</text>		</g>
		<g id="shape95-79" transform="translate(321.257,-146.643)">
			<title>工作表.95</title>
			<desc>21</desc>
			<rect x="0" y="212.215" width="22.6772" height="22.6772" class="st1"/>
			<text x="6.17" y="226.85" class="st4">21</text>		</g>
		<g id="shape108-82" transform="translate(369.304,-0.375)">
			<title>工作表.108</title>
			<desc>‧</desc>
			<rect x="0" y="212.215" width="22.6772" height="22.6772" class="st1"/>
			<text x="5.84" y="226.85" class="st4">‧</text>		</g>
		<g id="shape110-85" transform="translate(369.304,-110.076)">
			<title>工作表.110</title>
			<desc>21</desc>
			<rect x="0" y="212.215" width="22.6772" height="22.6772" class="st1"/>
			<text x="6.17" y="226.85" class="st4">21</text>		</g>
		<g id="shape111-88" transform="translate(369.304,-36.9419)">
			<title>工作表.111</title>
			<desc>22</desc>
			<rect x="0" y="212.215" width="22.6772" height="22.6772" class="st1"/>
			<text x="6.17" y="226.85" class="st4">22</text>		</g>
		<g id="shape124-91" transform="translate(416.784,-36.9419)">
			<title>工作表.124</title>
			<desc>22</desc>
			<rect x="0" y="212.215" width="22.6772" height="22.6772" class="st1"/>
			<text x="6.17" y="226.85" class="st4">22</text>		</g>
		<g id="shape126-94" transform="translate(416.784,-110.076)">
			<title>工作表.126</title>
			<desc>21</desc>
			<rect x="0" y="212.215" width="22.6772" height="22.6772" class="st1"/>
			<text x="6.17" y="226.85" class="st4">21</text>		</g>
		<g id="shape127-97" transform="translate(416.784,-0.375)">
			<title>工作表.127</title>
			<desc>‧</desc>
			<rect x="0" y="212.215" width="22.6772" height="22.6772" class="st1"/>
			<text x="5.84" y="226.85" class="st4">‧</text>		</g>
		<g id="shape140-100" transform="translate(465.399,-36.9419)">
			<title>工作表.140</title>
			<desc>22</desc>
			<rect x="0" y="212.215" width="22.6772" height="22.6772" class="st1"/>
			<text x="6.17" y="226.85" class="st4">22</text>		</g>
		<g id="shape142-103" transform="translate(465.399,-110.076)">
			<title>工作表.142</title>
			<desc>21</desc>
			<rect x="0" y="212.215" width="22.6772" height="22.6772" class="st1"/>
			<text x="6.17" y="226.85" class="st4">21</text>		</g>
		<g id="shape143-106" transform="translate(465.399,-0.375)">
			<title>工作表.143</title>
			<desc>‧</desc>
			<rect x="0" y="212.215" width="22.6772" height="22.6772" class="st1"/>
			<text x="5.84" y="226.85" class="st4">‧</text>		</g>
		<g id="shape5-109" transform="translate(177.115,-0.375)">
			<title>工作表.5</title>
			<desc>23</desc>
			<rect x="0" y="212.215" width="22.6772" height="22.6772" class="st1"/>
			<text x="6.17" y="226.85" class="st4">23</text>		</g>
	</g>
</svg>
