<?xml version="1.0" encoding="UTF-8" standalone="no"?>
<!DOCTYPE svg PUBLIC "-//W3C//DTD SVG 1.1//EN" "http://www.w3.org/Graphics/SVG/1.1/DTD/svg11.dtd">
<!-- 由 Microsoft Visio, SVG Export 產生 y35.0698.svg 頁-1 -->
<svg xmlns="http://www.w3.org/2000/svg" xmlns:xlink="http://www.w3.org/1999/xlink" xmlns:ev="http://www.w3.org/2001/xml-events"
		width="5.10689in" height="10.4176in" viewBox="0 0 367.696 750.064" xml:space="preserve" color-interpolation-filters="sRGB"
		class="st5">
	<style type="text/css">
	<![CDATA[
		.st1 {fill:none;stroke:none;stroke-linecap:round;stroke-linejoin:round;stroke-width:0.75}
		.st2 {fill:#000000;font-family:新細明體;font-size:0.916672em}
		.st3 {stroke:none;stroke-linecap:round;stroke-linejoin:round;stroke-width:0.75}
		.st4 {stroke:#000000;stroke-linecap:round;stroke-linejoin:round;stroke-width:0.75}
		.st5 {fill:none;fill-rule:evenodd;font-size:12px;overflow:visible;stroke-linecap:square;stroke-miterlimit:3}
	]]>
	</style>

	<g>
		<title>頁-1</title>
		<g id="group99-1" transform="translate(0.375,-0.375)">
			<title>工作表.99</title>
			<g id="shape1-2" transform="translate(33.5244,-733.86)">
				<title>工作表.1</title>
				<desc>〔雜阿含經〕</desc>
				<rect x="0" y="734.61" width="76.0346" height="15.4538" class="st1"/>
				<text x="5.02" y="745.64" class="st2">〔雜阿含經〕</text>			</g>
			<g id="shape2-5" transform="translate(272.551,-733.86)">
				<title>工作表.2</title>
				<desc>〔相應部〕</desc>
				<rect x="0" y="734.61" width="71.1212" height="15.4538" class="st1"/>
				<text x="8.06" y="745.64" class="st2">〔相應部〕</text>			</g>
			<g id="shape3-8" transform="translate(272.551,-714.233)">
				<title>工作表.3</title>
				<desc>23羅陀相應</desc>
				<rect x="0" y="734.61" width="70.3947" height="15.4538" class="st1"/>
				<text x="8.03" y="745.64" class="st2">23羅陀相應</text>			</g>
			<g id="shape4-11" transform="translate(272.551,-694.606)">
				<title>工作表.4</title>
				<desc>24見相應</desc>
				<rect x="0" y="734.61" width="58.3946" height="15.4538" class="st1"/>
				<text x="7.53" y="745.64" class="st2">24見相應</text>			</g>
			<g id="shape5-14" transform="translate(88.2992,-714.233)">
				<title>工作表.5</title>
				<desc>羅陀</desc>
				<rect x="0" y="734.61" width="35.1209" height="15.4538" class="st1"/>
				<text x="6.56" y="745.64" class="st2">羅陀</text>			</g>
			<g id="shape6-17" transform="translate(88.2992,-694.606)">
				<title>工作表.6</title>
				<desc>見</desc>
				<rect x="0" y="734.61" width="23.1208" height="15.4538" class="st1"/>
				<text x="6.06" y="745.64" class="st2">見</text>			</g>
			<g id="shape7-20" transform="translate(88.2992,-674.978)">
				<title>工作表.7</title>
				<desc>斷知</desc>
				<rect x="0" y="734.61" width="35.1209" height="15.4538" class="st1"/>
				<text x="6.56" y="745.64" class="st2">斷知</text>			</g>
			<g id="shape8-23" transform="translate(-1.9984E-14,-694.606)">
				<title>工作表.8</title>
				<desc>蘊</desc>
				<rect x="0" y="734.61" width="23.1208" height="15.4538" class="st1"/>
				<text x="6.06" y="745.64" class="st2">蘊</text>			</g>
			<g id="shape9-26" transform="translate(272.551,-654.065)">
				<title>工作表.9</title>
				<desc>38閻浮車相應</desc>
				<rect x="0" y="734.61" width="82.3948" height="15.4538" class="st1"/>
				<text x="8.53" y="745.64" class="st2">38閻浮車相應</text>			</g>
			<g id="shape10-29" transform="translate(272.551,-634.086)">
				<title>工作表.10</title>
				<desc>39沙門出家相應</desc>
				<rect x="0" y="734.61" width="94.3949" height="15.4538" class="st1"/>
				<text x="9.03" y="745.64" class="st2">39沙門出家相應</text>			</g>
			<g id="shape11-32" transform="translate(272.551,-614.107)">
				<title>工作表.11</title>
				<desc>28舍利弗相應</desc>
				<rect x="0" y="734.61" width="82.3948" height="15.4538" class="st1"/>
				<text x="8.53" y="745.64" class="st2">28舍利弗相應</text>			</g>
			<g id="shape12-35" transform="translate(88.2992,-634.086)">
				<title>工作表.12</title>
				<desc>舍利弗</desc>
				<rect x="0" y="734.61" width="47.121" height="15.4538" class="st1"/>
				<text x="7.06" y="745.64" class="st2">舍利弗</text>			</g>
			<g id="shape13-38" transform="translate(272.551,-594.127)">
				<title>工作表.13</title>
				<desc>40目犍連相應</desc>
				<rect x="0" y="734.61" width="82.3948" height="15.4538" class="st1"/>
				<text x="8.53" y="745.64" class="st2">40目犍連相應</text>			</g>
			<g id="shape14-41" transform="translate(272.551,-574.148)">
				<title>工作表.14</title>
				<desc>19勒叉那相應</desc>
				<rect x="0" y="734.61" width="82.3948" height="15.4538" class="st1"/>
				<text x="8.53" y="745.64" class="st2">19勒叉那相應</text>			</g>
			<g id="shape15-44" transform="translate(88.2992,-584.48)">
				<title>工作表.15</title>
				<desc>目犍連</desc>
				<rect x="0" y="734.61" width="47.121" height="15.4538" class="st1"/>
				<text x="7.06" y="745.64" class="st2">目犍連</text>			</g>
			<g id="shape16-47" transform="translate(272.551,-554.169)">
				<title>工作表.16</title>
				<desc>52阿那律相應</desc>
				<rect x="0" y="734.61" width="82.3948" height="15.4538" class="st1"/>
				<text x="8.53" y="745.64" class="st2">52阿那律相應</text>			</g>
			<g id="shape17-50" transform="translate(88.2992,-554.169)">
				<title>工作表.17</title>
				<desc>阿那律</desc>
				<rect x="0" y="734.61" width="47.121" height="15.4538" class="st1"/>
				<text x="7.06" y="745.64" class="st2">阿那律</text>			</g>
			<g id="shape18-53" transform="translate(88.2992,-533.593)">
				<title>工作表.18</title>
				<desc>大迦旃延</desc>
				<rect x="0" y="734.61" width="59.1211" height="15.4538" class="st1"/>
				<text x="7.56" y="745.64" class="st2">大迦旃延</text>			</g>
			<g id="shape19-56" transform="translate(88.2992,-513.016)">
				<title>工作表.19</title>
				<desc>阿難</desc>
				<rect x="0" y="734.61" width="35.1209" height="15.4538" class="st1"/>
				<text x="6.56" y="745.64" class="st2">阿難</text>			</g>
			<g id="shape20-59" transform="translate(88.2992,-492.44)">
				<title>工作表.20</title>
				<desc>質多</desc>
				<rect x="0" y="734.61" width="35.1209" height="15.4538" class="st1"/>
				<text x="6.56" y="745.64" class="st2">質多</text>			</g>
			<g id="shape21-62" transform="translate(272.551,-492.44)">
				<title>工作表.21</title>
				<desc>41質多相應</desc>
				<rect x="0" y="734.61" width="70.3947" height="15.4538" class="st1"/>
				<text x="8.03" y="745.64" class="st2">41質多相應</text>			</g>
			<g id="shape22-65" transform="translate(272.551,-473.332)">
				<title>工作表.22</title>
				<desc>32雲相應</desc>
				<rect x="0" y="734.61" width="58.3946" height="15.4538" class="st1"/>
				<text x="7.53" y="745.64" class="st2">32雲相應</text>			</g>
			<g id="shape23-68" transform="translate(272.551,-454.223)">
				<title>工作表.23</title>
				<desc>34禪相應</desc>
				<rect x="0" y="734.61" width="58.3946" height="15.4538" class="st1"/>
				<text x="7.53" y="745.64" class="st2">34禪相應</text>			</g>
			<g id="shape24-71" transform="translate(272.551,-435.114)">
				<title>工作表.24</title>
				<desc>43無為相應</desc>
				<rect x="0" y="734.61" width="70.3947" height="15.4538" class="st1"/>
				<text x="8.03" y="745.64" class="st2">43無為相應</text>			</g>
			<g id="shape25-74" transform="translate(272.551,-416.006)">
				<title>工作表.25</title>
				<desc>13現觀相應</desc>
				<rect x="0" y="734.61" width="70.3947" height="15.4538" class="st1"/>
				<text x="8.03" y="745.64" class="st2">13現觀相應</text>			</g>
			<g id="shape26-77" transform="translate(272.551,-396.897)">
				<title>工作表.26</title>
				<desc>25入相應</desc>
				<rect x="0" y="734.61" width="58.3946" height="15.4538" class="st1"/>
				<text x="7.53" y="745.64" class="st2">25入相應</text>			</g>
			<g id="shape27-80" transform="translate(272.551,-377.788)">
				<title>工作表.27</title>
				<desc>26生相應</desc>
				<rect x="0" y="734.61" width="58.3946" height="15.4538" class="st1"/>
				<text x="7.53" y="745.64" class="st2">26生相應</text>			</g>
			<g id="shape28-83" transform="translate(272.551,-358.68)">
				<title>工作表.28</title>
				<desc>27煩惱相應</desc>
				<rect x="0" y="734.61" width="70.3947" height="15.4538" class="st1"/>
				<text x="8.03" y="745.64" class="st2">27煩惱相應</text>			</g>
			<g id="shape29-86" transform="translate(88.2992,-415.819)">
				<title>工作表.29</title>
				<desc>雜</desc>
				<rect x="0" y="734.237" width="23.1208" height="15.8272" class="st1"/>
				<text x="6.06" y="745.45" class="st2">雜</text>			</g>
			<g id="shape30-89" transform="translate(-1.39888E-14,-519.419)">
				<title>工作表.30</title>
				<desc>因緣</desc>
				<rect x="0" y="734.61" width="35.1209" height="15.4538" class="st1"/>
				<text x="6.56" y="745.64" class="st2">因緣</text>			</g>
			<g id="shape31-92" transform="translate(272.551,-339.571)">
				<title>工作表.31</title>
				<desc>16迦葉相應</desc>
				<rect x="0" y="734.61" width="70.3947" height="15.4538" class="st1"/>
				<text x="8.03" y="745.64" class="st2">16迦葉相應</text>			</g>
			<g id="shape32-95" transform="translate(272.551,-320.382)">
				<title>工作表.32</title>
				<desc>42聚落主相應</desc>
				<rect x="0" y="734.53" width="82.3948" height="15.5344" class="st1"/>
				<text x="8.53" y="745.6" class="st2">42聚落主相應</text>			</g>
			<g id="shape33-98" transform="translate(88.2992,-339.571)">
				<title>工作表.33</title>
				<desc>大迦葉</desc>
				<rect x="0" y="734.61" width="47.121" height="15.4538" class="st1"/>
				<text x="7.06" y="745.64" class="st2">大迦葉</text>			</g>
			<g id="shape34-101" transform="translate(88.2992,-319.653)">
				<title>工作表.34</title>
				<desc>聚落主</desc>
				<rect x="0" y="733.801" width="47.121" height="16.2637" class="st1"/>
				<text x="7.06" y="745.23" class="st2">聚落主</text>			</g>
			<g id="shape35-104" transform="translate(272.551,-259.897)">
				<title>工作表.35</title>
				<desc>15無始相應</desc>
				<rect x="0" y="734.53" width="65.1957" height="15.5344" class="st1"/>
				<text x="5.43" y="745.6" class="st2">15無始相應</text>			</g>
			<g id="shape36-107" transform="translate(88.2992,-299.734)">
				<title>工作表.36</title>
				<desc>馬</desc>
				<rect x="0" y="733.801" width="21.8612" height="16.2637" class="st1"/>
				<text x="5.43" y="745.23" class="st2">馬</text>			</g>
			<g id="shape37-110" transform="translate(88.2992,-279.815)">
				<title>工作表.37</title>
				<desc>釋氏</desc>
				<rect x="0" y="733.801" width="32.8613" height="16.2637" class="st1"/>
				<text x="5.43" y="745.23" class="st2">釋氏</text>			</g>
			<g id="shape38-113" transform="translate(88.2992,-259.897)">
				<title>工作表.38</title>
				<desc>生死眾多</desc>
				<rect x="0" y="733.801" width="54.8614" height="16.2637" class="st1"/>
				<text x="5.43" y="745.23" class="st2">生死眾多</text>			</g>
			<g id="shape39-116" transform="translate(88.2992,-239.473)">
				<title>工作表.39</title>
				<desc>婆蹉出家</desc>
				<rect x="0" y="733.801" width="54.8614" height="16.2637" class="st1"/>
				<text x="5.43" y="745.23" class="st2">婆蹉出家</text>			</g>
			<g id="shape40-119" transform="translate(272.551,-239.473)">
				<title>工作表.40</title>
				<desc>33婆蹉種姓相應</desc>
				<rect x="0" y="734.53" width="87.1958" height="15.5344" class="st1"/>
				<text x="5.43" y="745.6" class="st2">33婆蹉種姓相應</text>			</g>
			<g id="shape41-122" transform="translate(88.2992,-219.05)">
				<title>工作表.41</title>
				<desc>外道出家</desc>
				<rect x="0" y="733.801" width="54.8614" height="16.2637" class="st1"/>
				<text x="5.43" y="745.23" class="st2">外道出家</text>			</g>
			<g id="shape42-125" transform="translate(272.551,-219.05)">
				<title>工作表.42</title>
				<desc>34無記說相應</desc>
				<rect x="0" y="734.53" width="76.1957" height="15.5344" class="st1"/>
				<text x="5.43" y="745.6" class="st2">34無記說相應</text>			</g>
			<g id="shape43-128" transform="translate(88.2992,-187.629)">
				<title>工作表.43</title>
				<desc>雜</desc>
				<rect x="0" y="733.801" width="21.8612" height="16.2637" class="st1"/>
				<text x="5.43" y="745.23" class="st2">雜</text>			</g>
			<g id="shape44-131" transform="translate(272.551,-198.626)">
				<title>工作表.44</title>
				<desc>17利得供養相應</desc>
				<rect x="0" y="734.53" width="87.1958" height="15.5344" class="st1"/>
				<text x="5.43" y="745.6" class="st2">17利得供養相應</text>			</g>
			<g id="shape45-134" transform="translate(272.551,-178.203)">
				<title>工作表.45</title>
				<desc>20譬喻相應</desc>
				<rect x="0" y="734.53" width="65.1957" height="15.5344" class="st1"/>
				<text x="5.43" y="745.6" class="st2">20譬喻相應</text>			</g>
			<g id="shape46-137" transform="translate(88.2992,-156.209)">
				<title>工作表.46</title>
				<desc>病</desc>
				<rect x="0" y="733.801" width="21.8612" height="16.2637" class="st1"/>
				<text x="5.43" y="745.23" class="st2">病</text>			</g>
			<g id="shape47-140" transform="translate(88.2992,-135.932)">
				<title>工作表.47</title>
				<desc>法</desc>
				<rect x="0" y="733.801" width="21.8612" height="16.2637" class="st1"/>
				<text x="5.43" y="745.23" class="st2">法</text>			</g>
			<g id="shape48-143" transform="translate(-1.59872E-14,-269.781)">
				<title>工作表.48</title>
				<desc>道</desc>
				<rect x="0" y="735.786" width="21.8612" height="14.2784" class="st1"/>
				<text x="5.43" y="746.23" class="st2">道</text>			</g>
			<g id="shape49-146" transform="translate(272.551,-116.961)">
				<title>工作表.49</title>
				<desc>18羅睺羅相應</desc>
				<rect x="0" y="734.53" width="76.1957" height="15.5344" class="st1"/>
				<text x="5.43" y="745.6" class="st2">18羅睺羅相應</text>			</g>
			<g id="shape50-149" transform="translate(272.551,-98.1141)">
				<title>工作表.50</title>
				<desc>21比丘相應</desc>
				<rect x="0" y="734.53" width="65.1957" height="15.5344" class="st1"/>
				<text x="5.43" y="745.6" class="st2">21比丘相應</text>			</g>
			<g id="shape51-152" transform="translate(272.551,-78.4913)">
				<title>工作表.51</title>
				<desc>29龍相應</desc>
				<rect x="0" y="734.53" width="54.1956" height="15.5344" class="st1"/>
				<text x="5.43" y="745.6" class="st2">29龍相應</text>			</g>
			<g id="shape52-155" transform="translate(272.551,-58.8684)">
				<title>工作表.52</title>
				<desc>30金翅鳥相應</desc>
				<rect x="0" y="734.53" width="76.1957" height="15.5344" class="st1"/>
				<text x="5.43" y="745.6" class="st2">30金翅鳥相應</text>			</g>
			<g id="shape53-158" transform="translate(272.551,-39.2456)">
				<title>工作表.53</title>
				<desc>31犍闥婆相應</desc>
				<rect x="0" y="734.53" width="76.1957" height="15.5344" class="st1"/>
				<text x="5.43" y="745.6" class="st2">31犍闥婆相應</text>			</g>
			<g id="shape54-161" transform="translate(272.551,-19.6228)">
				<title>工作表.54</title>
				<desc>37女人相應</desc>
				<rect x="0" y="734.53" width="65.1957" height="15.5344" class="st1"/>
				<text x="5.43" y="745.6" class="st2">37女人相應</text>			</g>
			<g id="shape55-164" transform="translate(272.551,0)">
				<title>工作表.55</title>
				<desc>53禪相應</desc>
				<rect x="0" y="734.53" width="54.1956" height="15.5344" class="st1"/>
				<text x="5.43" y="745.6" class="st2">53禪相應</text>			</g>
			<g id="shape56-167" transform="translate(23.1208,-702.117)">
				<title>工作表.56</title>
				<path d="M0 750.06 L9.9 750.06" class="st3"/>
			</g>
			<g id="shape57-170" transform="translate(183.26,798.011) rotate(180)">
				<title>工作表.57</title>
				<path d="M0 750.06 L6.65 750.06" class="st3"/>
			</g>
			<g id="shape58-173" transform="translate(23.1208,-702.117)">
				<title>工作表.58</title>
				<path d="M0 750.06 L9.9 750.06 L65.18 730.22" class="st4"/>
			</g>
			<g id="shape60-176" transform="translate(33.0236,-682.275)">
				<title>工作表.60</title>
				<path d="M55.28 750.06 L0 730.22 L55.28 730.22" class="st4"/>
			</g>
			<g id="shape61-179" transform="translate(123.42,-721.96)">
				<title>工作表.61</title>
				<path d="M0 750.06 L149.13 750.06" class="st4"/>
			</g>
			<g id="shape62-182" transform="translate(111.42,-702.117)">
				<title>工作表.62</title>
				<path d="M0 750.06 L161.13 750.06" class="st4"/>
			</g>
			<g id="shape63-185" transform="translate(135.42,-642.59)">
				<title>工作表.63</title>
				<path d="M0 750.06 L73.35 750.06 L137.13 730.22" class="st4"/>
			</g>
			<g id="shape64-188" transform="translate(208.772,-619.913)">
				<title>工作表.64</title>
				<path d="M63.78 750.06 L0 727.39 L63.78 727.39" class="st4"/>
			</g>
			<g id="shape65-191" transform="translate(135.42,-591.566)">
				<title>工作表.65</title>
				<path d="M0 750.06 L73.35 750.06 L137.13 738.73" class="st4"/>
			</g>
			<g id="shape66-194" transform="translate(340.058,-579.987) rotate(10.0806)">
				<title>工作表.66</title>
				<path d="M0 750.06 L64.78 750.06" class="st4"/>
			</g>
			<g id="shape67-197" transform="translate(135.42,-560.385)">
				<title>工作表.67</title>
				<path d="M0 750.06 L137.13 750.06" class="st4"/>
			</g>
			<g id="shape68-200" transform="translate(123.42,-500.858)">
				<title>工作表.68</title>
				<path d="M0 750.06 L149.13 750.06" class="st4"/>
			</g>
			<g id="shape69-203" transform="translate(111.42,-424.322)">
				<title>工作表.69</title>
				<path d="M0 750.06 L97.35 750.06 L161.13 693.37" class="st4"/>
			</g>
			<g id="shape70-206" transform="translate(208.772,-424.322)">
				<title>工作表.70</title>
				<path d="M63.78 733.06 L0 750.06 L63.78 713.21" class="st4"/>
			</g>
			<g id="shape71-209" transform="translate(208.772,-404.48)">
				<title>工作表.71</title>
				<path d="M63.78 750.06 L0 730.22 L63.78 730.22" class="st4"/>
			</g>
			<g id="shape72-212" transform="translate(605.032,-311.105) rotate(31.8908)">
				<title>工作表.72</title>
				<path d="M0 750.06 L75.12 750.06" class="st4"/>
			</g>
			<g id="shape73-215" transform="translate(720.554,-222.596) rotate(43.0251)">
				<title>工作表.73</title>
				<path d="M0 750.06 L87.24 750.06" class="st4"/>
			</g>
			<g id="shape74-218" transform="translate(135.42,-347.787)">
				<title>工作表.74</title>
				<path d="M0 750.06 L137.13 750.06" class="st4"/>
			</g>
			<g id="shape75-221" transform="translate(135.42,-327.944)">
				<title>工作表.75</title>
				<path d="M0 750.06 L137.13 750.06" class="st4"/>
			</g>
			<g id="shape76-224" transform="translate(143.161,-265.582)">
				<title>工作表.76</title>
				<path d="M0 750.06 L129.39 750.06" class="st4"/>
			</g>
			<g id="shape77-227" transform="translate(143.161,-245.739)">
				<title>工作表.77</title>
				<path d="M0 750.06 L129.39 750.06" class="st4"/>
			</g>
			<g id="shape78-230" transform="translate(143.161,-225.897)">
				<title>工作表.78</title>
				<path d="M0 750.06 L129.39 750.06" class="st4"/>
			</g>
			<g id="shape79-233" transform="translate(110.16,-194.716)">
				<title>工作表.79</title>
				<path d="M0 750.06 L98.61 750.06 L162.39 738.73" class="st4"/>
			</g>
			<g id="shape80-236" transform="translate(307.903,-188.136) rotate(7.59464)">
				<title>工作表.80</title>
				<path d="M0 750.06 L64.34 750.06" class="st4"/>
			</g>
			<g id="shape83-239" transform="translate(21.8612,-276.921)">
				<title>工作表.83</title>
				<path d="M0 750.06 L19.67 750.06 L66.44 679.2" class="st4"/>
			</g>
			<g id="shape84-242" transform="translate(-511.385,-33.6932) rotate(-47.4896)">
				<title>工作表.84</title>
				<path d="M0 750.06 L69.22 750.06" class="st4"/>
			</g>
			<g id="shape85-245" transform="translate(-374.533,-150.947) rotate(-33.6901)">
				<title>工作表.85</title>
				<path d="M0 750.06 L56.21 750.06" class="st4"/>
			</g>
			<g id="shape86-248" transform="translate(-135.188,-255.806) rotate(-13.627)">
				<title>工作表.86</title>
				<path d="M0 750.06 L48.13 750.06" class="st4"/>
			</g>
			<g id="shape87-251" transform="translate(218.243,-255.806) rotate(13.627)">
				<title>工作表.87</title>
				<path d="M0 750.06 L48.13 750.06" class="st4"/>
			</g>
			<g id="shape88-254" transform="translate(457.588,-150.947) rotate(33.6901)">
				<title>工作表.88</title>
				<path d="M0 750.06 L56.21 750.06" class="st4"/>
			</g>
			<g id="shape89-257" transform="translate(41.5276,-194.716)">
				<title>工作表.89</title>
				<path d="M46.77 750.06 L0 667.86 L46.77 716.05" class="st4"/>
			</g>
			<g id="shape90-260" transform="translate(732.312,180.889) rotate(67.0679)">
				<title>工作表.90</title>
				<path d="M0 750.06 L120.04 750.06" class="st4"/>
			</g>
			<g id="shape91-263" transform="translate(-619.42,854.827) rotate(-109.344)">
				<title>工作表.91</title>
				<path d="M0 750.06 L141.2 750.06" class="st4"/>
			</g>
			<g id="shape92-266" transform="translate(770.355,419.559) rotate(114.587)">
				<title>工作表.92</title>
				<path d="M0 750.06 L127.81 750.06" class="st4"/>
			</g>
			<g id="shape93-269" transform="translate(669.535,632.588) rotate(129.203)">
				<title>工作表.93</title>
				<path d="M0 750.06 L84.13 750.06" class="st4"/>
			</g>
			<g id="shape94-272" transform="translate(492.469,821.536) rotate(147.395)">
				<title>工作表.94</title>
				<path d="M0 750.06 L63.13 750.06" class="st4"/>
			</g>
			<g id="shape95-275" transform="translate(281.465,934.286) rotate(165.076)">
				<title>工作表.95</title>
				<path d="M0 750.06 L55.03 750.06" class="st4"/>
			</g>
			<g id="shape96-278" transform="translate(8.78616,975.202) rotate(-173.915)">
				<title>工作表.96</title>
				<path d="M0 750.06 L53.48 750.06" class="st4"/>
			</g>
			<g id="shape97-281" transform="translate(-236.134,925.475) rotate(-154.371)">
				<title>工作表.97</title>
				<path d="M0 750.06 L58.98 750.06" class="st4"/>
			</g>
			<g id="shape98-284" transform="translate(-576.867,672.37) rotate(-117.525)">
				<title>工作表.98</title>
				<path d="M0 750.06 L115.07 750.06" class="st4"/>
			</g>
		</g>
	</g>
</svg>
