<?xml version="1.0" encoding="UTF-8" standalone="no"?>
<!DOCTYPE svg PUBLIC "-//W3C//DTD SVG 1.1//EN" "http://www.w3.org/Graphics/SVG/1.1/DTD/svg11.dtd">
<!-- 由 Microsoft Visio, SVG Export 產生 y35.0698.svg Page-1 -->
<svg xmlns="http://www.w3.org/2000/svg" xmlns:xlink="http://www.w3.org/1999/xlink" xmlns:ev="http://www.w3.org/2001/xml-events"
		xmlns:v="http://schemas.microsoft.com/visio/2003/SVGExtensions/" width="8.26772in" height="11.6929in"
		viewBox="0 0 595.276 841.89" xml:space="preserve" color-interpolation-filters="sRGB" class="st5">
	<v:documentProperties v:langID="1028" v:metric="true" v:viewMarkup="false">
		<v:userDefs>
			<v:ud v:nameU="msvNoAutoConnect" v:val="VT0(1):26"/>
		</v:userDefs>
	</v:documentProperties>

	<style type="text/css">
	<![CDATA[
		.st1 {fill:#ffffff;stroke:none;stroke-linecap:round;stroke-linejoin:round;stroke-width:0.75}
		.st2 {fill:#000000;font-family:新細明體;font-size:0.916672em}
		.st3 {stroke:none;stroke-linecap:round;stroke-linejoin:round;stroke-width:0.75}
		.st4 {stroke:#000000;stroke-linecap:round;stroke-linejoin:round;stroke-width:0.75}
		.st5 {fill:none;fill-rule:evenodd;font-size:12px;overflow:visible;stroke-linecap:square;stroke-miterlimit:3}
	]]>
	</style>

	<g v:mID="0" v:index="1" v:groupContext="foregroundPage">
		<title>頁-1</title>
		<v:pageProperties v:drawingScale="0.0393701" v:pageScale="0.0393701" v:drawingUnits="24" v:shadowOffsetX="8.50394"
				v:shadowOffsetY="-8.50394"/>
		<g id="shape1-1" v:mID="1" v:groupContext="shape" transform="translate(51.5244,-808.436)">
			<title>工作表.1</title>
			<desc>〔雜阿含經〕</desc>
			<v:textBlock v:margins="rect(4,4,4,4)" v:tabSpace="42.5197"/>
			<v:textRect cx="38.0173" cy="834.163" width="76.04" height="15.4538"/>
			<rect x="0" y="826.436" width="76.0346" height="15.4538" class="st1"/>
			<text x="5.02" y="837.46" class="st2" v:langID="1028"><v:paragraph v:horizAlign="1"/><v:tabList/>〔雜阿含經〕</text>		</g>
		<g id="shape2-4" v:mID="2" v:groupContext="shape" transform="translate(290.551,-808.436)">
			<title>工作表.2</title>
			<desc>〔相應部〕</desc>
			<v:textBlock v:margins="rect(4,4,4,4)" v:tabSpace="42.5197"/>
			<v:textRect cx="35.5606" cy="834.163" width="71.13" height="15.4538"/>
			<rect x="0" y="826.436" width="71.1212" height="15.4538" class="st1"/>
			<text x="8.06" y="837.46" class="st2" v:langID="1028"><v:paragraph v:horizAlign="1"/><v:tabList/>〔相應部〕</text>		</g>
		<g id="shape3-7" v:mID="3" v:groupContext="shape" transform="translate(290.551,-788.809)">
			<title>工作表.3</title>
			<desc>23羅陀相應</desc>
			<v:textBlock v:margins="rect(4,4,4,4)" v:tabSpace="42.5197"/>
			<v:textRect cx="35.1973" cy="834.163" width="70.4" height="15.4538"/>
			<rect x="0" y="826.436" width="70.3947" height="15.4538" class="st1"/>
			<text x="8.03" y="837.46" class="st2" v:langID="1028"><v:paragraph v:horizAlign="1"/><v:tabList/>23羅陀相應</text>		</g>
		<g id="shape4-10" v:mID="4" v:groupContext="shape" transform="translate(290.551,-769.181)">
			<title>工作表.4</title>
			<desc>24見相應</desc>
			<v:textBlock v:margins="rect(4,4,4,4)" v:tabSpace="42.5197"/>
			<v:textRect cx="29.1973" cy="834.163" width="58.4" height="15.4538"/>
			<rect x="0" y="826.436" width="58.3946" height="15.4538" class="st1"/>
			<text x="7.53" y="837.46" class="st2" v:langID="1028"><v:paragraph v:horizAlign="1"/><v:tabList/>24見相應</text>		</g>
		<g id="shape5-13" v:mID="5" v:groupContext="shape" transform="translate(106.299,-788.809)">
			<title>工作表.5</title>
			<desc>羅陀</desc>
			<v:textBlock v:margins="rect(4,4,4,4)" v:tabSpace="42.5197"/>
			<v:textRect cx="17.5604" cy="834.163" width="35.13" height="15.4538"/>
			<rect x="0" y="826.436" width="35.1209" height="15.4538" class="st1"/>
			<text x="6.56" y="837.46" class="st2" v:langID="1028"><v:paragraph v:horizAlign="1"/><v:tabList/>羅陀</text>		</g>
		<g id="shape6-16" v:mID="6" v:groupContext="shape" transform="translate(106.299,-769.181)">
			<title>工作表.6</title>
			<desc>見</desc>
			<v:textBlock v:margins="rect(4,4,4,4)" v:tabSpace="42.5197"/>
			<v:textRect cx="11.5604" cy="834.163" width="23.13" height="15.4538"/>
			<rect x="0" y="826.436" width="23.1208" height="15.4538" class="st1"/>
			<text x="6.06" y="837.46" class="st2" v:langID="1028"><v:paragraph v:horizAlign="1"/><v:tabList/>見</text>		</g>
		<g id="shape7-19" v:mID="7" v:groupContext="shape" transform="translate(106.299,-749.554)">
			<title>工作表.7</title>
			<desc>斷知</desc>
			<v:textBlock v:margins="rect(4,4,4,4)" v:tabSpace="42.5197"/>
			<v:textRect cx="17.5604" cy="834.163" width="35.13" height="15.4538"/>
			<rect x="0" y="826.436" width="35.1209" height="15.4538" class="st1"/>
			<text x="6.56" y="837.46" class="st2" v:langID="1028"><v:paragraph v:horizAlign="1"/><v:tabList/>斷知</text>		</g>
		<g id="shape8-22" v:mID="8" v:groupContext="shape" transform="translate(18,-769.181)">
			<title>工作表.8</title>
			<desc>蘊</desc>
			<v:textBlock v:margins="rect(4,4,4,4)" v:tabSpace="42.5197"/>
			<v:textRect cx="11.5604" cy="834.163" width="23.13" height="15.4538"/>
			<rect x="0" y="826.436" width="23.1208" height="15.4538" class="st1"/>
			<text x="6.06" y="837.46" class="st2" v:langID="1028"><v:paragraph v:horizAlign="1"/><v:tabList/>蘊</text>		</g>
		<g id="shape9-25" v:mID="9" v:groupContext="shape" transform="translate(290.551,-728.641)">
			<title>工作表.9</title>
			<desc>38閻浮車相應</desc>
			<v:textBlock v:margins="rect(4,4,4,4)" v:tabSpace="42.5197"/>
			<v:textRect cx="41.1974" cy="834.163" width="82.4" height="15.4538"/>
			<rect x="0" y="826.436" width="82.3948" height="15.4538" class="st1"/>
			<text x="8.53" y="837.46" class="st2" v:langID="1028"><v:paragraph v:horizAlign="1"/><v:tabList/>38閻浮車相應</text>		</g>
		<g id="shape10-28" v:mID="10" v:groupContext="shape" transform="translate(290.551,-708.661)">
			<title>工作表.10</title>
			<desc>39沙門出家相應</desc>
			<v:textBlock v:margins="rect(4,4,4,4)" v:tabSpace="42.5197"/>
			<v:textRect cx="47.1974" cy="834.163" width="94.4" height="15.4538"/>
			<rect x="0" y="826.436" width="94.3949" height="15.4538" class="st1"/>
			<text x="9.03" y="837.46" class="st2" v:langID="1028"><v:paragraph v:horizAlign="1"/><v:tabList/>39沙門出家相應</text>		</g>
		<g id="shape11-31" v:mID="11" v:groupContext="shape" transform="translate(290.551,-688.682)">
			<title>工作表.11</title>
			<desc>28舍利弗相應</desc>
			<v:textBlock v:margins="rect(4,4,4,4)" v:tabSpace="42.5197"/>
			<v:textRect cx="41.1974" cy="834.163" width="82.4" height="15.4538"/>
			<rect x="0" y="826.436" width="82.3948" height="15.4538" class="st1"/>
			<text x="8.53" y="837.46" class="st2" v:langID="1028"><v:paragraph v:horizAlign="1"/><v:tabList/>28舍利弗相應</text>		</g>
		<g id="shape12-34" v:mID="12" v:groupContext="shape" transform="translate(106.299,-708.661)">
			<title>工作表.12</title>
			<desc>舍利弗</desc>
			<v:textBlock v:margins="rect(4,4,4,4)" v:tabSpace="42.5197"/>
			<v:textRect cx="23.5605" cy="834.163" width="47.13" height="15.4538"/>
			<rect x="0" y="826.436" width="47.121" height="15.4538" class="st1"/>
			<text x="7.06" y="837.46" class="st2" v:langID="1028"><v:paragraph v:horizAlign="1"/><v:tabList/>舍利弗</text>		</g>
		<g id="shape13-37" v:mID="13" v:groupContext="shape" transform="translate(290.551,-668.703)">
			<title>工作表.13</title>
			<desc>40目犍連相應</desc>
			<v:textBlock v:margins="rect(4,4,4,4)" v:tabSpace="42.5197"/>
			<v:textRect cx="41.1974" cy="834.163" width="82.4" height="15.4538"/>
			<rect x="0" y="826.436" width="82.3948" height="15.4538" class="st1"/>
			<text x="8.53" y="837.46" class="st2" v:langID="1028"><v:paragraph v:horizAlign="1"/><v:tabList/>40目犍連相應</text>		</g>
		<g id="shape14-40" v:mID="14" v:groupContext="shape" transform="translate(290.551,-648.724)">
			<title>工作表.14</title>
			<desc>19勒叉那相應</desc>
			<v:textBlock v:margins="rect(4,4,4,4)" v:tabSpace="42.5197"/>
			<v:textRect cx="41.1974" cy="834.163" width="82.4" height="15.4538"/>
			<rect x="0" y="826.436" width="82.3948" height="15.4538" class="st1"/>
			<text x="8.53" y="837.46" class="st2" v:langID="1028"><v:paragraph v:horizAlign="1"/><v:tabList/>19勒叉那相應</text>		</g>
		<g id="shape15-43" v:mID="15" v:groupContext="shape" transform="translate(106.299,-659.055)">
			<title>工作表.15</title>
			<desc>目犍連</desc>
			<v:textBlock v:margins="rect(4,4,4,4)" v:tabSpace="42.5197"/>
			<v:textRect cx="23.5605" cy="834.163" width="47.13" height="15.4538"/>
			<rect x="0" y="826.436" width="47.121" height="15.4538" class="st1"/>
			<text x="7.06" y="837.46" class="st2" v:langID="1028"><v:paragraph v:horizAlign="1"/><v:tabList/>目犍連</text>		</g>
		<g id="shape16-46" v:mID="16" v:groupContext="shape" transform="translate(290.551,-628.744)">
			<title>工作表.16</title>
			<desc>52阿那律相應</desc>
			<v:textBlock v:margins="rect(4,4,4,4)" v:tabSpace="42.5197"/>
			<v:textRect cx="41.1974" cy="834.163" width="82.4" height="15.4538"/>
			<rect x="0" y="826.436" width="82.3948" height="15.4538" class="st1"/>
			<text x="8.53" y="837.46" class="st2" v:langID="1028"><v:paragraph v:horizAlign="1"/><v:tabList/>52阿那律相應</text>		</g>
		<g id="shape17-49" v:mID="17" v:groupContext="shape" transform="translate(106.299,-628.744)">
			<title>工作表.17</title>
			<desc>阿那律</desc>
			<v:textBlock v:margins="rect(4,4,4,4)" v:tabSpace="42.5197"/>
			<v:textRect cx="23.5605" cy="834.163" width="47.13" height="15.4538"/>
			<rect x="0" y="826.436" width="47.121" height="15.4538" class="st1"/>
			<text x="7.06" y="837.46" class="st2" v:langID="1028"><v:paragraph v:horizAlign="1"/><v:tabList/>阿那律</text>		</g>
		<g id="shape18-52" v:mID="18" v:groupContext="shape" transform="translate(106.299,-608.168)">
			<title>工作表.18</title>
			<desc>大迦旃延</desc>
			<v:textBlock v:margins="rect(4,4,4,4)" v:tabSpace="42.5197"/>
			<v:textRect cx="29.5605" cy="834.163" width="59.13" height="15.4538"/>
			<rect x="0" y="826.436" width="59.1211" height="15.4538" class="st1"/>
			<text x="7.56" y="837.46" class="st2" v:langID="1028"><v:paragraph v:horizAlign="1"/><v:tabList/>大迦旃延</text>		</g>
		<g id="shape19-55" v:mID="19" v:groupContext="shape" transform="translate(106.299,-587.592)">
			<title>工作表.19</title>
			<desc>阿難</desc>
			<v:textBlock v:margins="rect(4,4,4,4)" v:tabSpace="42.5197"/>
			<v:textRect cx="17.5604" cy="834.163" width="35.13" height="15.4538"/>
			<rect x="0" y="826.436" width="35.1209" height="15.4538" class="st1"/>
			<text x="6.56" y="837.46" class="st2" v:langID="1028"><v:paragraph v:horizAlign="1"/><v:tabList/>阿難</text>		</g>
		<g id="shape20-58" v:mID="20" v:groupContext="shape" transform="translate(106.299,-567.016)">
			<title>工作表.20</title>
			<desc>質多</desc>
			<v:textBlock v:margins="rect(4,4,4,4)" v:tabSpace="42.5197"/>
			<v:textRect cx="17.5604" cy="834.163" width="35.13" height="15.4538"/>
			<rect x="0" y="826.436" width="35.1209" height="15.4538" class="st1"/>
			<text x="6.56" y="837.46" class="st2" v:langID="1028"><v:paragraph v:horizAlign="1"/><v:tabList/>質多</text>		</g>
		<g id="shape21-61" v:mID="21" v:groupContext="shape" transform="translate(290.551,-567.016)">
			<title>工作表.21</title>
			<desc>41質多相應</desc>
			<v:textBlock v:margins="rect(4,4,4,4)" v:tabSpace="42.5197"/>
			<v:textRect cx="35.1973" cy="834.163" width="70.4" height="15.4538"/>
			<rect x="0" y="826.436" width="70.3947" height="15.4538" class="st1"/>
			<text x="8.03" y="837.46" class="st2" v:langID="1028"><v:paragraph v:horizAlign="1"/><v:tabList/>41質多相應</text>		</g>
		<g id="shape22-64" v:mID="22" v:groupContext="shape" transform="translate(290.551,-547.907)">
			<title>工作表.22</title>
			<desc>32雲相應</desc>
			<v:textBlock v:margins="rect(4,4,4,4)" v:tabSpace="42.5197"/>
			<v:textRect cx="29.1973" cy="834.163" width="58.4" height="15.4538"/>
			<rect x="0" y="826.436" width="58.3946" height="15.4538" class="st1"/>
			<text x="7.53" y="837.46" class="st2" v:langID="1028"><v:paragraph v:horizAlign="1"/><v:tabList/>32雲相應</text>		</g>
		<g id="shape23-67" v:mID="23" v:groupContext="shape" transform="translate(290.551,-528.799)">
			<title>工作表.23</title>
			<desc>34禪相應</desc>
			<v:textBlock v:margins="rect(4,4,4,4)" v:tabSpace="42.5197"/>
			<v:textRect cx="29.1973" cy="834.163" width="58.4" height="15.4538"/>
			<rect x="0" y="826.436" width="58.3946" height="15.4538" class="st1"/>
			<text x="7.53" y="837.46" class="st2" v:langID="1028"><v:paragraph v:horizAlign="1"/><v:tabList/>34禪相應</text>		</g>
		<g id="shape24-70" v:mID="24" v:groupContext="shape" transform="translate(290.551,-509.69)">
			<title>工作表.24</title>
			<desc>43無為相應</desc>
			<v:textBlock v:margins="rect(4,4,4,4)" v:tabSpace="42.5197"/>
			<v:textRect cx="35.1973" cy="834.163" width="70.4" height="15.4538"/>
			<rect x="0" y="826.436" width="70.3947" height="15.4538" class="st1"/>
			<text x="8.03" y="837.46" class="st2" v:langID="1028"><v:paragraph v:horizAlign="1"/><v:tabList/>43無為相應</text>		</g>
		<g id="shape25-73" v:mID="25" v:groupContext="shape" transform="translate(290.551,-490.581)">
			<title>工作表.25</title>
			<desc>13現觀相應</desc>
			<v:textBlock v:margins="rect(4,4,4,4)" v:tabSpace="42.5197"/>
			<v:textRect cx="35.1973" cy="834.163" width="70.4" height="15.4538"/>
			<rect x="0" y="826.436" width="70.3947" height="15.4538" class="st1"/>
			<text x="8.03" y="837.46" class="st2" v:langID="1028"><v:paragraph v:horizAlign="1"/><v:tabList/>13現觀相應</text>		</g>
		<g id="shape26-76" v:mID="26" v:groupContext="shape" transform="translate(290.551,-471.473)">
			<title>工作表.26</title>
			<desc>25入相應</desc>
			<v:textBlock v:margins="rect(4,4,4,4)" v:tabSpace="42.5197"/>
			<v:textRect cx="29.1973" cy="834.163" width="58.4" height="15.4538"/>
			<rect x="0" y="826.436" width="58.3946" height="15.4538" class="st1"/>
			<text x="7.53" y="837.46" class="st2" v:langID="1028"><v:paragraph v:horizAlign="1"/><v:tabList/>25入相應</text>		</g>
		<g id="shape27-79" v:mID="27" v:groupContext="shape" transform="translate(290.551,-452.364)">
			<title>工作表.27</title>
			<desc>26生相應</desc>
			<v:textBlock v:margins="rect(4,4,4,4)" v:tabSpace="42.5197"/>
			<v:textRect cx="29.1973" cy="834.163" width="58.4" height="15.4538"/>
			<rect x="0" y="826.436" width="58.3946" height="15.4538" class="st1"/>
			<text x="7.53" y="837.46" class="st2" v:langID="1028"><v:paragraph v:horizAlign="1"/><v:tabList/>26生相應</text>		</g>
		<g id="shape28-82" v:mID="28" v:groupContext="shape" transform="translate(290.551,-433.255)">
			<title>工作表.28</title>
			<desc>27煩惱相應</desc>
			<v:textBlock v:margins="rect(4,4,4,4)" v:tabSpace="42.5197"/>
			<v:textRect cx="35.1973" cy="834.163" width="70.4" height="15.4538"/>
			<rect x="0" y="826.436" width="70.3947" height="15.4538" class="st1"/>
			<text x="8.03" y="837.46" class="st2" v:langID="1028"><v:paragraph v:horizAlign="1"/><v:tabList/>27煩惱相應</text>		</g>
		<g id="shape29-85" v:mID="29" v:groupContext="shape" transform="translate(106.299,-490.395)">
			<title>工作表.29</title>
			<desc>雜</desc>
			<v:textBlock v:margins="rect(4,4,4,4)" v:tabSpace="42.5197"/>
			<v:textRect cx="11.5604" cy="833.976" width="23.13" height="15.8272"/>
			<rect x="0" y="826.063" width="23.1208" height="15.8272" class="st1"/>
			<text x="6.06" y="837.28" class="st2" v:langID="1028"><v:paragraph v:horizAlign="1"/><v:tabList/>雜</text>		</g>
		<g id="shape30-88" v:mID="30" v:groupContext="shape" transform="translate(18,-593.995)">
			<title>工作表.30</title>
			<desc>因緣</desc>
			<v:textBlock v:margins="rect(4,4,4,4)" v:tabSpace="42.5197"/>
			<v:textRect cx="17.5604" cy="834.163" width="35.13" height="15.4538"/>
			<rect x="0" y="826.436" width="35.1209" height="15.4538" class="st1"/>
			<text x="6.56" y="837.46" class="st2" v:langID="1028"><v:paragraph v:horizAlign="1"/><v:tabList/>因緣</text>		</g>
		<g id="shape31-91" v:mID="31" v:groupContext="shape" transform="translate(290.551,-414.147)">
			<title>工作表.31</title>
			<desc>16迦葉相應</desc>
			<v:textBlock v:margins="rect(4,4,4,4)" v:tabSpace="42.5197"/>
			<v:textRect cx="35.1973" cy="834.163" width="70.4" height="15.4538"/>
			<rect x="0" y="826.436" width="70.3947" height="15.4538" class="st1"/>
			<text x="8.03" y="837.46" class="st2" v:langID="1028"><v:paragraph v:horizAlign="1"/><v:tabList/>16迦葉相應</text>		</g>
		<g id="shape32-94" v:mID="32" v:groupContext="shape" transform="translate(290.551,-394.957)">
			<title>工作表.32</title>
			<desc>42聚落主相應</desc>
			<v:textBlock v:margins="rect(4,4,4,4)" v:tabSpace="42.5197"/>
			<v:textRect cx="41.1974" cy="834.123" width="82.4" height="15.5344"/>
			<rect x="0" y="826.355" width="82.3948" height="15.5344" class="st1"/>
			<text x="8.53" y="837.42" class="st2" v:langID="1028"><v:paragraph v:horizAlign="1"/><v:tabList/>42聚落主相應</text>		</g>
		<g id="shape33-97" v:mID="33" v:groupContext="shape" transform="translate(106.299,-414.147)">
			<title>工作表.33</title>
			<desc>大迦葉</desc>
			<v:textBlock v:margins="rect(4,4,4,4)" v:tabSpace="42.5197"/>
			<v:textRect cx="23.5605" cy="834.163" width="47.13" height="15.4538"/>
			<rect x="0" y="826.436" width="47.121" height="15.4538" class="st1"/>
			<text x="7.06" y="837.46" class="st2" v:langID="1028"><v:paragraph v:horizAlign="1"/><v:tabList/>大迦葉</text>		</g>
		<g id="shape34-100" v:mID="34" v:groupContext="shape" transform="translate(106.299,-394.228)">
			<title>工作表.34</title>
			<desc>聚落主</desc>
			<v:textBlock v:margins="rect(4,4,4,4)" v:tabSpace="42.5197"/>
			<v:textRect cx="23.5605" cy="833.758" width="47.13" height="16.2637"/>
			<rect x="0" y="825.626" width="47.121" height="16.2637" class="st1"/>
			<text x="7.06" y="837.06" class="st2" v:langID="1028"><v:paragraph v:horizAlign="1"/><v:tabList/>聚落主</text>		</g>
		<g id="shape35-103" v:mID="35" v:groupContext="shape" transform="translate(290.551,-334.472)">
			<title>工作表.35</title>
			<desc>15無始相應</desc>
			<v:textBlock v:margins="rect(4,4,4,4)" v:tabSpace="42.5197"/>
			<v:textRect cx="32.5978" cy="834.123" width="65.2" height="15.5344"/>
			<rect x="0" y="826.355" width="65.1957" height="15.5344" class="st1"/>
			<text x="5.43" y="837.42" class="st2" v:langID="1028"><v:paragraph v:horizAlign="1"/><v:tabList/>15無始相應</text>		</g>
		<g id="shape36-106" v:mID="36" v:groupContext="shape" transform="translate(106.299,-374.31)">
			<title>工作表.36</title>
			<desc>馬</desc>
			<v:textBlock v:margins="rect(4,4,4,4)" v:tabSpace="42.5197"/>
			<v:textRect cx="10.9306" cy="833.758" width="21.87" height="16.2637"/>
			<rect x="0" y="825.626" width="21.8612" height="16.2637" class="st1"/>
			<text x="5.43" y="837.06" class="st2" v:langID="1028"><v:paragraph v:horizAlign="1"/><v:tabList/>馬</text>		</g>
		<g id="shape37-109" v:mID="37" v:groupContext="shape" transform="translate(106.299,-354.391)">
			<title>工作表.37</title>
			<desc>釋氏</desc>
			<v:textBlock v:margins="rect(4,4,4,4)" v:tabSpace="42.5197"/>
			<v:textRect cx="16.4306" cy="833.758" width="32.87" height="16.2637"/>
			<rect x="0" y="825.626" width="32.8613" height="16.2637" class="st1"/>
			<text x="5.43" y="837.06" class="st2" v:langID="1028"><v:paragraph v:horizAlign="1"/><v:tabList/>釋氏</text>		</g>
		<g id="shape38-112" v:mID="38" v:groupContext="shape" transform="translate(106.299,-334.472)">
			<title>工作表.38</title>
			<desc>生死眾多</desc>
			<v:textBlock v:margins="rect(4,4,4,4)" v:tabSpace="42.5197"/>
			<v:textRect cx="27.4307" cy="833.758" width="54.87" height="16.2637"/>
			<rect x="0" y="825.626" width="54.8614" height="16.2637" class="st1"/>
			<text x="5.43" y="837.06" class="st2" v:langID="1028"><v:paragraph v:horizAlign="1"/><v:tabList/>生死眾多</text>		</g>
		<g id="shape39-115" v:mID="39" v:groupContext="shape" transform="translate(106.299,-314.049)">
			<title>工作表.39</title>
			<desc>婆蹉出家</desc>
			<v:textBlock v:margins="rect(4,4,4,4)" v:tabSpace="42.5197"/>
			<v:textRect cx="27.4307" cy="833.758" width="54.87" height="16.2637"/>
			<rect x="0" y="825.626" width="54.8614" height="16.2637" class="st1"/>
			<text x="5.43" y="837.06" class="st2" v:langID="1028"><v:paragraph v:horizAlign="1"/><v:tabList/>婆蹉出家</text>		</g>
		<g id="shape40-118" v:mID="40" v:groupContext="shape" transform="translate(290.551,-314.049)">
			<title>工作表.40</title>
			<desc>33婆蹉種姓相應</desc>
			<v:textBlock v:margins="rect(4,4,4,4)" v:tabSpace="42.5197"/>
			<v:textRect cx="43.5979" cy="834.123" width="87.2" height="15.5344"/>
			<rect x="0" y="826.355" width="87.1958" height="15.5344" class="st1"/>
			<text x="5.43" y="837.42" class="st2" v:langID="1028"><v:paragraph v:horizAlign="1"/><v:tabList/>33婆蹉種姓相應</text>		</g>
		<g id="shape41-121" v:mID="41" v:groupContext="shape" transform="translate(106.299,-293.625)">
			<title>工作表.41</title>
			<desc>外道出家</desc>
			<v:textBlock v:margins="rect(4,4,4,4)" v:tabSpace="42.5197"/>
			<v:textRect cx="27.4307" cy="833.758" width="54.87" height="16.2637"/>
			<rect x="0" y="825.626" width="54.8614" height="16.2637" class="st1"/>
			<text x="5.43" y="837.06" class="st2" v:langID="1028"><v:paragraph v:horizAlign="1"/><v:tabList/>外道出家</text>		</g>
		<g id="shape42-124" v:mID="42" v:groupContext="shape" transform="translate(290.551,-293.625)">
			<title>工作表.42</title>
			<desc>34無記說相應</desc>
			<v:textBlock v:margins="rect(4,4,4,4)" v:tabSpace="42.5197"/>
			<v:textRect cx="38.0979" cy="834.123" width="76.2" height="15.5344"/>
			<rect x="0" y="826.355" width="76.1957" height="15.5344" class="st1"/>
			<text x="5.43" y="837.42" class="st2" v:langID="1028"><v:paragraph v:horizAlign="1"/><v:tabList/>34無記說相應</text>		</g>
		<g id="shape43-127" v:mID="43" v:groupContext="shape" transform="translate(106.299,-262.205)">
			<title>工作表.43</title>
			<desc>雜</desc>
			<v:textBlock v:margins="rect(4,4,4,4)" v:tabSpace="42.5197"/>
			<v:textRect cx="10.9306" cy="833.758" width="21.87" height="16.2637"/>
			<rect x="0" y="825.626" width="21.8612" height="16.2637" class="st1"/>
			<text x="5.43" y="837.06" class="st2" v:langID="1028"><v:paragraph v:horizAlign="1"/><v:tabList/>雜</text>		</g>
		<g id="shape44-130" v:mID="44" v:groupContext="shape" transform="translate(290.551,-273.202)">
			<title>工作表.44</title>
			<desc>17利得供養相應</desc>
			<v:textBlock v:margins="rect(4,4,4,4)" v:tabSpace="42.5197"/>
			<v:textRect cx="43.5979" cy="834.123" width="87.2" height="15.5344"/>
			<rect x="0" y="826.355" width="87.1958" height="15.5344" class="st1"/>
			<text x="5.43" y="837.42" class="st2" v:langID="1028"><v:paragraph v:horizAlign="1"/><v:tabList/>17利得供養相應</text>		</g>
		<g id="shape45-133" v:mID="45" v:groupContext="shape" transform="translate(290.551,-252.778)">
			<title>工作表.45</title>
			<desc>20譬喻相應</desc>
			<v:textBlock v:margins="rect(4,4,4,4)" v:tabSpace="42.5197"/>
			<v:textRect cx="32.5978" cy="834.123" width="65.2" height="15.5344"/>
			<rect x="0" y="826.355" width="65.1957" height="15.5344" class="st1"/>
			<text x="5.43" y="837.42" class="st2" v:langID="1028"><v:paragraph v:horizAlign="1"/><v:tabList/>20譬喻相應</text>		</g>
		<g id="shape46-136" v:mID="46" v:groupContext="shape" transform="translate(106.299,-230.784)">
			<title>工作表.46</title>
			<desc>病</desc>
			<v:textBlock v:margins="rect(4,4,4,4)" v:tabSpace="42.5197"/>
			<v:textRect cx="10.9306" cy="833.758" width="21.87" height="16.2637"/>
			<rect x="0" y="825.626" width="21.8612" height="16.2637" class="st1"/>
			<text x="5.43" y="837.06" class="st2" v:langID="1028"><v:paragraph v:horizAlign="1"/><v:tabList/>病</text>		</g>
		<g id="shape47-139" v:mID="47" v:groupContext="shape" transform="translate(106.299,-210.508)">
			<title>工作表.47</title>
			<desc>法</desc>
			<v:textBlock v:margins="rect(4,4,4,4)" v:tabSpace="42.5197"/>
			<v:textRect cx="10.9306" cy="833.758" width="21.87" height="16.2637"/>
			<rect x="0" y="825.626" width="21.8612" height="16.2637" class="st1"/>
			<text x="5.43" y="837.06" class="st2" v:langID="1028"><v:paragraph v:horizAlign="1"/><v:tabList/>法</text>		</g>
		<g id="shape48-142" v:mID="48" v:groupContext="shape" transform="translate(18,-344.357)">
			<title>工作表.48</title>
			<desc>道</desc>
			<v:textBlock v:margins="rect(4,4,4,4)" v:tabSpace="42.5197"/>
			<v:textRect cx="10.9306" cy="834.751" width="21.87" height="14.2784"/>
			<rect x="0" y="827.611" width="21.8612" height="14.2784" class="st1"/>
			<text x="5.43" y="838.05" class="st2" v:langID="1028"><v:paragraph v:horizAlign="1"/><v:tabList/>道</text>		</g>
		<g id="shape49-145" v:mID="49" v:groupContext="shape" transform="translate(290.551,-191.537)">
			<title>工作表.49</title>
			<desc>18羅睺羅相應</desc>
			<v:textBlock v:margins="rect(4,4,4,4)" v:tabSpace="42.5197"/>
			<v:textRect cx="38.0979" cy="834.123" width="76.2" height="15.5344"/>
			<rect x="0" y="826.355" width="76.1957" height="15.5344" class="st1"/>
			<text x="5.43" y="837.42" class="st2" v:langID="1028"><v:paragraph v:horizAlign="1"/><v:tabList/>18羅睺羅相應</text>		</g>
		<g id="shape50-148" v:mID="50" v:groupContext="shape" transform="translate(290.551,-172.69)">
			<title>工作表.50</title>
			<desc>21比丘相應</desc>
			<v:textBlock v:margins="rect(4,4,4,4)" v:tabSpace="42.5197"/>
			<v:textRect cx="32.5978" cy="834.123" width="65.2" height="15.5344"/>
			<rect x="0" y="826.355" width="65.1957" height="15.5344" class="st1"/>
			<text x="5.43" y="837.42" class="st2" v:langID="1028"><v:paragraph v:horizAlign="1"/><v:tabList/>21比丘相應</text>		</g>
		<g id="shape51-151" v:mID="51" v:groupContext="shape" transform="translate(290.551,-153.067)">
			<title>工作表.51</title>
			<desc>29龍相應</desc>
			<v:textBlock v:margins="rect(4,4,4,4)" v:tabSpace="42.5197"/>
			<v:textRect cx="27.0978" cy="834.123" width="54.2" height="15.5344"/>
			<rect x="0" y="826.355" width="54.1956" height="15.5344" class="st1"/>
			<text x="5.43" y="837.42" class="st2" v:langID="1028"><v:paragraph v:horizAlign="1"/><v:tabList/>29龍相應</text>		</g>
		<g id="shape52-154" v:mID="52" v:groupContext="shape" transform="translate(290.551,-133.444)">
			<title>工作表.52</title>
			<desc>30金翅鳥相應</desc>
			<v:textBlock v:margins="rect(4,4,4,4)" v:tabSpace="42.5197"/>
			<v:textRect cx="38.0979" cy="834.123" width="76.2" height="15.5344"/>
			<rect x="0" y="826.355" width="76.1957" height="15.5344" class="st1"/>
			<text x="5.43" y="837.42" class="st2" v:langID="1028"><v:paragraph v:horizAlign="1"/><v:tabList/>30金翅鳥相應</text>		</g>
		<g id="shape53-157" v:mID="53" v:groupContext="shape" transform="translate(290.551,-113.821)">
			<title>工作表.53</title>
			<desc>31犍闥婆相應</desc>
			<v:textBlock v:margins="rect(4,4,4,4)" v:tabSpace="42.5197"/>
			<v:textRect cx="38.0979" cy="834.123" width="76.2" height="15.5344"/>
			<rect x="0" y="826.355" width="76.1957" height="15.5344" class="st1"/>
			<text x="5.43" y="837.42" class="st2" v:langID="1028"><v:paragraph v:horizAlign="1"/><v:tabList/>31犍闥婆相應</text>		</g>
		<g id="shape54-160" v:mID="54" v:groupContext="shape" transform="translate(290.551,-94.1983)">
			<title>工作表.54</title>
			<desc>37女人相應</desc>
			<v:textBlock v:margins="rect(4,4,4,4)" v:tabSpace="42.5197"/>
			<v:textRect cx="32.5978" cy="834.123" width="65.2" height="15.5344"/>
			<rect x="0" y="826.355" width="65.1957" height="15.5344" class="st1"/>
			<text x="5.43" y="837.42" class="st2" v:langID="1028"><v:paragraph v:horizAlign="1"/><v:tabList/>37女人相應</text>		</g>
		<g id="shape55-163" v:mID="55" v:groupContext="shape" transform="translate(290.551,-74.5755)">
			<title>工作表.55</title>
			<desc>53禪相應</desc>
			<v:textBlock v:margins="rect(4,4,4,4)" v:tabSpace="42.5197"/>
			<v:textRect cx="27.0978" cy="834.123" width="54.2" height="15.5344"/>
			<rect x="0" y="826.355" width="54.1956" height="15.5344" class="st1"/>
			<text x="5.43" y="837.42" class="st2" v:langID="1028"><v:paragraph v:horizAlign="1"/><v:tabList/>53禪相應</text>		</g>
		<g id="shape56-166" v:mID="56" v:groupContext="shape" transform="translate(41.1208,-776.693)">
			<title>工作表.56</title>
			<path d="M0 841.89 L9.9 841.89" class="st3"/>
		</g>
		<g id="shape57-169" v:mID="57" v:groupContext="shape" transform="translate(201.26,907.087) rotate(180)">
			<title>工作表.57</title>
			<path d="M0 841.89 L6.65 841.89" class="st3"/>
		</g>
		<g id="shape58-172" v:mID="58" v:groupContext="shape" transform="translate(41.1208,-776.693)">
			<title>工作表.58</title>
			<path d="M0 841.89 L9.9 841.89 L65.18 822.05" class="st4"/>
		</g>
		<g id="shape60-175" v:mID="60" v:groupContext="shape" transform="translate(51.0236,-756.85)">
			<title>工作表.60</title>
			<path d="M55.28 841.89 L0 822.05 L55.28 822.05" class="st4"/>
		</g>
		<g id="shape61-178" v:mID="61" v:groupContext="shape" transform="translate(141.42,-796.535)">
			<title>工作表.61</title>
			<path d="M0 841.89 L149.13 841.89" class="st4"/>
		</g>
		<g id="shape62-181" v:mID="62" v:groupContext="shape" transform="translate(129.42,-776.693)">
			<title>工作表.62</title>
			<path d="M0 841.89 L161.13 841.89" class="st4"/>
		</g>
		<g id="shape63-184" v:mID="63" v:groupContext="shape" transform="translate(153.42,-717.165)">
			<title>工作表.63</title>
			<path d="M0 841.89 L73.35 841.89 L137.13 822.05" class="st4"/>
		</g>
		<g id="shape64-187" v:mID="64" v:groupContext="shape" transform="translate(226.772,-694.488)">
			<title>工作表.64</title>
			<path d="M63.78 841.89 L0 819.21 L63.78 819.21" class="st4"/>
		</g>
		<g id="shape65-190" v:mID="65" v:groupContext="shape" transform="translate(153.42,-666.142)">
			<title>工作表.65</title>
			<path d="M0 841.89 L73.35 841.89 L137.13 830.55" class="st4"/>
		</g>
		<g id="shape66-193" v:mID="66" v:groupContext="shape" transform="translate(374.13,-653.145) rotate(10.0806)">
			<title>工作表.66</title>
			<path d="M0 841.89 L64.78 841.89" class="st4"/>
		</g>
		<g id="shape67-196" v:mID="67" v:groupContext="shape" transform="translate(153.42,-634.961)">
			<title>工作表.67</title>
			<path d="M0 841.89 L137.13 841.89" class="st4"/>
		</g>
		<g id="shape68-199" v:mID="68" v:groupContext="shape" transform="translate(141.42,-575.433)">
			<title>工作表.68</title>
			<path d="M0 841.89 L149.13 841.89" class="st4"/>
		</g>
		<g id="shape69-202" v:mID="69" v:groupContext="shape" transform="translate(129.42,-498.898)">
			<title>工作表.69</title>
			<path d="M0 841.89 L97.35 841.89 L161.13 785.2" class="st4"/>
		</g>
		<g id="shape70-205" v:mID="70" v:groupContext="shape" transform="translate(226.772,-498.898)">
			<title>工作表.70</title>
			<path d="M63.78 824.88 L0 841.89 L63.78 805.04" class="st4"/>
		</g>
		<g id="shape71-208" v:mID="71" v:groupContext="shape" transform="translate(226.772,-479.055)">
			<title>工作表.71</title>
			<path d="M63.78 841.89 L0 822.05 L63.78 822.05" class="st4"/>
		</g>
		<g id="shape72-211" v:mID="72" v:groupContext="shape" transform="translate(671.544,-371.82) rotate(31.8908)">
			<title>工作表.72</title>
			<path d="M0 841.89 L75.12 841.89" class="st4"/>
		</g>
		<g id="shape73-214" v:mID="73" v:groupContext="shape" transform="translate(801.208,-272.476) rotate(43.0251)">
			<title>工作表.73</title>
			<path d="M0 841.89 L87.24 841.89" class="st4"/>
		</g>
		<g id="shape74-217" v:mID="74" v:groupContext="shape" transform="translate(153.42,-422.362)">
			<title>工作表.74</title>
			<path d="M0 841.89 L137.13 841.89" class="st4"/>
		</g>
		<g id="shape75-220" v:mID="75" v:groupContext="shape" transform="translate(153.42,-402.52)">
			<title>工作表.75</title>
			<path d="M0 841.89 L137.13 841.89" class="st4"/>
		</g>
		<g id="shape76-223" v:mID="76" v:groupContext="shape" transform="translate(161.161,-340.157)">
			<title>工作表.76</title>
			<path d="M0 841.89 L129.39 841.89" class="st4"/>
		</g>
		<g id="shape77-226" v:mID="77" v:groupContext="shape" transform="translate(161.161,-320.315)">
			<title>工作表.77</title>
			<path d="M0 841.89 L129.39 841.89" class="st4"/>
		</g>
		<g id="shape78-229" v:mID="78" v:groupContext="shape" transform="translate(161.161,-300.472)">
			<title>工作表.78</title>
			<path d="M0 841.89 L129.39 841.89" class="st4"/>
		</g>
		<g id="shape79-232" v:mID="79" v:groupContext="shape" transform="translate(128.16,-269.291)">
			<title>工作表.79</title>
			<path d="M0 841.89 L98.61 841.89 L162.39 830.55" class="st4"/>
		</g>
		<g id="shape80-235" v:mID="80" v:groupContext="shape" transform="translate(338.039,-261.906) rotate(7.59464)">
			<title>工作表.80</title>
			<path d="M0 841.89 L64.34 841.89" class="st4"/>
		</g>
		<g id="shape83-238" v:mID="83" v:groupContext="shape" transform="translate(39.8612,-351.496)">
			<title>工作表.83</title>
			<path d="M0 841.89 L19.67 841.89 L66.44 771.02" class="st4"/>
		</g>
		<g id="shape84-241" v:mID="84" v:groupContext="shape" transform="translate(-561.075,-78.4919) rotate(-47.4896)">
			<title>工作表.84</title>
			<path d="M0 841.89 L69.22 841.89" class="st4"/>
		</g>
		<g id="shape85-244" v:mID="85" v:groupContext="shape" transform="translate(-407.469,-210.101) rotate(-33.6901)">
			<title>工作表.85</title>
			<path d="M0 841.89 L56.21 841.89" class="st4"/>
		</g>
		<g id="shape86-247" v:mID="86" v:groupContext="shape" transform="translate(-138.822,-327.797) rotate(-13.627)">
			<title>工作表.86</title>
			<path d="M0 841.89 L48.13 841.89" class="st4"/>
		</g>
		<g id="shape87-250" v:mID="87" v:groupContext="shape" transform="translate(257.877,-327.797) rotate(13.627)">
			<title>工作表.87</title>
			<path d="M0 841.89 L48.13 841.89" class="st4"/>
		</g>
		<g id="shape88-253" v:mID="88" v:groupContext="shape" transform="translate(526.524,-210.101) rotate(33.6901)">
			<title>工作表.88</title>
			<path d="M0 841.89 L56.21 841.89" class="st4"/>
		</g>
		<g id="shape89-256" v:mID="89" v:groupContext="shape" transform="translate(59.5276,-269.291)">
			<title>工作表.89</title>
			<path d="M46.77 841.89 L0 759.69 L46.77 807.87" class="st4"/>
		</g>
		<g id="shape90-259" v:mID="90" v:groupContext="shape" transform="translate(834.88,162.36) rotate(67.0679)">
			<title>工作表.90</title>
			<path d="M0 841.89 L120.04 841.89" class="st4"/>
		</g>
		<g id="shape91-262" v:mID="91" v:groupContext="shape" transform="translate(-688.062,902.493) rotate(-109.344)">
			<title>工作表.91</title>
			<path d="M0 841.89 L141.2 841.89" class="st4"/>
		</g>
		<g id="shape92-265" v:mID="92" v:groupContext="shape" transform="translate(871.854,475.015) rotate(114.587)">
			<title>工作表.92</title>
			<path d="M0 841.89 L127.81 841.89" class="st4"/>
		</g>
		<g id="shape93-268" v:mID="93" v:groupContext="shape" transform="translate(758.692,707.878) rotate(129.203)">
			<title>工作表.93</title>
			<path d="M0 841.89 L84.13 841.89" class="st4"/>
		</g>
		<g id="shape94-271" v:mID="94" v:groupContext="shape" transform="translate(559.949,916.14) rotate(147.395)">
			<title>工作表.94</title>
			<path d="M0 841.89 L63.13 841.89" class="st4"/>
		</g>
		<g id="shape95-274" v:mID="95" v:groupContext="shape" transform="translate(323.113,1040.26) rotate(165.076)">
			<title>工作表.95</title>
			<path d="M0 841.89 L55.03 841.89" class="st4"/>
		</g>
		<g id="shape96-277" v:mID="96" v:groupContext="shape" transform="translate(17.0519,1083.76) rotate(-173.915)">
			<title>工作表.96</title>
			<path d="M0 841.89 L53.48 841.89" class="st4"/>
		</g>
		<g id="shape97-280" v:mID="97" v:groupContext="shape" transform="translate(-257.853,1025.52) rotate(-154.371)">
			<title>工作表.97</title>
			<path d="M0 841.89 L58.98 841.89" class="st4"/>
		</g>
		<g id="shape98-283" v:mID="98" v:groupContext="shape" transform="translate(-640.299,732.055) rotate(-117.525)">
			<title>工作表.98</title>
			<path d="M0 841.89 L115.07 841.89" class="st4"/>
		</g>
	</g>
</svg>
