<?xml version="1.0" encoding="UTF-8" standalone="no"?>
<!DOCTYPE svg PUBLIC "-//W3C//DTD SVG 1.0//EN" "http://www.w3.org/TR/2001/REC-SVG-20010904/DTD/svg10.dtd">
<!-- 由 Microsoft Visio 11.0, SVG Export, v1.0 產生 y43.0059.svg Page-1 -->
<svg xmlns="http://www.w3.org/2000/svg" xmlns:xlink="http://www.w3.org/1999/xlink" xmlns:ev="http://www.w3.org/2001/xml-events"
		xmlns:v="http://schemas.microsoft.com/visio/2003/SVGExtensions/" width="11.1577in" height="3.67738in"
		viewBox="0 0 803.354 264.772" xml:space="preserve" color-interpolation-filters="sRGB" class="st6">
	<v:documentProperties v:langID="1028" v:metric="true" v:viewMarkup="false">
		<v:userDefs>
			<v:ud v:nameU="msvSubprocessMaster" v:prompt="" v:val="VT4(Box)"/>
			<v:ud v:nameU="msvNoAutoConnect" v:val="VT0(1):26"/>
		</v:userDefs>
	</v:documentProperties>

	<style type="text/css">
	<![CDATA[
		.st1 {fill:none;stroke:none;stroke-linecap:round;stroke-linejoin:round;stroke-width:0.75}
		.st2 {fill:#000000;font-family:新細明體;font-size:1.33333em}
		.st3 {stroke:#000000;stroke-linecap:round;stroke-linejoin:round;stroke-width:1}
		.st4 {font-size:1em}
		.st5 {stroke:#ffffff;stroke-linecap:round;stroke-linejoin:round;stroke-opacity:0;stroke-width:1}
		.st6 {fill:none;fill-rule:evenodd;font-size:12px;overflow:visible;stroke-linecap:square;stroke-miterlimit:3}
	]]>
	</style>

	<g v:mID="0" v:index="1" v:groupContext="foregroundPage">
		<title>頁-1</title>
		<v:pageProperties v:drawingScale="0.0393701" v:pageScale="0.0393701" v:drawingUnits="24" v:shadowOffsetX="8.50394"
				v:shadowOffsetY="-8.50394"/>
		<g id="group66-1" transform="translate(519.583,245.772) rotate(-90)" v:mID="66" v:groupContext="group">
			<title>工作表.66</title>
			<g id="shape1-2" v:mID="1" v:groupContext="shape" transform="translate(389.496,-475.071) rotate(90)">
				<title>工作表.1</title>
				<desc>法華經卷一</desc>
				<v:textBlock v:margins="rect(4,4,4,4)" v:tabSpace="42.5197"/>
				<v:textRect cx="45.3543" cy="219.417" width="90.71" height="90.7087"/>
				<rect x="0" y="174.063" width="90.7087" height="90.7087" class="st1"/>
				<text x="5.35" y="224.22" class="st2" v:langID="1028"><v:paragraph v:horizAlign="1"/><v:tabList/>法華經卷一</text>			</g>
			<g id="shape2-5" v:mID="2" v:groupContext="shape" transform="translate(413.591,-387.197) rotate(90)">
				<title>工作表.2</title>
				<desc>相</desc>
				<v:textBlock v:margins="rect(4,4,4,4)" v:tabSpace="42.5197"/>
				<v:textRect cx="21.2598" cy="243.512" width="42.52" height="42.5197"/>
				<rect x="0" y="222.252" width="42.5197" height="42.5197" class="st1"/>
				<text x="5.26" y="248.31" class="st2" v:langID="1028"><v:paragraph v:horizAlign="1"/><v:tabList/>１相</text>			</g>
			<g id="shape3-8" v:mID="3" v:groupContext="shape" transform="translate(413.591,-343.26) rotate(90)">
				<title>工作表.3</title>
				<desc>性</desc>
				<v:textBlock v:margins="rect(4,4,4,4)" v:tabSpace="42.5197"/>
				<v:textRect cx="21.2598" cy="243.512" width="42.52" height="42.5197"/>
				<rect x="0" y="222.252" width="42.5197" height="42.5197" class="st1"/>
				<text x="5.26" y="248.31" class="st2" v:langID="1028"><v:paragraph v:horizAlign="1"/><v:tabList/>２性</text>			</g>
			<g id="shape4-11" v:mID="4" v:groupContext="shape" transform="translate(413.591,-302.157) rotate(90)">
				<title>工作表.4</title>
				<desc>體</desc>
				<v:textBlock v:margins="rect(4,4,4,4)" v:tabSpace="42.5197"/>
				<v:textRect cx="21.2598" cy="243.512" width="42.52" height="42.5197"/>
				<rect x="0" y="222.252" width="42.5197" height="42.5197" class="st1"/>
				<text x="5.26" y="248.31" class="st2" v:langID="1028"><v:paragraph v:horizAlign="1"/><v:tabList/>３體</text>			</g>
			<g id="shape5-14" v:mID="5" v:groupContext="shape" transform="translate(413.591,-259.638) rotate(90)">
				<title>工作表.5</title>
				<desc>力</desc>
				<v:textBlock v:margins="rect(4,4,4,4)" v:tabSpace="42.5197"/>
				<v:textRect cx="21.2598" cy="243.512" width="42.52" height="42.5197"/>
				<rect x="0" y="222.252" width="42.5197" height="42.5197" class="st1"/>
				<text x="5.26" y="248.31" class="st2" v:langID="1028"><v:paragraph v:horizAlign="1"/><v:tabList/>４力</text>			</g>
			<g id="shape6-17" v:mID="6" v:groupContext="shape" transform="translate(413.591,-217.118) rotate(90)">
				<title>工作表.6</title>
				<desc>作</desc>
				<v:textBlock v:margins="rect(4,4,4,4)" v:tabSpace="42.5197"/>
				<v:textRect cx="21.2598" cy="243.512" width="42.52" height="42.5197"/>
				<rect x="0" y="222.252" width="42.5197" height="42.5197" class="st1"/>
				<text x="5.26" y="248.31" class="st2" v:langID="1028"><v:paragraph v:horizAlign="1"/><v:tabList/>５作</text>			</g>
			<g id="shape7-20" v:mID="7" v:groupContext="shape" transform="translate(415.008,-160.425) rotate(90)">
				<title>工作表.7</title>
				<desc>因</desc>
				<v:textBlock v:margins="rect(4,4,4,4)" v:tabSpace="42.5197"/>
				<v:textRect cx="21.2598" cy="243.512" width="42.52" height="42.5197"/>
				<rect x="0" y="222.252" width="42.5197" height="42.5197" class="st1"/>
				<text x="5.26" y="248.31" class="st2" v:langID="1028"><v:paragraph v:horizAlign="1"/><v:tabList/>６因</text>			</g>
			<g id="shape8-23" v:mID="8" v:groupContext="shape" transform="translate(413.591,-117.906) rotate(90)">
				<title>工作表.8</title>
				<desc>緣</desc>
				<v:textBlock v:margins="rect(4,4,4,4)" v:tabSpace="42.5197"/>
				<v:textRect cx="21.2598" cy="243.512" width="42.52" height="42.5197"/>
				<rect x="0" y="222.252" width="42.5197" height="42.5197" class="st1"/>
				<text x="5.26" y="248.31" class="st2" v:langID="1028"><v:paragraph v:horizAlign="1"/><v:tabList/>７緣</text>			</g>
			<g id="shape9-26" v:mID="9" v:groupContext="shape" transform="translate(413.591,-75.3858) rotate(90)">
				<title>工作表.9</title>
				<desc>果</desc>
				<v:textBlock v:margins="rect(4,4,4,4)" v:tabSpace="42.5197"/>
				<v:textRect cx="21.2598" cy="243.512" width="42.52" height="42.5197"/>
				<rect x="0" y="222.252" width="42.5197" height="42.5197" class="st1"/>
				<text x="5.26" y="248.31" class="st2" v:langID="1028"><v:paragraph v:horizAlign="1"/><v:tabList/>８果</text>			</g>
			<g id="shape10-29" v:mID="10" v:groupContext="shape" transform="translate(415.008,-32.8661) rotate(90)">
				<title>工作表.10</title>
				<desc>報</desc>
				<v:textBlock v:margins="rect(4,4,4,4)" v:tabSpace="42.5197"/>
				<v:textRect cx="21.2598" cy="243.512" width="42.52" height="42.5197"/>
				<rect x="0" y="222.252" width="42.5197" height="42.5197" class="st1"/>
				<text x="5.26" y="248.31" class="st2" v:langID="1028"><v:paragraph v:horizAlign="1"/><v:tabList/>９報</text>			</g>
			<g id="shape11-32" v:mID="11" v:groupContext="shape" transform="translate(398,29.4961) rotate(90)">
				<title>工作表.11</title>
				<desc>本末究竟</desc>
				<v:textBlock v:margins="rect(4,4,4,4)" v:tabSpace="42.5197"/>
				<v:textRect cx="36.8504" cy="227.921" width="73.71" height="73.7008"/>
				<rect x="0" y="191.071" width="73.7008" height="73.7008" class="st1"/>
				<text x="4.85" y="232.72" class="st2" v:langID="1028"><v:paragraph v:horizAlign="1"/><v:tabList/>本末究竟</text>			</g>
			<g id="shape38-35" v:mID="38" v:groupContext="shape" transform="translate(413.591,5.40157) rotate(90)">
				<title>工作表.38</title>
				<desc>10</desc>
				<v:textBlock v:margins="rect(4,4,4,4)" v:tabSpace="42.5197"/>
				<v:textRect cx="21.2598" cy="243.512" width="42.52" height="42.5197"/>
				<rect x="0" y="222.252" width="42.5197" height="42.5197" class="st1"/>
				<text x="13.74" y="248.31" class="st2" v:langID="1028"><v:paragraph v:horizAlign="1"/><v:tabList/>10</text>			</g>
			<g id="shape39-38" v:mID="39" v:groupContext="shape" transform="translate(373.906,158.472) rotate(90)">
				<title>工作表.39</title>
				<v:textBlock v:margins="rect(4,4,4,4)" v:tabSpace="42.5197"/>
				<v:textRect cx="21.2598" cy="243.512" width="42.52" height="42.5197"/>
				<rect x="0" y="222.252" width="42.5197" height="42.5197" class="st1"/>
				<text x="13.26" y="248.31" class="st2" v:langID="1028"><v:paragraph v:horizAlign="1"/><v:tabList/>９</text>			</g>
			<g id="shape40-41" v:mID="40" v:groupContext="shape" transform="translate(454.693,-472.236) rotate(90)">
				<title>工作表.40</title>
				<path d="M0 264.77 L700.16 264.77" class="st3"/>
			</g>
			<g id="shape42-44" v:mID="42" v:groupContext="shape" transform="translate(150.236,-297.638)">
				<title>工作表.42</title>
				<path d="M0 264.77 L39.69 264.77" class="st3"/>
			</g>
			<g id="shape43-47" v:mID="43" v:groupContext="shape" transform="translate(415.008,-472.236) rotate(90)">
				<title>工作表.43</title>
				<path d="M0 264.77 L700.16 264.77" class="st3"/>
			</g>
			<g id="shape30-50" v:mID="30" v:groupContext="shape" transform="translate(270.441,-475.071) rotate(90)">
				<title>工作表.30</title>
				<desc>智論卷廿七</desc>
				<v:textBlock v:margins="rect(4,4,4,4)" v:tabSpace="42.5197"/>
				<v:textRect cx="45.3543" cy="219.417" width="90.71" height="90.7087"/>
				<rect x="0" y="174.063" width="90.7087" height="90.7087" class="st1"/>
				<text x="5.35" y="224.22" class="st2" v:langID="1028"><v:paragraph v:horizAlign="1"/><v:tabList/>智論卷廿七</text>			</g>
			<g id="shape31-53" v:mID="31" v:groupContext="shape" transform="translate(294.535,-387.197) rotate(90)">
				<title>工作表.31</title>
				<desc>相</desc>
				<v:textBlock v:margins="rect(4,4,4,4)" v:tabSpace="42.5197"/>
				<v:textRect cx="21.2598" cy="243.512" width="42.52" height="42.5197"/>
				<rect x="0" y="222.252" width="42.5197" height="42.5197" class="st1"/>
				<text x="5.26" y="248.31" class="st2" v:langID="1028"><v:paragraph v:horizAlign="1"/><v:tabList/>１相</text>			</g>
			<g id="shape32-56" v:mID="32" v:groupContext="shape" transform="translate(294.535,-343.26) rotate(90)">
				<title>工作表.32</title>
				<desc>性</desc>
				<v:textBlock v:margins="rect(4,4,4,4)" v:tabSpace="42.5197"/>
				<v:textRect cx="21.2598" cy="243.512" width="42.52" height="42.5197"/>
				<rect x="0" y="222.252" width="42.5197" height="42.5197" class="st1"/>
				<text x="5.26" y="248.31" class="st2" v:langID="1028"><v:paragraph v:horizAlign="1"/><v:tabList/>５性</text>			</g>
			<g id="shape33-59" v:mID="33" v:groupContext="shape" transform="translate(294.535,-259.638) rotate(90)">
				<title>工作表.33</title>
				<desc>力</desc>
				<v:textBlock v:margins="rect(4,4,4,4)" v:tabSpace="42.5197"/>
				<v:textRect cx="21.2598" cy="243.512" width="42.52" height="42.5197"/>
				<rect x="0" y="222.252" width="42.5197" height="42.5197" class="st1"/>
				<text x="5.26" y="248.31" class="st2" v:langID="1028"><v:paragraph v:horizAlign="1"/><v:tabList/>２力</text>			</g>
			<g id="shape34-62" v:mID="34" v:groupContext="shape" transform="translate(287.449,-147.669) rotate(90)">
				<title>工作表.34</title>
				<desc>因緣</desc>
				<v:textBlock v:margins="rect(4,4,4,4)" v:tabSpace="42.5197"/>
				<v:textRect cx="28.3465" cy="236.425" width="56.7" height="56.6929"/>
				<rect x="0" y="208.079" width="56.6929" height="56.6929" class="st1"/>
				<text x="4.35" y="241.23" class="st2" v:langID="1028"><v:paragraph v:horizAlign="1"/><v:tabList/>３因緣</text>			</g>
			<g id="shape35-65" v:mID="35" v:groupContext="shape" transform="translate(287.449,-61.2126) rotate(90)">
				<title>工作表.35</title>
				<desc>果報</desc>
				<v:textBlock v:margins="rect(4,4,4,4)" v:tabSpace="42.5197"/>
				<v:textRect cx="28.3465" cy="236.425" width="56.7" height="56.6929"/>
				<rect x="0" y="208.079" width="56.6929" height="56.6929" class="st1"/>
				<text x="4.35" y="241.23" class="st2" v:langID="1028"><v:paragraph v:horizAlign="1"/><v:tabList/>４果報</text>			</g>
			<g id="shape36-68" v:mID="36" v:groupContext="shape" transform="translate(294.535,12.4882) rotate(90)">
				<title>工作表.36</title>
				<desc>得</desc>
				<v:textBlock v:margins="rect(4,4,4,4)" v:tabSpace="42.5197"/>
				<v:textRect cx="21.2598" cy="243.512" width="42.52" height="42.5197"/>
				<rect x="0" y="222.252" width="42.5197" height="42.5197" class="st1"/>
				<text x="5.26" y="248.31" class="st2" v:langID="1028"><v:paragraph v:horizAlign="1"/><v:tabList/>６得</text>			</g>
			<g id="shape37-71" v:mID="37" v:groupContext="shape" transform="translate(294.535,52.1732) rotate(90)">
				<title>工作表.37</title>
				<desc>失</desc>
				<v:textBlock v:margins="rect(4,4,4,4)" v:tabSpace="42.5197"/>
				<v:textRect cx="21.2598" cy="243.512" width="42.52" height="42.5197"/>
				<rect x="0" y="222.252" width="42.5197" height="42.5197" class="st1"/>
				<text x="5.26" y="248.31" class="st2" v:langID="1028"><v:paragraph v:horizAlign="1"/><v:tabList/>７失</text>			</g>
			<g id="shape21-74" v:mID="21" v:groupContext="shape" transform="translate(310.126,-475.071) rotate(90)">
				<title>工作表.21</title>
				<desc>智論卷卅三</desc>
				<v:textBlock v:margins="rect(4,4,4,4)" v:tabSpace="42.5197"/>
				<v:textRect cx="45.3543" cy="219.417" width="90.71" height="90.7087"/>
				<rect x="0" y="174.063" width="90.7087" height="90.7087" class="st1"/>
				<text x="5.35" y="224.22" class="st2" v:langID="1028"><v:paragraph v:horizAlign="1"/><v:tabList/>智論卷卅三</text>			</g>
			<g id="shape23-77" v:mID="23" v:groupContext="shape" transform="translate(334.22,-302.157) rotate(90)">
				<title>工作表.23</title>
				<desc>業</desc>
				<v:textBlock v:margins="rect(4,4,4,4)" v:tabSpace="42.5197"/>
				<v:textRect cx="21.2598" cy="243.512" width="42.52" height="42.5197"/>
				<rect x="0" y="222.252" width="42.5197" height="42.5197" class="st1"/>
				<text x="5.26" y="248.31" class="st2" v:langID="1028"><v:paragraph v:horizAlign="1"/><v:tabList/>１業</text>			</g>
			<g id="shape24-80" v:mID="24" v:groupContext="shape" transform="translate(334.22,-259.638) rotate(90)">
				<title>工作表.24</title>
				<desc>力</desc>
				<v:textBlock v:margins="rect(4,4,4,4)" v:tabSpace="42.5197"/>
				<v:textRect cx="21.2598" cy="243.512" width="42.52" height="42.5197"/>
				<rect x="0" y="222.252" width="42.5197" height="42.5197" class="st1"/>
				<text x="5.26" y="248.31" class="st2" v:langID="1028"><v:paragraph v:horizAlign="1"/><v:tabList/>２力</text>			</g>
			<g id="shape25-83" v:mID="25" v:groupContext="shape" transform="translate(327.134,-217.118) rotate(90)">
				<title>工作表.25</title>
				<desc>所作</desc>
				<v:textBlock v:margins="rect(4,4,4,4)" v:tabSpace="42.5197"/>
				<v:textRect cx="28.3465" cy="236.425" width="56.7" height="56.6929"/>
				<rect x="0" y="208.079" width="56.6929" height="56.6929" class="st1"/>
				<text x="4.35" y="241.23" class="st2" v:langID="1028"><v:paragraph v:horizAlign="1"/><v:tabList/>３所作</text>			</g>
			<g id="shape26-86" v:mID="26" v:groupContext="shape" transform="translate(334.22,-160.425) rotate(90)">
				<title>工作表.26</title>
				<desc>因</desc>
				<v:textBlock v:margins="rect(4,4,4,4)" v:tabSpace="42.5197"/>
				<v:textRect cx="21.2598" cy="243.512" width="42.52" height="42.5197"/>
				<rect x="0" y="222.252" width="42.5197" height="42.5197" class="st1"/>
				<text x="5.26" y="248.31" class="st2" v:langID="1028"><v:paragraph v:horizAlign="1"/><v:tabList/>４因</text>			</g>
			<g id="shape27-89" v:mID="27" v:groupContext="shape" transform="translate(334.22,-117.906) rotate(90)">
				<title>工作表.27</title>
				<desc>緣</desc>
				<v:textBlock v:margins="rect(4,4,4,4)" v:tabSpace="42.5197"/>
				<v:textRect cx="21.2598" cy="243.512" width="42.52" height="42.5197"/>
				<rect x="0" y="222.252" width="42.5197" height="42.5197" class="st1"/>
				<text x="5.26" y="248.31" class="st2" v:langID="1028"><v:paragraph v:horizAlign="1"/><v:tabList/>５緣</text>			</g>
			<g id="shape28-92" v:mID="28" v:groupContext="shape" transform="translate(334.22,-75.3858) rotate(90)">
				<title>工作表.28</title>
				<desc>果</desc>
				<v:textBlock v:margins="rect(4,4,4,4)" v:tabSpace="42.5197"/>
				<v:textRect cx="21.2598" cy="243.512" width="42.52" height="42.5197"/>
				<rect x="0" y="222.252" width="42.5197" height="42.5197" class="st1"/>
				<text x="5.26" y="248.31" class="st2" v:langID="1028"><v:paragraph v:horizAlign="1"/><v:tabList/>６果</text>			</g>
			<g id="shape29-95" v:mID="29" v:groupContext="shape" transform="translate(334.22,-32.8661) rotate(90)">
				<title>工作表.29</title>
				<desc>報</desc>
				<v:textBlock v:margins="rect(4,4,4,4)" v:tabSpace="42.5197"/>
				<v:textRect cx="21.2598" cy="243.512" width="42.52" height="42.5197"/>
				<rect x="0" y="222.252" width="42.5197" height="42.5197" class="st1"/>
				<text x="5.26" y="248.31" class="st2" v:langID="1028"><v:paragraph v:horizAlign="1"/><v:tabList/>７報</text>			</g>
			<g id="shape12-98" v:mID="12" v:groupContext="shape" transform="translate(349.811,-475.071) rotate(90)">
				<title>工作表.12</title>
				<desc>智論卷卅二</desc>
				<v:textBlock v:margins="rect(4,4,4,4)" v:tabSpace="42.5197"/>
				<v:textRect cx="45.3543" cy="219.417" width="90.71" height="90.7087"/>
				<rect x="0" y="174.063" width="90.7087" height="90.7087" class="st1"/>
				<text x="5.35" y="224.22" class="st2" v:langID="1028"><v:paragraph v:horizAlign="1"/><v:tabList/>智論卷卅二</text>			</g>
			<g id="shape13-101" v:mID="13" v:groupContext="shape" transform="translate(373.906,-387.197) rotate(90)">
				<title>工作表.13</title>
				<desc>法</desc>
				<v:textBlock v:margins="rect(4,4,4,4)" v:tabSpace="42.5197"/>
				<v:textRect cx="21.2598" cy="243.512" width="42.52" height="42.5197"/>
				<rect x="0" y="222.252" width="42.5197" height="42.5197" class="st1"/>
				<text x="5.26" y="248.31" class="st2" v:langID="1028"><v:paragraph v:horizAlign="1"/><v:tabList/>２法</text>			</g>
			<g id="shape14-104" v:mID="14" v:groupContext="shape" transform="translate(373.906,-343.26) rotate(90)">
				<title>工作表.14</title>
				<desc>性</desc>
				<v:textBlock v:margins="rect(4,4,4,4)" v:tabSpace="42.5197"/>
				<v:textRect cx="21.2598" cy="243.512" width="42.52" height="42.5197"/>
				<rect x="0" y="222.252" width="42.5197" height="42.5197" class="st1"/>
				<text x="5.26" y="248.31" class="st2" v:langID="1028"><v:paragraph v:horizAlign="1"/><v:tabList/>７性</text>			</g>
			<g id="shape15-107" v:mID="15" v:groupContext="shape" transform="translate(373.906,-302.157) rotate(90)">
				<title>工作表.15</title>
				<desc>體</desc>
				<v:textBlock v:margins="rect(4,4,4,4)" v:tabSpace="42.5197"/>
				<v:textRect cx="21.2598" cy="243.512" width="42.52" height="42.5197"/>
				<rect x="0" y="222.252" width="42.5197" height="42.5197" class="st1"/>
				<text x="5.26" y="248.31" class="st2" v:langID="1028"><v:paragraph v:horizAlign="1"/><v:tabList/>１體</text>			</g>
			<g id="shape16-110" v:mID="16" v:groupContext="shape" transform="translate(373.906,-259.638) rotate(90)">
				<title>工作表.16</title>
				<desc>力</desc>
				<v:textBlock v:margins="rect(4,4,4,4)" v:tabSpace="42.5197"/>
				<v:textRect cx="21.2598" cy="243.512" width="42.52" height="42.5197"/>
				<rect x="0" y="222.252" width="42.5197" height="42.5197" class="st1"/>
				<text x="5.26" y="248.31" class="st2" v:langID="1028"><v:paragraph v:horizAlign="1"/><v:tabList/>３力</text>			</g>
			<g id="shape17-113" v:mID="17" v:groupContext="shape" transform="translate(373.906,-160.425) rotate(90)">
				<title>工作表.17</title>
				<desc>因</desc>
				<v:textBlock v:margins="rect(4,4,4,4)" v:tabSpace="42.5197"/>
				<v:textRect cx="21.2598" cy="243.512" width="42.52" height="42.5197"/>
				<rect x="0" y="222.252" width="42.5197" height="42.5197" class="st1"/>
				<text x="5.26" y="248.31" class="st2" v:langID="1028"><v:paragraph v:horizAlign="1"/><v:tabList/>４因</text>			</g>
			<g id="shape18-116" v:mID="18" v:groupContext="shape" transform="translate(373.906,-117.906) rotate(90)">
				<title>工作表.18</title>
				<desc>緣</desc>
				<v:textBlock v:margins="rect(4,4,4,4)" v:tabSpace="42.5197"/>
				<v:textRect cx="21.2598" cy="243.512" width="42.52" height="42.5197"/>
				<rect x="0" y="222.252" width="42.5197" height="42.5197" class="st1"/>
				<text x="5.26" y="248.31" class="st2" v:langID="1028"><v:paragraph v:horizAlign="1"/><v:tabList/>５緣</text>			</g>
			<g id="shape19-119" v:mID="19" v:groupContext="shape" transform="translate(373.906,-54.126) rotate(90)">
				<title>工作表.19</title>
				<desc>果</desc>
				<v:textBlock v:margins="rect(4,4,4,4)" v:tabSpace="42.5197"/>
				<v:textRect cx="21.2598" cy="243.512" width="42.52" height="42.5197"/>
				<rect x="0" y="222.252" width="42.5197" height="42.5197" class="st1"/>
				<text x="5.26" y="248.31" class="st2" v:langID="1028"><v:paragraph v:horizAlign="1"/><v:tabList/>６果</text>			</g>
			<g id="shape20-122" v:mID="20" v:groupContext="shape" transform="translate(366.819,108.866) rotate(90)">
				<title>工作表.20</title>
				<desc>限礙</desc>
				<v:textBlock v:margins="rect(4,4,4,4)" v:tabSpace="42.5197"/>
				<v:textRect cx="28.3465" cy="236.425" width="56.7" height="56.6929"/>
				<rect x="0" y="208.079" width="56.6929" height="56.6929" class="st1"/>
				<text x="4.35" y="241.23" class="st2" v:langID="1028"><v:paragraph v:horizAlign="1"/><v:tabList/>８限礙</text>			</g>
			<g id="shape22-125" v:mID="22" v:groupContext="shape" transform="translate(366.819,176.898) rotate(90)">
				<title>工作表.22</title>
				<desc>開通 方便</desc>
				<v:textBlock v:margins="rect(4,4,4,4)" v:tabSpace="42.5197"/>
				<v:textRect cx="28.3465" cy="236.425" width="56.7" height="56.6929"/>
				<rect x="0" y="208.079" width="56.6929" height="56.6929" class="st1"/>
				<text x="12.35" y="231.63" class="st2" v:langID="1028"><v:paragraph v:horizAlign="1"/><v:tabList/>開通<v:newlineChar/><tspan
							x="12.35" dy="1.2em" class="st4">方便</tspan></text>			</g>
			<g id="shape47-129" v:mID="47" v:groupContext="shape" transform="translate(375.323,-472.236) rotate(90)">
				<title>工作表.47</title>
				<path d="M0 264.77 L700.16 264.77" class="st3"/>
			</g>
			<g id="shape48-132" v:mID="48" v:groupContext="shape" transform="translate(335.638,-472.236) rotate(90)">
				<title>工作表.48</title>
				<path d="M0 264.77 L700.16 264.77" class="st3"/>
			</g>
			<g id="shape49-135" v:mID="49" v:groupContext="shape" transform="translate(295.953,-472.236) rotate(90)">
				<title>工作表.49</title>
				<path d="M0 264.77 L700.16 264.77" class="st3"/>
			</g>
			<g id="shape50-138" v:mID="50" v:groupContext="shape" transform="translate(31.1811,-737.008)">
				<title>工作表.50</title>
				<path d="M0 264.77 L158.74 264.77" class="st3"/>
			</g>
			<g id="shape44-141" v:mID="44" v:groupContext="shape" transform="translate(31.1811,-481.89)">
				<title>工作表.44</title>
				<path d="M0 264.77 L158.74 264.77" class="st3"/>
			</g>
			<g id="shape45-144" v:mID="45" v:groupContext="shape" transform="translate(0,-765.354)">
				<title>工作表.45</title>
				<path d="M0 264.77 L226.77 264.77" class="st5"/>
			</g>
			<g id="shape46-147" v:mID="46" v:groupContext="shape" transform="translate(31.1811,-651.969)">
				<title>工作表.46</title>
				<path d="M0 264.77 L158.74 264.77" class="st3"/>
			</g>
			<g id="shape51-150" v:mID="51" v:groupContext="shape" transform="translate(31.1811,-566.929)">
				<title>工作表.51</title>
				<path d="M0 264.77 L158.74 264.77" class="st3"/>
			</g>
			<g id="shape52-153" v:mID="52" v:groupContext="shape" transform="translate(31.1811,-609.449)">
				<title>工作表.52</title>
				<path d="M0 264.77 L39.69 264.77" class="st3"/>
			</g>
			<g id="shape53-156" v:mID="53" v:groupContext="shape" transform="translate(110.551,-609.449)">
				<title>工作表.53</title>
				<path d="M0 264.77 L79.37 264.77" class="st3"/>
			</g>
			<g id="shape54-159" v:mID="54" v:groupContext="shape" transform="translate(31.1811,-524.409)">
				<title>工作表.54</title>
				<path d="M0 264.77 L158.74 264.77" class="st3"/>
			</g>
			<g id="shape55-162" v:mID="55" v:groupContext="shape" transform="translate(31.1811,-255.118)">
				<title>工作表.55</title>
				<path d="M0 264.77 L158.74 264.77" class="st3"/>
			</g>
			<g id="shape56-165" v:mID="56" v:groupContext="shape" transform="translate(31.1811,-424.724)">
				<title>工作表.56</title>
				<path d="M0 264.77 L158.74 264.77" class="st3"/>
			</g>
			<g id="shape57-168" v:mID="57" v:groupContext="shape" transform="translate(31.1811,-340.157)">
				<title>工作表.57</title>
				<path d="M0 264.77 L158.74 264.77" class="st3"/>
			</g>
			<g id="shape58-171" v:mID="58" v:groupContext="shape" transform="translate(70.8661,-382.677)">
				<title>工作表.58</title>
				<path d="M0 264.77 L119.06 264.77" class="st3"/>
			</g>
			<g id="shape59-174" v:mID="59" v:groupContext="shape" transform="translate(70.8661,-297.638)">
				<title>工作表.59</title>
				<path d="M0 264.77 L39.69 264.77" class="st3"/>
			</g>
			<g id="shape60-177" v:mID="60" v:groupContext="shape" transform="translate(110.551,-99.2126)">
				<title>工作表.60</title>
				<path d="M0 264.77 L39.69 264.77" class="st3"/>
			</g>
			<g id="shape61-180" v:mID="61" v:groupContext="shape">
				<title>工作表.61</title>
				<path d="M0 264.77 L226.77 264.77" class="st5"/>
			</g>
			<g id="shape62-183" v:mID="62" v:groupContext="shape" transform="translate(31.1811,-36.8504)">
				<title>工作表.62</title>
				<path d="M0 264.77 L158.74 264.77" class="st3"/>
			</g>
			<g id="shape63-186" v:mID="63" v:groupContext="shape" transform="translate(31.1811,-155.906)">
				<title>工作表.63</title>
				<path d="M0 264.77 L158.74 264.77" class="st3"/>
			</g>
			<g id="shape64-189" v:mID="64" v:groupContext="shape" transform="translate(31.1811,-212.598)">
				<title>工作表.64</title>
				<path d="M0 264.77 L39.69 264.77" class="st3"/>
			</g>
			<g id="shape65-192" v:mID="65" v:groupContext="shape" transform="translate(491.543,-500.583) rotate(90)">
				<title>工作表.65</title>
				<path d="M0 264.77 L765.35 264.77" class="st5"/>
			</g>
			<g id="shape41-195" v:mID="41" v:groupContext="shape" transform="translate(264.772,-500.583) rotate(90)">
				<title>工作表.41</title>
				<path d="M0 264.77 L765.35 264.77" class="st5"/>
			</g>
		</g>
	</g>
</svg>
