<?xml version="1.0" encoding="UTF-8" standalone="no"?>
<!DOCTYPE svg PUBLIC "-//W3C//DTD SVG 1.1//EN" "http://www.w3.org/Graphics/SVG/1.1/DTD/svg11.dtd">
<!-- 由 Microsoft Visio, SVG Export 產生 y03.0058.svg 頁-1 -->
<svg xmlns="http://www.w3.org/2000/svg" xmlns:xlink="http://www.w3.org/1999/xlink" xmlns:ev="http://www.w3.org/2001/xml-events"
		width="6.63648in" height="3.48561in" viewBox="0 0 477.826 250.964" xml:space="preserve" color-interpolation-filters="sRGB"
		class="st4">
	<style type="text/css">
	<![CDATA[
		.st1 {stroke:#000000;stroke-linecap:round;stroke-linejoin:round;stroke-width:0.72}
		.st2 {fill:none;stroke:none;stroke-linecap:round;stroke-linejoin:round;stroke-width:0.72}
		.st3 {fill:#000000;font-family:新細明體;font-size:1.33333em}
		.st4 {fill:none;fill-rule:evenodd;font-size:12px;overflow:visible;stroke-linecap:square;stroke-miterlimit:3}
	]]>
	</style>

	<g>
		<title>頁-1</title>
		<g id="group61-1" transform="translate(0.36,-1.46234)">
			<title>工作表.61</title>
			<g id="shape37-2" transform="translate(32.2441,-175.669)">
				<title>工作表.37</title>
				<path d="M0 250.96 L101.87 250.96" class="st1"/>
			</g>
			<g id="shape10-5" transform="translate(32.2441,-196.929)">
				<title>工作表.10</title>
				<path d="M0 250.96 L101.87 250.96" class="st1"/>
			</g>
			<g id="shape47-8" transform="translate(32.2441,-155.906)">
				<title>工作表.47</title>
				<path d="M0 250.96 L101.87 250.96" class="st1"/>
			</g>
			<g id="shape49-11" transform="translate(47.8346,-136.063)">
				<title>工作表.49</title>
				<path d="M0 250.96 L86.28 250.96" class="st1"/>
			</g>
			<g id="shape48-14" transform="translate(305.61,-61.7717)">
				<title>工作表.48</title>
				<desc>…………………</desc>
				<rect x="0" y="233.956" width="121.89" height="17.0079" class="st2"/>
				<text x="4.95" y="247.44" class="st3">…………………</text>			</g>
			<g id="shape39-17" transform="translate(77.4213,-92.2047)">
				<title>工作表.39</title>
				<path d="M0 231.12 L60.41 250.96" class="st1"/>
			</g>
			<g id="shape40-20" transform="translate(78.8386,-92.2047)">
				<title>工作表.40</title>
				<path d="M0 250.96 L58.11 231.12" class="st1"/>
			</g>
			<g id="shape41-23" transform="translate(134.114,431.652) rotate(180)">
				<title>工作表.41</title>
				<path d="M0 250.96 L56.69 250.96" class="st1"/>
			</g>
			<g id="shape42-26" transform="translate(32.2441,-49.685)">
				<title>工作表.42</title>
				<path d="M0 250.96 L101.87 250.96" class="st1"/>
			</g>
			<g id="shape43-29" transform="translate(32.2441,-29.8425)">
				<title>工作表.43</title>
				<path d="M0 250.96 L101.87 250.96" class="st1"/>
			</g>
			<g id="shape44-32" transform="translate(134.114,493.424) rotate(180)">
				<title>工作表.44</title>
				<path d="M0 250.96 L70.87 250.96" class="st1"/>
			</g>
			<g id="shape45-35" transform="translate(159.626,-70.2756)">
				<title>工作表.45</title>
				<path d="M0 250.96 L131.81 250.96" class="st1"/>
			</g>
			<g id="shape46-38" transform="translate(159.626,-49.685)">
				<title>工作表.46</title>
				<path d="M0 250.96 L131.81 250.96" class="st1"/>
			</g>
			<g id="shape50-41" transform="translate(159.626,-29.8425)">
				<title>工作表.50</title>
				<path d="M0 250.96 L131.81 250.96" class="st1"/>
			</g>
			<g id="shape51-44" transform="translate(159.626,-8.50394)">
				<title>工作表.51</title>
				<path d="M0 250.96 L131.81 250.96" class="st1"/>
			</g>
			<g id="shape52-47" transform="translate(313.705,-49.685)">
				<title>工作表.52</title>
				<path d="M0 250.96 L105.7 250.96" class="st1"/>
			</g>
			<g id="shape53-50" transform="translate(313.705,-29.8425)">
				<title>工作表.53</title>
				<path d="M0 250.96 L105.7 250.96" class="st1"/>
			</g>
			<g id="shape38-53" transform="translate(355.217,5.68434E-14)">
				<title>工作表.38</title>
				<desc>…………</desc>
				<rect x="0" y="233.956" width="72.2835" height="17.0079" class="st2"/>
				<text x="4.14" y="247.44" class="st3">…………</text>			</g>
			<g id="shape1-56" transform="translate(5.66929,-231.398)">
				<title>工作表.1</title>
				<desc>瓔珞本業經</desc>
				<rect x="0" y="233.956" width="92.126" height="17.0079" class="st2"/>
				<text x="6.06" y="247.26" class="st3">瓔珞本業經</text>			</g>
			<g id="shape2-59" transform="translate(134.114,-231.398)">
				<title>工作表.2</title>
				<desc>梵　網　經</desc>
				<rect x="0" y="233.956" width="92.126" height="17.0079" class="st2"/>
				<text x="6.06" y="247.26" class="st3">梵　網　經</text>			</g>
			<g id="shape3-62" transform="translate(291.437,-231.398)">
				<title>工作表.3</title>
				<desc>瑜　伽　論</desc>
				<rect x="0" y="233.956" width="89.2913" height="17.0079" class="st2"/>
				<text x="4.65" y="247.26" class="st3">瑜　伽　論</text>			</g>
			<g id="shape4-65" transform="translate(420.413,-231.398)">
				<title>工作表.4</title>
				<desc>本　經</desc>
				<rect x="0" y="233.956" width="56.6929" height="17.0079" class="st2"/>
				<text x="4.35" y="247.26" class="st3">本　經</text>			</g>
			<g id="shape5-68" transform="translate(-3.19744E-14,-211.85)">
				<title>工作表.5</title>
				<desc>十不可悔戒</desc>
				<rect x="0" y="233.956" width="121.89" height="17.0079" class="st2"/>
				<text x="4.95" y="247.26" class="st3">（十不可悔戒）</text>			</g>
			<g id="shape6-71" transform="translate(126.673,-211.85)">
				<title>工作表.6</title>
				<desc>十重波羅提木叉</desc>
				<rect x="0" y="233.956" width="156.614" height="17.0079" class="st2"/>
				<text x="6.31" y="247.26" class="st3">（十重波羅提木叉）</text>			</g>
			<g id="shape7-74" transform="translate(282.579,-211.85)">
				<title>工作表.7</title>
				<desc>四他勝處法</desc>
				<rect x="0" y="233.956" width="122.598" height="17.0079" class="st2"/>
				<text x="5.3" y="247.26" class="st3">（四他勝處法）</text>			</g>
			<g id="shape8-77" transform="translate(7.44094,-188.425)">
				<title>工作表.8</title>
				<desc>殺</desc>
				<rect x="0" y="233.956" width="24.8031" height="17.0079" class="st2"/>
				<text x="4.4" y="247.26" class="st3">殺</text>			</g>
			<g id="shape9-80" transform="translate(134.823,-188.425)">
				<title>工作表.9</title>
				<desc>同</desc>
				<rect x="0" y="233.956" width="24.8031" height="17.0079" class="st2"/>
				<text x="4.4" y="247.26" class="st3">同</text>			</g>
			<g id="shape11-83" transform="translate(7.44094,-167.165)">
				<title>工作表.11</title>
				<desc>盜</desc>
				<rect x="0" y="233.956" width="24.8031" height="17.0079" class="st2"/>
				<text x="4.4" y="247.26" class="st3">盜</text>			</g>
			<g id="shape12-86" transform="translate(7.44094,-147.402)">
				<title>工作表.12</title>
				<desc>淫</desc>
				<rect x="0" y="233.956" width="24.8031" height="17.0079" class="st2"/>
				<text x="4.4" y="247.26" class="st3">淫</text>			</g>
			<g id="shape13-89" transform="translate(7.44094,-127.559)">
				<title>工作表.13</title>
				<desc>妄語</desc>
				<rect x="0" y="233.956" width="41.1024" height="17.0079" class="st2"/>
				<text x="4.55" y="247.26" class="st3">妄語</text>			</g>
			<g id="shape14-92" transform="translate(7.44094,-103.681)">
				<title>工作表.14</title>
				<desc>說菩薩罪</desc>
				<rect x="0" y="233.956" width="72.2835" height="17.0079" class="st2"/>
				<text x="4.14" y="247.26" class="st3">說菩薩罪</text>			</g>
			<g id="shape15-95" transform="translate(7.44094,-81.8307)">
				<title>工作表.15</title>
				<desc>沽　　酒</desc>
				<rect x="0" y="233.956" width="74.7638" height="17.0079" class="st2"/>
				<text x="5.38" y="247.26" class="st3">沽　　酒</text>			</g>
			<g id="shape16-98" transform="translate(7.1752,-61.7717)">
				<title>工作表.16</title>
				<desc>自讚毀他</desc>
				<rect x="0" y="233.956" width="72.815" height="17.0079" class="st2"/>
				<text x="4.41" y="247.26" class="st3">自讚毀他</text>			</g>
			<g id="shape17-101" transform="translate(7.1752,-41.1811)">
				<title>工作表.17</title>
				<desc>慳</desc>
				<rect x="0" y="233.956" width="24.8031" height="17.0079" class="st2"/>
				<text x="4.4" y="247.26" class="st3">慳</text>			</g>
			<g id="shape18-104" transform="translate(7.1752,-21.3386)">
				<title>工作表.18</title>
				<desc>瞋</desc>
				<rect x="0" y="233.956" width="24.8031" height="17.0079" class="st2"/>
				<text x="4.4" y="247.26" class="st3">瞋</text>			</g>
			<g id="shape19-107" transform="translate(7.1752,0)">
				<title>工作表.19</title>
				<desc>謗三寶</desc>
				<rect x="0" y="233.956" width="57.8445" height="17.0079" class="st2"/>
				<text x="4.92" y="247.26" class="st3">謗三寶</text>			</g>
			<g id="shape20-110" transform="translate(291.437,-21.3386)">
				<title>工作表.20</title>
				<desc>同</desc>
				<rect x="0" y="233.956" width="24.8031" height="17.0079" class="st2"/>
				<text x="4.4" y="247.26" class="st3">同</text>			</g>
			<g id="shape21-113" transform="translate(291.437,-41.1811)">
				<title>工作表.21</title>
				<desc>同</desc>
				<rect x="0" y="233.956" width="24.8031" height="17.0079" class="st2"/>
				<text x="4.4" y="247.26" class="st3">同</text>			</g>
			<g id="shape22-116" transform="translate(291.437,-61.7717)">
				<title>工作表.22</title>
				<desc>同</desc>
				<rect x="0" y="233.956" width="24.8031" height="17.0079" class="st2"/>
				<text x="4.4" y="247.26" class="st3">同</text>			</g>
			<g id="shape23-119" transform="translate(134.823,0)">
				<title>工作表.23</title>
				<desc>同</desc>
				<rect x="0" y="233.956" width="24.8031" height="17.0079" class="st2"/>
				<text x="4.4" y="247.26" class="st3">同</text>			</g>
			<g id="shape24-122" transform="translate(134.823,-21.3386)">
				<title>工作表.24</title>
				<desc>同</desc>
				<rect x="0" y="233.956" width="24.8031" height="17.0079" class="st2"/>
				<text x="4.4" y="247.26" class="st3">同</text>			</g>
			<g id="shape25-125" transform="translate(134.823,-41.1811)">
				<title>工作表.25</title>
				<desc>同</desc>
				<rect x="0" y="233.956" width="24.8031" height="17.0079" class="st2"/>
				<text x="4.4" y="247.26" class="st3">同</text>			</g>
			<g id="shape26-128" transform="translate(134.823,-61.7717)">
				<title>工作表.26</title>
				<desc>同</desc>
				<rect x="0" y="233.956" width="24.8031" height="17.0079" class="st2"/>
				<text x="4.4" y="247.26" class="st3">同</text>			</g>
			<g id="shape27-131" transform="translate(134.823,-127.559)">
				<title>工作表.27</title>
				<desc>同</desc>
				<rect x="0" y="233.956" width="24.8031" height="17.0079" class="st2"/>
				<text x="4.4" y="247.26" class="st3">同</text>			</g>
			<g id="shape28-134" transform="translate(134.823,-167.165)">
				<title>工作表.28</title>
				<desc>同</desc>
				<rect x="0" y="233.956" width="24.8031" height="17.0079" class="st2"/>
				<text x="4.4" y="247.26" class="st3">同</text>			</g>
			<g id="shape29-137" transform="translate(134.823,-147.402)">
				<title>工作表.29</title>
				<desc>同</desc>
				<rect x="0" y="233.956" width="24.8031" height="17.0079" class="st2"/>
				<text x="4.4" y="247.26" class="st3">同</text>			</g>
			<g id="shape30-140" transform="translate(135.177,-103.681)">
				<title>工作表.30</title>
				<desc>沽　　酒</desc>
				<rect x="0" y="233.956" width="72.6378" height="17.0079" class="st2"/>
				<text x="4.32" y="247.26" class="st3">沽　　酒</text>			</g>
			<g id="shape31-143" transform="translate(135.177,-81.8307)">
				<title>工作表.31</title>
				<desc>說菩薩罪</desc>
				<rect x="0" y="233.956" width="72.815" height="17.0079" class="st2"/>
				<text x="4.41" y="247.26" class="st3">說菩薩罪</text>			</g>
			<g id="shape32-146" transform="translate(291.437,0)">
				<title>工作表.32</title>
				<desc>謗菩薩藏</desc>
				<rect x="0" y="233.956" width="73.878" height="17.0079" class="st2"/>
				<text x="4.94" y="247.26" class="st3">謗菩薩藏</text>			</g>
			<g id="shape33-149" transform="translate(420.413,-41.1811)">
				<title>工作表.33</title>
				<desc>慳</desc>
				<rect x="0" y="233.956" width="24.8031" height="17.0079" class="st2"/>
				<text x="4.4" y="247.26" class="st3">慳</text>			</g>
			<g id="shape34-152" transform="translate(420.413,-61.7717)">
				<title>工作表.34</title>
				<desc>嫉</desc>
				<rect x="0" y="233.956" width="24.8031" height="17.0079" class="st2"/>
				<text x="4.4" y="247.26" class="st3">嫉</text>			</g>
			<g id="shape35-155" transform="translate(420.413,-21.3386)">
				<title>工作表.35</title>
				<desc>恚眾生</desc>
				<rect x="0" y="233.956" width="56.6929" height="17.0079" class="st2"/>
				<text x="4.35" y="247.26" class="st3">恚眾生</text>			</g>
			<g id="shape36-158" transform="translate(420.413,0)">
				<title>工作表.36</title>
				<desc>慢尊長</desc>
				<rect x="0" y="233.956" width="56.6929" height="17.0079" class="st2"/>
				<text x="4.35" y="247.26" class="st3">慢尊長</text>			</g>
		</g>
	</g>
</svg>
