<?xml version="1.0" encoding="UTF-8" standalone="no"?>
<!DOCTYPE svg PUBLIC "-//W3C//DTD SVG 1.0//EN" "http://www.w3.org/TR/2001/REC-SVG-20010904/DTD/svg10.dtd">
<!-- 由 Microsoft Visio 11.0, SVG Export, v1.0 產生 y03.0124.svg Page-1 -->
<svg xmlns="http://www.w3.org/2000/svg" xmlns:xlink="http://www.w3.org/1999/xlink" xmlns:ev="http://www.w3.org/2001/xml-events"
		xmlns:v="http://schemas.microsoft.com/visio/2003/SVGExtensions/" width="2.4885in" height="2.4896in"
		viewBox="0 0 179.172 179.251" xml:space="preserve" color-interpolation-filters="sRGB" class="st6">
	<v:documentProperties v:langID="1028" v:metric="true" v:viewMarkup="false"/>

	<style type="text/css">
	<![CDATA[
		.st1 {fill:none;stroke:none;stroke-linecap:round;stroke-linejoin:round;stroke-width:0.72}
		.st2 {fill:#000000;font-family:新細明體;font-size:1.33333em}
		.st3 {marker-start:url(#mrkr5-18);stroke:#000000;stroke-linecap:round;stroke-linejoin:round;stroke-width:1.2}
		.st4 {fill:#000000;fill-opacity:1;stroke:#000000;stroke-opacity:1;stroke-width:0.32258064516129}
		.st5 {stroke:#ffffff;stroke-linecap:round;stroke-linejoin:round;stroke-width:0.72}
		.st6 {fill:none;fill-rule:evenodd;font-size:12px;overflow:visible;stroke-linecap:square;stroke-miterlimit:3}
	]]>
	</style>

	<defs id="Markers">
		<g id="lend5">
			<path d="M 2 1 L 0 0 L 1.98117 -0.993387 C 1.67173 -0.364515 1.67301 0.372641 1.98465 1.00043 " style="stroke:none"/>
		</g>
		<marker id="mrkr5-18" class="st4" v:arrowType="5" v:arrowSize="2" v:setback="5.125" refX="5.125" orient="auto"
				markerUnits="strokeWidth" overflow="visible">
			<use xlink:href="#lend5" transform="scale(3.1) "/>
		</marker>
	</defs>
	<g v:mID="0" v:index="1" v:groupContext="foregroundPage">
		<title>Page-1</title>
		<v:pageProperties v:drawingScale="0.0393701" v:pageScale="0.0393701" v:drawingUnits="24" v:shadowOffsetX="8.50394"
				v:shadowOffsetY="-8.50394"/>
		<v:layer v:name="文字" v:index="0"/>
		<v:layer v:name="線條" v:index="1"/>
		<g id="shape1-1" v:mID="1" v:groupContext="shape" v:layerMember="0" transform="translate(18.72,-75.4917)">
			<title>工作表.1</title>
			<desc>願</desc>
			<v:textBlock v:margins="rect(4,4,4,4)" v:tabSpace="42.5197"/>
			<v:textRect cx="14.1732" cy="165.078" width="28.35" height="28.3465"/>
			<rect x="0" y="150.905" width="28.3465" height="28.3465" class="st1"/>
			<text x="6.17" y="169.88" class="st2" v:langID="1028"><v:paragraph v:horizAlign="1"/><v:tabList/>願</text>		</g>
		<g id="shape2-4" v:mID="2" v:groupContext="shape" v:layerMember="0" transform="translate(75.4129,-132.106)">
			<title>工作表.2</title>
			<desc>信</desc>
			<v:textBlock v:margins="rect(4,4,4,4)" v:tabSpace="42.5197"/>
			<v:textRect cx="14.1409" cy="165.038" width="28.29" height="28.4252"/>
			<rect x="0" y="150.826" width="28.2818" height="28.4252" class="st1"/>
			<text x="6.14" y="169.84" class="st2" v:langID="1028"><v:paragraph v:horizAlign="1"/><v:tabList/>信</text>		</g>
		<g id="shape3-7" v:mID="3" v:groupContext="shape" v:layerMember="0" transform="translate(75.4776,-18.72)">
			<title>工作表.3</title>
			<desc>行</desc>
			<v:textBlock v:margins="rect(4,4,4,4)" v:tabSpace="42.5197"/>
			<v:textRect cx="14.1409" cy="165.038" width="28.29" height="28.4252"/>
			<rect x="0" y="150.826" width="28.2818" height="28.4252" class="st1"/>
			<text x="6.14" y="169.84" class="st2" v:langID="1028"><v:paragraph v:horizAlign="1"/><v:tabList/>行</text>		</g>
		<g id="shape4-10" v:mID="4" v:groupContext="shape" v:layerMember="0" transform="translate(132.106,-75.4917)">
			<title>工作表.4</title>
			<desc>果</desc>
			<v:textBlock v:margins="rect(4,4,4,4)" v:tabSpace="42.5197"/>
			<v:textRect cx="14.1732" cy="165.241" width="28.35" height="28.0202"/>
			<rect x="0" y="151.231" width="28.3465" height="28.0202" class="st1"/>
			<text x="6.17" y="170.04" class="st2" v:langID="1028"><v:paragraph v:horizAlign="1"/><v:tabList/>果</text>		</g>
		<g id="shape5-13" v:mID="5" v:groupContext="shape" transform="translate(98.0901,-99.6649)">
			<title>工作表.5</title>
			<path d="M5.96 134.07 L6.31 134.16 A61.9313 60.0086 180 0 1 48.19 179.25" class="st3"/>
		</g>
		<g id="shape6-19" v:mID="6" v:groupContext="shape" transform="translate(-99.6649,81.0822) rotate(-90)">
			<title>工作表.6</title>
			<path d="M5.96 134.07 L6.31 134.16 A61.9313 60.0086 180 0 1 48.19 179.25" class="st3"/>
		</g>
		<g id="shape7-24" v:mID="7" v:groupContext="shape" transform="translate(278.837,98.0901) rotate(90)">
			<title>工作表.7</title>
			<path d="M6.03 133.78 L6.38 133.85 A57.3455 55.5652 180 0 1 48.19 179.25" class="st3"/>
		</g>
		<g id="shape8-29" v:mID="8" v:groupContext="shape" transform="translate(81.0822,278.837) rotate(180)">
			<title>工作表.8</title>
			<path d="M5.96 134.06 L6.31 134.15 A61.8636 59.943 180 0 1 48.19 179.25" class="st3"/>
		</g>
		<g id="group13-34" transform="translate(18.72,-18.72)" v:mID="13" v:groupContext="group">
			<title>工作表.13</title>
			<g id="shape9-35" v:mID="9" v:groupContext="shape" transform="translate(3.19744E-014,-141.811)">
				<title>工作表.9</title>
				<path d="M0 179.25 L141.73 179.25" class="st5"/>
			</g>
			<g id="shape10-38" v:mID="10" v:groupContext="shape">
				<title>工作表.10</title>
				<path d="M0 179.25 L141.73 179.25" class="st5"/>
			</g>
			<g id="shape11-41" v:mID="11" v:groupContext="shape" transform="translate(320.983,37.44) rotate(90)">
				<title>工作表.11</title>
				<path d="M0 179.25 L141.81 179.25" class="st5"/>
			</g>
			<g id="shape12-44" v:mID="12" v:groupContext="shape" transform="translate(179.251,37.44) rotate(90)">
				<title>工作表.12</title>
				<path d="M0 179.25 L141.81 179.25" class="st5"/>
			</g>
		</g>
	</g>
</svg>
