<?xml version="1.0" encoding="UTF-8" standalone="no"?>
<!DOCTYPE svg PUBLIC "-//W3C//DTD SVG 1.0//EN" "http://www.w3.org/TR/2001/REC-SVG-20010904/DTD/svg10.dtd">
<!-- 由 Microsoft Visio 11.0, SVG Export, v1.0 產生 y28.0072.svg Page-1 -->
<svg xmlns="http://www.w3.org/2000/svg" xmlns:xlink="http://www.w3.org/1999/xlink" xmlns:ev="http://www.w3.org/2001/xml-events"
		xmlns:v="http://schemas.microsoft.com/visio/2003/SVGExtensions/" width="2.0421in" height="2.0421in"
		viewBox="0 0 147.031 147.031" xml:space="preserve" color-interpolation-filters="sRGB" class="st4">
	<v:documentProperties v:langID="1028" v:metric="true" v:viewMarkup="false">
		<v:userDefs>
			<v:ud v:nameU="msvSubprocessMaster" v:prompt="" v:val="VT4(Box)"/>
			<v:ud v:nameU="msvNoAutoConnect" v:val="VT0(1):26"/>
		</v:userDefs>
	</v:documentProperties>

	<style type="text/css">
	<![CDATA[
		.st1 {fill:#d3d3ab;fill-opacity:0;stroke:#000000;stroke-linecap:round;stroke-linejoin:round;stroke-width:0.25}
		.st2 {fill:#000000;stroke:#000000;stroke-linecap:round;stroke-linejoin:round;stroke-width:0.24}
		.st3 {stroke:#000000;stroke-linecap:round;stroke-linejoin:round;stroke-opacity:0;stroke-width:0.24}
		.st4 {fill:none;fill-rule:evenodd;font-size:12px;overflow:visible;stroke-linecap:square;stroke-miterlimit:3}
	]]>
	</style>

	<g v:mID="0" v:index="1" v:groupContext="foregroundPage">
		<title>頁-1</title>
		<v:pageProperties v:drawingScale="0.0393701" v:pageScale="0.0393701" v:drawingUnits="24" v:shadowOffsetX="8.50394"
				v:shadowOffsetY="-8.50394"/>
		<g id="shape2-1" v:mID="2" v:groupContext="shape" transform="translate(28.8699,-27.4526)">
			<title>圓形</title>
			<v:userDefs>
				<v:ud v:nameU="visVersion" v:val="VT0(14):26"/>
			</v:userDefs>
			<path d="M0 100.97 A46.063 46.063 0 0 1 92.13 100.97 A46.063 46.063 0 1 1 0 100.97 Z" class="st1"/>
		</g>
		<g id="shape3-3" v:mID="3" v:groupContext="shape" transform="translate(72.0983,-119.437)">
			<title>三角形</title>
			<v:userDefs>
				<v:ud v:nameU="visVersion" v:val="VT0(14):26"/>
			</v:userDefs>
			<path d="M6.11 147.03 L2.83 141.36 L-0.44 147.03 L6.11 147.03 Z" class="st2"/>
		</g>
		<g id="shape4-5" v:mID="4" v:groupContext="shape" transform="translate(96.7105,-118.313) rotate(7)">
			<title>三角形.4</title>
			<v:userDefs>
				<v:ud v:nameU="visVersion" v:val="VT0(14):26"/>
			</v:userDefs>
			<path d="M6.11 147.03 L2.83 141.36 L-0.44 147.03 L6.11 147.03 Z" class="st2"/>
		</g>
		<g id="shape6-7" v:mID="6" v:groupContext="shape" transform="translate(128.261,-111.963) rotate(17)">
			<title>三角形.6</title>
			<v:userDefs>
				<v:ud v:nameU="visVersion" v:val="VT0(14):26"/>
			</v:userDefs>
			<path d="M6.11 147.03 L2.83 141.36 L-0.44 147.03 L6.11 147.03 Z" class="st2"/>
		</g>
		<g id="shape7-9" v:mID="7" v:groupContext="shape" transform="translate(151.422,-103.687) rotate(24)">
			<title>三角形.7</title>
			<v:userDefs>
				<v:ud v:nameU="visVersion" v:val="VT0(14):26"/>
			</v:userDefs>
			<path d="M6.11 147.03 L2.83 141.36 L-0.44 147.03 L6.11 147.03 Z" class="st2"/>
		</g>
		<g id="shape8-11" v:mID="8" v:groupContext="shape" transform="translate(43.758,-117.109) rotate(-8.5)">
			<title>三角形.8</title>
			<v:userDefs>
				<v:ud v:nameU="visVersion" v:val="VT0(14):26"/>
			</v:userDefs>
			<path d="M6.11 147.03 L2.83 141.36 L-0.44 147.03 L6.11 147.03 Z" class="st2"/>
		</g>
		<g id="shape9-13" v:mID="9" v:groupContext="shape" transform="translate(15.9236,-110.306) rotate(-17)">
			<title>三角形.9</title>
			<v:userDefs>
				<v:ud v:nameU="visVersion" v:val="VT0(14):26"/>
			</v:userDefs>
			<path d="M6.11 147.03 L2.83 141.36 L-0.44 147.03 L6.11 147.03 Z" class="st2"/>
		</g>
		<g id="shape10-15" v:mID="10" v:groupContext="shape" transform="translate(-9.48488,-100.177) rotate(-25)">
			<title>三角形.10</title>
			<v:userDefs>
				<v:ud v:nameU="visVersion" v:val="VT0(14):26"/>
			</v:userDefs>
			<path d="M6.11 147.03 L2.83 141.36 L-0.44 147.03 L6.11 147.03 Z" class="st2"/>
		</g>
		<g id="shape12-17" v:mID="12" v:groupContext="shape" transform="translate(177.773,-89.8215) rotate(33)">
			<title>三角形.12</title>
			<v:userDefs>
				<v:ud v:nameU="visVersion" v:val="VT0(14):26"/>
			</v:userDefs>
			<path d="M6.11 147.03 L2.83 141.36 L-0.44 147.03 L6.11 147.03 Z" class="st2"/>
		</g>
		<g id="shape13-19" v:mID="13" v:groupContext="shape" transform="translate(-35.2029,-85.0438) rotate(-34)">
			<title>三角形.13</title>
			<v:userDefs>
				<v:ud v:nameU="visVersion" v:val="VT0(14):26"/>
			</v:userDefs>
			<path d="M6.11 147.03 L2.83 141.36 L-0.44 147.03 L6.11 147.03 Z" class="st2"/>
		</g>
		<g id="shape14-21" v:mID="14" v:groupContext="shape" transform="translate(201.765,-72.1308) rotate(42)">
			<title>三角形.14</title>
			<v:userDefs>
				<v:ud v:nameU="visVersion" v:val="VT0(14):26"/>
			</v:userDefs>
			<path d="M6.11 147.03 L2.83 141.36 L-0.44 147.03 L6.11 147.03 Z" class="st2"/>
		</g>
		<g id="shape15-23" v:mID="15" v:groupContext="shape" transform="translate(-56.3459,-68.0748) rotate(-42)">
			<title>三角形.15</title>
			<v:userDefs>
				<v:ud v:nameU="visVersion" v:val="VT0(14):26"/>
			</v:userDefs>
			<path d="M6.11 147.03 L2.83 141.36 L-0.44 147.03 L6.11 147.03 Z" class="st2"/>
		</g>
		<g id="shape16-25" v:mID="16" v:groupContext="shape" transform="translate(222.693,-50.7523) rotate(51)">
			<title>三角形.16</title>
			<v:userDefs>
				<v:ud v:nameU="visVersion" v:val="VT0(14):26"/>
			</v:userDefs>
			<path d="M6.11 147.03 L2.83 141.36 L-0.44 147.03 L6.11 147.03 Z" class="st2"/>
		</g>
		<g id="shape17-27" v:mID="17" v:groupContext="shape" transform="translate(-76.5096,-46.1253) rotate(-51)">
			<title>三角形.17</title>
			<v:userDefs>
				<v:ud v:nameU="visVersion" v:val="VT0(14):26"/>
			</v:userDefs>
			<path d="M6.11 147.03 L2.83 141.36 L-0.44 147.03 L6.11 147.03 Z" class="st2"/>
		</g>
		<g id="shape18-29" v:mID="18" v:groupContext="shape" transform="translate(240.031,-26.5494) rotate(60)">
			<title>三角形.18</title>
			<v:userDefs>
				<v:ud v:nameU="visVersion" v:val="VT0(14):26"/>
			</v:userDefs>
			<path d="M6.11 147.03 L2.83 141.36 L-0.44 147.03 L6.11 147.03 Z" class="st2"/>
		</g>
		<g id="shape19-31" v:mID="19" v:groupContext="shape" transform="translate(-93.1545,-21.3274) rotate(-60)">
			<title>三角形.19</title>
			<v:userDefs>
				<v:ud v:nameU="visVersion" v:val="VT0(14):26"/>
			</v:userDefs>
			<path d="M6.11 147.03 L2.83 141.36 L-0.44 147.03 L6.11 147.03 Z" class="st2"/>
		</g>
		<g id="shape20-33" v:mID="20" v:groupContext="shape" transform="translate(-104.052,0.922113) rotate(-67)">
			<title>三角形.20</title>
			<v:userDefs>
				<v:ud v:nameU="visVersion" v:val="VT0(14):26"/>
			</v:userDefs>
			<path d="M6.11 147.03 L2.83 141.36 L-0.44 147.03 L6.11 147.03 Z" class="st2"/>
		</g>
		<g id="shape21-35" v:mID="21" v:groupContext="shape" transform="translate(250.396,-7.17423) rotate(66)">
			<title>三角形.21</title>
			<v:userDefs>
				<v:ud v:nameU="visVersion" v:val="VT0(14):26"/>
			</v:userDefs>
			<path d="M6.11 147.03 L2.83 141.36 L-0.44 147.03 L6.11 147.03 Z" class="st2"/>
		</g>
		<g id="shape22-37" v:mID="22" v:groupContext="shape" transform="translate(-113.641,31.793) rotate(-77)">
			<title>三角形.22</title>
			<v:userDefs>
				<v:ud v:nameU="visVersion" v:val="VT0(14):26"/>
			</v:userDefs>
			<path d="M6.11 147.03 L2.83 141.36 L-0.44 147.03 L6.11 147.03 Z" class="st2"/>
		</g>
		<g id="shape23-39" v:mID="23" v:groupContext="shape" transform="translate(260.626,20.8816) rotate(75)">
			<title>三角形.23</title>
			<v:userDefs>
				<v:ud v:nameU="visVersion" v:val="VT0(14):26"/>
			</v:userDefs>
			<path d="M6.11 147.03 L2.83 141.36 L-0.44 147.03 L6.11 147.03 Z" class="st2"/>
		</g>
		<g id="shape24-41" v:mID="24" v:groupContext="shape" transform="translate(-117.414,56.1469) rotate(-84)">
			<title>三角形.24</title>
			<v:userDefs>
				<v:ud v:nameU="visVersion" v:val="VT0(14):26"/>
			</v:userDefs>
			<path d="M6.11 147.03 L2.83 141.36 L-0.44 147.03 L6.11 147.03 Z" class="st2"/>
		</g>
		<g id="shape25-43" v:mID="25" v:groupContext="shape" transform="translate(-117.585,88.4476) rotate(-94)">
			<title>三角形.25</title>
			<v:userDefs>
				<v:ud v:nameU="visVersion" v:val="VT0(14):26"/>
			</v:userDefs>
			<path d="M6.11 147.03 L2.83 141.36 L-0.44 147.03 L6.11 147.03 Z" class="st2"/>
		</g>
		<g id="shape26-45" v:mID="26" v:groupContext="shape" transform="translate(-112.932,117.785) rotate(-103)">
			<title>三角形.26</title>
			<v:userDefs>
				<v:ud v:nameU="visVersion" v:val="VT0(14):26"/>
			</v:userDefs>
			<path d="M6.11 147.03 L2.83 141.36 L-0.44 147.03 L6.11 147.03 Z" class="st2"/>
		</g>
		<g id="shape27-47" v:mID="27" v:groupContext="shape" transform="translate(-106.655,138.828) rotate(-109)">
			<title>三角形.27</title>
			<v:userDefs>
				<v:ud v:nameU="visVersion" v:val="VT0(14):26"/>
			</v:userDefs>
			<path d="M6.11 147.03 L2.83 141.36 L-0.44 147.03 L6.11 147.03 Z" class="st2"/>
		</g>
		<g id="shape28-49" v:mID="28" v:groupContext="shape" transform="translate(-95.957,163.687) rotate(-117)">
			<title>三角形.28</title>
			<v:userDefs>
				<v:ud v:nameU="visVersion" v:val="VT0(14):26"/>
			</v:userDefs>
			<path d="M6.11 147.03 L2.83 141.36 L-0.44 147.03 L6.11 147.03 Z" class="st2"/>
		</g>
		<g id="shape29-51" v:mID="29" v:groupContext="shape" transform="translate(-80.0013,188.841) rotate(-126)">
			<title>三角形.29</title>
			<v:userDefs>
				<v:ud v:nameU="visVersion" v:val="VT0(14):26"/>
			</v:userDefs>
			<path d="M6.11 147.03 L2.83 141.36 L-0.44 147.03 L6.11 147.03 Z" class="st2"/>
		</g>
		<g id="shape30-53" v:mID="30" v:groupContext="shape" transform="translate(266.817,52.6322) rotate(85)">
			<title>三角形.30</title>
			<v:userDefs>
				<v:ud v:nameU="visVersion" v:val="VT0(14):26"/>
			</v:userDefs>
			<path d="M6.11 147.03 L2.83 141.36 L-0.44 147.03 L6.11 147.03 Z" class="st2"/>
		</g>
		<g id="shape31-55" v:mID="31" v:groupContext="shape" transform="translate(267.885,72.0983) rotate(90)">
			<title>三角形.31</title>
			<v:userDefs>
				<v:ud v:nameU="visVersion" v:val="VT0(14):26"/>
			</v:userDefs>
			<path d="M6.11 147.03 L2.83 141.36 L-0.44 147.03 L6.11 147.03 Z" class="st2"/>
		</g>
		<g id="shape32-57" v:mID="32" v:groupContext="shape" transform="translate(265.897,101.834) rotate(99)">
			<title>三角形.32</title>
			<v:userDefs>
				<v:ud v:nameU="visVersion" v:val="VT0(14):26"/>
			</v:userDefs>
			<path d="M6.11 147.03 L2.83 141.36 L-0.44 147.03 L6.11 147.03 Z" class="st2"/>
		</g>
		<g id="shape33-59" v:mID="33" v:groupContext="shape" transform="translate(258.462,133.421) rotate(109)">
			<title>三角形.33</title>
			<v:userDefs>
				<v:ud v:nameU="visVersion" v:val="VT0(14):26"/>
			</v:userDefs>
			<path d="M6.11 147.03 L2.83 141.36 L-0.44 147.03 L6.11 147.03 Z" class="st2"/>
		</g>
		<g id="shape34-61" v:mID="34" v:groupContext="shape" transform="translate(248.379,158.635) rotate(117)">
			<title>三角形.34</title>
			<v:userDefs>
				<v:ud v:nameU="visVersion" v:val="VT0(14):26"/>
			</v:userDefs>
			<path d="M6.11 147.03 L2.83 141.36 L-0.44 147.03 L6.11 147.03 Z" class="st2"/>
		</g>
		<g id="shape35-63" v:mID="35" v:groupContext="shape" transform="translate(233.199,184.232) rotate(126)">
			<title>三角形.35</title>
			<v:userDefs>
				<v:ud v:nameU="visVersion" v:val="VT0(14):26"/>
			</v:userDefs>
			<path d="M6.11 147.03 L2.83 141.36 L-0.44 147.03 L6.11 147.03 Z" class="st2"/>
		</g>
		<g id="shape36-65" v:mID="36" v:groupContext="shape" transform="translate(215.839,205.448) rotate(134)">
			<title>三角形.36</title>
			<v:userDefs>
				<v:ud v:nameU="visVersion" v:val="VT0(14):26"/>
			</v:userDefs>
			<path d="M6.11 147.03 L2.83 141.36 L-0.44 147.03 L6.11 147.03 Z" class="st2"/>
		</g>
		<g id="shape37-67" v:mID="37" v:groupContext="shape" transform="translate(195.946,223.984) rotate(142)">
			<title>三角形.37</title>
			<v:userDefs>
				<v:ud v:nameU="visVersion" v:val="VT0(14):26"/>
			</v:userDefs>
			<path d="M6.11 147.03 L2.83 141.36 L-0.44 147.03 L6.11 147.03 Z" class="st2"/>
		</g>
		<g id="shape38-69" v:mID="38" v:groupContext="shape" transform="translate(173.58,239.56) rotate(150)">
			<title>三角形.38</title>
			<v:userDefs>
				<v:ud v:nameU="visVersion" v:val="VT0(14):26"/>
			</v:userDefs>
			<path d="M6.11 147.03 L2.83 141.36 L-0.44 147.03 L6.11 147.03 Z" class="st2"/>
		</g>
		<g id="shape39-71" v:mID="39" v:groupContext="shape" transform="translate(-16.0083,243.882) rotate(-151)">
			<title>三角形.39</title>
			<v:userDefs>
				<v:ud v:nameU="visVersion" v:val="VT0(14):26"/>
			</v:userDefs>
			<path d="M6.11 147.03 L2.83 141.36 L-0.44 147.03 L6.11 147.03 Z" class="st2"/>
		</g>
		<g id="shape40-73" v:mID="40" v:groupContext="shape" transform="translate(-39.2966,229.221) rotate(-143)">
			<title>三角形.40</title>
			<v:userDefs>
				<v:ud v:nameU="visVersion" v:val="VT0(14):26"/>
			</v:userDefs>
			<path d="M6.11 147.03 L2.83 141.36 L-0.44 147.03 L6.11 147.03 Z" class="st2"/>
		</g>
		<g id="shape41-75" v:mID="41" v:groupContext="shape" transform="translate(-62.2025,209.469) rotate(-134)">
			<title>三角形.41</title>
			<v:userDefs>
				<v:ud v:nameU="visVersion" v:val="VT0(14):26"/>
			</v:userDefs>
			<path d="M6.11 147.03 L2.83 141.36 L-0.44 147.03 L6.11 147.03 Z" class="st2"/>
		</g>
		<g id="shape42-77" v:mID="42" v:groupContext="shape" transform="translate(149.334,251.736) rotate(158)">
			<title>三角形.42</title>
			<v:userDefs>
				<v:ud v:nameU="visVersion" v:val="VT0(14):26"/>
			</v:userDefs>
			<path d="M6.11 147.03 L2.83 141.36 L-0.44 147.03 L6.11 147.03 Z" class="st2"/>
		</g>
		<g id="shape43-79" v:mID="43" v:groupContext="shape" transform="translate(10.009,255.501) rotate(-159.5)">
			<title>三角形.43</title>
			<v:userDefs>
				<v:ud v:nameU="visVersion" v:val="VT0(14):26"/>
			</v:userDefs>
			<path d="M6.11 147.03 L2.83 141.36 L-0.44 147.03 L6.11 147.03 Z" class="st2"/>
		</g>
		<g id="shape44-81" v:mID="44" v:groupContext="shape" transform="translate(118.448,261.619) rotate(168)">
			<title>三角形.44</title>
			<v:userDefs>
				<v:ud v:nameU="visVersion" v:val="VT0(14):26"/>
			</v:userDefs>
			<path d="M6.11 147.03 L2.83 141.36 L-0.44 147.03 L6.11 147.03 Z" class="st2"/>
		</g>
		<g id="shape45-83" v:mID="45" v:groupContext="shape" transform="translate(36.2553,262.884) rotate(-167.5)">
			<title>三角形.45</title>
			<v:userDefs>
				<v:ud v:nameU="visVersion" v:val="VT0(14):26"/>
			</v:userDefs>
			<path d="M6.11 147.03 L2.83 141.36 L-0.44 147.03 L6.11 147.03 Z" class="st2"/>
		</g>
		<g id="shape46-85" v:mID="46" v:groupContext="shape" transform="translate(94.1138,265.683) rotate(175)">
			<title>三角形.46</title>
			<v:userDefs>
				<v:ud v:nameU="visVersion" v:val="VT0(14):26"/>
			</v:userDefs>
			<path d="M6.11 147.03 L2.83 141.36 L-0.44 147.03 L6.11 147.03 Z" class="st2"/>
		</g>
		<g id="shape47-87" v:mID="47" v:groupContext="shape" transform="translate(64.452,266.429) rotate(-176)">
			<title>三角形.47</title>
			<v:userDefs>
				<v:ud v:nameU="visVersion" v:val="VT0(14):26"/>
			</v:userDefs>
			<path d="M6.11 147.03 L2.83 141.36 L-0.44 147.03 L6.11 147.03 Z" class="st2"/>
		</g>
		<g id="group49-89" transform="translate(18.24,-18.24)" v:mID="49" v:groupContext="group">
			<title>工作表.49</title>
			<g id="shape1-90" v:mID="1" v:groupContext="shape" transform="translate(6.39488E-014,-110.551)">
				<title>工作表.1</title>
				<path d="M0 147.03 L110.55 147.03" class="st3"/>
			</g>
			<g id="shape5-93" v:mID="5" v:groupContext="shape" transform="translate(-147.031,147.031) rotate(-90)">
				<title>工作表.5</title>
				<path d="M0 147.03 L110.55 147.03" class="st3"/>
			</g>
			<g id="shape11-96" v:mID="11" v:groupContext="shape" transform="translate(-36.48,147.031) rotate(-90)">
				<title>工作表.11</title>
				<path d="M0 147.03 L110.55 147.03" class="st3"/>
			</g>
			<g id="shape48-99" v:mID="48" v:groupContext="shape">
				<title>工作表.48</title>
				<path d="M0 147.03 L110.55 147.03" class="st3"/>
			</g>
		</g>
	</g>
</svg>
