<?xml version="1.0" encoding="UTF-8" standalone="no"?>
<!DOCTYPE svg PUBLIC "-//W3C//DTD SVG 1.0//EN" "http://www.w3.org/TR/2001/REC-SVG-20010904/DTD/svg10.dtd">
<!-- 由 Microsoft Visio 11.0, SVG Export, v1.0 產生 y28.0010.svg Page-1 -->
<svg xmlns="http://www.w3.org/2000/svg" xmlns:xlink="http://www.w3.org/1999/xlink" xmlns:ev="http://www.w3.org/2001/xml-events"
		xmlns:v="http://schemas.microsoft.com/visio/2003/SVGExtensions/" width="5.64589in" height="3.83979in"
		viewBox="0 0 406.504 276.465" xml:space="preserve" color-interpolation-filters="sRGB" class="st6">
	<v:documentProperties v:langID="1028" v:metric="true" v:viewMarkup="false">
		<v:userDefs>
			<v:ud v:nameU="msvSubprocessMaster" v:prompt="" v:val="VT4(Box)"/>
			<v:ud v:nameU="msvNoAutoConnect" v:val="VT0(1):26"/>
		</v:userDefs>
	</v:documentProperties>

	<style type="text/css">
	<![CDATA[
		.st1 {fill:none;stroke:#000000;stroke-linecap:round;stroke-linejoin:round;stroke-opacity:0;stroke-width:1}
		.st2 {fill:#000000;font-family:新細明體;font-size:1.33333em}
		.st3 {stroke:#ffffff;stroke-linecap:round;stroke-linejoin:round;stroke-opacity:0;stroke-width:1}
		.st4 {fill:none;stroke:#ffffff;stroke-linecap:round;stroke-linejoin:round;stroke-opacity:0;stroke-width:1}
		.st5 {stroke:#000000;stroke-linecap:round;stroke-linejoin:round;stroke-width:1}
		.st6 {fill:none;fill-rule:evenodd;font-size:12px;overflow:visible;stroke-linecap:square;stroke-miterlimit:3}
	]]>
	</style>

	<g v:mID="0" v:index="1" v:groupContext="foregroundPage">
		<title>頁-1</title>
		<v:pageProperties v:drawingScale="0.0393701" v:pageScale="0.0393701" v:drawingUnits="24" v:shadowOffsetX="8.50394"
				v:shadowOffsetY="-8.50394"/>
		<g id="group33-1" transform="translate(111.039,257.465) rotate(-90)" v:mID="33" v:groupContext="group">
			<title>工作表.33</title>
			<g id="shape1-2" v:mID="1" v:groupContext="shape" transform="translate(449.732,134.732) rotate(90)">
				<title>工作表.1</title>
				<desc>四期</desc>
				<v:textBlock v:margins="rect(4,4,4,4)" v:tabSpace="42.5197"/>
				<v:textRect cx="22.6772" cy="253.787" width="45.36" height="45.3543"/>
				<rect x="0" y="231.11" width="45.3543" height="45.3543" class="st1"/>
				<text x="6.68" y="258.59" class="st2" v:langID="1028"><v:paragraph v:horizAlign="1"/><v:tabList/>四期</text>			</g>
			<g id="shape5-5" v:mID="5" v:groupContext="shape" transform="translate(11.6929,-368.504)">
				<title>工作表.5</title>
				<path d="M0 276.46 L226.77 276.46" class="st3"/>
			</g>
			<g id="shape9-8" v:mID="9" v:groupContext="shape" transform="translate(435.559,35.5197) rotate(90)">
				<title>工作表.9</title>
				<desc>賢首五教</desc>
				<v:textBlock v:margins="rect(4,4,4,4)" v:tabSpace="42.5197"/>
				<v:textRect cx="36.8504" cy="239.614" width="73.71" height="73.7008"/>
				<rect x="0" y="202.764" width="73.7008" height="73.7008" class="st1"/>
				<text x="4.85" y="244.41" class="st2" v:langID="1028"><v:paragraph v:horizAlign="1"/><v:tabList/>賢首五教</text>			</g>
			<g id="shape10-11" v:mID="10" v:groupContext="shape" transform="translate(435.559,-63.6929) rotate(90)">
				<title>工作表.10</title>
				<desc>天臺四教</desc>
				<v:textBlock v:margins="rect(4,4,4,4)" v:tabSpace="42.5197"/>
				<v:textRect cx="36.8504" cy="239.614" width="73.71" height="73.7008"/>
				<rect x="0" y="202.764" width="73.7008" height="73.7008" class="st1"/>
				<text x="4.85" y="244.41" class="st2" v:langID="1028"><v:paragraph v:horizAlign="1"/><v:tabList/>天臺四教</text>			</g>
			<g id="shape11-14" v:mID="11" v:groupContext="shape" transform="translate(421.386,134.732) rotate(90)">
				<title>工作表.11</title>
				<desc>佛法</desc>
				<v:textBlock v:margins="rect(4,4,4,4)" v:tabSpace="42.5197"/>
				<v:textRect cx="22.6772" cy="253.787" width="45.36" height="45.3543"/>
				<rect x="0" y="231.11" width="45.3543" height="45.3543" class="st1"/>
				<text x="6.68" y="258.59" class="st2" v:langID="1028"><v:paragraph v:horizAlign="1"/><v:tabList/>佛法</text>			</g>
			<g id="shape12-17" v:mID="12" v:groupContext="shape" transform="translate(421.386,-66.5276) rotate(90)">
				<title>工作表.12</title>
				<desc>藏教</desc>
				<v:textBlock v:margins="rect(4,4,4,4)" v:tabSpace="42.5197"/>
				<v:textRect cx="22.6772" cy="253.787" width="45.36" height="45.3543"/>
				<rect x="0" y="231.11" width="45.3543" height="45.3543" class="st1"/>
				<text x="6.68" y="258.59" class="st2" v:langID="1028"><v:paragraph v:horizAlign="1"/><v:tabList/>藏教</text>			</g>
			<g id="shape13-20" v:mID="13" v:groupContext="shape" transform="translate(421.386,32.685) rotate(90)">
				<title>工作表.13</title>
				<desc>小教</desc>
				<v:textBlock v:margins="rect(4,4,4,4)" v:tabSpace="42.5197"/>
				<v:textRect cx="22.6772" cy="253.787" width="45.36" height="45.3543"/>
				<rect x="0" y="231.11" width="45.3543" height="45.3543" class="st1"/>
				<text x="6.68" y="258.59" class="st2" v:langID="1028"><v:paragraph v:horizAlign="1"/><v:tabList/>小教</text>			</g>
			<g id="shape14-23" v:mID="14" v:groupContext="shape" transform="translate(393.039,-66.5276) rotate(90)">
				<title>工作表.14</title>
				<desc>通教</desc>
				<v:textBlock v:margins="rect(4,4,4,4)" v:tabSpace="42.5197"/>
				<v:textRect cx="22.6772" cy="253.787" width="45.36" height="45.3543"/>
				<rect x="0" y="231.11" width="45.3543" height="45.3543" class="st1"/>
				<text x="6.68" y="258.59" class="st2" v:langID="1028"><v:paragraph v:horizAlign="1"/><v:tabList/>通教</text>			</g>
			<g id="shape15-26" v:mID="15" v:groupContext="shape" transform="translate(364.693,-66.5276) rotate(90)">
				<title>工作表.15</title>
				<desc>別教</desc>
				<v:textBlock v:margins="rect(4,4,4,4)" v:tabSpace="42.5197"/>
				<v:textRect cx="22.6772" cy="253.787" width="45.36" height="45.3543"/>
				<rect x="0" y="231.11" width="45.3543" height="45.3543" class="st1"/>
				<text x="6.68" y="258.59" class="st2" v:langID="1028"><v:paragraph v:horizAlign="1"/><v:tabList/>別教</text>			</g>
			<g id="shape16-29" v:mID="16" v:groupContext="shape" transform="translate(308,-66.5276) rotate(90)">
				<title>工作表.16</title>
				<desc>圓教</desc>
				<v:textBlock v:margins="rect(4,4,4,4)" v:tabSpace="42.5197"/>
				<v:textRect cx="22.6772" cy="253.787" width="45.36" height="45.3543"/>
				<rect x="0" y="231.11" width="45.3543" height="45.3543" class="st1"/>
				<text x="6.68" y="258.59" class="st2" v:langID="1028"><v:paragraph v:horizAlign="1"/><v:tabList/>圓教</text>			</g>
			<g id="shape17-32" v:mID="17" v:groupContext="shape" transform="translate(393.039,32.685) rotate(90)">
				<title>工作表.17</title>
				<desc>始教</desc>
				<v:textBlock v:margins="rect(4,4,4,4)" v:tabSpace="42.5197"/>
				<v:textRect cx="22.6772" cy="253.787" width="45.36" height="45.3543"/>
				<rect x="0" y="231.11" width="45.3543" height="45.3543" class="st1"/>
				<text x="6.68" y="258.59" class="st2" v:langID="1028"><v:paragraph v:horizAlign="1"/><v:tabList/>始教</text>			</g>
			<g id="shape18-35" v:mID="18" v:groupContext="shape" transform="translate(364.693,32.685) rotate(90)">
				<title>工作表.18</title>
				<desc>終教</desc>
				<v:textBlock v:margins="rect(4,4,4,4)" v:tabSpace="42.5197"/>
				<v:textRect cx="22.6772" cy="253.787" width="45.36" height="45.3543"/>
				<rect x="0" y="231.11" width="45.3543" height="45.3543" class="st1"/>
				<text x="6.68" y="258.59" class="st2" v:langID="1028"><v:paragraph v:horizAlign="1"/><v:tabList/>終教</text>			</g>
			<g id="shape19-38" v:mID="19" v:groupContext="shape" transform="translate(336.346,32.685) rotate(90)">
				<title>工作表.19</title>
				<desc>頓教</desc>
				<v:textBlock v:margins="rect(4,4,4,4)" v:tabSpace="42.5197"/>
				<v:textRect cx="22.6772" cy="253.787" width="45.36" height="45.3543"/>
				<rect x="0" y="231.11" width="45.3543" height="45.3543" class="st1"/>
				<text x="6.68" y="258.59" class="st2" v:langID="1028"><v:paragraph v:horizAlign="1"/><v:tabList/>頓教</text>			</g>
			<g id="shape20-41" v:mID="20" v:groupContext="shape" transform="translate(308,32.685) rotate(90)">
				<title>工作表.20</title>
				<desc>圓教</desc>
				<v:textBlock v:margins="rect(4,4,4,4)" v:tabSpace="42.5197"/>
				<v:textRect cx="22.6772" cy="253.787" width="45.36" height="45.3543"/>
				<rect x="0" y="231.11" width="45.3543" height="45.3543" class="st1"/>
				<text x="6.68" y="258.59" class="st2" v:langID="1028"><v:paragraph v:horizAlign="1"/><v:tabList/>圓教</text>			</g>
			<g id="shape6-44" v:mID="6" v:groupContext="shape" transform="translate(361.376,133.769) rotate(90)">
				<title>工作表.6</title>
				<desc>初期大乘佛法</desc>
				<v:textBlock v:margins="rect(4,4,4,4)" v:tabSpace="42.5197"/>
				<v:textRect cx="54.3402" cy="222.124" width="108.69" height="108.68"/>
				<rect x="0" y="167.784" width="108.68" height="108.68" class="st4"/>
				<text x="6.34" y="226.92" class="st2" v:langID="1028"><v:paragraph v:horizAlign="1"/><v:tabList/>初期大乘佛法</text>			</g>
			<g id="shape7-47" v:mID="7" v:groupContext="shape" transform="translate(333.03,133.769) rotate(90)">
				<title>工作表.7</title>
				<desc>後期大乘佛法</desc>
				<v:textBlock v:margins="rect(4,4,4,4)" v:tabSpace="42.5197"/>
				<v:textRect cx="54.3402" cy="222.124" width="108.69" height="108.68"/>
				<rect x="0" y="167.784" width="108.68" height="108.68" class="st4"/>
				<text x="6.34" y="226.92" class="st2" v:langID="1028"><v:paragraph v:horizAlign="1"/><v:tabList/>後期大乘佛法</text>			</g>
			<g id="shape8-50" v:mID="8" v:groupContext="shape" transform="translate(276.465,134.732) rotate(90)">
				<title>工作表.8</title>
				<desc>秘密大乘佛法</desc>
				<v:textBlock v:margins="rect(4,4,4,4)" v:tabSpace="42.5197"/>
				<v:textRect cx="54.2126" cy="222.252" width="108.43" height="108.425"/>
				<rect x="0" y="168.039" width="108.425" height="108.425" class="st4"/>
				<text x="6.21" y="227.05" class="st2" v:langID="1028"><v:paragraph v:horizAlign="1"/><v:tabList/>秘密大乘佛法</text>			</g>
			<g id="shape2-53" v:mID="2" v:groupContext="shape" transform="translate(444.063,-21.1732) rotate(90)">
				<title>工作表.2</title>
				<path d="M0 276.46 L56.69 276.46" class="st5"/>
			</g>
			<g id="shape21-56" v:mID="21" v:groupContext="shape" transform="translate(387.37,-21.1732) rotate(90)">
				<title>工作表.21</title>
				<path d="M0 276.46 L56.69 276.46" class="st5"/>
			</g>
			<g id="shape22-59" v:mID="22" v:groupContext="shape" transform="translate(415.717,-21.1732) rotate(90)">
				<title>工作表.22</title>
				<path d="M0 276.46 L56.69 276.46" class="st5"/>
			</g>
			<g id="shape23-62" v:mID="23" v:groupContext="shape" transform="translate(330.677,-21.1732) rotate(90)">
				<title>工作表.23</title>
				<path d="M0 276.46 L56.69 276.46" class="st5"/>
			</g>
			<g id="shape24-65" v:mID="24" v:groupContext="shape" transform="translate(358.183,-144.812) rotate(63.4349)">
				<title>工作表.24</title>
				<path d="M0 276.46 L63.38 276.46" class="st5"/>
			</g>
			<g id="shape25-68" v:mID="25" v:groupContext="shape" transform="translate(330.677,78.0394) rotate(90)">
				<title>工作表.25</title>
				<path d="M0 276.46 L56.69 276.46" class="st5"/>
			</g>
			<g id="shape26-71" v:mID="26" v:groupContext="shape" transform="translate(359.024,78.0394) rotate(90)">
				<title>工作表.26</title>
				<path d="M0 276.46 L56.69 276.46" class="st5"/>
			</g>
			<g id="shape27-74" v:mID="27" v:groupContext="shape" transform="translate(387.37,78.0394) rotate(90)">
				<title>工作表.27</title>
				<path d="M0 276.46 L56.69 276.46" class="st5"/>
			</g>
			<g id="shape28-77" v:mID="28" v:groupContext="shape" transform="translate(415.717,78.0394) rotate(90)">
				<title>工作表.28</title>
				<path d="M0 276.46 L56.69 276.46" class="st5"/>
			</g>
			<g id="shape29-80" v:mID="29" v:groupContext="shape" transform="translate(444.063,78.0394) rotate(90)">
				<title>工作表.29</title>
				<path d="M0 276.46 L56.69 276.46" class="st5"/>
			</g>
			<g id="shape30-83" v:mID="30" v:groupContext="shape" transform="translate(329.836,-45.5993) rotate(63.4349)">
				<title>工作表.30</title>
				<path d="M0 276.46 L63.38 276.46" class="st5"/>
			</g>
			<g id="shape31-86" v:mID="31" v:groupContext="shape" transform="translate(-136.372,11.0936) rotate(-63.4349)">
				<title>工作表.31</title>
				<path d="M0 276.46 L63.38 276.46" class="st5"/>
			</g>
			<g id="shape3-89" v:mID="3" v:groupContext="shape" transform="translate(11.6929,-5.68434E-014)">
				<title>工作表.3</title>
				<path d="M0 276.46 L226.77 276.46" class="st3"/>
			</g>
			<g id="shape4-92" v:mID="4" v:groupContext="shape" transform="translate(-38,276.465) rotate(-90)">
				<title>工作表.4</title>
				<path d="M0 276.46 L368.5 276.46" class="st3"/>
			</g>
			<g id="shape32-95" v:mID="32" v:groupContext="shape" transform="translate(-264.772,276.465) rotate(-90)">
				<title>工作表.32</title>
				<path d="M0 276.46 L368.5 276.46" class="st3"/>
			</g>
		</g>
	</g>
</svg>
