<?xml version="1.0" encoding="UTF-8" standalone="no"?>
<!DOCTYPE svg PUBLIC "-//W3C//DTD SVG 1.1//EN" "http://www.w3.org/Graphics/SVG/1.1/DTD/svg11.dtd">
<!-- 由 Microsoft Visio, SVG Export 產生 y28.0077-h.svg 頁-1 -->
<svg xmlns="http://www.w3.org/2000/svg" xmlns:xlink="http://www.w3.org/1999/xlink" xmlns:ev="http://www.w3.org/2001/xml-events"
		width="7.73535in" height="1.48042in" viewBox="0 0 556.945 106.591" xml:space="preserve" color-interpolation-filters="sRGB"
		class="st7">
	<style type="text/css">
	<![CDATA[
		.st1 {fill:none;stroke:#ffffff;stroke-linecap:round;stroke-linejoin:round;stroke-opacity:0;stroke-width:1}
		.st2 {fill:#000000;font-family:新細明體;font-size:1.33333em}
		.st3 {fill:none;stroke:#000000;stroke-linecap:round;stroke-linejoin:round;stroke-opacity:0;stroke-width:1}
		.st4 {stroke:#000000;stroke-dasharray:3,3;stroke-linecap:round;stroke-linejoin:round;stroke-width:1}
		.st5 {stroke:#000000;stroke-linecap:round;stroke-linejoin:round;stroke-width:1}
		.st6 {fill:#000000;font-family:新細明體;font-size:0.916672em}
		.st7 {fill:none;fill-rule:evenodd;font-size:12px;overflow:visible;stroke-linecap:square;stroke-miterlimit:3}
	]]>
	</style>

	<g>
		<title>頁-1</title>
		<g id="group41-1" transform="translate(0.5,-0.5)">
			<title>工作表.41</title>
			<g id="shape1-2" transform="translate(441.85,-57.0472)">
				<title>工作表.1</title>
				<desc>無常中心時代</desc>
				<rect x="0" y="86.748" width="114.094" height="19.8425" class="st1"/>
				<text x="9.05" y="101.47" class="st2">無常中心時代</text>			</g>
			<g id="shape2-5" transform="translate(308.976,0)">
				<title>工作表.2</title>
				<desc>不共大乘盛</desc>
				<rect x="0" y="86.748" width="90.7087" height="19.8425" class="st3"/>
				<text x="5.35" y="101.47" class="st2">不共大乘盛</text>			</g>
			<g id="shape5-8" transform="translate(172.913,-28.3465)">
				<title>工作表.5</title>
				<desc>共大乘盛</desc>
				<rect x="0" y="86.748" width="73.7008" height="19.8425" class="st3"/>
				<text x="4.85" y="101.47" class="st2">共大乘盛</text>			</g>
			<g id="shape6-11" transform="translate(62.3622,-56.6929)">
				<title>工作表.6</title>
				<desc>小乘盛</desc>
				<rect x="0" y="86.748" width="59.5276" height="19.8425" class="st3"/>
				<text x="5.76" y="101.47" class="st2">小乘盛</text>			</g>
			<g id="shape8-14" transform="translate(246.614,-38.2677)">
				<title>工作表.8</title>
				<path d="M0 106.59 L202.68 106.59" class="st4"/>
			</g>
			<g id="shape23-17" transform="translate(3.59712E-14,-56.6929)">
				<title>工作表.23</title>
				<desc>佛教</desc>
				<rect x="0" y="86.748" width="45.3543" height="19.8425" class="st3"/>
				<text x="6.68" y="101.47" class="st2">佛教</text>			</g>
			<g id="shape24-20" transform="translate(39.685,-66.6142)">
				<title>工作表.24</title>
				<path d="M0 106.59 L28.35 106.59" class="st5"/>
			</g>
			<g id="shape26-23" transform="translate(-52.7323,68.3228) rotate(-90)">
				<title>工作表.26</title>
				<path d="M0 106.59 L28.35 106.59" class="st5"/>
			</g>
			<g id="shape28-26" transform="translate(53.8583,-38.2677)">
				<title>工作表.28</title>
				<path d="M0 106.59 L119.06 106.59" class="st5"/>
			</g>
			<g id="shape29-29" transform="translate(3.96063,96.6693) rotate(-90)">
				<title>工作表.29</title>
				<path d="M0 106.59 L28.35 106.59" class="st5"/>
			</g>
			<g id="shape30-32" transform="translate(110.551,-9.92126)">
				<title>工作表.30</title>
				<path d="M0 106.59 L204.09 106.59" class="st5"/>
			</g>
			<g id="shape31-35" transform="translate(118.941,-66.6141) rotate(-0.0612134)">
				<title>工作表.31</title>
				<path d="M0 106.59 L331.65 106.59" class="st4"/>
			</g>
			<g id="shape32-38" transform="translate(441.85,-28.7008)">
				<title>工作表.32</title>
				<desc>性空中心時代</desc>
				<rect x="0" y="86.748" width="114.094" height="19.8425" class="st1"/>
				<text x="9.05" y="101.47" class="st2">性空中心時代</text>			</g>
			<g id="shape33-41" transform="translate(441.85,-3.83693E-13)">
				<title>工作表.33</title>
				<desc>真常中心時代</desc>
				<rect x="0" y="86.748" width="114.094" height="19.8425" class="st1"/>
				<text x="9.05" y="101.47" class="st2">真常中心時代</text>			</g>
			<g id="shape34-44" transform="translate(399.685,-9.92126)">
				<title>工作表.34</title>
				<path d="M0 106.59 L49.61 106.59" class="st4"/>
			</g>
			<g id="group20-47" transform="translate(276.087,11.9843) rotate(-90)">
				<title>工作表.20</title>
				<g id="shape21-48" transform="translate(106.591,93.126) rotate(90)">
					<title>工作表.21</title>
					<path d="M0 106.59 L13.46 106.59" class="st5"/>
				</g>
			</g>
			<g id="group16-51" transform="translate(131.165,11.9843) rotate(-90)">
				<title>工作表.16</title>
				<g id="shape15-52" transform="translate(106.591,93.126) rotate(90)">
					<title>工作表.15</title>
					<path d="M0 106.59 L13.46 106.59" class="st5"/>
				</g>
			</g>
			<g id="group36-55" transform="translate(26.9291,-83.2677)">
				<title>工作表.36</title>
				<g id="shape38-56" transform="translate(57.4016,-10.1369)">
					<title>工作表.38</title>
					<path d="M0 106.59 L13.46 106.59" class="st5"/>
				</g>
				<g id="shape39-59">
					<title>工作表.39</title>
					<desc>一世紀</desc>
					<rect x="0" y="86.748" width="65.1969" height="19.8425" class="st3"/>
					<text x="10.6" y="99.97" class="st6">（一世紀</text>				</g>
				<g id="shape40-62" transform="translate(66.6142,-1.50976)">
					<title>工作表.40</title>
					<desc>五世紀</desc>
					<rect x="0" y="89.7675" width="55.2756" height="16.823" class="st3"/>
					<text x="5.64" y="101.48" class="st6">五世紀）</text>				</g>
			</g>
			<g id="group7-65" transform="translate(172.913,-84.685)">
				<title>工作表.7</title>
				<g id="shape11-66">
					<title>工作表.11</title>
					<desc>六世紀</desc>
					<rect x="0" y="86.748" width="56.6929" height="19.8425" class="st3"/>
					<text x="6.35" y="99.97" class="st6">（六世紀</text>				</g>
				<g id="group14-69" transform="translate(168.953,86.748) rotate(90)">
					<title>工作表.14</title>
					<g id="shape17-70" transform="translate(-86.748,106.591) rotate(-90)">
						<title>工作表.17</title>
						<desc>九世紀</desc>
						<rect x="0" y="86.748" width="56.6929" height="19.8425" class="st3"/>
						<text x="6.35" y="99.97" class="st6">九世紀）</text>					</g>
				</g>
			</g>
			<g id="group27-73" transform="translate(315.709,-85.748)">
				<title>工作表.27</title>
				<g id="shape35-74" transform="translate(-4.39648E-14,-1.26654)">
					<title>工作表.35</title>
					<desc>十世紀</desc>
					<rect x="0" y="89.7033" width="56.6929" height="16.8873" class="st3"/>
					<text x="6.35" y="101.45" class="st6">（十世紀</text>				</g>
				<g id="shape37-77" transform="translate(63.0709,2.84217E-14)">
					<title>工作表.37</title>
					<desc>十六世紀</desc>
					<rect x="0" y="86.748" width="66.6142" height="19.8425" class="st3"/>
					<text x="5.81" y="99.97" class="st6">十六世紀）</text>				</g>
			</g>
		</g>
	</g>
</svg>
