<?xml version="1.0" encoding="UTF-8" standalone="no"?>
<!DOCTYPE svg PUBLIC "-//W3C//DTD SVG 1.1//EN" "http://www.w3.org/Graphics/SVG/1.1/DTD/svg11.dtd">
<!-- 由 Microsoft Visio, SVG Export 產生 y39.0152.svg 頁-1 -->
<svg xmlns="http://www.w3.org/2000/svg" xmlns:xlink="http://www.w3.org/1999/xlink" xmlns:ev="http://www.w3.org/2001/xml-events"
		width="6.11625in" height="4.93515in" viewBox="0 0 440.37 355.331" xml:space="preserve" color-interpolation-filters="sRGB"
		class="st4">
	<style type="text/css">
	<![CDATA[
		.st1 {fill:none;stroke:none;stroke-linecap:round;stroke-linejoin:round;stroke-width:0.75}
		.st2 {fill:#000000;font-family:新細明體;font-size:1.33333em}
		.st3 {stroke:#000000;stroke-linecap:round;stroke-linejoin:round;stroke-width:1}
		.st4 {fill:none;fill-rule:evenodd;font-size:12px;overflow:visible;stroke-linecap:square;stroke-miterlimit:3}
	]]>
	</style>

	<g>
		<title>頁-1</title>
		<g id="group60-1" transform="translate(0.5,-0.5)">
			<title>工作表.60</title>
			<g id="shape1-2" transform="translate(25.5118,-328.819)">
				<title>工作表.1</title>
				<desc>四法</desc>
				<rect x="0" y="332.654" width="90.7087" height="22.6772" class="st1"/>
				<text x="0.25em 4.419em" y="348.79" class="st2">四法</text>			</g>
			<g id="shape2-5" transform="translate(138.898,-328.819)">
				<title>工作表.2</title>
				<desc>七句</desc>
				<rect x="0" y="332.654" width="90.7087" height="22.6772" class="st1"/>
				<text x="0.25em 4.419em" y="348.79" class="st2">七句</text>			</g>
			<g id="shape3-8" transform="translate(252.283,-328.819)">
				<title>工作表.3</title>
				<desc>十一品</desc>
				<rect x="0" y="332.654" width="90.7087" height="22.6772" class="st1"/>
				<text x="0.25em 2.335em 4.419em" y="348.79" class="st2">十一品</text>			</g>
			<g id="shape4-11" transform="translate(11.3386,-158.74)">
				<title>工作表.4</title>
				<desc>1.</desc>
				<rect x="0" y="332.654" width="22.6772" height="22.6772" class="st1"/>
				<text x="5.7" y="348.79" class="st2">1.</text>			</g>
			<g id="shape5-14" transform="translate(252.283,-300.472)">
				<title>工作表.5</title>
				<desc>教化品</desc>
				<rect x="0" y="332.654" width="56.6929" height="22.6772" class="st1"/>
				<text x="4.35" y="348.79" class="st2">教化品</text>			</g>
			<g id="shape6-17" transform="translate(137.48,-272.126)">
				<title>工作表.6</title>
				<desc>佛寶</desc>
				<rect x="0" y="332.654" width="42.5197" height="22.6772" class="st1"/>
				<text x="5.26" y="348.79" class="st2">佛寶</text>			</g>
			<g id="shape7-20" transform="translate(11.3386,-102.047)">
				<title>工作表.7</title>
				<desc>2.</desc>
				<rect x="0" y="332.654" width="22.6772" height="22.6772" class="st1"/>
				<text x="5.7" y="348.79" class="st2">2.</text>			</g>
			<g id="shape8-23" transform="translate(252.283,-272.126)">
				<title>工作表.8</title>
				<desc>佛寶品</desc>
				<rect x="0" y="332.654" width="56.6929" height="22.6772" class="st1"/>
				<text x="4.35" y="348.79" class="st2">佛寶品</text>			</g>
			<g id="shape9-26" transform="translate(137.48,-243.78)">
				<title>工作表.9</title>
				<desc>法寶</desc>
				<rect x="0" y="332.654" width="42.5197" height="22.6772" class="st1"/>
				<text x="5.26" y="348.79" class="st2">法寶</text>			</g>
			<g id="shape10-29" transform="translate(252.283,-243.78)">
				<title>工作表.10</title>
				<desc>法寶品</desc>
				<rect x="0" y="332.654" width="56.6929" height="22.6772" class="st1"/>
				<text x="4.35" y="348.79" class="st2">法寶品</text>			</g>
			<g id="shape11-32" transform="translate(137.48,-215.433)">
				<title>工作表.11</title>
				<desc>僧寶</desc>
				<rect x="0" y="332.654" width="42.5197" height="22.6772" class="st1"/>
				<text x="5.26" y="348.79" class="st2">僧寶</text>			</g>
			<g id="shape12-35" transform="translate(252.283,-215.433)">
				<title>工作表.12</title>
				<desc>僧寶品</desc>
				<rect x="0" y="332.654" width="56.6929" height="22.6772" class="st1"/>
				<text x="4.35" y="348.79" class="st2">僧寶品</text>			</g>
			<g id="shape13-38" transform="translate(11.3386,-73.7008)">
				<title>工作表.13</title>
				<desc>3.</desc>
				<rect x="0" y="332.654" width="22.6772" height="22.6772" class="st1"/>
				<text x="5.7" y="348.79" class="st2">3.</text>			</g>
			<g id="shape14-41" transform="translate(11.3386,-45.3543)">
				<title>工作表.14</title>
				<desc>4.</desc>
				<rect x="0" y="332.654" width="22.6772" height="22.6772" class="st1"/>
				<text x="5.7" y="348.79" class="st2">4.</text>			</g>
			<g id="shape16-44" transform="translate(252.283,-187.087)">
				<title>工作表.16</title>
				<desc>一切眾生有如來藏品</desc>
				<rect x="0" y="332.654" width="153.071" height="22.6772" class="st1"/>
				<text x="4.54" y="348.79" class="st2">一切眾生有如來藏品</text>			</g>
			<g id="shape17-47" transform="translate(24.0945,-158.74)">
				<title>工作表.17</title>
				<desc>佛性</desc>
				<rect x="0" y="332.654" width="42.5197" height="22.6772" class="st1"/>
				<text x="5.26" y="348.79" class="st2">佛性</text>			</g>
			<g id="shape18-50" transform="translate(138.898,-158.74)">
				<title>工作表.18</title>
				<desc>性</desc>
				<rect x="0" y="332.654" width="22.6772" height="22.6772" class="st1"/>
				<text x="4" y="348.79" class="st2">性</text>			</g>
			<g id="shape20-53" transform="translate(249.449,-158.74)">
				<title>工作表.20</title>
				<desc>無量煩惱所纏品</desc>
				<rect x="0" y="332.654" width="127.559" height="22.6772" class="st1"/>
				<text x="7.78" y="348.79" class="st2">無量煩惱所纏品</text>			</g>
			<g id="shape22-56" transform="translate(252.283,-130.394)">
				<title>工作表.22</title>
				<desc>為何義說品</desc>
				<rect x="0" y="332.654" width="90.7087" height="22.6772" class="st1"/>
				<text x="5.35" y="348.79" class="st2">為何義說品</text>			</g>
			<g id="shape23-59" transform="translate(25.5118,-102.047)">
				<title>工作表.23</title>
				<desc>佛菩提</desc>
				<rect x="0" y="332.654" width="56.6929" height="22.6772" class="st1"/>
				<text x="4.35" y="348.79" class="st2">佛菩提</text>			</g>
			<g id="shape24-62" transform="translate(137.48,-102.047)">
				<title>工作表.24</title>
				<desc>菩提</desc>
				<rect x="0" y="332.654" width="42.5197" height="22.6772" class="st1"/>
				<text x="5.26" y="348.79" class="st2">菩提</text>			</g>
			<g id="shape26-65" transform="translate(253.701,-102.047)">
				<title>工作表.26</title>
				<desc>身轉清淨成菩提品</desc>
				<rect x="0" y="332.654" width="136.063" height="22.6772" class="st1"/>
				<text x="4.03" y="348.79" class="st2">身轉清淨成菩提品</text>			</g>
			<g id="shape27-68" transform="translate(24.0945,-73.7008)">
				<title>工作表.27</title>
				<desc>佛法</desc>
				<rect x="0" y="332.654" width="42.5197" height="22.6772" class="st1"/>
				<text x="5.26" y="348.79" class="st2">佛法</text>			</g>
			<g id="shape28-71" transform="translate(137.48,-73.7008)">
				<title>工作表.28</title>
				<desc>功德</desc>
				<rect x="0" y="332.654" width="42.5197" height="22.6772" class="st1"/>
				<text x="5.26" y="348.79" class="st2">功德</text>			</g>
			<g id="shape30-74" transform="translate(24.0945,-45.3543)">
				<title>工作表.30</title>
				<desc>佛業</desc>
				<rect x="0" y="332.654" width="42.5197" height="22.6772" class="st1"/>
				<text x="5.26" y="348.79" class="st2">佛業</text>			</g>
			<g id="shape31-77" transform="translate(138.898,-45.3543)">
				<title>工作表.31</title>
				<desc>業</desc>
				<rect x="0" y="332.654" width="22.6772" height="22.6772" class="st1"/>
				<text x="4" y="348.79" class="st2">業</text>			</g>
			<g id="shape32-80" transform="translate(235.276,-45.3543)">
				<title>工作表.32</title>
				<desc>10.</desc>
				<rect x="0" y="332.654" width="28.3465" height="22.6772" class="st1"/>
				<text x="4.77" y="348.79" class="st2">10.</text>			</g>
			<g id="shape33-83" transform="translate(238.11,-73.7008)">
				<title>工作表.33</title>
				<desc>9.</desc>
				<rect x="0" y="332.654" width="22.6772" height="22.6772" class="st1"/>
				<text x="5.7" y="348.79" class="st2">9.</text>			</g>
			<g id="shape34-86" transform="translate(253.701,-45.3543)">
				<title>工作表.34</title>
				<desc>自然不休息佛業品</desc>
				<rect x="0" y="332.654" width="136.063" height="22.6772" class="st1"/>
				<text x="4.03" y="348.79" class="st2">自然不休息佛業品</text>			</g>
			<g id="shape36-89" transform="translate(253.701,-17.0079)">
				<title>工作表.36</title>
				<desc>校量信功德品</desc>
				<rect x="0" y="332.654" width="104.882" height="22.6772" class="st1"/>
				<text x="4.44" y="348.79" class="st2">校量信功德品</text>			</g>
			<g id="shape37-92" transform="translate(252.283,-73.7008)">
				<title>工作表.37</title>
				<desc>如來功德品</desc>
				<rect x="0" y="332.654" width="90.7087" height="22.6772" class="st1"/>
				<text x="5.35" y="348.79" class="st2">如來功德品</text>			</g>
			<g id="shape38-95" transform="translate(-227.772,355.331) rotate(-90)">
				<title>工作表.38</title>
				<path d="M0 355.33 L354.33 355.33" class="st3"/>
			</g>
			<g id="shape39-98" transform="translate(-114.386,355.331) rotate(-90)">
				<title>工作表.39</title>
				<path d="M0 355.33 L354.33 355.33" class="st3"/>
			</g>
			<g id="shape48-101" transform="translate(238.11,-102.047)">
				<title>工作表.48</title>
				<desc>8.</desc>
				<rect x="0" y="332.654" width="22.6772" height="22.6772" class="st1"/>
				<text x="5.7" y="348.79" class="st2">8.</text>			</g>
			<g id="shape29-104" transform="translate(235.276,-17.0079)">
				<title>工作表.29</title>
				<desc>11.</desc>
				<rect x="0" y="332.654" width="28.3465" height="22.6772" class="st1"/>
				<text x="4.77" y="348.79" class="st2">11.</text>			</g>
			<g id="shape41-107" transform="translate(238.11,-300.472)">
				<title>工作表.41</title>
				<desc>1.</desc>
				<rect x="0" y="332.654" width="22.6772" height="22.6772" class="st1"/>
				<text x="5.7" y="348.79" class="st2">1.</text>			</g>
			<g id="shape42-110" transform="translate(238.11,-272.126)">
				<title>工作表.42</title>
				<desc>2.</desc>
				<rect x="0" y="332.654" width="22.6772" height="22.6772" class="st1"/>
				<text x="5.7" y="348.79" class="st2">2.</text>			</g>
			<g id="shape43-113" transform="translate(238.11,-243.78)">
				<title>工作表.43</title>
				<desc>3.</desc>
				<rect x="0" y="332.654" width="22.6772" height="22.6772" class="st1"/>
				<text x="5.7" y="348.79" class="st2">3.</text>			</g>
			<g id="shape44-116" transform="translate(238.11,-215.433)">
				<title>工作表.44</title>
				<desc>4.</desc>
				<rect x="0" y="332.654" width="22.6772" height="22.6772" class="st1"/>
				<text x="5.7" y="348.79" class="st2">4.</text>			</g>
			<g id="shape45-119" transform="translate(239.528,-187.087)">
				<title>工作表.45</title>
				<desc>5.</desc>
				<rect x="0" y="332.654" width="19.8425" height="22.6772" class="st1"/>
				<text x="4.28" y="348.79" class="st2">5.</text>			</g>
			<g id="shape46-122" transform="translate(238.11,-158.74)">
				<title>工作表.46</title>
				<desc>6.</desc>
				<rect x="0" y="332.654" width="22.6772" height="22.6772" class="st1"/>
				<text x="5.7" y="348.79" class="st2">6.</text>			</g>
			<g id="shape47-125" transform="translate(238.11,-130.394)">
				<title>工作表.47</title>
				<desc>7.</desc>
				<rect x="0" y="332.654" width="22.6772" height="22.6772" class="st1"/>
				<text x="5.7" y="348.79" class="st2">7.</text>			</g>
			<g id="shape50-128" transform="translate(124.724,-272.126)">
				<title>工作表.50</title>
				<desc>1.</desc>
				<rect x="0" y="332.654" width="22.6772" height="22.6772" class="st1"/>
				<text x="5.7" y="348.79" class="st2">1.</text>			</g>
			<g id="shape51-131" transform="translate(124.724,-243.78)">
				<title>工作表.51</title>
				<desc>2.</desc>
				<rect x="0" y="332.654" width="22.6772" height="22.6772" class="st1"/>
				<text x="5.7" y="348.79" class="st2">2.</text>			</g>
			<g id="shape52-134" transform="translate(124.724,-215.433)">
				<title>工作表.52</title>
				<desc>3.</desc>
				<rect x="0" y="332.654" width="22.6772" height="22.6772" class="st1"/>
				<text x="5.7" y="348.79" class="st2">3.</text>			</g>
			<g id="shape53-137" transform="translate(124.724,-158.74)">
				<title>工作表.53</title>
				<desc>4.</desc>
				<rect x="0" y="332.654" width="22.6772" height="22.6772" class="st1"/>
				<text x="5.7" y="348.79" class="st2">4.</text>			</g>
			<g id="shape54-140" transform="translate(126.142,-102.047)">
				<title>工作表.54</title>
				<desc>5.</desc>
				<rect x="0" y="332.654" width="19.8425" height="22.6772" class="st1"/>
				<text x="4.28" y="348.79" class="st2">5.</text>			</g>
			<g id="shape55-143" transform="translate(124.724,-73.7008)">
				<title>工作表.55</title>
				<desc>6.</desc>
				<rect x="0" y="332.654" width="22.6772" height="22.6772" class="st1"/>
				<text x="5.7" y="348.79" class="st2">6.</text>			</g>
			<g id="shape56-146" transform="translate(124.724,-45.3543)">
				<title>工作表.56</title>
				<desc>7.</desc>
				<rect x="0" y="332.654" width="22.6772" height="22.6772" class="st1"/>
				<text x="5.7" y="348.79" class="st2">7.</text>			</g>
			<g id="shape15-149" transform="translate(-9.59233E-14,-325.984)">
				<title>工作表.15</title>
				<path d="M0 355.33 L439.37 355.33" class="st3"/>
			</g>
			<g id="shape35-152" transform="translate(158.74,-170.079)">
				<title>工作表.35</title>
				<path d="M0 355.33 L14.17 355.33" class="st3"/>
			</g>
			<g id="shape57-155" transform="translate(172.913,-141.732)">
				<title>工作表.57</title>
				<path d="M0 355.33 L14.17 355.33" class="st3"/>
			</g>
			<g id="shape58-158" transform="translate(172.913,-198.425)">
				<title>工作表.58</title>
				<path d="M0 355.33 L14.17 355.33" class="st3"/>
			</g>
			<g id="shape59-161" transform="translate(528.244,156.906) rotate(90)">
				<title>工作表.59</title>
				<path d="M0 355.33 L56.69 355.33" class="st3"/>
			</g>
		</g>
	</g>
</svg>
