<?xml version="1.0" encoding="UTF-8" standalone="no"?>
<!DOCTYPE svg PUBLIC "-//W3C//DTD SVG 1.0//EN" "http://www.w3.org/TR/2001/REC-SVG-20010904/DTD/svg10.dtd">
<!-- 由 Microsoft Visio 11.0, SVG Export, v1.0 產生 y39.0157.svg 頁-1 -->
<svg xmlns="http://www.w3.org/2000/svg" xmlns:xlink="http://www.w3.org/1999/xlink" xmlns:ev="http://www.w3.org/2001/xml-events"
		xmlns:v="http://schemas.microsoft.com/visio/2003/SVGExtensions/" width="7.89485in" height="9.41407in"
		viewBox="0 0 568.429 677.813" xml:space="preserve" color-interpolation-filters="sRGB" class="st6">
	<v:documentProperties v:langID="1028" v:metric="true" v:viewMarkup="false"/>

	<style type="text/css">
	<![CDATA[
		.st1 {fill:none;stroke:none;stroke-linecap:round;stroke-linejoin:round;stroke-width:0.75}
		.st2 {fill:#000000;font-family:新細明體;font-size:1.33333em}
		.st3 {stroke:#000000;stroke-linecap:round;stroke-linejoin:round;stroke-width:1}
		.st4 {stroke:#ffffff;stroke-linecap:round;stroke-linejoin:round;stroke-opacity:0;stroke-width:1}
		.st5 {stroke:#000000;stroke-linecap:round;stroke-linejoin:round;stroke-width:1.5}
		.st6 {fill:none;fill-rule:evenodd;font-size:12px;overflow:visible;stroke-linecap:square;stroke-miterlimit:3}
	]]>
	</style>

	<g v:mID="0" v:index="1" v:groupContext="foregroundPage">
		<title>頁-1</title>
		<v:pageProperties v:drawingScale="0.0393701" v:pageScale="0.0393701" v:drawingUnits="24" v:shadowOffsetX="8.50394"
				v:shadowOffsetY="-8.50394"/>
		<g id="group77-1" transform="translate(0.75,-1)" v:mID="77" v:groupContext="group">
			<title>工作表.77</title>
			<g id="group74-2" v:mID="74" v:groupContext="group">
				<title>工作表.74</title>
				<g id="shape1-3" v:mID="1" v:groupContext="shape" transform="translate(294.803,-133.228)">
					<title>工作表.1</title>
					<desc>菩提十義</desc>
					<v:textBlock v:margins="rect(4,4,4,4)" v:tabSpace="42.5197" v:verticalText="true"/>
					<v:textRect cx="136.063" cy="541.75" width="272.13" height="272.126"/>
					<rect x="0" y="405.687" width="272.126" height="272.126" class="st1"/>
					<text x="136.06" y="25.606em 30.775em 35.944em 41.113em" writing-mode="tb-rl" class="st2" v:langID="1028"><v:paragraph
								v:horizAlign="4"/><v:tabList/>菩提十義</text>				</g>
				<g id="shape2-6" v:mID="2" v:groupContext="shape" transform="translate(0,-345.827)">
					<title>工作表.2</title>
					<desc>如來藏十義</desc>
					<v:textBlock v:margins="rect(4,4,4,4)" v:tabSpace="42.5197" v:verticalText="true"/>
					<v:textRect cx="76.5354" cy="601.278" width="153.08" height="153.071"/>
					<rect x="0" y="524.742" width="153.071" height="153.071" class="st1"/>
					<text x="76.54" y="33.047em 35.063em 37.08em 39.097em 41.113em" writing-mode="tb-rl" class="st2"
							v:langID="1028"><v:paragraph v:horizAlign="4"/><v:tabList/>如來藏十義</text>				</g>
				<g id="shape3-9" v:mID="3" v:groupContext="shape" transform="translate(12.7559,-73.7008)">
					<title>工作表.3</title>
					<desc>菩提八義</desc>
					<v:textBlock v:margins="rect(4,4,4,4)" v:tabSpace="42.5197" v:verticalText="true"/>
					<v:textRect cx="63.7795" cy="614.033" width="127.56" height="127.559"/>
					<rect x="0" y="550.254" width="127.559" height="127.559" class="st1"/>
					<text x="63.78" y="34.641em 36.799em 38.956em 41.113em" writing-mode="tb-rl" class="st2" v:langID="1028"><v:paragraph
								v:horizAlign="4"/><v:tabList/>菩提八義</text>				</g>
				<g id="shape4-12" v:mID="4" v:groupContext="shape" transform="translate(63.7795,-537.165)">
					<title>工作表.4</title>
					<desc>寶性論</desc>
					<v:textBlock v:margins="rect(4,4,4,4)" v:tabSpace="42.5197"/>
					<v:textRect cx="69.4488" cy="608.364" width="138.9" height="138.898"/>
					<rect x="0" y="538.915" width="138.898" height="138.898" class="st1"/>
					<text x="0.25em 3.841em 7.431em" y="613.16" class="st2" v:langID="1028"><v:paragraph v:horizAlign="4"/><v:tabList/>寶性論</text>				</g>
				<g id="shape5-15" v:mID="5" v:groupContext="shape" transform="translate(308.976,-549.921)">
					<title>工作表.5</title>
					<desc>無上依經</desc>
					<v:textBlock v:margins="rect(4,4,4,4)" v:tabSpace="42.5197"/>
					<v:textRect cx="56.6929" cy="621.12" width="113.39" height="113.386"/>
					<rect x="0" y="564.427" width="113.386" height="113.386" class="st1"/>
					<text x="0.25em 2.112em 3.974em 5.837em" y="625.92" class="st2" v:langID="1028"><v:paragraph v:horizAlign="4"/><v:tabList/>無上依經</text>				</g>
				<g id="shape7-18" v:mID="7" v:groupContext="shape" transform="translate(308.976,-513.071)">
					<title>工作表.7</title>
					<desc>如來界義</desc>
					<v:textBlock v:margins="rect(4,4,4,4)" v:tabSpace="42.5197"/>
					<v:textRect cx="36.8504" cy="640.963" width="73.71" height="73.7008"/>
					<rect x="0" y="604.112" width="73.7008" height="73.7008" class="st1"/>
					<text x="0.25em 1.285em 2.321em 3.356em" y="645.76" class="st2" v:langID="1028"><v:paragraph v:horizAlign="4"/><v:tabList/>如來界義</text>				</g>
				<g id="shape14-21" v:mID="14" v:groupContext="shape" transform="translate(120.472,-342.992)">
					<title>工作表.14</title>
					<desc>時差別</desc>
					<v:textBlock v:margins="rect(4,4,4,4)" v:tabSpace="42.5197"/>
					<v:textRect cx="36.8504" cy="640.963" width="73.71" height="73.7008"/>
					<rect x="0" y="604.112" width="73.7008" height="73.7008" class="st1"/>
					<text x="0.25em 1.803em 3.356em" y="645.76" class="st2" v:langID="1028"><v:paragraph v:horizAlign="4"/><v:tabList/>時差別</text>				</g>
				<g id="shape15-24" v:mID="15" v:groupContext="shape" transform="translate(120.472,-314.646)">
					<title>工作表.15</title>
					<desc>遍一切處</desc>
					<v:textBlock v:margins="rect(4,4,4,4)" v:tabSpace="42.5197"/>
					<v:textRect cx="36.8504" cy="640.963" width="73.71" height="73.7008"/>
					<rect x="0" y="604.112" width="73.7008" height="73.7008" class="st1"/>
					<text x="0.25em 1.285em 2.321em 3.356em" y="645.76" class="st2" v:langID="1028"><v:paragraph v:horizAlign="4"/><v:tabList/>遍一切處</text>				</g>
				<g id="shape16-27" v:mID="16" v:groupContext="shape" transform="translate(120.472,-286.299)">
					<title>工作表.16</title>
					<desc>不變</desc>
					<v:textBlock v:margins="rect(4,4,4,4)" v:tabSpace="42.5197"/>
					<v:textRect cx="36.8504" cy="640.963" width="73.71" height="73.7008"/>
					<rect x="0" y="604.112" width="73.7008" height="73.7008" class="st1"/>
					<text x="0.25em 3.356em" y="645.76" class="st2" v:langID="1028"><v:paragraph v:horizAlign="4"/><v:tabList/>不變</text>				</g>
				<g id="shape17-30" v:mID="17" v:groupContext="shape" transform="translate(120.472,-257.953)">
					<title>工作表.17</title>
					<desc>無差別</desc>
					<v:textBlock v:margins="rect(4,4,4,4)" v:tabSpace="42.5197"/>
					<v:textRect cx="36.8504" cy="640.963" width="73.71" height="73.7008"/>
					<rect x="0" y="604.112" width="73.7008" height="73.7008" class="st1"/>
					<text x="0.25em 1.803em 3.356em" y="645.76" class="st2" v:langID="1028"><v:paragraph v:horizAlign="4"/><v:tabList/>無差別</text>				</g>
				<g id="shape6-33" v:mID="6" v:groupContext="shape" transform="translate(121.89,-538.583)">
					<title>工作表.6</title>
					<desc>體</desc>
					<v:textBlock v:margins="rect(4,4,4,4)" v:tabSpace="42.5197" v:verticalText="true"/>
					<v:textRect cx="11.3386" cy="666.474" width="22.68" height="22.6772"/>
					<rect x="0" y="655.136" width="22.6772" height="22.6772" class="st1"/>
					<text x="11.34" y="659.14" writing-mode="tb-rl" class="st2" v:langID="1028"><v:paragraph v:horizAlign="1"/><v:tabList/>體</text>				</g>
				<g id="shape8-36" v:mID="8" v:groupContext="shape" transform="translate(121.89,-510.236)">
					<title>工作表.8</title>
					<desc>因</desc>
					<v:textBlock v:margins="rect(4,4,4,4)" v:tabSpace="42.5197" v:verticalText="true"/>
					<v:textRect cx="11.3386" cy="666.474" width="22.68" height="22.6772"/>
					<rect x="0" y="655.136" width="22.6772" height="22.6772" class="st1"/>
					<text x="11.34" y="659.14" writing-mode="tb-rl" class="st2" v:langID="1028"><v:paragraph v:horizAlign="1"/><v:tabList/>因</text>				</g>
				<g id="shape9-39" v:mID="9" v:groupContext="shape" transform="translate(121.89,-481.89)">
					<title>工作表.9</title>
					<desc>果</desc>
					<v:textBlock v:margins="rect(4,4,4,4)" v:tabSpace="42.5197" v:verticalText="true"/>
					<v:textRect cx="11.3386" cy="666.474" width="22.68" height="22.6772"/>
					<rect x="0" y="655.136" width="22.6772" height="22.6772" class="st1"/>
					<text x="11.34" y="659.14" writing-mode="tb-rl" class="st2" v:langID="1028"><v:paragraph v:horizAlign="1"/><v:tabList/>果</text>				</g>
				<g id="shape10-42" v:mID="10" v:groupContext="shape" transform="translate(121.89,-453.543)">
					<title>工作表.10</title>
					<desc>業</desc>
					<v:textBlock v:margins="rect(4,4,4,4)" v:tabSpace="42.5197" v:verticalText="true"/>
					<v:textRect cx="11.3386" cy="666.474" width="22.68" height="22.6772"/>
					<rect x="0" y="655.136" width="22.6772" height="22.6772" class="st1"/>
					<text x="11.34" y="659.14" writing-mode="tb-rl" class="st2" v:langID="1028"><v:paragraph v:horizAlign="1"/><v:tabList/>業</text>				</g>
				<g id="shape11-45" v:mID="11" v:groupContext="shape" transform="translate(120.472,-399.685)">
					<title>工作表.11</title>
					<desc>相應</desc>
					<v:textBlock v:margins="rect(4,4,4,4)" v:tabSpace="42.5197"/>
					<v:textRect cx="36.8504" cy="640.963" width="73.71" height="73.7008"/>
					<rect x="0" y="604.112" width="73.7008" height="73.7008" class="st1"/>
					<text x="0.25em 3.356em" y="645.76" class="st2" v:langID="1028"><v:paragraph v:horizAlign="4"/><v:tabList/>相應</text>				</g>
				<g id="shape13-48" v:mID="13" v:groupContext="shape" transform="translate(121.89,-396.85)">
					<title>工作表.13</title>
					<desc>行</desc>
					<v:textBlock v:margins="rect(4,4,4,4)" v:tabSpace="42.5197" v:verticalText="true"/>
					<v:textRect cx="11.3386" cy="666.474" width="22.68" height="22.6772"/>
					<rect x="0" y="655.136" width="22.6772" height="22.6772" class="st1"/>
					<text x="11.34" y="659.14" writing-mode="tb-rl" class="st2" v:langID="1028"><v:paragraph v:horizAlign="1"/><v:tabList/>行</text>				</g>
				<g id="shape20-51" v:mID="20" v:groupContext="shape" transform="translate(120.472,-201.26)">
					<title>工作表.20</title>
					<desc>實體</desc>
					<v:textBlock v:margins="rect(4,4,4,4)" v:tabSpace="42.5197"/>
					<v:textRect cx="36.8504" cy="640.963" width="73.71" height="73.7008"/>
					<rect x="0" y="604.112" width="73.7008" height="73.7008" class="st1"/>
					<text x="0.25em 3.356em" y="645.76" class="st2" v:langID="1028"><v:paragraph v:horizAlign="4"/><v:tabList/>實體</text>				</g>
				<g id="shape21-54" v:mID="21" v:groupContext="shape" transform="translate(121.89,-198.425)">
					<title>工作表.21</title>
					<desc>因</desc>
					<v:textBlock v:margins="rect(4,4,4,4)" v:tabSpace="42.5197" v:verticalText="true"/>
					<v:textRect cx="11.3386" cy="666.474" width="22.68" height="22.6772"/>
					<rect x="0" y="655.136" width="22.6772" height="22.6772" class="st1"/>
					<text x="11.34" y="659.14" writing-mode="tb-rl" class="st2" v:langID="1028"><v:paragraph v:horizAlign="1"/><v:tabList/>因</text>				</g>
				<g id="shape22-57" v:mID="22" v:groupContext="shape" transform="translate(121.89,-170.079)">
					<title>工作表.22</title>
					<desc>果</desc>
					<v:textBlock v:margins="rect(4,4,4,4)" v:tabSpace="42.5197" v:verticalText="true"/>
					<v:textRect cx="11.3386" cy="666.474" width="22.68" height="22.6772"/>
					<rect x="0" y="655.136" width="22.6772" height="22.6772" class="st1"/>
					<text x="11.34" y="659.14" writing-mode="tb-rl" class="st2" v:langID="1028"><v:paragraph v:horizAlign="1"/><v:tabList/>果</text>				</g>
				<g id="shape23-60" v:mID="23" v:groupContext="shape" transform="translate(121.89,-141.732)">
					<title>工作表.23</title>
					<desc>業</desc>
					<v:textBlock v:margins="rect(4,4,4,4)" v:tabSpace="42.5197" v:verticalText="true"/>
					<v:textRect cx="11.3386" cy="666.474" width="22.68" height="22.6772"/>
					<rect x="0" y="655.136" width="22.6772" height="22.6772" class="st1"/>
					<text x="11.34" y="659.14" writing-mode="tb-rl" class="st2" v:langID="1028"><v:paragraph v:horizAlign="1"/><v:tabList/>業</text>				</g>
				<g id="shape24-63" v:mID="24" v:groupContext="shape" transform="translate(120.472,-87.874)">
					<title>工作表.24</title>
					<desc>相應</desc>
					<v:textBlock v:margins="rect(4,4,4,4)" v:tabSpace="42.5197"/>
					<v:textRect cx="36.8504" cy="640.963" width="73.71" height="73.7008"/>
					<rect x="0" y="604.112" width="73.7008" height="73.7008" class="st1"/>
					<text x="0.25em 3.356em" y="645.76" class="st2" v:langID="1028"><v:paragraph v:horizAlign="4"/><v:tabList/>相應</text>				</g>
				<g id="shape25-66" v:mID="25" v:groupContext="shape" transform="translate(121.89,-85.0394)">
					<title>工作表.25</title>
					<desc>行</desc>
					<v:textBlock v:margins="rect(4,4,4,4)" v:tabSpace="42.5197" v:verticalText="true"/>
					<v:textRect cx="11.3386" cy="666.474" width="22.68" height="22.6772"/>
					<rect x="0" y="655.136" width="22.6772" height="22.6772" class="st1"/>
					<text x="11.34" y="659.14" writing-mode="tb-rl" class="st2" v:langID="1028"><v:paragraph v:horizAlign="1"/><v:tabList/>行</text>				</g>
				<g id="shape18-69" v:mID="18" v:groupContext="shape" transform="translate(120.472,-2.83465)">
					<title>工作表.18</title>
					<desc>不思議</desc>
					<v:textBlock v:margins="rect(4,4,4,4)" v:tabSpace="42.5197"/>
					<v:textRect cx="36.8504" cy="640.963" width="73.71" height="73.7008"/>
					<rect x="0" y="604.112" width="73.7008" height="73.7008" class="st1"/>
					<text x="0.25em 1.803em 3.356em" y="645.76" class="st2" v:langID="1028"><v:paragraph v:horizAlign="4"/><v:tabList/>不思議</text>				</g>
				<g id="shape19-72" v:mID="19" v:groupContext="shape" transform="translate(121.89,-56.6929)">
					<title>工作表.19</title>
					<desc>常</desc>
					<v:textBlock v:margins="rect(4,4,4,4)" v:tabSpace="42.5197" v:verticalText="true"/>
					<v:textRect cx="11.3386" cy="666.474" width="22.68" height="22.6772"/>
					<rect x="0" y="655.136" width="22.6772" height="22.6772" class="st1"/>
					<text x="11.34" y="659.14" writing-mode="tb-rl" class="st2" v:langID="1028"><v:paragraph v:horizAlign="1"/><v:tabList/>常</text>				</g>
				<g id="shape26-75" v:mID="26" v:groupContext="shape" transform="translate(308.976,-456.378)">
					<title>工作表.26</title>
					<desc>自性</desc>
					<v:textBlock v:margins="rect(4,4,4,4)" v:tabSpace="42.5197"/>
					<v:textRect cx="36.8504" cy="640.963" width="73.71" height="73.7008"/>
					<rect x="0" y="604.112" width="73.7008" height="73.7008" class="st1"/>
					<text x="0.25em 3.356em" y="645.76" class="st2" v:langID="1028"><v:paragraph v:horizAlign="4"/><v:tabList/>自性</text>				</g>
				<g id="shape27-78" v:mID="27" v:groupContext="shape" transform="translate(308.976,-413.858)">
					<title>工作表.27</title>
					<desc>因緣</desc>
					<v:textBlock v:margins="rect(4,4,4,4)" v:tabSpace="42.5197"/>
					<v:textRect cx="36.8504" cy="640.963" width="73.71" height="73.7008"/>
					<rect x="0" y="604.112" width="73.7008" height="73.7008" class="st1"/>
					<text x="0.25em 3.356em" y="645.76" class="st2" v:langID="1028"><v:paragraph v:horizAlign="4"/><v:tabList/>因緣</text>				</g>
				<g id="shape28-81" v:mID="28" v:groupContext="shape" transform="translate(308.976,-357.165)">
					<title>工作表.28</title>
					<desc>惑障</desc>
					<v:textBlock v:margins="rect(4,4,4,4)" v:tabSpace="42.5197"/>
					<v:textRect cx="36.8504" cy="640.963" width="73.71" height="73.7008"/>
					<rect x="0" y="604.112" width="73.7008" height="73.7008" class="st1"/>
					<text x="0.25em 3.356em" y="645.76" class="st2" v:langID="1028"><v:paragraph v:horizAlign="4"/><v:tabList/>惑障</text>				</g>
				<g id="shape29-84" v:mID="29" v:groupContext="shape" transform="translate(308.976,-300.472)">
					<title>工作表.29</title>
					<desc>至果</desc>
					<v:textBlock v:margins="rect(4,4,4,4)" v:tabSpace="42.5197"/>
					<v:textRect cx="36.8504" cy="640.963" width="73.71" height="73.7008"/>
					<rect x="0" y="604.112" width="73.7008" height="73.7008" class="st1"/>
					<text x="0.25em 3.356em" y="645.76" class="st2" v:langID="1028"><v:paragraph v:horizAlign="4"/><v:tabList/>至果</text>				</g>
				<g id="shape30-87" v:mID="30" v:groupContext="shape" transform="translate(308.976,-243.78)">
					<title>工作表.30</title>
					<desc>作事</desc>
					<v:textBlock v:margins="rect(4,4,4,4)" v:tabSpace="42.5197"/>
					<v:textRect cx="36.8504" cy="640.963" width="73.71" height="73.7008"/>
					<rect x="0" y="604.112" width="73.7008" height="73.7008" class="st1"/>
					<text x="0.25em 3.356em" y="645.76" class="st2" v:langID="1028"><v:paragraph v:horizAlign="4"/><v:tabList/>作事</text>				</g>
				<g id="shape31-90" v:mID="31" v:groupContext="shape" transform="translate(308.976,-187.087)">
					<title>工作表.31</title>
					<desc>相攝</desc>
					<v:textBlock v:margins="rect(4,4,4,4)" v:tabSpace="42.5197"/>
					<v:textRect cx="36.8504" cy="640.963" width="73.71" height="73.7008"/>
					<rect x="0" y="604.112" width="73.7008" height="73.7008" class="st1"/>
					<text x="0.25em 3.356em" y="645.76" class="st2" v:langID="1028"><v:paragraph v:horizAlign="4"/><v:tabList/>相攝</text>				</g>
				<g id="shape32-93" v:mID="32" v:groupContext="shape" transform="translate(308.976,-144.567)">
					<title>工作表.32</title>
					<desc>行處</desc>
					<v:textBlock v:margins="rect(4,4,4,4)" v:tabSpace="42.5197"/>
					<v:textRect cx="36.8504" cy="640.963" width="73.71" height="73.7008"/>
					<rect x="0" y="604.112" width="73.7008" height="73.7008" class="st1"/>
					<text x="0.25em 3.356em" y="645.76" class="st2" v:langID="1028"><v:paragraph v:horizAlign="4"/><v:tabList/>行處</text>				</g>
				<g id="shape33-96" v:mID="33" v:groupContext="shape" transform="translate(308.976,-102.047)">
					<title>工作表.33</title>
					<desc>常住</desc>
					<v:textBlock v:margins="rect(4,4,4,4)" v:tabSpace="42.5197"/>
					<v:textRect cx="36.8504" cy="640.963" width="73.71" height="73.7008"/>
					<rect x="0" y="604.112" width="73.7008" height="73.7008" class="st1"/>
					<text x="0.25em 3.356em" y="645.76" class="st2" v:langID="1028"><v:paragraph v:horizAlign="4"/><v:tabList/>常住</text>				</g>
				<g id="shape34-99" v:mID="34" v:groupContext="shape" transform="translate(308.976,-45.3543)">
					<title>工作表.34</title>
					<desc>不共</desc>
					<v:textBlock v:margins="rect(4,4,4,4)" v:tabSpace="42.5197"/>
					<v:textRect cx="36.8504" cy="640.963" width="73.71" height="73.7008"/>
					<rect x="0" y="604.112" width="73.7008" height="73.7008" class="st1"/>
					<text x="0.25em 3.356em" y="645.76" class="st2" v:langID="1028"><v:paragraph v:horizAlign="4"/><v:tabList/>不共</text>				</g>
				<g id="shape35-102" v:mID="35" v:groupContext="shape" transform="translate(308.976,-2.83465)">
					<title>工作表.35</title>
					<desc>不可思惟</desc>
					<v:textBlock v:margins="rect(4,4,4,4)" v:tabSpace="42.5197"/>
					<v:textRect cx="36.8504" cy="640.963" width="73.71" height="73.7008"/>
					<rect x="0" y="604.112" width="73.7008" height="73.7008" class="st1"/>
					<text x="0.25em 1.285em 2.321em 3.356em" y="645.76" class="st2" v:langID="1028"><v:paragraph v:horizAlign="4"/><v:tabList/>不可思惟</text>				</g>
				<g id="shape37-105" v:mID="37" v:groupContext="shape" transform="translate(1094.51,269.624) rotate(90)">
					<title>工作表.37</title>
					<path d="M0 677.81 L283.46 677.81" class="st3"/>
				</g>
				<g id="shape38-108" v:mID="38" v:groupContext="shape" transform="translate(382.677,-450.709)">
					<title>工作表.38</title>
					<path d="M0 677.81 L14.17 677.81" class="st3"/>
				</g>
				<g id="shape39-111" v:mID="39" v:groupContext="shape" transform="translate(382.677,-39.685)">
					<title>工作表.39</title>
					<path d="M0 677.81 L14.17 677.81" class="st3"/>
				</g>
				<g id="shape40-114" v:mID="40" v:groupContext="shape" transform="translate(396.85,-252.283)">
					<title>工作表.40</title>
					<path d="M0 677.81 L8.5 677.81" class="st3"/>
				</g>
				<g id="shape41-117" v:mID="41" v:groupContext="shape" transform="translate(1074.66,227.104) rotate(90)">
					<title>工作表.41</title>
					<path d="M0 677.81 L411.02 677.81" class="st3"/>
				</g>
				<g id="shape42-120" v:mID="42" v:groupContext="shape" transform="translate(96.378,-422.362)">
					<title>工作表.42</title>
					<path d="M0 677.81 L8.5 677.81" class="st3"/>
				</g>
				<g id="shape44-123" v:mID="44" v:groupContext="shape" transform="translate(104.882,-294.803)">
					<title>工作表.44</title>
					<path d="M0 677.81 L14.17 677.81" class="st3"/>
				</g>
				<g id="shape45-126" v:mID="45" v:groupContext="shape" transform="translate(104.882,-549.921)">
					<title>工作表.45</title>
					<path d="M0 677.81 L14.17 677.81" class="st3"/>
				</g>
				<g id="shape46-129" v:mID="46" v:groupContext="shape" transform="translate(782.695,439.703) rotate(90)">
					<title>工作表.46</title>
					<path d="M0 677.81 L198.43 677.81" class="st3"/>
				</g>
				<g id="shape47-132" v:mID="47" v:groupContext="shape" transform="translate(104.882,-39.685)">
					<title>工作表.47</title>
					<path d="M0 677.81 L14.17 677.81" class="st3"/>
				</g>
				<g id="shape48-135" v:mID="48" v:groupContext="shape" transform="translate(104.882,-238.11)">
					<title>工作表.48</title>
					<path d="M0 677.81 L14.17 677.81" class="st3"/>
				</g>
				<g id="shape49-138" v:mID="49" v:groupContext="shape" transform="translate(96.378,-138.898)">
					<title>工作表.49</title>
					<path d="M0 677.81 L8.5 677.81" class="st3"/>
				</g>
				<g id="shape36-141" v:mID="36" v:groupContext="shape" transform="translate(147.402,-521.575)">
					<title>工作表.36</title>
					<path d="M0 677.81 L42.52 677.81" class="st3"/>
				</g>
				<g id="shape50-144" v:mID="50" v:groupContext="shape" transform="translate(530.604,-429.736) rotate(30.1735)">
					<title>工作表.50</title>
					<path d="M0 677.81 L140.99 677.81" class="st3"/>
				</g>
				<g id="shape51-147" v:mID="51" v:groupContext="shape" transform="translate(147.402,-493.228)">
					<title>工作表.51</title>
					<path d="M0 677.81 L42.52 677.81" class="st3"/>
				</g>
				<g id="shape52-150" v:mID="52" v:groupContext="shape" transform="translate(617.805,-341.101) rotate(39.144)">
					<title>工作表.52</title>
					<path d="M0 677.81 L157.16 677.81" class="st3"/>
				</g>
				<g id="shape53-153" v:mID="53" v:groupContext="shape" transform="translate(723.907,-232.895) rotate(51.9811)">
					<title>工作表.53</title>
					<path d="M0 677.81 L197.9 677.81" class="st3"/>
				</g>
				<g id="shape54-156" v:mID="54" v:groupContext="shape" transform="translate(147.402,-408.189)">
					<title>工作表.54</title>
					<path d="M0 677.81 L42.52 677.81" class="st3"/>
				</g>
				<g id="shape55-159" v:mID="55" v:groupContext="shape" transform="translate(825.719,569.852) rotate(130.696)">
					<title>工作表.55</title>
					<path d="M0 677.81 L186.94 677.81" class="st3"/>
				</g>
				<g id="shape56-162" v:mID="56" v:groupContext="shape" transform="translate(891.197,479.662) rotate(121.264)">
					<title>工作表.56</title>
					<path d="M0 677.81 L232.13 677.81" class="st3"/>
				</g>
				<g id="shape57-165" v:mID="57" v:groupContext="shape" transform="translate(910.398,445.891) rotate(117.979)">
					<title>工作表.57</title>
					<path d="M0 677.81 L256.79 677.81" class="st3"/>
				</g>
				<g id="shape58-168" v:mID="58" v:groupContext="shape" transform="translate(924.723,417.322) rotate(115.278)">
					<title>工作表.58</title>
					<path d="M0 677.81 L282.13 677.81" class="st3"/>
				</g>
				<g id="shape59-171" v:mID="59" v:groupContext="shape" transform="translate(147.402,-153.071)">
					<title>工作表.59</title>
					<path d="M0 677.81 L42.52 677.81" class="st3"/>
				</g>
				<g id="shape60-174" v:mID="60" v:groupContext="shape" transform="translate(147.402,-96.378)">
					<title>工作表.60</title>
					<path d="M0 677.81 L42.52 677.81" class="st3"/>
				</g>
				<g id="shape61-177" v:mID="61" v:groupContext="shape" transform="translate(147.402,-68.0315)">
					<title>工作表.61</title>
					<path d="M0 677.81 L42.52 677.81" class="st3"/>
				</g>
				<g id="shape62-180" v:mID="62" v:groupContext="shape" transform="translate(192.756,-39.685)">
					<title>工作表.62</title>
					<path d="M0 677.81 L119.06 677.81" class="st3"/>
				</g>
				<g id="shape63-183" v:mID="63" v:groupContext="shape" transform="translate(943.104,374.67) rotate(111.351)">
					<title>工作表.63</title>
					<path d="M0 677.81 L334.79 677.81" class="st3"/>
				</g>
				<g id="shape64-186" v:mID="64" v:groupContext="shape" transform="translate(801.864,865.455) rotate(133.698)">
					<title>工作表.64</title>
					<path d="M0 677.81 L176.43 677.81" class="st3"/>
				</g>
				<g id="shape65-189" v:mID="65" v:groupContext="shape" transform="translate(739.695,979.562) rotate(140.856)">
					<title>工作表.65</title>
					<path d="M0 677.81 L157.16 677.81" class="st3"/>
				</g>
				<g id="shape66-192" v:mID="66" v:groupContext="shape" transform="translate(699.643,1052.29) rotate(145.098)">
					<title>工作表.66</title>
					<path d="M0 677.81 L148.62 677.81" class="st3"/>
				</g>
				<g id="shape67-195" v:mID="67" v:groupContext="shape" transform="translate(652.494,1124.89) rotate(149.826)">
					<title>工作表.67</title>
					<path d="M0 677.81 L140.99 677.81" class="st3"/>
				</g>
				<g id="shape68-198" v:mID="68" v:groupContext="shape" transform="translate(34.0157,-649.134)">
					<title>工作表.68</title>
					<path d="M0 677.81 L439.37 677.81" class="st4"/>
				</g>
				<g id="shape69-201" v:mID="69" v:groupContext="shape" transform="translate(34.0157,0)">
					<title>工作表.69</title>
					<path d="M0 677.81 L439.37 677.81" class="st4"/>
				</g>
				<g id="shape70-204" v:mID="70" v:groupContext="shape" transform="translate(1151.2,28.6791) rotate(90)">
					<title>工作表.70</title>
					<path d="M0 677.81 L649.13 677.81" class="st4"/>
				</g>
				<g id="shape71-207" v:mID="71" v:groupContext="shape" transform="translate(711.829,28.6791) rotate(90)">
					<title>工作表.71</title>
					<path d="M0 677.81 L649.13 677.81" class="st4"/>
				</g>
				<g id="shape12-210" v:mID="12" v:groupContext="shape" transform="translate(147.402,-549.921)">
					<title>工作表.12</title>
					<path d="M0 677.81 L164.41 677.81" class="st3"/>
				</g>
				<g id="shape72-213" v:mID="72" v:groupContext="shape" transform="translate(63.7795,-592.441)">
					<title>工作表.72</title>
					<path d="M0 677.81 L138.9 677.81" class="st5"/>
				</g>
				<g id="shape73-216" v:mID="73" v:groupContext="shape" transform="translate(308.976,-592.441)">
					<title>工作表.73</title>
					<path d="M0 677.81 L113.39 677.81" class="st5"/>
				</g>
			</g>
			<g id="shape43-219" v:mID="43" v:groupContext="shape" transform="translate(782.695,127.892) rotate(90)">
				<title>工作表.43</title>
				<path d="M0 677.81 L255.12 677.81" class="st3"/>
			</g>
			<g id="shape75-222" v:mID="75" v:groupContext="shape" transform="translate(768.522,184.585) rotate(90)">
				<title>工作表.75</title>
				<path d="M0 677.81 L141.73 677.81" class="st3"/>
			</g>
			<g id="shape76-225" v:mID="76" v:groupContext="shape" transform="translate(768.522,482.222) rotate(90)">
				<title>工作表.76</title>
				<path d="M0 677.81 L119.06 677.81" class="st3"/>
			</g>
		</g>
	</g>
</svg>
