<?xml version="1.0" encoding="UTF-8" standalone="no"?>
<!DOCTYPE svg PUBLIC "-//W3C//DTD SVG 1.1//EN" "http://www.w3.org/Graphics/SVG/1.1/DTD/svg11.dtd">
<!-- 由 Microsoft Visio, SVG Export 產生 y39.0163-h.svg 頁-1 -->
<svg xmlns="http://www.w3.org/2000/svg" xmlns:xlink="http://www.w3.org/1999/xlink" xmlns:ev="http://www.w3.org/2001/xml-events"
		width="6.61967in" height="1.50648in" viewBox="0 0 476.616 108.467" xml:space="preserve" color-interpolation-filters="sRGB"
		class="st4">
	<style type="text/css">
	<![CDATA[
		.st1 {fill:none;stroke:none;stroke-linecap:round;stroke-linejoin:round;stroke-width:0.75}
		.st2 {fill:#000000;font-family:新細明體;font-size:1.33333em}
		.st3 {stroke:#000000;stroke-linecap:round;stroke-linejoin:round;stroke-width:1}
		.st4 {fill:none;fill-rule:evenodd;font-size:12px;overflow:visible;stroke-linecap:square;stroke-miterlimit:3}
	]]>
	</style>

	<g>
		<title>頁-1</title>
		<g id="group17-1" transform="translate(0.375,-0.375)">
			<title>工作表.17</title>
			<g id="shape1-2" transform="translate(-3.19744E-14,-56.6929)">
				<title>工作表.1</title>
				<desc>生佛不二</desc>
				<rect x="0" y="85.7894" width="73.7008" height="22.6772" class="st1"/>
				<text x="4.85" y="101.93" class="st2">生佛不二</text>			</g>
			<g id="shape2-5" transform="translate(110.551,-85.0394)">
				<title>工作表.2</title>
				<desc>眾生因位如來在纏名如來藏</desc>
				<rect x="0" y="85.7894" width="232.441" height="22.6772" class="st1"/>
				<text x="4.22" y="101.93" class="st2">眾生因位（如來在纏名如來藏）</text>			</g>
			<g id="shape4-8" transform="translate(110.551,-28.3465)">
				<title>工作表.4</title>
				<desc>如來果位眾生出纏名為法身</desc>
				<rect x="0" y="85.7894" width="232.441" height="22.6772" class="st1"/>
				<text x="4.22" y="101.93" class="st2">如來果位（眾生出纏名為法身）</text>			</g>
			<g id="shape8-11" transform="translate(73.7008,-68.0315)">
				<title>工作表.8</title>
				<path d="M0 108.47 L25.51 108.47" class="st3"/>
			</g>
			<g id="shape9-14" transform="translate(99.2126,-96.378)">
				<title>工作表.9</title>
				<path d="M0 108.47 L14.17 108.47" class="st3"/>
			</g>
			<g id="shape10-17" transform="translate(99.2126,-39.685)">
				<title>工作表.10</title>
				<path d="M0 108.47 L14.17 108.47" class="st3"/>
			</g>
			<g id="shape16-20" transform="translate(-9.25394,68.7815) rotate(-90)">
				<title>工作表.16</title>
				<path d="M0 108.47 L56.69 108.47" class="st3"/>
			</g>
			<g id="shape11-23" transform="translate(354.685,-68.0315)">
				<title>工作表.11</title>
				<path d="M0 108.47 L14.17 108.47" class="st3"/>
			</g>
			<g id="shape12-26" transform="translate(354.685,-11.3386)">
				<title>工作表.12</title>
				<path d="M0 108.47 L14.17 108.47" class="st3"/>
			</g>
			<g id="shape13-29" transform="translate(340.512,-96.378)">
				<title>工作表.13</title>
				<path d="M0 108.47 L28.35 108.47" class="st3"/>
			</g>
			<g id="shape14-32" transform="translate(340.512,-39.685)">
				<title>工作表.14</title>
				<path d="M0 108.47 L14.17 108.47" class="st3"/>
			</g>
			<g id="shape3-35" transform="translate(369.567,-85.0394)">
				<title>工作表.3</title>
				<desc>佛界</desc>
				<rect x="0" y="85.7894" width="42.5197" height="22.6772" class="st1"/>
				<text x="5.26" y="101.93" class="st2">佛界</text>			</g>
			<g id="shape5-38" transform="translate(370.984,-56.6929)">
				<title>工作表.5</title>
				<desc>實體菩提</desc>
				<rect x="0" y="85.7894" width="104.882" height="22.6772" class="st1"/>
				<text x="4.44" y="101.93" class="st2">實體（菩提）</text>			</g>
			<g id="shape6-41" transform="translate(369.567,-28.3465)">
				<title>工作表.6</title>
				<desc>德相</desc>
				<rect x="0" y="85.7894" width="42.5197" height="22.6772" class="st1"/>
				<text x="5.26" y="101.93" class="st2">德相</text>			</g>
			<g id="shape7-44" transform="translate(369.567,-1.42109E-14)">
				<title>工作表.7</title>
				<desc>業用</desc>
				<rect x="0" y="85.7894" width="42.5197" height="22.6772" class="st1"/>
				<text x="5.26" y="101.93" class="st2">業用</text>			</g>
			<g id="shape15-47" transform="translate(246.219,40.435) rotate(-90) scale(-1,1)">
				<title>工作表.15</title>
				<path d="M0 108.47 L56.69 108.47" class="st3"/>
			</g>
		</g>
	</g>
</svg>
