<?xml version="1.0" encoding="UTF-8" standalone="no"?>
<!DOCTYPE svg PUBLIC "-//W3C//DTD SVG 1.1//EN" "http://www.w3.org/Graphics/SVG/1.1/DTD/svg11.dtd">
<!-- 由 Microsoft Visio, SVG Export 產生 y39.0063.svg 頁-1 -->
<svg xmlns="http://www.w3.org/2000/svg" xmlns:xlink="http://www.w3.org/1999/xlink" xmlns:ev="http://www.w3.org/2001/xml-events"
		width="5.80569in" height="4.86845in" viewBox="0 0 418.01 350.529" xml:space="preserve" color-interpolation-filters="sRGB"
		class="st5">
	<style type="text/css">
	<![CDATA[
		.st1 {fill:none;stroke:none;stroke-linecap:round;stroke-linejoin:round;stroke-width:0.75}
		.st2 {fill:#000000;font-family:新細明體;font-size:1.33333em}
		.st3 {fill:#000000;font-family:Times New Roman;font-size:1.33333em}
		.st4 {stroke:#000000;stroke-linecap:round;stroke-linejoin:round;stroke-width:1}
		.st5 {fill:none;fill-rule:evenodd;font-size:12px;overflow:visible;stroke-linecap:square;stroke-miterlimit:3}
	]]>
	</style>

	<g>
		<title>頁-1</title>
		<g id="group54-1" transform="translate(0.375,-38.2175)">
			<title>工作表.54</title>
			<g id="shape1-2" transform="translate(8.50394,-287.717)">
				<title>工作表.1</title>
				<desc>六十華嚴</desc>
				<rect x="0" y="327.851" width="73.7008" height="22.6772" class="st1"/>
				<text x="4.85" y="343.99" class="st2">六十華嚴</text>			</g>
			<g id="shape4-5" transform="translate(3.9968E-14,-259.37)">
				<title>工作表.4</title>
				<desc>初發心</desc>
				<rect x="0" y="327.851" width="56.6929" height="22.6772" class="st1"/>
				<text x="4.35" y="343.99" class="st2">初發心</text>			</g>
			<g id="shape6-8" transform="translate(0.967531,91.1585) rotate(-90)">
				<title>工作表.6</title>
				<desc>prathamacittotpādika</desc>
				<rect x="0" y="203.127" width="22.6772" height="147.402" class="st1"/>
				<text x="13.55" y="209.3" writing-mode="tb-rl" class="st3">prathamacittotpādika</text>			</g>
			<g id="shape7-11" transform="translate(-3.59712E-14,-231.024)">
				<title>工作表.7</title>
				<desc>治地</desc>
				<rect x="0" y="327.851" width="42.5197" height="22.6772" class="st1"/>
				<text x="5.26" y="343.99" class="st2">治地</text>			</g>
			<g id="shape9-14" transform="translate(-61.3947,120.922) rotate(-90)">
				<title>工作表.9</title>
				<desc>ādikarmika</desc>
				<rect x="0" y="265.489" width="22.6772" height="85.0394" class="st1"/>
				<text x="13.55" y="272.02" writing-mode="tb-rl" class="st3">ādikarmika</text>			</g>
			<g id="shape10-17" transform="translate(5.9952E-14,-202.677)">
				<title>工作表.10</title>
				<desc>修行</desc>
				<rect x="0" y="327.851" width="42.5197" height="22.6772" class="st1"/>
				<text x="5.26" y="343.99" class="st2">修行</text>			</g>
			<g id="shape12-20" transform="translate(-78.4025,147.851) rotate(-90)">
				<title>工作表.12</title>
				<desc>yogācāra</desc>
				<rect x="0" y="282.497" width="22.6772" height="68.0315" class="st1"/>
				<text x="13.55" y="287.65" writing-mode="tb-rl" class="st3">yogācāra</text>			</g>
			<g id="shape13-23" transform="translate(1.51879E-13,-175.748)">
				<title>工作表.13</title>
				<desc>生貴</desc>
				<rect x="0" y="327.851" width="42.5197" height="22.6772" class="st1"/>
				<text x="5.26" y="343.99" class="st2">生貴</text>			</g>
			<g id="shape15-26" transform="translate(-75.5679,176.198) rotate(-90)">
				<title>工作表.15</title>
				<desc>janmaja</desc>
				<rect x="0" y="279.662" width="22.6772" height="70.8661" class="st1"/>
				<text x="13.55" y="289.78" writing-mode="tb-rl" class="st3">janmaja</text>			</g>
			<g id="shape17-29" transform="translate(4.31655E-13,-145.984)">
				<title>工作表.17</title>
				<desc>方便道</desc>
				<rect x="0" y="327.851" width="56.6929" height="22.6772" class="st1"/>
				<text x="4.35" y="343.99" class="st2">方便道</text>			</g>
			<g id="shape20-32" transform="translate(5.43565E-13,-117.638)">
				<title>工作表.20</title>
				<desc>成就直心</desc>
				<rect x="0" y="327.851" width="73.7008" height="22.6772" class="st1"/>
				<text x="4.85" y="343.99" class="st2">成就直心</text>			</g>
			<g id="shape23-35" transform="translate(4.39648E-13,-89.2913)">
				<title>工作表.23</title>
				<desc>不退</desc>
				<rect x="0" y="327.851" width="42.5197" height="22.6772" class="st1"/>
				<text x="5.26" y="343.99" class="st2">不退</text>			</g>
			<g id="shape26-38" transform="translate(5.43565E-13,-60.9449)">
				<title>工作表.26</title>
				<desc>童真</desc>
				<rect x="0" y="327.851" width="42.5197" height="22.6772" class="st1"/>
				<text x="5.26" y="343.99" class="st2">童真</text>			</g>
			<g id="shape29-41" transform="translate(6.71463E-13,-32.5984)">
				<title>工作表.29</title>
				<desc>深忍</desc>
				<rect x="0" y="327.851" width="42.5197" height="22.6772" class="st1"/>
				<text x="5.26" y="343.99" class="st2">深忍</text>			</g>
			<g id="shape32-44" transform="translate(7.63389E-13,-4.25197)">
				<title>工作表.32</title>
				<desc>灌頂</desc>
				<rect x="0" y="327.851" width="42.5197" height="22.6772" class="st1"/>
				<text x="5.26" y="343.99" class="st2">灌頂</text>			</g>
			<g id="shape36-47" transform="translate(-259.82,350.529) rotate(-90)">
				<title>工作表.36</title>
				<path d="M0 350.53 L311.81 350.53" class="st4"/>
			</g>
			<g id="shape16-50" transform="translate(-160.607,350.529) rotate(-90)">
				<title>工作表.16</title>
				<path d="M0 350.53 L311.81 350.53" class="st4"/>
			</g>
			<g id="shape2-53" transform="translate(103.465,-287.717)">
				<title>工作表.2</title>
				<desc>八十華嚴</desc>
				<rect x="0" y="327.851" width="73.7008" height="22.6772" class="st1"/>
				<text x="4.85" y="343.99" class="st2">八十華嚴</text>			</g>
			<g id="shape5-56" transform="translate(94.9606,-259.37)">
				<title>工作表.5</title>
				<desc>初發心</desc>
				<rect x="0" y="327.851" width="56.6929" height="22.6772" class="st1"/>
				<text x="4.35" y="343.99" class="st2">初發心</text>			</g>
			<g id="shape8-59" transform="translate(94.9606,-231.024)">
				<title>工作表.8</title>
				<desc>新學</desc>
				<rect x="0" y="327.851" width="42.5197" height="22.6772" class="st1"/>
				<text x="5.26" y="343.99" class="st2">新學</text>			</g>
			<g id="shape11-62" transform="translate(94.9606,-202.677)">
				<title>工作表.11</title>
				<desc>修行</desc>
				<rect x="0" y="327.851" width="42.5197" height="22.6772" class="st1"/>
				<text x="5.26" y="343.99" class="st2">修行</text>			</g>
			<g id="shape14-65" transform="translate(94.9606,-174.331)">
				<title>工作表.14</title>
				<desc>生貴</desc>
				<rect x="0" y="327.851" width="42.5197" height="22.6772" class="st1"/>
				<text x="5.26" y="343.99" class="st2">生貴</text>			</g>
			<g id="shape18-68" transform="translate(94.9606,-145.984)">
				<title>工作表.18</title>
				<desc>方便具足</desc>
				<rect x="0" y="327.851" width="73.7008" height="22.6772" class="st1"/>
				<text x="4.85" y="343.99" class="st2">方便具足</text>			</g>
			<g id="shape21-71" transform="translate(94.9606,-117.638)">
				<title>工作表.21</title>
				<desc>成就正心</desc>
				<rect x="0" y="327.851" width="73.7008" height="22.6772" class="st1"/>
				<text x="4.85" y="343.99" class="st2">成就正心</text>			</g>
			<g id="shape24-74" transform="translate(94.9606,-89.2913)">
				<title>工作表.24</title>
				<desc>不退</desc>
				<rect x="0" y="327.851" width="42.5197" height="22.6772" class="st1"/>
				<text x="5.26" y="343.99" class="st2">不退</text>			</g>
			<g id="shape27-77" transform="translate(94.9606,-60.9449)">
				<title>工作表.27</title>
				<desc>童子</desc>
				<rect x="0" y="327.851" width="42.5197" height="22.6772" class="st1"/>
				<text x="5.26" y="343.99" class="st2">童子</text>			</g>
			<g id="shape30-80" transform="translate(94.9606,-32.5984)">
				<title>工作表.30</title>
				<desc>法王子</desc>
				<rect x="0" y="327.851" width="56.6929" height="22.6772" class="st1"/>
				<text x="4.35" y="343.99" class="st2">法王子</text>			</g>
			<g id="shape33-83" transform="translate(94.9606,-4.25197)">
				<title>工作表.33</title>
				<desc>灌頂</desc>
				<rect x="0" y="327.851" width="42.5197" height="22.6772" class="st1"/>
				<text x="5.26" y="343.99" class="st2">灌頂</text>			</g>
			<g id="shape41-86" transform="translate(-55.7254,64.2293) rotate(-90)">
				<title>工作表.41</title>
				<desc>Gaṇḍavyūha</desc>
				<rect x="0" y="259.82" width="22.6772" height="90.7087" class="st1"/>
				<text x="13.55" y="264.74" writing-mode="tb-rl" class="st3">Gaṇḍavyūha</text>			</g>
			<g id="shape46-89" transform="translate(0.967531,205.962) rotate(-90)">
				<title>工作表.46</title>
				<desc>pūrvayogasaṃpanna</desc>
				<rect x="0" y="203.127" width="22.6772" height="147.402" class="st1"/>
				<text x="13.55" y="211.07" writing-mode="tb-rl" class="st3">pūrvayogasaṃpanna</text>			</g>
			<g id="shape47-92" transform="translate(-33.0482,234.308) rotate(-90)">
				<title>工作表.47</title>
				<desc>śuddhādhyāśaya</desc>
				<rect x="0" y="236.853" width="22.6772" height="113.676" class="st1"/>
				<text x="13.55" y="241.26" writing-mode="tb-rl" class="st3">śuddhādhyāśaya</text>			</g>
			<g id="shape48-95" transform="translate(-75.5679,262.655) rotate(-90)">
				<title>工作表.48</title>
				<desc>avivartya</desc>
				<rect x="0" y="276.828" width="22.6772" height="73.7008" class="st1"/>
				<text x="13.55" y="283.92" writing-mode="tb-rl" class="st3">avivartya</text>			</g>
			<g id="shape49-98" transform="translate(-52.8907,291.001) rotate(-90)">
				<title>工作表.49</title>
				<desc>kumārabhūta</desc>
				<rect x="0" y="256.985" width="22.6772" height="93.5433" class="st1"/>
				<text x="13.55" y="262" writing-mode="tb-rl" class="st3">kumārabhūta</text>			</g>
			<g id="shape50-101" transform="translate(66.7313,316.513) rotate(-90)">
				<title>工作表.50</title>
				<desc>mahādharmayauvarājyābhiṣikta</desc>
				<rect x="0" y="134.529" width="22.6772" height="216" class="st1"/>
				<text x="13.55" y="140.79" writing-mode="tb-rl" class="st3">mahādharmayauvarājyābhiṣikta</text>			</g>
			<g id="group53-104" transform="translate(-41.5522,347.694) rotate(-90)">
				<title>工作表.53</title>
				<g id="shape51-105" transform="translate(-40.6772,5.68434E-14)">
					<title>工作表.51</title>
					<desc>abhiṣekaprāpta</desc>
					<rect x="0" y="246.497" width="104.031" height="104.031" class="st1"/>
					<text x="54.23" y="250.54" writing-mode="tb-rl" class="st3">abhiṣekaprāpta</text>				</g>
			</g>
		</g>
	</g>
</svg>
