<?xml version="1.0" encoding="UTF-8" standalone="no"?>
<!DOCTYPE svg PUBLIC "-//W3C//DTD SVG 1.1//EN" "http://www.w3.org/Graphics/SVG/1.1/DTD/svg11.dtd">
<!-- 由 Microsoft Visio, SVG Export 產生 y39.0267-h.svg 頁-1 -->
<svg xmlns="http://www.w3.org/2000/svg" xmlns:xlink="http://www.w3.org/1999/xlink" xmlns:ev="http://www.w3.org/2001/xml-events"
		width="4.75451in" height="1.90018in" viewBox="0 0 342.325 136.813" xml:space="preserve" color-interpolation-filters="sRGB"
		class="st5">
	<style type="text/css">
	<![CDATA[
		.st1 {fill:none;stroke:none;stroke-linecap:round;stroke-linejoin:round;stroke-width:0.75}
		.st2 {fill:#000000;font-family:新細明體;font-size:1.33333em}
		.st3 {stroke:#000000;stroke-linecap:round;stroke-linejoin:round;stroke-width:1}
		.st4 {stroke:#000000;stroke-dasharray:0,4.5;stroke-linecap:round;stroke-linejoin:round;stroke-width:1.5}
		.st5 {fill:none;fill-rule:evenodd;font-size:12px;overflow:visible;stroke-linecap:square;stroke-miterlimit:3}
	]]>
	</style>

	<g>
		<title>頁-1</title>
		<g id="group28-1" transform="translate(0.375,-0.375)">
			<title>工作表.28</title>
			<g id="shape1-2" transform="translate(1.41732,-113.386)">
				<title>工作表.1</title>
				<desc>佛</desc>
				<rect x="0" y="114.136" width="22.6772" height="22.6772" class="st1"/>
				<text x="4" y="130.27" class="st2">佛</text>			</g>
			<g id="shape2-5" transform="translate(97.7953,-113.386)">
				<title>工作表.2</title>
				<desc>常樂我淨真實善</desc>
				<rect x="0" y="114.136" width="127.559" height="22.6772" class="st1"/>
				<text x="7.78" y="130.27" class="st2">常樂我淨真實善</text>			</g>
			<g id="shape3-8" transform="translate(283.465,-113.386)">
				<title>工作表.3</title>
				<desc>了了見</desc>
				<rect x="0" y="114.136" width="56.6929" height="22.6772" class="st1"/>
				<text x="4.35" y="130.27" class="st2">了了見</text>			</g>
			<g id="shape4-11" transform="translate(-3.59712E-14,-85.0394)">
				<title>工作表.4</title>
				<desc>十住</desc>
				<rect x="0" y="114.136" width="42.5197" height="22.6772" class="st1"/>
				<text x="5.26" y="130.27" class="st2">十住</text>			</g>
			<g id="shape5-14" transform="translate(148.819,-85.0394)">
				<title>工作表.5</title>
				<desc>淨真實善</desc>
				<rect x="0" y="114.136" width="73.7008" height="22.6772" class="st1"/>
				<text x="4.85" y="130.27" class="st2">淨真實善</text>			</g>
			<g id="shape6-17" transform="translate(283.465,-85.0394)">
				<title>工作表.6</title>
				<desc>少分見</desc>
				<rect x="0" y="114.136" width="56.6929" height="22.6772" class="st1"/>
				<text x="4.35" y="130.27" class="st2">少分見</text>			</g>
			<g id="shape7-20" transform="translate(5.9952E-14,-56.6929)">
				<title>工作表.7</title>
				<desc>九住</desc>
				<rect x="0" y="114.136" width="42.5197" height="22.6772" class="st1"/>
				<text x="5.26" y="130.27" class="st2">九住</text>			</g>
			<g id="shape8-23" transform="translate(102.047,-85.0394)">
				<title>工作表.8</title>
				<desc>常</desc>
				<rect x="0" y="114.136" width="22.6772" height="22.6772" class="st1"/>
				<text x="4" y="130.27" class="st2">常</text>			</g>
			<g id="shape9-26" transform="translate(148.819,-56.6929)">
				<title>工作表.9</title>
				<desc>淨真實善</desc>
				<rect x="0" y="114.136" width="73.7008" height="22.6772" class="st1"/>
				<text x="4.85" y="130.27" class="st2">淨真實善</text>			</g>
			<g id="shape10-29" transform="translate(299.055,-56.6929)">
				<title>工作表.10</title>
				<desc>可見</desc>
				<rect x="0" y="114.136" width="42.5197" height="22.6772" class="st1"/>
				<text x="5.26" y="130.27" class="st2">可見</text>			</g>
			<g id="shape11-32" transform="translate(1.91847E-13,-28.3465)">
				<title>工作表.11</title>
				<desc>六至八住</desc>
				<rect x="0" y="114.136" width="73.7008" height="22.6772" class="st1"/>
				<text x="4.85" y="130.27" class="st2">六至八住</text>			</g>
			<g id="shape12-35">
				<title>工作表.12</title>
				<desc>初至五住</desc>
				<rect x="0" y="114.136" width="73.7008" height="22.6772" class="st1"/>
				<text x="4.85" y="130.27" class="st2">初至五住</text>			</g>
			<g id="shape13-38" transform="translate(148.819,-5.68434E-13)">
				<title>工作表.13</title>
				<desc>淨真實善不善</desc>
				<rect x="0" y="114.136" width="104.882" height="22.6772" class="st1"/>
				<text x="4.44" y="130.27" class="st2">淨真實善不善</text>			</g>
			<g id="shape14-41" transform="translate(102.047,-56.6929)">
				<title>工作表.14</title>
				<desc>常</desc>
				<rect x="0" y="114.136" width="22.6772" height="22.6772" class="st1"/>
				<text x="4" y="130.27" class="st2">常</text>			</g>
			<g id="shape15-44" transform="translate(148.819,-28.3465)">
				<title>工作表.15</title>
				<desc>淨真實善</desc>
				<rect x="0" y="114.136" width="73.7008" height="22.6772" class="st1"/>
				<text x="4.85" y="130.27" class="st2">淨真實善</text>			</g>
			<g id="shape16-47" transform="translate(299.055,-28.3465)">
				<title>工作表.16</title>
				<desc>可見</desc>
				<rect x="0" y="114.136" width="42.5197" height="22.6772" class="st1"/>
				<text x="5.26" y="130.27" class="st2">可見</text>			</g>
			<g id="shape17-50" transform="translate(299.055,-9.37916E-13)">
				<title>工作表.17</title>
				<desc>可見</desc>
				<rect x="0" y="114.136" width="42.5197" height="22.6772" class="st1"/>
				<text x="5.26" y="130.27" class="st2">可見</text>			</g>
			<g id="shape18-53" transform="translate(28.3465,-124.724)">
				<title>工作表.18</title>
				<path d="M0 136.81 L70.87 136.81" class="st3"/>
			</g>
			<g id="shape19-56" transform="translate(42.5197,-96.378)">
				<title>工作表.19</title>
				<path d="M0 136.81 L56.69 136.81" class="st3"/>
			</g>
			<g id="shape20-59" transform="translate(42.5197,-68.0315)">
				<title>工作表.20</title>
				<path d="M0 136.81 L56.69 136.81" class="st3"/>
			</g>
			<g id="shape21-62" transform="translate(70.8661,-39.685)">
				<title>工作表.21</title>
				<path d="M0 136.81 L28.35 136.81" class="st3"/>
			</g>
			<g id="shape22-65" transform="translate(70.8661,-11.3386)">
				<title>工作表.22</title>
				<path d="M0 136.81 L28.35 136.81" class="st3"/>
			</g>
			<g id="shape23-68" transform="translate(255.118,-11.3386)">
				<title>工作表.23</title>
				<path d="M0 136.81 L42.52 136.81" class="st4"/>
			</g>
			<g id="shape24-71" transform="translate(221.102,-39.685)">
				<title>工作表.24</title>
				<path d="M0 136.81 L77.95 136.81" class="st4"/>
			</g>
			<g id="shape25-74" transform="translate(221.102,-68.0315)">
				<title>工作表.25</title>
				<path d="M0 136.81 L77.95 136.81" class="st4"/>
			</g>
			<g id="shape26-77" transform="translate(222.52,-96.378)">
				<title>工作表.26</title>
				<path d="M0 136.81 L60.94 136.81" class="st4"/>
			</g>
			<g id="shape27-80" transform="translate(222.52,-124.724)">
				<title>工作表.27</title>
				<path d="M0 136.81 L60.94 136.81" class="st4"/>
			</g>
		</g>
	</g>
</svg>
