<?xml version="1.0" encoding="UTF-8" standalone="no"?>
<!DOCTYPE svg PUBLIC "-//W3C//DTD SVG 1.0//EN" "http://www.w3.org/TR/2001/REC-SVG-20010904/DTD/svg10.dtd">
<!-- 由 Microsoft Visio 11.0, SVG Export, v1.0 產生 y39.0267.svg Page-1 -->
<svg xmlns="http://www.w3.org/2000/svg" xmlns:xlink="http://www.w3.org/1999/xlink" xmlns:ev="http://www.w3.org/2001/xml-events"
		xmlns:v="http://schemas.microsoft.com/visio/2003/SVGExtensions/" width="6.03959in" height="3.70981in"
		viewBox="0 0 434.85 267.106" xml:space="preserve" color-interpolation-filters="sRGB" class="st6">
	<v:documentProperties v:langID="1028" v:metric="true" v:viewMarkup="false">
		<v:userDefs>
			<v:ud v:nameU="msvSubprocessMaster" v:prompt="" v:val="VT4(Box)"/>
			<v:ud v:nameU="msvNoAutoConnect" v:val="VT0(1):26"/>
		</v:userDefs>
	</v:documentProperties>

	<style type="text/css">
	<![CDATA[
		.st1 {fill:none;stroke:none;stroke-linecap:round;stroke-linejoin:round;stroke-width:0.75}
		.st2 {fill:#000000;font-family:新細明體;font-size:1.33333em}
		.st3 {stroke:#000000;stroke-linecap:round;stroke-linejoin:round;stroke-width:1}
		.st4 {stroke:#000000;stroke-dasharray:0,4.5;stroke-linecap:round;stroke-linejoin:round;stroke-width:1.5}
		.st5 {stroke:#ffffff;stroke-linecap:round;stroke-linejoin:round;stroke-opacity:0;stroke-width:1}
		.st6 {fill:none;fill-rule:evenodd;font-size:12px;overflow:visible;stroke-linecap:square;stroke-miterlimit:3}
	]]>
	</style>

	<g v:mID="0" v:index="1" v:groupContext="foregroundPage">
		<title>頁-1</title>
		<v:pageProperties v:drawingScale="0.0393701" v:pageScale="0.0393701" v:drawingUnits="24" v:shadowOffsetX="8.50394"
				v:shadowOffsetY="-8.50394"/>
		<g id="group32-1" transform="translate(148.744,248.356) rotate(-90)" v:mID="32" v:groupContext="group">
			<title>工作表.32</title>
			<g id="shape1-2" v:mID="1" v:groupContext="shape" transform="translate(421.594,-99.9803) rotate(90)">
				<title>工作表.1</title>
				<desc>佛</desc>
				<v:textBlock v:margins="rect(4,4,4,4)" v:tabSpace="42.5197"/>
				<v:textRect cx="11.3386" cy="255.768" width="22.68" height="22.6772"/>
				<rect x="0" y="244.429" width="22.6772" height="22.6772" class="st1"/>
				<text x="4" y="260.57" class="st2" v:langID="1028"><v:paragraph v:horizAlign="1"/><v:tabList/>佛</text>			</g>
			<g id="shape2-5" v:mID="2" v:groupContext="shape" transform="translate(369.154,-3.60236) rotate(90)">
				<title>工作表.2</title>
				<desc>常樂我淨真實善</desc>
				<v:textBlock v:margins="rect(4,4,4,4)" v:tabSpace="42.5197"/>
				<v:textRect cx="63.7795" cy="203.327" width="127.56" height="127.559"/>
				<rect x="0" y="139.547" width="127.559" height="127.559" class="st1"/>
				<text x="7.78" y="208.13" class="st2" v:langID="1028"><v:paragraph v:horizAlign="1"/><v:tabList/>常樂我淨真實善</text>			</g>
			<g id="shape3-8" v:mID="3" v:groupContext="shape" transform="translate(404.587,182.067) rotate(90)">
				<title>工作表.3</title>
				<desc>了了見</desc>
				<v:textBlock v:margins="rect(4,4,4,4)" v:tabSpace="42.5197"/>
				<v:textRect cx="28.3465" cy="238.76" width="56.7" height="56.6929"/>
				<rect x="0" y="210.413" width="56.6929" height="56.6929" class="st1"/>
				<text x="4.35" y="243.56" class="st2" v:langID="1028"><v:paragraph v:horizAlign="1"/><v:tabList/>了了見</text>			</g>
			<g id="shape4-11" v:mID="4" v:groupContext="shape" transform="translate(383.327,-101.398) rotate(90)">
				<title>工作表.4</title>
				<desc>十住</desc>
				<v:textBlock v:margins="rect(4,4,4,4)" v:tabSpace="42.5197"/>
				<v:textRect cx="21.2598" cy="245.846" width="42.52" height="42.5197"/>
				<rect x="0" y="224.587" width="42.5197" height="42.5197" class="st1"/>
				<text x="5.26" y="250.65" class="st2" v:langID="1028"><v:paragraph v:horizAlign="1"/><v:tabList/>十住</text>			</g>
			<g id="shape5-14" v:mID="5" v:groupContext="shape" transform="translate(367.736,47.4213) rotate(90)">
				<title>工作表.5</title>
				<desc>淨真實善</desc>
				<v:textBlock v:margins="rect(4,4,4,4)" v:tabSpace="42.5197"/>
				<v:textRect cx="36.8504" cy="230.256" width="73.71" height="73.7008"/>
				<rect x="0" y="193.406" width="73.7008" height="73.7008" class="st1"/>
				<text x="4.85" y="235.06" class="st2" v:langID="1028"><v:paragraph v:horizAlign="1"/><v:tabList/>淨真實善</text>			</g>
			<g id="shape6-17" v:mID="6" v:groupContext="shape" transform="translate(376.24,182.067) rotate(90)">
				<title>工作表.6</title>
				<desc>少分見</desc>
				<v:textBlock v:margins="rect(4,4,4,4)" v:tabSpace="42.5197"/>
				<v:textRect cx="28.3465" cy="238.76" width="56.7" height="56.6929"/>
				<rect x="0" y="210.413" width="56.6929" height="56.6929" class="st1"/>
				<text x="4.35" y="243.56" class="st2" v:langID="1028"><v:paragraph v:horizAlign="1"/><v:tabList/>少分見</text>			</g>
			<g id="shape7-20" v:mID="7" v:groupContext="shape" transform="translate(354.98,-101.398) rotate(90)">
				<title>工作表.7</title>
				<desc>九住</desc>
				<v:textBlock v:margins="rect(4,4,4,4)" v:tabSpace="42.5197"/>
				<v:textRect cx="21.2598" cy="245.846" width="42.52" height="42.5197"/>
				<rect x="0" y="224.587" width="42.5197" height="42.5197" class="st1"/>
				<text x="5.26" y="250.65" class="st2" v:langID="1028"><v:paragraph v:horizAlign="1"/><v:tabList/>九住</text>			</g>
			<g id="shape8-23" v:mID="8" v:groupContext="shape" transform="translate(393.248,0.649606) rotate(90)">
				<title>工作表.8</title>
				<desc>常</desc>
				<v:textBlock v:margins="rect(4,4,4,4)" v:tabSpace="42.5197"/>
				<v:textRect cx="11.3386" cy="255.768" width="22.68" height="22.6772"/>
				<rect x="0" y="244.429" width="22.6772" height="22.6772" class="st1"/>
				<text x="4" y="260.57" class="st2" v:langID="1028"><v:paragraph v:horizAlign="1"/><v:tabList/>常</text>			</g>
			<g id="shape9-26" v:mID="9" v:groupContext="shape" transform="translate(339.39,47.4213) rotate(90)">
				<title>工作表.9</title>
				<desc>淨真實善</desc>
				<v:textBlock v:margins="rect(4,4,4,4)" v:tabSpace="42.5197"/>
				<v:textRect cx="36.8504" cy="230.256" width="73.71" height="73.7008"/>
				<rect x="0" y="193.406" width="73.7008" height="73.7008" class="st1"/>
				<text x="4.85" y="235.06" class="st2" v:langID="1028"><v:paragraph v:horizAlign="1"/><v:tabList/>淨真實善</text>			</g>
			<g id="shape10-29" v:mID="10" v:groupContext="shape" transform="translate(354.98,197.657) rotate(90)">
				<title>工作表.10</title>
				<desc>可見</desc>
				<v:textBlock v:margins="rect(4,4,4,4)" v:tabSpace="42.5197"/>
				<v:textRect cx="21.2598" cy="245.846" width="42.52" height="42.5197"/>
				<rect x="0" y="224.587" width="42.5197" height="42.5197" class="st1"/>
				<text x="5.26" y="250.65" class="st2" v:langID="1028"><v:paragraph v:horizAlign="1"/><v:tabList/>可見</text>			</g>
			<g id="shape11-32" v:mID="11" v:groupContext="shape" transform="translate(311.043,-101.398) rotate(90)">
				<title>工作表.11</title>
				<desc>六至八住</desc>
				<v:textBlock v:margins="rect(4,4,4,4)" v:tabSpace="42.5197"/>
				<v:textRect cx="36.8504" cy="230.256" width="73.71" height="73.7008"/>
				<rect x="0" y="193.406" width="73.7008" height="73.7008" class="st1"/>
				<text x="4.85" y="235.06" class="st2" v:langID="1028"><v:paragraph v:horizAlign="1"/><v:tabList/>六至八住</text>			</g>
			<g id="shape12-35" v:mID="12" v:groupContext="shape" transform="translate(282.697,-101.398) rotate(90)">
				<title>工作表.12</title>
				<desc>初至五住</desc>
				<v:textBlock v:margins="rect(4,4,4,4)" v:tabSpace="42.5197"/>
				<v:textRect cx="36.8504" cy="230.256" width="73.71" height="73.7008"/>
				<rect x="0" y="193.406" width="73.7008" height="73.7008" class="st1"/>
				<text x="4.85" y="235.06" class="st2" v:langID="1028"><v:paragraph v:horizAlign="1"/><v:tabList/>初至五住</text>			</g>
			<g id="shape13-38" v:mID="13" v:groupContext="shape" transform="translate(267.106,47.4213) rotate(90)">
				<title>工作表.13</title>
				<desc>淨真實善不善</desc>
				<v:textBlock v:margins="rect(4,4,4,4)" v:tabSpace="42.5197"/>
				<v:textRect cx="52.4409" cy="214.665" width="104.89" height="104.882"/>
				<rect x="0" y="162.224" width="104.882" height="104.882" class="st1"/>
				<text x="4.44" y="219.47" class="st2" v:langID="1028"><v:paragraph v:horizAlign="1"/><v:tabList/>淨真實善不善</text>			</g>
			<g id="shape14-41" v:mID="14" v:groupContext="shape" transform="translate(364.902,0.649606) rotate(90)">
				<title>工作表.14</title>
				<desc>常</desc>
				<v:textBlock v:margins="rect(4,4,4,4)" v:tabSpace="42.5197"/>
				<v:textRect cx="11.3386" cy="255.768" width="22.68" height="22.6772"/>
				<rect x="0" y="244.429" width="22.6772" height="22.6772" class="st1"/>
				<text x="4" y="260.57" class="st2" v:langID="1028"><v:paragraph v:horizAlign="1"/><v:tabList/>常</text>			</g>
			<g id="shape15-44" v:mID="15" v:groupContext="shape" transform="translate(311.043,47.4213) rotate(90)">
				<title>工作表.15</title>
				<desc>淨真實善</desc>
				<v:textBlock v:margins="rect(4,4,4,4)" v:tabSpace="42.5197"/>
				<v:textRect cx="36.8504" cy="230.256" width="73.71" height="73.7008"/>
				<rect x="0" y="193.406" width="73.7008" height="73.7008" class="st1"/>
				<text x="4.85" y="235.06" class="st2" v:langID="1028"><v:paragraph v:horizAlign="1"/><v:tabList/>淨真實善</text>			</g>
			<g id="shape16-47" v:mID="16" v:groupContext="shape" transform="translate(326.634,197.657) rotate(90)">
				<title>工作表.16</title>
				<desc>可見</desc>
				<v:textBlock v:margins="rect(4,4,4,4)" v:tabSpace="42.5197"/>
				<v:textRect cx="21.2598" cy="245.846" width="42.52" height="42.5197"/>
				<rect x="0" y="224.587" width="42.5197" height="42.5197" class="st1"/>
				<text x="5.26" y="250.65" class="st2" v:langID="1028"><v:paragraph v:horizAlign="1"/><v:tabList/>可見</text>			</g>
			<g id="shape17-50" v:mID="17" v:groupContext="shape" transform="translate(298.287,197.657) rotate(90)">
				<title>工作表.17</title>
				<desc>可見</desc>
				<v:textBlock v:margins="rect(4,4,4,4)" v:tabSpace="42.5197"/>
				<v:textRect cx="21.2598" cy="245.846" width="42.52" height="42.5197"/>
				<rect x="0" y="224.587" width="42.5197" height="42.5197" class="st1"/>
				<text x="5.26" y="250.65" class="st2" v:langID="1028"><v:paragraph v:horizAlign="1"/><v:tabList/>可見</text>			</g>
			<g id="shape18-53" v:mID="18" v:groupContext="shape" transform="translate(432.933,-73.0512) rotate(90)">
				<title>工作表.18</title>
				<path d="M0 267.11 L70.87 267.11" class="st3"/>
			</g>
			<g id="shape19-56" v:mID="19" v:groupContext="shape" transform="translate(404.587,-58.878) rotate(90)">
				<title>工作表.19</title>
				<path d="M0 267.11 L56.69 267.11" class="st3"/>
			</g>
			<g id="shape20-59" v:mID="20" v:groupContext="shape" transform="translate(376.24,-58.878) rotate(90)">
				<title>工作表.20</title>
				<path d="M0 267.11 L56.69 267.11" class="st3"/>
			</g>
			<g id="shape21-62" v:mID="21" v:groupContext="shape" transform="translate(347.894,-30.5315) rotate(90)">
				<title>工作表.21</title>
				<path d="M0 267.11 L28.35 267.11" class="st3"/>
			</g>
			<g id="shape22-65" v:mID="22" v:groupContext="shape" transform="translate(319.547,-30.5315) rotate(90)">
				<title>工作表.22</title>
				<path d="M0 267.11 L28.35 267.11" class="st3"/>
			</g>
			<g id="shape23-68" v:mID="23" v:groupContext="shape" transform="translate(319.547,153.72) rotate(90)">
				<title>工作表.23</title>
				<path d="M0 267.11 L42.52 267.11" class="st4"/>
			</g>
			<g id="shape24-71" v:mID="24" v:groupContext="shape" transform="translate(347.894,119.705) rotate(90)">
				<title>工作表.24</title>
				<path d="M0 267.11 L77.95 267.11" class="st4"/>
			</g>
			<g id="shape25-74" v:mID="25" v:groupContext="shape" transform="translate(376.24,119.705) rotate(90)">
				<title>工作表.25</title>
				<path d="M0 267.11 L77.95 267.11" class="st4"/>
			</g>
			<g id="shape26-77" v:mID="26" v:groupContext="shape" transform="translate(404.587,121.122) rotate(90)">
				<title>工作表.26</title>
				<path d="M0 267.11 L60.94 267.11" class="st4"/>
			</g>
			<g id="shape27-80" v:mID="27" v:groupContext="shape" transform="translate(432.933,121.122) rotate(90)">
				<title>工作表.27</title>
				<path d="M0 267.11 L60.94 267.11" class="st4"/>
			</g>
			<g id="shape28-83" v:mID="28" v:groupContext="shape" transform="translate(475.453,-129.744) rotate(90)">
				<title>工作表.28</title>
				<path d="M0 267.11 L396.85 267.11" class="st5"/>
			</g>
			<g id="shape29-86" v:mID="29" v:groupContext="shape" transform="translate(274.193,-129.744) rotate(90)">
				<title>工作表.29</title>
				<path d="M0 267.11 L396.85 267.11" class="st5"/>
			</g>
			<g id="shape30-89" v:mID="30" v:groupContext="shape" transform="translate(7.08661,-396.85)">
				<title>工作表.30</title>
				<path d="M0 267.11 L201.26 267.11" class="st5"/>
			</g>
			<g id="shape31-92" v:mID="31" v:groupContext="shape" transform="translate(7.08661,0)">
				<title>工作表.31</title>
				<path d="M0 267.11 L201.26 267.11" class="st5"/>
			</g>
		</g>
	</g>
</svg>
