<?xml version="1.0" encoding="UTF-8" standalone="no"?>
<!DOCTYPE svg PUBLIC "-//W3C//DTD SVG 1.1//EN" "http://www.w3.org/Graphics/SVG/1.1/DTD/svg11.dtd">
<!-- 由 Microsoft Visio, SVG Export 產生 y15.0068-h.svg 頁-1 -->
<svg xmlns="http://www.w3.org/2000/svg" xmlns:xlink="http://www.w3.org/1999/xlink" xmlns:ev="http://www.w3.org/2001/xml-events"
		width="6.2787in" height="1.46669in" viewBox="0 0 452.066 105.602" xml:space="preserve" color-interpolation-filters="sRGB"
		class="st5">
	<title>y15.0068</title>

	<style type="text/css">
	<![CDATA[
		.st1 {fill:none;stroke:none;stroke-linecap:round;stroke-linejoin:round;stroke-width:0.72}
		.st2 {fill:#000000;font-family:新細明體;font-size:1.33333em}
		.st3 {stroke:#000000;stroke-linecap:round;stroke-linejoin:round;stroke-width:0.72}
		.st4 {fill:#000000;font-family:細明體;font-size:1.33333em}
		.st5 {fill:none;fill-rule:evenodd;font-size:12px;overflow:visible;stroke-linecap:square;stroke-miterlimit:3}
	]]>
	</style>

	<g>
		<title>頁-1</title>
		<g id="group44-1" transform="translate(0.36,-0.36)">
			<title>工作表.44</title>
			<g id="shape1-2" transform="translate(3.59712E-14,-85.0394)">
				<title>工作表.1</title>
				<desc>法體</desc>
				<rect x="0" y="85.7594" width="40.5669" height="19.8425" class="st1"/>
				<text x="4.28" y="100.66" class="st2">法體</text>			</g>
			<g id="shape2-5" transform="translate(1.55875E-13,-56.6929)">
				<title>工作表.2</title>
				<desc>信願</desc>
				<rect x="0" y="85.7594" width="40.5669" height="19.8425" class="st1"/>
				<text x="4.28" y="100.66" class="st2">信願</text>			</g>
			<g id="shape3-8" transform="translate(1.27898E-13,-28.3465)">
				<title>工作表.3</title>
				<desc>慈悲</desc>
				<rect x="0" y="85.7594" width="40.5669" height="19.8425" class="st1"/>
				<text x="4.28" y="100.66" class="st2">慈悲</text>			</g>
			<g id="shape4-11">
				<title>工作表.4</title>
				<desc>智慧</desc>
				<rect x="0" y="85.7594" width="40.5669" height="19.8425" class="st1"/>
				<text x="4.28" y="100.66" class="st2">智慧</text>			</g>
			<g id="shape5-14" transform="translate(108.181,-85.0394)">
				<title>工作表.5</title>
				<desc>人天行</desc>
				<rect x="0" y="85.7594" width="59.7008" height="19.8425" class="st1"/>
				<text x="5.85" y="100.66" class="st2">人天行</text>			</g>
			<g id="shape6-17" transform="translate(99.6772,-56.6929)">
				<title>工作表.6</title>
				<desc>希聖希天</desc>
				<rect x="0" y="85.7594" width="76.7087" height="19.8425" class="st1"/>
				<text x="6.35" y="100.66" class="st2">希聖希天</text>			</g>
			<g id="shape7-20" transform="translate(99.6772,-28.3465)">
				<title>工作表.7</title>
				<desc>眾生緣慈</desc>
				<rect x="0" y="85.7594" width="76.7087" height="19.8425" class="st1"/>
				<text x="6.35" y="100.66" class="st2">眾生緣慈</text>			</g>
			<g id="shape8-23" transform="translate(99.6772,-1.42109E-13)">
				<title>工作表.8</title>
				<desc>世俗智慧</desc>
				<rect x="0" y="85.7594" width="76.7087" height="19.8425" class="st1"/>
				<text x="6.35" y="100.66" class="st2">世俗智慧</text>			</g>
			<g id="shape9-26" transform="translate(245.783,-7.24754E-13)">
				<title>工作表.9</title>
				<desc>偏真智慧</desc>
				<rect x="0" y="85.7594" width="76.7087" height="19.8425" class="st1"/>
				<text x="6.35" y="100.66" class="st2">偏真智慧</text>			</g>
			<g id="shape10-29" transform="translate(247.323,-85.0394)">
				<title>工作表.10</title>
				<desc>二乘行</desc>
				<rect x="0" y="85.7594" width="59.7008" height="19.8425" class="st1"/>
				<text x="5.85" y="100.66" class="st2">二乘行</text>			</g>
			<g id="shape11-32" transform="translate(247.079,-56.6929)">
				<title>工作表.11</title>
				<desc>出離心</desc>
				<rect x="0" y="85.7594" width="59.7008" height="19.8425" class="st1"/>
				<text x="5.85" y="100.66" class="st2">出離心</text>			</g>
			<g id="shape12-35" transform="translate(247.079,-28.3465)">
				<title>工作表.12</title>
				<desc>法緣慈</desc>
				<rect x="0" y="85.7594" width="59.7008" height="19.8425" class="st1"/>
				<text x="5.85" y="100.66" class="st2">法緣慈</text>			</g>
			<g id="shape13-38" transform="translate(391.646,-85.0394)">
				<title>工作表.13</title>
				<desc>菩薩行</desc>
				<rect x="0" y="85.7594" width="59.7008" height="19.8425" class="st1"/>
				<text x="5.85" y="100.66" class="st2">菩薩行</text>			</g>
			<g id="shape14-41" transform="translate(391.646,-56.6929)">
				<title>工作表.14</title>
				<desc>菩提願</desc>
				<rect x="0" y="85.7594" width="59.7008" height="19.8425" class="st1"/>
				<text x="5.85" y="100.66" class="st2">菩提願</text>			</g>
			<g id="shape15-44" transform="translate(391.646,-28.3465)">
				<title>工作表.15</title>
				<desc>慈悲心</desc>
				<rect x="0" y="85.7594" width="59.7008" height="19.8425" class="st1"/>
				<text x="5.85" y="100.66" class="st2">慈悲心</text>			</g>
			<g id="shape16-47" transform="translate(391.646,-1.42109E-12)">
				<title>工作表.16</title>
				<desc>般若慧</desc>
				<rect x="0" y="85.7594" width="59.7008" height="19.8425" class="st1"/>
				<text x="5.85" y="100.66" class="st2">般若慧</text>			</g>
			<g id="shape22-50" transform="translate(38.9409,-66.6142)">
				<title>工作表.22</title>
				<path d="M0 105.6 L63.18 105.6" class="st3"/>
			</g>
			<g id="shape24-53" transform="translate(38.9409,-38.2677)">
				<title>工作表.24</title>
				<path d="M0 105.6 L63.18 105.6" class="st3"/>
			</g>
			<g id="shape25-56" transform="translate(38.9409,-9.92126)">
				<title>工作表.25</title>
				<path d="M0 105.6 L63.18 105.6" class="st3"/>
			</g>
			<g id="shape32-59" transform="translate(158.941,-56.6142)">
				<title>工作表.32</title>
				<desc>……………</desc>
				<rect x="0" y="85.6019" width="104.346" height="20" class="st1"/>
				<text x="12.17" y="100.4" class="st4">……………</text>			</g>
			<g id="shape36-62" transform="translate(305.193,-0.708653)">
				<title>工作表.36</title>
				<desc>……………</desc>
				<rect x="0" y="85.6019" width="104.346" height="20" class="st1"/>
				<text x="12.17" y="100.4" class="st4">……………</text>			</g>
			<g id="shape37-65" transform="translate(297.752,-27.7165)">
				<title>工作表.37</title>
				<desc>………………</desc>
				<rect x="0" y="85.6019" width="104.346" height="20" class="st1"/>
				<text x="4.17" y="100.4" class="st4">………………</text>			</g>
			<g id="shape38-68" transform="translate(298.106,-56.6142)">
				<title>工作表.38</title>
				<desc>………………</desc>
				<rect x="0" y="85.6019" width="104.346" height="20" class="st1"/>
				<text x="4.17" y="100.4" class="st4">………………</text>			</g>
			<g id="shape39-71" transform="translate(159.327,-27.6378)">
				<title>工作表.39</title>
				<desc>……………</desc>
				<rect x="0" y="85.6019" width="104.346" height="20" class="st1"/>
				<text x="12.17" y="100.4" class="st4">……………</text>			</g>
			<g id="shape40-74" transform="translate(159.327,-1.14172)">
				<title>工作表.40</title>
				<desc>……………</desc>
				<rect x="0" y="85.6019" width="104.346" height="20" class="st1"/>
				<text x="12.17" y="100.4" class="st4">……………</text>			</g>
		</g>
	</g>
</svg>
