<?xml version="1.0" encoding="UTF-8" standalone="no"?>
<!DOCTYPE svg PUBLIC "-//W3C//DTD SVG 1.1//EN" "http://www.w3.org/Graphics/SVG/1.1/DTD/svg11.dtd">
<!-- 由 Microsoft Visio, SVG Export 產生 y15.0076.svg 頁-1 -->
<svg xmlns="http://www.w3.org/2000/svg" xmlns:xlink="http://www.w3.org/1999/xlink" xmlns:ev="http://www.w3.org/2001/xml-events"
		width="5.80965in" height="2.25409in" viewBox="0 0 418.295 162.295" xml:space="preserve" color-interpolation-filters="sRGB"
		class="st5">
	

	<style type="text/css">
	<![CDATA[
		.st1 {fill:none;stroke:none;stroke-linecap:round;stroke-linejoin:round;stroke-width:0.72}
		.st2 {fill:#000000;font-family:新細明體;font-size:1.33333em}
		.st3 {stroke:#000000;stroke-linecap:round;stroke-linejoin:round;stroke-width:0.72}
		.st4 {stroke:#000000;stroke-dasharray:5.04,3.6;stroke-linecap:round;stroke-linejoin:round;stroke-width:0.72}
		.st5 {fill:none;fill-rule:evenodd;font-size:12px;overflow:visible;stroke-linecap:square;stroke-miterlimit:3}
	]]>
	</style>

	<g>
		<title>頁-1</title>
		<g id="group16-1" transform="translate(0.36,-0.36)">
			<title>工作表.16</title>
			<g id="shape1-2" transform="translate(2.79776E-14,-113.118)">
				<title>工作表.1</title>
				<desc>般若道</desc>
				<rect x="0" y="142.452" width="56.1575" height="19.8425" class="st1"/>
				<text x="4.08" y="157.36" class="st2">般若道</text>			</g>
			<g id="shape2-5" transform="translate(2.23821E-13,-28.0787)">
				<title>工作表.2</title>
				<desc>方便道</desc>
				<rect x="0" y="142.452" width="56.1575" height="19.8425" class="st1"/>
				<text x="4.08" y="157.36" class="st2">方便道</text>			</g>
			<g id="shape3-8" transform="translate(126.972,-141.732)">
				<title>工作表.3</title>
				<desc>發菩提願</desc>
				<rect x="0" y="142.452" width="73.1654" height="19.8425" class="st1"/>
				<text x="4.58" y="157.36" class="st2">發菩提願</text>			</g>
			<g id="shape4-11" transform="translate(126.972,-113.118)">
				<title>工作表.4</title>
				<desc>修慈悲行</desc>
				<rect x="0" y="142.452" width="73.1654" height="19.8425" class="st1"/>
				<text x="4.58" y="157.36" class="st2">修慈悲行</text>			</g>
			<g id="shape5-14" transform="translate(126.972,-85.0394)">
				<title>工作表.5</title>
				<desc>證空性智</desc>
				<rect x="0" y="142.452" width="73.1654" height="19.8425" class="st1"/>
				<text x="4.58" y="157.36" class="st2">證空性智</text>			</g>
			<g id="shape6-17" transform="translate(129.098,-56.6929)">
				<title>工作表.6</title>
				<desc>發淨勝意樂心</desc>
				<rect x="0" y="142.452" width="105.764" height="19.8425" class="st1"/>
				<text x="4.88" y="157.36" class="st2">發淨勝意樂心</text>			</g>
			<g id="shape7-20" transform="translate(129.098,-28.0787)">
				<title>工作表.7</title>
				<desc>行嚴土熟生事</desc>
				<rect x="0" y="142.452" width="105.764" height="19.8425" class="st1"/>
				<text x="4.88" y="157.36" class="st2">行嚴土熟生事</text>			</g>
			<g id="shape8-23" transform="translate(129.098,-2.84217E-14)">
				<title>工作表.8</title>
				<desc>證究竟種智果</desc>
				<rect x="0" y="142.452" width="105.764" height="19.8425" class="st1"/>
				<text x="4.88" y="157.36" class="st2">證究竟種智果</text>			</g>
			<g id="shape9-26" transform="translate(310.394,-70.8661)">
				<title>工作表.9</title>
				<desc>信智平等</desc>
				<rect x="0" y="142.452" width="107.181" height="19.8425" class="st1"/>
				<text x="5.59" y="157.36" class="st2">（信智平等）</text>			</g>
			<g id="shape10-29" transform="translate(119.388,-26.1954) rotate(22.2388)">
				<title>工作表.10</title>
				<path d="M0 162.29 L74.9 162.29" class="st3"/>
			</g>
			<g id="shape11-32" transform="translate(119.388,-111.235) rotate(22.2388)">
				<title>工作表.11</title>
				<path d="M0 162.29 L74.9 162.29" class="st3"/>
			</g>
			<g id="shape12-35" transform="translate(-3.45867,-111.235) rotate(-22.2388)">
				<title>工作表.12</title>
				<path d="M0 162.29 L74.9 162.29" class="st3"/>
			</g>
			<g id="shape13-38" transform="translate(-3.45867,-26.1954) rotate(-22.2388)">
				<title>工作表.13</title>
				<path d="M0 162.29 L74.9 162.29" class="st3"/>
			</g>
			<g id="shape14-41" transform="translate(204.714,-63.9803) rotate(-10.3365)">
				<title>工作表.14</title>
				<path d="M0 162.29 L78.99 162.29" class="st4"/>
			</g>
			<g id="shape15-44" transform="translate(220.244,-93.6703) rotate(7.22986)">
				<title>工作表.15</title>
				<path d="M0 162.29 L112.62 162.29" class="st4"/>
			</g>
		</g>
	</g>
</svg>
