<?xml version="1.0" encoding="UTF-8" standalone="no"?>
<!DOCTYPE svg PUBLIC "-//W3C//DTD SVG 1.1//EN" "http://www.w3.org/Graphics/SVG/1.1/DTD/svg11.dtd">
<!-- 由 Microsoft Visio, SVG Export 產生 y22.0190-h.svg 頁-1 -->
<svg xmlns="http://www.w3.org/2000/svg" xmlns:xlink="http://www.w3.org/1999/xlink" xmlns:ev="http://www.w3.org/2001/xml-events"
		width="7.2383in" height="1.86428in" viewBox="0 0 521.157 134.228" xml:space="preserve" color-interpolation-filters="sRGB"
		class="st5">
	<style type="text/css">
	<![CDATA[
		.st1 {fill:none;stroke:#000000;stroke-linecap:round;stroke-linejoin:round;stroke-opacity:0;stroke-width:1}
		.st2 {fill:#000000;font-family:新細明體;font-size:1.33333em}
		.st3 {stroke:#000000;stroke-dasharray:7,5;stroke-linecap:round;stroke-linejoin:round;stroke-width:1}
		.st4 {stroke:#000000;stroke-linecap:round;stroke-linejoin:round;stroke-width:1}
		.st5 {fill:none;fill-rule:evenodd;font-size:12px;overflow:visible;stroke-linecap:square;stroke-miterlimit:3}
	]]>
	</style>

	<g>
		<title>頁-1</title>
		<g id="group66-1" transform="translate(0.5,-0.5)">
			<title>工作表.66</title>
			<g id="shape39-2" transform="translate(205.512,-99.2126)">
				<title>工作表.39</title>
				<desc>優多羅</desc>
				<rect x="0" y="114.386" width="59.5276" height="19.8425" class="st1"/>
				<text x="5.76" y="129.11" class="st2">優多羅</text>			</g>
			<g id="shape40-5" transform="translate(362.835,-113.386)">
				<title>工作表.40</title>
				<desc>善覺</desc>
				<rect x="0" y="114.386" width="45.3543" height="19.8425" class="st1"/>
				<text x="6.68" y="129.11" class="st2">善覺</text>			</g>
			<g id="shape41-8" transform="translate(362.835,-85.0394)">
				<title>工作表.41</title>
				<desc>耶奢</desc>
				<rect x="0" y="114.386" width="45.3543" height="19.8425" class="st1"/>
				<text x="6.68" y="129.11" class="st2">耶奢</text>			</g>
			<g id="shape42-11" transform="translate(9.99201E-14,-56.6929)">
				<title>工作表.42</title>
				<desc>迦葉</desc>
				<rect x="0" y="114.386" width="45.3543" height="19.8425" class="st1"/>
				<text x="6.68" y="129.11" class="st2">迦葉</text>			</g>
			<g id="shape43-14" transform="translate(65.1969,-56.6929)">
				<title>工作表.43</title>
				<desc>阿難</desc>
				<rect x="0" y="114.386" width="45.3543" height="19.8425" class="st1"/>
				<text x="6.68" y="129.11" class="st2">阿難</text>			</g>
			<g id="shape44-17" transform="translate(204.094,-56.6929)">
				<title>工作表.44</title>
				<desc>商那和修</desc>
				<rect x="0" y="114.386" width="73.7008" height="19.8425" class="st1"/>
				<text x="4.85" y="129.11" class="st2">商那和修</text>			</g>
			<g id="shape45-20" transform="translate(362.835,-56.6929)">
				<title>工作表.45</title>
				<desc>優波毱多</desc>
				<rect x="0" y="114.386" width="73.7008" height="19.8425" class="st1"/>
				<text x="4.85" y="129.11" class="st2">優波毱多</text>			</g>
			<g id="shape46-23" transform="translate(460.63,-56.6929)">
				<title>工作表.46</title>
				<desc>提多迦</desc>
				<rect x="0" y="114.386" width="59.5276" height="19.8425" class="st1"/>
				<text x="5.76" y="129.11" class="st2">提多迦</text>			</g>
			<g id="shape1-26" transform="translate(-2.79776E-14,-28.3465)">
				<title>工作表.1</title>
				<desc>優波離</desc>
				<rect x="0" y="114.386" width="59.5276" height="19.8425" class="st1"/>
				<text x="5.76" y="129.11" class="st2">優波離</text>			</g>
			<g id="shape2-29" transform="translate(82.2047,-28.3465)">
				<title>工作表.2</title>
				<desc>馱寫拘</desc>
				<rect x="0" y="114.386" width="59.5276" height="19.8425" class="st1"/>
				<text x="5.76" y="129.11" class="st2">馱寫拘</text>			</g>
			<g id="shape3-32" transform="translate(204.094,-28.3465)">
				<title>工作表.3</title>
				<desc>須那拘</desc>
				<rect x="0" y="114.386" width="59.5276" height="19.8425" class="st1"/>
				<text x="5.76" y="129.11" class="st2">須那拘</text>			</g>
			<g id="shape4-35" transform="translate(291.969,-28.3465)">
				<title>工作表.4</title>
				<desc>悉伽婆</desc>
				<rect x="0" y="114.386" width="59.5276" height="19.8425" class="st1"/>
				<text x="5.76" y="129.11" class="st2">悉伽婆</text>			</g>
			<g id="shape5-38" transform="translate(377.008,-28.3465)">
				<title>工作表.5</title>
				<desc>帝須</desc>
				<rect x="0" y="114.386" width="45.3543" height="19.8425" class="st1"/>
				<text x="6.68" y="129.11" class="st2">帝須</text>			</g>
			<g id="shape6-41" transform="translate(82.2047,0)">
				<title>工作表.6</title>
				<desc>陀娑婆羅</desc>
				<rect x="0" y="114.386" width="73.7008" height="19.8425" class="st1"/>
				<text x="4.85" y="129.11" class="st2">陀娑婆羅</text>			</g>
			<g id="shape7-44" transform="translate(204.094,-3.69482E-13)">
				<title>工作表.7</title>
				<desc>樹提陀娑</desc>
				<rect x="0" y="114.386" width="73.7008" height="19.8425" class="st1"/>
				<text x="4.85" y="129.11" class="st2">樹提陀娑</text>			</g>
			<g id="shape48-47" transform="translate(39.685,-66.6142)">
				<title>工作表.48</title>
				<path d="M0 134.23 L28.35 134.23" class="st3"/>
			</g>
			<g id="shape49-50" transform="translate(56.6929,-38.2677)">
				<title>工作表.49</title>
				<path d="M0 134.23 L28.35 134.23" class="st4"/>
			</g>
			<g id="shape50-53" transform="translate(153.071,-9.92126)">
				<title>工作表.50</title>
				<path d="M0 134.23 L51.02 134.23" class="st4"/>
			</g>
			<g id="shape51-56" transform="translate(141.732,-38.2677)">
				<title>工作表.51</title>
				<path d="M0 134.23 L62.36 134.23" class="st4"/>
			</g>
			<g id="shape52-59" transform="translate(110.551,-66.6142)">
				<title>工作表.52</title>
				<path d="M0 134.23 L93.54 134.23" class="st4"/>
			</g>
			<g id="shape53-62" transform="translate(136.063,-109.134)">
				<title>工作表.53</title>
				<path d="M0 134.23 L69.45 134.23" class="st4"/>
			</g>
			<g id="shape54-65" transform="translate(1.83465,67.6142) rotate(-90)">
				<title>工作表.54</title>
				<path d="M0 134.23 L42.52 134.23" class="st4"/>
			</g>
			<g id="shape55-68" transform="translate(-60.5276,123.497) rotate(-90)">
				<title>工作表.55</title>
				<path d="M0 134.23 L28.35 134.23" class="st4"/>
			</g>
			<g id="shape56-71" transform="translate(277.795,-66.6142)">
				<title>工作表.56</title>
				<path d="M0 134.23 L85.04 134.23" class="st4"/>
			</g>
			<g id="shape57-74" transform="translate(73.7008,-10.7312)">
				<title>工作表.57</title>
				<path d="M0 134.23 L14.17 134.23" class="st4"/>
			</g>
			<g id="shape58-77" transform="translate(265.039,-109.134)">
				<title>工作表.58</title>
				<path d="M0 134.23 L69.45 134.23" class="st4"/>
			</g>
			<g id="shape59-80" transform="translate(334.488,-123.307)">
				<title>工作表.59</title>
				<path d="M0 134.23 L28.35 134.23" class="st4"/>
			</g>
			<g id="shape60-83" transform="translate(334.488,-94.9606)">
				<title>工作表.60</title>
				<path d="M0 134.23 L28.35 134.23" class="st4"/>
			</g>
			<g id="shape61-86" transform="translate(200.26,39.2677) rotate(-90)">
				<title>工作表.61</title>
				<path d="M0 134.23 L28.35 134.23" class="st4"/>
			</g>
			<g id="shape62-89" transform="translate(433.701,-66.6142)">
				<title>工作表.62</title>
				<path d="M0 134.23 L28.35 134.23" class="st4"/>
			</g>
			<g id="shape63-92" transform="translate(348.661,-38.2677)">
				<title>工作表.63</title>
				<path d="M0 134.23 L28.35 134.23" class="st4"/>
			</g>
			<g id="shape64-95" transform="translate(257.953,-38.2677)">
				<title>工作表.64</title>
				<path d="M0 134.23 L36.85 134.23" class="st4"/>
			</g>
		</g>
	</g>
</svg>
