<?xml version="1.0" encoding="UTF-8" standalone="no"?>
<!DOCTYPE svg PUBLIC "-//W3C//DTD SVG 1.1//EN" "http://www.w3.org/Graphics/SVG/1.1/DTD/svg11.dtd">
<!-- 由 Microsoft Visio, SVG Export 產生 y22.0254-h.svg 頁-1 -->
<svg xmlns="http://www.w3.org/2000/svg" xmlns:xlink="http://www.w3.org/1999/xlink" xmlns:ev="http://www.w3.org/2001/xml-events"
		xmlns:v="http://schemas.microsoft.com/visio/2003/SVGExtensions/" width="7.9238in" height="12.475in"
		viewBox="0 0 570.514 898.199" xml:space="preserve" color-interpolation-filters="sRGB" class="st4">
	<v:documentProperties v:langID="1028" v:viewMarkup="false">
		<v:userDefs>
			<v:ud v:nameU="msvConvertTheme"/>
		</v:userDefs>
	</v:documentProperties>

	<style type="text/css">
	<![CDATA[
		.st1 {fill:none;stroke:none;stroke-linecap:round;stroke-linejoin:round;stroke-width:0.75}
		.st2 {fill:#000000;font-family:新細明體;font-size:1.33333em}
		.st3 {font-family:Times New Roman;font-size:1em}
		.st4 {fill:none;fill-rule:evenodd;font-size:12px;overflow:visible;stroke-linecap:square;stroke-miterlimit:3}
	]]>
	</style>

	<g v:mID="0" v:index="1" v:groupContext="foregroundPage">
		<title>頁-1</title>
		<v:pageProperties v:drawingScale="0.0393701" v:pageScale="0.0393701" v:drawingUnits="24" v:shadowOffsetX="8.50394"
				v:shadowOffsetY="-8.50394"/>
		<g id="group66-1" transform="translate(0.375,-0.375)" v:mID="66" v:groupContext="group">
			<title>工作表.66</title>
			<g id="shape1-2" v:mID="1" v:groupContext="shape" transform="translate(0,-877.606)">
				<title>工作表.1</title>
				<desc>〔卷五五〕護持諸國</desc>
				<v:textBlock v:margins="rect(4,4,4,4)" v:tabSpace="42.5197"/>
				<v:textRect cx="78.0945" cy="888.278" width="156.19" height="19.8425"/>
				<rect x="0" y="878.356" width="156.189" height="19.8425" class="st1"/>
				<text x="6.09" y="893.26" class="st2" v:langID="1028"><v:paragraph v:horizAlign="1"/><v:tabList/>〔卷五五〕護持諸國</text>			</g>
			<g id="shape2-5" v:mID="2" v:groupContext="shape" transform="translate(157.323,-877.606)">
				<title>工作表.2</title>
				<desc>〔卷五六 〕諸佛出現</desc>
				<v:textBlock v:margins="rect(4,4,4,4)" v:tabSpace="42.5197"/>
				<v:textRect cx="78.0945" cy="888.278" width="156.19" height="19.8425"/>
				<rect x="0" y="878.356" width="156.189" height="19.8425" class="st1"/>
				<text x="4.09" y="893.26" class="st2" v:langID="1028"><v:paragraph v:horizAlign="1"/><v:tabList/>〔卷五六<tspan
							class="st3"> </tspan>〕諸佛出現</text>			</g>
			<g id="shape3-9" v:mID="3" v:groupContext="shape" transform="translate(319.748,-877.606)">
				<title>工作表.3</title>
				<desc>〔考同〕</desc>
				<v:textBlock v:margins="rect(4,4,4,4)" v:tabSpace="42.5197"/>
				<v:textRect cx="36" cy="888.278" width="72" height="19.8425"/>
				<rect x="0" y="878.356" width="72" height="19.8425" class="st1"/>
				<text x="4" y="893.26" class="st2" v:langID="1028"><v:paragraph v:horizAlign="1"/><v:tabList/>〔考同〕</text>			</g>
			<g id="shape4-12" v:mID="4" v:groupContext="shape" transform="translate(319.748,-767.906)">
				<title>工作表.4</title>
				<desc>《根有律》載迦旃延經迦羅城</desc>
				<v:textBlock v:margins="rect(4,4,4,4)" v:tabSpace="42.5197"/>
				<v:textRect cx="125.008" cy="888.278" width="250.02" height="19.8425"/>
				<rect x="0" y="878.356" width="250.016" height="19.8425" class="st1"/>
				<text x="4" y="893.26" class="st2" v:langID="1028"><v:paragraph/><v:tabList/>《根有律》載迦旃延經迦羅城，</text>			</g>
			<g id="shape5-15" v:mID="5" v:groupContext="shape" transform="translate(319.748,-841.039)">
				<title>工作表.5</title>
				<desc>《西域記》的迦濕彌羅</desc>
				<v:textBlock v:margins="rect(4,4,4,4)" v:tabSpace="42.5197"/>
				<v:textRect cx="84.9912" cy="888.278" width="169.99" height="19.8425"/>
				<rect x="0" y="878.356" width="169.982" height="19.8425" class="st1"/>
				<text x="4" y="893.26" class="st2" v:langID="1028"><v:paragraph/><v:tabList/>《西域記》的迦濕彌羅</text>			</g>
			<g id="shape6-18" v:mID="6" v:groupContext="shape" transform="translate(319.748,-804.472)">
				<title>工作表.6</title>
				<desc>《西域記》的烏剌尸</desc>
				<v:textBlock v:margins="rect(4,4,4,4)" v:tabSpace="42.5197"/>
				<v:textRect cx="78.0945" cy="888.278" width="156.19" height="19.8425"/>
				<rect x="0" y="878.356" width="156.189" height="19.8425" class="st1"/>
				<text x="4" y="893.26" class="st2" v:langID="1028"><v:paragraph/><v:tabList/>《西域記》的烏剌尸</text>			</g>
			<g id="shape7-21" v:mID="7" v:groupContext="shape" transform="translate(319.748,-731.339)">
				<title>工作表.7</title>
				<desc>次到濫波乃漸到步迦拏。</desc>
				<v:textBlock v:margins="rect(4,4,4,4)" v:tabSpace="42.5197"/>
				<v:textRect cx="100.063" cy="888.278" width="200.13" height="19.8425"/>
				<rect x="0" y="878.356" width="200.126" height="19.8425" class="st1"/>
				<text x="4" y="893.26" class="st2" v:langID="1028"><v:paragraph/><v:tabList/>次到濫波，乃漸到步迦拏。</text>			</g>
			<g id="shape8-24" v:mID="8" v:groupContext="shape" transform="translate(319.748,-694.772)">
				<title>工作表.8</title>
				<desc>今佉羅婆羅與迦羅補羅</desc>
				<v:textBlock v:margins="rect(4,4,4,4)" v:tabSpace="42.5197"/>
				<v:textRect cx="100.063" cy="888.278" width="200.13" height="19.8425"/>
				<rect x="0" y="878.356" width="200.126" height="19.8425" class="st1"/>
				<text x="4" y="893.26" class="st2" v:langID="1028"><v:paragraph/><v:tabList/>今佉羅婆羅，與迦羅補羅（</text>			</g>
			<g id="shape9-27" v:mID="9" v:groupContext="shape" transform="translate(319.748,-658.205)">
				<title>工作表.9</title>
				<desc>城相當</desc>
				<v:textBlock v:margins="rect(4,4,4,4)" v:tabSpace="42.5197"/>
				<v:textRect cx="100.063" cy="888.278" width="200.13" height="19.8425"/>
				<rect x="0" y="878.356" width="200.126" height="19.8425" class="st1"/>
				<text x="4" y="893.26" class="st2" v:langID="1028"><v:paragraph/><v:tabList/>城）相當</text>			</g>
			<g id="shape10-30" v:mID="10" v:groupContext="shape" transform="translate(319.748,-621.638)">
				<title>工作表.10</title>
				<desc>未詳</desc>
				<v:textBlock v:margins="rect(4,4,4,4)" v:tabSpace="42.5197"/>
				<v:textRect cx="20.126" cy="888.278" width="40.26" height="19.8425"/>
				<rect x="0" y="878.356" width="40.252" height="19.8425" class="st1"/>
				<text x="4" y="893.26" class="st2" v:langID="1028"><v:paragraph/><v:tabList/>未詳</text>			</g>
			<g id="shape11-33" v:mID="11" v:groupContext="shape" transform="translate(320.462,-585.071)">
				<title>工作表.11</title>
				<desc>《法顯記》的陀歷</desc>
				<v:textBlock v:margins="rect(4,4,4,4)" v:tabSpace="42.5197"/>
				<v:textRect cx="71.5011" cy="888.278" width="143.01" height="19.8425"/>
				<rect x="0" y="878.356" width="143.002" height="19.8425" class="st1"/>
				<text x="4" y="893.26" class="st2" v:langID="1028"><v:paragraph/><v:tabList/>《法顯記》的陀歷</text>			</g>
			<g id="shape12-36" v:mID="12" v:groupContext="shape" transform="translate(319.748,-548.504)">
				<title>工作表.12</title>
				<desc>《唐書》的勃律</desc>
				<v:textBlock v:margins="rect(4,4,4,4)" v:tabSpace="42.5197"/>
				<v:textRect cx="63.5132" cy="888.278" width="127.03" height="19.8425"/>
				<rect x="0" y="878.356" width="127.026" height="19.8425" class="st1"/>
				<text x="4" y="893.26" class="st2" v:langID="1028"><v:paragraph/><v:tabList/>《唐書》的勃律</text>			</g>
			<g id="shape13-39" v:mID="13" v:groupContext="shape" transform="translate(319.748,-511.937)">
				<title>工作表.13</title>
				<desc>未詳</desc>
				<v:textBlock v:margins="rect(4,4,4,4)" v:tabSpace="42.5197"/>
				<v:textRect cx="20.126" cy="888.278" width="40.26" height="19.8425"/>
				<rect x="0" y="878.356" width="40.252" height="19.8425" class="st1"/>
				<text x="4" y="893.26" class="st2" v:langID="1028"><v:paragraph/><v:tabList/>未詳</text>			</g>
			<g id="shape14-42" v:mID="14" v:groupContext="shape" transform="translate(319.748,-475.37)">
				<title>工作表.14</title>
				<desc>《法顯記》的竭叉</desc>
				<v:textBlock v:margins="rect(4,4,4,4)" v:tabSpace="42.5197"/>
				<v:textRect cx="71.1966" cy="888.278" width="142.4" height="19.8425"/>
				<rect x="0" y="878.356" width="142.393" height="19.8425" class="st1"/>
				<text x="4" y="893.26" class="st2" v:langID="1028"><v:paragraph/><v:tabList/>《法顯記》的竭叉</text>			</g>
			<g id="shape15-45" v:mID="15" v:groupContext="shape" transform="translate(319.748,-438.803)">
				<title>工作表.15</title>
				<desc>《西域記》的斫句迦</desc>
				<v:textBlock v:margins="rect(4,4,4,4)" v:tabSpace="42.5197"/>
				<v:textRect cx="82.2543" cy="888.278" width="164.51" height="19.8425"/>
				<rect x="0" y="878.356" width="164.509" height="19.8425" class="st1"/>
				<text x="4" y="893.26" class="st2" v:langID="1028"><v:paragraph/><v:tabList/>《西域記》的斫句迦</text>			</g>
			<g id="shape16-48" v:mID="16" v:groupContext="shape" transform="translate(319.748,-402.236)">
				<title>工作表.16</title>
				<desc>疑是《漢書》的西夜</desc>
				<v:textBlock v:margins="rect(4,4,4,4)" v:tabSpace="42.5197"/>
				<v:textRect cx="82.2543" cy="888.278" width="164.51" height="19.8425"/>
				<rect x="0" y="878.356" width="164.509" height="19.8425" class="st1"/>
				<text x="4" y="893.26" class="st2" v:langID="1028"><v:paragraph/><v:tabList/>疑是《漢書》的西夜</text>			</g>
			<g id="shape17-51" v:mID="17" v:groupContext="shape" transform="translate(319.748,-365.669)">
				<title>工作表.17</title>
				<desc>《西域記》的佉沙</desc>
				<v:textBlock v:margins="rect(4,4,4,4)" v:tabSpace="42.5197"/>
				<v:textRect cx="71.1966" cy="888.278" width="142.4" height="19.8425"/>
				<rect x="0" y="878.356" width="142.393" height="19.8425" class="st1"/>
				<text x="4" y="893.26" class="st2" v:langID="1028"><v:paragraph/><v:tabList/>《西域記》的佉沙</text>			</g>
			<g id="shape18-54" v:mID="18" v:groupContext="shape" transform="translate(319.748,-329.102)">
				<title>工作表.18</title>
				<desc>《西域記》的瞿薩旦那</desc>
				<v:textBlock v:margins="rect(4,4,4,4)" v:tabSpace="42.5197"/>
				<v:textRect cx="93.1181" cy="888.278" width="186.24" height="19.8425"/>
				<rect x="0" y="878.356" width="186.236" height="19.8425" class="st1"/>
				<text x="4" y="893.26" class="st2" v:langID="1028"><v:paragraph/><v:tabList/>《西域記》的瞿薩旦那</text>			</g>
			<g id="shape19-57" v:mID="19" v:groupContext="shape" transform="translate(319.748,-292.535)">
				<title>工作表.19</title>
				<desc>《西域記》的屈支</desc>
				<v:textBlock v:margins="rect(4,4,4,4)" v:tabSpace="42.5197"/>
				<v:textRect cx="71.1966" cy="888.278" width="142.4" height="19.8425"/>
				<rect x="0" y="878.356" width="142.393" height="19.8425" class="st1"/>
				<text x="4" y="893.26" class="st2" v:langID="1028"><v:paragraph/><v:tabList/>《西域記》的屈支</text>			</g>
			<g id="shape20-60" v:mID="20" v:groupContext="shape" transform="translate(319.748,-255.969)">
				<title>工作表.20</title>
				<desc>《西域記》的跋祿迦</desc>
				<v:textBlock v:margins="rect(4,4,4,4)" v:tabSpace="42.5197"/>
				<v:textRect cx="82.2543" cy="888.278" width="164.51" height="19.8425"/>
				<rect x="0" y="878.356" width="164.509" height="19.8425" class="st1"/>
				<text x="4" y="893.26" class="st2" v:langID="1028"><v:paragraph/><v:tabList/>《西域記》的跋祿迦</text>			</g>
			<g id="shape21-63" v:mID="21" v:groupContext="shape" transform="translate(319.748,-219.402)">
				<title>工作表.21</title>
				<desc>未詳</desc>
				<v:textBlock v:margins="rect(4,4,4,4)" v:tabSpace="42.5197"/>
				<v:textRect cx="20.126" cy="888.278" width="40.26" height="19.8425"/>
				<rect x="0" y="878.356" width="40.252" height="19.8425" class="st1"/>
				<text x="4" y="893.26" class="st2" v:langID="1028"><v:paragraph/><v:tabList/>未詳</text>			</g>
			<g id="shape22-66" v:mID="22" v:groupContext="shape" transform="translate(319.748,-182.835)">
				<title>工作表.22</title>
				<desc>疑是《漢書》的扜泥</desc>
				<v:textBlock v:margins="rect(4,4,4,4)" v:tabSpace="42.5197"/>
				<v:textRect cx="82.2543" cy="888.278" width="164.51" height="19.8425"/>
				<rect x="0" y="878.356" width="164.509" height="19.8425" class="st1"/>
				<text x="4" y="893.26" class="st2" v:langID="1028"><v:paragraph/><v:tabList/>疑是《漢書》的扜泥</text>			</g>
			<g id="shape23-69" v:mID="23" v:groupContext="shape" transform="translate(319.748,-146.268)">
				<title>工作表.23</title>
				<desc>《漢書》的鄯善</desc>
				<v:textBlock v:margins="rect(4,4,4,4)" v:tabSpace="42.5197"/>
				<v:textRect cx="61.2283" cy="888.278" width="122.46" height="19.8425"/>
				<rect x="0" y="878.356" width="122.457" height="19.8425" class="st1"/>
				<text x="4" y="893.26" class="st2" v:langID="1028"><v:paragraph/><v:tabList/>《漢書》的鄯善</text>			</g>
			<g id="shape24-72" v:mID="24" v:groupContext="shape" transform="translate(319.748,-109.701)">
				<title>工作表.24</title>
				<desc>不詳</desc>
				<v:textBlock v:margins="rect(4,4,4,4)" v:tabSpace="42.5197"/>
				<v:textRect cx="20.126" cy="888.278" width="40.26" height="19.8425"/>
				<rect x="0" y="878.356" width="40.252" height="19.8425" class="st1"/>
				<text x="4" y="893.26" class="st2" v:langID="1028"><v:paragraph/><v:tabList/>不詳</text>			</g>
			<g id="shape25-75" v:mID="25" v:groupContext="shape" transform="translate(319.748,-36.5669)">
				<title>工作表.25</title>
				<desc>不詳</desc>
				<v:textBlock v:margins="rect(4,4,4,4)" v:tabSpace="42.5197"/>
				<v:textRect cx="20.126" cy="888.278" width="40.26" height="19.8425"/>
				<rect x="0" y="878.356" width="40.252" height="19.8425" class="st1"/>
				<text x="4" y="893.26" class="st2" v:langID="1028"><v:paragraph/><v:tabList/>不詳</text>			</g>
			<g id="shape26-78" v:mID="26" v:groupContext="shape" transform="translate(319.748,-73.1339)">
				<title>工作表.26</title>
				<desc>指北朝</desc>
				<v:textBlock v:margins="rect(4,4,4,4)" v:tabSpace="42.5197"/>
				<v:textRect cx="28.063" cy="888.278" width="56.13" height="19.8425"/>
				<rect x="0" y="878.356" width="56.126" height="19.8425" class="st1"/>
				<text x="4" y="893.26" class="st2" v:langID="1028"><v:paragraph/><v:tabList/>指北朝</text>			</g>
			<g id="shape27-81" v:mID="27" v:groupContext="shape" transform="translate(319.748,-5.68434E-13)">
				<title>工作表.27</title>
				<desc>指南朝</desc>
				<v:textBlock v:margins="rect(4,4,4,4)" v:tabSpace="42.5197"/>
				<v:textRect cx="28.063" cy="888.278" width="56.13" height="19.8425"/>
				<rect x="0" y="878.356" width="56.126" height="19.8425" class="st1"/>
				<text x="4" y="893.26" class="st2" v:langID="1028"><v:paragraph/><v:tabList/>指南朝</text>			</g>
			<g id="shape28-84" v:mID="28" v:groupContext="shape" transform="translate(157.323,0)">
				<title>工作表.28</title>
				<desc>吳地</desc>
				<v:textBlock v:margins="rect(4,4,4,4)" v:tabSpace="42.5197"/>
				<v:textRect cx="20.126" cy="888.278" width="40.26" height="19.8425"/>
				<rect x="0" y="878.356" width="40.252" height="19.8425" class="st1"/>
				<text x="4" y="893.26" class="st2" v:langID="1028"><v:paragraph/><v:tabList/>吳地</text>			</g>
			<g id="shape29-87" v:mID="29" v:groupContext="shape" transform="translate(157.323,-36.5669)">
				<title>工作表.29</title>
				<desc>羅羅</desc>
				<v:textBlock v:margins="rect(4,4,4,4)" v:tabSpace="42.5197"/>
				<v:textRect cx="20.126" cy="888.278" width="40.26" height="19.8425"/>
				<rect x="0" y="878.356" width="40.252" height="19.8425" class="st1"/>
				<text x="4" y="893.26" class="st2" v:langID="1028"><v:paragraph/><v:tabList/>羅羅</text>			</g>
			<g id="shape30-90" v:mID="30" v:groupContext="shape" transform="translate(157.323,-73.1339)">
				<title>工作表.30</title>
				<desc>震旦</desc>
				<v:textBlock v:margins="rect(4,4,4,4)" v:tabSpace="42.5197"/>
				<v:textRect cx="20.126" cy="888.278" width="40.26" height="19.8425"/>
				<rect x="0" y="878.356" width="40.252" height="19.8425" class="st1"/>
				<text x="4" y="893.26" class="st2" v:langID="1028"><v:paragraph/><v:tabList/>震旦</text>			</g>
			<g id="shape31-93" v:mID="31" v:groupContext="shape" transform="translate(157.323,-109.701)">
				<title>工作表.31</title>
				<desc>緊那羅</desc>
				<v:textBlock v:margins="rect(4,4,4,4)" v:tabSpace="42.5197"/>
				<v:textRect cx="28.063" cy="888.278" width="56.13" height="19.8425"/>
				<rect x="0" y="878.356" width="56.126" height="19.8425" class="st1"/>
				<text x="4" y="893.26" class="st2" v:langID="1028"><v:paragraph/><v:tabList/>緊那羅</text>			</g>
			<g id="shape32-96" v:mID="32" v:groupContext="shape" transform="translate(157.323,-146.268)">
				<title>工作表.32</title>
				<desc>鄯善</desc>
				<v:textBlock v:margins="rect(4,4,4,4)" v:tabSpace="42.5197"/>
				<v:textRect cx="20.126" cy="888.278" width="40.26" height="19.8425"/>
				<rect x="0" y="878.356" width="40.252" height="19.8425" class="st1"/>
				<text x="4" y="893.26" class="st2" v:langID="1028"><v:paragraph/><v:tabList/>鄯善</text>			</g>
			<g id="shape33-99" v:mID="33" v:groupContext="shape" transform="translate(157.323,-182.835)">
				<title>工作表.33</title>
				<desc>億尼</desc>
				<v:textBlock v:margins="rect(4,4,4,4)" v:tabSpace="42.5197"/>
				<v:textRect cx="20.126" cy="888.278" width="40.26" height="19.8425"/>
				<rect x="0" y="878.356" width="40.252" height="19.8425" class="st1"/>
				<text x="4" y="893.26" class="st2" v:langID="1028"><v:paragraph/><v:tabList/>億尼</text>			</g>
			<g id="shape34-102" v:mID="34" v:groupContext="shape" transform="translate(157.323,-219.402)">
				<title>工作表.34</title>
				<desc>奚周迦</desc>
				<v:textBlock v:margins="rect(4,4,4,4)" v:tabSpace="42.5197"/>
				<v:textRect cx="28.063" cy="888.278" width="56.13" height="19.8425"/>
				<rect x="0" y="878.356" width="56.126" height="19.8425" class="st1"/>
				<text x="4" y="893.26" class="st2" v:langID="1028"><v:paragraph/><v:tabList/>奚周迦</text>			</g>
			<g id="shape35-105" v:mID="35" v:groupContext="shape" transform="translate(157.323,-255.969)">
				<title>工作表.35</title>
				<desc>婆樓迦</desc>
				<v:textBlock v:margins="rect(4,4,4,4)" v:tabSpace="42.5197"/>
				<v:textRect cx="28.063" cy="888.278" width="56.13" height="19.8425"/>
				<rect x="0" y="878.356" width="56.126" height="19.8425" class="st1"/>
				<text x="4" y="893.26" class="st2" v:langID="1028"><v:paragraph/><v:tabList/>婆樓迦</text>			</g>
			<g id="shape36-108" v:mID="36" v:groupContext="shape" transform="translate(157.323,-292.535)">
				<title>工作表.36</title>
				<desc>龜玆</desc>
				<v:textBlock v:margins="rect(4,4,4,4)" v:tabSpace="42.5197"/>
				<v:textRect cx="20.126" cy="888.278" width="40.26" height="19.8425"/>
				<rect x="0" y="878.356" width="40.252" height="19.8425" class="st1"/>
				<text x="4" y="893.26" class="st2" v:langID="1028"><v:paragraph/><v:tabList/>龜玆</text>			</g>
			<g id="shape37-111" v:mID="37" v:groupContext="shape" transform="translate(157.323,-329.102)">
				<title>工作表.37</title>
				<desc>于闐</desc>
				<v:textBlock v:margins="rect(4,4,4,4)" v:tabSpace="42.5197"/>
				<v:textRect cx="20.126" cy="888.278" width="40.26" height="19.8425"/>
				<rect x="0" y="878.356" width="40.252" height="19.8425" class="st1"/>
				<text x="4" y="893.26" class="st2" v:langID="1028"><v:paragraph/><v:tabList/>于闐</text>			</g>
			<g id="shape38-114" v:mID="38" v:groupContext="shape" transform="translate(157.323,-365.669)">
				<title>工作表.38</title>
				<desc>沙勒</desc>
				<v:textBlock v:margins="rect(4,4,4,4)" v:tabSpace="42.5197"/>
				<v:textRect cx="20.126" cy="888.278" width="40.26" height="19.8425"/>
				<rect x="0" y="878.356" width="40.252" height="19.8425" class="st1"/>
				<text x="4" y="893.26" class="st2" v:langID="1028"><v:paragraph/><v:tabList/>沙勒</text>			</g>
			<g id="shape39-117" v:mID="39" v:groupContext="shape" transform="translate(157.323,-402.236)">
				<title>工作表.39</title>
				<desc>簁提</desc>
				<v:textBlock v:margins="rect(4,4,4,4)" v:tabSpace="42.5197"/>
				<v:textRect cx="20.126" cy="888.278" width="40.26" height="19.8425"/>
				<rect x="0" y="878.356" width="40.252" height="19.8425" class="st1"/>
				<text x="4" y="893.26" class="st2" v:langID="1028"><v:paragraph/><v:tabList/>簁提</text>			</g>
			<g id="shape40-120" v:mID="40" v:groupContext="shape" transform="translate(157.323,-438.803)">
				<title>工作表.40</title>
				<desc>遮拘迦</desc>
				<v:textBlock v:margins="rect(4,4,4,4)" v:tabSpace="42.5197"/>
				<v:textRect cx="28.063" cy="888.278" width="56.13" height="19.8425"/>
				<rect x="0" y="878.356" width="56.126" height="19.8425" class="st1"/>
				<text x="4" y="893.26" class="st2" v:langID="1028"><v:paragraph/><v:tabList/>遮拘迦</text>			</g>
			<g id="shape41-123" v:mID="41" v:groupContext="shape" transform="translate(157.323,-475.37)">
				<title>工作表.41</title>
				<desc>迦沙</desc>
				<v:textBlock v:margins="rect(4,4,4,4)" v:tabSpace="42.5197"/>
				<v:textRect cx="20.126" cy="888.278" width="40.26" height="19.8425"/>
				<rect x="0" y="878.356" width="40.252" height="19.8425" class="st1"/>
				<text x="4" y="893.26" class="st2" v:langID="1028"><v:paragraph/><v:tabList/>迦沙</text>			</g>
			<g id="shape42-126" v:mID="42" v:groupContext="shape" transform="translate(157.323,-511.937)">
				<title>工作表.42</title>
				<desc>弗離沙</desc>
				<v:textBlock v:margins="rect(4,4,4,4)" v:tabSpace="42.5197"/>
				<v:textRect cx="28.063" cy="888.278" width="56.13" height="19.8425"/>
				<rect x="0" y="878.356" width="56.126" height="19.8425" class="st1"/>
				<text x="4" y="893.26" class="st2" v:langID="1028"><v:paragraph/><v:tabList/>弗離沙</text>			</g>
			<g id="shape43-129" v:mID="43" v:groupContext="shape" transform="translate(157.323,-548.504)">
				<title>工作表.43</title>
				<desc>波盧那</desc>
				<v:textBlock v:margins="rect(4,4,4,4)" v:tabSpace="42.5197"/>
				<v:textRect cx="28.063" cy="888.278" width="56.13" height="19.8425"/>
				<rect x="0" y="878.356" width="56.126" height="19.8425" class="st1"/>
				<text x="4" y="893.26" class="st2" v:langID="1028"><v:paragraph/><v:tabList/>波盧那</text>			</g>
			<g id="shape44-132" v:mID="44" v:groupContext="shape" transform="translate(157.323,-585.071)">
				<title>工作表.44</title>
				<desc>陀羅陀</desc>
				<v:textBlock v:margins="rect(4,4,4,4)" v:tabSpace="42.5197"/>
				<v:textRect cx="28.063" cy="888.278" width="56.13" height="19.8425"/>
				<rect x="0" y="878.356" width="56.126" height="19.8425" class="st1"/>
				<text x="4" y="893.26" class="st2" v:langID="1028"><v:paragraph/><v:tabList/>陀羅陀</text>			</g>
			<g id="shape45-135" v:mID="45" v:groupContext="shape" transform="translate(157.323,-621.638)">
				<title>工作表.45</title>
				<desc>阿疎拘迦</desc>
				<v:textBlock v:margins="rect(4,4,4,4)" v:tabSpace="42.5197"/>
				<v:textRect cx="36" cy="888.278" width="72" height="19.8425"/>
				<rect x="0" y="878.356" width="72" height="19.8425" class="st1"/>
				<text x="4" y="893.26" class="st2" v:langID="1028"><v:paragraph/><v:tabList/>阿疎拘迦</text>			</g>
			<g id="shape46-138" v:mID="46" v:groupContext="shape" transform="translate(157.323,-767.906)">
				<title>工作表.46</title>
				<desc>佉羅婆羅</desc>
				<v:textBlock v:margins="rect(4,4,4,4)" v:tabSpace="42.5197"/>
				<v:textRect cx="36" cy="888.278" width="72" height="19.8425"/>
				<rect x="0" y="878.356" width="72" height="19.8425" class="st1"/>
				<text x="4" y="893.26" class="st2" v:langID="1028"><v:paragraph/><v:tabList/>佉羅婆羅</text>			</g>
			<g id="shape47-141" v:mID="47" v:groupContext="shape" transform="translate(157.323,-804.472)">
				<title>工作表.47</title>
				<desc>憂羅奢</desc>
				<v:textBlock v:margins="rect(4,4,4,4)" v:tabSpace="42.5197"/>
				<v:textRect cx="28.063" cy="888.278" width="56.13" height="19.8425"/>
				<rect x="0" y="878.356" width="56.126" height="19.8425" class="st1"/>
				<text x="4" y="893.26" class="st2" v:langID="1028"><v:paragraph/><v:tabList/>憂羅奢</text>			</g>
			<g id="shape48-144" v:mID="48" v:groupContext="shape" transform="translate(157.323,-841.039)">
				<title>工作表.48</title>
				<desc>罽賓</desc>
				<v:textBlock v:margins="rect(4,4,4,4)" v:tabSpace="42.5197"/>
				<v:textRect cx="28.063" cy="888.278" width="56.13" height="19.8425"/>
				<rect x="0" y="878.356" width="56.126" height="19.8425" class="st1"/>
				<text x="4" y="893.26" class="st2" v:langID="1028"><v:paragraph/><v:tabList/>罽賓</text>			</g>
			<g id="shape49-147" v:mID="49" v:groupContext="shape" transform="translate(1.59872E-13,-841.039)">
				<title>工作表.49</title>
				<desc>罽賓那</desc>
				<v:textBlock v:margins="rect(4,4,4,4)" v:tabSpace="42.5197"/>
				<v:textRect cx="28.063" cy="888.278" width="56.13" height="19.8425"/>
				<rect x="0" y="878.356" width="56.126" height="19.8425" class="st1"/>
				<text x="4" y="893.26" class="st2" v:langID="1028"><v:paragraph/><v:tabList/>罽賓那</text>			</g>
			<g id="shape50-150" v:mID="50" v:groupContext="shape" transform="translate(2.39808E-13,-804.472)">
				<title>工作表.50</title>
				<desc>優羅賒</desc>
				<v:textBlock v:margins="rect(4,4,4,4)" v:tabSpace="42.5197"/>
				<v:textRect cx="28.063" cy="888.278" width="56.13" height="19.8425"/>
				<rect x="0" y="878.356" width="56.126" height="19.8425" class="st1"/>
				<text x="4" y="893.26" class="st2" v:langID="1028"><v:paragraph/><v:tabList/>優羅賒</text>			</g>
			<g id="shape51-153" v:mID="51" v:groupContext="shape" transform="translate(3.51719E-13,-767.906)">
				<title>工作表.51</title>
				<desc>佉羅婆羅</desc>
				<v:textBlock v:margins="rect(4,4,4,4)" v:tabSpace="42.5197"/>
				<v:textRect cx="36" cy="888.278" width="72" height="19.8425"/>
				<rect x="0" y="878.356" width="72" height="19.8425" class="st1"/>
				<text x="4" y="893.26" class="st2" v:langID="1028"><v:paragraph/><v:tabList/>佉羅婆羅</text>			</g>
			<g id="shape52-156" v:mID="52" v:groupContext="shape" transform="translate(8.63309E-13,-621.638)">
				<title>工作表.52</title>
				<desc>阿疎居迦</desc>
				<v:textBlock v:margins="rect(4,4,4,4)" v:tabSpace="42.5197"/>
				<v:textRect cx="36" cy="888.278" width="72" height="19.8425"/>
				<rect x="0" y="878.356" width="72" height="19.8425" class="st1"/>
				<text x="4" y="893.26" class="st2" v:langID="1028"><v:paragraph/><v:tabList/>阿疎居迦</text>			</g>
			<g id="shape53-159" v:mID="53" v:groupContext="shape" transform="translate(1.0032E-12,-585.071)">
				<title>工作表.53</title>
				<desc>達羅陀</desc>
				<v:textBlock v:margins="rect(4,4,4,4)" v:tabSpace="42.5197"/>
				<v:textRect cx="28.063" cy="888.278" width="56.13" height="19.8425"/>
				<rect x="0" y="878.356" width="56.126" height="19.8425" class="st1"/>
				<text x="4" y="893.26" class="st2" v:langID="1028"><v:paragraph/><v:tabList/>達羅陀</text>			</g>
			<g id="shape54-162" v:mID="54" v:groupContext="shape" transform="translate(1.39089E-12,-511.937)">
				<title>工作表.54</title>
				<desc>弗梨沙</desc>
				<v:textBlock v:margins="rect(4,4,4,4)" v:tabSpace="42.5197"/>
				<v:textRect cx="28.063" cy="888.278" width="56.13" height="19.8425"/>
				<rect x="0" y="878.356" width="56.126" height="19.8425" class="st1"/>
				<text x="4" y="893.26" class="st2" v:langID="1028"><v:paragraph/><v:tabList/>弗梨沙</text>			</g>
			<g id="shape55-165" v:mID="55" v:groupContext="shape" transform="translate(1.27498E-12,-475.37)">
				<title>工作表.55</title>
				<desc>伽賒</desc>
				<v:textBlock v:margins="rect(4,4,4,4)" v:tabSpace="42.5197"/>
				<v:textRect cx="20.126" cy="888.278" width="40.26" height="19.8425"/>
				<rect x="0" y="878.356" width="40.252" height="19.8425" class="st1"/>
				<text x="4" y="893.26" class="st2" v:langID="1028"><v:paragraph/><v:tabList/>伽賒</text>			</g>
			<g id="shape56-168" v:mID="56" v:groupContext="shape" transform="translate(1.51479E-12,-438.803)">
				<title>工作表.56</title>
				<desc>遮居迦</desc>
				<v:textBlock v:margins="rect(4,4,4,4)" v:tabSpace="42.5197"/>
				<v:textRect cx="28.063" cy="888.278" width="56.13" height="19.8425"/>
				<rect x="0" y="878.356" width="56.126" height="19.8425" class="st1"/>
				<text x="4" y="893.26" class="st2" v:langID="1028"><v:paragraph/><v:tabList/>遮居迦</text>			</g>
			<g id="shape57-171" v:mID="57" v:groupContext="shape" transform="translate(1.53078E-12,-402.236)">
				<title>工作表.57</title>
				<desc>簁提</desc>
				<v:textBlock v:margins="rect(4,4,4,4)" v:tabSpace="42.5197"/>
				<v:textRect cx="20.126" cy="888.278" width="40.26" height="19.8425"/>
				<rect x="0" y="878.356" width="40.252" height="19.8425" class="st1"/>
				<text x="4" y="893.26" class="st2" v:langID="1028"><v:paragraph/><v:tabList/>簁提</text>			</g>
			<g id="shape58-174" v:mID="58" v:groupContext="shape" transform="translate(1.66267E-12,-365.669)">
				<title>工作表.58</title>
				<desc>沙勒</desc>
				<v:textBlock v:margins="rect(4,4,4,4)" v:tabSpace="42.5197"/>
				<v:textRect cx="20.126" cy="888.278" width="40.26" height="19.8425"/>
				<rect x="0" y="878.356" width="40.252" height="19.8425" class="st1"/>
				<text x="4" y="893.26" class="st2" v:langID="1028"><v:paragraph/><v:tabList/>沙勒</text>			</g>
			<g id="shape59-177" v:mID="59" v:groupContext="shape" transform="translate(1.91447E-12,-329.102)">
				<title>工作表.59</title>
				<desc>于闐</desc>
				<v:textBlock v:margins="rect(4,4,4,4)" v:tabSpace="42.5197"/>
				<v:textRect cx="20.126" cy="888.278" width="40.26" height="19.8425"/>
				<rect x="0" y="878.356" width="40.252" height="19.8425" class="st1"/>
				<text x="4" y="893.26" class="st2" v:langID="1028"><v:paragraph/><v:tabList/>于闐</text>			</g>
			<g id="shape60-180" v:mID="60" v:groupContext="shape" transform="translate(2.04237E-12,-292.535)">
				<title>工作表.60</title>
				<desc>龜玆</desc>
				<v:textBlock v:margins="rect(4,4,4,4)" v:tabSpace="42.5197"/>
				<v:textRect cx="20.126" cy="888.278" width="40.26" height="19.8425"/>
				<rect x="0" y="878.356" width="40.252" height="19.8425" class="st1"/>
				<text x="4" y="893.26" class="st2" v:langID="1028"><v:paragraph/><v:tabList/>龜玆</text>			</g>
			<g id="shape61-183" v:mID="61" v:groupContext="shape" transform="translate(2.15428E-12,-255.969)">
				<title>工作表.61</title>
				<desc>婆樓迦</desc>
				<v:textBlock v:margins="rect(4,4,4,4)" v:tabSpace="42.5197"/>
				<v:textRect cx="28.063" cy="888.278" width="56.13" height="19.8425"/>
				<rect x="0" y="878.356" width="56.126" height="19.8425" class="st1"/>
				<text x="4" y="893.26" class="st2" v:langID="1028"><v:paragraph/><v:tabList/>婆樓迦</text>			</g>
			<g id="shape62-186" v:mID="62" v:groupContext="shape" transform="translate(2.28217E-12,-219.402)">
				<title>工作表.62</title>
				<desc>兮周迦</desc>
				<v:textBlock v:margins="rect(4,4,4,4)" v:tabSpace="42.5197"/>
				<v:textRect cx="28.063" cy="888.278" width="56.13" height="19.8425"/>
				<rect x="0" y="878.356" width="56.126" height="19.8425" class="st1"/>
				<text x="4" y="893.26" class="st2" v:langID="1028"><v:paragraph/><v:tabList/>兮周迦</text>			</g>
			<g id="shape63-189" v:mID="63" v:groupContext="shape" transform="translate(2.55396E-12,-146.268)">
				<title>工作表.63</title>
				<desc>鄯善</desc>
				<v:textBlock v:margins="rect(4,4,4,4)" v:tabSpace="42.5197"/>
				<v:textRect cx="20.126" cy="888.278" width="40.26" height="19.8425"/>
				<rect x="0" y="878.356" width="40.252" height="19.8425" class="st1"/>
				<text x="4" y="893.26" class="st2" v:langID="1028"><v:paragraph/><v:tabList/>鄯善</text>			</g>
			<g id="shape64-192" v:mID="64" v:groupContext="shape" transform="translate(2.66587E-12,-109.701)">
				<title>工作表.64</title>
				<desc>緊那羅</desc>
				<v:textBlock v:margins="rect(4,4,4,4)" v:tabSpace="42.5197"/>
				<v:textRect cx="28.063" cy="888.278" width="56.13" height="19.8425"/>
				<rect x="0" y="878.356" width="56.126" height="19.8425" class="st1"/>
				<text x="4" y="893.26" class="st2" v:langID="1028"><v:paragraph/><v:tabList/>緊那羅</text>			</g>
			<g id="shape65-195" v:mID="65" v:groupContext="shape" transform="translate(2.78177E-12,-73.1339)">
				<title>工作表.65</title>
				<desc>震旦漢國</desc>
				<v:textBlock v:margins="rect(4,4,4,4)" v:tabSpace="42.5197"/>
				<v:textRect cx="36" cy="888.278" width="72" height="19.8425"/>
				<rect x="0" y="878.356" width="72" height="19.8425" class="st1"/>
				<text x="4" y="893.26" class="st2" v:langID="1028"><v:paragraph/><v:tabList/>震旦漢國</text>			</g>
		</g>
	</g>
</svg>
