<?xml version="1.0" encoding="UTF-8" standalone="no"?>
<!DOCTYPE svg PUBLIC "-//W3C//DTD SVG 1.0//EN" "http://www.w3.org/TR/2001/REC-SVG-20010904/DTD/svg10.dtd">
<!-- 由 Microsoft Visio 11.0, SVG Export, v1.0 產生 y22.0049-h.svg 頁-1 -->
<svg xmlns="http://www.w3.org/2000/svg" xmlns:xlink="http://www.w3.org/1999/xlink" xmlns:ev="http://www.w3.org/2001/xml-events"
		xmlns:v="http://schemas.microsoft.com/visio/2003/SVGExtensions/" width="8.6892in" height="2.37112in"
		viewBox="0 0 625.622 170.721" xml:space="preserve" color-interpolation-filters="sRGB" class="st8">
	<v:documentProperties v:langID="1028" v:metric="true" v:viewMarkup="false"/>

	<style type="text/css">
	<![CDATA[
		.st1 {fill:none;stroke:#000000;stroke-linecap:round;stroke-linejoin:round;stroke-opacity:0;stroke-width:1}
		.st2 {fill:#000000;font-family:新細明體;font-size:1.33333em}
		.st3 {stroke:#000000;stroke-linecap:round;stroke-linejoin:round;stroke-width:1}
		.st4 {fill:none;stroke:#000000;stroke-linecap:round;stroke-linejoin:round;stroke-opacity:0;stroke-width:0.75}
		.st5 {fill:#000000;font-family:新細明體;font-size:1.00001em}
		.st6 {stroke:#000000;stroke-dasharray:3,3;stroke-linecap:round;stroke-linejoin:round;stroke-width:1}
		.st7 {stroke:#ffffff;stroke-linecap:round;stroke-linejoin:round;stroke-opacity:0;stroke-width:1}
		.st8 {fill:none;fill-rule:evenodd;font-size:12px;overflow:visible;stroke-linecap:square;stroke-miterlimit:3}
	]]>
	</style>

	<g v:mID="0" v:index="1" v:groupContext="foregroundPage">
		<title>頁-1</title>
		<v:pageProperties v:drawingScale="0.0393701" v:pageScale="0.0393701" v:drawingUnits="24" v:shadowOffsetX="8.50394"
				v:shadowOffsetY="-8.50394"/>
		<g id="group35-1" transform="translate(1,-0.75)" v:mID="35" v:groupContext="group">
			<title>工作表.35</title>
			<g id="shape1-2" v:mID="1" v:groupContext="shape" transform="translate(17.0079,-39.7874)">
				<title>工作表.1</title>
				<desc>兩晉之性空</desc>
				<v:textBlock v:margins="rect(4,4,4,4)" v:tabSpace="42.5197"/>
				<v:textRect cx="45.3543" cy="125.366" width="90.71" height="90.7087"/>
				<rect x="0" y="80.0119" width="90.7087" height="90.7087" class="st1"/>
				<text x="5.35" y="130.17" class="st2" v:langID="1028"><v:paragraph v:horizAlign="1"/><v:tabList/>兩晉之性空</text>			</g>
			<g id="shape6-5" v:mID="6" v:groupContext="shape" transform="translate(119.055,-19.6898)">
				<title>工作表.6</title>
				<desc>唯心</desc>
				<v:textBlock v:margins="rect(4,4,4,4)" v:tabSpace="42.5197"/>
				<v:textRect cx="22.8047" cy="147.916" width="45.61" height="45.6094"/>
				<rect x="0" y="125.111" width="45.6094" height="45.6094" class="st1"/>
				<text x="6.8" y="152.72" class="st2" v:langID="1028"><v:paragraph v:horizAlign="1"/><v:tabList/>唯心</text>			</g>
			<g id="shape7-8" v:mID="7" v:groupContext="shape" transform="translate(118.8,-104.984)">
				<title>工作表.7</title>
				<desc>真常</desc>
				<v:textBlock v:margins="rect(4,4,4,4)" v:tabSpace="42.5197"/>
				<v:textRect cx="22.8047" cy="147.916" width="45.61" height="45.6094"/>
				<rect x="0" y="125.111" width="45.6094" height="45.6094" class="st1"/>
				<text x="6.8" y="152.72" class="st2" v:langID="1028"><v:paragraph v:horizAlign="1"/><v:tabList/>真常</text>			</g>
			<g id="shape8-11" v:mID="8" v:groupContext="shape" transform="translate(428.031,-99.315)">
				<title>工作表.8</title>
				<desc>真淨心</desc>
				<v:textBlock v:margins="rect(4,4,4,4)" v:tabSpace="42.5197"/>
				<v:textRect cx="28.474" cy="142.247" width="56.95" height="56.948"/>
				<rect x="0" y="113.773" width="56.948" height="56.948" class="st1"/>
				<text x="4.47" y="147.05" class="st2" v:langID="1028"><v:paragraph v:horizAlign="1"/><v:tabList/>真淨心</text>			</g>
			<g id="shape11-14" v:mID="11" v:groupContext="shape" transform="translate(541.417,-12.8583)">
				<title>工作表.11</title>
				<desc>賢首系</desc>
				<v:textBlock v:margins="rect(4,4,4,4)" v:tabSpace="42.5197"/>
				<v:textRect cx="29.7638" cy="140.957" width="59.53" height="59.5276"/>
				<rect x="0" y="111.193" width="59.5276" height="59.5276" class="st1"/>
				<text x="5.76" y="145.76" class="st2" v:langID="1028"><v:paragraph v:horizAlign="1"/><v:tabList/>賢首系</text>			</g>
			<g id="shape12-17" v:mID="12" v:groupContext="shape" transform="translate(541.417,-41.2048)">
				<title>工作表.12</title>
				<desc>玄奘系</desc>
				<v:textBlock v:margins="rect(4,4,4,4)" v:tabSpace="42.5197"/>
				<v:textRect cx="29.7638" cy="140.957" width="59.53" height="59.5276"/>
				<rect x="0" y="111.193" width="59.5276" height="59.5276" class="st1"/>
				<text x="5.76" y="145.76" class="st2" v:langID="1028"><v:paragraph v:horizAlign="1"/><v:tabList/>玄奘系</text>			</g>
			<g id="shape13-20" v:mID="13" v:groupContext="shape" transform="translate(541.417,-69.5512)">
				<title>工作表.13</title>
				<desc>真諦系</desc>
				<v:textBlock v:margins="rect(4,4,4,4)" v:tabSpace="42.5197"/>
				<v:textRect cx="29.7638" cy="140.957" width="59.53" height="59.5276"/>
				<rect x="0" y="111.193" width="59.5276" height="59.5276" class="st1"/>
				<text x="5.76" y="145.76" class="st2" v:langID="1028"><v:paragraph v:horizAlign="1"/><v:tabList/>真諦系</text>			</g>
			<g id="shape14-23" v:mID="14" v:groupContext="shape" transform="translate(541.417,-97.8977)">
				<title>工作表.14</title>
				<desc>流支系</desc>
				<v:textBlock v:margins="rect(4,4,4,4)" v:tabSpace="42.5197"/>
				<v:textRect cx="29.7638" cy="140.957" width="59.53" height="59.5276"/>
				<rect x="0" y="111.193" width="59.5276" height="59.5276" class="st1"/>
				<text x="5.76" y="145.76" class="st2" v:langID="1028"><v:paragraph v:horizAlign="1"/><v:tabList/>流支系</text>			</g>
			<g id="shape15-26" v:mID="15" v:groupContext="shape" transform="translate(484.98,-127.661)">
				<title>工作表.15</title>
				<path d="M0 170.72 L53.6 170.72" class="st3"/>
			</g>
			<g id="shape16-29" v:mID="16" v:groupContext="shape" transform="translate(532.658,-78.3488) rotate(16.2171)">
				<title>工作表.16</title>
				<path d="M0 170.72 L55.82 170.72" class="st3"/>
			</g>
			<g id="shape18-32" v:mID="18" v:groupContext="shape" transform="translate(441.339,-79.4697) rotate(-14.8107)">
				<title>工作表.18</title>
				<path d="M0 170.72 L55.45 170.72" class="st3"/>
			</g>
			<g id="shape19-35" v:mID="19" v:groupContext="shape" transform="translate(484.852,-42.6221)">
				<title>工作表.19</title>
				<path d="M0 170.72 L53.6 170.72" class="st3"/>
			</g>
			<g id="shape20-38" v:mID="20" v:groupContext="shape" transform="translate(246.512,-29.4094)">
				<title>工作表.20</title>
				<desc>南土之真空妙有論</desc>
				<v:textBlock v:margins="rect(4,4,4,4)" v:tabSpace="42.5197"/>
				<v:textRect cx="71.9291" cy="100.815" width="143.86" height="139.811"/>
				<rect x="0" y="30.9094" width="143.858" height="139.811" class="st4"/>
				<text x="7.93" y="105.62" class="st2" v:langID="1028"><v:paragraph v:horizAlign="1"/><v:tabList/>南土之真空妙有論</text>			</g>
			<g id="shape21-41" v:mID="21" v:groupContext="shape" transform="translate(246.512,2.84217E-014)">
				<title>工作表.21</title>
				<desc>北土之真常唯心論</desc>
				<v:textBlock v:margins="rect(4,4,4,4)" v:tabSpace="42.5197"/>
				<v:textRect cx="71.9291" cy="100.815" width="143.86" height="139.811"/>
				<rect x="0" y="30.9094" width="143.858" height="139.811" class="st4"/>
				<text x="7.93" y="105.62" class="st2" v:langID="1028"><v:paragraph v:horizAlign="1"/><v:tabList/>北土之真常唯心論</text>			</g>
			<g id="shape23-44" v:mID="23" v:groupContext="shape" transform="translate(371.339,-79.4725)">
				<title>工作表.23</title>
				<desc>見前</desc>
				<v:textBlock v:margins="rect(4,4,4,4)" v:tabSpace="42.5197"/>
				<v:textRect cx="22.8047" cy="147.916" width="45.61" height="45.6094"/>
				<rect x="0" y="125.111" width="45.6094" height="45.6094" class="st1"/>
				<text x="10.8" y="151.52" class="st5" v:langID="1028"><v:paragraph v:horizAlign="1"/><v:tabList/>見前</text>			</g>
			<g id="shape22-47" v:mID="22" v:groupContext="shape" transform="translate(383.134,-70.9685)">
				<title>工作表.22</title>
				<path d="M0 170.72 L29.31 170.72" class="st3"/>
			</g>
			<g id="shape24-50" v:mID="24" v:groupContext="shape" transform="translate(412.441,-127.661)">
				<title>工作表.24</title>
				<path d="M0 170.72 L14.17 170.72" class="st3"/>
			</g>
			<g id="shape25-53" v:mID="25" v:groupContext="shape" transform="translate(412.441,-85.1418)">
				<title>工作表.25</title>
				<path d="M0 170.72 L14.17 170.72" class="st3"/>
			</g>
			<g id="shape26-56" v:mID="26" v:groupContext="shape" transform="translate(412.441,-42.6221)">
				<title>工作表.26</title>
				<path d="M0 170.72 L14.17 170.72" class="st3"/>
			</g>
			<g id="shape27-59" v:mID="27" v:groupContext="shape" transform="translate(583.161,43.0591) rotate(90)">
				<title>工作表.27</title>
				<path d="M0 170.72 L85.04 170.72" class="st3"/>
			</g>
			<g id="shape2-62" v:mID="2" v:groupContext="shape" transform="translate(107.717,-85.1418)">
				<title>工作表.2</title>
				<path d="M0 170.72 L14.17 170.72" class="st3"/>
			</g>
			<g id="shape3-65" v:mID="3" v:groupContext="shape" transform="translate(103.037,-84.0976) rotate(-6.34019)">
				<title>工作表.3</title>
				<path d="M0 170.72 L128.34 170.72" class="st3"/>
			</g>
			<g id="shape4-68" v:mID="4" v:groupContext="shape" transform="translate(110.532,-33.8125) rotate(-18.4867)">
				<title>工作表.4</title>
				<path d="M0 170.72 L89.4 170.72" class="st3"/>
			</g>
			<g id="shape5-71" v:mID="5" v:groupContext="shape" transform="translate(78.7283,99.752) rotate(-90)">
				<title>工作表.5</title>
				<path d="M28.35 170.72 L57.4 85.68 L0 170.72" class="st3"/>
			</g>
			<g id="shape28-74" v:mID="28" v:groupContext="shape" transform="translate(141.649,-84.1523) rotate(6.40997)">
				<title>工作表.28</title>
				<path d="M0 170.72 L127.66 170.72" class="st6"/>
			</g>
			<g id="shape29-77" v:mID="29" v:groupContext="shape" transform="translate(70.2782,-13.735) rotate(-34.0726)">
				<title>工作表.29</title>
				<path d="M0 170.72 L100.57 170.72" class="st6"/>
			</g>
			<g id="shape30-80" v:mID="30" v:groupContext="shape" transform="translate(565.951,-107.238) rotate(28.3133)">
				<title>工作表.30</title>
				<path d="M0 170.72 L60.13 170.72" class="st3"/>
			</g>
			<g id="shape9-83" v:mID="9" v:groupContext="shape" transform="translate(428.031,-56.7953)">
				<title>工作表.9</title>
				<desc>虛妄心</desc>
				<v:textBlock v:margins="rect(4,4,4,4)" v:tabSpace="42.5197"/>
				<v:textRect cx="28.474" cy="142.247" width="56.95" height="56.948"/>
				<rect x="0" y="113.773" width="56.948" height="56.948" class="st1"/>
				<text x="4.47" y="147.05" class="st2" v:langID="1028"><v:paragraph v:horizAlign="1"/><v:tabList/>虛妄心</text>			</g>
			<g id="shape10-86" v:mID="10" v:groupContext="shape" transform="translate(427.904,-14.2756)">
				<title>工作表.10</title>
				<desc>圓常心</desc>
				<v:textBlock v:margins="rect(4,4,4,4)" v:tabSpace="42.5197"/>
				<v:textRect cx="28.474" cy="142.247" width="56.95" height="56.948"/>
				<rect x="0" y="113.773" width="56.948" height="56.948" class="st1"/>
				<text x="4.47" y="147.05" class="st2" v:langID="1028"><v:paragraph v:horizAlign="1"/><v:tabList/>圓常心</text>			</g>
			<g id="shape31-89" v:mID="31" v:groupContext="shape" transform="translate(17.0079,-20.8307)">
				<title>工作表.31</title>
				<path d="M0 43.16 L595.28 43.16 L595.28 170.72" class="st7"/>
			</g>
			<g id="shape17-92" v:mID="17" v:groupContext="shape" transform="translate(0,-155.476)">
				<title>工作表.17</title>
				<path d="M0 170.72 L609.45 170.72" class="st7"/>
			</g>
			<g id="shape32-95" v:mID="32" v:groupContext="shape" transform="translate(14.1732,-13.7441)">
				<title>工作表.32</title>
				<path d="M0 170.72 L609.45 170.72" class="st7"/>
			</g>
			<g id="shape33-98" v:mID="33" v:groupContext="shape" transform="translate(794.343,15.2441) rotate(90)">
				<title>工作表.33</title>
				<path d="M0 170.72 L141.73 170.72" class="st7"/>
			</g>
			<g id="shape34-101" v:mID="34" v:groupContext="shape" transform="translate(184.894,15.2441) rotate(90)">
				<title>工作表.34</title>
				<path d="M0 170.72 L141.73 170.72" class="st7"/>
			</g>
		</g>
	</g>
</svg>
