<?xml version="1.0" encoding="UTF-8" standalone="no"?>
<!DOCTYPE svg PUBLIC "-//W3C//DTD SVG 1.1//EN" "http://www.w3.org/Graphics/SVG/1.1/DTD/svg11.dtd">
<!-- 由 Microsoft Visio, SVG Export 產生 y22.0139-h（右邊第5行我改了一個「咤」字）.svg 頁-1 -->
<svg xmlns="http://www.w3.org/2000/svg" xmlns:xlink="http://www.w3.org/1999/xlink" xmlns:ev="http://www.w3.org/2001/xml-events"
		width="4.12853in" height="4.349in" viewBox="0 0 297.254 313.128" xml:space="preserve" color-interpolation-filters="sRGB"
		class="st3">
	<style type="text/css">
	<![CDATA[
		.st1 {fill:none;stroke:none;stroke-linecap:round;stroke-linejoin:round;stroke-width:0.75}
		.st2 {fill:#000000;font-family:新細明體;font-size:1.33333em}
		.st3 {fill:none;fill-rule:evenodd;font-size:12px;overflow:visible;stroke-linecap:square;stroke-miterlimit:3}
	]]>
	</style>

	<g>
		<title>頁-1</title>
		<g id="group24-1" transform="translate(0.375,-0.375)">
			<title>工作表.24</title>
			<g id="shape1-2" transform="translate(1.59872E-14,-292.535)">
				<title>工作表.1</title>
				<desc>末闡提</desc>
				<rect x="0" y="293.285" width="56.126" height="19.8425" class="st1"/>
				<text x="4.06" y="308.01" class="st2">末闡提</text>			</g>
			<g id="shape6-5" transform="translate(0,-255.969)">
				<title>工作表.6</title>
				<desc>摩訶提婆</desc>
				<rect x="0" y="293.285" width="72" height="19.8425" class="st1"/>
				<text x="4" y="308.01" class="st2">摩訶提婆</text>			</g>
			<g id="shape7-8">
				<title>工作表.7</title>
				<desc>摩哂陀等</desc>
				<rect x="0" y="293.285" width="72" height="19.8425" class="st1"/>
				<text x="4" y="308.01" class="st2">摩哂陀等</text>			</g>
			<g id="shape8-11" transform="translate(1.39888E-13,-219.402)">
				<title>工作表.8</title>
				<desc>勒棄多</desc>
				<rect x="0" y="293.285" width="56.126" height="19.8425" class="st1"/>
				<text x="4.06" y="308.01" class="st2">勒棄多</text>			</g>
			<g id="shape9-14" transform="translate(3.95683E-13,-182.835)">
				<title>工作表.9</title>
				<desc>曇無德</desc>
				<rect x="0" y="293.285" width="56.126" height="19.8425" class="st1"/>
				<text x="4.06" y="308.01" class="st2">曇無德</text>			</g>
			<g id="shape10-17" transform="translate(6.23501E-13,-146.268)">
				<title>工作表.10</title>
				<desc>摩訶曇無德</desc>
				<rect x="0" y="293.285" width="92.4094" height="19.8425" class="st1"/>
				<text x="6.2" y="308.01" class="st2">摩訶曇無德</text>			</g>
			<g id="shape11-20" transform="translate(6.23501E-13,-109.701)">
				<title>工作表.11</title>
				<desc>摩訶勒棄多</desc>
				<rect x="0" y="293.285" width="92.4094" height="19.8425" class="st1"/>
				<text x="6.2" y="308.01" class="st2">摩訶勒棄多</text>			</g>
			<g id="shape12-23" transform="translate(8.35332E-13,-73.1339)">
				<title>工作表.12</title>
				<desc>迦葉等</desc>
				<rect x="0" y="293.285" width="56.126" height="19.8425" class="st1"/>
				<text x="4.06" y="308.01" class="st2">迦葉等</text>			</g>
			<g id="shape13-26" transform="translate(9.07274E-13,-36.5669)">
				<title>工作表.13</title>
				<desc>須那等</desc>
				<rect x="0" y="293.285" width="56.126" height="19.8425" class="st1"/>
				<text x="4.06" y="308.01" class="st2">須那等</text>			</g>
			<g id="shape14-29" transform="translate(192.472,-255.969)">
				<title>工作表.14</title>
				<desc>摩醯娑漫陀羅</desc>
				<rect x="0" y="293.285" width="104.031" height="19.8425" class="st1"/>
				<text x="4.02" y="308.01" class="st2">摩醯娑漫陀羅</text>			</g>
			<g id="shape15-32" transform="translate(192.472,-292.535)">
				<title>工作表.15</title>
				<desc>罽賓、犍陀羅</desc>
				<rect x="0" y="293.285" width="104.031" height="19.8425" class="st1"/>
				<text x="4.02" y="308.01" class="st2">罽賓、犍陀羅</text>			</g>
			<g id="shape17-35" transform="translate(192.472,-219.402)">
				<title>工作表.17</title>
				<desc>婆那婆私</desc>
				<rect x="0" y="293.285" width="72" height="19.8425" class="st1"/>
				<text x="4" y="308.01" class="st2">婆那婆私</text>			</g>
			<g id="shape18-38" transform="translate(192.472,-182.835)">
				<title>工作表.18</title>
				<desc>阿波蘭多迦</desc>
				<rect x="0" y="293.285" width="92.4094" height="19.8425" class="st1"/>
				<text x="6.2" y="308.01" class="st2">阿波蘭多迦</text>			</g>
			<g id="shape19-41" transform="translate(192.472,-146.268)">
				<title>工作表.19</title>
				<desc>摩訶勒咤</desc>
				<rect x="0" y="293.285" width="72" height="19.8425" class="st1"/>
				<text x="4" y="308.01" class="st2">摩訶勒咤</text>			</g>
			<g id="shape20-44" transform="translate(192.472,-109.701)">
				<title>工作表.20</title>
				<desc>臾那世界</desc>
				<rect x="0" y="293.285" width="72" height="19.8425" class="st1"/>
				<text x="4" y="308.01" class="st2">臾那世界</text>			</g>
			<g id="shape21-47" transform="translate(192.472,-73.1339)">
				<title>工作表.21</title>
				<desc>雪山邊</desc>
				<rect x="0" y="293.285" width="56.126" height="19.8425" class="st1"/>
				<text x="4.06" y="308.01" class="st2">雪山邊</text>			</g>
			<g id="shape22-50" transform="translate(192.472,-6.25278E-13)">
				<title>工作表.22</title>
				<desc>師子國</desc>
				<rect x="0" y="293.285" width="56.126" height="19.8425" class="st1"/>
				<text x="4.06" y="308.01" class="st2">師子國</text>			</g>
			<g id="shape23-53" transform="translate(192.472,-36.5669)">
				<title>工作表.23</title>
				<desc>金地</desc>
				<rect x="0" y="293.285" width="40.252" height="19.8425" class="st1"/>
				<text x="4.13" y="308.01" class="st2">金地</text>			</g>
		</g>
	</g>
</svg>
