<?xml version="1.0" encoding="UTF-8" standalone="no"?>
<!DOCTYPE svg PUBLIC "-//W3C//DTD SVG 1.1//EN" "http://www.w3.org/Graphics/SVG/1.1/DTD/svg11.dtd">
<!-- 由 Microsoft Visio, SVG Export 產生 y22.0368-h.svg 頁-1 -->
<svg xmlns="http://www.w3.org/2000/svg" xmlns:xlink="http://www.w3.org/1999/xlink" xmlns:ev="http://www.w3.org/2001/xml-events"
		width="7.90505in" height="6.88837in" viewBox="0 0 569.164 495.963" xml:space="preserve" color-interpolation-filters="sRGB"
		class="st4">
	<style type="text/css">
	<![CDATA[
		.st1 {fill:none;stroke:none;stroke-linecap:round;stroke-linejoin:round;stroke-width:0.75}
		.st2 {fill:#000000;font-family:新細明體;font-size:1.33333em}
		.st3 {font-size:1em}
		.st4 {fill:none;fill-rule:evenodd;font-size:12px;overflow:visible;stroke-linecap:square;stroke-miterlimit:3}
	]]>
	</style>

	<g>
		<title>頁-1</title>
		<g id="group57-1" transform="translate(0.375,-0.375)">
			<title>工作表.57</title>
			<g id="shape1-2" transform="translate(1.43885E-013,-438.803)">
				<title>工作表.1</title>
				<desc>「爰以宿植早厭樊籠」</desc>
				<rect x="0" y="476.12" width="184.252" height="19.8425" class="st1"/>
				<text x="4" y="491.02" class="st2">「爰以宿植，早厭樊籠」</text>			</g>
			<g id="shape2-5" transform="translate(3.19744E-014,-475.37)">
				<title>工作表.2</title>
				<desc>﹝行　　狀﹞</desc>
				<rect x="0" y="476.12" width="104.031" height="19.8425" class="st1"/>
				<text x="4.02" y="491.02" class="st2">﹝行　　狀﹞</text>			</g>
			<g id="shape3-8" transform="translate(192.331,-475.37)">
				<title>工作表.3</title>
				<desc>﹝僧　　傳﹞</desc>
				<rect x="0" y="476.12" width="104.031" height="19.8425" class="st1"/>
				<text x="4.02" y="491.02" class="st2">﹝僧　　傳﹞</text>			</g>
			<g id="shape4-11" transform="translate(384.094,-475.37)">
				<title>工作表.4</title>
				<desc>﹝慈恩傳﹞</desc>
				<rect x="0" y="476.12" width="104.031" height="19.8425" class="st1"/>
				<text x="0.25em" y="491.02" class="st2">﹝<tspan x="1.501em 2.751em 4.002em" dy="0em" class="st3">慈恩傳</tspan><tspan
							x="5.252em" dy="0em" class="st3">﹞</tspan></text>			</g>
			<g id="shape5-16" transform="translate(4.95604E-013,-402.236)">
				<title>工作表.5</title>
				<desc>。……</desc>
				<rect x="0" y="476.12" width="184.252" height="19.8425" class="st1"/>
				<text x="4" y="491.02" class="st2">。……</text>			</g>
			<g id="shape6-19" transform="translate(6.39488E-013,-292.535)">
				<title>工作表.6</title>
				<desc>「大業之際詔度僧尼。</desc>
				<rect x="0" y="476.12" width="184.252" height="19.8425" class="st1"/>
				<text x="4" y="491.02" class="st2">「大業之際，詔度僧尼。</text>			</g>
			<g id="shape7-22" transform="translate(7.83373E-013,-255.969)">
				<title>工作表.7</title>
				<desc>……因聽落飾止於東都</desc>
				<rect x="0" y="476.12" width="184.252" height="19.8425" class="st1"/>
				<text x="4" y="491.02" class="st2">……因聽落飾，止於東都</text>			</g>
			<g id="shape8-25" transform="translate(9.27258E-013,-219.402)">
				<title>工作表.8</title>
				<desc>淨土道場」。</desc>
				<rect x="0" y="476.12" width="184.252" height="19.8425" class="st1"/>
				<text x="4" y="491.02" class="st2">淨土道場」。</text>			</g>
			<g id="shape9-28" transform="translate(1.00719E-012,-182.835)">
				<title>工作表.9</title>
				<desc>「時寺有景法師講涅槃經</desc>
				<rect x="0" y="476.12" width="184.252" height="19.8425" class="st1"/>
				<text x="4" y="491.02" class="st2">「時寺有景法師講涅槃經</text>			</g>
			<g id="shape10-31" transform="translate(1.15108E-012,-146.268)">
				<title>工作表.10</title>
				<desc>……又學嚴法師攝論……</desc>
				<rect x="0" y="476.12" width="184.252" height="19.8425" class="st1"/>
				<text x="4" y="491.02" class="st2">……又學嚴法師攝論……</text>			</g>
			<g id="shape11-34" transform="translate(1.29496E-012,-109.701)">
				<title>工作表.11</title>
				<desc>昇座覆述抑揚剖暢備</desc>
				<rect x="0" y="476.12" width="184.252" height="19.8425" class="st1"/>
				<text x="4" y="491.02" class="st2">昇座覆述，抑揚剖暢，備</text>			</g>
			<g id="shape12-37" transform="translate(1.43885E-012,-73.1339)">
				<title>工作表.12</title>
				<desc>盡師宗。美問芳聲從茲</desc>
				<rect x="0" y="476.12" width="184.252" height="19.8425" class="st1"/>
				<text x="4" y="491.02" class="st2">盡師宗。美問芳聲，從茲</text>			</g>
			<g id="shape13-40" transform="translate(1.5028E-012,-36.5669)">
				<title>工作表.13</title>
				<desc>發爽矣時年十五也</desc>
				<rect x="0" y="476.12" width="184.252" height="19.8425" class="st1"/>
				<text x="4" y="491.02" class="st2">發爽（矣），時年十五也</text>			</g>
			<g id="shape14-43">
				<title>工作表.14</title>
				<desc>」。</desc>
				<rect x="0" y="476.12" width="184.252" height="19.8425" class="st1"/>
				<text x="4" y="491.02" class="st2">」。</text>			</g>
			<g id="shape15-46" transform="translate(192.331,-438.803)">
				<title>工作表.15</title>
				<desc>「以奘少罹窮酷攜以將</desc>
				<rect x="0" y="476.12" width="184.252" height="19.8425" class="st1"/>
				<text x="4" y="491.02" class="st2">「以奘少罹窮酷，攜以將</text>			</g>
			<g id="shape16-49" transform="translate(192.331,-402.236)">
				<title>工作表.16</title>
				<desc>之。日授精理旁兼巧論</desc>
				<rect x="0" y="476.12" width="184.252" height="19.8425" class="st1"/>
				<text x="4" y="491.02" class="st2">之。日授精理，旁兼巧論</text>			</g>
			<g id="shape17-52" transform="translate(192.331,-365.669)">
				<title>工作表.17</title>
				<desc>。年十一誦維摩法華」</desc>
				<rect x="0" y="476.12" width="184.252" height="19.8425" class="st1"/>
				<text x="4" y="491.02" class="st2">。年十一，誦維摩法華」</text>			</g>
			<g id="shape18-55" transform="translate(192.331,-329.102)">
				<title>工作表.18</title>
				<desc>。</desc>
				<rect x="0" y="476.12" width="184.252" height="19.8425" class="st1"/>
				<text x="4" y="491.02" class="st2">。</text>			</g>
			<g id="shape19-58" transform="translate(192.331,-292.535)">
				<title>工作表.19</title>
				<desc>「東都恒度便預其次」</desc>
				<rect x="0" y="476.12" width="184.252" height="19.8425" class="st1"/>
				<text x="4" y="491.02" class="st2">「東都恒度，便預其次」</text>			</g>
			<g id="shape20-61" transform="translate(192.331,-255.969)">
				<title>工作表.20</title>
				<desc>。……</desc>
				<rect x="0" y="476.12" width="184.252" height="19.8425" class="st1"/>
				<text x="4" y="491.02" class="st2">。……</text>			</g>
			<g id="shape21-64" transform="translate(192.331,-182.835)">
				<title>工作表.21</title>
				<desc>「時……《涅槃》、《攝</desc>
				<rect x="0" y="476.12" width="184.252" height="19.8425" class="st1"/>
				<text x="4" y="491.02" class="st2">「時……《涅槃》、《攝</text>			</g>
			<g id="shape22-67" transform="translate(192.331,-109.376)">
				<title>工作表.22</title>
				<desc>徒異其欣奉美風素……</desc>
				<rect x="0" y="476.12" width="184.252" height="19.8425" class="st1"/>
				<text x="4" y="491.02" class="st2">徒異其欣奉，美風素……</text>			</g>
			<g id="shape23-70" transform="translate(192.331,-72.8091)">
				<title>工作表.23</title>
				<desc>重其其學功弘開役務</desc>
				<rect x="0" y="476.12" width="184.252" height="19.8425" class="st1"/>
				<text x="4" y="491.02" class="st2">重其其學功，弘開役務，</text>			</g>
			<g id="shape24-73" transform="translate(192.331,-36.2421)">
				<title>工作表.24</title>
				<desc>時年十五」。</desc>
				<rect x="0" y="476.12" width="184.252" height="19.8425" class="st1"/>
				<text x="4" y="491.02" class="st2">時年十五」。</text>			</g>
			<g id="shape25-76" transform="translate(384.094,-438.803)">
				<title>工作表.25</title>
				<desc>「察法師堪傳法教因將</desc>
				<rect x="0" y="476.12" width="184.252" height="19.8425" class="st1"/>
				<text x="4" y="491.02" class="st2">「察法師堪傳法教，因將</text>			</g>
			<g id="shape26-79" transform="translate(384.094,-402.236)">
				<title>工作表.26</title>
				<desc>詣道場誦習經業」。</desc>
				<rect x="0" y="476.12" width="184.252" height="19.8425" class="st1"/>
				<text x="4" y="491.02" class="st2">詣道場，誦習經業」。</text>			</g>
			<g id="shape27-82" transform="translate(384.094,-292.535)">
				<title>工作表.27</title>
				<desc>「俄而有勅於洛陽度二</desc>
				<rect x="0" y="476.12" width="184.252" height="19.8425" class="st1"/>
				<text x="4" y="491.02" class="st2">「俄而有勅，於洛陽度二</text>			</g>
			<g id="shape28-85" transform="translate(384.094,-255.969)">
				<title>工作表.28</title>
				<desc>七僧……得出家」。</desc>
				<rect x="0" y="476.12" width="184.252" height="19.8425" class="st1"/>
				<text x="4" y="491.02" class="st2">七僧……得出家」。</text>			</g>
			<g id="shape29-88" transform="translate(384.094,-182.835)">
				<title>工作表.29</title>
				<desc>「時寺有景法師講《涅槃</desc>
				<rect x="0" y="476.12" width="184.252" height="19.8425" class="st1"/>
				<text x="4" y="491.02" class="st2">「時寺有景法師講《涅槃</text>			</g>
			<g id="shape30-91" transform="translate(384.094,-146.268)">
				<title>工作表.30</title>
				<desc>經》……又學嚴法師《</desc>
				<rect x="0" y="476.12" width="184.252" height="19.8425" class="st1"/>
				<text x="4" y="491.02" class="st2">經》，……又學嚴法師《</text>			</g>
			<g id="shape31-94" transform="translate(384.094,-109.701)">
				<title>工作表.31</title>
				<desc>攝大乘論》昇座覆述</desc>
				<rect x="0" y="476.12" width="184.252" height="19.8425" class="st1"/>
				<text x="4" y="491.02" class="st2">攝大乘論》，昇座覆述，</text>			</g>
			<g id="shape32-97" transform="translate(384.094,-73.1339)">
				<title>工作表.32</title>
				<desc>抑揚剖暢備盡師宗。美</desc>
				<rect x="0" y="476.12" width="184.252" height="19.8425" class="st1"/>
				<text x="4" y="491.02" class="st2">抑揚剖暢，備盡師宗。美</text>			</g>
			<g id="shape33-100" transform="translate(384.094,-36.5669)">
				<title>工作表.33</title>
				<desc>聞芳聲從茲發矣時年</desc>
				<rect x="0" y="476.12" width="184.252" height="19.8425" class="st1"/>
				<text x="4" y="491.02" class="st2">聞芳聲，從茲發矣，時年</text>			</g>
			<g id="shape36-103" transform="translate(192.331,-145.093)">
				<title>工作表.36</title>
				<desc>論》輪馳相係。……僧</desc>
				<rect x="0" y="476.12" width="184.252" height="19.8425" class="st1"/>
				<text x="4" y="491.02" class="st2">論》，輪馳相係。……僧</text>			</g>
			<g id="shape46-106" transform="translate(384.162,5.68434E-014)">
				<title>工作表.46</title>
				<desc>十三也」。</desc>
				<rect x="0" y="476.12" width="184.252" height="19.8425" class="st1"/>
				<text x="4" y="491.02" class="st2">十三也」。</text>			</g>
		</g>
	</g>
</svg>
