<?xml version="1.0" encoding="UTF-8" standalone="no"?>
<!DOCTYPE svg PUBLIC "-//W3C//DTD SVG 1.0//EN" "http://www.w3.org/TR/2001/REC-SVG-20010904/DTD/svg10.dtd">
<!-- 由 Microsoft Visio 11.0, SVG Export, v1.0 產生 y22.0102-h.svg Page-1 -->
<svg xmlns="http://www.w3.org/2000/svg" xmlns:xlink="http://www.w3.org/1999/xlink" xmlns:ev="http://www.w3.org/2001/xml-events"
		xmlns:v="http://schemas.microsoft.com/visio/2003/SVGExtensions/" width="9.34313in" height="7.39868in"
		viewBox="0 0 672.706 532.705" xml:space="preserve" color-interpolation-filters="sRGB" class="st12">
	<v:documentProperties v:langID="1028" v:metric="true" v:viewMarkup="false">
		<v:userDefs>
			<v:ud v:nameU="msvNoAutoConnect" v:val="VT0(1):26"/>
		</v:userDefs>
	</v:documentProperties>

	<style type="text/css">
	<![CDATA[
		.st1 {fill:none;stroke:#000000;stroke-linecap:round;stroke-linejoin:round;stroke-opacity:0;stroke-width:1}
		.st2 {fill:#000000;font-family:標楷體;font-size:1.33333em}
		.st3 {fill:#000000;font-family:新細明體;font-size:1.33333em}
		.st4 {fill:none;stroke:#000000;stroke-linecap:round;stroke-linejoin:round;stroke-opacity:0;stroke-width:0.75}
		.st5 {fill:none;stroke:#000000;stroke-linecap:round;stroke-linejoin:round;stroke-width:1}
		.st6 {stroke:#000000;stroke-linecap:round;stroke-linejoin:round;stroke-width:1}
		.st7 {stroke:#000000;stroke-dasharray:3,3;stroke-linecap:round;stroke-linejoin:round;stroke-width:1}
		.st8 {marker-end:url(#mrkr5-129);stroke:#000000;stroke-linecap:round;stroke-linejoin:round;stroke-width:1}
		.st9 {fill:#000000;fill-opacity:1;stroke:#000000;stroke-opacity:1;stroke-width:0.28409090909091}
		.st10 {marker-start:url(#mrkr5-135);stroke:#000000;stroke-linecap:round;stroke-linejoin:round;stroke-width:1}
		.st11 {stroke:#ffffff;stroke-linecap:round;stroke-linejoin:round;stroke-opacity:0;stroke-width:1}
		.st12 {fill:none;fill-rule:evenodd;font-size:12px;overflow:visible;stroke-linecap:square;stroke-miterlimit:3}
	]]>
	</style>

	<defs id="Markers">
		<g id="lend5">
			<path d="M 2 1 L 0 0 L 1.98117 -0.993387 C 1.67173 -0.364515 1.67301 0.372641 1.98465 1.00043 " style="stroke:none"/>
		</g>
		<marker id="mrkr5-129" class="st9" v:arrowType="5" v:arrowSize="2" v:setback="6.16" refX="-6.16" orient="auto"
				markerUnits="strokeWidth" overflow="visible">
			<use xlink:href="#lend5" transform="scale(-3.52,-3.52) "/>
		</marker>
		<marker id="mrkr5-135" class="st9" v:arrowType="5" v:arrowSize="2" v:setback="5.8" refX="5.8" orient="auto"
				markerUnits="strokeWidth" overflow="visible">
			<use xlink:href="#lend5" transform="scale(3.52) "/>
		</marker>
	</defs>
	<g v:mID="0" v:index="1" v:groupContext="foregroundPage">
		<title>Page-1</title>
		<v:pageProperties v:drawingScale="0.0393701" v:pageScale="0.0393701" v:drawingUnits="24" v:shadowOffsetX="8.50394"
				v:shadowOffsetY="-8.50394"/>
		<g id="group4-1" transform="translate(19,-18.75)" v:mID="4" v:groupContext="group">
			<title>工作表.4</title>
			<g id="shape8-2" v:mID="8" v:groupContext="shape" transform="translate(14.1732,-204.197)">
				<title>工作表.8</title>
				<desc>菩薩為本</desc>
				<v:textBlock v:margins="rect(4,4,4,4)" v:tabSpace="42.5197"/>
				<v:textRect cx="36.8504" cy="495.854" width="73.71" height="73.7008"/>
				<rect x="0" y="459.004" width="73.7008" height="73.7008" class="st1"/>
				<text x="4.85" y="500.65" class="st2" v:langID="1028"><v:paragraph v:horizAlign="1"/><v:tabList/>菩薩為本</text>			</g>
			<g id="shape10-5" v:mID="10" v:groupContext="shape" transform="translate(76.5354,-232.543)">
				<title>工作表.10</title>
				<desc>大小</desc>
				<v:textBlock v:margins="rect(4,4,4,4)" v:tabSpace="42.5197"/>
				<v:textRect cx="22.6772" cy="510.028" width="45.36" height="45.3543"/>
				<rect x="0" y="487.35" width="45.3543" height="45.3543" class="st1"/>
				<text x="6.68" y="514.83" class="st3" v:langID="1028"><v:paragraph v:horizAlign="1"/><v:tabList/>大小</text>			</g>
			<g id="shape11-8" v:mID="11" v:groupContext="shape" transform="translate(76.5354,-204.197)">
				<title>工作表.11</title>
				<desc>兼暢</desc>
				<v:textBlock v:margins="rect(4,4,4,4)" v:tabSpace="42.5197"/>
				<v:textRect cx="22.6772" cy="510.028" width="45.36" height="45.3543"/>
				<rect x="0" y="487.35" width="45.3543" height="45.3543" class="st1"/>
				<text x="6.68" y="514.83" class="st3" v:langID="1028"><v:paragraph v:horizAlign="1"/><v:tabList/>兼暢</text>			</g>
			<g id="shape12-11" v:mID="12" v:groupContext="shape" transform="translate(140.343,-156.334)">
				<title>工作表.12</title>
				<desc>吠陀創始時代</desc>
				<v:textBlock v:margins="rect(4,4,4,4)" v:tabSpace="42.5197"/>
				<v:textRect cx="72.5818" cy="462.165" width="145.17" height="141.08"/>
				<rect x="0" y="391.625" width="145.164" height="141.08" class="st4"/>
				<text x="8.58" y="466.97" class="st3" v:langID="1028"><v:paragraph v:horizAlign="1"/><v:tabList/>（吠陀創始時代）</text>			</g>
			<g id="shape13-14" v:mID="13" v:groupContext="shape" transform="translate(139.69,-184.681)">
				<title>工作表.13</title>
				<desc>重 人 事</desc>
				<v:textBlock v:margins="rect(4,4,4,4)" v:tabSpace="42.5197"/>
				<v:textRect cx="72.5818" cy="462.165" width="145.17" height="141.08"/>
				<rect x="0" y="391.625" width="145.164" height="141.08" class="st4"/>
				<text x="23.65" y="466.97" class="st3" v:langID="1028"><v:paragraph v:horizAlign="1"/><v:tabList/>重      人      事</text>			</g>
			<g id="shape14-17" v:mID="14" v:groupContext="shape" transform="translate(153.882,-355.394)">
				<title>工作表.14</title>
				<desc>菩薩分流傾向如來</desc>
				<v:textBlock v:margins="rect(4,4,4,4)" v:tabSpace="42.5197"/>
				<v:textRect cx="71.9291" cy="462.799" width="143.86" height="139.811"/>
				<rect x="0" y="392.894" width="143.858" height="139.811" class="st4"/>
				<text x="7.93" y="467.6" class="st2" v:langID="1028"><v:paragraph v:horizAlign="1"/><v:tabList/>菩薩分流傾向如來</text>			</g>
			<g id="shape15-20" v:mID="15" v:groupContext="shape" transform="translate(153.882,1.13687E-013)">
				<title>工作表.15</title>
				<desc>傾向菩薩聲聞分流</desc>
				<v:textBlock v:margins="rect(4,4,4,4)" v:tabSpace="42.5197"/>
				<v:textRect cx="71.9291" cy="462.799" width="143.86" height="139.811"/>
				<rect x="0" y="392.894" width="143.858" height="139.811" class="st4"/>
				<text x="7.93" y="467.6" class="st2" v:langID="1028"><v:paragraph v:horizAlign="1"/><v:tabList/>傾向菩薩聲聞分流</text>			</g>
			<g id="shape16-23" v:mID="16" v:groupContext="shape" transform="translate(-124.516,354.02) rotate(-90)">
				<title>工作表.16</title>
				<ellipse cx="62.3622" cy="470.343" rx="62.3622" ry="62.3622" class="st5"/>
			</g>
			<g id="shape17-25" v:mID="17" v:groupContext="shape" transform="translate(283.209,-212.446)">
				<title>工作表.17</title>
				<desc>人間樂</desc>
				<v:textBlock v:margins="rect(4,4,4,4)" v:tabSpace="42.5197"/>
				<v:textRect cx="28.474" cy="504.231" width="56.95" height="56.948"/>
				<rect x="0" y="475.757" width="56.948" height="56.948" class="st1"/>
				<text x="4.47" y="509.03" class="st3" v:langID="1028"><v:paragraph v:horizAlign="1"/><v:tabList/>人間樂</text>			</g>
			<g id="shape19-28" v:mID="19" v:groupContext="shape" transform="translate(337.323,-204.197)">
				<title>工作表.19</title>
				<desc>佛教</desc>
				<v:textBlock v:margins="rect(4,4,4,4)" v:tabSpace="42.5197"/>
				<v:textRect cx="22.6772" cy="510.028" width="45.36" height="45.3543"/>
				<rect x="0" y="487.35" width="45.3543" height="45.3543" class="st1"/>
				<text x="6.68" y="514.83" class="st3" v:langID="1028"><v:paragraph v:horizAlign="1"/><v:tabList/>佛教</text>			</g>
			<g id="shape20-31" v:mID="20" v:groupContext="shape" transform="translate(337.323,-232.543)">
				<title>工作表.20</title>
				<desc>神教</desc>
				<v:textBlock v:margins="rect(4,4,4,4)" v:tabSpace="42.5197"/>
				<v:textRect cx="22.6772" cy="510.028" width="45.36" height="45.3543"/>
				<rect x="0" y="487.35" width="45.3543" height="45.3543" class="st1"/>
				<text x="6.68" y="514.83" class="st3" v:langID="1028"><v:paragraph v:horizAlign="1"/><v:tabList/>神教</text>			</g>
			<g id="shape21-34" v:mID="21" v:groupContext="shape" transform="translate(-150.028,320.259) rotate(-90)">
				<title>工作表.21</title>
				<path d="M0 490.19 L56.95 490.19 L56.95 532.7" class="st6"/>
			</g>
			<g id="shape22-37" v:mID="22" v:groupContext="shape" transform="translate(340.157,-241.047)">
				<title>工作表.22</title>
				<path d="M0 532.7 L68.03 532.7" class="st6"/>
			</g>
			<g id="shape23-40" v:mID="23" v:groupContext="shape" transform="translate(-150.028,320.259) rotate(-90)">
				<title>工作表.23</title>
				<path d="M0 490.19 L0.26 532.7 L56.95 532.7" class="st6"/>
			</g>
			<g id="shape24-43" v:mID="24" v:groupContext="shape" transform="translate(331.654,-255.221)">
				<title>工作表.24</title>
				<desc>天上樂</desc>
				<v:textBlock v:margins="rect(4,4,4,4)" v:tabSpace="42.5197"/>
				<v:textRect cx="28.474" cy="504.231" width="56.95" height="56.948"/>
				<rect x="0" y="475.757" width="56.948" height="56.948" class="st1"/>
				<text x="4.47" y="509.03" class="st3" v:langID="1028"><v:paragraph v:horizAlign="1"/><v:tabList/>天上樂</text>			</g>
			<g id="shape25-46" v:mID="25" v:groupContext="shape" transform="translate(331.526,-170.181)">
				<title>工作表.25</title>
				<desc>究竟樂</desc>
				<v:textBlock v:margins="rect(4,4,4,4)" v:tabSpace="42.5197"/>
				<v:textRect cx="28.474" cy="504.231" width="56.95" height="56.948"/>
				<rect x="0" y="475.757" width="56.948" height="56.948" class="st1"/>
				<text x="4.47" y="509.03" class="st3" v:langID="1028"><v:paragraph v:horizAlign="1"/><v:tabList/>究竟樂</text>			</g>
			<g id="shape27-49" v:mID="27" v:groupContext="shape" transform="translate(-61.9662,-30.9756) rotate(-45)">
				<title>工作表.27</title>
				<path d="M-0 532.7 A28.0694 25.3722 79.86 0 1 35.98 532.7" class="st7"/>
			</g>
			<g id="shape26-52" v:mID="26" v:groupContext="shape" transform="translate(-36.5217,639.99) rotate(-135)">
				<title>工作表.26</title>
				<path d="M-0 532.7 A34.2439 25.5862 86.59 0 1 36.21 532.7" class="st7"/>
			</g>
			<g id="shape28-55" v:mID="28" v:groupContext="shape" transform="translate(380.14,-99.0758)">
				<title>工作表.28</title>
				<desc>教派興起時代</desc>
				<v:textBlock v:margins="rect(4,4,4,4)" v:tabSpace="42.5197"/>
				<v:textRect cx="73.1637" cy="461.599" width="146.33" height="142.211"/>
				<rect x="0" y="390.494" width="146.327" height="142.211" class="st4"/>
				<text x="9.16" y="466.4" class="st3" v:langID="1028"><v:paragraph v:horizAlign="1"/><v:tabList/>（教派興起時代）</text>			</g>
			<g id="shape29-58" v:mID="29" v:groupContext="shape" transform="translate(380.632,-241.256)">
				<title>工作表.29</title>
				<desc>梵教極盛時代</desc>
				<v:textBlock v:margins="rect(4,4,4,4)" v:tabSpace="42.5197"/>
				<v:textRect cx="72.7031" cy="462.047" width="145.41" height="141.315"/>
				<rect x="0" y="391.389" width="145.406" height="141.315" class="st4"/>
				<text x="8.7" y="466.85" class="st3" v:langID="1028"><v:paragraph v:horizAlign="1"/><v:tabList/>（梵教極盛時代）</text>			</g>
			<g id="shape30-61" v:mID="30" v:groupContext="shape" transform="translate(380.84,-269.602)">
				<title>工作表.30</title>
				<desc>求 天 樂</desc>
				<v:textBlock v:margins="rect(4,4,4,4)" v:tabSpace="42.5197"/>
				<v:textRect cx="72.7031" cy="462.047" width="145.41" height="141.315"/>
				<rect x="0" y="391.389" width="145.406" height="141.315" class="st4"/>
				<text x="23.77" y="466.85" class="st3" v:langID="1028"><v:paragraph v:horizAlign="1"/><v:tabList/>求      天      樂</text>			</g>
			<g id="shape31-64" v:mID="31" v:groupContext="shape" transform="translate(425.197,-360.102)">
				<title>工作表.31</title>
				<desc>如來為本</desc>
				<v:textBlock v:margins="rect(4,4,4,4)" v:tabSpace="42.5197"/>
				<v:textRect cx="36.8504" cy="495.854" width="73.71" height="73.7008"/>
				<rect x="0" y="459.004" width="73.7008" height="73.7008" class="st1"/>
				<text x="4.85" y="500.65" class="st2" v:langID="1028"><v:paragraph v:horizAlign="1"/><v:tabList/>如來為本</text>			</g>
			<g id="shape32-67" v:mID="32" v:groupContext="shape" transform="translate(425.197,-62.4646)">
				<title>工作表.32</title>
				<desc>聲聞為本</desc>
				<v:textBlock v:margins="rect(4,4,4,4)" v:tabSpace="42.5197"/>
				<v:textRect cx="36.8504" cy="495.854" width="73.71" height="73.7008"/>
				<rect x="0" y="459.004" width="73.7008" height="73.7008" class="st1"/>
				<text x="4.85" y="500.65" class="st2" v:langID="1028"><v:paragraph v:horizAlign="1"/><v:tabList/>聲聞為本</text>			</g>
			<g id="shape33-70" v:mID="33" v:groupContext="shape" transform="translate(487.559,-385.614)">
				<title>工作表.33</title>
				<desc>佛梵</desc>
				<v:textBlock v:margins="rect(4,4,4,4)" v:tabSpace="42.5197"/>
				<v:textRect cx="22.6772" cy="510.028" width="45.36" height="45.3543"/>
				<rect x="0" y="487.35" width="45.3543" height="45.3543" class="st1"/>
				<text x="6.68" y="514.83" class="st2" v:langID="1028"><v:paragraph v:horizAlign="1"/><v:tabList/>佛梵</text>			</g>
			<g id="shape34-73" v:mID="34" v:groupContext="shape" transform="translate(487.559,-87.9764)">
				<title>工作表.34</title>
				<desc>解脫</desc>
				<v:textBlock v:margins="rect(4,4,4,4)" v:tabSpace="42.5197"/>
				<v:textRect cx="22.6772" cy="510.028" width="45.36" height="45.3543"/>
				<rect x="0" y="487.35" width="45.3543" height="45.3543" class="st1"/>
				<text x="6.68" y="514.83" class="st2" v:langID="1028"><v:paragraph v:horizAlign="1"/><v:tabList/>解脫</text>			</g>
			<g id="shape35-76" v:mID="35" v:groupContext="shape" transform="translate(487.559,-362.937)">
				<title>工作表.35</title>
				<desc>一如</desc>
				<v:textBlock v:margins="rect(4,4,4,4)" v:tabSpace="42.5197"/>
				<v:textRect cx="22.6772" cy="510.028" width="45.36" height="45.3543"/>
				<rect x="0" y="487.35" width="45.3543" height="45.3543" class="st1"/>
				<text x="6.68" y="514.83" class="st2" v:langID="1028"><v:paragraph v:horizAlign="1"/><v:tabList/>一如</text>			</g>
			<g id="shape36-79" v:mID="36" v:groupContext="shape" transform="translate(487.559,-62.4646)">
				<title>工作表.36</title>
				<desc>同歸</desc>
				<v:textBlock v:margins="rect(4,4,4,4)" v:tabSpace="42.5197"/>
				<v:textRect cx="22.6772" cy="510.028" width="45.36" height="45.3543"/>
				<rect x="0" y="487.35" width="45.3543" height="45.3543" class="st1"/>
				<text x="6.68" y="514.83" class="st2" v:langID="1028"><v:paragraph v:horizAlign="1"/><v:tabList/>同歸</text>			</g>
			<g id="shape37-82" v:mID="37" v:groupContext="shape" transform="translate(-107.508,158.429) rotate(-90)">
				<title>工作表.37</title>
				<path d="M0 532.7 L42.52 532.7" class="st6"/>
			</g>
			<g id="shape38-85" v:mID="38" v:groupContext="shape" transform="translate(425.197,-416.795)">
				<title>工作表.38</title>
				<path d="M0 532.7 L107.72 532.7" class="st6"/>
			</g>
			<g id="shape39-88" v:mID="39" v:groupContext="shape" transform="translate(0.208581,158.429) rotate(-90)">
				<title>工作表.39</title>
				<path d="M0 532.7 L42.52 532.7" class="st6"/>
			</g>
			<g id="shape40-91" v:mID="40" v:groupContext="shape" transform="translate(425.197,-374.276)">
				<title>工作表.40</title>
				<path d="M0 532.7 L107.72 532.7" class="st6"/>
			</g>
			<g id="shape41-94" v:mID="41" v:groupContext="shape" transform="translate(0.208581,456.067) rotate(-90)">
				<title>工作表.41</title>
				<path d="M0 532.7 L42.52 532.7" class="st6"/>
			</g>
			<g id="shape42-97" v:mID="42" v:groupContext="shape" transform="translate(-107.508,456.067) rotate(-90)">
				<title>工作表.42</title>
				<path d="M0 532.7 L42.52 532.7" class="st6"/>
			</g>
			<g id="shape43-100" v:mID="43" v:groupContext="shape" transform="translate(425.197,-119.158)">
				<title>工作表.43</title>
				<path d="M0 532.7 L107.72 532.7" class="st6"/>
			</g>
			<g id="shape44-103" v:mID="44" v:groupContext="shape" transform="translate(425.197,-76.6378)">
				<title>工作表.44</title>
				<path d="M0 532.7 L107.72 532.7" class="st6"/>
			</g>
			<g id="shape45-106" v:mID="45" v:groupContext="shape" transform="translate(530.079,-372.858)">
				<title>工作表.45</title>
				<desc>佛教融吠</desc>
				<v:textBlock v:margins="rect(4,4,4,4)" v:tabSpace="42.5197"/>
				<v:textRect cx="36.8504" cy="495.854" width="73.71" height="73.7008"/>
				<rect x="0" y="459.004" width="73.7008" height="73.7008" class="st1"/>
				<text x="4.85" y="500.65" class="st3" v:langID="1028"><v:paragraph v:horizAlign="1"/><v:tabList/>佛教融吠</text>			</g>
			<g id="shape46-109" v:mID="46" v:groupContext="shape" transform="translate(530.079,-347.346)">
				<title>工作表.46</title>
				<desc>陀而衰滅</desc>
				<v:textBlock v:margins="rect(4,4,4,4)" v:tabSpace="42.5197"/>
				<v:textRect cx="36.8504" cy="495.854" width="73.71" height="73.7008"/>
				<rect x="0" y="459.004" width="73.7008" height="73.7008" class="st1"/>
				<text x="4.85" y="500.65" class="st3" v:langID="1028"><v:paragraph v:horizAlign="1"/><v:tabList/>陀而衰滅</text>			</g>
			<g id="shape47-112" v:mID="47" v:groupContext="shape" transform="translate(530.079,-49.7087)">
				<title>工作表.47</title>
				<desc>陀而創始</desc>
				<v:textBlock v:margins="rect(4,4,4,4)" v:tabSpace="42.5197"/>
				<v:textRect cx="36.8504" cy="495.854" width="73.71" height="73.7008"/>
				<rect x="0" y="459.004" width="73.7008" height="73.7008" class="st1"/>
				<text x="4.85" y="500.65" class="st3" v:langID="1028"><v:paragraph v:horizAlign="1"/><v:tabList/>陀而創始</text>			</g>
			<g id="shape48-115" v:mID="48" v:groupContext="shape" transform="translate(530.079,-75.2205)">
				<title>工作表.48</title>
				<desc>佛教反吠</desc>
				<v:textBlock v:margins="rect(4,4,4,4)" v:tabSpace="42.5197"/>
				<v:textRect cx="36.8504" cy="495.854" width="73.71" height="73.7008"/>
				<rect x="0" y="459.004" width="73.7008" height="73.7008" class="st1"/>
				<text x="4.85" y="500.65" class="st3" v:langID="1028"><v:paragraph v:horizAlign="1"/><v:tabList/>佛教反吠</text>			</g>
			<g id="shape49-118" v:mID="49" v:groupContext="shape" transform="translate(-107.508,291.658) rotate(-90)">
				<title>工作表.49</title>
				<path d="M0 220.89 L170.08 320.11 L155.91 532.7" class="st7"/>
			</g>
			<g id="shape51-121" v:mID="51" v:groupContext="shape" transform="translate(-107.508,447.563) rotate(-90)">
				<title>工作表.51</title>
				<path d="M155.91 220.89 L0 320.11 L11.88 532.7" class="st7"/>
			</g>
			<g id="shape52-124" v:mID="52" v:groupContext="shape" transform="translate(58.3156,-242.057) rotate(-18.4349)">
				<title>工作表.52</title>
				<path d="M0 532.7 L173.12 532.7" class="st8"/>
			</g>
			<g id="shape53-130" v:mID="53" v:groupContext="shape" transform="translate(-84.8308,348.35) rotate(-90)">
				<title>工作表.53</title>
				<path d="M5.8 532.7 L6.16 532.7 L113.39 532.7" class="st10"/>
			</g>
			<g id="shape1-136" v:mID="1" v:groupContext="shape" transform="translate(76.744,490.083) rotate(-90)">
				<title>工作表.1</title>
				<path d="M0 -76.74 L411.02 -76.74 L411.02 532.7" class="st11"/>
			</g>
			<g id="shape2-139" v:mID="2" v:groupContext="shape" transform="translate(102.001,464.826) rotate(-90)">
				<title>工作表.2</title>
				<path d="M0 -76.74 L411.02 -76.74 L411.02 532.7" class="st11"/>
			</g>
			<g id="shape3-142" v:mID="3" v:groupContext="shape" transform="translate(532.705,79.0591) rotate(90)">
				<title>工作表.3</title>
				<path d="M0 -76.74 L411.02 -76.74 L411.02 532.7" class="st11"/>
			</g>
		</g>
	</g>
</svg>
