<?xml version="1.0" encoding="UTF-8" standalone="no"?>
<!DOCTYPE svg PUBLIC "-//W3C//DTD SVG 1.1//EN" "http://www.w3.org/Graphics/SVG/1.1/DTD/svg11.dtd">
<!-- 由 Microsoft Visio, SVG Export 產生 y22.0339-h.svg 頁-1 -->
<svg xmlns="http://www.w3.org/2000/svg" xmlns:xlink="http://www.w3.org/1999/xlink" xmlns:ev="http://www.w3.org/2001/xml-events"
		width="3.79342in" height="1.07688in" viewBox="0 0 273.126 77.5354" xml:space="preserve" color-interpolation-filters="sRGB"
		class="st4">
	<style type="text/css">
	<![CDATA[
		.st1 {fill:none;stroke:#000000;stroke-linecap:round;stroke-linejoin:round;stroke-opacity:0;stroke-width:1}
		.st2 {fill:#000000;font-family:新細明體;font-size:1.33333em}
		.st3 {stroke:#000000;stroke-linecap:round;stroke-linejoin:round;stroke-width:1}
		.st4 {fill:none;fill-rule:evenodd;font-size:12px;overflow:visible;stroke-linecap:square;stroke-miterlimit:3}
	]]>
	</style>

	<g>
		<title>頁-1</title>
		<g id="group17-1" transform="translate(0.5,-0.5)">
			<title>工作表.17</title>
			<g id="shape1-2" transform="translate(158.74,-6.11067E-13)">
				<title>工作表.1</title>
				<desc>蜜多斯那</desc>
				<rect x="0" y="57.6929" width="73.7008" height="19.8425" class="st1"/>
				<text x="4.85" y="72.41" class="st2">蜜多斯那</text>			</g>
			<g id="shape2-5" transform="translate(-1.59872E-14,-28.3465)">
				<title>工作表.2</title>
				<desc>世親</desc>
				<rect x="0" y="57.6929" width="45.3543" height="19.8425" class="st1"/>
				<text x="6.68" y="72.41" class="st2">世親</text>			</g>
			<g id="shape3-8" transform="translate(42.5197,-38.2677)">
				<title>工作表.3</title>
				<path d="M0 77.54 L28.35 77.54" class="st3"/>
			</g>
			<g id="shape4-11" transform="translate(85.0394,2.84217E-14)">
				<title>工作表.4</title>
				<desc>德光</desc>
				<rect x="0" y="57.6929" width="45.3543" height="19.8425" class="st1"/>
				<text x="6.68" y="72.41" class="st2">德光</text>			</g>
			<g id="shape5-14" transform="translate(85.0394,-28.3465)">
				<title>工作表.5</title>
				<desc>陳那</desc>
				<rect x="0" y="57.6929" width="45.3543" height="19.8425" class="st1"/>
				<text x="6.68" y="72.41" class="st2">陳那</text>			</g>
			<g id="shape6-17" transform="translate(85.0394,-56.6929)">
				<title>工作表.6</title>
				<desc>安慧</desc>
				<rect x="0" y="57.6929" width="45.3543" height="19.8425" class="st1"/>
				<text x="6.68" y="72.41" class="st2">安慧</text>			</g>
			<g id="shape7-20" transform="translate(155.906,-56.6929)">
				<title>工作表.7</title>
				<desc>勝軍</desc>
				<rect x="0" y="57.6929" width="45.3543" height="19.8425" class="st1"/>
				<text x="6.68" y="72.41" class="st2">勝軍</text>			</g>
			<g id="shape8-23" transform="translate(155.906,-28.3465)">
				<title>工作表.8</title>
				<desc>護法</desc>
				<rect x="0" y="57.6929" width="45.3543" height="19.8425" class="st1"/>
				<text x="6.68" y="72.41" class="st2">護法</text>			</g>
			<g id="shape9-26" transform="translate(226.772,-28.3465)">
				<title>工作表.9</title>
				<desc>戒賢</desc>
				<rect x="0" y="57.6929" width="45.3543" height="19.8425" class="st1"/>
				<text x="6.68" y="72.41" class="st2">戒賢</text>			</g>
			<g id="shape10-29" transform="translate(198.425,-38.2677)">
				<title>工作表.10</title>
				<path d="M0 77.54 L28.35 77.54" class="st3"/>
			</g>
			<g id="shape11-32" transform="translate(130.394,-66.6142)">
				<title>工作表.11</title>
				<path d="M0 77.54 L28.35 77.54" class="st3"/>
			</g>
			<g id="shape12-35" transform="translate(130.394,-38.2677)">
				<title>工作表.12</title>
				<path d="M0 77.54 L28.35 77.54" class="st3"/>
			</g>
			<g id="shape13-38" transform="translate(130.394,-9.92126)">
				<title>工作表.13</title>
				<path d="M0 77.54 L28.35 77.54" class="st3"/>
			</g>
			<g id="shape14-41" transform="translate(-6.66929,67.6142) rotate(-90)">
				<title>工作表.14</title>
				<path d="M0 77.54 L56.69 77.54" class="st3"/>
			</g>
			<g id="shape15-44" transform="translate(70.8661,-66.6142)">
				<title>工作表.15</title>
				<path d="M0 77.54 L17.01 77.54" class="st3"/>
			</g>
			<g id="shape16-47" transform="translate(70.8661,-9.92126)">
				<title>工作表.16</title>
				<path d="M0 77.54 L17.01 77.54" class="st3"/>
			</g>
		</g>
	</g>
</svg>
