<?xml version="1.0" encoding="UTF-8" standalone="no"?>
<!DOCTYPE svg PUBLIC "-//W3C//DTD SVG 1.1//EN" "http://www.w3.org/Graphics/SVG/1.1/DTD/svg11.dtd">
<!-- 由 Microsoft Visio, SVG Export 產生 y22.0067-h.svg 頁-1 -->
<svg xmlns="http://www.w3.org/2000/svg" xmlns:xlink="http://www.w3.org/1999/xlink" xmlns:ev="http://www.w3.org/2001/xml-events"
		width="7.60097in" height="11.4986in" viewBox="0 0 547.27 827.9" xml:space="preserve" color-interpolation-filters="sRGB"
		class="st5">
	<style type="text/css">
	<![CDATA[
		.st1 {fill:none;stroke:none;stroke-linecap:round;stroke-linejoin:round;stroke-width:0.75}
		.st2 {fill:#000000;font-family:新細明體;font-size:1.33333em}
		.st3 {fill:#000000;font-family:新細明體;font-size:1.00001em}
		.st4 {font-size:1em}
		.st5 {fill:none;fill-rule:evenodd;font-size:12px;overflow:visible;stroke-linecap:square;stroke-miterlimit:3}
	]]>
	</style>

	<g>
		<title>頁-1</title>
		<g id="group82-1" transform="translate(0.375,-0.375)">
			<title>工作表.82</title>
			<g id="shape1-2" transform="translate(3.51719E-13,-767.906)">
				<title>工作表.1</title>
				<desc>曹溪慧能</desc>
				<rect x="0" y="805.222" width="76.252" height="22.6772" class="st1"/>
				<text x="6.13" y="821.36" class="st2">曹溪慧能</text>			</g>
			<g id="shape2-5" transform="translate(9.59233E-14,-804.472)">
				<title>工作表.2</title>
				<desc>人名</desc>
				<rect x="0" y="805.222" width="76.252" height="22.6772" class="st1"/>
				<text x="6.13" y="821.36" class="st2">（人名）</text>			</g>
			<g id="shape3-8" transform="translate(132.378,-804.472)">
				<title>工作表.3</title>
				<desc>生地</desc>
				<rect x="0" y="805.222" width="76.252" height="22.6772" class="st1"/>
				<text x="6.13" y="821.36" class="st2">（生地）</text>			</g>
			<g id="shape4-11" transform="translate(362.268,-804.472)">
				<title>工作表.4</title>
				<desc>化區</desc>
				<rect x="0" y="805.222" width="76.252" height="22.6772" class="st1"/>
				<text x="6.13" y="821.36" class="st2">（化區）</text>			</g>
			<g id="shape9-14" transform="translate(3.51719E-13,-731.339)">
				<title>工作表.9</title>
				<desc>南嶽懷讓</desc>
				<rect x="0" y="805.222" width="76.252" height="22.6772" class="st1"/>
				<text x="6.13" y="821.36" class="st2">南嶽懷讓</text>			</g>
			<g id="shape10-17" transform="translate(6.07514E-13,-694.772)">
				<title>工作表.10</title>
				<desc>青原行思</desc>
				<rect x="0" y="805.222" width="76.252" height="22.6772" class="st1"/>
				<text x="6.13" y="821.36" class="st2">青原行思</text>			</g>
			<g id="shape11-20" transform="translate(6.07514E-13,-658.205)">
				<title>工作表.11</title>
				<desc>馬祖道一</desc>
				<rect x="0" y="805.222" width="76.252" height="22.6772" class="st1"/>
				<text x="6.13" y="821.36" class="st2">馬祖道一</text>			</g>
			<g id="shape12-23" transform="translate(8.63309E-13,-621.638)">
				<title>工作表.12</title>
				<desc>石頭希遷</desc>
				<rect x="0" y="805.222" width="76.252" height="22.6772" class="st1"/>
				<text x="6.13" y="821.36" class="st2">石頭希遷</text>			</g>
			<g id="shape13-26" transform="translate(8.63309E-13,-585.071)">
				<title>工作表.13</title>
				<desc>百丈懷海</desc>
				<rect x="0" y="805.222" width="76.252" height="22.6772" class="st1"/>
				<text x="6.13" y="821.36" class="st2">百丈懷海</text>			</g>
			<g id="shape14-29" transform="translate(1.1191E-12,-548.504)">
				<title>工作表.14</title>
				<desc>天皇道悟</desc>
				<rect x="0" y="805.222" width="76.252" height="22.6772" class="st1"/>
				<text x="6.13" y="821.36" class="st2">天皇道悟</text>			</g>
			<g id="shape15-32" transform="translate(1.1191E-12,-511.937)">
				<title>工作表.15</title>
				<desc>藥山惟儼</desc>
				<rect x="0" y="805.222" width="76.252" height="22.6772" class="st1"/>
				<text x="6.13" y="821.36" class="st2">藥山惟儼</text>			</g>
			<g id="shape16-35" transform="translate(1.3749E-12,-475.37)">
				<title>工作表.16</title>
				<desc>黃蘗希運</desc>
				<rect x="0" y="805.222" width="76.252" height="22.6772" class="st1"/>
				<text x="6.13" y="821.36" class="st2">黃蘗希運</text>			</g>
			<g id="shape17-38" transform="translate(1.3749E-12,-438.803)">
				<title>工作表.17</title>
				<desc>溈山靈祐</desc>
				<rect x="0" y="805.222" width="76.252" height="22.6772" class="st1"/>
				<text x="6.13" y="821.36" class="st2">溈山靈祐</text>			</g>
			<g id="shape18-41" transform="translate(1.6307E-12,-402.236)">
				<title>工作表.18</title>
				<desc>龍潭崇信</desc>
				<rect x="0" y="805.222" width="76.252" height="22.6772" class="st1"/>
				<text x="6.13" y="821.36" class="st2">龍潭崇信</text>			</g>
			<g id="shape19-44" transform="translate(1.6307E-12,-365.669)">
				<title>工作表.19</title>
				<desc>雲巖曇晟</desc>
				<rect x="0" y="805.222" width="76.252" height="22.6772" class="st1"/>
				<text x="6.13" y="821.36" class="st2">雲巖曇晟</text>			</g>
			<g id="shape20-47" transform="translate(1.88649E-12,-329.102)">
				<title>工作表.20</title>
				<desc>臨濟義玄</desc>
				<rect x="0" y="805.222" width="76.252" height="22.6772" class="st1"/>
				<text x="6.13" y="821.36" class="st2">臨濟義玄</text>			</g>
			<g id="shape21-50" transform="translate(1.88649E-12,-292.535)">
				<title>工作表.21</title>
				<desc>仰山慧寂</desc>
				<rect x="0" y="805.222" width="76.252" height="22.6772" class="st1"/>
				<text x="6.2" y="821.36" class="st2">仰山慧寂</text>			</g>
			<g id="shape22-53" transform="translate(2.14229E-12,-255.969)">
				<title>工作表.22</title>
				<desc>德山宣鑑</desc>
				<rect x="0" y="805.222" width="76.252" height="22.6772" class="st1"/>
				<text x="6.13" y="821.36" class="st2">德山宣鑑</text>			</g>
			<g id="shape23-56" transform="translate(2.14229E-12,-219.402)">
				<title>工作表.23</title>
				<desc>洞山良价</desc>
				<rect x="0" y="805.222" width="76.252" height="22.6772" class="st1"/>
				<text x="6.13" y="821.36" class="st2">洞山良价</text>			</g>
			<g id="shape24-59" transform="translate(2.39808E-12,-182.835)">
				<title>工作表.24</title>
				<desc>雪峰義存</desc>
				<rect x="0" y="805.222" width="76.252" height="22.6772" class="st1"/>
				<text x="6.13" y="821.36" class="st2">雪峰義存</text>			</g>
			<g id="shape25-62" transform="translate(2.39808E-12,-146.268)">
				<title>工作表.25</title>
				<desc>曹山本寂</desc>
				<rect x="0" y="805.222" width="76.252" height="22.6772" class="st1"/>
				<text x="6.13" y="821.36" class="st2">曹山本寂</text>			</g>
			<g id="shape26-65" transform="translate(2.65388E-12,-109.701)">
				<title>工作表.26</title>
				<desc>玄沙師備</desc>
				<rect x="0" y="805.222" width="76.252" height="22.6772" class="st1"/>
				<text x="6.13" y="821.36" class="st2">玄沙師備</text>			</g>
			<g id="shape27-68" transform="translate(2.65388E-12,-73.1339)">
				<title>工作表.27</title>
				<desc>雲門文偃</desc>
				<rect x="0" y="805.222" width="76.252" height="22.6772" class="st1"/>
				<text x="6.13" y="821.36" class="st2">雲門文偃</text>			</g>
			<g id="shape28-71" transform="translate(2.90967E-12,-36.5669)">
				<title>工作表.28</title>
				<desc>地藏桂琛</desc>
				<rect x="0" y="805.222" width="76.252" height="22.6772" class="st1"/>
				<text x="6.13" y="821.36" class="st2">地藏桂琛</text>			</g>
			<g id="shape29-74">
				<title>工作表.29</title>
				<desc>清涼文益</desc>
				<rect x="0" y="805.222" width="76.252" height="22.6772" class="st1"/>
				<text x="6.13" y="821.36" class="st2">清涼文益</text>			</g>
			<g id="shape32-77" transform="translate(135.213,-767.906)">
				<title>工作表.32</title>
				<desc>新州始興──今廣東始興</desc>
				<rect x="0" y="805.222" width="184.252" height="22.6772" class="st1"/>
				<text x="4.13" y="821.36" class="st2">新州始興──今廣東始興</text>			</g>
			<g id="shape33-80" transform="translate(129.543,-731.339)">
				<title>工作表.33</title>
				<desc>金　　州──陝西安康</desc>
				<rect x="0" y="805.222" width="173.764" height="22.6772" class="st1"/>
				<text x="9.72" y="821.36" class="st2">金　　州──陝西安康</text>			</g>
			<g id="shape34-83" transform="translate(135.213,-694.772)">
				<title>工作表.34</title>
				<desc>吉州安城──江西吉安</desc>
				<rect x="0" y="805.222" width="168.094" height="22.6772" class="st1"/>
				<text x="4.05" y="821.36" class="st2">吉州安城──江西吉安</text>			</g>
			<g id="shape35-86" transform="translate(135.213,-658.205)">
				<title>工作表.35</title>
				<desc>漢州什邡──四川什邡</desc>
				<rect x="0" y="805.222" width="168.094" height="22.6772" class="st1"/>
				<text x="4.05" y="821.36" class="st2">漢州什邡──四川什邡</text>			</g>
			<g id="shape36-89" transform="translate(135.213,-621.638)">
				<title>工作表.36</title>
				<desc>端州高要──廣東高要</desc>
				<rect x="0" y="805.222" width="168.094" height="22.6772" class="st1"/>
				<text x="4.05" y="821.36" class="st2">端州高要──廣東高要</text>			</g>
			<g id="shape37-92" transform="translate(135.213,-585.071)">
				<title>工作表.37</title>
				<desc>福州長樂──福建長樂</desc>
				<rect x="0" y="805.222" width="168.094" height="22.6772" class="st1"/>
				<text x="4.05" y="821.36" class="st2">福州長樂──福建長樂</text>			</g>
			<g id="shape38-95" transform="translate(135.213,-548.504)">
				<title>工作表.38</title>
				<desc>婺州東陽──浙江東陽</desc>
				<rect x="0" y="805.222" width="168.094" height="22.6772" class="st1"/>
				<text x="4.05" y="821.36" class="st2">婺州東陽──浙江東陽</text>			</g>
			<g id="shape39-98" transform="translate(135.213,-511.937)">
				<title>工作表.39</title>
				<desc>絳州　　──山西新絳</desc>
				<rect x="0" y="805.222" width="168.094" height="22.6772" class="st1"/>
				<text x="4.05" y="821.36" class="st2">絳州　　──山西新絳</text>			</g>
			<g id="shape40-101" transform="translate(158.528,-511.937)">
				<title>工作表.40</title>
				<desc>　</desc>
				<rect x="0" y="805.222" width="56.126" height="22.6772" class="st1"/>
				<text x="4.06" y="821.36" class="st2">（　）</text>			</g>
			<g id="shape41-104" transform="translate(166.465,-506.268)">
				<title>工作表.41</title>
				<desc>潮陽出家</desc>
				<rect x="0" y="793.884" width="40.252" height="34.0157" class="st1"/>
				<text x="8.13" y="807.29" class="st3">潮陽<tspan x="8.13" dy="1.2em" class="st4">出家</tspan></text>			</g>
			<g id="shape42-108" transform="translate(135.213,-475.37)">
				<title>工作表.42</title>
				<desc>閩─────福建閩侯</desc>
				<rect x="0" y="805.222" width="168.094" height="22.6772" class="st1"/>
				<text x="4.05" y="821.36" class="st2">閩─────福建閩侯</text>			</g>
			<g id="shape43-111" transform="translate(135.213,-438.803)">
				<title>工作表.43</title>
				<desc>福州長谿──福　　建</desc>
				<rect x="0" y="805.222" width="168.094" height="22.6772" class="st1"/>
				<text x="4.05" y="821.36" class="st2">福州長谿──福　　建</text>			</g>
			<g id="shape44-114" transform="translate(135.213,-402.236)">
				<title>工作表.44</title>
				<desc>渚　　宮──湖北江陵</desc>
				<rect x="0" y="805.222" width="168.094" height="22.6772" class="st1"/>
				<text x="4.05" y="821.36" class="st2">渚　　宮──湖北江陵</text>			</g>
			<g id="shape45-117" transform="translate(135.213,-365.669)">
				<title>工作表.45</title>
				<desc>鍾陵建昌──江西南城</desc>
				<rect x="0" y="805.222" width="168.094" height="22.6772" class="st1"/>
				<text x="4.05" y="821.36" class="st2">鍾陵建昌──江西南城</text>			</g>
			<g id="shape46-120" transform="translate(135.213,-329.102)">
				<title>工作表.46</title>
				<desc>曹　　州──山東曹縣</desc>
				<rect x="0" y="805.222" width="168.094" height="22.6772" class="st1"/>
				<text x="4.05" y="821.36" class="st2">曹　　州──山東曹縣</text>			</g>
			<g id="shape47-123" transform="translate(135.213,-292.535)">
				<title>工作表.47</title>
				<desc>韶州懷化──廣　　東</desc>
				<rect x="0" y="805.222" width="168.094" height="22.6772" class="st1"/>
				<text x="4.05" y="821.36" class="st2">韶州懷化──廣　　東</text>			</g>
			<g id="shape48-126" transform="translate(135.213,-255.969)">
				<title>工作表.48</title>
				<desc>劍　　南──四川西北</desc>
				<rect x="0" y="805.222" width="168.094" height="22.6772" class="st1"/>
				<text x="4.05" y="821.36" class="st2">劍　　南──四川西北</text>			</g>
			<g id="shape49-129" transform="translate(135.213,-219.402)">
				<title>工作表.49</title>
				<desc>會　　稽──浙江紹興</desc>
				<rect x="0" y="805.222" width="168.094" height="22.6772" class="st1"/>
				<text x="4.05" y="821.36" class="st2">會　　稽──浙江紹興</text>			</g>
			<g id="shape50-132" transform="translate(135.213,-182.835)">
				<title>工作表.50</title>
				<desc>泉州南安──福建南安</desc>
				<rect x="0" y="805.222" width="168.094" height="22.6772" class="st1"/>
				<text x="4.05" y="821.36" class="st2">泉州南安──福建南安</text>			</g>
			<g id="shape51-135" transform="translate(135.213,-146.268)">
				<title>工作表.51</title>
				<desc>泉州莆田──福建莆田</desc>
				<rect x="0" y="805.222" width="168.094" height="22.6772" class="st1"/>
				<text x="4.05" y="821.36" class="st2">泉州莆田──福建莆田</text>			</g>
			<g id="shape52-138" transform="translate(135.213,-109.701)">
				<title>工作表.52</title>
				<desc>福州閩縣──福建閩侯</desc>
				<rect x="0" y="805.222" width="168.094" height="22.6772" class="st1"/>
				<text x="4.05" y="821.36" class="st2">福州閩縣──福建閩侯</text>			</g>
			<g id="shape53-141" transform="translate(135.213,-73.1339)">
				<title>工作表.53</title>
				<desc>嘉　　興──浙江嘉興</desc>
				<rect x="0" y="805.222" width="168.094" height="22.6772" class="st1"/>
				<text x="4.05" y="821.36" class="st2">嘉　　興──浙江嘉興</text>			</g>
			<g id="shape54-144" transform="translate(135.213,-36.5669)">
				<title>工作表.54</title>
				<desc>常　　山──浙江常山</desc>
				<rect x="0" y="805.222" width="168.094" height="22.6772" class="st1"/>
				<text x="4.05" y="821.36" class="st2">常　　山──浙江常山</text>			</g>
			<g id="shape55-147" transform="translate(135.213,-4.54747E-13)">
				<title>工作表.55</title>
				<desc>餘　　杭──浙江餘杭</desc>
				<rect x="0" y="805.222" width="168.094" height="22.6772" class="st1"/>
				<text x="4.05" y="821.36" class="st2">餘　　杭──浙江餘杭</text>			</g>
			<g id="shape56-150" transform="translate(362.268,-767.055)">
				<title>工作表.56</title>
				<desc>韶　　州──今廣東曲江</desc>
				<rect x="0" y="805.222" width="184.252" height="22.6772" class="st1"/>
				<text x="4.13" y="821.36" class="st2">韶　　州──今廣東曲江</text>			</g>
			<g id="shape57-153" transform="translate(362.268,-731.339)">
				<title>工作表.57</title>
				<desc>南　　嶽──湖南南嶽</desc>
				<rect x="0" y="805.222" width="168.094" height="22.6772" class="st1"/>
				<text x="4.05" y="821.36" class="st2">南　　嶽──湖南南嶽</text>			</g>
			<g id="shape58-156" transform="translate(362.268,-694.772)">
				<title>工作表.58</title>
				<desc>吉州廬陵──江西吉水</desc>
				<rect x="0" y="805.222" width="168.094" height="22.6772" class="st1"/>
				<text x="4.05" y="821.36" class="st2">吉州廬陵──江西吉水</text>			</g>
			<g id="shape59-159" transform="translate(362.268,-658.205)">
				<title>工作表.59</title>
				<desc>撫州臨川──江西臨川</desc>
				<rect x="0" y="805.222" width="168.094" height="22.6772" class="st1"/>
				<text x="4.05" y="821.36" class="st2">撫州臨川──江西臨川</text>			</g>
			<g id="shape60-162" transform="translate(362.268,-621.638)">
				<title>工作表.60</title>
				<desc>南　　嶽──湖南南嶽</desc>
				<rect x="0" y="805.222" width="168.094" height="22.6772" class="st1"/>
				<text x="4.05" y="821.36" class="st2">南　　嶽──湖南南嶽</text>			</g>
			<g id="shape61-165" transform="translate(362.268,-585.071)">
				<title>工作表.61</title>
				<desc>洪　　州──江西南昌</desc>
				<rect x="0" y="805.222" width="168.094" height="22.6772" class="st1"/>
				<text x="4.05" y="821.36" class="st2">洪　　州──江西南昌</text>			</g>
			<g id="shape62-168" transform="translate(362.268,-548.504)">
				<title>工作表.62</title>
				<desc>荊　　州──湖北江陵</desc>
				<rect x="0" y="805.222" width="168.094" height="22.6772" class="st1"/>
				<text x="4.05" y="821.36" class="st2">荊　　州──湖北江陵</text>			</g>
			<g id="shape63-171" transform="translate(362.268,-511.937)">
				<title>工作表.63</title>
				<desc>澧州藥山──湖　　南</desc>
				<rect x="0" y="805.222" width="168.094" height="22.6772" class="st1"/>
				<text x="4.05" y="821.36" class="st2">澧州藥山──湖　　南</text>			</g>
			<g id="shape64-174" transform="translate(362.268,-475.37)">
				<title>工作表.64</title>
				<desc>洪　　州──江西南昌</desc>
				<rect x="0" y="805.222" width="168.094" height="22.6772" class="st1"/>
				<text x="4.05" y="821.36" class="st2">洪　　州──江西南昌</text>			</g>
			<g id="shape65-177" transform="translate(362.268,-438.803)">
				<title>工作表.65</title>
				<desc>潭州潙山──湖南寧湘</desc>
				<rect x="0" y="805.222" width="168.094" height="22.6772" class="st1"/>
				<text x="4.05" y="821.36" class="st2">潭州潙山──湖南寧湘</text>			</g>
			<g id="shape66-180" transform="translate(362.268,-402.236)">
				<title>工作表.66</title>
				<desc>澧州龍潭──湖　　南</desc>
				<rect x="0" y="805.222" width="168.094" height="22.6772" class="st1"/>
				<text x="4.05" y="821.36" class="st2">澧州龍潭──湖　　南</text>			</g>
			<g id="shape67-183" transform="translate(362.268,-365.669)">
				<title>工作表.67</title>
				<desc>潭州雲巖──湖　　南</desc>
				<rect x="0" y="805.222" width="168.094" height="22.6772" class="st1"/>
				<text x="4.05" y="821.36" class="st2">潭州雲巖──湖　　南</text>			</g>
			<g id="shape68-186" transform="translate(362.268,-329.102)">
				<title>工作表.68</title>
				<desc>鎮　　州──河北正定</desc>
				<rect x="0" y="805.222" width="168.094" height="22.6772" class="st1"/>
				<text x="4.05" y="821.36" class="st2">鎮　　州──河北正定</text>			</g>
			<g id="shape69-189" transform="translate(362.268,-292.535)">
				<title>工作表.69</title>
				<desc>袁州仰山──江　　西</desc>
				<rect x="0" y="805.222" width="168.094" height="22.6772" class="st1"/>
				<text x="4.05" y="821.36" class="st2">袁州仰山──江　　西</text>			</g>
			<g id="shape70-192" transform="translate(361.488,-256.819)">
				<title>工作表.70</title>
				<desc>澧陽至德山─　　　　</desc>
				<rect x="0" y="805.222" width="168.094" height="22.6772" class="st1"/>
				<text x="4.05" y="821.36" class="st2">澧陽至德山─</text>			</g>
			<g id="shape71-195" transform="translate(490.11,-250.157)">
				<title>工作表.71</title>
				<desc>澧縣常德</desc>
				<rect x="0" y="793.884" width="40.252" height="34.0157" class="st1"/>
				<text x="12.25" y="807.29" class="st3">澧縣<tspan x="12.25" dy="1.2em" class="st4">常德</tspan></text>			</g>
			<g id="shape72-199" transform="translate(456.732,-256.819)">
				<title>工作表.72</title>
				<desc>湖 南</desc>
				<rect x="0" y="805.222" width="56.126" height="22.6772" class="st1"/>
				<text x="4" y="821.36" class="st2">湖  南</text>			</g>
			<g id="shape73-202" transform="translate(362.268,-219.402)">
				<title>工作表.73</title>
				<desc>筠州洞山──江西高安</desc>
				<rect x="0" y="805.222" width="168.094" height="22.6772" class="st1"/>
				<text x="4.05" y="821.36" class="st2">筠州洞山──江西高安</text>			</g>
			<g id="shape74-205" transform="translate(362.268,-182.835)">
				<title>工作表.74</title>
				<desc>福州閩川──福建閩侯</desc>
				<rect x="0" y="805.222" width="168.094" height="22.6772" class="st1"/>
				<text x="4.05" y="821.36" class="st2">福州閩川──福建閩侯</text>			</g>
			<g id="shape75-208" transform="translate(362.268,-146.268)">
				<title>工作表.75</title>
				<desc>撫州曹山──江西臨川</desc>
				<rect x="0" y="805.222" width="168.094" height="22.6772" class="st1"/>
				<text x="4.05" y="821.36" class="st2">撫州曹山──江西臨川</text>			</g>
			<g id="shape76-211" transform="translate(362.268,-109.701)">
				<title>工作表.76</title>
				<desc>福州玄沙山─福建閩侯</desc>
				<rect x="0" y="805.222" width="168.094" height="22.6772" class="st1"/>
				<text x="4.05" y="821.36" class="st2">福州玄沙山─福建閩侯</text>			</g>
			<g id="shape77-214" transform="translate(362.268,-73.1339)">
				<title>工作表.77</title>
				<desc>龍州雲門山─廣東乳源</desc>
				<rect x="0" y="805.222" width="168.094" height="22.6772" class="st1"/>
				<text x="4.05" y="821.36" class="st2">龍州雲門山─廣東乳源</text>			</g>
			<g id="shape78-217" transform="translate(362.268,-36.5669)">
				<title>工作表.78</title>
				<desc>漳州漳浦──　　　　</desc>
				<rect x="0" y="805.222" width="168.094" height="22.6772" class="st1"/>
				<text x="4.05" y="821.36" class="st2">漳州漳浦──</text>			</g>
			<g id="shape79-220" transform="translate(456.732,-36.5669)">
				<title>工作表.79</title>
				<desc>福 建</desc>
				<rect x="0" y="805.222" width="56.126" height="22.6772" class="st1"/>
				<text x="4" y="821.36" class="st2">福  建</text>			</g>
			<g id="shape80-223" transform="translate(490.11,-30.8976)">
				<title>工作表.80</title>
				<desc>龍溪漳浦</desc>
				<rect x="0" y="793.884" width="40.252" height="34.0157" class="st1"/>
				<text x="12.25" y="807.29" class="st3">龍溪<tspan x="12.25" dy="1.2em" class="st4">漳浦</tspan></text>			</g>
			<g id="shape81-227" transform="translate(362.268,-1.25056E-12)">
				<title>工作表.81</title>
				<desc>金　　陵──南　　京</desc>
				<rect x="0" y="805.222" width="168.094" height="22.6772" class="st1"/>
				<text x="4.05" y="821.36" class="st2">金　　陵──南　　京</text>			</g>
		</g>
	</g>
</svg>
