<?xml version="1.0" encoding="UTF-8" standalone="no"?>
<!DOCTYPE svg PUBLIC "-//W3C//DTD SVG 1.1//EN" "http://www.w3.org/Graphics/SVG/1.1/DTD/svg11.dtd">
<!-- 由 Microsoft Visio, SVG Export 產生 y22.0327-h.svg 頁-1 -->
<svg xmlns="http://www.w3.org/2000/svg" xmlns:xlink="http://www.w3.org/1999/xlink" xmlns:ev="http://www.w3.org/2001/xml-events"
		width="7.08404in" height="1.07341in" viewBox="0 0 510.051 77.2854" xml:space="preserve" color-interpolation-filters="sRGB"
		class="st6">
	<style type="text/css">
	<![CDATA[
		.st1 {fill:none;stroke:#000000;stroke-linecap:round;stroke-linejoin:round;stroke-opacity:0;stroke-width:1}
		.st2 {fill:#000000;font-family:新細明體;font-size:1.33333em}
		.st3 {fill:none;stroke:#000000;stroke-linecap:round;stroke-linejoin:round;stroke-opacity:0;stroke-width:0.75}
		.st4 {stroke:#000000;stroke-dasharray:3,3;stroke-linecap:round;stroke-linejoin:round;stroke-width:1}
		.st5 {stroke:#000000;stroke-linecap:round;stroke-linejoin:round;stroke-width:1}
		.st6 {fill:none;fill-rule:evenodd;font-size:12px;overflow:visible;stroke-linecap:square;stroke-miterlimit:3}
	]]>
	</style>

	<g>
		<title>頁-1</title>
		<g id="group16-1" transform="translate(0.5,-0.375)">
			<title>工作表.16</title>
			<g id="shape1-2" transform="translate(-3.19744E-14,-29.0551)">
				<title>工作表.1</title>
				<desc>鳩摩羅笈多</desc>
				<rect x="0" y="57.4429" width="90.7087" height="19.8425" class="st1"/>
				<text x="5.35" y="72.16" class="st2">鳩摩羅笈多</text>			</g>
			<g id="shape2-5" transform="translate(107.717,-29.0551)">
				<title>工作表.2</title>
				<desc>塞建陀笈多</desc>
				<rect x="0" y="57.4429" width="90.7087" height="19.8425" class="st1"/>
				<text x="5.35" y="72.16" class="st2">塞建陀笈多</text>			</g>
			<g id="shape3-8" transform="translate(219.328,-56.6929)">
				<title>工作表.3</title>
				<desc>弗羅迦阿迭多</desc>
				<rect x="0" y="57.4429" width="111.26" height="19.8425" class="st3"/>
				<text x="7.63" y="72.16" class="st2">弗羅迦阿迭多</text>			</g>
			<g id="shape4-11" transform="translate(221.102,-29.0551)">
				<title>工作表.4</title>
				<desc>佛陀笈多</desc>
				<rect x="0" y="57.4429" width="73.7008" height="19.8425" class="st1"/>
				<text x="4.85" y="72.16" class="st2">佛陀笈多</text>			</g>
			<g id="shape5-14" transform="translate(155.906,-0.708661)">
				<title>工作表.5</title>
				<desc>補羅笈多</desc>
				<rect x="0" y="57.4429" width="73.7008" height="19.8425" class="st1"/>
				<text x="4.85" y="72.16" class="st2">補羅笈多</text>			</g>
			<g id="shape6-17" transform="translate(250.512,-0.708661)">
				<title>工作表.6</title>
				<desc>那羅新哈笈多</desc>
				<rect x="0" y="57.4429" width="111.26" height="19.8425" class="st3"/>
				<text x="7.63" y="72.16" class="st2">那羅新哈笈多</text>			</g>
			<g id="shape7-20" transform="translate(383.034,-1.42109E-14)">
				<title>工作表.7</title>
				<desc>鳩摩羅笈多二世</desc>
				<rect x="0" y="57.4429" width="126.142" height="19.8425" class="st3"/>
				<text x="7.07" y="72.16" class="st2">鳩摩羅笈多二世</text>			</g>
			<g id="shape8-23" transform="translate(99.2126,-10.6299)">
				<title>工作表.8</title>
				<path d="M0 77.29 L56.69 77.29" class="st4"/>
			</g>
			<g id="shape9-26" transform="translate(85.0394,-38.9764)">
				<title>工作表.9</title>
				<path d="M0 77.29 L28.35 77.29" class="st5"/>
			</g>
			<g id="shape10-29" transform="translate(357.165,-10.6299)">
				<title>工作表.10</title>
				<path d="M0 77.29 L28.35 77.29" class="st5"/>
			</g>
			<g id="shape11-32" transform="translate(195.591,-38.9764)">
				<title>工作表.11</title>
				<path d="M0 77.29 L28.35 77.29" class="st5"/>
			</g>
			<g id="shape12-35" transform="translate(226.772,-10.6299)">
				<title>工作表.12</title>
				<path d="M0 77.29 L28.35 77.29" class="st5"/>
			</g>
			<g id="shape13-38" transform="translate(129.644,38.3091) rotate(-90)">
				<title>工作表.13</title>
				<path d="M0 77.29 L28.35 77.29" class="st5"/>
			</g>
			<g id="shape14-41" transform="translate(206.929,-67.3228)">
				<title>工作表.14</title>
				<path d="M0 77.29 L17.01 77.29" class="st5"/>
			</g>
			<g id="shape15-44" transform="translate(21.9272,66.6555) rotate(-90)">
				<title>工作表.15</title>
				<path d="M0 77.29 L28.35 77.29" class="st4"/>
			</g>
		</g>
	</g>
</svg>
