<?xml version="1.0" encoding="UTF-8" standalone="no"?>
<!DOCTYPE svg PUBLIC "-//W3C//DTD SVG 1.1//EN" "http://www.w3.org/Graphics/SVG/1.1/DTD/svg11.dtd">
<!-- 由 Microsoft Visio, SVG Export 產生 y22.0341-h.svg 頁-1 -->
<svg xmlns="http://www.w3.org/2000/svg" xmlns:xlink="http://www.w3.org/1999/xlink" xmlns:ev="http://www.w3.org/2001/xml-events"
		width="3.10512in" height="3.33325in" viewBox="0 0 223.569 239.994" xml:space="preserve" color-interpolation-filters="sRGB"
		class="st3">
	<style type="text/css">
	<![CDATA[
		.st1 {fill:none;stroke:none;stroke-linecap:round;stroke-linejoin:round;stroke-width:0.75}
		.st2 {fill:#000000;font-family:新細明體;font-size:1.33333em}
		.st3 {fill:none;fill-rule:evenodd;font-size:12px;overflow:visible;stroke-linecap:square;stroke-miterlimit:3}
	]]>
	</style>

	<g>
		<title>頁-1</title>
		<g id="group15-1" transform="translate(0.375,-0.375)">
			<title>工作表.15</title>
			<g id="shape1-2" transform="translate(-1.59872E-14,-219.402)">
				<title>工作表.1</title>
				<desc>西元四二一</desc>
				<rect x="0" y="220.152" width="92.4094" height="19.8425" class="st1"/>
				<text x="6.2" y="234.87" class="st2">西元四二一</text>			</g>
			<g id="shape2-5" transform="translate(130.409,-4.26326E-13)">
				<title>工作表.2</title>
				<desc>玄奘見戒賢</desc>
				<rect x="0" y="220.152" width="92.4094" height="19.8425" class="st1"/>
				<text x="6.2" y="234.87" class="st2">玄奘見戒賢</text>			</g>
			<g id="shape3-8" transform="translate(130.409,-219.402)">
				<title>工作表.3</title>
				<desc>陳那生</desc>
				<rect x="0" y="220.152" width="56.126" height="19.8425" class="st1"/>
				<text x="4.06" y="234.87" class="st2">陳那生</text>			</g>
			<g id="shape4-11" transform="translate(130.409,-182.835)">
				<title>工作表.4</title>
				<desc>世親卒</desc>
				<rect x="0" y="220.152" width="56.126" height="19.8425" class="st1"/>
				<text x="4.06" y="234.87" class="st2">世親卒</text>			</g>
			<g id="shape5-14" transform="translate(130.409,-146.268)">
				<title>工作表.5</title>
				<desc>護法生</desc>
				<rect x="0" y="220.152" width="56.126" height="19.8425" class="st1"/>
				<text x="4.06" y="234.87" class="st2">護法生</text>			</g>
			<g id="shape6-17" transform="translate(130.409,-109.701)">
				<title>工作表.6</title>
				<desc>陳那卒</desc>
				<rect x="0" y="220.152" width="56.126" height="19.8425" class="st1"/>
				<text x="4.06" y="234.87" class="st2">陳那卒</text>			</g>
			<g id="shape7-20" transform="translate(130.409,-73.1339)">
				<title>工作表.7</title>
				<desc>戒賢生</desc>
				<rect x="0" y="220.152" width="56.126" height="19.8425" class="st1"/>
				<text x="4.06" y="234.87" class="st2">戒賢生</text>			</g>
			<g id="shape8-23" transform="translate(130.409,-36.5669)">
				<title>工作表.8</title>
				<desc>護法卒</desc>
				<rect x="0" y="220.152" width="56.126" height="19.8425" class="st1"/>
				<text x="4.06" y="234.87" class="st2">護法卒</text>			</g>
			<g id="shape9-26" transform="translate(36.2835,-182.835)">
				<title>工作表.9</title>
				<desc>四四○</desc>
				<rect x="0" y="220.152" width="56.126" height="19.8425" class="st1"/>
				<text x="4.06" y="234.87" class="st2">四四○</text>			</g>
			<g id="shape10-29" transform="translate(36.2835,-146.268)">
				<title>工作表.10</title>
				<desc>四八一</desc>
				<rect x="0" y="220.152" width="56.126" height="19.8425" class="st1"/>
				<text x="4.06" y="234.87" class="st2">四八一</text>			</g>
			<g id="shape11-32" transform="translate(36.2835,-109.701)">
				<title>工作表.11</title>
				<desc>五○○</desc>
				<rect x="0" y="220.152" width="56.126" height="19.8425" class="st1"/>
				<text x="4.06" y="234.87" class="st2">五○○</text>			</g>
			<g id="shape12-35" transform="translate(36.2835,-73.1339)">
				<title>工作表.12</title>
				<desc>五三一</desc>
				<rect x="0" y="220.152" width="56.126" height="19.8425" class="st1"/>
				<text x="4.06" y="234.87" class="st2">五三一</text>			</g>
			<g id="shape13-38" transform="translate(36.2835,-36.5669)">
				<title>工作表.13</title>
				<desc>五六○</desc>
				<rect x="0" y="220.152" width="56.126" height="19.8425" class="st1"/>
				<text x="4.06" y="234.87" class="st2">五六○</text>			</g>
			<g id="shape14-41" transform="translate(36.2835,-2.84217E-14)">
				<title>工作表.14</title>
				<desc>六三六</desc>
				<rect x="0" y="220.152" width="56.126" height="19.8425" class="st1"/>
				<text x="4.06" y="234.87" class="st2">六三六</text>			</g>
		</g>
	</g>
</svg>
