<?xml version="1.0" encoding="utf-8"?>
<!-- Generator: Adobe Illustrator 16.0.0, SVG Export Plug-In . SVG Version: 6.00 Build 0)  -->
<!DOCTYPE svg PUBLIC "-//W3C//DTD SVG 1.1//EN" "http://www.w3.org/Graphics/SVG/1.1/DTD/svg11.dtd">
<svg version="1.1" id="圖層_1" xmlns="http://www.w3.org/2000/svg" xmlns:xlink="http://www.w3.org/1999/xlink" x="0px" y="0px"
	 width="200px" height="200px" viewBox="0 0 200 200" enable-background="new 0 0 200 200" xml:space="preserve">
<g>
	<g>
		<g>
			<path fill-rule="evenodd" clip-rule="evenodd" fill="#FFFFFF" d="M-2.673,200.684c0-67.122,0-134.245,0-201.367
				c67.557,0,135.115,0,202.673,0c0,67.123,0,134.245,0,201.367C132.442,200.684,64.884,200.684-2.673,200.684z M67.74,28.662
				c6.718,11.721,2.011,20.831-4.017,29.284c-11.269,15.803-20.275,33.045-37.623,45.162c-2.291,1.6-2.595,7.695-1.073,10.615
				c2.461,4.725,7.231,2.402,10.784-0.005c2.885-1.954,5.312-4.429,8.211-6.365c11.342-7.574,22.676-15.168,34.324-22.37
				c1.736-1.073,5.604-0.808,7.608,0.189c1.394,0.693,1.815,3.725,1.686,5.661c-0.116,1.746-1.368,3.532-2.471,5.113
				c-7.455,10.689-13.297,22.291-25.165,30.396c-2.379,1.625-1.508,6.887-2.135,10.47c3.194-1.318,6.766-2.207,9.503-4.046
				c5.545-3.723,10.123-8.703,16.025-11.832c12.578-6.67,25.964-1.867,28.882,9.671c6.32,24.986-11.968,45.505-41.072,46.061
				c-3.269,0.061-6.539,0.008-9.809,0.008c-0.054,0.987-0.107,1.974-0.161,2.962c10.11,1.743,20.145,4.235,30.353,5.05
				c14.928,1.192,23.378-3.818,27.421-16.354c2.457-7.615,3.543-15.75,3.808-23.688c0.644-19.284-5.301-26.109-26.492-31.854
				c-6.063-1.644-7.125-4.327-3.75-8.888c2.496-3.37,5.657-6.715,6.689-10.459c0.971-3.519,1.037-8.635-1.256-11.038
				c-2.257-2.367-8.203-3.431-12.122-2.874c-5.913,0.842-11.402,3.765-17.207,5.449c-2.798,0.812-5.903,0.814-11.568,1.518
				c3.185-4.539,4.815-6.94,6.531-9.294c5.742-7.878,12.318-15.387,17.075-23.694C86.729,43.016,82.571,35.048,67.74,28.662z
				 M140.384,66.265c-0.535,0.991-1.07,1.982-1.606,2.973c0.641,0.856,1.201,1.768,1.934,2.559
				c6.763,7.302,18.797,10.39,21.757,20.861c0.229,0.81,3.163,1.376,4.877,1.457c4.261,0.201,8.64,0.533,12.782-0.114
				c2.943-0.46,5.579-2.427,8.352-3.722c-1.536-2.431-2.388-6.11-4.721-7.088C169.486,77.209,154.879,71.839,140.384,66.265z"/>
		</g>
		<g>
			<path fill-rule="evenodd" clip-rule="evenodd" d="M67.483,17.995c14.831,6.386,18.988,14.354,12.979,24.845
				c-4.757,8.307-11.333,15.816-17.075,23.694c-1.716,2.354-3.347,4.756-6.531,9.294c5.665-0.704,8.771-0.707,11.568-1.518
				c5.805-1.684,11.294-4.607,17.207-5.449c3.919-0.557,9.865,0.507,12.122,2.874c2.293,2.403,2.227,7.519,1.256,11.038
				c-1.032,3.744-4.193,7.089-6.689,10.459c-3.375,4.561-2.313,7.243,3.75,8.887c21.191,5.746,27.136,12.57,26.492,31.854
				c-0.265,7.938-1.351,16.073-3.808,23.688c-4.043,12.535-12.493,17.546-27.421,16.354c-10.208-0.814-20.242-3.307-30.353-5.05
				c0.054-0.988,0.107-1.975,0.161-2.962c3.27,0,6.54,0.053,9.809-0.008c29.104-0.556,47.393-21.074,41.072-46.061
				c-2.918-11.538-16.304-16.341-28.882-9.672c-5.902,3.129-10.48,8.11-16.025,11.833c-2.737,1.839-6.309,2.728-9.503,4.046
				c0.627-3.583-0.244-8.845,2.135-10.469c11.868-8.105,17.71-19.708,25.165-30.397c1.103-1.581,2.354-3.367,2.471-5.113
				c0.13-1.937-0.292-4.968-1.686-5.661c-2.004-0.997-5.872-1.262-7.608-0.189c-11.648,7.202-22.982,14.796-34.324,22.37
				c-2.899,1.937-5.326,4.41-8.211,6.365c-3.553,2.406-8.323,4.729-10.784,0.004c-1.521-2.919-1.218-9.015,1.073-10.614
				c17.348-12.116,26.354-29.359,37.623-45.162C69.494,38.826,74.201,29.716,67.483,17.995z"/>
		</g>
		<g>
			<path fill-rule="evenodd" clip-rule="evenodd" d="M140.127,55.598c14.495,5.574,29.103,10.944,43.374,16.926
				c2.333,0.978,3.185,4.657,4.721,7.088c-2.772,1.295-5.408,3.262-8.352,3.722c-4.143,0.646-8.521,0.314-12.782,0.114
				c-1.714-0.08-4.647-0.646-4.877-1.457c-2.96-10.472-14.994-13.559-21.757-20.861c-0.732-0.791-1.293-1.703-1.934-2.559
				C139.057,57.58,139.592,56.589,140.127,55.598z"/>
		</g>
	</g>
</g>
</svg>
