<?xml version="1.0" encoding="UTF-8" standalone="no"?>
<!DOCTYPE svg PUBLIC "-//W3C//DTD SVG 1.1//EN" "http://www.w3.org/Graphics/SVG/1.1/DTD/svg11.dtd">
<!-- 由 Microsoft Visio, SVG Export 產生 y22.0326-h.svg 頁-1 -->
<svg xmlns="http://www.w3.org/2000/svg" xmlns:xlink="http://www.w3.org/1999/xlink" xmlns:ev="http://www.w3.org/2001/xml-events"
		width="5.58493in" height="2.25798in" viewBox="0 0 402.115 162.575" xml:space="preserve" color-interpolation-filters="sRGB"
		class="st6">
	<style type="text/css">
	<![CDATA[
		.st1 {fill:none;stroke:#000000;stroke-linecap:round;stroke-linejoin:round;stroke-opacity:0;stroke-width:1}
		.st2 {fill:#000000;font-family:新細明體;font-size:1.33333em}
		.st3 {stroke:#000000;stroke-linecap:round;stroke-linejoin:round;stroke-width:1}
		.st4 {fill:none;stroke:#000000;stroke-linecap:round;stroke-linejoin:round;stroke-opacity:0;stroke-width:0.75}
		.st5 {stroke:#000000;stroke-dasharray:3,3;stroke-linecap:round;stroke-linejoin:round;stroke-width:1}
		.st6 {fill:none;fill-rule:evenodd;font-size:12px;overflow:visible;stroke-linecap:square;stroke-miterlimit:3}
	]]>
	</style>

	<g>
		<title>頁-1</title>
		<g id="group26-1" transform="translate(0.5,-0.5)">
			<title>工作表.26</title>
			<g id="shape1-2" transform="translate(6.39488E-14,-113.386)">
				<title>工作表.1</title>
				<desc>高氏說</desc>
				<rect x="0" y="142.732" width="59.5276" height="19.8425" class="st1"/>
				<text x="5.76" y="157.45" class="st2">高氏說</text>			</g>
			<g id="shape2-5" transform="translate(-103.047,53.4409) rotate(-90)">
				<title>工作表.2</title>
				<path d="M0 103.05 L28.35 103.05 L28.35 162.57" class="st3"/>
			</g>
			<g id="shape3-8" transform="translate(-103.047,53.4409) rotate(-90)">
				<title>工作表.3</title>
				<path d="M0 103.05 L0 162.57 L28.35 162.57" class="st3"/>
			</g>
			<g id="shape4-11" transform="translate(2.59792E-13,-28.3465)">
				<title>工作表.4</title>
				<desc>多氏說</desc>
				<rect x="0" y="142.732" width="59.5276" height="19.8425" class="st1"/>
				<text x="5.76" y="157.45" class="st2">多氏說</text>			</g>
			<g id="shape5-14" transform="translate(-103.047,138.48) rotate(-90)">
				<title>工作表.5</title>
				<path d="M0 103.05 L28.35 103.05 L28.35 162.57" class="st3"/>
			</g>
			<g id="shape6-17" transform="translate(-103.047,138.48) rotate(-90)">
				<title>工作表.6</title>
				<path d="M0 103.05 L0 162.57 L28.35 162.57" class="st3"/>
			</g>
			<g id="shape7-20" transform="translate(85.0394,-113.386)">
				<title>工作表.7</title>
				<desc>鳩摩羅笈多</desc>
				<rect x="0" y="142.732" width="90.7087" height="19.8425" class="st1"/>
				<text x="5.35" y="157.45" class="st2">鳩摩羅笈多</text>			</g>
			<g id="shape8-23" transform="translate(212.598,-113.386)">
				<title>工作表.8</title>
				<desc>塞犍陀笈多</desc>
				<rect x="0" y="142.732" width="90.7087" height="19.8425" class="st1"/>
				<text x="5.35" y="157.45" class="st2">塞犍陀笈多</text>			</g>
			<g id="shape9-26" transform="translate(325.984,-141.732)">
				<title>工作表.9</title>
				<desc>佛陀笈多</desc>
				<rect x="0" y="142.732" width="73.7008" height="19.8425" class="st1"/>
				<text x="4.85" y="157.45" class="st2">佛陀笈多</text>			</g>
			<g id="shape10-29" transform="translate(294.803,-85.0394)">
				<title>工作表.10</title>
				<desc>補羅笈多</desc>
				<rect x="0" y="142.732" width="73.7008" height="19.8425" class="st1"/>
				<text x="4.85" y="157.45" class="st2">補羅笈多</text>			</g>
			<g id="shape11-32" transform="translate(85.0394,-28.3465)">
				<title>工作表.11</title>
				<desc>達摩</desc>
				<rect x="0" y="142.732" width="45.3543" height="19.8425" class="st1"/>
				<text x="6.68" y="157.45" class="st2">達摩</text>			</g>
			<g id="shape12-35" transform="translate(131.205,-55.6299)">
				<title>工作表.12</title>
				<desc>弟佛陀波苦奢</desc>
				<rect x="0" y="142.732" width="143.858" height="19.8425" class="st4"/>
				<text x="7.93" y="157.45" class="st2">（弟）佛陀波苦奢</text>			</g>
			<g id="shape15-38" transform="translate(290.689,-56.6929)">
				<title>工作表.15</title>
				<desc>犍毘羅波苦奢</desc>
				<rect x="0" y="142.732" width="110.551" height="19.8425" class="st4"/>
				<text x="7.28" y="157.45" class="st2">犍毘羅波苦奢</text>			</g>
			<g id="shape16-41" transform="translate(134.504,2.84217E-14)">
				<title>工作表.16</title>
				<desc>甥羯摩</desc>
				<rect x="0" y="142.732" width="90.7087" height="19.8425" class="st4"/>
				<text x="5.35" y="157.45" class="st2">（甥）羯摩</text>			</g>
			<g id="shape17-44" transform="translate(294.803,-4.83169E-13)">
				<title>工作表.17</title>
				<desc>毘梨俱舍</desc>
				<rect x="0" y="142.732" width="73.7008" height="19.8425" class="st1"/>
				<text x="4.85" y="157.45" class="st2">毘梨俱舍</text>			</g>
			<g id="shape18-47" transform="translate(223.937,-9.92126)">
				<title>工作表.18</title>
				<path d="M0 162.57 L70.87 162.57" class="st3"/>
			</g>
			<g id="shape19-50" transform="translate(175.748,-123.307)">
				<title>工作表.19</title>
				<path d="M0 162.57 L39.69 162.57" class="st3"/>
			</g>
			<g id="shape20-53" transform="translate(272.126,-66.6142)">
				<title>工作表.20</title>
				<path d="M0 162.57 L25.51 162.57" class="st3"/>
			</g>
			<g id="shape21-56" transform="translate(-18.8342,55.6236) rotate(-65.0092)">
				<title>工作表.21</title>
				<path d="M0 162.57 L32.77 162.57" class="st3"/>
			</g>
			<g id="shape22-59" transform="translate(275.873,55.6236) rotate(65.0092)">
				<title>工作表.22</title>
				<path d="M0 162.57 L31.27 162.57" class="st3"/>
			</g>
			<g id="shape23-62" transform="translate(221.102,-94.9606)">
				<title>工作表.23</title>
				<path d="M0 162.57 L73.7 162.57" class="st3"/>
			</g>
			<g id="shape24-65" transform="translate(325.375,-62.292) rotate(51.3402)">
				<title>工作表.24</title>
				<path d="M0 162.57 L36.3 162.57" class="st5"/>
			</g>
			<g id="shape25-68" transform="translate(179.911,-71.4355) rotate(-46.3972)">
				<title>工作表.25</title>
				<path d="M0 162.57 L41.1 162.57" class="st3"/>
			</g>
		</g>
	</g>
</svg>
