<?xml version="1.0" encoding="UTF-8" standalone="no"?>
<!DOCTYPE svg PUBLIC "-//W3C//DTD SVG 1.1//EN" "http://www.w3.org/Graphics/SVG/1.1/DTD/svg11.dtd">
<!-- 由 Microsoft Visio, SVG Export 產生 y22.0254-h.svg 頁-1 -->
<svg xmlns="http://www.w3.org/2000/svg" xmlns:xlink="http://www.w3.org/1999/xlink" xmlns:ev="http://www.w3.org/2001/xml-events"
		width="7.23089in" height="12.475in" viewBox="0 0 520.624 898.199" xml:space="preserve" color-interpolation-filters="sRGB"
		class="st3">
	<style type="text/css">
	<![CDATA[
		.st1 {fill:none;stroke:none;stroke-linecap:round;stroke-linejoin:round;stroke-width:0.75}
		.st2 {fill:#000000;font-family:新細明體;font-size:1.33333em}
		.st3 {fill:none;fill-rule:evenodd;font-size:12px;overflow:visible;stroke-linecap:square;stroke-miterlimit:3}
	]]>
	</style>

	<g>
		<title>頁-1</title>
		<g id="group66-1" transform="translate(0.375,-0.375)">
			<title>工作表.66</title>
			<g id="shape1-2" transform="translate(-3.19744E-14,-877.606)">
				<title>工作表.1</title>
				<desc>〔卷九〕護持諸國</desc>
				<rect x="0" y="878.356" width="136.063" height="19.8425" class="st1"/>
				<text x="4.03" y="893.08" class="st2">〔卷九〕護持諸國</text>			</g>
			<g id="shape2-5" transform="translate(157.323,-877.606)">
				<title>工作表.2</title>
				<desc>〔卷一○ 〕諸佛出現</desc>
				<rect x="0" y="878.356" width="156.189" height="19.8425" class="st1"/>
				<text x="4.02" y="893.08" class="st2">〔卷一○ 〕諸佛出現</text>			</g>
			<g id="shape3-8" transform="translate(319.748,-877.606)">
				<title>工作表.3</title>
				<desc>〔考同〕</desc>
				<rect x="0" y="878.356" width="72" height="19.8425" class="st1"/>
				<text x="4" y="893.08" class="st2">〔考同〕</text>			</g>
			<g id="shape4-11" transform="translate(319.748,-767.906)">
				<title>工作表.4</title>
				<desc>根有律載迦旃延經迦羅城</desc>
				<rect x="0" y="878.356" width="200.126" height="19.8425" class="st1"/>
				<text x="4" y="893.08" class="st2">根有律載迦旃延經迦羅城，</text>			</g>
			<g id="shape5-14" transform="translate(319.748,-841.039)">
				<title>工作表.5</title>
				<desc>西域記的迦溼彌羅</desc>
				<rect x="0" y="878.356" width="136.063" height="19.8425" class="st1"/>
				<text x="4" y="893.08" class="st2">西域記的迦溼彌羅</text>			</g>
			<g id="shape6-17" transform="translate(319.748,-804.472)">
				<title>工作表.6</title>
				<desc>西域記的烏刺尸</desc>
				<rect x="0" y="878.356" width="120.189" height="19.8425" class="st1"/>
				<text x="4" y="893.08" class="st2">西域記的烏刺尸</text>			</g>
			<g id="shape7-20" transform="translate(319.748,-731.339)">
				<title>工作表.7</title>
				<desc>次到濫波乃漸到步迦拏。</desc>
				<rect x="0" y="878.356" width="200.126" height="19.8425" class="st1"/>
				<text x="4" y="893.08" class="st2">次到濫波，乃漸到步迦拏。</text>			</g>
			<g id="shape8-23" transform="translate(319.748,-694.772)">
				<title>工作表.8</title>
				<desc>今佉羅婆羅與迦羅補羅</desc>
				<rect x="0" y="878.356" width="200.126" height="19.8425" class="st1"/>
				<text x="4" y="893.08" class="st2">今佉羅婆羅，與迦羅補羅（</text>			</g>
			<g id="shape9-26" transform="translate(319.748,-658.205)">
				<title>工作表.9</title>
				<desc>城相當</desc>
				<rect x="0" y="878.356" width="200.126" height="19.8425" class="st1"/>
				<text x="4" y="893.08" class="st2">城）相當</text>			</g>
			<g id="shape10-29" transform="translate(319.748,-621.638)">
				<title>工作表.10</title>
				<desc>未詳</desc>
				<rect x="0" y="878.356" width="40.252" height="19.8425" class="st1"/>
				<text x="4" y="893.08" class="st2">未詳</text>			</g>
			<g id="shape11-32" transform="translate(320.268,-585.071)">
				<title>工作表.11</title>
				<desc>法顯記的陀歷</desc>
				<rect x="0" y="878.356" width="104.031" height="19.8425" class="st1"/>
				<text x="4" y="893.08" class="st2">法顯記的陀歷</text>			</g>
			<g id="shape12-35" transform="translate(319.748,-548.504)">
				<title>工作表.12</title>
				<desc>唐書的勃律</desc>
				<rect x="0" y="878.356" width="92.4094" height="19.8425" class="st1"/>
				<text x="4" y="893.08" class="st2">唐書的勃律</text>			</g>
			<g id="shape13-38" transform="translate(319.748,-511.937)">
				<title>工作表.13</title>
				<desc>未詳</desc>
				<rect x="0" y="878.356" width="40.252" height="19.8425" class="st1"/>
				<text x="4" y="893.08" class="st2">未詳</text>			</g>
			<g id="shape14-41" transform="translate(319.748,-475.37)">
				<title>工作表.14</title>
				<desc>法顯記的竭叉</desc>
				<rect x="0" y="878.356" width="104.031" height="19.8425" class="st1"/>
				<text x="4" y="893.08" class="st2">法顯記的竭叉</text>			</g>
			<g id="shape15-44" transform="translate(319.748,-438.803)">
				<title>工作表.15</title>
				<desc>西域記的斫句迦</desc>
				<rect x="0" y="878.356" width="120.189" height="19.8425" class="st1"/>
				<text x="4" y="893.08" class="st2">西域記的斫句迦</text>			</g>
			<g id="shape16-47" transform="translate(319.748,-402.236)">
				<title>工作表.16</title>
				<desc>疑是漢書的西夜</desc>
				<rect x="0" y="878.356" width="120.189" height="19.8425" class="st1"/>
				<text x="4" y="893.08" class="st2">疑是漢書的西夜</text>			</g>
			<g id="shape17-50" transform="translate(319.748,-365.669)">
				<title>工作表.17</title>
				<desc>西域記的佉沙</desc>
				<rect x="0" y="878.356" width="104.031" height="19.8425" class="st1"/>
				<text x="4" y="893.08" class="st2">西域記的佉沙</text>			</g>
			<g id="shape18-53" transform="translate(319.748,-329.102)">
				<title>工作表.18</title>
				<desc>西域記的瞿薩旦那</desc>
				<rect x="0" y="878.356" width="136.063" height="19.8425" class="st1"/>
				<text x="4" y="893.08" class="st2">西域記的瞿薩旦那</text>			</g>
			<g id="shape19-56" transform="translate(319.748,-292.535)">
				<title>工作表.19</title>
				<desc>西域記的屈支</desc>
				<rect x="0" y="878.356" width="104.031" height="19.8425" class="st1"/>
				<text x="4" y="893.08" class="st2">西域記的屈支</text>			</g>
			<g id="shape20-59" transform="translate(319.748,-255.969)">
				<title>工作表.20</title>
				<desc>西域記的跋祿迦</desc>
				<rect x="0" y="878.356" width="120.189" height="19.8425" class="st1"/>
				<text x="4" y="893.08" class="st2">西域記的跋祿迦</text>			</g>
			<g id="shape21-62" transform="translate(319.748,-219.402)">
				<title>工作表.21</title>
				<desc>未詳</desc>
				<rect x="0" y="878.356" width="40.252" height="19.8425" class="st1"/>
				<text x="4" y="893.08" class="st2">未詳</text>			</g>
			<g id="shape22-65" transform="translate(319.748,-182.835)">
				<title>工作表.22</title>
				<desc>疑是漢書的扜泥</desc>
				<rect x="0" y="878.356" width="120.189" height="19.8425" class="st1"/>
				<text x="4" y="893.08" class="st2">疑是漢書的扜泥</text>			</g>
			<g id="shape23-68" transform="translate(319.748,-146.268)">
				<title>工作表.23</title>
				<desc>漢書的鄯善</desc>
				<rect x="0" y="878.356" width="92.4094" height="19.8425" class="st1"/>
				<text x="4" y="893.08" class="st2">漢書的鄯善</text>			</g>
			<g id="shape24-71" transform="translate(319.748,-109.701)">
				<title>工作表.24</title>
				<desc>不詳</desc>
				<rect x="0" y="878.356" width="40.252" height="19.8425" class="st1"/>
				<text x="4" y="893.08" class="st2">不詳</text>			</g>
			<g id="shape25-74" transform="translate(319.748,-36.5669)">
				<title>工作表.25</title>
				<desc>不詳</desc>
				<rect x="0" y="878.356" width="40.252" height="19.8425" class="st1"/>
				<text x="4" y="893.08" class="st2">不詳</text>			</g>
			<g id="shape26-77" transform="translate(319.748,-73.1339)">
				<title>工作表.26</title>
				<desc>指北朝</desc>
				<rect x="0" y="878.356" width="56.126" height="19.8425" class="st1"/>
				<text x="4" y="893.08" class="st2">指北朝</text>			</g>
			<g id="shape27-80" transform="translate(319.748,-5.68434E-13)">
				<title>工作表.27</title>
				<desc>指南朝</desc>
				<rect x="0" y="878.356" width="56.126" height="19.8425" class="st1"/>
				<text x="4" y="893.08" class="st2">指南朝</text>			</g>
			<g id="shape28-83" transform="translate(157.323,1.13687E-13)">
				<title>工作表.28</title>
				<desc>吳地</desc>
				<rect x="0" y="878.356" width="40.252" height="19.8425" class="st1"/>
				<text x="4" y="893.08" class="st2">吳地</text>			</g>
			<g id="shape29-86" transform="translate(157.323,-36.5669)">
				<title>工作表.29</title>
				<desc>羅羅</desc>
				<rect x="0" y="878.356" width="40.252" height="19.8425" class="st1"/>
				<text x="4" y="893.08" class="st2">羅羅</text>			</g>
			<g id="shape30-89" transform="translate(157.323,-73.1339)">
				<title>工作表.30</title>
				<desc>震旦</desc>
				<rect x="0" y="878.356" width="40.252" height="19.8425" class="st1"/>
				<text x="4" y="893.08" class="st2">震旦</text>			</g>
			<g id="shape31-92" transform="translate(157.323,-109.701)">
				<title>工作表.31</title>
				<desc>緊那羅</desc>
				<rect x="0" y="878.356" width="56.126" height="19.8425" class="st1"/>
				<text x="4" y="893.08" class="st2">緊那羅</text>			</g>
			<g id="shape32-95" transform="translate(157.323,-146.268)">
				<title>工作表.32</title>
				<desc>鄯善</desc>
				<rect x="0" y="878.356" width="40.252" height="19.8425" class="st1"/>
				<text x="4" y="893.08" class="st2">鄯善</text>			</g>
			<g id="shape33-98" transform="translate(157.323,-182.835)">
				<title>工作表.33</title>
				<desc>億尼</desc>
				<rect x="0" y="878.356" width="40.252" height="19.8425" class="st1"/>
				<text x="4" y="893.08" class="st2">億尼</text>			</g>
			<g id="shape34-101" transform="translate(157.323,-219.402)">
				<title>工作表.34</title>
				<desc>奚周迦</desc>
				<rect x="0" y="878.356" width="56.126" height="19.8425" class="st1"/>
				<text x="4" y="893.08" class="st2">奚周迦</text>			</g>
			<g id="shape35-104" transform="translate(157.323,-255.969)">
				<title>工作表.35</title>
				<desc>婆樓迦</desc>
				<rect x="0" y="878.356" width="56.126" height="19.8425" class="st1"/>
				<text x="4" y="893.08" class="st2">婆樓迦</text>			</g>
			<g id="shape36-107" transform="translate(157.323,-292.535)">
				<title>工作表.36</title>
				<desc>龜玆</desc>
				<rect x="0" y="878.356" width="40.252" height="19.8425" class="st1"/>
				<text x="4" y="893.08" class="st2">龜玆</text>			</g>
			<g id="shape37-110" transform="translate(157.323,-329.102)">
				<title>工作表.37</title>
				<desc>于填</desc>
				<rect x="0" y="878.356" width="40.252" height="19.8425" class="st1"/>
				<text x="4" y="893.08" class="st2">于填</text>			</g>
			<g id="shape38-113" transform="translate(157.323,-365.669)">
				<title>工作表.38</title>
				<desc>沙勒</desc>
				<rect x="0" y="878.356" width="40.252" height="19.8425" class="st1"/>
				<text x="4" y="893.08" class="st2">沙勒</text>			</g>
			<g id="shape39-116" transform="translate(157.323,-402.236)">
				<title>工作表.39</title>
				<desc>簁提</desc>
				<rect x="0" y="878.356" width="40.252" height="19.8425" class="st1"/>
				<text x="4" y="893.08" class="st2">簁提</text>			</g>
			<g id="shape40-119" transform="translate(157.323,-438.803)">
				<title>工作表.40</title>
				<desc>遮拘迦</desc>
				<rect x="0" y="878.356" width="56.126" height="19.8425" class="st1"/>
				<text x="4" y="893.08" class="st2">遮拘迦</text>			</g>
			<g id="shape41-122" transform="translate(157.323,-475.37)">
				<title>工作表.41</title>
				<desc>迦沙</desc>
				<rect x="0" y="878.356" width="40.252" height="19.8425" class="st1"/>
				<text x="4" y="893.08" class="st2">迦沙</text>			</g>
			<g id="shape42-125" transform="translate(157.323,-511.937)">
				<title>工作表.42</title>
				<desc>弗離沙</desc>
				<rect x="0" y="878.356" width="56.126" height="19.8425" class="st1"/>
				<text x="4" y="893.08" class="st2">弗離沙</text>			</g>
			<g id="shape43-128" transform="translate(157.323,-548.504)">
				<title>工作表.43</title>
				<desc>波盧那</desc>
				<rect x="0" y="878.356" width="56.126" height="19.8425" class="st1"/>
				<text x="4" y="893.08" class="st2">波盧那</text>			</g>
			<g id="shape44-131" transform="translate(157.323,-585.071)">
				<title>工作表.44</title>
				<desc>陀羅陀</desc>
				<rect x="0" y="878.356" width="56.126" height="19.8425" class="st1"/>
				<text x="4" y="893.08" class="st2">陀羅陀</text>			</g>
			<g id="shape45-134" transform="translate(157.323,-621.638)">
				<title>工作表.45</title>
				<desc>阿疎居迦</desc>
				<rect x="0" y="878.356" width="72" height="19.8425" class="st1"/>
				<text x="4" y="893.08" class="st2">阿疎居迦</text>			</g>
			<g id="shape46-137" transform="translate(157.323,-767.906)">
				<title>工作表.46</title>
				<desc>佉羅婆羅</desc>
				<rect x="0" y="878.356" width="72" height="19.8425" class="st1"/>
				<text x="4" y="893.08" class="st2">佉羅婆羅</text>			</g>
			<g id="shape47-140" transform="translate(157.323,-804.472)">
				<title>工作表.47</title>
				<desc>憂羅賒</desc>
				<rect x="0" y="878.356" width="56.126" height="19.8425" class="st1"/>
				<text x="4" y="893.08" class="st2">憂羅賒</text>			</g>
			<g id="shape48-143" transform="translate(157.323,-841.039)">
				<title>工作表.48</title>
				<desc>罽賓那</desc>
				<rect x="0" y="878.356" width="56.126" height="19.8425" class="st1"/>
				<text x="4" y="893.08" class="st2">罽賓那</text>			</g>
			<g id="shape49-146" transform="translate(1.19904E-13,-841.039)">
				<title>工作表.49</title>
				<desc>罽賓</desc>
				<rect x="0" y="878.356" width="40.252" height="19.8425" class="st1"/>
				<text x="4" y="893.08" class="st2">罽賓</text>			</g>
			<g id="shape50-149" transform="translate(2.39808E-13,-804.472)">
				<title>工作表.50</title>
				<desc>優羅奢</desc>
				<rect x="0" y="878.356" width="56.126" height="19.8425" class="st1"/>
				<text x="4" y="893.08" class="st2">優羅奢</text>			</g>
			<g id="shape51-152" transform="translate(3.51719E-13,-767.906)">
				<title>工作表.51</title>
				<desc>佉羅婆羅</desc>
				<rect x="0" y="878.356" width="72" height="19.8425" class="st1"/>
				<text x="4" y="893.08" class="st2">佉羅婆羅</text>			</g>
			<g id="shape52-155" transform="translate(8.63309E-13,-621.638)">
				<title>工作表.52</title>
				<desc>阿疎拘迦</desc>
				<rect x="0" y="878.356" width="72" height="19.8425" class="st1"/>
				<text x="4" y="893.08" class="st2">阿疎拘迦</text>			</g>
			<g id="shape53-158" transform="translate(1.0032E-12,-585.071)">
				<title>工作表.53</title>
				<desc>達羅陀</desc>
				<rect x="0" y="878.356" width="56.126" height="19.8425" class="st1"/>
				<text x="4" y="893.08" class="st2">達羅陀</text>			</g>
			<g id="shape54-161" transform="translate(1.39089E-12,-511.937)">
				<title>工作表.54</title>
				<desc>弗梨沙</desc>
				<rect x="0" y="878.356" width="56.126" height="19.8425" class="st1"/>
				<text x="4" y="893.08" class="st2">弗梨沙</text>			</g>
			<g id="shape55-164" transform="translate(1.27498E-12,-475.37)">
				<title>工作表.55</title>
				<desc>伽賒</desc>
				<rect x="0" y="878.356" width="40.252" height="19.8425" class="st1"/>
				<text x="4" y="893.08" class="st2">伽賒</text>			</g>
			<g id="shape56-167" transform="translate(1.51479E-12,-438.803)">
				<title>工作表.56</title>
				<desc>遮居迦</desc>
				<rect x="0" y="878.356" width="56.126" height="19.8425" class="st1"/>
				<text x="4" y="893.08" class="st2">遮居迦</text>			</g>
			<g id="shape57-170" transform="translate(1.53078E-12,-402.236)">
				<title>工作表.57</title>
				<desc>簁提</desc>
				<rect x="0" y="878.356" width="40.252" height="19.8425" class="st1"/>
				<text x="4" y="893.08" class="st2">簁提</text>			</g>
			<g id="shape58-173" transform="translate(1.66267E-12,-365.669)">
				<title>工作表.58</title>
				<desc>沙勒</desc>
				<rect x="0" y="878.356" width="40.252" height="19.8425" class="st1"/>
				<text x="4" y="893.08" class="st2">沙勒</text>			</g>
			<g id="shape59-176" transform="translate(1.91447E-12,-329.102)">
				<title>工作表.59</title>
				<desc>于闐</desc>
				<rect x="0" y="878.356" width="40.252" height="19.8425" class="st1"/>
				<text x="4" y="893.08" class="st2">于闐</text>			</g>
			<g id="shape60-179" transform="translate(2.04237E-12,-292.535)">
				<title>工作表.60</title>
				<desc>龜玆</desc>
				<rect x="0" y="878.356" width="40.252" height="19.8425" class="st1"/>
				<text x="4" y="893.08" class="st2">龜玆</text>			</g>
			<g id="shape61-182" transform="translate(2.15428E-12,-255.969)">
				<title>工作表.61</title>
				<desc>婆樓迦</desc>
				<rect x="0" y="878.356" width="56.126" height="19.8425" class="st1"/>
				<text x="4" y="893.08" class="st2">婆樓迦</text>			</g>
			<g id="shape62-185" transform="translate(2.28217E-12,-219.402)">
				<title>工作表.62</title>
				<desc>兮周迦</desc>
				<rect x="0" y="878.356" width="56.126" height="19.8425" class="st1"/>
				<text x="4" y="893.08" class="st2">兮周迦</text>			</g>
			<g id="shape63-188" transform="translate(2.55396E-12,-146.268)">
				<title>工作表.63</title>
				<desc>鄯善</desc>
				<rect x="0" y="878.356" width="40.252" height="19.8425" class="st1"/>
				<text x="4" y="893.08" class="st2">鄯善</text>			</g>
			<g id="shape64-191" transform="translate(2.66587E-12,-109.701)">
				<title>工作表.64</title>
				<desc>緊那羅</desc>
				<rect x="0" y="878.356" width="56.126" height="19.8425" class="st1"/>
				<text x="4" y="893.08" class="st2">緊那羅</text>			</g>
			<g id="shape65-194" transform="translate(2.78177E-12,-73.1339)">
				<title>工作表.65</title>
				<desc>震旦漢國</desc>
				<rect x="0" y="878.356" width="72" height="19.8425" class="st1"/>
				<text x="4" y="893.08" class="st2">震旦漢國</text>			</g>
		</g>
	</g>
</svg>
