<?xml version="1.0" encoding="UTF-8" standalone="no"?>
<!DOCTYPE svg PUBLIC "-//W3C//DTD SVG 1.1//EN" "http://www.w3.org/Graphics/SVG/1.1/DTD/svg11.dtd">
<!-- 由 Microsoft Visio, SVG Export 產生 y22.0128.svg 頁-1 -->
<svg xmlns="http://www.w3.org/2000/svg" xmlns:xlink="http://www.w3.org/1999/xlink" xmlns:ev="http://www.w3.org/2001/xml-events"
		width="8.38003in" height="1.47058in" viewBox="0 0 603.362 105.882" xml:space="preserve" color-interpolation-filters="sRGB"
		class="st5">
	<style type="text/css">
	<![CDATA[
		.st1 {fill:none;stroke:#000000;stroke-linecap:round;stroke-linejoin:round;stroke-opacity:0;stroke-width:1}
		.st2 {fill:#000000;font-family:新細明體;font-size:1.33333em}
		.st3 {stroke:#000000;stroke-linecap:round;stroke-linejoin:round;stroke-width:1}
		.st4 {stroke:#000000;stroke-dasharray:3,3;stroke-linecap:round;stroke-linejoin:round;stroke-width:1}
		.st5 {fill:none;fill-rule:evenodd;font-size:12px;overflow:visible;stroke-linecap:square;stroke-miterlimit:3}
	]]>
	</style>

	<g>
		<title>頁-1</title>
		<g id="group41-1" transform="translate(0.5,-0.5)">
			<title>工作表.41</title>
			<g id="shape4-2" transform="translate(2.83465,-85.0394)">
				<title>工作表.4</title>
				<desc>阿育王傳</desc>
				<rect x="0" y="86.0394" width="73.7008" height="19.8425" class="st1"/>
				<text x="4.85" y="100.76" class="st2">阿育王傳</text>			</g>
			<g id="shape6-5" transform="translate(1.41732,-28.3465)">
				<title>工作表.6</title>
				<desc>禪經</desc>
				<rect x="0" y="86.0394" width="45.3543" height="19.8425" class="st1"/>
				<text x="6.68" y="100.76" class="st2">禪經</text>			</g>
			<g id="shape7-8" transform="translate(117.638,-85.0394)">
				<title>工作表.7</title>
				<desc>迦葉</desc>
				<rect x="0" y="86.0394" width="45.3543" height="19.8425" class="st1"/>
				<text x="6.68" y="100.76" class="st2">迦葉</text>			</g>
			<g id="shape9-11" transform="translate(202.677,-85.0394)">
				<title>工作表.9</title>
				<desc>阿難</desc>
				<rect x="0" y="86.0394" width="45.3543" height="19.8425" class="st1"/>
				<text x="6.68" y="100.76" class="st2">阿難</text>			</g>
			<g id="shape10-14" transform="translate(316.063,-56.6929)">
				<title>工作表.10</title>
				<desc>摩田地</desc>
				<rect x="0" y="86.0394" width="59.5276" height="19.8425" class="st1"/>
				<text x="5.76" y="100.76" class="st2">摩田地</text>			</g>
			<g id="shape11-17" transform="translate(457.795,-85.0394)">
				<title>工作表.11</title>
				<desc>優波毱多</desc>
				<rect x="0" y="86.0394" width="73.7008" height="19.8425" class="st1"/>
				<text x="4.85" y="100.76" class="st2">優波毱多</text>			</g>
			<g id="shape12-20" transform="translate(542.835,-85.0394)">
				<title>工作表.12</title>
				<desc>提多迦</desc>
				<rect x="0" y="86.0394" width="59.5276" height="19.8425" class="st1"/>
				<text x="5.76" y="100.76" class="st2">提多迦</text>			</g>
			<g id="shape13-23" transform="translate(202.677,-28.3465)">
				<title>工作表.13</title>
				<desc>阿難</desc>
				<rect x="0" y="86.0394" width="45.3543" height="19.8425" class="st1"/>
				<text x="6.68" y="100.76" class="st2">阿難</text>			</g>
			<g id="shape14-26" transform="translate(202.677,-2.98428E-13)">
				<title>工作表.14</title>
				<desc>阿難</desc>
				<rect x="0" y="86.0394" width="45.3543" height="19.8425" class="st1"/>
				<text x="6.68" y="100.76" class="st2">阿難</text>			</g>
			<g id="shape16-29" transform="translate(372.756,-85.0394)">
				<title>工作表.16</title>
				<desc>商那和修</desc>
				<rect x="0" y="86.0394" width="73.7008" height="19.8425" class="st1"/>
				<text x="4.85" y="100.76" class="st2">商那和修</text>			</g>
			<g id="shape17-32">
				<title>工作表.17</title>
				<desc>舍利弗問經</desc>
				<rect x="0" y="86.0394" width="93.5433" height="19.8425" class="st1"/>
				<text x="6.77" y="100.76" class="st2">舍利弗問經</text>			</g>
			<g id="shape18-35" transform="translate(117.638,1.42109E-14)">
				<title>工作表.18</title>
				<desc>迦葉</desc>
				<rect x="0" y="86.0394" width="45.3543" height="19.8425" class="st1"/>
				<text x="6.68" y="100.76" class="st2">迦葉</text>			</g>
			<g id="shape19-38" transform="translate(299.055,-28.3465)">
				<title>工作表.19</title>
				<desc>末田地</desc>
				<rect x="0" y="86.0394" width="59.5276" height="19.8425" class="st1"/>
				<text x="5.76" y="100.76" class="st2">末田地</text>			</g>
			<g id="shape20-41" transform="translate(299.055,-9.37916E-13)">
				<title>工作表.20</title>
				<desc>末田地</desc>
				<rect x="0" y="86.0394" width="59.5276" height="19.8425" class="st1"/>
				<text x="5.76" y="100.76" class="st2">末田地</text>			</g>
			<g id="shape21-44" transform="translate(372.756,-28.3465)">
				<title>工作表.21</title>
				<desc>舍那婆斯</desc>
				<rect x="0" y="86.0394" width="73.7008" height="19.8425" class="st1"/>
				<text x="4.85" y="100.76" class="st2">舍那婆斯</text>			</g>
			<g id="shape22-47" transform="translate(372.756,-1.32161E-12)">
				<title>工作表.22</title>
				<desc>舍那婆斯</desc>
				<rect x="0" y="86.0394" width="73.7008" height="19.8425" class="st1"/>
				<text x="4.85" y="100.76" class="st2">舍那婆斯</text>			</g>
			<g id="shape23-50" transform="translate(457.795,-28.3465)">
				<title>工作表.23</title>
				<desc>優波掘多</desc>
				<rect x="0" y="86.0394" width="73.7008" height="19.8425" class="st1"/>
				<text x="4.85" y="100.76" class="st2">優波掘多</text>			</g>
			<g id="shape24-53" transform="translate(457.795,-1.63425E-12)">
				<title>工作表.24</title>
				<desc>優波掘多</desc>
				<rect x="0" y="86.0394" width="73.7008" height="19.8425" class="st1"/>
				<text x="4.85" y="100.76" class="st2">優波掘多</text>			</g>
			<g id="shape25-56" transform="translate(76.5354,-94.9606) rotate(3.11559E-06)">
				<title>工作表.25</title>
				<path d="M0 105.88 L41.1 105.88" class="st3"/>
			</g>
			<g id="shape26-59" transform="translate(46.7717,-38.2677)">
				<title>工作表.26</title>
				<path d="M0 105.88 L155.91 105.88" class="st3"/>
			</g>
			<g id="shape27-62" transform="translate(87.6189,-9.92126)">
				<title>工作表.27</title>
				<path d="M0 105.88 L30.02 105.88" class="st3"/>
			</g>
			<g id="shape28-65" transform="translate(162.992,-94.9606)">
				<title>工作表.28</title>
				<path d="M0 105.88 L39.69 105.88" class="st4"/>
			</g>
			<g id="shape29-68" transform="translate(245.197,-94.9606)">
				<title>工作表.29</title>
				<path d="M0 105.88 L127.56 105.88" class="st4"/>
			</g>
			<g id="shape30-71" transform="translate(279.213,-66.6142)">
				<title>工作表.30</title>
				<path d="M0 105.88 L39.69 105.88" class="st4"/>
			</g>
			<g id="shape31-74" transform="translate(173.331,39.2677) rotate(-90)">
				<title>工作表.31</title>
				<path d="M0 105.88 L28.35 105.88" class="st4"/>
			</g>
			<g id="shape32-77" transform="translate(162.992,-9.92126)">
				<title>工作表.32</title>
				<path d="M0 105.88 L39.69 105.88" class="st4"/>
			</g>
			<g id="shape33-80" transform="translate(245.197,-38.2677)">
				<title>工作表.33</title>
				<path d="M0 105.88 L53.86 105.88" class="st4"/>
			</g>
			<g id="shape34-83" transform="translate(245.197,-9.92126)">
				<title>工作表.34</title>
				<path d="M0 105.88 L53.86 105.88" class="st4"/>
			</g>
			<g id="shape35-86" transform="translate(358.583,-38.2677)">
				<title>工作表.35</title>
				<path d="M0 105.88 L14.17 105.88" class="st4"/>
			</g>
			<g id="shape36-89" transform="translate(358.583,-9.92126)">
				<title>工作表.36</title>
				<path d="M0 105.88 L14.17 105.88" class="st4"/>
			</g>
			<g id="shape37-92" transform="translate(443.622,-38.2677)">
				<title>工作表.37</title>
				<path d="M0 105.88 L14.17 105.88" class="st4"/>
			</g>
			<g id="shape38-95" transform="translate(443.622,-9.92126)">
				<title>工作表.38</title>
				<path d="M0 105.88 L14.17 105.88" class="st4"/>
			</g>
			<g id="shape39-98" transform="translate(443.622,-94.9606)">
				<title>工作表.39</title>
				<path d="M0 105.88 L14.17 105.88" class="st4"/>
			</g>
			<g id="shape40-101" transform="translate(528.661,-94.9606)">
				<title>工作表.40</title>
				<path d="M0 105.88 L14.17 105.88" class="st4"/>
			</g>
		</g>
	</g>
</svg>
