<?xml version="1.0" encoding="UTF-8" standalone="no"?>
<!DOCTYPE svg PUBLIC "-//W3C//DTD SVG 1.0//EN" "http://www.w3.org/TR/2001/REC-SVG-20010904/DTD/svg10.dtd">
<!-- 由 Microsoft Visio 11.0, SVG Export, v1.0 產生 y11.0131.svg Page-1 -->
<svg xmlns="http://www.w3.org/2000/svg" xmlns:xlink="http://www.w3.org/1999/xlink" xmlns:ev="http://www.w3.org/2001/xml-events"
		xmlns:v="http://schemas.microsoft.com/visio/2003/SVGExtensions/" width="5.30076in" height="4.74397in"
		viewBox="0 0 381.654 341.566" xml:space="preserve" color-interpolation-filters="sRGB" class="st6">
	<title>y11.0131</title>
	<v:documentProperties v:langID="1028" v:metric="true" v:viewMarkup="false"/>

	<style type="text/css">
	<![CDATA[
		.st1 {fill:none;stroke:none;stroke-linecap:round;stroke-linejoin:round;stroke-width:0.72}
		.st2 {fill:#000000;font-family:新細明體;font-size:1.33333em}
		.st3 {stroke:#000000;stroke-linecap:round;stroke-linejoin:round;stroke-width:0.72}
		.st4 {stroke:#000000;stroke-dasharray:5.04,3.6;stroke-linecap:round;stroke-linejoin:round;stroke-width:0.72}
		.st5 {stroke:#ffffff;stroke-linecap:round;stroke-linejoin:round;stroke-width:0.72}
		.st6 {fill:none;fill-rule:evenodd;font-size:12px;overflow:visible;stroke-linecap:square;stroke-miterlimit:3}
	]]>
	</style>

	<g v:mID="0" v:index="1" v:groupContext="foregroundPage">
		<title>Page-1</title>
		<v:pageProperties v:drawingScale="0.0393701" v:pageScale="0.0393701" v:drawingUnits="24" v:shadowOffsetX="8.50394"
				v:shadowOffsetY="-8.50394"/>
		<g id="group12-1" transform="translate(139.808,-189.618)" v:mID="12" v:groupContext="group">
			<title>工作表.12</title>
			<g id="shape3-2" v:mID="3" v:groupContext="shape" transform="translate(13.1102,-53.8583)">
				<title>工作表.3</title>
				<desc>真妄二諦</desc>
				<v:textBlock v:margins="rect(4,4,4,4)" v:tabSpace="42.5197" v:verticalText="true"/>
				<v:textRect cx="36.937" cy="304.715" width="73.88" height="73.7008"/>
				<rect x="0" y="267.865" width="73.874" height="73.7008" class="st1"/>
				<text x="36.94" y="272.72" writing-mode="tb-rl" class="st2" v:langID="1028"><v:paragraph v:horizAlign="1"/><v:tabList/>真妄二諦</text>			</g>
			<g id="shape6-5" v:mID="6" v:groupContext="shape" transform="translate(56.6929,-0.464567)">
				<title>工作表.6</title>
				<desc>妄　</desc>
				<v:textBlock v:margins="rect(4,4,4,4)" v:tabSpace="42.5197" v:verticalText="true"/>
				<v:textRect cx="21.7008" cy="320.538" width="43.41" height="42.0551"/>
				<rect x="0" y="299.511" width="43.4016" height="42.0551" class="st1"/>
				<text x="21.7" y="304.54" writing-mode="tb-rl" class="st2" v:langID="1028"><v:paragraph v:horizAlign="1"/><v:tabList/>妄　</text>			</g>
			<g id="shape7-8" v:mID="7" v:groupContext="shape">
				<title>工作表.7</title>
				<desc>真　</desc>
				<v:textBlock v:margins="rect(4,4,4,4)" v:tabSpace="42.5197" v:verticalText="true"/>
				<v:textRect cx="21.7008" cy="320.538" width="43.41" height="42.0551"/>
				<rect x="0" y="299.511" width="43.4016" height="42.0551" class="st1"/>
				<text x="21.7" y="304.54" writing-mode="tb-rl" class="st2" v:langID="1028"><v:paragraph v:horizAlign="1"/><v:tabList/>真　</text>			</g>
			<g id="shape8-11" v:mID="8" v:groupContext="shape" transform="translate(391.613,284.873) rotate(90)">
				<title>工作表.8</title>
				<path d="M0 341.57 L8.5 341.57" class="st3"/>
			</g>
			<g id="shape9-14" v:mID="9" v:groupContext="shape" transform="translate(363.267,293.377) rotate(90)">
				<title>工作表.9</title>
				<path d="M0 341.57 L8.22 341.57" class="st3"/>
			</g>
			<g id="shape10-17" v:mID="10" v:groupContext="shape" transform="translate(419.96,293.377) rotate(90)">
				<title>工作表.10</title>
				<path d="M0 341.57 L8.22 341.57" class="st3"/>
			</g>
			<g id="shape11-20" v:mID="11" v:groupContext="shape" transform="translate(21.7008,-48.189)">
				<title>工作表.11</title>
				<path d="M0 341.57 L56.69 341.57" class="st3"/>
			</g>
		</g>
		<g id="group13-23" transform="translate(548.99,343.885) rotate(120)" v:mID="13" v:groupContext="group">
			<title>工作表.13</title>
			<g id="shape14-24" v:mID="14" v:groupContext="shape" transform="translate(13.1102,-53.8583)">
				<title>工作表.14</title>
				<desc>實假二諦</desc>
				<v:textBlock v:margins="rect(4,4,4,4)" v:tabSpace="42.5197" v:verticalText="true"/>
				<v:textRect cx="36.937" cy="304.715" width="73.88" height="73.7008"/>
				<rect x="0" y="267.865" width="73.874" height="73.7008" class="st1"/>
				<text x="36.94" y="272.72" writing-mode="tb-rl" class="st2" v:langID="1028"><v:paragraph v:horizAlign="1"/><v:tabList/>實假二諦</text>			</g>
			<g id="shape15-27" v:mID="15" v:groupContext="shape" transform="translate(56.6929,-0.464567)">
				<title>工作表.15</title>
				<desc>假　</desc>
				<v:textBlock v:margins="rect(4,4,4,4)" v:tabSpace="42.5197" v:verticalText="true"/>
				<v:textRect cx="21.7008" cy="320.538" width="43.41" height="42.0551"/>
				<rect x="0" y="299.511" width="43.4016" height="42.0551" class="st1"/>
				<text x="21.7" y="304.54" writing-mode="tb-rl" class="st2" v:langID="1028"><v:paragraph v:horizAlign="1"/><v:tabList/>假　</text>			</g>
			<g id="shape16-30" v:mID="16" v:groupContext="shape">
				<title>工作表.16</title>
				<desc>實　</desc>
				<v:textBlock v:margins="rect(4,4,4,4)" v:tabSpace="42.5197" v:verticalText="true"/>
				<v:textRect cx="21.7008" cy="320.538" width="43.41" height="42.0551"/>
				<rect x="0" y="299.511" width="43.4016" height="42.0551" class="st1"/>
				<text x="21.7" y="304.54" writing-mode="tb-rl" class="st2" v:langID="1028"><v:paragraph v:horizAlign="1"/><v:tabList/>實　</text>			</g>
			<g id="shape17-33" v:mID="17" v:groupContext="shape" transform="translate(391.613,284.873) rotate(90)">
				<title>工作表.17</title>
				<path d="M0 341.57 L8.5 341.57" class="st3"/>
			</g>
			<g id="shape18-36" v:mID="18" v:groupContext="shape" transform="translate(363.267,293.377) rotate(90)">
				<title>工作表.18</title>
				<path d="M0 341.57 L8.22 341.57" class="st3"/>
			</g>
			<g id="shape19-39" v:mID="19" v:groupContext="shape" transform="translate(419.96,293.377) rotate(90)">
				<title>工作表.19</title>
				<path d="M0 341.57 L8.22 341.57" class="st3"/>
			</g>
			<g id="shape20-42" v:mID="20" v:groupContext="shape" transform="translate(21.7008,-48.189)">
				<title>工作表.20</title>
				<path d="M0 341.57 L56.69 341.57" class="st3"/>
			</g>
		</g>
		<g id="group21-45" transform="translate(-117.288,430.453) rotate(-120)" v:mID="21" v:groupContext="group">
			<title>工作表.21</title>
			<g id="shape22-46" v:mID="22" v:groupContext="shape" transform="translate(13.1102,-53.8583)">
				<title>工作表.22</title>
				<desc>理事二諦</desc>
				<v:textBlock v:margins="rect(4,4,4,4)" v:tabSpace="42.5197" v:verticalText="true"/>
				<v:textRect cx="36.937" cy="304.715" width="73.88" height="73.7008"/>
				<rect x="0" y="267.865" width="73.874" height="73.7008" class="st1"/>
				<text x="36.94" y="272.72" writing-mode="tb-rl" class="st2" v:langID="1028"><v:paragraph v:horizAlign="1"/><v:tabList/>理事二諦</text>			</g>
			<g id="shape23-49" v:mID="23" v:groupContext="shape" transform="translate(56.6929,-0.464567)">
				<title>工作表.23</title>
				<desc>理　</desc>
				<v:textBlock v:margins="rect(4,4,4,4)" v:tabSpace="42.5197" v:verticalText="true"/>
				<v:textRect cx="21.7008" cy="320.538" width="43.41" height="42.0551"/>
				<rect x="0" y="299.511" width="43.4016" height="42.0551" class="st1"/>
				<text x="21.7" y="304.54" writing-mode="tb-rl" class="st2" v:langID="1028"><v:paragraph v:horizAlign="1"/><v:tabList/>理　</text>			</g>
			<g id="shape24-52" v:mID="24" v:groupContext="shape">
				<title>工作表.24</title>
				<desc>事　</desc>
				<v:textBlock v:margins="rect(4,4,4,4)" v:tabSpace="42.5197" v:verticalText="true"/>
				<v:textRect cx="21.7008" cy="320.538" width="43.41" height="42.0551"/>
				<rect x="0" y="299.511" width="43.4016" height="42.0551" class="st1"/>
				<text x="21.7" y="304.54" writing-mode="tb-rl" class="st2" v:langID="1028"><v:paragraph v:horizAlign="1"/><v:tabList/>事　</text>			</g>
			<g id="shape25-55" v:mID="25" v:groupContext="shape" transform="translate(391.613,284.873) rotate(90)">
				<title>工作表.25</title>
				<path d="M0 341.57 L8.5 341.57" class="st3"/>
			</g>
			<g id="shape26-58" v:mID="26" v:groupContext="shape" transform="translate(363.267,293.377) rotate(90)">
				<title>工作表.26</title>
				<path d="M0 341.57 L8.22 341.57" class="st3"/>
			</g>
			<g id="shape27-61" v:mID="27" v:groupContext="shape" transform="translate(419.96,293.377) rotate(90)">
				<title>工作表.27</title>
				<path d="M0 341.57 L8.22 341.57" class="st3"/>
			</g>
			<g id="shape28-64" v:mID="28" v:groupContext="shape" transform="translate(21.7008,-48.189)">
				<title>工作表.28</title>
				<path d="M0 341.57 L56.69 341.57" class="st3"/>
			</g>
		</g>
		<g id="shape1-67" v:mID="1" v:groupContext="shape" transform="translate(511.906,-39.429) rotate(59.3028)">
			<title>工作表.1</title>
			<path d="M0 341.57 L76.13 341.57" class="st3"/>
		</g>
		<g id="shape2-70" v:mID="2" v:groupContext="shape" transform="translate(558.337,103.717) rotate(84.7552)">
			<title>工作表.2</title>
			<path d="M0 341.57 L115.04 341.57" class="st3"/>
		</g>
		<g id="shape4-73" v:mID="4" v:groupContext="shape" transform="translate(514.909,304.151) rotate(119.696)">
			<title>工作表.4</title>
			<path d="M0 341.57 L131.74 341.57" class="st3"/>
		</g>
		<g id="shape5-76" v:mID="5" v:groupContext="shape" transform="translate(413.705,415.022) rotate(145.084)">
			<title>工作表.5</title>
			<path d="M0 341.57 L114.16 341.57" class="st4"/>
		</g>
		<g id="shape32-79" v:mID="32" v:groupContext="shape" transform="translate(354.544,-146.848) rotate(34.4126)">
			<title>工作表.32</title>
			<path d="M0 341.57 L115.83 341.57" class="st3"/>
		</g>
		<g id="shape33-82" v:mID="33" v:groupContext="shape" transform="translate(456.115,-37.9012) rotate(59.6004)">
			<title>工作表.33</title>
			<path d="M0 341.57 L132.82 341.57" class="st4"/>
		</g>
		<g id="shape34-85" v:mID="34" v:groupContext="shape" transform="translate(502.12,160.453) rotate(94.2836)">
			<title>工作表.34</title>
			<path d="M0 341.57 L114.76 341.57" class="st3"/>
		</g>
		<g id="shape35-88" v:mID="35" v:groupContext="shape" transform="translate(458.892,302.96) rotate(119.466)">
			<title>工作表.35</title>
			<path d="M0 341.57 L75.05 341.57" class="st3"/>
		</g>
		<g id="shape36-91" v:mID="36" v:groupContext="shape" transform="translate(256.764,541.965) rotate(-179.95)">
			<title>工作表.36</title>
			<path d="M0 341.57 L132.47 341.57" class="st3"/>
		</g>
		<g id="shape37-94" v:mID="37" v:groupContext="shape" transform="translate(402.454,509.477) rotate(154.808)">
			<title>工作表.37</title>
			<path d="M0 341.57 L115.07 341.57" class="st3"/>
		</g>
		<g id="shape38-97" v:mID="38" v:groupContext="shape" transform="translate(228.194,591.062) rotate(-179.912)">
			<title>工作表.38</title>
			<path d="M0 341.57 L75.78 341.57" class="st3"/>
		</g>
		<g id="group40-100" transform="translate(33.9497,-47.8852)" v:mID="40" v:groupContext="group">
			<title>工作表.40</title>
			<g id="shape29-101" v:mID="29" v:groupContext="shape" transform="translate(-341.566,341.566) rotate(-90)">
				<title>工作表.29</title>
				<path d="M0 341.57 L274.96 341.57" class="st5"/>
			</g>
			<g id="shape30-104" v:mID="30" v:groupContext="shape" transform="translate(-29.7548,341.566) rotate(-90)">
				<title>工作表.30</title>
				<path d="M0 341.57 L274.96 341.57" class="st5"/>
			</g>
			<g id="shape31-107" v:mID="31" v:groupContext="shape" transform="translate(6.39488E-014,-274.961)">
				<title>工作表.31</title>
				<path d="M0 341.57 L311.81 341.57" class="st5"/>
			</g>
			<g id="shape39-110" v:mID="39" v:groupContext="shape">
				<title>工作表.39</title>
				<path d="M0 341.57 L311.81 341.57" class="st5"/>
			</g>
		</g>
	</g>
</svg>
