<?xml version="1.0" encoding="UTF-8" standalone="no"?>
<!DOCTYPE svg PUBLIC "-//W3C//DTD SVG 1.1//EN" "http://www.w3.org/Graphics/SVG/1.1/DTD/svg11.dtd">
<!-- 由 Microsoft Visio, SVG Export 產生 y11.0025-v.svg 頁-1 -->
<svg xmlns="http://www.w3.org/2000/svg" xmlns:xlink="http://www.w3.org/1999/xlink" xmlns:ev="http://www.w3.org/2001/xml-events"
		width="2.72456in" height="5.32992in" viewBox="0 0 196.168 383.754" xml:space="preserve" color-interpolation-filters="sRGB"
		class="st8">
	<title>y11.0025</title>

	<style type="text/css">
	<![CDATA[
		.st1 {fill:none;stroke:none;stroke-linecap:round;stroke-linejoin:round;stroke-width:2.25}
		.st2 {fill:#000000;font-family:新細明體;font-size:1.33333em}
		.st3 {stroke:#000000;stroke-linecap:round;stroke-linejoin:round;stroke-width:2.25}
		.st4 {marker-end:url(#mrkr13-25);stroke:#000000;stroke-linecap:round;stroke-linejoin:round;stroke-width:2.25}
		.st5 {fill:#000000;fill-opacity:1;stroke:#000000;stroke-opacity:1;stroke-width:0.47169811320755}
		.st6 {stroke:#000000;stroke-dasharray:0,6.75;stroke-linecap:round;stroke-linejoin:round;stroke-width:2.25}
		.st7 {fill:#000000;font-family:細明體;font-size:1.33333em}
		.st8 {fill:none;fill-rule:evenodd;font-size:12px;overflow:visible;stroke-linecap:square;stroke-miterlimit:3}
	]]>
	</style>

	<defs id="Markers">
		<g id="lend13">
			<path d="M 3 1 L 0 0 L 3 -1 L 3 1 " style="stroke:none"/>
		</g>
		<marker id="mrkr13-25" class="st5" refX="-6.36" orient="auto" markerUnits="strokeWidth" overflow="visible">
			<use xlink:href="#lend13" transform="scale(-2.12,-2.12) "/>
		</marker>
	</defs>
	<g>
		<title>頁-1</title>
		<g id="group32-1" transform="translate(4.36753,-1.125)">
			<title>工作表.32</title>
			<g id="shape2-2" transform="translate(101.425,-68.0433)">
				<title>工作表.2</title>
				<desc>假名故有</desc>
				<rect x="0" y="363.911" width="75.2913" height="19.8425" class="st1"/>
				<text x="5.65" y="378.82" class="st2">假名故有</text>			</g>
			<g id="shape3-5" transform="translate(162.197,-340.157)">
				<title>工作表.3</title>
				<desc>解脫</desc>
				<rect x="0" y="342.407" width="19.8425" height="41.3465" class="st1"/>
				<text x="9.92" y="347.08" writing-mode="tb-rl" class="st2">解脫</text>			</g>
			<g id="shape4-8">
				<title>工作表.4</title>
				<desc>流轉</desc>
				<rect x="0" y="342.407" width="19.8425" height="41.3465" class="st1"/>
				<text x="9.92" y="347.08" writing-mode="tb-rl" class="st2">流轉</text>			</g>
			<g id="shape5-11" transform="translate(86.4567,-306.386)">
				<title>工作表.5</title>
				<desc>世</desc>
				<rect x="0" y="356.825" width="19.8425" height="26.9292" class="st1"/>
				<text x="9.92" y="362.29" writing-mode="tb-rl" class="st2">世</text>			</g>
			<g id="shape6-14" transform="translate(87.252,448.366) rotate(180)">
				<title>工作表.6</title>
				<path d="M0 383.75 L76.54 383.75" class="st3"/>
			</g>
			<g id="shape7-17" transform="translate(-373.037,345.242) rotate(-90)">
				<title>工作表.7</title>
				<path d="M0 383.75 L280.63 383.75" class="st3"/>
			</g>
			<g id="shape8-20" transform="translate(196.272,690.508) rotate(163.496)">
				<title>工作表.8</title>
				<path d="M0 383.75 L65.51 383.75" class="st4"/>
			</g>
			<g id="shape9-26" transform="translate(104.26,-61.189)">
				<title>工作表.9</title>
				<path d="M0 383.75 L72.46 383.75" class="st3"/>
			</g>
			<g id="shape10-29" transform="translate(-207.037,322.565) rotate(-90)">
				<title>工作表.10</title>
				<path d="M0 383.75 L279.8 383.75" class="st3"/>
			</g>
			<g id="shape11-32" transform="translate(-6.52011,-302.804) rotate(-16.7786)">
				<title>工作表.11</title>
				<path d="M0 383.75 L61.37 383.75" class="st4"/>
			</g>
			<g id="shape1-37" transform="translate(9.92126,-294.815)">
				<title>工作表.1</title>
				<desc>假名故空</desc>
				<rect x="0" y="363.911" width="75.2913" height="19.8425" class="st1"/>
				<text x="5.65" y="378.82" class="st2">假名故空</text>			</g>
			<g id="shape23-40" transform="translate(13.5512,-48.3169)">
				<title>工作表.23</title>
				<desc>真</desc>
				<rect x="0" y="363.911" width="19.8425" height="19.8425" class="st1"/>
				<text x="4" y="378.82" class="st2">真</text>			</g>
			<g id="shape24-43" transform="translate(28.9685,-54.2185)">
				<title>工作表.24</title>
				<desc>實</desc>
				<rect x="0" y="363.911" width="19.8425" height="19.8425" class="st1"/>
				<text x="4" y="378.82" class="st2">實</text>			</g>
			<g id="shape25-46" transform="translate(62.9843,-65.5571)">
				<title>工作表.25</title>
				<desc>有</desc>
				<rect x="0" y="363.911" width="19.8425" height="19.8425" class="st1"/>
				<text x="4" y="378.82" class="st2">有</text>			</g>
			<g id="shape26-49" transform="translate(45.9764,-59.8878)">
				<title>工作表.26</title>
				<desc>故</desc>
				<rect x="0" y="363.911" width="19.8425" height="19.8425" class="st1"/>
				<text x="4" y="378.82" class="st2">故</text>			</g>
			<g id="shape17-52" transform="translate(105.504,-294.815)">
				<title>工作表.17</title>
				<desc>真</desc>
				<rect x="0" y="363.911" width="19.8425" height="19.8425" class="st1"/>
				<text x="4" y="378.82" class="st2">真</text>			</g>
			<g id="shape18-55" transform="translate(121.268,-300.717)">
				<title>工作表.18</title>
				<desc>實</desc>
				<rect x="0" y="363.911" width="19.8425" height="19.8425" class="st1"/>
				<text x="4" y="378.82" class="st2">實</text>			</g>
			<g id="shape19-58" transform="translate(154.488,-312.055)">
				<title>工作表.19</title>
				<desc>空</desc>
				<rect x="0" y="363.911" width="19.8425" height="19.8425" class="st1"/>
				<text x="4" y="378.82" class="st2">空</text>			</g>
			<g id="shape20-61" transform="translate(137.48,-306.386)">
				<title>工作表.20</title>
				<desc>故</desc>
				<rect x="0" y="363.911" width="19.8425" height="19.8425" class="st1"/>
				<text x="4" y="378.82" class="st2">故</text>			</g>
			<g id="shape27-64" transform="translate(480.132,77.3681) rotate(90)">
				<title>工作表.27</title>
				<path d="M0 383.75 L33.66 383.75" class="st6"/>
			</g>
			<g id="shape28-67" transform="translate(480.132,280.4) rotate(90)">
				<title>工作表.28</title>
				<path d="M0 383.75 L33.66 383.75" class="st6"/>
			</g>
			<g id="shape30-70" transform="translate(86.4567,-98.0394)">
				<title>工作表.30</title>
				<desc>中道說法、生滅依緣</desc>
				<rect x="0" y="197.83" width="19.8425" height="185.924" class="st1"/>
				<text x="9.92" y="202.79" writing-mode="tb-rl" class="st7">（中道說法、生滅依緣）</text>			</g>
			<g id="shape31-73" transform="translate(86.4567,-46.6614)">
				<title>工作表.31</title>
				<desc>俗</desc>
				<rect x="0" y="357.091" width="19.8425" height="26.663" class="st1"/>
				<text x="9.92" y="362.42" writing-mode="tb-rl" class="st7">俗</text>			</g>
		</g>
	</g>
</svg>
