<?xml version="1.0" encoding="UTF-8" standalone="no"?>
<!DOCTYPE svg PUBLIC "-//W3C//DTD SVG 1.1//EN" "http://www.w3.org/Graphics/SVG/1.1/DTD/svg11.dtd">
<!-- 由 Microsoft Visio, SVG Export 產生 y11.0025.svg 頁-1 -->
<svg xmlns="http://www.w3.org/2000/svg" xmlns:xlink="http://www.w3.org/1999/xlink" xmlns:ev="http://www.w3.org/2001/xml-events"
		width="2.61019in" height="5.30561in" viewBox="0 0 187.934 382.004" xml:space="preserve" color-interpolation-filters="sRGB"
		class="st10">
	

	<style type="text/css">
	<![CDATA[
		.st1 {fill:none;stroke:none;stroke-linecap:round;stroke-linejoin:round;stroke-width:0.5}
		.st2 {fill:#000000;font-family:新細明體;font-size:1.33333em}
		.st3 {fill:#000000;font-family:新細明體;font-size:1.33333em;font-weight:bold}
		.st4 {font-family:標楷體;font-size:1em;font-weight:normal}
		.st5 {font-size:1em;font-weight:normal}
		.st6 {stroke:#000000;stroke-linecap:round;stroke-linejoin:round;stroke-width:0.5}
		.st7 {marker-end:url(#mrkr13-32);stroke:#000000;stroke-linecap:round;stroke-linejoin:round;stroke-width:0.5}
		.st8 {fill:#000000;fill-opacity:1;stroke:#000000;stroke-opacity:1;stroke-width:0.16556291390728}
		.st9 {fill:#000000;stroke:none;stroke-linecap:butt;stroke-width:0.940729}
		.st10 {fill:none;fill-rule:evenodd;font-size:12px;overflow:visible;stroke-linecap:square;stroke-miterlimit:3}
	]]>
	</style>

	<defs id="Markers">
		<g id="lend13">
			<path d="M 3 1 L 0 0 L 3 -1 L 3 1 " style="stroke:none"/>
		</g>
		<marker id="mrkr13-32" class="st8" refX="-18.12" orient="auto" markerUnits="strokeWidth" overflow="visible">
			<use xlink:href="#lend13" transform="scale(-6.04,-6.04) "/>
		</marker>
	</defs>
	<g>
		<title>頁-1</title>
		<g id="group47-1" transform="translate(0.25,-0.25)">
			<title>工作表.47</title>
			<g id="shape2-2" transform="translate(102.843,-66.626)">
				<title>工作表.2</title>
				<desc>假名故有</desc>
				<rect x="0" y="359.327" width="75.2913" height="22.6772" class="st1"/>
				<text x="5.65" y="375.47" class="st2">假名故有</text>			</g>
			<g id="shape3-5" transform="translate(162.197,-340.157)">
				<title>工作表.3</title>
				<desc>解脫</desc>
				<rect x="0" y="340.657" width="22.6772" height="41.3465" class="st1"/>
				<text x="11.34" y="345.63" writing-mode="tb-rl" class="st3">解脫</text>			</g>
			<g id="shape4-8">
				<title>工作表.4</title>
				<desc>流轉</desc>
				<rect x="0" y="340.657" width="22.6772" height="41.3465" class="st1"/>
				<text x="11.34" y="345.63" writing-mode="tb-rl" class="st3">流轉</text>			</g>
			<g id="shape5-11" transform="translate(86.4567,-51.0236)">
				<title>工作表.5</title>
				<desc>世　　中道說法、生滅依緣　　俗</desc>
				<rect x="0" y="99.7126" width="22.6772" height="282.291" class="st1"/>
				<text x="11.34" y="105.16" writing-mode="tb-rl" class="st3">世<tspan class="st4">　　</tspan><tspan class="st5">（</tspan><tspan
							class="st5">中道說法</tspan><tspan class="st5">、</tspan><tspan class="st5">生滅依緣</tspan><tspan class="st5">）</tspan><tspan
							class="st4">　　</tspan>俗</text>			</g>
			<g id="shape6-21" transform="translate(88.6693,444.866) rotate(180)">
				<title>工作表.6</title>
				<path d="M0 382 L76.54 382" class="st6"/>
			</g>
			<g id="shape7-24" transform="translate(-369.87,343.492) rotate(-90)">
				<title>工作表.7</title>
				<path d="M0 382 L280.63 382" class="st6"/>
			</g>
			<g id="shape8-27" transform="translate(197.192,687.08) rotate(163.496)">
				<title>工作表.8</title>
				<path d="M0 382 L70.76 382" class="st7"/>
			</g>
			<g id="shape9-33" transform="translate(105.677,-61.189)">
				<title>工作表.9</title>
				<path d="M0 382 L72.46 382" class="st6"/>
			</g>
			<g id="shape10-36" transform="translate(-203.87,320.815) rotate(-90)">
				<title>工作表.10</title>
				<path d="M0 382 L279.8 382" class="st6"/>
			</g>
			<g id="shape11-39" transform="translate(-4.5976,-302.879) rotate(-16.7786)">
				<title>工作表.11</title>
				<path d="M0 382 L66.62 382" class="st7"/>
			</g>
			<g id="shape1-44" transform="translate(11.3386,-293.398)">
				<title>工作表.1</title>
				<desc>假名故空</desc>
				<rect x="0" y="359.327" width="75.2913" height="22.6772" class="st1"/>
				<text x="5.65" y="375.47" class="st2">假名故空</text>			</g>
			<g id="shape23-47" transform="translate(13.5512,-46.8996)">
				<title>工作表.23</title>
				<desc>真</desc>
				<rect x="0" y="359.327" width="22.6772" height="22.6772" class="st1"/>
				<text x="4" y="375.47" class="st2">真</text>			</g>
			<g id="shape24-50" transform="translate(28.9685,-52.8012)">
				<title>工作表.24</title>
				<desc>實</desc>
				<rect x="0" y="359.327" width="22.6772" height="22.6772" class="st1"/>
				<text x="4" y="375.47" class="st2">實</text>			</g>
			<g id="shape25-53" transform="translate(62.9843,-64.1398)">
				<title>工作表.25</title>
				<desc>有</desc>
				<rect x="0" y="359.327" width="22.6772" height="22.6772" class="st1"/>
				<text x="4" y="375.47" class="st2">有</text>			</g>
			<g id="shape26-56" transform="translate(45.9764,-58.4705)">
				<title>工作表.26</title>
				<desc>故</desc>
				<rect x="0" y="359.327" width="22.6772" height="22.6772" class="st1"/>
				<text x="4" y="375.47" class="st2">故</text>			</g>
			<g id="shape17-59" transform="translate(105.504,-293.398)">
				<title>工作表.17</title>
				<desc>真</desc>
				<rect x="0" y="359.327" width="22.6772" height="22.6772" class="st1"/>
				<text x="4" y="375.47" class="st2">真</text>			</g>
			<g id="shape18-62" transform="translate(121.268,-299.299)">
				<title>工作表.18</title>
				<desc>實</desc>
				<rect x="0" y="359.327" width="22.6772" height="22.6772" class="st1"/>
				<text x="4" y="375.47" class="st2">實</text>			</g>
			<g id="shape19-65" transform="translate(154.488,-310.638)">
				<title>工作表.19</title>
				<desc>空</desc>
				<rect x="0" y="359.327" width="22.6772" height="22.6772" class="st1"/>
				<text x="4" y="375.47" class="st2">空</text>			</g>
			<g id="shape20-68" transform="translate(137.48,-304.969)">
				<title>工作表.20</title>
				<desc>故</desc>
				<rect x="0" y="359.327" width="22.6772" height="22.6772" class="st1"/>
				<text x="4" y="375.47" class="st2">故</text>			</g>
			<g id="group40-71" transform="translate(479.094,72.5473) rotate(90)">
				<title>XMLID_2_.40</title>
				<g id="shape41-72">
					<title>XMLID_3_</title>
					<path d="M1.01 380.59 C1.29 380.59 1.58 380.69 1.72 380.78 C2.01 380.88 2.01 381.06 2.01 381.35 C2.01 381.53
								 1.87 381.72 1.72 381.82 C1.58 381.91 1.29 382 1.01 382 C0.72 382 0.43 381.91 0.29 381.82 C0.14 381.72
								 0 381.53 0 381.35 C0 381.16 0.14 380.97 0.29 380.78 C0.43 380.59 0.57 380.59 1.01 380.59 ZM6.47
								 380.59 C6.76 380.59 7.04 380.69 7.19 380.78 C7.33 380.88 7.47 381.06 7.47 381.35 C7.47 381.53 7.33
								 381.72 7.19 381.82 C7.04 381.91 6.76 382 6.47 382 C6.18 382 5.89 381.91 5.61 381.82 C5.46 381.72
								 5.32 381.53 5.32 381.35 C5.32 381.16 5.46 380.97 5.61 380.78 C5.89 380.69 6.18 380.59 6.47 380.59
								 ZM12.36 380.59 C12.65 380.59 12.94 380.69 13.08 380.78 C13.22 380.88 13.37 381.06 13.37 381.35 C13.37
								 381.53 13.22 381.72 13.08 381.82 C12.94 381.91 12.65 382 12.36 382 C12.07 382 11.79 381.91 11.64
								 381.82 C11.5 381.72 11.35 381.53 11.35 381.35 C11.35 381.16 11.5 380.97 11.64 380.78 C11.79 380.69
								 12.07 380.59 12.36 380.59 Z" class="st9"/>
				</g>
				<g id="shape42-74" transform="translate(17.2474,1.13687E-13)">
					<title>XMLID_7_</title>
					<path d="M1.01 380.59 C1.29 380.59 1.58 380.69 1.72 380.78 C2.01 380.88 2.01 381.06 2.01 381.35 C2.01 381.53
								 1.87 381.72 1.72 381.82 C1.58 381.91 1.29 382 1.01 382 C0.72 382 0.43 381.91 0.29 381.82 C0.14 381.72
								 0 381.53 0 381.35 C0 381.16 0.14 380.97 0.29 380.78 C0.43 380.59 0.57 380.59 1.01 380.59 ZM6.47
								 380.59 C6.76 380.59 7.04 380.69 7.19 380.78 C7.33 380.88 7.47 381.06 7.47 381.35 C7.47 381.53 7.33
								 381.72 7.19 381.82 C7.04 381.91 6.76 382 6.47 382 C6.18 382 5.89 381.91 5.61 381.82 C5.46 381.72
								 5.32 381.53 5.32 381.35 C5.32 381.16 5.46 380.97 5.61 380.78 C5.89 380.69 6.18 380.59 6.47 380.59
								 ZM12.36 380.59 C12.65 380.59 12.94 380.69 13.08 380.78 C13.22 380.88 13.37 381.06 13.37 381.35 C13.37
								 381.53 13.22 381.72 13.08 381.82 C12.94 381.91 12.65 382 12.36 382 C12.07 382 11.79 381.91 11.64
								 381.82 C11.5 381.72 11.35 381.53 11.35 381.35 C11.35 381.16 11.5 380.97 11.64 380.78 C11.79 380.69
								 12.07 380.59 12.36 380.59 Z" class="st9"/>
				</g>
			</g>
			<g id="group43-76" transform="translate(479.799,271.563) rotate(90)">
				<title>XMLID_2_.43</title>
				<g id="shape44-77">
					<title>XMLID_3_</title>
					<path d="M1.01 380.59 C1.29 380.59 1.58 380.69 1.72 380.78 C2.01 380.88 2.01 381.06 2.01 381.35 C2.01 381.53
								 1.87 381.72 1.72 381.82 C1.58 381.91 1.29 382 1.01 382 C0.72 382 0.43 381.91 0.29 381.82 C0.14 381.72
								 0 381.53 0 381.35 C0 381.16 0.14 380.97 0.29 380.78 C0.43 380.59 0.57 380.59 1.01 380.59 ZM6.47
								 380.59 C6.76 380.59 7.04 380.69 7.19 380.78 C7.33 380.88 7.47 381.06 7.47 381.35 C7.47 381.53 7.33
								 381.72 7.19 381.82 C7.04 381.91 6.76 382 6.47 382 C6.18 382 5.89 381.91 5.61 381.82 C5.46 381.72
								 5.32 381.53 5.32 381.35 C5.32 381.16 5.46 380.97 5.61 380.78 C5.89 380.69 6.18 380.59 6.47 380.59
								 ZM12.36 380.59 C12.65 380.59 12.94 380.69 13.08 380.78 C13.22 380.88 13.37 381.06 13.37 381.35 C13.37
								 381.53 13.22 381.72 13.08 381.82 C12.94 381.91 12.65 382 12.36 382 C12.07 382 11.79 381.91 11.64
								 381.82 C11.5 381.72 11.35 381.53 11.35 381.35 C11.35 381.16 11.5 380.97 11.64 380.78 C11.79 380.69
								 12.07 380.59 12.36 380.59 Z" class="st9"/>
				</g>
				<g id="shape45-79" transform="translate(17.2474,1.13687E-13)">
					<title>XMLID_7_</title>
					<path d="M1.01 380.59 C1.29 380.59 1.58 380.69 1.72 380.78 C2.01 380.88 2.01 381.06 2.01 381.35 C2.01 381.53
								 1.87 381.72 1.72 381.82 C1.58 381.91 1.29 382 1.01 382 C0.72 382 0.43 381.91 0.29 381.82 C0.14 381.72
								 0 381.53 0 381.35 C0 381.16 0.14 380.97 0.29 380.78 C0.43 380.59 0.57 380.59 1.01 380.59 ZM6.47
								 380.59 C6.76 380.59 7.04 380.69 7.19 380.78 C7.33 380.88 7.47 381.06 7.47 381.35 C7.47 381.53 7.33
								 381.72 7.19 381.82 C7.04 381.91 6.76 382 6.47 382 C6.18 382 5.89 381.91 5.61 381.82 C5.46 381.72
								 5.32 381.53 5.32 381.35 C5.32 381.16 5.46 380.97 5.61 380.78 C5.89 380.69 6.18 380.59 6.47 380.59
								 ZM12.36 380.59 C12.65 380.59 12.94 380.69 13.08 380.78 C13.22 380.88 13.37 381.06 13.37 381.35 C13.37
								 381.53 13.22 381.72 13.08 381.82 C12.94 381.91 12.65 382 12.36 382 C12.07 382 11.79 381.91 11.64
								 381.82 C11.5 381.72 11.35 381.53 11.35 381.35 C11.35 381.16 11.5 380.97 11.64 380.78 C11.79 380.69
								 12.07 380.59 12.36 380.59 Z" class="st9"/>
				</g>
			</g>
		</g>
	</g>
</svg>
