<?xml version="1.0" encoding="UTF-8" standalone="no"?>
<!DOCTYPE svg PUBLIC "-//W3C//DTD SVG 1.1//EN" "http://www.w3.org/Graphics/SVG/1.1/DTD/svg11.dtd">
<!-- 由 Microsoft Visio, SVG Export 產生 y11.0100.svg 頁-1 -->
<svg xmlns="http://www.w3.org/2000/svg" xmlns:xlink="http://www.w3.org/1999/xlink" xmlns:ev="http://www.w3.org/2001/xml-events"
		width="6.4691in" height="1.46669in" viewBox="0 0 465.775 105.602" xml:space="preserve" color-interpolation-filters="sRGB"
		class="st5">
	

	<style type="text/css">
	<![CDATA[
		.st1 {stroke:#000000;stroke-linecap:round;stroke-linejoin:round;stroke-width:0.72}
		.st2 {fill:none;stroke:none;stroke-linecap:round;stroke-linejoin:round;stroke-width:0.72}
		.st3 {fill:#000000;font-family:新細明體;font-size:1.33333em}
		.st4 {font-family:Times New Roman;font-size:1em}
		.st5 {fill:none;fill-rule:evenodd;font-size:12px;overflow:visible;stroke-linecap:square;stroke-miterlimit:3}
	]]>
	</style>

	<g>
		<title>頁-1</title>
		<g id="group18-1" transform="translate(0.36,-0.36)">
			<title>工作表.18</title>
			<g id="shape10-2" transform="translate(245.525,-48.4246) rotate(26.5095)">
				<title>工作表.10</title>
				<path d="M0 105.6 L47.24 105.6" class="st1"/>
			</g>
			<g id="shape11-5" transform="translate(288.11,119.158) rotate(153.303)">
				<title>工作表.11</title>
				<path d="M0 105.6 L47.32 105.6" class="st1"/>
			</g>
			<g id="shape12-8" transform="translate(356.664,142.886) rotate(-169.695)">
				<title>工作表.12</title>
				<path d="M0 105.6 L79.23 105.6" class="st1"/>
			</g>
			<g id="shape13-11" transform="translate(394.446,114.54) rotate(169.695)">
				<title>工作表.13</title>
				<path d="M0 105.6 L79.23 105.6" class="st1"/>
			</g>
			<g id="shape15-14" transform="translate(181.855,136.627) rotate(149.036)">
				<title>工作表.15</title>
				<path d="M0 105.6 L49.59 105.6" class="st1"/>
			</g>
			<g id="shape16-17" transform="translate(137.067,-20.2898) rotate(29.5388)">
				<title>工作表.16</title>
				<path d="M0 105.6 L48.87 105.6" class="st1"/>
			</g>
			<g id="shape1-20" transform="translate(-1.59872E-14,-24.8248)">
				<title>工作表.1</title>
				<desc>一味之佛教</desc>
				<rect x="0" y="85.7594" width="88.0472" height="19.8425" class="st2"/>
				<text x="4.02" y="100.66" class="st3">一味之佛教</text>			</g>
			<g id="shape2-23" transform="translate(126.142,-49.6496)">
				<title>工作表.2</title>
				<desc>聖上座部</desc>
				<rect x="0" y="85.7594" width="75.2913" height="19.8425" class="st2"/>
				<text x="5.65" y="100.66" class="st3">聖上座部</text>			</g>
			<g id="shape3-26" transform="translate(127.126,-2.84217E-14)">
				<title>工作表.3</title>
				<desc>聖大眾部———大眾系—————</desc>
				<rect x="0" y="85.7594" width="250.244" height="19.8425" class="st2"/>
				<text x="5.12" y="100.66" class="st3">聖大眾部<tspan class="st4">———</tspan>大眾系<tspan class="st4">—————</tspan></text>			</g>
			<g id="shape4-31" transform="translate(240.335,-28.3465)">
				<title>工作表.4</title>
				<desc>上座分別說系——</desc>
				<rect x="0" y="85.7594" width="137.213" height="19.8425" class="st2"/>
				<text x="4.61" y="100.66" class="st3">上座分別說系<tspan class="st4">——</tspan></text>			</g>
			<g id="shape5-35" transform="translate(242.118,-70.9528)">
				<title>工作表.5</title>
				<desc>上座系</desc>
				<rect x="0" y="85.7594" width="56.8661" height="19.8425" class="st2"/>
				<text x="4.43" y="100.66" class="st3">上座系</text>			</g>
			<g id="shape6-38" transform="translate(375.591,-56.6929)">
				<title>工作表.6</title>
				<desc>說一切有部</desc>
				<rect x="0" y="85.7594" width="89.4646" height="19.8425" class="st2"/>
				<text x="0.25em 1.273em 2.296em 3.319em 4.342em" y="100.66" class="st3">說一切有部</text>			</g>
			<g id="shape7-41" transform="translate(375.591,-28.3465)">
				<title>工作表.7</title>
				<desc>分別說部</desc>
				<rect x="0" y="85.7594" width="89.4646" height="19.8425" class="st2"/>
				<text x="0.25em 1.614em 2.978em 4.342em" y="100.66" class="st3">分別說部</text>			</g>
			<g id="shape8-44" transform="translate(375.591,-6.11067E-13)">
				<title>工作表.8</title>
				<desc>大眾部</desc>
				<rect x="0" y="85.7594" width="89.4646" height="19.8425" class="st2"/>
				<text x="0.25em 2.296em 4.342em" y="100.66" class="st3">大眾部</text>			</g>
			<g id="shape9-47" transform="translate(375.591,-85.0394)">
				<title>工作表.9</title>
				<desc>犢子部</desc>
				<rect x="0" y="85.7594" width="89.4646" height="19.8425" class="st2"/>
				<text x="0.25em 2.296em 4.342em" y="100.66" class="st3">犢子部</text>			</g>
		</g>
	</g>
</svg>
