<?xml version="1.0" encoding="UTF-8" standalone="no"?>
<!DOCTYPE svg PUBLIC "-//W3C//DTD SVG 1.0//EN" "http://www.w3.org/TR/2001/REC-SVG-20010904/DTD/svg10.dtd">
<!-- 由 Microsoft Visio 11.0, SVG Export, v1.0 產生 y36.0441-h.svg Page-1 -->
<svg xmlns="http://www.w3.org/2000/svg" xmlns:xlink="http://www.w3.org/1999/xlink" xmlns:ev="http://www.w3.org/2001/xml-events"
		xmlns:v="http://schemas.microsoft.com/visio/2003/SVGExtensions/" width="9.44195in" height="5.39845in"
		viewBox="0 0 679.82 388.688" xml:space="preserve" color-interpolation-filters="sRGB" class="st5">
	<v:documentProperties v:langID="1028" v:metric="true" v:viewMarkup="false">
		<v:userDefs>
			<v:ud v:nameU="msvSubprocessMaster" v:prompt="" v:val="VT4(Box)"/>
			<v:ud v:nameU="msvNoAutoConnect" v:val="VT0(1):26"/>
		</v:userDefs>
	</v:documentProperties>

	<style type="text/css">
	<![CDATA[
		.st1 {fill:none;stroke:#000000;stroke-linecap:round;stroke-linejoin:round;stroke-opacity:0;stroke-width:1}
		.st2 {fill:#000000;font-family:新細明體;font-size:1.33333em}
		.st3 {stroke:#000000;stroke-linecap:round;stroke-linejoin:round;stroke-width:1}
		.st4 {stroke:#000000;stroke-dasharray:3,3;stroke-linecap:round;stroke-linejoin:round;stroke-width:1}
		.st5 {fill:none;fill-rule:evenodd;font-size:12px;overflow:visible;stroke-linecap:square;stroke-miterlimit:3}
	]]>
	</style>

	<g v:mID="0" v:index="1" v:groupContext="foregroundPage">
		<title>頁-1</title>
		<v:pageProperties v:drawingScale="0.0393701" v:pageScale="0.0393701" v:drawingUnits="24" v:shadowOffsetX="8.50394"
				v:shadowOffsetY="-8.50394"/>
		<g id="group42-1" transform="translate(18.2913,-19)" v:mID="42" v:groupContext="group">
			<title>工作表.42</title>
			<g id="shape1-2" v:mID="1" v:groupContext="shape" transform="translate(141.732,-240.945)">
				<title>工作表.1</title>
				<desc>無間</desc>
				<v:textBlock v:margins="rect(4,4,4,4)" v:tabSpace="42.5197"/>
				<v:textRect cx="22.6772" cy="366.011" width="45.36" height="45.3543"/>
				<rect x="0" y="343.334" width="45.3543" height="45.3543" class="st1"/>
				<text x="6.68" y="370.81" class="st2" v:langID="1028"><v:paragraph v:horizAlign="1"/><v:tabList/>無間</text>			</g>
			<g id="shape3-5" v:mID="3" v:groupContext="shape" transform="translate(293.943,679.002) rotate(-143.634)">
				<title>工作表.3</title>
				<path d="M0 388.69 L527.9 388.69" class="st3"/>
			</g>
			<g id="shape5-8" v:mID="5" v:groupContext="shape" transform="translate(-343.267,81.9955) rotate(-72.9545)">
				<title>工作表.5</title>
				<path d="M0 388.69 L148.24 388.69" class="st3"/>
			</g>
			<g id="shape2-11" v:mID="2" v:groupContext="shape" transform="translate(0.708661,-180.709)">
				<title>工作表.2</title>
				<desc>依</desc>
				<v:textBlock v:margins="rect(4,4,4,4)" v:tabSpace="42.5197"/>
				<v:textRect cx="12.5291" cy="375.45" width="25.06" height="26.4756"/>
				<rect x="0" y="362.213" width="25.0583" height="26.4756" class="st1"/>
				<text x="4.53" y="380.25" class="st2" v:langID="1028"><v:paragraph v:horizAlign="1"/><v:tabList/>依</text>			</g>
			<g id="shape6-14" v:mID="6" v:groupContext="shape" transform="translate(72.5102,-321.25)">
				<title>工作表.6</title>
				<desc>因</desc>
				<v:textBlock v:margins="rect(4,4,4,4)" v:tabSpace="42.5197"/>
				<v:textRect cx="12.5291" cy="375.45" width="25.06" height="26.4756"/>
				<rect x="0" y="362.213" width="25.0583" height="26.4756" class="st1"/>
				<text x="4.53" y="380.25" class="st2" v:langID="1028"><v:paragraph v:horizAlign="1"/><v:tabList/>因</text>			</g>
			<g id="shape7-17" v:mID="7" v:groupContext="shape" transform="translate(453.671,-318.288)">
				<title>工作表.7</title>
				<desc>業</desc>
				<v:textBlock v:margins="rect(4,4,4,4)" v:tabSpace="42.5197"/>
				<v:textRect cx="16.8803" cy="372.488" width="33.77" height="32.4"/>
				<rect x="0" y="356.288" width="33.7606" height="32.4" class="st1"/>
				<text x="8.88" y="377.29" class="st2" v:langID="1028"><v:paragraph v:horizAlign="1"/><v:tabList/>業</text>			</g>
			<g id="shape8-20" v:mID="8" v:groupContext="shape" transform="translate(525.345,-247.55)">
				<title>工作表.8</title>
				<desc>報</desc>
				<v:textBlock v:margins="rect(4,4,4,4)" v:tabSpace="42.5197"/>
				<v:textRect cx="16.8803" cy="372.488" width="33.77" height="32.4"/>
				<rect x="0" y="356.288" width="33.7606" height="32.4" class="st1"/>
				<text x="8.88" y="377.29" class="st2" v:langID="1028"><v:paragraph v:horizAlign="1"/><v:tabList/>報</text>			</g>
			<g id="shape9-23" v:mID="9" v:groupContext="shape" transform="translate(522.51,-190.857)">
				<title>工作表.9</title>
				<desc>起</desc>
				<v:textBlock v:margins="rect(4,4,4,4)" v:tabSpace="42.5197"/>
				<v:textRect cx="16.8803" cy="372.488" width="33.77" height="32.4"/>
				<rect x="0" y="356.288" width="33.7606" height="32.4" class="st1"/>
				<text x="8.88" y="377.29" class="st2" v:langID="1028"><v:paragraph v:horizAlign="1"/><v:tabList/>起</text>			</g>
			<g id="shape10-26" v:mID="10" v:groupContext="shape" transform="translate(608.769,-63.2976)">
				<title>工作表.10</title>
				<desc>異</desc>
				<v:textBlock v:margins="rect(4,4,4,4)" v:tabSpace="42.5197"/>
				<v:textRect cx="16.8803" cy="372.488" width="33.77" height="32.4"/>
				<rect x="0" y="356.288" width="33.7606" height="32.4" class="st1"/>
				<text x="8.88" y="377.29" class="st2" v:langID="1028"><v:paragraph v:horizAlign="1"/><v:tabList/>異</text>			</g>
			<g id="shape11-29" v:mID="11" v:groupContext="shape" transform="translate(226.772,-99.2126)">
				<title>工作表.11</title>
				<desc>境界</desc>
				<v:textBlock v:margins="rect(4,4,4,4)" v:tabSpace="42.5197"/>
				<v:textRect cx="22.6772" cy="366.011" width="45.36" height="45.3543"/>
				<rect x="0" y="343.334" width="45.3543" height="45.3543" class="st1"/>
				<text x="6.68" y="370.81" class="st2" v:langID="1028"><v:paragraph v:horizAlign="1"/><v:tabList/>境界</text>			</g>
			<g id="shape12-32" v:mID="12" v:groupContext="shape" transform="translate(354.331,-14.1732)">
				<title>工作表.12</title>
				<desc>增上</desc>
				<v:textBlock v:margins="rect(4,4,4,4)" v:tabSpace="42.5197"/>
				<v:textRect cx="22.6772" cy="366.011" width="45.36" height="45.3543"/>
				<rect x="0" y="343.334" width="45.3543" height="45.3543" class="st1"/>
				<text x="6.68" y="370.81" class="st2" v:langID="1028"><v:paragraph v:horizAlign="1"/><v:tabList/>增上</text>			</g>
			<g id="shape13-35" v:mID="13" v:groupContext="shape" transform="translate(524.409,-5.68434E-014)">
				<title>工作表.13</title>
				<desc>相續</desc>
				<v:textBlock v:margins="rect(4,4,4,4)" v:tabSpace="42.5197"/>
				<v:textRect cx="22.6772" cy="366.011" width="45.36" height="45.3543"/>
				<rect x="0" y="343.334" width="45.3543" height="45.3543" class="st1"/>
				<text x="6.68" y="370.81" class="st2" v:langID="1028"><v:paragraph v:horizAlign="1"/><v:tabList/>相續</text>			</g>
			<g id="shape14-38" v:mID="14" v:groupContext="shape" transform="translate(-175.874,-134.901) rotate(-31.7037)">
				<title>工作表.14</title>
				<path d="M0 388.69 L133.22 388.69" class="st3"/>
			</g>
			<g id="shape15-41" v:mID="15" v:groupContext="shape" transform="translate(429.629,-148.985) rotate(58.4834)">
				<title>工作表.15</title>
				<path d="M0 388.69 L83.13 388.69" class="st4"/>
			</g>
			<g id="shape18-44" v:mID="18" v:groupContext="shape" transform="translate(161.171,-170.193) rotate(19.8673)">
				<title>工作表.18</title>
				<path d="M0 388.69 L210.2 388.69" class="st3"/>
			</g>
			<g id="shape19-47" v:mID="19" v:groupContext="shape" transform="translate(556.548,13.3774) rotate(73.3008)">
				<title>工作表.19</title>
				<path d="M0 388.69 L147.97 388.69" class="st4"/>
			</g>
			<g id="shape20-50" v:mID="20" v:groupContext="shape" transform="translate(185.024,-324.684) rotate(12.8958)">
				<title>工作表.20</title>
				<path d="M0 388.69 L145.91 388.69" class="st4"/>
			</g>
			<g id="shape21-53" v:mID="21" v:groupContext="shape" transform="translate(628.055,117.993) rotate(94.3987)">
				<title>工作表.21</title>
				<path d="M0 388.69 L179.14 388.69" class="st4"/>
			</g>
			<g id="shape4-56" v:mID="4" v:groupContext="shape" transform="translate(435.877,657.099) rotate(-153.477)">
				<title>工作表.4</title>
				<path d="M0 388.69 L571.3 388.69" class="st3"/>
			</g>
			<g id="shape22-59" v:mID="22" v:groupContext="shape" transform="translate(462.963,507.019) rotate(-170.663)">
				<title>工作表.22</title>
				<path d="M0 388.69 L431.87 388.69" class="st3"/>
			</g>
			<g id="shape23-62" v:mID="23" v:groupContext="shape" transform="translate(411.142,553.947) rotate(-163.245)">
				<title>工作表.23</title>
				<path d="M0 388.69 L442.49 388.69" class="st3"/>
			</g>
			<g id="shape24-65" v:mID="24" v:groupContext="shape" transform="translate(455.024,442.888) rotate(179.901)">
				<title>工作表.24</title>
				<path d="M0 388.69 L355.7 388.69" class="st3"/>
			</g>
			<g id="shape25-68" v:mID="25" v:groupContext="shape" transform="translate(552.185,430.163) rotate(165.299)">
				<title>工作表.25</title>
				<path d="M0 388.69 L279.24 388.69" class="st4"/>
			</g>
			<g id="shape26-71" v:mID="26" v:groupContext="shape" transform="translate(527.637,512.334) rotate(179.762)">
				<title>工作表.26</title>
				<path d="M0 388.69 L341.78 388.69" class="st4"/>
			</g>
			<g id="shape16-74" v:mID="16" v:groupContext="shape" transform="translate(186.084,702.225) rotate(-154.351)">
				<title>工作表.16</title>
				<path d="M0 388.69 L361.11 388.69" class="st3"/>
			</g>
			<g id="shape17-77" v:mID="17" v:groupContext="shape" transform="translate(544.135,-8.04563) rotate(45)">
				<title>工作表.17</title>
				<path d="M0 388.69 L120.26 388.69" class="st4"/>
			</g>
			<g id="shape27-80" v:mID="27" v:groupContext="shape" transform="translate(410.511,-94.4601) rotate(21.0804)">
				<title>工作表.27</title>
				<path d="M0 388.69 L271.9 388.69" class="st4"/>
			</g>
			<g id="shape28-83" v:mID="28" v:groupContext="shape" transform="translate(317.528,-117.642) rotate(6.91839)">
				<title>工作表.28</title>
				<path d="M0 388.69 L341.22 388.69" class="st4"/>
			</g>
			<g id="shape29-86" v:mID="29" v:groupContext="shape" transform="translate(146.907,-100.703) rotate(-18.5178)">
				<title>工作表.29</title>
				<path d="M0 388.69 L266.64 388.69" class="st4"/>
			</g>
			<g id="shape30-89" v:mID="30" v:groupContext="shape" transform="translate(77.8816,-70.382) rotate(-29.6219)">
				<title>工作表.30</title>
				<path d="M0 388.69 L291.02 388.69" class="st4"/>
			</g>
			<g id="shape31-92" v:mID="31" v:groupContext="shape" transform="translate(-25.6905,15.9964) rotate(-49.61)">
				<title>工作表.31</title>
				<path d="M0 388.69 L280.52 388.69" class="st4"/>
			</g>
			<g id="shape32-95" v:mID="32" v:groupContext="shape" transform="translate(14.5086,281.886) rotate(-79.632)">
				<title>工作表.32</title>
				<path d="M0 388.69 L301.32 388.69" class="st4"/>
			</g>
			<g id="shape33-98" v:mID="33" v:groupContext="shape" transform="translate(57.5774,162.174) rotate(-60.7935)">
				<title>工作表.33</title>
				<path d="M0 388.69 L261.41 388.69" class="st4"/>
			</g>
			<g id="shape34-101" v:mID="34" v:groupContext="shape" transform="translate(321.888,-30.2144) rotate(-11.1385)">
				<title>工作表.34</title>
				<path d="M0 388.69 L216.55 388.69" class="st4"/>
			</g>
			<g id="shape35-104" v:mID="35" v:groupContext="shape" transform="translate(138.37,417.068) rotate(-97.6354)">
				<title>工作表.35</title>
				<path d="M0 388.69 L314.01 388.69" class="st4"/>
			</g>
			<g id="shape36-107" v:mID="36" v:groupContext="shape" transform="translate(153.081,301.002) rotate(-107.874)">
				<title>工作表.36</title>
				<path d="M0 388.69 L133.97 388.69" class="st4"/>
			</g>
			<g id="shape37-110" v:mID="37" v:groupContext="shape" transform="translate(198.002,332.478) rotate(-122.498)">
				<title>工作表.37</title>
				<path d="M0 388.69 L81.63 388.69" class="st4"/>
			</g>
			<g id="shape38-113" v:mID="38" v:groupContext="shape" transform="translate(159.204,393.876) rotate(-102.565)">
				<title>工作表.38</title>
				<path d="M0 388.69 L259.43 388.69" class="st4"/>
			</g>
			<g id="shape39-116" v:mID="39" v:groupContext="shape" transform="translate(611.991,697.279) rotate(179.416)">
				<title>工作表.39</title>
				<path d="M0 388.69 L69.45 388.69" class="st4"/>
			</g>
			<g id="shape40-119" v:mID="40" v:groupContext="shape" transform="translate(251.181,462.145) rotate(-113.127)">
				<title>工作表.40</title>
				<path d="M0 388.69 L137.8 388.69" class="st4"/>
			</g>
			<g id="shape41-122" v:mID="41" v:groupContext="shape" transform="translate(596.108,-67.9474) rotate(66.5842)">
				<title>工作表.41</title>
				<path d="M0 388.69 L289.13 388.69" class="st4"/>
			</g>
		</g>
	</g>
</svg>
