<?xml version="1.0" encoding="UTF-8" standalone="no"?>
<!DOCTYPE svg PUBLIC "-//W3C//DTD SVG 1.1//EN" "http://www.w3.org/Graphics/SVG/1.1/DTD/svg11.dtd">
<!-- 由 Microsoft Visio, SVG Export 產生 y36.0676-h.svg 頁-1 -->
<svg xmlns="http://www.w3.org/2000/svg" xmlns:xlink="http://www.w3.org/1999/xlink" xmlns:ev="http://www.w3.org/2001/xml-events"
		width="6.29113in" height="2.11976in" viewBox="0 0 452.961 152.623" xml:space="preserve" color-interpolation-filters="sRGB"
		class="st5">
	<style type="text/css">
	<![CDATA[
		.st1 {fill:none;stroke:none;stroke-linecap:round;stroke-linejoin:round;stroke-width:0.75}
		.st2 {fill:#000000;font-family:新細明體;font-size:1.33333em}
		.st3 {stroke:#000000;stroke-linecap:round;stroke-linejoin:round;stroke-width:1}
		.st4 {stroke:#000000;stroke-dasharray:0,4.5;stroke-linecap:round;stroke-linejoin:round;stroke-width:1.5}
		.st5 {fill:none;fill-rule:evenodd;font-size:12px;overflow:visible;stroke-linecap:square;stroke-miterlimit:3}
	]]>
	</style>

	<g>
		<title>頁-1</title>
		<g id="group36-1" transform="translate(0.375,-0.375)">
			<title>工作表.36</title>
			<g id="shape4-2" transform="translate(173.051,-129.195)">
				<title>工作表.4</title>
				<desc>有我派</desc>
				<rect x="0" y="129.945" width="59.5605" height="22.6772" class="st1"/>
				<text x="5.78" y="146.08" class="st2">有我派</text>			</g>
			<g id="shape5-5" transform="translate(170.977,-58.3622)">
				<title>工作表.5</title>
				<desc>無我說</desc>
				<rect x="0" y="129.945" width="62.428" height="22.6772" class="st1"/>
				<text x="7.21" y="146.08" class="st2">無我說</text>			</g>
			<g id="shape6-8" transform="translate(238.414,-2.84217E-14)">
				<title>工作表.6</title>
				<desc>分別說部</desc>
				<rect x="0" y="129.945" width="76.0973" height="22.6772" class="st1"/>
				<text x="6.05" y="146.08" class="st2">分別說部</text>			</g>
			<g id="shape7-11" transform="translate(288.826,-129.195)">
				<title>工作表.7</title>
				<desc>犢子部等</desc>
				<rect x="0" y="129.945" width="77.7337" height="22.6772" class="st1"/>
				<text x="6.87" y="146.08" class="st2">犢子部等</text>			</g>
			<g id="shape8-14" transform="translate(251.827,-86.6758)">
				<title>工作表.8</title>
				<desc>阿毘達磨師</desc>
				<rect x="0" y="129.945" width="95.9069" height="22.6772" class="st1"/>
				<text x="7.95" y="146.08" class="st2">阿毘達磨師</text>			</g>
			<g id="shape9-17" transform="translate(252.604,-30.2184)">
				<title>工作表.9</title>
				<desc>持經譬喻師</desc>
				<rect x="0" y="129.945" width="95.9069" height="22.6772" class="st1"/>
				<text x="7.95" y="146.08" class="st2">持經譬喻師</text>			</g>
			<g id="shape10-20" transform="translate(368.413,-100.849)">
				<title>工作表.10</title>
				<desc>毘婆沙師</desc>
				<rect x="0" y="129.945" width="82.6943" height="22.6772" class="st1"/>
				<text x="9.35" y="146.08" class="st2">毘婆沙師</text>			</g>
			<g id="shape11-23" transform="translate(367.172,-72.5025)">
				<title>工作表.11</title>
				<desc>西方師等</desc>
				<rect x="0" y="129.945" width="85.0394" height="22.6772" class="st1"/>
				<text x="10.52" y="146.08" class="st2">西方師等</text>			</g>
			<g id="shape12-26" transform="translate(356.468,-15.8096)">
				<title>工作表.12</title>
				<desc>經部</desc>
				<rect x="0" y="129.945" width="45.6392" height="22.6772" class="st1"/>
				<text x="6.82" y="146.08" class="st2">經部</text>			</g>
			<g id="shape13-29" transform="translate(452.415,3.3807) rotate(45)">
				<title>工作表.13</title>
				<path d="M0 152.62 L20.04 152.62" class="st3"/>
			</g>
			<g id="shape14-32" transform="translate(92.6593,111.301) rotate(-90)">
				<title>工作表.14</title>
				<path d="M0 152.62 L56.69 152.62" class="st3"/>
			</g>
			<g id="shape16-35" transform="translate(145.429,-103.684)">
				<title>工作表.16</title>
				<path d="M0 152.62 L14.17 152.62" class="st3"/>
			</g>
			<g id="shape21-38" transform="translate(160.243,-140.534)">
				<title>工作表.21</title>
				<path d="M0 152.62 L14.17 152.62" class="st3"/>
			</g>
			<g id="shape22-41" transform="translate(160.243,-69.6679)">
				<title>工作表.22</title>
				<path d="M0 152.62 L14.17 152.62" class="st3"/>
			</g>
			<g id="shape1-44" transform="translate(2.79776E-14,-44.1561)">
				<title>工作表.1</title>
				<desc>上座部</desc>
				<rect x="0" y="129.945" width="59.5605" height="22.6772" class="st1"/>
				<text x="5.78" y="146.08" class="st2">上座部</text>			</g>
			<g id="shape2-47" transform="translate(86.7793,-93.2227)">
				<title>工作表.2</title>
				<desc>三世有</desc>
				<rect x="0" y="129.945" width="60.607" height="22.6772" class="st1"/>
				<text x="6.3" y="146.08" class="st2">三世有</text>			</g>
			<g id="shape3-50" transform="translate(86.6625,-0.944189)">
				<title>工作表.3</title>
				<desc>現在有</desc>
				<rect x="0" y="129.945" width="60.9778" height="22.6772" class="st1"/>
				<text x="6.49" y="146.08" class="st2">現在有</text>			</g>
			<g id="shape17-53" transform="translate(74.5631,-103.684)">
				<title>工作表.17</title>
				<path d="M0 152.62 L14.17 152.62" class="st3"/>
			</g>
			<g id="shape18-56" transform="translate(74.5631,-12.975)">
				<title>工作表.18</title>
				<path d="M0 152.62 L14.17 152.62" class="st3"/>
			</g>
			<g id="shape19-59" transform="translate(60.3899,-55.4947)">
				<title>工作表.19</title>
				<path d="M0 152.62 L14.17 152.62" class="st3"/>
			</g>
			<g id="shape20-62" transform="translate(-78.0595,139.648) rotate(-90)">
				<title>工作表.20</title>
				<path d="M0 152.62 L90.71 152.62" class="st3"/>
			</g>
			<g id="shape24-65" transform="translate(7.61992,82.9547) rotate(-90)">
				<title>工作表.24</title>
				<path d="M0 152.62 L70.87 152.62" class="st3"/>
			</g>
			<g id="shape25-68" transform="translate(245.282,-41.3214)">
				<title>工作表.25</title>
				<path d="M0 152.62 L14.17 152.62" class="st3"/>
			</g>
			<g id="shape26-71" transform="translate(245.282,-98.0143)">
				<title>工作表.26</title>
				<path d="M0 152.62 L14.17 152.62" class="st3"/>
			</g>
			<g id="shape27-74" transform="translate(231.109,-69.6679)">
				<title>工作表.27</title>
				<path d="M0 152.62 L14.17 152.62" class="st3"/>
			</g>
			<g id="shape28-77" transform="translate(312.742,-12.975)">
				<title>工作表.28</title>
				<path d="M0 152.62 L31.75 152.62" class="st3"/>
			</g>
			<g id="shape31-80" transform="translate(358.668,-112.896)">
				<title>工作表.31</title>
				<path d="M0 152.62 L14.17 152.62" class="st3"/>
			</g>
			<g id="shape32-83" transform="translate(344.495,-98.0143)">
				<title>工作表.32</title>
				<path d="M0 152.62 L14.17 152.62" class="st3"/>
			</g>
			<g id="shape33-86" transform="translate(358.668,-83.8411)">
				<title>工作表.33</title>
				<path d="M0 152.62 L14.17 152.62" class="st3"/>
			</g>
			<g id="shape34-89" transform="translate(206.799,72.5029) rotate(-91.3972)">
				<title>工作表.34</title>
				<path d="M0 152.62 L29.06 152.62" class="st3"/>
			</g>
			<g id="shape35-92" transform="translate(236.574,31.7272) rotate(-45)">
				<title>工作表.35</title>
				<path d="M0 152.62 L20.04 152.62" class="st3"/>
			</g>
			<g id="shape29-95" transform="translate(145.566,-12.975)">
				<title>工作表.29</title>
				<path d="M0 152.62 L94.62 152.62" class="st4"/>
			</g>
			<g id="shape30-98" transform="translate(233.943,-140.534)">
				<title>工作表.30</title>
				<path d="M0 152.62 L56.69 152.62" class="st4"/>
			</g>
		</g>
	</g>
</svg>
