<?xml version="1.0" encoding="UTF-8" standalone="no"?>
<!DOCTYPE svg PUBLIC "-//W3C//DTD SVG 1.0//EN" "http://www.w3.org/TR/2001/REC-SVG-20010904/DTD/svg10.dtd">
<!-- 由 Microsoft Visio 11.0, SVG Export, v1.0 產生 y36.0690.svg Page-1 -->
<svg xmlns="http://www.w3.org/2000/svg" xmlns:xlink="http://www.w3.org/1999/xlink" xmlns:ev="http://www.w3.org/2001/xml-events"
		xmlns:v="http://schemas.microsoft.com/visio/2003/SVGExtensions/" width="7.81124in" height="5.81979in"
		viewBox="0 0 562.409 419.025" xml:space="preserve" color-interpolation-filters="sRGB" class="st5">
	<v:documentProperties v:langID="1028" v:metric="true" v:viewMarkup="false">
		<v:userDefs>
			<v:ud v:nameU="msvSubprocessMaster" v:prompt="" v:val="VT4(Box)"/>
			<v:ud v:nameU="msvNoAutoConnect" v:val="VT0(1):26"/>
		</v:userDefs>
	</v:documentProperties>

	<style type="text/css">
	<![CDATA[
		.st1 {fill:none;stroke:none;stroke-linecap:round;stroke-linejoin:round;stroke-width:0.75}
		.st2 {fill:#000000;font-family:新細明體;font-size:1.33333em}
		.st3 {stroke:#000000;stroke-linecap:round;stroke-linejoin:round;stroke-width:1}
		.st4 {stroke:#ffffff;stroke-linecap:round;stroke-linejoin:round;stroke-opacity:0;stroke-width:1}
		.st5 {fill:none;fill-rule:evenodd;font-size:12px;overflow:visible;stroke-linecap:square;stroke-miterlimit:3}
	]]>
	</style>

	<g v:mID="0" v:index="1" v:groupContext="foregroundPage">
		<title>頁-1</title>
		<v:pageProperties v:drawingScale="0.0393701" v:pageScale="0.0393701" v:drawingUnits="24" v:shadowOffsetX="8.50394"
				v:shadowOffsetY="-8.50394"/>
		<g id="group28-1" transform="translate(124.385,401.025) rotate(-90)" v:mID="28" v:groupContext="group">
			<title>工作表.28</title>
			<g id="shape1-2" v:mID="1" v:groupContext="shape" transform="translate(587.155,-77.6425) rotate(90)">
				<title>工作表.1</title>
				<desc>遮異義</desc>
				<v:textBlock v:margins="rect(4,4,4,4)" v:tabSpace="42.5197"/>
				<v:textRect cx="31.214" cy="388.415" width="62.43" height="61.2193"/>
				<rect x="0" y="357.806" width="62.428" height="61.2193" class="st1"/>
				<text x="7.21" y="393.22" class="st2" v:langID="1028"><v:paragraph v:horizAlign="1"/><v:tabList/>遮異義</text>			</g>
			<g id="shape2-5" v:mID="2" v:groupContext="shape" transform="translate(504.412,-79.8728) rotate(90)">
				<title>工作表.2</title>
				<desc>立正義</desc>
				<v:textBlock v:margins="rect(4,4,4,4)" v:tabSpace="42.5197"/>
				<v:textRect cx="31.1811" cy="390.678" width="62.37" height="56.6929"/>
				<rect x="0" y="362.332" width="62.3622" height="56.6929" class="st1"/>
				<text x="7.18" y="395.48" class="st2" v:langID="1028"><v:paragraph v:horizAlign="1"/><v:tabList/>立正義</text>			</g>
			<g id="shape4-8" v:mID="4" v:groupContext="shape" transform="translate(561.072,5.13371) rotate(90)">
				<title>工作表.4</title>
				<desc>無表業</desc>
				<v:textBlock v:margins="rect(4,4,4,4)" v:tabSpace="42.5197"/>
				<v:textRect cx="31.214" cy="390.678" width="62.43" height="56.6929"/>
				<rect x="0" y="362.332" width="62.428" height="56.6929" class="st1"/>
				<text x="0.25em 1.451em 2.652em" y="395.48" class="st2" v:langID="1028"><v:paragraph v:horizAlign="4"/><v:tabList/>無表業</text>			</g>
			<g id="shape5-11" v:mID="5" v:groupContext="shape" transform="translate(581.171,92.6929) rotate(90)">
				<title>工作表.5</title>
				<desc>毘婆沙師「形色」說及其評難</desc>
				<v:textBlock v:margins="rect(4,4,4,4)" v:tabSpace="42.5197"/>
				<v:textRect cx="110.899" cy="309.045" width="221.8" height="219.959"/>
				<rect x="0" y="199.065" width="221.798" height="219.959" class="st1"/>
				<text x="6.9" y="313.85" class="st2" v:langID="1028"><v:paragraph v:horizAlign="1"/><v:tabList/>毘婆沙師「形色」說及其評難</text>			</g>
			<g id="shape6-14" v:mID="6" v:groupContext="shape" transform="translate(557.424,88.7887) rotate(90)">
				<title>工作表.6</title>
				<desc>正量部「行動」說及其評難</desc>
				<v:textBlock v:margins="rect(4,4,4,4)" v:tabSpace="42.5197"/>
				<v:textRect cx="106.299" cy="316.132" width="212.6" height="205.786"/>
				<rect x="0" y="213.239" width="212.598" height="205.786" class="st1"/>
				<text x="10.3" y="320.93" class="st2" v:langID="1028"><v:paragraph v:horizAlign="1"/><v:tabList/>正量部「行動」說及其評難</text>			</g>
			<g id="shape7-17" v:mID="7" v:groupContext="shape" transform="translate(487.24,93.2048) rotate(90)">
				<title>工作表.7</title>
				<desc>日出論者「行動」意行說及其評難</desc>
				<v:textBlock v:margins="rect(4,4,4,4)" v:tabSpace="42.5197"/>
				<v:textRect cx="141.568" cy="274.458" width="283.14" height="289.134"/>
				<rect x="0" y="129.891" width="283.136" height="289.134" class="st1"/>
				<text x="5.57" y="279.26" class="st2" v:langID="1028"><v:paragraph v:horizAlign="1"/><v:tabList/>日出論者「行動」（意行）說及其評難</text>			</g>
			<g id="shape8-20" v:mID="8" v:groupContext="shape" transform="translate(483.152,85.1975) rotate(90)">
				<title>工作表.8</title>
				<desc>毘婆沙師「無表色」說及其評難</desc>
				<v:textBlock v:margins="rect(4,4,4,4)" v:tabSpace="42.5197"/>
				<v:textRect cx="125.481" cy="298.552" width="250.97" height="240.945"/>
				<rect x="0" y="178.08" width="250.962" height="240.945" class="st1"/>
				<text x="13.48" y="303.35" class="st2" v:langID="1028"><v:paragraph v:horizAlign="1"/><v:tabList/>毘婆沙師「無表色」說及其評難</text>			</g>
			<g id="shape9-23" v:mID="9" v:groupContext="shape" transform="translate(422.493,91.3376) rotate(90)">
				<title>工作表.9</title>
				<desc>正量部等「不失法」「增長」說及其評難</desc>
				<v:textBlock v:margins="rect(4,4,4,4)" v:tabSpace="42.5197"/>
				<v:textRect cx="151.654" cy="266.24" width="303.31" height="305.57"/>
				<rect x="0" y="113.455" width="303.307" height="305.57" class="st1"/>
				<text x="7.65" y="271.04" class="st2" v:langID="1028"><v:paragraph v:horizAlign="1"/><v:tabList/>正量部等「不失法」「增長」說及其評難</text>			</g>
			<g id="shape10-26" v:mID="10" v:groupContext="shape" transform="translate(422.493,89.8583) rotate(90)">
				<title>工作表.10</title>
				<desc>經部「由思熏心相續功能」說</desc>
				<v:textBlock v:margins="rect(4,4,4,4)" v:tabSpace="42.5197"/>
				<v:textRect cx="113.734" cy="308.759" width="227.47" height="220.531"/>
				<rect x="0" y="198.494" width="227.467" height="220.531" class="st1"/>
				<text x="9.73" y="313.56" class="st2" v:langID="1028"><v:paragraph v:horizAlign="1"/><v:tabList/>經部「由思熏心相續功能」說</text>			</g>
			<g id="shape11-29" v:mID="11" v:groupContext="shape" transform="translate(632.004,5.13371) rotate(90)">
				<title>工作表.11</title>
				<desc>表業</desc>
				<v:textBlock v:margins="rect(4,4,4,4)" v:tabSpace="42.5197"/>
				<v:textRect cx="31.214" cy="390.678" width="62.43" height="56.6929"/>
				<rect x="0" y="362.332" width="62.428" height="56.6929" class="st1"/>
				<text x="0.25em 2.652em" y="395.48" class="st2" v:langID="1028"><v:paragraph v:horizAlign="4"/><v:tabList/>表業</text>			</g>
			<g id="shape12-32" v:mID="12" v:groupContext="shape" transform="translate(532.758,-20.3452) rotate(90)">
				<title>工作表.12</title>
				<path d="M0 419.02 L113.67 419.02" class="st3"/>
			</g>
			<g id="shape3-35" v:mID="3" v:groupContext="shape" transform="translate(617.798,-20.3452) rotate(90)">
				<title>工作表.3</title>
				<path d="M0 419.02 L14.17 419.02" class="st3"/>
			</g>
			<g id="shape13-38" v:mID="13" v:groupContext="shape" transform="translate(71.2139,-524.409)">
				<title>工作表.13</title>
				<path d="M0 419.02 L240.94 419.02" class="st4"/>
			</g>
			<g id="shape14-41" v:mID="14" v:groupContext="shape" transform="translate(575.278,79.1531) rotate(90)">
				<title>工作表.14</title>
				<path d="M0 419.02 L14.17 419.02" class="st3"/>
			</g>
			<g id="shape15-44" v:mID="15" v:groupContext="shape" transform="translate(603.625,79.1531) rotate(90)">
				<title>工作表.15</title>
				<path d="M0 419.02 L14.17 419.02" class="st3"/>
			</g>
			<g id="shape16-47" v:mID="16" v:groupContext="shape" transform="translate(589.451,64.6942) rotate(90)">
				<title>工作表.16</title>
				<path d="M0 419.02 L14.17 419.02" class="st3"/>
			</g>
			<g id="shape17-50" v:mID="17" v:groupContext="shape" transform="translate(660.317,64.6942) rotate(90)">
				<title>工作表.17</title>
				<path d="M0 419.02 L14.17 419.02" class="st3"/>
			</g>
			<g id="shape18-53" v:mID="18" v:groupContext="shape" transform="translate(631.971,79.1531) rotate(90)">
				<title>工作表.18</title>
				<path d="M0 419.02 L14.17 419.02" class="st3"/>
			</g>
			<g id="shape19-56" v:mID="19" v:groupContext="shape" transform="translate(688.664,78.8674) rotate(90)">
				<title>工作表.19</title>
				<path d="M0 419.02 L14.17 419.02" class="st3"/>
			</g>
			<g id="shape20-59" v:mID="20" v:groupContext="shape" transform="translate(156.253,-340.157)">
				<title>工作表.20</title>
				<path d="M0 419.02 L28.35 419.02" class="st3"/>
			</g>
			<g id="shape21-62" v:mID="21" v:groupContext="shape" transform="translate(212.946,-340.157)">
				<title>工作表.21</title>
				<path d="M0 419.02 L56.69 419.02" class="st3"/>
			</g>
			<g id="shape22-65" v:mID="22" v:groupContext="shape" transform="translate(660.317,-6.17196) rotate(90)">
				<title>工作表.22</title>
				<path d="M0 419.02 L14.17 419.02" class="st3"/>
			</g>
			<g id="shape23-68" v:mID="23" v:groupContext="shape" transform="translate(589.451,-6.17196) rotate(90)">
				<title>工作表.23</title>
				<path d="M0 419.02 L14.17 419.02" class="st3"/>
			</g>
			<g id="shape24-71" v:mID="24" v:groupContext="shape" transform="translate(170.426,-425.197)">
				<title>工作表.24</title>
				<path d="M0 419.02 L70.87 419.02" class="st3"/>
			</g>
			<g id="shape25-74" v:mID="25" v:groupContext="shape" transform="translate(490.239,-105.385) rotate(90)">
				<title>工作表.25</title>
				<path d="M0 419.02 L524.41 419.02" class="st4"/>
			</g>
			<g id="shape26-77" v:mID="26" v:groupContext="shape" transform="translate(731.184,-105.385) rotate(90)">
				<title>工作表.26</title>
				<path d="M0 419.02 L524.41 419.02" class="st4"/>
			</g>
			<g id="shape27-80" v:mID="27" v:groupContext="shape" transform="translate(71.2139,0)">
				<title>工作表.27</title>
				<path d="M0 419.02 L240.94 419.02" class="st4"/>
			</g>
		</g>
	</g>
</svg>
