<?xml version="1.0" encoding="UTF-8" standalone="no"?>
<!DOCTYPE svg PUBLIC "-//W3C//DTD SVG 1.1//EN" "http://www.w3.org/Graphics/SVG/1.1/DTD/svg11.dtd">
<!-- 由 Microsoft Visio, SVG Export 產生 y36.0433-h.svg 頁-1 -->
<svg xmlns="http://www.w3.org/2000/svg" xmlns:xlink="http://www.w3.org/1999/xlink" xmlns:ev="http://www.w3.org/2001/xml-events"
		width="9.00648in" height="9.79388in" viewBox="0 0 648.467 705.159" xml:space="preserve" color-interpolation-filters="sRGB"
		class="st4">
	<style type="text/css">
	<![CDATA[
		.st1 {fill:none;stroke:none;stroke-linecap:round;stroke-linejoin:round;stroke-width:0.75}
		.st2 {fill:#000000;font-family:新細明體;font-size:1.33333em}
		.st3 {stroke:#000000;stroke-linecap:round;stroke-linejoin:round;stroke-width:1}
		.st4 {fill:none;fill-rule:evenodd;font-size:12px;overflow:visible;stroke-linecap:square;stroke-miterlimit:3}
	]]>
	</style>

	<g>
		<title>頁-1</title>
		<g id="group66-1" transform="translate(0.375,-0.375)">
			<title>工作表.66</title>
			<g id="shape1-2" transform="translate(0.0659725,-681.732)">
				<title>工作表.1</title>
				<desc>一、</desc>
				<rect x="0" y="682.482" width="44.0795" height="22.6772" class="st1"/>
				<text x="6.04" y="698.62" class="st2">一、</text>			</g>
			<g id="shape2-5" transform="translate(42.1264,-681.133)">
				<title>工作表.2</title>
				<desc>受想行陰</desc>
				<rect x="0" y="682.482" width="74.899" height="22.6772" class="st1"/>
				<text x="5.45" y="698.62" class="st2">受想行陰</text>			</g>
			<g id="shape3-8" transform="translate(132.657,-681.732)">
				<title>工作表.3</title>
				<desc>相 應 行</desc>
				<rect x="0" y="682.482" width="109.583" height="22.6772" class="st1"/>
				<text x="6.48" y="698.62" class="st2">（相  應  行）</text>			</g>
			<g id="shape4-11" transform="translate(267.963,-679.654)">
				<title>工作表.4</title>
				<desc>受‧想‧思‧觸‧思惟作意</desc>
				<rect x="0" y="682.482" width="239.623" height="22.6772" class="st1"/>
				<text x="7.81" y="698.62" class="st2">受‧想‧思‧觸‧思惟（作意）</text>			</g>
			<g id="shape5-14" transform="translate(268.687,-654.836)">
				<title>工作表.5</title>
				<desc>覺‧觀</desc>
				<rect x="0" y="682.482" width="59.5934" height="22.6772" class="st1"/>
				<text x="5.8" y="698.62" class="st2">覺‧觀</text>			</g>
			<g id="shape6-17" transform="translate(263.896,-625.039)">
				<title>工作表.6</title>
				<desc>解脫</desc>
				<rect x="0" y="682.482" width="56.6929" height="22.6772" class="st1"/>
				<text x="12.35" y="698.62" class="st2">解脫</text>			</g>
			<g id="shape7-20" transform="translate(265.885,-596.693)">
				<title>工作表.7</title>
				<desc>見‧慧後分見‧忍‧智</desc>
				<rect x="0" y="682.482" width="212.598" height="22.6772" class="st1"/>
				<text x="10.3" y="698.62" class="st2">見‧慧（後分見‧忍‧智）</text>			</g>
			<g id="shape8-23" transform="translate(269.101,-568.346)">
				<title>工作表.8</title>
				<desc>無貪‧無恚‧無癡</desc>
				<rect x="0" y="682.482" width="142.113" height="22.6772" class="st1"/>
				<text x="7.06" y="698.62" class="st2">無貪‧無恚‧無癡</text>			</g>
			<g id="shape9-26" transform="translate(268.863,-539.149)">
				<title>工作表.9</title>
				<desc>順信</desc>
				<rect x="0" y="682.482" width="47.0565" height="22.6772" class="st1"/>
				<text x="7.53" y="698.62" class="st2">順信</text>			</g>
			<g id="shape10-29" transform="translate(270.532,-510.835)">
				<title>工作表.10</title>
				<desc>悔‧不悔</desc>
				<rect x="0" y="682.482" width="72.0644" height="22.6772" class="st1"/>
				<text x="4.03" y="698.62" class="st2">悔‧不悔</text>			</g>
			<g id="shape11-32" transform="translate(268.72,-483.307)">
				<title>工作表.11</title>
				<desc>悅‧喜</desc>
				<rect x="0" y="682.482" width="59.5276" height="22.6772" class="st1"/>
				<text x="5.76" y="698.62" class="st2">悅‧喜</text>			</g>
			<g id="shape12-35" transform="translate(263.743,-454.961)">
				<title>工作表.12</title>
				<desc>心精進‧心除輕安</desc>
				<rect x="0" y="682.482" width="177.199" height="22.6772" class="st1"/>
				<text x="10.68" y="698.62" class="st2">心精進‧心除（輕安）</text>			</g>
			<g id="shape13-38" transform="translate(267.504,-426.614)">
				<title>工作表.13</title>
				<desc>信‧欲‧不放逸</desc>
				<rect x="0" y="682.482" width="126.584" height="22.6772" class="st1"/>
				<text x="7.29" y="698.62" class="st2">信‧欲‧不放逸</text>			</g>
			<g id="shape14-41" transform="translate(270.031,-397.552)">
				<title>工作表.14</title>
				<desc>念‧定‧心捨</desc>
				<rect x="0" y="682.482" width="106.285" height="22.6772" class="st1"/>
				<text x="5.14" y="698.62" class="st2">念‧定‧心捨</text>			</g>
			<g id="shape15-44" transform="translate(267.27,-369.954)">
				<title>工作表.15</title>
				<desc>怖‧疑</desc>
				<rect x="0" y="682.482" width="62.428" height="22.6772" class="st1"/>
				<text x="7.21" y="698.62" class="st2">怖‧疑</text>			</g>
			<g id="shape16-47" transform="translate(268.768,-339.686)">
				<title>工作表.16</title>
				<desc>使十種</desc>
				<rect x="0" y="682.482" width="92.6012" height="22.6772" class="st1"/>
				<text x="6.3" y="698.62" class="st2">使（十種）</text>			</g>
			<g id="shape17-50" transform="translate(134.074,-313.228)">
				<title>工作表.17</title>
				<desc>非相應行</desc>
				<rect x="0" y="682.482" width="107.717" height="22.6772" class="st1"/>
				<text x="5.86" y="698.62" class="st2">（非相應行）</text>			</g>
			<g id="shape18-53" transform="translate(266.121,-312.993)">
				<title>工作表.18</title>
				<desc>生‧老‧死</desc>
				<rect x="0" y="682.482" width="95.9069" height="22.6772" class="st1"/>
				<text x="7.95" y="698.62" class="st2">生‧老‧死</text>			</g>
			<g id="shape19-56" transform="translate(267.874,-284.882)">
				<title>工作表.19</title>
				<desc>命</desc>
				<rect x="0" y="682.482" width="28.3465" height="22.6772" class="st1"/>
				<text x="6.17" y="698.62" class="st2">命</text>			</g>
			<g id="shape20-59" transform="translate(263.622,-256.535)">
				<title>工作表.20</title>
				<desc>結十種</desc>
				<rect x="0" y="682.482" width="99.2126" height="22.6772" class="st1"/>
				<text x="9.61" y="698.62" class="st2">結（十種）</text>			</g>
			<g id="shape21-62" transform="translate(264.782,-228.189)">
				<title>工作表.21</title>
				<desc>無想定‧得果‧滅盡定</desc>
				<rect x="0" y="682.482" width="175.121" height="22.6772" class="st1"/>
				<text x="7.56" y="698.62" class="st2">無想定‧得果‧滅盡定</text>			</g>
			<g id="shape22-65" transform="translate(0,-199.843)">
				<title>工作表.22</title>
				<desc>二、</desc>
				<rect x="0" y="682.482" width="45.3543" height="22.6772" class="st1"/>
				<text x="6.68" y="698.62" class="st2">二、</text>			</g>
			<g id="shape23-68" transform="translate(38.7428,-199.843)">
				<title>工作表.23</title>
				<desc>法入色</desc>
				<rect x="0" y="682.482" width="65.9384" height="22.6772" class="st1"/>
				<text x="8.97" y="698.62" class="st2">法入色</text>			</g>
			<g id="shape24-71" transform="translate(265.039,-198.425)">
				<title>工作表.24</title>
				<desc>身口非戒無教‧有漏身口戒無教‧有漏身精進‧有漏</desc>
				<rect x="0" y="682.482" width="382.677" height="22.6772" class="st1"/>
				<text x="7.34" y="698.62" class="st2">身口非戒無教‧有漏身口戒無教‧有漏身精進‧有漏</text>			</g>
			<g id="shape25-74" transform="translate(284.026,-171.781)">
				<title>工作表.25</title>
				<desc>身除</desc>
				<rect x="0" y="682.482" width="40.2548" height="22.6772" class="st1"/>
				<text x="4.13" y="698.62" class="st2">身除</text>			</g>
			<g id="shape26-77" transform="translate(263.432,-143.15)">
				<title>工作表.26</title>
				<desc>正語‧正業‧正命</desc>
				<rect x="0" y="682.482" width="144.948" height="22.6772" class="st1"/>
				<text x="8.47" y="698.62" class="st2">正語‧正業‧正命</text>			</g>
			<g id="shape27-80" transform="translate(263.879,-114.803)">
				<title>工作表.27</title>
				<desc>正身精進‧正身除</desc>
				<rect x="0" y="682.482" width="145.608" height="22.6772" class="st1"/>
				<text x="8.8" y="698.62" class="st2">正身精進‧正身除</text>			</g>
			<g id="shape28-83" transform="translate(1.4098,-85.2527)">
				<title>工作表.28</title>
				<desc>三、</desc>
				<rect x="0" y="682.482" width="42.9463" height="22.6772" class="st1"/>
				<text x="5.47" y="698.62" class="st2">三、</text>			</g>
			<g id="shape29-86" transform="translate(39.1136,-68.0315)">
				<title>工作表.29</title>
				<desc>無為法</desc>
				<rect x="0" y="648.467" width="65.1969" height="56.6929" class="st1"/>
				<text x="8.6" y="681.61" class="st2">無為法</text>			</g>
			<g id="shape30-89" transform="translate(267.118,-85.7005)">
				<title>工作表.30</title>
				<desc>智緣盡‧非智緣盡</desc>
				<rect x="0" y="682.482" width="137.575" height="22.6772" class="st1"/>
				<text x="4.79" y="698.62" class="st2">智緣盡‧非智緣盡</text>			</g>
			<g id="shape31-92" transform="translate(266.731,-56.6929)">
				<title>工作表.31</title>
				<desc>決定</desc>
				<rect x="0" y="682.482" width="42.5197" height="22.6772" class="st1"/>
				<text x="5.26" y="698.62" class="st2">決定</text>			</g>
			<g id="shape33-95" transform="translate(265.885,1.13687E-13)">
				<title>工作表.33</title>
				<desc>空處‧識處‧不用處‧非想非非想處</desc>
				<rect x="0" y="682.482" width="269.291" height="22.6772" class="st1"/>
				<text x="6.65" y="698.62" class="st2">空處‧識處‧不用處‧非想非非想處</text>			</g>
			<g id="shape34-98" transform="translate(260.595,-29.3157)">
				<title>工作表.34</title>
				<desc>法位‧緣起</desc>
				<rect x="0" y="682.482" width="101.151" height="22.6772" class="st1"/>
				<text x="10.58" y="698.62" class="st2">法位‧緣起</text>			</g>
			<g id="shape35-101" transform="translate(100.058,-97.7953)">
				<title>工作表.35</title>
				<path d="M0 705.16 L170.08 705.16" class="st3"/>
			</g>
			<g id="shape36-104" transform="translate(243.242,-693.071)">
				<title>工作表.36</title>
				<path d="M0 705.16 L26.89 705.16" class="st3"/>
			</g>
			<g id="shape37-107" transform="translate(-449.195,692.404) rotate(-90)">
				<title>工作表.37</title>
				<path d="M0 705.16 L85.04 705.16" class="st3"/>
			</g>
			<g id="shape38-110" transform="translate(255.964,-69.4488)">
				<title>工作表.38</title>
				<path d="M0 705.16 L14.88 705.16" class="st3"/>
			</g>
			<g id="shape39-113" transform="translate(255.255,-12.7559)">
				<title>工作表.39</title>
				<path d="M0 705.16 L14.88 705.16" class="st3"/>
			</g>
			<g id="shape40-116" transform="translate(255.964,-41.1024)">
				<title>工作表.40</title>
				<path d="M0 705.16 L14.88 705.16" class="st3"/>
			</g>
			<g id="shape41-119" transform="translate(255.964,-126.142)">
				<title>工作表.41</title>
				<path d="M0 705.16 L14.88 705.16" class="st3"/>
			</g>
			<g id="shape42-122" transform="translate(255.964,-154.488)">
				<title>工作表.42</title>
				<path d="M0 705.16 L14.88 705.16" class="st3"/>
			</g>
			<g id="shape43-125" transform="translate(100.058,-211.181)">
				<title>工作表.43</title>
				<path d="M0 705.16 L170.08 705.16" class="st3"/>
			</g>
			<g id="shape44-128" transform="translate(-449.195,579.018) rotate(-90)">
				<title>工作表.44</title>
				<path d="M0 705.16 L85.04 705.16" class="st3"/>
			</g>
			<g id="shape45-131" transform="translate(254.409,-296.22)">
				<title>工作表.45</title>
				<path d="M0 705.16 L14.88 705.16" class="st3"/>
			</g>
			<g id="shape46-134" transform="translate(255.255,-267.874)">
				<title>工作表.46</title>
				<path d="M0 705.16 L14.88 705.16" class="st3"/>
			</g>
			<g id="shape47-137" transform="translate(254.409,-239.528)">
				<title>工作表.47</title>
				<path d="M0 705.16 L14.88 705.16" class="st3"/>
			</g>
			<g id="shape48-140" transform="translate(240.373,-324.567)">
				<title>工作表.48</title>
				<path d="M0 705.16 L28.92 705.16" class="st3"/>
			</g>
			<g id="shape49-143" transform="translate(255.255,-352.913)">
				<title>工作表.49</title>
				<path d="M0 705.16 L14.88 705.16" class="st3"/>
			</g>
			<g id="shape50-146" transform="translate(255.255,-437.953)">
				<title>工作表.50</title>
				<path d="M0 705.16 L14.88 705.16" class="st3"/>
			</g>
			<g id="shape51-149" transform="translate(255.255,-409.606)">
				<title>工作表.51</title>
				<path d="M0 705.16 L14.88 705.16" class="st3"/>
			</g>
			<g id="shape52-152" transform="translate(255.255,-381.26)">
				<title>工作表.52</title>
				<path d="M0 705.16 L14.88 705.16" class="st3"/>
			</g>
			<g id="shape53-155" transform="translate(255.255,-522.992)">
				<title>工作表.53</title>
				<path d="M0 705.16 L14.88 705.16" class="st3"/>
			</g>
			<g id="shape54-158" transform="translate(255.964,-494.646)">
				<title>工作表.54</title>
				<path d="M0 705.16 L14.88 705.16" class="st3"/>
			</g>
			<g id="shape55-161" transform="translate(255.964,-466.299)">
				<title>工作表.55</title>
				<path d="M0 705.16 L14.88 705.16" class="st3"/>
			</g>
			<g id="shape56-164" transform="translate(256.398,-608.031)">
				<title>工作表.56</title>
				<path d="M0 705.16 L14.88 705.16" class="st3"/>
			</g>
			<g id="shape57-167" transform="translate(255.255,-664.724)">
				<title>工作表.57</title>
				<path d="M0 705.16 L14.88 705.16" class="st3"/>
			</g>
			<g id="shape58-170" transform="translate(256.398,-579.685)">
				<title>工作表.58</title>
				<path d="M0 705.16 L14.88 705.16" class="st3"/>
			</g>
			<g id="shape59-173" transform="translate(255.255,-551.339)">
				<title>工作表.59</title>
				<path d="M0 705.16 L14.88 705.16" class="st3"/>
			</g>
			<g id="shape60-176" transform="translate(256.398,-636.769)">
				<title>工作表.60</title>
				<path d="M0 705.16 L14.88 705.16" class="st3"/>
			</g>
			<g id="shape61-179" transform="translate(-450.75,465.632) rotate(-90)">
				<title>工作表.61</title>
				<path d="M0 705.16 L85.04 705.16" class="st3"/>
			</g>
			<g id="shape62-182" transform="translate(-449.195,352.246) rotate(-90)">
				<title>工作表.62</title>
				<path d="M0 705.16 L340.16 705.16" class="st3"/>
			</g>
			<g id="shape63-185" transform="translate(128.405,-324.567)">
				<title>工作表.63</title>
				<path d="M0 705.16 L14.88 705.16" class="st3"/>
			</g>
			<g id="shape64-188" transform="translate(114.232,-693.071)">
				<title>工作表.64</title>
				<path d="M0 705.16 L26.89 705.16" class="st3"/>
			</g>
			<g id="shape65-191" transform="translate(-576.755,380.593) rotate(-90)">
				<title>工作表.65</title>
				<path d="M0 705.16 L368.5 705.16" class="st3"/>
			</g>
		</g>
	</g>
</svg>
