<?xml version="1.0" encoding="UTF-8" standalone="no"?>
<!DOCTYPE svg PUBLIC "-//W3C//DTD SVG 1.0//EN" "http://www.w3.org/TR/2001/REC-SVG-20010904/DTD/svg10.dtd">
<!-- 由 Microsoft Visio 11.0, SVG Export, v1.0 產生 y36.0433.svg 頁-1 -->
<svg xmlns="http://www.w3.org/2000/svg" xmlns:xlink="http://www.w3.org/1999/xlink" xmlns:ev="http://www.w3.org/2001/xml-events"
		xmlns:v="http://schemas.microsoft.com/visio/2003/SVGExtensions/" width="9.67345in" height="12.9842in"
		viewBox="0 0 696.488 934.861" xml:space="preserve" color-interpolation-filters="sRGB" class="st5">
	<v:documentProperties v:langID="1028" v:metric="true" v:viewMarkup="false"/>

	<style type="text/css">
	<![CDATA[
		.st1 {fill:none;stroke:none;stroke-linecap:round;stroke-linejoin:round;stroke-width:0.75}
		.st2 {fill:#000000;font-family:新細明體;font-size:1.33333em}
		.st3 {stroke:#000000;stroke-linecap:round;stroke-linejoin:round;stroke-width:1}
		.st4 {stroke:#ffffff;stroke-linecap:round;stroke-linejoin:round;stroke-opacity:0;stroke-width:1}
		.st5 {fill:none;fill-rule:evenodd;font-size:12px;overflow:visible;stroke-linecap:square;stroke-miterlimit:3}
	]]>
	</style>

	<g v:mID="0" v:index="1" v:groupContext="foregroundPage">
		<title>頁-1</title>
		<v:pageProperties v:drawingScale="0.0393701" v:pageScale="0.0393701" v:drawingUnits="24" v:shadowOffsetX="8.50394"
				v:shadowOffsetY="-8.50394"/>
		<g id="group69-1" transform="translate(-239.373,934.111) rotate(-90)" v:mID="69" v:groupContext="group">
			<title>工作表.69</title>
			<g id="shape1-2" v:mID="1" v:groupContext="shape" transform="translate(1729.98,267.94) rotate(90)">
				<title>工作表.1</title>
				<desc>一、</desc>
				<v:textBlock v:margins="rect(4,4,4,4)" v:tabSpace="42.5197"/>
				<v:textRect cx="22.0397" cy="913.602" width="44.08" height="42.5197"/>
				<rect x="0" y="892.342" width="44.0795" height="42.5197" class="st1"/>
				<text x="6.04" y="918.4" class="st2" v:langID="1028"><v:paragraph v:horizAlign="1"/><v:tabList/>一、</text>			</g>
			<g id="shape2-5" v:mID="2" v:groupContext="shape" transform="translate(1714.43,310) rotate(90)">
				<title>工作表.2</title>
				<desc>受想行陰</desc>
				<v:textBlock v:margins="rect(4,4,4,4)" v:tabSpace="42.5197"/>
				<v:textRect cx="37.4495" cy="898.651" width="74.9" height="72.4207"/>
				<rect x="0" y="862.441" width="74.899" height="72.4207" class="st1"/>
				<text x="5.45" y="903.45" class="st2" v:langID="1028"><v:paragraph v:horizAlign="1"/><v:tabList/>受想行陰</text>			</g>
			<g id="shape3-8" v:mID="3" v:groupContext="shape" transform="translate(1695.93,400.531) rotate(90)">
				<title>工作表.3</title>
				<desc>相 應 行</desc>
				<v:textBlock v:margins="rect(4,4,4,4)" v:tabSpace="42.5197"/>
				<v:textRect cx="54.7915" cy="879.552" width="109.59" height="110.62"/>
				<rect x="0" y="824.242" width="109.583" height="110.62" class="st1"/>
				<text x="6.48" y="884.35" class="st2" v:langID="1028"><v:paragraph v:horizAlign="1"/><v:tabList/>（相  應  行）</text>			</g>
			<g id="shape4-11" v:mID="4" v:groupContext="shape" transform="translate(1631.52,535.837) rotate(90)">
				<title>工作表.4</title>
				<desc>受‧想‧思‧觸‧思惟作意</desc>
				<v:textBlock v:margins="rect(4,4,4,4)" v:tabSpace="42.5197"/>
				<v:textRect cx="119.812" cy="817.224" width="239.63" height="235.276"/>
				<rect x="0" y="699.586" width="239.623" height="235.276" class="st1"/>
				<text x="7.81" y="822.02" class="st2" v:langID="1028"><v:paragraph v:horizAlign="1"/><v:tabList/>受‧想‧思‧觸‧思惟（作意）</text>			</g>
			<g id="shape5-14" v:mID="5" v:groupContext="shape" transform="translate(1693.16,536.561) rotate(90)">
				<title>工作表.5</title>
				<desc>覺‧觀</desc>
				<v:textBlock v:margins="rect(4,4,4,4)" v:tabSpace="42.5197"/>
				<v:textRect cx="29.7967" cy="903.68" width="59.6" height="62.3622"/>
				<rect x="0" y="872.499" width="59.5934" height="62.3622" class="st1"/>
				<text x="5.8" y="908.48" class="st2" v:langID="1028"><v:paragraph v:horizAlign="1"/><v:tabList/>覺‧觀</text>			</g>
			<g id="shape6-17" v:mID="6" v:groupContext="shape" transform="translate(1666.77,531.77) rotate(90)">
				<title>工作表.6</title>
				<desc>解脫</desc>
				<v:textBlock v:margins="rect(4,4,4,4)" v:tabSpace="42.5197"/>
				<v:textRect cx="28.3465" cy="907.086" width="56.7" height="55.55"/>
				<rect x="0" y="879.312" width="56.6929" height="55.55" class="st1"/>
				<text x="12.35" y="911.89" class="st2" v:langID="1028"><v:paragraph v:horizAlign="1"/><v:tabList/>解脫</text>			</g>
			<g id="shape7-20" v:mID="7" v:groupContext="shape" transform="translate(1562.74,533.759) rotate(90)">
				<title>工作表.7</title>
				<desc>見‧慧後分見‧忍‧智</desc>
				<v:textBlock v:margins="rect(4,4,4,4)" v:tabSpace="42.5197"/>
				<v:textRect cx="106.299" cy="831.397" width="212.6" height="206.929"/>
				<rect x="0" y="727.932" width="212.598" height="206.929" class="st1"/>
				<text x="10.3" y="836.2" class="st2" v:langID="1028"><v:paragraph v:horizAlign="1"/><v:tabList/>見‧慧（後分見‧忍‧智）</text>			</g>
			<g id="shape8-23" v:mID="8" v:groupContext="shape" transform="translate(1568.98,536.975) rotate(90)">
				<title>工作表.8</title>
				<desc>無貪‧無恚‧無癡</desc>
				<v:textBlock v:margins="rect(4,4,4,4)" v:tabSpace="42.5197"/>
				<v:textRect cx="71.0565" cy="865.984" width="142.12" height="137.755"/>
				<rect x="0" y="797.107" width="142.113" height="137.755" class="st1"/>
				<text x="7.06" y="870.78" class="st2" v:langID="1028"><v:paragraph v:horizAlign="1"/><v:tabList/>無貪‧無恚‧無癡</text>			</g>
			<g id="shape9-26" v:mID="9" v:groupContext="shape" transform="translate(1585.56,536.737) rotate(90)">
				<title>工作表.9</title>
				<desc>順信</desc>
				<v:textBlock v:margins="rect(4,4,4,4)" v:tabSpace="42.5197"/>
				<v:textRect cx="23.5283" cy="911.761" width="47.06" height="46.2002"/>
				<rect x="0" y="888.661" width="47.0565" height="46.2002" class="st1"/>
				<text x="7.53" y="916.56" class="st2" v:langID="1028"><v:paragraph v:horizAlign="1"/><v:tabList/>順信</text>			</g>
			<g id="shape10-29" v:mID="10" v:groupContext="shape" transform="translate(1543.07,538.406) rotate(90)">
				<title>工作表.10</title>
				<desc>悔‧不悔</desc>
				<v:textBlock v:margins="rect(4,4,4,4)" v:tabSpace="42.5197"/>
				<v:textRect cx="36.0322" cy="897.588" width="72.07" height="74.5466"/>
				<rect x="0" y="860.315" width="72.0644" height="74.5466" class="st1"/>
				<text x="4.03" y="902.39" class="st2" v:langID="1028"><v:paragraph v:horizAlign="1"/><v:tabList/>悔‧不悔</text>			</g>
			<g id="shape11-32" v:mID="11" v:groupContext="shape" transform="translate(1523.05,536.594) rotate(90)">
				<title>工作表.11</title>
				<desc>悅‧喜</desc>
				<v:textBlock v:margins="rect(4,4,4,4)" v:tabSpace="42.5197"/>
				<v:textRect cx="29.7638" cy="905.098" width="59.53" height="59.5276"/>
				<rect x="0" y="875.334" width="59.5276" height="59.5276" class="st1"/>
				<text x="5.76" y="909.9" class="st2" v:langID="1028"><v:paragraph v:horizAlign="1"/><v:tabList/>悅‧喜</text>			</g>
			<g id="shape12-35" v:mID="12" v:groupContext="shape" transform="translate(1435.18,531.616) rotate(90)">
				<title>工作表.12</title>
				<desc>心精進‧心除輕安</desc>
				<v:textBlock v:margins="rect(4,4,4,4)" v:tabSpace="42.5197"/>
				<v:textRect cx="88.5994" cy="845.57" width="177.2" height="178.583"/>
				<rect x="0" y="756.279" width="177.199" height="178.583" class="st1"/>
				<text x="10.68" y="850.37" class="st2" v:langID="1028"><v:paragraph v:horizAlign="1"/><v:tabList/>心精進‧心除（輕安）</text>			</g>
			<g id="shape13-38" v:mID="13" v:groupContext="shape" transform="translate(1432.63,535.378) rotate(90)">
				<title>工作表.13</title>
				<desc>信‧欲‧不放逸</desc>
				<v:textBlock v:margins="rect(4,4,4,4)" v:tabSpace="42.5197"/>
				<v:textRect cx="63.292" cy="871.368" width="126.59" height="126.988"/>
				<rect x="0" y="807.874" width="126.584" height="126.988" class="st1"/>
				<text x="7.29" y="876.17" class="st2" v:langID="1028"><v:paragraph v:horizAlign="1"/><v:tabList/>信‧欲‧不放逸</text>			</g>
			<g id="shape14-41" v:mID="14" v:groupContext="shape" transform="translate(1414.02,537.905) rotate(90)">
				<title>工作表.14</title>
				<desc>念‧定‧心捨</desc>
				<v:textBlock v:margins="rect(4,4,4,4)" v:tabSpace="42.5197"/>
				<v:textRect cx="53.1424" cy="881.825" width="106.29" height="106.072"/>
				<rect x="0" y="828.789" width="106.285" height="106.072" class="st1"/>
				<text x="5.14" y="886.63" class="st2" v:langID="1028"><v:paragraph v:horizAlign="1"/><v:tabList/>念‧定‧心捨</text>			</g>
			<g id="shape15-44" v:mID="15" v:groupContext="shape" transform="translate(1411.11,535.144) rotate(90)">
				<title>工作表.15</title>
				<desc>怖‧疑</desc>
				<v:textBlock v:margins="rect(4,4,4,4)" v:tabSpace="42.5197"/>
				<v:textRect cx="31.214" cy="906.515" width="62.43" height="56.6929"/>
				<rect x="0" y="878.169" width="62.428" height="56.6929" class="st1"/>
				<text x="7.21" y="911.32" class="st2" v:langID="1028"><v:paragraph v:horizAlign="1"/><v:tabList/>怖‧疑</text>			</g>
			<g id="shape16-47" v:mID="16" v:groupContext="shape" transform="translate(1363.42,536.642) rotate(90)">
				<title>工作表.16</title>
				<desc>使十種</desc>
				<v:textBlock v:margins="rect(4,4,4,4)" v:tabSpace="42.5197"/>
				<v:textRect cx="46.3006" cy="889.084" width="92.61" height="91.5545"/>
				<rect x="0" y="843.307" width="92.6012" height="91.5545" class="st1"/>
				<text x="6.3" y="893.88" class="st2" v:langID="1028"><v:paragraph v:horizAlign="1"/><v:tabList/>使（十種）</text>			</g>
			<g id="shape17-50" v:mID="17" v:groupContext="shape" transform="translate(1330.29,401.948) rotate(90)">
				<title>工作表.17</title>
				<desc>非相應行</desc>
				<v:textBlock v:margins="rect(4,4,4,4)" v:tabSpace="42.5197"/>
				<v:textRect cx="53.8583" cy="882.421" width="107.72" height="104.882"/>
				<rect x="0" y="829.98" width="107.717" height="104.882" class="st1"/>
				<text x="5.86" y="887.22" class="st2" v:langID="1028"><v:paragraph v:horizAlign="1"/><v:tabList/>（非相應行）</text>			</g>
			<g id="shape18-53" v:mID="18" v:groupContext="shape" transform="translate(1335.73,533.995) rotate(90)">
				<title>工作表.18</title>
				<desc>生‧老‧死</desc>
				<v:textBlock v:margins="rect(4,4,4,4)" v:tabSpace="42.5197"/>
				<v:textRect cx="47.9534" cy="888.09" width="95.91" height="93.5433"/>
				<rect x="0" y="841.318" width="95.9069" height="93.5433" class="st1"/>
				<text x="7.95" y="892.89" class="st2" v:langID="1028"><v:paragraph v:horizAlign="1"/><v:tabList/>生‧老‧死</text>			</g>
			<g id="shape19-56" v:mID="19" v:groupContext="shape" transform="translate(1340.79,535.748) rotate(90)">
				<title>工作表.19</title>
				<desc>命</desc>
				<v:textBlock v:margins="rect(4,4,4,4)" v:tabSpace="42.5197"/>
				<v:textRect cx="14.1732" cy="921.26" width="28.35" height="27.2035"/>
				<rect x="0" y="907.658" width="28.3465" height="27.2035" class="st1"/>
				<text x="6.17" y="926.06" class="st2" v:langID="1028"><v:paragraph v:horizAlign="1"/><v:tabList/>命</text>			</g>
			<g id="shape20-59" v:mID="20" v:groupContext="shape" transform="translate(1281.26,531.496) rotate(90)">
				<title>工作表.20</title>
				<desc>結十種</desc>
				<v:textBlock v:margins="rect(4,4,4,4)" v:tabSpace="42.5197"/>
				<v:textRect cx="49.6063" cy="890.079" width="99.22" height="89.5657"/>
				<rect x="0" y="845.296" width="99.2126" height="89.5657" class="st1"/>
				<text x="9.61" y="894.88" class="st2" v:langID="1028"><v:paragraph v:horizAlign="1"/><v:tabList/>結（十種）</text>			</g>
			<g id="shape21-62" v:mID="21" v:groupContext="shape" transform="translate(1213.23,532.655) rotate(90)">
				<title>工作表.21</title>
				<desc>無想定‧得果‧滅盡定</desc>
				<v:textBlock v:margins="rect(4,4,4,4)" v:tabSpace="42.5197"/>
				<v:textRect cx="87.5604" cy="850.394" width="175.13" height="168.936"/>
				<rect x="0" y="765.926" width="175.121" height="168.936" class="st1"/>
				<text x="7.56" y="855.19" class="st2" v:langID="1028"><v:paragraph v:horizAlign="1"/><v:tabList/>無想定‧得果‧滅盡定</text>			</g>
			<g id="shape22-65" v:mID="22" v:groupContext="shape" transform="translate(1248.66,267.874) rotate(90)">
				<title>工作表.22</title>
				<desc>二、</desc>
				<v:textBlock v:margins="rect(4,4,4,4)" v:tabSpace="42.5197"/>
				<v:textRect cx="22.6772" cy="914.173" width="45.36" height="41.3768"/>
				<rect x="0" y="893.485" width="45.3543" height="41.3768" class="st1"/>
				<text x="6.68" y="918.97" class="st2" v:langID="1028"><v:paragraph v:horizAlign="1"/><v:tabList/>二、</text>			</g>
			<g id="shape23-68" v:mID="23" v:groupContext="shape" transform="translate(1239.16,306.617) rotate(90)">
				<title>工作表.23</title>
				<desc>法入色</desc>
				<v:textBlock v:margins="rect(4,4,4,4)" v:tabSpace="42.5197"/>
				<v:textRect cx="32.9692" cy="904.675" width="65.94" height="60.3734"/>
				<rect x="0" y="874.488" width="65.9384" height="60.3734" class="st1"/>
				<text x="8.97" y="909.47" class="st2" v:langID="1028"><v:paragraph v:horizAlign="1"/><v:tabList/>法入色</text>			</g>
			<g id="shape24-71" v:mID="24" v:groupContext="shape" transform="translate(1077.17,532.913) rotate(90)">
				<title>工作表.24</title>
				<desc>身口非戒無教‧有漏身口戒無教‧有漏身精進‧有漏</desc>
				<v:textBlock v:margins="rect(4,4,4,4)" v:tabSpace="42.5197"/>
				<v:textRect cx="191.339" cy="744.094" width="382.68" height="381.534"/>
				<rect x="0" y="553.327" width="382.677" height="381.534" class="st1"/>
				<text x="7.34" y="748.89" class="st2" v:langID="1028"><v:paragraph v:horizAlign="1"/><v:tabList/>身口非戒無教‧有漏身口戒無教‧有漏身精進‧有漏</text>			</g>
			<g id="shape25-74" v:mID="25" v:groupContext="shape" transform="translate(1218.61,551.899) rotate(90)">
				<title>工作表.25</title>
				<desc>身除</desc>
				<v:textBlock v:margins="rect(4,4,4,4)" v:tabSpace="42.5197"/>
				<v:textRect cx="20.1274" cy="912.184" width="40.26" height="45.3543"/>
				<rect x="0" y="889.507" width="40.2548" height="45.3543" class="st1"/>
				<text x="4.13" y="916.98" class="st2" v:langID="1028"><v:paragraph v:horizAlign="1"/><v:tabList/>身除</text>			</g>
			<g id="shape26-77" v:mID="26" v:groupContext="shape" transform="translate(1142.36,531.306) rotate(90)">
				<title>工作表.26</title>
				<desc>正語‧正業‧正命</desc>
				<v:textBlock v:margins="rect(4,4,4,4)" v:tabSpace="42.5197"/>
				<v:textRect cx="72.4738" cy="864.567" width="144.95" height="140.589"/>
				<rect x="0" y="794.272" width="144.948" height="140.589" class="st1"/>
				<text x="8.47" y="869.37" class="st2" v:langID="1028"><v:paragraph v:horizAlign="1"/><v:tabList/>正語‧正業‧正命</text>			</g>
			<g id="shape27-80" v:mID="27" v:groupContext="shape" transform="translate(1111.96,531.753) rotate(90)">
				<title>工作表.27</title>
				<desc>正身精進‧正身除</desc>
				<v:textBlock v:margins="rect(4,4,4,4)" v:tabSpace="42.5197"/>
				<v:textRect cx="72.8038" cy="862.509" width="145.61" height="144.704"/>
				<rect x="0" y="790.157" width="145.608" height="144.704" class="st1"/>
				<text x="8.8" y="867.31" class="st2" v:langID="1028"><v:paragraph v:horizAlign="1"/><v:tabList/>正身精進‧正身除</text>			</g>
			<g id="shape28-83" v:mID="28" v:groupContext="shape" transform="translate(1132.72,269.284) rotate(90)">
				<title>工作表.28</title>
				<desc>三、</desc>
				<v:textBlock v:margins="rect(4,4,4,4)" v:tabSpace="42.5197"/>
				<v:textRect cx="21.4732" cy="912.824" width="42.95" height="44.0742"/>
				<rect x="0" y="890.787" width="42.9463" height="44.0742" class="st1"/>
				<text x="5.47" y="917.62" class="st2" v:langID="1028"><v:paragraph v:horizAlign="1"/><v:tabList/>三、</text>			</g>
			<g id="shape29-86" v:mID="29" v:groupContext="shape" transform="translate(1126.2,306.987) rotate(90)">
				<title>工作表.29</title>
				<desc>無為法</desc>
				<v:textBlock v:margins="rect(4,4,4,4)" v:tabSpace="42.5197"/>
				<v:textRect cx="32.5984" cy="906.515" width="65.2" height="56.6929"/>
				<rect x="0" y="878.169" width="65.1969" height="56.6929" class="st1"/>
				<text x="8.6" y="911.32" class="st2" v:langID="1028"><v:paragraph v:horizAlign="1"/><v:tabList/>無為法</text>			</g>
			<g id="shape30-89" v:mID="30" v:groupContext="shape" transform="translate(1084.91,534.992) rotate(90)">
				<title>工作表.30</title>
				<desc>智緣盡‧非智緣盡</desc>
				<v:textBlock v:margins="rect(4,4,4,4)" v:tabSpace="42.5197"/>
				<v:textRect cx="68.7877" cy="864.567" width="137.58" height="140.589"/>
				<rect x="0" y="794.272" width="137.575" height="140.589" class="st1"/>
				<text x="4.79" y="869.37" class="st2" v:langID="1028"><v:paragraph v:horizAlign="1"/><v:tabList/>智緣盡‧非智緣盡</text>			</g>
			<g id="shape31-92" v:mID="31" v:groupContext="shape" transform="translate(1105.51,534.605) rotate(90)">
				<title>工作表.31</title>
				<desc>決定</desc>
				<v:textBlock v:margins="rect(4,4,4,4)" v:tabSpace="42.5197"/>
				<v:textRect cx="21.2598" cy="914.173" width="42.52" height="41.3768"/>
				<rect x="0" y="893.485" width="42.5197" height="41.3768" class="st1"/>
				<text x="5.26" y="918.97" class="st2" v:langID="1028"><v:paragraph v:horizAlign="1"/><v:tabList/>決定</text>			</g>
			<g id="shape33-95" v:mID="33" v:groupContext="shape" transform="translate(934.861,533.759) rotate(90)">
				<title>工作表.33</title>
				<desc>空處‧識處‧不用處‧非想非非想處</desc>
				<v:textBlock v:margins="rect(4,4,4,4)" v:tabSpace="42.5197"/>
				<v:textRect cx="134.646" cy="800.216" width="269.3" height="269.291"/>
				<rect x="0" y="665.57" width="269.291" height="269.291" class="st1"/>
				<text x="6.65" y="805.02" class="st2" v:langID="1028"><v:paragraph v:horizAlign="1"/><v:tabList/>空處‧識處‧不用處‧非想非非想處</text>			</g>
			<g id="shape34-98" v:mID="34" v:groupContext="shape" transform="translate(1051.98,528.469) rotate(90)">
				<title>工作表.34</title>
				<desc>法位‧緣起</desc>
				<v:textBlock v:margins="rect(4,4,4,4)" v:tabSpace="42.5197"/>
				<v:textRect cx="50.5755" cy="888.021" width="101.16" height="93.6808"/>
				<rect x="0" y="841.181" width="101.151" height="93.6808" class="st1"/>
				<text x="10.58" y="892.82" class="st2" v:langID="1028"><v:paragraph v:horizAlign="1"/><v:tabList/>法位‧緣起</text>			</g>
			<g id="shape35-101" v:mID="35" v:groupContext="shape" transform="translate(1155.96,367.932) rotate(90)">
				<title>工作表.35</title>
				<path d="M0 934.86 L170.08 934.86" class="st3"/>
			</g>
			<g id="shape36-104" v:mID="36" v:groupContext="shape" transform="translate(1751.24,511.116) rotate(90)">
				<title>工作表.36</title>
				<path d="M0 934.86 L26.89 934.86" class="st3"/>
			</g>
			<g id="shape37-107" v:mID="37" v:groupContext="shape" transform="translate(136.063,-411.024)">
				<title>工作表.37</title>
				<path d="M0 934.86 L85.04 934.86" class="st3"/>
			</g>
			<g id="shape38-110" v:mID="38" v:groupContext="shape" transform="translate(1127.62,523.838) rotate(90)">
				<title>工作表.38</title>
				<path d="M0 934.86 L14.88 934.86" class="st3"/>
			</g>
			<g id="shape39-113" v:mID="39" v:groupContext="shape" transform="translate(1070.92,523.129) rotate(90)">
				<title>工作表.39</title>
				<path d="M0 934.86 L14.88 934.86" class="st3"/>
			</g>
			<g id="shape40-116" v:mID="40" v:groupContext="shape" transform="translate(1099.27,523.838) rotate(90)">
				<title>工作表.40</title>
				<path d="M0 934.86 L14.88 934.86" class="st3"/>
			</g>
			<g id="shape41-119" v:mID="41" v:groupContext="shape" transform="translate(1184.31,523.838) rotate(90)">
				<title>工作表.41</title>
				<path d="M0 934.86 L14.88 934.86" class="st3"/>
			</g>
			<g id="shape42-122" v:mID="42" v:groupContext="shape" transform="translate(1212.66,523.838) rotate(90)">
				<title>工作表.42</title>
				<path d="M0 934.86 L14.88 934.86" class="st3"/>
			</g>
			<g id="shape43-125" v:mID="43" v:groupContext="shape" transform="translate(1269.35,367.932) rotate(90)">
				<title>工作表.43</title>
				<path d="M0 934.86 L170.08 934.86" class="st3"/>
			</g>
			<g id="shape44-128" v:mID="44" v:groupContext="shape" transform="translate(249.449,-411.024)">
				<title>工作表.44</title>
				<path d="M0 934.86 L85.04 934.86" class="st3"/>
			</g>
			<g id="shape45-131" v:mID="45" v:groupContext="shape" transform="translate(1354.39,522.283) rotate(90)">
				<title>工作表.45</title>
				<path d="M0 934.86 L14.88 934.86" class="st3"/>
			</g>
			<g id="shape46-134" v:mID="46" v:groupContext="shape" transform="translate(1326.04,523.129) rotate(90)">
				<title>工作表.46</title>
				<path d="M0 934.86 L14.88 934.86" class="st3"/>
			</g>
			<g id="shape47-137" v:mID="47" v:groupContext="shape" transform="translate(1297.7,522.283) rotate(90)">
				<title>工作表.47</title>
				<path d="M0 934.86 L14.88 934.86" class="st3"/>
			</g>
			<g id="shape48-140" v:mID="48" v:groupContext="shape" transform="translate(1382.74,508.247) rotate(90)">
				<title>工作表.48</title>
				<path d="M0 934.86 L28.92 934.86" class="st3"/>
			</g>
			<g id="shape49-143" v:mID="49" v:groupContext="shape" transform="translate(1411.08,523.129) rotate(90)">
				<title>工作表.49</title>
				<path d="M0 934.86 L14.88 934.86" class="st3"/>
			</g>
			<g id="shape50-146" v:mID="50" v:groupContext="shape" transform="translate(1496.12,523.129) rotate(90)">
				<title>工作表.50</title>
				<path d="M0 934.86 L14.88 934.86" class="st3"/>
			</g>
			<g id="shape51-149" v:mID="51" v:groupContext="shape" transform="translate(1467.77,523.129) rotate(90)">
				<title>工作表.51</title>
				<path d="M0 934.86 L14.88 934.86" class="st3"/>
			</g>
			<g id="shape52-152" v:mID="52" v:groupContext="shape" transform="translate(1439.43,523.129) rotate(90)">
				<title>工作表.52</title>
				<path d="M0 934.86 L14.88 934.86" class="st3"/>
			</g>
			<g id="shape53-155" v:mID="53" v:groupContext="shape" transform="translate(1581.16,523.129) rotate(90)">
				<title>工作表.53</title>
				<path d="M0 934.86 L14.88 934.86" class="st3"/>
			</g>
			<g id="shape54-158" v:mID="54" v:groupContext="shape" transform="translate(1552.81,523.838) rotate(90)">
				<title>工作表.54</title>
				<path d="M0 934.86 L14.88 934.86" class="st3"/>
			</g>
			<g id="shape55-161" v:mID="55" v:groupContext="shape" transform="translate(1524.47,523.838) rotate(90)">
				<title>工作表.55</title>
				<path d="M0 934.86 L14.88 934.86" class="st3"/>
			</g>
			<g id="shape56-164" v:mID="56" v:groupContext="shape" transform="translate(1666.2,524.272) rotate(90)">
				<title>工作表.56</title>
				<path d="M0 934.86 L14.88 934.86" class="st3"/>
			</g>
			<g id="shape57-167" v:mID="57" v:groupContext="shape" transform="translate(1722.89,523.129) rotate(90)">
				<title>工作表.57</title>
				<path d="M0 934.86 L14.88 934.86" class="st3"/>
			</g>
			<g id="shape58-170" v:mID="58" v:groupContext="shape" transform="translate(1637.85,524.272) rotate(90)">
				<title>工作表.58</title>
				<path d="M0 934.86 L14.88 934.86" class="st3"/>
			</g>
			<g id="shape59-173" v:mID="59" v:groupContext="shape" transform="translate(1609.51,523.129) rotate(90)">
				<title>工作表.59</title>
				<path d="M0 934.86 L14.88 934.86" class="st3"/>
			</g>
			<g id="shape60-176" v:mID="60" v:groupContext="shape" transform="translate(1694.94,524.272) rotate(90)">
				<title>工作表.60</title>
				<path d="M0 934.86 L14.88 934.86" class="st3"/>
			</g>
			<g id="shape61-179" v:mID="61" v:groupContext="shape" transform="translate(362.835,-412.578)">
				<title>工作表.61</title>
				<path d="M0 934.86 L85.04 934.86" class="st3"/>
			</g>
			<g id="shape62-182" v:mID="62" v:groupContext="shape" transform="translate(476.22,-411.024)">
				<title>工作表.62</title>
				<path d="M0 934.86 L340.16 934.86" class="st3"/>
			</g>
			<g id="shape63-185" v:mID="63" v:groupContext="shape" transform="translate(1382.74,396.279) rotate(90)">
				<title>工作表.63</title>
				<path d="M0 934.86 L14.88 934.86" class="st3"/>
			</g>
			<g id="shape64-188" v:mID="64" v:groupContext="shape" transform="translate(1751.24,382.106) rotate(90)">
				<title>工作表.64</title>
				<path d="M0 934.86 L26.89 934.86" class="st3"/>
			</g>
			<g id="shape65-191" v:mID="65" v:groupContext="shape" transform="translate(447.874,-538.583)">
				<title>工作表.65</title>
				<path d="M0 934.86 L368.5 934.86" class="st3"/>
			</g>
			<g id="shape32-194" v:mID="32" v:groupContext="shape" transform="translate(93.5433,-694.488)">
				<title>工作表.32</title>
				<path d="M0 934.86 L765.35 934.86" class="st4"/>
			</g>
			<g id="shape66-197" v:mID="66" v:groupContext="shape" transform="translate(93.5433,1.13687E-013)">
				<title>工作表.66</title>
				<path d="M0 934.86 L765.35 934.86" class="st4"/>
			</g>
			<g id="shape67-200" v:mID="67" v:groupContext="shape" transform="translate(1028.4,240.373) rotate(90)">
				<title>工作表.67</title>
				<path d="M0 934.86 L694.49 934.86" class="st4"/>
			</g>
			<g id="shape68-203" v:mID="68" v:groupContext="shape" transform="translate(1793.76,240.373) rotate(90)">
				<title>工作表.68</title>
				<path d="M0 934.86 L694.49 934.86" class="st4"/>
			</g>
		</g>
	</g>
</svg>
