<?xml version="1.0" encoding="UTF-8" standalone="no"?>
<!DOCTYPE svg PUBLIC "-//W3C//DTD SVG 1.1//EN" "http://www.w3.org/Graphics/SVG/1.1/DTD/svg11.dtd">
<!-- 由 Microsoft Visio, SVG Export 產生 y36.0478-h.svg 頁-1 -->
<svg xmlns="http://www.w3.org/2000/svg" xmlns:xlink="http://www.w3.org/1999/xlink" xmlns:ev="http://www.w3.org/2001/xml-events"
		width="9.37822in" height="6.25172in" viewBox="0 0 675.232 450.124" xml:space="preserve" color-interpolation-filters="sRGB"
		class="st5">
	<style type="text/css">
	<![CDATA[
		.st1 {fill:none;stroke:none;stroke-linecap:round;stroke-linejoin:round;stroke-width:2.25}
		.st2 {fill:#000000;font-family:新細明體;font-size:1.33333em}
		.st3 {stroke:#000000;stroke-linecap:round;stroke-linejoin:round;stroke-width:2.25}
		.st4 {stroke:#000000;stroke-dasharray:0,6.75;stroke-linecap:round;stroke-linejoin:round;stroke-width:2.25}
		.st5 {fill:none;fill-rule:evenodd;font-size:12px;overflow:visible;stroke-linecap:square;stroke-miterlimit:3}
	]]>
	</style>

	<g>
		<title>頁-1</title>
		<g id="group95-1" transform="translate(1.125,-1.125)">
			<title>工作表.95</title>
			<g id="shape1-2" transform="translate(0,-425.197)">
				<title>工作表.1</title>
				<desc>略示道基</desc>
				<rect x="0" y="427.447" width="77.7337" height="22.6772" class="st1"/>
				<text x="6.87" y="443.59" class="st2">略示道基</text>			</g>
			<g id="shape2-5" transform="translate(2.01645,-214.016)">
				<title>工作表.2</title>
				<desc>分別法義</desc>
				<rect x="0" y="427.447" width="76.5354" height="22.6772" class="st1"/>
				<text x="6.27" y="443.59" class="st2">分別法義</text>			</g>
			<g id="shape3-8" transform="translate(2.54891,-27.393)">
				<title>工作表.3</title>
				<desc>結示宗要</desc>
				<rect x="0" y="427.447" width="75.6077" height="22.6772" class="st1"/>
				<text x="5.8" y="443.59" class="st2">結示宗要</text>			</g>
			<g id="shape4-11" transform="translate(0.422929,5.68434E-14)">
				<title>工作表.4</title>
				<desc>散攝餘義</desc>
				<rect x="0" y="427.447" width="77.7337" height="22.6772" class="st1"/>
				<text x="6.87" y="443.59" class="st2">散攝餘義</text>			</g>
			<g id="shape5-14" transform="translate(100.561,-297.638)">
				<title>工作表.5</title>
				<desc>應知應斷</desc>
				<rect x="0" y="427.447" width="83.403" height="22.6772" class="st1"/>
				<text x="9.7" y="443.59" class="st2">應知應斷</text>			</g>
			<g id="shape6-17" transform="translate(100.047,-141.968)">
				<title>工作表.6</title>
				<desc>應修應證</desc>
				<rect x="0" y="427.447" width="84.5683" height="22.6772" class="st1"/>
				<text x="10.28" y="443.59" class="st2">應修應證</text>			</g>
			<g id="shape7-20" transform="translate(204.694,-382.677)">
				<title>工作表.7</title>
				<desc>業　果</desc>
				<rect x="0" y="427.447" width="56.6929" height="22.6772" class="st1"/>
				<text x="4.35" y="443.59" class="st2">業　果</text>			</g>
			<g id="shape8-23" transform="translate(203.26,-311.811)">
				<title>工作表.8</title>
				<desc>體　用</desc>
				<rect x="0" y="427.447" width="59.5605" height="22.6772" class="st1"/>
				<text x="5.78" y="443.59" class="st2">體　用</text>			</g>
			<g id="shape9-26" transform="translate(202.128,-198.425)">
				<title>工作表.9</title>
				<desc>縛　解</desc>
				<rect x="0" y="427.447" width="60.9778" height="22.6772" class="st1"/>
				<text x="6.49" y="443.59" class="st2">縛　解</text>			</g>
			<g id="shape10-29" transform="translate(203.276,-170.079)">
				<title>工作表.10</title>
				<desc>行　位</desc>
				<rect x="0" y="427.447" width="59.5276" height="22.6772" class="st1"/>
				<text x="5.76" y="443.59" class="st2">行　位</text>			</g>
			<g id="shape11-32" transform="translate(205.899,-99.2126)">
				<title>工作表.11</title>
				<desc>行　法</desc>
				<rect x="0" y="427.447" width="56.6929" height="22.6772" class="st1"/>
				<text x="4.35" y="443.59" class="st2">行　法</text>			</g>
			<g id="shape12-35" transform="translate(288.214,-396.85)">
				<title>工作表.12</title>
				<desc>世　間</desc>
				<rect x="0" y="427.447" width="59.5934" height="22.6772" class="st1"/>
				<text x="5.8" y="443.59" class="st2">世　間</text>			</g>
			<g id="shape13-38" transform="translate(288.553,-368.504)">
				<title>工作表.13</title>
				<desc>行　業</desc>
				<rect x="0" y="427.447" width="59.8983" height="22.6772" class="st1"/>
				<text x="5.95" y="443.59" class="st2">行　業</text>			</g>
			<g id="shape14-41" transform="translate(287.591,-339.465)">
				<title>工作表.14</title>
				<desc>自　性</desc>
				<rect x="0" y="427.447" width="60.9778" height="22.6772" class="st1"/>
				<text x="6.49" y="443.59" class="st2">自　性</text>			</g>
			<g id="shape15-44" transform="translate(290.019,-269.291)">
				<title>工作表.15</title>
				<desc>作　用</desc>
				<rect x="0" y="427.447" width="56.6929" height="22.6772" class="st1"/>
				<text x="4.35" y="443.59" class="st2">作　用</text>			</g>
			<g id="shape16-47" transform="translate(287.522,-141.732)">
				<title>工作表.16</title>
				<desc>智　慧</desc>
				<rect x="0" y="427.447" width="61.6865" height="22.6772" class="st1"/>
				<text x="6.84" y="443.59" class="st2">智　慧</text>			</g>
			<g id="shape17-50" transform="translate(287.305,-99.2291)">
				<title>工作表.17</title>
				<desc>禪　定</desc>
				<rect x="0" y="427.447" width="62.3951" height="22.6772" class="st1"/>
				<text x="7.2" y="443.59" class="st2">禪　定</text>			</g>
			<g id="shape18-53" transform="translate(289.648,-56.6765)">
				<title>工作表.18</title>
				<desc>覺　支</desc>
				<rect x="0" y="427.447" width="56.7258" height="22.6772" class="st1"/>
				<text x="4.36" y="443.59" class="st2">覺　支</text>			</g>
			<g id="shape20-56" transform="translate(544.28,-396.85)">
				<title>工作表.20</title>
				<desc>界道品住食生品</desc>
				<rect x="0" y="427.447" width="127.559" height="22.6772" class="st1"/>
				<text x="0.25em 1.329em 2.408em 3.486em 4.565em 5.644em 6.722em" y="443.59" class="st2">界道品住食生品</text>			</g>
			<g id="shape40-59" transform="translate(544.28,-425.197)">
				<title>工作表.40</title>
				<desc>布施持戒品</desc>
				<rect x="0" y="427.447" width="127.559" height="22.6772" class="st1"/>
				<text x="0.25em 1.868em 3.486em 5.104em 6.722em" y="443.59" class="st2">布施持戒品</text>			</g>
			<g id="shape23-62" transform="translate(376.516,-311.566)">
				<title>工作表.23</title>
				<desc>有為依待</desc>
				<rect x="0" y="427.447" width="74.1904" height="22.6772" class="st1"/>
				<text x="5.1" y="443.59" class="st2">有為依待</text>			</g>
			<g id="shape24-65" transform="translate(369.636,-283.465)">
				<title>工作表.24</title>
				<desc>心法相應</desc>
				<rect x="0" y="427.447" width="87.6549" height="22.6772" class="st1"/>
				<text x="11.83" y="443.59" class="st2">心法相應</text>			</g>
			<g id="shape26-68" transform="translate(377.717,-255.228)">
				<title>工作表.26</title>
				<desc>眾生緣起</desc>
				<rect x="0" y="427.447" width="73.4817" height="22.6772" class="st1"/>
				<text x="4.74" y="443.59" class="st2">眾生緣起</text>			</g>
			<g id="shape27-71" transform="translate(374.596,-226.772)">
				<title>工作表.27</title>
				<desc>染淨增上</desc>
				<rect x="0" y="427.447" width="77.7337" height="22.6772" class="st1"/>
				<text x="6.87" y="443.59" class="st2">染淨增上</text>			</g>
			<g id="shape33-74" transform="translate(370.207,-112.568)">
				<title>工作表.33</title>
				<desc>修定次第</desc>
				<rect x="0" y="427.447" width="83.403" height="22.6772" class="st1"/>
				<text x="9.7" y="443.59" class="st2">修定次第</text>			</g>
			<g id="shape34-77" transform="translate(369.389,-85.0394)">
				<title>工作表.34</title>
				<desc>趣道斷結</desc>
				<rect x="0" y="427.447" width="85.0394" height="22.6772" class="st1"/>
				<text x="10.52" y="443.59" class="st2">趣道斷結</text>			</g>
			<g id="shape19-80" transform="translate(544.28,-340.157)">
				<title>工作表.19</title>
				<desc>陰持入品</desc>
				<rect x="0" y="427.447" width="127.559" height="22.6772" class="st1"/>
				<text x="0.25em 2.408em 4.565em 6.722em" y="443.59" class="st2">陰持入品</text>			</g>
			<g id="shape22-83" transform="translate(544.28,-368.504)">
				<title>工作表.22</title>
				<desc>業品</desc>
				<rect x="0" y="427.447" width="127.559" height="22.6772" class="st1"/>
				<text x="0.25em 6.722em" y="443.59" class="st2">業品</text>			</g>
			<g id="shape21-86" transform="translate(544.28,-297.638)">
				<title>工作表.21</title>
				<desc>行品</desc>
				<rect x="0" y="427.447" width="127.559" height="22.6772" class="st1"/>
				<text x="0.25em 6.722em" y="443.59" class="st2">行品</text>			</g>
			<g id="shape25-89" transform="translate(544.28,-170.079)">
				<title>工作表.25</title>
				<desc>三十七無漏人品</desc>
				<rect x="0" y="427.447" width="127.559" height="22.6772" class="st1"/>
				<text x="0.25em 1.329em 2.408em 3.486em 4.565em 5.644em 6.722em" y="443.59" class="st2">三十七無漏人品</text>			</g>
			<g id="shape31-92" transform="translate(544.28,-255.118)">
				<title>工作表.31</title>
				<desc>因緣種品</desc>
				<rect x="0" y="427.447" width="127.559" height="22.6772" class="st1"/>
				<text x="0.25em 2.408em 4.565em 6.722em" y="443.59" class="st2">因緣種品</text>			</g>
			<g id="shape28-95" transform="translate(544.28,-141.732)">
				<title>工作表.28</title>
				<desc>智品</desc>
				<rect x="0" y="427.447" width="127.559" height="22.6772" class="st1"/>
				<text x="0.25em 6.722em" y="443.59" class="st2">智品</text>			</g>
			<g id="shape32-98" transform="translate(544.28,-55.2756)">
				<title>工作表.32</title>
				<desc>三十七品</desc>
				<rect x="0" y="427.447" width="127.559" height="22.6772" class="st1"/>
				<text x="0.25em 2.408em 4.565em 6.722em" y="443.59" class="st2">三十七品</text>			</g>
			<g id="shape37-101" transform="translate(544.28,-28.3465)">
				<title>工作表.37</title>
				<desc>四諦品</desc>
				<rect x="0" y="427.447" width="127.559" height="22.6772" class="st1"/>
				<text x="0.25em 3.486em 6.722em" y="443.59" class="st2">四諦品</text>			</g>
			<g id="shape38-104" transform="translate(544.28,-113.386)">
				<title>工作表.38</title>
				<desc>定品</desc>
				<rect x="0" y="427.447" width="127.559" height="22.6772" class="st1"/>
				<text x="0.25em 6.722em" y="443.59" class="st2">定品</text>			</g>
			<g id="shape35-107" transform="translate(544.28,-85.0394)">
				<title>工作表.35</title>
				<desc>雜定品</desc>
				<rect x="0" y="427.447" width="127.559" height="22.6772" class="st1"/>
				<text x="0.25em 3.486em 6.722em" y="443.59" class="st2">雜定品</text>			</g>
			<g id="shape36-110" transform="translate(545.423,-1.98952E-12)">
				<title>工作表.36</title>
				<desc>雜品</desc>
				<rect x="0" y="427.447" width="127.559" height="22.6772" class="st1"/>
				<text x="0.25em 6.722em" y="443.59" class="st2">雜品</text>			</g>
			<g id="shape39-113" transform="translate(544.28,-226.772)">
				<title>工作表.39</title>
				<desc>淨根品</desc>
				<rect x="0" y="427.447" width="127.559" height="22.6772" class="st1"/>
				<text x="0.25em 3.486em 6.722em" y="443.59" class="st2">淨根品</text>			</g>
			<g id="shape29-116" transform="translate(543.434,-198.425)">
				<title>工作表.29</title>
				<desc>結使禪智品</desc>
				<rect x="0" y="427.447" width="127.559" height="22.6772" class="st1"/>
				<text x="0.25em 1.868em 3.486em 5.104em 6.722em" y="443.59" class="st2">結使禪智品</text>			</g>
			<g id="shape30-119" transform="translate(346.426,-280.63)">
				<title>工作表.30</title>
				<path d="M0 450.12 L14.17 450.12" class="st3"/>
			</g>
			<g id="shape41-122" transform="translate(-259.604,339.573) rotate(-90)">
				<title>工作表.41</title>
				<path d="M0 450.12 L70.87 450.12" class="st3"/>
			</g>
			<g id="shape44-125" transform="translate(513.963,-318.36) rotate(8.36589)">
				<title>工作表.44</title>
				<path d="M0 450.12 L97.41 450.12" class="st4"/>
			</g>
			<g id="shape48-128" transform="translate(381.916,-289.855) rotate(-8.50315)">
				<title>工作表.48</title>
				<path d="M0 450.12 L96.64 450.12" class="st4"/>
			</g>
			<g id="shape49-131" transform="translate(77.1346,-11.3386)">
				<title>工作表.49</title>
				<path d="M0 450.12 L467.72 450.12" class="st4"/>
			</g>
			<g id="shape56-134" transform="translate(326.511,-80.9574) rotate(-15.7209)">
				<title>工作表.56</title>
				<path d="M0 450.12 L99.39 450.12" class="st4"/>
			</g>
			<g id="shape57-137" transform="translate(448.473,-124.724)">
				<title>工作表.57</title>
				<path d="M0 450.12 L96.38 450.12" class="st4"/>
			</g>
			<g id="shape58-140" transform="translate(448.473,-96.378)">
				<title>工作表.58</title>
				<path d="M0 450.12 L96.38 450.12" class="st4"/>
			</g>
			<g id="shape59-143" transform="translate(-174.564,70.2815) rotate(-90)">
				<title>工作表.59</title>
				<path d="M0 450.12 L28.35 450.12" class="st3"/>
			</g>
			<g id="shape60-146" transform="translate(-259.604,240.36) rotate(-90)">
				<title>工作表.60</title>
				<path d="M0 450.12 L184.25 450.12" class="st3"/>
			</g>
			<g id="shape61-149" transform="translate(91.3078,-153.071)">
				<title>工作表.61</title>
				<path d="M0 450.12 L14.17 450.12" class="st3"/>
			</g>
			<g id="shape62-152" transform="translate(91.3078,-308.976)">
				<title>工作表.62</title>
				<path d="M0 450.12 L14.17 450.12" class="st3"/>
			</g>
			<g id="shape63-155" transform="translate(-358.816,297.053) rotate(-90)">
				<title>工作表.63</title>
				<path d="M0 450.12 L155.91 450.12" class="st3"/>
			</g>
			<g id="shape64-158" transform="translate(77.1346,-223.937)">
				<title>工作表.64</title>
				<path d="M0 450.12 L14.17 450.12" class="st3"/>
			</g>
			<g id="shape65-161" transform="translate(190.52,-394.016)">
				<title>工作表.65</title>
				<path d="M0 450.12 L14.17 450.12" class="st3"/>
			</g>
			<g id="shape66-164" transform="translate(190.52,-209.764)">
				<title>工作表.66</title>
				<path d="M0 450.12 L14.17 450.12" class="st3"/>
			</g>
			<g id="shape67-167" transform="translate(176.347,-308.976)">
				<title>工作表.67</title>
				<path d="M0 450.12 L14.17 450.12" class="st3"/>
			</g>
			<g id="shape68-170" transform="translate(190.52,-110.551)">
				<title>工作表.68</title>
				<path d="M0 450.12 L14.17 450.12" class="st3"/>
			</g>
			<g id="shape69-173" transform="translate(276.131,-153.071)">
				<title>工作表.69</title>
				<path d="M0 450.12 L14.17 450.12" class="st3"/>
			</g>
			<g id="shape70-176" transform="translate(190.52,-182.126)">
				<title>工作表.70</title>
				<path d="M0 450.12 L14.17 450.12" class="st3"/>
			</g>
			<g id="shape71-179" transform="translate(275.423,-68.0315)">
				<title>工作表.71</title>
				<path d="M0 450.12 L14.17 450.12" class="st3"/>
			</g>
			<g id="shape72-182" transform="translate(261.387,-110.551)">
				<title>工作表.72</title>
				<path d="M0 450.12 L14.17 450.12" class="st3"/>
			</g>
			<g id="shape73-185" transform="translate(176.347,-153.78)">
				<title>工作表.73</title>
				<path d="M0 450.12 L14.17 450.12" class="st3"/>
			</g>
			<g id="shape74-188" transform="translate(-174.564,382.093) rotate(-90)">
				<title>工作表.74</title>
				<path d="M0 450.12 L85.04 450.12" class="st3"/>
			</g>
			<g id="shape75-191" transform="translate(276.131,-379.843)">
				<title>工作表.75</title>
				<path d="M0 450.12 L14.17 450.12" class="st3"/>
			</g>
			<g id="shape76-194" transform="translate(275.56,-408.189)">
				<title>工作表.76</title>
				<path d="M0 450.12 L14.17 450.12" class="st3"/>
			</g>
			<g id="shape77-197" transform="translate(275.56,-280.63)">
				<title>工作表.77</title>
				<path d="M0 450.12 L14.17 450.12" class="st3"/>
			</g>
			<g id="shape78-200" transform="translate(275.56,-351.496)">
				<title>工作表.78</title>
				<path d="M0 450.12 L14.17 450.12" class="st3"/>
			</g>
			<g id="shape79-203" transform="translate(261.387,-394.016)">
				<title>工作表.79</title>
				<path d="M0 450.12 L14.17 450.12" class="st3"/>
			</g>
			<g id="shape80-206" transform="translate(-174.564,169.494) rotate(-90)">
				<title>工作表.80</title>
				<path d="M0 450.12 L70.87 450.12" class="st3"/>
			</g>
			<g id="shape81-209" transform="translate(261.387,-323.15)">
				<title>工作表.81</title>
				<path d="M0 450.12 L14.17 450.12" class="st3"/>
			</g>
			<g id="shape82-212" transform="translate(360.599,-238.11)">
				<title>工作表.82</title>
				<path d="M0 450.12 L14.17 450.12" class="st3"/>
			</g>
			<g id="shape83-215" transform="translate(360.599,-323.15)">
				<title>工作表.83</title>
				<path d="M0 450.12 L14.17 450.12" class="st3"/>
			</g>
			<g id="shape84-218" transform="translate(-89.5249,212.014) rotate(-90)">
				<title>工作表.84</title>
				<path d="M0 450.12 L85.04 450.12" class="st3"/>
			</g>
			<g id="shape89-221" transform="translate(360.599,-125.01)">
				<title>工作表.89</title>
				<path d="M0 450.12 L14.17 450.12" class="st3"/>
			</g>
			<g id="shape90-224" transform="translate(360.599,-96.4301)">
				<title>工作表.90</title>
				<path d="M0 450.12 L14.17 450.12" class="st3"/>
			</g>
			<g id="shape91-227" transform="translate(346.426,-110.551)">
				<title>工作表.91</title>
				<path d="M0 450.12 L14.17 450.12" class="st3"/>
			</g>
			<g id="shape92-230" transform="translate(-89.5249,353.694) rotate(-90)">
				<title>工作表.92</title>
				<path d="M0 450.12 L28.58 450.12" class="st3"/>
			</g>
			<g id="shape42-233" transform="translate(346.426,-68.0315)">
				<title>工作表.42</title>
				<path d="M0 450.12 L198.43 450.12" class="st4"/>
			</g>
			<g id="shape43-236" transform="translate(77.1346,-436.535)">
				<title>工作表.43</title>
				<path d="M0 450.12 L467.72 450.12" class="st4"/>
			</g>
			<g id="shape45-239" transform="translate(347.272,-408.189)">
				<title>工作表.45</title>
				<path d="M0 450.12 L197.58 450.12" class="st4"/>
			</g>
			<g id="shape46-242" transform="translate(347.272,-351.496)">
				<title>工作表.46</title>
				<path d="M0 450.12 L197.58 450.12" class="st4"/>
			</g>
			<g id="shape47-245" transform="translate(346.426,-379.843)">
				<title>工作表.47</title>
				<path d="M0 450.12 L197.58 450.12" class="st4"/>
			</g>
			<g id="shape50-248" transform="translate(448.473,-238.11)">
				<title>工作表.50</title>
				<path d="M0 450.12 L95.53 450.12" class="st4"/>
			</g>
			<g id="shape51-251" transform="translate(448.473,-266.457)">
				<title>工作表.51</title>
				<path d="M0 450.12 L95.53 450.12" class="st4"/>
			</g>
			<g id="shape52-254" transform="translate(261.387,-181.417)">
				<title>工作表.52</title>
				<path d="M0 450.12 L282.62 450.12" class="st4"/>
			</g>
			<g id="shape53-257" transform="translate(261.387,-209.764)">
				<title>工作表.53</title>
				<path d="M0 450.12 L282.62 450.12" class="st4"/>
			</g>
			<g id="shape54-260" transform="translate(346.426,-153.071)">
				<title>工作表.54</title>
				<path d="M0 450.12 L197.58 450.12" class="st4"/>
			</g>
			<g id="shape94-263" transform="translate(328.916,4.08195) rotate(-15.7209)">
				<title>工作表.94</title>
				<path d="M0 450.12 L99.39 450.12" class="st4"/>
			</g>
		</g>
	</g>
</svg>
