<?xml version="1.0" encoding="UTF-8" standalone="no"?>
<!DOCTYPE svg PUBLIC "-//W3C//DTD SVG 1.0//EN" "http://www.w3.org/TR/2001/REC-SVG-20010904/DTD/svg10.dtd">
<!-- 由 Microsoft Visio 11.0, SVG Export, v1.0 產生 y36.0155.svg 頁-1 -->
<svg xmlns="http://www.w3.org/2000/svg" xmlns:xlink="http://www.w3.org/1999/xlink" xmlns:ev="http://www.w3.org/2001/xml-events"
		xmlns:v="http://schemas.microsoft.com/visio/2003/SVGExtensions/" width="7.32108in" height="3.25397in"
		viewBox="0 0 527.118 234.286" xml:space="preserve" color-interpolation-filters="sRGB" class="st5">
	<v:documentProperties v:langID="1028" v:metric="true" v:viewMarkup="false"/>

	<style type="text/css">
	<![CDATA[
		.st1 {fill:none;stroke:none;stroke-linecap:round;stroke-linejoin:round;stroke-width:0.75}
		.st2 {fill:#000000;font-family:新細明體;font-size:1.33333em}
		.st3 {stroke:#000000;stroke-linecap:round;stroke-linejoin:round;stroke-width:1}
		.st4 {stroke:#ffffff;stroke-linecap:round;stroke-linejoin:round;stroke-opacity:0;stroke-width:1}
		.st5 {fill:none;fill-rule:evenodd;font-size:12px;overflow:visible;stroke-linecap:square;stroke-miterlimit:3}
	]]>
	</style>

	<g v:mID="0" v:index="1" v:groupContext="foregroundPage">
		<title>頁-1</title>
		<v:pageProperties v:drawingScale="0.0393701" v:pageScale="0.0393701" v:drawingUnits="24" v:shadowOffsetX="8.50394"
				v:shadowOffsetY="-8.50394"/>
		<g id="group23-1" transform="translate(291.832,234.286) rotate(-90)" v:mID="23" v:groupContext="group">
			<title>工作表.23</title>
			<g id="shape1-2" v:mID="1" v:groupContext="shape" transform="translate(356.276,-263.656) rotate(90)">
				<title>工作表.1</title>
				<desc>辯五事品</desc>
				<v:textBlock v:margins="rect(4,4,4,4)" v:tabSpace="42.5197"/>
				<v:textRect cx="38.8668" cy="196.59" width="77.74" height="75.3925"/>
				<rect x="0" y="158.894" width="77.7337" height="75.3925" class="st1"/>
				<text x="6.87" y="201.39" class="st2" v:langID="1028"><v:paragraph v:horizAlign="1"/><v:tabList/>辯五事品</text>			</g>
			<g id="shape2-5" v:mID="2" v:groupContext="shape" transform="translate(306.78,-263.793) rotate(90)">
				<title>工作表.2</title>
				<desc>辯諸處品</desc>
				<v:textBlock v:margins="rect(4,4,4,4)" v:tabSpace="42.5197"/>
				<v:textRect cx="38.1582" cy="196.59" width="76.32" height="75.3925"/>
				<rect x="0" y="158.894" width="76.3164" height="75.3925" class="st1"/>
				<text x="6.16" y="201.39" class="st2" v:langID="1028"><v:paragraph v:horizAlign="1"/><v:tabList/>辯諸處品</text>			</g>
			<g id="shape3-8" v:mID="3" v:groupContext="shape" transform="translate(271.66,-265.279) rotate(90)">
				<title>工作表.3</title>
				<desc>辯諸智品</desc>
				<v:textBlock v:margins="rect(4,4,4,4)" v:tabSpace="42.5197"/>
				<v:textRect cx="39.2212" cy="197.013" width="78.45" height="74.5466"/>
				<rect x="0" y="159.74" width="78.4423" height="74.5466" class="st1"/>
				<text x="7.22" y="201.81" class="st2" v:langID="1028"><v:paragraph v:horizAlign="1"/><v:tabList/>辯諸智品</text>			</g>
			<g id="shape4-11" v:mID="4" v:groupContext="shape" transform="translate(242.36,-264.433) rotate(90)">
				<title>工作表.4</title>
				<desc>辯隨眠品</desc>
				<v:textBlock v:margins="rect(4,4,4,4)" v:tabSpace="42.5197"/>
				<v:textRect cx="39.9298" cy="196.304" width="79.86" height="75.964"/>
				<rect x="0" y="158.322" width="79.8597" height="75.964" class="st1"/>
				<text x="7.93" y="201.1" class="st2" v:langID="1028"><v:paragraph v:horizAlign="1"/><v:tabList/>辯隨眠品</text>			</g>
			<g id="shape5-14" v:mID="5" v:groupContext="shape" transform="translate(323.842,-110.15) rotate(90)">
				<title>工作表.5</title>
				<desc>五事自相分別</desc>
				<v:textBlock v:margins="rect(4,4,4,4)" v:tabSpace="42.5197"/>
				<v:textRect cx="74.1503" cy="163.706" width="148.31" height="141.161"/>
				<rect x="0" y="93.1254" width="148.301" height="141.161" class="st1"/>
				<text x="10.15" y="168.51" class="st2" v:langID="1028"><v:paragraph v:horizAlign="1"/><v:tabList/>五事（自相）分別</text>			</g>
			<g id="shape6-17" v:mID="6" v:groupContext="shape" transform="translate(291.598,-106.252) rotate(90)">
				<title>工作表.6</title>
				<desc>諸門共相分別</desc>
				<v:textBlock v:margins="rect(4,4,4,4)" v:tabSpace="42.5197"/>
				<v:textRect cx="71.3156" cy="159.808" width="142.64" height="148.956"/>
				<rect x="0" y="85.3301" width="142.631" height="148.956" class="st1"/>
				<text x="7.32" y="164.61" class="st2" v:langID="1028"><v:paragraph v:horizAlign="1"/><v:tabList/>諸門（共相）分別</text>			</g>
			<g id="shape7-20" v:mID="7" v:groupContext="shape" transform="translate(360.597,107.065) rotate(90)">
				<title>工作表.7</title>
				<desc>攝所攝</desc>
				<v:textBlock v:margins="rect(4,4,4,4)" v:tabSpace="42.5197"/>
				<v:textRect cx="32.9692" cy="200.911" width="65.94" height="66.7514"/>
				<rect x="0" y="167.535" width="65.9384" height="66.7514" class="st1"/>
				<text x="8.97" y="205.71" class="st2" v:langID="1028"><v:paragraph v:horizAlign="1"/><v:tabList/>攝所攝</text>			</g>
			<g id="shape8-23" v:mID="8" v:groupContext="shape" transform="translate(309.219,108.112) rotate(90)">
				<title>工作表.8</title>
				<desc>識所識</desc>
				<v:textBlock v:margins="rect(4,4,4,4)" v:tabSpace="42.5197"/>
				<v:textRect cx="31.9227" cy="206.225" width="63.85" height="56.1214"/>
				<rect x="0" y="178.165" width="63.8454" height="56.1214" class="st1"/>
				<text x="7.92" y="211.03" class="st2" v:langID="1028"><v:paragraph v:horizAlign="1"/><v:tabList/>識所識</text>			</g>
			<g id="shape9-26" v:mID="9" v:groupContext="shape" transform="translate(279.455,107.689) rotate(90)">
				<title>工作表.9</title>
				<desc>智所知</desc>
				<v:textBlock v:margins="rect(4,4,4,4)" v:tabSpace="42.5197"/>
				<v:textRect cx="31.214" cy="204.808" width="62.43" height="58.9561"/>
				<rect x="0" y="175.33" width="62.428" height="58.9561" class="st1"/>
				<text x="7.21" y="209.61" class="st2" v:langID="1028"><v:paragraph v:horizAlign="1"/><v:tabList/>智所知</text>			</g>
			<g id="shape10-29" v:mID="10" v:groupContext="shape" transform="translate(235.232,107.907) rotate(90)">
				<title>工作表.10</title>
				<desc>隨眠所隨增</desc>
				<v:textBlock v:margins="rect(4,4,4,4)" v:tabSpace="42.5197"/>
				<v:textRect cx="46.3006" cy="188.932" width="92.61" height="90.7087"/>
				<rect x="0" y="143.578" width="92.6012" height="90.7087" class="st1"/>
				<text x="6.3" y="193.73" class="st2" v:langID="1028"><v:paragraph v:horizAlign="1"/><v:tabList/>隨眠所隨增</text>			</g>
			<g id="shape11-32" v:mID="11" v:groupContext="shape" transform="translate(337.28,-106.58) rotate(90)">
				<title>工作表.11</title>
				<path d="M0 234.29 L216 234.29" class="st3"/>
			</g>
			<g id="shape12-35" v:mID="12" v:groupContext="shape" transform="translate(345.784,-191.619) rotate(90)">
				<title>工作表.12</title>
				<path d="M0 234.29 L28.35 234.29" class="st3"/>
			</g>
			<g id="shape13-38" v:mID="13" v:groupContext="shape" transform="translate(343.192,-128.519) rotate(98.5308)">
				<title>工作表.13</title>
				<path d="M0 234.29 L57.33 234.29" class="st3"/>
			</g>
			<g id="shape14-41" v:mID="14" v:groupContext="shape" transform="translate(280.587,-188.785) rotate(90)">
				<title>工作表.14</title>
				<path d="M0 234.29 L298.21 234.29" class="st3"/>
			</g>
			<g id="shape15-44" v:mID="15" v:groupContext="shape" transform="translate(308.933,-188.785) rotate(90)">
				<title>工作表.15</title>
				<path d="M0 234.29 L298.21 234.29" class="st3"/>
			</g>
			<g id="shape16-47" v:mID="16" v:groupContext="shape" transform="translate(393.973,-191.619) rotate(90)">
				<title>工作表.16</title>
				<path d="M0 234.29 L85.04 234.29" class="st3"/>
			</g>
			<g id="shape17-50" v:mID="17" v:groupContext="shape" transform="translate(332.63,-240.669) rotate(70.71)">
				<title>工作表.17</title>
				<path d="M0 234.29 L60.07 234.29" class="st3"/>
			</g>
			<g id="shape18-53" v:mID="18" v:groupContext="shape" transform="translate(393.973,32.3177) rotate(90)">
				<title>工作表.18</title>
				<path d="M0 234.29 L79.37 234.29" class="st3"/>
			</g>
			<g id="shape19-56" v:mID="19" v:groupContext="shape" transform="translate(238.067,-290.832) rotate(90)">
				<title>工作表.19</title>
				<path d="M0 234.29 L524.41 234.29" class="st4"/>
			</g>
			<g id="shape20-59" v:mID="20" v:groupContext="shape" transform="translate(436.492,-290.832) rotate(90)">
				<title>工作表.20</title>
				<path d="M0 234.29 L524.41 234.29" class="st4"/>
			</g>
			<g id="shape21-62" v:mID="21" v:groupContext="shape" transform="translate(4.61764,-525.117) rotate(0.204627)">
				<title>工作表.21</title>
				<path d="M0 234.29 L198.43 234.29" class="st4"/>
			</g>
			<g id="shape22-65" v:mID="22" v:groupContext="shape" transform="translate(4.61764,-0.707167) rotate(0.204627)">
				<title>工作表.22</title>
				<path d="M0 234.29 L198.43 234.29" class="st4"/>
			</g>
		</g>
	</g>
</svg>
