<?xml version="1.0" encoding="UTF-8" standalone="no"?>
<!DOCTYPE svg PUBLIC "-//W3C//DTD SVG 1.1//EN" "http://www.w3.org/Graphics/SVG/1.1/DTD/svg11.dtd">
<!-- 由 Microsoft Visio, SVG Export 產生 y36.0257-h.svg 頁-1 -->
<svg xmlns="http://www.w3.org/2000/svg" xmlns:xlink="http://www.w3.org/1999/xlink" xmlns:ev="http://www.w3.org/2001/xml-events"
		width="7.0616in" height="3.97695in" viewBox="0 0 508.435 286.341" xml:space="preserve" color-interpolation-filters="sRGB"
		class="st5">
	<style type="text/css">
	<![CDATA[
		.st1 {fill:none;stroke:#000000;stroke-linecap:round;stroke-linejoin:round;stroke-width:0.75}
		.st2 {fill:none;stroke:none;stroke-linecap:round;stroke-linejoin:round;stroke-width:0.75}
		.st3 {fill:#000000;font-family:新細明體;font-size:1.33333em}
		.st4 {font-size:1em}
		.st5 {fill:none;fill-rule:evenodd;font-size:12px;overflow:visible;stroke-linecap:square;stroke-miterlimit:3}
	]]>
	</style>

	<g>
		<title>頁-1</title>
		<g id="group54-1" transform="translate(0.375,-0.375)">
			<title>工作表.54</title>
			<g id="shape3-2" transform="translate(-118.388,37.3169) rotate(-90)">
				<title>工作表.3</title>
				<rect x="0" y="134.12" width="36.5669" height="152.22" class="st1"/>
			</g>
			<g id="shape20-4" transform="translate(201.36,37.3169) rotate(-90)">
				<title>工作表.20</title>
				<rect x="0" y="134.12" width="36.5669" height="152.22" class="st1"/>
			</g>
			<g id="shape1-6" transform="translate(335.48,-255.969)">
				<title>工作表.1</title>
				<desc>尊婆須蜜菩薩所集論</desc>
				<rect x="0" y="263.663" width="152.22" height="22.6772" class="st2"/>
				<text x="0.25em 1.252em 2.253em 3.255em 4.257em 5.259em 6.26em 7.262em 8.264em" y="279.8" class="st3">尊婆須蜜菩薩所集論</text>			</g>
			<g id="shape2-9" transform="translate(15.7323,-255.969)">
				<title>工作表.2</title>
				<desc>大　毘　婆　沙　論</desc>
				<rect x="0" y="263.663" width="152.22" height="22.6772" class="st2"/>
				<text x="0.25em" y="279.8" class="st3">大<tspan x="1.252em" dy="0em" class="st4">　</tspan><tspan x="2.253em"
							dy="0em" class="st4">毘</tspan><tspan x="3.255em" dy="0em" class="st4">　</tspan><tspan x="4.257em"
							dy="0em" class="st4">婆</tspan><tspan x="5.259em" dy="0em" class="st4">　</tspan><tspan x="6.26em"
							dy="0em" class="st4">沙</tspan><tspan x="7.262em" dy="0em" class="st4">　</tspan><tspan x="8.264em"
							dy="0em" class="st4">論</tspan></text>			</g>
			<g id="shape7-20" transform="translate(7.99361E-14,-219.402)">
				<title>工作表.7</title>
				<desc>相引生義</desc>
				<rect x="0" y="263.663" width="88.1575" height="22.6772" class="st2"/>
				<text x="12.08" y="279.8" class="st3">相引生義</text>			</g>
			<g id="shape10-23" transform="translate(1.59872E-14,-195.024)">
				<title>工作表.10</title>
				<desc>不相離義</desc>
				<rect x="0" y="263.663" width="88.1575" height="22.6772" class="st2"/>
				<text x="12.08" y="279.8" class="st3">不相離義</text>			</g>
			<g id="shape12-26" transform="translate(1.59872E-14,-170.646)">
				<title>工作表.12</title>
				<desc>有所緣義</desc>
				<rect x="0" y="263.663" width="88.1575" height="22.6772" class="st2"/>
				<text x="12.08" y="279.8" class="st3">有所緣義</text>			</g>
			<g id="shape14-29" transform="translate(5.27578E-13,-121.89)">
				<title>工作表.14</title>
				<desc>常和合義</desc>
				<rect x="0" y="263.663" width="88.1575" height="22.6772" class="st2"/>
				<text x="12.08" y="279.8" class="st3">常和合義</text>			</g>
			<g id="shape30-32" transform="translate(2.07834E-13,-146.268)">
				<title>工作表.30</title>
				<desc>同所緣義</desc>
				<rect x="0" y="263.663" width="88.1575" height="22.6772" class="st2"/>
				<text x="12.08" y="279.8" class="st3">同所緣義</text>			</g>
			<g id="shape38-35" transform="translate(323.433,-219.402)">
				<title>工作表.38</title>
				<desc>乘載義</desc>
				<rect x="0" y="263.663" width="72" height="22.6772" class="st2"/>
				<text x="12" y="279.8" class="st3">乘載義</text>			</g>
			<g id="shape39-38" transform="translate(323.433,-195.024)">
				<title>工作表.39</title>
				<desc>不移動義</desc>
				<rect x="0" y="263.663" width="88.1575" height="22.6772" class="st2"/>
				<text x="12.08" y="279.8" class="st3">不移動義</text>			</g>
			<g id="shape40-41" transform="translate(323.433,-73.1339)">
				<title>工作表.40</title>
				<desc>一起一住一盡義</desc>
				<rect x="0" y="263.663" width="136.063" height="22.6772" class="st2"/>
				<text x="12.03" y="279.8" class="st3">一起一住一盡義</text>			</g>
			<g id="shape41-44" transform="translate(323.433,-170.646)">
				<title>工作表.41</title>
				<desc>有因緣義</desc>
				<rect x="0" y="263.663" width="88.1575" height="22.6772" class="st2"/>
				<text x="12.08" y="279.8" class="st3">有因緣義</text>			</g>
			<g id="shape42-47" transform="translate(323.433,-146.268)">
				<title>工作表.42</title>
				<desc>一因緣義</desc>
				<rect x="0" y="263.663" width="88.1575" height="22.6772" class="st2"/>
				<text x="12.08" y="279.8" class="st3">一因緣義</text>			</g>
			<g id="shape43-50" transform="translate(7.83373E-13,-97.5118)">
				<title>工作表.43</title>
				<desc>恒俱生義</desc>
				<rect x="0" y="263.663" width="88.1575" height="22.6772" class="st2"/>
				<text x="12.08" y="279.8" class="st3">恒俱生義</text>			</g>
			<g id="shape44-53" transform="translate(4.47642E-13,-73.1339)">
				<title>工作表.44</title>
				<desc>俱生住滅義</desc>
				<rect x="0" y="263.663" width="104.031" height="22.6772" class="st2"/>
				<text x="12.02" y="279.8" class="st3">俱生住滅義</text>			</g>
			<g id="shape45-56" transform="translate(7.99361E-13,-48.7559)">
				<title>工作表.45</title>
				<desc>同一所依所緣行相義</desc>
				<rect x="0" y="263.663" width="168.094" height="22.6772" class="st2"/>
				<text x="12.05" y="279.8" class="st3">同一所依所緣行相義</text>			</g>
			<g id="shape46-59" transform="translate(6.39488E-13,-24.378)">
				<title>工作表.46</title>
				<desc>同作一事義</desc>
				<rect x="0" y="263.663" width="104.031" height="22.6772" class="st2"/>
				<text x="12.02" y="279.8" class="st3">同作一事義</text>			</g>
			<g id="shape47-62">
				<title>工作表.47</title>
				<desc>同伴侶義</desc>
				<rect x="0" y="263.663" width="88.1575" height="22.6772" class="st2"/>
				<text x="12.08" y="279.8" class="st3">同伴侶義</text>			</g>
			<g id="shape48-65" transform="translate(323.433,-121.89)">
				<title>工作表.48</title>
				<desc>有悕望義</desc>
				<rect x="0" y="263.663" width="88.1575" height="22.6772" class="st2"/>
				<text x="12.08" y="279.8" class="st3">有悕望義</text>			</g>
			<g id="shape49-68" transform="translate(323.433,-97.5118)">
				<title>工作表.49</title>
				<desc>俱生義</desc>
				<rect x="0" y="263.663" width="72" height="22.6772" class="st2"/>
				<text x="12" y="279.8" class="st3">俱生義</text>			</g>
			<g id="shape50-71" transform="translate(323.433,-48.7559)">
				<title>工作表.50</title>
				<desc>一悕望一因緣一時造義</desc>
				<rect x="0" y="263.663" width="184.252" height="22.6772" class="st2"/>
				<text x="12.13" y="279.8" class="st3">一悕望一因緣一時造義</text>			</g>
			<g id="shape51-74" transform="translate(323.433,-24.378)">
				<title>工作表.51</title>
				<desc>一事所須義</desc>
				<rect x="0" y="263.663" width="104.031" height="22.6772" class="st2"/>
				<text x="12.02" y="279.8" class="st3">一事所須義</text>			</g>
			<g id="shape52-77" transform="translate(323.433,-1.19371E-12)">
				<title>工作表.52</title>
				<desc>千義</desc>
				<rect x="0" y="263.663" width="72" height="22.6772" class="st2"/>
				<text x="20" y="279.8" class="st3">千義</text>			</g>
		</g>
	</g>
</svg>
