<?xml version="1.0" encoding="UTF-8" standalone="no"?>
<!DOCTYPE svg PUBLIC "-//W3C//DTD SVG 1.1//EN" "http://www.w3.org/Graphics/SVG/1.1/DTD/svg11.dtd">
<!-- 由 Microsoft Visio, SVG Export 產生 y36.0691-h.svg 頁-1 -->
<svg xmlns="http://www.w3.org/2000/svg" xmlns:xlink="http://www.w3.org/1999/xlink" xmlns:ev="http://www.w3.org/2001/xml-events"
		width="4.32356in" height="4.26721in" viewBox="0 0 311.296 307.239" xml:space="preserve" color-interpolation-filters="sRGB"
		class="st4">
	<style type="text/css">
	<![CDATA[
		.st1 {fill:none;stroke:none;stroke-linecap:round;stroke-linejoin:round;stroke-width:0.75}
		.st2 {fill:#000000;font-family:新細明體;font-size:1.33333em}
		.st3 {stroke:#000000;stroke-linecap:round;stroke-linejoin:round;stroke-width:1}
		.st4 {fill:none;fill-rule:evenodd;font-size:12px;overflow:visible;stroke-linecap:square;stroke-miterlimit:3}
	]]>
	</style>

	<g>
		<title>頁-1</title>
		<g id="group33-1" transform="translate(0.375,-0.375)">
			<title>工作表.33</title>
			<g id="shape1-2" transform="translate(0.285732,-255.118)">
				<title>工作表.1</title>
				<desc>遮異說</desc>
				<rect x="0" y="284.562" width="56.6929" height="22.6772" class="st1"/>
				<text x="4.35" y="300.7" class="st2">遮異說</text>			</g>
			<g id="shape2-5" transform="translate(0,-99.2126)">
				<title>工作表.2</title>
				<desc>立正義</desc>
				<rect x="0" y="284.562" width="56.6929" height="22.6772" class="st1"/>
				<text x="4.35" y="300.7" class="st2">立正義</text>			</g>
			<g id="shape3-8" transform="translate(84.6916,-283.812)">
				<title>工作表.3</title>
				<desc>過去滅心為緣續生說及其評難</desc>
				<rect x="0" y="284.562" width="221.798" height="22.6772" class="st1"/>
				<text x="6.9" y="300.7" class="st2">過去滅心為緣續生說及其評難</text>			</g>
			<g id="shape4-11" transform="translate(82.7395,-255.118)">
				<title>工作表.4</title>
				<desc>色根及心互為種子說及其評難</desc>
				<rect x="0" y="284.562" width="225.702" height="22.6772" class="st1"/>
				<text x="8.85" y="300.7" class="st2">色根及心互為種子說及其評難</text>			</g>
			<g id="shape5-14" transform="translate(83.4819,-226.772)">
				<title>工作表.5</title>
				<desc>滅定猶有細心說及其評難</desc>
				<rect x="0" y="284.562" width="190.773" height="22.6772" class="st1"/>
				<text x="7.39" y="300.7" class="st2">滅定猶有細心說及其評難</text>			</g>
			<g id="shape6-17" transform="translate(87.874,-198.425)">
				<title>工作表.6</title>
				<desc>標宗義</desc>
				<rect x="0" y="284.562" width="56.6929" height="22.6772" class="st1"/>
				<text x="4.35" y="300.7" class="st2">標宗義</text>			</g>
			<g id="shape7-20" transform="translate(86.4567,-155.906)">
				<title>工作表.7</title>
				<desc>教理證成</desc>
				<rect x="0" y="284.562" width="76.5354" height="22.6772" class="st1"/>
				<text x="6.27" y="300.7" class="st2">教理證成</text>			</g>
			<g id="shape8-23" transform="translate(181.412,-170.079)">
				<title>工作表.8</title>
				<desc>教證</desc>
				<rect x="0" y="284.562" width="47.0565" height="22.6772" class="st1"/>
				<text x="7.53" y="300.7" class="st2">教證</text>			</g>
			<g id="shape9-26" transform="translate(181.343,-141.732)">
				<title>工作表.9</title>
				<desc>理證</desc>
				<rect x="0" y="284.562" width="47.7652" height="22.6772" class="st1"/>
				<text x="7.88" y="300.7" class="st2">理證</text>			</g>
			<g id="shape10-29" transform="translate(86.2541,-112.171)">
				<title>工作表.10</title>
				<desc>會異門</desc>
				<rect x="0" y="284.562" width="59.9328" height="22.6772" class="st1"/>
				<text x="5.97" y="300.7" class="st2">會異門</text>			</g>
			<g id="shape11-32" transform="translate(86.0144,-85.0394)">
				<title>工作表.11</title>
				<desc>所緣行相不可知</desc>
				<rect x="0" y="284.562" width="122.774" height="22.6772" class="st1"/>
				<text x="5.39" y="300.7" class="st2">所緣行相不可知</text>			</g>
			<g id="shape12-35" transform="translate(83.5944,-41.7015)">
				<title>工作表.12</title>
				<desc>通釋妨難</desc>
				<rect x="0" y="284.562" width="77.7337" height="22.6772" class="st1"/>
				<text x="6.87" y="300.7" class="st2">通釋妨難</text>			</g>
			<g id="shape13-38" transform="translate(181.128,-56.6929)">
				<title>工作表.13</title>
				<desc>諸經但說六識難</desc>
				<rect x="0" y="284.562" width="129.419" height="22.6772" class="st1"/>
				<text x="8.71" y="300.7" class="st2">諸經但說六識難</text>			</g>
			<g id="shape14-41" transform="translate(182.613,-28.1253)">
				<title>工作表.14</title>
				<desc>二識一身俱起難</desc>
				<rect x="0" y="284.562" width="125.167" height="22.6772" class="st1"/>
				<text x="6.58" y="300.7" class="st2">二識一身俱起難</text>			</g>
			<g id="shape15-44" transform="translate(80.0522,0)">
				<title>工作表.15</title>
				<desc>遮我而立阿賴耶識</desc>
				<rect x="0" y="284.562" width="146.175" height="22.6772" class="st1"/>
				<text x="9.09" y="300.7" class="st2">遮我而立阿賴耶識</text>			</g>
			<g id="shape17-47" transform="translate(-137.294,266.067) rotate(-89.7227)">
				<title>工作表.17</title>
				<path d="M0 307.24 L28.35 307.24" class="st3"/>
			</g>
			<g id="shape18-50" transform="translate(70.8661,-209.764)">
				<title>工作表.18</title>
				<path d="M0 307.24 L15.59 307.24" class="st3"/>
			</g>
			<g id="shape19-53" transform="translate(70.4432,-238.11)">
				<title>工作表.19</title>
				<path d="M0 307.24 L15.59 307.24" class="st3"/>
			</g>
			<g id="shape20-56" transform="translate(70.0889,-294.803)">
				<title>工作表.20</title>
				<path d="M0 307.24 L15.59 307.24" class="st3"/>
			</g>
			<g id="shape21-59" transform="translate(55.2756,-110.551)">
				<title>工作表.21</title>
				<path d="M0 307.24 L15.59 307.24" class="st3"/>
			</g>
			<g id="shape22-62" transform="translate(70.5917,-11.3386)">
				<title>工作表.22</title>
				<path d="M0 307.24 L15.59 307.24" class="st3"/>
			</g>
			<g id="shape23-65" transform="translate(55.2756,-266.457)">
				<title>工作表.23</title>
				<path d="M0 307.24 L15.59 307.24" class="st3"/>
			</g>
			<g id="shape24-68" transform="translate(-236.373,69.1292) rotate(-90)">
				<title>工作表.24</title>
				<path d="M0 307.24 L56.69 307.24" class="st3"/>
			</g>
			<g id="shape25-71" transform="translate(-236.647,295.476) rotate(-89.9208)">
				<title>工作表.25</title>
				<path d="M0 307.24 L198.43 307.24" class="st3"/>
			</g>
			<g id="shape27-74" transform="translate(170.079,-153.606)">
				<title>工作表.27</title>
				<path d="M0 307.24 L15.59 307.24" class="st3"/>
			</g>
			<g id="shape28-77" transform="translate(170.079,-181.417)">
				<title>工作表.28</title>
				<path d="M0 307.24 L15.59 307.24" class="st3"/>
			</g>
			<g id="shape29-80" transform="translate(155.906,-167.244)">
				<title>工作表.29</title>
				<path d="M0 307.24 L14.17 307.24" class="st3"/>
			</g>
			<g id="shape26-83" transform="translate(169.942,-68.0315)">
				<title>工作表.26</title>
				<path d="M0 307.24 L15.59 307.24" class="st3"/>
			</g>
			<g id="shape30-86" transform="translate(169.942,-39.685)">
				<title>工作表.30</title>
				<path d="M0 307.24 L15.59 307.24" class="st3"/>
			</g>
			<g id="shape31-89" transform="translate(155.906,-53.8583)">
				<title>工作表.31</title>
				<path d="M0 307.24 L13.46 307.24" class="st3"/>
			</g>
			<g id="shape32-92" transform="translate(-137.161,153.634) rotate(-90)">
				<title>工作表.32</title>
				<path d="M0 307.24 L27.81 307.24" class="st3"/>
			</g>
		</g>
	</g>
</svg>
