<?xml version="1.0" encoding="UTF-8" standalone="no"?>
<!DOCTYPE svg PUBLIC "-//W3C//DTD SVG 1.1//EN" "http://www.w3.org/Graphics/SVG/1.1/DTD/svg11.dtd">
<!-- 由 Microsoft Visio, SVG Export 產生 y36.0494-h.svg 頁-1 -->
<svg xmlns="http://www.w3.org/2000/svg" xmlns:xlink="http://www.w3.org/1999/xlink" xmlns:ev="http://www.w3.org/2001/xml-events"
		width="7.1005in" height="4.30523in" viewBox="0 0 511.236 309.976" xml:space="preserve" color-interpolation-filters="sRGB"
		class="st7">
	<style type="text/css">
	<![CDATA[
		.st1 {fill:none;stroke:none;stroke-linecap:round;stroke-linejoin:round;stroke-width:0.75}
		.st2 {fill:#000000;font-family:新細明體;font-size:1.33333em}
		.st3 {fill:none;stroke:#000000;stroke-linecap:round;stroke-linejoin:round;stroke-opacity:0;stroke-width:1}
		.st4 {fill:none;stroke:#000000;stroke-dasharray:0,4.5;stroke-linecap:round;stroke-linejoin:round;stroke-opacity:0;stroke-width:1.5}
		.st5 {fill:none;stroke:#000000;stroke-linecap:round;stroke-linejoin:round;stroke-width:1}
		.st6 {stroke:#000000;stroke-dasharray:0,4.5;stroke-linecap:round;stroke-linejoin:round;stroke-width:1.5}
		.st7 {fill:none;fill-rule:evenodd;font-size:12px;overflow:visible;stroke-linecap:square;stroke-miterlimit:3}
	]]>
	</style>

	<g>
		<title>頁-1</title>
		<g id="group54-1" transform="translate(0.500008,-0.5)">
			<title>工作表.54</title>
			<g id="shape1-2" transform="translate(13.7503,-283.465)">
				<title>工作表.1</title>
				<desc>阿毘曇心論</desc>
				<rect x="0" y="287.299" width="170.079" height="22.6772" class="st1"/>
				<text x="0.25em 2.533em 4.815em 7.097em 9.38em" y="303.44" class="st2">阿毘曇心論</text>			</g>
			<g id="shape3-5" transform="translate(29.1594,-255.085)">
				<title>工作表.3</title>
				<desc>界品</desc>
				<rect x="0" y="287.299" width="56.7587" height="22.6772" class="st1"/>
				<text x="0.25em 2.297em" y="303.44" class="st2">界品</text>			</g>
			<g id="shape9-8" transform="translate(30.0331,-83.9599)">
				<title>工作表.9</title>
				<desc>定　品</desc>
				<rect x="0" y="287.299" width="58.8518" height="22.6772" class="st1"/>
				<text x="5.43" y="303.44" class="st2">定　品</text>			</g>
			<g id="shape12-11" transform="translate(25.1759,-0.235528)">
				<title>工作表.12</title>
				<desc>問論品</desc>
				<rect x="0" y="287.299" width="95.9069" height="22.6772" class="st1"/>
				<text x="7.95" y="303.44" class="st2">（問）論品</text>			</g>
			<g id="shape22-14" transform="translate(325.984,-283.465)">
				<title>工作表.22</title>
				<desc>甘露味論</desc>
				<rect x="0" y="287.299" width="170.079" height="22.6772" class="st1"/>
				<text x="0.25em 3.293em 6.337em 9.38em" y="303.44" class="st2">甘露味論</text>			</g>
			<g id="shape2-17" transform="translate(5.66929,-257.953)">
				<title>工作表.2</title>
				<desc>1.</desc>
				<rect x="0" y="287.299" width="28.3465" height="22.6772" class="st3"/>
				<text x="8.53" y="303.44" class="st2">1.</text>			</g>
			<g id="shape23-20" transform="translate(29.1594,-226.805)">
				<title>工作表.23</title>
				<desc>行品</desc>
				<rect x="0" y="287.299" width="56.7587" height="22.6772" class="st1"/>
				<text x="0.25em 2.297em" y="303.44" class="st2">行品</text>			</g>
			<g id="shape4-23" transform="translate(29.1594,-198.458)">
				<title>工作表.4</title>
				<desc>業品</desc>
				<rect x="0" y="287.299" width="56.7587" height="22.6772" class="st1"/>
				<text x="0.25em 2.297em" y="303.44" class="st2">業品</text>			</g>
			<g id="shape5-26" transform="translate(30.3023,-170.112)">
				<title>工作表.5</title>
				<desc>使品</desc>
				<rect x="0" y="287.299" width="56.7587" height="22.6772" class="st1"/>
				<text x="0.25em 2.297em" y="303.44" class="st2">使品</text>			</g>
			<g id="shape6-29" transform="translate(30.3023,-141.765)">
				<title>工作表.6</title>
				<desc>賢聖品</desc>
				<rect x="0" y="287.299" width="56.7587" height="22.6772" class="st1"/>
				<text x="4.38" y="303.44" class="st2">賢聖品</text>			</g>
			<g id="shape7-32" transform="translate(30.3023,-113.419)">
				<title>工作表.7</title>
				<desc>智品</desc>
				<rect x="0" y="287.299" width="56.7587" height="22.6772" class="st1"/>
				<text x="0.25em 2.297em" y="303.44" class="st2">智品</text>			</g>
			<g id="shape8-35" transform="translate(30.3023,-56.7258)">
				<title>工作表.8</title>
				<desc>契經品</desc>
				<rect x="0" y="287.299" width="56.7587" height="22.6772" class="st1"/>
				<text x="4.38" y="303.44" class="st2">契經品</text>			</g>
			<g id="shape10-38" transform="translate(30.3023,-28.3135)">
				<title>工作表.10</title>
				<desc>雜品</desc>
				<rect x="0" y="287.299" width="56.7587" height="22.6772" class="st1"/>
				<text x="0.25em 2.297em" y="303.44" class="st2">雜品</text>			</g>
			<g id="shape11-41" transform="translate(5.66929,-229.606)">
				<title>工作表.11</title>
				<desc>2.</desc>
				<rect x="0" y="287.299" width="28.3465" height="22.6772" class="st3"/>
				<text x="8.53" y="303.44" class="st2">2.</text>			</g>
			<g id="shape24-44" transform="translate(5.66929,-198.425)">
				<title>工作表.24</title>
				<desc>3.</desc>
				<rect x="0" y="287.299" width="28.3465" height="22.6772" class="st3"/>
				<text x="8.53" y="303.44" class="st2">3.</text>			</g>
			<g id="shape25-47" transform="translate(5.66929,-170.079)">
				<title>工作表.25</title>
				<desc>4.</desc>
				<rect x="0" y="287.299" width="28.3465" height="22.6772" class="st3"/>
				<text x="8.53" y="303.44" class="st2">4.</text>			</g>
			<g id="shape26-50" transform="translate(5.66929,-141.732)">
				<title>工作表.26</title>
				<desc>5.</desc>
				<rect x="0" y="287.299" width="28.3465" height="22.6772" class="st3"/>
				<text x="8.53" y="303.44" class="st2">5.</text>			</g>
			<g id="shape27-53" transform="translate(5.66929,-113.386)">
				<title>工作表.27</title>
				<desc>6.</desc>
				<rect x="0" y="287.299" width="28.3465" height="22.6772" class="st3"/>
				<text x="8.53" y="303.44" class="st2">6.</text>			</g>
			<g id="shape28-56" transform="translate(5.66929,-85.0394)">
				<title>工作表.28</title>
				<desc>7.</desc>
				<rect x="0" y="287.299" width="28.3465" height="22.6772" class="st3"/>
				<text x="8.53" y="303.44" class="st2">7.</text>			</g>
			<g id="shape29-59" transform="translate(5.66929,-56.6929)">
				<title>工作表.29</title>
				<desc>8.</desc>
				<rect x="0" y="287.299" width="28.3465" height="22.6772" class="st3"/>
				<text x="8.53" y="303.44" class="st2">8.</text>			</g>
			<g id="shape30-62" transform="translate(5.66929,-28.3465)">
				<title>工作表.30</title>
				<desc>9.</desc>
				<rect x="0" y="287.299" width="28.3465" height="22.6772" class="st3"/>
				<text x="8.53" y="303.44" class="st2">9.</text>			</g>
			<g id="shape31-65" transform="translate(5.66929,0)">
				<title>工作表.31</title>
				<desc>10.</desc>
				<rect x="0" y="287.299" width="28.3465" height="22.6772" class="st3"/>
				<text x="4.77" y="303.44" class="st2">10.</text>			</g>
			<g id="shape34-68" transform="translate(406.167,-85.0723)">
				<title>工作表.34</title>
				<desc>雜定品</desc>
				<rect x="0" y="287.299" width="56.7587" height="22.6772" class="st1"/>
				<text x="0.25em 1.274em 2.297em" y="303.44" class="st2">雜定品</text>			</g>
			<g id="shape13-71" transform="translate(326.3,-255.118)">
				<title>工作表.13</title>
				<desc>陰持入品</desc>
				<rect x="0" y="287.299" width="74.1904" height="22.6772" class="st1"/>
				<text x="5.1" y="303.44" class="st2">陰持入品</text>			</g>
			<g id="shape16-74" transform="translate(324.231,-170.079)">
				<title>工作表.16</title>
				<desc>結使禪智品</desc>
				<rect x="0" y="287.299" width="93.0723" height="22.6772" class="st1"/>
				<text x="6.54" y="303.44" class="st2">結使禪智品</text>			</g>
			<g id="shape17-77" transform="translate(322.357,-141.732)">
				<title>工作表.17</title>
				<desc>三十七無漏人品</desc>
				<rect x="0" y="287.299" width="128.001" height="22.6772" class="st1"/>
				<text x="8" y="303.44" class="st2">三十七無漏人品</text>			</g>
			<g id="shape32-80" transform="translate(326.585,-227.016)">
				<title>工作表.32</title>
				<desc>行品</desc>
				<rect x="0" y="287.299" width="74.1904" height="22.6772" class="st1"/>
				<text x="0.25em 3.387em" y="303.44" class="st2">行品</text>			</g>
			<g id="shape14-83" transform="translate(326.3,-198.67)">
				<title>工作表.14</title>
				<desc>業品</desc>
				<rect x="0" y="287.299" width="74.1904" height="22.6772" class="st1"/>
				<text x="0.25em 3.387em" y="303.44" class="st2">業品</text>			</g>
			<g id="shape18-86" transform="translate(325.951,-113.419)">
				<title>工作表.18</title>
				<desc>智品</desc>
				<rect x="0" y="287.299" width="56.7587" height="22.6772" class="st1"/>
				<text x="0.25em 2.297em" y="303.44" class="st2">智品</text>			</g>
			<g id="shape15-89" transform="translate(325.168,-84.7946)">
				<title>工作表.15</title>
				<desc>禪定品‧</desc>
				<rect x="0" y="287.299" width="74.1904" height="22.6772" class="st1"/>
				<text x="5.1" y="303.44" class="st2">禪定品‧</text>			</g>
			<g id="shape33-92" transform="translate(310.932,-56.7258)">
				<title>工作表.33</title>
				<desc>餘八品</desc>
				<rect x="0" y="287.299" width="56.7587" height="22.6772" class="st1"/>
				<text x="4.38" y="303.44" class="st2">餘八品</text>			</g>
			<g id="shape19-95" transform="translate(318.293,-28.3794)">
				<title>工作表.19</title>
				<desc>雜品</desc>
				<rect x="0" y="287.299" width="56.7587" height="22.6772" class="st1"/>
				<text x="12.38" y="303.44" class="st2">雜品</text>			</g>
			<g id="shape20-98" transform="translate(306.142,-198.425)">
				<title>工作表.20</title>
				<desc>4.</desc>
				<rect x="0" y="287.299" width="28.3465" height="22.6772" class="st3"/>
				<text x="8.53" y="303.44" class="st2">4.</text>			</g>
			<g id="shape21-101" transform="translate(306.142,-255.118)">
				<title>工作表.21</title>
				<desc>5.</desc>
				<rect x="0" y="287.299" width="28.3465" height="22.6772" class="st3"/>
				<text x="8.53" y="303.44" class="st2">5.</text>			</g>
			<g id="shape35-104" transform="translate(306.142,-226.772)">
				<title>工作表.35</title>
				<desc>6.</desc>
				<rect x="0" y="287.299" width="28.3465" height="22.6772" class="st3"/>
				<text x="8.53" y="303.44" class="st2">6.</text>			</g>
			<g id="shape36-107" transform="translate(306.142,-170.079)">
				<title>工作表.36</title>
				<desc>9.</desc>
				<rect x="0" y="287.299" width="28.3465" height="22.6772" class="st3"/>
				<text x="8.53" y="303.44" class="st2">9.</text>			</g>
			<g id="shape37-110" transform="translate(306.142,-141.732)">
				<title>工作表.37</title>
				<desc>10.</desc>
				<rect x="0" y="287.299" width="28.3465" height="22.6772" class="st3"/>
				<text x="4.77" y="303.44" class="st2">10.</text>			</g>
			<g id="shape38-113" transform="translate(306.142,-113.386)">
				<title>工作表.38</title>
				<desc>11.</desc>
				<rect x="0" y="287.299" width="28.3465" height="22.6772" class="st3"/>
				<text x="4.77" y="303.44" class="st2">11.</text>			</g>
			<g id="shape39-116" transform="translate(306.142,-85.0394)">
				<title>工作表.39</title>
				<desc>12.</desc>
				<path d="M0 309.98 L28.35 309.98 L28.35 287.3 L0 287.3 L0 309.98 Z" class="st4"/>
				<text x="4.77" y="303.44" class="st2">12.</text>			</g>
			<g id="shape40-119" transform="translate(385.512,-85.0394)">
				<title>工作表.40</title>
				<desc>13.</desc>
				<rect x="0" y="287.299" width="28.3465" height="22.6772" class="st3"/>
				<text x="4.77" y="303.44" class="st2">13.</text>			</g>
			<g id="shape41-122" transform="translate(306.142,-28.3465)">
				<title>工作表.41</title>
				<desc>16.</desc>
				<rect x="0" y="287.299" width="28.3465" height="22.6772" class="st3"/>
				<text x="4.77" y="303.44" class="st2">16.</text>			</g>
			<g id="shape42-125" transform="translate(200.26,29.3465) rotate(-90)">
				<title>工作表.42</title>
				<rect x="0" y="111.551" width="28.3465" height="198.425" class="st5"/>
			</g>
			<g id="shape43-127" transform="translate(-111.551,29.3465) rotate(-90)">
				<title>工作表.43</title>
				<rect x="0" y="111.551" width="28.3465" height="198.425" class="st5"/>
			</g>
			<g id="shape44-129" transform="translate(87.874,-39.685)">
				<title>工作表.44</title>
				<path d="M0 309.98 L222.25 309.98" class="st6"/>
			</g>
			<g id="shape45-132" transform="translate(86.7311,-68.0973)">
				<title>工作表.45</title>
				<path d="M0 309.98 L222.25 309.98" class="st6"/>
			</g>
			<g id="shape46-135" transform="translate(86.7311,-96.378)">
				<title>工作表.46</title>
				<path d="M0 309.98 L222.25 309.98" class="st6"/>
			</g>
			<g id="shape47-138" transform="translate(86.7311,-124.724)">
				<title>工作表.47</title>
				<path d="M0 309.98 L222.25 309.98" class="st6"/>
			</g>
			<g id="shape48-141" transform="translate(86.7311,-153.137)">
				<title>工作表.48</title>
				<path d="M0 309.98 L222.25 309.98" class="st6"/>
			</g>
			<g id="shape49-144" transform="translate(86.7311,-181.483)">
				<title>工作表.49</title>
				<path d="M0 309.98 L222.25 309.98" class="st6"/>
			</g>
			<g id="shape50-147" transform="translate(86.7311,-209.764)">
				<title>工作表.50</title>
				<path d="M0 309.98 L222.25 309.98" class="st6"/>
			</g>
			<g id="shape51-150" transform="translate(86.7311,-238.11)">
				<title>工作表.51</title>
				<path d="M0 309.98 L222.25 309.98" class="st6"/>
			</g>
			<g id="shape52-153" transform="translate(86.7311,-266.457)">
				<title>工作表.52</title>
				<path d="M0 309.98 L222.25 309.98" class="st6"/>
			</g>
		</g>
	</g>
</svg>
