<?xml version="1.0" encoding="UTF-8" standalone="no"?>
<!DOCTYPE svg PUBLIC "-//W3C//DTD SVG 1.1//EN" "http://www.w3.org/Graphics/SVG/1.1/DTD/svg11.dtd">
<!-- 由 Microsoft Visio, SVG Export 產生 y36.0013-1-h.svg 頁-1 -->
<svg xmlns="http://www.w3.org/2000/svg" xmlns:xlink="http://www.w3.org/1999/xlink" xmlns:ev="http://www.w3.org/2001/xml-events"
		width="7.63325in" height="1.9405in" viewBox="0 0 549.594 139.716" xml:space="preserve" color-interpolation-filters="sRGB"
		class="st7">
	<style type="text/css">
	<![CDATA[
		.st1 {stroke:#000000;stroke-linecap:round;stroke-linejoin:round;stroke-width:1}
		.st2 {fill:none;stroke:none;stroke-linecap:round;stroke-linejoin:round;stroke-width:0.75}
		.st3 {fill:#000000;font-family:新細明體;font-size:1.33333em}
		.st4 {font-family:Times New Roman;font-size:1em}
		.st5 {fill:none;stroke:#000000;stroke-linecap:round;stroke-linejoin:round;stroke-opacity:0;stroke-width:1}
		.st6 {fill:none;stroke:#000000;stroke-linecap:round;stroke-linejoin:round;stroke-opacity:0;stroke-width:0.75}
		.st7 {fill:none;fill-rule:evenodd;font-size:12px;overflow:visible;stroke-linecap:square;stroke-miterlimit:3}
	]]>
	</style>

	<g>
		<title>頁-1</title>
		<g id="group32-1" transform="translate(0.5,-0.375)">
			<title>工作表.32</title>
			<g id="shape5-2" transform="translate(325.984,-41.1364)">
				<title>工作表.5</title>
				<path d="M0 139.72 L63.07 139.72" class="st1"/>
			</g>
			<g id="shape6-5" transform="translate(289.134,-69.4829)">
				<title>工作表.6</title>
				<path d="M0 139.72 L13.46 139.72" class="st1"/>
			</g>
			<g id="shape7-8" transform="translate(30.363,98.5793) rotate(-90)">
				<title>工作表.7</title>
				<path d="M0 139.72 L56.69 139.72" class="st1"/>
			</g>
			<g id="shape13-11" transform="translate(382.677,-116.562)">
				<title>工作表.13</title>
				<desc>Vātsīputrīya</desc>
				<rect x="0" y="117.312" width="155.906" height="22.4037" class="st2"/>
				<text x="4" y="133.5" class="st3">（<tspan class="st4">Vātsīputrīya</tspan>）</text>			</g>
			<g id="shape14-15" transform="translate(382.677,-55.5467)">
				<title>工作表.14</title>
				<desc>Sarvāstivādin</desc>
				<rect x="0" y="108.394" width="154.449" height="31.322" class="st2"/>
				<text x="4" y="129.04" class="st3">（<tspan class="st4">Sarvāstivādin</tspan>）</text>			</g>
			<g id="shape15-19" transform="translate(382.677,-27.5999)">
				<title>工作表.15</title>
				<desc>Vibhajyavādin</desc>
				<rect x="0" y="109.193" width="147.778" height="30.5227" class="st2"/>
				<text x="4" y="129.44" class="st3">（<tspan class="st4">Vibhajyavādin</tspan>）</text>			</g>
			<g id="shape16-23" transform="translate(382.677,0)">
				<title>工作表.16</title>
				<desc>Mahāsāṃghika</desc>
				<rect x="0" y="108.193" width="166.042" height="31.5226" class="st2"/>
				<text x="4" y="128.94" class="st3">（<tspan class="st4">Mahāsāṃghika</tspan>）</text>			</g>
			<g id="shape10-27" transform="translate(296.22,-87.1994)">
				<title>工作表.10</title>
				<desc>雪山部</desc>
				<rect x="0" y="117.039" width="94.9606" height="22.6772" class="st5"/>
				<text x="7.48" y="133.18" class="st3">（雪山部）</text>			</g>
			<g id="shape1-30" transform="translate(298.346,-58.1443)">
				<title>工作表.1</title>
				<desc>說一切有部</desc>
				<rect x="0" y="117.039" width="90.7087" height="22.6772" class="st5"/>
				<text x="5.35" y="133.18" class="st3">說一切有部</text>			</g>
			<g id="shape11-33" transform="translate(298.346,-114.837)">
				<title>工作表.11</title>
				<desc>犢子部</desc>
				<rect x="0" y="117.039" width="59.5276" height="22.6772" class="st5"/>
				<text x="5.76" y="133.18" class="st3">犢子部</text>			</g>
			<g id="shape2-36" transform="translate(179.284,-29.7978)">
				<title>工作表.2</title>
				<desc>上座分別說部</desc>
				<rect x="0" y="117.039" width="151.668" height="22.6772" class="st6"/>
				<text x="11.83" y="133.18" class="st3">（上座）分別說部</text>			</g>
			<g id="shape9-39" transform="translate(184.252,-86.4907)">
				<title>工作表.9</title>
				<desc>上座部</desc>
				<rect x="0" y="117.039" width="59.5276" height="22.6772" class="st5"/>
				<text x="5.76" y="133.18" class="st3">上座部</text>			</g>
			<g id="shape4-42" transform="translate(141.732,-12.7899)">
				<title>工作表.4</title>
				<path d="M0 139.72 L246.61 139.72" class="st1"/>
			</g>
			<g id="shape21-45" transform="translate(141.732,-69.4829)">
				<title>工作表.21</title>
				<path d="M0 139.72 L28.35 139.72" class="st1"/>
			</g>
			<g id="shape22-48" transform="translate(42.5197,-41.1364)">
				<title>工作表.22</title>
				<path d="M0 139.72 L28.35 139.72" class="st1"/>
			</g>
			<g id="shape23-51" transform="translate(70.8661,-12.7899)">
				<title>工作表.23</title>
				<path d="M0 139.72 L13.46 139.72" class="st1"/>
			</g>
			<g id="shape24-54" transform="translate(70.8661,-69.4829)">
				<title>工作表.24</title>
				<path d="M0 139.72 L13.46 139.72" class="st1"/>
			</g>
			<g id="shape3-57" transform="translate(3.59712E-14,-26.9632)">
				<title>工作表.3</title>
				<desc>佛法</desc>
				<rect x="0" y="117.039" width="45.3543" height="22.6772" class="st5"/>
				<text x="6.68" y="133.18" class="st3">佛法</text>			</g>
			<g id="shape8-60" transform="translate(86.4567,-39.7191)">
				<title>工作表.8</title>
				<desc>上座部</desc>
				<rect x="0" y="80.1882" width="59.5276" height="59.5276" class="st5"/>
				<text x="5.76" y="114.75" class="st3">上座部</text>			</g>
			<g id="shape12-63" transform="translate(86.4567,-1.45136)">
				<title>工作表.12</title>
				<desc>大眾部</desc>
				<rect x="0" y="117.039" width="59.5276" height="22.6772" class="st5"/>
				<text x="5.76" y="133.18" class="st3">大眾部</text>			</g>
			<g id="shape25-66" transform="translate(-68.8496,126.926) rotate(-90)">
				<title>工作表.25</title>
				<path d="M0 139.72 L56.69 139.72" class="st1"/>
			</g>
			<g id="shape26-69" transform="translate(170.079,-41.1364)">
				<title>工作表.26</title>
				<path d="M0 139.72 L13.46 139.72" class="st1"/>
			</g>
			<g id="shape27-72" transform="translate(170.787,-97.8293)">
				<title>工作表.27</title>
				<path d="M0 139.72 L13.46 139.72" class="st1"/>
			</g>
			<g id="shape28-75" transform="translate(354.331,-126.176)">
				<title>工作表.28</title>
				<path d="M0 139.72 L36.85 139.72" class="st1"/>
			</g>
			<g id="shape29-78" transform="translate(149.418,70.2329) rotate(-90)">
				<title>工作表.29</title>
				<path d="M0 139.72 L56.69 139.72" class="st1"/>
			</g>
			<g id="shape30-81" transform="translate(240.945,-97.8293)">
				<title>工作表.30</title>
				<path d="M0 139.72 L48.19 139.72" class="st1"/>
			</g>
			<g id="shape31-84" transform="translate(289.134,-126.176)">
				<title>工作表.31</title>
				<path d="M0 139.72 L13.46 139.72" class="st1"/>
			</g>
		</g>
	</g>
</svg>
