<?xml version="1.0" encoding="UTF-8" standalone="no"?>
<!DOCTYPE svg PUBLIC "-//W3C//DTD SVG 1.1//EN" "http://www.w3.org/Graphics/SVG/1.1/DTD/svg11.dtd">
<!-- 由 Microsoft Visio, SVG Export 產生 y36.0284.svg 頁-1 -->
<svg xmlns="http://www.w3.org/2000/svg" xmlns:xlink="http://www.w3.org/1999/xlink" xmlns:ev="http://www.w3.org/2001/xml-events"
		width="6.40412in" height="3.63837in" viewBox="0 0 461.096 261.963" xml:space="preserve" color-interpolation-filters="sRGB"
		class="st4">
	<style type="text/css">
	<![CDATA[
		.st1 {fill:none;stroke:none;stroke-linecap:round;stroke-linejoin:round;stroke-width:0.75}
		.st2 {fill:#000000;font-family:新細明體;font-size:1.33333em}
		.st3 {fill:none;stroke:#000000;stroke-linecap:round;stroke-linejoin:round;stroke-width:0.75}
		.st4 {fill:none;fill-rule:evenodd;font-size:12px;overflow:visible;stroke-linecap:square;stroke-miterlimit:3}
	]]>
	</style>

	<g>
		<title>頁-1</title>
		<g id="group32-1" transform="translate(0.375,-0.375)">
			<title>工作表.32</title>
			<g id="shape1-2" transform="translate(336.189,-231.591)">
				<title>工作表.1</title>
				<desc>齊公寺傳</desc>
				<rect x="0" y="239.285" width="120.189" height="22.6772" class="st1"/>
				<text x="0.25em 2.254em 4.258em 6.262em" y="255.42" class="st2">齊公寺傳</text>			</g>
			<g id="shape3-5" transform="translate(-121.364,37.3169) rotate(-90)">
				<title>工作表.3</title>
				<rect x="0" y="133.837" width="36.5669" height="128.126" class="st3"/>
			</g>
			<g id="shape2-7" transform="translate(16.4409,-231.591)">
				<title>工作表.2</title>
				<desc>舊記所傳</desc>
				<rect x="0" y="239.285" width="120.189" height="22.6772" class="st1"/>
				<text x="0.25em 2.254em 4.258em 6.262em" y="255.42" class="st2">舊記所傳</text>			</g>
			<g id="shape5-10" transform="translate(320.173,-195.024)">
				<title>工作表.5</title>
				<desc>六、婆須蜜</desc>
				<rect x="0" y="239.285" width="104.031" height="22.6772" class="st1"/>
				<text x="12.02" y="255.42" class="st2">六、婆須蜜</text>			</g>
			<g id="shape7-13" transform="translate(0,-195.024)">
				<title>工作表.7</title>
				<desc>八、婆須蜜世友</desc>
				<rect x="0" y="239.285" width="168.094" height="22.6772" class="st1"/>
				<text x="12.05" y="255.42" class="st2">八、婆須蜜（世友）</text>			</g>
			<g id="shape9-16" transform="translate(320.173,-170.646)">
				<title>工作表.9</title>
				<desc>七、吉栗瑟那</desc>
				<rect x="0" y="239.285" width="120.189" height="22.6772" class="st1"/>
				<text x="12.09" y="255.42" class="st2">七、吉栗瑟那</text>			</g>
			<g id="shape10-19" transform="translate(-7.99361E-15,-170.646)">
				<title>工作表.10</title>
				<desc>九、吉栗瑟那</desc>
				<rect x="0" y="239.285" width="120.189" height="22.6772" class="st1"/>
				<text x="12.09" y="255.42" class="st2">九、吉栗瑟那</text>			</g>
			<g id="shape20-22" transform="translate(198.384,37.3169) rotate(-90)">
				<title>工作表.20</title>
				<rect x="0" y="133.837" width="36.5669" height="128.126" class="st3"/>
			</g>
			<g id="shape21-24" transform="translate(0,-146.268)">
				<title>工作表.21</title>
				<desc>十、脇</desc>
				<rect x="0" y="239.285" width="72" height="22.6772" class="st1"/>
				<text x="12" y="255.42" class="st2">十、脇</text>			</g>
			<g id="shape22-27" transform="translate(9.59233E-14,-121.89)">
				<title>工作表.22</title>
				<desc>十一、馬鳴</desc>
				<rect x="0" y="239.285" width="104.031" height="22.6772" class="st1"/>
				<text x="12.02" y="255.42" class="st2">十一、馬鳴</text>			</g>
			<g id="shape23-30" transform="translate(9.59233E-14,-97.5118)">
				<title>工作表.23</title>
				<desc>十二、鳩摩羅馱</desc>
				<rect x="0" y="239.285" width="136.063" height="22.6772" class="st1"/>
				<text x="12.03" y="255.42" class="st2">十二、鳩摩羅馱</text>			</g>
			<g id="shape24-33" transform="translate(2.23821E-13,-73.1339)">
				<title>工作表.24</title>
				<desc>十三、韋羅</desc>
				<rect x="0" y="239.285" width="104.031" height="22.6772" class="st1"/>
				<text x="12.02" y="255.42" class="st2">十三、韋羅</text>			</g>
			<g id="shape25-36" transform="translate(3.51719E-13,-48.7559)">
				<title>工作表.25</title>
				<desc>十四、瞿沙</desc>
				<rect x="0" y="239.285" width="104.031" height="22.6772" class="st1"/>
				<text x="12.02" y="255.42" class="st2">十四、瞿沙</text>			</g>
			<g id="shape26-39" transform="translate(5.03597E-13,-24.378)">
				<title>工作表.26</title>
				<desc>十五、富樓那</desc>
				<rect x="0" y="239.285" width="120.189" height="22.6772" class="st1"/>
				<text x="12.09" y="255.42" class="st2">十五、富樓那</text>			</g>
			<g id="shape27-42">
				<title>工作表.27</title>
				<desc>十六、後馬鳴</desc>
				<rect x="0" y="239.285" width="120.189" height="22.6772" class="st1"/>
				<text x="12.09" y="255.42" class="st2">十六、後馬鳴</text>			</g>
			<g id="shape28-45" transform="translate(320.173,-146.268)">
				<title>工作表.28</title>
				<desc>八、勒</desc>
				<rect x="0" y="239.285" width="72" height="22.6772" class="st1"/>
				<text x="12" y="255.42" class="st2">八、勒</text>			</g>
			<g id="shape29-48" transform="translate(320.173,-121.89)">
				<title>工作表.29</title>
				<desc>九、馬鳴</desc>
				<rect x="0" y="239.285" width="88.1575" height="22.6772" class="st1"/>
				<text x="12.08" y="255.42" class="st2">九、馬鳴</text>			</g>
			<g id="shape30-51" transform="translate(320.173,-48.7559)">
				<title>工作表.30</title>
				<desc>十、瞿沙</desc>
				<rect x="0" y="239.285" width="88.1575" height="22.6772" class="st1"/>
				<text x="12.08" y="255.42" class="st2">十、瞿沙</text>			</g>
			<g id="shape31-54" transform="translate(320.173,-24.378)">
				<title>工作表.31</title>
				<desc>十一、富樓那</desc>
				<rect x="0" y="239.285" width="120.189" height="22.6772" class="st1"/>
				<text x="12.09" y="255.42" class="st2">十一、富樓那</text>			</g>
		</g>
	</g>
</svg>
