<?xml version="1.0" encoding="UTF-8" standalone="no"?>
<!DOCTYPE svg PUBLIC "-//W3C//DTD SVG 1.1//EN" "http://www.w3.org/Graphics/SVG/1.1/DTD/svg11.dtd">
<!-- 以上檔頭是 Heaven 人工加入。後面檔名請勿刪除 y36.0483-h.svg -->
<svg xmlns="http://www.w3.org/2000/svg" xmlns:xlink="http://www.w3.org/1999/xlink" xmlns:ev="http://www.w3.org/2001/xml-events"
		width="8.0493in" height="4.54585in" viewBox="0 0 579.549 327.301" xml:space="preserve" color-interpolation-filters="sRGB"
		class="st8">
	<style type="text/css">
	<![CDATA[
		.st1 {fill:none;stroke:#000000;stroke-linecap:round;stroke-linejoin:round;stroke-width:0.75}
		.st2 {stroke:#000000;stroke-dasharray:0,1.2;stroke-linecap:round;stroke-linejoin:round;stroke-width:0.24}
		.st3 {stroke:#000000;stroke-linecap:round;stroke-linejoin:round;stroke-width:0.24}
		.st4 {stroke:#000000;stroke-dasharray:0.24,0.48;stroke-linecap:round;stroke-linejoin:round;stroke-width:0.24}
		.st5 {fill:none;stroke:none;stroke-linecap:round;stroke-linejoin:round;stroke-width:0.75}
		.st6 {fill:#000000;font-family:新細明體;font-size:1.33333em}
		.st7 {fill:#000000;font-family:新細明體;font-size:1.00001em}
		.st8 {fill:none;fill-rule:evenodd;font-size:12px;overflow:visible;stroke-linecap:square;stroke-miterlimit:3}
	]]>
	</style>

	<g>
		<title>頁-1</title>
		<g id="group37-1" transform="translate(5.5838,-0.375)">
			<title>工作表.37</title>
			<g id="shape2-2" transform="translate(-223.27,41.7106) rotate(-90)">
				<title>工作表.2</title>
				<desc>　　　　　　</desc>
				<rect x="0" y="223.27" width="36.5669" height="104.031" class="st1"/>
			</g>
			<g id="shape6-4" transform="translate(-15.2067,41.7106) rotate(-90)">
				<title>工作表.6</title>
				<desc>　　　　　　</desc>
				<rect x="0" y="223.27" width="36.5669" height="104.031" class="st1"/>
			</g>
			<g id="shape7-6" transform="translate(192.856,41.7106) rotate(-90)">
				<title>工作表.7</title>
				<desc>　　　　　　</desc>
				<rect x="0" y="223.27" width="36.5669" height="104.031" class="st1"/>
			</g>
			<g id="shape28-8" transform="translate(56.126,-121.039)">
				<title>工作表.28</title>
				<path d="M0 327.3 L360 327.3" class="st2"/>
			</g>
			<g id="shape29-11" transform="translate(272.268,-157.606)">
				<title>工作表.29</title>
				<path d="M0 327.3 L143.86 327.3" class="st3"/>
			</g>
			<g id="shape30-14" transform="translate(272.268,-194.173)">
				<title>工作表.30</title>
				<path d="M0 327.3 L143.86 327.3" class="st4"/>
			</g>
			<g id="shape31-17" transform="translate(272.268,-230.74)">
				<title>工作表.31</title>
				<path d="M0 327.3 L143.86 327.3" class="st3"/>
			</g>
			<g id="shape32-20" transform="translate(239.669,-267.307)">
				<title>工作表.32</title>
				<path d="M0 327.3 L176.46 327.3" class="st2"/>
			</g>
			<g id="shape33-23" transform="translate(185.811,460.429) rotate(180)">
				<title>工作表.33</title>
				<path d="M0 327.3 L97.65 327.3" class="st3"/>
			</g>
			<g id="shape34-26" transform="translate(185.811,423.862) rotate(180)">
				<title>工作表.34</title>
				<path d="M0 327.3 L97.65 327.3" class="st3"/>
			</g>
			<g id="shape35-29" transform="translate(56.126,-267.307)">
				<title>工作表.35</title>
				<path d="M0 327.3 L129.69 327.3" class="st3"/>
			</g>
			<g id="shape1-32" transform="translate(7.93701,-292.535)">
				<title>工作表.1</title>
				<desc>品　類　論</desc>
				<rect x="0" y="304.624" width="88.1575" height="22.6772" class="st5"/>
				<text x="4.08" y="320.76" class="st6">品　類　論</text>			</g>
			<g id="shape3-35" transform="translate(216,-292.535)">
				<title>工作表.3</title>
				<desc>大毘婆沙論</desc>
				<rect x="0" y="304.624" width="88.1575" height="22.6772" class="st5"/>
				<text x="4.08" y="320.76" class="st6">大毘婆沙論</text>			</g>
			<g id="shape4-38" transform="translate(424.063,-292.535)">
				<title>工作表.4</title>
				<desc>甘露味論</desc>
				<rect x="0" y="304.624" width="88.1575" height="22.6772" class="st5"/>
				<text x="0.25em 1.587em 2.923em 4.26em" y="320.76" class="st6">甘露味論</text>			</g>
			<g id="shape5-41" transform="translate(3.59712E-13,-255.969)">
				<title>工作表.5</title>
				<desc>十大地</desc>
				<rect x="0" y="304.624" width="56.126" height="22.6772" class="st5"/>
				<text x="4.06" y="320.76" class="st6">十大地</text>			</g>
			<g id="shape8-44" transform="translate(99.6378,-303.874)">
				<title>工作表.8</title>
				<desc>七事品</desc>
				<rect x="0" y="304.624" width="72" height="22.6772" class="st5"/>
				<text x="6" y="319.56" class="st7">（七事品）</text>			</g>
			<g id="shape9-47" transform="translate(308.551,-303.874)">
				<title>工作表.9</title>
				<desc>卷四二</desc>
				<rect x="0" y="304.624" width="72" height="22.6772" class="st5"/>
				<text x="6" y="319.56" class="st7">（卷四二）</text>			</g>
			<g id="shape10-50" transform="translate(517.465,-303.874)">
				<title>工作表.10</title>
				<desc>行品</desc>
				<rect x="0" y="304.624" width="56.126" height="22.6772" class="st5"/>
				<text x="4.06" y="319.56" class="st7">（行品）</text>			</g>
			<g id="shape11-53" transform="translate(184.11,-255.969)">
				<title>工作表.11</title>
				<desc>十大地</desc>
				<rect x="0" y="304.624" width="56.126" height="22.6772" class="st5"/>
				<text x="4.06" y="320.76" class="st6">十大地</text>			</g>
			<g id="shape12-56" transform="translate(416.126,-255.969)">
				<title>工作表.12</title>
				<desc>十大地</desc>
				<rect x="0" y="304.624" width="56.126" height="22.6772" class="st5"/>
				<text x="4.06" y="320.76" class="st6">十大地</text>			</g>
			<g id="shape13-59" transform="translate(5.91527E-13,-219.402)">
				<title>工作表.13</title>
				<desc>十大煩惱地</desc>
				<rect x="0" y="304.624" width="88.1575" height="22.6772" class="st5"/>
				<text x="4.08" y="320.76" class="st6">十大煩惱地</text>			</g>
			<g id="shape14-62" transform="translate(184.11,-219.402)">
				<title>工作表.14</title>
				<desc>十大煩惱地</desc>
				<rect x="0" y="304.624" width="88.1575" height="22.6772" class="st5"/>
				<text x="4.08" y="320.76" class="st6">十大煩惱地</text>			</g>
			<g id="shape15-65" transform="translate(416.126,-219.402)">
				<title>工作表.15</title>
				<desc>十大煩惱地</desc>
				<rect x="0" y="304.624" width="88.1575" height="22.6772" class="st5"/>
				<text x="4.08" y="320.76" class="st6">十大煩惱地</text>			</g>
			<g id="shape16-68" transform="translate(5.91527E-13,-182.835)">
				<title>工作表.16</title>
				<desc>十小煩惱地</desc>
				<rect x="0" y="304.624" width="88.1575" height="22.6772" class="st5"/>
				<text x="4.08" y="320.76" class="st6">十小煩惱地</text>			</g>
			<g id="shape17-71" transform="translate(184.11,-182.835)">
				<title>工作表.17</title>
				<desc>十小煩惱地</desc>
				<rect x="0" y="304.624" width="88.1575" height="22.6772" class="st5"/>
				<text x="4.08" y="320.76" class="st6">十小煩惱地</text>			</g>
			<g id="shape18-74" transform="translate(416.126,-182.835)">
				<title>工作表.18</title>
				<desc>十小煩惱地</desc>
				<rect x="0" y="304.624" width="88.1575" height="22.6772" class="st5"/>
				<text x="4.08" y="320.76" class="st6">十小煩惱地</text>			</g>
			<g id="shape19-77" transform="translate(184.11,-146.268)">
				<title>工作表.19</title>
				<desc>十善大地</desc>
				<rect x="0" y="304.624" width="88.1575" height="22.6772" class="st5"/>
				<text x="0.25em 1.587em 2.923em 4.26em" y="320.76" class="st6">十善大地</text>			</g>
			<g id="shape20-80" transform="translate(416.126,-146.268)">
				<title>工作表.20</title>
				<desc>十善大地</desc>
				<rect x="0" y="304.624" width="88.1575" height="22.6772" class="st5"/>
				<text x="0.25em 1.587em 2.923em 4.26em" y="320.76" class="st6">十善大地</text>			</g>
			<g id="shape21-83" transform="translate(7.51399E-13,-109.701)">
				<title>工作表.21</title>
				<desc>五煩惱</desc>
				<rect x="0" y="304.624" width="56.126" height="22.6772" class="st5"/>
				<text x="4.06" y="320.76" class="st6">五煩惱</text>			</g>
			<g id="shape22-86" transform="translate(416.126,-109.701)">
				<title>工作表.22</title>
				<desc>三　　　毒</desc>
				<rect x="0" y="304.624" width="88.1575" height="22.6772" class="st5"/>
				<text x="4.08" y="320.76" class="st6">三　　　毒</text>			</g>
			<g id="shape23-89" transform="translate(8.71303E-13,-73.1339)">
				<title>工作表.23</title>
				<desc>五　觸</desc>
				<rect x="0" y="304.624" width="56.126" height="22.6772" class="st5"/>
				<text x="4.06" y="320.76" class="st6">五　觸</text>			</g>
			<g id="shape24-92" transform="translate(1.0032E-12,-36.5669)">
				<title>工作表.24</title>
				<desc>五　見</desc>
				<rect x="0" y="304.624" width="56.126" height="22.6772" class="st5"/>
				<text x="4.06" y="320.76" class="st6">五　見</text>			</g>
			<g id="shape25-95">
				<title>工作表.25</title>
				<desc>五　根</desc>
				<rect x="0" y="304.624" width="56.126" height="22.6772" class="st5"/>
				<text x="4.06" y="320.76" class="st6">五　根</text>			</g>
			<g id="shape26-98" transform="translate(184.11,-73.1339)">
				<title>工作表.26</title>
				<desc>五大不善地</desc>
				<rect x="0" y="304.624" width="88.1575" height="22.6772" class="st5"/>
				<text x="4.08" y="320.76" class="st6">五大不善地</text>			</g>
			<g id="shape27-101" transform="translate(184.11,-36.5669)">
				<title>工作表.27</title>
				<desc>三大有覆無記地</desc>
				<rect x="0" y="304.624" width="120.189" height="22.6772" class="st5"/>
				<text x="4.09" y="320.76" class="st6">三大有覆無記地</text>			</g>
		</g>
	</g>
</svg>
