<?xml version="1.0" encoding="UTF-8" standalone="no"?>
<!DOCTYPE svg PUBLIC "-//W3C//DTD SVG 1.1//EN" "http://www.w3.org/Graphics/SVG/1.1/DTD/svg11.dtd">
<!-- 由 Microsoft Visio, SVG Export 產生 y36.0084.svg 頁-1 -->
<svg xmlns="http://www.w3.org/2000/svg" xmlns:xlink="http://www.w3.org/1999/xlink" xmlns:ev="http://www.w3.org/2001/xml-events"
		width="4.5675in" height="3.29979in" viewBox="0 0 328.86 237.585" xml:space="preserve" color-interpolation-filters="sRGB"
		class="st4">
	<style type="text/css">
	<![CDATA[
		.st1 {fill:none;stroke:none;stroke-linecap:round;stroke-linejoin:round;stroke-width:0.75}
		.st2 {fill:#000000;font-family:新細明體;font-size:1.33333em}
		.st3 {fill:none;stroke:#000000;stroke-linecap:round;stroke-linejoin:round;stroke-width:0.75}
		.st4 {fill:none;fill-rule:evenodd;font-size:12px;overflow:visible;stroke-linecap:square;stroke-miterlimit:3}
	]]>
	</style>

	<g>
		<title>頁-1</title>
		<g id="group21-1" transform="translate(0.375004,-0.375)">
			<title>工作表.21</title>
			<g id="shape1-2" transform="translate(199.984,-207.213)">
				<title>工作表.1</title>
				<desc>舍利弗阿毘曇論</desc>
				<rect x="0" y="214.907" width="120.189" height="22.6772" class="st1"/>
				<text x="4.09" y="231.05" class="st2">舍利弗阿毘曇論</text>			</g>
			<g id="shape3-5" transform="translate(-101.522,37.3169) rotate(-90)">
				<title>工作表.3</title>
				<rect x="0" y="101.522" width="36.5669" height="136.063" class="st3"/>
			</g>
			<g id="shape2-7" transform="translate(7.93701,-207.213)">
				<title>工作表.2</title>
				<desc>法集論論母</desc>
				<rect x="0" y="214.907" width="120.189" height="22.6772" class="st1"/>
				<text x="0.25em 1.753em 3.256em 4.759em 6.262em" y="231.05" class="st2">法集論論母</text>			</g>
			<g id="shape5-10" transform="translate(1.91847E-13,-170.646)">
				<title>工作表.5</title>
				<desc>因‧非因</desc>
				<rect x="0" y="214.907" width="72" height="22.6772" class="st1"/>
				<text x="4" y="231.05" class="st2">因‧非因</text>			</g>
			<g id="shape6-13" transform="translate(3.35731E-13,-146.268)">
				<title>工作表.6</title>
				<desc>有因‧無因</desc>
				<rect x="0" y="214.907" width="88.1575" height="22.6772" class="st1"/>
				<text x="4.08" y="231.05" class="st2">有因‧無因</text>			</g>
			<g id="shape7-16" transform="translate(1.9984E-13,-121.89)">
				<title>工作表.7</title>
				<desc>因相應‧因不相應</desc>
				<rect x="0" y="214.907" width="136.063" height="22.6772" class="st1"/>
				<text x="4.03" y="231.05" class="st2">因相應‧因不相應</text>			</g>
			<g id="shape8-19" transform="translate(3.27738E-13,-97.5118)">
				<title>工作表.8</title>
				<desc>因有因‧有因非因</desc>
				<rect x="0" y="214.907" width="136.063" height="22.6772" class="st1"/>
				<text x="4.03" y="231.05" class="st2">因有因‧有因非因</text>			</g>
			<g id="shape9-22" transform="translate(5.7554E-13,-73.1339)">
				<title>工作表.9</title>
				<desc>因因相應‧因相應非因</desc>
				<rect x="0" y="214.907" width="168.094" height="22.6772" class="st1"/>
				<text x="4.05" y="231.05" class="st2">因因相應‧因相應非因</text>			</g>
			<g id="shape10-25" transform="translate(3.43725E-13,-48.7559)">
				<title>工作表.10</title>
				<desc>非因有因與無因</desc>
				<rect x="0" y="214.907" width="120.189" height="22.6772" class="st1"/>
				<text x="4.09" y="231.05" class="st2">非因有因與無因</text>			</g>
			<g id="shape11-28" transform="translate(7.91367E-13,-24.378)">
				<title>工作表.11</title>
				<desc>有緣‧無緣</desc>
				<rect x="0" y="214.907" width="88.1575" height="22.6772" class="st1"/>
				<text x="4.08" y="231.05" class="st2">有緣‧無緣</text>			</g>
			<g id="shape12-31" transform="translate(192.047,2.84217E-14)">
				<title>工作表.12</title>
				<desc>有緒‧無緒</desc>
				<rect x="0" y="214.907" width="88.1575" height="22.6772" class="st1"/>
				<text x="4.08" y="231.05" class="st2">有緒‧無緒</text>			</g>
			<g id="shape16-34" transform="translate(192.047,-24.378)">
				<title>工作表.16</title>
				<desc>有緣‧無緣</desc>
				<rect x="0" y="214.907" width="88.1575" height="22.6772" class="st1"/>
				<text x="4.08" y="231.05" class="st2">有緣‧無緣</text>			</g>
			<g id="shape17-37" transform="translate(192.047,-146.268)">
				<title>工作表.17</title>
				<desc>有因‧無因</desc>
				<rect x="0" y="214.907" width="88.1575" height="22.6772" class="st1"/>
				<text x="4.08" y="231.05" class="st2">有因‧無因</text>			</g>
			<g id="shape18-40" transform="translate(192.047,-170.646)">
				<title>工作表.18</title>
				<desc>因‧非因</desc>
				<rect x="0" y="214.907" width="72" height="22.6772" class="st1"/>
				<text x="4" y="231.05" class="st2">因‧非因</text>			</g>
			<g id="shape20-43" transform="translate(90.5256,37.3169) rotate(-90)">
				<title>工作表.20</title>
				<rect x="0" y="101.522" width="36.5669" height="136.063" class="st3"/>
			</g>
		</g>
	</g>
</svg>
