<?xml version="1.0" encoding="UTF-8" standalone="no"?>
<!DOCTYPE svg PUBLIC "-//W3C//DTD SVG 1.0//EN" "http://www.w3.org/TR/2001/REC-SVG-20010904/DTD/svg10.dtd">
<!-- 由 Microsoft Visio 11.0, SVG Export, v1.0 產生 y36.0040.svg Page-1 -->
<svg xmlns="http://www.w3.org/2000/svg" xmlns:xlink="http://www.w3.org/1999/xlink" xmlns:ev="http://www.w3.org/2001/xml-events"
		xmlns:v="http://schemas.microsoft.com/visio/2003/SVGExtensions/" width="7.4711in" height="4.44337in"
		viewBox="0 0 537.919 319.923" xml:space="preserve" color-interpolation-filters="sRGB" class="st5">
	<v:documentProperties v:langID="1028" v:metric="true" v:viewMarkup="false">
		<v:userDefs>
			<v:ud v:nameU="msvSubprocessMaster" v:prompt="" v:val="VT4(Box)"/>
			<v:ud v:nameU="msvNoAutoConnect" v:val="VT0(1):26"/>
		</v:userDefs>
	</v:documentProperties>

	<style type="text/css">
	<![CDATA[
		.st1 {fill:none;stroke:none;stroke-linecap:round;stroke-linejoin:round;stroke-width:0.75}
		.st2 {fill:#000000;font-family:新細明體;font-size:1.33333em}
		.st3 {stroke:#000000;stroke-linecap:round;stroke-linejoin:round;stroke-width:1}
		.st4 {stroke:#000000;stroke-dasharray:3,3;stroke-linecap:round;stroke-linejoin:round;stroke-width:1}
		.st5 {fill:none;fill-rule:evenodd;font-size:12px;overflow:visible;stroke-linecap:square;stroke-miterlimit:3}
	]]>
	</style>

	<g v:mID="0" v:index="1" v:groupContext="foregroundPage">
		<title>頁-1</title>
		<v:pageProperties v:drawingScale="0.0393701" v:pageScale="0.0393701" v:drawingUnits="24" v:shadowOffsetX="8.50394"
				v:shadowOffsetY="-8.50394"/>
		<g id="shape1-1" v:mID="1" v:groupContext="shape" transform="translate(19.6633,-274.56)">
			<title>工作表.1</title>
			<desc>大毘婆沙論初說</desc>
			<v:textBlock v:margins="rect(4,4,4,4)" v:tabSpace="42.5197"/>
			<v:textRect cx="65.1818" cy="307.734" width="130.37" height="24.378"/>
			<rect x="0" y="295.545" width="130.364" height="24.378" class="st1"/>
			<text x="9.18" y="312.53" class="st2" v:langID="1028"><v:paragraph v:horizAlign="1"/><v:tabList/>大毘婆沙論初說</text>		</g>
		<g id="shape2-4" v:mID="2" v:groupContext="shape" transform="translate(204.997,-274.56)">
			<title>工作表.2</title>
			<desc>大毘婆沙論次說</desc>
			<v:textBlock v:margins="rect(4,4,4,4)" v:tabSpace="42.5197"/>
			<v:textRect cx="63.6463" cy="307.734" width="127.3" height="24.378"/>
			<rect x="0" y="295.545" width="127.293" height="24.378" class="st1"/>
			<text x="7.65" y="312.53" class="st2" v:langID="1028"><v:paragraph v:horizAlign="1"/><v:tabList/>大毘婆沙論次說</text>		</g>
		<g id="shape6-7" v:mID="6" v:groupContext="shape" transform="translate(205.504,-272.576)">
			<title>工作表.6</title>
			<path d="M0 319.92 L127.93 319.92" class="st3"/>
		</g>
		<g id="shape7-10" v:mID="7" v:groupContext="shape" transform="translate(205.504,-300.923)">
			<title>工作表.7</title>
			<path d="M0 319.92 L127.93 319.92" class="st3"/>
		</g>
		<g id="shape8-13" v:mID="8" v:groupContext="shape" transform="translate(-114.418,47.3465) rotate(-90)">
			<title>工作表.8</title>
			<path d="M0 319.92 L28.35 319.92" class="st3"/>
		</g>
		<g id="shape9-16" v:mID="9" v:groupContext="shape" transform="translate(13.1407,47.3465) rotate(-90)">
			<title>工作表.9</title>
			<path d="M0 319.92 L28.35 319.92" class="st3"/>
		</g>
		<g id="group11-19" transform="translate(-171.111,47.3465) rotate(-90)" v:mID="11" v:groupContext="group">
			<title>工作表.11</title>
			<g id="shape3-20" v:mID="3" v:groupContext="shape" transform="translate(0,-127.559)">
				<title>工作表.3</title>
				<path d="M0 319.92 L28.35 319.92" class="st3"/>
			</g>
			<g id="shape4-23" v:mID="4" v:groupContext="shape" transform="translate(319.923,191.99) rotate(90)">
				<title>工作表.4</title>
				<path d="M0 319.92 L127.93 319.92" class="st3"/>
			</g>
			<g id="shape5-26" v:mID="5" v:groupContext="shape" transform="translate(348.269,191.99) rotate(90)">
				<title>工作表.5</title>
				<path d="M0 319.92 L127.93 319.92" class="st3"/>
			</g>
			<g id="shape10-29" v:mID="10" v:groupContext="shape">
				<title>工作表.10</title>
				<path d="M0 319.92 L28.35 319.92" class="st3"/>
			</g>
		</g>
		<g id="shape19-32" v:mID="19" v:groupContext="shape" transform="translate(23.2358,-238.988)">
			<title>工作表.19</title>
			<desc>六因</desc>
			<v:textBlock v:margins="rect(4,4,4,4)" v:tabSpace="42.5197"/>
			<v:textRect cx="20.6936" cy="299.657" width="41.39" height="40.5309"/>
			<rect x="0" y="279.392" width="41.3873" height="40.5309" class="st1"/>
			<text x="4.69" y="304.46" class="st2" v:langID="1028"><v:paragraph v:horizAlign="1"/><v:tabList/>六因</text>		</g>
		<g id="shape20-35" v:mID="20" v:groupContext="shape" transform="translate(18.75,-206.201)">
			<title>工作表.20</title>
			<desc>四緣</desc>
			<v:textBlock v:margins="rect(4,4,4,4)" v:tabSpace="42.5197"/>
			<v:textRect cx="23.3391" cy="295.405" width="46.68" height="49.0348"/>
			<rect x="0" y="270.888" width="46.6783" height="49.0348" class="st1"/>
			<text x="9.42" y="300.21" class="st2" v:langID="1028"><v:paragraph v:horizAlign="1"/><v:tabList/>四緣</text>		</g>
		<g id="shape22-38" v:mID="22" v:groupContext="shape" transform="translate(385.293,-236.932)">
			<title>工作表.22</title>
			<desc>諸因</desc>
			<v:textBlock v:margins="rect(4,4,4,4)" v:tabSpace="42.5197"/>
			<v:textRect cx="22.4653" cy="298.24" width="44.94" height="43.3655"/>
			<rect x="0" y="276.557" width="44.9306" height="43.3655" class="st1"/>
			<text x="6.47" y="303.04" class="st2" v:langID="1028"><v:paragraph v:horizAlign="1"/><v:tabList/>諸因</text>		</g>
		<g id="shape24-41" v:mID="24" v:groupContext="shape" transform="translate(386.013,-218.295)">
			<title>工作表.24</title>
			<desc>緣</desc>
			<v:textBlock v:margins="rect(4,4,4,4)" v:tabSpace="42.5197"/>
			<v:textRect cx="12.67" cy="308.161" width="25.35" height="23.523"/>
			<rect x="0" y="296.399" width="25.34" height="23.523" class="st1"/>
			<text x="4.67" y="312.96" class="st2" v:langID="1028"><v:paragraph v:horizAlign="1"/><v:tabList/>緣</text>		</g>
		<g id="shape25-44" v:mID="25" v:groupContext="shape" transform="translate(380.976,-189.061)">
			<title>工作表.25</title>
			<desc>果</desc>
			<v:textBlock v:margins="rect(4,4,4,4)" v:tabSpace="42.5197" v:verticalText="true"/>
			<v:textRect cx="12.189" cy="307.734" width="24.38" height="24.378"/>
			<rect x="0" y="295.545" width="24.378" height="24.378" class="st1"/>
			<text x="12.19" y="299.73" writing-mode="tb-rl" class="st2" v:langID="1028"><v:paragraph v:horizAlign="1"/><v:tabList/>果</text>		</g>
		<g id="shape26-47" v:mID="26" v:groupContext="shape" transform="translate(384.687,-150.086)">
			<title>工作表.26</title>
			<desc>自相</desc>
			<v:textBlock v:margins="rect(4,4,4,4)" v:tabSpace="42.5197"/>
			<v:textRect cx="21.7566" cy="297.565" width="43.52" height="44.7143"/>
			<rect x="0" y="275.208" width="43.5132" height="44.7143" class="st1"/>
			<text x="5.76" y="302.37" class="st2" v:langID="1028"><v:paragraph v:horizAlign="1"/><v:tabList/>自相</text>		</g>
		<g id="shape28-50" v:mID="28" v:groupContext="shape" transform="translate(197.566,-123.122)">
			<title>工作表.28</title>
			<desc>共相</desc>
			<v:textBlock v:margins="rect(4,4,4,4)" v:tabSpace="42.5197"/>
			<v:textRect cx="22.111" cy="298.594" width="44.23" height="42.6569"/>
			<rect x="0" y="277.266" width="44.2219" height="42.6569" class="st1"/>
			<text x="6.11" y="303.39" class="st2" v:langID="1028"><v:paragraph v:horizAlign="1"/><v:tabList/>共相</text>		</g>
		<g id="shape29-53" v:mID="29" v:groupContext="shape" transform="translate(20.7153,-103.069)">
			<title>工作表.29</title>
			<desc>攝</desc>
			<v:textBlock v:margins="rect(4,4,4,4)" v:tabSpace="42.5197"/>
			<v:textRect cx="16.1274" cy="306.321" width="32.26" height="27.2035"/>
			<rect x="0" y="292.719" width="32.2549" height="27.2035" class="st1"/>
			<text x="8.13" y="311.12" class="st2" v:langID="1028"><v:paragraph v:horizAlign="1"/><v:tabList/>攝</text>		</g>
		<g id="shape30-56" v:mID="30" v:groupContext="shape" transform="translate(196.104,-71.2476)">
			<title>工作表.30</title>
			<desc>攝不攝</desc>
			<v:textBlock v:margins="rect(4,4,4,4)" v:tabSpace="42.5197"/>
			<v:textRect cx="49.0164" cy="274.5" width="98.04" height="90.8459"/>
			<rect x="0" y="229.077" width="98.0329" height="90.8459" class="st1"/>
			<text x="9.02" y="279.3" class="st2" v:langID="1028"><v:paragraph v:horizAlign="1"/><v:tabList/>攝（不攝）</text>		</g>
		<g id="shape32-59" v:mID="32" v:groupContext="shape" transform="translate(197.065,-24.8303)">
			<title>工作表.32</title>
			<desc>相應不相應</desc>
			<v:textBlock v:margins="rect(4,4,4,4)" v:tabSpace="42.5197"/>
			<v:textRect cx="64.0007" cy="256.429" width="128.01" height="126.988"/>
			<rect x="0" y="192.935" width="128.001" height="126.988" class="st1"/>
			<text x="8" y="261.23" class="st2" v:langID="1028"><v:paragraph v:horizAlign="1"/><v:tabList/>相應（不相應）</text>		</g>
		<g id="shape33-62" v:mID="33" v:groupContext="shape" transform="translate(18.9785,-37.8719)">
			<title>工作表.33</title>
			<desc>成就</desc>
			<v:textBlock v:margins="rect(4,4,4,4)" v:tabSpace="42.5197"/>
			<v:textRect cx="24.3794" cy="297.817" width="48.76" height="44.2114"/>
			<rect x="0" y="275.711" width="48.7588" height="44.2114" class="st1"/>
			<text x="8.38" y="302.62" class="st2" v:langID="1028"><v:paragraph v:horizAlign="1"/><v:tabList/>成就</text>		</g>
		<g id="shape34-65" v:mID="34" v:groupContext="shape" transform="translate(196.89,-47.7887)">
			<title>工作表.34</title>
			<desc>成就不成就</desc>
			<v:textBlock v:margins="rect(4,4,4,4)" v:tabSpace="42.5197"/>
			<v:textRect cx="63.8901" cy="307.734" width="127.79" height="24.378"/>
			<rect x="0" y="295.545" width="127.78" height="24.378" class="st1"/>
			<text x="7.89" y="312.53" class="st2" v:langID="1028"><v:paragraph v:horizAlign="1"/><v:tabList/>成就（不成就）</text>		</g>
		<g id="shape35-68" v:mID="35" v:groupContext="shape" transform="translate(18.824,-18.75)">
			<title>工作表.35</title>
			<desc>不成就</desc>
			<v:textBlock v:margins="rect(4,4,4,4)" v:tabSpace="42.5197"/>
			<v:textRect cx="33.3235" cy="307.734" width="66.65" height="24.378"/>
			<rect x="0" y="295.545" width="66.6471" height="24.378" class="st1"/>
			<text x="9.32" y="312.53" class="st2" v:langID="1028"><v:paragraph v:horizAlign="1"/><v:tabList/>不成就</text>		</g>
		<g id="shape23-71" v:mID="23" v:groupContext="shape" transform="translate(380.121,-37.8719)">
			<title>工作表.23</title>
			<desc>成就</desc>
			<v:textBlock v:margins="rect(4,4,4,4)" v:tabSpace="42.5197"/>
			<v:textRect cx="24.3794" cy="297.817" width="48.76" height="44.2114"/>
			<rect x="0" y="275.711" width="48.7588" height="44.2114" class="st1"/>
			<text x="8.38" y="302.62" class="st2" v:langID="1028"><v:paragraph v:horizAlign="1"/><v:tabList/>成就</text>		</g>
		<g id="shape37-74" v:mID="37" v:groupContext="shape" transform="translate(384.087,-67.0643)">
			<title>工作表.37</title>
			<desc>相應</desc>
			<v:textBlock v:margins="rect(4,4,4,4)" v:tabSpace="42.5197"/>
			<v:textRect cx="21.2598" cy="298.663" width="42.52" height="42.5197"/>
			<rect x="0" y="277.403" width="42.5197" height="42.5197" class="st1"/>
			<text x="5.26" y="303.46" class="st2" v:langID="1028"><v:paragraph v:horizAlign="1"/><v:tabList/>相應</text>		</g>
		<g id="shape38-77" v:mID="38" v:groupContext="shape" transform="translate(382.133,-103.069)">
			<title>工作表.38</title>
			<desc>攝</desc>
			<v:textBlock v:margins="rect(4,4,4,4)" v:tabSpace="42.5197"/>
			<v:textRect cx="16.1274" cy="306.321" width="32.26" height="27.2035"/>
			<rect x="0" y="292.719" width="32.2549" height="27.2035" class="st1"/>
			<text x="8.13" y="311.12" class="st2" v:langID="1028"><v:paragraph v:horizAlign="1"/><v:tabList/>攝</text>		</g>
		<g id="shape39-80" v:mID="39" v:groupContext="shape" transform="translate(384.653,-123.689)">
			<title>工作表.39</title>
			<desc>共相</desc>
			<v:textBlock v:margins="rect(4,4,4,4)" v:tabSpace="42.5197"/>
			<v:textRect cx="22.111" cy="298.594" width="44.23" height="42.6569"/>
			<rect x="0" y="277.266" width="44.2219" height="42.6569" class="st1"/>
			<text x="6.11" y="303.39" class="st2" v:langID="1028"><v:paragraph v:horizAlign="1"/><v:tabList/>共相</text>		</g>
		<g id="shape27-83" v:mID="27" v:groupContext="shape" transform="translate(197.921,-151.006)">
			<title>工作表.27</title>
			<desc>自相</desc>
			<v:textBlock v:margins="rect(4,4,4,4)" v:tabSpace="42.5197"/>
			<v:textRect cx="21.7566" cy="297.565" width="43.52" height="44.7143"/>
			<rect x="0" y="275.208" width="43.5132" height="44.7143" class="st1"/>
			<text x="5.76" y="302.37" class="st2" v:langID="1028"><v:paragraph v:horizAlign="1"/><v:tabList/>自相</text>		</g>
		<g id="shape40-86" v:mID="40" v:groupContext="shape" transform="translate(21.8237,-67.0643)">
			<title>工作表.40</title>
			<desc>相應</desc>
			<v:textBlock v:margins="rect(4,4,4,4)" v:tabSpace="42.5197"/>
			<v:textRect cx="21.2598" cy="298.663" width="42.52" height="42.5197"/>
			<rect x="0" y="277.403" width="42.5197" height="42.5197" class="st1"/>
			<text x="5.26" y="303.46" class="st2" v:langID="1028"><v:paragraph v:horizAlign="1"/><v:tabList/>相應</text>		</g>
		<g id="shape31-89" v:mID="31" v:groupContext="shape" transform="translate(64.1948,-258.403)">
			<title>工作表.31</title>
			<path d="M0 319.92 L135.64 319.92" class="st4"/>
		</g>
		<g id="shape41-92" v:mID="41" v:groupContext="shape" transform="translate(65.4636,-59.9776)">
			<title>工作表.41</title>
			<path d="M0 319.92 L135.64 319.92" class="st4"/>
		</g>
		<g id="shape42-95" v:mID="42" v:groupContext="shape" transform="translate(64.1948,-88.3241)">
			<title>工作表.42</title>
			<path d="M0 319.92 L135.64 319.92" class="st4"/>
		</g>
		<g id="shape43-98" v:mID="43" v:groupContext="shape" transform="translate(48.4557,-116.671)">
			<title>工作表.43</title>
			<path d="M0 319.92 L154.21 319.92" class="st4"/>
		</g>
		<g id="shape44-101" v:mID="44" v:groupContext="shape" transform="translate(222.512,-258.403)">
			<title>工作表.44</title>
			<path d="M0 319.92 L166.4 319.92" class="st4"/>
		</g>
		<g id="shape45-104" v:mID="45" v:groupContext="shape" transform="translate(64.1948,-230.056)">
			<title>工作表.45</title>
			<path d="M0 319.92 L135.64 319.92" class="st4"/>
		</g>
		<g id="shape46-107" v:mID="46" v:groupContext="shape" transform="translate(78.3681,-31.6312)">
			<title>工作表.46</title>
			<path d="M0 319.92 L70.44 319.92" class="st4"/>
		</g>
		<g id="shape47-110" v:mID="47" v:groupContext="shape" transform="translate(-3.65143,7.03426) rotate(-28.4611)">
			<title>工作表.47</title>
			<path d="M0 319.92 L59.48 319.92" class="st4"/>
		</g>
		<g id="shape48-113" v:mID="48" v:groupContext="shape" transform="translate(313.221,-59.9776)">
			<title>工作表.48</title>
			<path d="M0 319.92 L70.44 319.92" class="st4"/>
		</g>
		<g id="shape49-116" v:mID="49" v:groupContext="shape" transform="translate(312.966,-88.3241)">
			<title>工作表.49</title>
			<path d="M0 319.92 L70.44 319.92" class="st4"/>
		</g>
		<g id="shape50-119" v:mID="50" v:groupContext="shape" transform="translate(279.628,-116.671)">
			<title>工作表.50</title>
			<path d="M0 319.92 L105.03 319.92" class="st4"/>
		</g>
		<g id="shape51-122" v:mID="51" v:groupContext="shape" transform="translate(241.006,-145.017)">
			<title>工作表.51</title>
			<path d="M0 319.92 L144.43 319.92" class="st4"/>
		</g>
		<g id="shape52-125" v:mID="52" v:groupContext="shape" transform="translate(242.355,-173.363)">
			<title>工作表.52</title>
			<path d="M0 319.92 L144.43 319.92" class="st4"/>
		</g>
		<g id="shape53-128" v:mID="53" v:groupContext="shape" transform="translate(220.523,-230.056)">
			<title>工作表.53</title>
			<path d="M0 319.92 L166.4 319.92" class="st4"/>
		</g>
		<g id="shape13-131" v:mID="13" v:groupContext="shape" transform="translate(71.4377,47.3465) rotate(-90)">
			<title>工作表.13</title>
			<path d="M0 319.92 L28.35 319.92" class="st3"/>
		</g>
		<g id="shape14-134" v:mID="14" v:groupContext="shape" transform="translate(390.987,-272.576)">
			<title>工作表.14</title>
			<path d="M0 319.92 L127.93 319.92" class="st3"/>
		</g>
		<g id="shape15-137" v:mID="15" v:groupContext="shape" transform="translate(390.987,-300.923)">
			<title>工作表.15</title>
			<path d="M0 319.92 L127.93 319.92" class="st3"/>
		</g>
		<g id="shape16-140" v:mID="16" v:groupContext="shape" transform="translate(198.997,47.3465) rotate(-90)">
			<title>工作表.16</title>
			<path d="M0 319.92 L28.35 319.92" class="st3"/>
		</g>
		<g id="shape17-143" v:mID="17" v:groupContext="shape" transform="translate(402.096,-274.56)">
			<title>工作表.17</title>
			<desc>入阿毘達磨論</desc>
			<v:textBlock v:margins="rect(4,4,4,4)" v:tabSpace="42.5197"/>
			<v:textRect cx="52.7881" cy="307.734" width="105.58" height="24.378"/>
			<rect x="0" y="295.545" width="105.576" height="24.378" class="st1"/>
			<text x="4.79" y="312.53" class="st2" v:langID="1028"><v:paragraph v:horizAlign="1"/><v:tabList/>入阿毘達磨論</text>		</g>
		<g id="shape36-146" v:mID="36" v:groupContext="shape" transform="translate(198.926,-218.295)">
			<title>工作表.36</title>
			<desc>緣</desc>
			<v:textBlock v:margins="rect(4,4,4,4)" v:tabSpace="42.5197"/>
			<v:textRect cx="12.67" cy="308.161" width="25.35" height="23.523"/>
			<rect x="0" y="296.399" width="25.34" height="23.523" class="st1"/>
			<text x="4.67" y="312.96" class="st2" v:langID="1028"><v:paragraph v:horizAlign="1"/><v:tabList/>緣</text>		</g>
		<g id="shape21-149" v:mID="21" v:groupContext="shape" transform="translate(197.504,-246.996)">
			<title>工作表.21</title>
			<desc>因</desc>
			<v:textBlock v:margins="rect(4,4,4,4)" v:tabSpace="42.5197"/>
			<v:textRect cx="12.67" cy="308.161" width="25.35" height="23.523"/>
			<rect x="0" y="296.399" width="25.34" height="23.523" class="st1"/>
			<text x="4.67" y="312.96" class="st2" v:langID="1028"><v:paragraph v:horizAlign="1"/><v:tabList/>因</text>		</g>
	</g>
</svg>
