<?xml version="1.0" encoding="UTF-8" standalone="no"?>
<!DOCTYPE svg PUBLIC "-//W3C//DTD SVG 1.1//EN" "http://www.w3.org/Graphics/SVG/1.1/DTD/svg11.dtd">
<!-- 由 Microsoft Visio, SVG Export 產生 y36.0619-1-h.svg 頁-1 -->
<svg xmlns="http://www.w3.org/2000/svg" xmlns:xlink="http://www.w3.org/1999/xlink" xmlns:ev="http://www.w3.org/2001/xml-events"
		width="6.00861in" height="1.98239in" viewBox="0 0 432.62 142.732" xml:space="preserve" color-interpolation-filters="sRGB"
		class="st6">
	<style type="text/css">
	<![CDATA[
		.st1 {fill:none;stroke:none;stroke-linecap:round;stroke-linejoin:round;stroke-width:0.75}
		.st2 {fill:#000000;font-family:新細明體;font-size:1.33333em}
		.st3 {stroke:#000000;stroke-linecap:round;stroke-linejoin:round;stroke-width:1}
		.st4 {fill:none;stroke:#000000;stroke-linecap:round;stroke-linejoin:round;stroke-width:1}
		.st5 {stroke:#000000;stroke-dasharray:0,4.5;stroke-linecap:round;stroke-linejoin:round;stroke-width:1.5}
		.st6 {fill:none;fill-rule:evenodd;font-size:12px;overflow:visible;stroke-linecap:square;stroke-miterlimit:3}
	]]>
	</style>

	<g>
		<title>頁-1</title>
		<g id="group24-1" transform="translate(0.500004,-0.5)">
			<title>工作表.24</title>
			<g id="shape1-2" transform="translate(-3.19744E-14,-116.22)">
				<title>工作表.1</title>
				<desc>罽賓舊傳</desc>
				<rect x="0" y="120.055" width="99.2126" height="22.6772" class="st1"/>
				<text x="0.25em 1.817em 3.384em 4.951em" y="136.19" class="st2">罽賓舊傳</text>			</g>
			<g id="shape2-5" transform="translate(218.839,-116.22)">
				<title>工作表.2</title>
				<desc>富若蜜羅</desc>
				<rect x="0" y="120.055" width="76.5354" height="22.6772" class="st1"/>
				<text x="6.27" y="136.19" class="st2">富若蜜羅</text>			</g>
			<g id="shape3-8" transform="translate(94.6749,-59.5276)">
				<title>工作表.3</title>
				<desc>富若羅</desc>
				<rect x="0" y="120.055" width="65.1969" height="22.6772" class="st1"/>
				<text x="8.6" y="136.19" class="st2">富若羅</text>			</g>
			<g id="shape4-11" transform="translate(369.317,-59.4946)">
				<title>工作表.4</title>
				<desc>佛大先</desc>
				<rect x="0" y="120.055" width="62.428" height="22.6772" class="st1"/>
				<text x="7.21" y="136.19" class="st2">佛大先</text>			</g>
			<g id="shape6-14" transform="translate(183.648,-2.80173)">
				<title>工作表.6</title>
				<desc>曇摩羅</desc>
				<rect x="0" y="120.055" width="62.428" height="22.6772" class="st1"/>
				<text x="7.21" y="136.19" class="st2">曇摩羅</text>			</g>
			<g id="shape7-17" transform="translate(283.75,-2.83465)">
				<title>工作表.7</title>
				<desc>婆陀羅</desc>
				<rect x="0" y="120.055" width="56.6929" height="22.6772" class="st1"/>
				<text x="4.35" y="136.19" class="st2">婆陀羅</text>			</g>
			<g id="shape8-20" transform="translate(4.15668E-13,-2.83466)">
				<title>工作表.8</title>
				<desc>天竺新傳</desc>
				<rect x="0" y="120.055" width="99.2126" height="22.6772" class="st1"/>
				<text x="0.25em 1.817em 3.384em 4.951em" y="136.19" class="st2">天竺新傳</text>			</g>
			<g id="shape5-23" transform="translate(70.8661,-99.2126)">
				<title>工作表.5</title>
				<path d="M0 142.73 L255.12 142.73" class="st3"/>
			</g>
			<g id="shape11-26" transform="translate(-43.5197,29.3465) rotate(-90)">
				<title>工作表.11</title>
				<rect x="0" y="43.5197" width="28.3465" height="99.2126" class="st4"/>
			</g>
			<g id="shape12-28" transform="translate(-43.5197,142.732) rotate(-90)">
				<title>工作表.12</title>
				<rect x="0" y="43.5197" width="28.3465" height="99.2126" class="st4"/>
			</g>
			<g id="shape14-30" transform="translate(291.969,-127.559)">
				<title>工作表.14</title>
				<path d="M0 142.73 L34.02 142.73" class="st3"/>
			</g>
			<g id="shape15-33" transform="translate(155.334,-70.8661)">
				<title>工作表.15</title>
				<path d="M0 142.73 L213.17 142.73" class="st3"/>
			</g>
			<g id="shape16-36" transform="translate(183.252,43.5197) rotate(-90)">
				<title>工作表.16</title>
				<path d="M0 142.73 L28.35 142.73" class="st3"/>
			</g>
			<g id="shape17-39" transform="translate(-71.8661,71.8661) rotate(-90)">
				<title>工作表.17</title>
				<path d="M0 142.73 L28.35 142.73" class="st3"/>
			</g>
			<g id="shape18-42" transform="translate(70.8661,-70.8661)">
				<title>工作表.18</title>
				<path d="M0 142.73 L28.35 142.73" class="st3"/>
			</g>
			<g id="shape19-45" transform="translate(211.598,128.559) rotate(-90)">
				<title>工作表.19</title>
				<path d="M0 142.73 L57.4 142.73" class="st3"/>
			</g>
			<g id="shape20-48" transform="translate(340.157,-14.1732)">
				<title>工作表.20</title>
				<path d="M0 142.73 L14.17 142.73" class="st3"/>
			</g>
			<g id="shape21-51" transform="translate(243.78,-14.1732)">
				<title>工作表.21</title>
				<path d="M0 142.73 L42.52 142.73" class="st3"/>
			</g>
			<g id="shape22-54" transform="translate(169.37,-14.1732)">
				<title>工作表.22</title>
				<path d="M0 142.73 L15.14 142.73" class="st3"/>
			</g>
			<g id="shape23-57" transform="translate(27.3465,129.268) rotate(-90)">
				<title>工作表.23</title>
				<path d="M0 142.73 L57.4 142.73" class="st3"/>
			</g>
			<g id="shape10-60" transform="translate(102.047,-14.1732)">
				<title>工作表.10</title>
				<path d="M0 142.73 L68.03 142.73" class="st5"/>
			</g>
			<g id="shape13-63" transform="translate(103.739,-127.559)">
				<title>工作表.13</title>
				<path d="M0 142.73 L120.2 142.73" class="st5"/>
			</g>
		</g>
	</g>
</svg>
