<?xml version="1.0" encoding="UTF-8" standalone="no"?>
<!DOCTYPE svg PUBLIC "-//W3C//DTD SVG 1.1//EN" "http://www.w3.org/Graphics/SVG/1.1/DTD/svg11.dtd">
<!-- 由 Microsoft Visio, SVG Export 產生 y36.0223-h.svg 頁-1 -->
<svg xmlns="http://www.w3.org/2000/svg" xmlns:xlink="http://www.w3.org/1999/xlink" xmlns:ev="http://www.w3.org/2001/xml-events"
		width="9.22232in" height="3.8934in" viewBox="0 0 664.007 280.325" xml:space="preserve" color-interpolation-filters="sRGB"
		class="st6">
	<style type="text/css">
	<![CDATA[
		.st1 {fill:none;stroke:none;stroke-linecap:round;stroke-linejoin:round;stroke-width:0.75}
		.st2 {fill:#000000;font-family:新細明體;font-size:1.33333em}
		.st3 {stroke:#000000;stroke-linecap:round;stroke-linejoin:round;stroke-width:1}
		.st4 {fill:none;stroke:none;stroke-linecap:round;stroke-linejoin:round;stroke-width:1}
		.st5 {stroke:#000000;stroke-dasharray:0,4.5;stroke-linecap:round;stroke-linejoin:round;stroke-width:1.5}
		.st6 {fill:none;fill-rule:evenodd;font-size:12px;overflow:visible;stroke-linecap:square;stroke-miterlimit:3}
	]]>
	</style>

	<g>
		<title>頁-1</title>
		<g id="group92-1" transform="translate(0.375,-0.375)">
			<title>工作表.92</title>
			<g id="shape3-2" transform="translate(2.65403,-227.009)">
				<title>工作表.3</title>
				<desc>「五趣」</desc>
				<rect x="0" y="260.482" width="76.0973" height="19.8425" class="st1"/>
				<text x="6.05" y="275.2" class="st2">「五趣」</text>			</g>
			<g id="shape4-5" transform="translate(3.0439,-198.899)">
				<title>工作表.4</title>
				<desc>「四律儀」</desc>
				<rect x="0" y="260.482" width="91.1825" height="19.8425" class="st1"/>
				<text x="5.59" y="275.2" class="st2">「四律儀」</text>			</g>
			<g id="shape5-8" transform="translate(2.29585,-170.316)">
				<title>工作表.5</title>
				<desc>「得」</desc>
				<rect x="0" y="260.482" width="60.5054" height="19.8425" class="st1"/>
				<text x="6.25" y="275.2" class="st2">「得」</text>			</g>
			<g id="shape6-11" transform="translate(1.81328,-140.787)">
				<title>工作表.6</title>
				<desc>「轉法輪」</desc>
				<rect x="0" y="260.482" width="93.0723" height="19.8425" class="st1"/>
				<text x="6.54" y="275.2" class="st2">「轉法輪」</text>			</g>
			<g id="shape7-14" transform="translate(3.28081,-113.623)">
				<title>工作表.7</title>
				<desc>「四聖種」</desc>
				<rect x="0" y="260.482" width="90.7087" height="19.8425" class="st1"/>
				<text x="5.35" y="275.2" class="st2">「四聖種」</text>			</g>
			<g id="shape8-17" transform="translate(4.85718,-86.0945)">
				<title>工作表.8</title>
				<desc>「滅定」</desc>
				<rect x="0" y="260.482" width="72.0644" height="19.8425" class="st1"/>
				<text x="4.03" y="275.2" class="st2">「滅定」</text>			</g>
			<g id="shape9-20" transform="translate(1.86349,-56.9298)">
				<title>工作表.9</title>
				<desc>「八智」</desc>
				<rect x="0" y="260.482" width="79.3701" height="19.8425" class="st1"/>
				<text x="7.69" y="275.2" class="st2">「八智」</text>			</g>
			<g id="shape10-23" transform="translate(0,-28.4581)">
				<title>工作表.10</title>
				<desc>「三三摩地」</desc>
				<rect x="0" y="260.482" width="113.135" height="19.8425" class="st1"/>
				<text x="8.57" y="275.2" class="st2">「三三摩地」</text>			</g>
			<g id="shape11-26" transform="translate(1.87856,-0.236913)">
				<title>工作表.11</title>
				<desc>「三重三摩地」</desc>
				<rect x="0" y="260.482" width="127.529" height="19.8425" class="st1"/>
				<text x="7.76" y="275.2" class="st2">「三重三摩地」</text>			</g>
			<g id="shape12-29" transform="translate(159.246,-226.663)">
				<title>工作表.12</title>
				<desc>〈定蘊〉</desc>
				<rect x="0" y="260.482" width="78.6786" height="19.8425" class="st1"/>
				<text x="7.34" y="275.2" class="st2">〈定蘊〉</text>			</g>
			<g id="shape13-32" transform="translate(162.18,-198.789)">
				<title>工作表.13</title>
				<desc>〈業蘊〉</desc>
				<rect x="0" y="260.482" width="73.9542" height="19.8425" class="st1"/>
				<text x="4.98" y="275.2" class="st2">〈業蘊〉</text>			</g>
			<g id="shape14-35" transform="translate(160.005,-84.4581)">
				<title>工作表.14</title>
				<desc>〈根蘊〉</desc>
				<rect x="0" y="260.482" width="77.7337" height="19.8425" class="st1"/>
				<text x="6.87" y="275.2" class="st2">〈根蘊〉</text>			</g>
			<g id="shape15-38" transform="translate(162.839,-56.9298)">
				<title>工作表.15</title>
				<desc>〈智蘊〉</desc>
				<rect x="0" y="260.482" width="72.0644" height="19.8425" class="st1"/>
				<text x="4.03" y="275.2" class="st2">〈智蘊〉</text>			</g>
			<g id="shape16-41" transform="translate(228.475,-227.009)">
				<title>工作表.16</title>
				<desc>卷一七二</desc>
				<rect x="0" y="260.482" width="112.19" height="19.8425" class="st1"/>
				<text x="8.1" y="275.2" class="st2">（卷一七二）</text>			</g>
			<g id="shape17-44" transform="translate(226.585,-198.662)">
				<title>工作表.17</title>
				<desc>卷一一九</desc>
				<rect x="0" y="260.482" width="115.97" height="19.8425" class="st1"/>
				<text x="9.99" y="275.2" class="st2">（卷一一九）</text>			</g>
			<g id="shape18-47" transform="translate(229.046,-170.913)">
				<title>工作表.18</title>
				<desc>卷一五八</desc>
				<rect x="0" y="260.482" width="112.19" height="19.8425" class="st1"/>
				<text x="8.1" y="275.2" class="st2">（卷一五八）</text>			</g>
			<g id="shape24-50" transform="translate(228.475,-0.236913)">
				<title>工作表.24</title>
				<desc>卷一○五</desc>
				<rect x="0" y="260.482" width="115.025" height="19.8425" class="st1"/>
				<text x="9.51" y="275.2" class="st2">（卷一○五）</text>			</g>
			<g id="shape25-53" transform="translate(426.537,-142.915)">
				<title>工作表.25</title>
				<desc>〈雜揵度〉</desc>
				<rect x="0" y="260.482" width="92.6012" height="19.8425" class="st1"/>
				<text x="6.3" y="275.2" class="st2">〈雜揵度〉</text>			</g>
			<g id="shape26-56" transform="translate(428.142,-85.0408)">
				<title>工作表.26</title>
				<desc>〈使揵度〉</desc>
				<rect x="0" y="260.482" width="90.2376" height="19.8425" class="st1"/>
				<text x="5.12" y="275.2" class="st2">〈使揵度〉</text>			</g>
			<g id="shape27-59" transform="translate(512.918,-227.608)">
				<title>工作表.27</title>
				<desc>卷七</desc>
				<rect x="0" y="260.482" width="74.899" height="19.8425" class="st1"/>
				<text x="5.45" y="275.2" class="st2">（卷七）</text>			</g>
			<g id="shape28-62" transform="translate(512.976,-198.308)">
				<title>工作表.28</title>
				<desc>卷一○</desc>
				<rect x="0" y="260.482" width="90.0007" height="19.8425" class="st1"/>
				<text x="5" y="275.2" class="st2">（卷一○）</text>			</g>
			<g id="shape29-65" transform="translate(510.16,-170.079)">
				<title>工作表.29</title>
				<desc>卷一七</desc>
				<rect x="0" y="260.482" width="96.8518" height="19.8425" class="st1"/>
				<text x="8.43" y="275.2" class="st2">（卷一七）</text>			</g>
			<g id="shape32-68" transform="translate(234.564,29.2215) rotate(-90)">
				<title>工作表.32</title>
				<path d="M0 280.32 L28.35 280.32" class="st3"/>
			</g>
			<g id="shape31-71" transform="translate(234.61,29.2215) rotate(-90)">
				<title>工作表.31</title>
				<path d="M0 280.32 L0 222.21 L0 152.77 L28.35 152.77 L28.35 222.21 L28.35 280.32" class="st3"/>
			</g>
			<g id="shape2-74" transform="translate(389.768,-256.33)">
				<title>工作表.2</title>
				<desc>涼　　譯　　本</desc>
				<rect x="0" y="260.482" width="122.774" height="19.8425" class="st4"/>
				<text x="5.39" y="275.2" class="st2">涼　　譯　　本</text>			</g>
			<g id="shape1-77" transform="translate(19.6532,-255.355)">
				<title>工作表.1</title>
				<desc>唐　　譯　　本</desc>
				<rect x="0" y="260.482" width="123.732" height="19.8425" class="st4"/>
				<text x="5.87" y="275.2" class="st2">唐　　譯　　本</text>			</g>
			<g id="group34-80" transform="translate(-135.311,29.2215) rotate(-90)">
				<title>工作表.34</title>
				<g id="shape35-81">
					<title>工作表.35</title>
					<path d="M0 280.32 L0 222.21 L0 152.77 L28.35 152.77 L28.35 222.21 L28.35 280.32" class="st3"/>
				</g>
			</g>
			<g id="shape37-84" transform="translate(-135.311,29.2215) rotate(-90)">
				<title>工作表.37</title>
				<path d="M0 280.32 L28.35 280.32" class="st3"/>
			</g>
			<g id="shape42-87" transform="translate(162.839,-26.5669)">
				<title>工作表.42</title>
				<desc>〈智蘊〉</desc>
				<rect x="0" y="260.482" width="72.0644" height="19.8425" class="st1"/>
				<text x="4.03" y="275.2" class="st2">〈智蘊〉</text>			</g>
			<g id="shape43-90" transform="translate(162.839,-1.05511)">
				<title>工作表.43</title>
				<desc>〈智蘊〉</desc>
				<rect x="0" y="260.482" width="72.0644" height="19.8425" class="st1"/>
				<text x="4.03" y="275.2" class="st2">〈智蘊〉</text>			</g>
			<g id="shape44-93" transform="translate(159.246,-113.623)">
				<title>工作表.44</title>
				<desc>〈定蘊〉</desc>
				<rect x="0" y="260.482" width="78.6786" height="19.8425" class="st1"/>
				<text x="7.34" y="275.2" class="st2">〈定蘊〉</text>			</g>
			<g id="shape45-96" transform="translate(159.246,-170.661)">
				<title>工作表.45</title>
				<desc>〈定蘊〉</desc>
				<rect x="0" y="260.482" width="78.6786" height="19.8425" class="st1"/>
				<text x="7.34" y="275.2" class="st2">〈定蘊〉</text>			</g>
			<g id="shape46-99" transform="translate(159.246,-142.315)">
				<title>工作表.46</title>
				<desc>〈定蘊〉</desc>
				<rect x="0" y="260.482" width="78.6786" height="19.8425" class="st1"/>
				<text x="7.34" y="275.2" class="st2">〈定蘊〉</text>			</g>
			<g id="shape49-102" transform="translate(426.537,-227.009)">
				<title>工作表.49</title>
				<desc>〈雜揵度〉</desc>
				<rect x="0" y="260.482" width="92.6012" height="19.8425" class="st1"/>
				<text x="6.3" y="275.2" class="st2">〈雜揵度〉</text>			</g>
			<g id="shape50-105" transform="translate(426.537,-197.716)">
				<title>工作表.50</title>
				<desc>〈雜揵度〉</desc>
				<rect x="0" y="260.482" width="92.6012" height="19.8425" class="st1"/>
				<text x="6.3" y="275.2" class="st2">〈雜揵度〉</text>			</g>
			<g id="shape51-108" transform="translate(426.537,-170.316)">
				<title>工作表.51</title>
				<desc>〈雜揵度〉</desc>
				<rect x="0" y="260.482" width="92.6012" height="19.8425" class="st1"/>
				<text x="6.3" y="275.2" class="st2">〈雜揵度〉</text>			</g>
			<g id="shape52-111" transform="translate(426.537,-113.623)">
				<title>工作表.52</title>
				<desc>〈雜揵度〉</desc>
				<rect x="0" y="260.482" width="92.6012" height="19.8425" class="st1"/>
				<text x="6.3" y="275.2" class="st2">〈雜揵度〉</text>			</g>
			<g id="shape53-114" transform="translate(428.142,-0.00138565)">
				<title>工作表.53</title>
				<desc>〈使揵度〉</desc>
				<rect x="0" y="260.482" width="90.2376" height="19.8425" class="st1"/>
				<text x="5.12" y="275.2" class="st2">〈使揵度〉</text>			</g>
			<g id="shape54-117" transform="translate(428.142,-28.3478)">
				<title>工作表.54</title>
				<desc>〈使揵度〉</desc>
				<rect x="0" y="260.482" width="90.2376" height="19.8425" class="st1"/>
				<text x="5.12" y="275.2" class="st2">〈使揵度〉</text>			</g>
			<g id="shape55-120" transform="translate(428.142,-57.1654)">
				<title>工作表.55</title>
				<desc>〈使揵度〉</desc>
				<rect x="0" y="260.482" width="90.2376" height="19.8425" class="st1"/>
				<text x="5.12" y="275.2" class="st2">〈使揵度〉</text>			</g>
			<g id="shape22-123" transform="translate(510.16,-142.206)">
				<title>工作表.22</title>
				<desc>卷二一</desc>
				<rect x="0" y="260.482" width="96.8518" height="19.8425" class="st1"/>
				<text x="8.43" y="275.2" class="st2">（卷二一）</text>			</g>
			<g id="shape23-126" transform="translate(510.16,-113.86)">
				<title>工作表.23</title>
				<desc>卷二二</desc>
				<rect x="0" y="260.482" width="96.8518" height="19.8425" class="st1"/>
				<text x="8.43" y="275.2" class="st2">（卷二二）</text>			</g>
			<g id="shape57-129" transform="translate(510.16,-56.9298)">
				<title>工作表.57</title>
				<desc>卷四五</desc>
				<rect x="0" y="260.482" width="96.8518" height="19.8425" class="st1"/>
				<text x="8.43" y="275.2" class="st2">（卷四五）</text>			</g>
			<g id="shape58-132" transform="translate(510.16,5.68434E-14)">
				<title>工作表.58</title>
				<desc>卷四六</desc>
				<rect x="0" y="260.482" width="96.8518" height="19.8425" class="st1"/>
				<text x="8.43" y="275.2" class="st2">（卷四六）</text>			</g>
			<g id="shape59-135" transform="translate(105.328,-38.5046)">
				<title>工作表.59</title>
				<path d="M0 280.32 L65.2 280.32" class="st3"/>
			</g>
			<g id="shape61-138" transform="translate(119.501,-10.1582)">
				<title>工作表.61</title>
				<path d="M0 280.32 L50.18 280.32" class="st3"/>
			</g>
			<g id="shape70-141" transform="translate(71.3123,-66.8511)">
				<title>工作表.70</title>
				<path d="M0 280.32 L99.21 280.32" class="st3"/>
			</g>
			<g id="shape71-144" transform="translate(71.3123,-95.1975)">
				<title>工作表.71</title>
				<path d="M0 280.32 L99.21 280.32" class="st3"/>
			</g>
			<g id="shape72-147" transform="translate(51.4698,-180.237)">
				<title>工作表.72</title>
				<path d="M0 280.32 L121.89 280.32" class="st3"/>
			</g>
			<g id="shape73-150" transform="translate(68.4777,-236.93)">
				<title>工作表.73</title>
				<path d="M0 280.32 L102.05 280.32" class="st3"/>
			</g>
			<g id="shape74-153" transform="translate(85.4855,-151.89)">
				<title>工作表.74</title>
				<path d="M0 280.32 L85.04 280.32" class="st3"/>
			</g>
			<g id="shape75-156" transform="translate(85.4855,-123.544)">
				<title>工作表.75</title>
				<path d="M0 280.32 L85.04 280.32" class="st3"/>
			</g>
			<g id="shape76-159" transform="translate(85.4855,-208.583)">
				<title>工作表.76</title>
				<path d="M0 280.32 L85.04 280.32" class="st3"/>
			</g>
			<g id="shape19-162" transform="translate(329.34,-141.764)">
				<title>工作表.19</title>
				<desc>一八三</desc>
				<rect x="0" y="260.482" width="78.378" height="19.8425" class="st1"/>
				<text x="7.19" y="275.2" class="st2">一八三）</text>			</g>
			<g id="shape84-165" transform="translate(228.455,-141.268)">
				<title>工作表.84</title>
				<desc>卷一八二</desc>
				<rect x="0" y="260.482" width="98.9137" height="19.8425" class="st1"/>
				<text x="9.46" y="275.2" class="st2">（卷一八二</text>			</g>
			<g id="shape89-168" transform="translate(227.458,-114.19)">
				<title>工作表.89</title>
				<desc>卷一四二</desc>
				<rect x="0" y="260.482" width="98.9137" height="19.8425" class="st1"/>
				<text x="9.46" y="275.2" class="st2">（卷一四二</text>			</g>
			<g id="shape85-171" transform="translate(329.34,-113.418)">
				<title>工作表.85</title>
				<desc>一四三</desc>
				<rect x="0" y="260.482" width="78.378" height="19.8425" class="st1"/>
				<text x="7.19" y="275.2" class="st2">一四三）</text>			</g>
			<g id="shape20-174" transform="translate(227.458,-84.5752)">
				<title>工作表.20</title>
				<desc>卷一五二</desc>
				<rect x="0" y="260.482" width="98.9137" height="19.8425" class="st1"/>
				<text x="9.46" y="275.2" class="st2">（卷一五二</text>			</g>
			<g id="shape86-177" transform="translate(329.34,-85.0712)">
				<title>工作表.86</title>
				<desc>一五三</desc>
				<rect x="0" y="260.482" width="78.378" height="19.8425" class="st1"/>
				<text x="7.19" y="275.2" class="st2">一五三）</text>			</g>
			<g id="shape47-180" transform="translate(227.458,-56.2287)">
				<title>工作表.47</title>
				<desc>卷一○五</desc>
				<rect x="0" y="260.482" width="98.9137" height="19.8425" class="st1"/>
				<text x="9.46" y="275.2" class="st2">（卷一○五</text>			</g>
			<g id="shape87-183" transform="translate(329.34,-56.7248)">
				<title>工作表.87</title>
				<desc>一○六</desc>
				<rect x="0" y="260.482" width="78.378" height="19.8425" class="st1"/>
				<text x="7.19" y="275.2" class="st2">一○六）</text>			</g>
			<g id="shape21-186" transform="translate(227.458,-27.8822)">
				<title>工作表.21</title>
				<desc>卷一○四</desc>
				<rect x="0" y="260.482" width="98.9137" height="19.8425" class="st1"/>
				<text x="9.46" y="275.2" class="st2">（卷一○四</text>			</g>
			<g id="shape88-189" transform="translate(329.34,-28.3783)">
				<title>工作表.88</title>
				<desc>一○五</desc>
				<rect x="0" y="260.482" width="78.378" height="19.8425" class="st1"/>
				<text x="7.19" y="275.2" class="st2">一○五）</text>			</g>
			<g id="shape48-192" transform="translate(500.911,-84.5752)">
				<title>工作表.48</title>
				<desc>卷四四</desc>
				<rect x="0" y="260.482" width="98.9137" height="19.8425" class="st1"/>
				<text x="17.46" y="275.2" class="st2">（卷四四</text>			</g>
			<g id="shape90-195" transform="translate(584.879,-84.5752)">
				<title>工作表.90</title>
				<desc>四五</desc>
				<rect x="0" y="260.482" width="78.378" height="19.8425" class="st1"/>
				<text x="15.19" y="275.2" class="st2">四五）</text>			</g>
			<g id="shape30-198" transform="translate(500.911,-27.8822)">
				<title>工作表.30</title>
				<desc>卷四五</desc>
				<rect x="0" y="260.482" width="98.9137" height="19.8425" class="st1"/>
				<text x="17.46" y="275.2" class="st2">（卷四五</text>			</g>
			<g id="shape91-201" transform="translate(584.736,-28.3783)">
				<title>工作表.91</title>
				<desc>四六</desc>
				<rect x="0" y="260.482" width="78.378" height="19.8425" class="st1"/>
				<text x="15.19" y="275.2" class="st2">四六）</text>			</g>
			<g id="shape60-204" transform="translate(394.462,-38.5046)">
				<title>工作表.60</title>
				<path d="M0 280.32 L42.52 280.32" class="st5"/>
			</g>
			<g id="shape62-207" transform="translate(332.1,-10.1582)">
				<title>工作表.62</title>
				<path d="M0 280.32 L104.88 280.32" class="st5"/>
			</g>
			<g id="shape63-210" transform="translate(394.462,-95.1975)">
				<title>工作表.63</title>
				<path d="M0 280.32 L42.52 280.32" class="st5"/>
			</g>
			<g id="shape64-213" transform="translate(391.627,-123.544)">
				<title>工作表.64</title>
				<path d="M0 280.32 L42.52 280.32" class="st5"/>
			</g>
			<g id="shape65-216" transform="translate(391.627,-151.89)">
				<title>工作表.65</title>
				<path d="M0 280.32 L42.52 280.32" class="st5"/>
			</g>
			<g id="shape66-219" transform="translate(394.462,-66.8511)">
				<title>工作表.66</title>
				<path d="M0 280.32 L42.52 280.32" class="st5"/>
			</g>
			<g id="shape67-222" transform="translate(328.556,-180.835)">
				<title>工作表.67</title>
				<path d="M0 280.32 L104.88 280.32" class="st5"/>
			</g>
			<g id="shape68-225" transform="translate(329.265,-208.583)">
				<title>工作表.68</title>
				<path d="M0 280.32 L104.88 280.32" class="st5"/>
			</g>
			<g id="shape69-228" transform="translate(329.265,-238.506)">
				<title>工作表.69</title>
				<path d="M0 280.32 L104.88 280.32" class="st5"/>
			</g>
			<g id="shape33-231" transform="translate(315.659,-141.969)">
				<title>工作表.33</title>
				<rect x="0" y="260.482" width="24.378" height="19.8425" class="st1"/>
				<text x="4.19" y="275.2" class="st2">～</text>			</g>
			<g id="shape36-234" transform="translate(315.659,-113.623)">
				<title>工作表.36</title>
				<rect x="0" y="260.482" width="24.378" height="19.8425" class="st1"/>
				<text x="4.19" y="275.2" class="st2">～</text>			</g>
			<g id="shape38-237" transform="translate(315.659,-85.2763)">
				<title>工作表.38</title>
				<rect x="0" y="260.482" width="24.378" height="19.8425" class="st1"/>
				<text x="4.19" y="275.2" class="st2">～</text>			</g>
			<g id="shape39-240" transform="translate(315.659,-56.9298)">
				<title>工作表.39</title>
				<rect x="0" y="260.482" width="24.378" height="19.8425" class="st1"/>
				<text x="4.19" y="275.2" class="st2">～</text>			</g>
			<g id="shape40-243" transform="translate(315.659,-28.5834)">
				<title>工作表.40</title>
				<rect x="0" y="260.482" width="24.378" height="19.8425" class="st1"/>
				<text x="4.19" y="275.2" class="st2">～</text>			</g>
			<g id="shape41-246" transform="translate(579.281,-28.5834)">
				<title>工作表.41</title>
				<rect x="0" y="260.482" width="24.378" height="19.8425" class="st1"/>
				<text x="4.19" y="275.2" class="st2">～</text>			</g>
			<g id="shape56-249" transform="translate(579.281,-85.2763)">
				<title>工作表.56</title>
				<rect x="0" y="260.482" width="24.378" height="19.8425" class="st1"/>
				<text x="4.19" y="275.2" class="st2">～</text>			</g>
		</g>
	</g>
</svg>
