<?xml version="1.0" encoding="UTF-8" standalone="no"?>
<!DOCTYPE svg PUBLIC "-//W3C//DTD SVG 1.0//EN" "http://www.w3.org/TR/2001/REC-SVG-20010904/DTD/svg10.dtd">
<!-- 由 Microsoft Visio 11.0, SVG Export, v1.0 產生 y36.0051-2.svg Page-1 -->
<svg xmlns="http://www.w3.org/2000/svg" xmlns:xlink="http://www.w3.org/1999/xlink" xmlns:ev="http://www.w3.org/2001/xml-events"
		xmlns:v="http://schemas.microsoft.com/visio/2003/SVGExtensions/" width="7.79131in" height="2.03029in"
		viewBox="0 0 560.974 146.181" xml:space="preserve" color-interpolation-filters="sRGB" class="st5">
	<v:documentProperties v:langID="1028" v:metric="true" v:viewMarkup="false">
		<v:userDefs>
			<v:ud v:nameU="msvSubprocessMaster" v:prompt="" v:val="VT4(Box)"/>
			<v:ud v:nameU="msvNoAutoConnect" v:val="VT0(1):26"/>
		</v:userDefs>
	</v:documentProperties>

	<style type="text/css">
	<![CDATA[
		.st1 {fill:none;stroke:none;stroke-linecap:round;stroke-linejoin:round;stroke-width:0.75}
		.st2 {fill:#000000;font-family:新細明體;font-size:1.33333em}
		.st3 {font-family:Times New Roman;font-size:1em}
		.st4 {stroke:#000000;stroke-linecap:round;stroke-linejoin:round;stroke-width:0.24}
		.st5 {fill:none;fill-rule:evenodd;font-size:12px;overflow:visible;stroke-linecap:square;stroke-miterlimit:3}
	]]>
	</style>

	<g v:mID="0" v:index="1" v:groupContext="foregroundPage">
		<title>頁-1</title>
		<v:pageProperties v:drawingScale="0.0393701" v:pageScale="0.0393701" v:drawingUnits="24" v:shadowOffsetX="8.50394"
				v:shadowOffsetY="-8.50394"/>
		<g id="shape1-1" v:mID="1" v:groupContext="shape" transform="translate(18.75,-60.9014)">
			<title>工作表.1</title>
			<desc>滿月大經南傳</desc>
			<v:textBlock v:margins="rect(4,4,4,4)" v:tabSpace="42.5197"/>
			<v:textRect cx="68.0315" cy="133.992" width="136.07" height="24.378"/>
			<rect x="0" y="121.803" width="136.063" height="24.378" class="st1"/>
			<text x="4" y="138.79" class="st2" v:langID="1028"><v:paragraph/><v:tabList/>滿月大經（南傳）</text>		</g>
		<g id="shape2-4" v:mID="2" v:groupContext="shape" transform="translate(18.75,-24.3345)">
			<title>工作表.2</title>
			<desc>迦摩二漢譯</desc>
			<v:textBlock v:margins="rect(4,4,4,4)" v:tabSpace="42.5197"/>
			<v:textRect cx="76.1102" cy="133.992" width="152.23" height="24.378"/>
			<rect x="0" y="121.803" width="152.22" height="24.378" class="st1"/>
			<text x="4" y="138.79" class="st2" v:langID="1028"><v:paragraph/><v:tabList/>迦摩（二）（漢譯）</text>		</g>
		<g id="shape3-7" v:mID="3" v:groupContext="shape" transform="translate(18.75,-97.4683)">
			<title>工作表.3</title>
			<desc>Cūḷavedalla</desc>
			<v:textBlock v:margins="rect(4,4,4,4)" v:tabSpace="42.5197"/>
			<v:textRect cx="52.0157" cy="133.992" width="104.04" height="24.378"/>
			<rect x="0" y="121.803" width="104.031" height="24.378" class="st1"/>
			<text x="4" y="138.98" class="st2" v:langID="1033"><v:paragraph/><v:tabList/>Cū<tspan class="st3">ḷ</tspan>avedalla</text>		</g>
		<g id="shape4-11" v:mID="4" v:groupContext="shape" transform="translate(198.892,-97.4683)">
			<title>工作表.4</title>
			<desc>1</desc>
			<v:textBlock v:margins="rect(4,4,4,4)" v:tabSpace="42.5197"/>
			<v:textRect cx="12.189" cy="133.992" width="24.38" height="24.378"/>
			<rect x="0" y="121.803" width="24.378" height="24.378" class="st1"/>
			<text x="8.43" y="138.79" class="st2" v:langID="1028"><v:paragraph v:horizAlign="1"/><v:tabList/>1</text>		</g>
		<g id="shape6-14" v:mID="6" v:groupContext="shape" transform="translate(542.734,274.122) rotate(180)">
			<title>工作表.6</title>
			<path d="M0 146.18 L521.57 146.18" class="st4"/>
		</g>
		<g id="shape7-17" v:mID="7" v:groupContext="shape" transform="translate(-125.021,127.941) rotate(-90)">
			<title>工作表.7</title>
			<path d="M0 146.18 L109.7 146.18" class="st4"/>
		</g>
		<g id="shape8-20" v:mID="8" v:groupContext="shape" transform="translate(542.734,164.421) rotate(180)">
			<title>工作表.8</title>
			<path d="M0 146.18 L521.57 146.18" class="st4"/>
		</g>
		<g id="shape9-23" v:mID="9" v:groupContext="shape" transform="translate(542.734,237.555) rotate(180)">
			<title>工作表.9</title>
			<path d="M0 146.18 L521.57 146.18" class="st4"/>
		</g>
		<g id="shape10-26" v:mID="10" v:groupContext="shape" transform="translate(542.734,200.988) rotate(180)">
			<title>工作表.10</title>
			<path d="M0 146.18 L521.57 146.18" class="st4"/>
		</g>
		<g id="shape14-29" v:mID="14" v:groupContext="shape" transform="translate(249.915,-97.4683)">
			<title>工作表.14</title>
			<desc>2</desc>
			<v:textBlock v:margins="rect(4,4,4,4)" v:tabSpace="42.5197"/>
			<v:textRect cx="12.189" cy="133.992" width="24.38" height="24.378"/>
			<rect x="0" y="121.803" width="24.378" height="24.378" class="st1"/>
			<text x="8.43" y="138.79" class="st2" v:langID="1028"><v:paragraph v:horizAlign="1"/><v:tabList/>2</text>		</g>
		<g id="shape15-32" v:mID="15" v:groupContext="shape" transform="translate(237.159,-60.9014)">
			<title>工作表.15</title>
			<desc>3</desc>
			<v:textBlock v:margins="rect(4,4,4,4)" v:tabSpace="42.5197"/>
			<v:textRect cx="12.189" cy="133.992" width="24.38" height="24.378"/>
			<rect x="0" y="121.803" width="24.378" height="24.378" class="st1"/>
			<text x="8.43" y="138.79" class="st2" v:langID="1028"><v:paragraph v:horizAlign="1"/><v:tabList/>3</text>		</g>
		<g id="shape16-35" v:mID="16" v:groupContext="shape" transform="translate(262.671,-60.9014)">
			<title>工作表.16</title>
			<desc>4</desc>
			<v:textBlock v:margins="rect(4,4,4,4)" v:tabSpace="42.5197"/>
			<v:textRect cx="12.189" cy="133.992" width="24.38" height="24.378"/>
			<rect x="0" y="121.803" width="24.378" height="24.378" class="st1"/>
			<text x="8.43" y="138.79" class="st2" v:langID="1028"><v:paragraph v:horizAlign="1"/><v:tabList/>4</text>		</g>
		<g id="shape17-38" v:mID="17" v:groupContext="shape" transform="translate(288.183,-97.4683)">
			<title>工作表.17</title>
			<desc>3</desc>
			<v:textBlock v:margins="rect(4,4,4,4)" v:tabSpace="42.5197"/>
			<v:textRect cx="12.189" cy="133.992" width="24.38" height="24.378"/>
			<rect x="0" y="121.803" width="24.378" height="24.378" class="st1"/>
			<text x="8.43" y="138.79" class="st2" v:langID="1028"><v:paragraph v:horizAlign="1"/><v:tabList/>3</text>		</g>
		<g id="shape18-41" v:mID="18" v:groupContext="shape" transform="translate(313.695,-97.4683)">
			<title>工作表.18</title>
			<desc>4</desc>
			<v:textBlock v:margins="rect(4,4,4,4)" v:tabSpace="42.5197"/>
			<v:textRect cx="12.189" cy="133.992" width="24.38" height="24.378"/>
			<rect x="0" y="121.803" width="24.378" height="24.378" class="st1"/>
			<text x="8.43" y="138.79" class="st2" v:langID="1028"><v:paragraph v:horizAlign="1"/><v:tabList/>4</text>		</g>
		<g id="shape19-44" v:mID="19" v:groupContext="shape" transform="translate(339.207,-97.4683)">
			<title>工作表.19</title>
			<desc>5</desc>
			<v:textBlock v:margins="rect(4,4,4,4)" v:tabSpace="42.5197"/>
			<v:textRect cx="12.189" cy="133.992" width="24.38" height="24.378"/>
			<rect x="0" y="121.803" width="24.378" height="24.378" class="st1"/>
			<text x="8.43" y="138.79" class="st2" v:langID="1028"><v:paragraph v:horizAlign="1"/><v:tabList/>5</text>		</g>
		<g id="shape20-47" v:mID="20" v:groupContext="shape" transform="translate(364.719,-97.4683)">
			<title>工作表.20</title>
			<desc>6</desc>
			<v:textBlock v:margins="rect(4,4,4,4)" v:tabSpace="42.5197"/>
			<v:textRect cx="12.189" cy="133.992" width="24.38" height="24.378"/>
			<rect x="0" y="121.803" width="24.378" height="24.378" class="st1"/>
			<text x="8.43" y="138.79" class="st2" v:langID="1028"><v:paragraph v:horizAlign="1"/><v:tabList/>6</text>		</g>
		<g id="shape21-50" v:mID="21" v:groupContext="shape" transform="translate(390.23,-97.4683)">
			<title>工作表.21</title>
			<desc>7</desc>
			<v:textBlock v:margins="rect(4,4,4,4)" v:tabSpace="42.5197"/>
			<v:textRect cx="12.189" cy="133.992" width="24.38" height="24.378"/>
			<rect x="0" y="121.803" width="24.378" height="24.378" class="st1"/>
			<text x="8.43" y="138.79" class="st2" v:langID="1028"><v:paragraph v:horizAlign="1"/><v:tabList/>7</text>		</g>
		<g id="shape22-53" v:mID="22" v:groupContext="shape" transform="translate(415.742,-97.4683)">
			<title>工作表.22</title>
			<desc>8</desc>
			<v:textBlock v:margins="rect(4,4,4,4)" v:tabSpace="42.5197"/>
			<v:textRect cx="12.189" cy="133.992" width="24.38" height="24.378"/>
			<rect x="0" y="121.803" width="24.378" height="24.378" class="st1"/>
			<text x="8.43" y="138.79" class="st2" v:langID="1028"><v:paragraph v:horizAlign="1"/><v:tabList/>8</text>		</g>
		<g id="shape23-56" v:mID="23" v:groupContext="shape" transform="translate(415.742,-24.3345)">
			<title>工作表.23</title>
			<desc>1</desc>
			<v:textBlock v:margins="rect(4,4,4,4)" v:tabSpace="42.5197"/>
			<v:textRect cx="12.189" cy="133.992" width="24.38" height="24.378"/>
			<rect x="0" y="121.803" width="24.378" height="24.378" class="st1"/>
			<text x="8.43" y="138.79" class="st2" v:langID="1028"><v:paragraph v:horizAlign="1"/><v:tabList/>1</text>		</g>
		<g id="shape24-59" v:mID="24" v:groupContext="shape" transform="translate(454.01,-97.4683)">
			<title>工作表.24</title>
			<desc>9</desc>
			<v:textBlock v:margins="rect(4,4,4,4)" v:tabSpace="42.5197"/>
			<v:textRect cx="12.189" cy="133.992" width="24.38" height="24.378"/>
			<rect x="0" y="121.803" width="24.378" height="24.378" class="st1"/>
			<text x="8.43" y="138.79" class="st2" v:langID="1028"><v:paragraph v:horizAlign="1"/><v:tabList/>9</text>		</g>
		<g id="shape25-62" v:mID="25" v:groupContext="shape" transform="translate(466.766,-24.3345)">
			<title>工作表.25</title>
			<desc>5</desc>
			<v:textBlock v:margins="rect(4,4,4,4)" v:tabSpace="42.5197"/>
			<v:textRect cx="12.189" cy="133.992" width="24.38" height="24.378"/>
			<rect x="0" y="121.803" width="24.378" height="24.378" class="st1"/>
			<text x="8.43" y="138.79" class="st2" v:langID="1028"><v:paragraph v:horizAlign="1"/><v:tabList/>5</text>		</g>
		<g id="shape26-65" v:mID="26" v:groupContext="shape" transform="translate(211.648,-60.9014)">
			<title>工作表.26</title>
			<desc>9</desc>
			<v:textBlock v:margins="rect(4,4,4,4)" v:tabSpace="42.5197"/>
			<v:textRect cx="12.189" cy="133.992" width="24.38" height="24.378"/>
			<rect x="0" y="121.803" width="24.378" height="24.378" class="st1"/>
			<text x="8.43" y="138.79" class="st2" v:langID="1028"><v:paragraph v:horizAlign="1"/><v:tabList/>9</text>		</g>
		<g id="shape5-68" v:mID="5" v:groupContext="shape" transform="translate(39.3881,127.941) rotate(-90)">
			<title>工作表.5</title>
			<path d="M0 146.18 L109.7 146.18" class="st4"/>
		</g>
		<g id="shape11-71" v:mID="11" v:groupContext="shape" transform="translate(64.8999,91.3739) rotate(-90)">
			<title>工作表.11</title>
			<path d="M0 146.18 L36.57 146.18" class="st4"/>
		</g>
		<g id="shape12-74" v:mID="12" v:groupContext="shape" transform="translate(90.4117,127.941) rotate(-90)">
			<title>工作表.12</title>
			<path d="M0 146.18 L109.7 146.18" class="st4"/>
		</g>
		<g id="shape13-77" v:mID="13" v:groupContext="shape" transform="translate(115.924,91.3739) rotate(-90)">
			<title>工作表.13</title>
			<path d="M0 146.18 L36.57 146.18" class="st4"/>
		</g>
		<g id="shape29-80" v:mID="29" v:groupContext="shape" transform="translate(217.971,127.941) rotate(-90)">
			<title>工作表.29</title>
			<path d="M0 146.18 L109.7 146.18" class="st4"/>
		</g>
		<g id="shape30-83" v:mID="30" v:groupContext="shape" transform="translate(141.435,127.941) rotate(-90)">
			<title>工作表.30</title>
			<path d="M0 146.18 L109.7 146.18" class="st4"/>
		</g>
		<g id="shape31-86" v:mID="31" v:groupContext="shape" transform="translate(166.947,54.8069) rotate(-90)">
			<title>工作表.31</title>
			<path d="M0 146.18 L36.57 146.18" class="st4"/>
		</g>
		<g id="shape32-89" v:mID="32" v:groupContext="shape" transform="translate(192.459,54.8069) rotate(-90)">
			<title>工作表.32</title>
			<path d="M0 146.18 L36.57 146.18" class="st4"/>
		</g>
		<g id="shape27-92" v:mID="27" v:groupContext="shape" transform="translate(371.042,91.3739) rotate(-90)">
			<title>工作表.27</title>
			<path d="M0 146.18 L73.13 146.18" class="st4"/>
		</g>
		<g id="shape28-95" v:mID="28" v:groupContext="shape" transform="translate(243.483,127.941) rotate(-90)">
			<title>工作表.28</title>
			<path d="M0 146.18 L109.7 146.18" class="st4"/>
		</g>
		<g id="shape33-98" v:mID="33" v:groupContext="shape" transform="translate(268.994,127.941) rotate(-90)">
			<title>工作表.33</title>
			<path d="M0 146.18 L109.7 146.18" class="st4"/>
		</g>
		<g id="shape34-101" v:mID="34" v:groupContext="shape" transform="translate(294.506,127.941) rotate(-90)">
			<title>工作表.34</title>
			<path d="M0 146.18 L109.7 146.18" class="st4"/>
		</g>
		<g id="shape35-104" v:mID="35" v:groupContext="shape" transform="translate(320.018,127.941) rotate(-90)">
			<title>工作表.35</title>
			<path d="M0 146.18 L36.57 146.18" class="st4"/>
		</g>
		<g id="shape36-107" v:mID="36" v:groupContext="shape" transform="translate(345.53,127.941) rotate(-90)">
			<title>工作表.36</title>
			<path d="M0 146.18 L109.7 146.18" class="st4"/>
		</g>
		<g id="shape37-110" v:mID="37" v:groupContext="shape" transform="translate(396.553,127.941) rotate(-90)">
			<title>工作表.37</title>
			<path d="M0 146.18 L109.7 146.18" class="st4"/>
		</g>
		<g id="shape38-113" v:mID="38" v:groupContext="shape" transform="translate(441.254,-24.3345)">
			<title>工作表.38</title>
			<desc>3</desc>
			<v:textBlock v:margins="rect(4,4,4,4)" v:tabSpace="42.5197"/>
			<v:textRect cx="12.189" cy="133.992" width="24.38" height="24.378"/>
			<rect x="0" y="121.803" width="24.378" height="24.378" class="st1"/>
			<text x="8.43" y="138.79" class="st2" v:langID="1028"><v:paragraph v:horizAlign="1"/><v:tabList/>3</text>		</g>
		<g id="shape39-116" v:mID="39" v:groupContext="shape" transform="translate(186.136,-60.9014)">
			<title>工作表.39</title>
			<desc>8</desc>
			<v:textBlock v:margins="rect(4,4,4,4)" v:tabSpace="42.5197"/>
			<v:textRect cx="12.189" cy="133.992" width="24.38" height="24.378"/>
			<rect x="0" y="121.803" width="24.378" height="24.378" class="st1"/>
			<text x="8.43" y="138.79" class="st2" v:langID="1028"><v:paragraph v:horizAlign="1"/><v:tabList/>8</text>		</g>
		<g id="shape40-119" v:mID="40" v:groupContext="shape" transform="translate(364.719,-24.3345)">
			<title>工作表.40</title>
			<desc>2</desc>
			<v:textBlock v:margins="rect(4,4,4,4)" v:tabSpace="42.5197"/>
			<v:textRect cx="12.189" cy="133.992" width="24.38" height="24.378"/>
			<rect x="0" y="121.803" width="24.378" height="24.378" class="st1"/>
			<text x="8.43" y="138.79" class="st2" v:langID="1028"><v:paragraph v:horizAlign="1"/><v:tabList/>2</text>		</g>
		<g id="shape41-122" v:mID="41" v:groupContext="shape" transform="translate(390.23,-24.3345)">
			<title>工作表.41</title>
			<desc>4</desc>
			<v:textBlock v:margins="rect(4,4,4,4)" v:tabSpace="42.5197"/>
			<v:textRect cx="12.189" cy="133.992" width="24.38" height="24.378"/>
			<rect x="0" y="121.803" width="24.378" height="24.378" class="st1"/>
			<text x="8.43" y="138.79" class="st2" v:langID="1028"><v:paragraph v:horizAlign="1"/><v:tabList/>4</text>		</g>
		<g id="shape42-125" v:mID="42" v:groupContext="shape" transform="translate(492.278,-97.4683)">
			<title>工作表.42</title>
			<desc>10</desc>
			<v:textBlock v:margins="rect(4,4,4,4)" v:tabSpace="42.5197"/>
			<v:textRect cx="12.189" cy="133.992" width="24.38" height="24.378"/>
			<rect x="0" y="121.803" width="24.378" height="24.378" class="st1"/>
			<text x="4.67" y="138.79" class="st2" v:langID="1028"><v:paragraph v:horizAlign="1"/><v:tabList/>10</text>		</g>
		<g id="shape43-128" v:mID="43" v:groupContext="shape" transform="translate(517.789,-97.4683)">
			<title>工作表.43</title>
			<desc>11</desc>
			<v:textBlock v:margins="rect(4,4,4,4)" v:tabSpace="42.5197"/>
			<v:textRect cx="12.189" cy="133.992" width="24.38" height="24.378"/>
			<rect x="0" y="121.803" width="24.378" height="24.378" class="st1"/>
			<text x="4.67" y="138.79" class="st2" v:langID="1028"><v:paragraph v:horizAlign="1"/><v:tabList/>11</text>		</g>
	</g>
</svg>
