<?xml version="1.0" encoding="UTF-8" standalone="no"?>
<!DOCTYPE svg PUBLIC "-//W3C//DTD SVG 1.1//EN" "http://www.w3.org/Graphics/SVG/1.1/DTD/svg11.dtd">
<!-- 由 Microsoft Visio, SVG Export 產生 y36.0127.svg 頁-1 -->
<svg xmlns="http://www.w3.org/2000/svg" xmlns:xlink="http://www.w3.org/1999/xlink" xmlns:ev="http://www.w3.org/2001/xml-events"
		width="9.12065in" height="8.03994in" viewBox="0 0 656.687 578.876" xml:space="preserve" color-interpolation-filters="sRGB"
		class="st6">
	<style type="text/css">
	<![CDATA[
		.st1 {fill:none;stroke:none;stroke-linecap:round;stroke-linejoin:round;stroke-width:0.75}
		.st2 {fill:#000000;font-family:新細明體;font-size:1.33333em}
		.st3 {fill:none;stroke:#000000;stroke-linecap:round;stroke-linejoin:round;stroke-width:0.75}
		.st4 {font-size:1em}
		.st5 {fill:#000000;font-family:新細明體;font-size:1.00001em}
		.st6 {fill:none;fill-rule:evenodd;font-size:12px;overflow:visible;stroke-linecap:square;stroke-miterlimit:3}
	]]>
	</style>

	<g>
		<title>頁-1</title>
		<g id="group53-1" transform="translate(0.375,-0.375)">
			<title>工作表.53</title>
			<g id="shape1-2" transform="translate(343.701,-548.504)">
				<title>工作表.1</title>
				<desc>舍利弗阿毘曇論</desc>
				<rect x="0" y="556.199" width="120.189" height="22.6772" class="st1"/>
				<text x="4.09" y="572.34" class="st2">舍利弗阿毘曇論</text>			</g>
			<g id="shape3-5" transform="translate(-430.766,37.3169) rotate(-90)">
				<title>工作表.3</title>
				<rect x="0" y="450.75" width="36.5669" height="128.126" class="st3"/>
			</g>
			<g id="shape2-7" transform="translate(23.9528,-548.504)">
				<title>工作表.2</title>
				<desc>法　　蘊　　論</desc>
				<rect x="0" y="556.199" width="120.189" height="22.6772" class="st1"/>
				<text x="0.25em" y="572.34" class="st2">法<tspan x="1.252em 2.254em" dy="0em" class="st4">　　</tspan><tspan x="3.256em"
							dy="0em" class="st4">蘊　</tspan><tspan x="4.258em 5.26em" dy="0em" class="st4">　　</tspan><tspan x="6.262em"
							dy="0em" class="st4">論</tspan></text>			</g>
			<g id="shape4-14" transform="translate(327.685,-434.551)">
				<title>工作表.4</title>
				<desc>見色不定是名眼入。</desc>
				<rect x="0" y="556.199" width="232.157" height="22.6772" class="st1"/>
				<text x="28.39" y="572.34" class="st2">見色，不定（是名眼入）。</text>			</g>
			<g id="shape5-17" transform="translate(327.685,-511.937)">
				<title>工作表.5</title>
				<desc>云何眼入眼根是名眼入。</desc>
				<rect x="0" y="556.199" width="232.157" height="22.6772" class="st1"/>
				<text x="28.39" y="572.34" class="st2">云何眼入？眼根是名眼入。</text>			</g>
			<g id="shape6-20" transform="translate(327.685,-487.559)">
				<title>工作表.6</title>
				<desc>云何眼入眼界是名眼入。</desc>
				<rect x="0" y="556.199" width="232.157" height="22.6772" class="st1"/>
				<text x="28.39" y="572.34" class="st2">云何眼入？眼界是名眼入。</text>			</g>
			<g id="shape7-23" transform="translate(1.59872E-13,-463.181)">
				<title>工作表.7</title>
				<desc>云何眼根謂眼於色已正當見及彼</desc>
				<rect x="0" y="556.199" width="312.094" height="22.6772" class="st1"/>
				<text x="28.36" y="572.34" class="st2">云何眼根？謂眼於色，已正當見，及彼</text>			</g>
			<g id="shape8-26" transform="translate(2.8777E-13,-438.803)">
				<title>工作表.8</title>
				<desc>同分是名眼根。</desc>
				<rect x="0" y="556.199" width="168.094" height="22.6772" class="st1"/>
				<text x="28.36" y="572.34" class="st2">同分，是名眼根。</text>			</g>
			<g id="shape9-29" transform="translate(327.685,-460.772)">
				<title>工作表.9</title>
				<desc>云何眼入我分攝已見色今見色當</desc>
				<rect x="0" y="556.199" width="328.252" height="22.6772" class="st1"/>
				<text x="28.44" y="572.34" class="st2">云何眼入？我分攝，已見色，今見色，當</text>			</g>
			<g id="shape10-32" transform="translate(2.8777E-13,-414.425)">
				<title>工作表.10</title>
				<desc>又眼增上發眼識於色已正當了及彼</desc>
				<rect x="0" y="556.199" width="312.094" height="22.6772" class="st1"/>
				<text x="28.36" y="572.34" class="st2">又眼增上發眼識，於色已正當了，及彼</text>			</g>
			<g id="shape11-35" transform="translate(5.7554E-13,-390.047)">
				<title>工作表.11</title>
				<desc>同分是名眼根。</desc>
				<rect x="0" y="556.199" width="168.094" height="22.6772" class="st1"/>
				<text x="28.36" y="572.34" class="st2">同分，是名眼根。</text>			</g>
			<g id="shape12-38" transform="translate(2.8777E-13,-365.669)">
				<title>工作表.12</title>
				<desc>又眼於色已正當礙及彼同分是名</desc>
				<rect x="0" y="556.199" width="312.094" height="22.6772" class="st1"/>
				<text x="28.36" y="572.34" class="st2">又眼於色，已正當礙，及彼同分，是名</text>			</g>
			<g id="shape13-41" transform="translate(6.55476E-13,-341.291)">
				<title>工作表.13</title>
				<desc>眼根。</desc>
				<rect x="0" y="556.199" width="88.1575" height="22.6772" class="st1"/>
				<text x="28.39" y="572.34" class="st2">眼根。</text>			</g>
			<g id="shape14-44" transform="translate(7.99361E-13,-268.157)">
				<title>工作表.14</title>
				<desc>如是過去未來現在諸所有眼根名為眼</desc>
				<rect x="0" y="556.199" width="312.094" height="22.6772" class="st1"/>
				<text x="28.36" y="572.34" class="st2">如是過去未來現在諸所有眼根，名為眼</text>			</g>
			<g id="shape15-47" transform="translate(6.39488E-13,-243.78)">
				<title>工作表.15</title>
				<desc>根。……此復云何謂四大種所造淨色</desc>
				<rect x="0" y="556.199" width="312.094" height="22.6772" class="st1"/>
				<text x="28.36" y="572.34" class="st2">根。……此復云何？謂四大種所造淨色</text>			</g>
			<g id="shape16-50" transform="translate(327.685,-365.669)">
				<title>工作表.16</title>
				<desc>若眼我分攝色已對眼今對當對不</desc>
				<rect x="0" y="556.199" width="328.252" height="22.6772" class="st1"/>
				<text x="28.44" y="572.34" class="st2">若眼我分攝，色已對眼，今對，當對，不</text>			</g>
			<g id="shape17-53" transform="translate(327.685,-341.291)">
				<title>工作表.17</title>
				<desc>定若眼無礙是名眼入。</desc>
				<rect x="0" y="556.199" width="248.031" height="22.6772" class="st1"/>
				<text x="28.33" y="572.34" class="st2">定，若眼無礙（是名眼入）。</text>			</g>
			<g id="shape18-56" transform="translate(327.685,-503.15)">
				<title>工作表.18</title>
				<desc>一</desc>
				<rect x="0" y="538.624" width="40.252" height="40.252" class="st1"/>
				<text x="14.13" y="562.35" class="st5">一</text>			</g>
			<g id="shape19-59" transform="translate(327.685,-316.913)">
				<title>工作表.19</title>
				<desc>若眼我分攝色光已來今來當來不</desc>
				<rect x="0" y="556.199" width="328.252" height="22.6772" class="st1"/>
				<text x="28.44" y="572.34" class="st2">若眼我分攝，色光已來，今來，當來，不</text>			</g>
			<g id="shape20-62" transform="translate(-111.018,37.3169) rotate(-90)">
				<title>工作表.20</title>
				<rect x="0" y="450.75" width="36.5669" height="128.126" class="st3"/>
			</g>
			<g id="shape21-64" transform="translate(327.685,-487.559)">
				<title>工作表.21</title>
				<desc>二</desc>
				<rect x="0" y="556.199" width="40.252" height="22.6772" class="st1"/>
				<text x="14.13" y="571.14" class="st5">二</text>			</g>
			<g id="shape22-67" transform="translate(327.685,-243.78)">
				<title>工作表.22</title>
				<desc>所造淨色是名眼入。</desc>
				<rect x="0" y="556.199" width="200.126" height="22.6772" class="st1"/>
				<text x="28.38" y="572.34" class="st2">所造淨色，是名眼入。</text>			</g>
			<g id="shape23-70" transform="translate(327.685,-268.157)">
				<title>工作表.23</title>
				<desc>云何眼入若眼我分攝去來現在四大</desc>
				<rect x="0" y="556.199" width="328.252" height="22.6772" class="st1"/>
				<text x="28.44" y="572.34" class="st2">云何眼入？若眼我分攝，去來現在，四大</text>			</g>
			<g id="shape24-73" transform="translate(327.685,-195.024)">
				<title>工作表.24</title>
				<desc>云何眼入若眼我分攝過去未來現在淨</desc>
				<rect x="0" y="556.199" width="328.252" height="22.6772" class="st1"/>
				<text x="28.44" y="572.34" class="st2">云何眼入？若眼我分攝，過去未來現在淨</text>			</g>
			<g id="shape25-76" transform="translate(9.19265E-14,-463.181)">
				<title>工作表.25</title>
				<desc>一</desc>
				<rect x="0" y="556.199" width="40.252" height="22.6772" class="st1"/>
				<text x="14.13" y="571.14" class="st5">一</text>			</g>
			<g id="shape26-79" transform="translate(327.685,-460.772)">
				<title>工作表.26</title>
				<desc>五</desc>
				<rect x="0" y="556.199" width="40.252" height="22.6772" class="st1"/>
				<text x="14.13" y="571.14" class="st5">五</text>			</g>
			<g id="shape27-82" transform="translate(2.23821E-13,-414.425)">
				<title>工作表.27</title>
				<desc>二</desc>
				<rect x="0" y="556.199" width="40.252" height="22.6772" class="st1"/>
				<text x="14.13" y="571.14" class="st5">二</text>			</g>
			<g id="shape28-85" transform="translate(9.19265E-14,-365.669)">
				<title>工作表.28</title>
				<desc>三</desc>
				<rect x="0" y="556.199" width="40.252" height="22.6772" class="st1"/>
				<text x="14.13" y="571.14" class="st5">三</text>			</g>
			<g id="shape29-88" transform="translate(8.63309E-13,-268.157)">
				<title>工作表.29</title>
				<desc>五</desc>
				<rect x="0" y="556.199" width="40.252" height="22.6772" class="st1"/>
				<text x="14.13" y="571.14" class="st5">五</text>			</g>
			<g id="shape30-91" transform="translate(4.47642E-13,-316.913)">
				<title>工作表.30</title>
				<desc>又眼於色已正當行及彼同分是名</desc>
				<rect x="0" y="556.199" width="312.094" height="22.6772" class="st1"/>
				<text x="28.36" y="572.34" class="st2">又眼於色，已正當行，及彼同分，是名</text>			</g>
			<g id="shape31-94" transform="translate(6.03517E-13,-316.913)">
				<title>工作表.31</title>
				<desc>四</desc>
				<rect x="0" y="556.199" width="40.252" height="22.6772" class="st1"/>
				<text x="14.13" y="571.14" class="st5">四</text>			</g>
			<g id="shape32-97" transform="translate(5.27578E-13,-292.535)">
				<title>工作表.32</title>
				<desc>眼根。</desc>
				<rect x="0" y="556.199" width="88.1575" height="22.6772" class="st1"/>
				<text x="28.39" y="572.34" class="st2">眼根。</text>			</g>
			<g id="shape33-100" transform="translate(7.15428E-13,-219.402)">
				<title>工作表.33</title>
				<desc>。</desc>
				<rect x="0" y="556.199" width="56.126" height="22.6772" class="st1"/>
				<text x="28.38" y="572.34" class="st2">。</text>			</g>
			<g id="shape34-103" transform="translate(327.685,-365.669)">
				<title>工作表.34</title>
				<desc>七</desc>
				<rect x="0" y="556.199" width="40.252" height="22.6772" class="st1"/>
				<text x="14.13" y="571.14" class="st5">七</text>			</g>
			<g id="shape35-106" transform="translate(327.685,-316.913)">
				<title>工作表.35</title>
				<desc>六</desc>
				<rect x="0" y="556.199" width="40.252" height="22.6772" class="st1"/>
				<text x="14.13" y="571.14" class="st5">六</text>			</g>
			<g id="shape36-109" transform="translate(327.685,-292.535)">
				<title>工作表.36</title>
				<desc>定是名眼入。</desc>
				<rect x="0" y="556.199" width="152.22" height="22.6772" class="st1"/>
				<text x="28.42" y="572.34" class="st2">定，是名眼入。</text>			</g>
			<g id="shape37-112" transform="translate(327.685,-268.157)">
				<title>工作表.37</title>
				<desc>三</desc>
				<rect x="0" y="556.199" width="40.252" height="22.6772" class="st1"/>
				<text x="14.13" y="571.14" class="st5">三</text>			</g>
			<g id="shape38-115" transform="translate(327.685,-195.024)">
				<title>工作表.38</title>
				<desc>四</desc>
				<rect x="0" y="556.199" width="40.252" height="22.6772" class="st1"/>
				<text x="14.13" y="571.14" class="st5">四</text>			</g>
			<g id="shape39-118" transform="translate(327.685,-170.646)">
				<title>工作表.39</title>
				<desc>色是名眼入。</desc>
				<rect x="0" y="556.199" width="152.22" height="22.6772" class="st1"/>
				<text x="28.42" y="572.34" class="st2">色，是名眼入。</text>			</g>
			<g id="shape40-121" transform="translate(1.31095E-12,-146.268)">
				<title>工作表.40</title>
				<desc>或地獄或傍生或鬼界或天或人</desc>
				<rect x="0" y="556.199" width="312.094" height="22.6772" class="st1"/>
				<text x="28.36" y="572.34" class="st2">或地獄，或傍生，或鬼界，或天，或人</text>			</g>
			<g id="shape41-124" transform="translate(1.08713E-12,-121.89)">
				<title>工作表.41</title>
				<desc>或中有或修所成……</desc>
				<rect x="0" y="556.199" width="216" height="22.6772" class="st1"/>
				<text x="28.31" y="572.34" class="st2">，或中有，或修所成……</text>			</g>
			<g id="shape42-127" transform="translate(1.15108E-12,-97.5118)">
				<title>工作表.42</title>
				<desc>謂名眼名眼處名眼界名眼根名</desc>
				<rect x="0" y="556.199" width="312.094" height="22.6772" class="st1"/>
				<text x="28.36" y="572.34" class="st2">謂名眼，名眼處，名眼界，名眼根，名</text>			</g>
			<g id="shape43-130" transform="translate(1.24301E-12,-97.5118)">
				<title>工作表.43</title>
				<desc>六</desc>
				<rect x="0" y="556.199" width="40.252" height="22.6772" class="st1"/>
				<text x="14.13" y="571.14" class="st5">六</text>			</g>
			<g id="shape44-133" transform="translate(1.31095E-12,-73.1339)">
				<title>工作表.44</title>
				<desc>見名道路名引導名白名淨名</desc>
				<rect x="0" y="556.199" width="312.094" height="22.6772" class="st1"/>
				<text x="28.36" y="572.34" class="st2">見，名道路，名引導，名白，名淨，名</text>			</g>
			<g id="shape45-136" transform="translate(1.31095E-12,-48.7559)">
				<title>工作表.45</title>
				<desc>藏名門名田名事名流名池</desc>
				<rect x="0" y="556.199" width="312.094" height="22.6772" class="st1"/>
				<text x="28.36" y="572.34" class="st2">藏，名門，名田，名事，名流，名池，</text>			</g>
			<g id="shape46-139" transform="translate(1.43885E-12,-24.378)">
				<title>工作表.46</title>
				<desc>名海名瘡名瘡門名此岸如是眼</desc>
				<rect x="0" y="556.199" width="312.094" height="22.6772" class="st1"/>
				<text x="28.36" y="572.34" class="st2">名海，名瘡，名瘡門，名此岸，如是眼</text>			</g>
			<g id="shape47-142">
				<title>工作表.47</title>
				<desc>根名內處攝。</desc>
				<rect x="0" y="556.199" width="152.22" height="22.6772" class="st1"/>
				<text x="28.42" y="572.34" class="st2">根，名內處攝。</text>			</g>
			<g id="shape48-145" transform="translate(327.685,-97.5118)">
				<title>工作表.48</title>
				<desc>是眼入是眼根是眼界是田是物</desc>
				<rect x="0" y="556.199" width="328.252" height="22.6772" class="st1"/>
				<text x="28.44" y="572.34" class="st2">是眼入，是眼根，是眼界，是田，是物，</text>			</g>
			<g id="shape49-148" transform="translate(327.685,-97.5118)">
				<title>工作表.49</title>
				<desc>八</desc>
				<rect x="0" y="556.199" width="40.252" height="22.6772" class="st1"/>
				<text x="14.13" y="571.14" class="st5">八</text>			</g>
			<g id="shape50-151" transform="translate(327.685,-73.1339)">
				<title>工作表.50</title>
				<desc>是門是藏是世是淨是泉是海</desc>
				<rect x="0" y="556.199" width="328.252" height="22.6772" class="st1"/>
				<text x="28.44" y="572.34" class="st2">是門，是藏，是世，是淨，是泉，是海，</text>			</g>
			<g id="shape51-154" transform="translate(327.685,-48.7559)">
				<title>工作表.51</title>
				<desc>是沃燋是洄澓是瘡是繫是目是</desc>
				<rect x="0" y="556.199" width="328.252" height="22.6772" class="st1"/>
				<text x="28.44" y="572.34" class="st2">是沃燋，是洄澓，是瘡，是繫，是目，是</text>			</g>
			<g id="shape52-157" transform="translate(327.685,-24.378)">
				<title>工作表.52</title>
				<desc>入我分是此岸是內入。</desc>
				<rect x="0" y="556.199" width="232.157" height="22.6772" class="st1"/>
				<text x="28.39" y="572.34" class="st2">入我分，是此岸，是內入。</text>			</g>
		</g>
	</g>
</svg>
