<?xml version="1.0" encoding="UTF-8" standalone="no"?>
<!DOCTYPE svg PUBLIC "-//W3C//DTD SVG 1.1//EN" "http://www.w3.org/Graphics/SVG/1.1/DTD/svg11.dtd">
<!-- 由 Microsoft Visio, SVG Export 產生 y36.0568-h.svg 頁-1 -->
<svg xmlns="http://www.w3.org/2000/svg" xmlns:xlink="http://www.w3.org/1999/xlink" xmlns:ev="http://www.w3.org/2001/xml-events"
		width="5.61936in" height="5.07231in" viewBox="0 0 404.594 365.207" xml:space="preserve" color-interpolation-filters="sRGB"
		class="st5">
	<style type="text/css">
	<![CDATA[
		.st1 {fill:none;stroke:none;stroke-linecap:round;stroke-linejoin:round;stroke-width:0.75}
		.st2 {fill:#000000;font-family:新細明體;font-size:1.33333em}
		.st3 {stroke:#000000;stroke-linecap:round;stroke-linejoin:round;stroke-width:1}
		.st4 {stroke:#000000;stroke-dasharray:3,3;stroke-linecap:round;stroke-linejoin:round;stroke-width:1}
		.st5 {fill:none;fill-rule:evenodd;font-size:12px;overflow:visible;stroke-linecap:square;stroke-miterlimit:3}
	]]>
	</style>

	<g>
		<title>頁-1</title>
		<g id="shape1-1" transform="translate(1.43799,-314.084)">
			<title>工作表.1</title>
			<desc>凡　位</desc>
			<rect x="0" y="342.529" width="59.5605" height="22.6772" class="st1"/>
			<text x="5.78" y="358.67" class="st2">凡　位</text>		</g>
		<g id="shape2-4" transform="translate(0.375,-185.091)">
			<title>工作表.2</title>
			<desc>聖　位</desc>
			<rect x="0" y="342.529" width="59.5605" height="22.6772" class="st1"/>
			<text x="5.78" y="358.67" class="st2">聖　位</text>		</g>
		<g id="shape3-7" transform="translate(88.5246,-342.154)">
			<title>工作表.3</title>
			<desc>世智如理觀察</desc>
			<rect x="0" y="342.529" width="138.379" height="22.6772" class="st1"/>
			<text x="5.19" y="358.67" class="st2">世智（如理觀察）</text>		</g>
		<g id="shape4-10" transform="translate(86.3537,-311.658)">
			<title>工作表.4</title>
			<desc>忍觀四諦理如隔輕紗</desc>
			<rect x="0" y="342.529" width="190.773" height="22.6772" class="st1"/>
			<text x="7.39" y="358.67" class="st2">忍（觀四諦理如隔輕紗）</text>		</g>
		<g id="shape5-13" transform="translate(84.5164,-284.303)">
			<title>工作表.5</title>
			<desc>正性決定世第一法</desc>
			<rect x="0" y="342.529" width="175.748" height="22.6772" class="st1"/>
			<text x="7.87" y="358.67" class="st2">正性決定（世第一法）</text>		</g>
		<g id="shape6-16" transform="translate(81.7339,-255.619)">
			<title>工作表.6</title>
			<desc>諦順忍</desc>
			<rect x="0" y="342.529" width="67.3557" height="22.6772" class="st1"/>
			<text x="9.68" y="358.67" class="st2">諦順忍</text>		</g>
		<g id="shape7-19" transform="translate(162.658,-255.957)">
			<title>工作表.7</title>
			<desc>聖定忍</desc>
			<rect x="0" y="342.529" width="63.8124" height="22.6772" class="st1"/>
			<text x="7.91" y="358.67" class="st2">聖定忍</text>		</g>
		<g id="shape8-22" transform="translate(261.036,-255.957)">
			<title>工作表.8</title>
			<desc>見諦</desc>
			<rect x="0" y="342.529" width="40.6786" height="22.6772" class="st1"/>
			<text x="4.34" y="358.67" class="st2">見諦</text>		</g>
		<g id="shape10-25" transform="translate(329.32,-199.863)">
			<title>工作表.10</title>
			<desc>頓斷三結</desc>
			<rect x="0" y="342.529" width="74.899" height="22.6772" class="st1"/>
			<text x="5.45" y="358.67" class="st2">頓斷三結</text>		</g>
		<g id="shape18-28" transform="translate(84.5584,-100.051)">
			<title>工作表.18</title>
			<desc>聖　道現觀</desc>
			<rect x="0" y="342.529" width="123.497" height="22.6772" class="st1"/>
			<text x="5.75" y="358.67" class="st2">聖　道（現觀）</text>		</g>
		<g id="shape19-31" transform="translate(195.845,-111.39)">
			<title>工作表.19</title>
			<path d="M0 365.21 L12.82 365.21" class="st3"/>
		</g>
		<g id="shape20-34" transform="translate(-289.766,69.5646) rotate(-90)">
			<title>工作表.20</title>
			<path d="M0 365.21 L56.69 365.21" class="st3"/>
		</g>
		<g id="shape21-37" transform="translate(75.441,-267.296)">
			<title>工作表.21</title>
			<path d="M0 365.21 L14.17 365.21" class="st3"/>
		</g>
		<g id="shape22-40" transform="translate(75.441,-295.642)">
			<title>工作表.22</title>
			<path d="M0 365.21 L14.17 365.21" class="st3"/>
		</g>
		<g id="shape23-43" transform="translate(75.441,-352.335)">
			<title>工作表.23</title>
			<path d="M0 365.21 L14.17 365.21" class="st3"/>
		</g>
		<g id="shape24-46" transform="translate(61.2677,-323.988)">
			<title>工作表.24</title>
			<path d="M0 365.21 L14.17 365.21" class="st3"/>
		</g>
		<g id="shape25-49" transform="translate(208.669,-12.1774)">
			<title>工作表.25</title>
			<path d="M0 365.21 L14.17 365.21" class="st3"/>
		</g>
		<g id="shape26-52" transform="translate(208.669,-210.603)">
			<title>工作表.26</title>
			<path d="M0 365.21 L14.17 365.21" class="st3"/>
		</g>
		<g id="shape9-55" transform="translate(217.42,-199.264)">
			<title>工作表.9</title>
			<desc>一苦法智</desc>
			<rect x="0" y="342.529" width="77.025" height="22.6772" class="st1"/>
			<text x="6.51" y="358.67" class="st2">一苦法智</text>		</g>
		<g id="shape11-58" transform="translate(217.107,-172.116)">
			<title>工作表.11</title>
			<desc>二苦類智</desc>
			<rect x="0" y="342.529" width="76.0973" height="22.6772" class="st1"/>
			<text x="6.05" y="358.67" class="st2">二苦類智</text>		</g>
		<g id="shape12-61" transform="translate(217.637,-143.525)">
			<title>工作表.12</title>
			<desc>三集法智</desc>
			<rect x="0" y="342.529" width="75.6077" height="22.6772" class="st1"/>
			<text x="5.8" y="358.67" class="st2">三集法智</text>		</g>
		<g id="shape13-64" transform="translate(216.288,-115.043)">
			<title>工作表.13</title>
			<desc>四集類智</desc>
			<rect x="0" y="342.529" width="77.7337" height="22.6772" class="st1"/>
			<text x="6.87" y="358.67" class="st2">四集類智</text>		</g>
		<g id="shape14-67" transform="translate(217.351,-85.8782)">
			<title>工作表.14</title>
			<desc>五滅法智</desc>
			<rect x="0" y="342.529" width="75.6077" height="22.6772" class="st1"/>
			<text x="5.8" y="358.67" class="st2">五滅法智</text>		</g>
		<g id="shape15-70" transform="translate(217.448,-57.5318)">
			<title>工作表.15</title>
			<desc>六滅類智</desc>
			<rect x="0" y="342.529" width="76.5354" height="22.6772" class="st1"/>
			<text x="6.27" y="358.67" class="st2">六滅類智</text>		</g>
		<g id="shape16-73" transform="translate(217.706,-28.5862)">
			<title>工作表.16</title>
			<desc>七道法智</desc>
			<rect x="0" y="342.529" width="74.899" height="22.6772" class="st1"/>
			<text x="5.45" y="358.67" class="st2">七道法智</text>		</g>
		<g id="shape17-76" transform="translate(218.837,-0.375)">
			<title>工作表.17</title>
			<desc>八道類智</desc>
			<rect x="0" y="342.529" width="72.7731" height="22.6772" class="st1"/>
			<text x="4.39" y="358.67" class="st2">八道類智</text>		</g>
		<g id="shape28-79" transform="translate(-156.537,353.029) rotate(-90)">
			<title>工作表.28</title>
			<path d="M0 365.21 L198.43 365.21" class="st3"/>
		</g>
		<g id="shape29-82" transform="translate(75.441,-111.39)">
			<title>工作表.29</title>
			<path d="M0 365.21 L14.17 365.21" class="st3"/>
		</g>
		<g id="shape30-85" transform="translate(61.2677,-196.429)">
			<title>工作表.30</title>
			<path d="M0 365.21 L14.17 365.21" class="st3"/>
		</g>
		<g id="shape31-88" transform="translate(-289.053,255.477) rotate(-90.2604)">
			<title>工作表.31</title>
			<path d="M0 365.21 L155.91 365.21" class="st3"/>
		</g>
		<g id="shape32-91" transform="translate(290.874,-210.603)">
			<title>工作表.32</title>
			<path d="M0 365.21 L39.69 365.21" class="st4"/>
		</g>
		<g id="shape33-94" transform="translate(140.128,-267.296)">
			<title>工作表.33</title>
			<path d="M0 365.21 L28.86 365.21" class="st3"/>
		</g>
		<g id="shape34-97" transform="translate(222.843,-267.296)">
			<title>工作表.34</title>
			<path d="M0 365.21 L39.55 365.21" class="st3"/>
		</g>
	</g>
</svg>
