<?xml version="1.0" encoding="UTF-8" standalone="no"?>
<!DOCTYPE svg PUBLIC "-//W3C//DTD SVG 1.1//EN" "http://www.w3.org/Graphics/SVG/1.1/DTD/svg11.dtd">
<!-- 由 Microsoft Visio, SVG Export 產生 y36.0182-h.svg 頁-1 -->
<svg xmlns="http://www.w3.org/2000/svg" xmlns:xlink="http://www.w3.org/1999/xlink" xmlns:ev="http://www.w3.org/2001/xml-events"
		width="7.46514in" height="3.46908in" viewBox="0 0 537.49 249.774" xml:space="preserve" color-interpolation-filters="sRGB"
		class="st5">
	<style type="text/css">
	<![CDATA[
		.st1 {fill:none;stroke:none;stroke-linecap:round;stroke-linejoin:round;stroke-width:0.75}
		.st2 {fill:#000000;font-family:新細明體;font-size:1.33333em}
		.st3 {fill:none;stroke:#000000;stroke-linecap:round;stroke-linejoin:round;stroke-width:0.75}
		.st4 {fill:#000000;font-family:新細明體;font-size:1.00001em}
		.st5 {fill:none;fill-rule:evenodd;font-size:12px;overflow:visible;stroke-linecap:square;stroke-miterlimit:3}
	]]>
	</style>

	<g>
		<title>頁-1</title>
		<g id="group31-1" transform="translate(0.375,-0.375)">
			<title>工作表.31</title>
			<g id="shape1-2" transform="translate(385.512,-146.268)">
				<title>工作表.1</title>
				<desc>煩惱品</desc>
				<rect x="0" y="227.096" width="56.126" height="22.6772" class="st1"/>
				<text x="4.06" y="243.24" class="st2">煩惱品</text>			</g>
			<g id="shape2-5" transform="translate(196.724,-219.402)">
				<title>工作表.2</title>
				<desc>施設論</desc>
				<rect x="0" y="227.096" width="120.189" height="22.6772" class="st1"/>
				<text x="0.25em 3.256em 6.262em" y="243.24" class="st2">施設論</text>			</g>
			<g id="shape3-8" transform="translate(4.3937,-219.402)">
				<title>工作表.3</title>
				<desc>發智論</desc>
				<rect x="0" y="227.096" width="120.189" height="22.6772" class="st1"/>
				<text x="0.25em 3.256em 6.262em" y="243.24" class="st2">發智論</text>			</g>
			<g id="shape4-11" transform="translate(388.913,-219.402)">
				<title>工作表.4</title>
				<desc>舍利弗阿毘曇論</desc>
				<rect x="0" y="227.096" width="120.189" height="22.6772" class="st1"/>
				<text x="0.25em 1.252em 2.254em 3.256em 4.258em 5.26em 6.262em" y="243.24" class="st2">舍利弗阿毘曇論</text>			</g>
			<g id="shape5-14" transform="translate(-125.191,37.3169) rotate(-90)">
				<title>工作表.5</title>
				<rect x="0" y="129.585" width="36.5669" height="120.189" class="st3"/>
			</g>
			<g id="shape6-16" transform="translate(67.1398,37.3169) rotate(-90)">
				<title>工作表.6</title>
				<rect x="0" y="129.585" width="36.5669" height="120.189" class="st3"/>
			</g>
			<g id="shape7-18" transform="translate(259.329,37.3169) rotate(-90)">
				<title>工作表.7</title>
				<rect x="0" y="129.585" width="36.5669" height="120.189" class="st3"/>
			</g>
			<g id="shape8-20" transform="translate(0,-170.646)">
				<title>工作表.8</title>
				<desc>雜蘊第一</desc>
				<rect x="0" y="227.096" width="72" height="22.6772" class="st1"/>
				<text x="4" y="243.24" class="st2">雜蘊第一</text>			</g>
			<g id="shape9-23" transform="translate(0,-146.268)">
				<title>工作表.9</title>
				<desc>結蘊第二</desc>
				<rect x="0" y="227.096" width="72" height="22.6772" class="st1"/>
				<text x="4" y="243.24" class="st2">結蘊第二</text>			</g>
			<g id="shape10-26" transform="translate(1.91847E-13,-121.89)">
				<title>工作表.10</title>
				<desc>智蘊第三</desc>
				<rect x="0" y="227.096" width="72" height="22.6772" class="st1"/>
				<text x="4" y="243.24" class="st2">智蘊第三</text>			</g>
			<g id="shape11-29" transform="translate(1.27898E-13,-97.5118)">
				<title>工作表.11</title>
				<desc>業蘊第四</desc>
				<rect x="0" y="227.096" width="72" height="22.6772" class="st1"/>
				<text x="4" y="243.24" class="st2">業蘊第四</text>			</g>
			<g id="shape12-32" transform="translate(3.83693E-13,-73.1339)">
				<title>工作表.12</title>
				<desc>根蘊第五</desc>
				<rect x="0" y="227.096" width="72" height="22.6772" class="st1"/>
				<text x="4" y="243.24" class="st2">根蘊第五</text>			</g>
			<g id="shape13-35" transform="translate(5.27578E-13,-48.7559)">
				<title>工作表.13</title>
				<desc>大種蘊第六</desc>
				<rect x="0" y="227.096" width="88.1575" height="22.6772" class="st1"/>
				<text x="4.08" y="243.24" class="st2">大種蘊第六</text>			</g>
			<g id="shape14-38" transform="translate(6.39488E-13,-24.378)">
				<title>工作表.14</title>
				<desc>定蘊第七</desc>
				<rect x="0" y="227.096" width="72" height="22.6772" class="st1"/>
				<text x="4" y="243.24" class="st2">定蘊第七</text>			</g>
			<g id="shape15-41">
				<title>工作表.15</title>
				<desc>見蘊第八</desc>
				<rect x="0" y="227.096" width="72" height="22.6772" class="st1"/>
				<text x="4" y="243.24" class="st2">見蘊第八</text>			</g>
			<g id="shape16-44" transform="translate(193.039,-146.268)">
				<title>工作表.16</title>
				<desc>結使記</desc>
				<rect x="0" y="227.096" width="56.126" height="22.6772" class="st1"/>
				<text x="4.06" y="243.24" class="st2">結使記</text>			</g>
			<g id="shape17-47" transform="translate(193.039,-121.89)">
				<title>工作表.17</title>
				<desc>慧記</desc>
				<rect x="0" y="227.096" width="40.252" height="22.6772" class="st1"/>
				<text x="4.13" y="243.24" class="st2">慧記</text>			</g>
			<g id="shape18-50" transform="translate(193.039,-97.5118)">
				<title>工作表.18</title>
				<desc>業記</desc>
				<rect x="0" y="227.096" width="40.252" height="22.6772" class="st1"/>
				<text x="4.13" y="243.24" class="st2">業記</text>			</g>
			<g id="shape19-53" transform="translate(193.039,-24.378)">
				<title>工作表.19</title>
				<desc>定記</desc>
				<rect x="0" y="227.096" width="40.252" height="22.6772" class="st1"/>
				<text x="4.13" y="243.24" class="st2">定記</text>			</g>
			<g id="shape20-56" transform="translate(432.709,-148.535)">
				<title>工作表.20</title>
				<desc>非問分第十一</desc>
				<rect x="0" y="227.096" width="104.031" height="22.6772" class="st1"/>
				<text x="4.02" y="242.04" class="st4">（非問分第十一）</text>			</g>
			<g id="shape21-59" transform="translate(385.512,-121.89)">
				<title>工作表.21</title>
				<desc>智品</desc>
				<rect x="0" y="227.096" width="40.252" height="22.6772" class="st1"/>
				<text x="4.13" y="243.24" class="st2">智品</text>			</g>
			<g id="shape22-62" transform="translate(385.512,-97.5118)">
				<title>工作表.22</title>
				<desc>業品</desc>
				<rect x="0" y="227.096" width="40.252" height="22.6772" class="st1"/>
				<text x="4.13" y="243.24" class="st2">業品</text>			</g>
			<g id="shape23-65" transform="translate(385.512,-73.1339)">
				<title>工作表.23</title>
				<desc>根品</desc>
				<rect x="0" y="227.096" width="40.252" height="22.6772" class="st1"/>
				<text x="4.13" y="243.24" class="st2">根品</text>			</g>
			<g id="shape24-68" transform="translate(385.512,-48.7559)">
				<title>工作表.24</title>
				<desc>大品</desc>
				<rect x="0" y="227.096" width="40.252" height="22.6772" class="st1"/>
				<text x="4.13" y="243.24" class="st2">大品</text>			</g>
			<g id="shape25-71" transform="translate(385.512,-24.378)">
				<title>工作表.25</title>
				<desc>定品</desc>
				<rect x="0" y="227.096" width="40.252" height="22.6772" class="st1"/>
				<text x="4.13" y="243.24" class="st2">定品</text>			</g>
			<g id="shape26-74" transform="translate(411.874,-124.866)">
				<title>工作表.26</title>
				<desc>非問分第四</desc>
				<rect x="0" y="227.096" width="104.031" height="22.6772" class="st1"/>
				<text x="10.02" y="242.04" class="st4">（非問分第四）</text>			</g>
			<g id="shape27-77" transform="translate(411.874,-101.339)">
				<title>工作表.27</title>
				<desc>非問分第二</desc>
				<rect x="0" y="227.096" width="104.031" height="22.6772" class="st1"/>
				<text x="10.02" y="242.04" class="st4">（非問分第二）</text>			</g>
			<g id="shape28-80" transform="translate(413.575,-76.1102)">
				<title>工作表.28</title>
				<desc>問分第五</desc>
				<rect x="0" y="227.096" width="88.1575" height="22.6772" class="st1"/>
				<text x="8.08" y="242.04" class="st4">（問分第五）</text>			</g>
			<g id="shape29-83" transform="translate(414.425,-50.8819)">
				<title>工作表.29</title>
				<desc>問分第九</desc>
				<rect x="0" y="227.096" width="88.1575" height="22.6772" class="st1"/>
				<text x="8.08" y="242.04" class="st4">（問分第九）</text>			</g>
			<g id="shape30-86" transform="translate(414.425,-27.9213)">
				<title>工作表.30</title>
				<desc>問分第十</desc>
				<rect x="0" y="227.096" width="88.1575" height="22.6772" class="st1"/>
				<text x="8.08" y="242.04" class="st4">（問分第十）</text>			</g>
		</g>
	</g>
</svg>
