<?xml version="1.0" encoding="UTF-8" standalone="no"?>
<!DOCTYPE svg PUBLIC "-//W3C//DTD SVG 1.0//EN" "http://www.w3.org/TR/2001/REC-SVG-20010904/DTD/svg10.dtd">
<!-- 由 Microsoft Visio 11.0, SVG Export, v1.0 產生 y36.0676.svg 頁-1 -->
<svg xmlns="http://www.w3.org/2000/svg" xmlns:xlink="http://www.w3.org/1999/xlink" xmlns:ev="http://www.w3.org/2001/xml-events"
		xmlns:v="http://schemas.microsoft.com/visio/2003/SVGExtensions/" width="6.91754in" height="2.98053in"
		viewBox="0 0 498.063 214.598" xml:space="preserve" color-interpolation-filters="sRGB" class="st6">
	<v:documentProperties v:langID="1028" v:metric="true" v:viewMarkup="false"/>

	<style type="text/css">
	<![CDATA[
		.st1 {fill:none;stroke:none;stroke-linecap:round;stroke-linejoin:round;stroke-width:0.75}
		.st2 {fill:#000000;font-family:新細明體;font-size:1.33333em}
		.st3 {stroke:#000000;stroke-linecap:round;stroke-linejoin:round;stroke-width:1}
		.st4 {stroke:#ffffff;stroke-linecap:round;stroke-linejoin:round;stroke-opacity:0;stroke-width:1}
		.st5 {stroke:#000000;stroke-dasharray:0,4.5;stroke-linecap:round;stroke-linejoin:round;stroke-width:1.5}
		.st6 {fill:none;fill-rule:evenodd;font-size:12px;overflow:visible;stroke-linecap:square;stroke-miterlimit:3}
	]]>
	</style>

	<g v:mID="0" v:index="1" v:groupContext="foregroundPage">
		<title>頁-1</title>
		<v:pageProperties v:drawingScale="0.0393701" v:pageScale="0.0393701" v:drawingUnits="24" v:shadowOffsetX="8.50394"
				v:shadowOffsetY="-8.50394"/>
		<g id="group38-1" transform="translate(1,-1)" v:mID="38" v:groupContext="group">
			<title>工作表.38</title>
			<g id="shape4-2" v:mID="4" v:groupContext="shape" transform="translate(197.06,-141.664)">
				<title>工作表.4</title>
				<desc>有我派</desc>
				<v:textBlock v:margins="rect(4,4,4,4)" v:tabSpace="42.5197"/>
				<v:textRect cx="29.7802" cy="186.183" width="59.57" height="56.8301"/>
				<rect x="0" y="157.768" width="59.5605" height="56.8301" class="st1"/>
				<text x="5.78" y="190.98" class="st2" v:langID="1028"><v:paragraph v:horizAlign="1"/><v:tabList/>有我派</text>			</g>
			<g id="shape5-5" v:mID="5" v:groupContext="shape" transform="translate(194.986,-68.6359)">
				<title>工作表.5</title>
				<desc>無我說</desc>
				<v:textBlock v:margins="rect(4,4,4,4)" v:tabSpace="42.5197"/>
				<v:textRect cx="31.214" cy="183.989" width="62.43" height="61.2193"/>
				<rect x="0" y="153.379" width="62.428" height="61.2193" class="st1"/>
				<text x="7.21" y="188.79" class="st2" v:langID="1028"><v:paragraph v:horizAlign="1"/><v:tabList/>無我說</text>			</g>
			<g id="shape6-8" v:mID="6" v:groupContext="shape" transform="translate(262.424,-4.60436)">
				<title>工作表.6</title>
				<desc>分別說部</desc>
				<v:textBlock v:margins="rect(4,4,4,4)" v:tabSpace="42.5197"/>
				<v:textRect cx="38.0486" cy="178.319" width="76.1" height="72.5579"/>
				<rect x="0" y="142.041" width="76.0973" height="72.5579" class="st1"/>
				<text x="6.05" y="183.12" class="st2" v:langID="1028"><v:paragraph v:horizAlign="1"/><v:tabList/>分別說部</text>			</g>
			<g id="shape7-11" v:mID="7" v:groupContext="shape" transform="translate(312.835,-130.188)">
				<title>工作表.7</title>
				<desc>犢子部等</desc>
				<v:textBlock v:margins="rect(4,4,4,4)" v:tabSpace="42.5197"/>
				<v:textRect cx="38.8668" cy="174.708" width="77.74" height="79.7817"/>
				<rect x="0" y="134.817" width="77.7337" height="79.7817" class="st1"/>
				<text x="6.87" y="179.51" class="st2" v:langID="1028"><v:paragraph v:horizAlign="1"/><v:tabList/>犢子部等</text>			</g>
			<g id="shape8-14" v:mID="8" v:groupContext="shape" transform="translate(275.836,-82.8448)">
				<title>工作表.8</title>
				<desc>阿毘達磨師</desc>
				<v:textBlock v:margins="rect(4,4,4,4)" v:tabSpace="42.5197"/>
				<v:textRect cx="47.9534" cy="169.884" width="95.91" height="89.4285"/>
				<rect x="0" y="125.17" width="95.9069" height="89.4285" class="st1"/>
				<text x="7.95" y="174.68" class="st2" v:langID="1028"><v:paragraph v:horizAlign="1"/><v:tabList/>阿毘達磨師</text>			</g>
			<g id="shape9-17" v:mID="9" v:groupContext="shape" transform="translate(276.613,-24.33)">
				<title>工作表.9</title>
				<desc>持經譬喻師</desc>
				<v:textBlock v:margins="rect(4,4,4,4)" v:tabSpace="42.5197"/>
				<v:textRect cx="47.9534" cy="167.827" width="95.91" height="93.5433"/>
				<rect x="0" y="121.055" width="95.9069" height="93.5433" class="st1"/>
				<text x="7.95" y="172.63" class="st2" v:langID="1028"><v:paragraph v:horizAlign="1"/><v:tabList/>持經譬喻師</text>			</g>
			<g id="shape10-20" v:mID="10" v:groupContext="shape" transform="translate(392.422,-104.813)">
				<title>工作表.10</title>
				<desc>毘婆沙師</desc>
				<v:textBlock v:margins="rect(4,4,4,4)" v:tabSpace="42.5197"/>
				<v:textRect cx="41.3472" cy="177.679" width="82.7" height="73.838"/>
				<rect x="0" y="140.76" width="82.6943" height="73.838" class="st1"/>
				<text x="9.35" y="182.48" class="st2" v:langID="1028"><v:paragraph v:horizAlign="1"/><v:tabList/>毘婆沙師</text>			</g>
			<g id="shape11-23" v:mID="11" v:groupContext="shape" transform="translate(391.181,-76.5354)">
				<title>工作表.11</title>
				<desc>西方師等</desc>
				<v:textBlock v:margins="rect(4,4,4,4)" v:tabSpace="42.5197"/>
				<v:textRect cx="42.5197" cy="177.748" width="85.04" height="73.7008"/>
				<rect x="0" y="140.898" width="85.0394" height="73.7008" class="st1"/>
				<text x="10.52" y="182.55" class="st2" v:langID="1028"><v:paragraph v:horizAlign="1"/><v:tabList/>西方師等</text>			</g>
			<g id="shape12-26" v:mID="12" v:groupContext="shape" transform="translate(380.477,-36.0731)">
				<title>工作表.12</title>
				<desc>經部</desc>
				<v:textBlock v:margins="rect(4,4,4,4)" v:tabSpace="42.5197"/>
				<v:textRect cx="22.8196" cy="193.979" width="45.64" height="41.2396"/>
				<rect x="0" y="173.359" width="45.6392" height="41.2396" class="st1"/>
				<text x="6.82" y="198.78" class="st2" v:langID="1028"><v:paragraph v:horizAlign="1"/><v:tabList/>經部</text>			</g>
			<g id="shape13-29" v:mID="13" v:groupContext="shape" transform="translate(520.248,-8.01172) rotate(45)">
				<title>工作表.13</title>
				<path d="M0 214.6 L20.04 214.6" class="st3"/>
			</g>
			<g id="shape14-32" v:mID="14" v:groupContext="shape" transform="translate(54.6929,143.732) rotate(-90)">
				<title>工作表.14</title>
				<path d="M0 214.6 L56.69 214.6" class="st3"/>
			</g>
			<g id="shape16-35" v:mID="16" v:groupContext="shape" transform="translate(169.439,-133.228)">
				<title>工作表.16</title>
				<path d="M0 214.6 L14.17 214.6" class="st3"/>
			</g>
			<g id="shape21-38" v:mID="21" v:groupContext="shape" transform="translate(184.252,-170.079)">
				<title>工作表.21</title>
				<path d="M0 214.6 L14.17 214.6" class="st3"/>
			</g>
			<g id="shape22-41" v:mID="22" v:groupContext="shape" transform="translate(184.252,-99.2126)">
				<title>工作表.22</title>
				<path d="M0 214.6 L14.17 214.6" class="st3"/>
			</g>
			<g id="shape1-44" v:mID="1" v:groupContext="shape" transform="translate(24.0094,-54.4297)">
				<title>工作表.1</title>
				<desc>上座部</desc>
				<v:textBlock v:margins="rect(4,4,4,4)" v:tabSpace="42.5197"/>
				<v:textRect cx="29.7802" cy="183.989" width="59.57" height="61.2193"/>
				<rect x="0" y="153.379" width="59.5605" height="61.2193" class="st1"/>
				<text x="5.78" y="188.79" class="st2" v:langID="1028"><v:paragraph v:horizAlign="1"/><v:tabList/>上座部</text>			</g>
			<g id="shape2-47" v:mID="2" v:groupContext="shape" transform="translate(110.789,-105.759)">
				<title>工作表.2</title>
				<desc>三世有</desc>
				<v:textBlock v:margins="rect(4,4,4,4)" v:tabSpace="42.5197"/>
				<v:textRect cx="30.3035" cy="186.252" width="60.61" height="56.6929"/>
				<rect x="0" y="157.906" width="60.607" height="56.6929" class="st1"/>
				<text x="6.3" y="191.05" class="st2" v:langID="1028"><v:paragraph v:horizAlign="1"/><v:tabList/>三世有</text>			</g>
			<g id="shape3-50" v:mID="3" v:groupContext="shape" transform="translate(110.672,-13.4124)">
				<title>工作表.3</title>
				<desc>現在有</desc>
				<v:textBlock v:margins="rect(4,4,4,4)" v:tabSpace="42.5197"/>
				<v:textRect cx="30.4889" cy="186.183" width="60.98" height="56.8301"/>
				<rect x="0" y="157.768" width="60.9778" height="56.8301" class="st1"/>
				<text x="6.49" y="190.98" class="st2" v:langID="1028"><v:paragraph v:horizAlign="1"/><v:tabList/>現在有</text>			</g>
			<g id="shape17-53" v:mID="17" v:groupContext="shape" transform="translate(98.5725,-133.228)">
				<title>工作表.17</title>
				<path d="M0 214.6 L14.17 214.6" class="st3"/>
			</g>
			<g id="shape18-56" v:mID="18" v:groupContext="shape" transform="translate(98.5725,-42.5197)">
				<title>工作表.18</title>
				<path d="M0 214.6 L14.17 214.6" class="st3"/>
			</g>
			<g id="shape19-59" v:mID="19" v:groupContext="shape" transform="translate(84.3993,-85.0394)">
				<title>工作表.19</title>
				<path d="M0 214.6 L14.17 214.6" class="st3"/>
			</g>
			<g id="shape20-62" v:mID="20" v:groupContext="shape" transform="translate(-116.026,172.079) rotate(-90)">
				<title>工作表.20</title>
				<path d="M0 214.6 L90.71 214.6" class="st3"/>
			</g>
			<g id="shape24-65" v:mID="24" v:groupContext="shape" transform="translate(-30.3465,115.386) rotate(-90)">
				<title>工作表.24</title>
				<path d="M0 214.6 L70.87 214.6" class="st3"/>
			</g>
			<g id="shape25-68" v:mID="25" v:groupContext="shape" transform="translate(269.291,-70.8661)">
				<title>工作表.25</title>
				<path d="M0 214.6 L14.17 214.6" class="st3"/>
			</g>
			<g id="shape26-71" v:mID="26" v:groupContext="shape" transform="translate(269.291,-127.559)">
				<title>工作表.26</title>
				<path d="M0 214.6 L14.17 214.6" class="st3"/>
			</g>
			<g id="shape27-74" v:mID="27" v:groupContext="shape" transform="translate(255.118,-99.2126)">
				<title>工作表.27</title>
				<path d="M0 214.6 L14.17 214.6" class="st3"/>
			</g>
			<g id="shape28-77" v:mID="28" v:groupContext="shape" transform="translate(336.751,-42.5197)">
				<title>工作表.28</title>
				<path d="M0 214.6 L31.75 214.6" class="st3"/>
			</g>
			<g id="shape31-80" v:mID="31" v:groupContext="shape" transform="translate(382.677,-142.441)">
				<title>工作表.31</title>
				<path d="M0 214.6 L14.17 214.6" class="st3"/>
			</g>
			<g id="shape32-83" v:mID="32" v:groupContext="shape" transform="translate(368.504,-127.559)">
				<title>工作表.32</title>
				<path d="M0 214.6 L14.17 214.6" class="st3"/>
			</g>
			<g id="shape33-86" v:mID="33" v:groupContext="shape" transform="translate(382.677,-113.386)">
				<title>工作表.33</title>
				<path d="M0 214.6 L14.17 214.6" class="st3"/>
			</g>
			<g id="shape34-89" v:mID="34" v:groupContext="shape" transform="translate(168.851,106.445) rotate(-91.3972)">
				<title>工作表.34</title>
				<path d="M0 214.6 L29.06 214.6" class="st3"/>
			</g>
			<g id="shape35-92" v:mID="35" v:groupContext="shape" transform="translate(216.76,20.3347) rotate(-45)">
				<title>工作表.35</title>
				<path d="M0 214.6 L20.04 214.6" class="st3"/>
			</g>
			<g id="shape15-95" v:mID="15" v:groupContext="shape" transform="translate(-214.598,214.598) rotate(-90)">
				<title>工作表.15</title>
				<path d="M0 214.6 L212.6 214.6" class="st4"/>
			</g>
			<g id="shape23-98" v:mID="23" v:groupContext="shape" transform="translate(281.465,214.598) rotate(-90)">
				<title>工作表.23</title>
				<path d="M0 214.6 L212.6 214.6" class="st4"/>
			</g>
			<g id="shape36-101" v:mID="36" v:groupContext="shape" transform="translate(496.063,216.598) rotate(180)">
				<title>工作表.36</title>
				<path d="M0 214.6 L496.06 214.6" class="st4"/>
			</g>
			<g id="shape37-104" v:mID="37" v:groupContext="shape" transform="translate(496.063,429.197) rotate(180)">
				<title>工作表.37</title>
				<path d="M0 214.6 L496.06 214.6" class="st4"/>
			</g>
			<g id="shape29-107" v:mID="29" v:groupContext="shape" transform="translate(169.576,-42.5197)">
				<title>工作表.29</title>
				<path d="M0 214.6 L94.62 214.6" class="st5"/>
			</g>
			<g id="shape30-110" v:mID="30" v:groupContext="shape" transform="translate(257.953,-170.079)">
				<title>工作表.30</title>
				<path d="M0 214.6 L56.69 214.6" class="st5"/>
			</g>
		</g>
	</g>
</svg>
