<?xml version="1.0" encoding="UTF-8" standalone="no"?>
<!DOCTYPE svg PUBLIC "-//W3C//DTD SVG 1.0//EN" "http://www.w3.org/TR/2001/REC-SVG-20010904/DTD/svg10.dtd">
<!-- 由 Microsoft Visio 11.0, SVG Export, v1.0 產生 y36.0494.svg 頁-1 -->
<svg xmlns="http://www.w3.org/2000/svg" xmlns:xlink="http://www.w3.org/1999/xlink" xmlns:ev="http://www.w3.org/2001/xml-events"
		xmlns:v="http://schemas.microsoft.com/visio/2003/SVGExtensions/" width="7.90179in" height="5.76353in"
		viewBox="0 0 568.929 414.974" xml:space="preserve" color-interpolation-filters="sRGB" class="st8">
	<v:documentProperties v:langID="1028" v:metric="true" v:viewMarkup="false"/>

	<style type="text/css">
	<![CDATA[
		.st1 {fill:none;stroke:none;stroke-linecap:round;stroke-linejoin:round;stroke-width:0.75}
		.st2 {fill:#000000;font-family:新細明體;font-size:1.33333em}
		.st3 {fill:none;stroke:#000000;stroke-linecap:round;stroke-linejoin:round;stroke-opacity:0;stroke-width:1}
		.st4 {fill:none;stroke:#000000;stroke-dasharray:0,4.5;stroke-linecap:round;stroke-linejoin:round;stroke-opacity:0;stroke-width:1.5}
		.st5 {fill:none;stroke:#000000;stroke-linecap:round;stroke-linejoin:round;stroke-width:1}
		.st6 {stroke:#ffffff;stroke-linecap:round;stroke-linejoin:round;stroke-opacity:0;stroke-width:1}
		.st7 {stroke:#000000;stroke-dasharray:0,4.5;stroke-linecap:round;stroke-linejoin:round;stroke-width:1.5}
		.st8 {fill:none;fill-rule:evenodd;font-size:12px;overflow:visible;stroke-linecap:square;stroke-miterlimit:3}
	]]>
	</style>

	<g v:mID="0" v:index="1" v:groupContext="foregroundPage">
		<title>頁-1</title>
		<v:pageProperties v:drawingScale="0.0393701" v:pageScale="0.0393701" v:drawingUnits="24" v:shadowOffsetX="8.50394"
				v:shadowOffsetY="-8.50394"/>
		<g id="group57-1" transform="translate(1,-0.75)" v:mID="57" v:groupContext="group">
			<title>工作表.57</title>
			<g id="shape1-2" v:mID="1" v:groupContext="shape" transform="translate(42.0968,-242.55)">
				<title>工作表.1</title>
				<desc>阿毘曇心論</desc>
				<v:textBlock v:margins="rect(4,4,4,4)" v:tabSpace="42.5197"/>
				<v:textRect cx="85.0394" cy="329.512" width="170.08" height="170.925"/>
				<rect x="0" y="244.05" width="170.079" height="170.925" class="st1"/>
				<text x="0.25em 2.533em 4.815em 7.097em 9.38em" y="334.31" class="st2" v:langID="1028"><v:paragraph
							v:horizAlign="4"/><v:tabList/>阿毘曇心論</text>			</g>
			<g id="shape3-5" v:mID="3" v:groupContext="shape" transform="translate(57.5059,-270.44)">
				<title>工作表.3</title>
				<desc>界品</desc>
				<v:textBlock v:margins="rect(4,4,4,4)" v:tabSpace="42.5197"/>
				<v:textRect cx="28.3794" cy="385.782" width="56.76" height="58.3846"/>
				<rect x="0" y="356.59" width="56.7587" height="58.3846" class="st1"/>
				<text x="0.25em 2.297em" y="390.58" class="st2" v:langID="1028"><v:paragraph v:horizAlign="4"/><v:tabList/>界品</text>			</g>
			<g id="shape9-8" v:mID="9" v:groupContext="shape" transform="translate(58.3795,-100.092)">
				<title>工作表.9</title>
				<desc>定　品</desc>
				<v:textBlock v:margins="rect(4,4,4,4)" v:tabSpace="42.5197"/>
				<v:textRect cx="29.4259" cy="386.559" width="58.86" height="56.8301"/>
				<rect x="0" y="358.144" width="58.8518" height="56.8301" class="st1"/>
				<text x="5.43" y="391.36" class="st2" v:langID="1028"><v:paragraph v:horizAlign="1"/><v:tabList/>定　品</text>			</g>
			<g id="shape12-11" v:mID="12" v:groupContext="shape" transform="translate(53.5223,0)">
				<title>工作表.12</title>
				<desc>問論品</desc>
				<v:textBlock v:margins="rect(4,4,4,4)" v:tabSpace="42.5197"/>
				<v:textRect cx="47.9534" cy="370.191" width="95.91" height="89.5657"/>
				<rect x="0" y="325.408" width="95.9069" height="89.5657" class="st1"/>
				<text x="7.95" y="374.99" class="st2" v:langID="1028"><v:paragraph v:horizAlign="1"/><v:tabList/>（問）論品</text>			</g>
			<g id="shape22-14" v:mID="22" v:groupContext="shape" transform="translate(354.331,-242.973)">
				<title>工作表.22</title>
				<desc>甘露味論</desc>
				<v:textBlock v:margins="rect(4,4,4,4)" v:tabSpace="42.5197"/>
				<v:textRect cx="85.0394" cy="329.935" width="170.08" height="170.079"/>
				<rect x="0" y="244.895" width="170.079" height="170.079" class="st1"/>
				<text x="0.25em 3.293em 6.337em 9.38em" y="334.74" class="st2" v:langID="1028"><v:paragraph v:horizAlign="4"/><v:tabList/>甘露味論</text>			</g>
			<g id="shape2-17" v:mID="2" v:groupContext="shape" transform="translate(34.0157,-289.744)">
				<title>工作表.2</title>
				<desc>1.</desc>
				<v:textBlock v:margins="rect(4,4,4,4)" v:tabSpace="42.5197"/>
				<v:textRect cx="14.1732" cy="402.218" width="28.35" height="25.5118"/>
				<rect x="0" y="389.462" width="28.3465" height="25.5118" class="st3"/>
				<text x="8.53" y="407.02" class="st2" v:langID="1028"><v:paragraph v:horizAlign="1"/><v:tabList/>1.</text>			</g>
			<g id="shape23-20" v:mID="23" v:groupContext="shape" transform="translate(57.5059,-242.16)">
				<title>工作表.23</title>
				<desc>行品</desc>
				<v:textBlock v:margins="rect(4,4,4,4)" v:tabSpace="42.5197"/>
				<v:textRect cx="28.3794" cy="385.782" width="56.76" height="58.3846"/>
				<rect x="0" y="356.59" width="56.7587" height="58.3846" class="st1"/>
				<text x="0.25em 2.297em" y="390.58" class="st2" v:langID="1028"><v:paragraph v:horizAlign="4"/><v:tabList/>行品</text>			</g>
			<g id="shape4-23" v:mID="4" v:groupContext="shape" transform="translate(57.5059,-213.813)">
				<title>工作表.4</title>
				<desc>業品</desc>
				<v:textBlock v:margins="rect(4,4,4,4)" v:tabSpace="42.5197"/>
				<v:textRect cx="28.3794" cy="385.782" width="56.76" height="58.3846"/>
				<rect x="0" y="356.59" width="56.7587" height="58.3846" class="st1"/>
				<text x="0.25em 2.297em" y="390.58" class="st2" v:langID="1028"><v:paragraph v:horizAlign="4"/><v:tabList/>業品</text>			</g>
			<g id="shape5-26" v:mID="5" v:groupContext="shape" transform="translate(58.6488,-185.467)">
				<title>工作表.5</title>
				<desc>使品</desc>
				<v:textBlock v:margins="rect(4,4,4,4)" v:tabSpace="42.5197"/>
				<v:textRect cx="28.3794" cy="385.782" width="56.76" height="58.3846"/>
				<rect x="0" y="356.59" width="56.7587" height="58.3846" class="st1"/>
				<text x="0.25em 2.297em" y="390.58" class="st2" v:langID="1028"><v:paragraph v:horizAlign="4"/><v:tabList/>使品</text>			</g>
			<g id="shape6-29" v:mID="6" v:groupContext="shape" transform="translate(58.6488,-157.12)">
				<title>工作表.6</title>
				<desc>賢聖品</desc>
				<v:textBlock v:margins="rect(4,4,4,4)" v:tabSpace="42.5197"/>
				<v:textRect cx="28.3794" cy="385.782" width="56.76" height="58.3846"/>
				<rect x="0" y="356.59" width="56.7587" height="58.3846" class="st1"/>
				<text x="4.38" y="390.58" class="st2" v:langID="1028"><v:paragraph v:horizAlign="1"/><v:tabList/>賢聖品</text>			</g>
			<g id="shape7-32" v:mID="7" v:groupContext="shape" transform="translate(58.6488,-128.774)">
				<title>工作表.7</title>
				<desc>智品</desc>
				<v:textBlock v:margins="rect(4,4,4,4)" v:tabSpace="42.5197"/>
				<v:textRect cx="28.3794" cy="385.782" width="56.76" height="58.3846"/>
				<rect x="0" y="356.59" width="56.7587" height="58.3846" class="st1"/>
				<text x="0.25em 2.297em" y="390.58" class="st2" v:langID="1028"><v:paragraph v:horizAlign="4"/><v:tabList/>智品</text>			</g>
			<g id="shape8-35" v:mID="8" v:groupContext="shape" transform="translate(58.6488,-72.0808)">
				<title>工作表.8</title>
				<desc>契經品</desc>
				<v:textBlock v:margins="rect(4,4,4,4)" v:tabSpace="42.5197"/>
				<v:textRect cx="28.3794" cy="385.782" width="56.76" height="58.3846"/>
				<rect x="0" y="356.59" width="56.7587" height="58.3846" class="st1"/>
				<text x="4.38" y="390.58" class="st2" v:langID="1028"><v:paragraph v:horizAlign="1"/><v:tabList/>契經品</text>			</g>
			<g id="shape10-38" v:mID="10" v:groupContext="shape" transform="translate(58.6488,-43.6686)">
				<title>工作表.10</title>
				<desc>雜品</desc>
				<v:textBlock v:margins="rect(4,4,4,4)" v:tabSpace="42.5197"/>
				<v:textRect cx="28.3794" cy="385.782" width="56.76" height="58.3846"/>
				<rect x="0" y="356.59" width="56.7587" height="58.3846" class="st1"/>
				<text x="0.25em 2.297em" y="390.58" class="st2" v:langID="1028"><v:paragraph v:horizAlign="4"/><v:tabList/>雜品</text>			</g>
			<g id="shape11-41" v:mID="11" v:groupContext="shape" transform="translate(34.0157,-261.398)">
				<title>工作表.11</title>
				<desc>2.</desc>
				<v:textBlock v:margins="rect(4,4,4,4)" v:tabSpace="42.5197"/>
				<v:textRect cx="14.1732" cy="402.218" width="28.35" height="25.5118"/>
				<rect x="0" y="389.462" width="28.3465" height="25.5118" class="st3"/>
				<text x="8.53" y="407.02" class="st2" v:langID="1028"><v:paragraph v:horizAlign="1"/><v:tabList/>2.</text>			</g>
			<g id="shape24-44" v:mID="24" v:groupContext="shape" transform="translate(34.0157,-230.217)">
				<title>工作表.24</title>
				<desc>3.</desc>
				<v:textBlock v:margins="rect(4,4,4,4)" v:tabSpace="42.5197"/>
				<v:textRect cx="14.1732" cy="402.218" width="28.35" height="25.5118"/>
				<rect x="0" y="389.462" width="28.3465" height="25.5118" class="st3"/>
				<text x="8.53" y="407.02" class="st2" v:langID="1028"><v:paragraph v:horizAlign="1"/><v:tabList/>3.</text>			</g>
			<g id="shape25-47" v:mID="25" v:groupContext="shape" transform="translate(34.0157,-201.87)">
				<title>工作表.25</title>
				<desc>4.</desc>
				<v:textBlock v:margins="rect(4,4,4,4)" v:tabSpace="42.5197"/>
				<v:textRect cx="14.1732" cy="402.218" width="28.35" height="25.5118"/>
				<rect x="0" y="389.462" width="28.3465" height="25.5118" class="st3"/>
				<text x="8.53" y="407.02" class="st2" v:langID="1028"><v:paragraph v:horizAlign="1"/><v:tabList/>4.</text>			</g>
			<g id="shape26-50" v:mID="26" v:groupContext="shape" transform="translate(34.0157,-173.524)">
				<title>工作表.26</title>
				<desc>5.</desc>
				<v:textBlock v:margins="rect(4,4,4,4)" v:tabSpace="42.5197"/>
				<v:textRect cx="14.1732" cy="402.218" width="28.35" height="25.5118"/>
				<rect x="0" y="389.462" width="28.3465" height="25.5118" class="st3"/>
				<text x="8.53" y="407.02" class="st2" v:langID="1028"><v:paragraph v:horizAlign="1"/><v:tabList/>5.</text>			</g>
			<g id="shape27-53" v:mID="27" v:groupContext="shape" transform="translate(34.0157,-145.177)">
				<title>工作表.27</title>
				<desc>6.</desc>
				<v:textBlock v:margins="rect(4,4,4,4)" v:tabSpace="42.5197"/>
				<v:textRect cx="14.1732" cy="402.218" width="28.35" height="25.5118"/>
				<rect x="0" y="389.462" width="28.3465" height="25.5118" class="st3"/>
				<text x="8.53" y="407.02" class="st2" v:langID="1028"><v:paragraph v:horizAlign="1"/><v:tabList/>6.</text>			</g>
			<g id="shape28-56" v:mID="28" v:groupContext="shape" transform="translate(34.0157,-116.831)">
				<title>工作表.28</title>
				<desc>7.</desc>
				<v:textBlock v:margins="rect(4,4,4,4)" v:tabSpace="42.5197"/>
				<v:textRect cx="14.1732" cy="402.218" width="28.35" height="25.5118"/>
				<rect x="0" y="389.462" width="28.3465" height="25.5118" class="st3"/>
				<text x="8.53" y="407.02" class="st2" v:langID="1028"><v:paragraph v:horizAlign="1"/><v:tabList/>7.</text>			</g>
			<g id="shape29-59" v:mID="29" v:groupContext="shape" transform="translate(34.0157,-88.4843)">
				<title>工作表.29</title>
				<desc>8.</desc>
				<v:textBlock v:margins="rect(4,4,4,4)" v:tabSpace="42.5197"/>
				<v:textRect cx="14.1732" cy="402.218" width="28.35" height="25.5118"/>
				<rect x="0" y="389.462" width="28.3465" height="25.5118" class="st3"/>
				<text x="8.53" y="407.02" class="st2" v:langID="1028"><v:paragraph v:horizAlign="1"/><v:tabList/>8.</text>			</g>
			<g id="shape30-62" v:mID="30" v:groupContext="shape" transform="translate(34.0157,-60.1379)">
				<title>工作表.30</title>
				<desc>9.</desc>
				<v:textBlock v:margins="rect(4,4,4,4)" v:tabSpace="42.5197"/>
				<v:textRect cx="14.1732" cy="402.218" width="28.35" height="25.5118"/>
				<rect x="0" y="389.462" width="28.3465" height="25.5118" class="st3"/>
				<text x="8.53" y="407.02" class="st2" v:langID="1028"><v:paragraph v:horizAlign="1"/><v:tabList/>9.</text>			</g>
			<g id="shape31-65" v:mID="31" v:groupContext="shape" transform="translate(34.0157,-31.7914)">
				<title>工作表.31</title>
				<desc>10.</desc>
				<v:textBlock v:margins="rect(4,4,4,4)" v:tabSpace="42.5197"/>
				<v:textRect cx="14.1732" cy="402.218" width="28.35" height="25.5118"/>
				<rect x="0" y="389.462" width="28.3465" height="25.5118" class="st3"/>
				<text x="4.77" y="407.02" class="st2" v:langID="1028"><v:paragraph v:horizAlign="1"/><v:tabList/>10.</text>			</g>
			<g id="shape34-68" v:mID="34" v:groupContext="shape" transform="translate(434.514,-100.427)">
				<title>工作表.34</title>
				<desc>雜定品</desc>
				<v:textBlock v:margins="rect(4,4,4,4)" v:tabSpace="42.5197"/>
				<v:textRect cx="28.3794" cy="385.782" width="56.76" height="58.3846"/>
				<rect x="0" y="356.59" width="56.7587" height="58.3846" class="st1"/>
				<text x="0.25em 1.274em 2.297em" y="390.58" class="st2" v:langID="1028"><v:paragraph v:horizAlign="4"/><v:tabList/>雜定品</text>			</g>
			<g id="shape13-71" v:mID="13" v:groupContext="shape" transform="translate(354.646,-263.101)">
				<title>工作表.13</title>
				<desc>陰持入品</desc>
				<v:textBlock v:margins="rect(4,4,4,4)" v:tabSpace="42.5197"/>
				<v:textRect cx="37.0952" cy="378.41" width="74.2" height="73.1293"/>
				<rect x="0" y="341.845" width="74.1904" height="73.1293" class="st1"/>
				<text x="5.1" y="383.21" class="st2" v:langID="1028"><v:paragraph v:horizAlign="1"/><v:tabList/>陰持入品</text>			</g>
			<g id="shape16-74" v:mID="16" v:groupContext="shape" transform="translate(352.577,-167.854)">
				<title>工作表.16</title>
				<desc>結使禪智品</desc>
				<v:textBlock v:margins="rect(4,4,4,4)" v:tabSpace="42.5197"/>
				<v:textRect cx="46.5361" cy="368.203" width="93.08" height="93.5433"/>
				<rect x="0" y="321.431" width="93.0723" height="93.5433" class="st1"/>
				<text x="6.54" y="373" class="st2" v:langID="1028"><v:paragraph v:horizAlign="1"/><v:tabList/>結使禪智品</text>			</g>
			<g id="shape17-77" v:mID="17" v:groupContext="shape" transform="translate(350.703,-125.335)">
				<title>工作表.17</title>
				<desc>三十七無漏人品</desc>
				<v:textBlock v:margins="rect(4,4,4,4)" v:tabSpace="42.5197"/>
				<v:textRect cx="64.0007" cy="354.029" width="128.01" height="121.89"/>
				<rect x="0" y="293.084" width="128.001" height="121.89" class="st1"/>
				<text x="8" y="358.83" class="st2" v:langID="1028"><v:paragraph v:horizAlign="1"/><v:tabList/>三十七無漏人品</text>			</g>
			<g id="shape32-80" v:mID="32" v:groupContext="shape" transform="translate(354.932,-234.999)">
				<title>工作表.32</title>
				<desc>行品</desc>
				<v:textBlock v:margins="rect(4,4,4,4)" v:tabSpace="42.5197"/>
				<v:textRect cx="37.0952" cy="378.41" width="74.2" height="73.1293"/>
				<rect x="0" y="341.845" width="74.1904" height="73.1293" class="st1"/>
				<text x="0.25em 3.387em" y="383.21" class="st2" v:langID="1028"><v:paragraph v:horizAlign="4"/><v:tabList/>行品</text>			</g>
			<g id="shape14-83" v:mID="14" v:groupContext="shape" transform="translate(354.646,-206.653)">
				<title>工作表.14</title>
				<desc>業品</desc>
				<v:textBlock v:margins="rect(4,4,4,4)" v:tabSpace="42.5197"/>
				<v:textRect cx="37.0952" cy="378.41" width="74.2" height="73.1293"/>
				<rect x="0" y="341.845" width="74.1904" height="73.1293" class="st1"/>
				<text x="0.25em 3.387em" y="383.21" class="st2" v:langID="1028"><v:paragraph v:horizAlign="4"/><v:tabList/>業品</text>			</g>
			<g id="shape18-86" v:mID="18" v:groupContext="shape" transform="translate(354.298,-128.774)">
				<title>工作表.18</title>
				<desc>智品</desc>
				<v:textBlock v:margins="rect(4,4,4,4)" v:tabSpace="42.5197"/>
				<v:textRect cx="28.3794" cy="385.782" width="56.76" height="58.3846"/>
				<rect x="0" y="356.59" width="56.7587" height="58.3846" class="st1"/>
				<text x="0.25em 2.297em" y="390.58" class="st2" v:langID="1028"><v:paragraph v:horizAlign="4"/><v:tabList/>智品</text>			</g>
			<g id="shape15-89" v:mID="15" v:groupContext="shape" transform="translate(353.514,-91.0742)">
				<title>工作表.15</title>
				<desc>禪定品‧</desc>
				<v:textBlock v:margins="rect(4,4,4,4)" v:tabSpace="42.5197"/>
				<v:textRect cx="37.0952" cy="376.706" width="74.2" height="76.5354"/>
				<rect x="0" y="338.439" width="74.1904" height="76.5354" class="st1"/>
				<text x="5.1" y="381.51" class="st2" v:langID="1028"><v:paragraph v:horizAlign="1"/><v:tabList/>禪定品‧</text>			</g>
			<g id="shape33-92" v:mID="33" v:groupContext="shape" transform="translate(339.279,-72.0808)">
				<title>工作表.33</title>
				<desc>餘八品</desc>
				<v:textBlock v:margins="rect(4,4,4,4)" v:tabSpace="42.5197"/>
				<v:textRect cx="28.3794" cy="385.782" width="56.76" height="58.3846"/>
				<rect x="0" y="356.59" width="56.7587" height="58.3846" class="st1"/>
				<text x="4.38" y="390.58" class="st2" v:langID="1028"><v:paragraph v:horizAlign="1"/><v:tabList/>餘八品</text>			</g>
			<g id="shape19-95" v:mID="19" v:groupContext="shape" transform="translate(346.64,-43.7344)">
				<title>工作表.19</title>
				<desc>雜品</desc>
				<v:textBlock v:margins="rect(4,4,4,4)" v:tabSpace="42.5197"/>
				<v:textRect cx="28.3794" cy="385.782" width="56.76" height="58.3846"/>
				<rect x="0" y="356.59" width="56.7587" height="58.3846" class="st1"/>
				<text x="12.38" y="390.58" class="st2" v:langID="1028"><v:paragraph v:horizAlign="1"/><v:tabList/>雜品</text>			</g>
			<g id="shape20-98" v:mID="20" v:groupContext="shape" transform="translate(334.488,-230.217)">
				<title>工作表.20</title>
				<desc>4.</desc>
				<v:textBlock v:margins="rect(4,4,4,4)" v:tabSpace="42.5197"/>
				<v:textRect cx="14.1732" cy="402.218" width="28.35" height="25.5118"/>
				<rect x="0" y="389.462" width="28.3465" height="25.5118" class="st3"/>
				<text x="8.53" y="407.02" class="st2" v:langID="1028"><v:paragraph v:horizAlign="1"/><v:tabList/>4.</text>			</g>
			<g id="shape21-101" v:mID="21" v:groupContext="shape" transform="translate(334.488,-286.91)">
				<title>工作表.21</title>
				<desc>5.</desc>
				<v:textBlock v:margins="rect(4,4,4,4)" v:tabSpace="42.5197"/>
				<v:textRect cx="14.1732" cy="402.218" width="28.35" height="25.5118"/>
				<rect x="0" y="389.462" width="28.3465" height="25.5118" class="st3"/>
				<text x="8.53" y="407.02" class="st2" v:langID="1028"><v:paragraph v:horizAlign="1"/><v:tabList/>5.</text>			</g>
			<g id="shape35-104" v:mID="35" v:groupContext="shape" transform="translate(334.488,-258.563)">
				<title>工作表.35</title>
				<desc>6.</desc>
				<v:textBlock v:margins="rect(4,4,4,4)" v:tabSpace="42.5197"/>
				<v:textRect cx="14.1732" cy="402.218" width="28.35" height="25.5118"/>
				<rect x="0" y="389.462" width="28.3465" height="25.5118" class="st3"/>
				<text x="8.53" y="407.02" class="st2" v:langID="1028"><v:paragraph v:horizAlign="1"/><v:tabList/>6.</text>			</g>
			<g id="shape36-107" v:mID="36" v:groupContext="shape" transform="translate(334.488,-201.87)">
				<title>工作表.36</title>
				<desc>9.</desc>
				<v:textBlock v:margins="rect(4,4,4,4)" v:tabSpace="42.5197"/>
				<v:textRect cx="14.1732" cy="402.218" width="28.35" height="25.5118"/>
				<rect x="0" y="389.462" width="28.3465" height="25.5118" class="st3"/>
				<text x="8.53" y="407.02" class="st2" v:langID="1028"><v:paragraph v:horizAlign="1"/><v:tabList/>9.</text>			</g>
			<g id="shape37-110" v:mID="37" v:groupContext="shape" transform="translate(334.488,-173.524)">
				<title>工作表.37</title>
				<desc>10.</desc>
				<v:textBlock v:margins="rect(4,4,4,4)" v:tabSpace="42.5197"/>
				<v:textRect cx="14.1732" cy="402.218" width="28.35" height="25.5118"/>
				<rect x="0" y="389.462" width="28.3465" height="25.5118" class="st3"/>
				<text x="4.77" y="407.02" class="st2" v:langID="1028"><v:paragraph v:horizAlign="1"/><v:tabList/>10.</text>			</g>
			<g id="shape38-113" v:mID="38" v:groupContext="shape" transform="translate(334.488,-145.177)">
				<title>工作表.38</title>
				<desc>11.</desc>
				<v:textBlock v:margins="rect(4,4,4,4)" v:tabSpace="42.5197"/>
				<v:textRect cx="14.1732" cy="402.218" width="28.35" height="25.5118"/>
				<rect x="0" y="389.462" width="28.3465" height="25.5118" class="st3"/>
				<text x="4.77" y="407.02" class="st2" v:langID="1028"><v:paragraph v:horizAlign="1"/><v:tabList/>11.</text>			</g>
			<g id="shape39-116" v:mID="39" v:groupContext="shape" transform="translate(334.488,-116.831)">
				<title>工作表.39</title>
				<desc>12.</desc>
				<v:textBlock v:margins="rect(4,4,4,4)" v:tabSpace="42.5197"/>
				<v:textRect cx="14.1732" cy="402.218" width="28.35" height="25.5118"/>
				<path d="M0 414.97 L28.35 414.97 L28.35 389.46 L0 389.46 L0 414.97 Z" class="st4"/>
				<text x="4.77" y="407.02" class="st2" v:langID="1028"><v:paragraph v:horizAlign="1"/><v:tabList/>12.</text>			</g>
			<g id="shape40-119" v:mID="40" v:groupContext="shape" transform="translate(413.858,-116.831)">
				<title>工作表.40</title>
				<desc>13.</desc>
				<v:textBlock v:margins="rect(4,4,4,4)" v:tabSpace="42.5197"/>
				<v:textRect cx="14.1732" cy="402.218" width="28.35" height="25.5118"/>
				<rect x="0" y="389.462" width="28.3465" height="25.5118" class="st3"/>
				<text x="4.77" y="407.02" class="st2" v:langID="1028"><v:paragraph v:horizAlign="1"/><v:tabList/>13.</text>			</g>
			<g id="shape41-122" v:mID="41" v:groupContext="shape" transform="translate(334.488,-60.1379)">
				<title>工作表.41</title>
				<desc>16.</desc>
				<v:textBlock v:margins="rect(4,4,4,4)" v:tabSpace="42.5197"/>
				<v:textRect cx="14.1732" cy="402.218" width="28.35" height="25.5118"/>
				<rect x="0" y="389.462" width="28.3465" height="25.5118" class="st3"/>
				<text x="4.77" y="407.02" class="st2" v:langID="1028"><v:paragraph v:horizAlign="1"/><v:tabList/>16.</text>			</g>
			<g id="shape42-125" v:mID="42" v:groupContext="shape" transform="translate(123.608,101.136) rotate(-90)">
				<title>工作表.42</title>
				<rect x="0" y="216.549" width="28.3465" height="198.425" class="st5"/>
			</g>
			<g id="shape43-127" v:mID="43" v:groupContext="shape" transform="translate(-188.203,101.136) rotate(-90)">
				<title>工作表.43</title>
				<rect x="0" y="216.549" width="28.3465" height="198.425" class="st5"/>
			</g>
			<g id="shape53-129" v:mID="53" v:groupContext="shape" transform="translate(1.69172,-2.02765)">
				<title>工作表.53</title>
				<path d="M0 414.97 L565.24 414.97" class="st6"/>
			</g>
			<g id="shape54-132" v:mID="54" v:groupContext="shape" transform="translate(2.83465,-370.532)">
				<title>工作表.54</title>
				<path d="M0 414.97 L564.09 414.97" class="st6"/>
			</g>
			<g id="shape55-135" v:mID="55" v:groupContext="shape" transform="translate(151.955,412.947) rotate(-90)">
				<title>工作表.55</title>
				<path d="M0 414.97 L368.5 414.97" class="st6"/>
			</g>
			<g id="shape56-138" v:mID="56" v:groupContext="shape" transform="translate(-414.974,412.947) rotate(-90)">
				<title>工作表.56</title>
				<path d="M0 414.97 L368.5 414.97" class="st6"/>
			</g>
			<g id="shape44-141" v:mID="44" v:groupContext="shape" transform="translate(116.22,-72.8938)">
				<title>工作表.44</title>
				<path d="M0 414.97 L222.25 414.97" class="st7"/>
			</g>
			<g id="shape45-144" v:mID="45" v:groupContext="shape" transform="translate(115.078,-101.306)">
				<title>工作表.45</title>
				<path d="M0 414.97 L222.25 414.97" class="st7"/>
			</g>
			<g id="shape46-147" v:mID="46" v:groupContext="shape" transform="translate(115.078,-129.587)">
				<title>工作表.46</title>
				<path d="M0 414.97 L222.25 414.97" class="st7"/>
			</g>
			<g id="shape47-150" v:mID="47" v:groupContext="shape" transform="translate(115.078,-157.933)">
				<title>工作表.47</title>
				<path d="M0 414.97 L222.25 414.97" class="st7"/>
			</g>
			<g id="shape48-153" v:mID="48" v:groupContext="shape" transform="translate(115.078,-186.345)">
				<title>工作表.48</title>
				<path d="M0 414.97 L222.25 414.97" class="st7"/>
			</g>
			<g id="shape49-156" v:mID="49" v:groupContext="shape" transform="translate(115.078,-214.692)">
				<title>工作表.49</title>
				<path d="M0 414.97 L222.25 414.97" class="st7"/>
			</g>
			<g id="shape50-159" v:mID="50" v:groupContext="shape" transform="translate(115.078,-242.973)">
				<title>工作表.50</title>
				<path d="M0 414.97 L222.25 414.97" class="st7"/>
			</g>
			<g id="shape51-162" v:mID="51" v:groupContext="shape" transform="translate(115.078,-271.319)">
				<title>工作表.51</title>
				<path d="M0 414.97 L222.25 414.97" class="st7"/>
			</g>
			<g id="shape52-165" v:mID="52" v:groupContext="shape" transform="translate(115.078,-299.665)">
				<title>工作表.52</title>
				<path d="M0 414.97 L222.25 414.97" class="st7"/>
			</g>
		</g>
	</g>
</svg>
