<?xml version="1.0" encoding="UTF-8" standalone="no"?>
<!DOCTYPE svg PUBLIC "-//W3C//DTD SVG 1.0//EN" "http://www.w3.org/TR/2001/REC-SVG-20010904/DTD/svg10.dtd">
<!-- 由 Microsoft Visio 11.0, SVG Export, v1.0 產生 y36.0158.svg Page-1 -->
<svg xmlns="http://www.w3.org/2000/svg" xmlns:xlink="http://www.w3.org/1999/xlink" xmlns:ev="http://www.w3.org/2001/xml-events"
		xmlns:v="http://schemas.microsoft.com/visio/2003/SVGExtensions/" width="8.20494in" height="9.62459in"
		viewBox="0 0 590.756 692.97" xml:space="preserve" color-interpolation-filters="sRGB" class="st6">
	<v:documentProperties v:langID="1028" v:metric="true" v:viewMarkup="false">
		<v:userDefs>
			<v:ud v:nameU="msvSubprocessMaster" v:prompt="" v:val="VT4(Box)"/>
			<v:ud v:nameU="msvNoAutoConnect" v:val="VT0(1):26"/>
		</v:userDefs>
	</v:documentProperties>

	<style type="text/css">
	<![CDATA[
		.st1 {fill:none;stroke:none;stroke-linecap:round;stroke-linejoin:round;stroke-width:0.75}
		.st2 {fill:#000000;font-family:新細明體;font-size:1.33333em}
		.st3 {stroke:#000000;stroke-linecap:round;stroke-linejoin:round;stroke-width:1}
		.st4 {stroke:#ffffff;stroke-linecap:round;stroke-linejoin:round;stroke-opacity:0;stroke-width:1}
		.st5 {stroke:#000000;stroke-linecap:round;stroke-linejoin:round;stroke-opacity:0;stroke-width:1}
		.st6 {fill:none;fill-rule:evenodd;font-size:12px;overflow:visible;stroke-linecap:square;stroke-miterlimit:3}
	]]>
	</style>

	<g v:mID="0" v:index="1" v:groupContext="foregroundPage">
		<title>頁-1</title>
		<v:pageProperties v:drawingScale="0.0393701" v:pageScale="0.0393701" v:drawingUnits="24" v:shadowOffsetX="8.50394"
				v:shadowOffsetY="-8.50394"/>
		<g id="group51-1" transform="translate(-121.215,674.97) rotate(-90)" v:mID="51" v:groupContext="group">
			<title>工作表.51</title>
			<g id="shape1-2" v:mID="1" v:groupContext="shape" transform="translate(1243.46,167.429) rotate(90)">
				<title>工作表.1</title>
				<desc>色</desc>
				<v:textBlock v:margins="rect(4,4,4,4)" v:tabSpace="42.5197"/>
				<v:textRect cx="14.1732" cy="679.369" width="28.35" height="27.2035"/>
				<rect x="0" y="665.767" width="28.3465" height="27.2035" class="st1"/>
				<text x="6.17" y="684.17" class="st2" v:langID="1028"><v:paragraph v:horizAlign="1"/><v:tabList/>色</text>			</g>
			<g id="shape2-5" v:mID="2" v:groupContext="shape" transform="translate(1158.42,168.561) rotate(90)">
				<title>工作表.2</title>
				<desc>心</desc>
				<v:textBlock v:margins="rect(4,4,4,4)" v:tabSpace="42.5197"/>
				<v:textRect cx="14.1732" cy="679.369" width="28.35" height="27.2035"/>
				<rect x="0" y="665.767" width="28.3465" height="27.2035" class="st1"/>
				<text x="6.17" y="684.17" class="st2" v:langID="1028"><v:paragraph v:horizAlign="1"/><v:tabList/>心</text>			</g>
			<g id="shape3-8" v:mID="3" v:groupContext="shape" transform="translate(1026.65,166.539) rotate(90)">
				<title>工作表.3</title>
				<desc>心所法</desc>
				<v:textBlock v:margins="rect(4,4,4,4)" v:tabSpace="42.5197"/>
				<v:textRect cx="31.214" cy="660.944" width="62.43" height="64.0539"/>
				<rect x="0" y="628.917" width="62.428" height="64.0539" class="st1"/>
				<text x="7.21" y="665.74" class="st2" v:langID="1028"><v:paragraph v:horizAlign="1"/><v:tabList/>心所法</text>			</g>
			<g id="shape4-11" v:mID="4" v:groupContext="shape" transform="translate(843.492,168.561) rotate(90)">
				<title>工作表.4</title>
				<desc>心不相應行</desc>
				<v:textBlock v:margins="rect(4,4,4,4)" v:tabSpace="42.5197"/>
				<v:textRect cx="45.3543" cy="647.902" width="90.71" height="90.1372"/>
				<rect x="0" y="602.833" width="90.7087" height="90.1372" class="st1"/>
				<text x="5.35" y="652.7" class="st2" v:langID="1028"><v:paragraph v:horizAlign="1"/><v:tabList/>心不相應行</text>			</g>
			<g id="shape5-14" v:mID="5" v:groupContext="shape" transform="translate(746.829,168.561) rotate(90)">
				<title>工作表.5</title>
				<desc>無為法</desc>
				<v:textBlock v:margins="rect(4,4,4,4)" v:tabSpace="42.5197"/>
				<v:textRect cx="28.3465" cy="664.624" width="56.7" height="56.6929"/>
				<rect x="0" y="636.278" width="56.6929" height="56.6929" class="st1"/>
				<text x="4.35" y="669.42" class="st2" v:langID="1028"><v:paragraph v:horizAlign="1"/><v:tabList/>無為法</text>			</g>
			<g id="shape6-17" v:mID="6" v:groupContext="shape" transform="translate(1257.06,239.427) rotate(90)">
				<title>工作表.6</title>
				<desc>能造色</desc>
				<v:textBlock v:margins="rect(4,4,4,4)" v:tabSpace="42.5197"/>
				<v:textRect cx="28.3465" cy="664.624" width="56.7" height="56.6929"/>
				<rect x="0" y="636.278" width="56.6929" height="56.6929" class="st1"/>
				<text x="4.35" y="669.42" class="st2" v:langID="1028"><v:paragraph v:horizAlign="1"/><v:tabList/>能造色</text>			</g>
			<g id="shape7-20" v:mID="7" v:groupContext="shape" transform="translate(1200.37,238.01) rotate(90)">
				<title>工作表.7</title>
				<desc>所造色</desc>
				<v:textBlock v:margins="rect(4,4,4,4)" v:tabSpace="42.5197"/>
				<v:textRect cx="28.3465" cy="664.624" width="56.7" height="56.6929"/>
				<rect x="0" y="636.278" width="56.6929" height="56.6929" class="st1"/>
				<text x="4.35" y="669.42" class="st2" v:langID="1028"><v:paragraph v:horizAlign="1"/><v:tabList/>所造色</text>			</g>
			<g id="shape8-23" v:mID="8" v:groupContext="shape" transform="translate(1221.63,337.222) rotate(90)">
				<title>工作表.8</title>
				<desc>地‧水‧火‧風</desc>
				<v:textBlock v:margins="rect(4,4,4,4)" v:tabSpace="42.5197"/>
				<v:textRect cx="63.7795" cy="629.191" width="127.56" height="127.559"/>
				<rect x="0" y="565.411" width="127.559" height="127.559" class="st1"/>
				<text x="7.78" y="633.99" class="st2" v:langID="1028"><v:paragraph v:horizAlign="1"/><v:tabList/>地‧水‧火‧風</text>			</g>
			<g id="shape13-26" v:mID="13" v:groupContext="shape" transform="translate(969.92,317.38) rotate(90)">
				<title>工作表.13</title>
				<desc>受‧想‧思‧觸‧作意‧欲‧勝解‧念‧定‧慧</desc>
				<v:textBlock v:margins="rect(4,4,4,4)" v:tabSpace="42.5197"/>
				<v:textRect cx="177.165" cy="519.211" width="354.34" height="347.518"/>
				<rect x="0" y="345.452" width="354.331" height="347.518" class="st1"/>
				<text x="9.17" y="524.01" class="st2" v:langID="1028"><v:paragraph v:horizAlign="1"/><v:tabList/>受‧想‧思‧觸‧作意‧欲‧勝解‧念‧定‧慧</text>			</g>
			<g id="shape27-29" v:mID="27" v:groupContext="shape" transform="translate(888.561,258.984) rotate(90)">
				<title>工作表.27</title>
				<path d="M0 692.97 L51.31 692.97" class="st3"/>
			</g>
			<g id="shape28-32" v:mID="28" v:groupContext="shape" transform="translate(1172.03,196.336) rotate(90)">
				<title>工作表.28</title>
				<path d="M0 692.97 L128.13 692.97" class="st3"/>
			</g>
			<g id="shape29-35" v:mID="29" v:groupContext="shape" transform="translate(1058.64,225.254) rotate(90)">
				<title>工作表.29</title>
				<path d="M0 692.97 L85.04 692.97" class="st3"/>
			</g>
			<g id="shape30-38" v:mID="30" v:groupContext="shape" transform="translate(732.656,140.215) rotate(90)">
				<title>工作表.30</title>
				<path d="M0 692.97 L552.76 692.97" class="st4"/>
			</g>
			<g id="shape31-41" v:mID="31" v:groupContext="shape" transform="translate(1285.41,296.12) rotate(90)">
				<title>工作表.31</title>
				<path d="M0 692.97 L42.52 692.97" class="st3"/>
			</g>
			<g id="shape32-44" v:mID="32" v:groupContext="shape" transform="translate(775.175,225.254) rotate(90)">
				<title>工作表.32</title>
				<path d="M0 692.97 L99.21 692.97" class="st3"/>
			</g>
			<g id="shape33-47" v:mID="33" v:groupContext="shape" transform="translate(973.6,310.293) rotate(90)">
				<title>工作表.33</title>
				<path d="M0 692.97 L14.17 692.97" class="st3"/>
			</g>
			<g id="shape34-50" v:mID="34" v:groupContext="shape" transform="translate(946.53,310.293) rotate(90)">
				<title>工作表.34</title>
				<path d="M0 692.97 L14.17 692.97" class="st3"/>
			</g>
			<g id="shape35-53" v:mID="35" v:groupContext="shape" transform="translate(803.522,310.293) rotate(90)">
				<title>工作表.35</title>
				<path d="M0 692.97 L14.17 692.97" class="st3"/>
			</g>
			<g id="shape36-56" v:mID="36" v:groupContext="shape" transform="translate(1228.72,296.12) rotate(90)">
				<title>工作表.36</title>
				<path d="M0 692.97 L14.17 692.97" class="st3"/>
			</g>
			<g id="shape37-59" v:mID="37" v:groupContext="shape" transform="translate(1143.68,310.293) rotate(90)">
				<title>工作表.37</title>
				<path d="M0 692.97 L14.17 692.97" class="st3"/>
			</g>
			<g id="shape9-62" v:mID="9" v:groupContext="shape" transform="translate(1179.68,321.06) rotate(90)">
				<title>工作表.9</title>
				<desc>眼‧耳‧鼻‧舌‧身</desc>
				<v:textBlock v:margins="rect(4,4,4,4)" v:tabSpace="42.5197"/>
				<v:textRect cx="77.9528" cy="615.589" width="155.91" height="154.763"/>
				<rect x="0" y="538.208" width="155.906" height="154.763" class="st1"/>
				<text x="5.95" y="620.39" class="st2" v:langID="1028"><v:paragraph v:horizAlign="1"/><v:tabList/>眼‧耳‧鼻‧舌‧身</text>			</g>
			<g id="shape10-65" v:mID="10" v:groupContext="shape" transform="translate(1135.18,315.963) rotate(90)">
				<title>工作表.10</title>
				<desc>色‧聲‧香‧味‧觸一分</desc>
				<v:textBlock v:margins="rect(4,4,4,4)" v:tabSpace="42.5197"/>
				<v:textRect cx="99.2126" cy="599.427" width="198.43" height="187.087"/>
				<rect x="0" y="505.884" width="198.425" height="187.087" class="st1"/>
				<text x="11.21" y="604.23" class="st2" v:langID="1028"><v:paragraph v:horizAlign="1"/><v:tabList/>色‧聲‧香‧味‧觸一分</text>			</g>
			<g id="shape11-68" v:mID="11" v:groupContext="shape" transform="translate(1172.06,318.764) rotate(90)">
				<title>工作表.11</title>
				<desc>無表色</desc>
				<v:textBlock v:margins="rect(4,4,4,4)" v:tabSpace="42.5197"/>
				<v:textRect cx="31.214" cy="664.624" width="62.43" height="56.6929"/>
				<rect x="0" y="636.278" width="62.428" height="56.6929" class="st1"/>
				<text x="7.21" y="669.42" class="st2" v:langID="1028"><v:paragraph v:horizAlign="1"/><v:tabList/>無表色</text>			</g>
			<g id="shape12-71" v:mID="12" v:groupContext="shape" transform="translate(1140,322.478) rotate(90)">
				<title>工作表.12</title>
				<desc>六識身</desc>
				<v:textBlock v:margins="rect(4,4,4,4)" v:tabSpace="42.5197"/>
				<v:textRect cx="28.3465" cy="660.944" width="56.7" height="64.0539"/>
				<rect x="0" y="628.917" width="56.6929" height="64.0539" class="st1"/>
				<text x="4.35" y="665.74" class="st2" v:langID="1028"><v:paragraph v:horizAlign="1"/><v:tabList/>六識身</text>			</g>
			<g id="shape14-74" v:mID="14" v:groupContext="shape" transform="translate(1086.16,322.461) rotate(90)">
				<title>工作表.14</title>
				<desc>信‧勤</desc>
				<v:textBlock v:margins="rect(4,4,4,4)" v:tabSpace="42.5197"/>
				<v:textRect cx="28.3629" cy="663.778" width="56.73" height="58.3846"/>
				<rect x="0" y="634.586" width="56.7258" height="58.3846" class="st1"/>
				<text x="4.36" y="668.58" class="st2" v:langID="1028"><v:paragraph v:horizAlign="1"/><v:tabList/>信‧勤</text>			</g>
			<g id="shape15-77" v:mID="15" v:groupContext="shape" transform="translate(1057.88,322.255) rotate(90)">
				<title>工作表.15</title>
				<desc>尋‧伺</desc>
				<v:textBlock v:margins="rect(4,4,4,4)" v:tabSpace="42.5197"/>
				<v:textRect cx="29.0716" cy="663.138" width="58.15" height="59.6648"/>
				<rect x="0" y="633.306" width="58.1431" height="59.6648" class="st1"/>
				<text x="5.07" y="667.94" class="st2" v:langID="1028"><v:paragraph v:horizAlign="1"/><v:tabList/>尋‧伺</text>			</g>
			<g id="shape16-80" v:mID="16" v:groupContext="shape" transform="translate(1001.89,320.29) rotate(90)">
				<title>工作表.16</title>
				<desc>放逸‧不放逸</desc>
				<v:textBlock v:margins="rect(4,4,4,4)" v:tabSpace="42.5197"/>
				<v:textRect cx="54.5597" cy="636.918" width="109.12" height="112.106"/>
				<rect x="0" y="580.865" width="109.119" height="112.106" class="st1"/>
				<text x="6.56" y="641.72" class="st2" v:langID="1028"><v:paragraph v:horizAlign="1"/><v:tabList/>放逸‧不放逸</text>			</g>
			<g id="shape17-83" v:mID="17" v:groupContext="shape" transform="translate(944.477,319.663) rotate(90)">
				<title>工作表.17</title>
				<desc>善根‧不善根‧無記根</desc>
				<v:textBlock v:margins="rect(4,4,4,4)" v:tabSpace="42.5197"/>
				<v:textRect cx="87.0085" cy="607.154" width="174.02" height="171.633"/>
				<rect x="0" y="521.337" width="174.017" height="171.633" class="st1"/>
				<text x="7.01" y="611.95" class="st2" v:langID="1028"><v:paragraph v:horizAlign="1"/><v:tabList/>善根‧不善根‧無記根</text>			</g>
			<g id="shape18-86" v:mID="18" v:groupContext="shape" transform="translate(884.595,318.512) rotate(90)">
				<title>工作表.18</title>
				<desc>一切結‧縛‧隨眠‧隨煩惱‧纏</desc>
				<v:textBlock v:margins="rect(4,4,4,4)" v:tabSpace="42.5197"/>
				<v:textRect cx="120.472" cy="575.618" width="240.95" height="234.704"/>
				<rect x="0" y="458.266" width="240.945" height="234.704" class="st1"/>
				<text x="8.47" y="580.42" class="st2" v:langID="1028"><v:paragraph v:horizAlign="1"/><v:tabList/>一切結‧縛‧隨眠‧隨煩惱‧纏</text>			</g>
			<g id="shape19-89" v:mID="19" v:groupContext="shape" transform="translate(843.207,318.797) rotate(90)">
				<title>工作表.19</title>
				<desc>諸所有智‧諸所有見‧諸所有現觀</desc>
				<v:textBlock v:margins="rect(4,4,4,4)" v:tabSpace="42.5197"/>
				<v:textRect cx="127.559" cy="562.577" width="255.12" height="260.787"/>
				<rect x="0" y="432.183" width="255.118" height="260.787" class="st1"/>
				<text x="7.56" y="567.38" class="st2" v:langID="1028"><v:paragraph v:horizAlign="1"/><v:tabList/>諸所有智‧諸所有見‧諸所有現觀</text>			</g>
			<g id="shape20-92" v:mID="20" v:groupContext="shape" transform="translate(931.081,321.632) rotate(90)">
				<title>工作表.20</title>
				<desc>得</desc>
				<v:textBlock v:margins="rect(4,4,4,4)" v:tabSpace="42.5197" v:verticalText="true"/>
				<v:textRect cx="14.1732" cy="678.797" width="28.35" height="28.3465"/>
				<rect x="0" y="664.624" width="28.3465" height="28.3465" class="st1"/>
				<text x="14.17" y="670.8" writing-mode="tb-rl" class="st2" v:langID="1028"><v:paragraph v:horizAlign="1"/><v:tabList/>得</text>			</g>
			<g id="shape22-95" v:mID="22" v:groupContext="shape" transform="translate(831.717,321.783) rotate(90)">
				<title>工作表.22</title>
				<desc>命根‧眾同分</desc>
				<v:textBlock v:margins="rect(4,4,4,4)" v:tabSpace="42.5197"/>
				<v:textRect cx="53.1352" cy="636.849" width="106.28" height="112.243"/>
				<rect x="0" y="580.728" width="106.27" height="112.243" class="st1"/>
				<text x="5.14" y="641.65" class="st2" v:langID="1028"><v:paragraph v:horizAlign="1"/><v:tabList/>命根‧眾同分</text>			</g>
			<g id="shape23-98" v:mID="23" v:groupContext="shape" transform="translate(792.088,321.537) rotate(90)">
				<title>工作表.23</title>
				<desc>依得‧事得‧處得</desc>
				<v:textBlock v:margins="rect(4,4,4,4)" v:tabSpace="42.5197"/>
				<v:textRect cx="68.1267" cy="624.939" width="136.26" height="136.063"/>
				<rect x="0" y="556.907" width="136.253" height="136.063" class="st1"/>
				<text x="4.13" y="629.74" class="st2" v:langID="1028"><v:paragraph v:horizAlign="1"/><v:tabList/>依得‧事得‧處得</text>			</g>
			<g id="shape24-101" v:mID="24" v:groupContext="shape" transform="translate(755.264,320.314) rotate(90)">
				<title>工作表.24</title>
				<desc>生‧老‧住‧無常性</desc>
				<v:textBlock v:margins="rect(4,4,4,4)" v:tabSpace="42.5197"/>
				<v:textRect cx="77.9219" cy="616.366" width="155.85" height="153.208"/>
				<rect x="0" y="539.762" width="155.844" height="153.208" class="st1"/>
				<text x="5.92" y="621.17" class="st2" v:langID="1028"><v:paragraph v:horizAlign="1"/><v:tabList/>生‧老‧住‧無常性</text>			</g>
			<g id="shape25-104" v:mID="25" v:groupContext="shape" transform="translate(721.603,316.416) rotate(90)">
				<title>工作表.25</title>
				<desc>名身‧句身‧文身等</desc>
				<v:textBlock v:margins="rect(4,4,4,4)" v:tabSpace="42.5197"/>
				<v:textRect cx="81.4652" cy="611.051" width="162.94" height="163.838"/>
				<rect x="0" y="529.132" width="162.93" height="163.838" class="st1"/>
				<text x="9.47" y="615.85" class="st2" v:langID="1028"><v:paragraph v:horizAlign="1"/><v:tabList/>名身‧句身‧文身等</text>			</g>
			<g id="shape26-107" v:mID="26" v:groupContext="shape" transform="translate(696.414,315.353) rotate(90)">
				<title>工作表.26</title>
				<desc>虛空‧非擇滅‧擇滅</desc>
				<v:textBlock v:margins="rect(4,4,4,4)" v:tabSpace="42.5197"/>
				<v:textRect cx="81.8196" cy="614.595" width="163.64" height="156.751"/>
				<rect x="0" y="536.219" width="163.639" height="156.751" class="st1"/>
				<text x="9.82" y="619.39" class="st2" v:langID="1028"><v:paragraph v:horizAlign="1"/><v:tabList/>虛空‧非擇滅‧擇滅</text>			</g>
			<g id="shape21-110" v:mID="21" v:groupContext="shape" transform="translate(832.753,318.539) rotate(90)">
				<title>工作表.21</title>
				<desc>無想定‧滅定‧無想事</desc>
				<v:textBlock v:margins="rect(4,4,4,4)" v:tabSpace="42.5197"/>
				<v:textRect cx="87.5604" cy="608.503" width="175.13" height="168.936"/>
				<rect x="0" y="524.035" width="175.121" height="168.936" class="st1"/>
				<text x="7.56" y="613.3" class="st2" v:langID="1028"><v:paragraph v:horizAlign="1"/><v:tabList/>無想定‧滅定‧無想事</text>			</g>
			<g id="shape39-113" v:mID="39" v:groupContext="shape" transform="translate(1257.06,310.293) rotate(90)">
				<title>工作表.39</title>
				<path d="M0 692.97 L14.17 692.97" class="st3"/>
			</g>
			<g id="shape40-116" v:mID="40" v:groupContext="shape" transform="translate(1200.37,310.293) rotate(90)">
				<title>工作表.40</title>
				<path d="M0 692.97 L14.17 692.97" class="st3"/>
			</g>
			<g id="shape41-119" v:mID="41" v:groupContext="shape" transform="translate(507.402,-382.677)">
				<title>工作表.41</title>
				<path d="M0 692.97 L56.69 692.97" class="st3"/>
			</g>
			<g id="shape42-122" v:mID="42" v:groupContext="shape" transform="translate(110.551,-382.677)">
				<title>工作表.42</title>
				<path d="M0 692.97 L143.01 692.97" class="st3"/>
			</g>
			<g id="shape43-125" v:mID="43" v:groupContext="shape" transform="translate(280.63,-382.677)">
				<title>工作表.43</title>
				<path d="M0 692.97 L170.08 692.97" class="st3"/>
			</g>
			<g id="shape44-128" v:mID="44" v:groupContext="shape" transform="translate(1325.1,140.215) rotate(90)">
				<title>工作表.44</title>
				<path d="M0 692.97 L552.76 692.97" class="st4"/>
			</g>
			<g id="shape45-131" v:mID="45" v:groupContext="shape" transform="translate(39.685,-552.756)">
				<title>工作表.45</title>
				<path d="M0 692.97 L592.44 692.97" class="st5"/>
			</g>
			<g id="shape46-134" v:mID="46" v:groupContext="shape" transform="translate(39.685,1.13687E-013)">
				<title>工作表.46</title>
				<path d="M0 692.97 L592.44 692.97" class="st4"/>
			</g>
			<g id="shape47-137" v:mID="47" v:groupContext="shape" transform="translate(1257.06,195.204) rotate(90)">
				<title>工作表.47</title>
				<path d="M0 692.97 L30.05 692.97" class="st3"/>
			</g>
			<g id="shape48-140" v:mID="48" v:groupContext="shape" transform="translate(1285.41,225.254) rotate(90)">
				<title>工作表.48</title>
				<path d="M0 692.97 L14.17 692.97" class="st3"/>
			</g>
			<g id="shape49-143" v:mID="49" v:groupContext="shape" transform="translate(1228.72,225.254) rotate(90)">
				<title>工作表.49</title>
				<path d="M0 692.97 L14.17 692.97" class="st3"/>
			</g>
			<g id="shape50-146" v:mID="50" v:groupContext="shape" transform="translate(535.748,-467.717)">
				<title>工作表.50</title>
				<path d="M0 692.97 L56.69 692.97" class="st3"/>
			</g>
		</g>
	</g>
</svg>
