<?xml version="1.0" encoding="UTF-8" standalone="no"?>
<!DOCTYPE svg PUBLIC "-//W3C//DTD SVG 1.1//EN" "http://www.w3.org/Graphics/SVG/1.1/DTD/svg11.dtd">
<!-- 由 Microsoft Visio, SVG Export 產生 y36.0054-h.svg 頁-1 -->
<svg xmlns="http://www.w3.org/2000/svg" xmlns:xlink="http://www.w3.org/1999/xlink" xmlns:ev="http://www.w3.org/2001/xml-events"
		width="8.42763in" height="5.08082in" viewBox="0 0 606.789 365.819" xml:space="preserve" color-interpolation-filters="sRGB"
		class="st6">
	<style type="text/css">
	<![CDATA[
		.st1 {fill:none;stroke:none;stroke-linecap:round;stroke-linejoin:round;stroke-width:0.75}
		.st2 {fill:#000000;font-family:新細明體;font-size:1.33333em}
		.st3 {fill:#000000;font-family:Times New Roman;font-size:1.33333em}
		.st4 {stroke:#000000;stroke-linecap:round;stroke-linejoin:round;stroke-width:1}
		.st5 {stroke:#000000;stroke-dasharray:0,4.5;stroke-linecap:round;stroke-linejoin:round;stroke-width:1.5}
		.st6 {fill:none;fill-rule:evenodd;font-size:12px;overflow:visible;stroke-linecap:square;stroke-miterlimit:3}
	]]>
	</style>

	<g>
		<title>頁-1</title>
		<g id="group82-1" transform="translate(0.375,-0.375)">
			<title>工作表.82</title>
			<g id="shape4-2" transform="translate(2.52723,-312.503)">
				<title>工作表.4</title>
				<desc>一三一</desc>
				<rect x="0" y="345.977" width="61.4502" height="19.8425" class="st1"/>
				<text x="6.73" y="360.7" class="st2">一三一</text>			</g>
			<g id="shape5-5" transform="translate(57.8525,-313.041)">
				<title>工作表.5</title>
				<desc>Bhaddekaratta-sutta</desc>
				<rect x="0" y="345.977" width="148.478" height="19.8425" class="st1"/>
				<text x="10.27" y="360.7" class="st3">Bhaddekaratta-sutta</text>			</g>
			<g id="shape6-8" transform="translate(466.324,-340.85)">
				<title>工作表.6</title>
				<desc>中含其餘品</desc>
				<rect x="0" y="345.977" width="122.774" height="19.8425" class="st1"/>
				<text x="0.25em 1.793em 3.337em 4.88em 6.423em" y="360.7" class="st2">中含其餘品</text>			</g>
			<g id="shape3-11" transform="translate(6.73811,-340.85)">
				<title>工作表.3</title>
				<desc>中部分別品</desc>
				<rect x="0" y="345.977" width="122.774" height="19.8425" class="st1"/>
				<text x="0.25em 1.793em 3.337em 4.88em 6.423em" y="360.7" class="st2">中部分別品</text>			</g>
			<g id="shape7-14" transform="translate(60.4216,-283.799)">
				<title>工作表.7</title>
				<desc>Ānandabhaddekaratta-s</desc>
				<rect x="0" y="345.977" width="167.663" height="19.8425" class="st1"/>
				<text x="8.31" y="360.7" class="st3">Ānandabhaddekaratta-s</text>			</g>
			<g id="shape9-17" transform="translate(2.9335,-255.992)">
				<title>工作表.9</title>
				<desc>一三三</desc>
				<rect x="0" y="345.977" width="62.7255" height="19.8425" class="st1"/>
				<text x="7.36" y="360.7" class="st2">一三三</text>			</g>
			<g id="shape13-20" transform="translate(59.3734,-227.974)">
				<title>工作表.13</title>
				<desc>Lomasakaṅgiya-b</desc>
				<rect x="0" y="345.977" width="129.373" height="19.8425" class="st1"/>
				<text x="7.37" y="360.7" class="st3">Lomasakaṅgiya-b</text>			</g>
			<g id="shape16-23" transform="translate(2.86247,-284.495)">
				<title>工作表.16</title>
				<desc>一三二</desc>
				<rect x="0" y="345.977" width="61.6865" height="19.8425" class="st1"/>
				<text x="6.84" y="360.7" class="st2">一三二</text>			</g>
			<g id="shape12-26" transform="translate(2.34295,-227.646)">
				<title>工作表.12</title>
				<desc>一三四</desc>
				<rect x="0" y="345.977" width="62.7255" height="19.8425" class="st1"/>
				<text x="7.36" y="360.7" class="st2">一三四</text>			</g>
			<g id="shape18-29" transform="translate(61.5279,-198.841)">
				<title>工作表.18</title>
				<desc>Cūḷakammavibhaṅga-sutta</desc>
				<rect x="0" y="345.977" width="180.865" height="19.8425" class="st1"/>
				<text x="4.68" y="360.7" class="st3">Cūḷakammavibhaṅga-sutta</text>			</g>
			<g id="shape21-32" transform="translate(2.34295,-198.936)">
				<title>工作表.21</title>
				<desc>一三五</desc>
				<rect x="0" y="345.977" width="62.7255" height="19.8425" class="st1"/>
				<text x="7.36" y="360.7" class="st2">一三五</text>			</g>
			<g id="shape17-35" transform="translate(259.535,-229.219)">
				<title>工作表.17</title>
				<desc>一六六</desc>
				<rect x="0" y="345.977" width="61.6865" height="19.8425" class="st1"/>
				<text x="6.84" y="360.7" class="st2">一六六</text>			</g>
			<g id="shape22-38" transform="translate(61.2991,-170.771)">
				<title>工作表.22</title>
				<desc>Mahākamma-v</desc>
				<rect x="0" y="345.977" width="106.662" height="19.8425" class="st1"/>
				<text x="4.91" y="360.7" class="st3">Mahākamma-v</text>			</g>
			<g id="shape25-41" transform="translate(2.34295,-170.953)">
				<title>工作表.25</title>
				<desc>一三六</desc>
				<rect x="0" y="345.977" width="62.7255" height="19.8425" class="st1"/>
				<text x="7.36" y="360.7" class="st2">一三六</text>			</g>
			<g id="shape26-44" transform="translate(2.34295,-142.606)">
				<title>工作表.26</title>
				<desc>一三七</desc>
				<rect x="0" y="345.977" width="62.7255" height="19.8425" class="st1"/>
				<text x="7.36" y="360.7" class="st2">一三七</text>			</g>
			<g id="shape27-47" transform="translate(58.0063,-142.368)">
				<title>工作表.27</title>
				<desc>Saḷāyatana-vibhaṅga sutta</desc>
				<rect x="0" y="345.977" width="180.902" height="19.8425" class="st1"/>
				<text x="6.71" y="360.7" class="st3">Saḷāyatana-vibhaṅga sutta</text>			</g>
			<g id="shape30-50" transform="translate(60.8409,-114.078)">
				<title>工作表.30</title>
				<desc>Uddesa-vibhaṅga sutta</desc>
				<rect x="0" y="345.977" width="155.906" height="19.8425" class="st1"/>
				<text x="4.86" y="360.7" class="st3">Uddesa-vibhaṅga sutta</text>			</g>
			<g id="shape33-53" transform="translate(2.34295,-113.896)">
				<title>工作表.33</title>
				<desc>一三八</desc>
				<rect x="0" y="345.977" width="62.7255" height="19.8425" class="st1"/>
				<text x="7.36" y="360.7" class="st2">一三八</text>			</g>
			<g id="shape34-56" transform="translate(58.8166,-86.0069)">
				<title>工作表.34</title>
				<desc>Araṇavibhaṁga sutta</desc>
				<rect x="0" y="345.977" width="153.621" height="19.8425" class="st1"/>
				<text x="8.61" y="360.7" class="st3">Araṇavibhaṁga sutta</text>			</g>
			<g id="shape37-59" transform="translate(2.34295,-85.9132)">
				<title>工作表.37</title>
				<desc>一三九</desc>
				<rect x="0" y="345.977" width="62.7255" height="19.8425" class="st1"/>
				<text x="7.36" y="360.7" class="st2">一三九</text>			</g>
			<g id="shape38-62" transform="translate(4.41715,-57.3851)">
				<title>工作表.38</title>
				<desc>一四</desc>
				<rect x="0" y="345.977" width="58.8518" height="19.8425" class="st1"/>
				<text x="5.43" y="360.7" class="st2">一四０</text>			</g>
			<g id="shape39-65" transform="translate(57.2289,-57.3851)">
				<title>工作表.39</title>
				<desc>Dhātu-vibhaṅga sutta</desc>
				<rect x="0" y="345.977" width="155.906" height="19.8425" class="st1"/>
				<text x="9.3" y="360.7" class="st3">Dhātu-vibhaṅga sutta</text>			</g>
			<g id="shape42-68" transform="translate(-1.19904E-14,-29.2114)">
				<title>工作表.42</title>
				<desc>一四一</desc>
				<rect x="0" y="345.977" width="62.0168" height="19.8425" class="st1"/>
				<text x="9.09" y="360.7" class="st2">一四一</text>			</g>
			<g id="shape43-71" transform="translate(60.8409,-29.436)">
				<title>工作表.43</title>
				<desc>Saccavibhaṅga sutta</desc>
				<rect x="0" y="345.977" width="142.527" height="19.8425" class="st1"/>
				<text x="6.18" y="360.7" class="st3">Saccavibhaṅga sutta</text>			</g>
			<g id="shape44-74" transform="translate(462.086,-29.5354)">
				<title>工作表.44</title>
				<desc>三一</desc>
				<rect x="0" y="345.977" width="46.3479" height="19.8425" class="st1"/>
				<text x="7.17" y="360.7" class="st2">三一</text>			</g>
			<g id="shape45-77" transform="translate(513.438,-28.0924)">
				<title>工作表.45</title>
				<desc>分別聖諦經</desc>
				<rect x="0" y="345.977" width="92.6012" height="19.8425" class="st1"/>
				<text x="6.3" y="360.7" class="st2">分別聖諦經</text>			</g>
			<g id="shape2-80" transform="translate(267.899,-340.85)">
				<title>工作表.2</title>
				<desc>中含根本分別品</desc>
				<rect x="0" y="345.977" width="122.774" height="19.8425" class="st1"/>
				<text x="5.39" y="360.7" class="st2">中含根本分別品</text>			</g>
			<g id="shape1-83" transform="translate(259.535,-257.228)">
				<title>工作表.1</title>
				<desc>一六五</desc>
				<rect x="0" y="345.977" width="61.6865" height="19.8425" class="st1"/>
				<text x="6.84" y="360.7" class="st2">一六五</text>			</g>
			<g id="shape8-86" transform="translate(310.861,-285.574)">
				<title>工作表.8</title>
				<desc>阿難說經</desc>
				<rect x="0" y="345.977" width="85.0394" height="19.8425" class="st1"/>
				<text x="10.52" y="360.7" class="st2">阿難說經</text>			</g>
			<g id="shape11-89" transform="translate(314.233,-257.228)">
				<title>工作表.11</title>
				<desc>溫泉林天經</desc>
				<rect x="0" y="345.977" width="94.0236" height="19.8425" class="st1"/>
				<text x="7.01" y="360.7" class="st2">溫泉林天經</text>			</g>
			<g id="shape14-92" transform="translate(315.27,-228.881)">
				<title>工作表.14</title>
				<desc>釋中禪室尊經</desc>
				<rect x="0" y="345.977" width="110.238" height="19.8425" class="st1"/>
				<text x="7.12" y="360.7" class="st2">釋中禪室尊經</text>			</g>
			<g id="shape15-95" transform="translate(260.48,-285.574)">
				<title>工作表.15</title>
				<desc>一六七</desc>
				<rect x="0" y="345.977" width="61.4502" height="19.8425" class="st1"/>
				<text x="6.73" y="360.7" class="st2">一六七</text>			</g>
			<g id="shape19-98" transform="translate(256.7,-201.26)">
				<title>工作表.19</title>
				<desc>一七</desc>
				<rect x="0" y="345.977" width="69.4817" height="19.8425" class="st1"/>
				<text x="10.74" y="360.7" class="st2">一七０</text>			</g>
			<g id="shape20-101" transform="translate(315.519,-200.535)">
				<title>工作表.20</title>
				<desc>鸚鵡經</desc>
				<rect x="0" y="345.977" width="60.2691" height="19.8425" class="st1"/>
				<text x="6.13" y="360.7" class="st2">鸚鵡經</text>			</g>
			<g id="shape23-104" transform="translate(262.015,-170.771)">
				<title>工作表.23</title>
				<desc>一七一</desc>
				<rect x="0" y="345.977" width="58.8518" height="19.8425" class="st1"/>
				<text x="5.43" y="360.7" class="st2">一七一</text>			</g>
			<g id="shape24-107" transform="translate(311.451,-170.771)">
				<title>工作表.24</title>
				<desc>分別大業經</desc>
				<rect x="0" y="345.977" width="100.868" height="19.8425" class="st1"/>
				<text x="10.43" y="360.7" class="st2">分別大業經</text>			</g>
			<g id="shape28-110" transform="translate(260.175,-142.762)">
				<title>工作表.28</title>
				<desc>一六三</desc>
				<rect x="0" y="345.977" width="61.6865" height="19.8425" class="st1"/>
				<text x="6.84" y="360.7" class="st2">一六三</text>			</g>
			<g id="shape29-113" transform="translate(316.411,-142.543)">
				<title>工作表.29</title>
				<desc>分別六處經</desc>
				<rect x="0" y="345.977" width="90.9463" height="19.8425" class="st1"/>
				<text x="5.47" y="360.7" class="st2">分別六處經</text>			</g>
			<g id="shape31-116" transform="translate(262.639,-114.078)">
				<title>工作表.31</title>
				<desc>一六四</desc>
				<rect x="0" y="345.977" width="56.7587" height="19.8425" class="st1"/>
				<text x="4.38" y="360.7" class="st2">一六四</text>			</g>
			<g id="shape32-119" transform="translate(316.697,-114.314)">
				<title>工作表.32</title>
				<desc>分別觀法經</desc>
				<rect x="0" y="345.977" width="90.2376" height="19.8425" class="st1"/>
				<text x="5.12" y="360.7" class="st2">分別觀法經</text>			</g>
			<g id="shape35-122" transform="translate(262.672,-85.7316)">
				<title>工作表.35</title>
				<desc>一六九</desc>
				<rect x="0" y="345.977" width="56.6929" height="19.8425" class="st1"/>
				<text x="4.35" y="360.7" class="st2">一六九</text>			</g>
			<g id="shape36-125" transform="translate(313.348,-86.0787)">
				<title>工作表.36</title>
				<desc>拘樓瘦無諍經</desc>
				<rect x="0" y="345.977" width="114.08" height="19.8425" class="st1"/>
				<text x="9.04" y="360.7" class="st2">拘樓瘦無諍經</text>			</g>
			<g id="shape40-128" transform="translate(253.123,-57.3851)">
				<title>工作表.40</title>
				<desc>一六二</desc>
				<rect x="0" y="345.977" width="75.151" height="19.8425" class="st1"/>
				<text x="13.58" y="360.7" class="st2">一六二</text>			</g>
			<g id="shape41-131" transform="translate(316.411,-57.5039)">
				<title>工作表.41</title>
				<desc>分別六界經</desc>
				<rect x="0" y="345.977" width="90.9463" height="19.8425" class="st1"/>
				<text x="5.47" y="360.7" class="st2">分別六界經</text>			</g>
			<g id="shape47-134" transform="translate(7.99361E-14,-0.864895)">
				<title>工作表.47</title>
				<desc>一四二</desc>
				<rect x="0" y="345.977" width="62.0168" height="19.8425" class="st1"/>
				<text x="9.09" y="360.7" class="st2">一四二</text>			</g>
			<g id="shape48-137" transform="translate(58.7859,-0.692205)">
				<title>工作表.48</title>
				<desc>Dakkhiṇā-v</desc>
				<rect x="0" y="345.977" width="88.3033" height="19.8425" class="st1"/>
				<text x="6.39" y="360.7" class="st3">Dakkhiṇā-v</text>			</g>
			<g id="shape49-140" transform="translate(444.781,5.68434E-14)">
				<title>工作表.49</title>
				<desc>一八</desc>
				<rect x="0" y="345.977" width="66.6471" height="19.8425" class="st1"/>
				<text x="9.32" y="360.7" class="st2">一八０</text>			</g>
			<g id="shape50-143" transform="translate(513.362,-0.692205)">
				<title>工作表.50</title>
				<desc>瞿曇彌經</desc>
				<rect x="0" y="345.977" width="75.6077" height="19.8425" class="st1"/>
				<text x="5.8" y="360.7" class="st2">瞿曇彌經</text>			</g>
			<g id="shape51-146" transform="translate(4.16876,-364.944)">
				<title>工作表.51</title>
				<path d="M0 365.82 L129 365.82" class="st4"/>
			</g>
			<g id="shape52-149" transform="translate(-361.273,29.2215) rotate(-90)">
				<title>工作表.52</title>
				<path d="M0 365.82 L28.35 365.82" class="st4"/>
			</g>
			<g id="shape53-152" transform="translate(-232.655,29.2215) rotate(-90)">
				<title>工作表.53</title>
				<path d="M0 365.82 L28.35 365.82" class="st4"/>
			</g>
			<g id="shape54-155" transform="translate(4.54638,-336.598)">
				<title>工作表.54</title>
				<path d="M0 365.82 L129 365.82" class="st4"/>
			</g>
			<g id="shape57-158" transform="translate(465.915,-364.944)">
				<title>工作表.57</title>
				<path d="M0 365.82 L122.42 365.82" class="st4"/>
			</g>
			<g id="shape58-161" transform="translate(100.454,29.2215) rotate(-90)">
				<title>工作表.58</title>
				<path d="M0 365.82 L28.35 365.82" class="st4"/>
			</g>
			<g id="shape59-164" transform="translate(222.512,29.2215) rotate(-90)">
				<title>工作表.59</title>
				<path d="M0 365.82 L28.35 365.82" class="st4"/>
			</g>
			<g id="shape60-167" transform="translate(466.273,-336.598)">
				<title>工作表.60</title>
				<path d="M0 365.82 L122.42 365.82" class="st4"/>
			</g>
			<g id="shape62-170" transform="translate(273.349,-364.944)">
				<title>工作表.62</title>
				<path d="M0 365.82 L113.75 365.82" class="st4"/>
			</g>
			<g id="shape63-173" transform="translate(-92.137,29.2215) rotate(-90)">
				<title>工作表.63</title>
				<path d="M0 365.82 L28.35 365.82" class="st4"/>
			</g>
			<g id="shape64-176" transform="translate(21.2771,29.2215) rotate(-90)">
				<title>工作表.64</title>
				<path d="M0 365.82 L28.35 365.82" class="st4"/>
			</g>
			<g id="shape65-179" transform="translate(273.682,-336.598)">
				<title>工作表.65</title>
				<path d="M0 365.82 L113.75 365.82" class="st4"/>
			</g>
			<g id="shape66-182" transform="translate(172.1,-265.732)">
				<title>工作表.66</title>
				<path d="M0 365.82 L87.74 365.82" class="st5"/>
			</g>
			<g id="shape67-185" transform="translate(183.302,-237.385)">
				<title>工作表.67</title>
				<path d="M0 365.82 L76.54 365.82" class="st5"/>
			</g>
			<g id="shape68-188" transform="translate(208.814,-67.3064)">
				<title>工作表.68</title>
				<path d="M0 365.82 L56.69 365.82" class="st5"/>
			</g>
			<g id="shape69-191" transform="translate(203.144,-38.9599)">
				<title>工作表.69</title>
				<path d="M0 365.82 L255.12 365.82" class="st5"/>
			</g>
			<g id="shape71-194" transform="translate(163.528,-180.692)">
				<title>工作表.71</title>
				<path d="M0 365.82 L97.3 365.82" class="st5"/>
			</g>
			<g id="shape72-197" transform="translate(242.829,-209.039)">
				<title>工作表.72</title>
				<path d="M0 365.82 L17.01 365.82" class="st5"/>
			</g>
			<g id="shape73-200" transform="translate(223.124,-294.078)">
				<title>工作表.73</title>
				<path d="M0 365.82 L36.71 365.82" class="st5"/>
			</g>
			<g id="shape74-203" transform="translate(141.057,-10.6135)">
				<title>工作表.74</title>
				<path d="M0 365.82 L310.96 365.82" class="st5"/>
			</g>
			<g id="shape75-206" transform="translate(210.506,-94.0209)">
				<title>工作表.75</title>
				<path d="M0 365.82 L56.69 365.82" class="st5"/>
			</g>
			<g id="shape77-209" transform="translate(235.88,-150.714)">
				<title>工作表.77</title>
				<path d="M0 365.82 L24.95 365.82" class="st5"/>
			</g>
			<g id="shape80-212" transform="translate(210.506,-124.113)">
				<title>工作表.80</title>
				<path d="M0 365.82 L56.69 365.82" class="st5"/>
			</g>
			<g id="shape10-215" transform="translate(-170.109,109.895) rotate(-90)">
				<title>工作表.10</title>
				<desc>Mahākaccāna-b</desc>
				<rect x="0" y="212.198" width="19.8425" height="153.621" class="st1"/>
				<text x="12.14" y="238.38" writing-mode="tb-rl" class="st3">Mahākaccāna-b</text>			</g>
		</g>
	</g>
</svg>
