<?xml version="1.0" encoding="UTF-8" standalone="no"?>
<!DOCTYPE svg PUBLIC "-//W3C//DTD SVG 1.1//EN" "http://www.w3.org/Graphics/SVG/1.1/DTD/svg11.dtd">
<!-- 由 Microsoft Visio, SVG Export 產生 y36.0013-2.svg 頁-1 -->
<svg xmlns="http://www.w3.org/2000/svg" xmlns:xlink="http://www.w3.org/1999/xlink" xmlns:ev="http://www.w3.org/2001/xml-events"
		width="7.39459in" height="5.80576in" viewBox="0 0 532.411 418.014" xml:space="preserve" color-interpolation-filters="sRGB"
		class="st6">
	<style type="text/css">
	<![CDATA[
		.st1 {fill:none;stroke:#000000;stroke-linecap:round;stroke-linejoin:round;stroke-opacity:0;stroke-width:1}
		.st2 {fill:#000000;font-family:新細明體;font-size:1.33333em}
		.st3 {stroke:#000000;stroke-linecap:round;stroke-linejoin:round;stroke-width:1}
		.st4 {fill:none;stroke:none;stroke-linecap:round;stroke-linejoin:round;stroke-width:0.75}
		.st5 {font-family:Times New Roman;font-size:1em}
		.st6 {fill:none;fill-rule:evenodd;font-size:12px;overflow:visible;stroke-linecap:square;stroke-miterlimit:3}
	]]>
	</style>

	<g>
		<title>頁-1</title>
		<g id="group57-1" transform="translate(0.375,-0.375)">
			<title>工作表.57</title>
			<g id="shape1-2" transform="translate(4.87952,-325.984)">
				<title>工作表.1</title>
				<desc>犢子部</desc>
				<rect x="0" y="398.172" width="59.5276" height="19.8425" class="st1"/>
				<text x="5.76" y="413.08" class="st2">犢子部</text>			</g>
			<g id="shape2-5" transform="translate(4.87952,-396.85)">
				<title>工作表.2</title>
				<desc>說一切有部</desc>
				<rect x="0" y="398.172" width="90.7087" height="19.8425" class="st1"/>
				<text x="5.35" y="413.08" class="st2">說一切有部</text>			</g>
			<g id="shape3-8" transform="translate(118.265,-396.85)">
				<title>工作表.3</title>
				<desc>說轉部</desc>
				<rect x="0" y="398.172" width="59.5276" height="19.8425" class="st1"/>
				<text x="5.76" y="413.08" class="st2">說轉部</text>			</g>
			<g id="shape4-11" transform="translate(121.1,-282.756)">
				<title>工作表.4</title>
				<desc>密山林部</desc>
				<rect x="0" y="398.172" width="72.2835" height="19.8425" class="st1"/>
				<text x="4.14" y="413.08" class="st2">密山林部</text>			</g>
			<g id="shape5-14" transform="translate(118.265,-311.811)">
				<title>工作表.5</title>
				<desc>賢胄部</desc>
				<rect x="0" y="398.172" width="59.5276" height="19.8425" class="st1"/>
				<text x="5.76" y="413.08" class="st2">賢胄部</text>			</g>
			<g id="shape6-17" transform="translate(118.265,-320.315)">
				<title>工作表.6</title>
				<desc>法上部</desc>
				<rect x="0" y="358.487" width="59.5276" height="59.5276" class="st1"/>
				<text x="5.76" y="393.23" class="st2">法上部</text>			</g>
			<g id="shape7-20" transform="translate(118.265,-369.921)">
				<title>工作表.7</title>
				<desc>正量部</desc>
				<rect x="0" y="398.172" width="59.5276" height="19.8425" class="st1"/>
				<text x="5.76" y="413.08" class="st2">正量部</text>			</g>
			<g id="shape8-23" transform="translate(345.037,-396.85)">
				<title>工作表.8</title>
				<desc>說經部</desc>
				<rect x="0" y="398.172" width="59.5276" height="19.8425" class="st1"/>
				<text x="5.76" y="413.08" class="st2">說經部</text>			</g>
			<g id="shape10-26" transform="translate(240.155,-24.0945)">
				<title>工作表.10</title>
				<path d="M0 418.01 L62.36 418.01" class="st3"/>
			</g>
			<g id="shape9-29" transform="translate(61.5724,-335.906)">
				<title>工作表.9</title>
				<path d="M0 418.01 L42.52 418.01" class="st3"/>
			</g>
			<g id="shape13-32" transform="translate(322.36,-406.772)">
				<title>工作表.13</title>
				<path d="M0 418.01 L28.35 418.01" class="st3"/>
			</g>
			<g id="shape14-35" transform="translate(89.9189,-406.772)">
				<title>工作表.14</title>
				<path d="M0 418.01 L28.35 418.01" class="st3"/>
			</g>
			<g id="shape15-38" transform="translate(104.092,-293.386)">
				<title>工作表.15</title>
				<path d="M0 418.01 L13.46 418.01" class="st3"/>
			</g>
			<g id="shape16-41" transform="translate(104.801,-378.425)">
				<title>工作表.16</title>
				<path d="M0 418.01 L13.46 418.01" class="st3"/>
			</g>
			<g id="shape17-44" transform="translate(-313.922,124.629) rotate(-90)">
				<title>工作表.17</title>
				<path d="M0 418.01 L85.04 418.01" class="st3"/>
			</g>
			<g id="shape18-47" transform="translate(177.793,-396.85)">
				<title>工作表.18</title>
				<desc>Saṃkrāntivādin</desc>
				<rect x="0" y="398.172" width="159.713" height="19.8425" class="st4"/>
				<text x="4" y="413.08" class="st2">（<tspan class="st5">Saṃkrāntivādin</tspan>）</text>			</g>
			<g id="shape19-51" transform="translate(404.565,-397.422)">
				<title>工作表.19</title>
				<desc>Sūtravādin</desc>
				<rect x="0" y="398.172" width="127.096" height="19.8425" class="st4"/>
				<text x="4" y="413.08" class="st2">（<tspan class="st5">Sūtravādin</tspan>）</text>			</g>
			<g id="shape20-55" transform="translate(177.793,-364.662)">
				<title>工作表.20</title>
				<desc>Sammatīya</desc>
				<rect x="0" y="390.078" width="125.339" height="27.9362" class="st4"/>
				<text x="4" y="409.03" class="st2">（<tspan class="st5">Sa</tspan><tspan class="st5">mma</tspan><tspan class="st5">tīya</tspan>）</text>			</g>
			<g id="shape21-61" transform="translate(177.793,-340.157)">
				<title>工作表.21</title>
				<desc>Dharmottarīya</desc>
				<rect x="0" y="398.172" width="143.643" height="19.8425" class="st4"/>
				<text x="4" y="413.08" class="st2">（<tspan class="st5">Dharmottarīya</tspan>）</text>			</g>
			<g id="shape22-65" transform="translate(177.793,-312.382)">
				<title>工作表.22</title>
				<desc>Bhadrayānīya</desc>
				<rect x="0" y="398.172" width="148.799" height="19.8425" class="st4"/>
				<text x="4" y="413.08" class="st2">（<tspan class="st5">Bhadrayānīya</tspan>）</text>			</g>
			<g id="shape23-69" transform="translate(196.444,-283.465)">
				<title>工作表.23</title>
				<desc>Ṣaṇṇagarika</desc>
				<rect x="0" y="398.172" width="123.082" height="19.8425" class="st4"/>
				<text x="4" y="413.08" class="st2">（<tspan class="st5">Ṣaṇṇagarika</tspan>）</text>			</g>
			<g id="shape24-73" transform="translate(3.9968E-14,-211.809)">
				<title>工作表.24</title>
				<desc>分別說部</desc>
				<rect x="0" y="398.172" width="89.1291" height="19.8425" class="st4"/>
				<text x="4" y="412.89" class="st2">分別說部</text>			</g>
			<g id="shape25-76" transform="translate(118.265,-196.733)">
				<title>工作表.25</title>
				<desc>迦葉部</desc>
				<rect x="0" y="398.172" width="59.5276" height="19.8425" class="st1"/>
				<text x="5.76" y="413.08" class="st2">迦葉部</text>			</g>
			<g id="shape26-79" transform="translate(118.265,-226.772)">
				<title>工作表.26</title>
				<desc>法藏部</desc>
				<rect x="0" y="398.172" width="59.5276" height="19.8425" class="st1"/>
				<text x="5.76" y="413.08" class="st2">法藏部</text>			</g>
			<g id="shape27-82" transform="translate(118.265,-255.118)">
				<title>工作表.27</title>
				<desc>化地部</desc>
				<rect x="0" y="398.172" width="59.5276" height="19.8425" class="st1"/>
				<text x="5.76" y="413.08" class="st2">化地部</text>			</g>
			<g id="shape28-85" transform="translate(110.47,-170.787)">
				<title>工作表.28</title>
				<desc>赤銅鍱部</desc>
				<rect x="0" y="398.172" width="106.299" height="19.8425" class="st1"/>
				<text x="5.15" y="413.08" class="st2">（赤）銅鍱部</text>			</g>
			<g id="shape29-88" transform="translate(75.7457,-222.52)">
				<title>工作表.29</title>
				<path d="M0 418.01 L28.35 418.01" class="st3"/>
			</g>
			<g id="shape30-91" transform="translate(104.092,-180)">
				<title>工作表.30</title>
				<path d="M0 418.01 L13.46 418.01" class="st3"/>
			</g>
			<g id="shape31-94" transform="translate(104.801,-265.039)">
				<title>工作表.31</title>
				<path d="M0 418.01 L13.46 418.01" class="st3"/>
			</g>
			<g id="shape32-97" transform="translate(-313.922,238.014) rotate(-90)">
				<title>工作表.32</title>
				<path d="M0 418.01 L85.04 418.01" class="st3"/>
			</g>
			<g id="shape33-100" transform="translate(177.793,-255.109)">
				<title>工作表.33</title>
				<desc>Mahīśāsaka</desc>
				<rect x="0" y="398.172" width="138.409" height="19.8425" class="st4"/>
				<text x="4" y="413.08" class="st2">（<tspan class="st5">Mahīśāsaka</tspan>）</text>			</g>
			<g id="shape34-104" transform="translate(177.793,-226.772)">
				<title>工作表.34</title>
				<desc>Dharmaguptaka</desc>
				<rect x="0" y="398.172" width="146.339" height="19.8425" class="st4"/>
				<text x="4" y="413.08" class="st2">（<tspan class="st5">Dharmaguptaka</tspan>）</text>			</g>
			<g id="shape35-108" transform="translate(177.793,-198.425)">
				<title>工作表.35</title>
				<desc>Kāśyapīya</desc>
				<rect x="0" y="398.172" width="130.893" height="19.8425" class="st4"/>
				<text x="4" y="413.08" class="st2">（<tspan class="st5">Kāśyapīya</tspan>）</text>			</g>
			<g id="shape36-112" transform="translate(214.643,-170.436)">
				<title>工作表.36</title>
				<desc>Tāmraśāṭīya</desc>
				<rect x="0" y="398.172" width="151.37" height="19.8425" class="st4"/>
				<text x="4" y="413.08" class="st2">（<tspan class="st5">Tāmraśāṭīya</tspan>）</text>			</g>
			<g id="shape37-116" transform="translate(10.2677,-85.0394)">
				<title>工作表.37</title>
				<desc>大眾部</desc>
				<rect x="0" y="398.172" width="57.5596" height="19.8425" class="st4"/>
				<text x="4" y="412.89" class="st2">大眾部</text>			</g>
			<g id="shape38-119" transform="translate(118.761,-141.285)">
				<title>工作表.38</title>
				<desc>一說部Ekavyāvahārika</desc>
				<rect x="0" y="398.172" width="265.465" height="19.8425" class="st4"/>
				<text x="4" y="413.08" class="st2">（一說部<tspan class="st5">Ekavyāvahārika</tspan>）</text>			</g>
			<g id="shape39-123" transform="translate(315.251,-85.0033)">
				<title>工作表.39</title>
				<desc>多聞部Bahuśrutīya</desc>
				<rect x="0" y="398.172" width="178.627" height="19.8425" class="st4"/>
				<text x="4" y="413.08" class="st2">多聞部（<tspan class="st5">Bahuśrutīya</tspan>）</text>			</g>
			<g id="shape40-127" transform="translate(118.265,-69.0272)">
				<title>工作表.40</title>
				<desc>雞胤部Kukkuṭika</desc>
				<rect x="0" y="398.172" width="156.388" height="19.8425" class="st4"/>
				<text x="4" y="413.08" class="st2">（雞胤部<tspan class="st5">Kukkuṭika</tspan>）</text>			</g>
			<g id="shape41-131" transform="translate(314.848,-56.4878)">
				<title>工作表.41</title>
				<desc>說假部Prajñaptivādin</desc>
				<rect x="0" y="398.172" width="194.598" height="19.8425" class="st4"/>
				<text x="4" y="413.08" class="st2">說假部（<tspan class="st5">Prajñaptivādin</tspan>）</text>			</g>
			<g id="shape42-135" transform="translate(315.769,-28.3465)">
				<title>工作表.42</title>
				<desc>東山部Pūrvaśaila</desc>
				<rect x="0" y="398.172" width="166.252" height="19.8425" class="st4"/>
				<text x="4" y="413.08" class="st2">東山部（<tspan class="st5">Pūrvaśaila</tspan>）</text>			</g>
			<g id="shape43-139" transform="translate(118.265,-13.9572)">
				<title>工作表.43</title>
				<desc>制多部Caitya</desc>
				<rect x="0" y="398.172" width="141.732" height="19.8425" class="st4"/>
				<text x="4" y="413.08" class="st2">（制多部<tspan class="st5">Caitya</tspan>）</text>			</g>
			<g id="shape44-143" transform="translate(316.691,5.68434E-14)">
				<title>工作表.44</title>
				<desc>西山部Aparaśaila</desc>
				<rect x="0" y="398.172" width="181.273" height="19.8425" class="st4"/>
				<text x="4" y="413.08" class="st2">西山部（<tspan class="st5">Aparaśaila</tspan>）</text>			</g>
			<g id="shape45-147" transform="translate(118.265,-113.386)">
				<title>工作表.45</title>
				<desc>說出世部Lokottaravādin</desc>
				<rect x="0" y="398.172" width="216.626" height="19.8425" class="st4"/>
				<text x="4" y="413.08" class="st2">（說出世部<tspan class="st5">Lokottaravādin</tspan>）</text>			</g>
			<g id="shape46-151" transform="translate(61.5724,-94.9606)">
				<title>工作表.46</title>
				<path d="M0 418.01 L42.52 418.01" class="st3"/>
			</g>
			<g id="shape47-154" transform="translate(104.092,-24.0945)">
				<title>工作表.47</title>
				<path d="M0 418.01 L13.46 418.01" class="st3"/>
			</g>
			<g id="shape48-157" transform="translate(104.092,-151.654)">
				<title>工作表.48</title>
				<path d="M0 418.01 L13.46 418.01" class="st3"/>
			</g>
			<g id="shape49-160" transform="translate(-313.922,393.92) rotate(-90)">
				<title>工作表.49</title>
				<path d="M0 418.01 L127.56 418.01" class="st3"/>
			</g>
			<g id="shape50-163" transform="translate(-114.788,408.093) rotate(-90)">
				<title>工作表.50</title>
				<path d="M0 418.01 L28.35 418.01" class="st3"/>
			</g>
			<g id="shape51-166" transform="translate(-116.007,351.4) rotate(-90)">
				<title>工作表.51</title>
				<path d="M0 418.01 L28.35 418.01" class="st3"/>
			</g>
			<g id="shape52-169" transform="translate(265.667,-80.7874)">
				<title>工作表.52</title>
				<path d="M0 418.01 L36.85 418.01" class="st3"/>
			</g>
			<g id="shape53-172" transform="translate(303.226,-9.92126)">
				<title>工作表.53</title>
				<path d="M0 418.01 L13.46 418.01" class="st3"/>
			</g>
			<g id="shape54-175" transform="translate(304.121,-38.2677)">
				<title>工作表.54</title>
				<path d="M0 418.01 L13.46 418.01" class="st3"/>
			</g>
			<g id="shape55-178" transform="translate(302.517,-66.6142)">
				<title>工作表.55</title>
				<path d="M0 418.01 L13.46 418.01" class="st3"/>
			</g>
			<g id="shape56-181" transform="translate(302.007,-94.9606)">
				<title>工作表.56</title>
				<path d="M0 418.01 L13.46 418.01" class="st3"/>
			</g>
		</g>
	</g>
</svg>
