<?xml version="1.0" encoding="UTF-8" standalone="no"?>
<!DOCTYPE svg PUBLIC "-//W3C//DTD SVG 1.1//EN" "http://www.w3.org/Graphics/SVG/1.1/DTD/svg11.dtd">
<!-- 由 Microsoft Visio, SVG Export 產生 y36.0457-ｈ.svg 頁-1 -->
<svg xmlns="http://www.w3.org/2000/svg" xmlns:xlink="http://www.w3.org/1999/xlink" xmlns:ev="http://www.w3.org/2001/xml-events"
		width="9.6011in" height="5.46317in" viewBox="0 0 691.279 393.348" xml:space="preserve" color-interpolation-filters="sRGB"
		class="st5">
	<style type="text/css">
	<![CDATA[
		.st1 {fill:none;stroke:none;stroke-linecap:round;stroke-linejoin:round;stroke-width:0.75}
		.st2 {fill:#000000;font-family:新細明體;font-size:1.33333em}
		.st3 {stroke:#000000;stroke-linecap:round;stroke-linejoin:round;stroke-width:1}
		.st4 {stroke:#000000;stroke-dasharray:0,4.5;stroke-linecap:round;stroke-linejoin:round;stroke-width:1.5}
		.st5 {fill:none;fill-rule:evenodd;font-size:12px;overflow:visible;stroke-linecap:square;stroke-miterlimit:3}
	]]>
	</style>

	<g>
		<title>頁-1</title>
		<g id="group66-1" transform="translate(0.375,-0.375)">
			<title>工作表.66</title>
			<g id="shape1-2" transform="translate(1.70831,-369.921)">
				<title>工作表.1</title>
				<desc>忍辱</desc>
				<rect x="0" y="370.671" width="42.5197" height="22.6772" class="st1"/>
				<text x="5.26" y="386.81" class="st2">忍辱</text>			</g>
			<g id="shape2-5" transform="translate(0,-339.591)">
				<title>工作表.2</title>
				<desc>多聞</desc>
				<rect x="0" y="370.671" width="44.2219" height="22.6772" class="st1"/>
				<text x="6.11" y="386.81" class="st2">多聞</text>			</g>
			<g id="shape3-8" transform="translate(1.42341,-311.811)">
				<title>工作表.3</title>
				<desc>聖分</desc>
				<rect x="0" y="370.671" width="40.2548" height="22.6772" class="st1"/>
				<text x="4.13" y="386.81" class="st2">聖分</text>			</g>
			<g id="shape4-11" transform="translate(86.7095,-341.6)">
				<title>工作表.4</title>
				<desc>真知識</desc>
				<rect x="0" y="370.671" width="61.2956" height="22.6772" class="st1"/>
				<text x="6.65" y="386.81" class="st2">真知識</text>			</g>
			<g id="shape5-14" transform="translate(89.0109,-311.811)">
				<title>工作表.5</title>
				<desc>真御意</desc>
				<rect x="0" y="370.671" width="56.6929" height="22.6772" class="st1"/>
				<text x="4.35" y="386.81" class="st2">真御意</text>			</g>
			<g id="shape6-17" transform="translate(87.2187,-283.465)">
				<title>工作表.6</title>
				<desc>真由得</desc>
				<rect x="0" y="370.671" width="92.6012" height="22.6772" class="st1"/>
				<text x="6.3" y="386.81" class="st2">真由（得）</text>			</g>
			<g id="shape7-20" transform="translate(216.29,-311.811)">
				<title>工作表.7</title>
				<desc>正具</desc>
				<rect x="0" y="370.671" width="41.3873" height="22.6772" class="st1"/>
				<text x="4.69" y="386.81" class="st2">正具</text>			</g>
			<g id="shape8-23" transform="translate(303.09,-340.666)">
				<title>工作表.8</title>
				<desc>善損頭陀行</desc>
				<rect x="0" y="370.671" width="120.071" height="22.6772" class="st1"/>
				<text x="4.04" y="386.81" class="st2">善損（頭陀行）</text>			</g>
			<g id="shape9-26" transform="translate(300.192,-311.811)">
				<title>工作表.9</title>
				<desc>伏根</desc>
				<rect x="0" y="370.671" width="45.3543" height="22.6772" class="st1"/>
				<text x="6.68" y="386.81" class="st2">伏根</text>			</g>
			<g id="shape10-29" transform="translate(301.318,-283.465)">
				<title>工作表.10</title>
				<desc>近行禪</desc>
				<rect x="0" y="370.671" width="59.5605" height="22.6772" class="st1"/>
				<text x="5.78" y="386.81" class="st2">近行禪</text>			</g>
			<g id="shape11-32" transform="translate(611.155,-283.467)">
				<title>工作表.11</title>
				<desc>初度</desc>
				<rect x="0" y="370.671" width="79.3742" height="22.6772" class="st1"/>
				<text x="7.69" y="386.81" class="st2">（初度）</text>			</g>
			<g id="shape12-35" transform="translate(214.022,-198.71)">
				<title>工作表.12</title>
				<desc>方便</desc>
				<rect x="0" y="370.671" width="45.9241" height="22.6772" class="st1"/>
				<text x="6.96" y="386.81" class="st2">方便</text>			</g>
			<g id="shape13-38" transform="translate(299.907,-255.403)">
				<title>工作表.13</title>
				<desc>戒陰</desc>
				<rect x="0" y="370.671" width="45.9241" height="22.6772" class="st1"/>
				<text x="6.96" y="386.81" class="st2">戒陰</text>			</g>
			<g id="shape14-41" transform="translate(399.13,-256.535)">
				<title>工作表.14</title>
				<desc>進信勤不捨</desc>
				<rect x="0" y="370.671" width="127.559" height="22.6772" class="st1"/>
				<text x="7.78" y="386.81" class="st2">進（信勤不捨）</text>			</g>
			<g id="shape15-44" transform="translate(302.175,-227.623)">
				<title>工作表.15</title>
				<desc>止陰</desc>
				<rect x="0" y="370.671" width="41.3873" height="22.6772" class="st1"/>
				<text x="4.69" y="386.81" class="st2">止陰</text>			</g>
			<g id="shape16-47" transform="translate(396.22,-227.267)">
				<title>工作表.16</title>
				<desc>念四念處──內外俱</desc>
				<rect x="0" y="370.671" width="197.434" height="22.6772" class="st1"/>
				<text x="10.72" y="386.81" class="st2">念（四念處──內外俱）</text>			</g>
			<g id="shape17-50" transform="translate(401.489,-198.425)">
				<title>工作表.17</title>
				<desc>定空無願無相</desc>
				<rect x="0" y="370.671" width="139.278" height="22.6772" class="st1"/>
				<text x="5.64" y="386.81" class="st2">定（空無願無相）</text>			</g>
			<g id="shape18-53" transform="translate(303.318,-141.732)">
				<title>工作表.18</title>
				<desc>智陰</desc>
				<rect x="0" y="370.671" width="41.3873" height="22.6772" class="st1"/>
				<text x="4.69" y="386.81" class="st2">智陰</text>			</g>
			<g id="shape19-56" transform="translate(400.861,-168.975)">
				<title>工作表.19</title>
				<desc>見地法智觀智比智</desc>
				<rect x="0" y="370.671" width="172.286" height="22.6772" class="st1"/>
				<text x="6.14" y="386.81" class="st2">見地（法智觀智比智）</text>			</g>
			<g id="shape20-59" transform="translate(401.523,-140.757)">
				<title>工作表.20</title>
				<desc>修地相行種</desc>
				<rect x="0" y="370.671" width="122.774" height="22.6772" class="st1"/>
				<text x="5.39" y="386.81" class="st2">修地（相行種）</text>			</g>
			<g id="shape22-62" transform="translate(401.298,-113.481)">
				<title>工作表.22</title>
				<desc>無學地達通辯</desc>
				<rect x="0" y="370.671" width="136.253" height="22.6772" class="st1"/>
				<text x="4.13" y="386.81" class="st2">無學地（達通辯）</text>			</g>
			<g id="shape23-65" transform="translate(611.975,-113.386)">
				<title>工作表.23</title>
				<desc>二度</desc>
				<rect x="0" y="370.671" width="77.7337" height="22.6772" class="st1"/>
				<text x="6.87" y="386.81" class="st2">（二度）</text>			</g>
			<g id="shape28-68" transform="translate(399.124,-56.6929)">
				<title>工作表.28</title>
				<desc>離欲信解脫見到身證</desc>
				<rect x="0" y="370.671" width="191.625" height="22.6772" class="st1"/>
				<text x="7.81" y="386.81" class="st2">離欲（信解脫見到身證）</text>			</g>
			<g id="shape29-71" transform="translate(398.805,-29.1641)">
				<title>工作表.29</title>
				<desc>未離欲第八須陀洹薄地</desc>
				<rect x="0" y="370.671" width="208.129" height="22.6772" class="st1"/>
				<text x="8.06" y="386.81" class="st2">未離欲（第八須陀洹薄地）</text>			</g>
			<g id="shape31-74" transform="translate(614.81,-5.68434E-13)">
				<title>工作表.31</title>
				<desc>三度</desc>
				<rect x="0" y="370.671" width="72.0644" height="22.6772" class="st1"/>
				<text x="4.03" y="386.81" class="st2">（三度）</text>			</g>
			<g id="shape25-77" transform="translate(257.672,-209.764)">
				<title>工作表.25</title>
				<path d="M0 393.35 L27.5 393.35" class="st3"/>
			</g>
			<g id="shape32-80" transform="translate(285.173,-266.457)">
				<title>工作表.32</title>
				<path d="M0 393.35 L12.76 393.35" class="st3"/>
			</g>
			<g id="shape33-83" transform="translate(256.529,-323.15)">
				<title>工作表.33</title>
				<path d="M0 393.35 L28.64 393.35" class="st3"/>
			</g>
			<g id="shape35-86" transform="translate(200.134,-82.2047)">
				<title>工作表.35</title>
				<path d="M0 393.35 L14.17 393.35" class="st3"/>
			</g>
			<g id="shape36-89" transform="translate(71.8658,-351.496)">
				<title>工作表.36</title>
				<path d="M0 393.35 L14.88 393.35" class="st3"/>
			</g>
			<g id="shape34-92" transform="translate(72.5744,-294.803)">
				<title>工作表.34</title>
				<path d="M0 393.35 L14.17 393.35" class="st3"/>
			</g>
			<g id="shape37-95" transform="translate(43.9309,-323.15)">
				<title>工作表.37</title>
				<path d="M0 393.35 L28.64 393.35" class="st3"/>
			</g>
			<g id="shape38-98" transform="translate(-320.774,98.5453) rotate(-90)">
				<title>工作表.38</title>
				<path d="M0 393.35 L56.69 393.35" class="st3"/>
			</g>
			<g id="shape39-101" transform="translate(171.787,-294.803)">
				<title>工作表.39</title>
				<path d="M0 393.35 L28.35 393.35" class="st3"/>
			</g>
			<g id="shape41-104" transform="translate(200.979,-323.15)">
				<title>工作表.41</title>
				<path d="M0 393.35 L14.17 393.35" class="st3"/>
			</g>
			<g id="shape42-107" transform="translate(-193.215,311.144) rotate(-90)">
				<title>工作表.42</title>
				<path d="M0 393.35 L240.94 393.35" class="st3"/>
			</g>
			<g id="shape43-110" transform="translate(285.173,-294.803)">
				<title>工作表.43</title>
				<path d="M0 393.35 L12.76 393.35" class="st3"/>
			</g>
			<g id="shape44-113" transform="translate(285.173,-351.496)">
				<title>工作表.44</title>
				<path d="M0 393.35 L12.76 393.35" class="st3"/>
			</g>
			<g id="shape45-116" transform="translate(-108.176,97.6994) rotate(-90)">
				<title>工作表.45</title>
				<path d="M0 393.35 L55.85 393.35" class="st3"/>
			</g>
			<g id="shape46-119" transform="translate(-108.176,240.278) rotate(-90)">
				<title>工作表.46</title>
				<path d="M0 393.35 L113.39 393.35" class="st3"/>
			</g>
			<g id="shape47-122" transform="translate(285.173,-153.071)">
				<title>工作表.47</title>
				<path d="M0 393.35 L14.17 393.35" class="st3"/>
			</g>
			<g id="shape50-125" transform="translate(341.866,-153.071)">
				<title>工作表.50</title>
				<path d="M0 393.35 L42.52 393.35" class="st3"/>
			</g>
			<g id="shape53-128" transform="translate(-8.96295,268.624) rotate(-90)">
				<title>工作表.53</title>
				<path d="M0 393.35 L56.69 393.35" class="st3"/>
			</g>
			<g id="shape21-131" transform="translate(301.912,-113.654)">
				<title>工作表.21</title>
				<desc>佛</desc>
				<rect x="0" y="370.671" width="28.8833" height="22.6772" class="st1"/>
				<text x="6.44" y="386.81" class="st2">佛</text>			</g>
			<g id="shape24-134" transform="translate(299.885,-85.0394)">
				<title>工作表.24</title>
				<desc>辟支佛</desc>
				<rect x="0" y="370.671" width="62.428" height="22.6772" class="st1"/>
				<text x="7.21" y="386.81" class="st2">辟支佛</text>			</g>
			<g id="shape26-137" transform="translate(213.192,-69.7173)">
				<title>工作表.26</title>
				<desc>果</desc>
				<rect x="0" y="370.671" width="31.718" height="22.6772" class="st1"/>
				<text x="7.86" y="386.81" class="st2">果</text>			</g>
			<g id="shape27-140" transform="translate(300.763,-29.7638)">
				<title>工作表.27</title>
				<desc>聲聞</desc>
				<rect x="0" y="370.671" width="42.5197" height="22.6772" class="st1"/>
				<text x="5.26" y="386.81" class="st2">聲聞</text>			</g>
			<g id="shape30-143" transform="translate(404.228,0)">
				<title>工作表.30</title>
				<desc>阿羅漢鈍利中</desc>
				<rect x="0" y="370.671" width="136.063" height="22.6772" class="st1"/>
				<text x="4.03" y="386.81" class="st2">阿羅漢（鈍利中）</text>			</g>
			<g id="shape40-146" transform="translate(285.173,-39.685)">
				<title>工作表.40</title>
				<path d="M0 393.35 L14.17 393.35" class="st3"/>
			</g>
			<g id="shape48-149" transform="translate(285.173,-124.724)">
				<title>工作表.48</title>
				<path d="M0 393.35 L14.17 393.35" class="st3"/>
			</g>
			<g id="shape49-152" transform="translate(-108.176,353.663) rotate(-90)">
				<title>工作表.49</title>
				<path d="M0 393.35 L85.04 393.35" class="st3"/>
			</g>
			<g id="shape51-155" transform="translate(242.653,-82.2047)">
				<title>工作表.51</title>
				<path d="M0 393.35 L42.52 393.35" class="st3"/>
			</g>
			<g id="shape52-158" transform="translate(-8.96295,382.01) rotate(-90)">
				<title>工作表.52</title>
				<path d="M0 393.35 L56.69 393.35" class="st3"/>
			</g>
			<g id="shape54-161" transform="translate(384.385,-11.3386)">
				<title>工作表.54</title>
				<path d="M0 393.35 L14.17 393.35" class="st3"/>
			</g>
			<g id="shape55-164" transform="translate(384.385,-68.0315)">
				<title>工作表.55</title>
				<path d="M0 393.35 L14.17 393.35" class="st3"/>
			</g>
			<g id="shape56-167" transform="translate(384.385,-181.417)">
				<title>工作表.56</title>
				<path d="M0 393.35 L14.17 393.35" class="st3"/>
			</g>
			<g id="shape57-170" transform="translate(384.385,-124.724)">
				<title>工作表.57</title>
				<path d="M0 393.35 L14.17 393.35" class="st3"/>
			</g>
			<g id="shape58-173" transform="translate(384.385,-209.764)">
				<title>工作表.58</title>
				<path d="M0 393.35 L14.17 393.35" class="st3"/>
			</g>
			<g id="shape59-176" transform="translate(342.712,-39.685)">
				<title>工作表.59</title>
				<path d="M0 393.35 L41.67 393.35" class="st3"/>
			</g>
			<g id="shape60-179" transform="translate(341.866,-238.11)">
				<title>工作表.60</title>
				<path d="M0 393.35 L42.52 393.35" class="st3"/>
			</g>
			<g id="shape62-182" transform="translate(384.385,-266.457)">
				<title>工作表.62</title>
				<path d="M0 393.35 L14.17 393.35" class="st3"/>
			</g>
			<g id="shape63-185" transform="translate(-8.96295,183.585) rotate(-90)">
				<title>工作表.63</title>
				<path d="M0 393.35 L56.69 393.35" class="st3"/>
			</g>
			<g id="shape61-188" transform="translate(357.182,-294.803)">
				<title>工作表.61</title>
				<path d="M0 393.35 L262.48 393.35" class="st4"/>
			</g>
			<g id="shape64-191" transform="translate(528.952,-124.724)">
				<title>工作表.64</title>
				<path d="M0 393.35 L87.87 393.35" class="st4"/>
			</g>
			<g id="shape65-194" transform="translate(531.787,-11.3386)">
				<title>工作表.65</title>
				<path d="M0 393.35 L87.87 393.35" class="st4"/>
			</g>
		</g>
	</g>
</svg>
