<?xml version="1.0" encoding="UTF-8" standalone="no"?>
<!DOCTYPE svg PUBLIC "-//W3C//DTD SVG 1.1//EN" "http://www.w3.org/Graphics/SVG/1.1/DTD/svg11.dtd">
<!-- 由 Microsoft Visio, SVG Export 產生 y36.0021.svg 頁-1 -->
<svg xmlns="http://www.w3.org/2000/svg" xmlns:xlink="http://www.w3.org/1999/xlink" xmlns:ev="http://www.w3.org/2001/xml-events"
		width="7.30913in" height="2.30034in" viewBox="0 0 526.258 165.624" xml:space="preserve" color-interpolation-filters="sRGB"
		class="st5">
	<style type="text/css">
	<![CDATA[
		.st1 {stroke:#000000;stroke-dasharray:3,3;stroke-linecap:round;stroke-linejoin:round;stroke-width:1}
		.st2 {stroke:#000000;stroke-linecap:round;stroke-linejoin:round;stroke-width:1}
		.st3 {fill:none;stroke:none;stroke-linecap:round;stroke-linejoin:round;stroke-width:0.75}
		.st4 {fill:#000000;font-family:新細明體;font-size:1.33333em}
		.st5 {fill:none;fill-rule:evenodd;font-size:12px;overflow:visible;stroke-linecap:square;stroke-miterlimit:3}
	]]>
	</style>

	<g>
		<title>頁-1</title>
		<g id="group39-1" transform="translate(0.375,-0.375)">
			<title>工作表.39</title>
			<g id="shape5-2" transform="translate(382.694,-39.685)">
				<title>工作表.5</title>
				<path d="M0 165.62 L28.35 165.62" class="st1"/>
			</g>
			<g id="shape1-5" transform="translate(56.7094,-96.378)">
				<title>工作表.1</title>
				<path d="M0 165.62 L28.35 165.62" class="st2"/>
			</g>
			<g id="shape2-8" transform="translate(85.2399,-31.1811)">
				<title>工作表.2</title>
				<path d="M0 165.62 L13.46 165.62" class="st2"/>
			</g>
			<g id="shape3-11" transform="translate(85.7645,-153.071)">
				<title>工作表.3</title>
				<path d="M0 165.62 L13.46 165.62" class="st2"/>
			</g>
			<g id="shape4-14" transform="translate(-80.3844,134.694) rotate(-90.0865)">
				<title>工作表.4</title>
				<path d="M0 165.62 L121.89 165.62" class="st2"/>
			</g>
			<g id="shape8-17" transform="translate(155.922,-31.1811)">
				<title>工作表.8</title>
				<path d="M0 165.62 L28.35 165.62" class="st2"/>
			</g>
			<g id="shape9-20" transform="translate(184.268,-11.3386)">
				<title>工作表.9</title>
				<path d="M0 165.62 L13.46 165.62" class="st2"/>
			</g>
			<g id="shape10-23" transform="translate(184.268,-53.8583)">
				<title>工作表.10</title>
				<path d="M0 165.62 L13.46 165.62" class="st2"/>
			</g>
			<g id="shape24-26" transform="translate(18.6439,154.286) rotate(-90)">
				<title>工作表.24</title>
				<path d="M0 165.62 L42.52 165.62" class="st2"/>
			</g>
			<g id="shape25-29" transform="translate(117.857,125.939) rotate(-90)">
				<title>工作表.25</title>
				<path d="M0 165.62 L28.35 165.62" class="st2"/>
			</g>
			<g id="shape26-32" transform="translate(255.135,-53.8583)">
				<title>工作表.26</title>
				<path d="M0 165.62 L28.35 165.62" class="st2"/>
			</g>
			<g id="shape27-35" transform="translate(283.481,-39.685)">
				<title>工作表.27</title>
				<path d="M0 165.62 L13.46 165.62" class="st2"/>
			</g>
			<g id="shape28-38" transform="translate(284.19,-68.0315)">
				<title>工作表.28</title>
				<path d="M0 165.62 L13.46 165.62" class="st2"/>
			</g>
			<g id="shape29-41" transform="translate(297.654,319.91) rotate(180)">
				<title>工作表.29</title>
				<path d="M0 165.62 L42.52 165.62" class="st2"/>
			</g>
			<g id="shape30-44" transform="translate(411.04,319.91) rotate(180)">
				<title>工作表.30</title>
				<path d="M0 165.62 L73.7 165.62" class="st2"/>
			</g>
			<g id="shape31-47" transform="translate(411.04,234.871) rotate(180)">
				<title>工作表.31</title>
				<path d="M0 165.62 L249.45 165.62" class="st2"/>
			</g>
			<g id="shape32-50" transform="translate(382.694,206.525) rotate(180)">
				<title>工作表.32</title>
				<path d="M0 165.62 L155.91 165.62" class="st2"/>
			</g>
			<g id="shape33-53" transform="translate(410.65,178.745) rotate(-179.865)">
				<title>工作表.33</title>
				<path d="M0 165.62 L240.95 165.62" class="st2"/>
			</g>
			<g id="shape34-56" transform="translate(245.416,125.939) rotate(-90)">
				<title>工作表.34</title>
				<path d="M0 165.62 L56.69 165.62" class="st1"/>
			</g>
			<g id="shape35-59" transform="translate(381.985,263.217) rotate(180)">
				<title>工作表.35</title>
				<path d="M0 165.62 L42.52 165.62" class="st2"/>
			</g>
			<g id="shape36-62" transform="translate(295.291,187.272) rotate(-135.448)">
				<title>工作表.36</title>
				<path d="M0 165.62 L40.4 165.62" class="st2"/>
			</g>
			<g id="shape37-65" transform="translate(267.232,-21.8358) rotate(-43.8561)">
				<title>工作表.37</title>
				<path d="M0 165.62 L40.91 165.62" class="st2"/>
			</g>
			<g id="group11-68" transform="translate(0,-85.0394)">
				<title>工作表.11</title>
				<desc>上座部</desc>
				<g id="shape11-69">
					<rect x="0" y="142.947" width="56.7258" height="22.6772" class="st3"/>
					<text x="4.36" y="159.09" class="st4">上座部</text>				</g>
			</g>
			<g id="group12-72" transform="translate(96.4181,-141.623)">
				<title>工作表.12</title>
				<desc>說一切有</desc>
				<g id="shape12-73">
					<rect x="0" y="142.947" width="79.151" height="22.6772" class="st3"/>
					<text x="7.58" y="159.09" class="st4">說一切有</text>				</g>
			</g>
			<g id="group13-76" transform="translate(405.522,-142.197)">
				<title>工作表.13</title>
				<desc>七部阿毘達磨</desc>
				<g id="shape13-77">
					<rect x="0" y="142.947" width="119.985" height="22.6772" class="st3"/>
					<text x="11.99" y="159.09" class="st4">七部阿毘達磨</text>				</g>
			</g>
			<g id="group14-80" transform="translate(98.8216,-113.07)">
				<title>工作表.14</title>
				<desc>犢子本末五部</desc>
				<g id="shape14-81">
					<rect x="0" y="142.947" width="136.694" height="22.6772" class="st3"/>
					<text x="4.35" y="159.09" class="st4">犢子（本末五部）</text>				</g>
			</g>
			<g id="group15-84" transform="translate(96.7507,-85.0394)">
				<title>工作表.15</title>
				<desc>雪山</desc>
				<g id="shape15-85">
					<rect x="0" y="142.947" width="76.3475" height="22.6772" class="st3"/>
					<text x="6.17" y="159.09" class="st4">（雪山）</text>				</g>
			</g>
			<g id="group16-88" transform="translate(97.2335,-21.5758)">
				<title>工作表.16</title>
				<desc>分別說</desc>
				<g id="shape16-89">
					<rect x="0" y="142.947" width="60.1595" height="22.6772" class="st3"/>
					<text x="6.08" y="159.09" class="st4">分別說</text>				</g>
			</g>
			<g id="group17-92" transform="translate(410.819,-84.818)">
				<title>工作表.17</title>
				<desc>舍利弗阿毘曇</desc>
				<g id="shape17-93">
					<rect x="0" y="142.947" width="108.159" height="22.6772" class="st3"/>
					<text x="6.08" y="159.09" class="st4">舍利弗阿毘曇</text>				</g>
			</g>
			<g id="group18-96" transform="translate(191.541,-42.5197)">
				<title>工作表.18</title>
				<desc>印度</desc>
				<g id="shape18-97">
					<rect x="0" y="142.947" width="74.9301" height="22.6772" class="st3"/>
					<text x="5.47" y="159.09" class="st4">（印度）</text>				</g>
			</g>
			<g id="group19-100" transform="translate(297.588,-56.6929)">
				<title>工作表.19</title>
				<desc>法藏</desc>
				<g id="shape19-101">
					<rect x="0" y="142.947" width="42.8357" height="22.6772" class="st3"/>
					<text x="5.42" y="159.09" class="st4">法藏</text>				</g>
			</g>
			<g id="group20-104" transform="translate(296.929,-27.6211)">
				<title>工作表.20</title>
				<desc>化地˙飲光</desc>
				<g id="shape20-105">
					<rect x="0" y="142.947" width="92.1594" height="22.6772" class="st3"/>
					<text x="6.08" y="159.09" class="st4">化地˙飲光</text>				</g>
			</g>
			<g id="group21-108" transform="translate(191.003,-2.84217E-14)">
				<title>工作表.21</title>
				<desc>錫蘭</desc>
				<g id="shape21-109">
					<rect x="0" y="142.947" width="76.3475" height="22.6772" class="st3"/>
					<text x="6.17" y="159.09" class="st4">（錫蘭）</text>				</g>
			</g>
			<g id="group22-112" transform="translate(297.727,-3.41061E-13)">
				<title>工作表.22</title>
				<desc>銅鍱</desc>
				<g id="shape22-113">
					<rect x="0" y="142.947" width="44.1596" height="22.6772" class="st3"/>
					<text x="6.08" y="159.09" class="st4">銅鍱</text>				</g>
			</g>
			<g id="group23-116" transform="translate(410.819,-0.221413)">
				<title>工作表.23</title>
				<desc>七部阿毘達磨</desc>
				<g id="shape23-117">
					<rect x="0" y="142.947" width="108.159" height="22.6772" class="st3"/>
					<text x="6.08" y="159.09" class="st4">七部阿毘達磨</text>				</g>
			</g>
		</g>
	</g>
</svg>
