<?xml version="1.0" encoding="UTF-8" standalone="no"?>
<!DOCTYPE svg PUBLIC "-//W3C//DTD SVG 1.1//EN" "http://www.w3.org/Graphics/SVG/1.1/DTD/svg11.dtd">
<!-- 由 Microsoft Visio, SVG Export 產生 y36.0690-h.svg 頁-1 -->
<svg xmlns="http://www.w3.org/2000/svg" xmlns:xlink="http://www.w3.org/1999/xlink" xmlns:ev="http://www.w3.org/2001/xml-events"
		width="6.60094in" height="2.52527in" viewBox="0 0 475.267 181.82" xml:space="preserve" color-interpolation-filters="sRGB"
		class="st4">
	<style type="text/css">
	<![CDATA[
		.st1 {fill:none;stroke:none;stroke-linecap:round;stroke-linejoin:round;stroke-width:0.75}
		.st2 {fill:#000000;font-family:新細明體;font-size:1.33333em}
		.st3 {stroke:#000000;stroke-linecap:round;stroke-linejoin:round;stroke-width:1}
		.st4 {fill:none;fill-rule:evenodd;font-size:12px;overflow:visible;stroke-linecap:square;stroke-miterlimit:3}
	]]>
	</style>

	<g>
		<title>頁-1</title>
		<g id="group25-1" transform="translate(0.375,-0.375)">
			<title>工作表.25</title>
			<g id="shape1-2" transform="translate(2.23027,-85.0065)">
				<title>工作表.1</title>
				<desc>遮異義</desc>
				<rect x="0" y="159.142" width="62.428" height="22.6772" class="st1"/>
				<text x="7.21" y="175.28" class="st2">遮異義</text>			</g>
			<g id="shape2-5">
				<title>工作表.2</title>
				<desc>立正義</desc>
				<rect x="0" y="159.142" width="62.3622" height="22.6772" class="st1"/>
				<text x="7.18" y="175.28" class="st2">立正義</text>			</g>
			<g id="shape4-8" transform="translate(85.0065,-56.66)">
				<title>工作表.4</title>
				<desc>無表業</desc>
				<rect x="0" y="159.142" width="62.428" height="22.6772" class="st1"/>
				<text x="0.25em 1.451em 2.652em" y="175.28" class="st2">無表業</text>			</g>
			<g id="shape5-11" transform="translate(172.566,-158.392)">
				<title>工作表.5</title>
				<desc>毘婆沙師「形色」說及其評難</desc>
				<rect x="0" y="159.142" width="221.798" height="22.6772" class="st1"/>
				<text x="6.9" y="175.28" class="st2">毘婆沙師「形色」說及其評難</text>			</g>
			<g id="shape6-14" transform="translate(168.661,-127.559)">
				<title>工作表.6</title>
				<desc>正量部「行動」說及其評難</desc>
				<rect x="0" y="159.142" width="212.598" height="22.6772" class="st1"/>
				<text x="10.3" y="175.28" class="st2">正量部「行動」說及其評難</text>			</g>
			<g id="shape7-17" transform="translate(173.078,-99.0484)">
				<title>工作表.7</title>
				<desc>日出論者「行動」意行說及其評難</desc>
				<rect x="0" y="159.142" width="283.136" height="22.6772" class="st1"/>
				<text x="5.57" y="175.28" class="st2">日出論者「行動」（意行）說及其評難</text>			</g>
			<g id="shape8-20" transform="translate(165.07,-70.8661)">
				<title>工作表.8</title>
				<desc>毘婆沙師「無表色」說及其評難</desc>
				<rect x="0" y="159.142" width="250.962" height="22.6772" class="st1"/>
				<text x="13.48" y="175.28" class="st2">毘婆沙師「無表色」說及其評難</text>			</g>
			<g id="shape9-23" transform="translate(171.21,-42.5197)">
				<title>工作表.9</title>
				<desc>正量部等「不失法」「增長」說及其評難</desc>
				<rect x="0" y="159.142" width="303.307" height="22.6772" class="st1"/>
				<text x="7.65" y="175.28" class="st2">正量部等「不失法」「增長」說及其評難</text>			</g>
			<g id="shape10-26" transform="translate(169.731,-8.81073E-13)">
				<title>工作表.10</title>
				<desc>經部「由思熏心相續功能」說</desc>
				<rect x="0" y="159.142" width="227.467" height="22.6772" class="st1"/>
				<text x="9.73" y="175.28" class="st2">經部「由思熏心相續功能」說</text>			</g>
			<g id="shape11-29" transform="translate(85.0065,-127.592)">
				<title>工作表.11</title>
				<desc>表業</desc>
				<rect x="0" y="159.142" width="62.428" height="22.6772" class="st1"/>
				<text x="0.25em 2.652em" y="175.28" class="st2">表業</text>			</g>
			<g id="shape12-32" transform="translate(59.5276,-11.3386)">
				<title>工作表.12</title>
				<path d="M0 181.82 L113.67 181.82" class="st3"/>
			</g>
			<g id="shape3-35" transform="translate(59.5276,-96.378)">
				<title>工作表.3</title>
				<path d="M0 181.82 L14.17 181.82" class="st3"/>
			</g>
			<g id="shape14-38" transform="translate(159.026,-53.8583)">
				<title>工作表.14</title>
				<path d="M0 181.82 L14.17 181.82" class="st3"/>
			</g>
			<g id="shape15-41" transform="translate(159.026,-82.2047)">
				<title>工作表.15</title>
				<path d="M0 181.82 L14.17 181.82" class="st3"/>
			</g>
			<g id="shape16-44" transform="translate(144.567,-68.0315)">
				<title>工作表.16</title>
				<path d="M0 181.82 L14.17 181.82" class="st3"/>
			</g>
			<g id="shape17-47" transform="translate(144.567,-138.898)">
				<title>工作表.17</title>
				<path d="M0 181.82 L14.17 181.82" class="st3"/>
			</g>
			<g id="shape18-50" transform="translate(159.026,-110.551)">
				<title>工作表.18</title>
				<path d="M0 181.82 L14.17 181.82" class="st3"/>
			</g>
			<g id="shape19-53" transform="translate(158.74,-167.244)">
				<title>工作表.19</title>
				<path d="M0 181.82 L14.17 181.82" class="st3"/>
			</g>
			<g id="shape20-56" transform="translate(-23.0794,127.961) rotate(-90)">
				<title>工作表.20</title>
				<path d="M0 181.82 L28.35 181.82" class="st3"/>
			</g>
			<g id="shape21-59" transform="translate(-23.0794,71.2684) rotate(-90)">
				<title>工作表.21</title>
				<path d="M0 181.82 L56.69 181.82" class="st3"/>
			</g>
			<g id="shape22-62" transform="translate(73.7008,-138.898)">
				<title>工作表.22</title>
				<path d="M0 181.82 L14.17 181.82" class="st3"/>
			</g>
			<g id="shape23-65" transform="translate(73.7008,-68.0315)">
				<title>工作表.23</title>
				<path d="M0 181.82 L14.17 181.82" class="st3"/>
			</g>
			<g id="shape24-68" transform="translate(-108.119,113.788) rotate(-90)">
				<title>工作表.24</title>
				<path d="M0 181.82 L70.87 181.82" class="st3"/>
			</g>
		</g>
	</g>
</svg>
