<?xml version="1.0" encoding="UTF-8" standalone="no"?>
<!DOCTYPE svg PUBLIC "-//W3C//DTD SVG 1.1//EN" "http://www.w3.org/Graphics/SVG/1.1/DTD/svg11.dtd">
<!-- 由 Microsoft Visio, SVG Export 產生 y36.0158-h.svg 頁-1 -->
<svg xmlns="http://www.w3.org/2000/svg" xmlns:xlink="http://www.w3.org/1999/xlink" xmlns:ev="http://www.w3.org/2001/xml-events"
		width="7.02668in" height="7.41734in" viewBox="0 0 505.921 534.049" xml:space="preserve" color-interpolation-filters="sRGB"
		class="st4">
	<style type="text/css">
	<![CDATA[
		.st1 {fill:none;stroke:none;stroke-linecap:round;stroke-linejoin:round;stroke-width:0.75}
		.st2 {fill:#000000;font-family:新細明體;font-size:1.33333em}
		.st3 {stroke:#000000;stroke-linecap:round;stroke-linejoin:round;stroke-width:1}
		.st4 {fill:none;fill-rule:evenodd;font-size:12px;overflow:visible;stroke-linecap:square;stroke-miterlimit:3}
	]]>
	</style>

	<g>
		<title>頁-1</title>
		<g id="group51-1" transform="translate(0.375,-0.375)">
			<title>工作表.51</title>
			<g id="shape1-2" transform="translate(0.89011,-482.275)">
				<title>工作表.1</title>
				<desc>色</desc>
				<rect x="0" y="511.371" width="28.3465" height="22.6772" class="st1"/>
				<text x="6.17" y="527.51" class="st2">色</text>			</g>
			<g id="shape2-5" transform="translate(2.0217,-397.236)">
				<title>工作表.2</title>
				<desc>心</desc>
				<rect x="0" y="511.371" width="28.3465" height="22.6772" class="st1"/>
				<text x="6.17" y="527.51" class="st2">心</text>			</g>
			<g id="shape3-8" transform="translate(3.19744E-14,-283.883)">
				<title>工作表.3</title>
				<desc>心所法</desc>
				<rect x="0" y="511.371" width="62.428" height="22.6772" class="st1"/>
				<text x="7.21" y="527.51" class="st2">心所法</text>			</g>
			<g id="shape4-11" transform="translate(2.0217,-113.771)">
				<title>工作表.4</title>
				<desc>心不相應行</desc>
				<rect x="0" y="511.371" width="90.7087" height="22.6772" class="st1"/>
				<text x="5.35" y="527.51" class="st2">心不相應行</text>			</g>
			<g id="shape5-14" transform="translate(2.0217,-0.385164)">
				<title>工作表.5</title>
				<desc>無為法</desc>
				<rect x="0" y="511.371" width="56.6929" height="22.6772" class="st1"/>
				<text x="4.35" y="527.51" class="st2">無為法</text>			</g>
			<g id="shape6-17" transform="translate(72.8878,-510.621)">
				<title>工作表.6</title>
				<desc>能造色</desc>
				<rect x="0" y="511.371" width="56.6929" height="22.6772" class="st1"/>
				<text x="4.35" y="527.51" class="st2">能造色</text>			</g>
			<g id="shape7-20" transform="translate(71.4705,-453.928)">
				<title>工作表.7</title>
				<desc>所造色</desc>
				<rect x="0" y="511.371" width="56.6929" height="22.6772" class="st1"/>
				<text x="4.35" y="527.51" class="st2">所造色</text>			</g>
			<g id="shape8-23" transform="translate(170.683,-510.621)">
				<title>工作表.8</title>
				<desc>地‧水‧火‧風</desc>
				<rect x="0" y="511.371" width="127.559" height="22.6772" class="st1"/>
				<text x="7.78" y="527.51" class="st2">地‧水‧火‧風</text>			</g>
			<g id="shape13-26" transform="translate(150.841,-368.889)">
				<title>工作表.13</title>
				<desc>受‧想‧思‧觸‧作意‧欲‧勝解‧念‧定‧慧</desc>
				<rect x="0" y="511.371" width="354.331" height="22.6772" class="st1"/>
				<text x="9.17" y="527.51" class="st2">受‧想‧思‧觸‧作意‧欲‧勝解‧念‧定‧慧</text>			</g>
			<g id="shape27-29" transform="translate(92.4446,-125.11)">
				<title>工作表.27</title>
				<path d="M0 534.05 L51.31 534.05" class="st3"/>
			</g>
			<g id="shape28-32" transform="translate(29.7967,-408.574)">
				<title>工作表.28</title>
				<path d="M0 534.05 L128.13 534.05" class="st3"/>
			</g>
			<g id="shape29-35" transform="translate(58.7146,-295.188)">
				<title>工作表.29</title>
				<path d="M0 534.05 L85.04 534.05" class="st3"/>
			</g>
			<g id="shape31-38" transform="translate(129.581,-521.96)">
				<title>工作表.31</title>
				<path d="M0 534.05 L42.52 534.05" class="st3"/>
			</g>
			<g id="shape32-41" transform="translate(58.7146,-11.7237)">
				<title>工作表.32</title>
				<path d="M0 534.05 L99.21 534.05" class="st3"/>
			</g>
			<g id="shape33-44" transform="translate(143.754,-210.149)">
				<title>工作表.33</title>
				<path d="M0 534.05 L14.17 534.05" class="st3"/>
			</g>
			<g id="shape34-47" transform="translate(143.754,-183.078)">
				<title>工作表.34</title>
				<path d="M0 534.05 L14.17 534.05" class="st3"/>
			</g>
			<g id="shape35-50" transform="translate(143.754,-40.0702)">
				<title>工作表.35</title>
				<path d="M0 534.05 L14.17 534.05" class="st3"/>
			</g>
			<g id="shape36-53" transform="translate(129.581,-465.267)">
				<title>工作表.36</title>
				<path d="M0 534.05 L14.17 534.05" class="st3"/>
			</g>
			<g id="shape37-56" transform="translate(143.754,-380.228)">
				<title>工作表.37</title>
				<path d="M0 534.05 L14.17 534.05" class="st3"/>
			</g>
			<g id="shape9-59" transform="translate(154.521,-482.275)">
				<title>工作表.9</title>
				<desc>眼‧耳‧鼻‧舌‧身</desc>
				<rect x="0" y="511.371" width="155.906" height="22.6772" class="st1"/>
				<text x="5.95" y="527.51" class="st2">眼‧耳‧鼻‧舌‧身</text>			</g>
			<g id="shape10-62" transform="translate(149.423,-453.928)">
				<title>工作表.10</title>
				<desc>色‧聲‧香‧味‧觸一分</desc>
				<rect x="0" y="511.371" width="198.425" height="22.6772" class="st1"/>
				<text x="11.21" y="527.51" class="st2">色‧聲‧香‧味‧觸一分</text>			</g>
			<g id="shape11-65" transform="translate(152.225,-425.615)">
				<title>工作表.11</title>
				<desc>無表色</desc>
				<rect x="0" y="511.371" width="62.428" height="22.6772" class="st1"/>
				<text x="7.21" y="527.51" class="st2">無表色</text>			</g>
			<g id="shape12-68" transform="translate(155.938,-397.236)">
				<title>工作表.12</title>
				<desc>六識身</desc>
				<rect x="0" y="511.371" width="56.6929" height="22.6772" class="st1"/>
				<text x="4.35" y="527.51" class="st2">六識身</text>			</g>
			<g id="shape14-71" transform="translate(155.922,-340.559)">
				<title>工作表.14</title>
				<desc>信‧勤</desc>
				<rect x="0" y="511.371" width="56.7258" height="22.6772" class="st1"/>
				<text x="4.36" y="527.51" class="st2">信‧勤</text>			</g>
			<g id="shape15-74" transform="translate(155.716,-312.921)">
				<title>工作表.15</title>
				<desc>尋‧伺</desc>
				<rect x="0" y="511.371" width="58.1431" height="22.6772" class="st1"/>
				<text x="5.07" y="527.51" class="st2">尋‧伺</text>			</g>
			<g id="shape16-77" transform="translate(153.751,-283.148)">
				<title>工作表.16</title>
				<desc>放逸‧不放逸</desc>
				<rect x="0" y="511.371" width="109.119" height="22.6772" class="st1"/>
				<text x="6.56" y="527.51" class="st2">放逸‧不放逸</text>			</g>
			<g id="shape17-80" transform="translate(153.123,-255.503)">
				<title>工作表.17</title>
				<desc>善根‧不善根‧無記根</desc>
				<rect x="0" y="511.371" width="174.017" height="22.6772" class="st1"/>
				<text x="7.01" y="527.51" class="st2">善根‧不善根‧無記根</text>			</g>
			<g id="shape18-83" transform="translate(151.972,-227.157)">
				<title>工作表.18</title>
				<desc>一切結‧縛‧隨眠‧隨煩惱‧纏</desc>
				<rect x="0" y="511.371" width="240.945" height="22.6772" class="st1"/>
				<text x="8.47" y="527.51" class="st2">一切結‧縛‧隨眠‧隨煩惱‧纏</text>			</g>
			<g id="shape19-86" transform="translate(152.258,-198.81)">
				<title>工作表.19</title>
				<desc>諸所有智‧諸所有見‧諸所有現觀</desc>
				<rect x="0" y="511.371" width="255.118" height="22.6772" class="st1"/>
				<text x="7.56" y="527.51" class="st2">諸所有智‧諸所有見‧諸所有現觀</text>			</g>
			<g id="shape20-89" transform="translate(155.093,-170.464)">
				<title>工作表.20</title>
				<desc>得</desc>
				<rect x="0" y="511.371" width="28.3465" height="22.6772" class="st1"/>
				<text x="14.17" y="515.37" writing-mode="tb-rl" class="st2">得</text>			</g>
			<g id="shape22-92" transform="translate(155.244,-113.048)">
				<title>工作表.22</title>
				<desc>命根‧眾同分</desc>
				<rect x="0" y="511.371" width="106.27" height="22.6772" class="st1"/>
				<text x="5.14" y="527.51" class="st2">命根‧眾同分</text>			</g>
			<g id="shape23-95" transform="translate(154.997,-85.3294)">
				<title>工作表.23</title>
				<desc>依得‧事得‧處得</desc>
				<rect x="0" y="511.371" width="136.253" height="22.6772" class="st1"/>
				<text x="4.13" y="527.51" class="st2">依得‧事得‧處得</text>			</g>
			<g id="shape24-98" transform="translate(153.775,-57.0781)">
				<title>工作表.24</title>
				<desc>生‧老‧住‧無常性</desc>
				<rect x="0" y="511.371" width="155.844" height="22.6772" class="st1"/>
				<text x="5.92" y="527.51" class="st2">生‧老‧住‧無常性</text>			</g>
			<g id="shape25-101" transform="translate(149.877,-28.7316)">
				<title>工作表.25</title>
				<desc>名身‧句身‧文身等</desc>
				<rect x="0" y="511.371" width="162.93" height="22.6772" class="st1"/>
				<text x="9.47" y="527.51" class="st2">名身‧句身‧文身等</text>			</g>
			<g id="shape26-104" transform="translate(148.814,0)">
				<title>工作表.26</title>
				<desc>虛空‧非擇滅‧擇滅</desc>
				<rect x="0" y="511.371" width="163.639" height="22.6772" class="st1"/>
				<text x="9.82" y="527.51" class="st2">虛空‧非擇滅‧擇滅</text>			</g>
			<g id="shape21-107" transform="translate(152,-142.431)">
				<title>工作表.21</title>
				<desc>無想定‧滅定‧無想事</desc>
				<rect x="0" y="511.371" width="175.121" height="22.6772" class="st1"/>
				<text x="7.56" y="527.51" class="st2">無想定‧滅定‧無想事</text>			</g>
			<g id="shape39-110" transform="translate(143.754,-493.614)">
				<title>工作表.39</title>
				<path d="M0 534.05 L14.17 534.05" class="st3"/>
			</g>
			<g id="shape40-113" transform="translate(143.754,-436.921)">
				<title>工作表.40</title>
				<path d="M0 534.05 L14.17 534.05" class="st3"/>
			</g>
			<g id="shape41-116" transform="translate(-390.295,97.128) rotate(-90)">
				<title>工作表.41</title>
				<path d="M0 534.05 L56.69 534.05" class="st3"/>
			</g>
			<g id="shape42-119" transform="translate(-390.295,493.978) rotate(-90)">
				<title>工作表.42</title>
				<path d="M0 534.05 L143.01 534.05" class="st3"/>
			</g>
			<g id="shape43-122" transform="translate(-390.295,323.9) rotate(-90)">
				<title>工作表.43</title>
				<path d="M0 534.05 L170.08 534.05" class="st3"/>
			</g>
			<g id="shape47-125" transform="translate(28.6651,-493.614)">
				<title>工作表.47</title>
				<path d="M0 534.05 L30.05 534.05" class="st3"/>
			</g>
			<g id="shape48-128" transform="translate(58.7146,-521.96)">
				<title>工作表.48</title>
				<path d="M0 534.05 L14.17 534.05" class="st3"/>
			</g>
			<g id="shape49-131" transform="translate(58.7146,-465.267)">
				<title>工作表.49</title>
				<path d="M0 534.05 L14.17 534.05" class="st3"/>
			</g>
			<g id="shape50-134" transform="translate(-475.334,68.7815) rotate(-90)">
				<title>工作表.50</title>
				<path d="M0 534.05 L56.69 534.05" class="st3"/>
			</g>
		</g>
	</g>
</svg>
