<?xml version="1.0" encoding="UTF-8" standalone="no"?>
<!DOCTYPE svg PUBLIC "-//W3C//DTD SVG 1.1//EN" "http://www.w3.org/Graphics/SVG/1.1/DTD/svg11.dtd">
<!-- 由 Microsoft Visio, SVG Export 產生 y36.0208-h.svg 頁-1 -->
<svg xmlns="http://www.w3.org/2000/svg" xmlns:xlink="http://www.w3.org/1999/xlink" xmlns:ev="http://www.w3.org/2001/xml-events"
		width="8.39231in" height="2.28404in" viewBox="0 0 604.246 164.451" xml:space="preserve" color-interpolation-filters="sRGB"
		class="st4">
	<style type="text/css">
	<![CDATA[
		.st1 {fill:none;stroke:#000000;stroke-linecap:round;stroke-linejoin:round;stroke-width:0.75}
		.st2 {fill:none;stroke:none;stroke-linecap:round;stroke-linejoin:round;stroke-width:0.75}
		.st3 {fill:#000000;font-family:新細明體;font-size:1.33333em}
		.st4 {fill:none;fill-rule:evenodd;font-size:12px;overflow:visible;stroke-linecap:square;stroke-miterlimit:3}
	]]>
	</style>

	<g>
		<title>頁-1</title>
		<g id="group44-1" transform="translate(0.375,-0.375)">
			<title>工作表.44</title>
			<g id="shape3-2" transform="translate(-20.5925,37.3169) rotate(-90)">
				<title>工作表.3</title>
				<rect x="0" y="36.3248" width="36.5669" height="128.126" class="st1"/>
			</g>
			<g id="shape20-4" transform="translate(299.156,37.3169) rotate(-90)">
				<title>工作表.20</title>
				<rect x="0" y="36.3248" width="36.5669" height="128.126" class="st1"/>
			</g>
			<g id="shape1-6" transform="translate(339.449,-134.079)">
				<title>工作表.1</title>
				<desc>大毘婆沙論</desc>
				<rect x="0" y="141.774" width="120.189" height="22.6772" class="st2"/>
				<text x="0.25em 1.753em 3.256em 4.759em 6.262em" y="157.91" class="st3">大毘婆沙論</text>			</g>
			<g id="shape2-9" transform="translate(19.7008,-134.079)">
				<title>工作表.2</title>
				<desc>鞞婆沙論</desc>
				<rect x="0" y="141.774" width="120.189" height="22.6772" class="st2"/>
				<text x="0.25em 2.254em 4.258em 6.262em" y="157.91" class="st3">鞞婆沙論</text>			</g>
			<g id="shape7-12" transform="translate(1.43885E-13,-97.5118)">
				<title>工作表.7</title>
				<desc>序阿毘曇卷一</desc>
				<rect x="0" y="141.774" width="152.22" height="22.6772" class="st2"/>
				<text x="12.11" y="157.91" class="st3">序阿毘曇（卷一）</text>			</g>
			<g id="shape10-15" transform="translate(6.39488E-14,-73.1339)">
				<title>工作表.10</title>
				<desc>小品章義卷一──三</desc>
				<rect x="0" y="141.774" width="200.126" height="22.6772" class="st2"/>
				<text x="12.06" y="157.91" class="st3">小品章義（卷一──三）</text>			</g>
			<g id="shape12-18" transform="translate(0,-48.7559)">
				<title>工作表.12</title>
				<desc>大品章義卷四──一三</desc>
				<rect x="0" y="141.774" width="216" height="22.6772" class="st2"/>
				<text x="12" y="157.91" class="st3">大品章義（卷四──一三）</text>			</g>
			<g id="shape14-21">
				<title>工作表.14</title>
				<desc>四生章義卷一四</desc>
				<rect x="0" y="141.774" width="168.094" height="22.6772" class="st2"/>
				<text x="12.05" y="157.91" class="st3">四生章義（卷一四）</text>			</g>
			<g id="shape30-24" transform="translate(2.8777E-13,-24.378)">
				<title>工作表.30</title>
				<desc>中陰章義卷一四</desc>
				<rect x="0" y="141.774" width="168.094" height="22.6772" class="st2"/>
				<text x="12.05" y="157.91" class="st3">中陰章義（卷一四）</text>			</g>
			<g id="shape38-27" transform="translate(323.433,-97.5118)">
				<title>工作表.38</title>
				<desc>卷一</desc>
				<rect x="0" y="141.774" width="56.126" height="22.6772" class="st2"/>
				<text x="12.06" y="157.91" class="st3">卷一</text>			</g>
			<g id="shape39-30" transform="translate(323.433,-73.1339)">
				<title>工作表.39</title>
				<desc>卷四六──五○</desc>
				<rect x="0" y="141.774" width="136.063" height="22.6772" class="st2"/>
				<text x="12.03" y="157.91" class="st3">卷四六──五○</text>			</g>
			<g id="shape40-33" transform="translate(323.433,-48.7559)">
				<title>工作表.40</title>
				<desc>卷七一──八六‧一○四──一○六</desc>
				<rect x="0" y="141.774" width="280.063" height="22.6772" class="st2"/>
				<text x="12.03" y="157.91" class="st3">卷七一──八六‧一○四──一○六</text>			</g>
			<g id="shape41-36" transform="translate(323.433,-24.378)">
				<title>工作表.41</title>
				<desc>卷六九──七○</desc>
				<rect x="0" y="141.774" width="136.063" height="22.6772" class="st2"/>
				<text x="12.03" y="157.91" class="st3">卷六九──七○</text>			</g>
			<g id="shape42-39" transform="translate(323.433,-9.9476E-13)">
				<title>工作表.42</title>
				<desc>卷一二○</desc>
				<rect x="0" y="141.774" width="88.1575" height="22.6772" class="st2"/>
				<text x="12.08" y="157.91" class="st3">卷一二○</text>			</g>
		</g>
	</g>
</svg>
