<?xml version="1.0" encoding="UTF-8" standalone="no"?>
<!DOCTYPE svg PUBLIC "-//W3C//DTD SVG 1.1//EN" "http://www.w3.org/Graphics/SVG/1.1/DTD/svg11.dtd">
<!-- 由 Microsoft Visio, SVG Export 產生 y36.0682-h.svg 頁-1 -->
<svg xmlns="http://www.w3.org/2000/svg" xmlns:xlink="http://www.w3.org/1999/xlink" xmlns:ev="http://www.w3.org/2001/xml-events"
		width="5.65481in" height="4.67275in" viewBox="0 0 407.147 336.438" xml:space="preserve" color-interpolation-filters="sRGB"
		class="st4">
	<style type="text/css">
	<![CDATA[
		.st1 {fill:none;stroke:none;stroke-linecap:round;stroke-linejoin:round;stroke-width:0.75}
		.st2 {fill:#000000;font-family:新細明體;font-size:1.33333em}
		.st3 {stroke:#000000;stroke-linecap:round;stroke-linejoin:round;stroke-width:1}
		.st4 {fill:none;fill-rule:evenodd;font-size:12px;overflow:visible;stroke-linecap:square;stroke-miterlimit:3}
	]]>
	</style>

	<g>
		<title>頁-1</title>
		<g id="group56-1" transform="translate(0.375,-0.375)">
			<title>工作表.56</title>
			<g id="shape1-2" transform="translate(1.13243,-298.35)">
				<title>工作表.1</title>
				<desc>總明</desc>
				<rect x="0" y="313.761" width="40.2548" height="22.6772" class="st1"/>
				<text x="4.13" y="329.9" class="st2">總明</text>			</g>
			<g id="shape2-5" transform="translate(0,-128.271)">
				<title>工作表.2</title>
				<desc>別明</desc>
				<rect x="0" y="313.761" width="42.5197" height="22.6772" class="st1"/>
				<text x="5.26" y="329.9" class="st2">別明</text>			</g>
			<g id="shape3-8" transform="translate(55.4774,-313.011)">
				<title>工作表.3</title>
				<desc>所觀所證的四諦</desc>
				<rect x="0" y="313.761" width="146.427" height="22.6772" class="st1"/>
				<text x="17.21" y="329.9" class="st2">所觀所證的四諦</text>			</g>
			<g id="shape4-11" transform="translate(61.7181,-284.177)">
				<title>工作表.4</title>
				<desc>應住應修的戒慧</desc>
				<rect x="0" y="313.761" width="132.253" height="22.6772" class="st1"/>
				<text x="10.13" y="329.9" class="st2">應住應修的戒慧</text>			</g>
			<g id="shape5-14" transform="translate(65.9464,-255.83)">
				<title>工作表.5</title>
				<desc>淨器三因</desc>
				<rect x="0" y="313.761" width="77.025" height="22.6772" class="st1"/>
				<text x="6.51" y="329.9" class="st2">淨器三因</text>			</g>
			<g id="shape6-17" transform="translate(62.5813,-227.703)">
				<title>工作表.6</title>
				<desc>入道二門</desc>
				<rect x="0" y="313.761" width="84.6012" height="22.6772" class="st1"/>
				<text x="10.3" y="329.9" class="st2">入道二門</text>			</g>
			<g id="shape7-20" transform="translate(62.8947,-141.626)">
				<title>工作表.7</title>
				<desc>勤修三慧</desc>
				<rect x="0" y="313.761" width="83.403" height="22.6772" class="st1"/>
				<text x="9.7" y="329.9" class="st2">勤修三慧</text>			</g>
			<g id="shape8-23" transform="translate(63.7795,-14.8855)">
				<title>工作表.8</title>
				<desc>現證四諦</desc>
				<rect x="0" y="313.761" width="82.2047" height="22.6772" class="st1"/>
				<text x="9.1" y="329.9" class="st2">現證四諦</text>			</g>
			<g id="shape9-26" transform="translate(166.773,-256.587)">
				<title>工作表.9</title>
				<desc>身心遠離‧喜足少欲‧住四聖種</desc>
				<rect x="0" y="313.761" width="239.623" height="22.6772" class="st1"/>
				<text x="7.81" y="329.9" class="st2">身心遠離‧喜足少欲‧住四聖種</text>			</g>
			<g id="shape10-29" transform="translate(159.872,-227.484)">
				<title>工作表.10</title>
				<desc>不淨觀‧持息念</desc>
				<rect x="0" y="313.761" width="141.732" height="22.6772" class="st1"/>
				<text x="14.87" y="329.9" class="st2">不淨觀‧持息念</text>			</g>
			<g id="shape11-32" transform="translate(169.791,-184.332)">
				<title>工作表.11</title>
				<desc>四念住聞思</desc>
				<rect x="0" y="313.761" width="123.46" height="22.6772" class="st1"/>
				<text x="5.73" y="329.9" class="st2">四念住（聞思）</text>			</g>
			<g id="shape16-35" transform="translate(167.783,-99.9578)">
				<title>工作表.16</title>
				<desc>四善根</desc>
				<rect x="0" y="313.761" width="62.428" height="22.6772" class="st1"/>
				<text x="7.21" y="329.9" class="st2">四善根</text>			</g>
			<g id="shape17-38" transform="translate(312.561,-199.137)">
				<title>工作表.17</title>
				<desc>別相念住</desc>
				<rect x="0" y="313.761" width="75.6077" height="22.6772" class="st1"/>
				<text x="5.8" y="329.9" class="st2">別相念住</text>			</g>
			<g id="shape18-41" transform="translate(310.789,-170.681)">
				<title>工作表.18</title>
				<desc>總相念住</desc>
				<rect x="0" y="313.761" width="79.151" height="22.6772" class="st1"/>
				<text x="7.58" y="329.9" class="st2">總相念住</text>			</g>
			<g id="shape19-44" transform="translate(256.128,-141.467)">
				<title>工作表.19</title>
				<desc>煖</desc>
				<rect x="0" y="313.761" width="30.3007" height="22.6772" class="st1"/>
				<text x="7.15" y="329.9" class="st2">煖</text>			</g>
			<g id="shape20-47" transform="translate(256.533,-114.098)">
				<title>工作表.20</title>
				<desc>頂</desc>
				<rect x="0" y="313.761" width="28.3465" height="22.6772" class="st1"/>
				<text x="14.17" y="317.76" writing-mode="tb-rl" class="st2">頂</text>			</g>
			<g id="shape21-50" transform="translate(256.128,-85.7516)">
				<title>工作表.21</title>
				<desc>忍</desc>
				<rect x="0" y="313.761" width="30.3007" height="22.6772" class="st1"/>
				<text x="15.15" y="317.76" writing-mode="tb-rl" class="st2">忍</text>			</g>
			<g id="shape22-53" transform="translate(254.38,-57.5147)">
				<title>工作表.22</title>
				<desc>世第一法</desc>
				<rect x="0" y="313.761" width="79.151" height="22.6772" class="st1"/>
				<text x="7.58" y="329.9" class="st2">世第一法</text>			</g>
			<g id="shape23-56" transform="translate(166.821,-28.3501)">
				<title>工作表.23</title>
				<desc>十五心</desc>
				<rect x="0" y="313.761" width="63.7795" height="22.6772" class="st1"/>
				<text x="7.89" y="329.9" class="st2">十五心</text>			</g>
			<g id="shape24-59" transform="translate(168.242,0)">
				<title>工作表.24</title>
				<desc>十六心</desc>
				<rect x="0" y="313.761" width="60.9377" height="22.6772" class="st1"/>
				<text x="6.47" y="329.9" class="st2">十六心</text>			</g>
			<g id="shape27-62" transform="translate(156.9,-196.741)">
				<title>工作表.27</title>
				<path d="M0 336.44 L13.46 336.44" class="st3"/>
			</g>
			<g id="shape28-65" transform="translate(43.5141,-139.61)">
				<title>工作表.28</title>
				<path d="M0 336.44 L13.46 336.44" class="st3"/>
			</g>
			<g id="shape29-68" transform="translate(56.9786,-267.169)">
				<title>工作表.29</title>
				<path d="M0 336.44 L13.46 336.44" class="st3"/>
			</g>
			<g id="shape30-71" transform="translate(56.9786,-26.2241)">
				<title>工作表.30</title>
				<path d="M0 336.44 L13.46 336.44" class="st3"/>
			</g>
			<g id="shape31-74" transform="translate(-279.459,310.214) rotate(-90)">
				<title>工作表.31</title>
				<path d="M0 336.44 L240.94 336.44" class="st3"/>
			</g>
			<g id="shape36-77" transform="translate(142.018,-238.822)">
				<title>工作表.36</title>
				<path d="M0 336.44 L28.35 336.44" class="st3"/>
			</g>
			<g id="shape37-80" transform="translate(142.018,-267.169)">
				<title>工作表.37</title>
				<path d="M0 336.44 L28.35 336.44" class="st3"/>
			</g>
			<g id="shape38-83" transform="translate(156.9,-111.263)">
				<title>工作表.38</title>
				<path d="M0 336.44 L13.46 336.44" class="st3"/>
			</g>
			<g id="shape39-86" transform="translate(156.9,-12.0508)">
				<title>工作表.39</title>
				<path d="M0 336.44 L13.46 336.44" class="st3"/>
			</g>
			<g id="shape40-89" transform="translate(156.9,-40.3973)">
				<title>工作表.40</title>
				<path d="M0 336.44 L13.46 336.44" class="st3"/>
			</g>
			<g id="shape41-92" transform="translate(142.018,-26.2241)">
				<title>工作表.41</title>
				<path d="M0 336.44 L13.46 336.44" class="st3"/>
			</g>
			<g id="shape42-95" transform="translate(-180.247,324.387) rotate(-90)">
				<title>工作表.42</title>
				<path d="M0 336.44 L28.35 336.44" class="st3"/>
			</g>
			<g id="shape43-98" transform="translate(-180.247,225.175) rotate(-90)">
				<title>工作表.43</title>
				<path d="M0 336.44 L85.48 336.44" class="st3"/>
			</g>
			<g id="shape44-101" transform="translate(142.727,-153.783)">
				<title>工作表.44</title>
				<path d="M0 336.44 L13.46 336.44" class="st3"/>
			</g>
			<g id="shape12-104" transform="translate(255.118,-0.712256)">
				<title>工作表.12</title>
				<desc>住果</desc>
				<rect x="0" y="313.761" width="42.5197" height="22.6772" class="st1"/>
				<text x="5.26" y="329.9" class="st2">住果</text>			</g>
			<g id="shape15-107" transform="translate(255.118,-29.0587)">
				<title>工作表.15</title>
				<desc>見道</desc>
				<rect x="0" y="313.761" width="42.5197" height="22.6772" class="st1"/>
				<text x="5.26" y="329.9" class="st2">見道</text>			</g>
			<g id="shape14-110" transform="translate(247.609,-68.7438)">
				<title>工作表.14</title>
				<path d="M0 336.44 L13.46 336.44" class="st3"/>
			</g>
			<g id="shape45-113" transform="translate(246.9,-153.783)">
				<title>工作表.45</title>
				<path d="M0 336.44 L13.46 336.44" class="st3"/>
			</g>
			<g id="shape46-116" transform="translate(227.057,-111.263)">
				<title>工作表.46</title>
				<path d="M0 336.44 L19.84 336.44" class="st3"/>
			</g>
			<g id="shape47-119" transform="translate(-89.5381,267.694) rotate(-90)">
				<title>工作表.47</title>
				<path d="M0 336.44 L85.04 336.44" class="st3"/>
			</g>
			<g id="shape48-122" transform="translate(227.057,-12.0508)">
				<title>工作表.48</title>
				<path d="M0 336.44 L28.35 336.44" class="st3"/>
			</g>
			<g id="shape49-125" transform="translate(227.057,-40.3973)">
				<title>工作表.49</title>
				<path d="M0 336.44 L28.35 336.44" class="st3"/>
			</g>
			<g id="shape32-128" transform="translate(42.234,-309.689)">
				<title>工作表.32</title>
				<path d="M0 336.44 L13.46 336.44" class="st3"/>
			</g>
			<g id="shape33-131" transform="translate(56.9786,-294.807)">
				<title>工作表.33</title>
				<path d="M0 336.44 L13.46 336.44" class="st3"/>
			</g>
			<g id="shape34-134" transform="translate(56.9786,-323.862)">
				<title>工作表.34</title>
				<path d="M0 336.44 L13.46 336.44" class="st3"/>
			</g>
			<g id="shape35-137" transform="translate(-279.459,41.6312) rotate(-90)">
				<title>工作表.35</title>
				<path d="M0 336.44 L29.06 336.44" class="st3"/>
			</g>
			<g id="shape52-140" transform="translate(283.75,-196.303)">
				<title>工作表.52</title>
				<path d="M0 336.44 L13.46 336.44" class="st3"/>
			</g>
			<g id="shape53-143" transform="translate(298.495,-181.421)">
				<title>工作表.53</title>
				<path d="M0 336.44 L13.46 336.44" class="st3"/>
			</g>
			<g id="shape54-146" transform="translate(298.495,-210.476)">
				<title>工作表.54</title>
				<path d="M0 336.44 L13.46 336.44" class="st3"/>
			</g>
			<g id="shape55-149" transform="translate(-37.943,155.017) rotate(-90)">
				<title>工作表.55</title>
				<path d="M0 336.44 L29.06 336.44" class="st3"/>
			</g>
		</g>
	</g>
</svg>
