<?xml version="1.0" encoding="UTF-8" standalone="no"?>
<!DOCTYPE svg PUBLIC "-//W3C//DTD SVG 1.1//EN" "http://www.w3.org/Graphics/SVG/1.1/DTD/svg11.dtd">
<!-- 由 Microsoft Visio, SVG Export 產生 y36.0482-h.svg 頁-1 -->
<svg xmlns="http://www.w3.org/2000/svg" xmlns:xlink="http://www.w3.org/1999/xlink" xmlns:ev="http://www.w3.org/2001/xml-events"
		width="7.10434in" height="5.29386in" viewBox="0 0 511.512 381.158" xml:space="preserve" color-interpolation-filters="sRGB"
		class="st5">
	<style type="text/css">
	<![CDATA[
		.st1 {fill:none;stroke:none;stroke-linecap:round;stroke-linejoin:round;stroke-width:0.75}
		.st2 {fill:#000000;font-family:新細明體;font-size:1.33333em}
		.st3 {stroke:#000000;stroke-dasharray:0,5;stroke-linecap:round;stroke-linejoin:round;stroke-width:1}
		.st4 {stroke:#000000;stroke-linecap:round;stroke-linejoin:round;stroke-width:1}
		.st5 {fill:none;fill-rule:evenodd;font-size:12px;overflow:visible;stroke-linecap:square;stroke-miterlimit:3}
	]]>
	</style>

	<g>
		<title>頁-1</title>
		<g id="group73-1" transform="translate(0.375,-0.375)">
			<title>工作表.73</title>
			<g id="shape5-2" transform="translate(2.48031,-269.732)">
				<title>工作表.5</title>
				<desc>有　貪</desc>
				<rect x="0" y="358.481" width="58.1431" height="22.6772" class="st1"/>
				<text x="5.07" y="374.62" class="st2">有　貪</text>			</g>
			<g id="shape6-5" transform="translate(0,-227.583)">
				<title>工作表.6</title>
				<desc>瞋　恚</desc>
				<rect x="0" y="358.481" width="63.1038" height="22.6772" class="st1"/>
				<text x="7.55" y="374.62" class="st2">瞋　恚</text>			</g>
			<g id="shape7-8" transform="translate(1.38247,-199.306)">
				<title>工作表.7</title>
				<desc>慢</desc>
				<rect x="0" y="358.481" width="27.466" height="22.6772" class="st1"/>
				<text x="5.73" y="374.62" class="st2">慢</text>			</g>
			<g id="shape8-11" transform="translate(2.41172,-170.519)">
				<title>工作表.8</title>
				<desc>無　明</desc>
				<rect x="0" y="358.481" width="57.4345" height="22.6772" class="st1"/>
				<text x="4.72" y="374.62" class="st2">無　明</text>			</g>
			<g id="shape9-14" transform="translate(1.7368,-86.2741)">
				<title>工作表.9</title>
				<desc>見</desc>
				<rect x="0" y="358.481" width="26.7574" height="22.6772" class="st1"/>
				<text x="5.38" y="374.62" class="st2">見</text>			</g>
			<g id="shape10-17" transform="translate(3.07419,5.68434E-14)">
				<title>工作表.10</title>
				<desc>疑</desc>
				<rect x="0" y="358.481" width="27.466" height="22.6772" class="st1"/>
				<text x="5.73" y="374.62" class="st2">疑</text>			</g>
			<g id="shape11-20" transform="translate(3.20543,-312.251)">
				<title>工作表.11</title>
				<desc>欲　貪</desc>
				<rect x="0" y="358.481" width="56.6929" height="22.6772" class="st1"/>
				<text x="4.35" y="374.62" class="st2">欲　貪</text>			</g>
			<g id="shape12-23" transform="translate(199.488,-283.905)">
				<title>工作表.12</title>
				<desc>色　貪</desc>
				<rect x="0" y="358.481" width="60.9778" height="22.6772" class="st1"/>
				<text x="6.49" y="374.62" class="st2">色　貪</text>			</g>
			<g id="shape13-26" transform="translate(433.586,-283.819)">
				<title>工作表.13</title>
				<desc>貪</desc>
				<rect x="0" y="358.481" width="28.1747" height="22.6772" class="st1"/>
				<text x="6.09" y="374.62" class="st2">貪</text>			</g>
			<g id="shape14-29" transform="translate(200.906,-254.833)">
				<title>工作表.14</title>
				<desc>無色貪</desc>
				<rect x="0" y="358.481" width="58.1431" height="22.6772" class="st1"/>
				<text x="5.07" y="374.62" class="st2">無色貪</text>			</g>
			<g id="shape15-32" transform="translate(201.64,-142.189)">
				<title>工作表.15</title>
				<desc>身　見</desc>
				<rect x="0" y="358.481" width="56.7258" height="22.6772" class="st1"/>
				<text x="4.36" y="374.62" class="st2">身　見</text>			</g>
			<g id="shape16-35" transform="translate(195.945,-85.496)">
				<title>工作表.16</title>
				<desc>邪　見</desc>
				<rect x="0" y="358.481" width="68.0644" height="22.6772" class="st1"/>
				<text x="10.03" y="374.62" class="st2">邪　見</text>			</g>
			<g id="shape17-38" transform="translate(199.168,-57.1496)">
				<title>工作表.17</title>
				<desc>見　取</desc>
				<rect x="0" y="358.481" width="62.3951" height="22.6772" class="st1"/>
				<text x="7.2" y="374.62" class="st2">見　取</text>			</g>
			<g id="shape18-41" transform="translate(198.425,-28.7867)">
				<title>工作表.18</title>
				<desc>戒禁取</desc>
				<rect x="0" y="358.481" width="63.1038" height="22.6772" class="st1"/>
				<text x="7.55" y="374.62" class="st2">戒禁取</text>			</g>
			<g id="shape4-44" transform="translate(201.916,-312.251)">
				<title>工作表.4</title>
				<desc>欲　貪</desc>
				<rect x="0" y="358.481" width="56.6929" height="22.6772" class="st1"/>
				<text x="4.35" y="374.62" class="st2">欲　貪</text>			</g>
			<g id="shape19-47" transform="translate(431.152,-227.583)">
				<title>工作表.19</title>
				<desc>瞋　恚</desc>
				<rect x="0" y="358.481" width="63.1038" height="22.6772" class="st1"/>
				<text x="7.55" y="374.62" class="st2">瞋　恚</text>			</g>
			<g id="shape20-50" transform="translate(198.425,-227.583)">
				<title>工作表.20</title>
				<desc>瞋　恚</desc>
				<rect x="0" y="358.481" width="63.1038" height="22.6772" class="st1"/>
				<text x="7.55" y="374.62" class="st2">瞋　恚</text>			</g>
			<g id="shape21-53" transform="translate(433.278,-170.89)">
				<title>工作表.21</title>
				<desc>無　明</desc>
				<rect x="0" y="358.481" width="57.4345" height="22.6772" class="st1"/>
				<text x="4.72" y="374.62" class="st2">無　明</text>			</g>
			<g id="shape22-56" transform="translate(201.683,-172.983)">
				<title>工作表.22</title>
				<desc>無　明</desc>
				<rect x="0" y="358.481" width="57.4345" height="22.6772" class="st1"/>
				<text x="4.72" y="374.62" class="st2">無　明</text>			</g>
			<g id="shape23-59" transform="translate(199.808,-198.865)">
				<title>工作表.23</title>
				<desc>慢</desc>
				<rect x="0" y="358.481" width="27.466" height="22.6772" class="st1"/>
				<text x="5.73" y="374.62" class="st2">慢</text>			</g>
			<g id="shape24-62" transform="translate(432.249,-199.306)">
				<title>工作表.24</title>
				<desc>慢</desc>
				<rect x="0" y="358.481" width="27.466" height="22.6772" class="st1"/>
				<text x="5.73" y="374.62" class="st2">慢</text>			</g>
			<g id="shape25-65" transform="translate(434.03,-142.189)">
				<title>工作表.25</title>
				<desc>身　見</desc>
				<rect x="0" y="358.481" width="56.7258" height="22.6772" class="st1"/>
				<text x="4.36" y="374.62" class="st2">身　見</text>			</g>
			<g id="shape26-68" transform="translate(198.848,-113.455)">
				<title>工作表.26</title>
				<desc>邊　見</desc>
				<rect x="0" y="358.481" width="63.1038" height="22.6772" class="st1"/>
				<text x="7.55" y="374.62" class="st2">邊　見</text>			</g>
			<g id="shape27-71" transform="translate(430.866,-113.826)">
				<title>工作表.27</title>
				<desc>邊　見</desc>
				<rect x="0" y="358.481" width="63.1038" height="22.6772" class="st1"/>
				<text x="7.55" y="374.62" class="st2">邊　見</text>			</g>
			<g id="shape28-74" transform="translate(428.386,-85.4796)">
				<title>工作表.28</title>
				<desc>邪　見</desc>
				<rect x="0" y="358.481" width="68.0644" height="22.6772" class="st1"/>
				<text x="10.03" y="374.62" class="st2">邪　見</text>			</g>
			<g id="shape29-77" transform="translate(431.152,-57.1496)">
				<title>工作表.29</title>
				<desc>見　取</desc>
				<rect x="0" y="358.481" width="62.3951" height="22.6772" class="st1"/>
				<text x="7.2" y="374.62" class="st2">見　取</text>			</g>
			<g id="shape30-80" transform="translate(430.866,-29.1575)">
				<title>工作表.30</title>
				<desc>戒禁取</desc>
				<rect x="0" y="358.481" width="63.1038" height="22.6772" class="st1"/>
				<text x="7.55" y="374.62" class="st2">戒禁取</text>			</g>
			<g id="shape31-83" transform="translate(433.94,-0.880443)">
				<title>工作表.31</title>
				<desc>疑</desc>
				<rect x="0" y="358.481" width="27.466" height="22.6772" class="st1"/>
				<text x="5.73" y="374.62" class="st2">疑</text>			</g>
			<g id="shape32-86" transform="translate(201.499,-0.880443)">
				<title>工作表.32</title>
				<desc>疑</desc>
				<rect x="0" y="358.481" width="27.466" height="22.6772" class="st1"/>
				<text x="5.73" y="374.62" class="st2">疑</text>			</g>
			<g id="shape33-89" transform="translate(25.8826,-96.8182)">
				<title>工作表.33</title>
				<path d="M0 381.16 L176.07 381.16" class="st3"/>
			</g>
			<g id="shape34-92" transform="translate(25.5626,-11.7788)">
				<title>工作表.34</title>
				<path d="M0 381.16 L176.07 381.16" class="st3"/>
			</g>
			<g id="shape35-95" transform="translate(54.2291,-181.89)">
				<title>工作表.35</title>
				<path d="M0 381.16 L147.67 381.16" class="st3"/>
			</g>
			<g id="shape36-98" transform="translate(25.5626,-210.575)">
				<title>工作表.36</title>
				<path d="M0 381.16 L176.07 381.16" class="st3"/>
			</g>
			<g id="shape37-101" transform="translate(57.0637,-238.55)">
				<title>工作表.37</title>
				<path d="M0 381.16 L147.67 381.16" class="st3"/>
			</g>
			<g id="shape38-104" transform="translate(59.8983,-281.07)">
				<title>工作表.38</title>
				<path d="M0 381.16 L90.71 381.16" class="st3"/>
			</g>
			<g id="shape39-107" transform="translate(57.0637,-323.59)">
				<title>工作表.39</title>
				<path d="M0 381.16 L147.67 381.16" class="st3"/>
			</g>
			<g id="shape40-110" transform="translate(243.051,-269.69) rotate(14.0362)">
				<title>工作表.40</title>
				<path d="M0 381.16 L58.44 381.16" class="st3"/>
			</g>
			<g id="shape41-113" transform="translate(53.6049,-268.52) rotate(-14.7436)">
				<title>工作表.41</title>
				<path d="M0 381.16 L55.69 381.16" class="st3"/>
			</g>
			<g id="shape42-116" transform="translate(-26.9159,-52.9539) rotate(-27.7585)">
				<title>工作表.42</title>
				<path d="M0 381.16 L60.86 381.16" class="st3"/>
			</g>
			<g id="shape43-119" transform="translate(328.13,-52.9539) rotate(27.7585)">
				<title>工作表.43</title>
				<path d="M0 381.16 L60.86 381.16" class="st3"/>
			</g>
			<g id="shape44-122" transform="translate(-125.926,22.4714) rotate(-46.6964)">
				<title>工作表.44</title>
				<path d="M0 381.16 L77.29 381.16" class="st3"/>
			</g>
			<g id="shape45-125" transform="translate(426.946,21.8174) rotate(46.4688)">
				<title>工作表.45</title>
				<path d="M0 381.16 L78.2 381.16" class="st3"/>
			</g>
			<g id="shape46-128" transform="translate(227.142,-11.7788)">
				<title>工作表.46</title>
				<path d="M0 381.16 L206.93 381.16" class="st3"/>
			</g>
			<g id="shape47-131" transform="translate(257.866,-40.1253)">
				<title>工作表.47</title>
				<path d="M0 381.16 L176.07 381.16" class="st3"/>
			</g>
			<g id="shape48-134" transform="translate(259.455,-68.4717)">
				<title>工作表.48</title>
				<path d="M0 381.16 L176.07 381.16" class="st3"/>
			</g>
			<g id="shape49-137" transform="translate(258.324,-96.8182)">
				<title>工作表.49</title>
				<path d="M0 381.16 L176.07 381.16" class="st3"/>
			</g>
			<g id="shape50-140" transform="translate(259.101,-125.165)">
				<title>工作表.50</title>
				<path d="M0 381.16 L176.07 381.16" class="st3"/>
			</g>
			<g id="shape51-143" transform="translate(259.169,-153.511)">
				<title>工作表.51</title>
				<path d="M0 381.16 L176.07 381.16" class="st3"/>
			</g>
			<g id="shape52-146" transform="translate(259.169,-181.858)">
				<title>工作表.52</title>
				<path d="M0 381.16 L176.07 381.16" class="st3"/>
			</g>
			<g id="shape53-149" transform="translate(222.978,-210.202) rotate(-0.199855)">
				<title>工作表.53</title>
				<path d="M0 381.16 L212.6 381.16" class="st3"/>
			</g>
			<g id="shape54-152" transform="translate(259.455,-238.55)">
				<title>工作表.54</title>
				<path d="M0 381.16 L176.07 381.16" class="st3"/>
			</g>
			<g id="shape55-155" transform="translate(191.54,-257.968) rotate(-10.0422)">
				<title>工作表.55</title>
				<path d="M0 381.16 L180.28 381.16" class="st3"/>
			</g>
			<g id="shape56-158" transform="translate(259.455,-295.243)">
				<title>工作表.56</title>
				<path d="M0 381.16 L176.07 381.16" class="st3"/>
			</g>
			<g id="shape57-161" transform="translate(321.006,-318.645) rotate(9.23913)">
				<title>工作表.57</title>
				<path d="M0 381.16 L176.55 381.16" class="st3"/>
			</g>
			<g id="shape69-164" transform="translate(-281.574,29.2215) rotate(-90)">
				<title>工作表.69</title>
				<path d="M0 381.16 L28.35 381.16" class="st4"/>
			</g>
			<g id="shape70-167" transform="translate(-372.283,29.2215) rotate(-90)">
				<title>工作表.70</title>
				<path d="M0 381.16 L28.35 381.16" class="st4"/>
			</g>
			<g id="shape71-170" transform="translate(8.87472,-351.936)">
				<title>工作表.71</title>
				<path d="M0 381.16 L90.71 381.16" class="st4"/>
			</g>
			<g id="shape72-173" transform="translate(8.87472,-380.283)">
				<title>工作表.72</title>
				<path d="M0 381.16 L90.71 381.16" class="st4"/>
			</g>
			<g id="shape2-176" transform="translate(214.073,-354.771)">
				<title>工作表.2</title>
				<desc>十二隨眠</desc>
				<rect x="0" y="358.481" width="77.7337" height="22.6772" class="st1"/>
				<text x="0.25em 1.369em 2.489em 3.608em" y="374.62" class="st2">十二隨眠</text>			</g>
			<g id="shape64-179" transform="translate(-83.1492,29.2215) rotate(-90)">
				<title>工作表.64</title>
				<path d="M0 381.16 L28.35 381.16" class="st4"/>
			</g>
			<g id="shape65-182" transform="translate(-173.858,29.2215) rotate(-90)">
				<title>工作表.65</title>
				<path d="M0 381.16 L28.35 381.16" class="st4"/>
			</g>
			<g id="shape66-185" transform="translate(207.3,-351.936)">
				<title>工作表.66</title>
				<path d="M0 381.16 L90.71 381.16" class="st4"/>
			</g>
			<g id="shape67-188" transform="translate(207.3,-380.283)">
				<title>工作表.67</title>
				<path d="M0 381.16 L90.71 381.16" class="st4"/>
			</g>
			<g id="shape58-191" transform="translate(129.449,29.2215) rotate(-90)">
				<title>工作表.58</title>
				<path d="M0 381.16 L28.35 381.16" class="st4"/>
			</g>
			<g id="shape59-194" transform="translate(38.7406,29.2215) rotate(-90)">
				<title>工作表.59</title>
				<path d="M0 381.16 L28.35 381.16" class="st4"/>
			</g>
			<g id="shape60-197" transform="translate(419.898,-351.936)">
				<title>工作表.60</title>
				<path d="M0 381.16 L90.71 381.16" class="st4"/>
			</g>
			<g id="shape1-200" transform="translate(7.92846,-355.717)">
				<title>工作表.1</title>
				<desc>七隨眠</desc>
				<rect x="0" y="358.481" width="92.6012" height="22.6772" class="st1"/>
				<text x="0.25em 2.394em 4.538em" y="374.62" class="st2">七隨眠</text>			</g>
			<g id="shape3-203" transform="translate(419.743,-354.926)">
				<title>工作表.3</title>
				<desc>十隨眠</desc>
				<rect x="0" y="358.481" width="91.0193" height="22.6772" class="st1"/>
				<text x="0.25em 2.344em 4.439em" y="374.62" class="st2">十隨眠</text>			</g>
			<g id="shape61-206" transform="translate(419.898,-380.283)">
				<title>工作表.61</title>
				<path d="M0 381.16 L90.71 381.16" class="st4"/>
			</g>
		</g>
	</g>
</svg>
