<?xml version="1.0" encoding="UTF-8" standalone="no"?>
<!DOCTYPE svg PUBLIC "-//W3C//DTD SVG 1.1//EN" "http://www.w3.org/Graphics/SVG/1.1/DTD/svg11.dtd">
<!-- 由 Microsoft Visio, SVG Export 產生 y10.0063-v.svg 頁-1 -->
<svg xmlns="http://www.w3.org/2000/svg" xmlns:xlink="http://www.w3.org/1999/xlink" xmlns:ev="http://www.w3.org/2001/xml-events"
		width="7.01454in" height="4.12926in" viewBox="0 0 505.047 297.307" xml:space="preserve" color-interpolation-filters="sRGB"
		class="st7">
	<title>y10.0063</title>

	<style type="text/css">
	<![CDATA[
		.st1 {stroke:#000000;stroke-linecap:round;stroke-linejoin:round;stroke-width:0.72}
		.st2 {stroke:#000000;stroke-dasharray:5.04,3.6;stroke-linecap:round;stroke-linejoin:round;stroke-width:0.72}
		.st3 {stroke:#000000;stroke-dasharray:10.8,6.48;stroke-linecap:round;stroke-linejoin:round;stroke-width:0.72}
		.st4 {fill:none;stroke:none;stroke-linecap:round;stroke-linejoin:round;stroke-width:0.72}
		.st5 {fill:#000000;font-family:新細明體;font-size:1.33333em}
		.st6 {fill:#e8eef7;stroke:#000000;stroke-linecap:round;stroke-linejoin:round;stroke-width:0.24}
		.st7 {fill:none;fill-rule:evenodd;font-size:12px;overflow:visible;stroke-linecap:square;stroke-miterlimit:3}
	]]>
	</style>

	<g>
		<title>頁-1</title>
		<g id="group53-1" transform="translate(0.12,-0.36)">
			<title>工作表.53</title>
			<g id="shape45-2" transform="translate(315.515,-19.4267) rotate(26.2)">
				<title>工作表.45</title>
				<path d="M3.09 192.1 L1.58 193.75 A2.1326 2.1326 -180 0 0 1.58 196.63 L1.58 196.63 A2.1326 2.1326 0 0 1 1.58 199.51
							 L1.44 199.67 A2.36109 2.36109 -180 0 0 1.44 202.86 L1.44 202.86 A2.36109 2.36109 0 0 1 1.44 206.05 L1.44
							 206.05 A2.36109 2.36109 -180 0 0 1.44 209.25 L1.77 209.61 A1.98027 1.98027 0 0 1 1.77 212.28 L1.77 212.28
							 A1.98027 1.98027 -180 0 0 1.77 214.96 L1.77 214.96 A2.26967 2.26967 0 0 1 1.86 217.92 L1.49 218.38 A2.26967
							 2.26967 -180 0 0 1.58 221.35 L1.58 221.35 A2.1326 2.1326 0 0 1 1.58 224.23 L1.39 224.44 A2.28492 2.28492
							 -180 0 0 1.39 227.52 L1.53 227.68 A2.05643 2.05643 0 0 1 1.53 230.46 L1.53 230.46 A2.05643 2.05643 -180
							 0 0 1.53 233.24 L1.58 233.29 A2.43725 2.43725 0 0 1 1.58 236.59 L1.44 236.74 A2.20876 2.20876 -180 0
							 0 1.44 239.73 L1.44 239.73 A2.20876 2.20876 0 0 1 1.44 242.71 L1.44 242.71 A2.36109 2.36109 -180 0 0
							 1.44 245.91 L1.53 246.01 A2.36109 2.36109 0 0 1 1.53 249.2 L1.39 249.36 A2.1326 2.1326 -180 0 0 1.39
							 252.24 L1.39 252.24 A2.1326 2.1326 0 0 1 1.39 255.12 L1.39 255.12 A2.28492 2.28492 -180 0 0 1.39 258.21
							 L1.53 258.37 A2.36109 2.36109 0 0 1 1.53 261.56 L1.53 261.56 A2.36109 2.36109 -180 0 0 1.53 264.75 L1.62
							 264.86 A2.20876 2.20876 0 0 1 1.62 267.84 L1.62 267.84 A2.20876 2.20876 -180 0 0 1.62 270.83 L1.62 270.83
							 A2.36109 2.36109 0 0 1 1.62 274.02 L1.48 274.18 A2.1326 2.1326 -180 0 0 1.48 277.06 L1.48 277.06 A2.1326
							 2.1326 0 0 1 1.48 279.94 L1.39 280.05 A2.43725 2.43725 -180 0 0 1.39 283.34 L1.62 283.6 A2.05643 2.05643
							 0 0 1 1.62 286.38 L1.62 286.38 A2.05643 2.05643 -180 0 0 1.62 289.16 L1.67 289.21 A2.43725 2.43725 0
							 0 1 1.67 292.51 L1.23 292.99 A4.38001 4.38001 -180 0 0 0.08 295.73 L0 297.31" class="st1"/>
			</g>
			<g id="shape47-5" transform="translate(495.547,283.795) rotate(116.546)">
				<title>工作表.47</title>
				<path d="M0 297.31 L101.43 297.31" class="st2"/>
			</g>
			<g id="shape46-8" transform="translate(506.921,275.297) rotate(116.54)">
				<title>工作表.46</title>
				<path d="M0 297.31 L126.88 297.31" class="st1"/>
			</g>
			<g id="shape44-11" transform="translate(56.1234,-15.2308) rotate(-24)">
				<title>工作表.44</title>
				<path d="M3.21 175.81 L1.7 177.72 A2.68333 2.68333 -180 0 0 1.7 181.05 L1.7 181.05 A2.68333 2.68333 0 0 1 1.7 184.39
							 L1.56 184.56 A2.97083 2.97083 -180 0 0 1.56 188.26 L1.56 188.26 A2.97083 2.97083 0 0 1 1.56 191.95 L1.56
							 191.95 A2.97083 2.97083 -180 0 0 1.56 195.64 L1.89 196.06 A2.49167 2.49167 0 0 1 1.89 199.16 L1.89 199.16
							 A2.49167 2.49167 -180 0 0 1.89 202.25 L1.89 202.25 A2.85503 2.85503 0 0 1 1.99 205.66 L1.6 206.23 A2.85503
							 2.85503 -180 0 0 1.7 209.64 L1.7 209.64 A2.68333 2.68333 0 0 1 1.7 212.97 L1.51 213.21 A2.875 2.875
							 -180 0 0 1.51 216.79 L1.65 216.96 A2.5875 2.5875 0 0 1 1.65 220.18 L1.65 220.18 A2.5875 2.5875 -180
							 0 0 1.65 223.4 L1.7 223.46 A3.06667 3.06667 0 0 1 1.7 227.27 L1.56 227.45 A2.77917 2.77917 -180 0 0
							 1.56 230.9 L1.56 230.9 A2.77917 2.77917 0 0 1 1.56 234.35 L1.56 234.35 A2.97083 2.97083 -180 0 0 1.56
							 238.05 L1.65 238.17 A2.97083 2.97083 0 0 1 1.65 241.86 L1.51 242.04 A2.68333 2.68333 -180 0 0 1.51 245.37
							 L1.51 245.37 A2.68333 2.68333 0 0 1 1.51 248.71 L1.51 248.71 A2.875 2.875 -180 0 0 1.51 252.28 L1.65
							 252.46 A2.97083 2.97083 0 0 1 1.65 256.15 L1.65 256.15 A2.97083 2.97083 -180 0 0 1.65 259.85 L1.75 259.96
							 A2.77917 2.77917 0 0 1 1.75 263.42 L1.75 263.42 A2.77917 2.77917 -180 0 0 1.75 266.87 L1.75 266.87 A2.97083
							 2.97083 0 0 1 1.75 270.57 L1.61 270.74 A2.68333 2.68333 -180 0 0 1.61 274.08 L1.61 274.08 A2.68333 2.68333
							 0 0 1 1.61 277.41 L1.51 277.53 A3.06667 3.06667 -180 0 0 1.51 281.35 L1.75 281.64 A2.5875 2.5875 0 0
							 1 1.75 284.86 L1.75 284.86 A2.5875 2.5875 -180 0 0 1.75 288.08 L1.8 288.13 A3.06667 3.06667 0 0 1 1.8
							 291.95 L1.69 292.08 A2.7608 2.7608 -180 0 0 1.75 295.58 L3.21 297.31" class="st1"/>
			</g>
			<g id="shape43-14" transform="translate(180.673,-41.3465)">
				<title>工作表.43</title>
				<path d="M2.35 183.8 L0.84 185.53 A2.30907 2.30907 -180 0 0 0.84 188.57 L0.84 188.57 A2.30907 2.30907 0 0 1 0.84
							 191.6 L0.7 191.76 A2.55647 2.55647 -180 0 0 0.7 195.12 L0.7 195.12 A2.55647 2.55647 0 0 1 0.7 198.48
							 L0.7 198.48 A2.55647 2.55647 -180 0 0 0.7 201.84 L1.03 202.22 A2.14413 2.14413 0 0 1 1.03 205.04 L1.03
							 205.04 A2.14413 2.14413 -180 0 0 1.03 207.86 L1.03 207.86 A2.45724 2.45724 0 0 1 1.12 210.97 L0.74 211.47
							 A2.45724 2.45724 -180 0 0 0.84 214.58 L0.84 214.58 A2.30907 2.30907 0 0 1 0.84 217.61 L0.65 217.83 A2.474
							 2.474 -180 0 0 0.65 221.08 L0.79 221.25 A2.2266 2.2266 0 0 1 0.79 224.17 L0.79 224.17 A2.2266 2.2266
							 -180 0 0 0.79 227.1 L0.84 227.15 A2.63893 2.63893 0 0 1 0.84 230.62 L0.7 230.78 A2.39153 2.39153 -180
							 0 0 0.7 233.93 L0.7 233.93 A2.39153 2.39153 0 0 1 0.7 237.07 L0.7 237.07 A2.55647 2.55647 -180 0 0 0.7
							 240.43 L0.79 240.54 A2.55647 2.55647 0 0 1 0.79 243.9 L0.65 244.06 A2.30907 2.30907 -180 0 0 0.65 247.09
							 L0.65 247.09 A2.30907 2.30907 0 0 1 0.65 250.13 L0.65 250.13 A2.474 2.474 -180 0 0 0.65 253.38 L0.79
							 253.54 A2.55647 2.55647 0 0 1 0.79 256.9 L0.79 256.9 A2.55647 2.55647 -180 0 0 0.79 260.26 L0.89 260.37
							 A2.39153 2.39153 0 0 1 0.89 263.51 L0.89 263.51 A2.39153 2.39153 -180 0 0 0.89 266.66 L0.89 266.66 A2.55647
							 2.55647 0 0 1 0.89 270.02 L0.74 270.18 A2.30907 2.30907 -180 0 0 0.74 273.22 L0.74 273.22 A2.30907 2.30907
							 0 0 1 0.74 276.25 L0.65 276.36 A2.63893 2.63893 -180 0 0 0.65 279.83 L0.89 280.1 A2.2266 2.2266 0 0
							 1 0.89 283.02 L0.89 283.02 A2.2266 2.2266 -180 0 0 0.89 285.95 L0.93 286 A2.63893 2.63893 0 0 1 0.93
							 289.47 L0.83 289.59 A2.38316 2.38316 -180 0 0 0.89 292.78 L1.2 293.12 A2.33721 2.33721 0 0 1 1.55 295.83
							 L0.74 297.31" class="st1"/>
			</g>
			<g id="shape42-17" transform="translate(481.559,142.452) rotate(90)">
				<title>工作表.42</title>
				<path d="M0 297.31 L113.51 297.31" class="st1"/>
			</g>
			<g id="shape41-20" transform="translate(-4.99237,-11.0019) rotate(-25.8)">
				<title>工作表.41</title>
				<path d="M3.21 175.59 L1.7 177.5 A2.69114 2.69114 -180 0 0 1.7 180.84 L1.7 180.84 A2.69114 2.69114 0 0 1 1.7 184.18
							 L1.56 184.36 A2.97948 2.97948 -180 0 0 1.56 188.06 L1.56 188.06 A2.97948 2.97948 0 0 1 1.56 191.76 L1.56
							 191.76 A2.97948 2.97948 -180 0 0 1.56 195.46 L1.89 195.88 A2.49892 2.49892 0 0 1 1.89 198.98 L1.89 198.98
							 A2.49892 2.49892 -180 0 0 1.89 202.08 L1.89 202.08 A2.86333 2.86333 0 0 1 1.99 205.5 L1.6 206.06 A2.86333
							 2.86333 -180 0 0 1.7 209.48 L1.7 209.48 A2.69114 2.69114 0 0 1 1.7 212.82 L1.51 213.06 A2.88337 2.88337
							 -180 0 0 1.51 216.64 L1.65 216.82 A2.59503 2.59503 0 0 1 1.65 220.04 L1.65 220.04 A2.59503 2.59503 -180
							 0 0 1.65 223.26 L1.7 223.32 A3.07559 3.07559 0 0 1 1.7 227.14 L1.56 227.32 A2.78726 2.78726 -180 0 0
							 1.56 230.78 L1.56 230.78 A2.78726 2.78726 0 0 1 1.56 234.24 L1.56 234.24 A2.97948 2.97948 -180 0 0 1.56
							 237.94 L1.65 238.06 A2.97948 2.97948 0 0 1 1.65 241.76 L1.51 241.94 A2.69114 2.69114 -180 0 0 1.51 245.28
							 L1.51 245.28 A2.69114 2.69114 0 0 1 1.51 248.62 L1.51 248.62 A2.88337 2.88337 -180 0 0 1.51 252.2 L1.65
							 252.38 A2.97948 2.97948 0 0 1 1.65 256.08 L1.65 256.08 A2.97948 2.97948 -180 0 0 1.65 259.78 L1.75 259.9
							 A2.78726 2.78726 0 0 1 1.75 263.36 L1.75 263.36 A2.78726 2.78726 -180 0 0 1.75 266.82 L1.75 266.82 A2.97948
							 2.97948 0 0 1 1.75 270.52 L1.61 270.7 A2.69114 2.69114 -180 0 0 1.61 274.04 L1.61 274.04 A2.69114 2.69114
							 0 0 1 1.61 277.38 L1.51 277.5 A3.07559 3.07559 -180 0 0 1.51 281.32 L1.75 281.61 A2.59503 2.59503 0
							 0 1 1.75 284.84 L1.75 284.84 A2.59503 2.59503 -180 0 0 1.75 288.06 L1.8 288.12 A3.07559 3.07559 0 0
							 1 1.8 291.94 L1.69 292.07 A2.76867 2.76867 -180 0 0 1.75 295.58 L3.21 297.31" class="st1"/>
			</g>
			<g id="shape39-23" transform="translate(290.821,19.306) rotate(63.5108)">
				<title>工作表.39</title>
				<path d="M0 297.31 L103.45 297.31" class="st2"/>
			</g>
			<g id="shape40-26" transform="translate(-63.8459,-17.4414) rotate(-26.2)">
				<title>工作表.40</title>
				<path d="M3.21 187.81 L1.7 189.53 A2.27452 2.27452 -180 0 0 1.7 192.54 L1.7 192.54 A2.27452 2.27452 0 0 1 1.7 195.54
							 L1.56 195.7 A2.51821 2.51821 -180 0 0 1.56 199.03 L1.56 199.03 A2.51821 2.51821 0 0 1 1.56 202.36 L1.56
							 202.36 A2.51821 2.51821 -180 0 0 1.56 205.69 L1.89 206.06 A2.11205 2.11205 0 0 1 1.89 208.85 L1.89 208.85
							 A2.11205 2.11205 -180 0 0 1.89 211.65 L1.89 211.65 A2.42052 2.42052 0 0 1 1.98 214.73 L1.61 215.22 A2.42052
							 2.42052 -180 0 0 1.7 218.3 L1.7 218.3 A2.27452 2.27452 0 0 1 1.7 221.31 L1.51 221.52 A2.43698 2.43698
							 -180 0 0 1.51 224.74 L1.65 224.9 A2.19328 2.19328 0 0 1 1.65 227.8 L1.65 227.8 A2.19328 2.19328 -180
							 0 0 1.65 230.7 L1.7 230.75 A2.59945 2.59945 0 0 1 1.7 234.19 L1.56 234.35 A2.35575 2.35575 -180 0 0
							 1.56 237.46 L1.56 237.46 A2.35575 2.35575 0 0 1 1.56 240.57 L1.56 240.57 A2.51821 2.51821 -180 0 0 1.56
							 243.9 L1.65 244.01 A2.51821 2.51821 0 0 1 1.65 247.34 L1.51 247.5 A2.27452 2.27452 -180 0 0 1.51 250.5
							 L1.51 250.5 A2.27452 2.27452 0 0 1 1.51 253.51 L1.51 253.51 A2.43698 2.43698 -180 0 0 1.51 256.73 L1.65
							 256.89 A2.51821 2.51821 0 0 1 1.65 260.22 L1.65 260.22 A2.51821 2.51821 -180 0 0 1.65 263.55 L1.75 263.65
							 A2.35575 2.35575 0 0 1 1.75 266.77 L1.75 266.77 A2.35575 2.35575 -180 0 0 1.75 269.88 L1.75 269.88 A2.51821
							 2.51821 0 0 1 1.75 273.21 L1.61 273.37 A2.27452 2.27452 -180 0 0 1.61 276.37 L1.61 276.37 A2.27452 2.27452
							 0 0 1 1.61 279.38 L1.51 279.49 A2.59945 2.59945 -180 0 0 1.51 282.92 L1.75 283.19 A2.19328 2.19328 0
							 0 1 1.75 286.09 L1.75 286.09 A2.19328 2.19328 -180 0 0 1.75 288.99 L1.8 289.04 A2.59945 2.59945 0 0
							 1 1.8 292.48 L1.7 292.59 A2.34826 2.34826 -180 0 0 1.75 295.75 L3.21 297.31" class="st1"/>
			</g>
			<g id="shape38-29" transform="translate(280.15,9.60713) rotate(63.4596)">
				<title>工作表.38</title>
				<path d="M0 297.31 L126.88 297.31" class="st1"/>
			</g>
			<g id="shape34-32" transform="translate(396.137,269.955) rotate(115.395)">
				<title>工作表.34</title>
				<path d="M0 297.31 L125.65 297.31" class="st2"/>
			</g>
			<g id="shape36-35" transform="translate(368.173,142.452) rotate(90)">
				<title>工作表.36</title>
				<path d="M0 297.31 L113.51 297.31" class="st1"/>
			</g>
			<g id="shape33-38" transform="translate(450.228,275.297) rotate(116.54)">
				<title>工作表.33</title>
				<path d="M0 297.31 L126.88 297.31" class="st2"/>
			</g>
			<g id="shape32-41" transform="translate(481.559,43.2397) rotate(90)">
				<title>工作表.32</title>
				<path d="M0 297.31 L99.21 297.31" class="st2"/>
			</g>
			<g id="shape31-44" transform="translate(424.866,43.2397) rotate(90)">
				<title>工作表.31</title>
				<path d="M0 297.31 L212.72 297.31" class="st1"/>
			</g>
			<g id="shape24-47" transform="translate(14.1732,-154.854)">
				<title>工作表.24</title>
				<path d="M0 297.31 L283.46 297.31" class="st3"/>
			</g>
			<g id="shape1-50" transform="translate(60.9449,-255.24)">
				<title>工作表.1</title>
				<desc>初念</desc>
				<rect x="0" y="255.96" width="19.8425" height="41.3465" class="st4"/>
				<text x="9.92" y="260.63" writing-mode="tb-rl" class="st5">初念</text>			</g>
			<g id="shape2-53" transform="translate(117.638,-255.24)">
				<title>工作表.2</title>
				<desc>次念</desc>
				<rect x="0" y="255.96" width="19.8425" height="41.3465" class="st4"/>
				<text x="9.92" y="260.63" writing-mode="tb-rl" class="st5">次念</text>			</g>
			<g id="shape3-56" transform="translate(174.331,-255.24)">
				<title>工作表.3</title>
				<desc>後念</desc>
				<rect x="0" y="255.96" width="19.8425" height="41.3465" class="st4"/>
				<text x="9.92" y="260.63" writing-mode="tb-rl" class="st5">後念</text>			</g>
			<g id="shape4-59" transform="translate(337.787,253.467) rotate(135)">
				<title>工作表.4</title>
				<path d="M0 297.31 L40.09 297.31" class="st1"/>
			</g>
			<g id="shape5-62" transform="translate(-111.015,281.814) rotate(-135)">
				<title>工作表.5</title>
				<path d="M0 297.31 L40.09 297.31" class="st1"/>
			</g>
			<g id="shape6-65" transform="translate(394.479,253.467) rotate(135)">
				<title>工作表.6</title>
				<path d="M0 297.31 L40.09 297.31" class="st1"/>
			</g>
			<g id="shape7-68" transform="translate(281.094,253.467) rotate(135)">
				<title>工作表.7</title>
				<path d="M0 297.31 L40.09 297.31" class="st1"/>
			</g>
			<g id="shape8-71" transform="translate(-54.322,281.814) rotate(-135)">
				<title>工作表.8</title>
				<path d="M0 297.31 L40.09 297.31" class="st1"/>
			</g>
			<g id="shape9-74" transform="translate(2.3709,281.814) rotate(-135)">
				<title>工作表.9</title>
				<path d="M0 297.31 L40.09 297.31" class="st1"/>
			</g>
			<g id="shape10-77" transform="translate(297.638,-244.146)">
				<title>工作表.10</title>
				<desc>剎那生滅</desc>
				<rect x="0" y="277.464" width="72.4567" height="19.8425" class="st4"/>
				<text x="4.23" y="292.37" class="st5">剎那生滅</text>			</g>
			<g id="shape11-80" transform="translate(70.8661,-254.067)">
				<title>工作表.11</title>
				<path d="M0 297.31 L226.77 297.31" class="st3"/>
			</g>
			<g id="shape12-83" transform="translate(297.638,-215.799)">
				<title>工作表.12</title>
				<desc>假名相續</desc>
				<rect x="0" y="277.464" width="72.4567" height="19.8425" class="st4"/>
				<text x="4.23" y="292.37" class="st5">假名相續</text>			</g>
			<g id="shape13-86" transform="translate(42.5197,-225.72)">
				<title>工作表.13</title>
				<path d="M0 297.31 L255.12 297.31" class="st3"/>
			</g>
			<g id="shape14-89" transform="translate(368.504,-254.067)">
				<title>工作表.14</title>
				<path d="M0 297.31 L7.09 297.31" class="st1"/>
			</g>
			<g id="shape15-92" transform="translate(368.504,-225.72)">
				<title>工作表.15</title>
				<path d="M0 297.31 L7.09 297.31" class="st1"/>
			</g>
			<g id="shape16-95" transform="translate(672.897,43.2397) rotate(90)">
				<title>工作表.16</title>
				<path d="M0 297.31 L28.35 297.31" class="st1"/>
			</g>
			<g id="shape17-98" transform="translate(375.591,-239.894)">
				<title>工作表.17</title>
				<path d="M0 297.31 L7.09 297.31" class="st1"/>
			</g>
			<g id="shape18-101" transform="translate(382.677,-229.972)">
				<title>工作表.18</title>
				<desc>作用現象界</desc>
				<rect x="0" y="277.464" width="121.89" height="19.8425" class="st4"/>
				<text x="4.95" y="292.37" class="st5">作用（現象界）</text>			</g>
			<g id="shape25-104" transform="translate(297.638,-144.933)">
				<title>工作表.25</title>
				<desc>法住法性</desc>
				<rect x="0" y="277.464" width="72.4567" height="19.8425" class="st4"/>
				<text x="4.23" y="292.37" class="st5">法住法性</text>			</g>
			<g id="shape26-107" transform="translate(297.638,-31.4252)">
				<title>工作表.26</title>
				<desc>性類差別</desc>
				<rect x="0" y="277.464" width="72.4567" height="19.8425" class="st4"/>
				<text x="4.23" y="292.37" class="st5">性類差別</text>			</g>
			<g id="shape27-110" transform="translate(60.9449,5.68434E-14)">
				<title>工作表.27</title>
				<desc>過去</desc>
				<rect x="0" y="255.96" width="19.8425" height="41.3465" class="st4"/>
				<text x="9.92" y="260.63" writing-mode="tb-rl" class="st5">過去</text>			</g>
			<g id="shape28-113" transform="translate(117.638,5.68434E-14)">
				<title>工作表.28</title>
				<desc>現在</desc>
				<rect x="0" y="255.96" width="19.8425" height="41.3465" class="st4"/>
				<text x="9.92" y="260.63" writing-mode="tb-rl" class="st5">現在</text>			</g>
			<g id="shape29-116" transform="translate(174.331,5.68434E-14)">
				<title>工作表.29</title>
				<desc>未來</desc>
				<rect x="0" y="255.96" width="19.8425" height="41.3465" class="st4"/>
				<text x="9.92" y="260.63" writing-mode="tb-rl" class="st5">未來</text>			</g>
			<g id="shape30-119" transform="translate(70.8661,-41.3465)">
				<title>工作表.30</title>
				<path d="M0 297.31 L226.77 297.31" class="st3"/>
			</g>
			<g id="shape35-122" transform="translate(67.6535,-169.028)">
				<title>工作表.35</title>
				<path d="M3.21 212.27 L1.7 213.6 A1.55661 1.55661 -180 0 0 1.7 215.94 L1.7 215.94 A1.55661 1.55661 0 0 1 1.7 218.27
							 L1.56 218.4 A1.72339 1.72339 -180 0 0 1.56 220.98 L1.56 220.98 A1.72339 1.72339 0 0 1 1.56 223.56 L1.56
							 223.56 A1.72339 1.72339 -180 0 0 1.56 226.15 L1.89 226.44 A1.44543 1.44543 0 0 1 1.89 228.61 L1.89 228.61
							 A1.44543 1.44543 -180 0 0 1.89 230.78 L1.89 230.78 A1.65734 1.65734 0 0 1 1.97 233.19 L1.63 233.53 A1.65734
							 1.65734 -180 0 0 1.7 235.94 L1.7 235.94 A1.55661 1.55661 0 0 1 1.7 238.28 L1.51 238.45 A1.6678 1.6678
							 -180 0 0 1.51 240.95 L1.65 241.07 A1.50102 1.50102 0 0 1 1.65 243.32 L1.65 243.32 A1.50102 1.50102 -180
							 0 0 1.65 245.57 L1.7 245.62 A1.77899 1.77899 0 0 1 1.7 248.28 L1.56 248.41 A1.61221 1.61221 -180 0 0
							 1.56 250.83 L1.56 250.83 A1.61221 1.61221 0 0 1 1.56 253.24 L1.56 253.24 A1.72339 1.72339 -180 0 0 1.56
							 255.83 L1.65 255.91 A1.72339 1.72339 0 0 1 1.65 258.5 L1.51 258.62 A1.55661 1.55661 -180 0 0 1.51 260.96
							 L1.51 260.96 A1.55661 1.55661 0 0 1 1.51 263.29 L1.51 263.29 A1.6678 1.6678 -180 0 0 1.51 265.79 L1.65
							 265.92 A1.72339 1.72339 0 0 1 1.65 268.5 L1.65 268.5 A1.72339 1.72339 -180 0 0 1.65 271.09 L1.75 271.17
							 A1.61221 1.61221 0 0 1 1.75 273.59 L1.75 273.59 A1.61221 1.61221 -180 0 0 1.75 276.01 L1.75 276.01 A1.72339
							 1.72339 0 0 1 1.75 278.59 L1.61 278.71 A1.55661 1.55661 -180 0 0 1.61 281.05 L1.61 281.05 A1.55661 1.55661
							 0 0 1 1.61 283.38 L1.51 283.47 A1.77899 1.77899 -180 0 0 1.51 286.13 L1.75 286.34 A1.50102 1.50102 0
							 0 1 1.75 288.59 L1.75 288.59 A1.50102 1.50102 -180 0 0 1.75 290.85 L1.8 290.89 A1.77899 1.77899 0 0
							 1 1.8 293.55 L1.71 293.63 A1.62082 1.62082 -180 0 0 1.75 296.1 L3.21 297.31" class="st1"/>
			</g>
			<g id="shape19-125" transform="translate(56.6929,-140.681)">
				<title>圓形</title>
				<path d="M0 283.13 A14.1732 14.1732 0 1 1 28.35 283.13 A14.1732 14.1732 0 0 1 -0 283.13 Z" class="st6"/>
			</g>
			<g id="shape20-127" transform="translate(0,-140.681)">
				<title>圓形.20</title>
				<path d="M0 283.13 A14.1732 14.1732 0 1 1 28.35 283.13 A14.1732 14.1732 0 0 1 -0 283.13 Z" class="st6"/>
			</g>
			<g id="shape21-129" transform="translate(113.386,-140.681)">
				<title>圓形.21</title>
				<path d="M0 283.13 A14.1732 14.1732 0 1 1 28.35 283.13 A14.1732 14.1732 0 0 1 -0 283.13 Z" class="st6"/>
			</g>
			<g id="shape22-131" transform="translate(170.079,-140.681)">
				<title>圓形.22</title>
				<path d="M0 283.13 A14.1732 14.1732 0 1 1 28.35 283.13 A14.1732 14.1732 0 0 1 -0 283.13 Z" class="st6"/>
			</g>
			<g id="shape23-133" transform="translate(226.772,-140.681)">
				<title>圓形.23</title>
				<path d="M0 283.13 A14.1732 14.1732 0 1 1 28.35 283.13 A14.1732 14.1732 0 0 1 -0 283.13 Z" class="st6"/>
			</g>
			<g id="shape37-135" transform="translate(370.883,156.074) rotate(89.9442)">
				<title>工作表.37</title>
				<path d="M0 297.31 L99.6 297.31" class="st2"/>
			</g>
			<g id="shape48-138" transform="translate(368.504,-154.854)">
				<title>工作表.48</title>
				<path d="M0 297.31 L7.09 297.31" class="st1"/>
			</g>
			<g id="shape49-141" transform="translate(368.504,-41.3465)">
				<title>工作表.49</title>
				<path d="M0 297.31 L7.09 297.31" class="st1"/>
			</g>
			<g id="shape50-144" transform="translate(672.897,142.452) rotate(90)">
				<title>工作表.50</title>
				<path d="M0 297.31 L113.51 297.31" class="st1"/>
			</g>
			<g id="shape51-147" transform="translate(375.591,-98.1614)">
				<title>工作表.51</title>
				<path d="M0 297.31 L7.09 297.31" class="st1"/>
			</g>
			<g id="shape52-150" transform="translate(382.677,-88.2402)">
				<title>工作表.52</title>
				<desc>法體本體界</desc>
				<rect x="0" y="277.464" width="121.89" height="19.8425" class="st4"/>
				<text x="4.95" y="292.37" class="st5">法體（本體界）</text>			</g>
		</g>
	</g>
</svg>
