<?xml version="1.0" encoding="UTF-8" standalone="no"?>
<!DOCTYPE svg PUBLIC "-//W3C//DTD SVG 1.0//EN" "http://www.w3.org/TR/2001/REC-SVG-20010904/DTD/svg10.dtd">
<!-- 由 Microsoft Visio 11.0, SVG Export, v1.0 產生 y10.0063-1.svg Page-1 -->
<svg xmlns="http://www.w3.org/2000/svg" xmlns:xlink="http://www.w3.org/1999/xlink" xmlns:ev="http://www.w3.org/2001/xml-events"
		xmlns:v="http://schemas.microsoft.com/visio/2003/SVGExtensions/" width="7.52121in" height="4.63926in"
		viewBox="0 0 541.527 334.027" xml:space="preserve" color-interpolation-filters="sRGB" class="st7">
	<title>y10.0063</title>
	<v:documentProperties v:langID="1028" v:metric="true" v:viewMarkup="false"/>

	<style type="text/css">
	<![CDATA[
		.st1 {stroke:#000000;stroke-linecap:round;stroke-linejoin:round;stroke-width:0.72}
		.st2 {stroke:#000000;stroke-dasharray:5.04,3.6;stroke-linecap:round;stroke-linejoin:round;stroke-width:0.72}
		.st3 {stroke:#000000;stroke-dasharray:10.8,6.48;stroke-linecap:round;stroke-linejoin:round;stroke-width:0.72}
		.st4 {fill:none;stroke:none;stroke-linecap:round;stroke-linejoin:round;stroke-width:0.72}
		.st5 {fill:#000000;font-family:新細明體;font-size:1.33333em}
		.st6 {fill:#e8eef7;stroke:#000000;stroke-linecap:round;stroke-linejoin:round;stroke-width:0.24}
		.st7 {fill:none;fill-rule:evenodd;font-size:12px;overflow:visible;stroke-linecap:square;stroke-miterlimit:3}
	]]>
	</style>

	<g v:mID="0" v:index="1" v:groupContext="foregroundPage">
		<title>Page-1</title>
		<v:pageProperties v:drawingScale="0.0393701" v:pageScale="0.0393701" v:drawingUnits="24" v:shadowOffsetX="8.50394"
				v:shadowOffsetY="-8.50394"/>
		<g id="shape45-1" v:mID="45" v:groupContext="shape" transform="translate(349.967,-34.374) rotate(26.2)">
			<title>工作表.45</title>
			<path d="M3.09 228.82 L1.58 230.47 A2.1326 2.1326 -180 0 0 1.58 233.35 L1.58 233.35 A2.1326 2.1326 0 0 1 1.58 236.23
						 L1.44 236.39 A2.36109 2.36109 -180 0 0 1.44 239.58 L1.44 239.58 A2.36109 2.36109 0 0 1 1.44 242.77 L1.44
						 242.77 A2.36109 2.36109 -180 0 0 1.44 245.97 L1.77 246.33 A1.98027 1.98027 0 0 1 1.77 249 L1.77 249 A1.98027
						 1.98027 -180 0 0 1.77 251.68 L1.77 251.68 A2.26967 2.26967 0 0 1 1.86 254.64 L1.49 255.1 A2.26967 2.26967
						 -180 0 0 1.58 258.07 L1.58 258.07 A2.1326 2.1326 0 0 1 1.58 260.95 L1.39 261.16 A2.28492 2.28492 -180 0
						 0 1.39 264.24 L1.53 264.4 A2.05643 2.05643 0 0 1 1.53 267.18 L1.53 267.18 A2.05643 2.05643 -180 0 0 1.53
						 269.96 L1.58 270.01 A2.43725 2.43725 0 0 1 1.58 273.31 L1.44 273.46 A2.20876 2.20876 -180 0 0 1.44 276.45
						 L1.44 276.45 A2.20876 2.20876 0 0 1 1.44 279.43 L1.44 279.43 A2.36109 2.36109 -180 0 0 1.44 282.63 L1.53
						 282.73 A2.36109 2.36109 0 0 1 1.53 285.92 L1.39 286.08 A2.1326 2.1326 -180 0 0 1.39 288.96 L1.39 288.96
						 A2.1326 2.1326 0 0 1 1.39 291.84 L1.39 291.84 A2.28492 2.28492 -180 0 0 1.39 294.93 L1.53 295.09 A2.36109
						 2.36109 0 0 1 1.53 298.28 L1.53 298.28 A2.36109 2.36109 -180 0 0 1.53 301.47 L1.62 301.58 A2.20876 2.20876
						 0 0 1 1.62 304.56 L1.62 304.56 A2.20876 2.20876 -180 0 0 1.62 307.55 L1.62 307.55 A2.36109 2.36109 0 0 1
						 1.62 310.74 L1.48 310.9 A2.1326 2.1326 -180 0 0 1.48 313.78 L1.48 313.78 A2.1326 2.1326 0 0 1 1.48 316.66
						 L1.39 316.77 A2.43725 2.43725 -180 0 0 1.39 320.06 L1.62 320.32 A2.05643 2.05643 0 0 1 1.62 323.1 L1.62
						 323.1 A2.05643 2.05643 -180 0 0 1.62 325.88 L1.67 325.93 A2.43725 2.43725 0 0 1 1.67 329.23 L1.23 329.71
						 A4.38001 4.38001 -180 0 0 0.08 332.45 L0 334.03" class="st1"/>
		</g>
		<g id="shape47-4" v:mID="47" v:groupContext="shape" transform="translate(546.636,318.205) rotate(116.546)">
			<title>工作表.47</title>
			<path d="M0 334.03 L101.43 334.03" class="st2"/>
		</g>
		<g id="shape46-7" v:mID="46" v:groupContext="shape" transform="translate(558.012,309.705) rotate(116.54)">
			<title>工作表.46</title>
			<path d="M0 334.03 L126.88 334.03" class="st1"/>
		</g>
		<g id="shape44-10" v:mID="44" v:groupContext="shape" transform="translate(59.428,-30.7762) rotate(-24)">
			<title>工作表.44</title>
			<path d="M3.21 212.53 L1.7 214.44 A2.68333 2.68333 -180 0 0 1.7 217.77 L1.7 217.77 A2.68333 2.68333 0 0 1 1.7 221.11
						 L1.56 221.28 A2.97083 2.97083 -180 0 0 1.56 224.98 L1.56 224.98 A2.97083 2.97083 0 0 1 1.56 228.67 L1.56
						 228.67 A2.97083 2.97083 -180 0 0 1.56 232.36 L1.89 232.78 A2.49167 2.49167 0 0 1 1.89 235.88 L1.89 235.88
						 A2.49167 2.49167 -180 0 0 1.89 238.97 L1.89 238.97 A2.85503 2.85503 0 0 1 1.99 242.38 L1.6 242.95 A2.85503
						 2.85503 -180 0 0 1.7 246.36 L1.7 246.36 A2.68333 2.68333 0 0 1 1.7 249.69 L1.51 249.93 A2.875 2.875 -180
						 0 0 1.51 253.51 L1.65 253.68 A2.5875 2.5875 0 0 1 1.65 256.9 L1.65 256.9 A2.5875 2.5875 -180 0 0 1.65 260.12
						 L1.7 260.18 A3.06667 3.06667 0 0 1 1.7 263.99 L1.56 264.17 A2.77917 2.77917 -180 0 0 1.56 267.62 L1.56 267.62
						 A2.77917 2.77917 0 0 1 1.56 271.07 L1.56 271.07 A2.97083 2.97083 -180 0 0 1.56 274.77 L1.65 274.89 A2.97083
						 2.97083 0 0 1 1.65 278.58 L1.51 278.76 A2.68333 2.68333 -180 0 0 1.51 282.09 L1.51 282.09 A2.68333 2.68333
						 0 0 1 1.51 285.43 L1.51 285.43 A2.875 2.875 -180 0 0 1.51 289 L1.65 289.18 A2.97083 2.97083 0 0 1 1.65 292.87
						 L1.65 292.87 A2.97083 2.97083 -180 0 0 1.65 296.57 L1.75 296.68 A2.77917 2.77917 0 0 1 1.75 300.14 L1.75
						 300.14 A2.77917 2.77917 -180 0 0 1.75 303.59 L1.75 303.59 A2.97083 2.97083 0 0 1 1.75 307.29 L1.61 307.46
						 A2.68333 2.68333 -180 0 0 1.61 310.8 L1.61 310.8 A2.68333 2.68333 0 0 1 1.61 314.13 L1.51 314.25 A3.06667
						 3.06667 -180 0 0 1.51 318.07 L1.75 318.36 A2.5875 2.5875 0 0 1 1.75 321.58 L1.75 321.58 A2.5875 2.5875 -180
						 0 0 1.75 324.8 L1.8 324.85 A3.06667 3.06667 0 0 1 1.8 328.67 L1.69 328.8 A2.7608 2.7608 -180 0 0 1.75 332.3
						 L3.21 334.03" class="st1"/>
		</g>
		<g id="shape43-13" v:mID="43" v:groupContext="shape" transform="translate(198.913,-60.0665)">
			<title>工作表.43</title>
			<path d="M2.35 220.52 L0.84 222.25 A2.30907 2.30907 -180 0 0 0.84 225.29 L0.84 225.29 A2.30907 2.30907 0 0 1 0.84 228.32
						 L0.7 228.48 A2.55647 2.55647 -180 0 0 0.7 231.84 L0.7 231.84 A2.55647 2.55647 0 0 1 0.7 235.2 L0.7 235.2
						 A2.55647 2.55647 -180 0 0 0.7 238.56 L1.03 238.94 A2.14413 2.14413 0 0 1 1.03 241.76 L1.03 241.76 A2.14413
						 2.14413 -180 0 0 1.03 244.58 L1.03 244.58 A2.45724 2.45724 0 0 1 1.12 247.69 L0.74 248.19 A2.45724 2.45724
						 -180 0 0 0.84 251.3 L0.84 251.3 A2.30907 2.30907 0 0 1 0.84 254.33 L0.65 254.55 A2.474 2.474 -180 0 0 0.65
						 257.8 L0.79 257.97 A2.2266 2.2266 0 0 1 0.79 260.89 L0.79 260.89 A2.2266 2.2266 -180 0 0 0.79 263.82 L0.84
						 263.87 A2.63893 2.63893 0 0 1 0.84 267.34 L0.7 267.5 A2.39153 2.39153 -180 0 0 0.7 270.65 L0.7 270.65 A2.39153
						 2.39153 0 0 1 0.7 273.79 L0.7 273.79 A2.55647 2.55647 -180 0 0 0.7 277.15 L0.79 277.26 A2.55647 2.55647
						 0 0 1 0.79 280.62 L0.65 280.78 A2.30907 2.30907 -180 0 0 0.65 283.81 L0.65 283.81 A2.30907 2.30907 0 0 1
						 0.65 286.85 L0.65 286.85 A2.474 2.474 -180 0 0 0.65 290.1 L0.79 290.26 A2.55647 2.55647 0 0 1 0.79 293.62
						 L0.79 293.62 A2.55647 2.55647 -180 0 0 0.79 296.98 L0.89 297.09 A2.39153 2.39153 0 0 1 0.89 300.23 L0.89
						 300.23 A2.39153 2.39153 -180 0 0 0.89 303.38 L0.89 303.38 A2.55647 2.55647 0 0 1 0.89 306.74 L0.74 306.9
						 A2.30907 2.30907 -180 0 0 0.74 309.94 L0.74 309.94 A2.30907 2.30907 0 0 1 0.74 312.97 L0.65 313.08 A2.63893
						 2.63893 -180 0 0 0.65 316.55 L0.89 316.82 A2.2266 2.2266 0 0 1 0.89 319.74 L0.89 319.74 A2.2266 2.2266 -180
						 0 0 0.89 322.67 L0.93 322.72 A2.63893 2.63893 0 0 1 0.93 326.19 L0.83 326.31 A2.38316 2.38316 -180 0 0 0.89
						 329.5 L1.2 329.84 A2.33721 2.33721 0 0 1 1.55 332.55 L0.74 334.03" class="st1"/>
		</g>
		<g id="shape42-16" v:mID="42" v:groupContext="shape" transform="translate(536.519,160.452) rotate(90)">
			<title>工作表.42</title>
			<path d="M0 334.03 L113.51 334.03" class="st1"/>
		</g>
		<g id="shape41-19" v:mID="41" v:groupContext="shape" transform="translate(-2.73405,-26.0616) rotate(-25.8)">
			<title>工作表.41</title>
			<path d="M3.21 212.31 L1.7 214.22 A2.69114 2.69114 -180 0 0 1.7 217.56 L1.7 217.56 A2.69114 2.69114 0 0 1 1.7 220.9 L1.56
						 221.08 A2.97948 2.97948 -180 0 0 1.56 224.78 L1.56 224.78 A2.97948 2.97948 0 0 1 1.56 228.48 L1.56 228.48
						 A2.97948 2.97948 -180 0 0 1.56 232.18 L1.89 232.6 A2.49892 2.49892 0 0 1 1.89 235.7 L1.89 235.7 A2.49892
						 2.49892 -180 0 0 1.89 238.8 L1.89 238.8 A2.86333 2.86333 0 0 1 1.99 242.22 L1.6 242.78 A2.86333 2.86333
						 -180 0 0 1.7 246.2 L1.7 246.2 A2.69114 2.69114 0 0 1 1.7 249.54 L1.51 249.78 A2.88337 2.88337 -180 0 0 1.51
						 253.36 L1.65 253.54 A2.59503 2.59503 0 0 1 1.65 256.76 L1.65 256.76 A2.59503 2.59503 -180 0 0 1.65 259.98
						 L1.7 260.04 A3.07559 3.07559 0 0 1 1.7 263.86 L1.56 264.04 A2.78726 2.78726 -180 0 0 1.56 267.5 L1.56 267.5
						 A2.78726 2.78726 0 0 1 1.56 270.96 L1.56 270.96 A2.97948 2.97948 -180 0 0 1.56 274.66 L1.65 274.78 A2.97948
						 2.97948 0 0 1 1.65 278.48 L1.51 278.66 A2.69114 2.69114 -180 0 0 1.51 282 L1.51 282 A2.69114 2.69114 0 0
						 1 1.51 285.34 L1.51 285.34 A2.88337 2.88337 -180 0 0 1.51 288.92 L1.65 289.1 A2.97948 2.97948 0 0 1 1.65
						 292.8 L1.65 292.8 A2.97948 2.97948 -180 0 0 1.65 296.5 L1.75 296.62 A2.78726 2.78726 0 0 1 1.75 300.08 L1.75
						 300.08 A2.78726 2.78726 -180 0 0 1.75 303.54 L1.75 303.54 A2.97948 2.97948 0 0 1 1.75 307.24 L1.61 307.42
						 A2.69114 2.69114 -180 0 0 1.61 310.76 L1.61 310.76 A2.69114 2.69114 0 0 1 1.61 314.1 L1.51 314.22 A3.07559
						 3.07559 -180 0 0 1.51 318.04 L1.75 318.33 A2.59503 2.59503 0 0 1 1.75 321.56 L1.75 321.56 A2.59503 2.59503
						 -180 0 0 1.75 324.78 L1.8 324.84 A3.07559 3.07559 0 0 1 1.8 328.66 L1.69 328.79 A2.76867 2.76867 -180 0
						 0 1.75 332.3 L3.21 334.03" class="st1"/>
		</g>
		<g id="shape39-22" v:mID="39" v:groupContext="shape" transform="translate(341.926,20.9277) rotate(63.5108)">
			<title>工作表.39</title>
			<path d="M0 334.03 L103.45 334.03" class="st2"/>
		</g>
		<g id="shape40-25" v:mID="40" v:groupContext="shape" transform="translate(-61.818,-32.3887) rotate(-26.2)">
			<title>工作表.40</title>
			<path d="M3.21 224.53 L1.7 226.25 A2.27452 2.27452 -180 0 0 1.7 229.26 L1.7 229.26 A2.27452 2.27452 0 0 1 1.7 232.26
						 L1.56 232.42 A2.51821 2.51821 -180 0 0 1.56 235.75 L1.56 235.75 A2.51821 2.51821 0 0 1 1.56 239.08 L1.56
						 239.08 A2.51821 2.51821 -180 0 0 1.56 242.41 L1.89 242.78 A2.11205 2.11205 0 0 1 1.89 245.57 L1.89 245.57
						 A2.11205 2.11205 -180 0 0 1.89 248.37 L1.89 248.37 A2.42052 2.42052 0 0 1 1.98 251.45 L1.61 251.94 A2.42052
						 2.42052 -180 0 0 1.7 255.02 L1.7 255.02 A2.27452 2.27452 0 0 1 1.7 258.03 L1.51 258.24 A2.43698 2.43698
						 -180 0 0 1.51 261.46 L1.65 261.62 A2.19328 2.19328 0 0 1 1.65 264.52 L1.65 264.52 A2.19328 2.19328 -180
						 0 0 1.65 267.42 L1.7 267.47 A2.59945 2.59945 0 0 1 1.7 270.91 L1.56 271.07 A2.35575 2.35575 -180 0 0 1.56
						 274.18 L1.56 274.18 A2.35575 2.35575 0 0 1 1.56 277.29 L1.56 277.29 A2.51821 2.51821 -180 0 0 1.56 280.62
						 L1.65 280.73 A2.51821 2.51821 0 0 1 1.65 284.06 L1.51 284.22 A2.27452 2.27452 -180 0 0 1.51 287.22 L1.51
						 287.22 A2.27452 2.27452 0 0 1 1.51 290.23 L1.51 290.23 A2.43698 2.43698 -180 0 0 1.51 293.45 L1.65 293.61
						 A2.51821 2.51821 0 0 1 1.65 296.94 L1.65 296.94 A2.51821 2.51821 -180 0 0 1.65 300.27 L1.75 300.37 A2.35575
						 2.35575 0 0 1 1.75 303.49 L1.75 303.49 A2.35575 2.35575 -180 0 0 1.75 306.6 L1.75 306.6 A2.51821 2.51821
						 0 0 1 1.75 309.93 L1.61 310.09 A2.27452 2.27452 -180 0 0 1.61 313.09 L1.61 313.09 A2.27452 2.27452 0 0 1
						 1.61 316.1 L1.51 316.21 A2.59945 2.59945 -180 0 0 1.51 319.64 L1.75 319.91 A2.19328 2.19328 0 0 1 1.75 322.81
						 L1.75 322.81 A2.19328 2.19328 -180 0 0 1.75 325.71 L1.8 325.76 A2.59945 2.59945 0 0 1 1.8 329.2 L1.7 329.31
						 A2.34826 2.34826 -180 0 0 1.75 332.47 L3.21 334.03" class="st1"/>
		</g>
		<g id="shape38-28" v:mID="38" v:groupContext="shape" transform="translate(331.24,11.1996) rotate(63.4596)">
			<title>工作表.38</title>
			<path d="M0 334.03 L126.88 334.03" class="st1"/>
		</g>
		<g id="shape34-31" v:mID="34" v:groupContext="shape" transform="translate(447.549,303.703) rotate(115.395)">
			<title>工作表.34</title>
			<path d="M0 334.03 L125.65 334.03" class="st2"/>
		</g>
		<g id="shape36-34" v:mID="36" v:groupContext="shape" transform="translate(423.133,160.452) rotate(90)">
			<title>工作表.36</title>
			<path d="M0 334.03 L113.51 334.03" class="st1"/>
		</g>
		<g id="shape33-37" v:mID="33" v:groupContext="shape" transform="translate(501.319,309.705) rotate(116.54)">
			<title>工作表.33</title>
			<path d="M0 334.03 L126.88 334.03" class="st2"/>
		</g>
		<g id="shape32-40" v:mID="32" v:groupContext="shape" transform="translate(536.519,61.2397) rotate(90)">
			<title>工作表.32</title>
			<path d="M0 334.03 L99.21 334.03" class="st2"/>
		</g>
		<g id="shape31-43" v:mID="31" v:groupContext="shape" transform="translate(479.826,61.2397) rotate(90)">
			<title>工作表.31</title>
			<path d="M0 334.03 L212.72 334.03" class="st1"/>
		</g>
		<g id="shape24-46" v:mID="24" v:groupContext="shape" transform="translate(32.4132,-173.574)">
			<title>工作表.24</title>
			<path d="M0 334.03 L283.46 334.03" class="st3"/>
		</g>
		<g id="shape1-49" v:mID="1" v:groupContext="shape" transform="translate(68.8227,-273.96)">
			<title>工作表.1</title>
			<desc>初念</desc>
			<v:textBlock v:margins="rect(4,4,4,4)" v:tabSpace="42.5197" v:verticalText="true"/>
			<v:textRect cx="20.2835" cy="313.353" width="40.57" height="41.3465"/>
			<rect x="0" y="292.68" width="40.5669" height="41.3465" class="st4"/>
			<text x="20.28" y="297.35" writing-mode="tb-rl" class="st5" v:langID="1028"><v:paragraph v:horizAlign="1"/><v:tabList/>初念</text>		</g>
		<g id="shape2-52" v:mID="2" v:groupContext="shape" transform="translate(125.516,-273.96)">
			<title>工作表.2</title>
			<desc>次念</desc>
			<v:textBlock v:margins="rect(4,4,4,4)" v:tabSpace="42.5197" v:verticalText="true"/>
			<v:textRect cx="20.2835" cy="313.353" width="40.57" height="41.3465"/>
			<rect x="0" y="292.68" width="40.5669" height="41.3465" class="st4"/>
			<text x="20.28" y="297.35" writing-mode="tb-rl" class="st5" v:langID="1028"><v:paragraph v:horizAlign="1"/><v:tabList/>次念</text>		</g>
		<g id="shape3-55" v:mID="3" v:groupContext="shape" transform="translate(182.209,-273.96)">
			<title>工作表.3</title>
			<desc>後念</desc>
			<v:textBlock v:margins="rect(4,4,4,4)" v:tabSpace="42.5197" v:verticalText="true"/>
			<v:textRect cx="20.2835" cy="313.353" width="40.57" height="41.3465"/>
			<rect x="0" y="292.68" width="40.5669" height="41.3465" class="st4"/>
			<text x="20.28" y="297.35" writing-mode="tb-rl" class="st5" v:langID="1028"><v:paragraph v:horizAlign="1"/><v:tabList/>後念</text>		</g>
		<g id="shape4-58" v:mID="4" v:groupContext="shape" transform="translate(381.992,297.432) rotate(135)">
			<title>工作表.4</title>
			<path d="M0 334.03 L40.09 334.03" class="st1"/>
		</g>
		<g id="shape5-61" v:mID="5" v:groupContext="shape" transform="translate(-118.74,325.779) rotate(-135)">
			<title>工作表.5</title>
			<path d="M0 334.03 L40.09 334.03" class="st1"/>
		</g>
		<g id="shape6-64" v:mID="6" v:groupContext="shape" transform="translate(438.684,297.432) rotate(135)">
			<title>工作表.6</title>
			<path d="M0 334.03 L40.09 334.03" class="st1"/>
		</g>
		<g id="shape7-67" v:mID="7" v:groupContext="shape" transform="translate(325.299,297.432) rotate(135)">
			<title>工作表.7</title>
			<path d="M0 334.03 L40.09 334.03" class="st1"/>
		</g>
		<g id="shape8-70" v:mID="8" v:groupContext="shape" transform="translate(-62.047,325.779) rotate(-135)">
			<title>工作表.8</title>
			<path d="M0 334.03 L40.09 334.03" class="st1"/>
		</g>
		<g id="shape9-73" v:mID="9" v:groupContext="shape" transform="translate(-5.35406,325.779) rotate(-135)">
			<title>工作表.9</title>
			<path d="M0 334.03 L40.09 334.03" class="st1"/>
		</g>
		<g id="shape10-76" v:mID="10" v:groupContext="shape" transform="translate(315.878,-260.598)">
			<title>工作表.10</title>
			<desc>剎那生滅</desc>
			<v:textBlock v:margins="rect(4,4,4,4)" v:tabSpace="42.5197"/>
			<v:textRect cx="36.2283" cy="321.838" width="72.46" height="24.378"/>
			<rect x="0" y="309.649" width="72.4567" height="24.378" class="st4"/>
			<text x="4.23" y="326.82" class="st5" v:langID="1028"><v:paragraph v:horizAlign="1"/><v:tabList/>剎那生滅</text>		</g>
		<g id="shape11-79" v:mID="11" v:groupContext="shape" transform="translate(89.1061,-272.787)">
			<title>工作表.11</title>
			<path d="M0 334.03 L226.77 334.03" class="st3"/>
		</g>
		<g id="shape12-82" v:mID="12" v:groupContext="shape" transform="translate(315.878,-207.468)">
			<title>工作表.12</title>
			<desc>假名相續</desc>
			<v:textBlock v:margins="rect(4,4,4,4)" v:tabSpace="42.5197"/>
			<v:textRect cx="36.2283" cy="297.054" width="72.46" height="73.9449"/>
			<rect x="0" y="260.082" width="72.4567" height="73.9449" class="st4"/>
			<text x="4.23" y="302.04" class="st5" v:langID="1028"><v:paragraph v:horizAlign="1"/><v:tabList/>假名相續</text>		</g>
		<g id="shape13-85" v:mID="13" v:groupContext="shape" transform="translate(60.7597,-244.44)">
			<title>工作表.13</title>
			<path d="M0 334.03 L255.12 334.03" class="st3"/>
		</g>
		<g id="shape14-88" v:mID="14" v:groupContext="shape" transform="translate(386.744,-272.787)">
			<title>工作表.14</title>
			<path d="M0 334.03 L7.09 334.03" class="st1"/>
		</g>
		<g id="shape15-91" v:mID="15" v:groupContext="shape" transform="translate(386.744,-244.44)">
			<title>工作表.15</title>
			<path d="M0 334.03 L7.09 334.03" class="st1"/>
		</g>
		<g id="shape16-94" v:mID="16" v:groupContext="shape" transform="translate(727.857,61.2397) rotate(90)">
			<title>工作表.16</title>
			<path d="M0 334.03 L28.35 334.03" class="st1"/>
		</g>
		<g id="shape17-97" v:mID="17" v:groupContext="shape" transform="translate(393.831,-258.614)">
			<title>工作表.17</title>
			<path d="M0 334.03 L7.09 334.03" class="st1"/>
		</g>
		<g id="shape18-100" v:mID="18" v:groupContext="shape" transform="translate(400.917,-246.425)">
			<title>工作表.18</title>
			<desc>作用現象界</desc>
			<v:textBlock v:margins="rect(4,4,4,4)" v:tabSpace="42.5197"/>
			<v:textRect cx="60.9449" cy="321.838" width="121.89" height="24.378"/>
			<rect x="0" y="309.649" width="121.89" height="24.378" class="st4"/>
			<text x="4.95" y="326.82" class="st5" v:langID="1028"><v:paragraph v:horizAlign="1"/><v:tabList/>作用（現象界）</text>		</g>
		<g id="shape25-103" v:mID="25" v:groupContext="shape" transform="translate(315.878,-136.602)">
			<title>工作表.25</title>
			<desc>法住法性</desc>
			<v:textBlock v:margins="rect(4,4,4,4)" v:tabSpace="42.5197"/>
			<v:textRect cx="36.2283" cy="297.054" width="72.46" height="73.9449"/>
			<rect x="0" y="260.082" width="72.4567" height="73.9449" class="st4"/>
			<text x="4.23" y="302.04" class="st5" v:langID="1028"><v:paragraph v:horizAlign="1"/><v:tabList/>法住法性</text>		</g>
		<g id="shape26-106" v:mID="26" v:groupContext="shape" transform="translate(315.878,-47.8775)">
			<title>工作表.26</title>
			<desc>性類差別</desc>
			<v:textBlock v:margins="rect(4,4,4,4)" v:tabSpace="42.5197"/>
			<v:textRect cx="36.2283" cy="321.838" width="72.46" height="24.378"/>
			<rect x="0" y="309.649" width="72.4567" height="24.378" class="st4"/>
			<text x="4.23" y="326.82" class="st5" v:langID="1028"><v:paragraph v:horizAlign="1"/><v:tabList/>性類差別</text>		</g>
		<g id="shape27-109" v:mID="27" v:groupContext="shape" transform="translate(68.8227,-18.72)">
			<title>工作表.27</title>
			<desc>過去</desc>
			<v:textBlock v:margins="rect(4,4,4,4)" v:tabSpace="42.5197" v:verticalText="true"/>
			<v:textRect cx="20.2835" cy="313.353" width="40.57" height="41.3465"/>
			<rect x="0" y="292.68" width="40.5669" height="41.3465" class="st4"/>
			<text x="20.28" y="297.35" writing-mode="tb-rl" class="st5" v:langID="1028"><v:paragraph v:horizAlign="1"/><v:tabList/>過去</text>		</g>
		<g id="shape28-112" v:mID="28" v:groupContext="shape" transform="translate(125.516,-18.72)">
			<title>工作表.28</title>
			<desc>現在</desc>
			<v:textBlock v:margins="rect(4,4,4,4)" v:tabSpace="42.5197" v:verticalText="true"/>
			<v:textRect cx="20.2835" cy="313.353" width="40.57" height="41.3465"/>
			<rect x="0" y="292.68" width="40.5669" height="41.3465" class="st4"/>
			<text x="20.28" y="297.35" writing-mode="tb-rl" class="st5" v:langID="1028"><v:paragraph v:horizAlign="1"/><v:tabList/>現在</text>		</g>
		<g id="shape29-115" v:mID="29" v:groupContext="shape" transform="translate(182.209,-18.72)">
			<title>工作表.29</title>
			<desc>未來</desc>
			<v:textBlock v:margins="rect(4,4,4,4)" v:tabSpace="42.5197" v:verticalText="true"/>
			<v:textRect cx="20.2835" cy="313.353" width="40.57" height="41.3465"/>
			<rect x="0" y="292.68" width="40.5669" height="41.3465" class="st4"/>
			<text x="20.28" y="297.35" writing-mode="tb-rl" class="st5" v:langID="1028"><v:paragraph v:horizAlign="1"/><v:tabList/>未來</text>		</g>
		<g id="shape30-118" v:mID="30" v:groupContext="shape" transform="translate(89.1061,-60.0665)">
			<title>工作表.30</title>
			<path d="M0 334.03 L226.77 334.03" class="st3"/>
		</g>
		<g id="shape35-121" v:mID="35" v:groupContext="shape" transform="translate(85.8935,-187.748)">
			<title>工作表.35</title>
			<path d="M3.21 248.99 L1.7 250.32 A1.55661 1.55661 -180 0 0 1.7 252.66 L1.7 252.66 A1.55661 1.55661 0 0 1 1.7 254.99
						 L1.56 255.12 A1.72339 1.72339 -180 0 0 1.56 257.7 L1.56 257.7 A1.72339 1.72339 0 0 1 1.56 260.28 L1.56 260.28
						 A1.72339 1.72339 -180 0 0 1.56 262.87 L1.89 263.16 A1.44543 1.44543 0 0 1 1.89 265.33 L1.89 265.33 A1.44543
						 1.44543 -180 0 0 1.89 267.5 L1.89 267.5 A1.65734 1.65734 0 0 1 1.97 269.91 L1.63 270.25 A1.65734 1.65734
						 -180 0 0 1.7 272.66 L1.7 272.66 A1.55661 1.55661 0 0 1 1.7 275 L1.51 275.17 A1.6678 1.6678 -180 0 0 1.51
						 277.67 L1.65 277.79 A1.50102 1.50102 0 0 1 1.65 280.04 L1.65 280.04 A1.50102 1.50102 -180 0 0 1.65 282.29
						 L1.7 282.34 A1.77899 1.77899 0 0 1 1.7 285 L1.56 285.13 A1.61221 1.61221 -180 0 0 1.56 287.55 L1.56 287.55
						 A1.61221 1.61221 0 0 1 1.56 289.96 L1.56 289.96 A1.72339 1.72339 -180 0 0 1.56 292.55 L1.65 292.63 A1.72339
						 1.72339 0 0 1 1.65 295.22 L1.51 295.34 A1.55661 1.55661 -180 0 0 1.51 297.68 L1.51 297.68 A1.55661 1.55661
						 0 0 1 1.51 300.01 L1.51 300.01 A1.6678 1.6678 -180 0 0 1.51 302.51 L1.65 302.64 A1.72339 1.72339 0 0 1 1.65
						 305.22 L1.65 305.22 A1.72339 1.72339 -180 0 0 1.65 307.81 L1.75 307.89 A1.61221 1.61221 0 0 1 1.75 310.31
						 L1.75 310.31 A1.61221 1.61221 -180 0 0 1.75 312.73 L1.75 312.73 A1.72339 1.72339 0 0 1 1.75 315.31 L1.61
						 315.43 A1.55661 1.55661 -180 0 0 1.61 317.77 L1.61 317.77 A1.55661 1.55661 0 0 1 1.61 320.1 L1.51 320.19
						 A1.77899 1.77899 -180 0 0 1.51 322.85 L1.75 323.06 A1.50102 1.50102 0 0 1 1.75 325.31 L1.75 325.31 A1.50102
						 1.50102 -180 0 0 1.75 327.57 L1.8 327.61 A1.77899 1.77899 0 0 1 1.8 330.27 L1.71 330.35 A1.62082 1.62082
						 -180 0 0 1.75 332.82 L3.21 334.03" class="st1"/>
		</g>
		<g id="shape19-124" v:mID="19" v:groupContext="shape" transform="translate(74.9329,-159.401)">
			<title>圓形</title>
			<v:userDefs>
				<v:ud v:nameU="visVersion" v:val="VT0(11):26"/>
			</v:userDefs>
			<path d="M0 319.85 A14.1732 14.1732 0 1 1 28.35 319.85 A14.1732 14.1732 0 0 1 -0 319.85 Z" class="st6"/>
		</g>
		<g id="shape20-126" v:mID="20" v:groupContext="shape" transform="translate(18.24,-159.401)">
			<title>圓形.20</title>
			<v:userDefs>
				<v:ud v:nameU="visVersion" v:val="VT0(11):26"/>
			</v:userDefs>
			<path d="M0 319.85 A14.1732 14.1732 0 1 1 28.35 319.85 A14.1732 14.1732 0 0 1 -0 319.85 Z" class="st6"/>
		</g>
		<g id="shape21-128" v:mID="21" v:groupContext="shape" transform="translate(131.626,-159.401)">
			<title>圓形.21</title>
			<v:userDefs>
				<v:ud v:nameU="visVersion" v:val="VT0(11):26"/>
			</v:userDefs>
			<path d="M0 319.85 A14.1732 14.1732 0 1 1 28.35 319.85 A14.1732 14.1732 0 0 1 -0 319.85 Z" class="st6"/>
		</g>
		<g id="shape22-130" v:mID="22" v:groupContext="shape" transform="translate(188.319,-159.401)">
			<title>圓形.22</title>
			<v:userDefs>
				<v:ud v:nameU="visVersion" v:val="VT0(11):26"/>
			</v:userDefs>
			<path d="M0 319.85 A14.1732 14.1732 0 1 1 28.35 319.85 A14.1732 14.1732 0 0 1 -0 319.85 Z" class="st6"/>
		</g>
		<g id="shape23-132" v:mID="23" v:groupContext="shape" transform="translate(245.012,-159.401)">
			<title>圓形.23</title>
			<v:userDefs>
				<v:ud v:nameU="visVersion" v:val="VT0(11):26"/>
			</v:userDefs>
			<path d="M0 319.85 A14.1732 14.1732 0 1 1 28.35 319.85 A14.1732 14.1732 0 0 1 -0 319.85 Z" class="st6"/>
		</g>
		<g id="shape37-134" v:mID="37" v:groupContext="shape" transform="translate(425.843,174.038) rotate(89.9442)">
			<title>工作表.37</title>
			<path d="M0 334.03 L99.6 334.03" class="st2"/>
		</g>
		<g id="shape48-137" v:mID="48" v:groupContext="shape" transform="translate(386.744,-173.574)">
			<title>工作表.48</title>
			<path d="M0 334.03 L7.09 334.03" class="st1"/>
		</g>
		<g id="shape49-140" v:mID="49" v:groupContext="shape" transform="translate(386.744,-60.0665)">
			<title>工作表.49</title>
			<path d="M0 334.03 L7.09 334.03" class="st1"/>
		</g>
		<g id="shape50-143" v:mID="50" v:groupContext="shape" transform="translate(727.857,160.452) rotate(90)">
			<title>工作表.50</title>
			<path d="M0 334.03 L113.51 334.03" class="st1"/>
		</g>
		<g id="shape51-146" v:mID="51" v:groupContext="shape" transform="translate(393.831,-116.881)">
			<title>工作表.51</title>
			<path d="M0 334.03 L7.09 334.03" class="st1"/>
		</g>
		<g id="shape52-149" v:mID="52" v:groupContext="shape" transform="translate(400.917,-54.1039)">
			<title>工作表.52</title>
			<desc>法體本體界</desc>
			<v:textBlock v:margins="rect(4,4,4,4)" v:tabSpace="42.5197"/>
			<v:textRect cx="60.9449" cy="271.249" width="121.89" height="125.555"/>
			<rect x="0" y="208.471" width="121.89" height="125.555" class="st4"/>
			<text x="4.95" y="276.23" class="st5" v:langID="1028"><v:paragraph v:horizAlign="1"/><v:tabList/>法體（本體界）</text>		</g>
	</g>
</svg>
