<?xml version="1.0" encoding="UTF-8" standalone="no"?>
<!DOCTYPE svg PUBLIC "-//W3C//DTD SVG 1.1//EN" "http://www.w3.org/Graphics/SVG/1.1/DTD/svg11.dtd">
<!-- 由 Microsoft Visio, SVG Export 產生 y10.0072-h.svg 頁-1 -->
<svg xmlns="http://www.w3.org/2000/svg" xmlns:xlink="http://www.w3.org/1999/xlink" xmlns:ev="http://www.w3.org/2001/xml-events"
		width="5.42466in" height="2.96914in" viewBox="0 0 390.575 213.778" xml:space="preserve" color-interpolation-filters="sRGB"
		class="st9">
	<title>y10.0072</title>

	<style type="text/css">
	<![CDATA[
		.st1 {stroke:#000000;stroke-dasharray:5.04,3.6;stroke-linecap:round;stroke-linejoin:round;stroke-width:0.72}
		.st2 {fill:none;stroke:none;stroke-linecap:round;stroke-linejoin:round;stroke-width:0.72}
		.st3 {fill:#000000;font-family:新細明體;font-size:1.33333em}
		.st4 {marker-end:url(#mrkr5-25);stroke:#000000;stroke-linecap:round;stroke-linejoin:round;stroke-width:0.72}
		.st5 {fill:#000000;fill-opacity:1;stroke:#000000;stroke-opacity:1;stroke-width:0.22222222222222}
		.st6 {fill:none;stroke:#000000;stroke-linecap:round;stroke-linejoin:round;stroke-width:0.72}
		.st7 {stroke:#000000;stroke-linecap:round;stroke-linejoin:round;stroke-width:0.72}
		.st8 {stroke:none;stroke-linecap:round;stroke-linejoin:round;stroke-width:0.72}
		.st9 {fill:none;fill-rule:evenodd;font-size:12px;overflow:visible;stroke-linecap:square;stroke-miterlimit:3}
	]]>
	</style>

	<defs id="Markers">
		<g id="lend5">
			<path d="M 2 1 L 0 0 L 1.98117 -0.993387 C 1.67173 -0.364514 1.67301 0.372642 1.98465 1.00043 " style="stroke:none"/>
		</g>
		<marker id="mrkr5-25" class="st5" refX="-7.875" orient="auto" markerUnits="strokeWidth" overflow="visible">
			<use xlink:href="#lend5" transform="scale(-4.5,-4.5) "/>
		</marker>
	</defs>
	<g>
		<title>頁-1</title>
		<g id="group36-1" transform="translate(0.36,-0.36)">
			<title>工作表.36</title>
			<g id="shape11-2" transform="translate(28.3465,-148.819)">
				<title>工作表.11</title>
				<path d="M0 213.78 L114.51 213.78" class="st1"/>
			</g>
			<g id="shape1-5" transform="translate(8.50394,-71.4528)">
				<title>工作表.1</title>
				<desc>說一切有</desc>
				<rect x="0" y="141.25" width="19.8425" height="72.5276" class="st2"/>
				<text x="9.92" y="145.51" writing-mode="tb-rl" class="st3">說一切有</text>			</g>
			<g id="shape2-8" transform="translate(8.50394,-156.199)">
				<title>工作表.2</title>
				<desc>分別說</desc>
				<rect x="0" y="157.672" width="19.8425" height="56.1063" class="st2"/>
				<text x="9.92" y="161.73" writing-mode="tb-rl" class="st3">分別說</text>			</g>
			<g id="shape3-11" transform="translate(8.50394,-0.293307)">
				<title>工作表.3</title>
				<desc>犢　子</desc>
				<rect x="0" y="157.672" width="19.8425" height="56.1063" class="st2"/>
				<text x="9.92" y="161.73" writing-mode="tb-rl" class="st3">犢　子</text>			</g>
			<g id="shape4-14" transform="translate(60.6516,-53.8583)">
				<title>工作表.4</title>
				<desc>說　轉</desc>
				<rect x="0" y="193.936" width="56.6929" height="19.8425" class="st2"/>
				<text x="4.35" y="208.84" class="st3">說　轉</text>			</g>
			<g id="shape5-17" transform="translate(28.3465,-63.7795)">
				<title>工作表.5</title>
				<path d="M0 213.78 L32.6 213.78" class="st1"/>
			</g>
			<g id="shape6-20" transform="translate(196.108,-24.2001) rotate(51.9782)">
				<title>工作表.6</title>
				<path d="M0 213.78 L44.71 213.78" class="st4"/>
			</g>
			<g id="shape7-26" transform="translate(-186.079,142.601) rotate(-90)">
				<title>工作表.7</title>
				<desc>　　　　</desc>
				<rect x="0" y="195.231" width="73.0787" height="18.5472" class="st6"/>
			</g>
			<g id="shape8-28" transform="translate(8.50394,-155.906)">
				<title>工作表.8</title>
				<desc>　　　</desc>
				<rect x="0" y="157.085" width="19.8425" height="56.6929" class="st6"/>
			</g>
			<g id="shape9-30" transform="translate(-186.036,213.778) rotate(-90)">
				<title>工作表.9</title>
				<desc>　　　</desc>
				<rect x="0" y="195.145" width="56.6929" height="18.6329" class="st6"/>
			</g>
			<g id="shape10-32" transform="translate(60.6516,-54.4631)">
				<title>工作表.10</title>
				<desc>　　　</desc>
				<rect x="0" y="195.145" width="56.6929" height="18.6329" class="st6"/>
			</g>
			<g id="shape16-34" transform="translate(-68.8411,14.1444) rotate(-53.7072)">
				<title>工作表.16</title>
				<path d="M0 213.78 L58.96 213.78" class="st4"/>
			</g>
			<g id="shape19-39" transform="translate(82.6255,132.058) rotate(-90)">
				<title>工作表.19</title>
				<desc>　　　　</desc>
				<rect x="0" y="195.231" width="73.0787" height="18.5472" class="st6"/>
			</g>
			<g id="shape18-41" transform="translate(277.209,-81.9961)">
				<title>工作表.18</title>
				<desc>先軌範師</desc>
				<rect x="0" y="141.25" width="19.8425" height="72.5276" class="st2"/>
				<text x="9.92" y="145.51" writing-mode="tb-rl" class="st3">先軌範師</text>			</g>
			<g id="shape20-44" transform="translate(367.917,-128.941)">
				<title>工作表.20</title>
				<desc>一類經量</desc>
				<rect x="0" y="141.25" width="19.8425" height="72.5276" class="st2"/>
				<text x="9.92" y="145.51" writing-mode="tb-rl" class="st3">一類經量</text>			</g>
			<g id="shape21-47" transform="translate(176.077,90.5398) rotate(-90)">
				<title>工作表.21</title>
				<desc>　　　　</desc>
				<rect x="0" y="189.745" width="83.9331" height="24.0335" class="st6"/>
			</g>
			<g id="shape22-49" transform="translate(136.506,-176.793) rotate(-6.86292)">
				<title>工作表.22</title>
				<path d="M0 213.78 L197.69 213.78" class="st4"/>
			</g>
			<g id="shape15-54" transform="translate(200.652,-116.959) rotate(10.4027)">
				<title>工作表.15</title>
				<path d="M0 213.78 L110.27 213.78" class="st4"/>
			</g>
			<g id="shape23-59" transform="translate(122.171,-123.806) rotate(-10.7515)">
				<title>工作表.23</title>
				<path d="M0 213.78 L68.28 213.78" class="st4"/>
			</g>
			<g id="shape13-64" transform="translate(-51.7268,101.498) rotate(-90)">
				<title>工作表.13</title>
				<desc>　　　　</desc>
				<rect x="0" y="195.231" width="73.0787" height="18.5472" class="st6"/>
			</g>
			<g id="shape14-66" transform="translate(142.856,-112.677)">
				<title>工作表.14</title>
				<desc>譬　　喻</desc>
				<rect x="0" y="141.495" width="19.8425" height="72.2835" class="st2"/>
				<text x="9.92" y="145.64" writing-mode="tb-rl" class="st3">譬　　喻</text>			</g>
			<g id="shape24-69" transform="translate(162.699,-148.819)">
				<title>工作表.24</title>
				<path d="M0 213.78 L74.31 213.78" class="st1"/>
			</g>
			<g id="shape25-72" transform="translate(310.083,-148.819)">
				<title>工作表.25</title>
				<path d="M0 213.78 L55.74 213.78" class="st1"/>
			</g>
			<g id="shape26-75" transform="translate(450.782,29.5261) rotate(90)">
				<title>工作表.26</title>
				<path d="M0 213.78 L73.39 213.78" class="st7"/>
			</g>
			<g id="shape27-78" transform="translate(523.861,29.215) rotate(90)">
				<title>工作表.27</title>
				<path d="M0 213.78 L73.7 213.78" class="st7"/>
			</g>
			<g id="shape28-81" transform="translate(236.094,-184.25) rotate(-0.243849)">
				<title>工作表.28</title>
				<path d="M0 213.78 L73.08 213.78" class="st7"/>
			</g>
			<g id="shape29-84" transform="translate(237.004,-110.862)">
				<title>工作表.29</title>
				<path d="M0 213.78 L40.2 213.78" class="st7"/>
			</g>
			<g id="shape30-87" transform="translate(297.051,-110.862)">
				<title>工作表.30</title>
				<path d="M0 213.78 L13.03 213.78" class="st7"/>
			</g>
			<g id="shape31-90" transform="translate(240.945,-112.252)">
				<title>工作表.31</title>
				<desc>上座師資</desc>
				<rect x="0" y="141.778" width="17.0079" height="72" class="st2"/>
				<text x="8.5" y="145.78" writing-mode="tb-rl" class="st3">上座師資</text>			</g>
			<g id="shape35-93" transform="translate(213.778,1.17958) rotate(90)">
				<title>工作表.35</title>
				<path d="M0 213.78 L212.6 213.78" class="st8"/>
			</g>
		</g>
	</g>
</svg>
