<?xml version="1.0" encoding="UTF-8" standalone="no"?>
<!DOCTYPE svg PUBLIC "-//W3C//DTD SVG 1.1//EN" "http://www.w3.org/Graphics/SVG/1.1/DTD/svg11.dtd">
<!-- 由 Microsoft Visio, SVG Export 產生 y10.0084.svg 頁-1 -->
<svg xmlns="http://www.w3.org/2000/svg" xmlns:xlink="http://www.w3.org/1999/xlink" xmlns:ev="http://www.w3.org/2001/xml-events"
		width="6.17354in" height="1.86707in" viewBox="0 0 444.495 134.429" xml:space="preserve" color-interpolation-filters="sRGB"
		class="st4">
	

	<style type="text/css">
	<![CDATA[
		.st1 {fill:none;stroke:none;stroke-linecap:round;stroke-linejoin:round;stroke-width:0.72}
		.st2 {fill:#000000;font-family:新細明體;font-size:1.33333em}
		.st3 {stroke:#000000;stroke-linecap:round;stroke-linejoin:round;stroke-width:0.72}
		.st4 {fill:none;fill-rule:evenodd;font-size:12px;overflow:visible;stroke-linecap:square;stroke-miterlimit:3}
	]]>
	</style>

	<g>
		<title>頁-1</title>
		<g id="group29-1" transform="translate(0.36,-0.36)">
			<title>工作表.29</title>
			<g id="shape1-2" transform="translate(1.63928,-1.17664)">
				<title>工作表.1</title>
				<desc>大眾、分別說、犢子</desc>
				<rect x="0" y="114.586" width="120.646" height="19.8425" class="st1"/>
				<text x="4.32" y="129.49" class="st2">大眾、分別說、犢子</text>			</g>
			<g id="shape2-5" transform="translate(354.71,0)">
				<title>工作表.2</title>
				<desc>別體同時起</desc>
				<rect x="0" y="114.586" width="88.6693" height="19.8425" class="st1"/>
				<text x="4.33" y="129.49" class="st2">別體同時起</text>			</g>
			<g id="shape3-8" transform="translate(354.908,-56.6926)">
				<title>工作表.3</title>
				<desc>別體前後起</desc>
				<rect x="0" y="114.586" width="88.6693" height="19.8425" class="st1"/>
				<text x="4.33" y="129.49" class="st2">別體前後起</text>			</g>
			<g id="shape4-11" transform="translate(355.106,-113.385)">
				<title>工作表.4</title>
				<desc>一體前後起</desc>
				<rect x="0" y="114.586" width="88.6693" height="19.8425" class="st1"/>
				<text x="4.33" y="129.49" class="st2">一體前後起</text>			</g>
			<g id="shape5-14" transform="translate(0,-72.1327)">
				<title>工作表.5</title>
				<desc>一切有系</desc>
				<rect x="0" y="114.586" width="72.6811" height="19.8425" class="st1"/>
				<text x="4.34" y="129.49" class="st2">一切有系</text>			</g>
			<g id="shape6-17" transform="translate(225.263,-113.866)">
				<title>工作表.6</title>
				<desc>譬喻論師</desc>
				<rect x="0" y="114.586" width="72.6811" height="19.8425" class="st1"/>
				<text x="4.34" y="129.49" class="st2">譬喻論師</text>			</g>
			<g id="shape7-20" transform="translate(225.164,-85.52)">
				<title>工作表.7</title>
				<desc>上座師資</desc>
				<rect x="0" y="114.586" width="72.6811" height="19.8425" class="st1"/>
				<text x="4.34" y="129.49" class="st2">上座師資</text>			</g>
			<g id="shape8-23" transform="translate(225.065,-57.1737)">
				<title>工作表.8</title>
				<desc>法救、覺天</desc>
				<rect x="0" y="114.586" width="72.6811" height="19.8425" class="st1"/>
				<text x="4.34" y="129.49" class="st2">法救、覺天</text>			</g>
			<g id="shape9-26" transform="translate(224.966,-28.8274)">
				<title>工作表.9</title>
				<desc>正統派</desc>
				<rect x="0" y="114.586" width="72.6811" height="19.8425" class="st1"/>
				<text x="0.25em 1.771em 3.293em" y="129.49" class="st2">正統派</text>			</g>
			<g id="shape10-29" transform="translate(113.071,-43.444)">
				<title>工作表.10</title>
				<desc>有部</desc>
				<rect x="0" y="114.586" width="42.5197" height="19.8425" class="st1"/>
				<text x="5.26" y="129.49" class="st2">有部</text>			</g>
			<g id="shape11-32" transform="translate(113.269,-100.137)">
				<title>工作表.11</title>
				<desc>經部</desc>
				<rect x="0" y="114.586" width="42.5197" height="19.8425" class="st1"/>
				<text x="5.26" y="129.49" class="st2">經部</text>			</g>
			<g id="shape12-35" transform="translate(113.095,158.726) rotate(-179.8)">
				<title>工作表.12</title>
				<path d="M0 134.43 L6.73 134.43" class="st3"/>
			</g>
			<g id="shape13-38" transform="translate(112.897,215.418) rotate(-179.8)">
				<title>工作表.13</title>
				<path d="M0 134.43 L7.09 134.43" class="st3"/>
			</g>
			<g id="shape14-41" transform="translate(-28.1429,79.6563) rotate(-89.4419)">
				<title>工作表.14</title>
				<path d="M0 134.43 L56.69 134.43" class="st3"/>
			</g>
			<g id="shape15-44" transform="translate(71.4149,-81.9323) rotate(0.2)">
				<title>工作表.15</title>
				<path d="M0 134.43 L35.61 134.43" class="st3"/>
			</g>
			<g id="shape16-47" transform="translate(226.529,144.948) rotate(-179.8)">
				<title>工作表.16</title>
				<path d="M0 134.43 L6.73 134.43" class="st3"/>
			</g>
			<g id="shape17-50" transform="translate(226.43,173.295) rotate(-179.8)">
				<title>工作表.17</title>
				<path d="M0 134.43 L7.09 134.43" class="st3"/>
			</g>
			<g id="shape18-53" transform="translate(85.4015,36.6926) rotate(-89.0838)">
				<title>工作表.18</title>
				<path d="M0 134.43 L28.35 134.43" class="st3"/>
			</g>
			<g id="shape19-56" transform="translate(152.301,-109.997) rotate(0.2)">
				<title>工作表.19</title>
				<path d="M0 134.43 L68.21 134.43" class="st3"/>
			</g>
			<g id="shape20-59" transform="translate(226.331,201.641) rotate(-179.8)">
				<title>工作表.20</title>
				<path d="M0 134.43 L6.73 134.43" class="st3"/>
			</g>
			<g id="shape21-62" transform="translate(226.233,229.987) rotate(-179.8)">
				<title>工作表.21</title>
				<path d="M0 134.43 L7.09 134.43" class="st3"/>
			</g>
			<g id="shape22-65" transform="translate(85.2036,93.3852) rotate(-89.0838)">
				<title>工作表.22</title>
				<path d="M0 134.43 L28.35 134.43" class="st3"/>
			</g>
			<g id="shape23-68" transform="translate(152.103,-53.304) rotate(0.2)">
				<title>工作表.23</title>
				<path d="M0 134.43 L68.21 134.43" class="st3"/>
			</g>
			<g id="shape24-71" transform="translate(298.334,-123.66) rotate(0.2)">
				<title>工作表.24</title>
				<path d="M0 134.43 L56.69 134.43" class="st3"/>
			</g>
			<g id="shape25-74" transform="translate(202.943,-27.9263) rotate(-44.8)">
				<title>工作表.25</title>
				<path d="M10 144.43 L80.18 134.43" class="st3"/>
			</g>
			<g id="shape26-77" transform="translate(358.303,-80.9121) rotate(26.7651)">
				<title>工作表.26</title>
				<path d="M0 134.43 L63.38 134.43" class="st3"/>
			</g>
			<g id="shape27-80" transform="translate(358.105,-24.2195) rotate(26.7651)">
				<title>工作表.27</title>
				<path d="M0 134.43 L63.38 134.43" class="st3"/>
			</g>
			<g id="shape28-83" transform="translate(152.774,-10.8934) rotate(0.2)">
				<title>工作表.28</title>
				<path d="M0 134.43 L201.86 134.43" class="st3"/>
			</g>
		</g>
	</g>
</svg>
