<?xml version="1.0" encoding="UTF-8" standalone="no"?>
<!DOCTYPE svg PUBLIC "-//W3C//DTD SVG 1.1//EN" "http://www.w3.org/Graphics/SVG/1.1/DTD/svg11.dtd">
<!-- 由 Microsoft Visio, SVG Export 產生 y10.0041.svg 頁-1 -->
<svg xmlns="http://www.w3.org/2000/svg" xmlns:xlink="http://www.w3.org/1999/xlink" xmlns:ev="http://www.w3.org/2001/xml-events"
		width="5.7057in" height="4.81717in" viewBox="0 0 410.811 346.836" xml:space="preserve" color-interpolation-filters="sRGB"
		class="st4">
	

	<style type="text/css">
	<![CDATA[
		.st1 {fill:none;stroke:none;stroke-linecap:round;stroke-linejoin:round;stroke-width:0.72}
		.st2 {fill:#000000;font-family:新細明體;font-size:1.33333em}
		.st3 {stroke:#000000;stroke-linecap:round;stroke-linejoin:round;stroke-width:0.72}
		.st4 {fill:none;fill-rule:evenodd;font-size:12px;overflow:visible;stroke-linecap:square;stroke-miterlimit:3}
	]]>
	</style>

	<g>
		<title>頁-1</title>
		<g id="group51-1" transform="translate(0.36,-0.36)">
			<title>工作表.51</title>
			<g id="shape1-2" transform="translate(0,-283.754)">
				<title>工作表.1</title>
				<desc>大　眾　部</desc>
				<rect x="0" y="326.994" width="89.4646" height="19.8425" class="st1"/>
				<text x="4.73" y="341.9" class="st2">大　眾　部</text>			</g>
			<g id="shape2-5" transform="translate(212.598,-254.898)">
				<title>工作表.2</title>
				<desc>說出世</desc>
				<rect x="0" y="326.994" width="60.3228" height="19.8425" class="st1"/>
				<text x="6.16" y="341.9" class="st2">說出世</text>			</g>
			<g id="shape3-8" transform="translate(153.071,-326.274)">
				<title>工作表.3</title>
				<desc>一說</desc>
				<rect x="0" y="326.994" width="40.0827" height="19.8425" class="st1"/>
				<text x="4.04" y="341.9" class="st2">一說</text>			</g>
			<g id="shape4-11" transform="translate(153.071,-297.417)">
				<title>工作表.4</title>
				<desc>雞胤</desc>
				<rect x="0" y="326.994" width="40.0827" height="19.8425" class="st1"/>
				<text x="4.04" y="341.9" class="st2">雞胤</text>			</g>
			<g id="shape5-14" transform="translate(256.535,-312.1)">
				<title>工作表.5</title>
				<desc>說假</desc>
				<rect x="0" y="326.994" width="40.0827" height="19.8425" class="st1"/>
				<text x="4.04" y="341.9" class="st2">說假</text>			</g>
			<g id="shape6-17" transform="translate(256.535,-283.244)">
				<title>工作表.6</title>
				<desc>多聞</desc>
				<rect x="0" y="326.994" width="40.0827" height="19.8425" class="st1"/>
				<text x="4.04" y="341.9" class="st2">多聞</text>			</g>
			<g id="shape7-20" transform="translate(492.708,10.6413) rotate(90)">
				<title>工作表.7</title>
				<path d="M0 346.84 L28.35 346.84" class="st3"/>
			</g>
			<g id="shape8-23" transform="translate(152.76,357.477) rotate(180)">
				<title>工作表.8</title>
				<path d="M0 346.84 L7.09 346.84" class="st3"/>
			</g>
			<g id="shape9-26" transform="translate(152.76,385.824) rotate(180)">
				<title>工作表.9</title>
				<path d="M0 346.84 L7.09 346.84" class="st3"/>
			</g>
			<g id="shape10-29" transform="translate(596.285,24.8145) rotate(90)">
				<title>工作表.10</title>
				<path d="M0 346.84 L28.35 346.84" class="st3"/>
			</g>
			<g id="shape11-32" transform="translate(256.535,371.651) rotate(180)">
				<title>工作表.11</title>
				<path d="M0 346.84 L7.09 346.84" class="st3"/>
			</g>
			<g id="shape12-35" transform="translate(256.535,399.997) rotate(180)">
				<title>工作表.12</title>
				<path d="M0 346.84 L7.09 346.84" class="st3"/>
			</g>
			<g id="shape13-38" transform="translate(150.737,371.418) rotate(179.196)">
				<title>工作表.13</title>
				<path d="M0 346.84 L14.17 346.84" class="st3"/>
			</g>
			<g id="shape14-41" transform="translate(-103.211,-235.424) rotate(-33.6901)">
				<title>工作表.14</title>
				<path d="M0 346.84 L51.1 346.84" class="st3"/>
			</g>
			<g id="shape15-44" transform="translate(-60.6913,370.093) rotate(-146.31)">
				<title>工作表.15</title>
				<path d="M0 346.84 L51.1 346.84" class="st3"/>
			</g>
			<g id="shape16-47" transform="translate(202.565,428.344) rotate(180)">
				<title>工作表.16</title>
				<path d="M0 346.84 L70.87 346.84" class="st3"/>
			</g>
			<g id="shape17-50" transform="translate(249.449,385.625) rotate(180)">
				<title>工作表.17</title>
				<path d="M0 346.84 L7.09 346.84" class="st3"/>
			</g>
			<g id="shape18-53" transform="translate(192.756,-307.848)">
				<title>工作表.18</title>
				<path d="M0 346.84 L49.61 346.84" class="st3"/>
			</g>
			<g id="shape24-56" transform="translate(303.35,-226.927)">
				<title>工作表.24</title>
				<desc>說轉</desc>
				<rect x="0" y="326.994" width="44.8189" height="19.8425" class="st1"/>
				<text x="6.41" y="341.9" class="st2">說轉</text>			</g>
			<g id="shape25-59" transform="translate(303.35,-198.581)">
				<title>工作表.25</title>
				<desc>正量</desc>
				<rect x="0" y="326.994" width="44.8189" height="19.8425" class="st1"/>
				<text x="6.41" y="341.9" class="st2">正量</text>			</g>
			<g id="shape26-62" transform="translate(303.35,-170.234)">
				<title>工作表.26</title>
				<desc>法勝</desc>
				<rect x="0" y="326.994" width="44.8189" height="19.8425" class="st1"/>
				<text x="6.41" y="341.9" class="st2">法勝</text>			</g>
			<g id="shape27-65" transform="translate(303.35,-141.888)">
				<title>工作表.27</title>
				<desc>賢道</desc>
				<rect x="0" y="326.994" width="44.8189" height="19.8425" class="st1"/>
				<text x="6.41" y="341.9" class="st2">賢道</text>			</g>
			<g id="shape28-68" transform="translate(303.35,-113.541)">
				<title>工作表.28</title>
				<desc>六城</desc>
				<rect x="0" y="326.994" width="44.8189" height="19.8425" class="st1"/>
				<text x="6.41" y="341.9" class="st2">六城</text>			</g>
			<g id="shape29-71" transform="translate(303.35,-85.1949)">
				<title>工作表.29</title>
				<desc>化地</desc>
				<rect x="0" y="326.994" width="44.8189" height="19.8425" class="st1"/>
				<text x="6.41" y="341.9" class="st2">化地</text>			</g>
			<g id="shape30-74" transform="translate(303.35,-56.8484)">
				<title>工作表.30</title>
				<desc>飲光</desc>
				<rect x="0" y="326.994" width="44.8189" height="19.8425" class="st1"/>
				<text x="6.41" y="341.9" class="st2">飲光</text>			</g>
			<g id="shape31-77" transform="translate(303.35,-28.502)">
				<title>工作表.31</title>
				<desc>法藏</desc>
				<rect x="0" y="326.994" width="44.8189" height="19.8425" class="st1"/>
				<text x="6.41" y="341.9" class="st2">法藏</text>			</g>
			<g id="shape32-80" transform="translate(303.35,0)">
				<title>工作表.32</title>
				<desc>紅衣銅鍱</desc>
				<rect x="0" y="326.994" width="106.74" height="19.8425" class="st1"/>
				<text x="5.37" y="341.9" class="st2">紅衣（銅鍱）</text>			</g>
			<g id="shape33-83" transform="translate(189.965,-226.927)">
				<title>工作表.33</title>
				<desc>說一切有</desc>
				<rect x="0" y="326.994" width="75.3386" height="19.8425" class="st1"/>
				<text x="5.67" y="341.9" class="st2">說一切有</text>			</g>
			<g id="shape34-86" transform="translate(189.965,-155.568)">
				<title>工作表.34</title>
				<desc>犢　子</desc>
				<rect x="0" y="326.994" width="56.8031" height="19.8425" class="st1"/>
				<text x="4.4" y="341.9" class="st2">犢　子</text>			</g>
			<g id="shape35-89" transform="translate(189.965,-42.6752)">
				<title>工作表.35</title>
				<desc>分別說</desc>
				<rect x="0" y="326.994" width="56.8031" height="19.8425" class="st1"/>
				<text x="4.4" y="341.9" class="st2">分別說</text>			</g>
			<g id="shape36-92" transform="translate(260.831,-236.848)">
				<title>工作表.36</title>
				<path d="M0 346.84 L42.52 346.84" class="st3"/>
			</g>
			<g id="shape37-95" transform="translate(303.35,485.17) rotate(180)">
				<title>工作表.37</title>
				<path d="M0 346.84 L14.17 346.84" class="st3"/>
			</g>
			<g id="shape38-98" transform="translate(636.013,138.334) rotate(90)">
				<title>工作表.38</title>
				<path d="M0 346.84 L85.04 346.84" class="st3"/>
			</g>
			<g id="shape39-101" transform="translate(303.35,570.21) rotate(180)">
				<title>工作表.39</title>
				<path d="M0 346.84 L14.17 346.84" class="st3"/>
			</g>
			<g id="shape40-104" transform="translate(289.177,527.69) rotate(180)">
				<title>工作表.40</title>
				<path d="M0 346.84 L42.52 346.84" class="st3"/>
			</g>
			<g id="shape41-107" transform="translate(303.35,598.556) rotate(180)">
				<title>工作表.41</title>
				<path d="M0 346.84 L14.17 346.84" class="st3"/>
			</g>
			<g id="shape42-110" transform="translate(636.013,251.72) rotate(90)">
				<title>工作表.42</title>
				<path d="M0 346.84 L85.04 346.84" class="st3"/>
			</g>
			<g id="shape43-113" transform="translate(303.35,683.596) rotate(180)">
				<title>工作表.43</title>
				<path d="M0 346.84 L14.17 346.84" class="st3"/>
			</g>
			<g id="shape44-116" transform="translate(289.177,641.076) rotate(180)">
				<title>工作表.44</title>
				<path d="M0 346.84 L42.52 346.84" class="st3"/>
			</g>
			<g id="shape45-119" transform="translate(0.0433071,-42.6752)">
				<title>工作表.45</title>
				<desc>上　座　部</desc>
				<rect x="0" y="326.994" width="90.7087" height="19.8425" class="st1"/>
				<text x="5.35" y="341.9" class="st2">上　座　部</text>			</g>
			<g id="shape46-122" transform="translate(89.4902,-52.5965)">
				<title>工作表.46</title>
				<path d="M0 346.84 L99.21 346.84" class="st3"/>
			</g>
			<g id="shape47-125" transform="translate(188.392,527.69) rotate(180)">
				<title>工作表.47</title>
				<path d="M0 346.84 L42.52 346.84" class="st3"/>
			</g>
			<g id="shape48-128" transform="translate(492.708,180.854) rotate(90)">
				<title>工作表.48</title>
				<path d="M0 346.84 L113.39 346.84" class="st3"/>
			</g>
			<g id="shape49-131" transform="translate(188.392,456.824) rotate(180)">
				<title>工作表.49</title>
				<path d="M0 346.84 L56.69 346.84" class="st3"/>
			</g>
			<g id="shape50-134" transform="translate(469.964,187.977) rotate(102.995)">
				<title>工作表.50</title>
				<path d="M0 346.84 L189.09 346.84" class="st3"/>
			</g>
		</g>
	</g>
</svg>
