<?xml version="1.0" encoding="UTF-8" standalone="no"?>
<!DOCTYPE svg PUBLIC "-//W3C//DTD SVG 1.0//EN" "http://www.w3.org/TR/2001/REC-SVG-20010904/DTD/svg10.dtd">
<!-- 由 Microsoft Visio 11.0, SVG Export, v1.0 產生 y10.0063.svg Page-1 -->
<svg xmlns="http://www.w3.org/2000/svg" xmlns:xlink="http://www.w3.org/1999/xlink" xmlns:ev="http://www.w3.org/2001/xml-events"
		xmlns:v="http://schemas.microsoft.com/visio/2003/SVGExtensions/" width="4.63117in" height="7.52326in"
		viewBox="0 0 333.445 541.675" xml:space="preserve" color-interpolation-filters="sRGB" class="st7">
	<title>y10.0063</title>
	<v:documentProperties v:langID="1028" v:metric="true" v:viewMarkup="false"/>

	<style type="text/css">
	<![CDATA[
		.st1 {stroke:#000000;stroke-linecap:round;stroke-linejoin:round;stroke-width:0.72}
		.st2 {stroke:#000000;stroke-dasharray:5.04,3.6;stroke-linecap:round;stroke-linejoin:round;stroke-width:0.72}
		.st3 {stroke:#000000;stroke-dasharray:10.8,6.48;stroke-linecap:round;stroke-linejoin:round;stroke-width:0.72}
		.st4 {fill:none;stroke:none;stroke-linecap:round;stroke-linejoin:round;stroke-width:0.72}
		.st5 {fill:#000000;font-family:新細明體;font-size:1.33333em}
		.st6 {fill:#e8eef7;stroke:#000000;stroke-linecap:round;stroke-linejoin:round;stroke-width:0.24}
		.st7 {fill:none;fill-rule:evenodd;font-size:12px;overflow:visible;stroke-linecap:square;stroke-miterlimit:3}
	]]>
	</style>

	<g v:mID="0" v:index="1" v:groupContext="foregroundPage">
		<title>Page-1</title>
		<v:pageProperties v:drawingScale="0.0393701" v:pageScale="0.0393701" v:drawingUnits="24" v:shadowOffsetX="8.50394"
				v:shadowOffsetY="-8.50394"/>
		<g id="shape45-1" v:mID="45" v:groupContext="shape" transform="translate(553.907,442.309) rotate(116.3)">
			<title>工作表.45</title>
			<path d="M3.09 436.47 L1.58 438.11 A2.1326 2.1326 -180 0 0 1.58 441 L1.58 441 A2.1326 2.1326 0 0 1 1.58 443.88 L1.44
						 444.04 A2.36109 2.36109 -180 0 0 1.44 447.23 L1.44 447.23 A2.36109 2.36109 0 0 1 1.44 450.42 L1.44 450.42
						 A2.36109 2.36109 -180 0 0 1.44 453.61 L1.77 453.97 A1.98027 1.98027 0 0 1 1.77 456.65 L1.77 456.65 A1.98027
						 1.98027 -180 0 0 1.77 459.33 L1.77 459.33 A2.26967 2.26967 0 0 1 1.86 462.29 L1.49 462.75 A2.26967 2.26967
						 -180 0 0 1.58 465.71 L1.58 465.71 A2.1326 2.1326 0 0 1 1.58 468.6 L1.39 468.8 A2.28492 2.28492 -180 0 0
						 1.39 471.89 L1.53 472.05 A2.05643 2.05643 0 0 1 1.53 474.83 L1.53 474.83 A2.05643 2.05643 -180 0 0 1.53
						 477.61 L1.58 477.66 A2.43725 2.43725 0 0 1 1.58 480.96 L1.44 481.11 A2.20876 2.20876 -180 0 0 1.44 484.1
						 L1.44 484.1 A2.20876 2.20876 0 0 1 1.44 487.08 L1.44 487.08 A2.36109 2.36109 -180 0 0 1.44 490.28 L1.53
						 490.38 A2.36109 2.36109 0 0 1 1.53 493.57 L1.39 493.73 A2.1326 2.1326 -180 0 0 1.39 496.61 L1.39 496.61
						 A2.1326 2.1326 0 0 1 1.39 499.49 L1.39 499.49 A2.28492 2.28492 -180 0 0 1.39 502.58 L1.53 502.74 A2.36109
						 2.36109 0 0 1 1.53 505.93 L1.53 505.93 A2.36109 2.36109 -180 0 0 1.53 509.12 L1.62 509.22 A2.20876 2.20876
						 0 0 1 1.62 512.21 L1.62 512.21 A2.20876 2.20876 -180 0 0 1.62 515.2 L1.62 515.2 A2.36109 2.36109 0 0 1 1.62
						 518.39 L1.48 518.54 A2.1326 2.1326 -180 0 0 1.48 521.43 L1.48 521.43 A2.1326 2.1326 0 0 1 1.48 524.31 L1.39
						 524.41 A2.43725 2.43725 -180 0 0 1.39 527.71 L1.62 527.97 A2.05643 2.05643 0 0 1 1.62 530.75 L1.62 530.75
						 A2.05643 2.05643 -180 0 0 1.62 533.53 L1.67 533.58 A2.43725 2.43725 0 0 1 1.67 536.88 L1.23 537.36 A4.38001
						 4.38001 -180 0 0 0.08 540.1 L0 541.67" class="st1"/>
		</g>
		<g id="shape47-4" v:mID="47" v:groupContext="shape" transform="translate(-78.2931,731.956) rotate(-153.354)">
			<title>工作表.47</title>
			<path d="M0 541.67 L101.43 541.67" class="st2"/>
		</g>
		<g id="shape46-7" v:mID="46" v:groupContext="shape" transform="translate(-69.7958,743.354) rotate(-153.36)">
			<title>工作表.46</title>
			<path d="M0 541.67 L126.88 541.67" class="st1"/>
		</g>
		<g id="shape44-10" v:mID="44" v:groupContext="shape" transform="translate(554.505,-24.3651) rotate(66.1)">
			<title>工作表.44</title>
			<path d="M3.21 420.18 L1.7 422.08 A2.68333 2.68333 -180 0 0 1.7 425.42 L1.7 425.42 A2.68333 2.68333 0 0 1 1.7 428.75
						 L1.56 428.93 A2.97083 2.97083 -180 0 0 1.56 432.63 L1.56 432.63 A2.97083 2.97083 0 0 1 1.56 436.32 L1.56
						 436.32 A2.97083 2.97083 -180 0 0 1.56 440.01 L1.89 440.43 A2.49167 2.49167 0 0 1 1.89 443.52 L1.89 443.52
						 A2.49167 2.49167 -180 0 0 1.89 446.62 L1.89 446.62 A2.85503 2.85503 0 0 1 1.99 450.03 L1.6 450.59 A2.85503
						 2.85503 -180 0 0 1.7 454.01 L1.7 454.01 A2.68333 2.68333 0 0 1 1.7 457.34 L1.51 457.58 A2.875 2.875 -180
						 0 0 1.51 461.15 L1.65 461.33 A2.5875 2.5875 0 0 1 1.65 464.55 L1.65 464.55 A2.5875 2.5875 -180 0 0 1.65
						 467.76 L1.7 467.82 A3.06667 3.06667 0 0 1 1.7 471.64 L1.56 471.81 A2.77917 2.77917 -180 0 0 1.56 475.27
						 L1.56 475.27 A2.77917 2.77917 0 0 1 1.56 478.72 L1.56 478.72 A2.97083 2.97083 -180 0 0 1.56 482.42 L1.65
						 482.53 A2.97083 2.97083 0 0 1 1.65 486.23 L1.51 486.41 A2.68333 2.68333 -180 0 0 1.51 489.74 L1.51 489.74
						 A2.68333 2.68333 0 0 1 1.51 493.08 L1.51 493.08 A2.875 2.875 -180 0 0 1.51 496.65 L1.65 496.83 A2.97083
						 2.97083 0 0 1 1.65 500.52 L1.65 500.52 A2.97083 2.97083 -180 0 0 1.65 504.21 L1.75 504.33 A2.77917 2.77917
						 0 0 1 1.75 507.79 L1.75 507.79 A2.77917 2.77917 -180 0 0 1.75 511.24 L1.75 511.24 A2.97083 2.97083 0 0 1
						 1.75 514.93 L1.61 515.11 A2.68333 2.68333 -180 0 0 1.61 518.45 L1.61 518.45 A2.68333 2.68333 0 0 1 1.61
						 521.78 L1.51 521.9 A3.06667 3.06667 -180 0 0 1.51 525.71 L1.75 526.01 A2.5875 2.5875 0 0 1 1.75 529.23 L1.75
						 529.23 A2.5875 2.5875 -180 0 0 1.75 532.44 L1.8 532.5 A3.06667 3.06667 0 0 1 1.8 536.31 L1.69 536.45 A2.7608
						 2.7608 -180 0 0 1.75 539.95 L3.21 541.67" class="st1"/>
		</g>
		<g id="shape43-13" v:mID="43" v:groupContext="shape" transform="translate(601.357,199.66) rotate(90.1)">
			<title>工作表.43</title>
			<path d="M2.35 428.17 L0.84 429.9 A2.30907 2.30907 -180 0 0 0.84 432.94 L0.84 432.94 A2.30907 2.30907 0 0 1 0.84 435.97
						 L0.7 436.13 A2.55647 2.55647 -180 0 0 0.7 439.49 L0.7 439.49 A2.55647 2.55647 0 0 1 0.7 442.85 L0.7 442.85
						 A2.55647 2.55647 -180 0 0 0.7 446.21 L1.03 446.59 A2.14413 2.14413 0 0 1 1.03 449.41 L1.03 449.41 A2.14413
						 2.14413 -180 0 0 1.03 452.23 L1.03 452.23 A2.45724 2.45724 0 0 1 1.12 455.34 L0.74 455.83 A2.45724 2.45724
						 -180 0 0 0.84 458.95 L0.84 458.95 A2.30907 2.30907 0 0 1 0.84 461.98 L0.65 462.2 A2.474 2.474 -180 0 0 0.65
						 465.45 L0.79 465.61 A2.2266 2.2266 0 0 1 0.79 468.54 L0.79 468.54 A2.2266 2.2266 -180 0 0 0.79 471.47 L0.84
						 471.52 A2.63893 2.63893 0 0 1 0.84 474.99 L0.7 475.15 A2.39153 2.39153 -180 0 0 0.7 478.29 L0.7 478.29 A2.39153
						 2.39153 0 0 1 0.7 481.44 L0.7 481.44 A2.55647 2.55647 -180 0 0 0.7 484.8 L0.79 484.91 A2.55647 2.55647 0
						 0 1 0.79 488.27 L0.65 488.43 A2.30907 2.30907 -180 0 0 0.65 491.46 L0.65 491.46 A2.30907 2.30907 0 0 1 0.65
						 494.5 L0.65 494.5 A2.474 2.474 -180 0 0 0.65 497.75 L0.79 497.91 A2.55647 2.55647 0 0 1 0.79 501.27 L0.79
						 501.27 A2.55647 2.55647 -180 0 0 0.79 504.63 L0.89 504.74 A2.39153 2.39153 0 0 1 0.89 507.88 L0.89 507.88
						 A2.39153 2.39153 -180 0 0 0.89 511.03 L0.89 511.03 A2.55647 2.55647 0 0 1 0.89 514.39 L0.74 514.55 A2.30907
						 2.30907 -180 0 0 0.74 517.58 L0.74 517.58 A2.30907 2.30907 0 0 1 0.74 520.62 L0.65 520.73 A2.63893 2.63893
						 -180 0 0 0.65 524.19 L0.89 524.47 A2.2266 2.2266 0 0 1 0.89 527.39 L0.89 527.39 A2.2266 2.2266 -180 0 0
						 0.89 530.32 L0.93 530.37 A2.63893 2.63893 0 0 1 0.93 533.84 L0.83 533.96 A2.38316 2.38316 -180 0 0 0.89
						 537.15 L1.2 537.49 A2.33721 2.33721 0 0 1 1.55 540.2 L0.74 541.67" class="st1"/>
		</g>
		<g id="shape42-16" v:mID="42" v:groupContext="shape" transform="translate(172.239,744.166) rotate(-179.9)">
			<title>工作表.42</title>
			<path d="M0 541.67 L113.51 541.67" class="st1"/>
		</g>
		<g id="shape41-19" v:mID="41" v:groupContext="shape" transform="translate(547.163,-92.4569) rotate(64.3)">
			<title>工作表.41</title>
			<path d="M3.21 419.96 L1.7 421.87 A2.69114 2.69114 -180 0 0 1.7 425.21 L1.7 425.21 A2.69114 2.69114 0 0 1 1.7 428.55
						 L1.56 428.73 A2.97948 2.97948 -180 0 0 1.56 432.43 L1.56 432.43 A2.97948 2.97948 0 0 1 1.56 436.13 L1.56
						 436.13 A2.97948 2.97948 -180 0 0 1.56 439.83 L1.89 440.24 A2.49892 2.49892 0 0 1 1.89 443.35 L1.89 443.35
						 A2.49892 2.49892 -180 0 0 1.89 446.45 L1.89 446.45 A2.86333 2.86333 0 0 1 1.99 449.87 L1.6 450.43 A2.86333
						 2.86333 -180 0 0 1.7 453.85 L1.7 453.85 A2.69114 2.69114 0 0 1 1.7 457.19 L1.51 457.43 A2.88337 2.88337
						 -180 0 0 1.51 461.01 L1.65 461.19 A2.59503 2.59503 0 0 1 1.65 464.41 L1.65 464.41 A2.59503 2.59503 -180
						 0 0 1.65 467.63 L1.7 467.69 A3.07559 3.07559 0 0 1 1.7 471.51 L1.56 471.69 A2.78726 2.78726 -180 0 0 1.56
						 475.15 L1.56 475.15 A2.78726 2.78726 0 0 1 1.56 478.61 L1.56 478.61 A2.97948 2.97948 -180 0 0 1.56 482.31
						 L1.65 482.43 A2.97948 2.97948 0 0 1 1.65 486.13 L1.51 486.31 A2.69114 2.69114 -180 0 0 1.51 489.65 L1.51
						 489.65 A2.69114 2.69114 0 0 1 1.51 492.99 L1.51 492.99 A2.88337 2.88337 -180 0 0 1.51 496.57 L1.65 496.75
						 A2.97948 2.97948 0 0 1 1.65 500.45 L1.65 500.45 A2.97948 2.97948 -180 0 0 1.65 504.15 L1.75 504.26 A2.78726
						 2.78726 0 0 1 1.75 507.73 L1.75 507.73 A2.78726 2.78726 -180 0 0 1.75 511.19 L1.75 511.19 A2.97948 2.97948
						 0 0 1 1.75 514.89 L1.61 515.06 A2.69114 2.69114 -180 0 0 1.61 518.41 L1.61 518.41 A2.69114 2.69114 0 0 1
						 1.61 521.75 L1.51 521.87 A3.07559 3.07559 -180 0 0 1.51 525.68 L1.75 525.98 A2.59503 2.59503 0 0 1 1.75
						 529.2 L1.75 529.2 A2.59503 2.59503 -180 0 0 1.75 532.43 L1.8 532.49 A3.07559 3.07559 0 0 1 1.8 536.3 L1.69
						 536.44 A2.76867 2.76867 -180 0 0 1.75 539.94 L3.21 541.67" class="st1"/>
		</g>
		<g id="shape39-22" v:mID="39" v:groupContext="shape" transform="translate(404.758,528.179) rotate(153.611)">
			<title>工作表.39</title>
			<path d="M0 541.67 L103.45 541.67" class="st2"/>
		</g>
		<g id="shape40-25" v:mID="40" v:groupContext="shape" transform="translate(552.96,-152.834) rotate(63.9)">
			<title>工作表.40</title>
			<path d="M3.21 432.18 L1.7 433.9 A2.27452 2.27452 -180 0 0 1.7 436.91 L1.7 436.91 A2.27452 2.27452 0 0 1 1.7 439.91 L1.56
						 440.07 A2.51821 2.51821 -180 0 0 1.56 443.4 L1.56 443.4 A2.51821 2.51821 0 0 1 1.56 446.73 L1.56 446.73
						 A2.51821 2.51821 -180 0 0 1.56 450.06 L1.89 450.43 A2.11205 2.11205 0 0 1 1.89 453.22 L1.89 453.22 A2.11205
						 2.11205 -180 0 0 1.89 456.01 L1.89 456.01 A2.42052 2.42052 0 0 1 1.98 459.1 L1.61 459.58 A2.42052 2.42052
						 -180 0 0 1.7 462.67 L1.7 462.67 A2.27452 2.27452 0 0 1 1.7 465.67 L1.51 465.89 A2.43698 2.43698 -180 0 0
						 1.51 469.11 L1.65 469.27 A2.19328 2.19328 0 0 1 1.65 472.17 L1.65 472.17 A2.19328 2.19328 -180 0 0 1.65
						 475.07 L1.7 475.12 A2.59945 2.59945 0 0 1 1.7 478.56 L1.56 478.72 A2.35575 2.35575 -180 0 0 1.56 481.83
						 L1.56 481.83 A2.35575 2.35575 0 0 1 1.56 484.94 L1.56 484.94 A2.51821 2.51821 -180 0 0 1.56 488.27 L1.65
						 488.38 A2.51821 2.51821 0 0 1 1.65 491.71 L1.51 491.87 A2.27452 2.27452 -180 0 0 1.51 494.87 L1.51 494.87
						 A2.27452 2.27452 0 0 1 1.51 497.88 L1.51 497.88 A2.43698 2.43698 -180 0 0 1.51 501.1 L1.65 501.26 A2.51821
						 2.51821 0 0 1 1.65 504.59 L1.65 504.59 A2.51821 2.51821 -180 0 0 1.65 507.91 L1.75 508.02 A2.35575 2.35575
						 0 0 1 1.75 511.14 L1.75 511.14 A2.35575 2.35575 -180 0 0 1.75 514.25 L1.75 514.25 A2.51821 2.51821 0 0 1
						 1.75 517.58 L1.61 517.74 A2.27452 2.27452 -180 0 0 1.61 520.74 L1.61 520.74 A2.27452 2.27452 0 0 1 1.61
						 523.75 L1.51 523.86 A2.59945 2.59945 -180 0 0 1.51 527.29 L1.75 527.56 A2.19328 2.19328 0 0 1 1.75 530.46
						 L1.75 530.46 A2.19328 2.19328 -180 0 0 1.75 533.36 L1.8 533.41 A2.59945 2.59945 0 0 1 1.8 536.84 L1.7 536.96
						 A2.34826 2.34826 -180 0 0 1.75 540.12 L3.21 541.67" class="st1"/>
		</g>
		<g id="shape38-28" v:mID="38" v:groupContext="shape" transform="translate(414.671,517.428) rotate(153.56)">
			<title>工作表.38</title>
			<path d="M0 541.67 L126.88 541.67" class="st1"/>
		</g>
		<g id="shape34-31" v:mID="34" v:groupContext="shape" transform="translate(-59.8724,634.726) rotate(-154.505)">
			<title>工作表.34</title>
			<path d="M0 541.67 L125.65 541.67" class="st2"/>
		</g>
		<g id="shape36-34" v:mID="36" v:groupContext="shape" transform="translate(172.437,630.78) rotate(-179.9)">
			<title>工作表.36</title>
			<path d="M0 541.67 L113.51 541.67" class="st1"/>
		</g>
		<g id="shape33-37" v:mID="33" v:groupContext="shape" transform="translate(-69.6969,686.661) rotate(-153.36)">
			<title>工作表.33</title>
			<path d="M0 541.67 L126.88 541.67" class="st2"/>
		</g>
		<g id="shape32-40" v:mID="32" v:groupContext="shape" transform="translate(271.451,744.339) rotate(-179.9)">
			<title>工作表.32</title>
			<path d="M0 541.67 L99.21 541.67" class="st2"/>
		</g>
		<g id="shape31-43" v:mID="31" v:groupContext="shape" transform="translate(271.55,687.646) rotate(-179.9)">
			<title>工作表.31</title>
			<path d="M0 541.67 L212.72 541.67" class="st1"/>
		</g>
		<g id="shape24-46" v:mID="24" v:groupContext="shape" transform="translate(715.155,33.3586) rotate(90.1)">
			<title>工作表.24</title>
			<path d="M0 541.67 L283.46 541.67" class="st3"/>
		</g>
		<g id="shape1-49" v:mID="1" v:groupContext="shape" transform="translate(274.158,-431.684)">
			<title>工作表.1</title>
			<desc>初念</desc>
			<v:textBlock v:margins="rect(4,4,4,4)" v:tabSpace="42.5197"/>
			<v:textRect cx="20.2835" cy="521.001" width="40.57" height="41.3465"/>
			<rect x="0" y="500.328" width="40.5669" height="41.3465" class="st4"/>
			<text x="4.28" y="525.98" class="st5" v:langID="1028"><v:paragraph v:horizAlign="1"/><v:tabList/>初念</text>		</g>
		<g id="shape2-52" v:mID="2" v:groupContext="shape" transform="translate(274.059,-374.991)">
			<title>工作表.2</title>
			<desc>次念</desc>
			<v:textBlock v:margins="rect(4,4,4,4)" v:tabSpace="42.5197"/>
			<v:textRect cx="20.2835" cy="521.001" width="40.57" height="41.3465"/>
			<rect x="0" y="500.328" width="40.5669" height="41.3465" class="st4"/>
			<text x="4.28" y="525.98" class="st5" v:langID="1028"><v:paragraph v:horizAlign="1"/><v:tabList/>次念</text>		</g>
		<g id="shape3-55" v:mID="3" v:groupContext="shape" transform="translate(273.96,-318.298)">
			<title>工作表.3</title>
			<desc>後念</desc>
			<v:textBlock v:margins="rect(4,4,4,4)" v:tabSpace="42.5197"/>
			<v:textRect cx="20.2835" cy="521.001" width="40.57" height="41.3465"/>
			<rect x="0" y="500.328" width="40.5669" height="41.3465" class="st4"/>
			<text x="4.28" y="525.98" class="st5" v:langID="1028"><v:paragraph v:horizAlign="1"/><v:tabList/>後念</text>		</g>
		<g id="shape4-58" v:mID="4" v:groupContext="shape" transform="translate(-111.194,528.325) rotate(-134.9)">
			<title>工作表.4</title>
			<path d="M0 541.67 L40.09 541.67" class="st1"/>
		</g>
		<g id="shape5-61" v:mID="5" v:groupContext="shape" transform="translate(-138.154,-266.114) rotate(-44.9)">
			<title>工作表.5</title>
			<path d="M0 541.67 L40.09 541.67" class="st1"/>
		</g>
		<g id="shape6-64" v:mID="6" v:groupContext="shape" transform="translate(-111.293,585.018) rotate(-134.9)">
			<title>工作表.6</title>
			<path d="M0 541.67 L40.09 541.67" class="st1"/>
		</g>
		<g id="shape7-67" v:mID="7" v:groupContext="shape" transform="translate(-111.095,471.632) rotate(-134.9)">
			<title>工作表.7</title>
			<path d="M0 541.67 L40.09 541.67" class="st1"/>
		</g>
		<g id="shape8-70" v:mID="8" v:groupContext="shape" transform="translate(-138.253,-209.421) rotate(-44.9)">
			<title>工作表.8</title>
			<path d="M0 541.67 L40.09 541.67" class="st1"/>
		</g>
		<g id="shape9-73" v:mID="9" v:groupContext="shape" transform="translate(-138.352,-152.728) rotate(-44.9)">
			<title>工作表.9</title>
			<path d="M0 541.67 L40.09 541.67" class="st1"/>
		</g>
		<g id="shape10-76" v:mID="10" v:groupContext="shape" transform="translate(801.621,316.05) rotate(90)">
			<title>工作表.10</title>
			<desc>剎那生滅</desc>
			<v:textBlock v:margins="rect(4,4,4,4)" v:tabSpace="42.5197"/>
			<v:textRect cx="36.2283" cy="529.486" width="72.46" height="24.378"/>
			<rect x="0" y="517.297" width="72.4567" height="24.378" class="st4"/>
			<text x="4.23" y="534.47" class="st5" v:langID="1028"><v:paragraph v:horizAlign="1"/><v:tabList/>剎那生滅</text>		</g>
		<g id="shape11-79" v:mID="11" v:groupContext="shape" transform="translate(814.269,90.2246) rotate(90.1)">
			<title>工作表.11</title>
			<path d="M0 541.67 L226.77 541.67" class="st3"/>
		</g>
		<g id="shape12-82" v:mID="12" v:groupContext="shape" transform="translate(748.492,316.001) rotate(90)">
			<title>工作表.12</title>
			<desc>假名相續</desc>
			<v:textBlock v:margins="rect(4,4,4,4)" v:tabSpace="42.5197"/>
			<v:textRect cx="36.2283" cy="504.702" width="72.46" height="73.9449"/>
			<rect x="0" y="467.73" width="72.4567" height="73.9449" class="st4"/>
			<text x="4.23" y="509.69" class="st5" v:langID="1028"><v:paragraph v:horizAlign="1"/><v:tabList/>假名相續</text>		</g>
		<g id="shape13-85" v:mID="13" v:groupContext="shape" transform="translate(785.972,61.8287) rotate(90.1)">
			<title>工作表.13</title>
			<path d="M0 541.67 L255.12 541.67" class="st3"/>
		</g>
		<g id="shape14-88" v:mID="14" v:groupContext="shape" transform="translate(813.749,387.862) rotate(90.1)">
			<title>工作表.14</title>
			<path d="M0 541.67 L7.09 541.67" class="st1"/>
		</g>
		<g id="shape15-91" v:mID="15" v:groupContext="shape" transform="translate(785.403,387.812) rotate(90.1)">
			<title>工作表.15</title>
			<path d="M0 541.67 L7.09 541.67" class="st1"/>
		</g>
		<g id="shape16-94" v:mID="16" v:groupContext="shape" transform="translate(271.117,935.677) rotate(-179.9)">
			<title>工作表.16</title>
			<path d="M0 541.67 L28.35 541.67" class="st1"/>
		</g>
		<g id="shape17-97" v:mID="17" v:groupContext="shape" transform="translate(799.564,394.924) rotate(90.1)">
			<title>工作表.17</title>
			<path d="M0 541.67 L7.09 541.67" class="st1"/>
		</g>
		<g id="shape18-100" v:mID="18" v:groupContext="shape" transform="translate(787.257,401.065) rotate(90)">
			<title>工作表.18</title>
			<desc>作用現象界</desc>
			<v:textBlock v:margins="rect(4,4,4,4)" v:tabSpace="42.5197"/>
			<v:textRect cx="60.9449" cy="529.486" width="121.89" height="24.378"/>
			<rect x="0" y="517.297" width="121.89" height="24.378" class="st4"/>
			<text x="4.95" y="534.47" class="st5" v:langID="1028"><v:paragraph v:horizAlign="1"/><v:tabList/>作用（現象界）</text>		</g>
		<g id="shape25-103" v:mID="25" v:groupContext="shape" transform="translate(677.625,315.877) rotate(90)">
			<title>工作表.25</title>
			<desc>法住法性</desc>
			<v:textBlock v:margins="rect(4,4,4,4)" v:tabSpace="42.5197"/>
			<v:textRect cx="36.2283" cy="504.702" width="72.46" height="73.9449"/>
			<rect x="0" y="467.73" width="72.4567" height="73.9449" class="st4"/>
			<text x="4.23" y="509.69" class="st5" v:langID="1028"><v:paragraph v:horizAlign="1"/><v:tabList/>法住法性</text>		</g>
		<g id="shape26-106" v:mID="26" v:groupContext="shape" transform="translate(588.901,315.679) rotate(90)">
			<title>工作表.26</title>
			<desc>性類差別</desc>
			<v:textBlock v:margins="rect(4,4,4,4)" v:tabSpace="42.5197"/>
			<v:textRect cx="36.2283" cy="529.486" width="72.46" height="24.378"/>
			<rect x="0" y="517.297" width="72.4567" height="24.378" class="st4"/>
			<text x="4.23" y="534.47" class="st5" v:langID="1028"><v:paragraph v:horizAlign="1"/><v:tabList/>性類差別</text>		</g>
		<g id="shape27-109" v:mID="27" v:groupContext="shape" transform="translate(18.9179,-432.13)">
			<title>工作表.27</title>
			<desc>過去</desc>
			<v:textBlock v:margins="rect(4,4,4,4)" v:tabSpace="42.5197"/>
			<v:textRect cx="20.2835" cy="521.001" width="40.57" height="41.3465"/>
			<rect x="0" y="500.328" width="40.5669" height="41.3465" class="st4"/>
			<text x="4.28" y="525.98" class="st5" v:langID="1028"><v:paragraph v:horizAlign="1"/><v:tabList/>過去</text>		</g>
		<g id="shape28-112" v:mID="28" v:groupContext="shape" transform="translate(18.8189,-375.437)">
			<title>工作表.28</title>
			<desc>現在</desc>
			<v:textBlock v:margins="rect(4,4,4,4)" v:tabSpace="42.5197"/>
			<v:textRect cx="20.2835" cy="521.001" width="40.57" height="41.3465"/>
			<rect x="0" y="500.328" width="40.5669" height="41.3465" class="st4"/>
			<text x="4.28" y="525.98" class="st5" v:langID="1028"><v:paragraph v:horizAlign="1"/><v:tabList/>現在</text>		</g>
		<g id="shape29-115" v:mID="29" v:groupContext="shape" transform="translate(18.72,-318.744)">
			<title>工作表.29</title>
			<desc>未來</desc>
			<v:textBlock v:margins="rect(4,4,4,4)" v:tabSpace="42.5197"/>
			<v:textRect cx="20.2835" cy="521.001" width="40.57" height="41.3465"/>
			<rect x="0" y="500.328" width="40.5669" height="41.3465" class="st4"/>
			<text x="4.28" y="525.98" class="st5" v:langID="1028"><v:paragraph v:horizAlign="1"/><v:tabList/>未來</text>		</g>
		<g id="shape30-118" v:mID="30" v:groupContext="shape" transform="translate(601.548,89.8533) rotate(90.1)">
			<title>工作表.30</title>
			<path d="M0 541.67 L226.77 541.67" class="st3"/>
		</g>
		<g id="shape35-121" v:mID="35" v:groupContext="shape" transform="translate(729.235,86.8636) rotate(90.1)">
			<title>工作表.35</title>
			<path d="M3.21 456.64 L1.7 457.97 A1.55661 1.55661 -180 0 0 1.7 460.3 L1.7 460.3 A1.55661 1.55661 0 0 1 1.7 462.64 L1.56
						 462.76 A1.72339 1.72339 -180 0 0 1.56 465.35 L1.56 465.35 A1.72339 1.72339 0 0 1 1.56 467.93 L1.56 467.93
						 A1.72339 1.72339 -180 0 0 1.56 470.52 L1.89 470.81 A1.44543 1.44543 0 0 1 1.89 472.98 L1.89 472.98 A1.44543
						 1.44543 -180 0 0 1.89 475.14 L1.89 475.14 A1.65734 1.65734 0 0 1 1.97 477.56 L1.63 477.9 A1.65734 1.65734
						 -180 0 0 1.7 480.31 L1.7 480.31 A1.55661 1.55661 0 0 1 1.7 482.65 L1.51 482.81 A1.6678 1.6678 -180 0 0 1.51
						 485.32 L1.65 485.44 A1.50102 1.50102 0 0 1 1.65 487.69 L1.65 487.69 A1.50102 1.50102 -180 0 0 1.65 489.94
						 L1.7 489.98 A1.77899 1.77899 0 0 1 1.7 492.65 L1.56 492.78 A1.61221 1.61221 -180 0 0 1.56 495.19 L1.56 495.19
						 A1.61221 1.61221 0 0 1 1.56 497.61 L1.56 497.61 A1.72339 1.72339 -180 0 0 1.56 500.2 L1.65 500.28 A1.72339
						 1.72339 0 0 1 1.65 502.87 L1.51 502.99 A1.55661 1.55661 -180 0 0 1.51 505.32 L1.51 505.32 A1.55661 1.55661
						 0 0 1 1.51 507.66 L1.51 507.66 A1.6678 1.6678 -180 0 0 1.51 510.16 L1.65 510.29 A1.72339 1.72339 0 0 1 1.65
						 512.87 L1.65 512.87 A1.72339 1.72339 -180 0 0 1.65 515.45 L1.75 515.54 A1.61221 1.61221 0 0 1 1.75 517.96
						 L1.75 517.96 A1.61221 1.61221 -180 0 0 1.75 520.37 L1.75 520.37 A1.72339 1.72339 0 0 1 1.75 522.96 L1.61
						 523.08 A1.55661 1.55661 -180 0 0 1.61 525.42 L1.61 525.42 A1.55661 1.55661 0 0 1 1.61 527.75 L1.51 527.83
						 A1.77899 1.77899 -180 0 0 1.51 530.5 L1.75 530.71 A1.50102 1.50102 0 0 1 1.75 532.96 L1.75 532.96 A1.50102
						 1.50102 -180 0 0 1.75 535.21 L1.8 535.26 A1.77899 1.77899 0 0 1 1.8 537.92 L1.71 538 A1.62082 1.62082 -180
						 0 0 1.75 540.47 L3.21 541.67" class="st1"/>
		</g>
		<g id="shape19-124" v:mID="19" v:groupContext="shape" transform="translate(700.908,75.8535) rotate(90.1)">
			<title>圓形</title>
			<v:userDefs>
				<v:ud v:nameU="visVersion" v:val="VT0(11):26"/>
			</v:userDefs>
			<path d="M0 527.5 A14.1732 14.1732 0 1 1 28.35 527.5 A14.1732 14.1732 0 0 1 -0 527.5 Z" class="st6"/>
		</g>
		<g id="shape20-126" v:mID="20" v:groupContext="shape" transform="translate(701.007,19.1607) rotate(90.1)">
			<title>圓形.20</title>
			<v:userDefs>
				<v:ud v:nameU="visVersion" v:val="VT0(11):26"/>
			</v:userDefs>
			<path d="M0 527.5 A14.1732 14.1732 0 1 1 28.35 527.5 A14.1732 14.1732 0 0 1 -0 527.5 Z" class="st6"/>
		</g>
		<g id="shape21-128" v:mID="21" v:groupContext="shape" transform="translate(700.809,132.546) rotate(90.1)">
			<title>圓形.21</title>
			<v:userDefs>
				<v:ud v:nameU="visVersion" v:val="VT0(11):26"/>
			</v:userDefs>
			<path d="M0 527.5 A14.1732 14.1732 0 1 1 28.35 527.5 A14.1732 14.1732 0 0 1 -0 527.5 Z" class="st6"/>
		</g>
		<g id="shape22-130" v:mID="22" v:groupContext="shape" transform="translate(700.71,189.239) rotate(90.1)">
			<title>圓形.22</title>
			<v:userDefs>
				<v:ud v:nameU="visVersion" v:val="VT0(11):26"/>
			</v:userDefs>
			<path d="M0 527.5 A14.1732 14.1732 0 1 1 28.35 527.5 A14.1732 14.1732 0 0 1 -0 527.5 Z" class="st6"/>
		</g>
		<g id="shape23-132" v:mID="23" v:groupContext="shape" transform="translate(700.611,245.932) rotate(90.1)">
			<title>圓形.23</title>
			<v:userDefs>
				<v:ud v:nameU="visVersion" v:val="VT0(11):26"/>
			</v:userDefs>
			<path d="M0 527.5 A14.1732 14.1732 0 1 1 28.35 527.5 A14.1732 14.1732 0 0 1 -0 527.5 Z" class="st6"/>
		</g>
		<g id="shape37-134" v:mID="37" v:groupContext="shape" transform="translate(159.048,633.466) rotate(-179.956)">
			<title>工作表.37</title>
			<path d="M0 541.67 L99.6 541.67" class="st2"/>
		</g>
		<g id="shape48-137" v:mID="48" v:groupContext="shape" transform="translate(714.537,387.689) rotate(90.1)">
			<title>工作表.48</title>
			<path d="M0 541.67 L7.09 541.67" class="st1"/>
		</g>
		<g id="shape49-140" v:mID="49" v:groupContext="shape" transform="translate(601.029,387.491) rotate(90.1)">
			<title>工作表.49</title>
			<path d="M0 541.67 L7.09 541.67" class="st1"/>
		</g>
		<g id="shape50-143" v:mID="50" v:groupContext="shape" transform="translate(171.905,935.504) rotate(-179.9)">
			<title>工作表.50</title>
			<path d="M0 541.67 L113.51 541.67" class="st1"/>
		</g>
		<g id="shape51-146" v:mID="51" v:groupContext="shape" transform="translate(657.831,394.676) rotate(90.1)">
			<title>工作表.51</title>
			<path d="M0 541.67 L7.09 541.67" class="st1"/>
		</g>
		<g id="shape52-149" v:mID="52" v:groupContext="shape" transform="translate(594.936,400.818) rotate(90)">
			<title>工作表.52</title>
			<desc>法體本體界</desc>
			<v:textBlock v:margins="rect(4,4,4,4)" v:tabSpace="42.5197"/>
			<v:textRect cx="60.9449" cy="478.897" width="121.89" height="125.555"/>
			<rect x="0" y="416.12" width="121.89" height="125.555" class="st4"/>
			<text x="4.95" y="483.88" class="st5" v:langID="1028"><v:paragraph v:horizAlign="1"/><v:tabList/>法體（本體界）</text>		</g>
	</g>
</svg>
