<?xml version="1.0" encoding="UTF-8" standalone="no"?>
<!DOCTYPE svg PUBLIC "-//W3C//DTD SVG 1.0//EN" "http://www.w3.org/TR/2001/REC-SVG-20010904/DTD/svg10.dtd">
<!-- 由 Microsoft Visio 11.0, SVG Export, v1.0 產生 y10.0084-h.svg Page-1 -->
<svg xmlns="http://www.w3.org/2000/svg" xmlns:xlink="http://www.w3.org/1999/xlink" xmlns:ev="http://www.w3.org/2001/xml-events"
		xmlns:v="http://schemas.microsoft.com/visio/2003/SVGExtensions/" width="7.18157in" height="3.56475in"
		viewBox="0 0 517.073 256.662" xml:space="preserve" color-interpolation-filters="sRGB" class="st5">
	<title>y10.0084</title>
	<v:documentProperties v:langID="1028" v:metric="true" v:viewMarkup="false"/>

	<style type="text/css">
	<![CDATA[
		.st1 {fill:none;stroke:none;stroke-linecap:round;stroke-linejoin:round;stroke-width:0.72}
		.st2 {fill:#000000;font-family:新細明體;font-size:1.33333em}
		.st3 {stroke:#000000;stroke-linecap:round;stroke-linejoin:round;stroke-width:0.72}
		.st4 {stroke:#ffffff;stroke-linecap:round;stroke-linejoin:round;stroke-width:0.72}
		.st5 {fill:none;fill-rule:evenodd;font-size:12px;overflow:visible;stroke-linecap:square;stroke-miterlimit:3}
	]]>
	</style>

	<g v:mID="0" v:index="1" v:groupContext="foregroundPage">
		<title>Page-1</title>
		<v:pageProperties v:drawingScale="0.0393701" v:pageScale="0.0393701" v:drawingUnits="24" v:shadowOffsetX="8.50394"
				v:shadowOffsetY="-8.50394"/>
		<g id="shape1-1" v:mID="1" v:groupContext="shape" transform="translate(36.2147,-18.72)">
			<title>工作表.1</title>
			<desc>大眾分別說犢子</desc>
			<v:textBlock v:margins="rect(4,4,4,4)" v:tabSpace="42.5197"/>
			<v:textRect cx="60.3228" cy="194.532" width="120.65" height="124.26"/>
			<rect x="0" y="132.402" width="120.646" height="124.26" class="st1"/>
			<text x="4.32" y="199.52" class="st2" v:langID="1028"><v:paragraph v:horizAlign="1"/><v:tabList/>大眾分別說犢子</text>		</g>
		<g id="shape2-4" v:mID="2" v:groupContext="shape" transform="translate(389.285,-34.7894)">
			<title>工作表.2</title>
			<desc>別體同時起</desc>
			<v:textBlock v:margins="rect(4,4,4,4)" v:tabSpace="42.5197"/>
			<v:textRect cx="44.3346" cy="211.778" width="88.67" height="89.7677"/>
			<rect x="0" y="166.895" width="88.6693" height="89.7677" class="st1"/>
			<text x="4.33" y="216.76" class="st2" v:langID="1028"><v:paragraph v:horizAlign="1"/><v:tabList/>別體同時起</text>		</g>
		<g id="shape3-7" v:mID="3" v:groupContext="shape" transform="translate(389.483,-91.482)">
			<title>工作表.3</title>
			<desc>別體前後起</desc>
			<v:textBlock v:margins="rect(4,4,4,4)" v:tabSpace="42.5197"/>
			<v:textRect cx="44.3346" cy="211.778" width="88.67" height="89.7677"/>
			<rect x="0" y="166.895" width="88.6693" height="89.7677" class="st1"/>
			<text x="4.33" y="216.76" class="st2" v:langID="1028"><v:paragraph v:horizAlign="1"/><v:tabList/>別體前後起</text>		</g>
		<g id="shape4-10" v:mID="4" v:groupContext="shape" transform="translate(389.681,-148.175)">
			<title>工作表.4</title>
			<desc>一體前後起</desc>
			<v:textBlock v:margins="rect(4,4,4,4)" v:tabSpace="42.5197"/>
			<v:textRect cx="44.3346" cy="211.778" width="88.67" height="89.7677"/>
			<rect x="0" y="166.895" width="88.6693" height="89.7677" class="st1"/>
			<text x="4.33" y="216.76" class="st2" v:langID="1028"><v:paragraph v:horizAlign="1"/><v:tabList/>一體前後起</text>		</g>
		<g id="shape5-13" v:mID="5" v:groupContext="shape" transform="translate(34.5754,-115.545)">
			<title>工作表.5</title>
			<desc>一切有系</desc>
			<v:textBlock v:margins="rect(4,4,4,4)" v:tabSpace="42.5197"/>
			<v:textRect cx="36.3406" cy="220.401" width="72.69" height="72.5217"/>
			<rect x="0" y="184.141" width="72.6811" height="72.5217" class="st1"/>
			<text x="4.34" y="225.38" class="st2" v:langID="1028"><v:paragraph v:horizAlign="1"/><v:tabList/>一切有系</text>		</g>
		<g id="shape6-16" v:mID="6" v:groupContext="shape" transform="translate(259.839,-157.279)">
			<title>工作表.6</title>
			<desc>譬喻論師</desc>
			<v:textBlock v:margins="rect(4,4,4,4)" v:tabSpace="42.5197"/>
			<v:textRect cx="36.3406" cy="220.401" width="72.69" height="72.5217"/>
			<rect x="0" y="184.141" width="72.6811" height="72.5217" class="st1"/>
			<text x="4.34" y="225.38" class="st2" v:langID="1028"><v:paragraph v:horizAlign="1"/><v:tabList/>譬喻論師</text>		</g>
		<g id="shape7-19" v:mID="7" v:groupContext="shape" transform="translate(259.74,-128.932)">
			<title>工作表.7</title>
			<desc>上座師資</desc>
			<v:textBlock v:margins="rect(4,4,4,4)" v:tabSpace="42.5197"/>
			<v:textRect cx="36.3406" cy="220.401" width="72.69" height="72.5217"/>
			<rect x="0" y="184.141" width="72.6811" height="72.5217" class="st1"/>
			<text x="4.34" y="225.38" class="st2" v:langID="1028"><v:paragraph v:horizAlign="1"/><v:tabList/>上座師資</text>		</g>
		<g id="shape8-22" v:mID="8" v:groupContext="shape" transform="translate(259.641,-100.586)">
			<title>工作表.8</title>
			<desc>法救覺天</desc>
			<v:textBlock v:margins="rect(4,4,4,4)" v:tabSpace="42.5197"/>
			<v:textRect cx="36.3406" cy="220.401" width="72.69" height="72.5217"/>
			<rect x="0" y="184.141" width="72.6811" height="72.5217" class="st1"/>
			<text x="4.34" y="225.38" class="st2" v:langID="1028"><v:paragraph v:horizAlign="1"/><v:tabList/>法救覺天</text>		</g>
		<g id="shape9-25" v:mID="9" v:groupContext="shape" transform="translate(259.542,-72.2399)">
			<title>工作表.9</title>
			<desc>正統派</desc>
			<v:textBlock v:margins="rect(4,4,4,4)" v:tabSpace="42.5197"/>
			<v:textRect cx="36.3406" cy="220.401" width="72.69" height="72.5217"/>
			<rect x="0" y="184.141" width="72.6811" height="72.5217" class="st1"/>
			<text x="0.25em 1.771em 3.293em" y="225.38" class="st2" v:langID="1028"><v:paragraph v:horizAlign="4"/><v:tabList/>正統派</text>		</g>
		<g id="shape10-28" v:mID="10" v:groupContext="shape" transform="translate(147.647,-102.152)">
			<title>工作表.10</title>
			<desc>有部</desc>
			<v:textBlock v:margins="rect(4,4,4,4)" v:tabSpace="42.5197"/>
			<v:textRect cx="21.2598" cy="235.697" width="42.52" height="41.9301"/>
			<rect x="0" y="214.732" width="42.5197" height="41.9301" class="st1"/>
			<text x="5.26" y="240.68" class="st2" v:langID="1028"><v:paragraph v:horizAlign="1"/><v:tabList/>有部</text>		</g>
		<g id="shape11-31" v:mID="11" v:groupContext="shape" transform="translate(147.844,-158.845)">
			<title>工作表.11</title>
			<desc>經部</desc>
			<v:textBlock v:margins="rect(4,4,4,4)" v:tabSpace="42.5197"/>
			<v:textRect cx="21.2598" cy="235.697" width="42.52" height="41.9301"/>
			<rect x="0" y="214.732" width="42.5197" height="41.9301" class="st1"/>
			<text x="5.26" y="240.68" class="st2" v:langID="1028"><v:paragraph v:horizAlign="1"/><v:tabList/>經部</text>		</g>
		<g id="shape12-34" v:mID="12" v:groupContext="shape" transform="translate(147.243,333.44) rotate(-179.8)">
			<title>工作表.12</title>
			<path d="M0 256.66 L6.73 256.66" class="st3"/>
		</g>
		<g id="shape13-37" v:mID="13" v:groupContext="shape" transform="translate(147.046,390.133) rotate(-179.8)">
			<title>工作表.13</title>
			<path d="M0 256.66 L7.09 256.66" class="st3"/>
		</g>
		<g id="shape14-40" v:mID="14" v:groupContext="shape" transform="translate(-115.795,130.947) rotate(-89.4419)">
			<title>工作表.14</title>
			<path d="M0 256.66 L56.69 256.66" class="st3"/>
		</g>
		<g id="shape15-43" v:mID="15" v:groupContext="shape" transform="translate(106.417,-151.684) rotate(0.2)">
			<title>工作表.15</title>
			<path d="M0 256.66 L35.61 256.66" class="st3"/>
		</g>
		<g id="shape16-46" v:mID="16" v:groupContext="shape" transform="translate(260.678,319.663) rotate(-179.8)">
			<title>工作表.16</title>
			<path d="M0 256.66 L6.73 256.66" class="st3"/>
		</g>
		<g id="shape17-49" v:mID="17" v:groupContext="shape" transform="translate(260.579,348.009) rotate(-179.8)">
			<title>工作表.17</title>
			<path d="M0 256.66 L7.09 256.66" class="st3"/>
		</g>
		<g id="shape18-52" v:mID="18" v:groupContext="shape" transform="translate(-2.24097,87.2196) rotate(-89.0838)">
			<title>工作表.18</title>
			<path d="M0 256.66 L28.35 256.66" class="st3"/>
		</g>
		<g id="shape19-55" v:mID="19" v:groupContext="shape" transform="translate(187.303,-179.748) rotate(0.2)">
			<title>工作表.19</title>
			<path d="M0 256.66 L68.21 256.66" class="st3"/>
		</g>
		<g id="shape20-58" v:mID="20" v:groupContext="shape" transform="translate(260.48,376.355) rotate(-179.8)">
			<title>工作表.20</title>
			<path d="M0 256.66 L6.73 256.66" class="st3"/>
		</g>
		<g id="shape21-61" v:mID="21" v:groupContext="shape" transform="translate(260.381,404.701) rotate(-179.8)">
			<title>工作表.21</title>
			<path d="M0 256.66 L7.09 256.66" class="st3"/>
		</g>
		<g id="shape22-64" v:mID="22" v:groupContext="shape" transform="translate(-2.43887,143.912) rotate(-89.0838)">
			<title>工作表.22</title>
			<path d="M0 256.66 L28.35 256.66" class="st3"/>
		</g>
		<g id="shape23-67" v:mID="23" v:groupContext="shape" transform="translate(187.105,-123.055) rotate(0.2)">
			<title>工作表.23</title>
			<path d="M0 256.66 L68.21 256.66" class="st3"/>
		</g>
		<g id="shape24-70" v:mID="24" v:groupContext="shape" transform="translate(333.336,-193.411) rotate(0.2)">
			<title>工作表.24</title>
			<path d="M0 256.66 L56.69 256.66" class="st3"/>
		</g>
		<g id="shape25-73" v:mID="25" v:groupContext="shape" transform="translate(151.389,-62.1782) rotate(-44.8)">
			<title>工作表.25</title>
			<path d="M0 256.66 L80.18 256.66" class="st3"/>
		</g>
		<g id="shape26-76" v:mID="26" v:groupContext="shape" transform="translate(447.924,-137.568) rotate(26.7651)">
			<title>工作表.26</title>
			<path d="M0 256.66 L63.38 256.66" class="st3"/>
		</g>
		<g id="shape27-79" v:mID="27" v:groupContext="shape" transform="translate(447.726,-80.8755) rotate(26.7651)">
			<title>工作表.27</title>
			<path d="M0 256.66 L63.38 256.66" class="st3"/>
		</g>
		<g id="shape28-82" v:mID="28" v:groupContext="shape" transform="translate(155.776,-80.6447) rotate(0.2)">
			<title>工作表.28</title>
			<path d="M0 256.66 L233.86 256.66" class="st3"/>
		</g>
		<g id="group33-85" transform="translate(241.109,204.801) rotate(-89.8)" v:mID="33" v:groupContext="group">
			<title>工作表.33</title>
			<g id="shape29-86" v:mID="29" v:groupContext="shape" transform="translate(0,-479.052)">
				<title>工作表.29</title>
				<path d="M0 256.66 L167.24 256.66" class="st4"/>
			</g>
			<g id="shape30-89" v:mID="30" v:groupContext="shape">
				<title>工作表.30</title>
				<path d="M0 256.66 L167.24 256.66" class="st4"/>
			</g>
			<g id="shape31-92" v:mID="31" v:groupContext="shape" transform="translate(423.905,-222.39) rotate(90)">
				<title>工作表.31</title>
				<path d="M0 256.66 L479.05 256.66" class="st4"/>
			</g>
			<g id="shape32-95" v:mID="32" v:groupContext="shape" transform="translate(-256.662,256.662) rotate(-90)">
				<title>工作表.32</title>
				<path d="M0 256.66 L479.05 256.66" class="st4"/>
			</g>
		</g>
	</g>
</svg>
