<?xml version="1.0" encoding="UTF-8" standalone="no"?>
<!DOCTYPE svg PUBLIC "-//W3C//DTD SVG 1.0//EN" "http://www.w3.org/TR/2001/REC-SVG-20010904/DTD/svg10.dtd">
<!-- 由 Microsoft Visio 11.0, SVG Export, v1.0 產生 y10.0129.svg Page-1 -->
<svg xmlns="http://www.w3.org/2000/svg" xmlns:xlink="http://www.w3.org/1999/xlink" xmlns:ev="http://www.w3.org/2001/xml-events"
		xmlns:v="http://schemas.microsoft.com/visio/2003/SVGExtensions/" width="3.22943in" height="7.63953in"
		viewBox="0 0 232.519 550.046" xml:space="preserve" color-interpolation-filters="sRGB" class="st4">
	<title>y10.0129</title>
	<v:documentProperties v:langID="1028" v:metric="true" v:viewMarkup="false"/>

	<style type="text/css">
	<![CDATA[
		.st1 {fill:none;stroke:none;stroke-linecap:round;stroke-linejoin:round;stroke-width:0.72}
		.st2 {fill:#000000;font-family:新細明體;font-size:1.33333em}
		.st3 {stroke:#000000;stroke-linecap:round;stroke-linejoin:round;stroke-width:0.72}
		.st4 {fill:none;fill-rule:evenodd;font-size:12px;overflow:visible;stroke-linecap:square;stroke-miterlimit:3}
	]]>
	</style>

	<g v:mID="0" v:index="1" v:groupContext="foregroundPage">
		<title>Page-1</title>
		<v:pageProperties v:drawingScale="0.0393701" v:pageScale="0.0393701" v:drawingUnits="24" v:shadowOffsetX="8.50394"
				v:shadowOffsetY="-8.50394"/>
		<g id="shape1-1" v:mID="1" v:groupContext="shape" transform="translate(189.421,-130.689)">
			<title>工作表.1</title>
			<desc>心相應行</desc>
			<v:textBlock v:margins="rect(4,4,4,4)" v:tabSpace="42.5197" v:verticalText="true"/>
			<v:textRect cx="12.189" cy="512.72" width="24.38" height="74.6535"/>
			<rect x="0" y="475.393" width="24.378" height="74.6535" class="st1"/>
			<text x="12.19" y="480.72" writing-mode="tb-rl" class="st2" v:langID="1028"><v:paragraph v:horizAlign="1"/><v:tabList/>心相應行</text>		</g>
		<g id="shape2-4" v:mID="2" v:groupContext="shape" transform="translate(18.72,-130.689)">
			<title>工作表.2</title>
			<desc>心不相應</desc>
			<v:textBlock v:margins="rect(4,4,4,4)" v:tabSpace="42.5197" v:verticalText="true"/>
			<v:textRect cx="12.189" cy="512.72" width="24.38" height="74.6535"/>
			<rect x="0" y="475.393" width="24.378" height="74.6535" class="st1"/>
			<text x="12.19" y="480.72" writing-mode="tb-rl" class="st2" v:langID="1028"><v:paragraph v:horizAlign="1"/><v:tabList/>心不相應</text>		</g>
		<g id="shape3-7" v:mID="3" v:groupContext="shape" transform="translate(132.106,-18.72)">
			<title>工作表.3</title>
			<desc>非心相應行非心不相應行</desc>
			<v:textBlock v:margins="rect(4,4,4,4)" v:tabSpace="42.5197" v:verticalText="true"/>
			<v:textRect cx="12.189" cy="456.735" width="24.38" height="186.622"/>
			<rect x="0" y="363.424" width="24.378" height="186.622" class="st1"/>
			<text x="12.19" y="368.74" writing-mode="tb-rl" class="st2" v:langID="1028"><v:paragraph v:horizAlign="1"/><v:tabList/>非心相應行非心不相應行</text>		</g>
		<g id="shape4-10" v:mID="4" v:groupContext="shape" transform="translate(75.4129,-36.2043)">
			<title>工作表.4</title>
			<desc>亦心相應行亦不相應行</desc>
			<v:textBlock v:margins="rect(4,4,4,4)" v:tabSpace="42.5197" v:verticalText="true"/>
			<v:textRect cx="12.189" cy="465.477" width="24.38" height="169.138"/>
			<rect x="0" y="380.909" width="24.378" height="169.138" class="st1"/>
			<text x="12.19" y="385.48" writing-mode="tb-rl" class="st2" v:langID="1028"><v:paragraph v:horizAlign="1"/><v:tabList/>亦心相應行亦不相應行</text>		</g>
		<g id="shape5-13" v:mID="5" v:groupContext="shape" transform="translate(108.066,-456.673)">
			<title>工作表.5</title>
			<desc>一切有系</desc>
			<v:textBlock v:margins="rect(4,4,4,4)" v:tabSpace="42.5197" v:verticalText="true"/>
			<v:textRect cx="36.2283" cy="512.72" width="72.46" height="74.6535"/>
			<rect x="0" y="475.393" width="72.4567" height="74.6535" class="st1"/>
			<text x="36.23" y="29.962em 31.017em 32.073em 33.128em" writing-mode="tb-rl" class="st2" v:langID="1028"><v:paragraph
						v:horizAlign="4"/><v:tabList/>一切有系</text>		</g>
		<g id="shape6-16" v:mID="6" v:groupContext="shape" transform="translate(23.0271,-456.673)">
			<title>工作表.6</title>
			<desc>分別說系</desc>
			<v:textBlock v:margins="rect(4,4,4,4)" v:tabSpace="42.5197" v:verticalText="true"/>
			<v:textRect cx="36.2283" cy="512.72" width="72.46" height="74.6535"/>
			<rect x="0" y="475.393" width="72.4567" height="74.6535" class="st1"/>
			<text x="36.23" y="29.962em 31.017em 32.073em 33.128em" writing-mode="tb-rl" class="st2" v:langID="1028"><v:paragraph
						v:horizAlign="4"/><v:tabList/>分別說系</text>		</g>
		<g id="shape7-19" v:mID="7" v:groupContext="shape" transform="translate(51.3735,-456.673)">
			<title>工作表.7</title>
			<desc>犢子系</desc>
			<v:textBlock v:margins="rect(4,4,4,4)" v:tabSpace="42.5197" v:verticalText="true"/>
			<v:textRect cx="36.2283" cy="512.72" width="72.46" height="74.6535"/>
			<rect x="0" y="475.393" width="72.4567" height="74.6535" class="st1"/>
			<text x="36.23" y="29.962em 31.545em 33.128em" writing-mode="tb-rl" class="st2" v:langID="1028"><v:paragraph
						v:horizAlign="4"/><v:tabList/>犢子系</text>		</g>
		<g id="shape8-22" v:mID="8" v:groupContext="shape" transform="translate(18.72,-456.673)">
			<title>工作表.8</title>
			<desc>大眾系</desc>
			<v:textBlock v:margins="rect(4,4,4,4)" v:tabSpace="42.5197" v:verticalText="true"/>
			<v:textRect cx="12.189" cy="512.72" width="24.38" height="74.6535"/>
			<rect x="0" y="475.393" width="24.378" height="74.6535" class="st1"/>
			<text x="12.19" y="29.962em 31.545em 33.128em" writing-mode="tb-rl" class="st2" v:langID="1028"><v:paragraph
						v:horizAlign="4"/><v:tabList/>大眾系</text>		</g>
		<g id="shape9-25" v:mID="9" v:groupContext="shape" transform="translate(189.11,-262.035)">
			<title>工作表.9</title>
			<desc>正統派</desc>
			<v:textBlock v:margins="rect(4,4,4,4)" v:tabSpace="42.5197" v:verticalText="true"/>
			<v:textRect cx="12.189" cy="521.816" width="24.38" height="56.4606"/>
			<rect x="0" y="493.586" width="24.378" height="56.4606" class="st1"/>
			<text x="12.19" y="497.82" writing-mode="tb-rl" class="st2" v:langID="1028"><v:paragraph v:horizAlign="1"/><v:tabList/>正統派</text>		</g>
		<g id="shape10-28" v:mID="10" v:groupContext="shape" transform="translate(151.537,-276.801)">
			<title>工作表.10</title>
			<desc>法救</desc>
			<v:textBlock v:margins="rect(4,4,4,4)" v:tabSpace="42.5197" v:verticalText="true"/>
			<v:textRect cx="21.1043" cy="529.199" width="42.21" height="41.6949"/>
			<rect x="0" y="508.351" width="42.2087" height="41.6949" class="st1"/>
			<text x="21.1" y="513.2" writing-mode="tb-rl" class="st2" v:langID="1028"><v:paragraph v:horizAlign="1"/><v:tabList/>法救</text>		</g>
		<g id="shape11-31" v:mID="11" v:groupContext="shape" transform="translate(-349.059,231.318) rotate(-90)">
			<title>工作表.11</title>
			<path d="M0 550.05 L7.44 550.05" class="st3"/>
		</g>
		<g id="shape12-34" v:mID="12" v:groupContext="shape" transform="translate(-377.405,231.318) rotate(-90)">
			<title>工作表.12</title>
			<path d="M0 550.05 L7.44 550.05" class="st3"/>
		</g>
		<g id="shape13-37" v:mID="13" v:groupContext="shape" transform="translate(-363.232,223.877) rotate(-90)">
			<title>工作表.13</title>
			<path d="M0 550.05 L35.9 550.05" class="st3"/>
		</g>
		<g id="shape14-40" v:mID="14" v:groupContext="shape" transform="translate(200.677,773.924) rotate(180)">
			<title>工作表.14</title>
			<path d="M0 550.05 L28.04 550.05" class="st3"/>
		</g>
		<g id="shape15-43" v:mID="15" v:groupContext="shape" transform="translate(166.332,-362.072)">
			<title>工作表.15</title>
			<desc>有部</desc>
			<v:textBlock v:margins="rect(4,4,4,4)" v:tabSpace="42.5197" v:verticalText="true"/>
			<v:textRect cx="21.1043" cy="529.199" width="42.21" height="41.6949"/>
			<rect x="0" y="508.351" width="42.2087" height="41.6949" class="st1"/>
			<text x="21.1" y="513.2" writing-mode="tb-rl" class="st2" v:langID="1028"><v:paragraph v:horizAlign="1"/><v:tabList/>有部</text>		</g>
		<g id="shape16-46" v:mID="16" v:groupContext="shape" transform="translate(123.19,-362.072)">
			<title>工作表.16</title>
			<desc>經部</desc>
			<v:textBlock v:margins="rect(4,4,4,4)" v:tabSpace="42.5197" v:verticalText="true"/>
			<v:textRect cx="21.1043" cy="529.199" width="42.21" height="41.6949"/>
			<rect x="0" y="508.351" width="42.2087" height="41.6949" class="st1"/>
			<text x="21.1" y="513.2" writing-mode="tb-rl" class="st2" v:langID="1028"><v:paragraph v:horizAlign="1"/><v:tabList/>經部</text>		</g>
		<g id="shape17-49" v:mID="17" v:groupContext="shape" transform="translate(79.72,-329.114)">
			<title>工作表.17</title>
			<desc>成實論師</desc>
			<v:textBlock v:margins="rect(4,4,4,4)" v:tabSpace="42.5197" v:verticalText="true"/>
			<v:textRect cx="36.2283" cy="512.72" width="72.46" height="74.6535"/>
			<rect x="0" y="475.393" width="72.4567" height="74.6535" class="st1"/>
			<text x="36.23" y="480.72" writing-mode="tb-rl" class="st2" v:langID="1028"><v:paragraph v:horizAlign="1"/><v:tabList/>成實論師</text>		</g>
		<g id="shape18-52" v:mID="18" v:groupContext="shape" transform="translate(-362.61,146.279) rotate(-90)">
			<title>工作表.18</title>
			<path d="M0 550.05 L7.44 550.05" class="st3"/>
		</g>
		<g id="shape19-55" v:mID="19" v:groupContext="shape" transform="translate(-434.098,146.279) rotate(-90)">
			<title>工作表.19</title>
			<path d="M0 550.05 L7.44 550.05" class="st3"/>
		</g>
		<g id="shape20-58" v:mID="20" v:groupContext="shape" transform="translate(-405.751,138.838) rotate(-90)">
			<title>工作表.20</title>
			<path d="M0 550.05 L45.46 550.05" class="st3"/>
		</g>
		<g id="shape21-61" v:mID="21" v:groupContext="shape" transform="translate(187.437,688.884) rotate(180)">
			<title>工作表.21</title>
			<path d="M0 550.05 L71.49 550.05" class="st3"/>
		</g>
		<g id="shape22-64" v:mID="22" v:groupContext="shape" transform="translate(751.034,288.011) rotate(90)">
			<title>工作表.22</title>
			<path d="M0 550.05 L56.69 550.05" class="st3"/>
		</g>
		<g id="shape23-67" v:mID="23" v:groupContext="shape" transform="translate(694.341,187.974) rotate(90)">
			<title>工作表.23</title>
			<path d="M0 550.05 L156.73 550.05" class="st3"/>
		</g>
		<g id="shape24-70" v:mID="24" v:groupContext="shape" transform="translate(573.615,-87.9656) rotate(56.3099)">
			<title>工作表.24</title>
			<path d="M0 550.05 L153.31 550.05" class="st3"/>
		</g>
		<g id="shape25-73" v:mID="25" v:groupContext="shape" transform="translate(144.295,-290.381)">
			<title>工作表.25</title>
			<path d="M0 550.05 L15.59 550.05" class="st3"/>
		</g>
		<g id="shape26-76" v:mID="26" v:groupContext="shape" transform="translate(420.029,764.833) rotate(153.344)">
			<title>工作表.26</title>
			<path d="M0 550.05 L159.28 550.05" class="st3"/>
		</g>
		<g id="shape27-79" v:mID="27" v:groupContext="shape" transform="translate(580.955,93.3735) rotate(90)">
			<title>工作表.27</title>
			<path d="M0 550.05 L251.33 550.05" class="st3"/>
		</g>
		<g id="shape28-82" v:mID="28" v:groupContext="shape" transform="translate(-412.964,-192.745) rotate(-53.8012)">
			<title>工作表.28</title>
			<path d="M0 550.05 L48 550.05" class="st3"/>
		</g>
		<g id="shape29-85" v:mID="29" v:groupContext="shape" transform="translate(637.648,93.3735) rotate(90)">
			<title>工作表.29</title>
			<path d="M0 550.05 L251.33 550.05" class="st3"/>
		</g>
		<g id="shape30-88" v:mID="30" v:groupContext="shape" transform="translate(661.542,375.074) rotate(109.886)">
			<title>工作表.30</title>
			<path d="M0 550.05 L166.67 550.05" class="st3"/>
		</g>
	</g>
</svg>
