<?xml version="1.0" encoding="UTF-8" standalone="no"?>
<!DOCTYPE svg PUBLIC "-//W3C//DTD SVG 1.1//EN" "http://www.w3.org/Graphics/SVG/1.1/DTD/svg11.dtd">
<!-- 由 Microsoft Visio, SVG Export 產生 y37.0046-h.svg 頁-1 -->
<svg xmlns="http://www.w3.org/2000/svg" xmlns:xlink="http://www.w3.org/1999/xlink" xmlns:ev="http://www.w3.org/2001/xml-events"
		width="8.4964in" height="3.47672in" viewBox="0 0 611.741 250.324" xml:space="preserve" color-interpolation-filters="sRGB"
		class="st6">
	<style type="text/css">
	<![CDATA[
		.st1 {fill:none;stroke:none;stroke-linecap:round;stroke-linejoin:round;stroke-width:0.75}
		.st2 {fill:#000000;font-family:新細明體;font-size:1.33333em}
		.st3 {font-size:1em}
		.st4 {fill:#000000;font-family:Times New Roman;font-size:1.33333em}
		.st5 {stroke:#000000;stroke-linecap:round;stroke-linejoin:round;stroke-width:1}
		.st6 {fill:none;fill-rule:evenodd;font-size:12px;overflow:visible;stroke-linecap:square;stroke-miterlimit:3}
	]]>
	</style>

	<g>
		<title>頁-1</title>
		<g id="shape1-1" transform="translate(17.5079,-201.76)">
			<title>工作表.1</title>
			<desc>Ⅰ</desc>
			<rect x="0" y="227.647" width="22.6772" height="22.6772" class="st1"/>
			<text x="4" y="243.79" class="st2">Ⅰ</text>		</g>
		<g id="shape2-4" transform="translate(50.1063,-215.933)">
			<title>工作表.2</title>
			<desc>波婆國</desc>
			<rect x="0" y="227.647" width="56.6929" height="22.6772" class="st1"/>
			<text x="0.25em 1.272em 2.293em" y="243.79" class="st2">波婆國</text>		</g>
		<g id="shape3-7" transform="translate(112.469,-215.933)">
			<title>工作表.3</title>
			<desc>遮羅頗國</desc>
			<rect x="0" y="227.647" width="73.7008" height="22.6772" class="st1"/>
			<text x="0.25em 1.285em 2.321em 3.356em" y="243.79" class="st2">遮羅頗國</text>		</g>
		<g id="shape4-10" transform="translate(183.335,-215.933)">
			<title>工作表.4</title>
			<desc>羅摩伽國</desc>
			<rect x="0" y="227.647" width="73.7008" height="22.6772" class="st1"/>
			<text x="0.25em 1.285em 2.321em 3.356em" y="243.79" class="st2">羅摩伽國</text>		</g>
		<g id="shape5-13" transform="translate(254.201,-215.933)">
			<title>工作表.5</title>
			<desc>毘留提國</desc>
			<rect x="0" y="227.647" width="73.7008" height="22.6772" class="st1"/>
			<text x="0.25em 1.285em 2.321em 3.356em" y="243.79" class="st2">毘留提國</text>		</g>
		<g id="shape6-16" transform="translate(333.571,-204.594)">
			<title>工作表.6</title>
			<desc>迦 維 羅衛國</desc>
			<rect x="0" y="204.969" width="56.6929" height="45.3543" class="st1"/>
			<text x="0.25em" y="222.85" class="st2">迦<tspan x="1.251em 1.511em 1.772em 2.033em" dy="0em" class="st3">    </tspan><tspan
						x="2.293em" dy="0em" class="st3">維 </tspan><tspan x="0.25em 1.272em 2.293em" dy="1.2em" class="st3">羅衛國</tspan></text>		</g>
		<g id="shape7-22" transform="translate(395.933,-215.933)">
			<title>工作表.7</title>
			<desc>毘舍離國</desc>
			<rect x="0" y="227.647" width="73.7008" height="22.6772" class="st1"/>
			<text x="0.25em 1.285em 2.321em 3.356em" y="243.79" class="st2">毘舍離國</text>		</g>
		<g id="shape8-25" transform="translate(466.799,-215.933)">
			<title>工作表.8</title>
			<desc>摩竭國</desc>
			<rect x="0" y="227.647" width="73.7008" height="22.6772" class="st1"/>
			<text x="0.25em 1.803em 3.356em" y="243.79" class="st2">摩竭國</text>		</g>
		<g id="shape9-28" transform="translate(537.665,-215.933)">
			<title>工作表.9</title>
			<desc>拘尸國</desc>
			<rect x="0" y="227.647" width="73.7008" height="22.6772" class="st1"/>
			<text x="0.25em 1.803em 3.356em" y="243.79" class="st2">拘尸國</text>		</g>
		<g id="shape11-31" transform="translate(120.972,-187.587)">
			<title>工作表.11</title>
			<desc>跋離</desc>
			<rect x="0" y="227.647" width="56.6929" height="22.6772" class="st1"/>
			<text x="0.25em 2.293em" y="243.79" class="st2">跋離</text>		</g>
		<g id="shape12-34" transform="translate(191.839,-187.587)">
			<title>工作表.12</title>
			<desc>拘利</desc>
			<rect x="0" y="227.647" width="56.6929" height="22.6772" class="st1"/>
			<text x="0.25em 2.293em" y="243.79" class="st2">拘利</text>		</g>
		<g id="shape13-37" transform="translate(262.705,-187.587)">
			<title>工作表.13</title>
			<desc>婆羅門</desc>
			<rect x="0" y="227.647" width="56.6929" height="22.6772" class="st1"/>
			<text x="0.25em 1.272em 2.293em" y="243.79" class="st2">婆羅門</text>		</g>
		<g id="shape14-40" transform="translate(333.571,-187.587)">
			<title>工作表.14</title>
			<desc>釋種</desc>
			<rect x="0" y="227.647" width="56.6929" height="22.6772" class="st1"/>
			<text x="0.25em 2.293em" y="243.79" class="st2">釋種</text>		</g>
		<g id="shape15-43" transform="translate(404.437,-187.587)">
			<title>工作表.15</title>
			<desc>離車</desc>
			<rect x="0" y="227.647" width="56.6929" height="22.6772" class="st1"/>
			<text x="0.25em 2.293em" y="243.79" class="st2">離車</text>		</g>
		<g id="shape16-46" transform="translate(466.799,-187.587)">
			<title>工作表.16</title>
			<desc>阿闍世王</desc>
			<rect x="0" y="227.647" width="73.7008" height="22.6772" class="st1"/>
			<text x="0.25em 1.285em 2.321em 3.356em" y="243.79" class="st2">阿闍世王</text>		</g>
		<g id="shape17-49" transform="translate(537.665,-187.587)">
			<title>工作表.17</title>
			<desc>末羅</desc>
			<rect x="0" y="227.647" width="73.7008" height="22.6772" class="st1"/>
			<text x="0.25em 3.356em" y="243.79" class="st2">末羅</text>		</g>
		<g id="shape18-52" transform="translate(-76.9104,89.6663) rotate(-90)">
			<title>工作表.18</title>
			<desc>Allak-</desc>
			<rect x="0" y="193.631" width="19.8425" height="56.6929" class="st1"/>
			<text x="12.14" y="201.54" writing-mode="tb-rl" class="st4">Allak-</text>		</g>
		<g id="shape19-55" transform="translate(3.87697,89.6663) rotate(-90)">
			<title>工作表.19</title>
			<desc>Rāma-</desc>
			<rect x="0" y="182.292" width="19.8425" height="68.0315" class="st1"/>
			<text x="12.14" y="194.98" writing-mode="tb-rl" class="st4">Rāma-</text>		</g>
		<g id="shape20-58" transform="translate(59.1526,89.6663) rotate(-90)">
			<title>工作表.20</title>
			<desc>Veth-</desc>
			<rect x="0" y="204.969" width="19.8425" height="45.3543" class="st1"/>
			<text x="12.14" y="209.43" writing-mode="tb-rl" class="st4">Veth-</text>		</g>
		<g id="shape21-61" transform="translate(138.523,89.6663) rotate(-90)">
			<title>工作表.21</title>
			<desc>Kapila-</desc>
			<rect x="0" y="193.631" width="19.8425" height="56.6929" class="st1"/>
			<text x="12.14" y="197.99" writing-mode="tb-rl" class="st4">Kapila-</text>		</g>
		<g id="shape22-64" transform="translate(268.916,86.8317) rotate(-90)">
			<title>工作表.22</title>
			<desc>Māg-</desc>
			<rect x="0" y="199.3" width="19.8425" height="51.0236" class="st1"/>
			<text x="12.14" y="207.48" writing-mode="tb-rl" class="st4">Māg-</text>		</g>
		<g id="shape23-67" transform="translate(336.948,89.6663) rotate(-90)">
			<title>工作表.23</title>
			<desc>Kusi-</desc>
			<rect x="0" y="199.3" width="19.8425" height="51.0236" class="st1"/>
			<text x="12.14" y="207.03" writing-mode="tb-rl" class="st4">Kusi-</text>		</g>
		<g id="shape24-70" transform="translate(17.5079,-137.98)">
			<title>工作表.24</title>
			<desc>Ⅱ</desc>
			<rect x="0" y="227.647" width="22.6772" height="22.6772" class="st1"/>
			<text x="4" y="243.79" class="st2">Ⅱ</text>		</g>
		<g id="shape25-73" transform="translate(-156.281,88.249) rotate(-90)">
			<title>工作表.25</title>
			<desc>Pāvā</desc>
			<rect x="0" y="207.804" width="19.8425" height="42.5197" class="st1"/>
			<text x="12.14" y="213.51" writing-mode="tb-rl" class="st4">Pāvā</text>		</g>
		<g id="shape26-76" transform="translate(-85.4144,103.84) rotate(-90)">
			<title>工作表.26</title>
			<desc>apa</desc>
			<rect x="0" y="216.308" width="19.8425" height="34.0157" class="st1"/>
			<text x="12.14" y="222.21" writing-mode="tb-rl" class="st4">apa</text>		</g>
		<g id="shape27-79" transform="translate(-3.20965,103.84) rotate(-90)">
			<title>工作表.27</title>
			<desc>gāma</desc>
			<rect x="0" y="199.3" width="19.8425" height="51.0236" class="st1"/>
			<text x="12.14" y="207.49" writing-mode="tb-rl" class="st4">gāma</text>		</g>
		<g id="shape28-82" transform="translate(64.8219,103.84) rotate(-90)">
			<title>工作表.28</title>
			<desc>adīpa</desc>
			<rect x="0" y="199.3" width="19.8425" height="51.0236" class="st1"/>
			<text x="12.14" y="207.49" writing-mode="tb-rl" class="st4">adīpa</text>		</g>
		<g id="shape29-85" transform="translate(135.688,103.84) rotate(-90)">
			<title>工作表.29</title>
			<desc>vatthu</desc>
			<rect x="0" y="199.3" width="19.8425" height="51.0236" class="st1"/>
			<text x="12.14" y="204.82" writing-mode="tb-rl" class="st4">vatthu</text>		</g>
		<g id="shape30-88" transform="translate(209.389,89.6663) rotate(-90)">
			<title>工作表.30</title>
			<desc>Vesālī</desc>
			<rect x="0" y="193.631" width="19.8425" height="56.6929" class="st1"/>
			<text x="12.14" y="201.54" writing-mode="tb-rl" class="st4">Vesālī</text>		</g>
		<g id="shape31-91" transform="translate(274.586,103.84) rotate(-90)">
			<title>工作表.31</title>
			<desc>adha</desc>
			<rect x="0" y="207.804" width="19.8425" height="42.5197" class="st1"/>
			<text x="12.14" y="213.96" writing-mode="tb-rl" class="st4">adha</text>		</g>
		<g id="shape32-94" transform="translate(348.286,103.84) rotate(-90)">
			<title>工作表.32</title>
			<desc>nārā</desc>
			<rect x="0" y="193.631" width="19.8425" height="56.6929" class="st1"/>
			<text x="12.14" y="208.21" writing-mode="tb-rl" class="st4">nārā</text>		</g>
		<g id="shape33-97" transform="translate(64.8219,118.013) rotate(-90)">
			<title>工作表.33</title>
			<desc>Brāh-</desc>
			<rect x="0" y="193.631" width="19.8425" height="56.6929" class="st1"/>
			<text x="12.14" y="203.76" writing-mode="tb-rl" class="st4">Brāh-</text>		</g>
		<g id="shape34-100" transform="translate(274.586,118.013) rotate(-90)">
			<title>工作表.34</title>
			<desc>Ajāta-</desc>
			<rect x="0" y="193.631" width="19.8425" height="56.6929" class="st1"/>
			<text x="12.14" y="201.99" writing-mode="tb-rl" class="st4">Ajāta-</text>		</g>
		<g id="shape35-103" transform="translate(-150.611,125.099) rotate(-90)">
			<title>工作表.35</title>
			<desc>Malla</desc>
			<rect x="0" y="193.631" width="19.8425" height="56.6929" class="st1"/>
			<text x="12.14" y="203.32" writing-mode="tb-rl" class="st4">Malla</text>		</g>
		<g id="shape36-106" transform="translate(-79.7451,125.099) rotate(-90)">
			<title>工作表.36</title>
			<desc>Buli</desc>
			<rect x="0" y="207.804" width="19.8425" height="42.5197" class="st1"/>
			<text x="12.14" y="215.28" writing-mode="tb-rl" class="st4">Buli</text>		</g>
		<g id="shape37-109" transform="translate(-1.79232,125.099) rotate(-90)">
			<title>工作表.37</title>
			<desc>Koliya</desc>
			<rect x="0" y="193.631" width="19.8425" height="56.6929" class="st1"/>
			<text x="12.14" y="200.2" writing-mode="tb-rl" class="st4">Koliya</text>		</g>
		<g id="shape38-112" transform="translate(67.6565,132.186) rotate(-90)">
			<title>工作表.38</title>
			<desc>maṇa</desc>
			<rect x="0" y="199.3" width="19.8425" height="51.0236" class="st1"/>
			<text x="12.14" y="207.49" writing-mode="tb-rl" class="st4">maṇa</text>		</g>
		<g id="shape39-115" transform="translate(135.688,125.099) rotate(-90)">
			<title>工作表.39</title>
			<desc>Sakya</desc>
			<rect x="0" y="199.3" width="19.8425" height="51.0236" class="st1"/>
			<text x="12.14" y="205.26" writing-mode="tb-rl" class="st4">Sakya</text>		</g>
		<g id="shape40-118" transform="translate(216.475,125.099) rotate(-90)">
			<title>工作表.40</title>
			<desc>Licchavi</desc>
			<rect x="0" y="182.292" width="19.8425" height="68.0315" class="st1"/>
			<text x="12.14" y="188.32" writing-mode="tb-rl" class="st4">Licchavi</text>		</g>
		<g id="shape41-121" transform="translate(273.168,132.186) rotate(-90)">
			<title>工作表.41</title>
			<desc>sattu</desc>
			<rect x="0" y="207.804" width="19.8425" height="42.5197" class="st1"/>
			<text x="12.14" y="213.95" writing-mode="tb-rl" class="st4">sattu</text>		</g>
		<g id="shape42-124" transform="translate(336.948,125.099) rotate(-90)">
			<title>工作表.42</title>
			<desc>Malla</desc>
			<rect x="0" y="199.3" width="19.8425" height="51.0236" class="st1"/>
			<text x="12.14" y="206.15" writing-mode="tb-rl" class="st4">Malla</text>		</g>
		<g id="shape43-127" transform="translate(50.1063,-88.374)">
			<title>工作表.43</title>
			<desc>波波邑</desc>
			<rect x="0" y="227.647" width="56.6929" height="22.6772" class="st1"/>
			<text x="0.25em 1.272em 2.293em" y="243.79" class="st2">波波邑</text>		</g>
		<g id="shape44-130" transform="translate(111.051,-88.374)">
			<title>工作表.44</title>
			<desc>遮洛迦邑</desc>
			<rect x="0" y="227.647" width="73.7008" height="22.6772" class="st1"/>
			<text x="0.25em 1.285em 2.321em 3.356em" y="243.79" class="st2">遮洛迦邑</text>		</g>
		<g id="shape45-133" transform="translate(183.335,-88.374)">
			<title>工作表.45</title>
			<desc>阿羅摩處</desc>
			<rect x="0" y="227.647" width="73.7008" height="22.6772" class="st1"/>
			<text x="0.25em 1.285em 2.321em 3.356em" y="243.79" class="st2">阿羅摩處</text>		</g>
		<g id="shape46-136" transform="translate(254.201,-88.374)">
			<title>工作表.46</title>
			<desc>吠率奴邑</desc>
			<rect x="0" y="227.647" width="73.7008" height="22.6772" class="st1"/>
			<text x="4.85" y="243.79" class="st2">吠率奴邑</text>		</g>
		<g id="shape47-139" transform="translate(325.067,-88.374)">
			<title>工作表.47</title>
			<desc>劫比羅城</desc>
			<rect x="0" y="227.647" width="73.7008" height="22.6772" class="st1"/>
			<text x="0.25em 1.285em 2.321em 3.356em" y="243.79" class="st2">劫比羅城</text>		</g>
		<g id="shape48-142" transform="translate(404.437,-88.374)">
			<title>工作表.48</title>
			<desc>薜舍離</desc>
			<rect x="0" y="227.647" width="56.6929" height="22.6772" class="st1"/>
			<text x="0.25em 1.272em 2.293em" y="243.79" class="st2">薜舍離</text>		</g>
		<g id="shape49-145" transform="translate(466.799,-88.374)">
			<title>工作表.49</title>
			<desc>摩伽陀國</desc>
			<rect x="0" y="227.647" width="73.7008" height="22.6772" class="st1"/>
			<text x="0.25em 1.285em 2.321em 3.356em" y="243.79" class="st2">摩伽陀國</text>		</g>
		<g id="shape50-148" transform="translate(546.169,-88.374)">
			<title>工作表.50</title>
			<desc>拘尸域</desc>
			<rect x="0" y="227.647" width="56.6929" height="22.6772" class="st1"/>
			<text x="0.25em 1.272em 2.293em" y="243.79" class="st2">拘尸域</text>		</g>
		<g id="shape51-151" transform="translate(17.5079,-74.2008)">
			<title>工作表.51</title>
			<desc>Ⅲ</desc>
			<rect x="0" y="227.647" width="22.6772" height="22.6772" class="st1"/>
			<text x="4" y="243.79" class="st2">Ⅲ</text>		</g>
		<g id="shape52-154" transform="translate(50.1063,-60.0276)">
			<title>工作表.52</title>
			<desc>壯士</desc>
			<rect x="0" y="227.647" width="56.6929" height="22.6772" class="st1"/>
			<text x="0.25em 2.293em" y="243.79" class="st2">壯士</text>		</g>
		<g id="shape53-157" transform="translate(333.571,-60.0276)">
			<title>工作表.53</title>
			<desc>釋迦子</desc>
			<rect x="0" y="227.647" width="56.6929" height="22.6772" class="st1"/>
			<text x="4.35" y="243.79" class="st2">釋迦子</text>		</g>
		<g id="shape54-160" transform="translate(395.933,-60.0276)">
			<title>工作表.54</title>
			<desc>栗呫毘子</desc>
			<rect x="0" y="227.647" width="73.7008" height="22.6772" class="st1"/>
			<text x="4.85" y="243.79" class="st2">栗呫毘子</text>		</g>
		<g id="shape55-163" transform="translate(466.799,-60.0276)">
			<title>工作表.55</title>
			<desc>行雨大臣</desc>
			<rect x="0" y="227.647" width="73.7008" height="22.6772" class="st1"/>
			<text x="0.25em 1.285em 2.321em 3.356em" y="243.79" class="st2">行雨大臣</text>		</g>
		<g id="shape56-166" transform="translate(546.169,-60.0276)">
			<title>工作表.56</title>
			<desc>壯士</desc>
			<rect x="0" y="227.647" width="56.6929" height="22.6772" class="st1"/>
			<text x="0.25em 2.293em" y="243.79" class="st2">壯士</text>		</g>
		<g id="shape83-169" transform="translate(50.1063,-187.587)">
			<title>工作表.83</title>
			<desc>末羅</desc>
			<rect x="0" y="227.647" width="56.6929" height="22.6772" class="st1"/>
			<text x="0.25em 2.293em" y="243.79" class="st2">末羅</text>		</g>
		<g id="shape84-172" transform="translate(0.5,-184.752)">
			<title>工作表.84</title>
			<path d="M0 250.32 L609.45 250.32" class="st5"/>
		</g>
		<g id="shape85-175" transform="translate(0.5,-113.886)">
			<title>工作表.85</title>
			<path d="M0 250.32 L609.45 250.32" class="st5"/>
		</g>
		<g id="shape86-178" transform="translate(0.5,-57.1929)">
			<title>工作表.86</title>
			<path d="M0 250.32 L609.45 250.32" class="st5"/>
		</g>
		<g id="shape57-181" transform="translate(50.1063,-31.6811)">
			<title>工作表.57</title>
			<desc>波婆國</desc>
			<rect x="0" y="227.647" width="56.6929" height="22.6772" class="st1"/>
			<text x="0.25em 1.272em 2.293em" y="243.79" class="st2">波婆國</text>		</g>
		<g id="shape58-184" transform="translate(120.972,-31.6811)">
			<title>工作表.58</title>
			<desc>遮勒國</desc>
			<rect x="0" y="227.647" width="56.6929" height="22.6772" class="st1"/>
			<text x="4.35" y="243.79" class="st2">遮勒國</text>		</g>
		<g id="shape59-187" transform="translate(183.335,-31.6811)">
			<title>工作表.59</title>
			<desc>羅摩聚落</desc>
			<rect x="0" y="227.647" width="73.7008" height="22.6772" class="st1"/>
			<text x="0.25em 1.285em 2.321em 3.356em" y="243.79" class="st2">羅摩聚落</text>		</g>
		<g id="shape60-190" transform="translate(262.705,-31.6811)">
			<title>工作表.60</title>
			<desc>毘㝹</desc>
			<rect x="0" y="227.647" width="56.6929" height="22.6772" class="st1"/>
			<text x="0.25em 2.293em" y="243.79" class="st2">毘㝹</text>		</g>
		<g id="shape62-193" transform="translate(325.067,-31.6811)">
			<title>工作表.62</title>
			<desc>毘耶離國</desc>
			<rect x="0" y="227.647" width="73.7008" height="22.6772" class="st1"/>
			<text x="4.85" y="243.79" class="st2">毘耶離國</text>		</g>
		<g id="shape63-196" transform="translate(466.799,-31.6811)">
			<title>工作表.63</title>
			<desc>摩伽陀國</desc>
			<rect x="0" y="227.647" width="73.7008" height="22.6772" class="st1"/>
			<text x="4.85" y="243.79" class="st2">摩伽陀國</text>		</g>
		<g id="shape64-199" transform="translate(546.169,-31.6811)">
			<title>工作表.64</title>
			<desc>拘尸城</desc>
			<rect x="0" y="227.647" width="56.6929" height="22.6772" class="st1"/>
			<text x="0.25em 1.272em 2.293em" y="243.79" class="st2">拘尸城</text>		</g>
		<g id="shape65-202" transform="translate(17.5079,-17.5079)">
			<title>工作表.65</title>
			<desc>Ⅳ</desc>
			<rect x="0" y="227.647" width="22.6772" height="22.6772" class="st1"/>
			<text x="4" y="243.79" class="st2">Ⅳ</text>		</g>
		<g id="shape66-205" transform="translate(50.1063,-3.33465)">
			<title>工作表.66</title>
			<desc>力士</desc>
			<rect x="0" y="227.647" width="56.6929" height="22.6772" class="st1"/>
			<text x="0.25em 2.293em" y="243.79" class="st2">力士</text>		</g>
		<g id="shape67-208" transform="translate(120.972,-3.33465)">
			<title>工作表.67</title>
			<desc>剎帝利</desc>
			<rect x="0" y="227.647" width="56.6929" height="22.6772" class="st1"/>
			<text x="4.35" y="243.79" class="st2">剎帝利</text>		</g>
		<g id="shape68-211" transform="translate(191.839,-3.33465)">
			<title>工作表.68</title>
			<desc>拘樓羅</desc>
			<rect x="0" y="227.647" width="56.6929" height="22.6772" class="st1"/>
			<text x="0.25em 1.272em 2.293em" y="243.79" class="st2">拘樓羅</text>		</g>
		<g id="shape69-214" transform="translate(262.705,-3.33465)">
			<title>工作表.69</title>
			<desc>婆羅門</desc>
			<rect x="0" y="227.647" width="56.6929" height="22.6772" class="st1"/>
			<text x="4.35" y="243.79" class="st2">婆羅門</text>		</g>
		<g id="shape70-217" transform="translate(404.437,-3.33465)">
			<title>工作表.70</title>
			<desc>釋子</desc>
			<rect x="0" y="227.647" width="56.6929" height="22.6772" class="st1"/>
			<text x="0.25em 2.293em" y="243.79" class="st2">釋子</text>		</g>
		<g id="shape71-220" transform="translate(333.571,-3.33465)">
			<title>工作表.71</title>
			<desc>梨昌</desc>
			<rect x="0" y="227.647" width="56.6929" height="22.6772" class="st1"/>
			<text x="0.25em 2.293em" y="243.79" class="st2">梨昌</text>		</g>
		<g id="shape72-223" transform="translate(475.303,-3.33465)">
			<title>工作表.72</title>
			<desc>阿闍世</desc>
			<rect x="0" y="227.647" width="56.6929" height="22.6772" class="st1"/>
			<text x="0.25em 1.272em 2.293em" y="243.79" class="st2">阿闍世</text>		</g>
		<g id="shape73-226" transform="translate(546.169,-3.33465)">
			<title>工作表.73</title>
			<desc>力士</desc>
			<rect x="0" y="227.647" width="56.6929" height="22.6772" class="st1"/>
			<text x="0.25em 2.293em" y="243.79" class="st2">力士</text>		</g>
		<g id="shape87-229" transform="translate(405.854,-17.5079)">
			<title>工作表.87</title>
			<desc>迦 維 羅婆國</desc>
			<rect x="0" y="204.969" width="56.6929" height="45.3543" class="st1"/>
			<text x="0.25em" y="222.85" class="st2">迦<tspan x="1.251em 1.511em 1.772em 2.033em" dy="0em" class="st3">    </tspan><tspan
						x="2.293em" dy="0em" class="st3">維 </tspan><tspan x="0.25em 1.272em 2.293em" dy="1.2em" class="st3">羅婆國</tspan></text>		</g>
		<g id="shape61-235" transform="translate(-207.304,249.824) rotate(-90)">
			<title>工作表.61</title>
			<path d="M0 250.32 L240.94 250.32" class="st5"/>
		</g>
		<g id="shape74-238" transform="translate(-65.5719,249.824) rotate(-90)">
			<title>工作表.74</title>
			<path d="M0 250.32 L240.94 250.32" class="st5"/>
		</g>
		<g id="shape88-241" transform="translate(-136.438,249.824) rotate(-90)">
			<title>工作表.88</title>
			<path d="M0 250.32 L240.94 250.32" class="st5"/>
		</g>
		<g id="shape75-244" transform="translate(217.893,249.824) rotate(-90)">
			<title>工作表.75</title>
			<path d="M0 250.32 L240.94 250.32" class="st5"/>
		</g>
		<g id="shape76-247" transform="translate(147.027,249.824) rotate(-90)">
			<title>工作表.76</title>
			<path d="M0 250.32 L240.94 250.32" class="st5"/>
		</g>
		<g id="shape90-250" transform="translate(5.29429,249.824) rotate(-90)">
			<title>工作表.90</title>
			<path d="M0 250.32 L240.94 250.32" class="st5"/>
		</g>
		<g id="shape91-253" transform="translate(76.1604,249.824) rotate(-90)">
			<title>工作表.91</title>
			<path d="M0 250.32 L240.94 250.32" class="st5"/>
		</g>
		<g id="shape77-256" transform="translate(288.759,249.824) rotate(-90)">
			<title>工作表.77</title>
			<path d="M0 250.32 L240.94 250.32" class="st5"/>
		</g>
	</g>
</svg>
