<?xml version="1.0" encoding="UTF-8" standalone="no"?>
<!DOCTYPE svg PUBLIC "-//W3C//DTD SVG 1.1//EN" "http://www.w3.org/Graphics/SVG/1.1/DTD/svg11.dtd">
<!-- 由 Microsoft Visio, SVG Export 產生 y37.0033-h.svg 頁-1 -->
<svg xmlns="http://www.w3.org/2000/svg" xmlns:xlink="http://www.w3.org/1999/xlink" xmlns:ev="http://www.w3.org/2001/xml-events"
		width="3.88837in" height="13.7112in" viewBox="0 0 279.963 987.207" xml:space="preserve" color-interpolation-filters="sRGB"
		class="st3">
	<style type="text/css">
	<![CDATA[
		.st1 {fill:none;stroke:none;stroke-linecap:round;stroke-linejoin:round;stroke-width:0.75}
		.st2 {fill:#000000;font-family:新細明體;font-size:1.33333em}
		.st3 {fill:none;fill-rule:evenodd;font-size:12px;overflow:visible;stroke-linecap:square;stroke-miterlimit:3}
	]]>
	</style>

	<g>
		<title>頁-1</title>
		<g id="group203-1" transform="translate(0.375,-0.375)">
			<title>工作表.203</title>
			<g id="shape53-2" transform="translate(21.2598,-963.78)">
				<title>工作表.53</title>
				<desc>《阿惟越致遮經》</desc>
				<rect x="0" y="964.53" width="136.063" height="22.6772" class="st1"/>
				<text x="4.03" y="980.67" class="st2">《阿惟越致遮經》</text>			</g>
			<g id="shape54-5" transform="translate(19.8425,-935.433)">
				<title>工作表.54</title>
				<desc>《文殊師利嚴淨經》</desc>
				<rect x="0" y="964.53" width="153.071" height="22.6772" class="st1"/>
				<text x="4.54" y="980.67" class="st2">《文殊師利嚴淨經》</text>			</g>
			<g id="shape55-8" transform="translate(19.8425,-907.087)">
				<title>工作表.55</title>
				<desc>《文殊師利現寶藏經》</desc>
				<rect x="0" y="964.53" width="170.079" height="22.6772" class="st1"/>
				<text x="5.04" y="980.67" class="st2">《文殊師利現寶藏經》</text>			</g>
			<g id="shape56-11" transform="translate(19.8425,-878.74)">
				<title>工作表.56</title>
				<desc>《等集眾德三昧經》</desc>
				<rect x="0" y="964.53" width="153.071" height="22.6772" class="st1"/>
				<text x="4.54" y="980.67" class="st2">《等集眾德三昧經》</text>			</g>
			<g id="shape57-14" transform="translate(17.0079,-850.394)">
				<title>工作表.57</title>
				<desc>《大淨法門經》</desc>
				<rect x="0" y="964.53" width="127.559" height="22.6772" class="st1"/>
				<text x="7.78" y="980.67" class="st2">《大淨法門經》</text>			</g>
			<g id="shape58-17" transform="translate(17.0079,-822.047)">
				<title>工作表.58</title>
				<desc>《須真天子經》</desc>
				<rect x="0" y="964.53" width="127.559" height="22.6772" class="st1"/>
				<text x="7.78" y="980.67" class="st2">《須真天子經》</text>			</g>
			<g id="shape59-20" transform="translate(17.0079,-793.701)">
				<title>工作表.59</title>
				<desc>《幻士仁賢經》</desc>
				<rect x="0" y="964.53" width="127.559" height="22.6772" class="st1"/>
				<text x="7.78" y="980.67" class="st2">《幻士仁賢經》</text>			</g>
			<g id="shape60-23" transform="translate(18.4252,-765.354)">
				<title>工作表.60</title>
				<desc>《魔逆經》</desc>
				<rect x="0" y="964.53" width="90.7087" height="22.6772" class="st1"/>
				<text x="5.35" y="980.67" class="st2">《魔逆經》</text>			</g>
			<g id="shape61-26" transform="translate(21.2598,-737.008)">
				<title>工作表.61</title>
				<desc>《濟諸方等學經》</desc>
				<rect x="0" y="964.53" width="136.063" height="22.6772" class="st1"/>
				<text x="4.03" y="980.67" class="st2">《濟諸方等學經》</text>			</g>
			<g id="shape62-29" transform="translate(17.0079,-708.661)">
				<title>工作表.62</title>
				<desc>《德光太子經》</desc>
				<rect x="0" y="964.53" width="127.559" height="22.6772" class="st1"/>
				<text x="7.78" y="980.67" class="st2">《德光太子經》</text>			</g>
			<g id="shape63-32" transform="translate(17.0079,-680.315)">
				<title>工作表.63</title>
				<desc>《決定總持經》</desc>
				<rect x="0" y="964.53" width="127.559" height="22.6772" class="st1"/>
				<text x="7.78" y="980.67" class="st2">《決定總持經》</text>			</g>
			<g id="shape64-35" transform="translate(21.2598,-651.969)">
				<title>工作表.64</title>
				<desc>《五十緣身行經》</desc>
				<rect x="0" y="964.53" width="136.063" height="22.6772" class="st1"/>
				<text x="4.03" y="980.67" class="st2">《五十緣身行經》</text>			</g>
			<g id="shape65-38" transform="translate(21.2598,-623.622)">
				<title>工作表.65</title>
				<desc>《須摩提菩薩經》</desc>
				<rect x="0" y="964.53" width="136.063" height="22.6772" class="st1"/>
				<text x="4.03" y="980.67" class="st2">《須摩提菩薩經》</text>			</g>
			<g id="shape66-41" transform="translate(17.0079,-595.276)">
				<title>工作表.66</title>
				<desc>《方等泥洹經》</desc>
				<rect x="0" y="964.53" width="127.559" height="22.6772" class="st1"/>
				<text x="7.78" y="980.67" class="st2">《方等泥洹經》</text>			</g>
			<g id="shape67-44" transform="translate(8.50394,-566.929)">
				<title>工作表.67</title>
				<desc>《大善權經》</desc>
				<rect x="0" y="964.53" width="127.559" height="22.6772" class="st1"/>
				<text x="15.78" y="980.67" class="st2">《大善權經》</text>			</g>
			<g id="shape68-47" transform="translate(17.0079,-538.583)">
				<title>工作表.68</title>
				<desc>《無言童子經》</desc>
				<rect x="0" y="964.53" width="127.559" height="22.6772" class="st1"/>
				<text x="7.78" y="980.67" class="st2">《無言童子經》</text>			</g>
			<g id="shape69-50" transform="translate(21.2598,-510.236)">
				<title>工作表.69</title>
				<desc>《大方等頂王經》</desc>
				<rect x="0" y="964.53" width="136.063" height="22.6772" class="st1"/>
				<text x="4.03" y="980.67" class="st2">《大方等頂王經》</text>			</g>
			<g id="shape70-53" transform="translate(19.8425,-481.89)">
				<title>工作表.70</title>
				<desc>《文殊師利悔過經》</desc>
				<rect x="0" y="964.53" width="153.071" height="22.6772" class="st1"/>
				<text x="4.54" y="980.67" class="st2">《文殊師利悔過經》</text>			</g>
			<g id="shape71-56" transform="translate(17.0079,-453.543)">
				<title>工作表.71</title>
				<desc>《滅十方冥經》</desc>
				<rect x="0" y="964.53" width="127.559" height="22.6772" class="st1"/>
				<text x="7.78" y="980.67" class="st2">《滅十方冥經》</text>			</g>
			<g id="shape72-59" transform="translate(21.2598,-425.197)">
				<title>工作表.72</title>
				<desc>《無思議孩童經》</desc>
				<rect x="0" y="964.53" width="136.063" height="22.6772" class="st1"/>
				<text x="4.03" y="980.67" class="st2">《無思議孩童經》</text>			</g>
			<g id="shape73-62" transform="translate(17.0079,-396.85)">
				<title>工作表.73</title>
				<desc>《寶網童子經》</desc>
				<rect x="0" y="964.53" width="127.559" height="22.6772" class="st1"/>
				<text x="7.78" y="980.67" class="st2">《寶網童子經》</text>			</g>
			<g id="shape74-65" transform="translate(17.0079,-368.504)">
				<title>工作表.74</title>
				<desc>《順權方便經》</desc>
				<rect x="0" y="964.53" width="127.559" height="22.6772" class="st1"/>
				<text x="7.78" y="980.67" class="st2">《順權方便經》</text>			</g>
			<g id="shape75-68" transform="translate(8.50394,-340.157)">
				<title>工作表.75</title>
				<desc>《普門品經》</desc>
				<rect x="0" y="964.53" width="127.559" height="22.6772" class="st1"/>
				<text x="15.78" y="980.67" class="st2">《普門品經》</text>			</g>
			<g id="shape76-71" transform="translate(17.0079,-311.811)">
				<title>工作表.76</title>
				<desc>《如幻三昧經》</desc>
				<rect x="0" y="964.53" width="127.559" height="22.6772" class="st1"/>
				<text x="7.78" y="980.67" class="st2">《如幻三昧經》</text>			</g>
			<g id="shape77-74" transform="translate(17.0079,-283.465)">
				<title>工作表.77</title>
				<desc>《彌勒本願經》</desc>
				<rect x="0" y="964.53" width="127.559" height="22.6772" class="st1"/>
				<text x="7.78" y="980.67" class="st2">《彌勒本願經》</text>			</g>
			<g id="shape78-77" transform="translate(-1.59872E-14,-255.118)">
				<title>工作表.78</title>
				<desc>《乳光經》</desc>
				<rect x="0" y="964.53" width="127.559" height="22.6772" class="st1"/>
				<text x="23.78" y="980.67" class="st2">《乳光經》</text>			</g>
			<g id="shape79-80" transform="translate(1.1191E-13,-226.772)">
				<title>工作表.79</title>
				<desc>《心明經》</desc>
				<rect x="0" y="964.53" width="127.559" height="22.6772" class="st1"/>
				<text x="23.78" y="980.67" class="st2">《心明經》</text>			</g>
			<g id="shape80-83" transform="translate(17.0079,-198.425)">
				<title>工作表.80</title>
				<desc>《無所希望經》</desc>
				<rect x="0" y="964.53" width="127.559" height="22.6772" class="st1"/>
				<text x="7.78" y="980.67" class="st2">《無所希望經》</text>			</g>
			<g id="shape81-86" transform="translate(19.8425,-170.079)">
				<title>工作表.81</title>
				<desc>《獨證自誓三昧經》</desc>
				<rect x="0" y="964.53" width="153.071" height="22.6772" class="st1"/>
				<text x="4.54" y="980.67" class="st2">《獨證自誓三昧經》</text>			</g>
			<g id="shape82-89" transform="translate(21.2598,-141.732)">
				<title>工作表.82</title>
				<desc>《無極寶三昧經》</desc>
				<rect x="0" y="964.53" width="136.063" height="22.6772" class="st1"/>
				<text x="4.03" y="980.67" class="st2">《無極寶三昧經》</text>			</g>
			<g id="shape83-92" transform="translate(8.50394,-113.386)">
				<title>工作表.83</title>
				<desc>《阿術達經》</desc>
				<rect x="0" y="964.53" width="127.559" height="22.6772" class="st1"/>
				<text x="15.78" y="980.67" class="st2">《阿術達經》</text>			</g>
			<g id="shape84-95" transform="translate(17.0079,-85.0394)">
				<title>工作表.84</title>
				<desc>《三品修行經》</desc>
				<rect x="0" y="964.53" width="127.559" height="22.6772" class="st1"/>
				<text x="7.78" y="980.67" class="st2">《三品修行經》</text>			</g>
			<g id="shape85-98" transform="translate(18.4252,-56.6929)">
				<title>工作表.85</title>
				<desc>《舍頭諫太子二十八宿經》</desc>
				<rect x="0" y="964.53" width="204.094" height="22.6772" class="st1"/>
				<text x="6.05" y="980.67" class="st2">《舍頭諫太子二十八宿經》</text>			</g>
			<g id="shape86-101" transform="translate(19.8425,-28.3465)">
				<title>工作表.86</title>
				<desc>《光世音大勢至授決經》</desc>
				<rect x="0" y="964.53" width="184.252" height="22.6772" class="st1"/>
				<text x="4.13" y="980.67" class="st2">《光世音大勢至授決經》</text>			</g>
			<g id="shape87-104" transform="translate(21.2598,-3.41061E-13)">
				<title>工作表.87</title>
				<desc>《超日明三昧經》</desc>
				<rect x="0" y="964.53" width="136.063" height="22.6772" class="st1"/>
				<text x="4.03" y="980.67" class="st2">《超日明三昧經》</text>			</g>
			<g id="shape127-107" transform="translate(4.25197,-311.811)">
				<title>工作表.127</title>
				<desc>24</desc>
				<rect x="0" y="964.53" width="28.3465" height="22.6772" class="st1"/>
				<text x="6.66" y="980.67" class="st2">24</text>			</g>
			<g id="shape112-110" transform="translate(4.25197,-708.661)">
				<title>工作表.112</title>
				<desc>10</desc>
				<rect x="0" y="964.53" width="28.3465" height="22.6772" class="st1"/>
				<text x="6.66" y="980.67" class="st2">10</text>			</g>
			<g id="shape113-113" transform="translate(4.25197,-680.315)">
				<title>工作表.113</title>
				<desc>11</desc>
				<rect x="0" y="964.53" width="28.3465" height="22.6772" class="st1"/>
				<text x="6.66" y="980.67" class="st2">11</text>			</g>
			<g id="shape114-116" transform="translate(4.25197,-651.969)">
				<title>工作表.114</title>
				<desc>12</desc>
				<rect x="0" y="964.53" width="28.3465" height="22.6772" class="st1"/>
				<text x="6.66" y="980.67" class="st2">12</text>			</g>
			<g id="shape115-119" transform="translate(4.25197,-623.622)">
				<title>工作表.115</title>
				<desc>13</desc>
				<rect x="0" y="964.53" width="28.3465" height="22.6772" class="st1"/>
				<text x="6.66" y="980.67" class="st2">13</text>			</g>
			<g id="shape116-122" transform="translate(4.25197,-595.276)">
				<title>工作表.116</title>
				<desc>14</desc>
				<rect x="0" y="964.53" width="28.3465" height="22.6772" class="st1"/>
				<text x="6.66" y="980.67" class="st2">14</text>			</g>
			<g id="shape118-125" transform="translate(4.25197,-566.929)">
				<title>工作表.118</title>
				<desc>15</desc>
				<rect x="0" y="964.53" width="28.3465" height="22.6772" class="st1"/>
				<text x="6.66" y="980.67" class="st2">15</text>			</g>
			<g id="shape119-128" transform="translate(4.25197,-538.583)">
				<title>工作表.119</title>
				<desc>16</desc>
				<rect x="0" y="964.53" width="28.3465" height="22.6772" class="st1"/>
				<text x="6.66" y="980.67" class="st2">16</text>			</g>
			<g id="shape120-131" transform="translate(4.25197,-510.236)">
				<title>工作表.120</title>
				<desc>17</desc>
				<rect x="0" y="964.53" width="28.3465" height="22.6772" class="st1"/>
				<text x="6.66" y="980.67" class="st2">17</text>			</g>
			<g id="shape121-134" transform="translate(4.25197,-481.89)">
				<title>工作表.121</title>
				<desc>18</desc>
				<rect x="0" y="964.53" width="28.3465" height="22.6772" class="st1"/>
				<text x="6.66" y="980.67" class="st2">18</text>			</g>
			<g id="shape122-137" transform="translate(4.25197,-453.543)">
				<title>工作表.122</title>
				<desc>19</desc>
				<rect x="0" y="964.53" width="28.3465" height="22.6772" class="st1"/>
				<text x="6.66" y="980.67" class="st2">19</text>			</g>
			<g id="shape123-140" transform="translate(4.25197,-425.197)">
				<title>工作表.123</title>
				<desc>20</desc>
				<rect x="0" y="964.53" width="28.3465" height="22.6772" class="st1"/>
				<text x="6.66" y="980.67" class="st2">20</text>			</g>
			<g id="shape124-143" transform="translate(4.25197,-396.85)">
				<title>工作表.124</title>
				<desc>21</desc>
				<rect x="0" y="964.53" width="28.3465" height="22.6772" class="st1"/>
				<text x="6.66" y="980.67" class="st2">21</text>			</g>
			<g id="shape125-146" transform="translate(4.25197,-368.504)">
				<title>工作表.125</title>
				<desc>22</desc>
				<rect x="0" y="964.53" width="28.3465" height="22.6772" class="st1"/>
				<text x="6.66" y="980.67" class="st2">22</text>			</g>
			<g id="shape126-149" transform="translate(4.25197,-340.157)">
				<title>工作表.126</title>
				<desc>23</desc>
				<rect x="0" y="964.53" width="28.3465" height="22.6772" class="st1"/>
				<text x="6.66" y="980.67" class="st2">23</text>			</g>
			<g id="shape128-152" transform="translate(4.25197,-283.465)">
				<title>工作表.128</title>
				<desc>25</desc>
				<rect x="0" y="964.53" width="28.3465" height="22.6772" class="st1"/>
				<text x="6.66" y="980.67" class="st2">25</text>			</g>
			<g id="shape129-155" transform="translate(4.25197,-255.118)">
				<title>工作表.129</title>
				<desc>26</desc>
				<rect x="0" y="964.53" width="28.3465" height="22.6772" class="st1"/>
				<text x="6.66" y="980.67" class="st2">26</text>			</g>
			<g id="shape130-158" transform="translate(4.25197,-226.772)">
				<title>工作表.130</title>
				<desc>27</desc>
				<rect x="0" y="964.53" width="28.3465" height="22.6772" class="st1"/>
				<text x="6.66" y="980.67" class="st2">27</text>			</g>
			<g id="shape131-161" transform="translate(4.25197,-198.425)">
				<title>工作表.131</title>
				<desc>28</desc>
				<rect x="0" y="964.53" width="28.3465" height="22.6772" class="st1"/>
				<text x="6.66" y="980.67" class="st2">28</text>			</g>
			<g id="shape132-164" transform="translate(4.25197,-170.079)">
				<title>工作表.132</title>
				<desc>29</desc>
				<rect x="0" y="964.53" width="28.3465" height="22.6772" class="st1"/>
				<text x="6.66" y="980.67" class="st2">29</text>			</g>
			<g id="shape133-167" transform="translate(4.25197,-141.732)">
				<title>工作表.133</title>
				<desc>30</desc>
				<rect x="0" y="964.53" width="28.3465" height="22.6772" class="st1"/>
				<text x="6.66" y="980.67" class="st2">30</text>			</g>
			<g id="shape134-170" transform="translate(4.25197,-113.386)">
				<title>工作表.134</title>
				<desc>31</desc>
				<rect x="0" y="964.53" width="28.3465" height="22.6772" class="st1"/>
				<text x="6.66" y="980.67" class="st2">31</text>			</g>
			<g id="shape135-173" transform="translate(4.25197,-85.0394)">
				<title>工作表.135</title>
				<desc>32</desc>
				<rect x="0" y="964.53" width="28.3465" height="22.6772" class="st1"/>
				<text x="6.66" y="980.67" class="st2">32</text>			</g>
			<g id="shape136-176" transform="translate(4.25197,-56.6929)">
				<title>工作表.136</title>
				<desc>33</desc>
				<rect x="0" y="964.53" width="28.3465" height="22.6772" class="st1"/>
				<text x="6.66" y="980.67" class="st2">33</text>			</g>
			<g id="shape137-179" transform="translate(4.25197,-28.3465)">
				<title>工作表.137</title>
				<desc>34</desc>
				<rect x="0" y="964.53" width="28.3465" height="22.6772" class="st1"/>
				<text x="6.66" y="980.67" class="st2">34</text>			</g>
			<g id="shape138-182" transform="translate(4.25197,0)">
				<title>工作表.138</title>
				<desc>35</desc>
				<rect x="0" y="964.53" width="28.3465" height="22.6772" class="st1"/>
				<text x="6.66" y="980.67" class="st2">35</text>			</g>
			<g id="shape151-185" transform="translate(236.693,-9.09495E-13)">
				<title>工作表.151</title>
				<desc>二卷</desc>
				<rect x="0" y="964.53" width="42.5197" height="22.6772" class="st1"/>
				<text x="5.26" y="980.67" class="st2">二卷</text>			</g>
			<g id="shape152-188" transform="translate(236.693,-28.3465)">
				<title>工作表.152</title>
				<desc>一卷</desc>
				<rect x="0" y="964.53" width="42.5197" height="22.6772" class="st1"/>
				<text x="5.26" y="980.67" class="st2">一卷</text>			</g>
			<g id="shape153-191" transform="translate(236.693,-311.811)">
				<title>工作表.153</title>
				<desc>二卷</desc>
				<rect x="0" y="964.53" width="42.5197" height="22.6772" class="st1"/>
				<text x="5.26" y="980.67" class="st2">二卷</text>			</g>
			<g id="shape154-194" transform="translate(236.693,-56.6929)">
				<title>工作表.154</title>
				<desc>一卷</desc>
				<rect x="0" y="964.53" width="42.5197" height="22.6772" class="st1"/>
				<text x="5.26" y="980.67" class="st2">一卷</text>			</g>
			<g id="shape155-197" transform="translate(236.693,-85.0394)">
				<title>工作表.155</title>
				<desc>一卷</desc>
				<rect x="0" y="964.53" width="42.5197" height="22.6772" class="st1"/>
				<text x="5.26" y="980.67" class="st2">一卷</text>			</g>
			<g id="shape158-200" transform="translate(236.693,-113.386)">
				<title>工作表.158</title>
				<desc>一卷</desc>
				<rect x="0" y="964.53" width="42.5197" height="22.6772" class="st1"/>
				<text x="5.26" y="980.67" class="st2">一卷</text>			</g>
			<g id="shape159-203" transform="translate(236.693,-141.732)">
				<title>工作表.159</title>
				<desc>一卷</desc>
				<rect x="0" y="964.53" width="42.5197" height="22.6772" class="st1"/>
				<text x="5.26" y="980.67" class="st2">一卷</text>			</g>
			<g id="shape160-206" transform="translate(236.693,-170.079)">
				<title>工作表.160</title>
				<desc>一卷</desc>
				<rect x="0" y="964.53" width="42.5197" height="22.6772" class="st1"/>
				<text x="5.26" y="980.67" class="st2">一卷</text>			</g>
			<g id="shape161-209" transform="translate(236.693,-198.425)">
				<title>工作表.161</title>
				<desc>一卷</desc>
				<rect x="0" y="964.53" width="42.5197" height="22.6772" class="st1"/>
				<text x="5.26" y="980.67" class="st2">一卷</text>			</g>
			<g id="shape162-212" transform="translate(236.693,-226.772)">
				<title>工作表.162</title>
				<desc>一卷</desc>
				<rect x="0" y="964.53" width="42.5197" height="22.6772" class="st1"/>
				<text x="5.26" y="980.67" class="st2">一卷</text>			</g>
			<g id="shape163-215" transform="translate(236.693,-255.118)">
				<title>工作表.163</title>
				<desc>一卷</desc>
				<rect x="0" y="964.53" width="42.5197" height="22.6772" class="st1"/>
				<text x="5.26" y="980.67" class="st2">一卷</text>			</g>
			<g id="shape164-218" transform="translate(236.693,-283.465)">
				<title>工作表.164</title>
				<desc>一卷</desc>
				<rect x="0" y="964.53" width="42.5197" height="22.6772" class="st1"/>
				<text x="5.26" y="980.67" class="st2">一卷</text>			</g>
			<g id="shape166-221" transform="translate(236.693,-340.157)">
				<title>工作表.166</title>
				<desc>一卷</desc>
				<rect x="0" y="964.53" width="42.5197" height="22.6772" class="st1"/>
				<text x="5.26" y="980.67" class="st2">一卷</text>			</g>
			<g id="shape167-224" transform="translate(236.693,-368.504)">
				<title>工作表.167</title>
				<desc>二卷</desc>
				<rect x="0" y="964.53" width="42.5197" height="22.6772" class="st1"/>
				<text x="5.26" y="980.67" class="st2">二卷</text>			</g>
			<g id="shape168-227" transform="translate(236.693,-396.85)">
				<title>工作表.168</title>
				<desc>一卷</desc>
				<rect x="0" y="964.53" width="42.5197" height="22.6772" class="st1"/>
				<text x="5.26" y="980.67" class="st2">一卷</text>			</g>
			<g id="shape169-230" transform="translate(236.693,-425.197)">
				<title>工作表.169</title>
				<desc>一卷</desc>
				<rect x="0" y="964.53" width="42.5197" height="22.6772" class="st1"/>
				<text x="5.26" y="980.67" class="st2">一卷</text>			</g>
			<g id="shape170-233" transform="translate(236.693,-453.543)">
				<title>工作表.170</title>
				<desc>一卷</desc>
				<rect x="0" y="964.53" width="42.5197" height="22.6772" class="st1"/>
				<text x="5.26" y="980.67" class="st2">一卷</text>			</g>
			<g id="shape171-236" transform="translate(236.693,-481.89)">
				<title>工作表.171</title>
				<desc>一卷</desc>
				<rect x="0" y="964.53" width="42.5197" height="22.6772" class="st1"/>
				<text x="5.26" y="980.67" class="st2">一卷</text>			</g>
			<g id="shape172-239" transform="translate(236.693,-510.236)">
				<title>工作表.172</title>
				<desc>一卷</desc>
				<rect x="0" y="964.53" width="42.5197" height="22.6772" class="st1"/>
				<text x="5.26" y="980.67" class="st2">一卷</text>			</g>
			<g id="shape173-242" transform="translate(236.693,-538.583)">
				<title>工作表.173</title>
				<desc>一卷</desc>
				<rect x="0" y="964.53" width="42.5197" height="22.6772" class="st1"/>
				<text x="5.26" y="980.67" class="st2">一卷</text>			</g>
			<g id="shape174-245" transform="translate(236.693,-566.929)">
				<title>工作表.174</title>
				<desc>二卷</desc>
				<rect x="0" y="964.53" width="42.5197" height="22.6772" class="st1"/>
				<text x="5.26" y="980.67" class="st2">二卷</text>			</g>
			<g id="shape175-248" transform="translate(236.693,-595.276)">
				<title>工作表.175</title>
				<desc>二卷</desc>
				<rect x="0" y="964.53" width="42.5197" height="22.6772" class="st1"/>
				<text x="5.26" y="980.67" class="st2">二卷</text>			</g>
			<g id="shape176-251" transform="translate(236.693,-623.622)">
				<title>工作表.176</title>
				<desc>一卷</desc>
				<rect x="0" y="964.53" width="42.5197" height="22.6772" class="st1"/>
				<text x="5.26" y="980.67" class="st2">一卷</text>			</g>
			<g id="shape177-254" transform="translate(236.693,-651.969)">
				<title>工作表.177</title>
				<desc>一卷</desc>
				<rect x="0" y="964.53" width="42.5197" height="22.6772" class="st1"/>
				<text x="5.26" y="980.67" class="st2">一卷</text>			</g>
			<g id="shape178-257" transform="translate(236.693,-680.315)">
				<title>工作表.178</title>
				<desc>一卷</desc>
				<rect x="0" y="964.53" width="42.5197" height="22.6772" class="st1"/>
				<text x="5.26" y="980.67" class="st2">一卷</text>			</g>
			<g id="shape179-260" transform="translate(236.693,-708.661)">
				<title>工作表.179</title>
				<desc>一卷</desc>
				<rect x="0" y="964.53" width="42.5197" height="22.6772" class="st1"/>
				<text x="5.26" y="980.67" class="st2">一卷</text>			</g>
			<g id="shape165-263" transform="translate(236.693,-737.008)">
				<title>工作表.165</title>
				<desc>一卷</desc>
				<rect x="0" y="964.53" width="42.5197" height="22.6772" class="st1"/>
				<text x="5.26" y="980.67" class="st2">一卷</text>			</g>
			<g id="shape180-266" transform="translate(236.693,-765.354)">
				<title>工作表.180</title>
				<desc>一卷</desc>
				<rect x="0" y="964.53" width="42.5197" height="22.6772" class="st1"/>
				<text x="5.26" y="980.67" class="st2">一卷</text>			</g>
			<g id="shape181-269" transform="translate(236.693,-793.701)">
				<title>工作表.181</title>
				<desc>一卷</desc>
				<rect x="0" y="964.53" width="42.5197" height="22.6772" class="st1"/>
				<text x="5.26" y="980.67" class="st2">一卷</text>			</g>
			<g id="shape182-272" transform="translate(236.693,-822.047)">
				<title>工作表.182</title>
				<desc>二卷</desc>
				<rect x="0" y="964.53" width="42.5197" height="22.6772" class="st1"/>
				<text x="5.26" y="980.67" class="st2">二卷</text>			</g>
			<g id="shape183-275" transform="translate(236.693,-850.394)">
				<title>工作表.183</title>
				<desc>一卷</desc>
				<rect x="0" y="964.53" width="42.5197" height="22.6772" class="st1"/>
				<text x="5.26" y="980.67" class="st2">一卷</text>			</g>
			<g id="shape184-278" transform="translate(236.693,-878.74)">
				<title>工作表.184</title>
				<desc>三卷</desc>
				<rect x="0" y="964.53" width="42.5197" height="22.6772" class="st1"/>
				<text x="5.26" y="980.67" class="st2">三卷</text>			</g>
			<g id="shape156-281" transform="translate(236.693,-935.433)">
				<title>工作表.156</title>
				<desc>二卷</desc>
				<rect x="0" y="964.53" width="42.5197" height="22.6772" class="st1"/>
				<text x="5.26" y="980.67" class="st2">二卷</text>			</g>
			<g id="shape157-284" transform="translate(236.693,-907.087)">
				<title>工作表.157</title>
				<desc>二卷</desc>
				<rect x="0" y="964.53" width="42.5197" height="22.6772" class="st1"/>
				<text x="5.26" y="980.67" class="st2">二卷</text>			</g>
			<g id="shape185-287" transform="translate(236.693,-963.78)">
				<title>工作表.185</title>
				<desc>四卷</desc>
				<rect x="0" y="964.53" width="42.5197" height="22.6772" class="st1"/>
				<text x="5.26" y="980.67" class="st2">四卷</text>			</g>
			<g id="shape104-290" transform="translate(7.08661,-963.78)">
				<title>工作表.104</title>
				<desc>1</desc>
				<rect x="0" y="964.53" width="22.6772" height="22.6772" class="st1"/>
				<text x="7.58" y="980.67" class="st2">1</text>			</g>
			<g id="shape105-293" transform="translate(7.08661,-907.087)">
				<title>工作表.105</title>
				<desc>3</desc>
				<rect x="0" y="964.53" width="22.6772" height="22.6772" class="st1"/>
				<text x="7.58" y="980.67" class="st2">3</text>			</g>
			<g id="shape106-296" transform="translate(7.08661,-878.74)">
				<title>工作表.106</title>
				<desc>4</desc>
				<rect x="0" y="964.53" width="22.6772" height="22.6772" class="st1"/>
				<text x="7.58" y="980.67" class="st2">4</text>			</g>
			<g id="shape107-299" transform="translate(7.08661,-850.394)">
				<title>工作表.107</title>
				<desc>5</desc>
				<rect x="0" y="964.53" width="22.6772" height="22.6772" class="st1"/>
				<text x="7.58" y="980.67" class="st2">5</text>			</g>
			<g id="shape108-302" transform="translate(7.08661,-822.047)">
				<title>工作表.108</title>
				<desc>6</desc>
				<rect x="0" y="964.53" width="22.6772" height="22.6772" class="st1"/>
				<text x="7.58" y="980.67" class="st2">6 </text>			</g>
			<g id="shape109-305" transform="translate(7.08661,-793.701)">
				<title>工作表.109</title>
				<desc>7</desc>
				<rect x="0" y="964.53" width="22.6772" height="22.6772" class="st1"/>
				<text x="7.58" y="980.67" class="st2">7</text>			</g>
			<g id="shape110-308" transform="translate(7.08661,-765.354)">
				<title>工作表.110</title>
				<desc>8</desc>
				<rect x="0" y="964.53" width="22.6772" height="22.6772" class="st1"/>
				<text x="7.58" y="980.67" class="st2">8</text>			</g>
			<g id="shape111-311" transform="translate(7.08661,-737.008)">
				<title>工作表.111</title>
				<desc>9</desc>
				<rect x="0" y="964.53" width="22.6772" height="22.6772" class="st1"/>
				<text x="7.58" y="980.67" class="st2">9</text>			</g>
			<g id="shape117-314" transform="translate(7.08661,-935.433)">
				<title>工作表.117</title>
				<desc>2</desc>
				<rect x="0" y="964.53" width="22.6772" height="22.6772" class="st1"/>
				<text x="7.58" y="980.67" class="st2">2</text>			</g>
		</g>
	</g>
</svg>
