<?xml version="1.0" encoding="UTF-8" standalone="no"?>
<!DOCTYPE svg PUBLIC "-//W3C//DTD SVG 1.1//EN" "http://www.w3.org/Graphics/SVG/1.1/DTD/svg11.dtd">
<!-- 由 Microsoft Visio, SVG Export 產生 y37.0554-h.svg 頁-1 -->
<svg xmlns="http://www.w3.org/2000/svg" xmlns:xlink="http://www.w3.org/1999/xlink" xmlns:ev="http://www.w3.org/2001/xml-events"
		width="6.7068in" height="1.19499in" viewBox="0 0 482.89 86.0394" xml:space="preserve" color-interpolation-filters="sRGB"
		class="st4">
	<style type="text/css">
	<![CDATA[
		.st1 {fill:none;stroke:none;stroke-linecap:round;stroke-linejoin:round;stroke-width:0.75}
		.st2 {fill:#000000;font-family:新細明體;font-size:1.33333em}
		.st3 {stroke:#000000;stroke-linecap:round;stroke-linejoin:round;stroke-width:1}
		.st4 {fill:none;fill-rule:evenodd;font-size:12px;overflow:visible;stroke-linecap:square;stroke-miterlimit:3}
	]]>
	</style>

	<g>
		<title>頁-1</title>
		<g id="group21-1" transform="translate(0.5,-0.5)">
			<title>工作表.21</title>
			<g id="shape1-2" transform="translate(113.386,-59.5276)">
				<title>工作表.1</title>
				<desc>原始大乘</desc>
				<rect x="0" y="63.3622" width="73.7008" height="22.6772" class="st1"/>
				<text x="4.85" y="79.5" class="st2">原始大乘</text>			</g>
			<g id="shape2-5" transform="translate(296.22,-59.5276)">
				<title>工作表.2</title>
				<desc>初期大乘</desc>
				<rect x="0" y="63.3622" width="73.7008" height="22.6772" class="st1"/>
				<text x="4.85" y="79.5" class="st2">初期大乘</text>			</g>
			<g id="shape3-8" transform="translate(1.19904E-14,-31.1811)">
				<title>工作表.3</title>
				<desc>萌芽期</desc>
				<rect x="0" y="63.3622" width="56.6929" height="22.6772" class="st1"/>
				<text x="4.35" y="79.5" class="st2">萌芽期</text>			</g>
			<g id="shape4-11" transform="translate(1.43885E-13,-2.83465)">
				<title>工作表.4</title>
				<desc>發達期</desc>
				<rect x="0" y="63.3622" width="56.6929" height="22.6772" class="st1"/>
				<text x="4.35" y="79.5" class="st2">發達期</text>			</g>
			<g id="shape5-14" transform="translate(113.386,-31.1811)">
				<title>工作表.5</title>
				<desc>紀元前一○○</desc>
				<rect x="0" y="63.3622" width="104.882" height="22.6772" class="st1"/>
				<text x="4" y="79.5" class="st2">紀元前一○○</text>			</g>
			<g id="shape6-17" transform="translate(297.638,-31.1811)">
				<title>工作表.6</title>
				<desc>紀元後五○</desc>
				<rect x="0" y="63.3622" width="90.7087" height="22.6772" class="st1"/>
				<text x="4" y="79.5" class="st2">紀元後五○</text>			</g>
			<g id="shape7-20" transform="translate(425.197,-31.1811)">
				<title>工作表.7</title>
				<desc>一○○</desc>
				<rect x="0" y="63.3622" width="56.6929" height="22.6772" class="st1"/>
				<text x="4" y="79.68" class="st2">一○○</text>			</g>
			<g id="shape8-23" transform="translate(243.78,-31.1811)">
				<title>工作表.8</title>
				<desc>一</desc>
				<rect x="0" y="63.3622" width="22.6772" height="22.6772" class="st1"/>
				<text x="11.34" y="67.36" writing-mode="tb-rl" class="st2">一</text>			</g>
			<g id="shape9-26" transform="translate(113.386,-2.83465)">
				<title>工作表.9</title>
				<desc>紀元後一</desc>
				<rect x="0" y="63.3622" width="73.7008" height="22.6772" class="st1"/>
				<text x="4.85" y="79.5" class="st2">紀元後一</text>			</g>
			<g id="shape10-29" transform="translate(212.598,-2.83465)">
				<title>工作表.10</title>
				<desc>一○○</desc>
				<rect x="0" y="63.3622" width="56.6929" height="22.6772" class="st1"/>
				<text x="4" y="79.5" class="st2">一○○</text>			</g>
			<g id="shape11-32" transform="translate(297.638,-2.83465)">
				<title>工作表.11</title>
				<desc>紀元後一○○</desc>
				<rect x="0" y="63.3622" width="104.882" height="22.6772" class="st1"/>
				<text x="4" y="79.5" class="st2">紀元後一○○</text>			</g>
			<g id="shape12-35" transform="translate(425.197,-2.83465)">
				<title>工作表.12</title>
				<desc>二五○</desc>
				<rect x="0" y="63.3622" width="56.6929" height="22.6772" class="st1"/>
				<text x="4" y="79.5" class="st2">二五○</text>			</g>
			<g id="shape14-38" transform="translate(1.27898E-13,-56.6929)">
				<title>工作表.14</title>
				<path d="M0 86.04 L481.89 86.04" class="st3"/>
			</g>
			<g id="shape15-41" transform="translate(184.252,-12.7559)">
				<title>工作表.15</title>
				<path d="M0 86.04 L25.51 86.04" class="st3"/>
			</g>
			<g id="shape16-44" transform="translate(-1,86.0394) rotate(-90)">
				<title>工作表.16</title>
				<path d="M0 86.04 L85.04 86.04" class="st3"/>
			</g>
			<g id="shape17-47" transform="translate(190.339,86.0394) rotate(-90)">
				<title>工作表.17</title>
				<path d="M0 86.04 L85.04 86.04" class="st3"/>
			</g>
			<g id="shape18-50" transform="translate(215.433,-42.5197)">
				<title>工作表.18</title>
				<path d="M0 86.04 L25.98 86.04" class="st3"/>
			</g>
			<g id="shape19-53" transform="translate(385.512,-42.5197)">
				<title>工作表.19</title>
				<path d="M0 86.04 L39.69 86.04" class="st3"/>
			</g>
			<g id="shape20-56" transform="translate(399.685,-14.1732)">
				<title>工作表.20</title>
				<path d="M0 86.04 L25.51 86.04" class="st3"/>
			</g>
		</g>
	</g>
</svg>
