<?xml version="1.0" encoding="UTF-8" standalone="no"?>
<!DOCTYPE svg PUBLIC "-//W3C//DTD SVG 1.1//EN" "http://www.w3.org/Graphics/SVG/1.1/DTD/svg11.dtd">
<!-- 由 Microsoft Visio, SVG Export 產生 y37.0841.svg 頁-1 -->
<svg xmlns="http://www.w3.org/2000/svg" xmlns:xlink="http://www.w3.org/1999/xlink" xmlns:ev="http://www.w3.org/2001/xml-events"
		width="5.71908in" height="6.6657in" viewBox="0 0 411.774 479.93" xml:space="preserve" color-interpolation-filters="sRGB"
		class="st5">
	<style type="text/css">
	<![CDATA[
		.st1 {fill:none;stroke:none;stroke-linecap:round;stroke-linejoin:round;stroke-width:0.75}
		.st2 {fill:#000000;font-family:新細明體;font-size:1.33333em}
		.st3 {stroke:#000000;stroke-dasharray:0,4.5;stroke-linecap:round;stroke-linejoin:round;stroke-width:1.5}
		.st4 {fill:none;stroke:#000000;stroke-linecap:round;stroke-linejoin:round;stroke-width:1}
		.st5 {fill:none;fill-rule:evenodd;font-size:12px;overflow:visible;stroke-linecap:square;stroke-miterlimit:3}
	]]>
	</style>

	<g>
		<title>頁-1</title>
		<g id="group70-1" transform="translate(0.375,-0.375)">
			<title>工作表.70</title>
			<g id="shape1-2" transform="translate(28.3465,-453.543)">
				<title>工作表.1</title>
				<desc>三卷本</desc>
				<rect x="0" y="457.253" width="56.6929" height="22.6772" class="st1"/>
				<text x="4.35" y="473.39" class="st2">三卷本</text>			</g>
			<g id="shape2-5" transform="translate(226.772,-453.543)">
				<title>工作表.2</title>
				<desc>一卷本</desc>
				<rect x="0" y="457.253" width="56.6929" height="22.6772" class="st1"/>
				<text x="4.35" y="473.39" class="st2">一卷本</text>			</g>
			<g id="shape5-8" transform="translate(28.3465,-425.197)">
				<title>工作表.5</title>
				<desc>〈問事品〉</desc>
				<rect x="0" y="457.253" width="90.7087" height="22.6772" class="st1"/>
				<text x="5.35" y="473.39" class="st2">〈問事品〉</text>			</g>
			<g id="shape6-11" transform="translate(226.772,-423.716)">
				<title>工作表.6</title>
				<desc>〈問事品〉簡略</desc>
				<rect x="0" y="457.253" width="153.071" height="22.6772" class="st1"/>
				<text x="4.54" y="473.39" class="st2">〈問事品〉（簡略）</text>			</g>
			<g id="shape7-14" transform="translate(28.3465,-396.85)">
				<title>工作表.7</title>
				<desc>〈行品〉</desc>
				<rect x="0" y="457.253" width="73.7008" height="22.6772" class="st1"/>
				<text x="4.85" y="473.39" class="st2">〈行品〉</text>			</g>
			<g id="shape8-17" transform="translate(28.3465,-368.504)">
				<title>工作表.8</title>
				<desc>〈四事品〉</desc>
				<rect x="0" y="457.253" width="90.7087" height="22.6772" class="st1"/>
				<text x="5.35" y="473.39" class="st2">〈四事品〉</text>			</g>
			<g id="shape9-20" transform="translate(226.772,-368.504)">
				<title>工作表.9</title>
				<desc>〈四事品〉缺末後偈</desc>
				<rect x="0" y="457.253" width="184.252" height="22.6772" class="st1"/>
				<text x="4.13" y="473.39" class="st2">〈四事品〉（缺末後偈）</text>			</g>
			<g id="shape12-23" transform="translate(28.3465,-340.157)">
				<title>工作表.12</title>
				<desc>〈譬喻品〉</desc>
				<rect x="0" y="457.253" width="90.7087" height="22.6772" class="st1"/>
				<text x="5.35" y="473.39" class="st2">〈譬喻品〉</text>			</g>
			<g id="shape14-26" transform="translate(28.3465,-311.811)">
				<title>工作表.14</title>
				<desc>〈無著品〉</desc>
				<rect x="0" y="457.253" width="90.7087" height="22.6772" class="st1"/>
				<text x="5.35" y="473.39" class="st2">〈無著品〉</text>			</g>
			<g id="shape16-29" transform="translate(28.3465,-283.465)">
				<title>工作表.16</title>
				<desc>〈四輩品〉</desc>
				<rect x="0" y="457.253" width="90.7087" height="22.6772" class="st1"/>
				<text x="5.35" y="473.39" class="st2">〈四輩品〉</text>			</g>
			<g id="shape18-32" transform="translate(28.3465,-221.102)">
				<title>工作表.18</title>
				<desc>〈授決品〉</desc>
				<rect x="0" y="389.221" width="90.7087" height="90.7087" class="st1"/>
				<text x="5.35" y="439.38" class="st2">〈授決品〉</text>			</g>
			<g id="shape20-35" transform="translate(28.3465,-226.772)">
				<title>工作表.20</title>
				<desc>〈擁護品〉</desc>
				<rect x="0" y="457.253" width="90.7087" height="22.6772" class="st1"/>
				<text x="5.35" y="473.39" class="st2">〈擁護品〉</text>			</g>
			<g id="shape21-38" transform="translate(226.772,-226.772)">
				<title>工作表.21</title>
				<desc>〈擁護品〉缺偈</desc>
				<rect x="0" y="457.253" width="153.071" height="22.6772" class="st1"/>
				<text x="4.54" y="473.39" class="st2">〈擁護品〉（缺偈）</text>			</g>
			<g id="shape22-41" transform="translate(2.83465,-198.425)">
				<title>工作表.22</title>
				<desc>9.</desc>
				<rect x="0" y="457.253" width="22.6772" height="22.6772" class="st1"/>
				<text x="5.7" y="473.39" class="st2">9.</text>			</g>
			<g id="shape23-44" transform="translate(26.9291,-198.425)">
				<title>工作表.23</title>
				<desc>〈羼羅耶佛品〉</desc>
				<rect x="0" y="457.253" width="127.559" height="22.6772" class="st1"/>
				<text x="7.78" y="473.39" class="st2">〈羼羅耶佛品〉</text>			</g>
			<g id="shape24-47" transform="translate(5.9952E-15,-170.079)">
				<title>工作表.24</title>
				<desc>10</desc>
				<rect x="0" y="457.253" width="28.3465" height="22.6772" class="st1"/>
				<text x="6.66" y="473.39" class="st2">10</text>			</g>
			<g id="shape25-50" transform="translate(28.3465,-170.079)">
				<title>工作表.25</title>
				<desc>〈請佛品〉</desc>
				<rect x="0" y="457.253" width="90.7087" height="22.6772" class="st1"/>
				<text x="5.35" y="473.39" class="st2">〈請佛品〉</text>			</g>
			<g id="shape26-53" transform="translate(9.99201E-14,-141.732)">
				<title>工作表.26</title>
				<desc>11</desc>
				<rect x="0" y="457.253" width="28.3465" height="22.6772" class="st1"/>
				<text x="6.66" y="473.39" class="st2">11</text>			</g>
			<g id="shape27-56" transform="translate(28.3465,-141.732)">
				<title>工作表.27</title>
				<desc>〈無想品〉</desc>
				<rect x="0" y="457.253" width="90.7087" height="22.6772" class="st1"/>
				<text x="5.35" y="473.39" class="st2">〈無想品〉</text>			</g>
			<g id="shape28-59" transform="translate(1.9984E-13,-113.386)">
				<title>工作表.28</title>
				<desc>12</desc>
				<rect x="0" y="457.253" width="28.3465" height="22.6772" class="st1"/>
				<text x="6.66" y="473.39" class="st2">12 </text>			</g>
			<g id="shape29-62" transform="translate(29.7638,-113.386)">
				<title>工作表.29</title>
				<desc>〈十八不共十種力品〉</desc>
				<rect x="0" y="457.253" width="170.079" height="22.6772" class="st1"/>
				<text x="5.04" y="473.39" class="st2">〈十八不共十種力品〉</text>			</g>
			<g id="shape30-65" transform="translate(2.93765E-13,-85.0394)">
				<title>工作表.30</title>
				<desc>13</desc>
				<rect x="0" y="457.253" width="28.3465" height="22.6772" class="st1"/>
				<text x="6.66" y="473.39" class="st2">13</text>			</g>
			<g id="shape31-68" transform="translate(28.3465,-85.0394)">
				<title>工作表.31</title>
				<desc>〈勸助品〉</desc>
				<rect x="0" y="457.253" width="90.7087" height="22.6772" class="st1"/>
				<text x="5.35" y="473.39" class="st2">〈勸助品〉</text>			</g>
			<g id="shape32-71" transform="translate(226.772,-85.0394)">
				<title>工作表.32</title>
				<desc>〈勸助品〉缺偈</desc>
				<rect x="0" y="457.253" width="153.071" height="22.6772" class="st1"/>
				<text x="4.54" y="473.39" class="st2">〈勸助品〉（缺偈）</text>			</g>
			<g id="shape33-74" transform="translate(3.8769E-13,-56.6929)">
				<title>工作表.33</title>
				<desc>14</desc>
				<rect x="0" y="457.253" width="28.3465" height="22.6772" class="st1"/>
				<text x="6.66" y="473.39" class="st2">14 </text>			</g>
			<g id="shape34-77" transform="translate(26.9291,-56.6929)">
				<title>工作表.34</title>
				<desc>〈師子意佛品〉</desc>
				<rect x="0" y="457.253" width="127.559" height="22.6772" class="st1"/>
				<text x="7.78" y="473.39" class="st2">〈師子意佛品〉</text>			</g>
			<g id="shape35-80" transform="translate(5.17586E-13,-28.3465)">
				<title>工作表.35</title>
				<desc>15</desc>
				<rect x="0" y="457.253" width="28.3465" height="22.6772" class="st1"/>
				<text x="6.66" y="473.39" class="st2">15</text>			</g>
			<g id="shape36-83" transform="translate(29.7638,-28.3465)">
				<title>工作表.36</title>
				<desc>〈至誠佛品〉</desc>
				<rect x="0" y="457.253" width="104.882" height="22.6772" class="st1"/>
				<text x="4.44" y="473.39" class="st2">〈至誠佛品〉</text>			</g>
			<g id="shape37-86" transform="translate(226.772,-28.3465)">
				<title>工作表.37</title>
				<desc>〈至誠品〉缺偈</desc>
				<rect x="0" y="457.253" width="153.071" height="22.6772" class="st1"/>
				<text x="4.54" y="473.39" class="st2">〈至誠品〉（缺偈）</text>			</g>
			<g id="shape38-89">
				<title>工作表.38</title>
				<desc>16</desc>
				<rect x="0" y="457.253" width="28.3465" height="22.6772" class="st1"/>
				<text x="6.66" y="473.39" class="st2">16</text>			</g>
			<g id="shape39-92" transform="translate(28.3465,-3.97904E-13)">
				<title>工作表.39</title>
				<desc>〈佛印品〉</desc>
				<rect x="0" y="457.253" width="90.7087" height="22.6772" class="st1"/>
				<text x="5.35" y="473.39" class="st2">〈佛印品〉</text>			</g>
			<g id="shape40-95" transform="translate(226.205,-396.85)">
				<title>工作表.40</title>
				<desc>〈行品〉</desc>
				<rect x="0" y="457.253" width="73.7008" height="22.6772" class="st1"/>
				<text x="4.85" y="473.39" class="st2">〈行品〉</text>			</g>
			<g id="shape41-98" transform="translate(225.354,-340.157)">
				<title>工作表.41</title>
				<desc>〈譬喻品〉</desc>
				<rect x="0" y="457.253" width="90.7087" height="22.6772" class="st1"/>
				<text x="5.35" y="473.39" class="st2">〈譬喻品〉</text>			</g>
			<g id="shape3-101" transform="translate(2.83465,-425.197)">
				<title>工作表.3</title>
				<desc>1.</desc>
				<rect x="0" y="457.253" width="22.6772" height="22.6772" class="st1"/>
				<text x="5.7" y="473.39" class="st2">1.</text>			</g>
			<g id="shape4-104" transform="translate(2.83465,-396.85)">
				<title>工作表.4</title>
				<desc>2.</desc>
				<rect x="0" y="457.253" width="22.6772" height="22.6772" class="st1"/>
				<text x="5.7" y="473.39" class="st2">2.</text>			</g>
			<g id="shape10-107" transform="translate(2.83465,-368.504)">
				<title>工作表.10</title>
				<desc>3.</desc>
				<rect x="0" y="457.253" width="22.6772" height="22.6772" class="st1"/>
				<text x="5.7" y="473.39" class="st2">3.</text>			</g>
			<g id="shape11-110" transform="translate(2.83465,-340.157)">
				<title>工作表.11</title>
				<desc>4.</desc>
				<rect x="0" y="457.253" width="22.6772" height="22.6772" class="st1"/>
				<text x="5.7" y="473.39" class="st2">4.</text>			</g>
			<g id="shape13-113" transform="translate(2.83465,-311.811)">
				<title>工作表.13</title>
				<desc>5.</desc>
				<rect x="0" y="457.253" width="22.6772" height="22.6772" class="st1"/>
				<text x="5.7" y="473.39" class="st2">5.</text>			</g>
			<g id="shape15-116" transform="translate(2.83465,-283.465)">
				<title>工作表.15</title>
				<desc>6.</desc>
				<rect x="0" y="457.253" width="22.6772" height="22.6772" class="st1"/>
				<text x="5.7" y="473.39" class="st2">6.</text>			</g>
			<g id="shape17-119" transform="translate(2.83465,-255.118)">
				<title>工作表.17</title>
				<desc>7.</desc>
				<rect x="0" y="457.253" width="22.6772" height="22.6772" class="st1"/>
				<text x="5.7" y="473.39" class="st2">7.</text>			</g>
			<g id="shape19-122" transform="translate(2.83465,-226.772)">
				<title>工作表.19</title>
				<desc>8.</desc>
				<rect x="0" y="457.253" width="22.6772" height="22.6772" class="st1"/>
				<text x="5.7" y="473.39" class="st2">8.</text>			</g>
			<g id="shape44-125" transform="translate(201.26,-425.197)">
				<title>工作表.44</title>
				<desc>1.</desc>
				<rect x="0" y="457.253" width="22.6772" height="22.6772" class="st1"/>
				<text x="5.7" y="473.39" class="st2">1.</text>			</g>
			<g id="shape45-128" transform="translate(201.26,-396.85)">
				<title>工作表.45</title>
				<desc>2.</desc>
				<rect x="0" y="457.253" width="22.6772" height="22.6772" class="st1"/>
				<text x="5.7" y="473.39" class="st2">2.</text>			</g>
			<g id="shape46-131" transform="translate(201.26,-368.504)">
				<title>工作表.46</title>
				<desc>3.</desc>
				<rect x="0" y="457.253" width="22.6772" height="22.6772" class="st1"/>
				<text x="5.7" y="473.39" class="st2">3.</text>			</g>
			<g id="shape47-134" transform="translate(201.26,-340.157)">
				<title>工作表.47</title>
				<desc>4.</desc>
				<rect x="0" y="457.253" width="22.6772" height="22.6772" class="st1"/>
				<text x="5.7" y="473.39" class="st2">4.</text>			</g>
			<g id="shape48-137" transform="translate(201.26,-283.465)">
				<title>工作表.48</title>
				<desc>5.</desc>
				<rect x="0" y="457.253" width="22.6772" height="22.6772" class="st1"/>
				<text x="5.7" y="473.39" class="st2">5.</text>			</g>
			<g id="shape49-140" transform="translate(201.26,-226.772)">
				<title>工作表.49</title>
				<desc>6.</desc>
				<rect x="0" y="457.253" width="22.6772" height="22.6772" class="st1"/>
				<text x="5.7" y="473.39" class="st2">6.</text>			</g>
			<g id="shape50-143" transform="translate(201.26,-85.0394)">
				<title>工作表.50</title>
				<desc>7.</desc>
				<rect x="0" y="457.253" width="22.6772" height="22.6772" class="st1"/>
				<text x="5.7" y="473.39" class="st2">7.</text>			</g>
			<g id="shape51-146" transform="translate(201.26,-28.3465)">
				<title>工作表.51</title>
				<desc>8.</desc>
				<rect x="0" y="457.253" width="22.6772" height="22.6772" class="st1"/>
				<text x="5.7" y="473.39" class="st2">8.</text>			</g>
			<g id="shape43-149" transform="translate(225.354,-283.465)">
				<title>工作表.43</title>
				<desc>〈四輩品〉</desc>
				<rect x="0" y="457.253" width="90.7087" height="22.6772" class="st1"/>
				<text x="5.35" y="473.39" class="st2">〈四輩品〉</text>			</g>
			<g id="shape53-152" transform="translate(113.386,-436.535)">
				<title>工作表.53</title>
				<path d="M0 479.93 L85.04 479.93" class="st3"/>
			</g>
			<g id="shape57-155" transform="translate(113.386,-379.843)">
				<title>工作表.57</title>
				<path d="M0 479.93 L85.04 479.93" class="st3"/>
			</g>
			<g id="shape58-158" transform="translate(113.386,-351.496)">
				<title>工作表.58</title>
				<path d="M0 479.93 L85.04 479.93" class="st3"/>
			</g>
			<g id="shape59-161" transform="translate(113.386,-238.11)">
				<title>工作表.59</title>
				<path d="M0 479.93 L85.04 479.93" class="st3"/>
			</g>
			<g id="shape60-164" transform="translate(113.386,-96.378)">
				<title>工作表.60</title>
				<path d="M0 479.93 L85.04 479.93" class="st3"/>
			</g>
			<g id="shape61-167" transform="translate(93.5433,-408.189)">
				<title>工作表.61</title>
				<path d="M0 479.93 L104.88 479.93" class="st3"/>
			</g>
			<g id="shape62-170" transform="translate(116.22,-294.803)">
				<title>工作表.62</title>
				<path d="M0 479.93 L85.04 479.93" class="st3"/>
			</g>
			<g id="shape63-173" transform="translate(113.386,-11.3386)">
				<title>工作表.63</title>
				<path d="M0 479.93 L70.87 479.93" class="st3"/>
			</g>
			<g id="shape64-176" transform="translate(127.559,-39.685)">
				<title>工作表.64</title>
				<path d="M0 479.93 L70.87 479.93" class="st3"/>
			</g>
			<g id="shape65-179" transform="translate(141.732,-68.0315)">
				<title>工作表.65</title>
				<path d="M0 479.93 L42.52 479.93" class="st3"/>
			</g>
			<g id="shape66-182" transform="translate(-245.011,197.267) rotate(-63.4349)">
				<title>工作表.66</title>
				<path d="M0 479.93 L31.69 479.93" class="st3"/>
			</g>
			<g id="shape67-185" transform="translate(-245.011,253.96) rotate(-63.4349)">
				<title>工作表.67</title>
				<path d="M0 479.93 L31.69 479.93" class="st3"/>
			</g>
			<g id="shape68-188" transform="translate(-394.891,29.2215) rotate(-90)">
				<title>工作表.68</title>
				<path d="M0 423.24 L27.82 423.24 L28.35 479.93 L0 479.93 L0 423.24 Z" class="st4"/>
			</g>
			<g id="shape69-190" transform="translate(-196.466,29.2215) rotate(-90)">
				<title>工作表.69</title>
				<path d="M0 423.24 L27.82 423.24 L28.35 479.93 L0 479.93 L0 423.24 Z" class="st4"/>
			</g>
		</g>
	</g>
</svg>
