<?xml version="1.0" encoding="UTF-8" standalone="no"?>
<!DOCTYPE svg PUBLIC "-//W3C//DTD SVG 1.0//EN" "http://www.w3.org/TR/2001/REC-SVG-20010904/DTD/svg10.dtd">
<!-- 由 Microsoft Visio 11.0, SVG Export, v1.0 產生 y37.0342.svg Page-1 -->
<svg xmlns="http://www.w3.org/2000/svg" xmlns:xlink="http://www.w3.org/1999/xlink" xmlns:ev="http://www.w3.org/2001/xml-events"
		xmlns:v="http://schemas.microsoft.com/visio/2003/SVGExtensions/" width="8.20494in" height="3.63107in"
		viewBox="0 0 590.756 261.437" xml:space="preserve" color-interpolation-filters="sRGB" class="st6">
	<v:documentProperties v:langID="1028" v:metric="true" v:viewMarkup="false">
		<v:userDefs>
			<v:ud v:nameU="msvSubprocessMaster" v:prompt="" v:val="VT4(Box)"/>
			<v:ud v:nameU="msvNoAutoConnect" v:val="VT0(1):26"/>
		</v:userDefs>
	</v:documentProperties>

	<style type="text/css">
	<![CDATA[
		.st1 {fill:none;stroke:none;stroke-linecap:round;stroke-linejoin:round;stroke-width:0.75}
		.st2 {fill:#000000;font-family:新細明體;font-size:1.33333em}
		.st3 {stroke:#ffffff;stroke-linecap:round;stroke-linejoin:round;stroke-opacity:0;stroke-width:1}
		.st4 {stroke:#000000;stroke-linecap:round;stroke-linejoin:round;stroke-width:1}
		.st5 {font-size:1em}
		.st6 {fill:none;fill-rule:evenodd;font-size:12px;overflow:visible;stroke-linecap:square;stroke-miterlimit:3}
	]]>
	</style>

	<g v:mID="0" v:index="1" v:groupContext="foregroundPage">
		<title>頁-1</title>
		<v:pageProperties v:drawingScale="0.0393701" v:pageScale="0.0393701" v:drawingUnits="24" v:shadowOffsetX="8.50394"
				v:shadowOffsetY="-8.50394"/>
		<g id="group27-1" transform="translate(310.319,242.687) rotate(-90)" v:mID="27" v:groupContext="group">
			<title>工作表.27</title>
			<g id="shape1-2" v:mID="1" v:groupContext="shape" transform="translate(380.492,-262.972) rotate(90)">
				<title>工作表.1</title>
				<desc>大眾部</desc>
				<v:textBlock v:margins="rect(4,4,4,4)" v:tabSpace="42.5197"/>
				<v:textRect cx="28.3465" cy="233.091" width="56.7" height="56.6929"/>
				<rect x="0" y="204.744" width="56.6929" height="56.6929" class="st1"/>
				<text x="4.35" y="237.89" class="st2" v:langID="1028"><v:paragraph v:horizAlign="1"/><v:tabList/>大眾部</text>			</g>
			<g id="shape4-5" v:mID="4" v:groupContext="shape" transform="translate(337.972,-262.972) rotate(90)">
				<title>工作表.4</title>
				<desc>上座部</desc>
				<v:textBlock v:margins="rect(4,4,4,4)" v:tabSpace="42.5197"/>
				<v:textRect cx="28.3465" cy="233.091" width="56.7" height="56.6929"/>
				<rect x="0" y="204.744" width="56.6929" height="56.6929" class="st1"/>
				<text x="4.35" y="237.89" class="st2" v:langID="1028"><v:paragraph v:horizAlign="1"/><v:tabList/>上座部</text>			</g>
			<g id="shape12-8" v:mID="12" v:groupContext="shape" transform="translate(451.358,-291.319) rotate(90)">
				<title>工作表.12</title>
				<path d="M0 261.44 L552.76 261.44" class="st3"/>
			</g>
			<g id="shape13-11" v:mID="13" v:groupContext="shape" transform="translate(62.3622,-212.598)">
				<title>工作表.13</title>
				<path d="M0 261.44 L28.35 261.44" class="st4"/>
			</g>
			<g id="shape14-14" v:mID="14" v:groupContext="shape" transform="translate(323.799,48.8386) rotate(90)">
				<title>工作表.14</title>
				<path d="M0 261.44 L14.17 261.44" class="st4"/>
			</g>
			<g id="shape15-17" v:mID="15" v:groupContext="shape" transform="translate(408.839,6.3189) rotate(90)">
				<title>工作表.15</title>
				<path d="M0 261.44 L42.52 261.44" class="st4"/>
			</g>
			<g id="shape16-20" v:mID="16" v:groupContext="shape" transform="translate(76.5354,-425.197)">
				<title>工作表.16</title>
				<path d="M0 261.44 L42.52 261.44" class="st4"/>
			</g>
			<g id="shape17-23" v:mID="17" v:groupContext="shape" transform="translate(366.319,-206.28) rotate(90)">
				<title>工作表.17</title>
				<path d="M0 261.44 L42.52 261.44" class="st4"/>
			</g>
			<g id="shape18-26" v:mID="18" v:groupContext="shape" transform="translate(408.839,-206.28) rotate(90)">
				<title>工作表.18</title>
				<path d="M0 261.44 L42.52 261.44" class="st4"/>
			</g>
			<g id="shape2-29" v:mID="2" v:groupContext="shape" transform="translate(332.303,-149.587) rotate(90)">
				<title>工作表.2</title>
				<desc>大　　 眾　　 部</desc>
				<v:textBlock v:margins="rect(4,4,4,4)" v:tabSpace="42.5197"/>
				<v:textRect cx="76.5354" cy="184.902" width="153.08" height="153.071"/>
				<rect x="0" y="108.366" width="153.071" height="153.071" class="st1"/>
				<text x="0.25em" y="189.7" class="st2" v:langID="1028"><v:paragraph v:horizAlign="4"/><v:tabList/>大　<tspan x="1.443em
								 2.637em" dy="0em" class="st5">　　</tspan><tspan x="3.83em" dy="0em" class="st5"> </tspan><tspan x="
								4.283em" dy="0em" class="st5">眾　</tspan><tspan x="5.477em 6.67em" dy="0em" class="st5">　　</tspan><tspan
							x="7.864em" dy="0em" class="st5"> </tspan><tspan x="8.317em" dy="0em" class="st5">部</tspan></text>			</g>
			<g id="shape5-38" v:mID="5" v:groupContext="shape" transform="translate(303.957,-149.587) rotate(90)">
				<title>工作表.5</title>
				<desc>上座分別說部</desc>
				<v:textBlock v:margins="rect(4,4,4,4)" v:tabSpace="42.5197"/>
				<v:textRect cx="76.5354" cy="184.902" width="153.08" height="153.071"/>
				<rect x="0" y="108.366" width="153.071" height="153.071" class="st1"/>
				<text x="0.25em" y="189.7" class="st2" v:langID="1028"><v:paragraph v:horizAlign="4"/><v:tabList/>（<tspan x="1.402em
								 2.555em" dy="0em" class="st5">上座</tspan><tspan x="3.707em" dy="0em" class="st5">）</tspan><tspan
							x="4.86em 6.012em 7.165em 8.317em" dy="0em" class="st5">分別說部</tspan></text>			</g>
			<g id="shape7-44" v:mID="7" v:groupContext="shape" transform="translate(261.437,-149.587) rotate(90)">
				<title>工作表.7</title>
				<desc>上座說一切有部</desc>
				<v:textBlock v:margins="rect(4,4,4,4)" v:tabSpace="42.5197"/>
				<v:textRect cx="76.5354" cy="184.902" width="153.08" height="153.071"/>
				<rect x="0" y="108.366" width="153.071" height="153.071" class="st1"/>
				<text x="0.25em 1.258em" y="189.7" class="st2" v:langID="1028"><v:paragraph v:horizAlign="4"/><v:tabList/>上座<tspan
							x="2.267em" dy="0em" class="st5">（</tspan><tspan x="3.275em 4.284em 5.292em 6.3em" dy="0em" class="st5">說一切有</tspan><tspan
							x="7.309em" dy="0em" class="st5">）</tspan><tspan x="8.317em" dy="0em" class="st5">部</tspan></text>			</g>
			<g id="shape3-51" v:mID="3" v:groupContext="shape" transform="translate(363.484,63.0118) rotate(90)">
				<title>工作表.3</title>
				<desc>大 眾 部</desc>
				<v:textBlock v:margins="rect(4,4,4,4)" v:tabSpace="42.5197"/>
				<v:textRect cx="45.3543" cy="216.083" width="90.71" height="90.7087"/>
				<rect x="0" y="170.728" width="90.7087" height="90.7087" class="st1"/>
				<text x="0.25em" y="220.88" class="st2" v:langID="1028"><v:paragraph v:horizAlign="4"/><v:tabList/>大<tspan x="1.662em"
							dy="0em" class="st5"> </tspan><tspan x="2.335em" dy="0em" class="st5">眾</tspan><tspan x="3.747em"
							dy="0em" class="st5"> </tspan><tspan x="4.419em" dy="0em" class="st5">部</tspan></text>			</g>
			<g id="shape6-58" v:mID="6" v:groupContext="shape" transform="translate(335.138,63.0118) rotate(90)">
				<title>工作表.6</title>
				<desc>分別說部</desc>
				<v:textBlock v:margins="rect(4,4,4,4)" v:tabSpace="42.5197"/>
				<v:textRect cx="45.3543" cy="216.083" width="90.71" height="90.7087"/>
				<rect x="0" y="170.728" width="90.7087" height="90.7087" class="st1"/>
				<text x="0.25em 1.64em 3.03em 4.419em" y="220.88" class="st2" v:langID="1028"><v:paragraph v:horizAlign="4"/><v:tabList/>分別說部</text>			</g>
			<g id="shape8-61" v:mID="8" v:groupContext="shape" transform="translate(306.791,63.0118) rotate(90)">
				<title>工作表.8</title>
				<desc>說一切有部</desc>
				<v:textBlock v:margins="rect(4,4,4,4)" v:tabSpace="42.5197"/>
				<v:textRect cx="45.3543" cy="216.083" width="90.71" height="90.7087"/>
				<rect x="0" y="170.728" width="90.7087" height="90.7087" class="st1"/>
				<text x="0.25em 1.292em 2.335em 3.377em 4.419em" y="220.88" class="st2" v:langID="1028"><v:paragraph
							v:horizAlign="4"/><v:tabList/>說一切有部</text>			</g>
			<g id="shape9-64" v:mID="9" v:groupContext="shape" transform="translate(278.445,63.0118) rotate(90)">
				<title>工作表.9</title>
				<desc>犢 子 部</desc>
				<v:textBlock v:margins="rect(4,4,4,4)" v:tabSpace="42.5197"/>
				<v:textRect cx="45.3543" cy="216.083" width="90.71" height="90.7087"/>
				<rect x="0" y="170.728" width="90.7087" height="90.7087" class="st1"/>
				<text x="0.25em" y="220.88" class="st2" v:langID="1028"><v:paragraph v:horizAlign="4"/><v:tabList/>犢<tspan x="1.662em"
							dy="0em" class="st5"> </tspan><tspan x="2.335em" dy="0em" class="st5">子</tspan><tspan x="3.747em"
							dy="0em" class="st5"> </tspan><tspan x="4.419em" dy="0em" class="st5">部</tspan></text>			</g>
			<g id="shape10-71" v:mID="10" v:groupContext="shape" transform="translate(335.138,145.217) rotate(90)">
				<title>工作表.10</title>
				<desc>上座部</desc>
				<v:textBlock v:margins="rect(4,4,4,4)" v:tabSpace="42.5197"/>
				<v:textRect cx="45.3543" cy="216.083" width="90.71" height="90.7087"/>
				<rect x="0" y="170.728" width="90.7087" height="90.7087" class="st1"/>
				<text x="0.25em" y="220.88" class="st2" v:langID="1028"><v:paragraph v:horizAlign="4"/><v:tabList/>（<tspan x="1.292em
								 2.335em 3.377em" dy="0em" class="st5">上座部</tspan><tspan x="4.419em" dy="0em" class="st5">）</tspan></text>			</g>
			<g id="shape11-76" v:mID="11" v:groupContext="shape" transform="translate(278.445,145.217) rotate(90)">
				<title>工作表.11</title>
				<desc>正 量</desc>
				<v:textBlock v:margins="rect(4,4,4,4)" v:tabSpace="42.5197"/>
				<v:textRect cx="45.3543" cy="216.083" width="90.71" height="90.7087"/>
				<rect x="0" y="170.728" width="90.7087" height="90.7087" class="st1"/>
				<text x="0.25em" y="220.88" class="st2" v:langID="1028"><v:paragraph v:horizAlign="4"/><v:tabList/>（<tspan x="1.477em"
							dy="0em" class="st5">正</tspan><tspan x="2.705em" dy="0em" class="st5"> </tspan><tspan x="3.192em"
							dy="0em" class="st5">量</tspan><tspan x="4.419em" dy="0em" class="st5">）</tspan></text>			</g>
			<g id="shape19-83" v:mID="19" v:groupContext="shape" transform="translate(337.972,-163.76) rotate(90)">
				<title>工作表.19</title>
				<path d="M0 261.44 L14.17 261.44" class="st4"/>
			</g>
			<g id="shape20-86" v:mID="20" v:groupContext="shape" transform="translate(380.492,-163.76) rotate(90)">
				<title>工作表.20</title>
				<path d="M0 261.44 L14.17 261.44" class="st4"/>
			</g>
			<g id="shape21-89" v:mID="21" v:groupContext="shape" transform="translate(337.972,6.3189) rotate(90)">
				<title>工作表.21</title>
				<path d="M0 261.44 L42.52 261.44" class="st4"/>
			</g>
			<g id="shape22-92" v:mID="22" v:groupContext="shape" transform="translate(380.492,6.3189) rotate(90)">
				<title>工作表.22</title>
				<path d="M0 261.44 L42.52 261.44" class="st4"/>
			</g>
			<g id="shape23-95" v:mID="23" v:groupContext="shape" transform="translate(352.146,48.8386) rotate(90)">
				<title>工作表.23</title>
				<path d="M0 261.44 L14.17 261.44" class="st4"/>
			</g>
			<g id="shape24-98" v:mID="24" v:groupContext="shape" transform="translate(281.28,-291.319) rotate(90)">
				<title>工作表.24</title>
				<path d="M0 261.44 L552.76 261.44" class="st3"/>
			</g>
			<g id="shape25-101" v:mID="25" v:groupContext="shape" transform="translate(19.8425,-552.756)">
				<title>工作表.25</title>
				<path d="M0 261.44 L170.08 261.44" class="st3"/>
			</g>
			<g id="shape26-104" v:mID="26" v:groupContext="shape" transform="translate(19.8425,0)">
				<title>工作表.26</title>
				<path d="M0 261.44 L170.08 261.44" class="st3"/>
			</g>
		</g>
	</g>
</svg>
