<?xml version="1.0" encoding="UTF-8" standalone="no"?>
<!DOCTYPE svg PUBLIC "-//W3C//DTD SVG 1.1//EN" "http://www.w3.org/Graphics/SVG/1.1/DTD/svg11.dtd">
<!-- 由 Microsoft Visio, SVG Export 產生 y37.1074.svg 頁-1 -->
<svg xmlns="http://www.w3.org/2000/svg" xmlns:xlink="http://www.w3.org/1999/xlink" xmlns:ev="http://www.w3.org/2001/xml-events"
		width="8.19939in" height="4.77767in" viewBox="0 0 590.356 343.992" xml:space="preserve" color-interpolation-filters="sRGB"
		class="st4">
	<style type="text/css">
	<![CDATA[
		.st1 {fill:none;stroke:none;stroke-linecap:round;stroke-linejoin:round;stroke-width:0.75}
		.st2 {fill:#000000;font-family:新細明體;font-size:1.33333em}
		.st3 {stroke:#000000;stroke-linecap:round;stroke-linejoin:round;stroke-width:1}
		.st4 {fill:none;fill-rule:evenodd;font-size:12px;overflow:visible;stroke-linecap:square;stroke-miterlimit:3}
	]]>
	</style>

	<g>
		<title>頁-1</title>
		<g id="group79-1" transform="translate(0.375,-0.5)">
			<title>工作表.79</title>
			<g id="shape1-2" transform="translate(2.83465,-307.559)">
				<title>工作表.1</title>
				<desc>《菩薩本</desc>
				<rect x="0" y="324.15" width="73.7008" height="19.8425" class="st1"/>
				<text x="4.85" y="338.87" class="st2">《菩薩本</text>			</g>
			<g id="shape2-5" transform="translate(89.2913,-307.559)">
				<title>工作表.2</title>
				<desc>《菩薩十住行</desc>
				<rect x="0" y="324.15" width="104.882" height="19.8425" class="st1"/>
				<text x="4.44" y="338.87" class="st2">《菩薩十住行</text>			</g>
			<g id="shape3-8" transform="translate(201.26,-307.559)">
				<title>工作表.3</title>
				<desc>《菩薩十住</desc>
				<rect x="0" y="324.15" width="90.7087" height="19.8425" class="st1"/>
				<text x="5.35" y="338.87" class="st2">《菩薩十住</text>			</g>
			<g id="shape4-11" transform="translate(300.472,-307.559)">
				<title>工作表.4</title>
				<desc>《十住斷結</desc>
				<rect x="0" y="324.15" width="90.7087" height="19.8425" class="st1"/>
				<text x="5.35" y="338.87" class="st2">《十住斷結</text>			</g>
			<g id="shape5-14" transform="translate(399.685,-307.559)">
				<title>工作表.5</title>
				<desc>〈晉譯本十</desc>
				<rect x="0" y="324.15" width="90.7087" height="19.8425" class="st1"/>
				<text x="5.35" y="338.87" class="st2">〈晉譯本十</text>			</g>
			<g id="shape6-17" transform="translate(498.898,-307.559)">
				<title>工作表.6</title>
				<desc>〈唐譯本十</desc>
				<rect x="0" y="324.15" width="90.7087" height="19.8425" class="st1"/>
				<text x="5.35" y="338.87" class="st2">〈唐譯本十</text>			</g>
			<g id="shape7-20" transform="translate(7.99361E-15,-287.717)">
				<title>工作表.7</title>
				<desc>業經》</desc>
				<rect x="0" y="324.15" width="62.3622" height="19.8425" class="st1"/>
				<text x="9.26" y="338.87" class="st2">業經》</text>			</g>
			<g id="shape8-23" transform="translate(89.2913,-287.717)">
				<title>工作表.8</title>
				<desc>道品經》</desc>
				<rect x="0" y="324.15" width="73.7008" height="19.8425" class="st1"/>
				<text x="4.85" y="338.87" class="st2">道品經》</text>			</g>
			<g id="shape9-26" transform="translate(202.677,-287.717)">
				<title>工作表.9</title>
				<desc>經》</desc>
				<rect x="0" y="324.15" width="42.5197" height="19.8425" class="st1"/>
				<text x="5.26" y="338.87" class="st2">經》</text>			</g>
			<g id="shape10-29" transform="translate(401.102,-287.717)">
				<title>工作表.10</title>
				<desc>住品〉</desc>
				<rect x="0" y="324.15" width="56.6929" height="19.8425" class="st1"/>
				<text x="4.35" y="338.87" class="st2">住品〉</text>			</g>
			<g id="shape11-32" transform="translate(2.83465,-259.37)">
				<title>工作表.11</title>
				<desc>發意</desc>
				<rect x="0" y="324.15" width="42.5197" height="19.8425" class="st1"/>
				<text x="5.26" y="338.87" class="st2">發意</text>			</g>
			<g id="shape12-35" transform="translate(87.874,-259.37)">
				<title>工作表.12</title>
				<desc>波藍耆兜波</desc>
				<rect x="0" y="324.15" width="90.7087" height="19.8425" class="st1"/>
				<text x="5.35" y="338.87" class="st2">波藍耆兜波</text>			</g>
			<g id="shape13-38" transform="translate(201.26,-259.37)">
				<title>工作表.13</title>
				<desc>波藍質兜波</desc>
				<rect x="0" y="324.15" width="90.7087" height="19.8425" class="st1"/>
				<text x="5.35" y="338.87" class="st2">波藍質兜波</text>			</g>
			<g id="shape14-41" transform="translate(401.102,-259.37)">
				<title>工作表.14</title>
				<desc>初發心</desc>
				<rect x="0" y="324.15" width="56.6929" height="19.8425" class="st1"/>
				<text x="4.35" y="338.87" class="st2">初發心</text>			</g>
			<g id="shape15-44" transform="translate(2.83465,-231.024)">
				<title>工作表.15</title>
				<desc>治地</desc>
				<rect x="0" y="324.15" width="42.5197" height="19.8425" class="st1"/>
				<text x="5.26" y="338.87" class="st2">治地</text>			</g>
			<g id="shape16-47" transform="translate(89.2913,-231.024)">
				<title>工作表.16</title>
				<desc>阿闍浮</desc>
				<rect x="0" y="324.15" width="56.6929" height="19.8425" class="st1"/>
				<text x="4.35" y="338.87" class="st2">阿闍浮</text>			</g>
			<g id="shape17-50" transform="translate(301.89,-231.024)">
				<title>工作表.17</title>
				<desc>淨地</desc>
				<rect x="0" y="324.15" width="42.5197" height="19.8425" class="st1"/>
				<text x="5.26" y="338.87" class="st2">淨地</text>			</g>
			<g id="shape18-53" transform="translate(401.102,-231.024)">
				<title>工作表.18</title>
				<desc>治地</desc>
				<rect x="0" y="324.15" width="42.5197" height="19.8425" class="st1"/>
				<text x="5.26" y="338.87" class="st2">治地</text>			</g>
			<g id="shape19-56" transform="translate(2.83465,-202.677)">
				<title>工作表.19</title>
				<desc>應行</desc>
				<rect x="0" y="324.15" width="42.5197" height="19.8425" class="st1"/>
				<text x="5.26" y="338.87" class="st2">應行</text>			</g>
			<g id="shape20-59" transform="translate(89.2913,-202.677)">
				<title>工作表.20</title>
				<desc>渝阿闍</desc>
				<rect x="0" y="324.15" width="56.6929" height="19.8425" class="st1"/>
				<text x="4.35" y="338.87" class="st2">渝阿闍</text>			</g>
			<g id="shape21-62" transform="translate(202.677,-202.677)">
				<title>工作表.21</title>
				<desc>喻阿闍浮</desc>
				<rect x="0" y="324.15" width="73.7008" height="19.8425" class="st1"/>
				<text x="4.85" y="338.87" class="st2">喻阿闍浮</text>			</g>
			<g id="shape22-65" transform="translate(301.89,-202.677)">
				<title>工作表.22</title>
				<desc>進學</desc>
				<rect x="0" y="324.15" width="42.5197" height="19.8425" class="st1"/>
				<text x="5.26" y="338.87" class="st2">進學</text>			</g>
			<g id="shape23-68" transform="translate(301.89,-145.984)">
				<title>工作表.23</title>
				<desc>修成</desc>
				<rect x="0" y="324.15" width="42.5197" height="19.8425" class="st1"/>
				<text x="5.26" y="338.87" class="st2">修成</text>			</g>
			<g id="shape24-71" transform="translate(2.83465,-175.463)">
				<title>工作表.24</title>
				<desc>生貴</desc>
				<rect x="0" y="324.15" width="42.5197" height="19.8425" class="st1"/>
				<text x="5.26" y="338.87" class="st2">生貴</text>			</g>
			<g id="shape25-74" transform="translate(89.2913,-174.331)">
				<title>工作表.25</title>
				<desc>闍摩期</desc>
				<rect x="0" y="324.15" width="56.6929" height="19.8425" class="st1"/>
				<text x="4.35" y="338.87" class="st2">闍摩期</text>			</g>
			<g id="shape26-77" transform="translate(301.89,-174.331)">
				<title>工作表.26</title>
				<desc>生貴</desc>
				<rect x="0" y="324.15" width="42.5197" height="19.8425" class="st1"/>
				<text x="5.26" y="338.87" class="st2">生貴</text>			</g>
			<g id="shape27-80" transform="translate(2.83465,-145.984)">
				<title>工作表.27</title>
				<desc>修成</desc>
				<rect x="0" y="324.15" width="42.5197" height="19.8425" class="st1"/>
				<text x="5.26" y="338.87" class="st2">修成</text>			</g>
			<g id="shape28-83" transform="translate(89.2913,-144.918)">
				<title>工作表.28</title>
				<desc>波渝三般</desc>
				<rect x="0" y="324.15" width="73.7008" height="19.8425" class="st1"/>
				<text x="4.85" y="338.87" class="st2">波渝三般</text>			</g>
			<g id="shape29-86" transform="translate(401.102,-145.984)">
				<title>工作表.29</title>
				<desc>方便具足</desc>
				<rect x="0" y="324.15" width="73.7008" height="19.8425" class="st1"/>
				<text x="4.85" y="338.87" class="st2">方便具足</text>			</g>
			<g id="shape30-89" transform="translate(500.315,-145.984)">
				<title>工作表.30</title>
				<desc>具足方便</desc>
				<rect x="0" y="324.15" width="73.7008" height="19.8425" class="st1"/>
				<text x="4.85" y="338.87" class="st2">具足方便</text>			</g>
			<g id="shape31-92" transform="translate(2.83465,-117.638)">
				<title>工作表.31</title>
				<desc>行登</desc>
				<rect x="0" y="324.15" width="42.5197" height="19.8425" class="st1"/>
				<text x="5.26" y="338.87" class="st2">行登</text>			</g>
			<g id="shape32-95" transform="translate(89.2913,-117.638)">
				<title>工作表.32</title>
				<desc>阿耆三般</desc>
				<rect x="0" y="324.15" width="73.7008" height="19.8425" class="st1"/>
				<text x="4.85" y="338.87" class="st2">阿耆三般</text>			</g>
			<g id="shape33-98" transform="translate(301.89,-117.638)">
				<title>工作表.33</title>
				<desc>上位</desc>
				<rect x="0" y="324.15" width="42.5197" height="19.8425" class="st1"/>
				<text x="5.26" y="338.87" class="st2">上位</text>			</g>
			<g id="shape34-101" transform="translate(401.102,-117.638)">
				<title>工作表.34</title>
				<desc>正心</desc>
				<rect x="0" y="324.15" width="42.5197" height="19.8425" class="st1"/>
				<text x="5.26" y="338.87" class="st2">正心</text>			</g>
			<g id="shape35-104" transform="translate(2.83465,-89.2913)">
				<title>工作表.35</title>
				<desc>不退</desc>
				<rect x="0" y="324.15" width="42.5197" height="19.8425" class="st1"/>
				<text x="5.26" y="338.87" class="st2">不退</text>			</g>
			<g id="shape36-107" transform="translate(89.2913,-89.2913)">
				<title>工作表.36</title>
				<desc>阿惟越致</desc>
				<rect x="0" y="324.15" width="73.7008" height="19.8425" class="st1"/>
				<text x="4.85" y="338.87" class="st2">阿惟越致</text>			</g>
			<g id="shape37-110" transform="translate(301.89,-89.2913)">
				<title>工作表.37</title>
				<desc>阿毘婆帝</desc>
				<rect x="0" y="324.15" width="73.7008" height="19.8425" class="st1"/>
				<text x="4.85" y="338.87" class="st2">阿毘婆帝</text>			</g>
			<g id="shape38-113" transform="translate(2.83465,-60.9449)">
				<title>工作表.38</title>
				<desc>童真</desc>
				<rect x="0" y="324.15" width="42.5197" height="19.8425" class="st1"/>
				<text x="5.26" y="338.87" class="st2">童真</text>			</g>
			<g id="shape39-116" transform="translate(89.2913,-60.9449)">
				<title>工作表.39</title>
				<desc>鳩摩羅浮</desc>
				<rect x="0" y="324.15" width="73.7008" height="19.8425" class="st1"/>
				<text x="4.85" y="338.87" class="st2">鳩摩羅浮</text>			</g>
			<g id="shape40-119" transform="translate(2.83465,-32.5984)">
				<title>工作表.40</title>
				<desc>了生</desc>
				<rect x="0" y="324.15" width="42.5197" height="19.8425" class="st1"/>
				<text x="5.26" y="338.87" class="st2">了生</text>			</g>
			<g id="shape41-122" transform="translate(89.2913,-32.5984)">
				<title>工作表.41</title>
				<desc>渝羅闍</desc>
				<rect x="0" y="324.15" width="56.6929" height="19.8425" class="st1"/>
				<text x="4.35" y="338.87" class="st2">渝羅闍</text>			</g>
			<g id="shape42-125" transform="translate(202.677,-32.5984)">
				<title>工作表.42</title>
				<desc>俞羅闍</desc>
				<rect x="0" y="324.15" width="56.6929" height="19.8425" class="st1"/>
				<text x="4.35" y="338.87" class="st2">俞羅闍</text>			</g>
			<g id="shape43-128" transform="translate(301.89,-32.5984)">
				<title>工作表.43</title>
				<desc>常淨</desc>
				<rect x="0" y="324.15" width="42.5197" height="19.8425" class="st1"/>
				<text x="5.26" y="338.87" class="st2">常淨</text>			</g>
			<g id="shape44-131" transform="translate(401.102,-32.5984)">
				<title>工作表.44</title>
				<desc>法王子</desc>
				<rect x="0" y="324.15" width="56.6929" height="19.8425" class="st1"/>
				<text x="4.35" y="338.87" class="st2">法王子</text>			</g>
			<g id="shape45-134" transform="translate(500.315,-32.5984)">
				<title>工作表.45</title>
				<desc>王子</desc>
				<rect x="0" y="324.15" width="42.5197" height="19.8425" class="st1"/>
				<text x="5.26" y="338.87" class="st2">王子</text>			</g>
			<g id="shape46-137" transform="translate(2.83465,-4.25197)">
				<title>工作表.46</title>
				<desc>補處</desc>
				<rect x="0" y="324.15" width="42.5197" height="19.8425" class="st1"/>
				<text x="5.26" y="338.87" class="st2">補處</text>			</g>
			<g id="shape47-140" transform="translate(89.2913,-4.25197)">
				<title>工作表.47</title>
				<desc>阿惟顏</desc>
				<rect x="0" y="324.15" width="56.6929" height="19.8425" class="st1"/>
				<text x="4.35" y="338.87" class="st2">阿惟顏</text>			</g>
			<g id="shape48-143" transform="translate(401.102,-4.25197)">
				<title>工作表.48</title>
				<desc>灌頂</desc>
				<rect x="0" y="324.15" width="42.5197" height="19.8425" class="st1"/>
				<text x="5.26" y="338.87" class="st2">灌頂</text>			</g>
			<g id="shape49-146" transform="translate(-256.118,343.992) rotate(-90)">
				<title>工作表.49</title>
				<path d="M0 343.99 L340.16 343.99" class="st3"/>
			</g>
			<g id="shape51-149" transform="translate(-142.732,343.992) rotate(-90)">
				<title>工作表.51</title>
				<path d="M0 343.99 L340.16 343.99" class="st3"/>
			</g>
			<g id="shape52-152" transform="translate(301.89,-287.717)">
				<title>工作表.52</title>
				<desc>經》</desc>
				<rect x="0" y="324.15" width="42.5197" height="19.8425" class="st1"/>
				<text x="5.26" y="338.87" class="st2">經》</text>			</g>
			<g id="shape53-155" transform="translate(-43.5197,341.157) rotate(-90)">
				<title>工作表.53</title>
				<path d="M0 343.99 L340.16 343.99" class="st3"/>
			</g>
			<g id="shape54-158" transform="translate(55.6929,343.992) rotate(-90)">
				<title>工作表.54</title>
				<path d="M0 343.99 L340.16 343.99" class="st3"/>
			</g>
			<g id="shape55-161" transform="translate(500.315,-287.717)">
				<title>工作表.55</title>
				<desc>住品〉</desc>
				<rect x="0" y="324.15" width="56.6929" height="19.8425" class="st1"/>
				<text x="4.35" y="338.87" class="st2">住品〉</text>			</g>
			<g id="shape56-164" transform="translate(154.906,343.992) rotate(-90)">
				<title>工作表.56</title>
				<path d="M0 343.99 L340.16 343.99" class="st3"/>
			</g>
			<g id="shape50-167" transform="translate(202.677,-231.024)">
				<title>工作表.50</title>
				<desc>阿闍浮</desc>
				<rect x="0" y="324.15" width="56.6929" height="19.8425" class="st1"/>
				<text x="4.35" y="338.87" class="st2">阿闍浮</text>			</g>
			<g id="shape57-170" transform="translate(202.677,-174.331)">
				<title>工作表.57</title>
				<desc>闍摩期</desc>
				<rect x="0" y="324.15" width="56.6929" height="19.8425" class="st1"/>
				<text x="4.35" y="338.87" class="st2">闍摩期</text>			</g>
			<g id="shape58-173" transform="translate(301.89,-259.37)">
				<title>工作表.58</title>
				<desc>發意</desc>
				<rect x="0" y="324.15" width="42.5197" height="19.8425" class="st1"/>
				<text x="5.26" y="338.87" class="st2">發意</text>			</g>
			<g id="shape59-176" transform="translate(202.677,-4.25197)">
				<title>工作表.59</title>
				<desc>阿惟顏</desc>
				<rect x="0" y="324.15" width="56.6929" height="19.8425" class="st1"/>
				<text x="4.35" y="338.87" class="st2">阿惟顏</text>			</g>
			<g id="shape60-179" transform="translate(202.677,-60.9449)">
				<title>工作表.60</title>
				<desc>鳩摩羅浮</desc>
				<rect x="0" y="324.15" width="73.7008" height="19.8425" class="st1"/>
				<text x="4.85" y="338.87" class="st2">鳩摩羅浮</text>			</g>
			<g id="shape61-182" transform="translate(202.677,-89.2913)">
				<title>工作表.61</title>
				<desc>阿惟越致</desc>
				<rect x="0" y="324.15" width="73.7008" height="19.8425" class="st1"/>
				<text x="4.85" y="338.87" class="st2">阿惟越致</text>			</g>
			<g id="shape62-185" transform="translate(202.677,-145.984)">
				<title>工作表.62</title>
				<desc>波俞三般</desc>
				<rect x="0" y="324.15" width="73.7008" height="19.8425" class="st1"/>
				<text x="4.85" y="338.87" class="st2">波俞三般</text>			</g>
			<g id="shape63-188" transform="translate(202.677,-117.638)">
				<title>工作表.63</title>
				<desc>阿耆三般</desc>
				<rect x="0" y="324.15" width="73.7008" height="19.8425" class="st1"/>
				<text x="4.85" y="338.87" class="st2">阿耆三般</text>			</g>
			<g id="shape64-191" transform="translate(301.89,-60.9449)">
				<title>工作表.64</title>
				<desc>童真</desc>
				<rect x="0" y="324.15" width="42.5197" height="19.8425" class="st1"/>
				<text x="5.26" y="338.87" class="st2">童真</text>			</g>
			<g id="shape65-194" transform="translate(401.102,-60.9449)">
				<title>工作表.65</title>
				<desc>童真</desc>
				<rect x="0" y="324.15" width="42.5197" height="19.8425" class="st1"/>
				<text x="5.26" y="338.87" class="st2">童真</text>			</g>
			<g id="shape66-197" transform="translate(500.315,-60.9449)">
				<title>工作表.66</title>
				<desc>童子</desc>
				<rect x="0" y="324.15" width="42.5197" height="19.8425" class="st1"/>
				<text x="5.26" y="338.87" class="st2">童子</text>			</g>
			<g id="shape67-200" transform="translate(301.89,-4.25197)">
				<title>工作表.67</title>
				<desc>補處</desc>
				<rect x="0" y="324.15" width="42.5197" height="19.8425" class="st1"/>
				<text x="5.26" y="338.87" class="st2">補處</text>			</g>
			<g id="shape68-203" transform="translate(401.102,-89.2913)">
				<title>工作表.68</title>
				<desc>不退</desc>
				<rect x="0" y="324.15" width="42.5197" height="19.8425" class="st1"/>
				<text x="5.26" y="338.87" class="st2">不退</text>			</g>
			<g id="shape69-206" transform="translate(500.315,-89.2913)">
				<title>工作表.69</title>
				<desc>不退</desc>
				<rect x="0" y="324.15" width="42.5197" height="19.8425" class="st1"/>
				<text x="5.26" y="338.87" class="st2">不退</text>			</g>
			<g id="shape70-209" transform="translate(500.315,-4.25197)">
				<title>工作表.70</title>
				<desc>灌頂</desc>
				<rect x="0" y="324.15" width="42.5197" height="19.8425" class="st1"/>
				<text x="5.26" y="338.87" class="st2">灌頂</text>			</g>
			<g id="shape71-212" transform="translate(500.315,-117.638)">
				<title>工作表.71</title>
				<desc>正心</desc>
				<rect x="0" y="324.15" width="42.5197" height="19.8425" class="st1"/>
				<text x="5.26" y="338.87" class="st2">正心</text>			</g>
			<g id="shape72-215" transform="translate(401.102,-174.331)">
				<title>工作表.72</title>
				<desc>生貴</desc>
				<rect x="0" y="324.15" width="42.5197" height="19.8425" class="st1"/>
				<text x="5.26" y="338.87" class="st2">生貴</text>			</g>
			<g id="shape73-218" transform="translate(500.315,-174.331)">
				<title>工作表.73</title>
				<desc>生貴</desc>
				<rect x="0" y="324.15" width="42.5197" height="19.8425" class="st1"/>
				<text x="5.26" y="338.87" class="st2">生貴</text>			</g>
			<g id="shape74-221" transform="translate(500.315,-202.677)">
				<title>工作表.74</title>
				<desc>修行</desc>
				<rect x="0" y="324.15" width="42.5197" height="19.8425" class="st1"/>
				<text x="5.26" y="338.87" class="st2">修行</text>			</g>
			<g id="shape75-224" transform="translate(401.102,-202.677)">
				<title>工作表.75</title>
				<desc>修行</desc>
				<rect x="0" y="324.15" width="42.5197" height="19.8425" class="st1"/>
				<text x="5.26" y="338.87" class="st2">修行</text>			</g>
			<g id="shape76-227" transform="translate(500.315,-231.024)">
				<title>工作表.76</title>
				<desc>治地</desc>
				<rect x="0" y="324.15" width="42.5197" height="19.8425" class="st1"/>
				<text x="5.26" y="338.87" class="st2">治地</text>			</g>
			<g id="shape77-230" transform="translate(500.315,-259.37)">
				<title>工作表.77</title>
				<desc>初發心</desc>
				<rect x="0" y="324.15" width="56.6929" height="19.8425" class="st1"/>
				<text x="4.35" y="338.87" class="st2">初發心</text>			</g>
			<g id="shape78-233" transform="translate(2.83465,-283.465)">
				<title>工作表.78</title>
				<path d="M0 343.99 L581.1 343.99" class="st3"/>
			</g>
		</g>
	</g>
</svg>
