<?xml version="1.0" encoding="UTF-8" standalone="no"?>
<!DOCTYPE svg PUBLIC "-//W3C//DTD SVG 1.1//EN" "http://www.w3.org/Graphics/SVG/1.1/DTD/svg11.dtd">
<!-- 由 Microsoft Visio, SVG Export 產生 y37.0579-h.svg 頁-1 -->
<svg xmlns="http://www.w3.org/2000/svg" xmlns:xlink="http://www.w3.org/1999/xlink" xmlns:ev="http://www.w3.org/2001/xml-events"
		width="6.95924in" height="3.86868in" viewBox="0 0 501.065 278.545" xml:space="preserve" color-interpolation-filters="sRGB"
		class="st3">
	<style type="text/css">
	<![CDATA[
		.st1 {fill:none;stroke:none;stroke-linecap:round;stroke-linejoin:round;stroke-width:0.75}
		.st2 {fill:#000000;font-family:新細明體;font-size:1.33333em}
		.st3 {fill:none;fill-rule:evenodd;font-size:12px;overflow:visible;stroke-linecap:square;stroke-miterlimit:3}
	]]>
	</style>

	<g>
		<title>頁-1</title>
		<g id="group33-1" transform="translate(0.375,-0.375)">
			<title>工作表.33</title>
			<g id="shape1-2" transform="translate(7.99361E-15,-255.118)">
				<title>工作表.1</title>
				<desc>《修行本起經》</desc>
				<rect x="0" y="255.868" width="127.559" height="22.6772" class="st1"/>
				<text x="7.78" y="272.01" class="st2">《修行本起經》</text>			</g>
			<g id="shape2-5" transform="translate(269.291,-255.118)">
				<title>工作表.2</title>
				<desc>二卷</desc>
				<rect x="0" y="255.868" width="42.5197" height="22.6772" class="st1"/>
				<text x="5.26" y="272.01" class="st2">二卷</text>			</g>
			<g id="shape3-8" transform="translate(341.575,-255.118)">
				<title>工作表.3</title>
				<desc>漢竺大力共康孟詳譯</desc>
				<rect x="0" y="255.868" width="158.74" height="22.6772" class="st1"/>
				<text x="7.37" y="272.01" class="st2">漢竺大力共康孟詳譯</text>			</g>
			<g id="shape4-11" transform="translate(2.83465,-226.772)">
				<title>工作表.4</title>
				<desc>《太子瑞應本起經》</desc>
				<rect x="0" y="255.868" width="153.071" height="22.6772" class="st1"/>
				<text x="4.54" y="272.01" class="st2">《太子瑞應本起經》</text>			</g>
			<g id="shape5-14" transform="translate(343.559,-226.772)">
				<title>工作表.5</title>
				<desc>吳支謙譯</desc>
				<rect x="0" y="255.868" width="73.7008" height="22.6772" class="st1"/>
				<text x="4.85" y="272.01" class="st2">吳支謙譯</text>			</g>
			<g id="shape6-17" transform="translate(2.83465,-198.425)">
				<title>工作表.6</title>
				<desc>《異出菩薩本起經》</desc>
				<rect x="0" y="255.868" width="153.071" height="22.6772" class="st1"/>
				<text x="4.54" y="272.01" class="st2">《異出菩薩本起經》</text>			</g>
			<g id="shape7-20" transform="translate(269.291,-198.425)">
				<title>工作表.7</title>
				<desc>一卷</desc>
				<rect x="0" y="255.868" width="42.5197" height="22.6772" class="st1"/>
				<text x="5.26" y="272.01" class="st2">一卷</text>			</g>
			<g id="shape8-23" transform="translate(342.992,-198.425)">
				<title>工作表.8</title>
				<desc>晉聶道真譯</desc>
				<rect x="0" y="255.868" width="90.7087" height="22.6772" class="st1"/>
				<text x="5.35" y="272.01" class="st2">晉聶道真譯</text>			</g>
			<g id="shape9-26" transform="translate(2.83465,-170.079)">
				<title>工作表.9</title>
				<desc>《中本起經》</desc>
				<rect x="0" y="255.868" width="104.882" height="22.6772" class="st1"/>
				<text x="4.44" y="272.01" class="st2">《中本起經》</text>			</g>
			<g id="shape10-29" transform="translate(338.74,-170.079)">
				<title>工作表.10</title>
				<desc>漢曇果共康孟詳譯</desc>
				<rect x="0" y="255.868" width="147.402" height="22.6772" class="st1"/>
				<text x="9.7" y="272.01" class="st2">漢曇果共康孟詳譯</text>			</g>
			<g id="shape11-32" transform="translate(2.83465,-141.732)">
				<title>工作表.11</title>
				<desc>《過去現在因果經》</desc>
				<rect x="0" y="255.868" width="153.071" height="22.6772" class="st1"/>
				<text x="4.54" y="272.01" class="st2">《過去現在因果經》</text>			</g>
			<g id="shape12-35" transform="translate(269.291,-141.732)">
				<title>工作表.12</title>
				<desc>四卷</desc>
				<rect x="0" y="255.868" width="42.5197" height="22.6772" class="st1"/>
				<text x="5.26" y="272.01" class="st2">四卷</text>			</g>
			<g id="shape13-38" transform="translate(338.74,-141.732)">
				<title>工作表.13</title>
				<desc>劉宋求那跋陀羅譯</desc>
				<rect x="0" y="255.868" width="147.402" height="22.6772" class="st1"/>
				<text x="9.7" y="272.01" class="st2">劉宋求那跋陀羅譯</text>			</g>
			<g id="shape14-41" transform="translate(5.27578E-13,-113.386)">
				<title>工作表.14</title>
				<desc>《佛說普曜經》</desc>
				<rect x="0" y="255.868" width="127.559" height="22.6772" class="st1"/>
				<text x="7.78" y="272.01" class="st2">《佛說普曜經》</text>			</g>
			<g id="shape15-44" transform="translate(269.291,-113.386)">
				<title>工作表.15</title>
				<desc>八卷</desc>
				<rect x="0" y="255.868" width="42.5197" height="22.6772" class="st1"/>
				<text x="5.26" y="272.01" class="st2">八卷</text>			</g>
			<g id="shape16-47" transform="translate(342.992,-113.386)">
				<title>工作表.16</title>
				<desc>晉竺法護譯</desc>
				<rect x="0" y="255.868" width="90.7087" height="22.6772" class="st1"/>
				<text x="5.35" y="272.01" class="st2">晉竺法護譯</text>			</g>
			<g id="shape17-50" transform="translate(4.25197,-85.0394)">
				<title>工作表.17</title>
				<desc>《方廣大莊嚴經》</desc>
				<rect x="0" y="255.868" width="136.063" height="22.6772" class="st1"/>
				<text x="4.03" y="272.01" class="st2">《方廣大莊嚴經》</text>			</g>
			<g id="shape18-53" transform="translate(270.709,-85.0394)">
				<title>工作表.18</title>
				<desc>一二卷</desc>
				<rect x="0" y="255.868" width="56.6929" height="22.6772" class="st1"/>
				<text x="4.35" y="272.01" class="st2">一二卷</text>			</g>
			<g id="shape19-56" transform="translate(344.409,-85.0394)">
				<title>工作表.19</title>
				<desc>唐地婆訶羅譯</desc>
				<rect x="0" y="255.868" width="104.882" height="22.6772" class="st1"/>
				<text x="4.44" y="272.01" class="st2">唐地婆訶羅譯</text>			</g>
			<g id="shape20-59" transform="translate(2.83465,-56.6929)">
				<title>工作表.20</title>
				<desc>《根本說一切有部毘奈耶破僧事》</desc>
				<rect x="0" y="255.868" width="249.449" height="22.6772" class="st1"/>
				<text x="4.72" y="272.01" class="st2">《根本說一切有部毘奈耶破僧事》</text>			</g>
			<g id="shape21-62" transform="translate(270.709,-56.6929)">
				<title>工作表.21</title>
				<desc>前九卷</desc>
				<rect x="0" y="255.868" width="56.6929" height="22.6772" class="st1"/>
				<text x="4.35" y="272.01" class="st2">前九卷</text>			</g>
			<g id="shape22-65" transform="translate(343.559,-56.6929)">
				<title>工作表.22</title>
				<desc>唐義淨譯</desc>
				<rect x="0" y="255.868" width="73.7008" height="22.6772" class="st1"/>
				<text x="4.85" y="272.01" class="st2">唐義淨譯</text>			</g>
			<g id="shape23-68" transform="translate(4.25197,-28.3465)">
				<title>工作表.23</title>
				<desc>《眾許摩訶帝經》</desc>
				<rect x="0" y="255.868" width="136.063" height="22.6772" class="st1"/>
				<text x="4.03" y="272.01" class="st2">《眾許摩訶帝經》</text>			</g>
			<g id="shape24-71" transform="translate(270.709,-28.3465)">
				<title>工作表.24</title>
				<desc>一三卷</desc>
				<rect x="0" y="255.868" width="56.6929" height="22.6772" class="st1"/>
				<text x="4.35" y="272.01" class="st2">一三卷</text>			</g>
			<g id="shape25-74" transform="translate(342.992,-28.3465)">
				<title>工作表.25</title>
				<desc>趙宋法賢譯</desc>
				<rect x="0" y="255.868" width="90.7087" height="22.6772" class="st1"/>
				<text x="5.35" y="272.01" class="st2">趙宋法賢譯</text>			</g>
			<g id="shape26-77">
				<title>工作表.26</title>
				<desc>《佛本行集經》</desc>
				<rect x="0" y="255.868" width="127.559" height="22.6772" class="st1"/>
				<text x="7.78" y="272.01" class="st2">《佛本行集經》</text>			</g>
			<g id="shape27-80" transform="translate(270.709,-7.95808E-13)">
				<title>工作表.27</title>
				<desc>六○卷</desc>
				<rect x="0" y="255.868" width="56.6929" height="22.6772" class="st1"/>
				<text x="4" y="272.01" class="st2">六○卷</text>			</g>
			<g id="shape28-83" transform="translate(344.409,-1.13687E-12)">
				<title>工作表.28</title>
				<desc>隋闍那崛多譯</desc>
				<rect x="0" y="255.868" width="104.882" height="22.6772" class="st1"/>
				<text x="4.44" y="272.01" class="st2">隋闍那崛多譯</text>			</g>
			<g id="shape31-86" transform="translate(269.291,-170.079)">
				<title>工作表.31</title>
				<desc>二卷</desc>
				<rect x="0" y="255.868" width="42.5197" height="22.6772" class="st1"/>
				<text x="5.26" y="272.01" class="st2">二卷</text>			</g>
			<g id="shape32-89" transform="translate(269.291,-226.772)">
				<title>工作表.32</title>
				<desc>二卷</desc>
				<rect x="0" y="255.868" width="42.5197" height="22.6772" class="st1"/>
				<text x="5.26" y="272.01" class="st2">二卷</text>			</g>
		</g>
	</g>
</svg>
