<?xml version="1.0" encoding="UTF-8" standalone="no"?>
<!DOCTYPE svg PUBLIC "-//W3C//DTD SVG 1.0//EN" "http://www.w3.org/TR/2001/REC-SVG-20010904/DTD/svg10.dtd">
<!-- 由 Microsoft Visio 11.0, SVG Export, v1.0 產生 y37.1013.svg Page-1 -->
<svg xmlns="http://www.w3.org/2000/svg" xmlns:xlink="http://www.w3.org/1999/xlink" xmlns:ev="http://www.w3.org/2001/xml-events"
		xmlns:v="http://schemas.microsoft.com/visio/2003/SVGExtensions/" width="8.59864in" height="5.97706in"
		viewBox="0 0 619.102 430.348" xml:space="preserve" color-interpolation-filters="sRGB" class="st5">
	<v:documentProperties v:langID="1028" v:metric="true" v:viewMarkup="false">
		<v:userDefs>
			<v:ud v:nameU="msvSubprocessMaster" v:prompt="" v:val="VT4(Box)"/>
			<v:ud v:nameU="msvNoAutoConnect" v:val="VT0(1):26"/>
		</v:userDefs>
	</v:documentProperties>

	<style type="text/css">
	<![CDATA[
		.st1 {fill:none;stroke:none;stroke-linecap:round;stroke-linejoin:round;stroke-width:0.75}
		.st2 {fill:#000000;font-family:新細明體;font-size:1.33333em}
		.st3 {stroke:#ffffff;stroke-linecap:round;stroke-linejoin:round;stroke-opacity:0;stroke-width:1}
		.st4 {stroke:#000000;stroke-linecap:round;stroke-linejoin:round;stroke-width:1}
		.st5 {fill:none;fill-rule:evenodd;font-size:12px;overflow:visible;stroke-linecap:square;stroke-miterlimit:3}
	]]>
	</style>

	<g v:mID="0" v:index="1" v:groupContext="foregroundPage">
		<title>頁-1</title>
		<v:pageProperties v:drawingScale="0.0393701" v:pageScale="0.0393701" v:drawingUnits="24" v:shadowOffsetX="8.50394"
				v:shadowOffsetY="-8.50394"/>
		<g id="group51-1" transform="translate(169.754,411.348) rotate(-90)" v:mID="51" v:groupContext="group">
			<title>工作表.51</title>
			<g id="shape18-2" v:mID="18" v:groupContext="shape" transform="translate(710.978,-111.069) rotate(90)">
				<title>工作表.18</title>
				<desc>『兜沙經』</desc>
				<v:textBlock v:margins="rect(4,4,4,4)" v:tabSpace="42.5197"/>
				<v:textRect cx="45.3543" cy="384.994" width="90.71" height="90.7087"/>
				<rect x="0" y="339.64" width="90.7087" height="90.7087" class="st1"/>
				<text x="5.35" y="389.79" class="st2" v:langID="1028"><v:paragraph v:horizAlign="1"/><v:tabList/>『兜沙經』</text>			</g>
			<g id="shape19-5" v:mID="19" v:groupContext="shape" transform="translate(695.388,19.3248) rotate(90)">
				<title>工作表.19</title>
				<desc>『菩薩本業經』</desc>
				<v:textBlock v:margins="rect(4,4,4,4)" v:tabSpace="42.5197"/>
				<v:textRect cx="63.7795" cy="366.569" width="127.56" height="127.559"/>
				<rect x="0" y="302.789" width="127.559" height="127.559" class="st1"/>
				<text x="7.78" y="371.37" class="st2" v:langID="1028"><v:paragraph v:horizAlign="1"/><v:tabList/>『菩薩本業經』</text>			</g>
			<g id="shape20-8" v:mID="20" v:groupContext="shape" transform="translate(710.978,175.23) rotate(90)">
				<title>工作表.20</title>
				<desc>『晉譯本』</desc>
				<v:textBlock v:margins="rect(4,4,4,4)" v:tabSpace="42.5197"/>
				<v:textRect cx="45.3543" cy="384.994" width="90.71" height="90.7087"/>
				<rect x="0" y="339.64" width="90.7087" height="90.7087" class="st1"/>
				<text x="5.35" y="389.79" class="st2" v:langID="1028"><v:paragraph v:horizAlign="1"/><v:tabList/>『晉譯本』</text>			</g>
			<g id="shape22-11" v:mID="22" v:groupContext="shape" transform="translate(699.64,-94.061) rotate(90)">
				<title>工作表.22</title>
				<desc>十法住</desc>
				<v:textBlock v:margins="rect(4,4,4,4)" v:tabSpace="42.5197"/>
				<v:textRect cx="28.3465" cy="402.002" width="56.7" height="56.6929"/>
				<rect x="0" y="373.656" width="56.6929" height="56.6929" class="st1"/>
				<text x="4.35" y="406.8" class="st2" v:langID="1028"><v:paragraph v:horizAlign="1"/><v:tabList/>十法住</text>			</g>
			<g id="shape23-14" v:mID="23" v:groupContext="shape" transform="translate(706.726,37.75) rotate(90)">
				<title>工作表.23</title>
				<desc>十智</desc>
				<v:textBlock v:margins="rect(4,4,4,4)" v:tabSpace="42.5197"/>
				<v:textRect cx="21.2598" cy="409.089" width="42.52" height="42.5197"/>
				<rect x="0" y="387.829" width="42.5197" height="42.5197" class="st1"/>
				<text x="5.26" y="413.89" class="st2" v:langID="1028"><v:paragraph v:horizAlign="1"/><v:tabList/>十智</text>			</g>
			<g id="shape25-17" v:mID="25" v:groupContext="shape" transform="translate(662.789,-94.061) rotate(90)">
				<title>工作表.25</title>
				<desc>十法所行</desc>
				<v:textBlock v:margins="rect(4,4,4,4)" v:tabSpace="42.5197"/>
				<v:textRect cx="36.8504" cy="393.498" width="73.71" height="73.7008"/>
				<rect x="0" y="356.648" width="73.7008" height="73.7008" class="st1"/>
				<text x="4.85" y="398.3" class="st2" v:langID="1028"><v:paragraph v:horizAlign="1"/><v:tabList/>十法所行</text>			</g>
			<g id="shape26-20" v:mID="26" v:groupContext="shape" transform="translate(678.38,37.75) rotate(90)">
				<title>工作表.26</title>
				<desc>十行</desc>
				<v:textBlock v:margins="rect(4,4,4,4)" v:tabSpace="42.5197"/>
				<v:textRect cx="21.2598" cy="409.089" width="42.52" height="42.5197"/>
				<rect x="0" y="387.829" width="42.5197" height="42.5197" class="st1"/>
				<text x="5.26" y="413.89" class="st2" v:langID="1028"><v:paragraph v:horizAlign="1"/><v:tabList/>十行</text>			</g>
			<g id="shape27-23" v:mID="27" v:groupContext="shape" transform="translate(634.443,-94.061) rotate(90)">
				<title>工作表.27</title>
				<desc>十法悔過</desc>
				<v:textBlock v:margins="rect(4,4,4,4)" v:tabSpace="42.5197"/>
				<v:textRect cx="36.8504" cy="393.498" width="73.71" height="73.7008"/>
				<rect x="0" y="356.648" width="73.7008" height="73.7008" class="st1"/>
				<text x="4.85" y="398.3" class="st2" v:langID="1028"><v:paragraph v:horizAlign="1"/><v:tabList/>十法悔過</text>			</g>
			<g id="shape28-26" v:mID="28" v:groupContext="shape" transform="translate(650.033,37.75) rotate(90)">
				<title>工作表.28</title>
				<desc>十投</desc>
				<v:textBlock v:margins="rect(4,4,4,4)" v:tabSpace="42.5197"/>
				<v:textRect cx="21.2598" cy="409.089" width="42.52" height="42.5197"/>
				<rect x="0" y="387.829" width="42.5197" height="42.5197" class="st1"/>
				<text x="5.26" y="413.89" class="st2" v:langID="1028"><v:paragraph v:horizAlign="1"/><v:tabList/>十投</text>			</g>
			<g id="shape30-29" v:mID="30" v:groupContext="shape" transform="translate(614.6,-94.061) rotate(90)">
				<title>工作表.30</title>
				<desc>十道地</desc>
				<v:textBlock v:margins="rect(4,4,4,4)" v:tabSpace="42.5197"/>
				<v:textRect cx="28.3465" cy="402.002" width="56.7" height="56.6929"/>
				<rect x="0" y="373.656" width="56.6929" height="56.6929" class="st1"/>
				<text x="4.35" y="406.8" class="st2" v:langID="1028"><v:paragraph v:horizAlign="1"/><v:tabList/>十道地</text>			</g>
			<g id="shape32-32" v:mID="32" v:groupContext="shape" transform="translate(593.341,-94.061) rotate(90)">
				<title>工作表.32</title>
				<desc>十鎮</desc>
				<v:textBlock v:margins="rect(4,4,4,4)" v:tabSpace="42.5197"/>
				<v:textRect cx="21.2598" cy="409.089" width="42.52" height="42.5197"/>
				<rect x="0" y="387.829" width="42.5197" height="42.5197" class="st1"/>
				<text x="5.26" y="413.89" class="st2" v:langID="1028"><v:paragraph v:horizAlign="1"/><v:tabList/>十鎮</text>			</g>
			<g id="shape34-35" v:mID="34" v:groupContext="shape" transform="translate(540.9,-94.061) rotate(90)">
				<title>工作表.34</title>
				<desc>十居處所願</desc>
				<v:textBlock v:margins="rect(4,4,4,4)" v:tabSpace="42.5197"/>
				<v:textRect cx="45.3543" cy="384.994" width="90.71" height="90.7087"/>
				<rect x="0" y="339.64" width="90.7087" height="90.7087" class="st1"/>
				<text x="5.35" y="389.79" class="st2" v:langID="1028"><v:paragraph v:horizAlign="1"/><v:tabList/>十居處所願</text>			</g>
			<g id="shape36-38" v:mID="36" v:groupContext="shape" transform="translate(536.648,-94.061) rotate(90)">
				<title>工作表.36</title>
				<desc>十黠</desc>
				<v:textBlock v:margins="rect(4,4,4,4)" v:tabSpace="42.5197"/>
				<v:textRect cx="21.2598" cy="409.089" width="42.52" height="42.5197"/>
				<rect x="0" y="387.829" width="42.5197" height="42.5197" class="st1"/>
				<text x="5.26" y="413.89" class="st2" v:langID="1028"><v:paragraph v:horizAlign="1"/><v:tabList/>十黠</text>			</g>
			<g id="shape37-41" v:mID="37" v:groupContext="shape" transform="translate(536.648,37.75) rotate(90)">
				<title>工作表.37</title>
				<desc>十明</desc>
				<v:textBlock v:margins="rect(4,4,4,4)" v:tabSpace="42.5197"/>
				<v:textRect cx="21.2598" cy="409.089" width="42.52" height="42.5197"/>
				<rect x="0" y="387.829" width="42.5197" height="42.5197" class="st1"/>
				<text x="5.26" y="413.89" class="st2" v:langID="1028"><v:paragraph v:horizAlign="1"/><v:tabList/>十明</text>			</g>
			<g id="shape38-44" v:mID="38" v:groupContext="shape" transform="translate(501.215,-94.061) rotate(90)">
				<title>工作表.38</title>
				<desc>十三昧</desc>
				<v:textBlock v:margins="rect(4,4,4,4)" v:tabSpace="42.5197"/>
				<v:textRect cx="28.3465" cy="402.002" width="56.7" height="56.6929"/>
				<rect x="0" y="373.656" width="56.6929" height="56.6929" class="st1"/>
				<text x="4.35" y="406.8" class="st2" v:langID="1028"><v:paragraph v:horizAlign="1"/><v:tabList/>十三昧</text>			</g>
			<g id="shape39-47" v:mID="39" v:groupContext="shape" transform="translate(506.884,37.75) rotate(90)">
				<title>工作表.39</title>
				<desc>十定</desc>
				<v:textBlock v:margins="rect(4,4,4,4)" v:tabSpace="42.5197"/>
				<v:textRect cx="21.2598" cy="409.089" width="42.52" height="42.5197"/>
				<rect x="0" y="387.829" width="42.5197" height="42.5197" class="st1"/>
				<text x="5.26" y="413.89" class="st2" v:langID="1028"><v:paragraph v:horizAlign="1"/><v:tabList/>十定</text>			</g>
			<g id="shape40-50" v:mID="40" v:groupContext="shape" transform="translate(472.868,-94.061) rotate(90)">
				<title>工作表.40</title>
				<desc>十飛法</desc>
				<v:textBlock v:margins="rect(4,4,4,4)" v:tabSpace="42.5197"/>
				<v:textRect cx="28.3465" cy="402.002" width="56.7" height="56.6929"/>
				<rect x="0" y="373.656" width="56.6929" height="56.6929" class="st1"/>
				<text x="4.35" y="406.8" class="st2" v:langID="1028"><v:paragraph v:horizAlign="1"/><v:tabList/>十飛法</text>			</g>
			<g id="shape41-53" v:mID="41" v:groupContext="shape" transform="translate(479.955,37.75) rotate(90)">
				<title>工作表.41</title>
				<desc>十現</desc>
				<v:textBlock v:margins="rect(4,4,4,4)" v:tabSpace="42.5197"/>
				<v:textRect cx="21.2598" cy="409.089" width="42.52" height="42.5197"/>
				<rect x="0" y="387.829" width="42.5197" height="42.5197" class="st1"/>
				<text x="5.26" y="413.89" class="st2" v:langID="1028"><v:paragraph v:horizAlign="1"/><v:tabList/>十現</text>			</g>
			<g id="shape44-56" v:mID="44" v:groupContext="shape" transform="translate(451.608,-94.061) rotate(90)">
				<title>工作表.44</title>
				<desc>十印</desc>
				<v:textBlock v:margins="rect(4,4,4,4)" v:tabSpace="42.5197"/>
				<v:textRect cx="21.2598" cy="409.089" width="42.52" height="42.5197"/>
				<rect x="0" y="387.829" width="42.5197" height="42.5197" class="st1"/>
				<text x="5.26" y="413.89" class="st2" v:langID="1028"><v:paragraph v:horizAlign="1"/><v:tabList/>十印</text>			</g>
			<g id="shape49-59" v:mID="49" v:groupContext="shape" transform="translate(453.026,37.75) rotate(90)">
				<title>工作表.49</title>
				<desc>十印</desc>
				<v:textBlock v:margins="rect(4,4,4,4)" v:tabSpace="42.5197"/>
				<v:textRect cx="21.2598" cy="409.089" width="42.52" height="42.5197"/>
				<rect x="0" y="387.829" width="42.5197" height="42.5197" class="st1"/>
				<text x="5.26" y="413.89" class="st2" v:langID="1028"><v:paragraph v:horizAlign="1"/><v:tabList/>十印</text>			</g>
			<g id="shape31-62" v:mID="31" v:groupContext="shape" transform="translate(621.687,37.75) rotate(90)">
				<title>工作表.31</title>
				<desc>十地</desc>
				<v:textBlock v:margins="rect(4,4,4,4)" v:tabSpace="42.5197"/>
				<v:textRect cx="21.2598" cy="409.089" width="42.52" height="42.5197"/>
				<rect x="0" y="387.829" width="42.5197" height="42.5197" class="st1"/>
				<text x="5.26" y="413.89" class="st2" v:langID="1028"><v:paragraph v:horizAlign="1"/><v:tabList/>十地</text>			</g>
			<g id="shape33-65" v:mID="33" v:groupContext="shape" transform="translate(593.341,37.75) rotate(90)">
				<title>工作表.33</title>
				<desc>十藏</desc>
				<v:textBlock v:margins="rect(4,4,4,4)" v:tabSpace="42.5197"/>
				<v:textRect cx="21.2598" cy="409.089" width="42.52" height="42.5197"/>
				<rect x="0" y="387.829" width="42.5197" height="42.5197" class="st1"/>
				<text x="5.26" y="413.89" class="st2" v:langID="1028"><v:paragraph v:horizAlign="1"/><v:tabList/>十藏</text>			</g>
			<g id="shape35-68" v:mID="35" v:groupContext="shape" transform="translate(564.994,37.75) rotate(90)">
				<title>工作表.35</title>
				<desc>十願</desc>
				<v:textBlock v:margins="rect(4,4,4,4)" v:tabSpace="42.5197"/>
				<v:textRect cx="21.2598" cy="409.089" width="42.52" height="42.5197"/>
				<rect x="0" y="387.829" width="42.5197" height="42.5197" class="st1"/>
				<text x="5.26" y="413.89" class="st2" v:langID="1028"><v:paragraph v:horizAlign="1"/><v:tabList/>十願</text>			</g>
			<g id="shape24-71" v:mID="24" v:groupContext="shape" transform="translate(706.726,190.821) rotate(90)">
				<title>工作表.24</title>
				<desc>十住</desc>
				<v:textBlock v:margins="rect(4,4,4,4)" v:tabSpace="42.5197"/>
				<v:textRect cx="21.2598" cy="409.089" width="42.52" height="42.5197"/>
				<rect x="0" y="387.829" width="42.5197" height="42.5197" class="st1"/>
				<text x="5.26" y="413.89" class="st2" v:langID="1028"><v:paragraph v:horizAlign="1"/><v:tabList/>十住</text>			</g>
			<g id="shape29-74" v:mID="29" v:groupContext="shape" transform="translate(642.947,192.238) rotate(90)">
				<title>工作表.29</title>
				<desc>十迴向</desc>
				<v:textBlock v:margins="rect(4,4,4,4)" v:tabSpace="42.5197"/>
				<v:textRect cx="28.3465" cy="402.002" width="56.7" height="56.6929"/>
				<rect x="0" y="373.656" width="56.6929" height="56.6929" class="st1"/>
				<text x="4.35" y="406.8" class="st2" v:langID="1028"><v:paragraph v:horizAlign="1"/><v:tabList/>十迴向</text>			</g>
			<g id="shape42-77" v:mID="42" v:groupContext="shape" transform="translate(472.868,192.238) rotate(90)">
				<title>工作表.42</title>
				<desc>十自在</desc>
				<v:textBlock v:margins="rect(4,4,4,4)" v:tabSpace="42.5197"/>
				<v:textRect cx="28.3465" cy="402.002" width="56.7" height="56.6929"/>
				<rect x="0" y="373.656" width="56.6929" height="56.6929" class="st1"/>
				<text x="4.35" y="406.8" class="st2" v:langID="1028"><v:paragraph v:horizAlign="1"/><v:tabList/>十自在</text>			</g>
			<g id="shape45-80" v:mID="45" v:groupContext="shape" transform="translate(451.608,190.821) rotate(90)">
				<title>工作表.45</title>
				<desc>十頂</desc>
				<v:textBlock v:margins="rect(4,4,4,4)" v:tabSpace="42.5197"/>
				<v:textRect cx="21.2598" cy="409.089" width="42.52" height="42.5197"/>
				<rect x="0" y="387.829" width="42.5197" height="42.5197" class="st1"/>
				<text x="5.26" y="413.89" class="st2" v:langID="1028"><v:paragraph v:horizAlign="1"/><v:tabList/>十頂</text>			</g>
			<g id="shape46-83" v:mID="46" v:groupContext="shape" transform="translate(679.797,190.821) rotate(90)">
				<title>工作表.46</title>
				<desc>十行</desc>
				<v:textBlock v:margins="rect(4,4,4,4)" v:tabSpace="42.5197"/>
				<v:textRect cx="21.2598" cy="409.089" width="42.52" height="42.5197"/>
				<rect x="0" y="387.829" width="42.5197" height="42.5197" class="st1"/>
				<text x="5.26" y="413.89" class="st2" v:langID="1028"><v:paragraph v:horizAlign="1"/><v:tabList/>十行</text>			</g>
			<g id="shape52-86" v:mID="52" v:groupContext="shape" transform="translate(621.687,190.821) rotate(90)">
				<title>工作表.52</title>
				<desc>十地</desc>
				<v:textBlock v:margins="rect(4,4,4,4)" v:tabSpace="42.5197"/>
				<v:textRect cx="21.2598" cy="409.089" width="42.52" height="42.5197"/>
				<rect x="0" y="387.829" width="42.5197" height="42.5197" class="st1"/>
				<text x="5.26" y="413.89" class="st2" v:langID="1028"><v:paragraph v:horizAlign="1"/><v:tabList/>十地</text>			</g>
			<g id="shape53-89" v:mID="53" v:groupContext="shape" transform="translate(593.341,190.821) rotate(90)">
				<title>工作表.53</title>
				<desc>十藏</desc>
				<v:textBlock v:margins="rect(4,4,4,4)" v:tabSpace="42.5197"/>
				<v:textRect cx="21.2598" cy="409.089" width="42.52" height="42.5197"/>
				<rect x="0" y="387.829" width="42.5197" height="42.5197" class="st1"/>
				<text x="5.26" y="413.89" class="st2" v:langID="1028"><v:paragraph v:horizAlign="1"/><v:tabList/>十藏</text>			</g>
			<g id="shape54-92" v:mID="54" v:groupContext="shape" transform="translate(564.994,190.821) rotate(90)">
				<title>工作表.54</title>
				<desc>十願</desc>
				<v:textBlock v:margins="rect(4,4,4,4)" v:tabSpace="42.5197"/>
				<v:textRect cx="21.2598" cy="409.089" width="42.52" height="42.5197"/>
				<rect x="0" y="387.829" width="42.5197" height="42.5197" class="st1"/>
				<text x="5.26" y="413.89" class="st2" v:langID="1028"><v:paragraph v:horizAlign="1"/><v:tabList/>十願</text>			</g>
			<g id="shape50-95" v:mID="50" v:groupContext="shape" transform="translate(508.301,190.821) rotate(90)">
				<title>工作表.50</title>
				<desc>十定</desc>
				<v:textBlock v:margins="rect(4,4,4,4)" v:tabSpace="42.5197"/>
				<v:textRect cx="21.2598" cy="409.089" width="42.52" height="42.5197"/>
				<rect x="0" y="387.829" width="42.5197" height="42.5197" class="st1"/>
				<text x="5.26" y="413.89" class="st2" v:langID="1028"><v:paragraph v:horizAlign="1"/><v:tabList/>十定</text>			</g>
			<g id="shape48-98" v:mID="48" v:groupContext="shape" transform="translate(458.695,-122.407) rotate(90)">
				<title>工作表.48</title>
				<desc>10</desc>
				<v:textBlock v:margins="rect(4,4,4,4)" v:tabSpace="42.5197"/>
				<v:textRect cx="14.1732" cy="416.175" width="28.35" height="28.3465"/>
				<rect x="0" y="402.002" width="28.3465" height="28.3465" class="st1"/>
				<text x="6.66" y="420.98" class="st2" v:langID="1028"><v:paragraph v:horizAlign="1"/><v:tabList/>10</text>			</g>
			<g id="shape70-101" v:mID="70" v:groupContext="shape" transform="translate(489.876,-119.573) rotate(90)">
				<title>工作表.70</title>
				<desc>9.</desc>
				<v:textBlock v:margins="rect(4,4,4,4)" v:tabSpace="42.5197"/>
				<v:textRect cx="11.3386" cy="419.01" width="22.68" height="22.6772"/>
				<rect x="0" y="407.671" width="22.6772" height="22.6772" class="st1"/>
				<text x="5.7" y="423.81" class="st2" v:langID="1028"><v:paragraph v:horizAlign="1"/><v:tabList/>9.</text>			</g>
			<g id="shape71-104" v:mID="71" v:groupContext="shape" transform="translate(716.648,-119.573) rotate(90)">
				<title>工作表.71</title>
				<desc>1.</desc>
				<v:textBlock v:margins="rect(4,4,4,4)" v:tabSpace="42.5197"/>
				<v:textRect cx="11.3386" cy="419.01" width="22.68" height="22.6772"/>
				<rect x="0" y="407.671" width="22.6772" height="22.6772" class="st1"/>
				<text x="5.7" y="423.81" class="st2" v:langID="1028"><v:paragraph v:horizAlign="1"/><v:tabList/>1.</text>			</g>
			<g id="shape72-107" v:mID="72" v:groupContext="shape" transform="translate(546.569,-119.573) rotate(90)">
				<title>工作表.72</title>
				<desc>7.</desc>
				<v:textBlock v:margins="rect(4,4,4,4)" v:tabSpace="42.5197"/>
				<v:textRect cx="11.3386" cy="419.01" width="22.68" height="22.6772"/>
				<rect x="0" y="407.671" width="22.6772" height="22.6772" class="st1"/>
				<text x="5.7" y="423.81" class="st2" v:langID="1028"><v:paragraph v:horizAlign="1"/><v:tabList/>7.</text>			</g>
			<g id="shape73-110" v:mID="73" v:groupContext="shape" transform="translate(518.222,-119.573) rotate(90)">
				<title>工作表.73</title>
				<desc>8.</desc>
				<v:textBlock v:margins="rect(4,4,4,4)" v:tabSpace="42.5197"/>
				<v:textRect cx="11.3386" cy="419.01" width="22.68" height="22.6772"/>
				<rect x="0" y="407.671" width="22.6772" height="22.6772" class="st1"/>
				<text x="5.7" y="423.81" class="st2" v:langID="1028"><v:paragraph v:horizAlign="1"/><v:tabList/>8.</text>			</g>
			<g id="shape74-113" v:mID="74" v:groupContext="shape" transform="translate(688.301,-119.573) rotate(90)">
				<title>工作表.74</title>
				<desc>2.</desc>
				<v:textBlock v:margins="rect(4,4,4,4)" v:tabSpace="42.5197"/>
				<v:textRect cx="11.3386" cy="419.01" width="22.68" height="22.6772"/>
				<rect x="0" y="407.671" width="22.6772" height="22.6772" class="st1"/>
				<text x="5.7" y="423.81" class="st2" v:langID="1028"><v:paragraph v:horizAlign="1"/><v:tabList/>2.</text>			</g>
			<g id="shape75-116" v:mID="75" v:groupContext="shape" transform="translate(659.955,-119.573) rotate(90)">
				<title>工作表.75</title>
				<desc>3.</desc>
				<v:textBlock v:margins="rect(4,4,4,4)" v:tabSpace="42.5197"/>
				<v:textRect cx="11.3386" cy="419.01" width="22.68" height="22.6772"/>
				<rect x="0" y="407.671" width="22.6772" height="22.6772" class="st1"/>
				<text x="5.7" y="423.81" class="st2" v:langID="1028"><v:paragraph v:horizAlign="1"/><v:tabList/>3.</text>			</g>
			<g id="shape76-119" v:mID="76" v:groupContext="shape" transform="translate(631.608,-119.573) rotate(90)">
				<title>工作表.76</title>
				<desc>4.</desc>
				<v:textBlock v:margins="rect(4,4,4,4)" v:tabSpace="42.5197"/>
				<v:textRect cx="11.3386" cy="419.01" width="22.68" height="22.6772"/>
				<rect x="0" y="407.671" width="22.6772" height="22.6772" class="st1"/>
				<text x="5.7" y="423.81" class="st2" v:langID="1028"><v:paragraph v:horizAlign="1"/><v:tabList/>4.</text>			</g>
			<g id="shape77-122" v:mID="77" v:groupContext="shape" transform="translate(603.262,-119.573) rotate(90)">
				<title>工作表.77</title>
				<desc>5.</desc>
				<v:textBlock v:margins="rect(4,4,4,4)" v:tabSpace="42.5197"/>
				<v:textRect cx="11.3386" cy="419.01" width="22.68" height="22.6772"/>
				<rect x="0" y="407.671" width="22.6772" height="22.6772" class="st1"/>
				<text x="5.7" y="423.81" class="st2" v:langID="1028"><v:paragraph v:horizAlign="1"/><v:tabList/>5.</text>			</g>
			<g id="shape78-125" v:mID="78" v:groupContext="shape" transform="translate(574.915,-119.573) rotate(90)">
				<title>工作表.78</title>
				<desc>6.</desc>
				<v:textBlock v:margins="rect(4,4,4,4)" v:tabSpace="42.5197"/>
				<v:textRect cx="11.3386" cy="419.01" width="22.68" height="22.6772"/>
				<rect x="0" y="407.671" width="22.6772" height="22.6772" class="st1"/>
				<text x="5.7" y="423.81" class="st2" v:langID="1028"><v:paragraph v:horizAlign="1"/><v:tabList/>6.</text>			</g>
			<g id="shape1-128" v:mID="1" v:groupContext="shape" transform="translate(716.648,22.1594) rotate(90)">
				<title>工作表.1</title>
				<desc>2.</desc>
				<v:textBlock v:margins="rect(4,4,4,4)" v:tabSpace="42.5197"/>
				<v:textRect cx="11.3386" cy="419.01" width="22.68" height="22.6772"/>
				<rect x="0" y="407.671" width="22.6772" height="22.6772" class="st1"/>
				<text x="5.7" y="423.81" class="st2" v:langID="1028"><v:paragraph v:horizAlign="1"/><v:tabList/>2.</text>			</g>
			<g id="shape2-131" v:mID="2" v:groupContext="shape" transform="translate(688.301,22.1594) rotate(90)">
				<title>工作表.2</title>
				<desc>3.</desc>
				<v:textBlock v:margins="rect(4,4,4,4)" v:tabSpace="42.5197"/>
				<v:textRect cx="11.3386" cy="419.01" width="22.68" height="22.6772"/>
				<rect x="0" y="407.671" width="22.6772" height="22.6772" class="st1"/>
				<text x="5.7" y="423.81" class="st2" v:langID="1028"><v:paragraph v:horizAlign="1"/><v:tabList/>3.</text>			</g>
			<g id="shape3-134" v:mID="3" v:groupContext="shape" transform="translate(659.955,22.1594) rotate(90)">
				<title>工作表.3</title>
				<desc>4.</desc>
				<v:textBlock v:margins="rect(4,4,4,4)" v:tabSpace="42.5197"/>
				<v:textRect cx="11.3386" cy="419.01" width="22.68" height="22.6772"/>
				<rect x="0" y="407.671" width="22.6772" height="22.6772" class="st1"/>
				<text x="5.7" y="423.81" class="st2" v:langID="1028"><v:paragraph v:horizAlign="1"/><v:tabList/>4.</text>			</g>
			<g id="shape4-137" v:mID="4" v:groupContext="shape" transform="translate(458.695,19.3248) rotate(90)">
				<title>工作表.4</title>
				<desc>10</desc>
				<v:textBlock v:margins="rect(4,4,4,4)" v:tabSpace="42.5197"/>
				<v:textRect cx="14.1732" cy="416.175" width="28.35" height="28.3465"/>
				<rect x="0" y="402.002" width="28.3465" height="28.3465" class="st1"/>
				<text x="6.66" y="420.98" class="st2" v:langID="1028"><v:paragraph v:horizAlign="1"/><v:tabList/>10</text>			</g>
			<g id="shape5-140" v:mID="5" v:groupContext="shape" transform="translate(489.876,22.1594) rotate(90)">
				<title>工作表.5</title>
				<desc>9.</desc>
				<v:textBlock v:margins="rect(4,4,4,4)" v:tabSpace="42.5197"/>
				<v:textRect cx="11.3386" cy="419.01" width="22.68" height="22.6772"/>
				<rect x="0" y="407.671" width="22.6772" height="22.6772" class="st1"/>
				<text x="5.7" y="423.81" class="st2" v:langID="1028"><v:paragraph v:horizAlign="1"/><v:tabList/>9.</text>			</g>
			<g id="shape6-143" v:mID="6" v:groupContext="shape" transform="translate(546.569,22.1594) rotate(90)">
				<title>工作表.6</title>
				<desc>7.</desc>
				<v:textBlock v:margins="rect(4,4,4,4)" v:tabSpace="42.5197"/>
				<v:textRect cx="11.3386" cy="419.01" width="22.68" height="22.6772"/>
				<rect x="0" y="407.671" width="22.6772" height="22.6772" class="st1"/>
				<text x="5.7" y="423.81" class="st2" v:langID="1028"><v:paragraph v:horizAlign="1"/><v:tabList/>7.</text>			</g>
			<g id="shape7-146" v:mID="7" v:groupContext="shape" transform="translate(518.222,22.1594) rotate(90)">
				<title>工作表.7</title>
				<desc>8.</desc>
				<v:textBlock v:margins="rect(4,4,4,4)" v:tabSpace="42.5197"/>
				<v:textRect cx="11.3386" cy="419.01" width="22.68" height="22.6772"/>
				<rect x="0" y="407.671" width="22.6772" height="22.6772" class="st1"/>
				<text x="5.7" y="423.81" class="st2" v:langID="1028"><v:paragraph v:horizAlign="1"/><v:tabList/>8.</text>			</g>
			<g id="shape8-149" v:mID="8" v:groupContext="shape" transform="translate(603.262,22.1594) rotate(90)">
				<title>工作表.8</title>
				<desc>5.</desc>
				<v:textBlock v:margins="rect(4,4,4,4)" v:tabSpace="42.5197"/>
				<v:textRect cx="11.3386" cy="419.01" width="22.68" height="22.6772"/>
				<rect x="0" y="407.671" width="22.6772" height="22.6772" class="st1"/>
				<text x="5.7" y="423.81" class="st2" v:langID="1028"><v:paragraph v:horizAlign="1"/><v:tabList/>5.</text>			</g>
			<g id="shape9-152" v:mID="9" v:groupContext="shape" transform="translate(574.915,22.1594) rotate(90)">
				<title>工作表.9</title>
				<desc>6.</desc>
				<v:textBlock v:margins="rect(4,4,4,4)" v:tabSpace="42.5197"/>
				<v:textRect cx="11.3386" cy="419.01" width="22.68" height="22.6772"/>
				<rect x="0" y="407.671" width="22.6772" height="22.6772" class="st1"/>
				<text x="5.7" y="423.81" class="st2" v:langID="1028"><v:paragraph v:horizAlign="1"/><v:tabList/>6.</text>			</g>
			<g id="shape10-155" v:mID="10" v:groupContext="shape" transform="translate(631.608,22.1594) rotate(90)">
				<title>工作表.10</title>
				<desc>1.</desc>
				<v:textBlock v:margins="rect(4,4,4,4)" v:tabSpace="42.5197"/>
				<v:textRect cx="11.3386" cy="419.01" width="22.68" height="22.6772"/>
				<rect x="0" y="407.671" width="22.6772" height="22.6772" class="st1"/>
				<text x="5.7" y="423.81" class="st2" v:langID="1028"><v:paragraph v:horizAlign="1"/><v:tabList/>1.</text>			</g>
			<g id="shape11-158" v:mID="11" v:groupContext="shape" transform="translate(716.648,178.065) rotate(90)">
				<title>工作表.11</title>
				<desc>1.</desc>
				<v:textBlock v:margins="rect(4,4,4,4)" v:tabSpace="42.5197"/>
				<v:textRect cx="11.3386" cy="419.01" width="22.68" height="22.6772"/>
				<rect x="0" y="407.671" width="22.6772" height="22.6772" class="st1"/>
				<text x="5.7" y="423.81" class="st2" v:langID="1028"><v:paragraph v:horizAlign="1"/><v:tabList/>1.</text>			</g>
			<g id="shape12-161" v:mID="12" v:groupContext="shape" transform="translate(688.301,178.065) rotate(90)">
				<title>工作表.12</title>
				<desc>2.</desc>
				<v:textBlock v:margins="rect(4,4,4,4)" v:tabSpace="42.5197"/>
				<v:textRect cx="11.3386" cy="419.01" width="22.68" height="22.6772"/>
				<rect x="0" y="407.671" width="22.6772" height="22.6772" class="st1"/>
				<text x="5.7" y="423.81" class="st2" v:langID="1028"><v:paragraph v:horizAlign="1"/><v:tabList/>2.</text>			</g>
			<g id="shape13-164" v:mID="13" v:groupContext="shape" transform="translate(659.955,178.065) rotate(90)">
				<title>工作表.13</title>
				<desc>3.</desc>
				<v:textBlock v:margins="rect(4,4,4,4)" v:tabSpace="42.5197"/>
				<v:textRect cx="11.3386" cy="419.01" width="22.68" height="22.6772"/>
				<rect x="0" y="407.671" width="22.6772" height="22.6772" class="st1"/>
				<text x="5.7" y="423.81" class="st2" v:langID="1028"><v:paragraph v:horizAlign="1"/><v:tabList/>3.</text>			</g>
			<g id="shape14-167" v:mID="14" v:groupContext="shape" transform="translate(631.608,178.065) rotate(90)">
				<title>工作表.14</title>
				<desc>5.</desc>
				<v:textBlock v:margins="rect(4,4,4,4)" v:tabSpace="42.5197"/>
				<v:textRect cx="11.3386" cy="419.01" width="22.68" height="22.6772"/>
				<rect x="0" y="407.671" width="22.6772" height="22.6772" class="st1"/>
				<text x="5.7" y="423.81" class="st2" v:langID="1028"><v:paragraph v:horizAlign="1"/><v:tabList/>5.</text>			</g>
			<g id="shape15-170" v:mID="15" v:groupContext="shape" transform="translate(603.262,178.065) rotate(90)">
				<title>工作表.15</title>
				<desc>4.</desc>
				<v:textBlock v:margins="rect(4,4,4,4)" v:tabSpace="42.5197"/>
				<v:textRect cx="11.3386" cy="419.01" width="22.68" height="22.6772"/>
				<rect x="0" y="407.671" width="22.6772" height="22.6772" class="st1"/>
				<text x="5.7" y="423.81" class="st2" v:langID="1028"><v:paragraph v:horizAlign="1"/><v:tabList/>4.</text>			</g>
			<g id="shape16-173" v:mID="16" v:groupContext="shape" transform="translate(574.915,178.065) rotate(90)">
				<title>工作表.16</title>
				<desc>6.</desc>
				<v:textBlock v:margins="rect(4,4,4,4)" v:tabSpace="42.5197"/>
				<v:textRect cx="11.3386" cy="419.01" width="22.68" height="22.6772"/>
				<rect x="0" y="407.671" width="22.6772" height="22.6772" class="st1"/>
				<text x="5.7" y="423.81" class="st2" v:langID="1028"><v:paragraph v:horizAlign="1"/><v:tabList/>6.</text>			</g>
			<g id="shape17-176" v:mID="17" v:groupContext="shape" transform="translate(461.53,178.065) rotate(90)">
				<title>工作表.17</title>
				<desc>9.</desc>
				<v:textBlock v:margins="rect(4,4,4,4)" v:tabSpace="42.5197"/>
				<v:textRect cx="11.3386" cy="419.01" width="22.68" height="22.6772"/>
				<rect x="0" y="407.671" width="22.6772" height="22.6772" class="st1"/>
				<text x="5.7" y="423.81" class="st2" v:langID="1028"><v:paragraph v:horizAlign="1"/><v:tabList/>9.</text>			</g>
			<g id="shape47-179" v:mID="47" v:groupContext="shape" transform="translate(518.222,178.065) rotate(90)">
				<title>工作表.47</title>
				<desc>7.</desc>
				<v:textBlock v:margins="rect(4,4,4,4)" v:tabSpace="42.5197"/>
				<v:textRect cx="11.3386" cy="419.01" width="22.68" height="22.6772"/>
				<rect x="0" y="407.671" width="22.6772" height="22.6772" class="st1"/>
				<text x="5.7" y="423.81" class="st2" v:langID="1028"><v:paragraph v:horizAlign="1"/><v:tabList/>7.</text>			</g>
			<g id="shape79-182" v:mID="79" v:groupContext="shape" transform="translate(489.876,178.065) rotate(90)">
				<title>工作表.79</title>
				<desc>8.</desc>
				<v:textBlock v:margins="rect(4,4,4,4)" v:tabSpace="42.5197"/>
				<v:textRect cx="11.3386" cy="419.01" width="22.68" height="22.6772"/>
				<rect x="0" y="407.671" width="22.6772" height="22.6772" class="st1"/>
				<text x="5.7" y="423.81" class="st2" v:langID="1028"><v:paragraph v:horizAlign="1"/><v:tabList/>8.</text>			</g>
			<g id="shape55-185" v:mID="55" v:groupContext="shape" transform="translate(0,-581.102)">
				<title>工作表.55</title>
				<path d="M0 430.35 L368.5 430.35" class="st3"/>
			</g>
			<g id="shape58-188" v:mID="58" v:groupContext="shape" transform="translate(28.3465,-141.732)">
				<title>工作表.58</title>
				<path d="M0 430.35 L311.81 430.35" class="st4"/>
			</g>
			<g id="shape65-191" v:mID="65" v:groupContext="shape" transform="translate(742.159,-122.407) rotate(90)">
				<title>工作表.65</title>
				<path d="M0 430.35 L524.41 430.35" class="st4"/>
			</g>
			<g id="shape66-194" v:mID="66" v:groupContext="shape">
				<title>工作表.66</title>
				<path d="M0 430.35 L368.5 430.35" class="st3"/>
			</g>
			<g id="shape67-197" v:mID="67" v:groupContext="shape" transform="translate(798.852,-150.754) rotate(90)">
				<title>工作表.67</title>
				<path d="M0 430.35 L581.1 430.35" class="st3"/>
			</g>
			<g id="shape68-200" v:mID="68" v:groupContext="shape" transform="translate(430.348,-150.754) rotate(90)">
				<title>工作表.68</title>
				<path d="M0 430.35 L581.1 430.35" class="st3"/>
			</g>
			<g id="shape69-203" v:mID="69" v:groupContext="shape" transform="translate(28.3465,-425.197)">
				<title>工作表.69</title>
				<path d="M0 430.35 L311.81 430.35" class="st4"/>
			</g>
			<g id="shape89-206" v:mID="89" v:groupContext="shape" transform="translate(28.3465,-269.291)">
				<title>工作表.89</title>
				<path d="M0 430.35 L311.81 430.35" class="st4"/>
			</g>
			<g id="shape21-209" v:mID="21" v:groupContext="shape" transform="translate(710.978,302.789) rotate(90)">
				<title>工作表.21</title>
				<desc>『唐譯本』</desc>
				<v:textBlock v:margins="rect(4,4,4,4)" v:tabSpace="42.5197"/>
				<v:textRect cx="45.3543" cy="384.994" width="90.71" height="90.7087"/>
				<rect x="0" y="339.64" width="90.7087" height="90.7087" class="st1"/>
				<text x="5.35" y="389.79" class="st2" v:langID="1028"><v:paragraph v:horizAlign="1"/><v:tabList/>『唐譯本』</text>			</g>
			<g id="shape43-212" v:mID="43" v:groupContext="shape" transform="translate(479.955,318.38) rotate(90)">
				<title>工作表.43</title>
				<desc>十通</desc>
				<v:textBlock v:margins="rect(4,4,4,4)" v:tabSpace="42.5197"/>
				<v:textRect cx="21.2598" cy="409.089" width="42.52" height="42.5197"/>
				<rect x="0" y="387.829" width="42.5197" height="42.5197" class="st1"/>
				<text x="5.26" y="413.89" class="st2" v:langID="1028"><v:paragraph v:horizAlign="1"/><v:tabList/>十通</text>			</g>
			<g id="shape56-215" v:mID="56" v:groupContext="shape" transform="translate(706.726,318.38) rotate(90)">
				<title>工作表.56</title>
				<desc>十住</desc>
				<v:textBlock v:margins="rect(4,4,4,4)" v:tabSpace="42.5197"/>
				<v:textRect cx="21.2598" cy="409.089" width="42.52" height="42.5197"/>
				<rect x="0" y="387.829" width="42.5197" height="42.5197" class="st1"/>
				<text x="5.26" y="413.89" class="st2" v:langID="1028"><v:paragraph v:horizAlign="1"/><v:tabList/>十住</text>			</g>
			<g id="shape57-218" v:mID="57" v:groupContext="shape" transform="translate(642.947,319.23) rotate(90)">
				<title>工作表.57</title>
				<desc>十迴向</desc>
				<v:textBlock v:margins="rect(4,4,4,4)" v:tabSpace="42.5197"/>
				<v:textRect cx="28.3465" cy="402.002" width="56.7" height="56.6929"/>
				<rect x="0" y="373.656" width="56.6929" height="56.6929" class="st1"/>
				<text x="4.35" y="406.8" class="st2" v:langID="1028"><v:paragraph v:horizAlign="1"/><v:tabList/>十迴向</text>			</g>
			<g id="shape59-221" v:mID="59" v:groupContext="shape" transform="translate(451.608,318.38) rotate(90)">
				<title>工作表.59</title>
				<desc>十頂</desc>
				<v:textBlock v:margins="rect(4,4,4,4)" v:tabSpace="42.5197"/>
				<v:textRect cx="21.2598" cy="409.089" width="42.52" height="42.5197"/>
				<rect x="0" y="387.829" width="42.5197" height="42.5197" class="st1"/>
				<text x="5.26" y="413.89" class="st2" v:langID="1028"><v:paragraph v:horizAlign="1"/><v:tabList/>十頂</text>			</g>
			<g id="shape60-224" v:mID="60" v:groupContext="shape" transform="translate(679.797,318.38) rotate(90)">
				<title>工作表.60</title>
				<desc>十行</desc>
				<v:textBlock v:margins="rect(4,4,4,4)" v:tabSpace="42.5197"/>
				<v:textRect cx="21.2598" cy="409.089" width="42.52" height="42.5197"/>
				<rect x="0" y="387.829" width="42.5197" height="42.5197" class="st1"/>
				<text x="5.26" y="413.89" class="st2" v:langID="1028"><v:paragraph v:horizAlign="1"/><v:tabList/>十行</text>			</g>
			<g id="shape61-227" v:mID="61" v:groupContext="shape" transform="translate(621.687,318.38) rotate(90)">
				<title>工作表.61</title>
				<desc>十地</desc>
				<v:textBlock v:margins="rect(4,4,4,4)" v:tabSpace="42.5197"/>
				<v:textRect cx="21.2598" cy="409.089" width="42.52" height="42.5197"/>
				<rect x="0" y="387.829" width="42.5197" height="42.5197" class="st1"/>
				<text x="5.26" y="413.89" class="st2" v:langID="1028"><v:paragraph v:horizAlign="1"/><v:tabList/>十地</text>			</g>
			<g id="shape62-230" v:mID="62" v:groupContext="shape" transform="translate(593.341,318.38) rotate(90)">
				<title>工作表.62</title>
				<desc>十藏</desc>
				<v:textBlock v:margins="rect(4,4,4,4)" v:tabSpace="42.5197"/>
				<v:textRect cx="21.2598" cy="409.089" width="42.52" height="42.5197"/>
				<rect x="0" y="387.829" width="42.5197" height="42.5197" class="st1"/>
				<text x="5.26" y="413.89" class="st2" v:langID="1028"><v:paragraph v:horizAlign="1"/><v:tabList/>十藏</text>			</g>
			<g id="shape63-233" v:mID="63" v:groupContext="shape" transform="translate(564.994,318.38) rotate(90)">
				<title>工作表.63</title>
				<desc>十願</desc>
				<v:textBlock v:margins="rect(4,4,4,4)" v:tabSpace="42.5197"/>
				<v:textRect cx="21.2598" cy="409.089" width="42.52" height="42.5197"/>
				<rect x="0" y="387.829" width="42.5197" height="42.5197" class="st1"/>
				<text x="5.26" y="413.89" class="st2" v:langID="1028"><v:paragraph v:horizAlign="1"/><v:tabList/>十願</text>			</g>
			<g id="shape64-236" v:mID="64" v:groupContext="shape" transform="translate(508.301,318.38) rotate(90)">
				<title>工作表.64</title>
				<desc>十定</desc>
				<v:textBlock v:margins="rect(4,4,4,4)" v:tabSpace="42.5197"/>
				<v:textRect cx="21.2598" cy="409.089" width="42.52" height="42.5197"/>
				<rect x="0" y="387.829" width="42.5197" height="42.5197" class="st1"/>
				<text x="5.26" y="413.89" class="st2" v:langID="1028"><v:paragraph v:horizAlign="1"/><v:tabList/>十定</text>			</g>
			<g id="shape80-239" v:mID="80" v:groupContext="shape" transform="translate(716.648,305.624) rotate(90)">
				<title>工作表.80</title>
				<desc>1.</desc>
				<v:textBlock v:margins="rect(4,4,4,4)" v:tabSpace="42.5197"/>
				<v:textRect cx="11.3386" cy="419.01" width="22.68" height="22.6772"/>
				<rect x="0" y="407.671" width="22.6772" height="22.6772" class="st1"/>
				<text x="5.7" y="423.81" class="st2" v:langID="1028"><v:paragraph v:horizAlign="1"/><v:tabList/>1.</text>			</g>
			<g id="shape81-242" v:mID="81" v:groupContext="shape" transform="translate(688.301,305.624) rotate(90)">
				<title>工作表.81</title>
				<desc>2.</desc>
				<v:textBlock v:margins="rect(4,4,4,4)" v:tabSpace="42.5197"/>
				<v:textRect cx="11.3386" cy="419.01" width="22.68" height="22.6772"/>
				<rect x="0" y="407.671" width="22.6772" height="22.6772" class="st1"/>
				<text x="5.7" y="423.81" class="st2" v:langID="1028"><v:paragraph v:horizAlign="1"/><v:tabList/>2.</text>			</g>
			<g id="shape82-245" v:mID="82" v:groupContext="shape" transform="translate(659.955,305.624) rotate(90)">
				<title>工作表.82</title>
				<desc>3.</desc>
				<v:textBlock v:margins="rect(4,4,4,4)" v:tabSpace="42.5197"/>
				<v:textRect cx="11.3386" cy="419.01" width="22.68" height="22.6772"/>
				<rect x="0" y="407.671" width="22.6772" height="22.6772" class="st1"/>
				<text x="5.7" y="423.81" class="st2" v:langID="1028"><v:paragraph v:horizAlign="1"/><v:tabList/>3.</text>			</g>
			<g id="shape83-248" v:mID="83" v:groupContext="shape" transform="translate(631.608,305.624) rotate(90)">
				<title>工作表.83</title>
				<desc>5.</desc>
				<v:textBlock v:margins="rect(4,4,4,4)" v:tabSpace="42.5197"/>
				<v:textRect cx="11.3386" cy="419.01" width="22.68" height="22.6772"/>
				<rect x="0" y="407.671" width="22.6772" height="22.6772" class="st1"/>
				<text x="5.7" y="423.81" class="st2" v:langID="1028"><v:paragraph v:horizAlign="1"/><v:tabList/>5.</text>			</g>
			<g id="shape84-251" v:mID="84" v:groupContext="shape" transform="translate(603.262,305.624) rotate(90)">
				<title>工作表.84</title>
				<desc>4.</desc>
				<v:textBlock v:margins="rect(4,4,4,4)" v:tabSpace="42.5197"/>
				<v:textRect cx="11.3386" cy="419.01" width="22.68" height="22.6772"/>
				<rect x="0" y="407.671" width="22.6772" height="22.6772" class="st1"/>
				<text x="5.7" y="423.81" class="st2" v:langID="1028"><v:paragraph v:horizAlign="1"/><v:tabList/>4.</text>			</g>
			<g id="shape85-254" v:mID="85" v:groupContext="shape" transform="translate(574.915,305.624) rotate(90)">
				<title>工作表.85</title>
				<desc>6.</desc>
				<v:textBlock v:margins="rect(4,4,4,4)" v:tabSpace="42.5197"/>
				<v:textRect cx="11.3386" cy="419.01" width="22.68" height="22.6772"/>
				<rect x="0" y="407.671" width="22.6772" height="22.6772" class="st1"/>
				<text x="5.7" y="423.81" class="st2" v:langID="1028"><v:paragraph v:horizAlign="1"/><v:tabList/>6.</text>			</g>
			<g id="shape86-257" v:mID="86" v:groupContext="shape" transform="translate(461.53,305.624) rotate(90)">
				<title>工作表.86</title>
				<desc>9.</desc>
				<v:textBlock v:margins="rect(4,4,4,4)" v:tabSpace="42.5197"/>
				<v:textRect cx="11.3386" cy="419.01" width="22.68" height="22.6772"/>
				<rect x="0" y="407.671" width="22.6772" height="22.6772" class="st1"/>
				<text x="5.7" y="423.81" class="st2" v:langID="1028"><v:paragraph v:horizAlign="1"/><v:tabList/>9.</text>			</g>
			<g id="shape87-260" v:mID="87" v:groupContext="shape" transform="translate(518.222,305.624) rotate(90)">
				<title>工作表.87</title>
				<desc>7.</desc>
				<v:textBlock v:margins="rect(4,4,4,4)" v:tabSpace="42.5197"/>
				<v:textRect cx="11.3386" cy="419.01" width="22.68" height="22.6772"/>
				<rect x="0" y="407.671" width="22.6772" height="22.6772" class="st1"/>
				<text x="5.7" y="423.81" class="st2" v:langID="1028"><v:paragraph v:horizAlign="1"/><v:tabList/>7.</text>			</g>
			<g id="shape88-263" v:mID="88" v:groupContext="shape" transform="translate(489.876,305.624) rotate(90)">
				<title>工作表.88</title>
				<desc>8.</desc>
				<v:textBlock v:margins="rect(4,4,4,4)" v:tabSpace="42.5197"/>
				<v:textRect cx="11.3386" cy="419.01" width="22.68" height="22.6772"/>
				<rect x="0" y="407.671" width="22.6772" height="22.6772" class="st1"/>
				<text x="5.7" y="423.81" class="st2" v:langID="1028"><v:paragraph v:horizAlign="1"/><v:tabList/>8.</text>			</g>
		</g>
	</g>
</svg>
