<?xml version="1.0" encoding="UTF-8" standalone="no"?>
<!DOCTYPE svg PUBLIC "-//W3C//DTD SVG 1.1//EN" "http://www.w3.org/Graphics/SVG/1.1/DTD/svg11.dtd">
<!-- 由 Microsoft Visio, SVG Export 產生 y37.0761-h.svg 頁-1 -->
<svg xmlns="http://www.w3.org/2000/svg" xmlns:xlink="http://www.w3.org/1999/xlink" xmlns:ev="http://www.w3.org/2001/xml-events"
		width="9.65956in" height="1.58869in" viewBox="0 0 695.488 114.386" xml:space="preserve" color-interpolation-filters="sRGB"
		class="st4">
	<style type="text/css">
	<![CDATA[
		.st1 {stroke:#000000;stroke-linecap:round;stroke-linejoin:round;stroke-width:1}
		.st2 {fill:none;stroke:none;stroke-linecap:round;stroke-linejoin:round;stroke-width:0.75}
		.st3 {fill:#000000;font-family:新細明體;font-size:1.33333em}
		.st4 {fill:none;fill-rule:evenodd;font-size:12px;overflow:visible;stroke-linecap:square;stroke-miterlimit:3}
	]]>
	</style>

	<g>
		<title>頁-1</title>
		<g id="group33-1" transform="translate(0.5,-0.5)">
			<title>工作表.33</title>
			<g id="shape21-2" transform="translate(3.19744E-13,-85.0394)">
				<title>工作表.21</title>
				<path d="M0 114.39 L694.49 114.39" class="st1"/>
			</g>
			<g id="shape24-5" transform="translate(424.197,114.386) rotate(-90)">
				<title>工作表.24</title>
				<path d="M0 114.39 L113.39 114.39" class="st1"/>
			</g>
			<g id="shape25-8" transform="translate(268.291,114.386) rotate(-90)">
				<title>工作表.25</title>
				<path d="M0 114.39 L113.39 114.39" class="st1"/>
			</g>
			<g id="shape26-11" transform="translate(154.906,114.386) rotate(-90)">
				<title>工作表.26</title>
				<path d="M0 114.39 L113.39 114.39" class="st1"/>
			</g>
			<g id="shape1-14" transform="translate(184.252,-59.5276)">
				<title>工作表.1</title>
				<desc>白延譯</desc>
				<rect x="0" y="91.7087" width="56.6929" height="22.6772" class="st2"/>
				<text x="4.35" y="107.85" class="st3">白延譯</text>			</g>
			<g id="shape3-17" transform="translate(184.252,-31.1811)">
				<title>工作表.3</title>
				<desc>支謙譯</desc>
				<rect x="0" y="91.7087" width="56.6929" height="22.6772" class="st2"/>
				<text x="4.35" y="107.85" class="st3">支謙譯</text>			</g>
			<g id="shape5-20" transform="translate(184.252,-2.83465)">
				<title>工作表.5</title>
				<desc>竺法護譯</desc>
				<rect x="0" y="91.7087" width="73.7008" height="22.6772" class="st2"/>
				<text x="4.85" y="107.85" class="st3">竺法護譯</text>			</g>
			<g id="shape2-23" transform="translate(282.047,-87.874)">
				<title>工作表.2</title>
				<desc>『靜泰錄』</desc>
				<rect x="0" y="91.7087" width="90.7087" height="22.6772" class="st2"/>
				<text x="5.35" y="107.85" class="st3">『靜泰錄』</text>			</g>
			<g id="shape8-26" transform="translate(408.189,-87.874)">
				<title>工作表.8</title>
				<desc>『大周錄』卷三</desc>
				<rect x="0" y="91.7087" width="127.559" height="22.6772" class="st2"/>
				<text x="7.78" y="107.85" class="st3">『大周錄』卷三</text>			</g>
			<g id="shape9-29" transform="translate(554.173,-87.874)">
				<title>工作表.9</title>
				<desc>『大周錄』卷十三</desc>
				<rect x="0" y="91.7087" width="136.063" height="22.6772" class="st2"/>
				<text x="4.03" y="107.85" class="st3">『大周錄』卷十三</text>			</g>
			<g id="shape10-32" transform="translate(412.157,-59.5276)">
				<title>工作表.10</title>
				<desc>七十紙</desc>
				<rect x="0" y="91.7087" width="56.6929" height="22.6772" class="st2"/>
				<text x="4.35" y="107.85" class="st3">七十紙</text>			</g>
			<g id="shape11-35" transform="translate(283.465,-59.5276)">
				<title>工作表.11</title>
				<desc>六十紙</desc>
				<rect x="0" y="91.7087" width="56.6929" height="22.6772" class="st2"/>
				<text x="4.35" y="107.85" class="st3">六十紙</text>			</g>
			<g id="shape12-38" transform="translate(552.756,-2.83465)">
				<title>工作表.12</title>
				<desc>三十六紙</desc>
				<rect x="0" y="91.7087" width="73.7008" height="22.6772" class="st2"/>
				<text x="4.85" y="107.85" class="st3">三十六紙</text>			</g>
			<g id="shape13-41" transform="translate(283.465,-31.1811)">
				<title>工作表.13</title>
				<desc>五十三紙</desc>
				<rect x="0" y="91.7087" width="73.7008" height="22.6772" class="st2"/>
				<text x="4.85" y="107.85" class="st3">五十三紙</text>			</g>
			<g id="shape14-44" transform="translate(411.024,-31.1811)">
				<title>工作表.14</title>
				<desc>五十三紙</desc>
				<rect x="0" y="91.7087" width="73.7008" height="22.6772" class="st2"/>
				<text x="4.85" y="107.85" class="st3">五十三紙</text>			</g>
			<g id="shape15-47" transform="translate(283.465,-2.83465)">
				<title>工作表.15</title>
				<desc>三十九紙</desc>
				<rect x="0" y="91.7087" width="73.7008" height="22.6772" class="st2"/>
				<text x="4.85" y="107.85" class="st3">三十九紙</text>			</g>
			<g id="shape20-50" transform="translate(411.024,-2.83465)">
				<title>工作表.20</title>
				<desc>四十六紙</desc>
				<rect x="0" y="91.7087" width="73.7008" height="22.6772" class="st2"/>
				<text x="4.85" y="107.85" class="st3">四十六紙</text>			</g>
			<g id="shape4-53" transform="translate(6.39488E-14,-59.5276)">
				<title>工作表.4</title>
				<desc>『無量清淨平等覺經』</desc>
				<rect x="0" y="91.7087" width="170.079" height="22.6772" class="st2"/>
				<text x="5.04" y="107.85" class="st3">『無量清淨平等覺經』</text>			</g>
			<g id="shape7-56" transform="translate(4.71623E-13,-2.83465)">
				<title>工作表.7</title>
				<desc>『無量壽經』</desc>
				<rect x="0" y="91.7087" width="104.882" height="22.6772" class="st2"/>
				<text x="4.44" y="107.85" class="st3">『無量壽經』</text>			</g>
			<g id="shape6-59" transform="translate(3.51719E-13,-31.1811)">
				<title>工作表.6</title>
				<desc>『阿彌陀經』</desc>
				<rect x="0" y="91.7087" width="104.882" height="22.6772" class="st2"/>
				<text x="4.44" y="107.85" class="st3">『阿彌陀經』</text>			</g>
			<g id="shape22-62" transform="translate(552.756,-31.1811)">
				<title>工作表.22</title>
				<desc>五十三紙</desc>
				<rect x="0" y="91.7087" width="73.7008" height="22.6772" class="st2"/>
				<text x="4.85" y="107.85" class="st3">五十三紙</text>			</g>
			<g id="shape23-65" transform="translate(552.756,-59.5276)">
				<title>工作表.23</title>
				<desc>三十六紙</desc>
				<rect x="0" y="91.7087" width="73.7008" height="22.6772" class="st2"/>
				<text x="4.85" y="107.85" class="st3">三十六紙</text>			</g>
		</g>
	</g>
</svg>
