<?xml version="1.0" encoding="UTF-8" standalone="no"?>
<!DOCTYPE svg PUBLIC "-//W3C//DTD SVG 1.0//EN" "http://www.w3.org/TR/2001/REC-SVG-20010904/DTD/svg10.dtd">
<!-- 由 Microsoft Visio 11.0, SVG Export, v1.0 產生 y37.0663.svg Page-1 -->
<svg xmlns="http://www.w3.org/2000/svg" xmlns:xlink="http://www.w3.org/1999/xlink" xmlns:ev="http://www.w3.org/2001/xml-events"
		xmlns:v="http://schemas.microsoft.com/visio/2003/SVGExtensions/" width="10.1734in" height="4.85501in"
		viewBox="0 0 732.488 349.561" xml:space="preserve" color-interpolation-filters="sRGB" class="st6">
	<v:documentProperties v:langID="1028" v:metric="true" v:viewMarkup="false">
		<v:userDefs>
			<v:ud v:nameU="msvSubprocessMaster" v:prompt="" v:val="VT4(Box)"/>
			<v:ud v:nameU="msvNoAutoConnect" v:val="VT0(1):26"/>
		</v:userDefs>
	</v:documentProperties>

	<style type="text/css">
	<![CDATA[
		.st1 {fill:none;stroke:none;stroke-linecap:round;stroke-linejoin:round;stroke-width:0.75}
		.st2 {fill:#000000;font-family:新細明體;font-size:1.33333em}
		.st3 {stroke:#000000;stroke-linecap:round;stroke-linejoin:round;stroke-opacity:0;stroke-width:1}
		.st4 {stroke:#000000;stroke-linecap:round;stroke-linejoin:round;stroke-width:1}
		.st5 {stroke:#000000;stroke-dasharray:0,4.5;stroke-linecap:round;stroke-linejoin:round;stroke-width:1.5}
		.st6 {fill:none;fill-rule:evenodd;font-size:12px;overflow:visible;stroke-linecap:square;stroke-miterlimit:3}
	]]>
	</style>

	<g v:mID="0" v:index="1" v:groupContext="foregroundPage">
		<title>頁-1</title>
		<v:pageProperties v:drawingScale="0.0393701" v:pageScale="0.0393701" v:drawingUnits="24" v:shadowOffsetX="8.50394"
				v:shadowOffsetY="-8.50394"/>
		<g id="group35-1" transform="translate(363.927,330.811) rotate(-90)" v:mID="35" v:groupContext="group">
			<title>工作表.35</title>
			<g id="shape1-2" v:mID="1" v:groupContext="shape" transform="translate(582.002,-316.581) rotate(90)">
				<title>工作表.1</title>
				<desc>直示般若</desc>
				<v:textBlock v:margins="rect(4,4,4,4)" v:tabSpace="42.5197"/>
				<v:textRect cx="36.8504" cy="312.711" width="73.71" height="73.7008"/>
				<rect x="0" y="275.86" width="73.7008" height="73.7008" class="st1"/>
				<text x="4.85" y="317.51" class="st2" v:langID="1028"><v:paragraph v:horizAlign="1"/><v:tabList/>直示般若</text>			</g>
			<g id="shape2-5" v:mID="2" v:groupContext="shape" transform="translate(582.002,46.2539) rotate(90)">
				<title>工作表.2</title>
				<desc>『初品』</desc>
				<v:textBlock v:margins="rect(4,4,4,4)" v:tabSpace="42.5197"/>
				<v:textRect cx="36.8504" cy="312.711" width="73.71" height="73.7008"/>
				<rect x="0" y="275.86" width="73.7008" height="73.7008" class="st1"/>
				<text x="4.85" y="317.51" class="st2" v:langID="1028"><v:paragraph v:horizAlign="1"/><v:tabList/>『初品』</text>			</g>
			<g id="shape3-8" v:mID="3" v:groupContext="shape" transform="translate(496.963,-316.581) rotate(90)">
				<title>工作表.3</title>
				<desc>漸學般若</desc>
				<v:textBlock v:margins="rect(4,4,4,4)" v:tabSpace="42.5197"/>
				<v:textRect cx="36.8504" cy="312.711" width="73.71" height="73.7008"/>
				<rect x="0" y="275.86" width="73.7008" height="73.7008" class="st1"/>
				<text x="4.85" y="317.51" class="st2" v:langID="1028"><v:paragraph v:horizAlign="1"/><v:tabList/>漸學般若</text>			</g>
			<g id="shape4-11" v:mID="4" v:groupContext="shape" transform="translate(545.152,-215.951) rotate(90)">
				<title>工作表.4</title>
				<desc>發心‧初學</desc>
				<v:textBlock v:margins="rect(4,4,4,4)" v:tabSpace="42.5197"/>
				<v:textRect cx="45.3543" cy="304.207" width="90.71" height="90.7087"/>
				<rect x="0" y="258.852" width="90.7087" height="90.7087" class="st1"/>
				<text x="5.35" y="309.01" class="st2" v:langID="1028"><v:paragraph v:horizAlign="1"/><v:tabList/>發心‧初學</text>			</g>
			<g id="shape5-14" v:mID="5" v:groupContext="shape" transform="translate(526.726,43.4193) rotate(90)">
				<title>工作表.5</title>
				<desc>『釋提桓因品』</desc>
				<v:textBlock v:margins="rect(4,4,4,4)" v:tabSpace="42.5197"/>
				<v:textRect cx="63.7795" cy="285.781" width="127.56" height="127.559"/>
				<rect x="0" y="222.002" width="127.559" height="127.559" class="st1"/>
				<text x="7.78" y="290.58" class="st2" v:langID="1028"><v:paragraph v:horizAlign="1"/><v:tabList/>『釋提桓因品』</text>			</g>
			<g id="shape6-17" v:mID="6" v:groupContext="shape" transform="translate(545.152,209.246) rotate(90)">
				<title>工作表.6</title>
				<desc>『歎淨品』</desc>
				<v:textBlock v:margins="rect(4,4,4,4)" v:tabSpace="42.5197"/>
				<v:textRect cx="45.3543" cy="304.207" width="90.71" height="90.7087"/>
				<rect x="0" y="258.852" width="90.7087" height="90.7087" class="st1"/>
				<text x="5.35" y="309.01" class="st2" v:langID="1028"><v:paragraph v:horizAlign="1"/><v:tabList/>『歎淨品』</text>			</g>
			<g id="shape7-20" v:mID="7" v:groupContext="shape" transform="translate(485.624,-215.951) rotate(90)">
				<title>工作表.7</title>
				<desc>發心初學轉久學</desc>
				<v:textBlock v:margins="rect(4,4,4,4)" v:tabSpace="42.5197"/>
				<v:textRect cx="76.5354" cy="273.026" width="153.08" height="153.071"/>
				<rect x="0" y="196.49" width="153.071" height="153.071" class="st1"/>
				<text x="4.54" y="277.83" class="st2" v:langID="1028"><v:paragraph v:horizAlign="1"/><v:tabList/>（發心）初學轉久學</text>			</g>
			<g id="shape8-23" v:mID="8" v:groupContext="shape" transform="translate(498.38,43.4193) rotate(90)">
				<title>工作表.8</title>
				<desc>『不可思議品』</desc>
				<v:textBlock v:margins="rect(4,4,4,4)" v:tabSpace="42.5197"/>
				<v:textRect cx="63.7795" cy="285.781" width="127.56" height="127.559"/>
				<rect x="0" y="222.002" width="127.559" height="127.559" class="st1"/>
				<text x="7.78" y="290.58" class="st2" v:langID="1028"><v:paragraph v:horizAlign="1"/><v:tabList/>『不可思議品』</text>			</g>
			<g id="shape9-26" v:mID="9" v:groupContext="shape" transform="translate(516.805,209.246) rotate(90)">
				<title>工作表.9</title>
				<desc>『船喻品』</desc>
				<v:textBlock v:margins="rect(4,4,4,4)" v:tabSpace="42.5197"/>
				<v:textRect cx="45.3543" cy="304.207" width="90.71" height="90.7087"/>
				<rect x="0" y="258.852" width="90.7087" height="90.7087" class="st1"/>
				<text x="5.35" y="309.01" class="st2" v:langID="1028"><v:paragraph v:horizAlign="1"/><v:tabList/>『船喻品』</text>			</g>
			<g id="shape10-29" v:mID="10" v:groupContext="shape" transform="translate(431.766,-217.368) rotate(90)">
				<title>工作表.10</title>
				<desc>發心‧初學久學得不退</desc>
				<v:textBlock v:margins="rect(4,4,4,4)" v:tabSpace="42.5197"/>
				<v:textRect cx="102.047" cy="247.514" width="204.1" height="204.094"/>
				<rect x="0" y="145.467" width="204.094" height="204.094" class="st1"/>
				<text x="6.05" y="252.31" class="st2" v:langID="1028"><v:paragraph v:horizAlign="1"/><v:tabList/>（發心‧初學）久學得不退</text>			</g>
			<g id="shape11-32" v:mID="11" v:groupContext="shape" transform="translate(488.459,44.8366) rotate(90)">
				<title>工作表.11</title>
				<desc>『大如品』</desc>
				<v:textBlock v:margins="rect(4,4,4,4)" v:tabSpace="42.5197"/>
				<v:textRect cx="45.3543" cy="304.207" width="90.71" height="90.7087"/>
				<rect x="0" y="258.852" width="90.7087" height="90.7087" class="st1"/>
				<text x="5.35" y="309.01" class="st2" v:langID="1028"><v:paragraph v:horizAlign="1"/><v:tabList/>『大如品』</text>			</g>
			<g id="shape12-35" v:mID="12" v:groupContext="shape" transform="translate(481.372,210.663) rotate(90)">
				<title>工作表.12</title>
				<desc>『深心求菩提</desc>
				<v:textBlock v:margins="rect(4,4,4,4)" v:tabSpace="42.5197"/>
				<v:textRect cx="52.4409" cy="297.12" width="104.89" height="104.882"/>
				<rect x="0" y="244.679" width="104.882" height="104.882" class="st1"/>
				<text x="4.44" y="301.92" class="st2" v:langID="1028"><v:paragraph v:horizAlign="1"/><v:tabList/>『深心求菩提</text>			</g>
			<g id="shape13-38" v:mID="13" v:groupContext="shape" transform="translate(477.12,227.671) rotate(90)">
				<title>工作表.13</title>
				<desc>品』上</desc>
				<v:textBlock v:margins="rect(4,4,4,4)" v:tabSpace="42.5197"/>
				<v:textRect cx="28.3465" cy="321.215" width="56.7" height="56.6929"/>
				<rect x="0" y="292.868" width="56.6929" height="56.6929" class="st1"/>
				<text x="4.35" y="326.01" class="st2" v:langID="1028"><v:paragraph v:horizAlign="1"/><v:tabList/>品』上</text>			</g>
			<g id="shape14-41" v:mID="14" v:groupContext="shape" transform="translate(349.561,-218.785) rotate(90)">
				<title>工作表.14</title>
				<desc>發心‧初學‧久學不退向佛道</desc>
				<v:textBlock v:margins="rect(4,4,4,4)" v:tabSpace="42.5197"/>
				<v:textRect cx="127.559" cy="222.002" width="255.12" height="255.118"/>
				<rect x="0" y="94.4429" width="255.118" height="255.118" class="st1"/>
				<text x="7.56" y="226.8" class="st2" v:langID="1028"><v:paragraph v:horizAlign="1"/><v:tabList/>（發心‧初學‧久學）不退向佛道</text>			</g>
			<g id="shape15-44" v:mID="15" v:groupContext="shape" transform="translate(400.585,46.2539) rotate(90)">
				<title>工作表.15</title>
				<desc>『深心求菩提品』下</desc>
				<v:textBlock v:margins="rect(4,4,4,4)" v:tabSpace="42.5197"/>
				<v:textRect cx="76.5354" cy="273.026" width="153.08" height="153.071"/>
				<rect x="0" y="196.49" width="153.071" height="153.071" class="st1"/>
				<text x="4.54" y="277.83" class="st2" v:langID="1028"><v:paragraph v:horizAlign="1"/><v:tabList/>『深心求菩提品』下</text>			</g>
			<g id="shape16-47" v:mID="16" v:groupContext="shape" transform="translate(424.679,210.663) rotate(90)">
				<title>工作表.16</title>
				<desc>『見阿閦佛國</desc>
				<v:textBlock v:margins="rect(4,4,4,4)" v:tabSpace="42.5197"/>
				<v:textRect cx="52.4409" cy="297.12" width="104.89" height="104.882"/>
				<rect x="0" y="244.679" width="104.882" height="104.882" class="st1"/>
				<text x="4.44" y="301.92" class="st2" v:langID="1028"><v:paragraph v:horizAlign="1"/><v:tabList/>『見阿閦佛國</text>			</g>
			<g id="shape17-50" v:mID="17" v:groupContext="shape" transform="translate(427.514,226.254) rotate(90)">
				<title>工作表.17</title>
				<desc>品』</desc>
				<v:textBlock v:margins="rect(4,4,4,4)" v:tabSpace="42.5197"/>
				<v:textRect cx="21.2598" cy="328.301" width="42.52" height="42.5197"/>
				<rect x="0" y="307.041" width="42.5197" height="42.5197" class="st1"/>
				<text x="5.26" y="333.1" class="st2" v:langID="1028"><v:paragraph v:horizAlign="1"/><v:tabList/>品』</text>			</g>
			<g id="shape18-53" v:mID="18" v:groupContext="shape" transform="translate(406.254,-344.927) rotate(90)">
				<title>工作表.18</title>
				<path d="M0 349.56 L694.49 349.56" class="st3"/>
			</g>
			<g id="shape19-56" v:mID="19" v:groupContext="shape" transform="translate(477.12,-231.541) rotate(90)">
				<title>工作表.19</title>
				<path d="M0 349.56 L14.17 349.56" class="st4"/>
			</g>
			<g id="shape20-59" v:mID="20" v:groupContext="shape" transform="translate(562.159,-64.2972) rotate(90)">
				<title>工作表.20</title>
				<path d="M0 349.56 L116.22 349.56" class="st4"/>
			</g>
			<g id="shape21-62" v:mID="21" v:groupContext="shape" transform="translate(590.506,-128.077) rotate(90)">
				<title>工作表.21</title>
				<path d="M0 349.56 L180 349.56" class="st4"/>
			</g>
			<g id="shape22-65" v:mID="22" v:groupContext="shape" transform="translate(618.852,-245.715) rotate(90)">
				<title>工作表.22</title>
				<path d="M0 349.56 L297.64 349.56" class="st4"/>
			</g>
			<g id="shape23-68" v:mID="23" v:groupContext="shape" transform="translate(590.506,159.64) rotate(90)">
				<title>工作表.23</title>
				<path d="M0 349.56 L56.69 349.56" class="st5"/>
			</g>
			<g id="shape24-71" v:mID="24" v:groupContext="shape" transform="translate(127.559,-581.102)">
				<title>工作表.24</title>
				<path d="M0 349.56 L113.39 349.56" class="st4"/>
			</g>
			<g id="shape25-74" v:mID="25" v:groupContext="shape" transform="translate(533.813,-16.1083) rotate(90)">
				<title>工作表.25</title>
				<path d="M0 349.56 L68.03 349.56" class="st4"/>
			</g>
			<g id="shape26-77" v:mID="26" v:groupContext="shape" transform="translate(533.813,-245.715) rotate(90)">
				<title>工作表.26</title>
				<path d="M0 349.56 L14.17 349.56" class="st4"/>
			</g>
			<g id="shape27-80" v:mID="27" v:groupContext="shape" transform="translate(590.506,-231.541) rotate(90)">
				<title>工作表.27</title>
				<path d="M0 349.56 L14.17 349.56" class="st4"/>
			</g>
			<g id="shape28-83" v:mID="28" v:groupContext="shape" transform="translate(562.159,159.64) rotate(90)">
				<title>工作表.28</title>
				<path d="M0 349.56 L56.69 349.56" class="st5"/>
			</g>
			<g id="shape29-86" v:mID="29" v:groupContext="shape" transform="translate(533.813,125.624) rotate(90)">
				<title>工作表.29</title>
				<path d="M0 349.56 L90.71 349.56" class="st5"/>
			</g>
			<g id="shape30-89" v:mID="30" v:groupContext="shape" transform="translate(477.12,196.49) rotate(90)">
				<title>工作表.30</title>
				<path d="M0 349.56 L22.68 349.56" class="st5"/>
			</g>
			<g id="shape31-92" v:mID="31" v:groupContext="shape" transform="translate(56.6929,-694.488)">
				<title>工作表.31</title>
				<path d="M0 349.56 L255.12 349.56" class="st3"/>
			</g>
			<g id="shape32-95" v:mID="32" v:groupContext="shape" transform="translate(477.12,32.0807) rotate(90)">
				<title>工作表.32</title>
				<path d="M0 349.56 L22.68 349.56" class="st4"/>
			</g>
			<g id="shape33-98" v:mID="33" v:groupContext="shape" transform="translate(661.372,-344.927) rotate(90)">
				<title>工作表.33</title>
				<path d="M0 349.56 L694.49 349.56" class="st3"/>
			</g>
			<g id="shape34-101" v:mID="34" v:groupContext="shape" transform="translate(56.6929,5.68434E-014)">
				<title>工作表.34</title>
				<path d="M0 349.56 L255.12 349.56" class="st3"/>
			</g>
		</g>
	</g>
</svg>
