<?xml version="1.0" encoding="UTF-8" standalone="no"?>
<!DOCTYPE svg PUBLIC "-//W3C//DTD SVG 1.1//EN" "http://www.w3.org/Graphics/SVG/1.1/DTD/svg11.dtd">
<!-- 由 Microsoft Visio, SVG Export 產生 y37.1013.svg 頁-1 -->
<svg xmlns="http://www.w3.org/2000/svg" xmlns:xlink="http://www.w3.org/1999/xlink" xmlns:ev="http://www.w3.org/2001/xml-events"
		width="7.29735in" height="4.3446in" viewBox="0 0 525.409 312.811" xml:space="preserve" color-interpolation-filters="sRGB"
		class="st4">
	<style type="text/css">
	<![CDATA[
		.st1 {stroke:#000000;stroke-linecap:round;stroke-linejoin:round;stroke-width:1}
		.st2 {fill:none;stroke:none;stroke-linecap:round;stroke-linejoin:round;stroke-width:0.75}
		.st3 {fill:#000000;font-family:新細明體;font-size:1.33333em}
		.st4 {fill:none;fill-rule:evenodd;font-size:12px;overflow:visible;stroke-linecap:square;stroke-miterlimit:3}
	]]>
	</style>

	<g>
		<title>頁-1</title>
		<g id="group91-1" transform="translate(0.5,-0.5)">
			<title>工作表.91</title>
			<g id="shape58-2" transform="translate(98.2126,312.811) rotate(-90)">
				<title>工作表.58</title>
				<path d="M0 312.81 L311.81 312.81" class="st1"/>
			</g>
			<g id="shape65-5" transform="translate(0,-283.465)">
				<title>工作表.65</title>
				<path d="M0 312.81 L524.41 312.81" class="st1"/>
			</g>
			<g id="shape69-8" transform="translate(-185.252,312.811) rotate(-90)">
				<title>工作表.69</title>
				<path d="M0 312.81 L311.81 312.81" class="st1"/>
			</g>
			<g id="shape89-11" transform="translate(-29.3464,312.811) rotate(-90)">
				<title>工作表.89</title>
				<path d="M0 312.81 L311.81 312.81" class="st1"/>
			</g>
			<g id="shape18-14" transform="translate(11.3386,-286.299)">
				<title>工作表.18</title>
				<desc>《兜沙經》</desc>
				<rect x="0" y="290.134" width="90.7087" height="22.6772" class="st2"/>
				<text x="5.35" y="306.27" class="st3">《兜沙經》</text>			</g>
			<g id="shape19-17" transform="translate(141.732,-289.134)">
				<title>工作表.19</title>
				<desc>《菩薩本業經》</desc>
				<rect x="0" y="290.134" width="127.559" height="22.6772" class="st2"/>
				<text x="7.78" y="306.27" class="st3">《菩薩本業經》</text>			</g>
			<g id="shape20-20" transform="translate(297.638,-286.299)">
				<title>工作表.20</title>
				<desc>「晉譯本」</desc>
				<rect x="0" y="290.134" width="90.7087" height="22.6772" class="st2"/>
				<text x="5.35" y="306.27" class="st3">「晉譯本」</text>			</g>
			<g id="shape22-23" transform="translate(28.3465,-257.953)">
				<title>工作表.22</title>
				<desc>十法住</desc>
				<rect x="0" y="290.134" width="56.6929" height="22.6772" class="st2"/>
				<text x="4.35" y="306.27" class="st3">十法住</text>			</g>
			<g id="shape23-26" transform="translate(160.157,-257.953)">
				<title>工作表.23</title>
				<desc>十智</desc>
				<rect x="0" y="290.134" width="42.5197" height="22.6772" class="st2"/>
				<text x="5.26" y="306.27" class="st3">十智</text>			</g>
			<g id="shape25-29" transform="translate(28.3465,-229.606)">
				<title>工作表.25</title>
				<desc>十法所行</desc>
				<rect x="0" y="290.134" width="73.7008" height="22.6772" class="st2"/>
				<text x="4.85" y="306.27" class="st3">十法所行</text>			</g>
			<g id="shape26-32" transform="translate(160.157,-229.606)">
				<title>工作表.26</title>
				<desc>十行</desc>
				<rect x="0" y="290.134" width="42.5197" height="22.6772" class="st2"/>
				<text x="5.26" y="306.27" class="st3">十行</text>			</g>
			<g id="shape27-35" transform="translate(28.3465,-201.26)">
				<title>工作表.27</title>
				<desc>十法悔過</desc>
				<rect x="0" y="290.134" width="73.7008" height="22.6772" class="st2"/>
				<text x="4.85" y="306.27" class="st3">十法悔過</text>			</g>
			<g id="shape28-38" transform="translate(160.157,-201.26)">
				<title>工作表.28</title>
				<desc>十投</desc>
				<rect x="0" y="290.134" width="42.5197" height="22.6772" class="st2"/>
				<text x="5.26" y="306.27" class="st3">十投</text>			</g>
			<g id="shape30-41" transform="translate(28.3465,-172.913)">
				<title>工作表.30</title>
				<desc>十道地</desc>
				<rect x="0" y="290.134" width="56.6929" height="22.6772" class="st2"/>
				<text x="4.35" y="306.27" class="st3">十道地</text>			</g>
			<g id="shape32-44" transform="translate(28.3465,-144.567)">
				<title>工作表.32</title>
				<desc>十鎮</desc>
				<rect x="0" y="290.134" width="42.5197" height="22.6772" class="st2"/>
				<text x="5.26" y="306.27" class="st3">十鎮</text>			</g>
			<g id="shape34-47" transform="translate(28.3465,-116.22)">
				<title>工作表.34</title>
				<desc>十居處所願</desc>
				<rect x="0" y="290.134" width="90.7087" height="22.6772" class="st2"/>
				<text x="5.35" y="306.27" class="st3">十居處所願</text>			</g>
			<g id="shape36-50" transform="translate(28.3465,-87.874)">
				<title>工作表.36</title>
				<desc>十黠</desc>
				<rect x="0" y="290.134" width="42.5197" height="22.6772" class="st2"/>
				<text x="5.26" y="306.27" class="st3">十黠</text>			</g>
			<g id="shape37-53" transform="translate(160.157,-87.874)">
				<title>工作表.37</title>
				<desc>十明</desc>
				<rect x="0" y="290.134" width="42.5197" height="22.6772" class="st2"/>
				<text x="5.26" y="306.27" class="st3">十明</text>			</g>
			<g id="shape38-56" transform="translate(28.3465,-59.5276)">
				<title>工作表.38</title>
				<desc>十三昧</desc>
				<rect x="0" y="290.134" width="56.6929" height="22.6772" class="st2"/>
				<text x="4.35" y="306.27" class="st3">十三昧</text>			</g>
			<g id="shape39-59" transform="translate(160.157,-58.1102)">
				<title>工作表.39</title>
				<desc>十定</desc>
				<rect x="0" y="290.134" width="42.5197" height="22.6772" class="st2"/>
				<text x="5.26" y="306.27" class="st3">十定</text>			</g>
			<g id="shape40-62" transform="translate(28.3465,-31.1811)">
				<title>工作表.40</title>
				<desc>十飛法</desc>
				<rect x="0" y="290.134" width="56.6929" height="22.6772" class="st2"/>
				<text x="4.35" y="306.27" class="st3">十飛法</text>			</g>
			<g id="shape41-65" transform="translate(160.157,-31.1811)">
				<title>工作表.41</title>
				<desc>十現</desc>
				<rect x="0" y="290.134" width="42.5197" height="22.6772" class="st2"/>
				<text x="5.26" y="306.27" class="st3">十現</text>			</g>
			<g id="shape44-68" transform="translate(28.3465,-2.83465)">
				<title>工作表.44</title>
				<desc>十印</desc>
				<rect x="0" y="290.134" width="42.5197" height="22.6772" class="st2"/>
				<text x="5.26" y="306.27" class="st3">十印</text>			</g>
			<g id="shape49-71" transform="translate(160.157,-4.25197)">
				<title>工作表.49</title>
				<desc>十印</desc>
				<rect x="0" y="290.134" width="42.5197" height="22.6772" class="st2"/>
				<text x="5.26" y="306.27" class="st3">十印</text>			</g>
			<g id="shape31-74" transform="translate(160.157,-172.913)">
				<title>工作表.31</title>
				<desc>十地</desc>
				<rect x="0" y="290.134" width="42.5197" height="22.6772" class="st2"/>
				<text x="5.26" y="306.27" class="st3">十地</text>			</g>
			<g id="shape33-77" transform="translate(160.157,-144.567)">
				<title>工作表.33</title>
				<desc>十藏</desc>
				<rect x="0" y="290.134" width="42.5197" height="22.6772" class="st2"/>
				<text x="5.26" y="306.27" class="st3">十藏</text>			</g>
			<g id="shape35-80" transform="translate(160.157,-116.22)">
				<title>工作表.35</title>
				<desc>十願</desc>
				<rect x="0" y="290.134" width="42.5197" height="22.6772" class="st2"/>
				<text x="5.26" y="306.27" class="st3">十願</text>			</g>
			<g id="shape24-83" transform="translate(313.228,-257.953)">
				<title>工作表.24</title>
				<desc>十住</desc>
				<rect x="0" y="290.134" width="42.5197" height="22.6772" class="st2"/>
				<text x="5.26" y="306.27" class="st3">十住</text>			</g>
			<g id="shape29-86" transform="translate(314.646,-201.26)">
				<title>工作表.29</title>
				<desc>十迴向</desc>
				<rect x="0" y="290.134" width="56.6929" height="22.6772" class="st2"/>
				<text x="4.35" y="306.27" class="st3">十迴向</text>			</g>
			<g id="shape42-89" transform="translate(314.646,-31.1811)">
				<title>工作表.42</title>
				<desc>十自在</desc>
				<rect x="0" y="290.134" width="56.6929" height="22.6772" class="st2"/>
				<text x="4.35" y="306.27" class="st3">十自在</text>			</g>
			<g id="shape45-92" transform="translate(313.228,-2.83465)">
				<title>工作表.45</title>
				<desc>十頂</desc>
				<rect x="0" y="290.134" width="42.5197" height="22.6772" class="st2"/>
				<text x="5.26" y="306.27" class="st3">十頂</text>			</g>
			<g id="shape46-95" transform="translate(313.228,-231.024)">
				<title>工作表.46</title>
				<desc>十行</desc>
				<rect x="0" y="290.134" width="42.5197" height="22.6772" class="st2"/>
				<text x="5.26" y="306.27" class="st3">十行</text>			</g>
			<g id="shape52-98" transform="translate(313.228,-172.913)">
				<title>工作表.52</title>
				<desc>十地</desc>
				<rect x="0" y="290.134" width="42.5197" height="22.6772" class="st2"/>
				<text x="5.26" y="306.27" class="st3">十地</text>			</g>
			<g id="shape53-101" transform="translate(313.228,-144.567)">
				<title>工作表.53</title>
				<desc>十藏</desc>
				<rect x="0" y="290.134" width="42.5197" height="22.6772" class="st2"/>
				<text x="5.26" y="306.27" class="st3">十藏</text>			</g>
			<g id="shape54-104" transform="translate(313.228,-116.22)">
				<title>工作表.54</title>
				<desc>十願</desc>
				<rect x="0" y="290.134" width="42.5197" height="22.6772" class="st2"/>
				<text x="5.26" y="306.27" class="st3">十願</text>			</g>
			<g id="shape50-107" transform="translate(313.228,-59.5276)">
				<title>工作表.50</title>
				<desc>十定</desc>
				<rect x="0" y="290.134" width="42.5197" height="22.6772" class="st2"/>
				<text x="5.26" y="306.27" class="st3">十定</text>			</g>
			<g id="shape48-110" transform="translate(9.63229E-13,-2.83465)">
				<title>工作表.48</title>
				<desc>10</desc>
				<rect x="0" y="290.134" width="28.3465" height="22.6772" class="st2"/>
				<text x="6.66" y="306.27" class="st3">10</text>			</g>
			<g id="shape70-113" transform="translate(2.83465,-31.1811)">
				<title>工作表.70</title>
				<desc>9.</desc>
				<rect x="0" y="290.134" width="22.6772" height="22.6772" class="st2"/>
				<text x="5.7" y="306.27" class="st3">9.</text>			</g>
			<g id="shape71-116" transform="translate(2.83465,-257.953)">
				<title>工作表.71</title>
				<desc>1.</desc>
				<rect x="0" y="290.134" width="22.6772" height="22.6772" class="st2"/>
				<text x="5.7" y="306.27" class="st3">1.</text>			</g>
			<g id="shape72-119" transform="translate(2.83465,-87.874)">
				<title>工作表.72</title>
				<desc>7.</desc>
				<rect x="0" y="290.134" width="22.6772" height="22.6772" class="st2"/>
				<text x="5.7" y="306.27" class="st3">7.</text>			</g>
			<g id="shape73-122" transform="translate(2.83465,-59.5276)">
				<title>工作表.73</title>
				<desc>8.</desc>
				<rect x="0" y="290.134" width="22.6772" height="22.6772" class="st2"/>
				<text x="5.7" y="306.27" class="st3">8.</text>			</g>
			<g id="shape74-125" transform="translate(2.83465,-229.606)">
				<title>工作表.74</title>
				<desc>2.</desc>
				<rect x="0" y="290.134" width="22.6772" height="22.6772" class="st2"/>
				<text x="5.7" y="306.27" class="st3">2.</text>			</g>
			<g id="shape75-128" transform="translate(2.83465,-201.26)">
				<title>工作表.75</title>
				<desc>3.</desc>
				<rect x="0" y="290.134" width="22.6772" height="22.6772" class="st2"/>
				<text x="5.7" y="306.27" class="st3">3.</text>			</g>
			<g id="shape76-131" transform="translate(2.83465,-172.913)">
				<title>工作表.76</title>
				<desc>4.</desc>
				<rect x="0" y="290.134" width="22.6772" height="22.6772" class="st2"/>
				<text x="5.7" y="306.27" class="st3">4.</text>			</g>
			<g id="shape77-134" transform="translate(2.83465,-144.567)">
				<title>工作表.77</title>
				<desc>5.</desc>
				<rect x="0" y="290.134" width="22.6772" height="22.6772" class="st2"/>
				<text x="5.7" y="306.27" class="st3">5.</text>			</g>
			<g id="shape78-137" transform="translate(2.83465,-116.22)">
				<title>工作表.78</title>
				<desc>6.</desc>
				<rect x="0" y="290.134" width="22.6772" height="22.6772" class="st2"/>
				<text x="5.7" y="306.27" class="st3">6.</text>			</g>
			<g id="shape1-140" transform="translate(144.567,-257.953)">
				<title>工作表.1</title>
				<desc>2.</desc>
				<rect x="0" y="290.134" width="22.6772" height="22.6772" class="st2"/>
				<text x="5.7" y="306.27" class="st3">2.</text>			</g>
			<g id="shape2-143" transform="translate(144.567,-229.606)">
				<title>工作表.2</title>
				<desc>3.</desc>
				<rect x="0" y="290.134" width="22.6772" height="22.6772" class="st2"/>
				<text x="5.7" y="306.27" class="st3">3.</text>			</g>
			<g id="shape3-146" transform="translate(144.567,-201.26)">
				<title>工作表.3</title>
				<desc>4.</desc>
				<rect x="0" y="290.134" width="22.6772" height="22.6772" class="st2"/>
				<text x="5.7" y="306.27" class="st3">4.</text>			</g>
			<g id="shape4-149" transform="translate(141.732,-2.83465)">
				<title>工作表.4</title>
				<desc>10</desc>
				<rect x="0" y="290.134" width="28.3465" height="22.6772" class="st2"/>
				<text x="6.66" y="306.27" class="st3">10</text>			</g>
			<g id="shape5-152" transform="translate(144.567,-31.1811)">
				<title>工作表.5</title>
				<desc>9.</desc>
				<rect x="0" y="290.134" width="22.6772" height="22.6772" class="st2"/>
				<text x="5.7" y="306.27" class="st3">9.</text>			</g>
			<g id="shape6-155" transform="translate(144.567,-87.874)">
				<title>工作表.6</title>
				<desc>7.</desc>
				<rect x="0" y="290.134" width="22.6772" height="22.6772" class="st2"/>
				<text x="5.7" y="306.27" class="st3">7.</text>			</g>
			<g id="shape7-158" transform="translate(144.567,-59.5276)">
				<title>工作表.7</title>
				<desc>8.</desc>
				<rect x="0" y="290.134" width="22.6772" height="22.6772" class="st2"/>
				<text x="5.7" y="306.27" class="st3">8.</text>			</g>
			<g id="shape8-161" transform="translate(144.567,-144.567)">
				<title>工作表.8</title>
				<desc>5.</desc>
				<rect x="0" y="290.134" width="22.6772" height="22.6772" class="st2"/>
				<text x="5.7" y="306.27" class="st3">5.</text>			</g>
			<g id="shape9-164" transform="translate(144.567,-116.22)">
				<title>工作表.9</title>
				<desc>6.</desc>
				<rect x="0" y="290.134" width="22.6772" height="22.6772" class="st2"/>
				<text x="5.7" y="306.27" class="st3">6.</text>			</g>
			<g id="shape10-167" transform="translate(144.567,-172.913)">
				<title>工作表.10</title>
				<desc>1.</desc>
				<rect x="0" y="290.134" width="22.6772" height="22.6772" class="st2"/>
				<text x="5.7" y="306.27" class="st3">1.</text>			</g>
			<g id="shape11-170" transform="translate(300.472,-257.953)">
				<title>工作表.11</title>
				<desc>1.</desc>
				<rect x="0" y="290.134" width="22.6772" height="22.6772" class="st2"/>
				<text x="5.7" y="306.27" class="st3">1.</text>			</g>
			<g id="shape12-173" transform="translate(300.472,-229.606)">
				<title>工作表.12</title>
				<desc>2.</desc>
				<rect x="0" y="290.134" width="22.6772" height="22.6772" class="st2"/>
				<text x="5.7" y="306.27" class="st3">2.</text>			</g>
			<g id="shape13-176" transform="translate(300.472,-201.26)">
				<title>工作表.13</title>
				<desc>3.</desc>
				<rect x="0" y="290.134" width="22.6772" height="22.6772" class="st2"/>
				<text x="5.7" y="306.27" class="st3">3.</text>			</g>
			<g id="shape14-179" transform="translate(300.472,-172.913)">
				<title>工作表.14</title>
				<desc>5.</desc>
				<rect x="0" y="290.134" width="22.6772" height="22.6772" class="st2"/>
				<text x="5.7" y="306.27" class="st3">5.</text>			</g>
			<g id="shape15-182" transform="translate(300.472,-144.567)">
				<title>工作表.15</title>
				<desc>4.</desc>
				<rect x="0" y="290.134" width="22.6772" height="22.6772" class="st2"/>
				<text x="5.7" y="306.27" class="st3">4.</text>			</g>
			<g id="shape16-185" transform="translate(300.472,-116.22)">
				<title>工作表.16</title>
				<desc>6.</desc>
				<rect x="0" y="290.134" width="22.6772" height="22.6772" class="st2"/>
				<text x="5.7" y="306.27" class="st3">6.</text>			</g>
			<g id="shape17-188" transform="translate(300.472,-2.83465)">
				<title>工作表.17</title>
				<desc>9.</desc>
				<rect x="0" y="290.134" width="22.6772" height="22.6772" class="st2"/>
				<text x="5.7" y="306.27" class="st3">9.</text>			</g>
			<g id="shape47-191" transform="translate(300.472,-59.5276)">
				<title>工作表.47</title>
				<desc>7.</desc>
				<rect x="0" y="290.134" width="22.6772" height="22.6772" class="st2"/>
				<text x="5.7" y="306.27" class="st3">7.</text>			</g>
			<g id="shape79-194" transform="translate(300.472,-31.1811)">
				<title>工作表.79</title>
				<desc>8.</desc>
				<rect x="0" y="290.134" width="22.6772" height="22.6772" class="st2"/>
				<text x="5.7" y="306.27" class="st3">8.</text>			</g>
			<g id="shape21-197" transform="translate(425.197,-286.299)">
				<title>工作表.21</title>
				<desc>「唐譯本」</desc>
				<rect x="0" y="290.134" width="90.7087" height="22.6772" class="st2"/>
				<text x="5.35" y="306.27" class="st3">「唐譯本」</text>			</g>
			<g id="shape43-200" transform="translate(440.787,-31.1811)">
				<title>工作表.43</title>
				<desc>十通</desc>
				<rect x="0" y="290.134" width="42.5197" height="22.6772" class="st2"/>
				<text x="5.26" y="306.27" class="st3">十通</text>			</g>
			<g id="shape56-203" transform="translate(440.787,-257.953)">
				<title>工作表.56</title>
				<desc>十住</desc>
				<rect x="0" y="290.134" width="42.5197" height="22.6772" class="st2"/>
				<text x="5.26" y="306.27" class="st3">十住</text>			</g>
			<g id="shape57-206" transform="translate(441.638,-201.26)">
				<title>工作表.57</title>
				<desc>十迴向</desc>
				<rect x="0" y="290.134" width="56.6929" height="22.6772" class="st2"/>
				<text x="4.35" y="306.27" class="st3">十迴向</text>			</g>
			<g id="shape59-209" transform="translate(440.787,-2.83465)">
				<title>工作表.59</title>
				<desc>十頂</desc>
				<rect x="0" y="290.134" width="42.5197" height="22.6772" class="st2"/>
				<text x="5.26" y="306.27" class="st3">十頂</text>			</g>
			<g id="shape60-212" transform="translate(440.787,-231.024)">
				<title>工作表.60</title>
				<desc>十行</desc>
				<rect x="0" y="290.134" width="42.5197" height="22.6772" class="st2"/>
				<text x="5.26" y="306.27" class="st3">十行</text>			</g>
			<g id="shape61-215" transform="translate(440.787,-172.913)">
				<title>工作表.61</title>
				<desc>十地</desc>
				<rect x="0" y="290.134" width="42.5197" height="22.6772" class="st2"/>
				<text x="5.26" y="306.27" class="st3">十地</text>			</g>
			<g id="shape62-218" transform="translate(440.787,-144.567)">
				<title>工作表.62</title>
				<desc>十藏</desc>
				<rect x="0" y="290.134" width="42.5197" height="22.6772" class="st2"/>
				<text x="5.26" y="306.27" class="st3">十藏</text>			</g>
			<g id="shape63-221" transform="translate(440.787,-116.22)">
				<title>工作表.63</title>
				<desc>十願</desc>
				<rect x="0" y="290.134" width="42.5197" height="22.6772" class="st2"/>
				<text x="5.26" y="306.27" class="st3">十願</text>			</g>
			<g id="shape64-224" transform="translate(440.787,-59.5276)">
				<title>工作表.64</title>
				<desc>十定</desc>
				<rect x="0" y="290.134" width="42.5197" height="22.6772" class="st2"/>
				<text x="5.26" y="306.27" class="st3">十定</text>			</g>
			<g id="shape80-227" transform="translate(428.031,-257.953)">
				<title>工作表.80</title>
				<desc>1.</desc>
				<rect x="0" y="290.134" width="22.6772" height="22.6772" class="st2"/>
				<text x="5.7" y="306.27" class="st3">1.</text>			</g>
			<g id="shape81-230" transform="translate(428.031,-229.606)">
				<title>工作表.81</title>
				<desc>2.</desc>
				<rect x="0" y="290.134" width="22.6772" height="22.6772" class="st2"/>
				<text x="5.7" y="306.27" class="st3">2.</text>			</g>
			<g id="shape82-233" transform="translate(428.031,-201.26)">
				<title>工作表.82</title>
				<desc>3.</desc>
				<rect x="0" y="290.134" width="22.6772" height="22.6772" class="st2"/>
				<text x="5.7" y="306.27" class="st3">3.</text>			</g>
			<g id="shape83-236" transform="translate(428.031,-172.913)">
				<title>工作表.83</title>
				<desc>5.</desc>
				<rect x="0" y="290.134" width="22.6772" height="22.6772" class="st2"/>
				<text x="5.7" y="306.27" class="st3">5.</text>			</g>
			<g id="shape84-239" transform="translate(428.031,-144.567)">
				<title>工作表.84</title>
				<desc>4.</desc>
				<rect x="0" y="290.134" width="22.6772" height="22.6772" class="st2"/>
				<text x="5.7" y="306.27" class="st3">4.</text>			</g>
			<g id="shape85-242" transform="translate(428.031,-116.22)">
				<title>工作表.85</title>
				<desc>6.</desc>
				<rect x="0" y="290.134" width="22.6772" height="22.6772" class="st2"/>
				<text x="5.7" y="306.27" class="st3">6.</text>			</g>
			<g id="shape86-245" transform="translate(428.031,-2.83465)">
				<title>工作表.86</title>
				<desc>9.</desc>
				<rect x="0" y="290.134" width="22.6772" height="22.6772" class="st2"/>
				<text x="5.7" y="306.27" class="st3">9.</text>			</g>
			<g id="shape87-248" transform="translate(428.031,-59.5276)">
				<title>工作表.87</title>
				<desc>7.</desc>
				<rect x="0" y="290.134" width="22.6772" height="22.6772" class="st2"/>
				<text x="5.7" y="306.27" class="st3">7.</text>			</g>
			<g id="shape88-251" transform="translate(428.031,-31.1811)">
				<title>工作表.88</title>
				<desc>8.</desc>
				<rect x="0" y="290.134" width="22.6772" height="22.6772" class="st2"/>
				<text x="5.7" y="306.27" class="st3">8.</text>			</g>
		</g>
	</g>
</svg>
