<?xml version="1.0" encoding="UTF-8" standalone="no"?>
<!DOCTYPE svg PUBLIC "-//W3C//DTD SVG 1.1//EN" "http://www.w3.org/Graphics/SVG/1.1/DTD/svg11.dtd">
<!-- 由 Microsoft Visio, SVG Export 產生 y37.0663-h.svg 頁-1 -->
<svg xmlns="http://www.w3.org/2000/svg" xmlns:xlink="http://www.w3.org/1999/xlink" xmlns:ev="http://www.w3.org/2001/xml-events"
		width="8.78994in" height="2.68758in" viewBox="0 0 632.876 193.506" xml:space="preserve" color-interpolation-filters="sRGB"
		class="st5">
	<style type="text/css">
	<![CDATA[
		.st1 {fill:none;stroke:none;stroke-linecap:round;stroke-linejoin:round;stroke-width:0.75}
		.st2 {fill:#000000;font-family:新細明體;font-size:1.33333em}
		.st3 {stroke:#000000;stroke-linecap:round;stroke-linejoin:round;stroke-width:1}
		.st4 {stroke:#000000;stroke-dasharray:0,4.5;stroke-linecap:round;stroke-linejoin:round;stroke-width:1.5}
		.st5 {fill:none;fill-rule:evenodd;font-size:12px;overflow:visible;stroke-linecap:square;stroke-miterlimit:3}
	]]>
	</style>

	<g>
		<title>頁-1</title>
		<g id="group33-1" transform="translate(0.375,-0.375)">
			<title>工作表.33</title>
			<g id="shape1-2" transform="translate(0,-170.079)">
				<title>工作表.1</title>
				<desc>直示般若</desc>
				<rect x="0" y="170.829" width="73.7008" height="22.6772" class="st1"/>
				<text x="4.85" y="186.97" class="st2">直示般若</text>			</g>
			<g id="shape2-5" transform="translate(362.835,-170.079)">
				<title>工作表.2</title>
				<desc>『初品』</desc>
				<rect x="0" y="170.829" width="73.7008" height="22.6772" class="st1"/>
				<text x="4.85" y="186.97" class="st2">『初品』</text>			</g>
			<g id="shape3-8" transform="translate(2.8777E-13,-85.0394)">
				<title>工作表.3</title>
				<desc>漸學般若</desc>
				<rect x="0" y="170.829" width="73.7008" height="22.6772" class="st1"/>
				<text x="4.85" y="186.97" class="st2">漸學般若</text>			</g>
			<g id="shape4-11" transform="translate(100.63,-141.732)">
				<title>工作表.4</title>
				<desc>發心‧初學</desc>
				<rect x="0" y="170.829" width="90.7087" height="22.6772" class="st1"/>
				<text x="5.35" y="186.97" class="st2">發心‧初學</text>			</g>
			<g id="shape5-14" transform="translate(360,-141.732)">
				<title>工作表.5</title>
				<desc>『釋提桓因品』</desc>
				<rect x="0" y="170.829" width="127.559" height="22.6772" class="st1"/>
				<text x="7.78" y="186.97" class="st2">『釋提桓因品』</text>			</g>
			<g id="shape6-17" transform="translate(525.827,-141.732)">
				<title>工作表.6</title>
				<desc>『歎淨品』</desc>
				<rect x="0" y="170.829" width="90.7087" height="22.6772" class="st1"/>
				<text x="5.35" y="186.97" class="st2">『歎淨品』</text>			</g>
			<g id="shape7-20" transform="translate(100.63,-113.386)">
				<title>工作表.7</title>
				<desc>發心初學轉久學</desc>
				<rect x="0" y="170.829" width="153.071" height="22.6772" class="st1"/>
				<text x="4.54" y="186.97" class="st2">（發心）初學轉久學</text>			</g>
			<g id="shape8-23" transform="translate(360,-113.386)">
				<title>工作表.8</title>
				<desc>『不可思議品』</desc>
				<rect x="0" y="170.829" width="127.559" height="22.6772" class="st1"/>
				<text x="7.78" y="186.97" class="st2">『不可思議品』</text>			</g>
			<g id="shape9-26" transform="translate(525.827,-113.386)">
				<title>工作表.9</title>
				<desc>『船喻品』</desc>
				<rect x="0" y="170.829" width="90.7087" height="22.6772" class="st1"/>
				<text x="5.35" y="186.97" class="st2">『船喻品』</text>			</g>
			<g id="shape10-29" transform="translate(99.2126,-85.0394)">
				<title>工作表.10</title>
				<desc>發心‧初學久學得不退</desc>
				<rect x="0" y="170.829" width="204.094" height="22.6772" class="st1"/>
				<text x="6.05" y="186.97" class="st2">（發心‧初學）久學得不退</text>			</g>
			<g id="shape11-32" transform="translate(361.417,-85.0394)">
				<title>工作表.11</title>
				<desc>『大如品』</desc>
				<rect x="0" y="170.829" width="90.7087" height="22.6772" class="st1"/>
				<text x="5.35" y="186.97" class="st2">『大如品』</text>			</g>
			<g id="shape12-35" transform="translate(527.244,-85.0394)">
				<title>工作表.12</title>
				<desc>『深心求菩提</desc>
				<rect x="0" y="170.829" width="104.882" height="22.6772" class="st1"/>
				<text x="4.44" y="186.97" class="st2">『深心求菩提</text>			</g>
			<g id="shape13-38" transform="translate(544.252,-56.6929)">
				<title>工作表.13</title>
				<desc>品』上</desc>
				<rect x="0" y="170.829" width="56.6929" height="22.6772" class="st1"/>
				<text x="4.35" y="186.97" class="st2">品』上</text>			</g>
			<g id="shape14-41" transform="translate(97.7953,-28.3465)">
				<title>工作表.14</title>
				<desc>發心‧初學‧久學不退向佛道</desc>
				<rect x="0" y="170.829" width="255.118" height="22.6772" class="st1"/>
				<text x="7.56" y="186.97" class="st2">（發心‧初學‧久學）不退向佛道</text>			</g>
			<g id="shape15-44" transform="translate(362.835,-28.3465)">
				<title>工作表.15</title>
				<desc>『深心求菩提品』下</desc>
				<rect x="0" y="170.829" width="153.071" height="22.6772" class="st1"/>
				<text x="4.54" y="186.97" class="st2">『深心求菩提品』下</text>			</g>
			<g id="shape16-47" transform="translate(527.244,-28.3465)">
				<title>工作表.16</title>
				<desc>『見阿閦佛國</desc>
				<rect x="0" y="170.829" width="104.882" height="22.6772" class="st1"/>
				<text x="4.44" y="186.97" class="st2">『見阿閦佛國</text>			</g>
			<g id="shape17-50" transform="translate(542.835,0)">
				<title>工作表.17</title>
				<desc>品』</desc>
				<rect x="0" y="170.829" width="42.5197" height="22.6772" class="st1"/>
				<text x="5.26" y="186.97" class="st2">品』</text>			</g>
			<g id="shape19-53" transform="translate(85.0394,-39.685)">
				<title>工作表.19</title>
				<path d="M0 193.51 L14.17 193.51" class="st3"/>
			</g>
			<g id="shape20-56" transform="translate(252.283,-124.724)">
				<title>工作表.20</title>
				<path d="M0 193.51 L116.22 193.51" class="st3"/>
			</g>
			<g id="shape21-59" transform="translate(188.504,-153.071)">
				<title>工作表.21</title>
				<path d="M0 193.51 L180 193.51" class="st3"/>
			</g>
			<g id="shape22-62" transform="translate(70.8661,-181.417)">
				<title>工作表.22</title>
				<path d="M0 193.51 L297.64 193.51" class="st3"/>
			</g>
			<g id="shape23-65" transform="translate(476.22,-153.071)">
				<title>工作表.23</title>
				<path d="M0 193.51 L56.69 193.51" class="st4"/>
			</g>
			<g id="shape24-68" transform="translate(-108.467,153.821) rotate(-90)">
				<title>工作表.24</title>
				<path d="M0 193.51 L113.39 193.51" class="st3"/>
			</g>
			<g id="shape25-71" transform="translate(300.472,-96.378)">
				<title>工作表.25</title>
				<path d="M0 193.51 L68.03 193.51" class="st3"/>
			</g>
			<g id="shape26-74" transform="translate(70.8661,-96.378)">
				<title>工作表.26</title>
				<path d="M0 193.51 L14.17 193.51" class="st3"/>
			</g>
			<g id="shape27-77" transform="translate(85.0394,-153.071)">
				<title>工作表.27</title>
				<path d="M0 193.51 L14.17 193.51" class="st3"/>
			</g>
			<g id="shape28-80" transform="translate(476.22,-124.724)">
				<title>工作表.28</title>
				<path d="M0 193.51 L56.69 193.51" class="st4"/>
			</g>
			<g id="shape29-83" transform="translate(442.205,-96.378)">
				<title>工作表.29</title>
				<path d="M0 193.51 L90.71 193.51" class="st4"/>
			</g>
			<g id="shape30-86" transform="translate(513.071,-39.685)">
				<title>工作表.30</title>
				<path d="M0 193.51 L22.68 193.51" class="st4"/>
			</g>
			<g id="shape32-89" transform="translate(348.661,-39.685)">
				<title>工作表.32</title>
				<path d="M0 193.51 L22.68 193.51" class="st3"/>
			</g>
		</g>
	</g>
</svg>
