<?xml version="1.0" encoding="UTF-8" standalone="no"?>
<!DOCTYPE svg PUBLIC "-//W3C//DTD SVG 1.1//EN" "http://www.w3.org/Graphics/SVG/1.1/DTD/svg11.dtd">
<!-- 由 Microsoft Visio, SVG Export 產生 y37.0563-h.svg 頁-1 -->
<svg xmlns="http://www.w3.org/2000/svg" xmlns:xlink="http://www.w3.org/1999/xlink" xmlns:ev="http://www.w3.org/2001/xml-events"
		width="6.54585in" height="2.68758in" viewBox="0 0 471.301 193.506" xml:space="preserve" color-interpolation-filters="sRGB"
		class="st4">
	<style type="text/css">
	<![CDATA[
		.st1 {fill:none;stroke:none;stroke-linecap:round;stroke-linejoin:round;stroke-width:0.75}
		.st2 {fill:#000000;font-family:新細明體;font-size:1.33333em}
		.st3 {stroke:#000000;stroke-linecap:round;stroke-linejoin:round;stroke-width:1}
		.st4 {fill:none;fill-rule:evenodd;font-size:12px;overflow:visible;stroke-linecap:square;stroke-miterlimit:3}
	]]>
	</style>

	<g>
		<title>頁-1</title>
		<g id="group24-1" transform="translate(0.375,-0.375)">
			<title>工作表.24</title>
			<g id="shape1-2" transform="translate(2.83465,-170.079)">
				<title>工作表.1</title>
				<desc>『道行品』</desc>
				<rect x="0" y="170.829" width="90.7087" height="22.6772" class="st1"/>
				<text x="5.35" y="186.97" class="st2">『道行品』</text>			</g>
			<g id="shape2-5" transform="translate(172.913,-170.079)">
				<title>工作表.2</title>
				<desc>『道行般若波羅蜜經』</desc>
				<rect x="0" y="170.829" width="170.079" height="22.6772" class="st1"/>
				<text x="5.04" y="186.97" class="st2">『道行般若波羅蜜經』</text>			</g>
			<g id="shape3-8" transform="translate(2.83465,-141.732)">
				<title>工作表.3</title>
				<desc>『行品』</desc>
				<rect x="0" y="170.829" width="73.7008" height="22.6772" class="st1"/>
				<text x="4.85" y="186.97" class="st2">『行品』</text>			</g>
			<g id="shape4-11" transform="translate(172.913,-141.732)">
				<title>工作表.4</title>
				<desc>『大明度經』</desc>
				<rect x="0" y="170.829" width="104.882" height="22.6772" class="st1"/>
				<text x="4.44" y="186.97" class="st2">『大明度經』</text>			</g>
			<g id="shape5-14" transform="translate(2.83465,-113.386)">
				<title>工作表.5</title>
				<desc>『道行品』</desc>
				<rect x="0" y="170.829" width="90.7087" height="22.6772" class="st1"/>
				<text x="5.35" y="186.97" class="st2">『道行品』</text>			</g>
			<g id="shape6-17" transform="translate(172.913,-113.386)">
				<title>工作表.6</title>
				<desc>『摩訶般若波羅蜜鈔經』</desc>
				<rect x="0" y="170.829" width="184.252" height="22.6772" class="st1"/>
				<text x="4.13" y="186.97" class="st2">『摩訶般若波羅蜜鈔經』</text>			</g>
			<g id="shape7-20" transform="translate(2.83465,-85.0394)">
				<title>工作表.7</title>
				<desc>『初品』</desc>
				<rect x="0" y="170.829" width="73.7008" height="22.6772" class="st1"/>
				<text x="4.85" y="186.97" class="st2">『初品』</text>			</g>
			<g id="shape8-23" transform="translate(172.913,-85.0394)">
				<title>工作表.8</title>
				<desc>『小品般若波羅蜜經』</desc>
				<rect x="0" y="170.829" width="170.079" height="22.6772" class="st1"/>
				<text x="5.04" y="186.97" class="st2">『小品般若波羅蜜經』</text>			</g>
			<g id="shape9-26" transform="translate(2.83465,-56.6929)">
				<title>工作表.9</title>
				<desc>『妙行品』</desc>
				<rect x="0" y="170.829" width="90.7087" height="22.6772" class="st1"/>
				<text x="5.35" y="186.97" class="st2">『妙行品』</text>			</g>
			<g id="shape10-29" transform="translate(172.913,-56.6929)">
				<title>工作表.10</title>
				<desc>『大般若經第四分』</desc>
				<rect x="0" y="170.829" width="153.071" height="22.6772" class="st1"/>
				<text x="4.54" y="186.97" class="st2">『大般若經第四分』</text>			</g>
			<g id="shape11-32" transform="translate(1.59872E-14,-28.3465)">
				<title>工作表.11</title>
				<desc>『了知行相品』</desc>
				<rect x="0" y="170.829" width="127.559" height="22.6772" class="st1"/>
				<text x="7.78" y="186.97" class="st2">『了知行相品』</text>			</g>
			<g id="shape12-35" transform="translate(172.913,-28.3465)">
				<title>工作表.12</title>
				<desc>『佛說佛母出生三法藏般若波羅蜜多經』</desc>
				<rect x="0" y="170.829" width="297.638" height="22.6772" class="st1"/>
				<text x="4.82" y="186.97" class="st2">『佛說佛母出生三法藏般若波羅蜜多經』</text>			</g>
			<g id="shape13-38" transform="translate(2.83465,0)">
				<title>工作表.13</title>
				<desc>『行品』</desc>
				<rect x="0" y="170.829" width="73.7008" height="22.6772" class="st1"/>
				<text x="4.85" y="186.97" class="st2">『行品』</text>			</g>
			<g id="shape14-41" transform="translate(171.496,-7.95808E-13)">
				<title>工作表.14</title>
				<desc>『佛說佛母寶德藏般若波羅蜜多經』</desc>
				<rect x="0" y="170.829" width="269.291" height="22.6772" class="st1"/>
				<text x="6.65" y="186.97" class="st2">『佛說佛母寶德藏般若波羅蜜多經』</text>			</g>
			<g id="shape17-44" transform="translate(87.874,-181.417)">
				<title>工作表.17</title>
				<path d="M0 193.51 L90.71 193.51" class="st3"/>
			</g>
			<g id="shape18-47" transform="translate(87.874,-124.724)">
				<title>工作表.18</title>
				<path d="M0 193.51 L90.71 193.51" class="st3"/>
			</g>
			<g id="shape19-50" transform="translate(87.874,-68.0315)">
				<title>工作表.19</title>
				<path d="M0 193.51 L90.71 193.51" class="st3"/>
			</g>
			<g id="shape20-53" transform="translate(73.7008,-153.071)">
				<title>工作表.20</title>
				<path d="M0 193.51 L104.88 193.51" class="st3"/>
			</g>
			<g id="shape21-56" transform="translate(72.7559,-96.378)">
				<title>工作表.21</title>
				<path d="M0 193.51 L104.88 193.51" class="st3"/>
			</g>
			<g id="shape22-59" transform="translate(74.6457,-11.3386)">
				<title>工作表.22</title>
				<path d="M0 193.51 L104.88 193.51" class="st3"/>
			</g>
			<g id="shape23-62" transform="translate(116.22,-39.685)">
				<title>工作表.23</title>
				<path d="M0 193.51 L62.36 193.51" class="st3"/>
			</g>
		</g>
	</g>
</svg>
