<?xml version="1.0" encoding="UTF-8" standalone="no"?>
<!DOCTYPE svg PUBLIC "-//W3C//DTD SVG 1.1//EN" "http://www.w3.org/Graphics/SVG/1.1/DTD/svg11.dtd">
<!-- 由 Microsoft Visio, SVG Export 產生 y37.1107-h.svg 頁-1 -->
<svg xmlns="http://www.w3.org/2000/svg" xmlns:xlink="http://www.w3.org/1999/xlink" xmlns:ev="http://www.w3.org/2001/xml-events"
		width="8.13246in" height="1.35766in" viewBox="0 0 585.537 97.7518" xml:space="preserve" color-interpolation-filters="sRGB"
		class="st5">
	<style type="text/css">
	<![CDATA[
		.st1 {fill:none;stroke:none;stroke-linecap:round;stroke-linejoin:round;stroke-width:0.75}
		.st2 {fill:#000000;font-family:新細明體;font-size:0.833336em}
		.st3 {fill:#000000;font-family:新細明體;font-size:1.33333em}
		.st4 {stroke:#000000;stroke-linecap:round;stroke-linejoin:round;stroke-width:0.24}
		.st5 {fill:none;fill-rule:evenodd;font-size:12px;overflow:visible;stroke-linecap:square;stroke-miterlimit:3}
	]]>
	</style>

	<g>
		<title>頁-1</title>
		<g id="group43-1" transform="translate(0.375,-0.12)">
			<title>工作表.43</title>
			<g id="shape2-2" transform="translate(80.0787,-73.9843)">
				<title>工作表.2</title>
				<desc>1</desc>
				<rect x="0" y="75.0746" width="24.378" height="22.6772" class="st1"/>
				<text x="9.84" y="89.41" class="st2">1</text>			</g>
			<g id="shape3-5" transform="translate(95.811,-37.4173)">
				<title>工作表.3</title>
				<desc>施、　戒、　信、　精進、　定、　慧、　願、　護、　念、　迴向</desc>
				<rect x="0" y="75.0746" width="488.126" height="22.6772" class="st1"/>
				<text x="4" y="91.21" class="st3">施、　戒、　信、　精進、　定、　慧、　願、　護、　念、　迴向</text>			</g>
			<g id="shape4-8" transform="translate(96.6614,-0.850394)">
				<title>工作表.4</title>
				<desc>捨、　戒、　信、　精進、　定、　慧、　願、　護、　念、　迴向</desc>
				<rect x="0" y="75.0746" width="488.126" height="22.6772" class="st1"/>
				<text x="4" y="91.21" class="st3">捨、　戒、　信、　精進、　定、　慧、　願、　護、　念、　迴向</text>			</g>
			<g id="shape5-11" transform="translate(1.59872E-14,-73.9843)">
				<title>工作表.5</title>
				<desc>《梵網經》</desc>
				<rect x="0" y="75.0746" width="88.1575" height="22.6772" class="st1"/>
				<text x="4" y="91.21" class="st3">《梵網經》</text>			</g>
			<g id="shape6-14" transform="translate(1.59872E-14,-37.4173)">
				<title>工作表.6</title>
				<desc>《仁王經》</desc>
				<rect x="0" y="75.0746" width="88.1575" height="22.6772" class="st1"/>
				<text x="4" y="91.21" class="st3">《仁王經》</text>			</g>
			<g id="shape7-17" transform="translate(2.71783E-13,-0.850394)">
				<title>工作表.7</title>
				<desc>《瓔珞經》</desc>
				<rect x="0" y="75.0746" width="88.1575" height="22.6772" class="st1"/>
				<text x="4" y="91.21" class="st3">《瓔珞經》</text>			</g>
			<g id="shape8-20" transform="translate(80.0787,-37.4173)">
				<title>工作表.8</title>
				<desc>6</desc>
				<rect x="0" y="75.0746" width="24.378" height="22.6772" class="st1"/>
				<text x="9.84" y="89.41" class="st2">6</text>			</g>
			<g id="shape9-23" transform="translate(80.0787,-0.850394)">
				<title>工作表.9</title>
				<desc>9</desc>
				<rect x="0" y="75.0746" width="24.378" height="22.6772" class="st1"/>
				<text x="9.84" y="89.41" class="st2">9</text>			</g>
			<g id="shape10-26" transform="translate(-16.6809,97.7518) rotate(-90)">
				<title>工作表.10</title>
				<path d="M0 97.75 L97.51 97.75" class="st4"/>
			</g>
			<g id="shape11-29" transform="translate(127.843,-73.9843)">
				<title>工作表.11</title>
				<desc>2</desc>
				<rect x="0" y="75.0746" width="24.378" height="22.6772" class="st1"/>
				<text x="9.84" y="89.41" class="st2">2</text>			</g>
			<g id="shape12-32" transform="translate(127.843,-37.4173)">
				<title>工作表.12</title>
				<desc>7</desc>
				<rect x="0" y="75.0746" width="24.378" height="22.6772" class="st1"/>
				<text x="9.84" y="89.41" class="st2">7</text>			</g>
			<g id="shape13-35" transform="translate(127.843,-0.850394)">
				<title>工作表.13</title>
				<desc>6</desc>
				<rect x="0" y="75.0746" width="24.378" height="22.6772" class="st1"/>
				<text x="9.84" y="89.41" class="st2">6</text>			</g>
			<g id="shape14-38" transform="translate(175.748,-73.9843)">
				<title>工作表.14</title>
				<desc>3</desc>
				<rect x="0" y="75.0746" width="24.378" height="22.6772" class="st1"/>
				<text x="9.84" y="89.41" class="st2">3</text>			</g>
			<g id="shape15-41" transform="translate(175.748,-37.4173)">
				<title>工作表.15</title>
				<desc>1</desc>
				<rect x="0" y="75.0746" width="24.378" height="22.6772" class="st1"/>
				<text x="9.84" y="89.41" class="st2">1</text>			</g>
			<g id="shape16-44" transform="translate(175.748,-0.850394)">
				<title>工作表.16</title>
				<desc>1</desc>
				<rect x="0" y="75.0746" width="24.378" height="22.6772" class="st1"/>
				<text x="9.84" y="89.41" class="st2">1</text>			</g>
			<g id="shape17-47" transform="translate(223.795,-73.9843)">
				<title>工作表.17</title>
				<desc>4</desc>
				<rect x="0" y="75.0746" width="24.378" height="22.6772" class="st1"/>
				<text x="9.84" y="89.41" class="st2">4</text>			</g>
			<g id="shape18-50" transform="translate(223.795,-37.4173)">
				<title>工作表.18</title>
				<desc>2</desc>
				<rect x="0" y="75.0746" width="24.378" height="22.6772" class="st1"/>
				<text x="9.84" y="89.41" class="st2">2</text>			</g>
			<g id="shape19-53" transform="translate(223.795,-0.850394)">
				<title>工作表.19</title>
				<desc>3</desc>
				<rect x="0" y="75.0746" width="24.378" height="22.6772" class="st1"/>
				<text x="9.84" y="89.41" class="st2">3</text>			</g>
			<g id="shape20-56" transform="translate(271.843,-73.9843)">
				<title>工作表.20</title>
				<desc>5</desc>
				<rect x="0" y="75.0746" width="24.378" height="22.6772" class="st1"/>
				<text x="9.84" y="89.41" class="st2">5</text>			</g>
			<g id="shape21-59" transform="translate(320.315,-73.9843)">
				<title>工作表.21</title>
				<desc>6</desc>
				<rect x="0" y="75.0746" width="24.378" height="22.6772" class="st1"/>
				<text x="9.84" y="89.41" class="st2">6</text>			</g>
			<g id="shape22-62" transform="translate(367.937,-73.9843)">
				<title>工作表.22</title>
				<desc>7</desc>
				<rect x="0" y="75.0746" width="24.378" height="22.6772" class="st1"/>
				<text x="9.84" y="89.41" class="st2">7</text>			</g>
			<g id="shape23-65" transform="translate(415.843,-73.9843)">
				<title>工作表.23</title>
				<desc>8</desc>
				<rect x="0" y="75.0746" width="24.378" height="22.6772" class="st1"/>
				<text x="9.84" y="89.41" class="st2">8</text>			</g>
			<g id="shape24-68" transform="translate(463.89,-73.9843)">
				<title>工作表.24</title>
				<desc>9</desc>
				<rect x="0" y="75.0746" width="24.378" height="22.6772" class="st1"/>
				<text x="9.84" y="89.41" class="st2">9</text>			</g>
			<g id="shape25-71" transform="translate(511.795,-73.9843)">
				<title>工作表.25</title>
				<desc>10</desc>
				<rect x="0" y="75.0746" width="24.378" height="22.6772" class="st1"/>
				<text x="7.49" y="89.41" class="st2">10</text>			</g>
			<g id="shape26-74" transform="translate(527.811,-37.4173)">
				<title>工作表.26</title>
				<desc>10</desc>
				<rect x="0" y="75.0746" width="24.378" height="22.6772" class="st1"/>
				<text x="7.49" y="89.41" class="st2">10</text>			</g>
			<g id="shape27-77" transform="translate(527.811,-0.850394)">
				<title>工作表.27</title>
				<desc>7</desc>
				<rect x="0" y="75.0746" width="24.378" height="22.6772" class="st1"/>
				<text x="9.84" y="89.41" class="st2">7</text>			</g>
			<g id="shape28-80" transform="translate(479.906,-37.4173)">
				<title>工作表.28</title>
				<desc>3</desc>
				<rect x="0" y="75.0746" width="24.378" height="22.6772" class="st1"/>
				<text x="9.84" y="89.41" class="st2">3</text>			</g>
			<g id="shape29-83" transform="translate(479.906,-0.850394)">
				<title>工作表.29</title>
				<desc>2</desc>
				<rect x="0" y="75.0746" width="24.378" height="22.6772" class="st1"/>
				<text x="9.84" y="89.41" class="st2">2</text>			</g>
			<g id="shape30-86" transform="translate(431.717,-37.4173)">
				<title>工作表.30</title>
				<desc>8</desc>
				<rect x="0" y="75.0746" width="24.378" height="22.6772" class="st1"/>
				<text x="9.84" y="89.41" class="st2">8</text>			</g>
			<g id="shape31-89" transform="translate(431.717,-0.850394)">
				<title>工作表.31</title>
				<desc>8</desc>
				<rect x="0" y="75.0746" width="24.378" height="22.6772" class="st1"/>
				<text x="9.84" y="89.41" class="st2">8</text>			</g>
			<g id="shape32-92" transform="translate(383.811,-37.4173)">
				<title>工作表.32</title>
				<desc>9</desc>
				<rect x="0" y="75.0746" width="24.378" height="22.6772" class="st1"/>
				<text x="9.84" y="89.41" class="st2">9</text>			</g>
			<g id="shape33-95" transform="translate(383.811,-0.850394)">
				<title>工作表.33</title>
				<desc>10</desc>
				<rect x="0" y="75.0746" width="24.378" height="22.6772" class="st1"/>
				<text x="7.49" y="89.41" class="st2">10</text>			</g>
			<g id="shape34-98" transform="translate(335.764,-37.4173)">
				<title>工作表.34</title>
				<desc>4</desc>
				<rect x="0" y="75.0746" width="24.378" height="22.6772" class="st1"/>
				<text x="9.84" y="89.41" class="st2">4</text>			</g>
			<g id="shape35-101" transform="translate(335.764,-0.850394)">
				<title>工作表.35</title>
				<desc>5</desc>
				<rect x="0" y="75.0746" width="24.378" height="22.6772" class="st1"/>
				<text x="9.84" y="89.41" class="st2">5</text>			</g>
			<g id="shape36-104" transform="translate(287.858,-37.4173)">
				<title>工作表.36</title>
				<desc>5</desc>
				<rect x="0" y="75.0746" width="24.378" height="22.6772" class="st1"/>
				<text x="9.84" y="89.41" class="st2">5</text>			</g>
			<g id="shape37-107" transform="translate(287.858,-0.850394)">
				<title>工作表.37</title>
				<desc>4</desc>
				<rect x="0" y="75.0746" width="24.378" height="22.6772" class="st1"/>
				<text x="9.84" y="89.41" class="st2">4</text>			</g>
			<g id="group42-110" transform="translate(95.811,-73.9843)">
				<title>工作表.42</title>
				<g id="shape1-111">
					<title>工作表.1</title>
					<desc>捨、　戒、　忍、　進、　定、　慧、　願、　護、　喜、　頂</desc>
					<rect x="0" y="75.0746" width="488.126" height="22.6772" class="st1"/>
					<text x="4" y="91.21" class="st3">捨、　戒、　忍、　進、　定、　慧、　願、　護、　喜、　頂</text>				</g>
			</g>
		</g>
	</g>
</svg>
