<?xml version="1.0" encoding="UTF-8" standalone="no"?>
<!DOCTYPE svg PUBLIC "-//W3C//DTD SVG 1.1//EN" "http://www.w3.org/Graphics/SVG/1.1/DTD/svg11.dtd">
<!-- 由 Microsoft Visio, SVG Export 產生 y37.0337-h.svg 頁-1 -->
<svg xmlns="http://www.w3.org/2000/svg" xmlns:xlink="http://www.w3.org/1999/xlink" xmlns:ev="http://www.w3.org/2001/xml-events"
		width="7.9238in" height="6.97892in" viewBox="0 0 570.514 502.482" xml:space="preserve" color-interpolation-filters="sRGB"
		class="st7">
	<style type="text/css">
	<![CDATA[
		.st1 {fill:none;stroke:none;stroke-linecap:round;stroke-linejoin:round;stroke-width:0.75}
		.st2 {fill:#000000;font-family:新細明體;font-size:1.33333em}
		.st3 {font-family:Times New Roman;font-size:1em}
		.st4 {fill:#000000;font-family:Times New Roman;font-size:1.33333em}
		.st5 {font-family:新細明體;font-size:1em}
		.st6 {stroke:#000000;stroke-linecap:round;stroke-linejoin:round;stroke-width:1}
		.st7 {fill:none;fill-rule:evenodd;font-size:12px;overflow:visible;stroke-linecap:square;stroke-miterlimit:3}
	]]>
	</style>

	<g>
		<title>頁-1</title>
		<g id="group59-1" transform="translate(0.375,-0.375)">
			<title>工作表.59</title>
			<g id="shape1-2" transform="translate(2.83465,-425.197)">
				<title>工作表.1</title>
				<desc>上座部</desc>
				<rect x="0" y="482.64" width="56.6929" height="19.8425" class="st1"/>
				<text x="4.35" y="497.36" class="st2">上座部</text>			</g>
			<g id="shape2-5" transform="translate(4.25197,-403.937)">
				<title>工作表.2</title>
				<desc>Sthavira﹚</desc>
				<rect x="0" y="482.64" width="93.5433" height="19.8425" class="st1"/>
				<text x="4.11" y="497.54" class="st2">（<tspan class="st3">Sthavira</tspan>﹚</text>			</g>
			<g id="shape3-9" transform="translate(130.394,-467.717)">
				<title>工作表.3</title>
				<desc>說一切有部</desc>
				<rect x="0" y="482.64" width="90.7087" height="19.8425" class="st1"/>
				<text x="5.35" y="497.36" class="st2">說一切有部</text>			</g>
			<g id="shape4-12" transform="translate(127.559,-446.457)">
				<title>工作表.4</title>
				<desc>Sarvāstivādin</desc>
				<rect x="0" y="482.64" width="127.559" height="19.8425" class="st1"/>
				<text x="4.23" y="497.54" class="st2">（<tspan class="st3">Sarvāstivādin</tspan>）</text>			</g>
			<g id="shape5-16" transform="translate(286.299,-481.89)">
				<title>工作表.5</title>
				<desc>根本說一切有部Mūlasarvāstivādin</desc>
				<rect x="0" y="482.64" width="283.465" height="19.8425" class="st1"/>
				<text x="10.64" y="497.54" class="st2">根本說一切有部（<tspan class="st3">Mūlasarvāstivādin</tspan>）</text>			</g>
			<g id="shape6-20" transform="translate(287.717,-453.543)">
				<title>工作表.6</title>
				<desc>說經部Sautrāntika</desc>
				<rect x="0" y="482.64" width="170.079" height="19.8425" class="st1"/>
				<text x="8.61" y="497.54" class="st2">說經部（<tspan class="st3">Sautrāntika</tspan>）</text>			</g>
			<g id="shape7-24" transform="translate(131.811,-382.677)">
				<title>工作表.7</title>
				<desc>犢子部</desc>
				<rect x="0" y="482.64" width="56.6929" height="19.8425" class="st1"/>
				<text x="4.35" y="497.36" class="st2">犢子部</text>			</g>
			<g id="shape8-27" transform="translate(109.134,-361.417)">
				<title>工作表.8</title>
				<desc>Vātsīputrīya</desc>
				<rect x="0" y="482.64" width="127.559" height="19.8425" class="st1"/>
				<text x="8.23" y="497.54" class="st2">（<tspan class="st3">Vātsīputrīya</tspan>）</text>			</g>
			<g id="shape9-31" transform="translate(286.299,-425.197)">
				<title>工作表.9</title>
				<desc>正量部Sammatīya</desc>
				<rect x="0" y="482.64" width="175.748" height="19.8425" class="st1"/>
				<text x="9.8" y="497.54" class="st2">正量部（<tspan class="st3">Sammatīya</tspan> ）</text>			</g>
			<g id="shape10-35" transform="translate(290.551,-396.85)">
				<title>工作表.10</title>
				<desc>法上部Dharmottarīya</desc>
				<rect x="0" y="482.64" width="184.252" height="19.8425" class="st1"/>
				<text x="5.48" y="497.54" class="st2">法上部（<tspan class="st3">Dharmottarīya</tspan>）</text>			</g>
			<g id="shape11-39" transform="translate(290.551,-368.504)">
				<title>工作表.11</title>
				<desc>賢冑部Bhadrayānīya</desc>
				<rect x="0" y="482.64" width="184.252" height="19.8425" class="st1"/>
				<text x="5.7" y="497.54" class="st2">賢冑部（<tspan class="st3">Bhadrayānīya</tspan><tspan class="st3"> </tspan>）</text>			</g>
			<g id="shape12-44" transform="translate(283.465,-340.157)">
				<title>工作表.12</title>
				<desc>六城部Ṣaṇṇagarika</desc>
				<rect x="0" y="482.64" width="184.252" height="19.8425" class="st1"/>
				<text x="12.59" y="497.54" class="st2">六城部（<tspan class="st3">Ṣaṇṇagarika</tspan>）</text>			</g>
			<g id="shape13-48" transform="translate(2.83465,-212.598)">
				<title>工作表.13</title>
				<desc>大眾部</desc>
				<rect x="0" y="482.64" width="56.6929" height="19.8425" class="st1"/>
				<text x="4.35" y="497.36" class="st2">大眾部</text>			</g>
			<g id="shape22-51" transform="translate(130.394,-113.386)">
				<title>工作表.22</title>
				<desc>牛住部Gokulika</desc>
				<rect x="0" y="482.64" width="153.071" height="19.8425" class="st1"/>
				<text x="6.76" y="497.54" class="st2">牛住部（<tspan class="st3">Gokulika</tspan>）</text>			</g>
			<g id="shape23-55" transform="translate(2.83465,-42.5197)">
				<title>工作表.23</title>
				<desc>分別說部</desc>
				<rect x="0" y="482.64" width="73.7008" height="19.8425" class="st1"/>
				<text x="4.85" y="497.36" class="st2">分別說部</text>			</g>
			<g id="shape24-58" transform="translate(2.83465,-21.2598)">
				<title>工作表.24</title>
				<desc>Vibhajyavā</desc>
				<rect x="0" y="482.64" width="99.2126" height="19.8425" class="st1"/>
				<text x="4.73" y="497.54" class="st2">（<tspan class="st3">Vibhajyavā</tspan></text>			</g>
			<g id="shape25-62" transform="translate(127.559,-85.0394)">
				<title>工作表.25</title>
				<desc>化地部Mahīśāsaka</desc>
				<rect x="0" y="482.64" width="175.748" height="19.8425" class="st1"/>
				<text x="10.11" y="497.54" class="st2">化地部（<tspan class="st3">Mahīśāsaka</tspan>）</text>			</g>
			<g id="shape14-66" transform="translate(-3.19744E-14,-191.339)">
				<title>工作表.14</title>
				<desc>Mahāsāṃgh</desc>
				<rect x="0" y="482.64" width="107.717" height="19.8425" class="st1"/>
				<text x="6.76" y="497.54" class="st2">（<tspan class="st3">Mahāsāṃgh</tspan></text>			</g>
			<g id="shape26-70" transform="translate(130.394,-56.6929)">
				<title>工作表.26</title>
				<desc>飲光部Kāśyapīya</desc>
				<rect x="0" y="482.64" width="164.409" height="19.8425" class="st1"/>
				<text x="8.44" y="497.54" class="st2">飲光部（<tspan class="st3">Kāśyapīya</tspan>）</text>			</g>
			<g id="shape27-74" transform="translate(133.228,-28.3465)">
				<title>工作表.27</title>
				<desc>法藏部Dharmaguptaka</desc>
				<rect x="0" y="482.64" width="192.756" height="19.8425" class="st1"/>
				<text x="5.29" y="497.54" class="st2">法藏部（<tspan class="st3">Dharmaguptaka</tspan>）</text>			</g>
			<g id="shape28-78" transform="translate(133.228,0)">
				<title>工作表.28</title>
				<desc>赤銅鍱部Tāmraśāṭīya</desc>
				<rect x="0" y="482.64" width="184.252" height="19.8425" class="st1"/>
				<text x="4.59" y="497.54" class="st2">赤銅鍱部（<tspan class="st3">Tāmraśāṭīya</tspan>）</text>			</g>
			<g id="shape15-82" transform="translate(128.976,-314.646)">
				<title>工作表.15</title>
				<desc>根本大眾部Mūlamahāsāṃghika</desc>
				<rect x="0" y="482.64" width="255.118" height="19.8425" class="st1"/>
				<text x="6.69" y="497.54" class="st2">根本大眾部（<tspan class="st3">Mūlamahāsāṃghika</tspan>）</text>			</g>
			<g id="shape16-86" transform="translate(127.559,-283.465)">
				<title>工作表.16</title>
				<desc>東山部Pūrvaśaila</desc>
				<rect x="0" y="482.64" width="164.409" height="19.8425" class="st1"/>
				<text x="8.88" y="497.54" class="st2">東山部（<tspan class="st3">Pūrvaśaila</tspan>）</text>			</g>
			<g id="shape17-90" transform="translate(128.976,-255.118)">
				<title>工作表.17</title>
				<desc>西山部Aparaśaila</desc>
				<rect x="0" y="482.64" width="164.409" height="19.8425" class="st1"/>
				<text x="8" y="497.54" class="st2">西山部（<tspan class="st3">Aparaśaila</tspan>）</text>			</g>
			<g id="shape18-94" transform="translate(130.394,-226.772)">
				<title>工作表.18</title>
				<desc>王山部Rājagirika</desc>
				<rect x="0" y="482.64" width="158.74" height="19.8425" class="st1"/>
				<text x="6.05" y="497.54" class="st2">王山部（<tspan class="st3">Rājagirika</tspan>）</text>			</g>
			<g id="shape19-98" transform="translate(131.811,-198.425)">
				<title>工作表.19</title>
				<desc>雪山部Haimavata</desc>
				<rect x="0" y="482.64" width="158.74" height="19.8425" class="st1"/>
				<text x="4.72" y="497.54" class="st2">雪山部（<tspan class="st3">Haimavata</tspan>）</text>			</g>
			<g id="shape20-102" transform="translate(128.976,-170.079)">
				<title>工作表.20</title>
				<desc>制多部Caitika</desc>
				<rect x="0" y="482.64" width="141.732" height="19.8425" class="st1"/>
				<text x="7.76" y="497.54" class="st2">制多部（<tspan class="st3">Caitika</tspan>）</text>			</g>
			<g id="shape21-106" transform="translate(131.811,-141.732)">
				<title>工作表.21</title>
				<desc>義成部Siddhārthika</desc>
				<rect x="0" y="482.64" width="175.748" height="19.8425" class="st1"/>
				<text x="4.99" y="497.54" class="st2">義成部（<tspan class="st3">Siddhārthika</tspan><tspan class="st3"> </tspan>）</text>			</g>
			<g id="shape31-111" transform="translate(14.1732,-7.08661)">
				<title>工作表.31</title>
				<desc>din</desc>
				<rect x="0" y="482.64" width="56.6929" height="19.8425" class="st1"/>
				<text x="10.12" y="497.54" class="st4">din<tspan class="st5">）</tspan></text>			</g>
			<g id="shape32-115" transform="translate(11.3386,-177.165)">
				<title>工作表.32</title>
				<desc>ika</desc>
				<rect x="0" y="482.64" width="56.6929" height="19.8425" class="st1"/>
				<text x="10.57" y="497.54" class="st4">ika<tspan class="st5">）</tspan></text>			</g>
			<g id="shape33-119" transform="translate(116.22,-392.598)">
				<title>工作表.33</title>
				<path d="M0 502.48 L14.17 502.48" class="st6"/>
			</g>
			<g id="shape34-122" transform="translate(73.7008,-52.4409)">
				<title>工作表.34</title>
				<path d="M0 502.48 L42.52 502.48" class="st6"/>
			</g>
			<g id="shape35-125" transform="translate(-386.262,492.561) rotate(-90)">
				<title>工作表.35</title>
				<path d="M0 502.48 L85.04 502.48" class="st6"/>
			</g>
			<g id="shape36-128" transform="translate(116.22,-9.92126)">
				<title>工作表.36</title>
				<path d="M0 502.48 L14.17 502.48" class="st6"/>
			</g>
			<g id="shape37-131" transform="translate(116.22,-94.9606)">
				<title>工作表.37</title>
				<path d="M0 502.48 L14.17 502.48" class="st6"/>
			</g>
			<g id="shape38-134" transform="translate(59.5276,-222.52)">
				<title>工作表.38</title>
				<path d="M0 502.48 L56.69 502.48" class="st6"/>
			</g>
			<g id="shape39-137" transform="translate(116.22,-477.638)">
				<title>工作表.39</title>
				<path d="M0 502.48 L14.17 502.48" class="st6"/>
			</g>
			<g id="shape40-140" transform="translate(116.22,-123.307)">
				<title>工作表.40</title>
				<path d="M0 502.48 L14.17 502.48" class="st6"/>
			</g>
			<g id="shape41-143" transform="translate(116.22,-321.732)">
				<title>工作表.41</title>
				<path d="M0 502.48 L14.17 502.48" class="st6"/>
			</g>
			<g id="shape42-146" transform="translate(-386.262,379.175) rotate(-90)">
				<title>工作表.42</title>
				<path d="M0 502.48 L198.43 502.48" class="st6"/>
			</g>
			<g id="shape43-149" transform="translate(59.5276,-435.118)">
				<title>工作表.43</title>
				<path d="M0 502.48 L56.69 502.48" class="st6"/>
			</g>
			<g id="shape44-152" transform="translate(-386.262,109.884) rotate(-90)">
				<title>工作表.44</title>
				<path d="M0 502.48 L85.04 502.48" class="st6"/>
			</g>
			<g id="shape45-155" transform="translate(188.504,-392.598)">
				<title>工作表.45</title>
				<path d="M0 502.48 L83.62 502.48" class="st6"/>
			</g>
			<g id="shape46-158" transform="translate(215.433,-477.638)">
				<title>工作表.46</title>
				<path d="M0 502.48 L56.69 502.48" class="st6"/>
			</g>
			<g id="shape47-161" transform="translate(272.126,-350.079)">
				<title>工作表.47</title>
				<path d="M0 502.48 L14.17 502.48" class="st6"/>
			</g>
			<g id="shape48-164" transform="translate(272.126,-435.118)">
				<title>工作表.48</title>
				<path d="M0 502.48 L14.17 502.48" class="st6"/>
			</g>
			<g id="shape49-167" transform="translate(272.126,-463.465)">
				<title>工作表.49</title>
				<path d="M0 502.48 L14.17 502.48" class="st6"/>
			</g>
			<g id="shape50-170" transform="translate(272.126,-491.811)">
				<title>工作表.50</title>
				<path d="M0 502.48 L14.17 502.48" class="st6"/>
			</g>
			<g id="shape51-173" transform="translate(-230.356,152.404) rotate(-90)">
				<title>工作表.51</title>
				<path d="M0 502.48 L85.04 502.48" class="st6"/>
			</g>
			<g id="shape52-176" transform="translate(-230.356,39.0177) rotate(-90)">
				<title>工作表.52</title>
				<path d="M0 502.48 L28.35 502.48" class="st6"/>
			</g>
			<g id="shape57-179" transform="translate(104.882,-31.1811)">
				<title>工作表.57</title>
				<path d="M0 502.48 L5.67 502.48" class="st6"/>
			</g>
			<g id="shape58-182" transform="translate(104.882,-201.26)">
				<title>工作表.58</title>
				<path d="M0 502.48 L5.67 502.48" class="st6"/>
			</g>
		</g>
	</g>
</svg>
