<?xml version="1.0" encoding="UTF-8" standalone="no"?>
<!DOCTYPE svg PUBLIC "-//W3C//DTD SVG 1.1//EN" "http://www.w3.org/Graphics/SVG/1.1/DTD/svg11.dtd">
<!-- 由 Microsoft Visio, SVG Export 產生 y37.0983.svg 頁-1 -->
<svg xmlns="http://www.w3.org/2000/svg" xmlns:xlink="http://www.w3.org/1999/xlink" xmlns:ev="http://www.w3.org/2001/xml-events"
		width="9.48066in" height="5.9194in" viewBox="0 0 682.607 426.197" xml:space="preserve" color-interpolation-filters="sRGB"
		class="st4">
	<style type="text/css">
	<![CDATA[
		.st1 {fill:none;stroke:none;stroke-linecap:round;stroke-linejoin:round;stroke-width:0.75}
		.st2 {fill:#000000;font-family:新細明體;font-size:1.33333em}
		.st3 {stroke:#000000;stroke-linecap:round;stroke-linejoin:round;stroke-width:1}
		.st4 {fill:none;fill-rule:evenodd;font-size:12px;overflow:visible;stroke-linecap:square;stroke-miterlimit:3}
	]]>
	</style>

	<g>
		<title>頁-1</title>
		<g id="group150-1" transform="translate(0.375,-0.5)">
			<title>工作表.150</title>
			<g id="shape19-2" transform="translate(170.079,-401.102)">
				<title>工作表.19</title>
				<desc>《離垢施女經》</desc>
				<rect x="0" y="406.354" width="127.559" height="19.8425" class="st1"/>
				<text x="7.78" y="421.08" class="st2">《離垢施女經》</text>			</g>
			<g id="shape20-5" transform="translate(301.89,-401.102)">
				<title>工作表.20</title>
				<desc>《首楞嚴三昧經》</desc>
				<rect x="0" y="406.354" width="136.063" height="19.8425" class="st1"/>
				<text x="4.03" y="421.08" class="st2">《首楞嚴三昧經》</text>			</g>
			<g id="shape21-8" transform="translate(442.205,-401.102)">
				<title>工作表.21</title>
				<desc>《維摩詰經》</desc>
				<rect x="0" y="406.354" width="104.882" height="19.8425" class="st1"/>
				<text x="4.44" y="421.08" class="st2">《維摩詰經》</text>			</g>
			<g id="shape22-11" transform="translate(552.756,-401.102)">
				<title>工作表.22</title>
				<desc>《須真天子經》</desc>
				<rect x="0" y="406.354" width="127.559" height="19.8425" class="st1"/>
				<text x="7.78" y="421.08" class="st2">《須真天子經》</text>			</g>
			<g id="shape24-14" transform="translate(89.2913,-372.756)">
				<title>工作表.24</title>
				<desc>修行之縛</desc>
				<rect x="0" y="406.354" width="73.7008" height="19.8425" class="st1"/>
				<text x="4.85" y="421.08" class="st2">修行之縛</text>			</g>
			<g id="shape25-17" transform="translate(188.504,-372.756)">
				<title>工作表.25</title>
				<desc>知足</desc>
				<rect x="0" y="406.354" width="42.5197" height="19.8425" class="st1"/>
				<text x="5.26" y="421.08" class="st2">知足</text>			</g>
			<g id="shape26-20" transform="translate(317.48,-372.756)">
				<title>工作表.26</title>
				<desc>頭陀</desc>
				<rect x="0" y="406.354" width="42.5197" height="19.8425" class="st1"/>
				<text x="5.26" y="421.08" class="st2">頭陀</text>			</g>
			<g id="shape27-23" transform="translate(457.795,-374.173)">
				<title>工作表.27</title>
				<desc>乞食</desc>
				<rect x="0" y="406.354" width="42.5197" height="19.8425" class="st1"/>
				<text x="5.26" y="421.08" class="st2">乞食</text>			</g>
			<g id="shape28-26" transform="translate(572.598,-372.756)">
				<title>工作表.28</title>
				<desc>八解脫</desc>
				<rect x="0" y="406.354" width="56.6929" height="19.8425" class="st1"/>
				<text x="4.35" y="421.08" class="st2">八解脫</text>			</g>
			<g id="shape30-29" transform="translate(89.2913,-344.409)">
				<title>工作表.30</title>
				<desc>福田</desc>
				<rect x="0" y="406.354" width="42.5197" height="19.8425" class="st1"/>
				<text x="5.26" y="421.08" class="st2">福田</text>			</g>
			<g id="shape31-32" transform="translate(188.504,-343.277)">
				<title>工作表.31</title>
				<desc>空行</desc>
				<rect x="0" y="406.354" width="42.5197" height="19.8425" class="st1"/>
				<text x="5.26" y="421.08" class="st2">空行</text>			</g>
			<g id="shape32-35" transform="translate(457.795,-344.409)">
				<title>工作表.32</title>
				<desc>乞食</desc>
				<rect x="0" y="406.354" width="42.5197" height="19.8425" class="st1"/>
				<text x="5.26" y="421.08" class="st2">乞食</text>			</g>
			<g id="shape33-38" transform="translate(572.598,-344.409)">
				<title>工作表.33</title>
				<desc>知他法行</desc>
				<rect x="0" y="406.354" width="73.7008" height="19.8425" class="st1"/>
				<text x="4.85" y="421.08" class="st2">知他法行</text>			</g>
			<g id="shape35-41" transform="translate(89.2913,-316.063)">
				<title>工作表.35</title>
				<desc>三昧</desc>
				<rect x="0" y="406.354" width="42.5197" height="19.8425" class="st1"/>
				<text x="5.26" y="421.08" class="st2">三昧</text>			</g>
			<g id="shape36-44" transform="translate(188.504,-316.063)">
				<title>工作表.36</title>
				<desc>智慧</desc>
				<rect x="0" y="406.354" width="42.5197" height="19.8425" class="st1"/>
				<text x="5.26" y="421.08" class="st2">智慧</text>			</g>
			<g id="shape37-47" transform="translate(457.795,-316.063)">
				<title>工作表.37</title>
				<desc>宴坐</desc>
				<rect x="0" y="406.354" width="42.5197" height="19.8425" class="st1"/>
				<text x="5.26" y="421.08" class="st2">宴坐</text>			</g>
			<g id="shape39-50" transform="translate(89.2913,-287.717)">
				<title>工作表.39</title>
				<desc>心得自在</desc>
				<rect x="0" y="406.354" width="73.7008" height="19.8425" class="st1"/>
				<text x="4.85" y="421.08" class="st2">心得自在</text>			</g>
			<g id="shape40-53" transform="translate(188.504,-287.717)">
				<title>工作表.40</title>
				<desc>神足</desc>
				<rect x="0" y="406.354" width="42.5197" height="19.8425" class="st1"/>
				<text x="5.26" y="421.08" class="st2">神足</text>			</g>
			<g id="shape41-56" transform="translate(317.48,-287.717)">
				<title>工作表.41</title>
				<desc>神通</desc>
				<rect x="0" y="406.354" width="42.5197" height="19.8425" class="st1"/>
				<text x="5.26" y="421.08" class="st2">神通</text>			</g>
			<g id="shape42-59" transform="translate(457.795,-287.717)">
				<title>工作表.42</title>
				<desc>為白衣說法</desc>
				<rect x="0" y="406.354" width="90.7087" height="19.8425" class="st1"/>
				<text x="5.35" y="421.08" class="st2">為白衣說法</text>			</g>
			<g id="shape44-62" transform="translate(89.2913,-259.37)">
				<title>工作表.44</title>
				<desc>說法</desc>
				<rect x="0" y="406.354" width="42.5197" height="19.8425" class="st1"/>
				<text x="5.26" y="421.08" class="st2">說法</text>			</g>
			<g id="shape46-65" transform="translate(89.2913,-231.024)">
				<title>工作表.46</title>
				<desc>持律</desc>
				<rect x="0" y="406.354" width="42.5197" height="19.8425" class="st1"/>
				<text x="5.26" y="421.08" class="st2">持律</text>			</g>
			<g id="shape47-68" transform="translate(572.598,-231.024)">
				<title>工作表.47</title>
				<desc>持法律</desc>
				<rect x="0" y="406.354" width="90.7087" height="19.8425" class="st1"/>
				<text x="5.35" y="421.08" class="st2">持法（律）</text>			</g>
			<g id="shape49-71" transform="translate(188.504,-202.677)">
				<title>工作表.49</title>
				<desc>行禪</desc>
				<rect x="0" y="406.354" width="42.5197" height="19.8425" class="st1"/>
				<text x="5.26" y="421.08" class="st2">行禪</text>			</g>
			<g id="shape50-74" transform="translate(317.48,-202.677)">
				<title>工作表.50</title>
				<desc>坐禪</desc>
				<rect x="0" y="406.354" width="42.5197" height="19.8425" class="st1"/>
				<text x="5.26" y="421.08" class="st2">坐禪</text>			</g>
			<g id="shape51-77" transform="translate(572.598,-202.677)">
				<title>工作表.51</title>
				<desc>樂襌</desc>
				<rect x="0" y="406.354" width="42.5197" height="19.8425" class="st1"/>
				<text x="5.26" y="421.08" class="st2">樂襌</text>			</g>
			<g id="shape53-80" transform="translate(188.504,-174.331)">
				<title>工作表.53</title>
				<desc>天眼</desc>
				<rect x="0" y="406.354" width="42.5197" height="19.8425" class="st1"/>
				<text x="5.26" y="421.08" class="st2">天眼</text>			</g>
			<g id="shape55-83" transform="translate(188.504,-145.984)">
				<title>工作表.55</title>
				<desc>多聞</desc>
				<rect x="0" y="406.354" width="42.5197" height="19.8425" class="st1"/>
				<text x="5.26" y="421.08" class="st2">多聞</text>			</g>
			<g id="shape56-86" transform="translate(317.48,-145.984)">
				<title>工作表.56</title>
				<desc>侍佛</desc>
				<rect x="0" y="406.354" width="42.5197" height="19.8425" class="st1"/>
				<text x="5.26" y="421.08" class="st2">侍佛</text>			</g>
			<g id="shape58-89" transform="translate(317.48,-117.638)">
				<title>工作表.58</title>
				<desc>樂戒</desc>
				<rect x="0" y="406.354" width="42.5197" height="19.8425" class="st1"/>
				<text x="5.26" y="421.08" class="st2">樂戒</text>			</g>
			<g id="shape59-92" transform="translate(457.795,-117.638)">
				<title>工作表.59</title>
				<desc>出家</desc>
				<rect x="0" y="406.354" width="42.5197" height="19.8425" class="st1"/>
				<text x="5.26" y="421.08" class="st2">出家</text>			</g>
			<g id="shape60-95" transform="translate(572.598,-117.638)">
				<title>工作表.60</title>
				<desc>淨戒</desc>
				<rect x="0" y="406.354" width="42.5197" height="19.8425" class="st1"/>
				<text x="5.26" y="421.08" class="st2">淨戒</text>			</g>
			<g id="shape62-98" transform="translate(459.213,-89.2913)">
				<title>工作表.62</title>
				<desc>敷演法</desc>
				<rect x="0" y="406.354" width="56.6929" height="19.8425" class="st1"/>
				<text x="4.35" y="421.08" class="st2">敷演法</text>			</g>
			<g id="shape63-101" transform="translate(572.598,-89.2913)">
				<title>工作表.63</title>
				<desc>分別諸法</desc>
				<rect x="0" y="406.354" width="73.7008" height="19.8425" class="st1"/>
				<text x="4.85" y="421.08" class="st2">分別諸法</text>			</g>
			<g id="shape64-104" transform="translate(572.598,-60.9449)">
				<title>工作表.64</title>
				<desc>諸根寂定</desc>
				<rect x="0" y="406.354" width="73.7008" height="19.8425" class="st1"/>
				<text x="4.85" y="421.08" class="st2">諸根寂定</text>			</g>
			<g id="shape68-107" transform="translate(572.598,-32.5984)">
				<title>工作表.68</title>
				<desc>利根</desc>
				<rect x="0" y="406.354" width="42.5197" height="19.8425" class="st1"/>
				<text x="5.26" y="421.08" class="st2">利根</text>			</g>
			<g id="shape69-110" transform="translate(572.598,-4.25197)">
				<title>工作表.69</title>
				<desc>四無礙解</desc>
				<rect x="0" y="406.354" width="73.7008" height="19.8425" class="st1"/>
				<text x="4.85" y="421.08" class="st2">四無礙解</text>			</g>
			<g id="shape18-113" transform="translate(72.2835,-401.102)">
				<title>工作表.18</title>
				<desc>《魔逆經》</desc>
				<rect x="0" y="406.354" width="90.7087" height="19.8425" class="st1"/>
				<text x="5.35" y="421.08" class="st2">《魔逆經》</text>			</g>
			<g id="shape23-116" transform="translate(1.41732,-372.756)">
				<title>工作表.23</title>
				<desc>大迦葉</desc>
				<rect x="0" y="406.354" width="56.6929" height="19.8425" class="st1"/>
				<text x="4.35" y="421.08" class="st2">大迦葉</text>			</g>
			<g id="shape29-119" transform="translate(1.41732,-344.409)">
				<title>工作表.29</title>
				<desc>須菩提</desc>
				<rect x="0" y="406.354" width="56.6929" height="19.8425" class="st1"/>
				<text x="4.35" y="421.08" class="st2">須菩提</text>			</g>
			<g id="shape34-122" transform="translate(1.41732,-316.063)">
				<title>工作表.34</title>
				<desc>舍利弗</desc>
				<rect x="0" y="406.354" width="56.6929" height="19.8425" class="st1"/>
				<text x="4.35" y="421.08" class="st2">舍利弗</text>			</g>
			<g id="shape38-125" transform="translate(1.41732,-287.717)">
				<title>工作表.38</title>
				<desc>目犍連</desc>
				<rect x="0" y="406.354" width="56.6929" height="19.8425" class="st1"/>
				<text x="4.35" y="421.08" class="st2">目犍連</text>			</g>
			<g id="shape43-128" transform="translate(1.41732,-259.37)">
				<title>工作表.43</title>
				<desc>富樓那</desc>
				<rect x="0" y="406.354" width="56.6929" height="19.8425" class="st1"/>
				<text x="4.35" y="421.08" class="st2">富樓那</text>			</g>
			<g id="shape45-131" transform="translate(1.41732,-231.024)">
				<title>工作表.45</title>
				<desc>優波離</desc>
				<rect x="0" y="406.354" width="56.6929" height="19.8425" class="st1"/>
				<text x="4.35" y="421.08" class="st2">優波離</text>			</g>
			<g id="shape48-134" transform="translate(1.41732,-202.677)">
				<title>工作表.48</title>
				<desc>離婆多</desc>
				<rect x="0" y="406.354" width="56.6929" height="19.8425" class="st1"/>
				<text x="4.35" y="421.08" class="st2">離婆多</text>			</g>
			<g id="shape52-137" transform="translate(1.41732,-174.331)">
				<title>工作表.52</title>
				<desc>阿那律</desc>
				<rect x="0" y="406.354" width="56.6929" height="19.8425" class="st1"/>
				<text x="4.35" y="421.08" class="st2">阿那律</text>			</g>
			<g id="shape54-140" transform="translate(3.19744E-14,-145.984)">
				<title>工作表.54</title>
				<desc>阿難</desc>
				<rect x="0" y="406.354" width="42.5197" height="19.8425" class="st1"/>
				<text x="5.26" y="421.08" class="st2">阿難</text>			</g>
			<g id="shape57-143" transform="translate(1.41732,-117.638)">
				<title>工作表.57</title>
				<desc>羅睺羅</desc>
				<rect x="0" y="406.354" width="56.6929" height="19.8425" class="st1"/>
				<text x="4.35" y="421.08" class="st2">羅睺羅</text>			</g>
			<g id="shape61-146" transform="translate(1.41732,-89.2913)">
				<title>工作表.61</title>
				<desc>迦旃延</desc>
				<rect x="0" y="406.354" width="56.6929" height="19.8425" class="st1"/>
				<text x="4.35" y="421.08" class="st2">迦旃延</text>			</g>
			<g id="shape65-149" transform="translate(1.41732,-60.9449)">
				<title>工作表.65</title>
				<desc>薄拘羅</desc>
				<rect x="0" y="406.354" width="56.6929" height="19.8425" class="st1"/>
				<text x="4.35" y="421.08" class="st2">薄拘羅</text>			</g>
			<g id="shape66-152" transform="translate(1.41732,-32.5984)">
				<title>工作表.66</title>
				<desc>央掘魔</desc>
				<rect x="0" y="406.354" width="56.6929" height="19.8425" class="st1"/>
				<text x="4.35" y="421.08" class="st2">央掘魔</text>			</g>
			<g id="shape67-155" transform="translate(1.41732,-4.25197)">
				<title>工作表.67</title>
				<desc>拘絺羅</desc>
				<rect x="0" y="406.354" width="56.6929" height="19.8425" class="st1"/>
				<text x="4.35" y="421.08" class="st2">拘絺羅</text>			</g>
			<g id="shape70-158" transform="translate(-353.913,426.197) rotate(-90)">
				<title>工作表.70</title>
				<path d="M0 426.2 L425.2 426.2" class="st3"/>
			</g>
			<g id="shape72-161" transform="translate(-254.701,426.197) rotate(-90)">
				<title>工作表.72</title>
				<path d="M0 426.2 L425.2 426.2" class="st3"/>
			</g>
			<g id="shape73-164" transform="translate(-128.559,426.197) rotate(-90)">
				<title>工作表.73</title>
				<path d="M0 426.2 L425.2 426.2" class="st3"/>
			</g>
			<g id="shape74-167" transform="translate(14.5905,426.197) rotate(-90)">
				<title>工作表.74</title>
				<path d="M0 426.2 L425.2 426.2" class="st3"/>
			</g>
			<g id="shape75-170" transform="translate(127.976,426.197) rotate(-90)">
				<title>工作表.75</title>
				<path d="M0 426.2 L425.2 426.2" class="st3"/>
			</g>
			<g id="shape76-173" transform="translate(1.41732,-396.85)">
				<title>工作表.76</title>
				<path d="M0 426.2 L680.31 426.2" class="st3"/>
			</g>
			<g id="shape9-176" transform="translate(75.1181,-372.756)">
				<title>工作表.9</title>
				<desc>1.</desc>
				<rect x="0" y="406.354" width="22.6772" height="19.8425" class="st1"/>
				<text x="5.7" y="421.08" class="st2">1.</text>			</g>
			<g id="shape79-179" transform="translate(75.1181,-344.409)">
				<title>工作表.79</title>
				<desc>2.</desc>
				<rect x="0" y="406.354" width="22.6772" height="19.8425" class="st1"/>
				<text x="5.7" y="421.08" class="st2">2.</text>			</g>
			<g id="shape80-182" transform="translate(75.1181,-316.063)">
				<title>工作表.80</title>
				<desc>3.</desc>
				<rect x="0" y="406.354" width="22.6772" height="19.8425" class="st1"/>
				<text x="5.7" y="421.08" class="st2">3.</text>			</g>
			<g id="shape81-185" transform="translate(75.1181,-287.717)">
				<title>工作表.81</title>
				<desc>4.</desc>
				<rect x="0" y="406.354" width="22.6772" height="19.8425" class="st1"/>
				<text x="5.7" y="421.08" class="st2">4.</text>			</g>
			<g id="shape82-188" transform="translate(75.1181,-259.37)">
				<title>工作表.82</title>
				<desc>5.</desc>
				<rect x="0" y="406.354" width="22.6772" height="19.8425" class="st1"/>
				<text x="5.7" y="421.08" class="st2">5.</text>			</g>
			<g id="shape83-191" transform="translate(75.1181,-231.024)">
				<title>工作表.83</title>
				<desc>6.</desc>
				<rect x="0" y="406.354" width="22.6772" height="19.8425" class="st1"/>
				<text x="5.7" y="421.08" class="st2">6.</text>			</g>
			<g id="shape77-194" transform="translate(188.504,-259.37)">
				<title>工作表.77</title>
				<desc>說法</desc>
				<rect x="0" y="406.354" width="42.5197" height="19.8425" class="st1"/>
				<text x="5.26" y="421.08" class="st2">說法</text>			</g>
			<g id="shape78-197" transform="translate(174.331,-372.756)">
				<title>工作表.78</title>
				<desc>3.</desc>
				<rect x="0" y="406.354" width="22.6772" height="19.8425" class="st1"/>
				<text x="5.7" y="421.08" class="st2">3.</text>			</g>
			<g id="shape84-200" transform="translate(174.331,-344.409)">
				<title>工作表.84</title>
				<desc>4.</desc>
				<rect x="0" y="406.354" width="22.6772" height="19.8425" class="st1"/>
				<text x="5.7" y="421.08" class="st2">4.</text>			</g>
			<g id="shape85-203" transform="translate(174.331,-316.063)">
				<title>工作表.85</title>
				<desc>1.</desc>
				<rect x="0" y="406.354" width="22.6772" height="19.8425" class="st1"/>
				<text x="5.7" y="421.08" class="st2">1.</text>			</g>
			<g id="shape86-206" transform="translate(174.331,-287.717)">
				<title>工作表.86</title>
				<desc>2.</desc>
				<rect x="0" y="406.354" width="22.6772" height="19.8425" class="st1"/>
				<text x="5.7" y="421.08" class="st2">2.</text>			</g>
			<g id="shape87-209" transform="translate(174.331,-259.37)">
				<title>工作表.87</title>
				<desc>5.</desc>
				<rect x="0" y="406.354" width="22.6772" height="19.8425" class="st1"/>
				<text x="5.7" y="421.08" class="st2">5.</text>			</g>
			<g id="shape88-212" transform="translate(174.331,-202.677)">
				<title>工作表.88</title>
				<desc>6.</desc>
				<rect x="0" y="406.354" width="22.6772" height="19.8425" class="st1"/>
				<text x="5.7" y="421.08" class="st2">6.</text>			</g>
			<g id="shape89-215" transform="translate(174.331,-174.331)">
				<title>工作表.89</title>
				<desc>7.</desc>
				<rect x="0" y="406.354" width="22.6772" height="19.8425" class="st1"/>
				<text x="5.7" y="421.08" class="st2">7.</text>			</g>
			<g id="shape90-218" transform="translate(174.331,-145.984)">
				<title>工作表.90</title>
				<desc>8.</desc>
				<rect x="0" y="406.354" width="22.6772" height="19.8425" class="st1"/>
				<text x="5.7" y="421.08" class="st2">8.</text>			</g>
			<g id="shape91-221" transform="translate(317.48,-316.063)">
				<title>工作表.91</title>
				<desc>智慧</desc>
				<rect x="0" y="406.354" width="42.5197" height="19.8425" class="st1"/>
				<text x="5.26" y="421.08" class="st2">智慧</text>			</g>
			<g id="shape92-224" transform="translate(457.795,-259.37)">
				<title>工作表.92</title>
				<desc>說法</desc>
				<rect x="0" y="406.354" width="42.5197" height="19.8425" class="st1"/>
				<text x="5.26" y="421.08" class="st2">說法</text>			</g>
			<g id="shape93-227" transform="translate(317.48,-259.37)">
				<title>工作表.93</title>
				<desc>說法</desc>
				<rect x="0" y="406.354" width="42.5197" height="19.8425" class="st1"/>
				<text x="5.26" y="421.08" class="st2">說法</text>			</g>
			<g id="shape94-230" transform="translate(317.48,-174.331)">
				<title>工作表.94</title>
				<desc>天眼</desc>
				<rect x="0" y="406.354" width="42.5197" height="19.8425" class="st1"/>
				<text x="5.26" y="421.08" class="st2">天眼</text>			</g>
			<g id="shape96-233" transform="translate(317.48,-231.024)">
				<title>工作表.96</title>
				<desc>持律</desc>
				<rect x="0" y="406.354" width="42.5197" height="19.8425" class="st1"/>
				<text x="5.26" y="421.08" class="st2">持律</text>			</g>
			<g id="shape95-236" transform="translate(1.41732,-311.811)">
				<title>工作表.95</title>
				<path d="M0 426.2 L680.31 426.2" class="st3"/>
			</g>
			<g id="shape97-239" transform="translate(1.41732,-340.157)">
				<title>工作表.97</title>
				<path d="M0 426.2 L680.31 426.2" class="st3"/>
			</g>
			<g id="shape98-242" transform="translate(1.41732,-368.504)">
				<title>工作表.98</title>
				<path d="M0 426.2 L680.31 426.2" class="st3"/>
			</g>
			<g id="shape99-245" transform="translate(1.41732,-255.118)">
				<title>工作表.99</title>
				<path d="M0 426.2 L680.31 426.2" class="st3"/>
			</g>
			<g id="shape100-248" transform="translate(1.41732,-226.772)">
				<title>工作表.100</title>
				<path d="M0 426.2 L680.31 426.2" class="st3"/>
			</g>
			<g id="shape101-251" transform="translate(1.41732,-198.425)">
				<title>工作表.101</title>
				<path d="M0 426.2 L680.31 426.2" class="st3"/>
			</g>
			<g id="shape102-254" transform="translate(1.41732,-170.079)">
				<title>工作表.102</title>
				<path d="M0 426.2 L680.31 426.2" class="st3"/>
			</g>
			<g id="shape103-257" transform="translate(1.41732,-283.465)">
				<title>工作表.103</title>
				<path d="M0 426.2 L680.31 426.2" class="st3"/>
			</g>
			<g id="shape104-260" transform="translate(1.41732,-25.5118)">
				<title>工作表.104</title>
				<path d="M0 426.2 L680.31 426.2" class="st3"/>
			</g>
			<g id="shape105-263" transform="translate(1.41732,-56.6929)">
				<title>工作表.105</title>
				<path d="M0 426.2 L680.31 426.2" class="st3"/>
			</g>
			<g id="shape106-266" transform="translate(1.41732,-85.0394)">
				<title>工作表.106</title>
				<path d="M0 426.2 L680.31 426.2" class="st3"/>
			</g>
			<g id="shape107-269" transform="translate(1.41732,-113.386)">
				<title>工作表.107</title>
				<path d="M0 426.2 L680.31 426.2" class="st3"/>
			</g>
			<g id="shape108-272" transform="translate(1.41732,-141.732)">
				<title>工作表.108</title>
				<path d="M0 426.2 L680.31 426.2" class="st3"/>
			</g>
			<g id="shape109-275" transform="translate(301.89,-372.756)">
				<title>工作表.109</title>
				<desc>4.</desc>
				<rect x="0" y="406.354" width="22.6772" height="19.8425" class="st1"/>
				<text x="5.7" y="421.08" class="st2">4.</text>			</g>
			<g id="shape110-278" transform="translate(301.89,-316.063)">
				<title>工作表.110</title>
				<desc>2.</desc>
				<rect x="0" y="406.354" width="22.6772" height="19.8425" class="st1"/>
				<text x="5.7" y="421.08" class="st2">2.</text>			</g>
			<g id="shape111-281" transform="translate(301.89,-287.717)">
				<title>工作表.111</title>
				<desc>3.</desc>
				<rect x="0" y="406.354" width="22.6772" height="19.8425" class="st1"/>
				<text x="5.7" y="421.08" class="st2">3.</text>			</g>
			<g id="shape112-284" transform="translate(301.89,-259.37)">
				<title>工作表.112</title>
				<desc>5.</desc>
				<rect x="0" y="406.354" width="22.6772" height="19.8425" class="st1"/>
				<text x="5.7" y="421.08" class="st2">5.</text>			</g>
			<g id="shape113-287" transform="translate(301.89,-231.024)">
				<title>工作表.113</title>
				<desc>7.</desc>
				<rect x="0" y="406.354" width="22.6772" height="19.8425" class="st1"/>
				<text x="5.7" y="421.08" class="st2">7.</text>			</g>
			<g id="shape114-290" transform="translate(301.89,-202.677)">
				<title>工作表.114</title>
				<desc>9.</desc>
				<rect x="0" y="406.354" width="22.6772" height="19.8425" class="st1"/>
				<text x="5.7" y="421.08" class="st2">9.</text>			</g>
			<g id="shape115-293" transform="translate(301.89,-174.331)">
				<title>工作表.115</title>
				<desc>8.</desc>
				<rect x="0" y="406.354" width="22.6772" height="19.8425" class="st1"/>
				<text x="5.7" y="421.08" class="st2">8.</text>			</g>
			<g id="shape116-296" transform="translate(301.89,-145.984)">
				<title>工作表.116</title>
				<desc>1.</desc>
				<rect x="0" y="406.354" width="22.6772" height="19.8425" class="st1"/>
				<text x="5.7" y="421.08" class="st2">1.</text>			</g>
			<g id="shape117-299" transform="translate(301.89,-117.638)">
				<title>工作表.117</title>
				<desc>6.</desc>
				<rect x="0" y="406.354" width="22.6772" height="19.8425" class="st1"/>
				<text x="5.7" y="421.08" class="st2">6.</text>			</g>
			<g id="shape118-302" transform="translate(457.795,-231.024)">
				<title>工作表.118</title>
				<desc>持律</desc>
				<rect x="0" y="406.354" width="42.5197" height="19.8425" class="st1"/>
				<text x="5.26" y="421.08" class="st2">持律</text>			</g>
			<g id="shape119-305" transform="translate(457.795,-145.984)">
				<title>工作表.119</title>
				<desc>侍佛</desc>
				<rect x="0" y="406.354" width="42.5197" height="19.8425" class="st1"/>
				<text x="5.26" y="421.08" class="st2">侍佛</text>			</g>
			<g id="shape120-308" transform="translate(457.795,-174.331)">
				<title>工作表.120</title>
				<desc>天眼</desc>
				<rect x="0" y="406.354" width="42.5197" height="19.8425" class="st1"/>
				<text x="5.26" y="421.08" class="st2">天眼</text>			</g>
			<g id="shape121-311" transform="translate(443.622,-89.2913)">
				<title>工作表.121</title>
				<desc>6.</desc>
				<rect x="0" y="406.354" width="22.6772" height="19.8425" class="st1"/>
				<text x="5.7" y="421.08" class="st2">6.</text>			</g>
			<g id="shape122-314" transform="translate(443.622,-117.638)">
				<title>工作表.122</title>
				<desc>9.</desc>
				<rect x="0" y="406.354" width="22.6772" height="19.8425" class="st1"/>
				<text x="5.7" y="421.08" class="st2">9.</text>			</g>
			<g id="shape123-317" transform="translate(440.787,-145.984)">
				<title>工作表.123</title>
				<desc>10</desc>
				<rect x="0" y="406.354" width="28.3465" height="19.8425" class="st1"/>
				<text x="6.66" y="421.08" class="st2">10</text>			</g>
			<g id="shape124-320" transform="translate(443.622,-174.331)">
				<title>工作表.124</title>
				<desc>7.</desc>
				<rect x="0" y="406.354" width="22.6772" height="19.8425" class="st1"/>
				<text x="5.7" y="421.08" class="st2">7.</text>			</g>
			<g id="shape125-323" transform="translate(443.622,-231.024)">
				<title>工作表.125</title>
				<desc>8.</desc>
				<rect x="0" y="406.354" width="22.6772" height="19.8425" class="st1"/>
				<text x="5.7" y="421.08" class="st2">8.</text>			</g>
			<g id="shape126-326" transform="translate(443.622,-259.37)">
				<title>工作表.126</title>
				<desc>5.</desc>
				<rect x="0" y="406.354" width="22.6772" height="19.8425" class="st1"/>
				<text x="5.7" y="421.08" class="st2">5.</text>			</g>
			<g id="shape127-329" transform="translate(443.622,-287.717)">
				<title>工作表.127</title>
				<desc>2.</desc>
				<rect x="0" y="406.354" width="22.6772" height="19.8425" class="st1"/>
				<text x="5.7" y="421.08" class="st2">2.</text>			</g>
			<g id="shape128-332" transform="translate(443.622,-316.063)">
				<title>工作表.128</title>
				<desc>1.</desc>
				<rect x="0" y="406.354" width="22.6772" height="19.8425" class="st1"/>
				<text x="5.7" y="421.08" class="st2">1.</text>			</g>
			<g id="shape129-335" transform="translate(443.622,-344.409)">
				<title>工作表.129</title>
				<desc>4.</desc>
				<rect x="0" y="406.354" width="22.6772" height="19.8425" class="st1"/>
				<text x="5.7" y="421.08" class="st2">4.</text>			</g>
			<g id="shape130-338" transform="translate(443.622,-372.756)">
				<title>工作表.130</title>
				<desc>3.</desc>
				<rect x="0" y="406.354" width="22.6772" height="19.8425" class="st1"/>
				<text x="5.7" y="421.08" class="st2">3.</text>			</g>
			<g id="shape131-341" transform="translate(572.598,-316.063)">
				<title>工作表.131</title>
				<desc>智慧</desc>
				<rect x="0" y="406.354" width="42.5197" height="19.8425" class="st1"/>
				<text x="5.26" y="421.08" class="st2">智慧</text>			</g>
			<g id="shape132-344" transform="translate(572.598,-287.717)">
				<title>工作表.132</title>
				<desc>神足</desc>
				<rect x="0" y="406.354" width="42.5197" height="19.8425" class="st1"/>
				<text x="5.26" y="421.08" class="st2">神足</text>			</g>
			<g id="shape133-347" transform="translate(572.598,-259.37)">
				<title>工作表.133</title>
				<desc>說法</desc>
				<rect x="0" y="406.354" width="42.5197" height="19.8425" class="st1"/>
				<text x="5.26" y="421.08" class="st2">說法</text>			</g>
			<g id="shape134-350" transform="translate(572.598,-174.331)">
				<title>工作表.134</title>
				<desc>天眼</desc>
				<rect x="0" y="406.354" width="42.5197" height="19.8425" class="st1"/>
				<text x="5.26" y="421.08" class="st2">天眼</text>			</g>
			<g id="shape135-353" transform="translate(572.598,-145.984)">
				<title>工作表.135</title>
				<desc>多聞</desc>
				<rect x="0" y="406.354" width="42.5197" height="19.8425" class="st1"/>
				<text x="5.26" y="421.08" class="st2">多聞</text>			</g>
			<g id="shape136-356" transform="translate(557.008,-372.756)">
				<title>工作表.136</title>
				<desc>1.</desc>
				<rect x="0" y="406.354" width="22.6772" height="19.8425" class="st1"/>
				<text x="5.7" y="421.08" class="st2">1.</text>			</g>
			<g id="shape137-359" transform="translate(557.008,-344.409)">
				<title>工作表.137</title>
				<desc>4.</desc>
				<rect x="0" y="406.354" width="22.6772" height="19.8425" class="st1"/>
				<text x="5.7" y="421.08" class="st2">4.</text>			</g>
			<g id="shape138-362" transform="translate(557.008,-316.063)">
				<title>工作表.138</title>
				<desc>2.</desc>
				<rect x="0" y="406.354" width="22.6772" height="19.8425" class="st1"/>
				<text x="5.7" y="421.08" class="st2">2.</text>			</g>
			<g id="shape139-365" transform="translate(557.008,-287.717)">
				<title>工作表.139</title>
				<desc>3.</desc>
				<rect x="0" y="406.354" width="22.6772" height="19.8425" class="st1"/>
				<text x="5.7" y="421.08" class="st2">3.</text>			</g>
			<g id="shape140-368" transform="translate(557.008,-259.37)">
				<title>工作表.140</title>
				<desc>5.</desc>
				<rect x="0" y="406.354" width="22.6772" height="19.8425" class="st1"/>
				<text x="5.7" y="421.08" class="st2">5.</text>			</g>
			<g id="shape141-371" transform="translate(557.008,-231.024)">
				<title>工作表.141</title>
				<desc>7.</desc>
				<rect x="0" y="406.354" width="22.6772" height="19.8425" class="st1"/>
				<text x="5.7" y="421.08" class="st2">7.</text>			</g>
			<g id="shape142-374" transform="translate(557.008,-202.677)">
				<title>工作表.142</title>
				<desc>6.</desc>
				<rect x="0" y="406.354" width="22.6772" height="19.8425" class="st1"/>
				<text x="5.7" y="421.08" class="st2">6.</text>			</g>
			<g id="shape143-377" transform="translate(557.008,-174.331)">
				<title>工作表.143</title>
				<desc>8.</desc>
				<rect x="0" y="406.354" width="22.6772" height="19.8425" class="st1"/>
				<text x="5.7" y="421.08" class="st2">8.</text>			</g>
			<g id="shape144-380" transform="translate(554.173,-145.984)">
				<title>工作表.144</title>
				<desc>14</desc>
				<rect x="0" y="406.354" width="28.3465" height="19.8425" class="st1"/>
				<text x="6.66" y="421.08" class="st2">14</text>			</g>
			<g id="shape145-383" transform="translate(554.173,-117.638)">
				<title>工作表.145</title>
				<desc>13</desc>
				<rect x="0" y="406.354" width="28.3465" height="19.8425" class="st1"/>
				<text x="6.66" y="421.08" class="st2">13</text>			</g>
			<g id="shape146-386" transform="translate(554.173,-89.2913)">
				<title>工作表.146</title>
				<desc>11</desc>
				<rect x="0" y="406.354" width="28.3465" height="19.8425" class="st1"/>
				<text x="6.66" y="421.08" class="st2">11</text>			</g>
			<g id="shape147-389" transform="translate(557.008,-60.9449)">
				<title>工作表.147</title>
				<desc>9.</desc>
				<rect x="0" y="406.354" width="22.6772" height="19.8425" class="st1"/>
				<text x="5.7" y="421.08" class="st2">9.</text>			</g>
			<g id="shape148-392" transform="translate(554.173,-32.5984)">
				<title>工作表.148</title>
				<desc>10</desc>
				<rect x="0" y="406.354" width="28.3465" height="19.8425" class="st1"/>
				<text x="6.66" y="421.08" class="st2">10</text>			</g>
			<g id="shape149-395" transform="translate(554.173,-4.25197)">
				<title>工作表.149</title>
				<desc>12</desc>
				<rect x="0" y="406.354" width="28.3465" height="19.8425" class="st1"/>
				<text x="6.66" y="421.08" class="st2">12 </text>			</g>
		</g>
	</g>
</svg>
