<?xml version="1.0" encoding="UTF-8" standalone="no"?>
<!DOCTYPE svg PUBLIC "-//W3C//DTD SVG 1.0//EN" "http://www.w3.org/TR/2001/REC-SVG-20010904/DTD/svg10.dtd">
<!-- 由 Microsoft Visio 11.0, SVG Export, v1.0 產生 y37.0338.svg Page-1 -->
<svg xmlns="http://www.w3.org/2000/svg" xmlns:xlink="http://www.w3.org/1999/xlink" xmlns:ev="http://www.w3.org/2001/xml-events"
		xmlns:v="http://schemas.microsoft.com/visio/2003/SVGExtensions/" width="10.5671in" height="10.4815in"
		viewBox="0 0 760.835 754.665" xml:space="preserve" color-interpolation-filters="sRGB" class="st10">
	<v:documentProperties v:langID="1028" v:metric="true" v:viewMarkup="false">
		<v:userDefs>
			<v:ud v:nameU="msvSubprocessMaster" v:prompt="" v:val="VT4(Box)"/>
			<v:ud v:nameU="msvNoAutoConnect" v:val="VT0(1):26"/>
		</v:userDefs>
	</v:documentProperties>

	<style type="text/css">
	<![CDATA[
		.st1 {fill:none;stroke:none;stroke-linecap:round;stroke-linejoin:round;stroke-width:0.75}
		.st2 {fill:#000000;font-family:新細明體;font-size:1.33333em}
		.st3 {font-family:Times New Roman;font-size:1em}
		.st4 {fill:#000000;font-family:Times New Roman;font-size:1.33333em}
		.st5 {font-family:新細明體;font-size:1em}
		.st6 {stroke:#000000;stroke-linecap:round;stroke-linejoin:round;stroke-width:1}
		.st7 {stroke:#ffffff;stroke-linecap:round;stroke-linejoin:round;stroke-opacity:0;stroke-width:1}
		.st8 {font-size:1em}
		.st9 {stroke:#000000;stroke-dasharray:3,3;stroke-linecap:round;stroke-linejoin:round;stroke-width:1}
		.st10 {fill:none;fill-rule:evenodd;font-size:12px;overflow:visible;stroke-linecap:square;stroke-miterlimit:3}
	]]>
	</style>

	<g v:mID="0" v:index="1" v:groupContext="foregroundPage">
		<title>頁-1</title>
		<v:pageProperties v:drawingScale="0.0393701" v:pageScale="0.0393701" v:drawingUnits="24" v:shadowOffsetX="8.50394"
				v:shadowOffsetY="-8.50394"/>
		<g id="group94-1" transform="translate(-12.8307,733.081) rotate(-90)" v:mID="94" v:groupContext="group">
			<title>工作表.94</title>
			<g id="shape1-2" v:mID="1" v:groupContext="shape" transform="translate(1315.93,60.1772) rotate(90)">
				<title>工作表.1</title>
				<desc>大眾部</desc>
				<v:textBlock v:margins="rect(4,4,4,4)" v:tabSpace="42.5197"/>
				<v:textRect cx="28.3465" cy="726.319" width="56.7" height="56.6929"/>
				<rect x="0" y="697.972" width="56.6929" height="56.6929" class="st1"/>
				<text x="4.35" y="731.12" class="st2" v:langID="1028"><v:paragraph v:horizAlign="1"/><v:tabList/>大眾部</text>			</g>
			<g id="shape2-5" v:mID="2" v:groupContext="shape" transform="translate(1270.57,58.7598) rotate(90)">
				<title>工作表.2</title>
				<desc>Mahāsāṃgh</desc>
				<v:textBlock v:margins="rect(4,4,4,4)" v:tabSpace="42.5197"/>
				<v:textRect cx="52.4409" cy="702.224" width="104.89" height="104.882"/>
				<rect x="0" y="649.783" width="104.882" height="104.882" class="st1"/>
				<text x="5.34" y="707.21" class="st2" v:langID="1028"><v:paragraph v:horizAlign="1"/><v:tabList/>（<tspan
							class="st3" v:langID="1033">Mahāsāṃgh</tspan></text>			</g>
			<g id="shape3-9" v:mID="3" v:groupContext="shape" transform="translate(1276.24,189.154) rotate(90)">
				<title>工作表.3</title>
				<desc>一說部Ekavyāvahārika</desc>
				<v:textBlock v:margins="rect(4,4,4,4)" v:tabSpace="42.5197"/>
				<v:textRect cx="96.378" cy="658.287" width="192.76" height="192.756"/>
				<rect x="0" y="561.909" width="192.756" height="192.756" class="st1"/>
				<text x="4.85" y="663.27" class="st2" v:langID="1028"><v:paragraph v:horizAlign="1"/><v:tabList/>一說部（<tspan
							class="st3" v:langID="1033">Ekavyāvahārika</tspan>）</text>			</g>
			<g id="shape4-13" v:mID="4" v:groupContext="shape" transform="translate(1259.23,400.335) rotate(90)">
				<title>工作表.4</title>
				<desc>多聞部Bahuśrutīya</desc>
				<v:textBlock v:margins="rect(4,4,4,4)" v:tabSpace="42.5197"/>
				<v:textRect cx="85.0394" cy="669.626" width="170.08" height="170.079"/>
				<rect x="0" y="584.587" width="170.079" height="170.079" class="st1"/>
				<text x="6.38" y="674.61" class="st2" v:langID="1028"><v:paragraph v:horizAlign="1"/><v:tabList/>多聞部（<tspan
							class="st3" v:langID="1033">Bahuśrutīya</tspan>）</text>			</g>
			<g id="shape5-17" v:mID="5" v:groupContext="shape" transform="translate(1239.39,187.736) rotate(90)">
				<title>工作表.5</title>
				<desc>牛住部Gokulika</desc>
				<v:textBlock v:margins="rect(4,4,4,4)" v:tabSpace="42.5197"/>
				<v:textRect cx="76.5354" cy="678.13" width="153.08" height="153.071"/>
				<rect x="0" y="601.594" width="153.071" height="153.071" class="st1"/>
				<text x="6.76" y="683.11" class="st2" v:langID="1028"><v:paragraph v:horizAlign="1"/><v:tabList/>牛住部（<tspan
							class="st3" v:langID="1033">Gokulika</tspan>）</text>			</g>
			<g id="shape6-21" v:mID="6" v:groupContext="shape" transform="translate(1223.8,400.335) rotate(90)">
				<title>工作表.6</title>
				<desc>說假部Prajñaptivādin</desc>
				<v:textBlock v:margins="rect(4,4,4,4)" v:tabSpace="42.5197"/>
				<v:textRect cx="92.126" cy="662.539" width="184.26" height="184.252"/>
				<rect x="0" y="570.413" width="184.252" height="184.252" class="st1"/>
				<text x="5.47" y="667.52" class="st2" v:langID="1028"><v:paragraph v:horizAlign="1"/><v:tabList/>說假部（<tspan
							class="st3" v:langID="1033">Prajñaptivādin</tspan>）</text>			</g>
			<g id="shape7-25" v:mID="7" v:groupContext="shape" transform="translate(1219.55,400.335) rotate(90)">
				<title>工作表.7</title>
				<desc>制多部Caitika</desc>
				<v:textBlock v:margins="rect(4,4,4,4)" v:tabSpace="42.5197"/>
				<v:textRect cx="68.0315" cy="686.634" width="136.07" height="136.063"/>
				<rect x="0" y="618.602" width="136.063" height="136.063" class="st1"/>
				<text x="4.93" y="691.62" class="st2" v:langID="1028"><v:paragraph v:horizAlign="1"/><v:tabList/>制多部（<tspan
							class="st3" v:langID="1033">Caitika</tspan>）</text>			</g>
			<g id="shape8-29" v:mID="8" v:groupContext="shape" transform="translate(1201.12,604.429) rotate(90)">
				<title>工作表.8</title>
				<desc>化地部Mahīś</desc>
				<v:textBlock v:margins="rect(4,4,4,4)" v:tabSpace="42.5197"/>
				<v:textRect cx="58.1102" cy="696.555" width="116.23" height="116.22"/>
				<rect x="0" y="638.445" width="116.22" height="116.22" class="st1"/>
				<text x="6.11" y="701.54" class="st2" v:langID="1028"><v:paragraph v:horizAlign="1"/><v:tabList/>化地部（<tspan
							class="st3" v:langID="1033">Mahīś</tspan></text>			</g>
			<g id="shape16-33" v:mID="16" v:groupContext="shape" transform="translate(1023.96,190.571) rotate(90)">
				<title>工作表.16</title>
				<desc>先上座部</desc>
				<v:textBlock v:margins="rect(4,4,4,4)" v:tabSpace="42.5197"/>
				<v:textRect cx="36.8504" cy="717.815" width="73.71" height="73.7008"/>
				<rect x="0" y="680.965" width="73.7008" height="73.7008" class="st1"/>
				<text x="4.85" y="722.62" class="st2" v:langID="1028"><v:paragraph v:horizAlign="1"/><v:tabList/>先上座部</text>			</g>
			<g id="shape17-36" v:mID="17" v:groupContext="shape" transform="translate(991.358,190.571) rotate(90)">
				<title>工作表.17</title>
				<desc>Pūrvasthav</desc>
				<v:textBlock v:margins="rect(4,4,4,4)" v:tabSpace="42.5197"/>
				<v:textRect cx="48.189" cy="706.476" width="96.38" height="96.378"/>
				<rect x="0" y="658.287" width="96.378" height="96.378" class="st1"/>
				<text x="4.64" y="711.46" class="st2" v:langID="1028"><v:paragraph v:horizAlign="1"/><v:tabList/>（<tspan
							class="st3" v:langID="1033">Pūrvasthav</tspan></text>			</g>
			<g id="shape18-40" v:mID="18" v:groupContext="shape" transform="translate(933.248,458.445) rotate(90)">
				<title>工作表.18</title>
				<desc>說轉部Saṃkrāntivādin</desc>
				<v:textBlock v:margins="rect(4,4,4,4)" v:tabSpace="42.5197"/>
				<v:textRect cx="99.2126" cy="655.453" width="198.43" height="198.425"/>
				<rect x="0" y="556.24" width="198.425" height="198.425" class="st1"/>
				<text x="8.56" y="660.44" class="st2" v:langID="1028"><v:paragraph v:horizAlign="1"/><v:tabList/>說轉部（<tspan
							class="st3" v:langID="1033">Saṃkrāntivādin</tspan>）</text>			</g>
			<g id="shape19-44" v:mID="19" v:groupContext="shape" transform="translate(947.421,600.177) rotate(90)">
				<title>工作表.19</title>
				<desc>法上部Dhar</desc>
				<v:textBlock v:margins="rect(4,4,4,4)" v:tabSpace="42.5197"/>
				<v:textRect cx="56.6929" cy="697.972" width="113.39" height="113.386"/>
				<rect x="0" y="641.28" width="113.386" height="113.386" class="st1"/>
				<text x="8.7" y="702.96" class="st2" v:langID="1028"><v:paragraph v:horizAlign="1"/><v:tabList/>法上部（<tspan
							class="st3" v:langID="1033">Dhar</tspan></text>			</g>
			<g id="shape20-48" v:mID="20" v:groupContext="shape" transform="translate(947.421,462.697) rotate(90)">
				<title>工作表.20</title>
				<desc>大山部</desc>
				<v:textBlock v:margins="rect(4,4,4,4)" v:tabSpace="42.5197"/>
				<v:textRect cx="28.3465" cy="726.319" width="56.7" height="56.6929"/>
				<rect x="0" y="697.972" width="56.6929" height="56.6929" class="st1"/>
				<text x="4.35" y="731.12" class="st2" v:langID="1028"><v:paragraph v:horizAlign="1"/><v:tabList/>大山部</text>			</g>
			<g id="shape21-51" v:mID="21" v:groupContext="shape" transform="translate(890.728,457.028) rotate(90)">
				<title>工作表.21</title>
				<desc>Mahāgirika</desc>
				<v:textBlock v:margins="rect(4,4,4,4)" v:tabSpace="42.5197"/>
				<v:textRect cx="58.1102" cy="696.555" width="116.23" height="116.22"/>
				<rect x="0" y="638.445" width="116.22" height="116.22" class="st1"/>
				<text x="5.24" y="701.54" class="st2" v:langID="1028"><v:paragraph v:horizAlign="1"/><v:tabList/>（<tspan
							class="st3" v:langID="1033">Mahāgirika</tspan>）</text>			</g>
			<g id="shape22-55" v:mID="22" v:groupContext="shape" transform="translate(889.311,603.012) rotate(90)">
				<title>工作表.22</title>
				<desc>賢冑部Bhadr</desc>
				<v:textBlock v:margins="rect(4,4,4,4)" v:tabSpace="42.5197"/>
				<v:textRect cx="58.1102" cy="696.555" width="116.23" height="116.22"/>
				<rect x="0" y="638.445" width="116.22" height="116.22" class="st1"/>
				<text x="6.56" y="701.54" class="st2" v:langID="1028"><v:paragraph v:horizAlign="1"/><v:tabList/>賢冑部（<tspan
							class="st3" v:langID="1033">Bhadr</tspan></text>			</g>
			<g id="shape23-59" v:mID="23" v:groupContext="shape" transform="translate(865.217,57.3425) rotate(90)">
				<title>工作表.23</title>
				<desc>Sthavira</desc>
				<v:textBlock v:margins="rect(4,4,4,4)" v:tabSpace="42.5197"/>
				<v:textRect cx="48.189" cy="706.476" width="96.38" height="96.378"/>
				<rect x="0" y="658.287" width="96.378" height="96.378" class="st1"/>
				<text x="5.53" y="711.46" class="st2" v:langID="1028"><v:paragraph v:horizAlign="1"/><v:tabList/>（<tspan
							class="st3" v:langID="1033">Sthavira</tspan>）</text>			</g>
			<g id="shape24-63" v:mID="24" v:groupContext="shape" transform="translate(904.902,319.547) rotate(90)">
				<title>工作表.24</title>
				<desc>犢子部</desc>
				<v:textBlock v:margins="rect(4,4,4,4)" v:tabSpace="42.5197"/>
				<v:textRect cx="28.3465" cy="726.319" width="56.7" height="56.6929"/>
				<rect x="0" y="697.972" width="56.6929" height="56.6929" class="st1"/>
				<text x="4.35" y="731.12" class="st2" v:langID="1028"><v:paragraph v:horizAlign="1"/><v:tabList/>犢子部</text>			</g>
			<g id="shape25-66" v:mID="25" v:groupContext="shape" transform="translate(848.209,308.209) rotate(90)">
				<title>工作表.25</title>
				<desc>Vātsīputrīya</desc>
				<v:textBlock v:margins="rect(4,4,4,4)" v:tabSpace="42.5197"/>
				<v:textRect cx="63.7795" cy="690.886" width="127.56" height="127.559"/>
				<rect x="0" y="627.106" width="127.559" height="127.559" class="st1"/>
				<text x="8.23" y="695.87" class="st2" v:langID="1028"><v:paragraph v:horizAlign="1"/><v:tabList/>（<tspan
							class="st3" v:langID="1033">Vātsīputrīya</tspan>）</text>			</g>
			<g id="shape26-70" v:mID="26" v:groupContext="shape" transform="translate(862.382,462.697) rotate(90)">
				<title>工作表.26</title>
				<desc>正量部</desc>
				<v:textBlock v:margins="rect(4,4,4,4)" v:tabSpace="42.5197"/>
				<v:textRect cx="28.3465" cy="726.319" width="56.7" height="56.6929"/>
				<rect x="0" y="697.972" width="56.6929" height="56.6929" class="st1"/>
				<text x="4.35" y="731.12" class="st2" v:langID="1028"><v:paragraph v:horizAlign="1"/><v:tabList/>正量部</text>			</g>
			<g id="shape27-73" v:mID="27" v:groupContext="shape" transform="translate(831.201,601.594) rotate(90)">
				<title>工作表.27</title>
				<desc>六城部Ṣaṇṇa</desc>
				<v:textBlock v:margins="rect(4,4,4,4)" v:tabSpace="42.5197"/>
				<v:textRect cx="59.5276" cy="695.138" width="119.06" height="119.055"/>
				<rect x="0" y="635.61" width="119.055" height="119.055" class="st1"/>
				<text x="7.98" y="700.12" class="st2" v:langID="1028"><v:paragraph v:horizAlign="1"/><v:tabList/>六城部（<tspan
							class="st3" v:langID="1033">Ṣaṇṇa</tspan></text>			</g>
			<g id="shape28-77" v:mID="28" v:groupContext="shape" transform="translate(812.776,457.028) rotate(90)">
				<title>工作表.28</title>
				<desc>Saṃmatīya</desc>
				<v:textBlock v:margins="rect(4,4,4,4)" v:tabSpace="42.5197"/>
				<v:textRect cx="56.6929" cy="697.972" width="113.39" height="113.386"/>
				<rect x="0" y="641.28" width="113.386" height="113.386" class="st1"/>
				<text x="4.7" y="702.96" class="st2" v:langID="1028"><v:paragraph v:horizAlign="1"/><v:tabList/>（<tspan class="st3"
							v:langID="1033">Saṃmatīya</tspan>）</text>			</g>
			<g id="shape29-81" v:mID="29" v:groupContext="shape" transform="translate(751.831,187.736) rotate(90)">
				<title>工作表.29</title>
				<desc>雪山部Haimavata</desc>
				<v:textBlock v:margins="rect(4,4,4,4)" v:tabSpace="42.5197"/>
				<v:textRect cx="82.2047" cy="672.461" width="164.41" height="164.409"/>
				<rect x="0" y="590.256" width="164.409" height="164.409" class="st1"/>
				<text x="7.56" y="677.44" class="st2" v:langID="1028"><v:paragraph v:horizAlign="1"/><v:tabList/>雪山部（<tspan
							class="st3" v:langID="1033">Haimavata</tspan>）</text>			</g>
			<g id="shape30-85" v:mID="30" v:groupContext="shape" transform="translate(1273.41,71.5157) rotate(90)">
				<title>工作表.30</title>
				<desc>ika</desc>
				<v:textBlock v:margins="rect(4,4,4,4)" v:tabSpace="42.5197"/>
				<v:textRect cx="28.3465" cy="726.319" width="56.7" height="56.6929"/>
				<rect x="0" y="697.972" width="56.6929" height="56.6929" class="st1"/>
				<text x="10.57" y="731.3" class="st4" v:langID="1033"><v:paragraph v:horizAlign="1"/><v:tabList/>ika<tspan
							class="st5" v:langID="1028">）</tspan></text>			</g>
			<g id="shape32-89" v:mID="32" v:groupContext="shape" transform="translate(933.248,116.87) rotate(90)">
				<title>工作表.32</title>
				<path d="M0 754.67 L56.69 754.67" class="st6"/>
			</g>
			<g id="shape33-92" v:mID="33" v:groupContext="shape" transform="translate(1259.23,714.98) rotate(90)">
				<title>工作表.33</title>
				<path d="M0 754.67 L5.67 754.67" class="st6"/>
			</g>
			<g id="shape34-95" v:mID="34" v:groupContext="shape" transform="translate(791.516,31.8307) rotate(90)">
				<title>工作表.34</title>
				<path d="M0 754.67 L722.83 754.67" class="st7"/>
			</g>
			<g id="shape35-98" v:mID="35" v:groupContext="shape" transform="translate(1315.93,173.563) rotate(90)">
				<title>工作表.35</title>
				<path d="M0 754.67 L14.17 754.67" class="st6"/>
			</g>
			<g id="shape36-101" v:mID="36" v:groupContext="shape" transform="translate(1372.62,173.563) rotate(90)">
				<title>工作表.36</title>
				<path d="M0 754.67 L14.17 754.67" class="st6"/>
			</g>
			<g id="shape37-104" v:mID="37" v:groupContext="shape" transform="translate(1344.27,116.87) rotate(90)">
				<title>工作表.37</title>
				<path d="M0 754.67 L56.69 754.67" class="st6"/>
			</g>
			<g id="shape38-107" v:mID="38" v:groupContext="shape" transform="translate(561.26,-581.102)">
				<title>工作表.38</title>
				<path d="M0 754.67 L56.69 754.67" class="st6"/>
			</g>
			<g id="shape39-110" v:mID="39" v:groupContext="shape" transform="translate(1323.01,159.39) rotate(90)">
				<title>工作表.39</title>
				<path d="M0 754.67 L5.67 754.67" class="st6"/>
			</g>
			<g id="shape40-113" v:mID="40" v:groupContext="shape" transform="translate(1315.93,386.161) rotate(90)">
				<title>工作表.40</title>
				<path d="M0 754.67 L14.17 754.67" class="st6"/>
			</g>
			<g id="shape41-116" v:mID="41" v:groupContext="shape" transform="translate(1344.27,386.161) rotate(90)">
				<title>工作表.41</title>
				<path d="M0 754.67 L14.17 754.67" class="st6"/>
			</g>
			<g id="shape42-119" v:mID="42" v:groupContext="shape" transform="translate(1287.58,371.988) rotate(90)">
				<title>工作表.42</title>
				<path d="M0 754.67 L28.35 754.67" class="st6"/>
			</g>
			<g id="shape43-122" v:mID="43" v:groupContext="shape" transform="translate(1315.93,329.469) rotate(90)">
				<title>工作表.43</title>
				<path d="M0 754.67 L42.52 754.67" class="st6"/>
			</g>
			<g id="shape44-125" v:mID="44" v:groupContext="shape" transform="translate(1330.1,371.988) rotate(90)">
				<title>工作表.44</title>
				<path d="M0 754.67 L14.17 754.67" class="st6"/>
			</g>
			<g id="shape45-128" v:mID="45" v:groupContext="shape" transform="translate(532.913,-382.677)">
				<title>工作表.45</title>
				<path d="M0 754.67 L42.52 754.67" class="st6"/>
			</g>
			<g id="shape46-131" v:mID="46" v:groupContext="shape" transform="translate(561.26,-368.504)">
				<title>工作表.46</title>
				<path d="M0 754.67 L28.35 754.67" class="st6"/>
			</g>
			<g id="shape64-134" v:mID="64" v:groupContext="shape" transform="translate(995.61,204.744) rotate(90)">
				<title>工作表.64</title>
				<desc>ira</desc>
				<v:textBlock v:margins="rect(4,4,4,4)" v:tabSpace="42.5197"/>
				<v:textRect cx="22.6772" cy="731.988" width="45.36" height="45.3543"/>
				<rect x="0" y="709.311" width="45.3543" height="45.3543" class="st1"/>
				<text x="6.24" y="736.97" class="st4" v:langID="1033"><v:paragraph v:horizAlign="1"/><v:tabList/>ira<tspan
							class="st5" v:langID="1028">）</tspan></text>			</g>
			<g id="shape9-138" v:mID="9" v:groupContext="shape" transform="translate(1140.18,601.594) rotate(90)">
				<title>工作表.9</title>
				<desc>法藏部Dharm</desc>
				<v:textBlock v:margins="rect(4,4,4,4)" v:tabSpace="42.5197"/>
				<v:textRect cx="62.3622" cy="692.303" width="124.73" height="124.724"/>
				<rect x="0" y="629.941" width="124.724" height="124.724" class="st1"/>
				<text x="8.15" y="697.29" class="st2" v:langID="1028"><v:paragraph v:horizAlign="1"/><v:tabList/>法藏部（<tspan
							class="st3" v:langID="1033">Dharm</tspan></text>			</g>
			<g id="shape11-142" v:mID="11" v:groupContext="shape" transform="translate(1122.31,462.697) rotate(90)">
				<title>工作表.11</title>
				<desc>分別說部</desc>
				<v:textBlock v:margins="rect(4,4,4,4)" v:tabSpace="42.5197"/>
				<v:textRect cx="36.8504" cy="717.815" width="73.71" height="73.7008"/>
				<rect x="0" y="680.965" width="73.7008" height="73.7008" class="st1"/>
				<text x="4.85" y="722.62" class="st2" v:langID="1028"><v:paragraph v:horizAlign="1"/><v:tabList/>分別說部</text>			</g>
			<g id="shape13-145" v:mID="13" v:groupContext="shape" transform="translate(1087.74,462.697) rotate(90)">
				<title>工作表.13</title>
				<desc>Vibhajyavā</desc>
				<v:textBlock v:margins="rect(4,4,4,4)" v:tabSpace="42.5197"/>
				<v:textRect cx="51.0236" cy="703.642" width="102.05" height="102.047"/>
				<rect x="0" y="652.618" width="102.047" height="102.047" class="st1"/>
				<text x="6.15" y="708.63" class="st2" v:langID="1028"><v:paragraph v:horizAlign="1"/><v:tabList/>（<tspan
							class="st3" v:langID="1033">Vibhajyavā</tspan></text>			</g>
			<g id="shape14-149" v:mID="14" v:groupContext="shape" transform="translate(1087.74,604.429) rotate(90)">
				<title>工作表.14</title>
				<desc>銅鍱部Tāmra</desc>
				<v:textBlock v:margins="rect(4,4,4,4)" v:tabSpace="42.5197"/>
				<v:textRect cx="58.1102" cy="696.555" width="116.23" height="116.22"/>
				<rect x="0" y="638.445" width="116.22" height="116.22" class="st1"/>
				<text x="5.24" y="701.54" class="st2" v:langID="1028"><v:paragraph v:horizAlign="1"/><v:tabList/>銅鍱部（<tspan
							class="st3" v:langID="1033">Tāmra</tspan></text>			</g>
			<g id="shape15-153" v:mID="15" v:groupContext="shape" transform="translate(1032.46,612.933) rotate(90)">
				<title>工作表.15</title>
				<desc>pīya</desc>
				<v:textBlock v:margins="rect(4,4,4,4)" v:tabSpace="42.5197"/>
				<v:textRect cx="28.3465" cy="726.319" width="56.7" height="56.6929"/>
				<rect x="0" y="697.972" width="56.6929" height="56.6929" class="st1"/>
				<text x="6.57" y="731.3" class="st4" v:langID="1033"><v:paragraph v:horizAlign="1"/><v:tabList/>pīya<tspan
							class="st5" v:langID="1028">）</tspan></text>			</g>
			<g id="shape49-157" v:mID="49" v:groupContext="shape" transform="translate(1089.15,474.035) rotate(90)">
				<title>工作表.49</title>
				<desc>din</desc>
				<v:textBlock v:margins="rect(4,4,4,4)" v:tabSpace="42.5197"/>
				<v:textRect cx="28.3465" cy="726.319" width="56.7" height="56.6929"/>
				<rect x="0" y="697.972" width="56.6929" height="56.6929" class="st1"/>
				<text x="10.12" y="731.3" class="st4" v:langID="1033"><v:paragraph v:horizAlign="1"/><v:tabList/>din<tspan
							class="st5" v:langID="1028">）</tspan></text>			</g>
			<g id="shape50-161" v:mID="50" v:groupContext="shape" transform="translate(1138.76,559.075) rotate(90)">
				<title>工作表.50</title>
				<path d="M0 754.67 L5.67 754.67" class="st6"/>
			</g>
			<g id="shape52-164" v:mID="52" v:groupContext="shape" transform="translate(1198.29,614.35) rotate(90)">
				<title>工作表.52</title>
				<desc>āsaka</desc>
				<v:textBlock v:margins="rect(4,4,4,4)" v:tabSpace="42.5197"/>
				<v:textRect cx="32.5984" cy="722.067" width="65.2" height="65.1969"/>
				<rect x="0" y="689.469" width="65.1969" height="65.1969" class="st1"/>
				<text x="6.83" y="727.05" class="st4" v:langID="1033"><v:paragraph v:horizAlign="1"/><v:tabList/>āsaka<tspan
							class="st5" v:langID="1028">）</tspan></text>			</g>
			<g id="shape53-168" v:mID="53" v:groupContext="shape" transform="translate(1128.84,614.35) rotate(90)">
				<title>工作表.53</title>
				<desc>aguptaka</desc>
				<v:textBlock v:margins="rect(4,4,4,4)" v:tabSpace="42.5197"/>
				<v:textRect cx="45.3543" cy="709.311" width="90.71" height="90.7087"/>
				<rect x="0" y="663.957" width="90.7087" height="90.7087" class="st1"/>
				<text x="6.48" y="714.29" class="st4" v:langID="1033"><v:paragraph v:horizAlign="1"/><v:tabList/>aguptaka<tspan
							class="st8" v:langID="1028"> </tspan><tspan class="st5" v:langID="1028">）</tspan></text>			</g>
			<g id="shape55-173" v:mID="55" v:groupContext="shape" transform="translate(1086.32,615.768) rotate(90)">
				<title>工作表.55</title>
				<desc>śaṭīya</desc>
				<v:textBlock v:margins="rect(4,4,4,4)" v:tabSpace="42.5197"/>
				<v:textRect cx="31.1811" cy="723.484" width="62.37" height="62.3622"/>
				<rect x="0" y="692.303" width="62.3622" height="62.3622" class="st1"/>
				<text x="4.52" y="728.47" class="st4" v:langID="1033"><v:paragraph v:horizAlign="1"/><v:tabList/>śaṭīya<tspan
							class="st5" v:langID="1028">）</tspan></text>			</g>
			<g id="shape56-177" v:mID="56" v:groupContext="shape" transform="translate(1031.04,603.012) rotate(90)">
				<title>工作表.56</title>
				<desc>飲光部Kāśya</desc>
				<v:textBlock v:margins="rect(4,4,4,4)" v:tabSpace="42.5197"/>
				<v:textRect cx="58.1102" cy="696.555" width="116.23" height="116.22"/>
				<rect x="0" y="638.445" width="116.22" height="116.22" class="st1"/>
				<text x="6.12" y="701.54" class="st2" v:langID="1028"><v:paragraph v:horizAlign="1"/><v:tabList/>飲光部（<tspan
							class="st3" v:langID="1033">Kāśya</tspan></text>			</g>
			<g id="shape10-181" v:mID="10" v:groupContext="shape" transform="translate(1114.67,318.13) rotate(90)">
				<title>工作表.10</title>
				<desc>說一切有部</desc>
				<v:textBlock v:margins="rect(4,4,4,4)" v:tabSpace="42.5197"/>
				<v:textRect cx="45.3543" cy="709.311" width="90.71" height="90.7087"/>
				<rect x="0" y="663.957" width="90.7087" height="90.7087" class="st1"/>
				<text x="5.35" y="714.11" class="st2" v:langID="1028"><v:paragraph v:horizAlign="1"/><v:tabList/>說一切有部</text>			</g>
			<g id="shape12-184" v:mID="12" v:groupContext="shape" transform="translate(1093.41,320.965) rotate(90)">
				<title>工作表.12</title>
				<desc>Sarvāstivā</desc>
				<v:textBlock v:margins="rect(4,4,4,4)" v:tabSpace="42.5197"/>
				<v:textRect cx="45.3543" cy="709.311" width="90.71" height="90.7087"/>
				<rect x="0" y="663.957" width="90.7087" height="90.7087" class="st1"/>
				<text x="4.03" y="714.29" class="st2" v:langID="1028"><v:paragraph v:horizAlign="1"/><v:tabList/>（<tspan
							class="st3" v:langID="1033">Sarvāstivā</tspan></text>			</g>
			<g id="shape47-188" v:mID="47" v:groupContext="shape" transform="translate(1089.15,332.303) rotate(90)">
				<title>工作表.47</title>
				<desc>din</desc>
				<v:textBlock v:margins="rect(4,4,4,4)" v:tabSpace="42.5197"/>
				<v:textRect cx="28.3465" cy="726.319" width="56.7" height="56.6929"/>
				<rect x="0" y="697.972" width="56.6929" height="56.6929" class="st1"/>
				<text x="10.12" y="731.3" class="st4" v:langID="1033"><v:paragraph v:horizAlign="1"/><v:tabList/>din<tspan
							class="st5" v:langID="1028">）</tspan></text>			</g>
			<g id="shape48-192" v:mID="48" v:groupContext="shape" transform="translate(1138.76,408.839) rotate(90)">
				<title>工作表.48</title>
				<path d="M0 754.67 L5.67 754.67" class="st6"/>
			</g>
			<g id="shape57-195" v:mID="57" v:groupContext="shape" transform="translate(1160.02,408.839) rotate(90)">
				<title>工作表.57</title>
				<path d="M0 754.67 L56.69 754.67" class="st6"/>
			</g>
			<g id="shape58-198" v:mID="58" v:groupContext="shape" transform="translate(1160.02,536.398) rotate(90)">
				<title>工作表.58</title>
				<path d="M0 754.67 L56.69 754.67" class="st6"/>
			</g>
			<g id="shape59-201" v:mID="59" v:groupContext="shape" transform="translate(1089.15,593.091) rotate(90)">
				<title>工作表.59</title>
				<path d="M0 754.67 L14.17 754.67" class="st6"/>
			</g>
			<g id="shape60-204" v:mID="60" v:groupContext="shape" transform="translate(1259.23,593.091) rotate(90)">
				<title>工作表.60</title>
				<path d="M0 754.67 L14.17 754.67" class="st6"/>
			</g>
			<g id="shape61-207" v:mID="61" v:groupContext="shape" transform="translate(334.488,-161.575)">
				<title>工作表.61</title>
				<path d="M0 754.67 L170.08 754.67" class="st6"/>
			</g>
			<g id="shape62-210" v:mID="62" v:groupContext="shape" transform="translate(277.795,-311.811)">
				<title>工作表.62</title>
				<path d="M0 754.67 L127.56 754.67" class="st6"/>
			</g>
			<g id="shape63-213" v:mID="63" v:groupContext="shape" transform="translate(1032.46,442.854) rotate(90)">
				<title>工作表.63</title>
				<path d="M0 754.67 L22.68 754.67" class="st6"/>
			</g>
			<g id="shape66-216" v:mID="66" v:groupContext="shape" transform="translate(904.902,60.1772) rotate(90)">
				<title>工作表.66</title>
				<desc>上座部</desc>
				<v:textBlock v:margins="rect(4,4,4,4)" v:tabSpace="42.5197"/>
				<v:textRect cx="28.3465" cy="726.319" width="56.7" height="56.6929"/>
				<rect x="0" y="697.972" width="56.6929" height="56.6929" class="st1"/>
				<text x="4.35" y="731.12" class="st2" v:langID="1028"><v:paragraph v:horizAlign="1"/><v:tabList/>上座部</text>			</g>
			<g id="shape69-219" v:mID="69" v:groupContext="shape" transform="translate(933.248,614.35) rotate(90)">
				<title>工作表.69</title>
				<desc>mottarīya</desc>
				<v:textBlock v:margins="rect(4,4,4,4)" v:tabSpace="42.5197"/>
				<v:textRect cx="43.937" cy="710.728" width="87.88" height="87.874"/>
				<rect x="0" y="666.791" width="87.874" height="87.874" class="st1"/>
				<text x="5.28" y="715.71" class="st4" v:langID="1033"><v:paragraph v:horizAlign="1"/><v:tabList/>mottarīya<tspan
							class="st5" v:langID="1028">）</tspan></text>			</g>
			<g id="shape70-223" v:mID="70" v:groupContext="shape" transform="translate(879.39,612.933) rotate(90)">
				<title>工作表.70</title>
				<desc>ayānīya</desc>
				<v:textBlock v:margins="rect(4,4,4,4)" v:tabSpace="42.5197"/>
				<v:textRect cx="39.685" cy="714.98" width="79.38" height="79.3701"/>
				<rect x="0" y="675.295" width="79.3701" height="79.3701" class="st1"/>
				<text x="6.81" y="719.96" class="st4" v:langID="1033"><v:paragraph v:horizAlign="1"/><v:tabList/>ayānīya<tspan
							class="st5" v:langID="1028">）</tspan></text>			</g>
			<g id="shape71-227" v:mID="71" v:groupContext="shape" transform="translate(829.783,615.768) rotate(90)">
				<title>工作表.71</title>
				<desc>garika</desc>
				<v:textBlock v:margins="rect(4,4,4,4)" v:tabSpace="42.5197"/>
				<v:textRect cx="32.5984" cy="722.067" width="65.2" height="65.1969"/>
				<rect x="0" y="689.469" width="65.1969" height="65.1969" class="st1"/>
				<text x="4.61" y="727.05" class="st4" v:langID="1033"><v:paragraph v:horizAlign="1"/><v:tabList/>garika<tspan
							class="st5" v:langID="1028">）</tspan></text>			</g>
			<g id="shape31-231" v:mID="31" v:groupContext="shape" transform="translate(933.248,371.988) rotate(90)">
				<title>工作表.31</title>
				<path d="M0 754.67 L79.37 754.67" class="st6"/>
			</g>
			<g id="shape68-234" v:mID="68" v:groupContext="shape" transform="translate(79.3701,-581.102)">
				<title>工作表.68</title>
				<path d="M0 754.67 L226.77 754.67" class="st6"/>
			</g>
			<g id="shape72-237" v:mID="72" v:groupContext="shape" transform="translate(834.035,173.563) rotate(90)">
				<title>工作表.72</title>
				<path d="M0 754.67 L14.17 754.67" class="st6"/>
			</g>
			<g id="shape73-240" v:mID="73" v:groupContext="shape" transform="translate(1060.81,173.563) rotate(90)">
				<title>工作表.73</title>
				<path d="M0 754.67 L14.17 754.67" class="st6"/>
			</g>
			<g id="shape75-243" v:mID="75" v:groupContext="shape" transform="translate(1060.81,258.602) rotate(90)">
				<title>工作表.75</title>
				<path d="M0 754.67 L42.52 754.67" class="st6"/>
			</g>
			<g id="shape65-246" v:mID="65" v:groupContext="shape" transform="translate(933.248,301.122) rotate(90)">
				<title>工作表.65</title>
				<path d="M0 754.67 L14.17 754.67" class="st6"/>
			</g>
			<g id="shape67-249" v:mID="67" v:groupContext="shape" transform="translate(1160.02,301.122) rotate(90)">
				<title>工作表.67</title>
				<path d="M0 754.67 L14.17 754.67" class="st6"/>
			</g>
			<g id="shape74-252" v:mID="74" v:groupContext="shape" transform="translate(178.583,-453.543)">
				<title>工作表.74</title>
				<path d="M0 754.67 L226.77 754.67" class="st6"/>
			</g>
			<g id="shape76-255" v:mID="76" v:groupContext="shape" transform="translate(1039.55,284.114) rotate(90)">
				<title>工作表.76</title>
				<path d="M0 754.67 L5.67 754.67" class="st6"/>
			</g>
			<g id="shape77-258" v:mID="77" v:groupContext="shape" transform="translate(947.421,593.091) rotate(90)">
				<title>工作表.77</title>
				<path d="M0 754.67 L14.17 754.67" class="st6"/>
			</g>
			<g id="shape79-261" v:mID="79" v:groupContext="shape" transform="translate(1004.11,593.091) rotate(90)">
				<title>工作表.79</title>
				<path d="M0 754.67 L14.17 754.67" class="st6"/>
			</g>
			<g id="shape80-264" v:mID="80" v:groupContext="shape" transform="translate(975.768,516.555) rotate(90)">
				<title>工作表.80</title>
				<path d="M0 754.67 L76.54 754.67" class="st6"/>
			</g>
			<g id="shape81-267" v:mID="81" v:groupContext="shape" transform="translate(192.756,-161.575)">
				<title>工作表.81</title>
				<path d="M0 754.67 L56.69 754.67" class="st6"/>
			</g>
			<g id="shape82-270" v:mID="82" v:groupContext="shape" transform="translate(890.728,516.555) rotate(90)">
				<title>工作表.82</title>
				<path d="M0 754.67 L90.71 754.67" class="st6"/>
			</g>
			<g id="shape83-273" v:mID="83" v:groupContext="shape" transform="translate(136.063,-178.583)">
				<title>工作表.83</title>
				<path d="M0 754.67 L14.17 754.67" class="st6"/>
			</g>
			<g id="shape84-276" v:mID="84" v:groupContext="shape" transform="translate(150.236,-178.583)">
				<title>工作表.84</title>
				<path d="M0 754.67 L70.87 754.67" class="st9"/>
			</g>
			<g id="shape78-279" v:mID="78" v:groupContext="shape" transform="translate(890.728,451.358) rotate(90)">
				<title>工作表.78</title>
				<path d="M0 754.67 L14.17 754.67" class="st6"/>
			</g>
			<g id="shape85-282" v:mID="85" v:groupContext="shape" transform="translate(975.768,451.358) rotate(90)">
				<title>工作表.85</title>
				<path d="M0 754.67 L14.17 754.67" class="st6"/>
			</g>
			<g id="shape86-285" v:mID="86" v:groupContext="shape" transform="translate(136.063,-303.307)">
				<title>工作表.86</title>
				<path d="M0 754.67 L85.04 754.67" class="st6"/>
			</g>
			<g id="shape87-288" v:mID="87" v:groupContext="shape" transform="translate(890.728,714.98) rotate(90)">
				<title>工作表.87</title>
				<path d="M0 754.67 L5.67 754.67" class="st6"/>
			</g>
			<g id="shape88-291" v:mID="88" v:groupContext="shape" transform="translate(947.421,713.563) rotate(90)">
				<title>工作表.88</title>
				<path d="M0 754.67 L5.67 754.67" class="st6"/>
			</g>
			<g id="shape89-294" v:mID="89" v:groupContext="shape" transform="translate(1089.15,714.98) rotate(90)">
				<title>工作表.89</title>
				<path d="M0 754.67 L5.67 754.67" class="st6"/>
			</g>
			<g id="shape90-297" v:mID="90" v:groupContext="shape" transform="translate(1004.11,707.894) rotate(90)">
				<title>工作表.90</title>
				<path d="M0 754.67 L5.67 754.67" class="st6"/>
			</g>
			<g id="shape91-300" v:mID="91" v:groupContext="shape" transform="translate(1145.85,717.815) rotate(90)">
				<title>工作表.91</title>
				<path d="M0 754.67 L5.67 754.67" class="st6"/>
			</g>
			<g id="shape92-303" v:mID="92" v:groupContext="shape" transform="translate(1202.54,720.65) rotate(90)">
				<title>工作表.92</title>
				<path d="M0 754.67 L5.67 754.67" class="st6"/>
			</g>
			<g id="shape51-306" v:mID="51" v:groupContext="shape" transform="translate(1415.14,31.8307) rotate(90)">
				<title>工作表.51</title>
				<path d="M0 754.67 L722.83 754.67" class="st7"/>
			</g>
			<g id="shape54-309" v:mID="54" v:groupContext="shape" transform="translate(36.8504,-722.835)">
				<title>工作表.54</title>
				<path d="M0 754.67 L623.62 754.67" class="st7"/>
			</g>
			<g id="shape93-312" v:mID="93" v:groupContext="shape" transform="translate(36.8504,0)">
				<title>工作表.93</title>
				<path d="M0 754.67 L623.62 754.67" class="st7"/>
			</g>
		</g>
	</g>
</svg>
