<?xml version="1.0" encoding="UTF-8" standalone="no"?>
<!DOCTYPE svg PUBLIC "-//W3C//DTD SVG 1.1//EN" "http://www.w3.org/Graphics/SVG/1.1/DTD/svg11.dtd">
<!-- 由 Microsoft Visio, SVG Export 產生 y37.1023-h.svg 頁-1 -->
<svg xmlns="http://www.w3.org/2000/svg" xmlns:xlink="http://www.w3.org/1999/xlink" xmlns:ev="http://www.w3.org/2001/xml-events"
		width="3.73089in" height="2.68758in" viewBox="0 0 268.624 193.506" xml:space="preserve" color-interpolation-filters="sRGB"
		class="st3">
	<style type="text/css">
	<![CDATA[
		.st1 {fill:none;stroke:none;stroke-linecap:round;stroke-linejoin:round;stroke-width:0.75}
		.st2 {fill:#000000;font-family:新細明體;font-size:1.33333em}
		.st3 {fill:none;fill-rule:evenodd;font-size:12px;overflow:visible;stroke-linecap:square;stroke-miterlimit:3}
	]]>
	</style>

	<g>
		<title>頁-1</title>
		<g id="group15-1" transform="translate(0.375,-0.375)">
			<title>工作表.15</title>
			<g id="shape1-2" transform="translate(1.41732,-170.079)">
				<title>工作表.1</title>
				<desc>甘菩遮國</desc>
				<rect x="0" y="170.829" width="73.7008" height="22.6772" class="st1"/>
				<text x="4.85" y="186.97" class="st2">甘菩遮國</text>			</g>
			<g id="shape2-5" transform="translate(114.803,-170.079)">
				<title>工作表.2</title>
				<desc>出生慈菩薩住處</desc>
				<rect x="0" y="170.829" width="153.071" height="22.6772" class="st1"/>
				<text x="4.54" y="186.97" class="st2">出生慈（菩薩住處）</text>			</g>
			<g id="shape3-8" transform="translate(1.41732,-141.732)">
				<title>工作表.3</title>
				<desc>震旦國</desc>
				<rect x="0" y="170.829" width="56.6929" height="22.6772" class="st1"/>
				<text x="4.35" y="186.97" class="st2">震旦國</text>			</g>
			<g id="shape4-11" transform="translate(114.803,-141.732)">
				<title>工作表.4</title>
				<desc>那羅延窟</desc>
				<rect x="0" y="170.829" width="73.7008" height="22.6772" class="st1"/>
				<text x="4.85" y="186.97" class="st2">那羅延窟</text>			</g>
			<g id="shape5-14" transform="translate(1.41732,-113.386)">
				<title>工作表.5</title>
				<desc>疏勒國</desc>
				<rect x="0" y="170.829" width="56.6929" height="22.6772" class="st1"/>
				<text x="4.35" y="186.97" class="st2">疏勒國</text>			</g>
			<g id="shape6-17" transform="translate(114.803,-113.386)">
				<title>工作表.6</title>
				<desc>牛頭山</desc>
				<rect x="0" y="170.829" width="56.6929" height="22.6772" class="st1"/>
				<text x="4.35" y="186.97" class="st2">牛頭山</text>			</g>
			<g id="shape7-20" transform="translate(-4.79616E-14,-85.0394)">
				<title>工作表.7</title>
				<desc>迦溼彌羅國</desc>
				<rect x="0" y="170.829" width="90.7087" height="22.6772" class="st1"/>
				<text x="5.35" y="186.97" class="st2">迦溼彌羅國</text>			</g>
			<g id="shape8-23" transform="translate(114.803,-85.0394)">
				<title>工作表.8</title>
				<desc>次第</desc>
				<rect x="0" y="170.829" width="42.5197" height="22.6772" class="st1"/>
				<text x="5.26" y="186.97" class="st2">次第</text>			</g>
			<g id="shape9-26" transform="translate(7.99361E-14,-56.6929)">
				<title>工作表.9</title>
				<desc>增長歡喜城</desc>
				<rect x="0" y="170.829" width="90.7087" height="22.6772" class="st1"/>
				<text x="5.35" y="186.97" class="st2">增長歡喜城</text>			</g>
			<g id="shape10-29" transform="translate(114.803,-56.6929)">
				<title>工作表.10</title>
				<desc>尊者窟</desc>
				<rect x="0" y="170.829" width="56.6929" height="22.6772" class="st1"/>
				<text x="4.35" y="186.97" class="st2">尊者窟</text>			</g>
			<g id="shape11-32" transform="translate(1.43885E-13,-28.3465)">
				<title>工作表.11</title>
				<desc>菴浮梨摩國</desc>
				<rect x="0" y="170.829" width="90.7087" height="22.6772" class="st1"/>
				<text x="5.35" y="186.97" class="st2">菴浮梨摩國</text>			</g>
			<g id="shape12-35" transform="translate(113.386,-28.3465)">
				<title>工作表.12</title>
				<desc>見億藏光明</desc>
				<rect x="0" y="170.829" width="90.7087" height="22.6772" class="st1"/>
				<text x="5.35" y="186.97" class="st2">見億藏光明</text>			</g>
			<g id="shape13-38" transform="translate(1.41732,0)">
				<title>工作表.13</title>
				<desc>乾陀羅國</desc>
				<rect x="0" y="170.829" width="73.7008" height="22.6772" class="st1"/>
				<text x="4.85" y="186.97" class="st2">乾陀羅國</text>			</g>
			<g id="shape14-41" transform="translate(114.803,-4.26326E-13)">
				<title>工作表.14</title>
				<desc>苫婆羅窟</desc>
				<rect x="0" y="170.829" width="73.7008" height="22.6772" class="st1"/>
				<text x="4.85" y="186.97" class="st2">苫婆羅窟</text>			</g>
		</g>
	</g>
</svg>
