<?xml version="1.0" encoding="UTF-8" standalone="no"?>
<!DOCTYPE svg PUBLIC "-//W3C//DTD SVG 1.1//EN" "http://www.w3.org/Graphics/SVG/1.1/DTD/svg11.dtd">
<!-- 由 Microsoft Visio, SVG Export 產生 y37.0485-h.svg 頁-1 -->
<svg xmlns="http://www.w3.org/2000/svg" xmlns:xlink="http://www.w3.org/1999/xlink" xmlns:ev="http://www.w3.org/2001/xml-events"
		width="7.09703in" height="2.33325in" viewBox="0 0 510.986 167.994" xml:space="preserve" color-interpolation-filters="sRGB"
		class="st7">
	<style type="text/css">
	<![CDATA[
		.st1 {fill:none;stroke:none;stroke-linecap:round;stroke-linejoin:round;stroke-width:0.75}
		.st2 {fill:#000000;font-family:新細明體;font-size:1.33333em}
		.st3 {fill:#000000;font-family:新細明體;font-size:1.00001em}
		.st4 {fill:#000000;font-family:Times New Roman;font-size:1.33333em}
		.st5 {fill:#000000;font-family:新細明體;font-size:1.33333em;font-weight:bold}
		.st6 {stroke:#000000;stroke-dasharray:0,4.5;stroke-linecap:round;stroke-linejoin:round;stroke-width:1.5}
		.st7 {fill:none;fill-rule:evenodd;font-size:12px;overflow:visible;stroke-linecap:square;stroke-miterlimit:3}
	]]>
	</style>

	<g>
		<title>頁-1</title>
		<g id="group59-1" transform="translate(0.375,-0.375)">
			<title>工作表.59</title>
			<g id="shape3-2" transform="translate(153.071,-141.732)">
				<title>工作表.3</title>
				<desc>布多羅</desc>
				<rect x="0" y="145.317" width="56.6929" height="22.6772" class="st1"/>
				<text x="4.35" y="161.46" class="st2">布多羅</text>			</g>
			<g id="shape4-5" transform="translate(294.803,-141.732)">
				<title>工作表.4</title>
				<desc>補多羅</desc>
				<rect x="0" y="145.317" width="56.6929" height="22.6772" class="st1"/>
				<text x="4.35" y="161.46" class="st2">補多羅</text>			</g>
			<g id="shape5-8" transform="translate(436.535,-141.732)">
				<title>工作表.5</title>
				<desc>補多勒迦</desc>
				<rect x="0" y="145.317" width="73.7008" height="22.6772" class="st1"/>
				<text x="4.85" y="161.46" class="st2">補多勒迦</text>			</g>
			<g id="shape8-11" transform="translate(153.071,-113.386)">
				<title>工作表.8</title>
				<desc>補多羅迦</desc>
				<rect x="0" y="145.317" width="73.7008" height="22.6772" class="st1"/>
				<text x="4.85" y="161.46" class="st2">補多羅迦</text>			</g>
			<g id="shape9-14" transform="translate(294.803,-113.386)">
				<title>工作表.9</title>
				<desc>補多落迦</desc>
				<rect x="0" y="145.317" width="73.7008" height="22.6772" class="st1"/>
				<text x="4.85" y="161.46" class="st2">補多落迦</text>			</g>
			<g id="shape10-17" transform="translate(436.535,-113.386)">
				<title>工作表.10</title>
				<desc>補多落迦</desc>
				<rect x="0" y="145.317" width="73.7008" height="22.6772" class="st1"/>
				<text x="4.85" y="161.46" class="st2">補多落迦</text>			</g>
			<g id="shape13-20" transform="translate(153.071,-85.0394)">
				<title>工作表.13</title>
				<desc>逋多羅</desc>
				<rect x="0" y="145.317" width="56.6929" height="22.6772" class="st1"/>
				<text x="4.35" y="161.46" class="st2">逋多羅</text>			</g>
			<g id="shape15-23" transform="translate(436.535,-85.0394)">
				<title>工作表.15</title>
				<desc>逋多羅</desc>
				<rect x="0" y="145.317" width="56.6929" height="22.6772" class="st1"/>
				<text x="4.35" y="161.46" class="st2">逋多羅</text>			</g>
			<g id="shape18-26" transform="translate(153.071,-56.6929)">
				<title>工作表.18</title>
				<desc>逋多羅</desc>
				<rect x="0" y="145.317" width="56.6929" height="22.6772" class="st1"/>
				<text x="4.35" y="161.46" class="st2">逋多羅</text>			</g>
			<g id="shape19-29" transform="translate(294.803,-56.6929)">
				<title>工作表.19</title>
				<desc>逋多羅</desc>
				<rect x="0" y="145.317" width="56.6929" height="22.6772" class="st1"/>
				<text x="4.35" y="161.46" class="st2">逋多羅</text>			</g>
			<g id="shape20-32" transform="translate(436.535,-56.6929)">
				<title>工作表.20</title>
				<desc>逋多羅</desc>
				<rect x="0" y="145.317" width="56.6929" height="22.6772" class="st1"/>
				<text x="4.35" y="161.46" class="st2">逋多羅</text>			</g>
			<g id="shape22-35" transform="translate(138.898,-28.3465)">
				<title>工作表.22</title>
				<desc>毘褒多那</desc>
				<rect x="0" y="145.317" width="73.7008" height="22.6772" class="st1"/>
				<text x="4.85" y="161.46" class="st2">毘褒多那</text>			</g>
			<g id="shape23-38" transform="translate(325.984,-28.3465)">
				<title>工作表.23</title>
				<desc>褒多那</desc>
				<rect x="0" y="145.317" width="56.6929" height="22.6772" class="st1"/>
				<text x="4.35" y="161.46" class="st2">褒多那</text>			</g>
			<g id="shape31-41" transform="translate(136.063,-144.567)">
				<title>工作表.31</title>
				<desc>又</desc>
				<rect x="0" y="145.317" width="22.6772" height="22.6772" class="st1"/>
				<text x="5.34" y="160.26" class="st3">又</text>			</g>
			<g id="shape32-44" transform="translate(136.063,-87.874)">
				<title>工作表.32</title>
				<desc>又</desc>
				<rect x="0" y="145.317" width="22.6772" height="22.6772" class="st1"/>
				<text x="5.34" y="160.26" class="st3">又</text>			</g>
			<g id="shape33-47" transform="translate(136.063,-59.5276)">
				<title>工作表.33</title>
				<desc>又</desc>
				<rect x="0" y="145.317" width="22.6772" height="22.6772" class="st1"/>
				<text x="11.34" y="150.66" writing-mode="tb-rl" class="st3">又</text>			</g>
			<g id="shape34-50" transform="translate(136.063,-116.22)">
				<title>工作表.34</title>
				<desc>又</desc>
				<rect x="0" y="145.317" width="22.6772" height="22.6772" class="st1"/>
				<text x="5.34" y="160.26" class="st3">又</text>			</g>
			<g id="shape35-53" transform="translate(266.457,-144.567)">
				<title>工作表.35</title>
				<desc>善生</desc>
				<rect x="0" y="145.317" width="34.0157" height="22.6772" class="st1"/>
				<text x="5.01" y="160.26" class="st3">善生</text>			</g>
			<g id="shape36-56" transform="translate(266.457,-116.22)">
				<title>工作表.36</title>
				<desc>瞿曇</desc>
				<rect x="0" y="145.317" width="34.0157" height="22.6772" class="st1"/>
				<text x="5.01" y="160.26" class="st3">瞿曇</text>			</g>
			<g id="shape14-59" transform="translate(294.803,-85.0394)">
				<title>工作表.14</title>
				<desc>逋多羅</desc>
				<rect x="0" y="145.317" width="56.6929" height="22.6772" class="st1"/>
				<text x="4.35" y="161.46" class="st2">逋多羅</text>			</g>
			<g id="shape37-62" transform="translate(266.457,-87.874)">
				<title>工作表.37</title>
				<desc>瞿曇</desc>
				<rect x="0" y="145.317" width="34.0157" height="22.6772" class="st1"/>
				<text x="5.01" y="160.26" class="st3">瞿曇</text>			</g>
			<g id="shape38-65" transform="translate(266.457,-59.5276)">
				<title>工作表.38</title>
				<desc>瞿曇</desc>
				<rect x="0" y="145.317" width="34.0157" height="22.6772" class="st1"/>
				<text x="5.01" y="160.26" class="st3">瞿曇</text>			</g>
			<g id="shape39-68" transform="translate(266.457,-31.1811)">
				<title>工作表.39</title>
				<desc>大茅草王</desc>
				<rect x="0" y="145.317" width="56.6929" height="22.6772" class="st1"/>
				<text x="4.35" y="160.26" class="st3">大茅草王</text>			</g>
			<g id="shape40-71" transform="translate(408.189,-144.567)">
				<title>工作表.40</title>
				<desc>甘蔗</desc>
				<rect x="0" y="145.317" width="34.0157" height="22.6772" class="st1"/>
				<text x="5.01" y="160.26" class="st3">甘蔗</text>			</g>
			<g id="shape24-74" transform="translate(408.189,-31.1811)">
				<title>工作表.24</title>
				<desc>甘蔗</desc>
				<rect x="0" y="145.317" width="34.0157" height="22.6772" class="st1"/>
				<text x="5.01" y="160.26" class="st3">甘蔗</text>			</g>
			<g id="shape41-77" transform="translate(408.189,-59.5276)">
				<title>工作表.41</title>
				<desc>甘蔗</desc>
				<rect x="0" y="145.317" width="34.0157" height="22.6772" class="st1"/>
				<text x="5.01" y="160.26" class="st3">甘蔗</text>			</g>
			<g id="shape42-80" transform="translate(408.189,-87.874)">
				<title>工作表.42</title>
				<desc>甘蔗</desc>
				<rect x="0" y="145.317" width="34.0157" height="22.6772" class="st1"/>
				<text x="5.01" y="160.26" class="st3">甘蔗</text>			</g>
			<g id="shape43-83" transform="translate(408.189,-116.22)">
				<title>工作表.43</title>
				<desc>甘蔗</desc>
				<rect x="0" y="145.317" width="34.0157" height="22.6772" class="st1"/>
				<text x="5.01" y="160.26" class="st3">甘蔗</text>			</g>
			<g id="shape1-86" transform="translate(4.39648E-14,-141.732)">
				<title>工作表.1</title>
				<desc>Ⅰ</desc>
				<rect x="0" y="145.317" width="22.6772" height="22.6772" class="st1"/>
				<text x="4" y="161.46" class="st2">Ⅰ</text>			</g>
			<g id="shape2-89" transform="translate(21.2598,-141.732)">
				<title>工作表.2</title>
				<desc>富多羅</desc>
				<rect x="0" y="145.317" width="56.6929" height="22.6772" class="st1"/>
				<text x="4.35" y="161.46" class="st2">富多羅</text>			</g>
			<g id="shape6-92" transform="translate(1.43885E-13,-113.386)">
				<title>工作表.6</title>
				<desc>Ⅱ</desc>
				<rect x="0" y="145.317" width="22.6772" height="22.6772" class="st1"/>
				<text x="4" y="161.46" class="st2">Ⅱ</text>			</g>
			<g id="shape7-95" transform="translate(19.8425,-113.386)">
				<title>工作表.7</title>
				<desc>布多羅迦</desc>
				<rect x="0" y="145.317" width="73.7008" height="22.6772" class="st1"/>
				<text x="4.85" y="161.46" class="st2">布多羅迦</text>			</g>
			<g id="shape11-98" transform="translate(2.3781E-13,-85.0394)">
				<title>工作表.11</title>
				<desc>Ⅲ</desc>
				<rect x="0" y="145.317" width="22.6772" height="22.6772" class="st1"/>
				<text x="4" y="161.46" class="st2">Ⅲ</text>			</g>
			<g id="shape12-101" transform="translate(21.2598,-85.0394)">
				<title>工作表.12</title>
				<desc>逋多羅</desc>
				<rect x="0" y="145.317" width="56.6929" height="22.6772" class="st1"/>
				<text x="4.35" y="161.46" class="st2">逋多羅</text>			</g>
			<g id="shape16-104" transform="translate(3.67706E-13,-56.6929)">
				<title>工作表.16</title>
				<desc>Ⅳ</desc>
				<rect x="0" y="145.317" width="22.6772" height="22.6772" class="st1"/>
				<text x="4" y="161.46" class="st2">Ⅳ</text>			</g>
			<g id="shape17-107" transform="translate(21.2598,-56.6929)">
				<title>工作表.17</title>
				<desc>逋多羅</desc>
				<rect x="0" y="145.317" width="56.6929" height="22.6772" class="st1"/>
				<text x="4.35" y="161.46" class="st2">逋多羅</text>			</g>
			<g id="shape21-110" transform="translate(21.2598,-28.3465)">
				<title>工作表.21</title>
				<desc>褒多那</desc>
				<rect x="0" y="145.317" width="56.6929" height="22.6772" class="st1"/>
				<text x="4.35" y="161.46" class="st2">褒多那</text>			</g>
			<g id="shape25-113" transform="translate(17.0079,-8.52651E-14)">
				<title>工作表.25</title>
				<desc>Pakula</desc>
				<rect x="0" y="145.317" width="56.6929" height="22.6772" class="st1"/>
				<text x="6.57" y="161.46" class="st4">Pakula</text>			</g>
			<g id="shape26-116" transform="translate(4.61631E-13,-28.3465)">
				<title>工作表.26</title>
				<desc>Ⅴ</desc>
				<rect x="0" y="145.317" width="22.6772" height="22.6772" class="st1"/>
				<text x="4" y="161.46" class="st5">Ⅴ</text>			</g>
			<g id="shape28-119">
				<title>工作表.28</title>
				<desc>Ⅵ</desc>
				<rect x="0" y="145.317" width="22.6772" height="22.6772" class="st1"/>
				<text x="4" y="161.46" class="st2">Ⅵ</text>			</g>
			<g id="shape44-122" transform="translate(96.378,-124.724)">
				<title>工作表.44</title>
				<path d="M0 167.99 L42.52 167.99" class="st6"/>
			</g>
			<g id="shape45-125" transform="translate(82.2047,-153.071)">
				<title>工作表.45</title>
				<path d="M0 167.99 L56.69 167.99" class="st6"/>
			</g>
			<g id="shape46-128" transform="translate(82.2047,-68.0315)">
				<title>工作表.46</title>
				<path d="M0 167.99 L56.69 167.99" class="st6"/>
			</g>
			<g id="shape47-131" transform="translate(82.2047,-96.378)">
				<title>工作表.47</title>
				<path d="M0 167.99 L56.69 167.99" class="st6"/>
			</g>
			<g id="shape48-134" transform="translate(82.2047,-39.685)">
				<title>工作表.48</title>
				<path d="M0 167.99 L56.69 167.99" class="st6"/>
			</g>
			<g id="shape49-137" transform="translate(209.764,-39.685)">
				<title>工作表.49</title>
				<path d="M0 167.99 L56.69 167.99" class="st6"/>
			</g>
			<g id="shape50-140" transform="translate(209.764,-68.0315)">
				<title>工作表.50</title>
				<path d="M0 167.99 L56.69 167.99" class="st6"/>
			</g>
			<g id="shape51-143" transform="translate(209.764,-96.378)">
				<title>工作表.51</title>
				<path d="M0 167.99 L56.69 167.99" class="st6"/>
			</g>
			<g id="shape52-146" transform="translate(209.764,-153.071)">
				<title>工作表.52</title>
				<path d="M0 167.99 L56.69 167.99" class="st6"/>
			</g>
			<g id="shape53-149" transform="translate(223.937,-124.724)">
				<title>工作表.53</title>
				<path d="M0 167.99 L42.52 167.99" class="st6"/>
			</g>
			<g id="shape55-152" transform="translate(351.496,-153.071)">
				<title>工作表.55</title>
				<path d="M0 167.99 L56.69 167.99" class="st6"/>
			</g>
			<g id="shape56-155" transform="translate(351.496,-96.378)">
				<title>工作表.56</title>
				<path d="M0 167.99 L56.69 167.99" class="st6"/>
			</g>
			<g id="shape57-158" transform="translate(351.496,-68.0315)">
				<title>工作表.57</title>
				<path d="M0 167.99 L56.69 167.99" class="st6"/>
			</g>
			<g id="shape54-161" transform="translate(379.843,-39.685)">
				<title>工作表.54</title>
				<path d="M0 167.99 L28.35 167.99" class="st6"/>
			</g>
			<g id="shape58-164" transform="translate(368.504,-124.724)">
				<title>工作表.58</title>
				<path d="M0 167.99 L42.52 167.99" class="st6"/>
			</g>
		</g>
	</g>
</svg>
