<?xml version="1.0" encoding="UTF-8" standalone="no"?>
<!DOCTYPE svg PUBLIC "-//W3C//DTD SVG 1.0//EN" "http://www.w3.org/TR/2001/REC-SVG-20010904/DTD/svg10.dtd">
<!-- 由 Microsoft Visio 11.0, SVG Export, v1.0 產生 y37.0485.svg Page-1 -->
<svg xmlns="http://www.w3.org/2000/svg" xmlns:xlink="http://www.w3.org/1999/xlink" xmlns:ev="http://www.w3.org/2001/xml-events"
		xmlns:v="http://schemas.microsoft.com/visio/2003/SVGExtensions/" width="8.40179in" height="3.67738in"
		viewBox="0 0 604.929 264.772" xml:space="preserve" color-interpolation-filters="sRGB" class="st8">
	<v:documentProperties v:langID="1028" v:metric="true" v:viewMarkup="false">
		<v:userDefs>
			<v:ud v:nameU="msvSubprocessMaster" v:prompt="" v:val="VT4(Box)"/>
			<v:ud v:nameU="msvNoAutoConnect" v:val="VT0(1):26"/>
		</v:userDefs>
	</v:documentProperties>

	<style type="text/css">
	<![CDATA[
		.st1 {fill:none;stroke:none;stroke-linecap:round;stroke-linejoin:round;stroke-width:0.75}
		.st2 {fill:#000000;font-family:新細明體;font-size:1.33333em}
		.st3 {fill:#000000;font-family:新細明體;font-size:1.00001em}
		.st4 {fill:#000000;font-family:Times New Roman;font-size:1.33333em}
		.st5 {fill:#000000;font-family:新細明體;font-size:1.33333em;font-weight:bold}
		.st6 {stroke:#ffffff;stroke-linecap:round;stroke-linejoin:round;stroke-opacity:0;stroke-width:1}
		.st7 {stroke:#000000;stroke-dasharray:0,4.5;stroke-linecap:round;stroke-linejoin:round;stroke-width:1.5}
		.st8 {fill:none;fill-rule:evenodd;font-size:12px;overflow:visible;stroke-linecap:square;stroke-miterlimit:3}
	]]>
	</style>

	<g v:mID="0" v:index="1" v:groupContext="foregroundPage">
		<title>頁-1</title>
		<v:pageProperties v:drawingScale="0.0393701" v:pageScale="0.0393701" v:drawingUnits="24" v:shadowOffsetX="8.50394"
				v:shadowOffsetY="-8.50394"/>
		<g id="group60-1" transform="translate(321.157,245.772) rotate(-90)" v:mID="60" v:groupContext="group">
			<title>工作表.60</title>
			<g id="shape3-2" v:mID="3" v:groupContext="shape" transform="translate(420.677,-117.906) rotate(90)">
				<title>工作表.3</title>
				<desc>布多羅</desc>
				<v:textBlock v:margins="rect(4,4,4,4)" v:tabSpace="42.5197"/>
				<v:textRect cx="28.3465" cy="236.425" width="56.7" height="56.6929"/>
				<rect x="0" y="208.079" width="56.6929" height="56.6929" class="st1"/>
				<text x="4.35" y="241.23" class="st2" v:langID="1028"><v:paragraph v:horizAlign="1"/><v:tabList/>布多羅</text>			</g>
			<g id="shape4-5" v:mID="4" v:groupContext="shape" transform="translate(420.677,23.8268) rotate(90)">
				<title>工作表.4</title>
				<desc>補多羅</desc>
				<v:textBlock v:margins="rect(4,4,4,4)" v:tabSpace="42.5197"/>
				<v:textRect cx="28.3465" cy="236.425" width="56.7" height="56.6929"/>
				<rect x="0" y="208.079" width="56.6929" height="56.6929" class="st1"/>
				<text x="4.35" y="241.23" class="st2" v:langID="1028"><v:paragraph v:horizAlign="1"/><v:tabList/>補多羅</text>			</g>
			<g id="shape5-8" v:mID="5" v:groupContext="shape" transform="translate(412.173,165.559) rotate(90)">
				<title>工作表.5</title>
				<desc>補多勒迦</desc>
				<v:textBlock v:margins="rect(4,4,4,4)" v:tabSpace="42.5197"/>
				<v:textRect cx="36.8504" cy="227.921" width="73.71" height="73.7008"/>
				<rect x="0" y="191.071" width="73.7008" height="73.7008" class="st1"/>
				<text x="4.85" y="232.72" class="st2" v:langID="1028"><v:paragraph v:horizAlign="1"/><v:tabList/>補多勒迦</text>			</g>
			<g id="shape8-11" v:mID="8" v:groupContext="shape" transform="translate(383.827,-117.906) rotate(90)">
				<title>工作表.8</title>
				<desc>補多羅迦</desc>
				<v:textBlock v:margins="rect(4,4,4,4)" v:tabSpace="42.5197"/>
				<v:textRect cx="36.8504" cy="227.921" width="73.71" height="73.7008"/>
				<rect x="0" y="191.071" width="73.7008" height="73.7008" class="st1"/>
				<text x="4.85" y="232.72" class="st2" v:langID="1028"><v:paragraph v:horizAlign="1"/><v:tabList/>補多羅迦</text>			</g>
			<g id="shape9-14" v:mID="9" v:groupContext="shape" transform="translate(383.827,23.8268) rotate(90)">
				<title>工作表.9</title>
				<desc>補多落迦</desc>
				<v:textBlock v:margins="rect(4,4,4,4)" v:tabSpace="42.5197"/>
				<v:textRect cx="36.8504" cy="227.921" width="73.71" height="73.7008"/>
				<rect x="0" y="191.071" width="73.7008" height="73.7008" class="st1"/>
				<text x="4.85" y="232.72" class="st2" v:langID="1028"><v:paragraph v:horizAlign="1"/><v:tabList/>補多落迦</text>			</g>
			<g id="shape10-17" v:mID="10" v:groupContext="shape" transform="translate(383.827,165.559) rotate(90)">
				<title>工作表.10</title>
				<desc>補多落迦</desc>
				<v:textBlock v:margins="rect(4,4,4,4)" v:tabSpace="42.5197"/>
				<v:textRect cx="36.8504" cy="227.921" width="73.71" height="73.7008"/>
				<rect x="0" y="191.071" width="73.7008" height="73.7008" class="st1"/>
				<text x="4.85" y="232.72" class="st2" v:langID="1028"><v:paragraph v:horizAlign="1"/><v:tabList/>補多落迦</text>			</g>
			<g id="shape13-20" v:mID="13" v:groupContext="shape" transform="translate(363.984,-117.906) rotate(90)">
				<title>工作表.13</title>
				<desc>逋多羅</desc>
				<v:textBlock v:margins="rect(4,4,4,4)" v:tabSpace="42.5197"/>
				<v:textRect cx="28.3465" cy="236.425" width="56.7" height="56.6929"/>
				<rect x="0" y="208.079" width="56.6929" height="56.6929" class="st1"/>
				<text x="4.35" y="241.23" class="st2" v:langID="1028"><v:paragraph v:horizAlign="1"/><v:tabList/>逋多羅</text>			</g>
			<g id="shape15-23" v:mID="15" v:groupContext="shape" transform="translate(363.984,165.559) rotate(90)">
				<title>工作表.15</title>
				<desc>逋多羅</desc>
				<v:textBlock v:margins="rect(4,4,4,4)" v:tabSpace="42.5197"/>
				<v:textRect cx="28.3465" cy="236.425" width="56.7" height="56.6929"/>
				<rect x="0" y="208.079" width="56.6929" height="56.6929" class="st1"/>
				<text x="4.35" y="241.23" class="st2" v:langID="1028"><v:paragraph v:horizAlign="1"/><v:tabList/>逋多羅</text>			</g>
			<g id="shape18-26" v:mID="18" v:groupContext="shape" transform="translate(335.638,-117.906) rotate(90)">
				<title>工作表.18</title>
				<desc>逋多羅</desc>
				<v:textBlock v:margins="rect(4,4,4,4)" v:tabSpace="42.5197"/>
				<v:textRect cx="28.3465" cy="236.425" width="56.7" height="56.6929"/>
				<rect x="0" y="208.079" width="56.6929" height="56.6929" class="st1"/>
				<text x="4.35" y="241.23" class="st2" v:langID="1028"><v:paragraph v:horizAlign="1"/><v:tabList/>逋多羅</text>			</g>
			<g id="shape19-29" v:mID="19" v:groupContext="shape" transform="translate(335.638,23.8268) rotate(90)">
				<title>工作表.19</title>
				<desc>逋多羅</desc>
				<v:textBlock v:margins="rect(4,4,4,4)" v:tabSpace="42.5197"/>
				<v:textRect cx="28.3465" cy="236.425" width="56.7" height="56.6929"/>
				<rect x="0" y="208.079" width="56.6929" height="56.6929" class="st1"/>
				<text x="4.35" y="241.23" class="st2" v:langID="1028"><v:paragraph v:horizAlign="1"/><v:tabList/>逋多羅</text>			</g>
			<g id="shape20-32" v:mID="20" v:groupContext="shape" transform="translate(335.638,165.559) rotate(90)">
				<title>工作表.20</title>
				<desc>逋多羅</desc>
				<v:textBlock v:margins="rect(4,4,4,4)" v:tabSpace="42.5197"/>
				<v:textRect cx="28.3465" cy="236.425" width="56.7" height="56.6929"/>
				<rect x="0" y="208.079" width="56.6929" height="56.6929" class="st1"/>
				<text x="4.35" y="241.23" class="st2" v:langID="1028"><v:paragraph v:horizAlign="1"/><v:tabList/>逋多羅</text>			</g>
			<g id="shape22-35" v:mID="22" v:groupContext="shape" transform="translate(298.787,-132.079) rotate(90)">
				<title>工作表.22</title>
				<desc>毘褒多那</desc>
				<v:textBlock v:margins="rect(4,4,4,4)" v:tabSpace="42.5197"/>
				<v:textRect cx="36.8504" cy="227.921" width="73.71" height="73.7008"/>
				<rect x="0" y="191.071" width="73.7008" height="73.7008" class="st1"/>
				<text x="4.85" y="232.72" class="st2" v:langID="1028"><v:paragraph v:horizAlign="1"/><v:tabList/>毘褒多那</text>			</g>
			<g id="shape23-38" v:mID="23" v:groupContext="shape" transform="translate(307.291,55.0079) rotate(90)">
				<title>工作表.23</title>
				<desc>褒多那</desc>
				<v:textBlock v:margins="rect(4,4,4,4)" v:tabSpace="42.5197"/>
				<v:textRect cx="28.3465" cy="236.425" width="56.7" height="56.6929"/>
				<rect x="0" y="208.079" width="56.6929" height="56.6929" class="st1"/>
				<text x="4.35" y="241.23" class="st2" v:langID="1028"><v:paragraph v:horizAlign="1"/><v:tabList/>褒多那</text>			</g>
			<g id="shape31-41" v:mID="31" v:groupContext="shape" transform="translate(440.52,-134.913) rotate(90)">
				<title>工作表.31</title>
				<desc>又</desc>
				<v:textBlock v:margins="rect(4,4,4,4)" v:tabSpace="42.5197"/>
				<v:textRect cx="11.3386" cy="253.433" width="22.68" height="22.6772"/>
				<rect x="0" y="242.094" width="22.6772" height="22.6772" class="st1"/>
				<text x="5.34" y="257.03" class="st3" v:langID="1028"><v:paragraph v:horizAlign="1"/><v:tabList/>又</text>			</g>
			<g id="shape32-44" v:mID="32" v:groupContext="shape" transform="translate(383.827,-134.913) rotate(90)">
				<title>工作表.32</title>
				<desc>又</desc>
				<v:textBlock v:margins="rect(4,4,4,4)" v:tabSpace="42.5197"/>
				<v:textRect cx="11.3386" cy="253.433" width="22.68" height="22.6772"/>
				<rect x="0" y="242.094" width="22.6772" height="22.6772" class="st1"/>
				<text x="5.34" y="257.03" class="st3" v:langID="1028"><v:paragraph v:horizAlign="1"/><v:tabList/>又</text>			</g>
			<g id="shape33-47" v:mID="33" v:groupContext="shape" transform="translate(355.48,-134.913) rotate(90)">
				<title>工作表.33</title>
				<desc>又</desc>
				<v:textBlock v:margins="rect(4,4,4,4)" v:tabSpace="42.5197" v:verticalText="true"/>
				<v:textRect cx="11.3386" cy="253.433" width="22.68" height="22.6772"/>
				<rect x="0" y="242.094" width="22.6772" height="22.6772" class="st1"/>
				<text x="11.34" y="247.43" writing-mode="tb-rl" class="st3" v:langID="1028"><v:paragraph v:horizAlign="1"/><v:tabList/>又</text>			</g>
			<g id="shape34-50" v:mID="34" v:groupContext="shape" transform="translate(412.173,-134.913) rotate(90)">
				<title>工作表.34</title>
				<desc>又</desc>
				<v:textBlock v:margins="rect(4,4,4,4)" v:tabSpace="42.5197"/>
				<v:textRect cx="11.3386" cy="253.433" width="22.68" height="22.6772"/>
				<rect x="0" y="242.094" width="22.6772" height="22.6772" class="st1"/>
				<text x="5.34" y="257.03" class="st3" v:langID="1028"><v:paragraph v:horizAlign="1"/><v:tabList/>又</text>			</g>
			<g id="shape35-53" v:mID="35" v:groupContext="shape" transform="translate(434.85,-4.51969) rotate(90)">
				<title>工作表.35</title>
				<desc>善生</desc>
				<v:textBlock v:margins="rect(4,4,4,4)" v:tabSpace="42.5197"/>
				<v:textRect cx="17.0079" cy="247.764" width="34.02" height="34.0157"/>
				<rect x="0" y="230.756" width="34.0157" height="34.0157" class="st1"/>
				<text x="5.01" y="251.36" class="st3" v:langID="1028"><v:paragraph v:horizAlign="1"/><v:tabList/>善生</text>			</g>
			<g id="shape36-56" v:mID="36" v:groupContext="shape" transform="translate(406.504,-4.51969) rotate(90)">
				<title>工作表.36</title>
				<desc>瞿曇</desc>
				<v:textBlock v:margins="rect(4,4,4,4)" v:tabSpace="42.5197"/>
				<v:textRect cx="17.0079" cy="247.764" width="34.02" height="34.0157"/>
				<rect x="0" y="230.756" width="34.0157" height="34.0157" class="st1"/>
				<text x="5.01" y="251.36" class="st3" v:langID="1028"><v:paragraph v:horizAlign="1"/><v:tabList/>瞿曇</text>			</g>
			<g id="shape14-59" v:mID="14" v:groupContext="shape" transform="translate(363.984,23.8268) rotate(90)">
				<title>工作表.14</title>
				<desc>逋多羅</desc>
				<v:textBlock v:margins="rect(4,4,4,4)" v:tabSpace="42.5197"/>
				<v:textRect cx="28.3465" cy="236.425" width="56.7" height="56.6929"/>
				<rect x="0" y="208.079" width="56.6929" height="56.6929" class="st1"/>
				<text x="4.35" y="241.23" class="st2" v:langID="1028"><v:paragraph v:horizAlign="1"/><v:tabList/>逋多羅</text>			</g>
			<g id="shape37-62" v:mID="37" v:groupContext="shape" transform="translate(378.157,-4.51969) rotate(90)">
				<title>工作表.37</title>
				<desc>瞿曇</desc>
				<v:textBlock v:margins="rect(4,4,4,4)" v:tabSpace="42.5197"/>
				<v:textRect cx="17.0079" cy="247.764" width="34.02" height="34.0157"/>
				<rect x="0" y="230.756" width="34.0157" height="34.0157" class="st1"/>
				<text x="5.01" y="251.36" class="st3" v:langID="1028"><v:paragraph v:horizAlign="1"/><v:tabList/>瞿曇</text>			</g>
			<g id="shape38-65" v:mID="38" v:groupContext="shape" transform="translate(349.811,-4.51969) rotate(90)">
				<title>工作表.38</title>
				<desc>瞿曇</desc>
				<v:textBlock v:margins="rect(4,4,4,4)" v:tabSpace="42.5197"/>
				<v:textRect cx="17.0079" cy="247.764" width="34.02" height="34.0157"/>
				<rect x="0" y="230.756" width="34.0157" height="34.0157" class="st1"/>
				<text x="5.01" y="251.36" class="st3" v:langID="1028"><v:paragraph v:horizAlign="1"/><v:tabList/>瞿曇</text>			</g>
			<g id="shape39-68" v:mID="39" v:groupContext="shape" transform="translate(310.126,-4.51969) rotate(90)">
				<title>工作表.39</title>
				<desc>大茅草王</desc>
				<v:textBlock v:margins="rect(4,4,4,4)" v:tabSpace="42.5197"/>
				<v:textRect cx="28.3465" cy="236.425" width="56.7" height="56.6929"/>
				<rect x="0" y="208.079" width="56.6929" height="56.6929" class="st1"/>
				<text x="4.35" y="240.03" class="st3" v:langID="1028"><v:paragraph v:horizAlign="1"/><v:tabList/>大茅草王</text>			</g>
			<g id="shape40-71" v:mID="40" v:groupContext="shape" transform="translate(434.85,137.213) rotate(90)">
				<title>工作表.40</title>
				<desc>甘蔗</desc>
				<v:textBlock v:margins="rect(4,4,4,4)" v:tabSpace="42.5197"/>
				<v:textRect cx="17.0079" cy="247.764" width="34.02" height="34.0157"/>
				<rect x="0" y="230.756" width="34.0157" height="34.0157" class="st1"/>
				<text x="5.01" y="251.36" class="st3" v:langID="1028"><v:paragraph v:horizAlign="1"/><v:tabList/>甘蔗</text>			</g>
			<g id="shape24-74" v:mID="24" v:groupContext="shape" transform="translate(321.465,137.213) rotate(90)">
				<title>工作表.24</title>
				<desc>甘蔗</desc>
				<v:textBlock v:margins="rect(4,4,4,4)" v:tabSpace="42.5197"/>
				<v:textRect cx="17.0079" cy="247.764" width="34.02" height="34.0157"/>
				<rect x="0" y="230.756" width="34.0157" height="34.0157" class="st1"/>
				<text x="5.01" y="251.36" class="st3" v:langID="1028"><v:paragraph v:horizAlign="1"/><v:tabList/>甘蔗</text>			</g>
			<g id="shape41-77" v:mID="41" v:groupContext="shape" transform="translate(349.811,137.213) rotate(90)">
				<title>工作表.41</title>
				<desc>甘蔗</desc>
				<v:textBlock v:margins="rect(4,4,4,4)" v:tabSpace="42.5197"/>
				<v:textRect cx="17.0079" cy="247.764" width="34.02" height="34.0157"/>
				<rect x="0" y="230.756" width="34.0157" height="34.0157" class="st1"/>
				<text x="5.01" y="251.36" class="st3" v:langID="1028"><v:paragraph v:horizAlign="1"/><v:tabList/>甘蔗</text>			</g>
			<g id="shape42-80" v:mID="42" v:groupContext="shape" transform="translate(378.157,137.213) rotate(90)">
				<title>工作表.42</title>
				<desc>甘蔗</desc>
				<v:textBlock v:margins="rect(4,4,4,4)" v:tabSpace="42.5197"/>
				<v:textRect cx="17.0079" cy="247.764" width="34.02" height="34.0157"/>
				<rect x="0" y="230.756" width="34.0157" height="34.0157" class="st1"/>
				<text x="5.01" y="251.36" class="st3" v:langID="1028"><v:paragraph v:horizAlign="1"/><v:tabList/>甘蔗</text>			</g>
			<g id="shape43-83" v:mID="43" v:groupContext="shape" transform="translate(406.504,137.213) rotate(90)">
				<title>工作表.43</title>
				<desc>甘蔗</desc>
				<v:textBlock v:margins="rect(4,4,4,4)" v:tabSpace="42.5197"/>
				<v:textRect cx="17.0079" cy="247.764" width="34.02" height="34.0157"/>
				<rect x="0" y="230.756" width="34.0157" height="34.0157" class="st1"/>
				<text x="5.01" y="251.36" class="st3" v:langID="1028"><v:paragraph v:horizAlign="1"/><v:tabList/>甘蔗</text>			</g>
			<g id="shape1-86" v:mID="1" v:groupContext="shape" transform="translate(437.685,-270.976) rotate(90)">
				<title>工作表.1</title>
				<desc>Ⅰ</desc>
				<v:textBlock v:margins="rect(4,4,4,4)" v:tabSpace="42.5197"/>
				<v:textRect cx="11.3386" cy="253.433" width="22.68" height="22.6772"/>
				<rect x="0" y="242.094" width="22.6772" height="22.6772" class="st1"/>
				<text x="4" y="258.23" class="st2" v:langID="1028"><v:paragraph v:horizAlign="1"/><v:tabList/>Ⅰ</text>			</g>
			<g id="shape2-89" v:mID="2" v:groupContext="shape" transform="translate(420.677,-249.717) rotate(90)">
				<title>工作表.2</title>
				<desc>富多羅</desc>
				<v:textBlock v:margins="rect(4,4,4,4)" v:tabSpace="42.5197"/>
				<v:textRect cx="28.3465" cy="236.425" width="56.7" height="56.6929"/>
				<rect x="0" y="208.079" width="56.6929" height="56.6929" class="st1"/>
				<text x="4.35" y="241.23" class="st2" v:langID="1028"><v:paragraph v:horizAlign="1"/><v:tabList/>富多羅</text>			</g>
			<g id="shape6-92" v:mID="6" v:groupContext="shape" transform="translate(409.339,-270.976) rotate(90)">
				<title>工作表.6</title>
				<desc>Ⅱ</desc>
				<v:textBlock v:margins="rect(4,4,4,4)" v:tabSpace="42.5197"/>
				<v:textRect cx="11.3386" cy="253.433" width="22.68" height="22.6772"/>
				<rect x="0" y="242.094" width="22.6772" height="22.6772" class="st1"/>
				<text x="4" y="258.23" class="st2" v:langID="1028"><v:paragraph v:horizAlign="1"/><v:tabList/>Ⅱ</text>			</g>
			<g id="shape7-95" v:mID="7" v:groupContext="shape" transform="translate(383.827,-251.134) rotate(90)">
				<title>工作表.7</title>
				<desc>布多羅迦</desc>
				<v:textBlock v:margins="rect(4,4,4,4)" v:tabSpace="42.5197"/>
				<v:textRect cx="36.8504" cy="227.921" width="73.71" height="73.7008"/>
				<rect x="0" y="191.071" width="73.7008" height="73.7008" class="st1"/>
				<text x="4.85" y="232.72" class="st2" v:langID="1028"><v:paragraph v:horizAlign="1"/><v:tabList/>布多羅迦</text>			</g>
			<g id="shape11-98" v:mID="11" v:groupContext="shape" transform="translate(380.992,-270.976) rotate(90)">
				<title>工作表.11</title>
				<desc>Ⅲ</desc>
				<v:textBlock v:margins="rect(4,4,4,4)" v:tabSpace="42.5197"/>
				<v:textRect cx="11.3386" cy="253.433" width="22.68" height="22.6772"/>
				<rect x="0" y="242.094" width="22.6772" height="22.6772" class="st1"/>
				<text x="4" y="258.23" class="st2" v:langID="1028"><v:paragraph v:horizAlign="1"/><v:tabList/>Ⅲ</text>			</g>
			<g id="shape12-101" v:mID="12" v:groupContext="shape" transform="translate(363.984,-249.717) rotate(90)">
				<title>工作表.12</title>
				<desc>逋多羅</desc>
				<v:textBlock v:margins="rect(4,4,4,4)" v:tabSpace="42.5197"/>
				<v:textRect cx="28.3465" cy="236.425" width="56.7" height="56.6929"/>
				<rect x="0" y="208.079" width="56.6929" height="56.6929" class="st1"/>
				<text x="4.35" y="241.23" class="st2" v:langID="1028"><v:paragraph v:horizAlign="1"/><v:tabList/>逋多羅</text>			</g>
			<g id="shape16-104" v:mID="16" v:groupContext="shape" transform="translate(352.646,-270.976) rotate(90)">
				<title>工作表.16</title>
				<desc>Ⅳ</desc>
				<v:textBlock v:margins="rect(4,4,4,4)" v:tabSpace="42.5197"/>
				<v:textRect cx="11.3386" cy="253.433" width="22.68" height="22.6772"/>
				<rect x="0" y="242.094" width="22.6772" height="22.6772" class="st1"/>
				<text x="4" y="258.23" class="st2" v:langID="1028"><v:paragraph v:horizAlign="1"/><v:tabList/>Ⅳ</text>			</g>
			<g id="shape17-107" v:mID="17" v:groupContext="shape" transform="translate(335.638,-249.717) rotate(90)">
				<title>工作表.17</title>
				<desc>逋多羅</desc>
				<v:textBlock v:margins="rect(4,4,4,4)" v:tabSpace="42.5197"/>
				<v:textRect cx="28.3465" cy="236.425" width="56.7" height="56.6929"/>
				<rect x="0" y="208.079" width="56.6929" height="56.6929" class="st1"/>
				<text x="4.35" y="241.23" class="st2" v:langID="1028"><v:paragraph v:horizAlign="1"/><v:tabList/>逋多羅</text>			</g>
			<g id="shape21-110" v:mID="21" v:groupContext="shape" transform="translate(307.291,-249.717) rotate(90)">
				<title>工作表.21</title>
				<desc>褒多那</desc>
				<v:textBlock v:margins="rect(4,4,4,4)" v:tabSpace="42.5197"/>
				<v:textRect cx="28.3465" cy="236.425" width="56.7" height="56.6929"/>
				<rect x="0" y="208.079" width="56.6929" height="56.6929" class="st1"/>
				<text x="4.35" y="241.23" class="st2" v:langID="1028"><v:paragraph v:horizAlign="1"/><v:tabList/>褒多那</text>			</g>
			<g id="shape25-113" v:mID="25" v:groupContext="shape" transform="translate(278.945,-253.969) rotate(90)">
				<title>工作表.25</title>
				<desc>Pakula</desc>
				<v:textBlock v:margins="rect(4,4,4,4)" v:tabSpace="42.5197"/>
				<v:textRect cx="28.3465" cy="236.425" width="56.7" height="56.6929"/>
				<rect x="0" y="208.079" width="56.6929" height="56.6929" class="st1"/>
				<text x="6.57" y="241.23" class="st4" v:langID="1033"><v:paragraph v:horizAlign="1"/><v:tabList/>Pakula</text>			</g>
			<g id="shape26-116" v:mID="26" v:groupContext="shape" transform="translate(324.299,-270.976) rotate(90)">
				<title>工作表.26</title>
				<desc>Ⅴ</desc>
				<v:textBlock v:margins="rect(4,4,4,4)" v:tabSpace="42.5197"/>
				<v:textRect cx="11.3386" cy="253.433" width="22.68" height="22.6772"/>
				<rect x="0" y="242.094" width="22.6772" height="22.6772" class="st1"/>
				<text x="4" y="258.23" class="st5" v:langID="1028"><v:paragraph v:horizAlign="1"/><v:tabList/>Ⅴ</text>			</g>
			<g id="shape28-119" v:mID="28" v:groupContext="shape" transform="translate(295.953,-270.976) rotate(90)">
				<title>工作表.28</title>
				<desc>Ⅵ</desc>
				<v:textBlock v:margins="rect(4,4,4,4)" v:tabSpace="42.5197"/>
				<v:textRect cx="11.3386" cy="253.433" width="22.68" height="22.6772"/>
				<rect x="0" y="242.094" width="22.6772" height="22.6772" class="st1"/>
				<text x="4" y="258.23" class="st2" v:langID="1033"><v:paragraph v:horizAlign="1"/><v:tabList/>Ⅵ</text>			</g>
			<g id="shape27-122" v:mID="27" v:groupContext="shape" transform="translate(491.543,-302.157) rotate(90)">
				<title>工作表.27</title>
				<path d="M0 264.77 L566.93 264.77" class="st6"/>
			</g>
			<g id="shape44-125" v:mID="44" v:groupContext="shape" transform="translate(420.677,-174.598) rotate(90)">
				<title>工作表.44</title>
				<path d="M0 264.77 L42.52 264.77" class="st7"/>
			</g>
			<g id="shape45-128" v:mID="45" v:groupContext="shape" transform="translate(449.024,-188.772) rotate(90)">
				<title>工作表.45</title>
				<path d="M0 264.77 L56.69 264.77" class="st7"/>
			</g>
			<g id="shape46-131" v:mID="46" v:groupContext="shape" transform="translate(363.984,-188.772) rotate(90)">
				<title>工作表.46</title>
				<path d="M0 264.77 L56.69 264.77" class="st7"/>
			</g>
			<g id="shape47-134" v:mID="47" v:groupContext="shape" transform="translate(392.331,-188.772) rotate(90)">
				<title>工作表.47</title>
				<path d="M0 264.77 L56.69 264.77" class="st7"/>
			</g>
			<g id="shape48-137" v:mID="48" v:groupContext="shape" transform="translate(335.638,-188.772) rotate(90)">
				<title>工作表.48</title>
				<path d="M0 264.77 L56.69 264.77" class="st7"/>
			</g>
			<g id="shape49-140" v:mID="49" v:groupContext="shape" transform="translate(335.638,-61.2126) rotate(90)">
				<title>工作表.49</title>
				<path d="M0 264.77 L56.69 264.77" class="st7"/>
			</g>
			<g id="shape50-143" v:mID="50" v:groupContext="shape" transform="translate(363.984,-61.2126) rotate(90)">
				<title>工作表.50</title>
				<path d="M0 264.77 L56.69 264.77" class="st7"/>
			</g>
			<g id="shape51-146" v:mID="51" v:groupContext="shape" transform="translate(392.331,-61.2126) rotate(90)">
				<title>工作表.51</title>
				<path d="M0 264.77 L56.69 264.77" class="st7"/>
			</g>
			<g id="shape52-149" v:mID="52" v:groupContext="shape" transform="translate(449.024,-61.2126) rotate(90)">
				<title>工作表.52</title>
				<path d="M0 264.77 L56.69 264.77" class="st7"/>
			</g>
			<g id="shape53-152" v:mID="53" v:groupContext="shape" transform="translate(420.677,-47.0394) rotate(90)">
				<title>工作表.53</title>
				<path d="M0 264.77 L42.52 264.77" class="st7"/>
			</g>
			<g id="shape55-155" v:mID="55" v:groupContext="shape" transform="translate(449.024,80.5197) rotate(90)">
				<title>工作表.55</title>
				<path d="M0 264.77 L56.69 264.77" class="st7"/>
			</g>
			<g id="shape56-158" v:mID="56" v:groupContext="shape" transform="translate(392.331,80.5197) rotate(90)">
				<title>工作表.56</title>
				<path d="M0 264.77 L56.69 264.77" class="st7"/>
			</g>
			<g id="shape57-161" v:mID="57" v:groupContext="shape" transform="translate(363.984,80.5197) rotate(90)">
				<title>工作表.57</title>
				<path d="M0 264.77 L56.69 264.77" class="st7"/>
			</g>
			<g id="shape54-164" v:mID="54" v:groupContext="shape" transform="translate(335.638,108.866) rotate(90)">
				<title>工作表.54</title>
				<path d="M0 264.77 L28.35 264.77" class="st7"/>
			</g>
			<g id="shape58-167" v:mID="58" v:groupContext="shape" transform="translate(420.677,97.5276) rotate(90)">
				<title>工作表.58</title>
				<path d="M0 264.77 L42.52 264.77" class="st7"/>
			</g>
			<g id="shape29-170" v:mID="29" v:groupContext="shape" transform="translate(6.39488E-014,-566.929)">
				<title>工作表.29</title>
				<path d="M0 264.77 L226.77 264.77" class="st6"/>
			</g>
			<g id="shape30-173" v:mID="30" v:groupContext="shape">
				<title>工作表.30</title>
				<path d="M0 264.77 L226.77 264.77" class="st6"/>
			</g>
			<g id="shape59-176" v:mID="59" v:groupContext="shape" transform="translate(264.772,-302.157) rotate(90)">
				<title>工作表.59</title>
				<path d="M0 264.77 L566.93 264.77" class="st6"/>
			</g>
		</g>
	</g>
</svg>
