<?xml version="1.0" encoding="UTF-8" standalone="no"?>
<!-- Created with Inkscape (http://www.inkscape.org/) -->

<svg
   xmlns:dc="http://purl.org/dc/elements/1.1/"
   xmlns:cc="http://creativecommons.org/ns#"
   xmlns:rdf="http://www.w3.org/1999/02/22-rdf-syntax-ns#"
   xmlns:svg="http://www.w3.org/2000/svg"
   xmlns="http://www.w3.org/2000/svg"
   xmlns:sodipodi="http://sodipodi.sourceforge.net/DTD/sodipodi-0.dtd"
   xmlns:inkscape="http://www.inkscape.org/namespaces/inkscape"
   width="300"
   height="300"
   id="svg2"
   version="1.1"
   inkscape:version="0.48.3.1 r9886"
   sodipodi:docname="dessin.svg">
  <defs
     id="defs4" />
  <sodipodi:namedview
     id="base"
     pagecolor="#ffffff"
     bordercolor="#666666"
     borderopacity="1.0"
     inkscape:pageopacity="0.0"
     inkscape:pageshadow="2"
     inkscape:zoom="1.979899"
     inkscape:cx="66.959549"
     inkscape:cy="133.99264"
     inkscape:document-units="px"
     inkscape:current-layer="layer1"
     showgrid="false"
     inkscape:window-width="1215"
     inkscape:window-height="1000"
     inkscape:window-x="65"
     inkscape:window-y="24"
     inkscape:window-maximized="1" />
  <metadata
     id="metadata7">
    <rdf:RDF>
      <cc:Work
         rdf:about="">
        <dc:format>image/svg+xml</dc:format>
        <dc:type
           rdf:resource="http://purl.org/dc/dcmitype/StillImage" />
        <dc:title />
      </cc:Work>
    </rdf:RDF>
  </metadata>
  <g
     inkscape:label="Calque 1"
     inkscape:groupmode="layer"
     id="layer1"
     transform="translate(0,-752.36218)">
    <path
       style="fill:#000000"
       d="m 93.016805,1017.6014 c -12.752067,-5.9529 -18.067743,-12.492 -25.910412,-31.87364 -7.519948,-18.58402 -8.131162,-29.69007 -1.634042,-29.69007 2.588212,0 3.458925,-1.29865 1.934954,-2.8859 -3.614,-3.764 1.614354,-14.27586 7.100465,-14.27586 2.340343,0 5.454979,3.86141 6.921358,8.58088 2.465159,7.93402 4.103067,8.58088 21.727602,8.58088 l 19.06151,0 1.61372,-19.30698 c 2.25684,-27.0007 -0.72474,-32.96002 -18.09516,-36.16676 -20.708776,-3.82301 -44.97028,-20.34308 -44.97028,-30.62107 0,-9.16359 5.487684,-10.65109 14.266391,-3.86708 15.666659,12.10681 23.981033,15.59429 37.178039,15.59429 12.71604,0 14.52671,-1.0521 17.11918,-9.9473 2.22974,-7.6506 -0.0756,-14.08957 -9.98418,-27.88785 -7.08576,-9.86732 -16.33653,-23.22044 -20.557244,-29.67366 -4.220733,-6.4532 -12.502744,-15.08516 -18.404524,-19.18213 -11.904324,-8.2639 -13.556669,-14.14008 -5.176047,-18.40741 6.641708,-3.3819 81.766155,-9.73081 94.425905,-7.98013 4.88791,0.67595 18.38528,2.01848 29.9941,2.98343 18.56982,1.54358 21.10698,2.58083 21.10698,8.6293 0,3.78224 -3.72902,8.15943 -8.28954,9.73051 -4.55924,1.57065 -13.47838,9.66049 -19.82032,17.97748 -14.06649,18.44703 -26.18726,31.69506 -31.13234,34.02761 -2.03365,0.95929 -4.79021,9.50055 -6.12565,18.98062 l -2.42809,17.23651 12.791,-1.51935 c 7.03505,-0.83566 21.32479,-5.42834 31.75501,-10.20599 21.50173,-9.84904 29.37606,-8.05377 25.09595,5.7216 -1.88136,6.0551 -7.969,10.80524 -19.93208,15.55284 -9.47294,3.75938 -17.27727,7.80058 -17.34299,8.98046 -0.0657,1.17986 -4.95503,2.14522 -10.86502,2.14522 -23.5408,0 -24.80309,1.54404 -24.80309,30.33909 l 0,26.86675 23.94512,0 c 23.84771,0 23.95698,-0.0407 26.86276,-10.01103 2.90815,-9.97827 8.28337,-12.713 13.76539,-7.00336 4.60003,4.79101 7.48596,34.26873 4.39368,44.87885 -1.69687,5.82231 -10.54634,14.95042 -22.17659,22.87485 l -19.35291,13.1864 -37.04748,1.1446 c -29.22536,0.903 -39.15115,0.1629 -47.011125,-3.5066 z m 78.498055,-17.4834 c 10.31757,-5.58836 13.67168,-9.78483 13.67168,-17.10535 l 0,-9.70035 -46.65752,0.12363 c -52.173885,0.13823 -54.269832,1.17103 -37.60212,18.53072 15.66755,16.31805 48.50835,20.11045 70.58796,8.15145 z m 4.58932,-207.83204 c 0.1076,-1.17988 -12.80223,-2.14523 -28.68801,-2.14523 -15.88577,0 -28.88321,1.16715 -28.88321,2.59365 0,1.42651 6.13203,11.39116 13.62679,22.14363 l 13.6268,19.54992 15.06121,-19.9984 c 8.2837,-10.9991 15.14907,-20.96371 15.25642,-22.14357 z"
       id="path3002"
       inkscape:connector-curvature="0" />
  </g>
</svg>
