<?xml version="1.0" encoding="UTF-8" standalone="no"?>
<!DOCTYPE svg PUBLIC "-//W3C//DTD SVG 1.1//EN" "http://www.w3.org/Graphics/SVG/1.1/DTD/svg11.dtd">
<!-- 由 Microsoft Visio, SVG Export 產生 y37.0293.svg 頁-1 -->
<svg xmlns="http://www.w3.org/2000/svg" xmlns:xlink="http://www.w3.org/1999/xlink" xmlns:ev="http://www.w3.org/2001/xml-events"
		width="4.47892in" height="1.50648in" viewBox="0 0 322.482 108.467" xml:space="preserve" color-interpolation-filters="sRGB"
		class="st3">
	<style type="text/css">
	<![CDATA[
		.st1 {fill:none;stroke:none;stroke-linecap:round;stroke-linejoin:round;stroke-width:0.75}
		.st2 {fill:#000000;font-family:新細明體;font-size:1.33333em}
		.st3 {fill:none;fill-rule:evenodd;font-size:12px;overflow:visible;stroke-linecap:square;stroke-miterlimit:3}
	]]>
	</style>

	<g>
		<title>頁-1</title>
		<g id="group20-1" transform="translate(0.375,-0.375)">
			<title>工作表.20</title>
			<g id="shape1-2" transform="translate(1.59872E-14,-85.0394)">
				<title>工作表.1</title>
				<desc>《大毘婆沙論》</desc>
				<rect x="0" y="85.7894" width="127.559" height="22.6772" class="st1"/>
				<text x="7.78" y="101.93" class="st2">《大毘婆沙論》</text>			</g>
			<g id="shape2-5" transform="translate(170.079,-85.0394)">
				<title>工作表.2</title>
				<desc>《菩提資糧論》</desc>
				<rect x="0" y="85.7894" width="127.559" height="22.6772" class="st1"/>
				<text x="7.78" y="101.93" class="st2">《菩提資糧論》</text>			</g>
			<g id="shape3-8" transform="translate(4.25197,-59.5276)">
				<title>工作表.3</title>
				<desc>1.</desc>
				<rect x="0" y="85.7894" width="22.6772" height="22.6772" class="st1"/>
				<text x="5.7" y="101.93" class="st2">1.</text>			</g>
			<g id="shape4-11" transform="translate(19.8425,-56.6929)">
				<title>工作表.4</title>
				<desc>清涼義</desc>
				<rect x="0" y="85.7894" width="56.6929" height="22.6772" class="st1"/>
				<text x="4.35" y="101.93" class="st2">清涼義</text>			</g>
			<g id="shape5-14" transform="translate(174.331,-59.5276)">
				<title>工作表.5</title>
				<desc>3.</desc>
				<rect x="0" y="85.7894" width="22.6772" height="22.6772" class="st1"/>
				<text x="5.7" y="101.93" class="st2">3.</text>			</g>
			<g id="shape6-17" transform="translate(188.504,-56.6929)">
				<title>工作表.6</title>
				<desc>清涼義</desc>
				<rect x="0" y="85.7894" width="56.6929" height="22.6772" class="st1"/>
				<text x="4.35" y="101.93" class="st2">清涼義</text>			</g>
			<g id="shape7-20" transform="translate(19.8425,-28.3465)">
				<title>工作表.7</title>
				<desc>安眠義</desc>
				<rect x="0" y="85.7894" width="56.6929" height="22.6772" class="st1"/>
				<text x="4.35" y="101.93" class="st2">安眠義</text>			</g>
			<g id="shape8-23" transform="translate(4.25197,-31.1811)">
				<title>工作表.8</title>
				<desc>2.</desc>
				<rect x="0" y="85.7894" width="22.6772" height="22.6772" class="st1"/>
				<text x="5.7" y="101.93" class="st2">2.</text>			</g>
			<g id="shape9-26" transform="translate(174.331,-31.1811)">
				<title>工作表.9</title>
				<desc>4.</desc>
				<rect x="0" y="85.7894" width="22.6772" height="22.6772" class="st1"/>
				<text x="5.7" y="101.93" class="st2">4.</text>			</g>
			<g id="shape10-29" transform="translate(188.22,-28.3465)">
				<title>工作表.10</title>
				<desc>安隱義‧</desc>
				<rect x="0" y="85.7894" width="73.7008" height="22.6772" class="st1"/>
				<text x="4.85" y="101.93" class="st2">安隱義‧</text>			</g>
			<g id="shape11-32" transform="translate(250.866,-31.1811)">
				<title>工作表.11</title>
				<desc>5.</desc>
				<rect x="0" y="85.7894" width="22.6772" height="22.6772" class="st1"/>
				<text x="5.7" y="101.93" class="st2">5.</text>			</g>
			<g id="shape12-35" transform="translate(265.039,-28.3465)">
				<title>工作表.12</title>
				<desc>安靜義</desc>
				<rect x="0" y="85.7894" width="56.6929" height="22.6772" class="st1"/>
				<text x="4.35" y="101.93" class="st2">安靜義</text>			</g>
			<g id="shape13-38" transform="translate(4.25197,-2.83465)">
				<title>工作表.13</title>
				<desc>3.</desc>
				<rect x="0" y="85.7894" width="22.6772" height="22.6772" class="st1"/>
				<text x="5.7" y="101.93" class="st2">3.</text>			</g>
			<g id="shape15-41" transform="translate(174.331,-2.83465)">
				<title>工作表.15</title>
				<desc>1.</desc>
				<rect x="0" y="85.7894" width="22.6772" height="22.6772" class="st1"/>
				<text x="5.7" y="101.93" class="st2">1.</text>			</g>
			<g id="shape16-44" transform="translate(188.22,-6.82121E-13)">
				<title>工作表.16</title>
				<desc>習近義‧</desc>
				<rect x="0" y="85.7894" width="73.7008" height="22.6772" class="st1"/>
				<text x="4.85" y="101.93" class="st2">習近義‧</text>			</g>
			<g id="shape17-47" transform="translate(250.866,-2.83465)">
				<title>工作表.17</title>
				<desc>2.</desc>
				<rect x="0" y="85.7894" width="22.6772" height="22.6772" class="st1"/>
				<text x="5.7" y="101.93" class="st2">2.</text>			</g>
			<g id="shape18-50" transform="translate(265.039,-9.37916E-13)">
				<title>工作表.18</title>
				<desc>本性義</desc>
				<rect x="0" y="85.7894" width="56.6929" height="22.6772" class="st1"/>
				<text x="4.35" y="101.93" class="st2">本性義</text>			</g>
			<g id="shape19-53" transform="translate(19.8425,2.84217E-14)">
				<title>工作表.19</title>
				<desc>數習義</desc>
				<rect x="0" y="85.7894" width="56.6929" height="22.6772" class="st1"/>
				<text x="4.35" y="101.93" class="st2">數習義</text>			</g>
		</g>
	</g>
</svg>
