<?xml version="1.0" encoding="UTF-8" standalone="no"?>
<!DOCTYPE svg PUBLIC "-//W3C//DTD SVG 1.1//EN" "http://www.w3.org/Graphics/SVG/1.1/DTD/svg11.dtd">
<!-- 由 Microsoft Visio, SVG Export 產生 y37.0035-h.svg 頁-1 -->
<svg xmlns="http://www.w3.org/2000/svg" xmlns:xlink="http://www.w3.org/1999/xlink" xmlns:ev="http://www.w3.org/2001/xml-events"
		width="5.87656in" height="3.47498in" viewBox="0 0 423.112 250.199" xml:space="preserve" color-interpolation-filters="sRGB"
		class="st3">
	<style type="text/css">
	<![CDATA[
		.st1 {fill:none;stroke:none;stroke-linecap:round;stroke-linejoin:round;stroke-width:0.75}
		.st2 {fill:#000000;font-family:新細明體;font-size:1.33333em}
		.st3 {fill:none;fill-rule:evenodd;font-size:12px;overflow:visible;stroke-linecap:square;stroke-miterlimit:3}
	]]>
	</style>

	<g>
		<title>頁-1</title>
		<g id="group194-1" transform="translate(0.375,-0.375)">
			<title>工作表.194</title>
			<g id="shape89-2" transform="translate(12.7559,-226.772)">
				<title>工作表.89</title>
				<desc>《菩薩藏經》《富樓那問》</desc>
				<rect x="0" y="227.522" width="232.441" height="22.6772" class="st1"/>
				<text x="4.22" y="243.66" class="st2">《菩薩藏經》（《富樓那問》）</text>			</g>
			<g id="shape90-5" transform="translate(317.48,-226.772)">
				<title>工作表.90</title>
				<desc>秦鳩摩羅什譯</desc>
				<rect x="0" y="227.522" width="104.882" height="22.6772" class="st1"/>
				<text x="4.44" y="243.66" class="st2">秦鳩摩羅什譯</text>			</g>
			<g id="shape91-8" transform="translate(12.7559,-198.425)">
				<title>工作表.91</title>
				<desc>《金剛般若波羅蜜經》</desc>
				<rect x="0" y="227.522" width="170.079" height="22.6772" class="st1"/>
				<text x="5.04" y="243.66" class="st2">《金剛般若波羅蜜經》</text>			</g>
			<g id="shape92-11" transform="translate(317.48,-198.425)">
				<title>工作表.92</title>
				<desc>秦鳩摩羅什譯</desc>
				<rect x="0" y="227.522" width="104.882" height="22.6772" class="st1"/>
				<text x="4.44" y="243.66" class="st2">秦鳩摩羅什譯</text>			</g>
			<g id="shape93-14" transform="translate(12.7559,-170.079)">
				<title>工作表.93</title>
				<desc>《無量壽經》</desc>
				<rect x="0" y="227.522" width="104.882" height="22.6772" class="st1"/>
				<text x="4.44" y="243.66" class="st2">《無量壽經》</text>			</g>
			<g id="shape94-17" transform="translate(317.48,-170.079)">
				<title>工作表.94</title>
				<desc>秦鳩摩羅什譯</desc>
				<rect x="0" y="227.522" width="104.882" height="22.6772" class="st1"/>
				<text x="4.44" y="243.66" class="st2">秦鳩摩羅什譯</text>			</g>
			<g id="shape95-20" transform="translate(9.92126,-141.732)">
				<title>工作表.95</title>
				<desc>《演道俗業經》</desc>
				<rect x="0" y="227.522" width="127.559" height="22.6772" class="st1"/>
				<text x="7.78" y="243.66" class="st2">《演道俗業經》</text>			</g>
			<g id="shape96-23" transform="translate(316.063,-56.6929)">
				<title>工作表.96</title>
				<desc>失譯</desc>
				<rect x="0" y="227.522" width="42.5197" height="22.6772" class="st1"/>
				<text x="5.26" y="243.66" class="st2">失譯</text>			</g>
			<g id="shape97-26" transform="translate(14.1732,-113.386)">
				<title>工作表.97</title>
				<desc>《長者子辯意經》</desc>
				<rect x="0" y="227.522" width="136.063" height="22.6772" class="st1"/>
				<text x="4.03" y="243.66" class="st2">《長者子辯意經》</text>			</g>
			<g id="shape98-29" transform="translate(12.7559,-85.0394)">
				<title>工作表.98</title>
				<desc>《內外六波羅蜜經》</desc>
				<rect x="0" y="227.522" width="153.071" height="22.6772" class="st1"/>
				<text x="4.54" y="243.66" class="st2">《內外六波羅蜜經》</text>			</g>
			<g id="shape99-32" transform="translate(12.7559,-56.6929)">
				<title>工作表.99</title>
				<desc>《菩薩道樹三昧經》</desc>
				<rect x="0" y="227.522" width="153.071" height="22.6772" class="st1"/>
				<text x="4.54" y="243.66" class="st2">《菩薩道樹三昧經》</text>			</g>
			<g id="shape100-35" transform="translate(9.92126,-28.3465)">
				<title>工作表.100</title>
				<desc>《黑氏梵志經》</desc>
				<rect x="0" y="227.522" width="127.559" height="22.6772" class="st1"/>
				<text x="7.78" y="243.66" class="st2">《黑氏梵志經》</text>			</g>
			<g id="shape101-38" transform="translate(12.7559,-2.27374E-13)">
				<title>工作表.101</title>
				<desc>《菩薩逝經》</desc>
				<rect x="0" y="227.522" width="104.882" height="22.6772" class="st1"/>
				<text x="4.44" y="243.66" class="st2">《菩薩逝經》</text>			</g>
			<g id="shape102-41" transform="translate(316.063,-85.0394)">
				<title>工作表.102</title>
				<desc>失譯</desc>
				<rect x="0" y="227.522" width="42.5197" height="22.6772" class="st1"/>
				<text x="5.26" y="243.66" class="st2">失譯</text>			</g>
			<g id="shape103-44" transform="translate(316.063,-141.732)">
				<title>工作表.103</title>
				<desc>失譯</desc>
				<rect x="0" y="227.522" width="42.5197" height="22.6772" class="st1"/>
				<text x="5.26" y="243.66" class="st2">失譯</text>			</g>
			<g id="shape139-47" transform="translate(316.063,-113.386)">
				<title>工作表.139</title>
				<desc>失譯</desc>
				<rect x="0" y="227.522" width="42.5197" height="22.6772" class="st1"/>
				<text x="5.26" y="243.66" class="st2">失譯</text>			</g>
			<g id="shape140-50" transform="translate(316.063,-28.3465)">
				<title>工作表.140</title>
				<desc>失譯</desc>
				<rect x="0" y="227.522" width="42.5197" height="22.6772" class="st1"/>
				<text x="5.26" y="243.66" class="st2">失譯</text>			</g>
			<g id="shape141-53" transform="translate(316.063,-1.16529E-12)">
				<title>工作表.141</title>
				<desc>失譯</desc>
				<rect x="0" y="227.522" width="42.5197" height="22.6772" class="st1"/>
				<text x="5.26" y="243.66" class="st2">失譯</text>			</g>
			<g id="shape149-56" transform="translate(229.606,-198.425)">
				<title>工作表.149</title>
				<desc>一卷</desc>
				<rect x="0" y="227.522" width="42.5197" height="22.6772" class="st1"/>
				<text x="5.26" y="243.66" class="st2">一卷</text>			</g>
			<g id="shape150-59" transform="translate(229.606,-226.772)">
				<title>工作表.150</title>
				<desc>三卷</desc>
				<rect x="0" y="227.522" width="42.5197" height="22.6772" class="st1"/>
				<text x="5.26" y="243.66" class="st2">三卷</text>			</g>
			<g id="shape142-62" transform="translate(229.606,-8.81073E-13)">
				<title>工作表.142</title>
				<desc>一卷</desc>
				<rect x="0" y="227.522" width="42.5197" height="22.6772" class="st1"/>
				<text x="5.26" y="243.66" class="st2">一卷</text>			</g>
			<g id="shape143-65" transform="translate(229.606,-28.3465)">
				<title>工作表.143</title>
				<desc>一卷</desc>
				<rect x="0" y="227.522" width="42.5197" height="22.6772" class="st1"/>
				<text x="5.26" y="243.66" class="st2">一卷</text>			</g>
			<g id="shape144-68" transform="translate(229.606,-56.6929)">
				<title>工作表.144</title>
				<desc>一卷</desc>
				<rect x="0" y="227.522" width="42.5197" height="22.6772" class="st1"/>
				<text x="5.26" y="243.66" class="st2">一卷</text>			</g>
			<g id="shape145-71" transform="translate(229.606,-85.0394)">
				<title>工作表.145</title>
				<desc>一卷</desc>
				<rect x="0" y="227.522" width="42.5197" height="22.6772" class="st1"/>
				<text x="5.26" y="243.66" class="st2">一卷</text>			</g>
			<g id="shape146-74" transform="translate(229.606,-113.386)">
				<title>工作表.146</title>
				<desc>一卷</desc>
				<rect x="0" y="227.522" width="42.5197" height="22.6772" class="st1"/>
				<text x="5.26" y="243.66" class="st2">一卷</text>			</g>
			<g id="shape147-77" transform="translate(229.606,-141.732)">
				<title>工作表.147</title>
				<desc>一卷</desc>
				<rect x="0" y="227.522" width="42.5197" height="22.6772" class="st1"/>
				<text x="5.26" y="243.66" class="st2">一卷</text>			</g>
			<g id="shape148-80" transform="translate(229.606,-170.079)">
				<title>工作表.148</title>
				<desc>一卷</desc>
				<rect x="0" y="227.522" width="42.5197" height="22.6772" class="st1"/>
				<text x="5.26" y="243.66" class="st2">一卷</text>			</g>
			<g id="shape40-83" transform="translate(-1.9984E-14,-226.772)">
				<title>工作表.40</title>
				<desc>1</desc>
				<rect x="0" y="227.522" width="22.6772" height="22.6772" class="st1"/>
				<text x="7.58" y="243.66" class="st2">1</text>			</g>
			<g id="shape186-86" transform="translate(1.96643E-12,-170.079)">
				<title>工作表.186</title>
				<desc>3</desc>
				<rect x="0" y="227.522" width="22.6772" height="22.6772" class="st1"/>
				<text x="7.58" y="243.66" class="st2">3</text>			</g>
			<g id="shape187-89" transform="translate(2.06035E-12,-141.732)">
				<title>工作表.187</title>
				<desc>4</desc>
				<rect x="0" y="227.522" width="22.6772" height="22.6772" class="st1"/>
				<text x="7.58" y="243.66" class="st2">4</text>			</g>
			<g id="shape188-92" transform="translate(1.90048E-12,-113.386)">
				<title>工作表.188</title>
				<desc>5</desc>
				<rect x="0" y="227.522" width="22.6772" height="22.6772" class="st1"/>
				<text x="7.58" y="243.66" class="st2">5</text>			</g>
			<g id="shape189-95" transform="translate(1.9944E-12,-85.0394)">
				<title>工作表.189</title>
				<desc>6</desc>
				<rect x="0" y="227.522" width="22.6772" height="22.6772" class="st1"/>
				<text x="7.58" y="243.66" class="st2">6 </text>			</g>
			<g id="shape190-98" transform="translate(2.09632E-12,-56.6929)">
				<title>工作表.190</title>
				<desc>7</desc>
				<rect x="0" y="227.522" width="22.6772" height="22.6772" class="st1"/>
				<text x="7.58" y="243.66" class="st2">7</text>			</g>
			<g id="shape191-101" transform="translate(6.85452E-13,-28.3465)">
				<title>工作表.191</title>
				<desc>8</desc>
				<rect x="0" y="227.522" width="22.6772" height="22.6772" class="st1"/>
				<text x="7.58" y="243.66" class="st2">8</text>			</g>
			<g id="shape192-104">
				<title>工作表.192</title>
				<desc>9</desc>
				<rect x="0" y="227.522" width="22.6772" height="22.6772" class="st1"/>
				<text x="7.58" y="243.66" class="st2">9</text>			</g>
			<g id="shape193-107" transform="translate(2.1243E-12,-198.425)">
				<title>工作表.193</title>
				<desc>2</desc>
				<rect x="0" y="227.522" width="22.6772" height="22.6772" class="st1"/>
				<text x="7.58" y="243.66" class="st2">2</text>			</g>
		</g>
	</g>
</svg>
