<?xml version="1.0" encoding="UTF-8" standalone="no"?>
<!DOCTYPE svg PUBLIC "-//W3C//DTD SVG 1.1//EN" "http://www.w3.org/Graphics/SVG/1.1/DTD/svg11.dtd">
<!-- 由 Microsoft Visio, SVG Export 產生 y37.1136-h.svg 頁-1 -->
<svg xmlns="http://www.w3.org/2000/svg" xmlns:xlink="http://www.w3.org/1999/xlink" xmlns:ev="http://www.w3.org/2001/xml-events"
		width="5.01042in" height="5.51514in" viewBox="0 0 360.75 397.09" xml:space="preserve" color-interpolation-filters="sRGB"
		class="st4">
	<style type="text/css">
	<![CDATA[
		.st1 {stroke:#000000;stroke-linecap:round;stroke-linejoin:round;stroke-width:0.24}
		.st2 {fill:none;stroke:none;stroke-linecap:round;stroke-linejoin:round;stroke-width:0.75}
		.st3 {fill:#000000;font-family:新細明體;font-size:1.33333em}
		.st4 {fill:none;fill-rule:evenodd;font-size:12px;overflow:visible;stroke-linecap:square;stroke-miterlimit:3}
	]]>
	</style>

	<g>
		<title>頁-1</title>
		<g id="group39-1" transform="translate(0.375,-0.12)">
			<title>工作表.39</title>
			<g id="shape15-2" transform="translate(-138.287,397.09) rotate(-90)">
				<title>工作表.15</title>
				<path d="M0 397.09 L396.85 397.09" class="st1"/>
			</g>
			<g id="shape16-5" transform="translate(-297.311,397.09) rotate(-90)">
				<title>工作表.16</title>
				<path d="M0 397.09 L396.85 397.09" class="st1"/>
			</g>
			<g id="shape37-8" transform="translate(1.27898E-13,-364.11)">
				<title>工作表.37</title>
				<path d="M0 397.09 L360 397.09" class="st1"/>
			</g>
			<g id="shape1-11" transform="translate(0,-369.921)">
				<title>工作表.1</title>
				<desc>十大行願</desc>
				<rect x="0" y="377.248" width="72" height="19.8425" class="st2"/>
				<text x="4" y="391.97" class="st3">十大行願</text>			</g>
			<g id="shape2-14" transform="translate(1.27898E-13,-333.354)">
				<title>工作表.2</title>
				<desc>禮敬諸佛</desc>
				<rect x="0" y="377.248" width="72" height="19.8425" class="st2"/>
				<text x="4" y="391.97" class="st3">禮敬諸佛</text>			</g>
			<g id="shape3-17" transform="translate(2.55795E-13,-296.787)">
				<title>工作表.3</title>
				<desc>稱讚如來</desc>
				<rect x="0" y="377.248" width="72" height="19.8425" class="st2"/>
				<text x="4" y="391.97" class="st3">稱讚如來</text>			</g>
			<g id="shape4-20" transform="translate(3.83693E-13,-260.22)">
				<title>工作表.4</title>
				<desc>廣修供養</desc>
				<rect x="0" y="377.248" width="72" height="19.8425" class="st2"/>
				<text x="4" y="391.97" class="st3">廣修供養</text>			</g>
			<g id="shape5-23" transform="translate(5.11591E-13,-223.654)">
				<title>工作表.5</title>
				<desc>懺悔業障</desc>
				<rect x="0" y="377.248" width="72" height="19.8425" class="st2"/>
				<text x="4" y="391.97" class="st3">懺悔業障</text>			</g>
			<g id="shape6-26" transform="translate(6.39488E-13,-187.087)">
				<title>工作表.6</title>
				<desc>隨喜功德</desc>
				<rect x="0" y="377.248" width="72" height="19.8425" class="st2"/>
				<text x="4" y="391.97" class="st3">隨喜功德</text>			</g>
			<g id="shape7-29" transform="translate(7.67386E-13,-150.52)">
				<title>工作表.7</title>
				<desc>請轉法輪</desc>
				<rect x="0" y="377.248" width="72" height="19.8425" class="st2"/>
				<text x="4" y="391.97" class="st3">請轉法輪</text>			</g>
			<g id="shape8-32" transform="translate(8.95284E-13,-113.953)">
				<title>工作表.8</title>
				<desc>請佛住世</desc>
				<rect x="0" y="377.248" width="72" height="19.8425" class="st2"/>
				<text x="4" y="391.97" class="st3">請佛住世</text>			</g>
			<g id="shape9-35" transform="translate(1.02318E-12,-77.3858)">
				<title>工作表.9</title>
				<desc>常隨佛學</desc>
				<rect x="0" y="377.248" width="72" height="19.8425" class="st2"/>
				<text x="4" y="391.97" class="st3">常隨佛學</text>			</g>
			<g id="shape10-38" transform="translate(1.15108E-12,-40.8189)">
				<title>工作表.10</title>
				<desc>恆順眾生</desc>
				<rect x="0" y="377.248" width="72" height="19.8425" class="st2"/>
				<text x="4" y="391.97" class="st3">恆順眾生</text>			</g>
			<g id="shape11-41" transform="translate(1.27898E-12,-4.25197)">
				<title>工作表.11</title>
				<desc>普皆迴向</desc>
				<rect x="0" y="377.248" width="72" height="19.8425" class="st2"/>
				<text x="4" y="391.97" class="st3">普皆迴向</text>			</g>
			<g id="shape12-44" transform="translate(111.685,-369.921)">
				<title>工作表.12</title>
				<desc>《文殊發願經》</desc>
				<rect x="0" y="377.248" width="120.189" height="19.8425" class="st2"/>
				<text x="4" y="391.97" class="st3">《文殊發願經》</text>			</g>
			<g id="shape13-47" transform="translate(271.843,-369.921)">
				<title>工作表.13</title>
				<desc>唐譯二本</desc>
				<rect x="0" y="377.248" width="72" height="19.8425" class="st2"/>
				<text x="4" y="391.97" class="st3">唐譯二本</text>			</g>
			<g id="shape14-50" transform="translate(111.685,-333.354)">
				<title>工作表.14</title>
				<desc>一──三頌</desc>
				<rect x="0" y="377.248" width="88.1575" height="19.8425" class="st2"/>
				<text x="4" y="391.97" class="st3">一──三頌</text>			</g>
			<g id="shape17-53" transform="translate(111.685,-260.22)">
				<title>工作表.17</title>
				<desc>五──六頌</desc>
				<rect x="0" y="377.248" width="88.1575" height="19.8425" class="st2"/>
				<text x="4" y="391.97" class="st3">五──六頌</text>			</g>
			<g id="shape18-56" transform="translate(111.685,-4.25197)">
				<title>工作表.18</title>
				<desc>一一頌以下</desc>
				<rect x="0" y="377.248" width="88.1575" height="19.8425" class="st2"/>
				<text x="4" y="391.97" class="st3">一一頌以下</text>			</g>
			<g id="shape19-59" transform="translate(271.843,-333.354)">
				<title>工作表.19</title>
				<desc>一──三頌</desc>
				<rect x="0" y="377.248" width="88.1575" height="19.8425" class="st2"/>
				<text x="4" y="391.97" class="st3">一──三頌</text>			</g>
			<g id="shape20-62" transform="translate(271.843,-260.22)">
				<title>工作表.20</title>
				<desc>五──七頌</desc>
				<rect x="0" y="377.248" width="88.1575" height="19.8425" class="st2"/>
				<text x="4" y="391.97" class="st3">五──七頌</text>			</g>
			<g id="shape21-65" transform="translate(271.843,-4.25197)">
				<title>工作表.21</title>
				<desc>一二頌以下</desc>
				<rect x="0" y="377.248" width="88.1575" height="19.8425" class="st2"/>
				<text x="4" y="391.97" class="st3">一二頌以下</text>			</g>
			<g id="shape22-68" transform="translate(111.685,-296.787)">
				<title>工作表.22</title>
				<desc>四頌</desc>
				<rect x="0" y="377.248" width="40.252" height="19.8425" class="st2"/>
				<text x="4" y="391.97" class="st3">四頌</text>			</g>
			<g id="shape23-71" transform="translate(271.843,-296.787)">
				<title>工作表.23</title>
				<desc>四頌</desc>
				<rect x="0" y="377.248" width="40.252" height="19.8425" class="st2"/>
				<text x="4" y="391.97" class="st3">四頌</text>			</g>
			<g id="shape24-74" transform="translate(111.685,-223.654)">
				<title>工作表.24</title>
				<desc>七頌</desc>
				<rect x="0" y="377.248" width="40.252" height="19.8425" class="st2"/>
				<text x="4" y="391.97" class="st3">七頌</text>			</g>
			<g id="shape25-77" transform="translate(111.685,-187.087)">
				<title>工作表.25</title>
				<desc>八頌</desc>
				<rect x="0" y="377.248" width="40.252" height="19.8425" class="st2"/>
				<text x="4" y="391.97" class="st3">八頌</text>			</g>
			<g id="shape26-80" transform="translate(111.685,-150.52)">
				<title>工作表.26</title>
				<desc>九頌</desc>
				<rect x="0" y="377.248" width="40.252" height="19.8425" class="st2"/>
				<text x="4" y="391.97" class="st3">九頌</text>			</g>
			<g id="shape27-83" transform="translate(271.843,-223.654)">
				<title>工作表.27</title>
				<desc>八頌</desc>
				<rect x="0" y="377.248" width="40.252" height="19.8425" class="st2"/>
				<text x="4" y="391.97" class="st3">八頌</text>			</g>
			<g id="shape28-86" transform="translate(271.843,-187.087)">
				<title>工作表.28</title>
				<desc>九頌</desc>
				<rect x="0" y="377.248" width="40.252" height="19.8425" class="st2"/>
				<text x="4" y="391.97" class="st3">九頌</text>			</g>
			<g id="shape29-89" transform="translate(271.843,-150.52)">
				<title>工作表.29</title>
				<desc>一○ 頌</desc>
				<rect x="0" y="377.248" width="60.378" height="19.8425" class="st2"/>
				<text x="4" y="391.97" class="st3">一○ 頌</text>			</g>
			<g id="shape30-92" transform="translate(111.685,-113.953)">
				<title>工作表.30</title>
				<desc>一○ 頌</desc>
				<rect x="0" y="377.248" width="60.378" height="19.8425" class="st2"/>
				<text x="4" y="391.97" class="st3">一○ 頌</text>			</g>
			<g id="shape31-95" transform="translate(273.969,-113.953)">
				<title>工作表.31</title>
				<desc>一一頌</desc>
				<rect x="0" y="377.248" width="56.126" height="19.8425" class="st2"/>
				<text x="4" y="391.97" class="st3">一一頌</text>			</g>
		</g>
	</g>
</svg>
