<?xml version="1.0" encoding="UTF-8" standalone="no"?>
<!DOCTYPE svg PUBLIC "-//W3C//DTD SVG 1.1//EN" "http://www.w3.org/Graphics/SVG/1.1/DTD/svg11.dtd">
<!-- 由 Microsoft Visio, SVG Export 產生 y37.0759.svg 頁-1 -->
<svg xmlns="http://www.w3.org/2000/svg" xmlns:xlink="http://www.w3.org/1999/xlink" xmlns:ev="http://www.w3.org/2001/xml-events"
		width="7.35294in" height="1.90018in" viewBox="0 0 529.411 136.813" xml:space="preserve" color-interpolation-filters="sRGB"
		class="st3">
	<style type="text/css">
	<![CDATA[
		.st1 {fill:none;stroke:none;stroke-linecap:round;stroke-linejoin:round;stroke-width:0.75}
		.st2 {fill:#000000;font-family:新細明體;font-size:1.33333em}
		.st3 {fill:none;fill-rule:evenodd;font-size:12px;overflow:visible;stroke-linecap:square;stroke-miterlimit:3}
	]]>
	</style>

	<g>
		<title>頁-1</title>
		<g id="group16-1" transform="translate(0.375,-0.375)">
			<title>工作表.16</title>
			<g id="shape1-2" transform="translate(6.39488E-14,-113.386)">
				<title>工作表.1</title>
				<desc>《阿彌陀三耶三佛薩樓佛檀過度人道經》</desc>
				<rect x="0" y="114.136" width="311.811" height="22.6772" class="st1"/>
				<text x="11.91" y="130.27" class="st2">《阿彌陀三耶三佛薩樓佛檀過度人道經》</text>			</g>
			<g id="shape2-5" transform="translate(325.984,-113.386)">
				<title>工作表.2</title>
				<desc>二卷</desc>
				<rect x="0" y="114.136" width="42.5197" height="22.6772" class="st1"/>
				<text x="5.26" y="130.27" class="st2">二卷</text>			</g>
			<g id="shape3-8" transform="translate(403.937,-113.386)">
				<title>工作表.3</title>
				<desc>吳支謙譯</desc>
				<rect x="0" y="114.136" width="73.7008" height="22.6772" class="st1"/>
				<text x="4.85" y="130.27" class="st2">吳支謙譯</text>			</g>
			<g id="shape4-11" transform="translate(7.08661,-85.0394)">
				<title>工作表.4</title>
				<desc>《無量清淨平等覺經》</desc>
				<rect x="0" y="114.136" width="170.079" height="22.6772" class="st1"/>
				<text x="5.04" y="130.27" class="st2">《無量清淨平等覺經》</text>			</g>
			<g id="shape5-14" transform="translate(325.984,-85.0394)">
				<title>工作表.5</title>
				<desc>四卷</desc>
				<rect x="0" y="114.136" width="42.5197" height="22.6772" class="st1"/>
				<text x="5.26" y="130.27" class="st2">四卷</text>			</g>
			<g id="shape6-17" transform="translate(401.102,-85.0394)">
				<title>工作表.6</title>
				<desc>後漢支婁迦讖譯</desc>
				<rect x="0" y="114.136" width="127.559" height="22.6772" class="st1"/>
				<text x="7.78" y="130.27" class="st2">後漢支婁迦讖譯</text>			</g>
			<g id="shape7-20" transform="translate(7.08661,-58.1102)">
				<title>工作表.7</title>
				<desc>《無量壽經》</desc>
				<rect x="0" y="114.136" width="104.882" height="22.6772" class="st1"/>
				<text x="4.44" y="130.27" class="st2">《無量壽經》</text>			</g>
			<g id="shape8-23" transform="translate(403.937,-56.6929)">
				<title>工作表.8</title>
				<desc>曹魏康僧鎧譯</desc>
				<rect x="0" y="114.136" width="104.882" height="22.6772" class="st1"/>
				<text x="4.44" y="130.27" class="st2">曹魏康僧鎧譯</text>			</g>
			<g id="shape9-26" transform="translate(7.08661,-28.3465)">
				<title>工作表.9</title>
				<desc>大寶積經《無量壽如來會》</desc>
				<rect x="0" y="114.136" width="232.441" height="22.6772" class="st1"/>
				<text x="4.22" y="130.27" class="st2">（大寶積經）《無量壽如來會》</text>			</g>
			<g id="shape10-29" transform="translate(403.937,-29.7638)">
				<title>工作表.10</title>
				<desc>唐菩提流志譯</desc>
				<rect x="0" y="114.136" width="104.882" height="22.6772" class="st1"/>
				<text x="4.44" y="130.27" class="st2">唐菩提流志譯</text>			</g>
			<g id="shape11-32" transform="translate(7.08661,0)">
				<title>工作表.11</title>
				<desc>《大乘無量壽莊嚴經》</desc>
				<rect x="0" y="114.136" width="170.079" height="22.6772" class="st1"/>
				<text x="5.04" y="130.27" class="st2">《大乘無量壽莊嚴經》</text>			</g>
			<g id="shape12-35" transform="translate(325.984,-8.2423E-13)">
				<title>工作表.12</title>
				<desc>三卷</desc>
				<rect x="0" y="114.136" width="42.5197" height="22.6772" class="st1"/>
				<text x="5.26" y="130.27" class="st2">三卷</text>			</g>
			<g id="shape13-38" transform="translate(402.52,-1.13687E-12)">
				<title>工作表.13</title>
				<desc>趙宋法賢譯</desc>
				<rect x="0" y="114.136" width="90.7087" height="22.6772" class="st1"/>
				<text x="5.35" y="130.27" class="st2">趙宋法賢譯</text>			</g>
			<g id="shape14-41" transform="translate(325.984,-56.6929)">
				<title>工作表.14</title>
				<desc>二卷</desc>
				<rect x="0" y="114.136" width="42.5197" height="22.6772" class="st1"/>
				<text x="5.26" y="130.27" class="st2">二卷</text>			</g>
			<g id="shape15-44" transform="translate(325.984,-29.7638)">
				<title>工作表.15</title>
				<desc>二卷</desc>
				<rect x="0" y="114.136" width="42.5197" height="22.6772" class="st1"/>
				<text x="5.26" y="130.27" class="st2">二卷</text>			</g>
		</g>
	</g>
</svg>
