<?xml version="1.0" encoding="UTF-8" standalone="no"?>
<!DOCTYPE svg PUBLIC "-//W3C//DTD SVG 1.1//EN" "http://www.w3.org/Graphics/SVG/1.1/DTD/svg11.dtd">
<!-- 由 Microsoft Visio, SVG Export 產生 y37.0450.svg 頁-1 -->
<svg xmlns="http://www.w3.org/2000/svg" xmlns:xlink="http://www.w3.org/1999/xlink" xmlns:ev="http://www.w3.org/2001/xml-events"
		width="4.20333in" height="5.04979in" viewBox="0 0 302.64 363.585" xml:space="preserve" color-interpolation-filters="sRGB"
		class="st3">
	<style type="text/css">
	<![CDATA[
		.st1 {fill:none;stroke:none;stroke-linecap:round;stroke-linejoin:round;stroke-width:0.75}
		.st2 {fill:#000000;font-family:新細明體;font-size:1.33333em}
		.st3 {fill:none;fill-rule:evenodd;font-size:12px;overflow:visible;stroke-linecap:square;stroke-miterlimit:3}
	]]>
	</style>

	<g>
		<title>頁-1</title>
		<g id="group19-1" transform="translate(0.375,-0.375)">
			<title>工作表.19</title>
			<g id="shape1-2" transform="translate(-3.19744E-14,-340.157)">
				<title>工作表.1</title>
				<desc>那揭羅曷</desc>
				<rect x="0" y="340.907" width="73.7008" height="22.6772" class="st1"/>
				<text x="4.85" y="357.05" class="st2">那揭羅曷</text>			</g>
			<g id="shape2-5" transform="translate(97.7953,-340.157)">
				<title>工作表.2</title>
				<desc>買花獻佛布髮掩泥見佛受記</desc>
				<rect x="0" y="340.907" width="204.094" height="22.6772" class="st1"/>
				<text x="6.05" y="357.05" class="st2">買花獻佛布髮掩泥見佛受記</text>			</g>
			<g id="shape3-8" transform="translate(1.07914E-13,-311.811)">
				<title>工作表.3</title>
				<desc>健陀羅</desc>
				<rect x="0" y="340.907" width="56.6929" height="22.6772" class="st1"/>
				<text x="4.35" y="357.05" class="st2">健陀羅</text>			</g>
			<g id="shape4-11" transform="translate(99.2126,-311.811)">
				<title>工作表.4</title>
				<desc>千生捨眼</desc>
				<rect x="0" y="340.907" width="73.7008" height="22.6772" class="st1"/>
				<text x="4.85" y="357.05" class="st2">千生捨眼</text>			</g>
			<g id="shape5-14" transform="translate(99.2126,-283.465)">
				<title>工作表.5</title>
				<desc>商莫迦孝親</desc>
				<rect x="0" y="340.907" width="90.7087" height="22.6772" class="st1"/>
				<text x="5.35" y="357.05" class="st2">商莫迦孝親</text>			</g>
			<g id="shape6-17" transform="translate(96.378,-255.118)">
				<title>工作表.6</title>
				<desc>蘇達拏太子施象施男女</desc>
				<rect x="0" y="340.907" width="175.748" height="22.6772" class="st1"/>
				<text x="7.87" y="357.05" class="st2">蘇達拏太子施象施男女</text>			</g>
			<g id="shape7-20" transform="translate(3.63709E-13,-226.772)">
				<title>工作表.7</title>
				<desc>烏仗那</desc>
				<rect x="0" y="340.907" width="56.6929" height="22.6772" class="st1"/>
				<text x="4.35" y="357.05" class="st2">烏仗那</text>			</g>
			<g id="shape8-23" transform="translate(97.7953,-226.772)">
				<title>工作表.8</title>
				<desc>聞半偈捨身</desc>
				<rect x="0" y="340.907" width="90.7087" height="22.6772" class="st1"/>
				<text x="5.35" y="357.05" class="st2">聞半偈捨身</text>			</g>
			<g id="shape9-26" transform="translate(96.378,-198.425)">
				<title>工作表.9</title>
				<desc>忍辱仙人被割身體</desc>
				<rect x="0" y="340.907" width="141.732" height="22.6772" class="st1"/>
				<text x="6.87" y="357.05" class="st2">忍辱仙人被割身體</text>			</g>
			<g id="shape10-29" transform="translate(99.2126,-170.079)">
				<title>工作表.10</title>
				<desc>析骨寫經</desc>
				<rect x="0" y="340.907" width="73.7008" height="22.6772" class="st1"/>
				<text x="4.85" y="357.05" class="st2">析骨寫經</text>			</g>
			<g id="shape11-32" transform="translate(97.7953,-141.732)">
				<title>工作表.11</title>
				<desc>尸毘王代鴿</desc>
				<rect x="0" y="340.907" width="90.7087" height="22.6772" class="st1"/>
				<text x="5.35" y="357.05" class="st2">尸毘王代鴿</text>			</g>
			<g id="shape12-35" transform="translate(99.2126,-113.386)">
				<title>工作表.12</title>
				<desc>化蟒療疾</desc>
				<rect x="0" y="340.907" width="73.7008" height="22.6772" class="st1"/>
				<text x="4.85" y="357.05" class="st2">化蟒療疾</text>			</g>
			<g id="shape13-38" transform="translate(96.378,-85.0394)">
				<title>工作表.13</title>
				<desc>孔雀王啄石出泉</desc>
				<rect x="0" y="340.907" width="124.724" height="22.6772" class="st1"/>
				<text x="6.36" y="357.05" class="st2">孔雀王啄石出泉</text>			</g>
			<g id="shape14-41" transform="translate(98.6457,-56.6929)">
				<title>工作表.14</title>
				<desc>慈力王刺血飼五藥叉</desc>
				<rect x="0" y="340.907" width="153.071" height="22.6772" class="st1"/>
				<text x="4.54" y="357.05" class="st2">慈力王刺血飼五藥叉</text>			</g>
			<g id="shape15-44" transform="translate(1.1191E-12,-28.3465)">
				<title>工作表.15</title>
				<desc>呾叉始羅</desc>
				<rect x="0" y="340.907" width="73.7008" height="22.6772" class="st1"/>
				<text x="4.85" y="357.05" class="st2">呾叉始羅</text>			</g>
			<g id="shape16-47" transform="translate(96.378,-28.3465)">
				<title>工作表.16</title>
				<desc>月光王千生施頭</desc>
				<rect x="0" y="340.907" width="124.724" height="22.6772" class="st1"/>
				<text x="6.36" y="357.05" class="st2">月光王千生施頭</text>			</g>
			<g id="shape17-50">
				<title>工作表.17</title>
				<desc>僧訶補羅</desc>
				<rect x="0" y="340.907" width="73.7008" height="22.6772" class="st1"/>
				<text x="4.85" y="357.05" class="st2">僧訶補羅</text>			</g>
			<g id="shape18-53" transform="translate(96.378,-2.84217E-13)">
				<title>工作表.18</title>
				<desc>薩埵王子投身飼虎</desc>
				<rect x="0" y="340.907" width="141.732" height="22.6772" class="st1"/>
				<text x="6.87" y="357.05" class="st2">薩埵王子投身飼虎</text>			</g>
		</g>
	</g>
</svg>
