<?xml version="1.0" encoding="UTF-8" standalone="no"?>
<!DOCTYPE svg PUBLIC "-//W3C//DTD SVG 1.1//EN" "http://www.w3.org/Graphics/SVG/1.1/DTD/svg11.dtd">
<!-- 由 Microsoft Visio, SVG Export 產生 y37.0920.svg 頁-1 -->
<svg xmlns="http://www.w3.org/2000/svg" xmlns:xlink="http://www.w3.org/1999/xlink" xmlns:ev="http://www.w3.org/2001/xml-events"
		width="6.3131in" height="1.19499in" viewBox="0 0 454.543 86.0394" xml:space="preserve" color-interpolation-filters="sRGB"
		class="st4">
	<style type="text/css">
	<![CDATA[
		.st1 {fill:none;stroke:none;stroke-linecap:round;stroke-linejoin:round;stroke-width:0.75}
		.st2 {fill:#000000;font-family:新細明體;font-size:1.33333em}
		.st3 {stroke:#000000;stroke-linecap:round;stroke-linejoin:round;stroke-width:1}
		.st4 {fill:none;fill-rule:evenodd;font-size:12px;overflow:visible;stroke-linecap:square;stroke-miterlimit:3}
	]]>
	</style>

	<g>
		<title>頁-1</title>
		<g id="group21-1" transform="translate(0.5,-0.5)">
			<title>工作表.21</title>
			<g id="shape1-2" transform="translate(144.567,-59.5276)">
				<title>工作表.1</title>
				<desc>A</desc>
				<rect x="0" y="63.3622" width="22.6772" height="22.6772" class="st1"/>
				<text x="5.92" y="79.5" class="st2">A</text>			</g>
			<g id="shape2-5" transform="translate(229.606,-59.5276)">
				<title>工作表.2</title>
				<desc>B</desc>
				<rect x="0" y="63.3622" width="22.6772" height="22.6772" class="st1"/>
				<text x="6.32" y="79.5" class="st2">B</text>			</g>
			<g id="shape3-8" transform="translate(314.646,-59.5276)">
				<title>工作表.3</title>
				<desc>C</desc>
				<rect x="0" y="63.3622" width="22.6772" height="22.6772" class="st1"/>
				<text x="6.32" y="79.5" class="st2">C</text>			</g>
			<g id="shape4-11" transform="translate(398.268,-60.9449)">
				<title>工作表.4</title>
				<desc>合計</desc>
				<rect x="0" y="63.3622" width="42.5197" height="22.6772" class="st1"/>
				<text x="5.26" y="79.5" class="st2">合計</text>			</g>
			<g id="shape5-14" transform="translate(14.1732,-31.1811)">
				<title>工作表.5</title>
				<desc>前期所譯</desc>
				<rect x="0" y="63.3622" width="73.7008" height="22.6772" class="st1"/>
				<text x="4.85" y="79.5" class="st2">前期所譯</text>			</g>
			<g id="shape6-17" transform="translate(144.567,-31.1811)">
				<title>工作表.6</title>
				<desc>四</desc>
				<rect x="0" y="63.3622" width="22.6772" height="22.6772" class="st1"/>
				<text x="4" y="79.5" class="st2">四</text>			</g>
			<g id="shape7-20" transform="translate(219.685,-31.1811)">
				<title>工作表.7</title>
				<desc>二二</desc>
				<rect x="0" y="63.3622" width="42.5197" height="22.6772" class="st1"/>
				<text x="5.26" y="79.5" class="st2">二二</text>			</g>
			<g id="shape8-23" transform="translate(314.646,-31.1811)">
				<title>工作表.8</title>
				<desc>八</desc>
				<rect x="0" y="63.3622" width="22.6772" height="22.6772" class="st1"/>
				<text x="4" y="79.5" class="st2">八</text>			</g>
			<g id="shape9-26" transform="translate(398.268,-31.1811)">
				<title>工作表.9</title>
				<desc>三四</desc>
				<rect x="0" y="63.3622" width="42.5197" height="22.6772" class="st1"/>
				<text x="5.26" y="79.5" class="st2">三四</text>			</g>
			<g id="shape10-29" transform="translate(14.1732,-2.83465)">
				<title>工作表.10</title>
				<desc>後期所譯</desc>
				<rect x="0" y="63.3622" width="73.7008" height="22.6772" class="st1"/>
				<text x="4.85" y="79.5" class="st2">後期所譯</text>			</g>
			<g id="shape11-32" transform="translate(144.567,-2.83465)">
				<title>工作表.11</title>
				<desc>三</desc>
				<rect x="0" y="63.3622" width="22.6772" height="22.6772" class="st1"/>
				<text x="4" y="79.5" class="st2">三</text>			</g>
			<g id="shape12-35" transform="translate(238.11,-2.83465)">
				<title>工作表.12</title>
				<desc>六</desc>
				<rect x="0" y="63.3622" width="22.6772" height="22.6772" class="st1"/>
				<text x="11.34" y="67.36" writing-mode="tb-rl" class="st2">六</text>			</g>
			<g id="shape13-38" transform="translate(314.646,-2.83465)">
				<title>工作表.13</title>
				<desc>四</desc>
				<rect x="0" y="63.3622" width="22.6772" height="22.6772" class="st1"/>
				<text x="4" y="79.5" class="st2">四</text>			</g>
			<g id="shape14-41" transform="translate(398.268,-2.83465)">
				<title>工作表.14</title>
				<desc>一三</desc>
				<rect x="0" y="63.3622" width="42.5197" height="22.6772" class="st1"/>
				<text x="5.26" y="79.5" class="st2">一三</text>			</g>
			<g id="shape15-44" transform="translate(0,-56.6929)">
				<title>工作表.15</title>
				<path d="M0 86.04 L453.54 86.04" class="st3"/>
			</g>
			<g id="shape17-47" transform="translate(197.425,86.0394) rotate(-90)">
				<title>工作表.17</title>
				<path d="M0 86.04 L85.04 86.04" class="st3"/>
			</g>
			<g id="shape18-50" transform="translate(282.465,86.0394) rotate(-90)">
				<title>工作表.18</title>
				<path d="M0 86.04 L85.04 86.04" class="st3"/>
			</g>
			<g id="shape19-53" transform="translate(112.386,86.0394) rotate(-90)">
				<title>工作表.19</title>
				<path d="M0 86.04 L85.04 86.04" class="st3"/>
			</g>
			<g id="shape20-56" transform="translate(27.3465,86.0394) rotate(-90)">
				<title>工作表.20</title>
				<path d="M0 86.04 L85.04 86.04" class="st3"/>
			</g>
		</g>
	</g>
</svg>
