<?xml version="1.0" encoding="UTF-8" standalone="no"?>
<!DOCTYPE svg PUBLIC "-//W3C//DTD SVG 1.1//EN" "http://www.w3.org/Graphics/SVG/1.1/DTD/svg11.dtd">
<!-- 由 Microsoft Visio, SVG Export 產生 y37.0331-h.svg 頁-1 -->
<svg xmlns="http://www.w3.org/2000/svg" xmlns:xlink="http://www.w3.org/1999/xlink" xmlns:ev="http://www.w3.org/2001/xml-events"
		width="9.6364in" height="4.57735in" viewBox="0 0 693.821 329.569" xml:space="preserve" color-interpolation-filters="sRGB"
		class="st9">
	<style type="text/css">
	<![CDATA[
		.st1 {fill:none;stroke:none;stroke-linecap:round;stroke-linejoin:round;stroke-width:0.75}
		.st2 {fill:#000000;font-family:新細明體;font-size:1.33333em}
		.st3 {font-family:Times New Roman;font-size:1em}
		.st4 {font-size:1em}
		.st5 {stroke:#000000;stroke-linecap:round;stroke-linejoin:round;stroke-width:1}
		.st6 {fill:#000000;font-family:Times New Roman;font-size:1.33333em}
		.st7 {font-family:新細明體;font-size:1em}
		.st8 {font-family:Cambria;font-size:1em}
		.st9 {fill:none;fill-rule:evenodd;font-size:12px;overflow:visible;stroke-linecap:square;stroke-miterlimit:3}
	]]>
	</style>

	<g>
		<title>頁-1</title>
		<g id="group52-1" transform="translate(0.375,-0.375)">
			<title>工作表.52</title>
			<g id="shape1-2" transform="translate(7.08661,-266.457)">
				<title>工作表.1</title>
				<desc>大眾部</desc>
				<rect x="0" y="309.726" width="56.6929" height="19.8425" class="st1"/>
				<text x="4.35" y="324.45" class="st2">大眾部</text>			</g>
			<g id="shape2-5" transform="translate(233.858,-294.803)">
				<title>工作表.2</title>
				<desc>牛家Gokulika</desc>
				<rect x="0" y="309.726" width="133.228" height="19.8425" class="st1"/>
				<text x="4.84" y="324.63" class="st2">牛家（<tspan class="st3">Gokulika</tspan>）</text>			</g>
			<g id="shape3-9" transform="translate(403.937,-280.63)">
				<title>工作表.3</title>
				<desc>說假Paññattivādā</desc>
				<rect x="0" y="309.726" width="161.575" height="19.8425" class="st1"/>
				<text x="0.25em 1.25em" y="324.63" class="st2">說假<tspan x="2.25em" dy="0em" class="st4">（</tspan><tspan x="3.25em
								 3.806em 4.25em 4.75em 5.25em 5.694em 5.972em 6.25em 6.527em 7.027em 7.471em 7.971em" dy="0em"
							class="st3">Paññattivādā</tspan><tspan x="8.415em" dy="0em" class="st4">）</tspan></text>			</g>
			<g id="shape4-15" transform="translate(403.937,-308.976)">
				<title>工作表.4</title>
				<desc>多聞Bahussutaka</desc>
				<rect x="0" y="309.726" width="153.071" height="19.8425" class="st1"/>
				<text x="4.1" y="324.63" class="st2">多聞（<tspan class="st3">Bahussutaka</tspan>）</text>			</g>
			<g id="shape5-19" transform="translate(232.441,-252.283)">
				<title>工作表.5</title>
				<desc>一說Ekabyohāra</desc>
				<rect x="0" y="309.726" width="153.071" height="19.8425" class="st1"/>
				<text x="6.33" y="324.63" class="st2">一說（<tspan class="st3">Ekabyohāra</tspan>）</text>			</g>
			<g id="shape6-23" transform="translate(403.937,-226.772)">
				<title>工作表.6</title>
				<desc>制多Cetiya</desc>
				<rect x="0" y="309.726" width="119.055" height="19.8425" class="st1"/>
				<text x="6.64" y="324.63" class="st2">制多（<tspan class="st3">Cetiya</tspan>）</text>			</g>
			<g id="shape7-27" transform="translate(7.08661,-124.724)">
				<title>工作表.7</title>
				<desc>上座部</desc>
				<rect x="0" y="309.726" width="56.6929" height="19.8425" class="st1"/>
				<text x="4.35" y="324.45" class="st2">上座部</text>			</g>
			<g id="shape8-30" transform="translate(1.59872E-14,-103.465)">
				<title>工作表.8</title>
				<desc>Theravāda</desc>
				<rect x="0" y="309.726" width="119.055" height="19.8425" class="st1"/>
				<text x="9.77" y="324.63" class="st2">（<tspan class="st3">Theravāda</tspan>）</text>			</g>
			<g id="shape9-34" transform="translate(233.858,-167.244)">
				<title>工作表.9</title>
				<desc>化地</desc>
				<rect x="0" y="309.726" width="42.5197" height="19.8425" class="st1"/>
				<text x="5.26" y="324.45" class="st2">化地</text>			</g>
			<g id="shape10-37" transform="translate(231.024,-145.984)">
				<title>工作表.10</title>
				<desc>Mahiṃsāsaka</desc>
				<rect x="0" y="309.726" width="130.394" height="19.8425" class="st1"/>
				<text x="5.21" y="324.63" class="st2">（<tspan class="st3">Mahiṃsāsaka</tspan>）</text>			</g>
			<g id="shape11-41" transform="translate(374.173,-195.591)">
				<title>工作表.11</title>
				<desc>說一切有Sabbatthavāda</desc>
				<rect x="0" y="309.726" width="198.425" height="19.8425" class="st1"/>
				<text x="4.56" y="324.63" class="st2">說一切有（<tspan class="st3">Sabbatthavāda</tspan>）</text>			</g>
			<g id="shape12-45" transform="translate(582.52,-195.591)">
				<title>工作表.12</title>
				<desc>飲光Kassa</desc>
				<rect x="0" y="309.726" width="104.882" height="19.8425" class="st1"/>
				<text x="9.34" y="324.63" class="st2">飲光（<tspan class="st3">Kassa</tspan></text>			</g>
			<g id="shape15-49" transform="translate(369.921,-110.551)">
				<title>工作表.15</title>
				<desc>法護Dhammaguttika</desc>
				<rect x="0" y="309.726" width="184.252" height="19.8425" class="st1"/>
				<text x="8.58" y="324.63" class="st2">法護（<tspan class="st3">Dhammaguttika</tspan>）</text>			</g>
			<g id="shape22-53" transform="translate(4.25197,-245.197)">
				<title>工作表.22</title>
				<desc>Mahāsāṃghika</desc>
				<rect x="0" y="309.726" width="141.732" height="19.8425" class="st1"/>
				<text x="5.99" y="324.63" class="st2">（<tspan class="st3">Mahāsāṃghika</tspan>）</text>			</g>
			<g id="shape23-57" transform="translate(63.7795,-276.378)">
				<title>工作表.23</title>
				<path d="M0 329.57 L155.91 329.57" class="st5"/>
			</g>
			<g id="shape26-60" transform="translate(219.685,-262.205)">
				<title>工作表.26</title>
				<path d="M0 329.57 L14.17 329.57" class="st5"/>
			</g>
			<g id="shape27-63" transform="translate(219.685,-304.724)">
				<title>工作表.27</title>
				<path d="M0 329.57 L14.17 329.57" class="st5"/>
			</g>
			<g id="shape28-66" transform="translate(-109.884,95.7106) rotate(-90)">
				<title>工作表.28</title>
				<path d="M0 329.57 L70.87 329.57" class="st5"/>
			</g>
			<g id="shape29-69" transform="translate(389.764,-290.551)">
				<title>工作表.29</title>
				<path d="M0 329.57 L14.17 329.57" class="st5"/>
			</g>
			<g id="shape30-72" transform="translate(389.764,-318.898)">
				<title>工作表.30</title>
				<path d="M0 329.57 L14.17 329.57" class="st5"/>
			</g>
			<g id="shape31-75" transform="translate(60.1949,39.0177) rotate(-90)">
				<title>工作表.31</title>
				<path d="M0 329.57 L28.35 329.57" class="st5"/>
			</g>
			<g id="shape32-78" transform="translate(361.417,-304.724)">
				<title>工作表.32</title>
				<path d="M0 329.57 L28.35 329.57" class="st5"/>
			</g>
			<g id="shape33-81" transform="translate(219.685,-233.858)">
				<title>工作表.33</title>
				<path d="M0 329.57 L184.25 329.57" class="st5"/>
			</g>
			<g id="shape34-84" transform="translate(63.7795,-134.646)">
				<title>工作表.34</title>
				<path d="M0 329.57 L155.91 329.57" class="st5"/>
			</g>
			<g id="shape35-87" transform="translate(-109.884,277.128) rotate(-90)">
				<title>工作表.35</title>
				<path d="M0 329.57 L124.72 329.57" class="st5"/>
			</g>
			<g id="shape37-90" transform="translate(219.685,-177.165)">
				<title>工作表.37</title>
				<path d="M0 329.57 L14.17 329.57" class="st5"/>
			</g>
			<g id="shape38-93" transform="translate(31.8484,209.096) rotate(-90)">
				<title>工作表.38</title>
				<path d="M0 329.57 L85.04 329.57" class="st5"/>
			</g>
			<g id="shape39-96" transform="translate(276.378,-177.165)">
				<title>工作表.39</title>
				<path d="M0 329.57 L85.04 329.57" class="st5"/>
			</g>
			<g id="shape43-99" transform="translate(361.417,-205.512)">
				<title>工作表.43</title>
				<path d="M0 329.57 L14.17 329.57" class="st5"/>
			</g>
			<g id="shape46-102" transform="translate(562.677,-205.512)">
				<title>工作表.46</title>
				<path d="M0 329.57 L28.35 329.57" class="st5"/>
			</g>
			<g id="shape47-105" transform="translate(420.945,-167.244)">
				<title>工作表.47</title>
				<desc>apika</desc>
				<rect x="0" y="309.726" width="62.3622" height="19.8425" class="st1"/>
				<text x="5.86" y="324.63" class="st6">apika<tspan class="st7">）</tspan></text>			</g>
			<g id="shape13-109" transform="translate(500.315,-167.244)">
				<title>工作表.13</title>
				<desc>說轉Saṃkrāntika</desc>
				<rect x="0" y="309.726" width="153.071" height="19.8425" class="st1"/>
				<text x="4.1" y="324.63" class="st2">說轉（<tspan class="st3">Saṃkrāntika</tspan>）</text>			</g>
			<g id="shape14-113" transform="translate(670.394,-167.244)">
				<title>工作表.14</title>
				<desc>說</desc>
				<rect x="0" y="309.726" width="22.6772" height="19.8425" class="st1"/>
				<text x="4" y="324.45" class="st2">說</text>			</g>
			<g id="shape45-116" transform="translate(643.465,-177.165)">
				<title>工作表.45</title>
				<path d="M0 329.57 L28.35 329.57" class="st5"/>
			</g>
			<g id="shape49-119" transform="translate(681.732,-205.512)">
				<title>工作表.49</title>
				<path d="M0 329.57 L5.67 329.57" class="st5"/>
			</g>
			<g id="shape16-122" transform="translate(368.504,-85.0394)">
				<title>工作表.16</title>
				<desc>法上Dhammuttarika</desc>
				<rect x="0" y="309.726" width="184.252" height="19.8425" class="st1"/>
				<text x="9.92" y="324.63" class="st2">法上（<tspan class="st3">Dhammuttarika</tspan>）</text>			</g>
			<g id="shape17-126" transform="translate(233.858,-42.5197)">
				<title>工作表.17</title>
				<desc>犢子</desc>
				<rect x="0" y="309.726" width="42.5197" height="19.8425" class="st1"/>
				<text x="5.26" y="324.45" class="st2">犢子</text>			</g>
			<g id="shape18-129" transform="translate(374.173,-56.6929)">
				<title>工作表.18</title>
				<desc>賢胄Bhaddayānika</desc>
				<rect x="0" y="309.726" width="168.661" height="19.8425" class="st1"/>
				<text x="4" y="324.63" class="st2">賢胄（<tspan class="st3">Bhaddayānika</tspan>）</text>			</g>
			<g id="shape19-133" transform="translate(228.189,-21.2598)">
				<title>工作表.19</title>
				<desc>Vajjiputtaka</desc>
				<rect x="0" y="309.726" width="127.559" height="19.8425" class="st1"/>
				<text x="8.24" y="324.63" class="st2">（<tspan class="st3">Vajjiputtaka</tspan>）</text>			</g>
			<g id="shape20-137" transform="translate(365.669,-28.3465)">
				<title>工作表.20</title>
				<desc>六城Channagārika</desc>
				<rect x="0" y="309.726" width="177.165" height="19.8425" class="st1"/>
				<text x="12.16" y="324.63" class="st2">六城（<tspan class="st3">Channagārika</tspan>）</text>			</g>
			<g id="shape21-141" transform="translate(367.087,0)">
				<title>工作表.21</title>
				<desc>正量Saṃmiti</desc>
				<rect x="0" y="309.726" width="136.063" height="19.8425" class="st1"/>
				<text x="11.83" y="324.56" class="st2">正量（Sa<tspan class="st8">ṃ</tspan>miti）</text>			</g>
			<g id="shape24-145" transform="translate(361.417,-7.08661)">
				<title>工作表.24</title>
				<path d="M0 329.57 L14.17 329.57" class="st5"/>
			</g>
			<g id="shape36-148" transform="translate(219.685,-52.4409)">
				<title>工作表.36</title>
				<path d="M0 329.57 L14.17 329.57" class="st5"/>
			</g>
			<g id="shape40-151" transform="translate(274.961,-52.4409)">
				<title>工作表.40</title>
				<path d="M0 329.57 L86.46 329.57" class="st5"/>
			</g>
			<g id="shape41-154" transform="translate(361.417,-94.9606)">
				<title>工作表.41</title>
				<path d="M0 329.57 L14.17 329.57" class="st5"/>
			</g>
			<g id="shape42-157" transform="translate(361.417,-120.472)">
				<title>工作表.42</title>
				<path d="M0 329.57 L14.17 329.57" class="st5"/>
			</g>
			<g id="shape44-160" transform="translate(31.8484,322.955) rotate(-90)">
				<title>工作表.44</title>
				<path d="M0 329.57 L88.35 329.57" class="st5"/>
			</g>
			<g id="shape51-163" transform="translate(474.803,-177.165)">
				<title>工作表.51</title>
				<path d="M0 329.57 L28.35 329.57" class="st5"/>
			</g>
			<g id="shape48-166" transform="translate(420.945,-138.898)">
				<title>工作表.48</title>
				<desc>經Suttavāda</desc>
				<rect x="0" y="309.726" width="124.724" height="19.8425" class="st1"/>
				<text x="6.82" y="324.63" class="st2">經（<tspan class="st3">Suttavāda</tspan>）</text>			</g>
		</g>
	</g>
</svg>
