<?xml version="1.0" encoding="UTF-8" standalone="no"?>
<!DOCTYPE svg PUBLIC "-//W3C//DTD SVG 1.1//EN" "http://www.w3.org/Graphics/SVG/1.1/DTD/svg11.dtd">
<!-- 由 Microsoft Visio, SVG Export 產生 y37.1105.svg 頁-1 -->
<svg xmlns="http://www.w3.org/2000/svg" xmlns:xlink="http://www.w3.org/1999/xlink" xmlns:ev="http://www.w3.org/2001/xml-events"
		width="6.60333in" height="8.46554in" viewBox="0 0 475.44 609.519" xml:space="preserve" color-interpolation-filters="sRGB"
		class="st4">
	<style type="text/css">
	<![CDATA[
		.st1 {fill:none;stroke:none;stroke-linecap:round;stroke-linejoin:round;stroke-width:0.75}
		.st2 {fill:#000000;font-family:新細明體;font-size:1.33333em}
		.st3 {stroke:#000000;stroke-linecap:round;stroke-linejoin:round;stroke-width:0.24}
		.st4 {fill:none;fill-rule:evenodd;font-size:12px;overflow:visible;stroke-linecap:square;stroke-miterlimit:3}
	]]>
	</style>

	<g>
		<title>頁-1</title>
		<g id="group56-1" transform="translate(0.375,-0.12)">
			<title>工作表.56</title>
			<g id="shape1-2" transform="translate(1.43885E-13,-586.346)">
				<title>工作表.1</title>
				<desc>《梵網經》</desc>
				<rect x="0" y="586.841" width="88.1575" height="22.6772" class="st1"/>
				<text x="4" y="602.98" class="st2">《梵網經》</text>			</g>
			<g id="shape2-5" transform="translate(175.606,-586.346)">
				<title>工作表.2</title>
				<desc>《仁王經》</desc>
				<rect x="0" y="586.841" width="88.1575" height="22.6772" class="st1"/>
				<text x="4" y="602.98" class="st2">《仁王經》</text>			</g>
			<g id="shape3-8" transform="translate(336.047,-586.346)">
				<title>工作表.3</title>
				<desc>《瓔珞本業經》</desc>
				<rect x="0" y="586.841" width="120.189" height="22.6772" class="st1"/>
				<text x="4" y="602.98" class="st2">《瓔珞本業經》</text>			</g>
			<g id="shape4-11" transform="translate(0,-549.78)">
				<title>工作表.4</title>
				<desc>十發趣心堅信忍</desc>
				<rect x="0" y="586.841" width="152.22" height="22.6772" class="st1"/>
				<text x="4" y="602.98" class="st2">十發趣心（堅信忍）</text>			</g>
			<g id="shape5-14" transform="translate(175.606,-549.78)">
				<title>工作表.5</title>
				<desc>習種性十信心</desc>
				<rect x="0" y="586.841" width="136.063" height="22.6772" class="st1"/>
				<text x="4" y="602.98" class="st2">習種性（十信心）</text>			</g>
			<g id="shape6-17" transform="translate(336.047,-549.78)">
				<title>工作表.6</title>
				<desc>習種性──十住</desc>
				<rect x="0" y="586.841" width="136.063" height="22.6772" class="st1"/>
				<text x="4" y="602.98" class="st2">習種性──十住</text>			</g>
			<g id="shape7-20" transform="translate(336.047,-513.213)">
				<title>工作表.7</title>
				<desc>性種性──十行</desc>
				<rect x="0" y="586.841" width="136.063" height="22.6772" class="st1"/>
				<text x="4" y="602.98" class="st2">性種性──十行</text>			</g>
			<g id="shape8-23" transform="translate(336.047,-476.646)">
				<title>工作表.8</title>
				<desc>道種性──十迴向</desc>
				<rect x="0" y="586.841" width="136.063" height="22.6772" class="st1"/>
				<text x="4" y="602.98" class="st2">道種性──十迴向</text>			</g>
			<g id="shape9-26" transform="translate(336.047,-440.079)">
				<title>工作表.9</title>
				<desc>聖種性──十地</desc>
				<rect x="0" y="586.841" width="136.063" height="22.6772" class="st1"/>
				<text x="4" y="602.98" class="st2">聖種性──十地</text>			</g>
			<g id="shape10-29" transform="translate(336.047,-403.512)">
				<title>工作表.10</title>
				<desc>歡喜地</desc>
				<rect x="0" y="586.841" width="136.063" height="22.6772" class="st1"/>
				<text x="20.62" y="602.98" class="st2">歡喜地</text>			</g>
			<g id="shape11-32" transform="translate(336.047,-366.945)">
				<title>工作表.11</title>
				<desc>離垢地</desc>
				<rect x="0" y="586.841" width="136.063" height="22.6772" class="st1"/>
				<text x="20.62" y="602.98" class="st2">離垢地</text>			</g>
			<g id="shape12-35" transform="translate(336.047,-330.378)">
				<title>工作表.12</title>
				<desc>明慧地</desc>
				<rect x="0" y="586.841" width="136.063" height="22.6772" class="st1"/>
				<text x="20.62" y="602.98" class="st2">明慧地</text>			</g>
			<g id="shape13-38" transform="translate(336.047,-293.811)">
				<title>工作表.13</title>
				<desc>焰光地</desc>
				<rect x="0" y="586.841" width="136.063" height="22.6772" class="st1"/>
				<text x="20.62" y="602.98" class="st2">焰光地</text>			</g>
			<g id="shape14-41" transform="translate(336.047,-257.244)">
				<title>工作表.14</title>
				<desc>難勝地</desc>
				<rect x="0" y="586.841" width="136.063" height="22.6772" class="st1"/>
				<text x="20.62" y="602.98" class="st2">難勝地</text>			</g>
			<g id="shape15-44" transform="translate(336.047,-220.677)">
				<title>工作表.15</title>
				<desc>現前地</desc>
				<rect x="0" y="586.841" width="136.063" height="22.6772" class="st1"/>
				<text x="20.62" y="602.98" class="st2">現前地</text>			</g>
			<g id="shape16-47" transform="translate(336.047,-184.11)">
				<title>工作表.16</title>
				<desc>遠行地</desc>
				<rect x="0" y="586.841" width="136.063" height="22.6772" class="st1"/>
				<text x="20.62" y="602.98" class="st2">遠行地</text>			</g>
			<g id="shape17-50" transform="translate(336.047,-147.543)">
				<title>工作表.17</title>
				<desc>不動地</desc>
				<rect x="0" y="586.841" width="136.063" height="22.6772" class="st1"/>
				<text x="20.62" y="602.98" class="st2">不動地</text>			</g>
			<g id="shape18-53" transform="translate(336.047,-110.976)">
				<title>工作表.18</title>
				<desc>善慧地</desc>
				<rect x="0" y="586.841" width="136.063" height="22.6772" class="st1"/>
				<text x="20.62" y="602.98" class="st2">善慧地</text>			</g>
			<g id="shape19-56" transform="translate(336.047,-74.4094)">
				<title>工作表.19</title>
				<desc>法雲地</desc>
				<rect x="0" y="586.841" width="136.063" height="22.6772" class="st1"/>
				<text x="20.62" y="602.98" class="st2">法雲地</text>			</g>
			<g id="shape20-59" transform="translate(336.047,-37.8425)">
				<title>工作表.20</title>
				<desc>等覺</desc>
				<rect x="0" y="586.841" width="136.063" height="22.6772" class="st1"/>
				<text x="4" y="602.98" class="st2">等覺</text>			</g>
			<g id="shape21-62" transform="translate(336.047,-1.27559)">
				<title>工作表.21</title>
				<desc>妙覺──一切智地</desc>
				<rect x="0" y="586.841" width="136.063" height="22.6772" class="st1"/>
				<text x="4" y="602.98" class="st2">妙覺──一切智地</text>			</g>
			<g id="shape22-65" transform="translate(175.606,-513.213)">
				<title>工作表.22</title>
				<desc>性種性十止心</desc>
				<rect x="0" y="586.841" width="136.063" height="22.6772" class="st1"/>
				<text x="4" y="602.98" class="st2">性種性（十止心）</text>			</g>
			<g id="shape23-68" transform="translate(175.606,-476.646)">
				<title>工作表.23</title>
				<desc>道種性十堅心</desc>
				<rect x="0" y="586.841" width="136.063" height="22.6772" class="st1"/>
				<text x="4" y="602.98" class="st2">道種性（十堅心）</text>			</g>
			<g id="shape24-71" transform="translate(175.606,-440.079)">
				<title>工作表.24</title>
				<desc>十地</desc>
				<rect x="0" y="586.841" width="136.063" height="22.6772" class="st1"/>
				<text x="4" y="602.98" class="st2">（十地）</text>			</g>
			<g id="shape25-74" transform="translate(175.606,-403.512)">
				<title>工作表.25</title>
				<desc>善覺菩薩</desc>
				<rect x="0" y="586.841" width="136.063" height="22.6772" class="st1"/>
				<text x="20.62" y="602.98" class="st2">善覺菩薩</text>			</g>
			<g id="shape26-77" transform="translate(175.606,-366.945)">
				<title>工作表.26</title>
				<desc>離達菩薩</desc>
				<rect x="0" y="586.841" width="136.063" height="22.6772" class="st1"/>
				<text x="20.62" y="602.98" class="st2">離達菩薩</text>			</g>
			<g id="shape27-80" transform="translate(175.606,-330.378)">
				<title>工作表.27</title>
				<desc>明慧菩薩</desc>
				<rect x="0" y="586.841" width="136.063" height="22.6772" class="st1"/>
				<text x="20.62" y="602.98" class="st2">明慧菩薩</text>			</g>
			<g id="shape28-83" transform="translate(175.606,-293.811)">
				<title>工作表.28</title>
				<desc>爾焰慧菩薩</desc>
				<rect x="0" y="586.841" width="136.063" height="22.6772" class="st1"/>
				<text x="4" y="602.98" class="st2">（爾）焰慧菩薩</text>			</g>
			<g id="shape29-86" transform="translate(175.606,-257.244)">
				<title>工作表.29</title>
				<desc>勝慧菩薩</desc>
				<rect x="0" y="586.841" width="136.063" height="22.6772" class="st1"/>
				<text x="20.62" y="602.98" class="st2">勝慧菩薩</text>			</g>
			<g id="shape30-89" transform="translate(175.606,-220.677)">
				<title>工作表.30</title>
				<desc>法現菩薩</desc>
				<rect x="0" y="586.841" width="136.063" height="22.6772" class="st1"/>
				<text x="20.62" y="602.98" class="st2">法現菩薩</text>			</g>
			<g id="shape31-92" transform="translate(175.606,-184.11)">
				<title>工作表.31</title>
				<desc>遠達菩薩</desc>
				<rect x="0" y="586.841" width="136.063" height="22.6772" class="st1"/>
				<text x="20.62" y="602.98" class="st2">遠達菩薩</text>			</g>
			<g id="shape32-95" transform="translate(175.606,-147.543)">
				<title>工作表.32</title>
				<desc>等觀菩薩</desc>
				<rect x="0" y="586.841" width="136.063" height="22.6772" class="st1"/>
				<text x="20.62" y="602.98" class="st2">等觀菩薩</text>			</g>
			<g id="shape33-98" transform="translate(175.606,-110.976)">
				<title>工作表.33</title>
				<desc>慧光菩薩</desc>
				<rect x="0" y="586.841" width="136.063" height="22.6772" class="st1"/>
				<text x="20.62" y="602.98" class="st2">慧光菩薩</text>			</g>
			<g id="shape34-101" transform="translate(175.606,-74.4094)">
				<title>工作表.34</title>
				<desc>灌頂菩薩</desc>
				<rect x="0" y="586.841" width="136.063" height="22.6772" class="st1"/>
				<text x="20.62" y="602.98" class="st2">灌頂菩薩</text>			</g>
			<g id="shape35-104" transform="translate(175.606,-1.27559)">
				<title>工作表.35</title>
				<desc>薩婆若</desc>
				<rect x="0" y="586.841" width="136.063" height="22.6772" class="st1"/>
				<text x="20.62" y="602.98" class="st2">薩婆若</text>			</g>
			<g id="shape36-107" transform="translate(2.23821E-13,-513.213)">
				<title>工作表.36</title>
				<desc>十長養心堅法忍</desc>
				<rect x="0" y="586.841" width="152.22" height="22.6772" class="st1"/>
				<text x="4" y="602.98" class="st2">十長養心（堅法忍）</text>			</g>
			<g id="shape37-110" transform="translate(2.23821E-13,-476.646)">
				<title>工作表.37</title>
				<desc>十金剛心堅修忍</desc>
				<rect x="0" y="586.841" width="152.22" height="22.6772" class="st1"/>
				<text x="4" y="602.98" class="st2">十金剛心（堅修忍）</text>			</g>
			<g id="shape38-113" transform="translate(5.11591E-13,-440.079)">
				<title>工作表.38</title>
				<desc>十地堅聖忍</desc>
				<rect x="0" y="586.841" width="152.22" height="22.6772" class="st1"/>
				<text x="4" y="602.98" class="st2">十地（堅聖忍）</text>			</g>
			<g id="shape39-116" transform="translate(5.11591E-13,-403.512)">
				<title>工作表.39</title>
				<desc>體性平等地</desc>
				<rect x="0" y="586.841" width="152.22" height="22.6772" class="st1"/>
				<text x="20.62" y="602.98" class="st2">體性平等地</text>			</g>
			<g id="shape40-119" transform="translate(7.19425E-13,-366.945)">
				<title>工作表.40</title>
				<desc>體性善慧地</desc>
				<rect x="0" y="586.841" width="152.22" height="22.6772" class="st1"/>
				<text x="20.62" y="602.98" class="st2">體性善慧地</text>			</g>
			<g id="shape41-122" transform="translate(1.00719E-12,-330.378)">
				<title>工作表.41</title>
				<desc>體性光明地</desc>
				<rect x="0" y="586.841" width="152.22" height="22.6772" class="st1"/>
				<text x="20.62" y="602.98" class="st2">體性光明地</text>			</g>
			<g id="shape42-125" transform="translate(1.00719E-12,-293.811)">
				<title>工作表.42</title>
				<desc>體性爾焰地</desc>
				<rect x="0" y="586.841" width="152.22" height="22.6772" class="st1"/>
				<text x="20.62" y="602.98" class="st2">體性爾焰地</text>			</g>
			<g id="shape43-128" transform="translate(1.29496E-12,-257.244)">
				<title>工作表.43</title>
				<desc>體性慧照地</desc>
				<rect x="0" y="586.841" width="152.22" height="22.6772" class="st1"/>
				<text x="20.62" y="602.98" class="st2">體性慧照地</text>			</g>
			<g id="shape44-131" transform="translate(1.29496E-12,-220.677)">
				<title>工作表.44</title>
				<desc>體性華光地</desc>
				<rect x="0" y="586.841" width="152.22" height="22.6772" class="st1"/>
				<text x="20.62" y="602.98" class="st2">體性華光地</text>			</g>
			<g id="shape45-134" transform="translate(1.29496E-12,-184.11)">
				<title>工作表.45</title>
				<desc>體性滿足地</desc>
				<rect x="0" y="586.841" width="152.22" height="22.6772" class="st1"/>
				<text x="20.62" y="602.98" class="st2">體性滿足地</text>			</g>
			<g id="shape46-137" transform="translate(1.51879E-12,-147.543)">
				<title>工作表.46</title>
				<desc>體性佛吼地</desc>
				<rect x="0" y="586.841" width="152.22" height="22.6772" class="st1"/>
				<text x="20.62" y="602.98" class="st2">體性佛吼地</text>			</g>
			<g id="shape47-140" transform="translate(1.51879E-12,-110.976)">
				<title>工作表.47</title>
				<desc>體性華嚴地</desc>
				<rect x="0" y="586.841" width="152.22" height="22.6772" class="st1"/>
				<text x="20.62" y="602.98" class="st2">體性華嚴地</text>			</g>
			<g id="shape48-143" transform="translate(2.03038E-12,-1.27559)">
				<title>工作表.48</title>
				<desc>體性入佛界地</desc>
				<rect x="0" y="586.841" width="152.22" height="22.6772" class="st1"/>
				<text x="20.62" y="602.98" class="st2">體性入佛界地</text>			</g>
			<g id="shape53-146" transform="translate(-444.967,609.519) rotate(-90)">
				<title>工作表.53</title>
				<path d="M0 609.52 L607.46 609.52" class="st3"/>
			</g>
			<g id="shape54-149" transform="translate(-284.81,609.519) rotate(-90)">
				<title>工作表.54</title>
				<path d="M0 609.52 L607.46 609.52" class="st3"/>
			</g>
			<g id="shape55-152" transform="translate(474.945,639.636) rotate(180)">
				<title>工作表.55</title>
				<path d="M0 609.52 L474.94 609.52" class="st3"/>
			</g>
		</g>
	</g>
</svg>
