<?xml version="1.0" encoding="UTF-8" standalone="no"?>
<!DOCTYPE svg PUBLIC "-//W3C//DTD SVG 1.1//EN" "http://www.w3.org/Graphics/SVG/1.1/DTD/svg11.dtd">
<!-- 由 Microsoft Visio, SVG Export 產生 y37.0675-h.svg 頁-1 -->
<svg xmlns="http://www.w3.org/2000/svg" xmlns:xlink="http://www.w3.org/1999/xlink" xmlns:ev="http://www.w3.org/2001/xml-events"
		width="5.71908in" height="1.11278in" viewBox="0 0 411.774 80.1201" xml:space="preserve" color-interpolation-filters="sRGB"
		class="st5">
	<style type="text/css">
	<![CDATA[
		.st1 {fill:none;stroke:none;stroke-linecap:round;stroke-linejoin:round;stroke-width:0.75}
		.st2 {fill:#000000;font-family:新細明體;font-size:1.33333em}
		.st3 {stroke:#000000;stroke-linecap:round;stroke-linejoin:round;stroke-width:1}
		.st4 {stroke:#000000;stroke-dasharray:0,4.5;stroke-linecap:round;stroke-linejoin:round;stroke-width:1.5}
		.st5 {fill:none;fill-rule:evenodd;font-size:12px;overflow:visible;stroke-linecap:square;stroke-miterlimit:3}
	]]>
	</style>

	<g>
		<title>頁-1</title>
		<g id="group17-1" transform="translate(0.375,-0.375)">
			<title>工作表.17</title>
			<g id="shape1-2" transform="translate(3.19744E-14,-56.6929)">
				<title>工作表.1</title>
				<desc>前分</desc>
				<rect x="0" y="57.4429" width="42.5197" height="22.6772" class="st1"/>
				<text x="5.26" y="73.58" class="st2">前分</text>			</g>
			<g id="shape2-5" transform="translate(83.622,-56.6929)">
				<title>工作表.2</title>
				<desc>『序品』第一</desc>
				<rect x="0" y="57.4429" width="104.882" height="22.6772" class="st1"/>
				<text x="4.44" y="73.58" class="st2">『序品』第一</text>			</g>
			<g id="shape3-8" transform="translate(265.039,-56.6929)">
				<title>工作表.3</title>
				<desc>『舌相品』第六</desc>
				<rect x="0" y="57.4429" width="127.559" height="22.6772" class="st1"/>
				<text x="7.78" y="73.58" class="st2">『舌相品』第六</text>			</g>
			<g id="shape4-11" transform="translate(1.23901E-13,-28.3465)">
				<title>工作表.4</title>
				<desc>中分</desc>
				<rect x="0" y="57.4429" width="42.5197" height="22.6772" class="st1"/>
				<text x="5.26" y="73.58" class="st2">中分</text>			</g>
			<g id="shape5-14" transform="translate(80.7874,-28.3465)">
				<title>工作表.5</title>
				<desc>『三假品』第七</desc>
				<rect x="0" y="57.4429" width="127.559" height="22.6772" class="st1"/>
				<text x="7.78" y="73.58" class="st2">『三假品』第七</text>			</g>
			<g id="shape6-17" transform="translate(263.622,-28.3465)">
				<title>工作表.6</title>
				<desc>『累教品』第六六</desc>
				<rect x="0" y="57.4429" width="147.402" height="22.6772" class="st1"/>
				<text x="9.7" y="73.58" class="st2">『累教品』第六六</text>			</g>
			<g id="shape7-20">
				<title>工作表.7</title>
				<desc>後分</desc>
				<rect x="0" y="57.4429" width="42.5197" height="22.6772" class="st1"/>
				<text x="5.26" y="73.58" class="st2">後分</text>			</g>
			<g id="shape8-23" transform="translate(85.0394,-4.83169E-13)">
				<title>工作表.8</title>
				<desc>『無盡品』第六七</desc>
				<rect x="0" y="57.4429" width="136.063" height="22.6772" class="st1"/>
				<text x="4.03" y="73.58" class="st2">『無盡品』第六七</text>			</g>
			<g id="shape9-26" transform="translate(269.291,-1.12266E-12)">
				<title>工作表.9</title>
				<desc>『囑累品』第九○</desc>
				<rect x="0" y="57.4429" width="136.063" height="22.6772" class="st1"/>
				<text x="4" y="73.76" class="st2">『囑累品』第九○</text>			</g>
			<g id="shape10-29" transform="translate(42.5197,-68.0315)">
				<title>工作表.10</title>
				<path d="M0 80.12 L41.1 80.12" class="st3"/>
			</g>
			<g id="shape11-32" transform="translate(42.5197,-68.0315)">
				<title>工作表.11</title>
				<path d="M0 80.12 L41.1 80.12" class="st3"/>
			</g>
			<g id="shape12-35" transform="translate(42.5197,-11.3386)">
				<title>工作表.12</title>
				<path d="M0 80.12 L41.1 80.12" class="st3"/>
			</g>
			<g id="shape13-38" transform="translate(42.5197,-39.685)">
				<title>工作表.13</title>
				<path d="M0 80.12 L41.1 80.12" class="st3"/>
			</g>
			<g id="shape14-41" transform="translate(221.102,-11.3386)">
				<title>工作表.14</title>
				<path d="M0 80.12 L56.69 80.12" class="st4"/>
			</g>
			<g id="shape15-44" transform="translate(204.094,-39.685)">
				<title>工作表.15</title>
				<path d="M0 80.12 L73.7 80.12" class="st4"/>
			</g>
			<g id="shape16-47" transform="translate(187.087,-68.0315)">
				<title>工作表.16</title>
				<path d="M0 80.12 L90.71 80.12" class="st4"/>
			</g>
		</g>
	</g>
</svg>
