<?xml version="1.0" encoding="UTF-8" standalone="no"?>
<!DOCTYPE svg PUBLIC "-//W3C//DTD SVG 1.1//EN" "http://www.w3.org/Graphics/SVG/1.1/DTD/svg11.dtd">
<!-- 由 Microsoft Visio, SVG Export 產生 y37.1072.svg 頁-1 -->
<svg xmlns="http://www.w3.org/2000/svg" xmlns:xlink="http://www.w3.org/1999/xlink" xmlns:ev="http://www.w3.org/2001/xml-events"
		width="7.29735in" height="2.3153in" viewBox="0 0 525.409 166.702" xml:space="preserve" color-interpolation-filters="sRGB"
		class="st6">
	<style type="text/css">
	<![CDATA[
		.st1 {fill:none;stroke:none;stroke-linecap:round;stroke-linejoin:round;stroke-width:0.75}
		.st2 {fill:#000000;font-family:新細明體;font-size:1.33333em}
		.st3 {fill:none;stroke:#000000;stroke-linecap:round;stroke-linejoin:round;stroke-width:1}
		.st4 {fill:#000000;font-family:新細明體;font-size:1.00001em}
		.st5 {stroke:#000000;stroke-linecap:round;stroke-linejoin:round;stroke-width:1}
		.st6 {fill:none;fill-rule:evenodd;font-size:12px;overflow:visible;stroke-linecap:square;stroke-miterlimit:3}
	]]>
	</style>

	<g>
		<title>頁-1</title>
		<g id="group35-1" transform="translate(0.5,-0.5)">
			<title>工作表.35</title>
			<g id="shape1-2" transform="translate(1.19904E-14,-145.984)">
				<title>工作表.1</title>
				<desc>三位</desc>
				<rect x="0" y="146.859" width="56.6929" height="19.8425" class="st1"/>
				<text x="0.25em 2.293em" y="161.58" class="st2">三位</text>			</g>
			<g id="shape2-5" transform="translate(127.559,-145.984)">
				<title>工作表.2</title>
				<desc>四位</desc>
				<rect x="0" y="146.859" width="56.6929" height="19.8425" class="st1"/>
				<text x="0.25em 2.293em" y="161.58" class="st2">四位</text>			</g>
			<g id="shape3-8" transform="translate(396.85,-145.984)">
				<title>工作表.3</title>
				<desc>華嚴十住</desc>
				<rect x="0" y="146.859" width="73.7008" height="19.8425" class="st1"/>
				<text x="4.85" y="161.58" class="st2">華嚴十住</text>			</g>
			<g id="shape4-11" transform="translate(-3.19744E-14,-117.638)">
				<title>工作表.4</title>
				<desc>發菩提心</desc>
				<rect x="0" y="146.859" width="73.7008" height="19.8425" class="st1"/>
				<text x="4.85" y="161.58" class="st2">發菩提心</text>			</g>
			<g id="shape5-14" transform="translate(127.559,-117.638)">
				<title>工作表.5</title>
				<desc>初發心</desc>
				<rect x="0" y="146.859" width="56.6929" height="19.8425" class="st1"/>
				<text x="0.25em 1.272em 2.293em" y="161.58" class="st2">初發心</text>			</g>
			<g id="shape7-17" transform="translate(392.598,-117.638)">
				<title>工作表.7</title>
				<desc>1</desc>
				<rect x="0" y="146.859" width="22.6772" height="19.8425" class="st1"/>
				<text x="7.58" y="161.58" class="st2">1</text>			</g>
			<g id="shape8-20" transform="translate(412.441,-117.638)">
				<title>工作表.8</title>
				<desc>發心</desc>
				<rect x="0" y="146.859" width="42.5197" height="19.8425" class="st1"/>
				<text x="5.26" y="161.58" class="st2">發心</text>			</g>
			<g id="shape10-23" transform="translate(392.598,-89.2913)">
				<title>工作表.10</title>
				<desc>2</desc>
				<rect x="0" y="146.859" width="22.6772" height="19.8425" class="st1"/>
				<text x="7.58" y="161.58" class="st2">2</text>			</g>
			<g id="shape11-26" transform="translate(413.858,-89.2913)">
				<title>工作表.11</title>
				<desc>新學治地</desc>
				<rect x="0" y="146.859" width="104.882" height="19.8425" class="st1"/>
				<text x="4.44" y="161.58" class="st2">新學（治地）</text>			</g>
			<g id="shape12-29" transform="translate(126.142,-60.9449)">
				<title>工作表.12</title>
				<desc>行六波羅蜜</desc>
				<rect x="0" y="146.859" width="90.7087" height="19.8425" class="st1"/>
				<text x="5.35" y="161.58" class="st2">行六波羅蜜</text>			</g>
			<g id="shape14-32" transform="translate(392.598,-60.9449)">
				<title>工作表.14</title>
				<desc>3</desc>
				<rect x="0" y="146.859" width="22.6772" height="19.8425" class="st1"/>
				<text x="7.58" y="161.58" class="st2">3</text>			</g>
			<g id="shape15-35" transform="translate(412.441,-60.9449)">
				<title>工作表.15</title>
				<desc>相應</desc>
				<rect x="0" y="146.859" width="42.5197" height="19.8425" class="st1"/>
				<text x="5.26" y="161.58" class="st2">相應</text>			</g>
			<g id="shape16-38" transform="translate(2.55795E-13,-32.5984)">
				<title>工作表.16</title>
				<desc>阿毘跋致</desc>
				<rect x="0" y="146.859" width="73.7008" height="19.8425" class="st1"/>
				<text x="4.85" y="161.58" class="st2">阿毘跋致</text>			</g>
			<g id="shape18-41" transform="translate(392.598,-32.5984)">
				<title>工作表.18</title>
				<desc>7</desc>
				<rect x="0" y="146.859" width="22.6772" height="19.8425" class="st1"/>
				<text x="7.58" y="161.58" class="st2">7</text>			</g>
			<g id="shape19-44" transform="translate(412.441,-32.5984)">
				<title>工作表.19</title>
				<desc>不退</desc>
				<rect x="0" y="146.859" width="42.5197" height="19.8425" class="st1"/>
				<text x="5.26" y="161.58" class="st2">不退</text>			</g>
			<g id="shape20-47" transform="translate(3.83693E-13,-4.25197)">
				<title>工作表.20</title>
				<desc>疾得無上菩提</desc>
				<rect x="0" y="146.859" width="104.882" height="19.8425" class="st1"/>
				<text x="4.44" y="161.58" class="st2">疾得無上菩提</text>			</g>
			<g id="shape21-50" transform="translate(127.559,-4.25197)">
				<title>工作表.21</title>
				<desc>一生補處</desc>
				<rect x="0" y="146.859" width="73.7008" height="19.8425" class="st1"/>
				<text x="4.85" y="161.58" class="st2">一生補處</text>			</g>
			<g id="shape22-53" transform="translate(389.764,-4.25197)">
				<title>工作表.22</title>
				<desc>10</desc>
				<rect x="0" y="146.859" width="28.3465" height="19.8425" class="st1"/>
				<text x="6.66" y="161.58" class="st2">10</text>			</g>
			<g id="shape23-56" transform="translate(412.441,-4.25197)">
				<title>工作表.23</title>
				<desc>灌頂</desc>
				<rect x="0" y="146.859" width="42.5197" height="19.8425" class="st1"/>
				<text x="5.26" y="161.58" class="st2">灌頂</text>			</g>
			<g id="shape25-59" transform="translate(127.559,-32.5984)">
				<title>工作表.25</title>
				<desc>阿毘跋致</desc>
				<rect x="0" y="146.859" width="73.7008" height="19.8425" class="st1"/>
				<text x="4.85" y="161.58" class="st2">阿毘跋致</text>			</g>
			<g id="shape26-62" transform="translate(56.6929,-148.819)">
				<title>工作表.26</title>
				<desc>3</desc>
				<ellipse cx="7.08661" cy="159.615" rx="7.08661" ry="7.08661" class="st3"/>
				<text x="4.27" y="163.22" class="st4">3</text>			</g>
			<g id="shape27-65" transform="translate(184.252,-148.819)">
				<title>工作表.27</title>
				<desc>4</desc>
				<ellipse cx="7.08661" cy="159.615" rx="7.08661" ry="7.08661" class="st3"/>
				<text x="4.27" y="163.22" class="st4">4</text>			</g>
			<g id="shape30-68" transform="translate(0,-141.732)">
				<title>工作表.30</title>
				<path d="M0 166.7 L524.41 166.7" class="st5"/>
			</g>
			<g id="shape31-71" transform="translate(-53.3159,166.702) rotate(-90)">
				<title>工作表.31</title>
				<path d="M0 166.7 L141.73 166.7" class="st5"/>
			</g>
			<g id="shape32-74" transform="translate(74.2431,166.702) rotate(-90)">
				<title>工作表.32</title>
				<path d="M0 166.7 L141.73 166.7" class="st5"/>
			</g>
			<g id="shape6-77" transform="translate(257.953,-117.638)">
				<title>工作表.6</title>
				<desc>學菩提心</desc>
				<rect x="0" y="146.859" width="73.7008" height="19.8425" class="st1"/>
				<text x="4.85" y="161.58" class="st2">學菩提心</text>			</g>
			<g id="shape9-80" transform="translate(257.953,-89.2913)">
				<title>工作表.9</title>
				<desc>如說行</desc>
				<rect x="0" y="146.859" width="56.6929" height="19.8425" class="st1"/>
				<text x="0.25em 1.272em 2.293em" y="161.58" class="st2">如說行</text>			</g>
			<g id="shape13-83" transform="translate(255.118,-60.9449)">
				<title>工作表.13</title>
				<desc>隨學般若波羅蜜</desc>
				<rect x="0" y="146.859" width="127.559" height="19.8425" class="st1"/>
				<text x="7.78" y="161.58" class="st2">隨學般若波羅蜜</text>			</g>
			<g id="shape17-86" transform="translate(257.953,-145.984)">
				<title>工作表.17</title>
				<desc>四位</desc>
				<rect x="0" y="146.859" width="56.6929" height="19.8425" class="st1"/>
				<text x="0.25em 2.293em" y="161.58" class="st2">四位</text>			</g>
			<g id="shape24-89" transform="translate(257.953,-32.5984)">
				<title>工作表.24</title>
				<desc>阿毘跋致</desc>
				<rect x="0" y="146.859" width="73.7008" height="19.8425" class="st1"/>
				<text x="4.85" y="161.58" class="st2">阿毘跋致</text>			</g>
			<g id="shape28-92" transform="translate(314.646,-148.819)">
				<title>工作表.28</title>
				<desc>5</desc>
				<ellipse cx="7.08661" cy="159.615" rx="7.08661" ry="7.08661" class="st3"/>
				<text x="4.27" y="163.22" class="st4">5</text>			</g>
			<g id="shape34-95" transform="translate(215.975,166.702) rotate(-90)">
				<title>工作表.34</title>
				<path d="M0 166.7 L141.73 166.7" class="st5"/>
			</g>
		</g>
	</g>
</svg>
