<?xml version="1.0" encoding="UTF-8" standalone="no"?>
<!DOCTYPE svg PUBLIC "-//W3C//DTD SVG 1.0//EN" "http://www.w3.org/TR/2001/REC-SVG-20010904/DTD/svg10.dtd">
<!-- 由 Microsoft Visio 11.0, SVG Export, v1.0 產生 y37.0331.svg Page-1 -->
<svg xmlns="http://www.w3.org/2000/svg" xmlns:xlink="http://www.w3.org/1999/xlink" xmlns:ev="http://www.w3.org/2001/xml-events"
		xmlns:v="http://schemas.microsoft.com/visio/2003/SVGExtensions/" width="10.8821in" height="6.82005in"
		viewBox="0 0 783.512 491.043" xml:space="preserve" color-interpolation-filters="sRGB" class="st9">
	<v:documentProperties v:langID="1028" v:metric="true" v:viewMarkup="false">
		<v:userDefs>
			<v:ud v:nameU="msvSubprocessMaster" v:prompt="" v:val="VT4(Box)"/>
			<v:ud v:nameU="msvNoAutoConnect" v:val="VT0(1):26"/>
		</v:userDefs>
	</v:documentProperties>

	<style type="text/css">
	<![CDATA[
		.st1 {fill:none;stroke:none;stroke-linecap:round;stroke-linejoin:round;stroke-width:0.75}
		.st2 {fill:#000000;font-family:新細明體;font-size:1.33333em}
		.st3 {font-family:Times New Roman;font-size:1em}
		.st4 {font-size:1em}
		.st5 {stroke:#000000;stroke-linecap:round;stroke-linejoin:round;stroke-width:1}
		.st6 {stroke:#ffffff;stroke-linecap:round;stroke-linejoin:round;stroke-opacity:0;stroke-width:1}
		.st7 {fill:#000000;font-family:Times New Roman;font-size:1.33333em}
		.st8 {font-family:新細明體;font-size:1em}
		.st9 {fill:none;fill-rule:evenodd;font-size:12px;overflow:visible;stroke-linecap:square;stroke-miterlimit:3}
	]]>
	</style>

	<g v:mID="0" v:index="1" v:groupContext="foregroundPage">
		<title>頁-1</title>
		<v:pageProperties v:drawingScale="0.0393701" v:pageScale="0.0393701" v:drawingUnits="24" v:shadowOffsetX="8.50394"
				v:shadowOffsetY="-8.50394"/>
		<g id="group54-1" transform="translate(273.469,472.293) rotate(-90)" v:mID="54" v:groupContext="group">
			<title>工作表.54</title>
			<g id="shape1-2" v:mID="1" v:groupContext="shape" transform="translate(797.185,-226.122) rotate(90)">
				<title>工作表.1</title>
				<desc>大眾部</desc>
				<v:textBlock v:margins="rect(4,4,4,4)" v:tabSpace="42.5197"/>
				<v:textRect cx="28.3465" cy="462.697" width="56.7" height="56.6929"/>
				<rect x="0" y="434.35" width="56.6929" height="56.6929" class="st1"/>
				<text x="4.35" y="467.5" class="st2" v:langID="1028"><v:paragraph v:horizAlign="1"/><v:tabList/>大眾部</text>			</g>
			<g id="shape2-5" v:mID="2" v:groupContext="shape" transform="translate(787.264,0.649606) rotate(90)">
				<title>工作表.2</title>
				<desc>牛家Gokulika</desc>
				<v:textBlock v:margins="rect(4,4,4,4)" v:tabSpace="42.5197"/>
				<v:textRect cx="66.6142" cy="424.429" width="133.23" height="133.228"/>
				<rect x="0" y="357.815" width="133.228" height="133.228" class="st1"/>
				<text x="4.84" y="429.41" class="st2" v:langID="1028"><v:paragraph v:horizAlign="1"/><v:tabList/>牛家（<tspan
							class="st3" v:langID="1033">Gokulika</tspan>）</text>			</g>
			<g id="shape3-9" v:mID="3" v:groupContext="shape" transform="translate(775.925,170.728) rotate(90)">
				<title>工作表.3</title>
				<desc>說假Paññatti</desc>
				<v:textBlock v:margins="rect(4,4,4,4)" v:tabSpace="42.5197"/>
				<v:textRect cx="63.7795" cy="427.264" width="127.56" height="127.559"/>
				<rect x="0" y="363.484" width="127.559" height="127.559" class="st1"/>
				<text x="0.25em 1.25em" y="432.25" class="st2" v:langID="1028"><v:paragraph v:horizAlign="3"/><v:tabList/>說假<tspan
							x="2.25em" dy="0em" class="st4">（</tspan><tspan x="3.25em 3.806em 4.25em 4.75em 5.25em 5.694em 5.972em
								 6.25em" dy="0em" class="st3" v:langID="1033">Paññatti</tspan><tspan x="6.527em" dy="0em"
							class="st4">）</tspan></text>			</g>
			<g id="shape4-15" v:mID="4" v:groupContext="shape" transform="translate(791.516,170.728) rotate(90)">
				<title>工作表.4</title>
				<desc>多聞Bahussutaka</desc>
				<v:textBlock v:margins="rect(4,4,4,4)" v:tabSpace="42.5197"/>
				<v:textRect cx="76.5354" cy="414.508" width="153.08" height="153.071"/>
				<rect x="0" y="337.972" width="153.071" height="153.071" class="st1"/>
				<text x="4.1" y="419.49" class="st2" v:langID="1028"><v:paragraph v:horizAlign="1"/><v:tabList/>多聞（<tspan
							class="st3" v:langID="1033">Bahussutaka</tspan>）</text>			</g>
			<g id="shape5-19" v:mID="5" v:groupContext="shape" transform="translate(734.823,-0.767717) rotate(90)">
				<title>工作表.5</title>
				<desc>一說Ekabyohāra</desc>
				<v:textBlock v:margins="rect(4,4,4,4)" v:tabSpace="42.5197"/>
				<v:textRect cx="76.5354" cy="414.508" width="153.08" height="153.071"/>
				<rect x="0" y="337.972" width="153.071" height="153.071" class="st1"/>
				<text x="6.33" y="419.49" class="st2" v:langID="1028"><v:paragraph v:horizAlign="1"/><v:tabList/>一說（<tspan
							class="st3" v:langID="1033">Ekabyohāra</tspan>）</text>			</g>
			<g id="shape6-23" v:mID="6" v:groupContext="shape" transform="translate(726.319,170.728) rotate(90)">
				<title>工作表.6</title>
				<desc>制多Cetiya</desc>
				<v:textBlock v:margins="rect(4,4,4,4)" v:tabSpace="42.5197"/>
				<v:textRect cx="59.5276" cy="431.516" width="119.06" height="119.055"/>
				<rect x="0" y="371.988" width="119.055" height="119.055" class="st1"/>
				<text x="6.64" y="436.5" class="st2" v:langID="1028"><v:paragraph v:horizAlign="1"/><v:tabList/>制多（<tspan
							class="st3" v:langID="1033">Cetiya</tspan>）</text>			</g>
			<g id="shape7-27" v:mID="7" v:groupContext="shape" transform="translate(655.453,-226.122) rotate(90)">
				<title>工作表.7</title>
				<desc>上座部</desc>
				<v:textBlock v:margins="rect(4,4,4,4)" v:tabSpace="42.5197"/>
				<v:textRect cx="28.3465" cy="462.697" width="56.7" height="56.6929"/>
				<rect x="0" y="434.35" width="56.6929" height="56.6929" class="st1"/>
				<text x="4.35" y="467.5" class="st2" v:langID="1028"><v:paragraph v:horizAlign="1"/><v:tabList/>上座部</text>			</g>
			<g id="shape8-30" v:mID="8" v:groupContext="shape" transform="translate(603.012,-233.209) rotate(90)">
				<title>工作表.8</title>
				<desc>Theravāda</desc>
				<v:textBlock v:margins="rect(4,4,4,4)" v:tabSpace="42.5197"/>
				<v:textRect cx="59.5276" cy="431.516" width="119.06" height="119.055"/>
				<rect x="0" y="371.988" width="119.055" height="119.055" class="st1"/>
				<text x="9.77" y="436.5" class="st2" v:langID="1028"><v:paragraph v:horizAlign="1"/><v:tabList/>（<tspan class="st3"
							v:langID="1033">Theravāda</tspan>）</text>			</g>
			<g id="shape9-34" v:mID="9" v:groupContext="shape" transform="translate(705.059,0.649606) rotate(90)">
				<title>工作表.9</title>
				<desc>化地</desc>
				<v:textBlock v:margins="rect(4,4,4,4)" v:tabSpace="42.5197"/>
				<v:textRect cx="21.2598" cy="469.783" width="42.52" height="42.5197"/>
				<rect x="0" y="448.524" width="42.5197" height="42.5197" class="st1"/>
				<text x="5.26" y="474.58" class="st2" v:langID="1028"><v:paragraph v:horizAlign="1"/><v:tabList/>化地</text>			</g>
			<g id="shape10-37" v:mID="10" v:groupContext="shape" transform="translate(639.862,-2.18504) rotate(90)">
				<title>工作表.10</title>
				<desc>Mahiṃsāsaka</desc>
				<v:textBlock v:margins="rect(4,4,4,4)" v:tabSpace="42.5197"/>
				<v:textRect cx="65.1969" cy="425.846" width="130.4" height="130.394"/>
				<rect x="0" y="360.65" width="130.394" height="130.394" class="st1"/>
				<text x="5.21" y="430.83" class="st2" v:langID="1028"><v:paragraph v:horizAlign="1"/><v:tabList/>（<tspan
							class="st3" v:langID="1033">Mahiṃsāsaka</tspan>）</text>			</g>
			<g id="shape11-41" v:mID="11" v:groupContext="shape" transform="translate(655.453,140.965) rotate(90)">
				<title>工作表.11</title>
				<desc>說一切有Sabbatthavāda</desc>
				<v:textBlock v:margins="rect(4,4,4,4)" v:tabSpace="42.5197"/>
				<v:textRect cx="99.2126" cy="391.831" width="198.43" height="198.425"/>
				<rect x="0" y="292.618" width="198.425" height="198.425" class="st1"/>
				<text x="4.56" y="396.81" class="st2" v:langID="1028"><v:paragraph v:horizAlign="1"/><v:tabList/>說一切有（<tspan
							class="st3" v:langID="1033">Sabbatthavāda</tspan>）</text>			</g>
			<g id="shape12-45" v:mID="12" v:groupContext="shape" transform="translate(702.224,349.311) rotate(90)">
				<title>工作表.12</title>
				<desc>飲光Kassa</desc>
				<v:textBlock v:margins="rect(4,4,4,4)" v:tabSpace="42.5197"/>
				<v:textRect cx="52.4409" cy="438.602" width="104.89" height="104.882"/>
				<rect x="0" y="386.161" width="104.882" height="104.882" class="st1"/>
				<text x="9.34" y="443.59" class="st2" v:langID="1028"><v:paragraph v:horizAlign="1"/><v:tabList/>飲光（<tspan
							class="st3" v:langID="1033">Kassa</tspan></text>			</g>
			<g id="shape15-49" v:mID="15" v:groupContext="shape" transform="translate(577.5,136.713) rotate(90)">
				<title>工作表.15</title>
				<desc>法護Dhammaguttika</desc>
				<v:textBlock v:margins="rect(4,4,4,4)" v:tabSpace="42.5197"/>
				<v:textRect cx="92.126" cy="398.917" width="184.26" height="184.252"/>
				<rect x="0" y="306.791" width="184.252" height="184.252" class="st1"/>
				<text x="8.58" y="403.9" class="st2" v:langID="1028"><v:paragraph v:horizAlign="1"/><v:tabList/>法護（<tspan
							class="st3" v:langID="1033">Dhammaguttika</tspan>）</text>			</g>
			<g id="shape22-53" v:mID="22" v:groupContext="shape" transform="translate(733.406,-228.957) rotate(90)">
				<title>工作表.22</title>
				<desc>Mahāsāṃghika</desc>
				<v:textBlock v:margins="rect(4,4,4,4)" v:tabSpace="42.5197"/>
				<v:textRect cx="70.8661" cy="420.177" width="141.74" height="141.732"/>
				<rect x="0" y="349.311" width="141.732" height="141.732" class="st1"/>
				<text x="5.99" y="425.16" class="st2" v:langID="1028"><v:paragraph v:horizAlign="1"/><v:tabList/>（<tspan
							class="st3" v:langID="1033">Mahāsāṃghika</tspan>）</text>			</g>
			<g id="shape23-57" v:mID="23" v:groupContext="shape" transform="translate(825.531,-169.429) rotate(90)">
				<title>工作表.23</title>
				<path d="M0 491.04 L155.91 491.04" class="st5"/>
			</g>
			<g id="shape25-60" v:mID="25" v:groupContext="shape" transform="translate(513.72,-254.469) rotate(90)">
				<title>工作表.25</title>
				<path d="M0 491.04 L745.51 491.04" class="st6"/>
			</g>
			<g id="shape26-63" v:mID="26" v:groupContext="shape" transform="translate(811.358,-13.5236) rotate(90)">
				<title>工作表.26</title>
				<path d="M0 491.04 L14.17 491.04" class="st5"/>
			</g>
			<g id="shape27-66" v:mID="27" v:groupContext="shape" transform="translate(853.878,-13.5236) rotate(90)">
				<title>工作表.27</title>
				<path d="M0 491.04 L14.17 491.04" class="st5"/>
			</g>
			<g id="shape28-69" v:mID="28" v:groupContext="shape" transform="translate(291.969,-504.567)">
				<title>工作表.28</title>
				<path d="M0 491.04 L70.87 491.04" class="st5"/>
			</g>
			<g id="shape29-72" v:mID="29" v:groupContext="shape" transform="translate(839.705,156.555) rotate(90)">
				<title>工作表.29</title>
				<path d="M0 491.04 L14.17 491.04" class="st5"/>
			</g>
			<g id="shape30-75" v:mID="30" v:groupContext="shape" transform="translate(868.051,156.555) rotate(90)">
				<title>工作表.30</title>
				<path d="M0 491.04 L14.17 491.04" class="st5"/>
			</g>
			<g id="shape31-78" v:mID="31" v:groupContext="shape" transform="translate(348.661,-334.488)">
				<title>工作表.31</title>
				<path d="M0 491.04 L28.35 491.04" class="st5"/>
			</g>
			<g id="shape32-81" v:mID="32" v:groupContext="shape" transform="translate(853.878,128.209) rotate(90)">
				<title>工作表.32</title>
				<path d="M0 491.04 L28.35 491.04" class="st5"/>
			</g>
			<g id="shape33-84" v:mID="33" v:groupContext="shape" transform="translate(783.012,-13.5236) rotate(90)">
				<title>工作表.33</title>
				<path d="M0 491.04 L184.25 491.04" class="st5"/>
			</g>
			<g id="shape34-87" v:mID="34" v:groupContext="shape" transform="translate(683.799,-169.429) rotate(90)">
				<title>工作表.34</title>
				<path d="M0 491.04 L155.91 491.04" class="st5"/>
			</g>
			<g id="shape35-90" v:mID="35" v:groupContext="shape" transform="translate(110.551,-504.567)">
				<title>工作表.35</title>
				<path d="M0 491.04 L124.72 491.04" class="st5"/>
			</g>
			<g id="shape37-93" v:mID="37" v:groupContext="shape" transform="translate(726.319,-13.5236) rotate(90)">
				<title>工作表.37</title>
				<path d="M0 491.04 L14.17 491.04" class="st5"/>
			</g>
			<g id="shape38-96" v:mID="38" v:groupContext="shape" transform="translate(178.583,-362.835)">
				<title>工作表.38</title>
				<path d="M0 491.04 L85.04 491.04" class="st5"/>
			</g>
			<g id="shape39-99" v:mID="39" v:groupContext="shape" transform="translate(726.319,43.1693) rotate(90)">
				<title>工作表.39</title>
				<path d="M0 491.04 L85.04 491.04" class="st5"/>
			</g>
			<g id="shape43-102" v:mID="43" v:groupContext="shape" transform="translate(754.665,128.209) rotate(90)">
				<title>工作表.43</title>
				<path d="M0 491.04 L14.17 491.04" class="st5"/>
			</g>
			<g id="shape46-105" v:mID="46" v:groupContext="shape" transform="translate(754.665,329.469) rotate(90)">
				<title>工作表.46</title>
				<path d="M0 491.04 L28.35 491.04" class="st5"/>
			</g>
			<g id="shape47-108" v:mID="47" v:groupContext="shape" transform="translate(695.138,187.736) rotate(90)">
				<title>工作表.47</title>
				<desc>apika</desc>
				<v:textBlock v:margins="rect(4,4,4,4)" v:tabSpace="42.5197"/>
				<v:textRect cx="31.1811" cy="459.862" width="62.37" height="62.3622"/>
				<rect x="0" y="428.681" width="62.3622" height="62.3622" class="st1"/>
				<text x="5.86" y="464.85" class="st7" v:langID="1033"><v:paragraph v:horizAlign="1"/><v:tabList/>apika<tspan
							class="st8" v:langID="1028">）</tspan></text>			</g>
			<g id="shape13-112" v:mID="13" v:groupContext="shape" transform="translate(649.783,267.106) rotate(90)">
				<title>工作表.13</title>
				<desc>說轉Saṃkrāntika</desc>
				<v:textBlock v:margins="rect(4,4,4,4)" v:tabSpace="42.5197"/>
				<v:textRect cx="76.5354" cy="414.508" width="153.08" height="153.071"/>
				<rect x="0" y="337.972" width="153.071" height="153.071" class="st1"/>
				<text x="4.1" y="419.49" class="st2" v:langID="1028"><v:paragraph v:horizAlign="1"/><v:tabList/>說轉（<tspan
							class="st3" v:langID="1033">Saṃkrāntika</tspan>）</text>			</g>
			<g id="shape14-116" v:mID="14" v:groupContext="shape" transform="translate(714.98,437.185) rotate(90)">
				<title>工作表.14</title>
				<desc>說</desc>
				<v:textBlock v:margins="rect(4,4,4,4)" v:tabSpace="42.5197"/>
				<v:textRect cx="11.3386" cy="479.705" width="22.68" height="22.6772"/>
				<rect x="0" y="468.366" width="22.6772" height="22.6772" class="st1"/>
				<text x="4" y="484.51" class="st2" v:langID="1028"><v:paragraph v:horizAlign="1"/><v:tabList/>說</text>			</g>
			<g id="shape45-119" v:mID="45" v:groupContext="shape" transform="translate(726.319,410.256) rotate(90)">
				<title>工作表.45</title>
				<path d="M0 491.04 L28.35 491.04" class="st5"/>
			</g>
			<g id="shape49-122" v:mID="49" v:groupContext="shape" transform="translate(754.665,448.524) rotate(90)">
				<title>工作表.49</title>
				<path d="M0 491.04 L5.67 491.04" class="st5"/>
			</g>
			<g id="shape16-125" v:mID="16" v:groupContext="shape" transform="translate(551.988,135.295) rotate(90)">
				<title>工作表.16</title>
				<desc>法上Dhammuttarika</desc>
				<v:textBlock v:margins="rect(4,4,4,4)" v:tabSpace="42.5197"/>
				<v:textRect cx="92.126" cy="398.917" width="184.26" height="184.252"/>
				<rect x="0" y="306.791" width="184.252" height="184.252" class="st1"/>
				<text x="9.92" y="403.9" class="st2" v:langID="1028"><v:paragraph v:horizAlign="1"/><v:tabList/>法上（<tspan
							class="st3" v:langID="1033">Dhammuttarika</tspan>）</text>			</g>
			<g id="shape17-129" v:mID="17" v:groupContext="shape" transform="translate(580.335,0.649606) rotate(90)">
				<title>工作表.17</title>
				<desc>犢子</desc>
				<v:textBlock v:margins="rect(4,4,4,4)" v:tabSpace="42.5197"/>
				<v:textRect cx="21.2598" cy="469.783" width="42.52" height="42.5197"/>
				<rect x="0" y="448.524" width="42.5197" height="42.5197" class="st1"/>
				<text x="5.26" y="474.58" class="st2" v:langID="1028"><v:paragraph v:horizAlign="1"/><v:tabList/>犢子</text>			</g>
			<g id="shape18-132" v:mID="18" v:groupContext="shape" transform="translate(530.728,138.13) rotate(90)">
				<title>工作表.18</title>
				<desc>賢胄Bhaddayānika</desc>
				<v:textBlock v:margins="rect(4,4,4,4)" v:tabSpace="42.5197"/>
				<v:textRect cx="85.0394" cy="406.004" width="170.08" height="170.079"/>
				<rect x="0" y="320.965" width="170.079" height="170.079" class="st1"/>
				<text x="7.28" y="410.99" class="st2" v:langID="1028"><v:paragraph v:horizAlign="1"/><v:tabList/>賢胄（<tspan
							class="st3" v:langID="1033">Bhaddayānika</tspan>）</text>			</g>
			<g id="shape19-136" v:mID="19" v:groupContext="shape" transform="translate(516.555,-5.01969) rotate(90)">
				<title>工作表.19</title>
				<desc>Vajjiputtaka</desc>
				<v:textBlock v:margins="rect(4,4,4,4)" v:tabSpace="42.5197"/>
				<v:textRect cx="63.7795" cy="427.264" width="127.56" height="127.559"/>
				<rect x="0" y="363.484" width="127.559" height="127.559" class="st1"/>
				<text x="8.24" y="432.25" class="st2" v:langID="1028"><v:paragraph v:horizAlign="1"/><v:tabList/>（<tspan
							class="st3" v:langID="1033">Vajjiputtaka</tspan>）</text>			</g>
			<g id="shape20-140" v:mID="20" v:groupContext="shape" transform="translate(506.634,140.965) rotate(90)">
				<title>工作表.20</title>
				<desc>六城Chandagārika</desc>
				<v:textBlock v:margins="rect(4,4,4,4)" v:tabSpace="42.5197"/>
				<v:textRect cx="80.7874" cy="410.256" width="161.58" height="161.575"/>
				<rect x="0" y="329.469" width="161.575" height="161.575" class="st1"/>
				<text x="4.36" y="415.24" class="st2" v:langID="1028"><v:paragraph v:horizAlign="1"/><v:tabList/>六城（<tspan
							class="st3" v:langID="1033">Chandagārika</tspan>）</text>			</g>
			<g id="shape21-144" v:mID="21" v:groupContext="shape" transform="translate(491.043,133.878) rotate(90)">
				<title>工作表.21</title>
				<desc>正量Saṃmiti</desc>
				<v:textBlock v:margins="rect(4,4,4,4)" v:tabSpace="42.5197"/>
				<v:textRect cx="68.0315" cy="423.012" width="136.07" height="136.063"/>
				<rect x="0" y="354.98" width="136.063" height="136.063" class="st1"/>
				<text x="12.26" y="427.99" class="st2" v:langID="1028"><v:paragraph v:horizAlign="1"/><v:tabList/>正量（<tspan
							class="st4" v:langID="1033">Sa</tspan><tspan class="st3" v:langID="1033">ṃ</tspan><tspan class="st4"
							v:langID="1033">miti</tspan>）</text>			</g>
			<g id="shape24-150" v:mID="24" v:groupContext="shape" transform="translate(556.24,128.209) rotate(90)">
				<title>工作表.24</title>
				<path d="M0 491.04 L14.17 491.04" class="st5"/>
			</g>
			<g id="shape36-153" v:mID="36" v:groupContext="shape" transform="translate(601.594,-13.5236) rotate(90)">
				<title>工作表.36</title>
				<path d="M0 491.04 L14.17 491.04" class="st5"/>
			</g>
			<g id="shape40-156" v:mID="40" v:groupContext="shape" transform="translate(601.594,41.752) rotate(90)">
				<title>工作表.40</title>
				<path d="M0 491.04 L86.46 491.04" class="st5"/>
			</g>
			<g id="shape41-159" v:mID="41" v:groupContext="shape" transform="translate(644.114,128.209) rotate(90)">
				<title>工作表.41</title>
				<path d="M0 491.04 L14.17 491.04" class="st5"/>
			</g>
			<g id="shape42-162" v:mID="42" v:groupContext="shape" transform="translate(669.626,128.209) rotate(90)">
				<title>工作表.42</title>
				<path d="M0 491.04 L14.17 491.04" class="st5"/>
			</g>
			<g id="shape44-165" v:mID="44" v:groupContext="shape" transform="translate(64.7244,-362.835)">
				<title>工作表.44</title>
				<path d="M0 491.04 L88.35 491.04" class="st5"/>
			</g>
			<g id="shape51-168" v:mID="51" v:groupContext="shape" transform="translate(726.319,241.594) rotate(90)">
				<title>工作表.51</title>
				<path d="M0 491.04 L28.35 491.04" class="st5"/>
			</g>
			<g id="shape48-171" v:mID="48" v:groupContext="shape" transform="translate(635.61,187.736) rotate(90)">
				<title>工作表.48</title>
				<desc>經Suttavāda</desc>
				<v:textBlock v:margins="rect(4,4,4,4)" v:tabSpace="42.5197"/>
				<v:textRect cx="62.3622" cy="428.681" width="124.73" height="124.724"/>
				<rect x="0" y="366.319" width="124.724" height="124.724" class="st1"/>
				<text x="6.82" y="433.66" class="st2" v:langID="1028"><v:paragraph v:horizAlign="1"/><v:tabList/>經（<tspan
							class="st3" v:langID="1033">Suttavāda</tspan>）</text>			</g>
			<g id="shape50-175" v:mID="50" v:groupContext="shape" transform="translate(910.571,-254.469) rotate(90)">
				<title>工作表.50</title>
				<path d="M0 491.04 L745.51 491.04" class="st6"/>
			</g>
			<g id="shape52-178" v:mID="52" v:groupContext="shape" transform="translate(22.6772,-745.512)">
				<title>工作表.52</title>
				<path d="M0 491.04 L396.85 491.04" class="st6"/>
			</g>
			<g id="shape53-181" v:mID="53" v:groupContext="shape" transform="translate(22.6772,-5.68434E-014)">
				<title>工作表.53</title>
				<path d="M0 491.04 L396.85 491.04" class="st6"/>
			</g>
		</g>
	</g>
</svg>
