<?xml version="1.0" encoding="UTF-8" standalone="no"?>
<!DOCTYPE svg PUBLIC "-//W3C//DTD SVG 1.1//EN" "http://www.w3.org/Graphics/SVG/1.1/DTD/svg11.dtd">
<!-- 由 Microsoft Visio, SVG Export 產生 y37.1093-h.svg 頁-1 -->
<svg xmlns="http://www.w3.org/2000/svg" xmlns:xlink="http://www.w3.org/1999/xlink" xmlns:ev="http://www.w3.org/2001/xml-events"
		width="5.69349in" height="5.51121in" viewBox="0 0 409.931 396.807" xml:space="preserve" color-interpolation-filters="sRGB"
		class="st5">
	<style type="text/css">
	<![CDATA[
		.st1 {fill:none;stroke:none;stroke-linecap:round;stroke-linejoin:round;stroke-width:0.75}
		.st2 {fill:#000000;font-family:新細明體;font-size:0.833336em}
		.st3 {fill:#000000;font-family:新細明體;font-size:1.33333em}
		.st4 {stroke:#000000;stroke-linecap:round;stroke-linejoin:round;stroke-width:0.24}
		.st5 {fill:none;fill-rule:evenodd;font-size:12px;overflow:visible;stroke-linecap:square;stroke-miterlimit:3}
	]]>
	</style>

	<g>
		<title>頁-1</title>
		<g id="group52-1" transform="translate(0.375,-0.12)">
			<title>工作表.52</title>
			<g id="shape1-2" transform="translate(1.27559,-334.63)">
				<title>工作表.1</title>
				<desc>1</desc>
				<rect x="0" y="376.964" width="24.378" height="19.8425" class="st1"/>
				<text x="9.84" y="389.89" class="st2">1</text>			</g>
			<g id="shape2-5" transform="translate(1.27559,-298.063)">
				<title>工作表.2</title>
				<desc>2</desc>
				<rect x="0" y="376.964" width="24.378" height="19.8425" class="st1"/>
				<text x="9.84" y="389.89" class="st2">2</text>			</g>
			<g id="shape3-8" transform="translate(1.27559,-261.496)">
				<title>工作表.3</title>
				<desc>3</desc>
				<rect x="0" y="376.964" width="24.378" height="19.8425" class="st1"/>
				<text x="9.84" y="389.89" class="st2">3</text>			</g>
			<g id="shape4-11" transform="translate(1.27559,-224.929)">
				<title>工作表.4</title>
				<desc>4</desc>
				<rect x="0" y="376.964" width="24.378" height="19.8425" class="st1"/>
				<text x="9.84" y="389.89" class="st2">4</text>			</g>
			<g id="shape5-14" transform="translate(1.27559,-188.362)">
				<title>工作表.5</title>
				<desc>5</desc>
				<rect x="0" y="376.964" width="24.378" height="19.8425" class="st1"/>
				<text x="9.84" y="389.89" class="st2">5</text>			</g>
			<g id="shape6-17" transform="translate(1.27559,-151.795)">
				<title>工作表.6</title>
				<desc>6</desc>
				<rect x="0" y="376.964" width="24.378" height="19.8425" class="st1"/>
				<text x="9.84" y="389.89" class="st2">6</text>			</g>
			<g id="shape7-20" transform="translate(1.27559,-115.228)">
				<title>工作表.7</title>
				<desc>7</desc>
				<rect x="0" y="376.964" width="24.378" height="19.8425" class="st1"/>
				<text x="9.84" y="389.89" class="st2">7</text>			</g>
			<g id="shape8-23" transform="translate(1.27559,-78.6614)">
				<title>工作表.8</title>
				<desc>8</desc>
				<rect x="0" y="376.964" width="24.378" height="19.8425" class="st1"/>
				<text x="9.84" y="389.89" class="st2">8</text>			</g>
			<g id="shape9-26" transform="translate(1.27559,-42.0945)">
				<title>工作表.9</title>
				<desc>9</desc>
				<rect x="0" y="376.964" width="24.378" height="19.8425" class="st1"/>
				<text x="9.84" y="389.89" class="st2">9</text>			</g>
			<g id="shape10-29" transform="translate(1.27559,-5.52756)">
				<title>工作表.10</title>
				<desc>10</desc>
				<rect x="0" y="376.964" width="24.378" height="19.8425" class="st1"/>
				<text x="7.49" y="389.89" class="st2">10</text>			</g>
			<g id="shape11-32" transform="translate(1.27559,-371.197)">
				<title>工作表.11</title>
				<desc>山王喻</desc>
				<rect x="0" y="376.964" width="56.126" height="19.8425" class="st1"/>
				<text x="4.06" y="391.69" class="st3">山王喻</text>			</g>
			<g id="shape12-35" transform="translate(144.992,-371.197)">
				<title>工作表.12</title>
				<desc>大海喻</desc>
				<rect x="0" y="376.964" width="56.126" height="19.8425" class="st1"/>
				<text x="4.06" y="391.69" class="st3">大海喻</text>			</g>
			<g id="shape13-38" transform="translate(273.118,-371.197)">
				<title>工作表.13</title>
				<desc>摩尼寶喻</desc>
				<rect x="0" y="376.964" width="72" height="19.8425" class="st1"/>
				<text x="4" y="391.69" class="st3">摩尼寶喻</text>			</g>
			<g id="shape14-41" transform="translate(-1.59872E-14,-334.63)">
				<title>工作表.14</title>
				<desc>世間藝業</desc>
				<rect x="0" y="376.964" width="90.7087" height="19.8425" class="st1"/>
				<text x="20.62" y="391.69" class="st3">世間藝業</text>			</g>
			<g id="shape15-44" transform="translate(1.27559,-298.063)">
				<title>工作表.15</title>
				<desc>戒行</desc>
				<rect x="0" y="376.964" width="88.1575" height="19.8425" class="st1"/>
				<text x="20.62" y="391.69" class="st3">戒行</text>			</g>
			<g id="shape16-47" transform="translate(2.39808E-13,-261.496)">
				<title>工作表.16</title>
				<desc>禪定神通</desc>
				<rect x="0" y="376.964" width="90.7087" height="19.8425" class="st1"/>
				<text x="20.62" y="391.69" class="st3">禪定神通</text>			</g>
			<g id="shape17-50" transform="translate(3.67706E-13,-224.929)">
				<title>工作表.17</title>
				<desc>道品智慧</desc>
				<rect x="0" y="376.964" width="90.7087" height="19.8425" class="st1"/>
				<text x="20.62" y="391.69" class="st3">道品智慧</text>			</g>
			<g id="shape18-53" transform="translate(6.23501E-13,-188.362)">
				<title>工作表.18</title>
				<desc>如意神通</desc>
				<rect x="0" y="376.964" width="90.7087" height="19.8425" class="st1"/>
				<text x="20.62" y="391.69" class="st3">如意神通</text>			</g>
			<g id="shape19-56" transform="translate(1.27559,-151.795)">
				<title>工作表.19</title>
				<desc>具眾果</desc>
				<rect x="0" y="376.964" width="88.1575" height="19.8425" class="st1"/>
				<text x="20.62" y="391.69" class="st3">具眾果</text>			</g>
			<g id="shape20-59" transform="translate(7.51399E-13,-115.228)">
				<title>工作表.20</title>
				<desc>方便大慧</desc>
				<rect x="0" y="376.964" width="90.7087" height="19.8425" class="st1"/>
				<text x="20.62" y="391.69" class="st3">方便大慧</text>			</g>
			<g id="shape21-62" transform="translate(1.27559,-78.6614)">
				<title>工作表.21</title>
				<desc>自在行</desc>
				<rect x="0" y="376.964" width="88.1575" height="19.8425" class="st1"/>
				<text x="20.62" y="391.69" class="st3">自在行</text>			</g>
			<g id="shape22-65" transform="translate(1.00719E-12,-42.0945)">
				<title>工作表.22</title>
				<desc>集無礙智</desc>
				<rect x="0" y="376.964" width="90.7087" height="19.8425" class="st1"/>
				<text x="20.62" y="391.69" class="st3">集無礙智</text>			</g>
			<g id="shape23-68" transform="translate(1.27559,-5.52756)">
				<title>工作表.23</title>
				<desc>具眾德</desc>
				<rect x="0" y="376.964" width="88.1575" height="19.8425" class="st1"/>
				<text x="20.62" y="391.69" class="st3">具眾德</text>			</g>
			<g id="shape24-71" transform="translate(144.992,-334.63)">
				<title>工作表.24</title>
				<desc>大願</desc>
				<rect x="0" y="376.964" width="104.031" height="19.8425" class="st1"/>
				<text x="4" y="391.69" class="st3">大願</text>			</g>
			<g id="shape25-74" transform="translate(144.992,-298.063)">
				<title>工作表.25</title>
				<desc>持戒</desc>
				<rect x="0" y="376.964" width="104.031" height="19.8425" class="st1"/>
				<text x="4" y="391.69" class="st3">持戒</text>			</g>
			<g id="shape26-77" transform="translate(144.992,-261.496)">
				<title>工作表.26</title>
				<desc>捨世假名</desc>
				<rect x="0" y="376.964" width="104.031" height="19.8425" class="st1"/>
				<text x="4" y="391.69" class="st3">捨世假名</text>			</g>
			<g id="shape27-80" transform="translate(144.992,-224.929)">
				<title>工作表.27</title>
				<desc>專一</desc>
				<rect x="0" y="376.964" width="104.031" height="19.8425" class="st1"/>
				<text x="4" y="391.69" class="st3">專一</text>			</g>
			<g id="shape28-83" transform="translate(144.992,-188.362)">
				<title>工作表.28</title>
				<desc>方便神通</desc>
				<rect x="0" y="376.964" width="104.031" height="19.8425" class="st1"/>
				<text x="4" y="391.69" class="st3">方便神通</text>			</g>
			<g id="shape29-86" transform="translate(144.992,-151.795)">
				<title>工作表.29</title>
				<desc>觀甚深理</desc>
				<rect x="0" y="376.964" width="104.031" height="19.8425" class="st1"/>
				<text x="4" y="391.69" class="st3">觀甚深理</text>			</g>
			<g id="shape30-89" transform="translate(144.992,-115.228)">
				<title>工作表.30</title>
				<desc>廣大慧</desc>
				<rect x="0" y="376.964" width="104.031" height="19.8425" class="st1"/>
				<text x="4" y="391.69" class="st3">廣大慧</text>			</g>
			<g id="shape31-92" transform="translate(144.992,-78.6614)">
				<title>工作表.31</title>
				<desc>廣大莊嚴</desc>
				<rect x="0" y="376.964" width="104.031" height="19.8425" class="st1"/>
				<text x="4" y="391.69" class="st3">廣大莊嚴</text>			</g>
			<g id="shape32-95" transform="translate(144.992,-42.0945)">
				<title>工作表.32</title>
				<desc>思量微妙義</desc>
				<rect x="0" y="376.964" width="104.031" height="19.8425" class="st1"/>
				<text x="4" y="391.69" class="st3">思量微妙義</text>			</g>
			<g id="shape33-98" transform="translate(144.992,-5.52756)">
				<title>工作表.33</title>
				<desc>受持一切佛法</desc>
				<rect x="0" y="376.964" width="104.031" height="19.8425" class="st1"/>
				<text x="4" y="391.69" class="st3">受持一切佛法</text>			</g>
			<g id="shape34-101" transform="translate(273.118,-334.63)">
				<title>工作表.34</title>
				<desc>發一切智心</desc>
				<rect x="0" y="376.964" width="136.063" height="19.8425" class="st1"/>
				<text x="4" y="391.69" class="st3">發一切智心</text>			</g>
			<g id="shape35-104" transform="translate(273.118,-298.063)">
				<title>工作表.35</title>
				<desc>戒行明淨</desc>
				<rect x="0" y="376.964" width="136.063" height="19.8425" class="st1"/>
				<text x="4" y="391.69" class="st3">戒行明淨</text>			</g>
			<g id="shape36-107" transform="translate(273.118,-261.496)">
				<title>工作表.36</title>
				<desc>三昧圓滿</desc>
				<rect x="0" y="376.964" width="136.063" height="19.8425" class="st1"/>
				<text x="4" y="391.69" class="st3">三昧圓滿</text>			</g>
			<g id="shape37-110" transform="translate(273.118,-224.929)">
				<title>工作表.37</title>
				<desc>道行清淨</desc>
				<rect x="0" y="376.964" width="136.063" height="19.8425" class="st1"/>
				<text x="4" y="391.69" class="st3">道行清淨</text>			</g>
			<g id="shape38-113" transform="translate(273.118,-188.362)">
				<title>工作表.38</title>
				<desc>方便神通</desc>
				<rect x="0" y="376.964" width="136.063" height="19.8425" class="st1"/>
				<text x="4" y="391.69" class="st3">方便神通</text>			</g>
			<g id="shape39-116" transform="translate(273.118,-151.795)">
				<title>工作表.39</title>
				<desc>緣起智</desc>
				<rect x="0" y="376.964" width="136.063" height="19.8425" class="st1"/>
				<text x="4" y="391.69" class="st3">緣起智</text>			</g>
			<g id="shape40-119" transform="translate(273.118,-115.228)">
				<title>工作表.40</title>
				<desc>方便智</desc>
				<rect x="0" y="376.964" width="136.063" height="19.8425" class="st1"/>
				<text x="4" y="391.69" class="st3">方便智</text>			</g>
			<g id="shape41-122" transform="translate(273.118,-78.6614)">
				<title>工作表.41</title>
				<desc>自在</desc>
				<rect x="0" y="376.964" width="136.063" height="19.8425" class="st1"/>
				<text x="4" y="391.69" class="st3">自在</text>			</g>
			<g id="shape42-125" transform="translate(273.118,-42.0945)">
				<title>工作表.42</title>
				<desc>觀眾生行放聞持光</desc>
				<rect x="0" y="376.964" width="136.063" height="19.8425" class="st1"/>
				<text x="4" y="391.69" class="st3">觀眾生行放聞持光</text>			</g>
			<g id="shape43-128" transform="translate(273.118,-5.52756)">
				<title>工作表.43</title>
				<desc>受佛智職廣作佛事</desc>
				<rect x="0" y="376.964" width="136.063" height="19.8425" class="st1"/>
				<text x="4" y="391.69" class="st3">受佛智職廣作佛事</text>			</g>
			<g id="shape47-131" transform="translate(-267.972,396.807) rotate(-90)">
				<title>工作表.47</title>
				<path d="M0 396.81 L396.57 396.81" class="st4"/>
			</g>
			<g id="shape48-134" transform="translate(-136.445,396.807) rotate(-90)">
				<title>工作表.48</title>
				<path d="M0 396.81 L396.57 396.81" class="st4"/>
			</g>
			<g id="shape51-137" transform="translate(1.27559,-365.528)">
				<title>工作表.51</title>
				<path d="M0 396.81 L363.26 396.81 L402.24 396.81" class="st4"/>
			</g>
		</g>
	</g>
</svg>
