<?xml version="1.0" encoding="UTF-8" standalone="no"?>
<!DOCTYPE svg PUBLIC "-//W3C//DTD SVG 1.1//EN" "http://www.w3.org/Graphics/SVG/1.1/DTD/svg11.dtd">
<!-- 由 Microsoft Visio, SVG Export 產生 y37.0596-h.svg 頁-1 -->
<svg xmlns="http://www.w3.org/2000/svg" xmlns:xlink="http://www.w3.org/1999/xlink" xmlns:ev="http://www.w3.org/2001/xml-events"
		width="6.90018in" height="6.23089in" viewBox="0 0 496.813 448.624" xml:space="preserve" color-interpolation-filters="sRGB"
		class="st3">
	<style type="text/css">
	<![CDATA[
		.st1 {fill:none;stroke:none;stroke-linecap:round;stroke-linejoin:round;stroke-width:0.75}
		.st2 {fill:#000000;font-family:新細明體;font-size:1.33333em}
		.st3 {fill:none;fill-rule:evenodd;font-size:12px;overflow:visible;stroke-linecap:square;stroke-miterlimit:3}
	]]>
	</style>

	<g>
		<title>頁-1</title>
		<g id="group76-1" transform="translate(0.375,-0.375)">
			<title>工作表.76</title>
			<g id="shape1-2" transform="translate(2.15827E-13,-425.197)">
				<title>工作表.1</title>
				<desc>初會</desc>
				<rect x="0" y="425.947" width="42.5197" height="22.6772" class="st1"/>
				<text x="5.26" y="442.09" class="st2">初會</text>			</g>
			<g id="shape2-5" transform="translate(85.0394,-425.197)">
				<title>工作表.2</title>
				<desc>十萬頌</desc>
				<rect x="0" y="425.947" width="56.6929" height="22.6772" class="st1"/>
				<text x="4.35" y="442.09" class="st2">十萬頌</text>			</g>
			<g id="shape3-8" transform="translate(198.425,-425.197)">
				<title>工作表.3</title>
				<desc>四百卷</desc>
				<rect x="0" y="425.947" width="56.6929" height="22.6772" class="st1"/>
				<text x="4.35" y="442.09" class="st2">四百卷</text>			</g>
			<g id="shape4-11" transform="translate(453.543,-1.64846E-12)">
				<title>工作表.4</title>
				<desc>新譯</desc>
				<rect x="0" y="425.947" width="42.5197" height="22.6772" class="st1"/>
				<text x="5.26" y="442.09" class="st2">新譯</text>			</g>
			<g id="shape5-14" transform="translate(1.8785E-13,-396.85)">
				<title>工作表.5</title>
				<desc>二會</desc>
				<rect x="0" y="425.947" width="42.5197" height="22.6772" class="st1"/>
				<text x="5.26" y="442.09" class="st2">二會</text>			</g>
			<g id="shape6-17" transform="translate(83.622,-396.85)">
				<title>工作表.6</title>
				<desc>二萬五千頌</desc>
				<rect x="0" y="425.947" width="90.7087" height="22.6772" class="st1"/>
				<text x="5.35" y="442.09" class="st2">二萬五千頌</text>			</g>
			<g id="shape7-20" transform="translate(198.425,-396.85)">
				<title>工作表.7</title>
				<desc>七八卷</desc>
				<rect x="0" y="425.947" width="56.6929" height="22.6772" class="st1"/>
				<text x="4.35" y="442.09" class="st2">七八卷</text>			</g>
			<g id="shape8-23" transform="translate(453.543,-198.425)">
				<title>工作表.8</title>
				<desc>重譯</desc>
				<rect x="0" y="425.947" width="42.5197" height="22.6772" class="st1"/>
				<text x="5.26" y="442.09" class="st2">重譯</text>			</g>
			<g id="shape9-26" transform="translate(2.83773E-13,-368.504)">
				<title>工作表.9</title>
				<desc>三會</desc>
				<rect x="0" y="425.947" width="42.5197" height="22.6772" class="st1"/>
				<text x="5.26" y="442.09" class="st2">三會</text>			</g>
			<g id="shape10-29" transform="translate(83.622,-368.504)">
				<title>工作表.10</title>
				<desc>一萬八千頌</desc>
				<rect x="0" y="425.947" width="90.7087" height="22.6772" class="st1"/>
				<text x="5.35" y="442.09" class="st2">一萬八千頌</text>			</g>
			<g id="shape11-32" transform="translate(198.425,-368.504)">
				<title>工作表.11</title>
				<desc>五九卷</desc>
				<rect x="0" y="425.947" width="56.6929" height="22.6772" class="st1"/>
				<text x="4.35" y="442.09" class="st2">五九卷</text>			</g>
			<g id="shape13-35" transform="translate(2.51799E-13,-340.157)">
				<title>工作表.13</title>
				<desc>四會</desc>
				<rect x="0" y="425.947" width="42.5197" height="22.6772" class="st1"/>
				<text x="5.26" y="442.09" class="st2">四會</text>			</g>
			<g id="shape14-38" transform="translate(85.0394,-340.157)">
				<title>工作表.14</title>
				<desc>八千頌</desc>
				<rect x="0" y="425.947" width="56.6929" height="22.6772" class="st1"/>
				<text x="4.35" y="442.09" class="st2">八千頌</text>			</g>
			<g id="shape15-41" transform="translate(198.425,-340.157)">
				<title>工作表.15</title>
				<desc>一八卷</desc>
				<rect x="0" y="425.947" width="56.6929" height="22.6772" class="st1"/>
				<text x="4.35" y="442.09" class="st2">一八卷</text>			</g>
			<g id="shape16-44" transform="translate(2.15827E-13,-311.811)">
				<title>工作表.16</title>
				<desc>五會</desc>
				<rect x="0" y="425.947" width="42.5197" height="22.6772" class="st1"/>
				<text x="5.26" y="442.09" class="st2">五會</text>			</g>
			<g id="shape17-47" transform="translate(85.0394,-311.811)">
				<title>工作表.17</title>
				<desc>四千頌</desc>
				<rect x="0" y="425.947" width="56.6929" height="22.6772" class="st1"/>
				<text x="4.35" y="442.09" class="st2">四千頌</text>			</g>
			<g id="shape18-50" transform="translate(198.425,-311.811)">
				<title>工作表.18</title>
				<desc>一○卷</desc>
				<rect x="0" y="425.947" width="56.6929" height="22.6772" class="st1"/>
				<text x="4" y="442.09" class="st2">一○卷</text>			</g>
			<g id="shape19-53" transform="translate(1.8785E-13,-283.465)">
				<title>工作表.19</title>
				<desc>六會</desc>
				<rect x="0" y="425.947" width="42.5197" height="22.6772" class="st1"/>
				<text x="5.26" y="442.09" class="st2">六會</text>			</g>
			<g id="shape20-56" transform="translate(83.622,-283.465)">
				<title>工作表.20</title>
				<desc>二千五百頌</desc>
				<rect x="0" y="425.947" width="90.7087" height="22.6772" class="st1"/>
				<text x="5.35" y="442.09" class="st2">二千五百頌</text>			</g>
			<g id="shape21-59" transform="translate(198.425,-283.465)">
				<title>工作表.21</title>
				<desc>八卷</desc>
				<rect x="0" y="425.947" width="42.5197" height="22.6772" class="st1"/>
				<text x="5.26" y="442.09" class="st2">八卷</text>			</g>
			<g id="shape22-62" transform="translate(297.638,-283.465)">
				<title>工作表.22</title>
				<desc>最勝天王分</desc>
				<rect x="0" y="425.947" width="90.7087" height="22.6772" class="st1"/>
				<text x="5.35" y="442.09" class="st2">最勝天王分</text>			</g>
			<g id="shape23-65" transform="translate(1.51879E-13,-255.118)">
				<title>工作表.23</title>
				<desc>七會</desc>
				<rect x="0" y="425.947" width="42.5197" height="22.6772" class="st1"/>
				<text x="5.26" y="442.09" class="st2">七會</text>			</g>
			<g id="shape24-68" transform="translate(85.0394,-255.118)">
				<title>工作表.24</title>
				<desc>八百頌</desc>
				<rect x="0" y="425.947" width="56.6929" height="22.6772" class="st1"/>
				<text x="4.35" y="442.09" class="st2">八百頌</text>			</g>
			<g id="shape25-71" transform="translate(198.425,-255.118)">
				<title>工作表.25</title>
				<desc>二卷</desc>
				<rect x="0" y="425.947" width="42.5197" height="22.6772" class="st1"/>
				<text x="5.26" y="442.09" class="st2">二卷</text>			</g>
			<g id="shape26-74" transform="translate(297.638,-255.118)">
				<title>工作表.26</title>
				<desc>曼殊室利分</desc>
				<rect x="0" y="425.947" width="90.7087" height="22.6772" class="st1"/>
				<text x="5.35" y="442.09" class="st2">曼殊室利分</text>			</g>
			<g id="shape27-77" transform="translate(2.51799E-13,-226.772)">
				<title>工作表.27</title>
				<desc>八會</desc>
				<rect x="0" y="425.947" width="42.5197" height="22.6772" class="st1"/>
				<text x="5.26" y="442.09" class="st2">八會</text>			</g>
			<g id="shape28-80" transform="translate(85.0394,-226.772)">
				<title>工作表.28</title>
				<desc>四百頌</desc>
				<rect x="0" y="425.947" width="56.6929" height="22.6772" class="st1"/>
				<text x="4.35" y="442.09" class="st2">四百頌</text>			</g>
			<g id="shape29-83" transform="translate(198.425,-226.772)">
				<title>工作表.29</title>
				<desc>一卷</desc>
				<rect x="0" y="425.947" width="42.5197" height="22.6772" class="st1"/>
				<text x="5.26" y="442.09" class="st2">一卷</text>			</g>
			<g id="shape30-86" transform="translate(297.638,-226.772)">
				<title>工作表.30</title>
				<desc>那伽室利分</desc>
				<rect x="0" y="425.947" width="90.7087" height="22.6772" class="st1"/>
				<text x="5.35" y="442.09" class="st2">那伽室利分</text>			</g>
			<g id="shape31-89" transform="translate(-3.59712E-14,-198.425)">
				<title>工作表.31</title>
				<desc>九會</desc>
				<rect x="0" y="425.947" width="42.5197" height="22.6772" class="st1"/>
				<text x="5.26" y="442.09" class="st2">九會</text>			</g>
			<g id="shape32-92" transform="translate(85.0394,-198.425)">
				<title>工作表.32</title>
				<desc>三百頌</desc>
				<rect x="0" y="425.947" width="56.6929" height="22.6772" class="st1"/>
				<text x="4.35" y="442.09" class="st2">三百頌</text>			</g>
			<g id="shape33-95" transform="translate(198.425,-198.425)">
				<title>工作表.33</title>
				<desc>一卷</desc>
				<rect x="0" y="425.947" width="42.5197" height="22.6772" class="st1"/>
				<text x="5.26" y="442.09" class="st2">一卷</text>			</g>
			<g id="shape34-98" transform="translate(297.638,-198.425)">
				<title>工作表.34</title>
				<desc>能斷金剛分</desc>
				<rect x="0" y="425.947" width="90.7087" height="22.6772" class="st1"/>
				<text x="5.35" y="442.09" class="st2">能斷金剛分</text>			</g>
			<g id="shape35-101" transform="translate(1.8785E-13,-170.079)">
				<title>工作表.35</title>
				<desc>十會</desc>
				<rect x="0" y="425.947" width="42.5197" height="22.6772" class="st1"/>
				<text x="5.26" y="442.09" class="st2">十會</text>			</g>
			<g id="shape36-104" transform="translate(85.0394,-170.079)">
				<title>工作表.36</title>
				<desc>三百頌</desc>
				<rect x="0" y="425.947" width="56.6929" height="22.6772" class="st1"/>
				<text x="4.35" y="442.09" class="st2">三百頌</text>			</g>
			<g id="shape37-107" transform="translate(198.425,-170.079)">
				<title>工作表.37</title>
				<desc>一卷</desc>
				<rect x="0" y="425.947" width="42.5197" height="22.6772" class="st1"/>
				<text x="5.26" y="442.09" class="st2">一卷</text>			</g>
			<g id="shape38-110" transform="translate(297.638,-170.079)">
				<title>工作表.38</title>
				<desc>般若理趣分</desc>
				<rect x="0" y="425.947" width="90.7087" height="22.6772" class="st1"/>
				<text x="5.35" y="442.09" class="st2">般若理趣分</text>			</g>
			<g id="shape39-113" transform="translate(1.41732,-141.732)">
				<title>工作表.39</title>
				<desc>十一會</desc>
				<rect x="0" y="425.947" width="56.6929" height="22.6772" class="st1"/>
				<text x="4.35" y="442.09" class="st2">十一會</text>			</g>
			<g id="shape40-116" transform="translate(85.0394,-141.732)">
				<title>工作表.40</title>
				<desc>二千頌</desc>
				<rect x="0" y="425.947" width="56.6929" height="22.6772" class="st1"/>
				<text x="4.35" y="442.09" class="st2">二千頌</text>			</g>
			<g id="shape41-119" transform="translate(198.425,-141.732)">
				<title>工作表.41</title>
				<desc>五卷</desc>
				<rect x="0" y="425.947" width="42.5197" height="22.6772" class="st1"/>
				<text x="5.26" y="442.09" class="st2">五卷</text>			</g>
			<g id="shape42-122" transform="translate(294.803,-141.732)">
				<title>工作表.42</title>
				<desc>布施波羅蜜多分</desc>
				<rect x="0" y="425.947" width="127.559" height="22.6772" class="st1"/>
				<text x="7.78" y="442.09" class="st2">布施波羅蜜多分</text>			</g>
			<g id="shape43-125" transform="translate(1.41732,-113.386)">
				<title>工作表.43</title>
				<desc>十二會</desc>
				<rect x="0" y="425.947" width="56.6929" height="22.6772" class="st1"/>
				<text x="4.35" y="442.09" class="st2">十二會</text>			</g>
			<g id="shape44-128" transform="translate(85.0394,-113.386)">
				<title>工作表.44</title>
				<desc>二千頌</desc>
				<rect x="0" y="425.947" width="56.6929" height="22.6772" class="st1"/>
				<text x="4.35" y="442.09" class="st2">二千頌</text>			</g>
			<g id="shape45-131" transform="translate(198.425,-113.386)">
				<title>工作表.45</title>
				<desc>五卷</desc>
				<rect x="0" y="425.947" width="42.5197" height="22.6772" class="st1"/>
				<text x="5.26" y="442.09" class="st2">五卷</text>			</g>
			<g id="shape46-134" transform="translate(294.803,-113.386)">
				<title>工作表.46</title>
				<desc>淨戒波羅蜜多分</desc>
				<rect x="0" y="425.947" width="127.559" height="22.6772" class="st1"/>
				<text x="7.78" y="442.09" class="st2">淨戒波羅蜜多分</text>			</g>
			<g id="shape47-137" transform="translate(1.41732,-85.0394)">
				<title>工作表.47</title>
				<desc>十三會</desc>
				<rect x="0" y="425.947" width="56.6929" height="22.6772" class="st1"/>
				<text x="4.35" y="442.09" class="st2">十三會</text>			</g>
			<g id="shape48-140" transform="translate(85.0394,-85.0394)">
				<title>工作表.48</title>
				<desc>四百頌</desc>
				<rect x="0" y="425.947" width="56.6929" height="22.6772" class="st1"/>
				<text x="4.35" y="442.09" class="st2">四百頌</text>			</g>
			<g id="shape49-143" transform="translate(198.425,-85.0394)">
				<title>工作表.49</title>
				<desc>一卷</desc>
				<rect x="0" y="425.947" width="42.5197" height="22.6772" class="st1"/>
				<text x="5.26" y="442.09" class="st2">一卷</text>			</g>
			<g id="shape50-146" transform="translate(294.803,-85.0394)">
				<title>工作表.50</title>
				<desc>安忍波羅蜜多分</desc>
				<rect x="0" y="425.947" width="127.559" height="22.6772" class="st1"/>
				<text x="7.78" y="442.09" class="st2">安忍波羅蜜多分</text>			</g>
			<g id="shape51-149" transform="translate(1.41732,-56.6929)">
				<title>工作表.51</title>
				<desc>十四會</desc>
				<rect x="0" y="425.947" width="56.6929" height="22.6772" class="st1"/>
				<text x="4.35" y="442.09" class="st2">十四會</text>			</g>
			<g id="shape52-152" transform="translate(85.0394,-56.6929)">
				<title>工作表.52</title>
				<desc>四百頌</desc>
				<rect x="0" y="425.947" width="56.6929" height="22.6772" class="st1"/>
				<text x="4.35" y="442.09" class="st2">四百頌</text>			</g>
			<g id="shape53-155" transform="translate(198.425,-56.6929)">
				<title>工作表.53</title>
				<desc>一卷</desc>
				<rect x="0" y="425.947" width="42.5197" height="22.6772" class="st1"/>
				<text x="5.26" y="442.09" class="st2">一卷</text>			</g>
			<g id="shape54-158" transform="translate(294.803,-56.6929)">
				<title>工作表.54</title>
				<desc>精進波羅蜜多分</desc>
				<rect x="0" y="425.947" width="127.559" height="22.6772" class="st1"/>
				<text x="7.78" y="442.09" class="st2">精進波羅蜜多分</text>			</g>
			<g id="shape55-161" transform="translate(1.41732,-28.3465)">
				<title>工作表.55</title>
				<desc>十五會</desc>
				<rect x="0" y="425.947" width="56.6929" height="22.6772" class="st1"/>
				<text x="4.35" y="442.09" class="st2">十五會</text>			</g>
			<g id="shape56-164" transform="translate(85.0394,-28.3465)">
				<title>工作表.56</title>
				<desc>八百頌</desc>
				<rect x="0" y="425.947" width="56.6929" height="22.6772" class="st1"/>
				<text x="4.35" y="442.09" class="st2">八百頌</text>			</g>
			<g id="shape57-167" transform="translate(198.425,-28.3465)">
				<title>工作表.57</title>
				<desc>二卷</desc>
				<rect x="0" y="425.947" width="42.5197" height="22.6772" class="st1"/>
				<text x="5.26" y="442.09" class="st2">二卷</text>			</g>
			<g id="shape58-170" transform="translate(294.803,-28.3465)">
				<title>工作表.58</title>
				<desc>靜慮波羅蜜多分</desc>
				<rect x="0" y="425.947" width="127.559" height="22.6772" class="st1"/>
				<text x="7.78" y="442.09" class="st2">靜慮波羅蜜多分</text>			</g>
			<g id="shape59-173" transform="translate(1.41732,5.68434E-14)">
				<title>工作表.59</title>
				<desc>十六會</desc>
				<rect x="0" y="425.947" width="56.6929" height="22.6772" class="st1"/>
				<text x="4.35" y="442.09" class="st2">十六會</text>			</g>
			<g id="shape60-176" transform="translate(83.622,-3.41061E-13)">
				<title>工作表.60</title>
				<desc>二千五百頌</desc>
				<rect x="0" y="425.947" width="90.7087" height="22.6772" class="st1"/>
				<text x="5.35" y="442.09" class="st2">二千五百頌</text>			</g>
			<g id="shape61-179" transform="translate(198.425,-1.41732)">
				<title>工作表.61</title>
				<desc>八卷</desc>
				<rect x="0" y="425.947" width="42.5197" height="22.6772" class="st1"/>
				<text x="5.26" y="442.09" class="st2">八卷</text>			</g>
			<g id="shape62-182" transform="translate(294.803,-1.25056E-12)">
				<title>工作表.62</title>
				<desc>般若波羅蜜多分</desc>
				<rect x="0" y="425.947" width="127.559" height="22.6772" class="st1"/>
				<text x="7.78" y="442.09" class="st2">般若波羅蜜多分</text>			</g>
			<g id="shape12-185" transform="translate(453.543,-28.3465)">
				<title>工作表.12</title>
				<desc>新譯</desc>
				<rect x="0" y="425.947" width="42.5197" height="22.6772" class="st1"/>
				<text x="5.26" y="442.09" class="st2">新譯</text>			</g>
			<g id="shape63-188" transform="translate(453.543,-56.6929)">
				<title>工作表.63</title>
				<desc>新譯</desc>
				<rect x="0" y="425.947" width="42.5197" height="22.6772" class="st1"/>
				<text x="5.26" y="442.09" class="st2">新譯</text>			</g>
			<g id="shape64-191" transform="translate(453.543,-85.0394)">
				<title>工作表.64</title>
				<desc>新譯</desc>
				<rect x="0" y="425.947" width="42.5197" height="22.6772" class="st1"/>
				<text x="5.26" y="442.09" class="st2">新譯</text>			</g>
			<g id="shape65-194" transform="translate(453.543,-114.803)">
				<title>工作表.65</title>
				<desc>新譯</desc>
				<rect x="0" y="425.947" width="42.5197" height="22.6772" class="st1"/>
				<text x="5.26" y="442.09" class="st2">新譯</text>			</g>
			<g id="shape66-197" transform="translate(453.543,-170.079)">
				<title>工作表.66</title>
				<desc>新譯</desc>
				<rect x="0" y="425.947" width="42.5197" height="22.6772" class="st1"/>
				<text x="5.26" y="442.09" class="st2">新譯</text>			</g>
			<g id="shape67-200" transform="translate(453.543,-141.732)">
				<title>工作表.67</title>
				<desc>新譯</desc>
				<rect x="0" y="425.947" width="42.5197" height="22.6772" class="st1"/>
				<text x="5.26" y="442.09" class="st2">新譯</text>			</g>
			<g id="shape68-203" transform="translate(453.543,-255.118)">
				<title>工作表.68</title>
				<desc>重譯</desc>
				<rect x="0" y="425.947" width="42.5197" height="22.6772" class="st1"/>
				<text x="5.26" y="442.09" class="st2">重譯</text>			</g>
			<g id="shape69-206" transform="translate(453.543,-283.465)">
				<title>工作表.69</title>
				<desc>重譯</desc>
				<rect x="0" y="425.947" width="42.5197" height="22.6772" class="st1"/>
				<text x="5.26" y="442.09" class="st2">重譯</text>			</g>
			<g id="shape70-209" transform="translate(453.543,-311.811)">
				<title>工作表.70</title>
				<desc>重譯</desc>
				<rect x="0" y="425.947" width="42.5197" height="22.6772" class="st1"/>
				<text x="5.26" y="442.09" class="st2">重譯</text>			</g>
			<g id="shape71-212" transform="translate(453.543,-226.772)">
				<title>工作表.71</title>
				<desc>重譯</desc>
				<rect x="0" y="425.947" width="42.5197" height="22.6772" class="st1"/>
				<text x="5.26" y="442.09" class="st2">重譯</text>			</g>
			<g id="shape72-215" transform="translate(453.543,-396.85)">
				<title>工作表.72</title>
				<desc>重譯</desc>
				<rect x="0" y="425.947" width="42.5197" height="22.6772" class="st1"/>
				<text x="5.26" y="442.09" class="st2">重譯</text>			</g>
			<g id="shape73-218" transform="translate(453.543,-425.197)">
				<title>工作表.73</title>
				<desc>新譯</desc>
				<rect x="0" y="425.947" width="42.5197" height="22.6772" class="st1"/>
				<text x="5.26" y="442.09" class="st2">新譯</text>			</g>
			<g id="shape74-221" transform="translate(453.543,-368.504)">
				<title>工作表.74</title>
				<desc>新譯</desc>
				<rect x="0" y="425.947" width="42.5197" height="22.6772" class="st1"/>
				<text x="5.26" y="442.09" class="st2">新譯</text>			</g>
			<g id="shape75-224" transform="translate(453.543,-340.157)">
				<title>工作表.75</title>
				<desc>新譯</desc>
				<rect x="0" y="425.947" width="42.5197" height="22.6772" class="st1"/>
				<text x="5.26" y="442.09" class="st2">新譯</text>			</g>
		</g>
	</g>
</svg>
