<?xml version="1.0" encoding="UTF-8" standalone="no"?>
<!DOCTYPE svg PUBLIC "-//W3C//DTD SVG 1.0//EN" "http://www.w3.org/TR/2001/REC-SVG-20010904/DTD/svg10.dtd">
<!-- 由 Microsoft Visio 11.0, SVG Export, v1.0 產生 y37.0398.svg Page-1 -->
<svg xmlns="http://www.w3.org/2000/svg" xmlns:xlink="http://www.w3.org/1999/xlink" xmlns:ev="http://www.w3.org/2001/xml-events"
		xmlns:v="http://schemas.microsoft.com/visio/2003/SVGExtensions/" width="10.1734in" height="5.60305in"
		viewBox="0 0 732.488 403.419" xml:space="preserve" color-interpolation-filters="sRGB" class="st6">
	<v:documentProperties v:langID="1028" v:metric="true" v:viewMarkup="false">
		<v:userDefs>
			<v:ud v:nameU="msvSubprocessMaster" v:prompt="" v:val="VT4(Box)"/>
			<v:ud v:nameU="msvNoAutoConnect" v:val="VT0(1):26"/>
		</v:userDefs>
	</v:documentProperties>

	<style type="text/css">
	<![CDATA[
		.st1 {fill:none;stroke:none;stroke-linecap:round;stroke-linejoin:round;stroke-width:0.75}
		.st2 {fill:#000000;font-family:新細明體;font-size:1.33333em}
		.st3 {fill:#000000;font-family:Times New Roman;font-size:1.33333em}
		.st4 {stroke:#ffffff;stroke-linecap:round;stroke-linejoin:round;stroke-opacity:0;stroke-width:1}
		.st5 {stroke:#000000;stroke-linecap:round;stroke-linejoin:round;stroke-width:1}
		.st6 {fill:none;fill-rule:evenodd;font-size:12px;overflow:visible;stroke-linecap:square;stroke-miterlimit:3}
	]]>
	</style>

	<g v:mID="0" v:index="1" v:groupContext="foregroundPage">
		<title>頁-1</title>
		<v:pageProperties v:drawingScale="0.0393701" v:pageScale="0.0393701" v:drawingUnits="24" v:shadowOffsetX="8.50394"
				v:shadowOffsetY="-8.50394"/>
		<g id="group50-1" transform="translate(310.069,384.419) rotate(-90)" v:mID="50" v:groupContext="group">
			<title>工作表.50</title>
			<g id="shape5-2" v:mID="5" v:groupContext="shape" transform="translate(661.372,-245.715) rotate(90)">
				<title>工作表.5</title>
				<desc>東</desc>
				<v:textBlock v:margins="rect(4,4,4,4)" v:tabSpace="42.5197"/>
				<v:textRect cx="11.3386" cy="392.081" width="22.68" height="22.6772"/>
				<rect x="0" y="380.742" width="22.6772" height="22.6772" class="st1"/>
				<text x="4" y="396.88" class="st2" v:langID="1028"><v:paragraph v:horizAlign="1"/><v:tabList/>東</text>			</g>
			<g id="shape6-5" v:mID="6" v:groupContext="shape" transform="translate(596.175,-194.691) rotate(90)">
				<title>工作表.6</title>
				<desc>Kajaṅgala mahāsālā</desc>
				<v:textBlock v:margins="rect(4,4,4,4)" v:tabSpace="42.5197"/>
				<v:textRect cx="76.5354" cy="326.884" width="153.08" height="153.071"/>
				<rect x="0" y="250.348" width="153.071" height="153.071" class="st1"/>
				<text x="12.35" y="331.87" class="st3" v:langID="1033"><v:paragraph v:horizAlign="1"/><v:tabList/>Kajaṅgala mahāsālā</text>			</g>
			<g id="shape7-8" v:mID="7" v:groupContext="shape" transform="translate(610.348,-21.7776) rotate(90)">
				<title>工作表.7</title>
				<desc>伽郎婆娑</desc>
				<v:textBlock v:margins="rect(4,4,4,4)" v:tabSpace="42.5197"/>
				<v:textRect cx="62.3622" cy="341.057" width="124.73" height="124.724"/>
				<rect x="0" y="278.695" width="124.724" height="124.724" class="st1"/>
				<text x="6.36" y="345.86" class="st2" v:langID="1028"><v:paragraph v:horizAlign="1"/><v:tabList/>伽郎婆（娑？）</text>			</g>
			<g id="shape11-11" v:mID="11" v:groupContext="shape" transform="translate(556.49,-191.856) rotate(90)">
				<title>工作表.11</title>
				<desc>Salalavatī nadī</desc>
				<v:textBlock v:margins="rect(4,4,4,4)" v:tabSpace="42.5197"/>
				<v:textRect cx="59.5276" cy="343.892" width="119.06" height="119.055"/>
				<rect x="0" y="284.364" width="119.055" height="119.055" class="st1"/>
				<text x="12.21" y="348.69" class="st3" v:langID="1033"><v:paragraph v:horizAlign="1"/><v:tabList/>Salalavatī nadī</text>			</g>
			<g id="shape13-14" v:mID="13" v:groupContext="shape" transform="translate(518.222,-184.77) rotate(90)">
				<title>工作表.13</title>
				<desc>Setakaṇṇika nigama</desc>
				<v:textBlock v:margins="rect(4,4,4,4)" v:tabSpace="42.5197"/>
				<v:textRect cx="69.4488" cy="333.97" width="138.9" height="138.898"/>
				<rect x="0" y="264.522" width="138.898" height="138.898" class="st1"/>
				<text x="4.8" y="338.77" class="st3" v:langID="1033"><v:paragraph v:horizAlign="1"/><v:tabList/>Setakaṇṇika nigama</text>			</g>
			<g id="shape14-17" v:mID="14" v:groupContext="shape" transform="translate(550.821,-20.3602) rotate(90)">
				<title>工作表.14</title>
				<desc>白木聚落</desc>
				<v:textBlock v:margins="rect(4,4,4,4)" v:tabSpace="42.5197"/>
				<v:textRect cx="36.8504" cy="366.569" width="73.71" height="73.7008"/>
				<rect x="0" y="329.719" width="73.7008" height="73.7008" class="st1"/>
				<text x="4.85" y="371.37" class="st2" v:langID="1028"><v:paragraph v:horizAlign="1"/><v:tabList/>白木聚落</text>			</g>
			<g id="shape18-20" v:mID="18" v:groupContext="shape" transform="translate(495.545,-186.187) rotate(90)">
				<title>工作表.18</title>
				<desc>Thuṇa Brāhmaṇag</desc>
				<v:textBlock v:margins="rect(4,4,4,4)" v:tabSpace="42.5197"/>
				<v:textRect cx="63.7795" cy="339.64" width="127.56" height="127.559"/>
				<rect x="0" y="275.86" width="127.559" height="127.559" class="st1"/>
				<text x="4.47" y="344.44" class="st3" v:langID="1033"><v:paragraph v:horizAlign="1"/><v:tabList/>Thuṇa Brāhmaṇag</text>			</g>
			<g id="shape19-23" v:mID="19" v:groupContext="shape" transform="translate(506.884,-20.3602) rotate(90)">
				<title>工作表.19</title>
				<desc>住婆羅門聚落</desc>
				<v:textBlock v:margins="rect(4,4,4,4)" v:tabSpace="42.5197"/>
				<v:textRect cx="52.4409" cy="350.978" width="104.89" height="104.882"/>
				<rect x="0" y="298.537" width="104.882" height="104.882" class="st1"/>
				<text x="4.44" y="355.78" class="st2" v:langID="1028"><v:paragraph v:horizAlign="1"/><v:tabList/>住婆羅門聚落</text>			</g>
			<g id="shape22-26" v:mID="22" v:groupContext="shape" transform="translate(491.293,-245.715) rotate(90)">
				<title>工作表.22</title>
				<desc>北</desc>
				<v:textBlock v:margins="rect(4,4,4,4)" v:tabSpace="42.5197"/>
				<v:textRect cx="11.3386" cy="392.081" width="22.68" height="22.6772"/>
				<rect x="0" y="380.742" width="22.6772" height="22.6772" class="st1"/>
				<text x="4" y="396.88" class="st2" v:langID="1028"><v:paragraph v:horizAlign="1"/><v:tabList/>北</text>			</g>
			<g id="shape23-29" v:mID="23" v:groupContext="shape" transform="translate(434.6,-186.187) rotate(90)">
				<title>工作表.23</title>
				<desc>Usīraddhajapabbata</desc>
				<v:textBlock v:margins="rect(4,4,4,4)" v:tabSpace="42.5197"/>
				<v:textRect cx="68.0315" cy="335.388" width="136.07" height="136.063"/>
				<rect x="0" y="267.356" width="136.063" height="136.063" class="st1"/>
				<text x="4.5" y="340.19" class="st3" v:langID="1033"><v:paragraph v:horizAlign="1"/><v:tabList/>Usīraddhajapabbata</text>			</g>
			<g id="shape24-32" v:mID="24" v:groupContext="shape" transform="translate(438.852,-23.4783) rotate(90)">
				<title>工作表.24</title>
				<desc>優尸羅山不遠蒲</desc>
				<v:textBlock v:margins="rect(4,4,4,4)" v:tabSpace="42.5197"/>
				<v:textRect cx="63.7795" cy="339.64" width="127.56" height="127.559"/>
				<rect x="0" y="275.86" width="127.559" height="127.559" class="st1"/>
				<text x="7.78" y="344.44" class="st2" v:langID="1028"><v:paragraph v:horizAlign="1"/><v:tabList/>優尸羅山不遠蒲</text>			</g>
			<g id="shape27-35" v:mID="27" v:groupContext="shape" transform="translate(424.679,-247.132) rotate(90)">
				<title>工作表.27</title>
				<desc>東北</desc>
				<v:textBlock v:margins="rect(4,4,4,4)" v:tabSpace="42.5197"/>
				<v:textRect cx="21.2598" cy="382.159" width="42.52" height="42.5197"/>
				<rect x="0" y="360.9" width="42.5197" height="42.5197" class="st1"/>
				<text x="5.26" y="386.96" class="st2" v:langID="1028"><v:paragraph v:horizAlign="1"/><v:tabList/>東北</text>			</g>
			<g id="shape28-38" v:mID="28" v:groupContext="shape" transform="translate(424.679,-21.7776) rotate(90)">
				<title>工作表.28</title>
				<desc>竹河</desc>
				<v:textBlock v:margins="rect(4,4,4,4)" v:tabSpace="42.5197"/>
				<v:textRect cx="21.2598" cy="382.159" width="42.52" height="42.5197"/>
				<rect x="0" y="360.9" width="42.5197" height="42.5197" class="st1"/>
				<text x="5.26" y="386.96" class="st2" v:langID="1028"><v:paragraph v:horizAlign="1"/><v:tabList/>竹河</text>			</g>
			<g id="shape1-41" v:mID="1" v:groupContext="shape" transform="translate(640.112,-191.856) rotate(90)">
				<title>工作表.1</title>
				<desc>『銅鍱律大品』</desc>
				<v:textBlock v:margins="rect(4,4,4,4)" v:tabSpace="42.5197"/>
				<v:textRect cx="60.9449" cy="342.474" width="121.89" height="121.89"/>
				<rect x="0" y="281.53" width="121.89" height="121.89" class="st1"/>
				<text x="4.95" y="347.27" class="st2" v:langID="1028"><v:paragraph v:horizAlign="1"/><v:tabList/>『銅鍱律大品』</text>			</g>
			<g id="shape2-44" v:mID="2" v:groupContext="shape" transform="translate(655.703,-21.7776) rotate(90)">
				<title>工作表.2</title>
				<desc>『十誦律』</desc>
				<v:textBlock v:margins="rect(4,4,4,4)" v:tabSpace="42.5197"/>
				<v:textRect cx="45.3543" cy="358.065" width="90.71" height="90.7087"/>
				<rect x="0" y="312.711" width="90.7087" height="90.7087" class="st1"/>
				<text x="5.35" y="362.87" class="st2" v:langID="1028"><v:paragraph v:horizAlign="1"/><v:tabList/>『十誦律』</text>			</g>
			<g id="shape10-47" v:mID="10" v:groupContext="shape" transform="translate(595.467,-247.132) rotate(90)">
				<title>工作表.10</title>
				<desc>東南</desc>
				<v:textBlock v:margins="rect(4,4,4,4)" v:tabSpace="42.5197"/>
				<v:textRect cx="21.2598" cy="382.159" width="42.52" height="42.5197"/>
				<rect x="0" y="360.9" width="42.5197" height="42.5197" class="st1"/>
				<text x="5.26" y="386.96" class="st2" v:langID="1028"><v:paragraph v:horizAlign="1"/><v:tabList/>東南</text>			</g>
			<g id="shape12-50" v:mID="12" v:groupContext="shape" transform="translate(577.041,-245.715) rotate(90)">
				<title>工作表.12</title>
				<desc>南</desc>
				<v:textBlock v:margins="rect(4,4,4,4)" v:tabSpace="42.5197"/>
				<v:textRect cx="11.3386" cy="392.081" width="22.68" height="22.6772"/>
				<rect x="0" y="380.742" width="22.6772" height="22.6772" class="st1"/>
				<text x="4" y="396.88" class="st2" v:langID="1028"><v:paragraph v:horizAlign="1"/><v:tabList/>南</text>			</g>
			<g id="shape17-53" v:mID="17" v:groupContext="shape" transform="translate(548.695,-245.715) rotate(90)">
				<title>工作表.17</title>
				<desc>西</desc>
				<v:textBlock v:margins="rect(4,4,4,4)" v:tabSpace="42.5197"/>
				<v:textRect cx="11.3386" cy="392.081" width="22.68" height="22.6772"/>
				<rect x="0" y="380.742" width="22.6772" height="22.6772" class="st1"/>
				<text x="4" y="396.88" class="st2" v:langID="1028"><v:paragraph v:horizAlign="1"/><v:tabList/>西</text>			</g>
			<g id="shape32-56" v:mID="32" v:groupContext="shape" transform="translate(623.104,-176.266) rotate(90)">
				<title>工作表.32</title>
				<desc>以外</desc>
				<v:textBlock v:margins="rect(4,4,4,4)" v:tabSpace="42.5197"/>
				<v:textRect cx="21.2598" cy="382.159" width="42.52" height="42.5197"/>
				<rect x="0" y="360.9" width="42.5197" height="42.5197" class="st1"/>
				<text x="5.26" y="386.96" class="st2" v:langID="1028"><v:paragraph v:horizAlign="1"/><v:tabList/>以外</text>			</g>
			<g id="shape33-59" v:mID="33" v:groupContext="shape" transform="translate(743.577,-291.069) rotate(90)">
				<title>工作表.33</title>
				<path d="M0 403.42 L694.49 403.42" class="st4"/>
			</g>
			<g id="shape34-62" v:mID="34" v:groupContext="shape" transform="translate(686.884,-262.722) rotate(90)">
				<title>工作表.34</title>
				<path d="M0 403.42 L637.8 403.42" class="st5"/>
			</g>
			<g id="shape35-65" v:mID="35" v:groupContext="shape" transform="translate(616.018,-18.9429) rotate(90)">
				<title>工作表.35</title>
				<desc>羅聚落</desc>
				<v:textBlock v:margins="rect(4,4,4,4)" v:tabSpace="42.5197"/>
				<v:textRect cx="28.3465" cy="375.073" width="56.7" height="56.6929"/>
				<rect x="0" y="346.726" width="56.6929" height="56.6929" class="st1"/>
				<text x="4.35" y="379.87" class="st2" v:langID="1028"><v:paragraph v:horizAlign="1"/><v:tabList/>羅聚落</text>			</g>
			<g id="shape36-68" v:mID="36" v:groupContext="shape" transform="translate(28.3465,-595.276)">
				<title>工作表.36</title>
				<path d="M0 403.42 L283.46 403.42" class="st5"/>
			</g>
			<g id="shape37-71" v:mID="37" v:groupContext="shape" transform="translate(28.3465,-438.052)">
				<title>工作表.37</title>
				<path d="M0 403.42 L283.46 403.42" class="st5"/>
			</g>
			<g id="shape29-74" v:mID="29" v:groupContext="shape" transform="translate(28.3465,-297.638)">
				<title>工作表.29</title>
				<path d="M0 403.42 L283.46 403.42" class="st5"/>
			</g>
			<g id="shape38-77" v:mID="38" v:groupContext="shape" transform="translate(28.3465,-141.732)">
				<title>工作表.38</title>
				<path d="M0 403.42 L283.46 403.42" class="st5"/>
			</g>
			<g id="shape39-80" v:mID="39" v:groupContext="shape" transform="translate(630.191,-262.722) rotate(90)">
				<title>工作表.39</title>
				<path d="M0 403.42 L634.96 403.42" class="st5"/>
			</g>
			<g id="shape40-83" v:mID="40" v:groupContext="shape" transform="translate(601.844,-262.722) rotate(90)">
				<title>工作表.40</title>
				<path d="M0 403.42 L637.8 403.42" class="st5"/>
			</g>
			<g id="shape41-86" v:mID="41" v:groupContext="shape" transform="translate(509.719,-186.187) rotate(90)">
				<title>工作表.41</title>
				<desc>āma</desc>
				<v:textBlock v:margins="rect(4,4,4,4)" v:tabSpace="42.5197"/>
				<v:textRect cx="21.2598" cy="382.159" width="42.52" height="42.5197"/>
				<rect x="0" y="360.9" width="42.5197" height="42.5197" class="st1"/>
				<text x="7.94" y="386.96" class="st3" v:langID="1033"><v:paragraph v:horizAlign="1"/><v:tabList/>āma</text>			</g>
			<g id="shape42-89" v:mID="42" v:groupContext="shape" transform="translate(559.325,-61.4626) rotate(90)">
				<title>工作表.42</title>
				<path d="M0 403.42 L5.67 403.42" class="st5"/>
			</g>
			<g id="shape43-92" v:mID="43" v:groupContext="shape" transform="translate(573.498,-262.722) rotate(90)">
				<title>工作表.43</title>
				<path d="M0 403.42 L637.8 403.42" class="st5"/>
			</g>
			<g id="shape45-95" v:mID="45" v:groupContext="shape" transform="translate(516.805,-262.722) rotate(90)">
				<title>工作表.45</title>
				<path d="M0 403.42 L637.8 403.42" class="st5"/>
			</g>
			<g id="shape47-98" v:mID="47" v:groupContext="shape" transform="translate(460.112,-262.722) rotate(90)">
				<title>工作表.47</title>
				<path d="M0 403.42 L637.8 403.42" class="st5"/>
			</g>
			<g id="shape48-101" v:mID="48" v:groupContext="shape" transform="translate(437.435,-20.3602) rotate(90)">
				<title>工作表.48</title>
				<desc>泉薩羅樹</desc>
				<v:textBlock v:margins="rect(4,4,4,4)" v:tabSpace="42.5197"/>
				<v:textRect cx="36.8504" cy="366.569" width="73.71" height="73.7008"/>
				<rect x="0" y="329.719" width="73.7008" height="73.7008" class="st1"/>
				<text x="4.85" y="371.37" class="st2" v:langID="1028"><v:paragraph v:horizAlign="1"/><v:tabList/>泉薩羅樹</text>			</g>
			<g id="shape8-104" v:mID="8" v:groupContext="shape" transform="translate(620.27,114.285) rotate(90)">
				<title>工作表.8</title>
				<desc>奔荼林奔荼水</desc>
				<v:textBlock v:margins="rect(4,4,4,4)" v:tabSpace="42.5197"/>
				<v:textRect cx="52.4409" cy="350.978" width="104.89" height="104.882"/>
				<rect x="0" y="298.537" width="104.882" height="104.882" class="st1"/>
				<text x="4.44" y="355.78" class="st2" v:langID="1028"><v:paragraph v:horizAlign="1"/><v:tabList/>奔荼林奔荼水</text>			</g>
			<g id="shape15-107" v:mID="15" v:groupContext="shape" transform="translate(535.23,114.285) rotate(90)">
				<title>工作表.15</title>
				<desc>攝伐羅佛底水</desc>
				<v:textBlock v:margins="rect(4,4,4,4)" v:tabSpace="42.5197"/>
				<v:textRect cx="52.4409" cy="350.978" width="104.89" height="104.882"/>
				<rect x="0" y="298.537" width="104.882" height="104.882" class="st1"/>
				<text x="4.44" y="355.78" class="st2" v:langID="1028"><v:paragraph v:horizAlign="1"/><v:tabList/>攝伐羅佛底水</text>			</g>
			<g id="shape20-110" v:mID="20" v:groupContext="shape" transform="translate(519.64,114.285) rotate(90)">
				<title>工作表.20</title>
				<desc>村</desc>
				<v:textBlock v:margins="rect(4,4,4,4)" v:tabSpace="42.5197"/>
				<v:textRect cx="11.3386" cy="392.081" width="22.68" height="22.6772"/>
				<rect x="0" y="380.742" width="22.6772" height="22.6772" class="st1"/>
				<text x="4" y="396.88" class="st2" v:langID="1028"><v:paragraph v:horizAlign="1"/><v:tabList/>村</text>			</g>
			<g id="shape26-113" v:mID="26" v:groupContext="shape" transform="translate(465.781,114.285) rotate(90)">
				<title>工作表.26</title>
				<desc>嗢尸羅山</desc>
				<v:textBlock v:margins="rect(4,4,4,4)" v:tabSpace="42.5197"/>
				<v:textRect cx="36.8504" cy="366.569" width="73.71" height="73.7008"/>
				<rect x="0" y="329.719" width="73.7008" height="73.7008" class="st1"/>
				<text x="4.85" y="371.37" class="st2" v:langID="1028"><v:paragraph v:horizAlign="1"/><v:tabList/>嗢尸羅山</text>			</g>
			<g id="shape3-116" v:mID="3" v:groupContext="shape" transform="translate(633.026,114.285) rotate(90)">
				<title>工作表.3</title>
				<desc>『根有律皮革事』</desc>
				<v:textBlock v:margins="rect(4,4,4,4)" v:tabSpace="42.5197"/>
				<v:textRect cx="68.0315" cy="335.388" width="136.07" height="136.063"/>
				<rect x="0" y="267.356" width="136.063" height="136.063" class="st1"/>
				<text x="4.03" y="340.19" class="st2" v:langID="1028"><v:paragraph v:horizAlign="1"/><v:tabList/>『根有律皮革事』</text>			</g>
			<g id="shape44-119" v:mID="44" v:groupContext="shape" transform="translate(491.293,114.285) rotate(90)">
				<title>工作表.44</title>
				<desc>鄔波窣吐奴婆羅門</desc>
				<v:textBlock v:margins="rect(4,4,4,4)" v:tabSpace="42.5197"/>
				<v:textRect cx="68.0315" cy="335.388" width="136.07" height="136.063"/>
				<rect x="0" y="267.356" width="136.063" height="136.063" class="st1"/>
				<text x="4.03" y="340.19" class="st2" v:langID="1028"><v:paragraph v:horizAlign="1"/><v:tabList/>鄔波窣吐奴婆羅門</text>			</g>
			<g id="shape16-122" v:mID="16" v:groupContext="shape" transform="translate(559.325,271.608) rotate(90)">
				<title>工作表.16</title>
				<desc>靜善塔</desc>
				<v:textBlock v:margins="rect(4,4,4,4)" v:tabSpace="42.5197"/>
				<v:textRect cx="28.3465" cy="375.073" width="56.7" height="56.6929"/>
				<rect x="0" y="346.726" width="56.6929" height="56.6929" class="st1"/>
				<text x="4.35" y="379.87" class="st2" v:langID="1028"><v:paragraph v:horizAlign="1"/><v:tabList/>靜善塔</text>			</g>
			<g id="shape21-125" v:mID="21" v:groupContext="shape" transform="translate(509.719,271.608) rotate(90)">
				<title>工作表.21</title>
				<desc>種山</desc>
				<v:textBlock v:margins="rect(4,4,4,4)" v:tabSpace="42.5197"/>
				<v:textRect cx="21.2598" cy="382.159" width="42.52" height="42.5197"/>
				<rect x="0" y="360.9" width="42.5197" height="42.5197" class="st1"/>
				<text x="5.26" y="386.96" class="st2" v:langID="1028"><v:paragraph v:horizAlign="1"/><v:tabList/>種山</text>			</g>
			<g id="shape25-128" v:mID="25" v:groupContext="shape" transform="translate(491.293,273.026) rotate(90)">
				<title>工作表.25</title>
				<desc>柱</desc>
				<v:textBlock v:margins="rect(4,4,4,4)" v:tabSpace="42.5197"/>
				<v:textRect cx="11.3386" cy="392.081" width="22.68" height="22.6772"/>
				<rect x="0" y="380.742" width="22.6772" height="22.6772" class="st1"/>
				<text x="4" y="396.88" class="st2" v:langID="1028"><v:paragraph v:horizAlign="1"/><v:tabList/>柱</text>			</g>
			<g id="shape9-131" v:mID="9" v:groupContext="shape" transform="translate(635.86,270.191) rotate(90)">
				<title>工作表.9</title>
				<desc>白木調國</desc>
				<v:textBlock v:margins="rect(4,4,4,4)" v:tabSpace="42.5197"/>
				<v:textRect cx="36.8504" cy="366.569" width="73.71" height="73.7008"/>
				<rect x="0" y="329.719" width="73.7008" height="73.7008" class="st1"/>
				<text x="4.85" y="371.37" class="st2" v:langID="1028"><v:paragraph v:horizAlign="1"/><v:tabList/>白木調國</text>			</g>
			<g id="shape4-134" v:mID="4" v:groupContext="shape" transform="translate(655.703,261.687) rotate(90)">
				<title>工作表.4</title>
				<desc>『四分律』</desc>
				<v:textBlock v:margins="rect(4,4,4,4)" v:tabSpace="42.5197"/>
				<v:textRect cx="45.3543" cy="358.065" width="90.71" height="90.7087"/>
				<rect x="0" y="312.711" width="90.7087" height="90.7087" class="st1"/>
				<text x="5.35" y="362.87" class="st2" v:langID="1028"><v:paragraph v:horizAlign="1"/><v:tabList/>『四分律』</text>			</g>
			<g id="shape46-137" v:mID="46" v:groupContext="shape" transform="translate(513.97,270.191) rotate(90)">
				<title>工作表.46</title>
				<desc>一師梨仙人</desc>
				<v:textBlock v:margins="rect(4,4,4,4)" v:tabSpace="42.5197"/>
				<v:textRect cx="45.3543" cy="358.065" width="90.71" height="90.7087"/>
				<rect x="0" y="312.711" width="90.7087" height="90.7087" class="st1"/>
				<text x="5.35" y="362.87" class="st2" v:langID="1028"><v:paragraph v:horizAlign="1"/><v:tabList/>一師梨仙人</text>			</g>
			<g id="shape30-140" v:mID="30" v:groupContext="shape" transform="translate(403.419,-291.069) rotate(90)">
				<title>工作表.30</title>
				<path d="M0 403.42 L694.49 403.42" class="st4"/>
			</g>
			<g id="shape31-143" v:mID="31" v:groupContext="shape" transform="translate(0,-694.488)">
				<title>工作表.31</title>
				<path d="M0 403.42 L340.16 403.42" class="st4"/>
			</g>
			<g id="shape49-146" v:mID="49" v:groupContext="shape">
				<title>工作表.49</title>
				<path d="M0 403.42 L340.16 403.42" class="st4"/>
			</g>
		</g>
	</g>
</svg>
