<?xml version="1.0" encoding="UTF-8" standalone="no"?>
<!DOCTYPE svg PUBLIC "-//W3C//DTD SVG 1.1//EN" "http://www.w3.org/Graphics/SVG/1.1/DTD/svg11.dtd">
<!-- 由 Microsoft Visio, SVG Export 產生 y37.1050-h.svg 頁-1 -->
<svg xmlns="http://www.w3.org/2000/svg" xmlns:xlink="http://www.w3.org/1999/xlink" xmlns:ev="http://www.w3.org/2001/xml-events"
		width="8.51609in" height="7.4942in" viewBox="0 0 613.158 539.583" xml:space="preserve" color-interpolation-filters="sRGB"
		class="st4">
	<style type="text/css">
	<![CDATA[
		.st1 {fill:none;stroke:none;stroke-linecap:round;stroke-linejoin:round;stroke-width:0.75}
		.st2 {fill:#000000;font-family:新細明體;font-size:1.33333em}
		.st3 {stroke:#000000;stroke-linecap:round;stroke-linejoin:round;stroke-width:1}
		.st4 {fill:none;fill-rule:evenodd;font-size:12px;overflow:visible;stroke-linecap:square;stroke-miterlimit:3}
	]]>
	</style>

	<g>
		<title>頁-1</title>
		<g id="group114-1" transform="translate(0.375,-0.5)">
			<title>工作表.114</title>
			<g id="shape1-2" transform="translate(1.59872E-14,-514.488)">
				<title>工作表.1</title>
				<desc>《法鏡經》</desc>
				<rect x="0" y="519.74" width="90.7087" height="19.8425" class="st1"/>
				<text x="5.35" y="534.46" class="st2">《法鏡經》</text>			</g>
			<g id="shape2-5" transform="translate(137.48,-514.488)">
				<title>工作表.2</title>
				<desc>《郁迦羅越問菩薩行經》</desc>
				<rect x="0" y="519.74" width="184.252" height="19.8425" class="st1"/>
				<text x="4.13" y="534.46" class="st2">《郁迦羅越問菩薩行經》</text>			</g>
			<g id="shape3-8" transform="translate(350.079,-514.488)">
				<title>工作表.3</title>
				<desc>〈郁伽長者會〉</desc>
				<rect x="0" y="519.74" width="127.559" height="19.8425" class="st1"/>
				<text x="7.78" y="534.46" class="st2">〈郁伽長者會〉</text>			</g>
			<g id="shape4-11" transform="translate(488.976,-514.488)">
				<title>工作表.4</title>
				<desc>「藏文譯本」</desc>
				<rect x="0" y="519.74" width="104.882" height="19.8425" class="st1"/>
				<text x="4.44" y="534.46" class="st2">「藏文譯本」</text>			</g>
			<g id="shape5-14" transform="translate(1.41732,-486.142)">
				<title>工作表.5</title>
				<desc>多聞者</desc>
				<rect x="0" y="519.74" width="56.6929" height="19.8425" class="st1"/>
				<text x="4.35" y="534.46" class="st2">多聞者</text>			</g>
			<g id="shape6-17" transform="translate(136.063,-486.142)">
				<title>工作表.6</title>
				<desc>多智者</desc>
				<rect x="0" y="519.74" width="56.6929" height="19.8425" class="st1"/>
				<text x="4.35" y="534.46" class="st2">多智者</text>			</g>
			<g id="shape8-20" transform="translate(1.41732,-457.795)">
				<title>工作表.8</title>
				<desc>明經者</desc>
				<rect x="0" y="519.74" width="56.6929" height="19.8425" class="st1"/>
				<text x="4.35" y="534.46" class="st2">明經者</text>			</g>
			<g id="shape9-23" transform="translate(136.063,-457.795)">
				<title>工作表.9</title>
				<desc>解法者</desc>
				<rect x="0" y="519.74" width="56.6929" height="19.8425" class="st1"/>
				<text x="4.35" y="534.46" class="st2">解法者</text>			</g>
			<g id="shape10-26" transform="translate(352.913,-457.795)">
				<title>工作表.10</title>
				<desc>持阿含</desc>
				<rect x="0" y="519.74" width="56.6929" height="19.8425" class="st1"/>
				<text x="4.35" y="534.46" class="st2">持阿含</text>			</g>
			<g id="shape11-29" transform="translate(505.984,-457.795)">
				<title>工作表.11</title>
				<desc>說法者</desc>
				<rect x="0" y="519.74" width="56.6929" height="19.8425" class="st1"/>
				<text x="4.35" y="534.46" class="st2">說法者</text>			</g>
			<g id="shape12-32" transform="translate(1.41732,-429.449)">
				<title>工作表.12</title>
				<desc>奉律者</desc>
				<rect x="0" y="519.74" width="56.6929" height="19.8425" class="st1"/>
				<text x="4.35" y="534.46" class="st2">奉律者</text>			</g>
			<g id="shape13-35" transform="translate(136.063,-429.449)">
				<title>工作表.13</title>
				<desc>持律者</desc>
				<rect x="0" y="519.74" width="56.6929" height="19.8425" class="st1"/>
				<text x="4.35" y="534.46" class="st2">持律者</text>			</g>
			<g id="shape14-38" transform="translate(352.913,-429.449)">
				<title>工作表.14</title>
				<desc>持律</desc>
				<rect x="0" y="519.74" width="42.5197" height="19.8425" class="st1"/>
				<text x="5.26" y="534.46" class="st2">持律</text>			</g>
			<g id="shape15-41" transform="translate(1.41732,-401.102)">
				<title>工作表.15</title>
				<desc>奉使者</desc>
				<rect x="0" y="519.74" width="56.6929" height="19.8425" class="st1"/>
				<text x="4.35" y="534.46" class="st2">奉使者</text>			</g>
			<g id="shape16-44" transform="translate(136.063,-401.102)">
				<title>工作表.16</title>
				<desc>住法者</desc>
				<rect x="0" y="519.74" width="56.6929" height="19.8425" class="st1"/>
				<text x="4.35" y="534.46" class="st2">住法者</text>			</g>
			<g id="shape17-47" transform="translate(352.913,-401.102)">
				<title>工作表.17</title>
				<desc>說法</desc>
				<rect x="0" y="519.74" width="42.5197" height="19.8425" class="st1"/>
				<text x="5.26" y="534.46" class="st2">說法</text>			</g>
			<g id="shape18-50" transform="translate(505.984,-401.102)">
				<title>工作表.18</title>
				<desc>持論母者</desc>
				<rect x="0" y="519.74" width="73.7008" height="19.8425" class="st1"/>
				<text x="4.85" y="534.46" class="st2">持論母者</text>			</g>
			<g id="shape19-53" transform="translate(1.41732,-372.756)">
				<title>工作表.19</title>
				<desc>開士奉藏者</desc>
				<rect x="0" y="519.74" width="90.7087" height="19.8425" class="st1"/>
				<text x="5.35" y="534.46" class="st2">開士奉藏者</text>			</g>
			<g id="shape20-56" transform="translate(136.063,-372.756)">
				<title>工作表.20</title>
				<desc>持菩薩品者</desc>
				<rect x="0" y="519.74" width="90.7087" height="19.8425" class="st1"/>
				<text x="5.35" y="534.46" class="st2">持菩薩品者</text>			</g>
			<g id="shape21-59" transform="translate(352.913,-372.756)">
				<title>工作表.21</title>
				<desc>持菩薩藏</desc>
				<rect x="0" y="519.74" width="73.7008" height="19.8425" class="st1"/>
				<text x="4.85" y="534.46" class="st2">持菩薩藏</text>			</g>
			<g id="shape22-62" transform="translate(498.898,-372.756)">
				<title>工作表.22</title>
				<desc>持菩薩藏者</desc>
				<rect x="0" y="519.74" width="104.882" height="19.8425" class="st1"/>
				<text x="12.44" y="534.46" class="st2">持菩薩藏者</text>			</g>
			<g id="shape23-65" transform="translate(1.41732,-344.409)">
				<title>工作表.23</title>
				<desc>山澤者</desc>
				<rect x="0" y="519.74" width="56.6929" height="19.8425" class="st1"/>
				<text x="4.35" y="534.46" class="st2">山澤者</text>			</g>
			<g id="shape24-68" transform="translate(136.063,-344.409)">
				<title>工作表.24</title>
				<desc>閑居者</desc>
				<rect x="0" y="519.74" width="56.6929" height="19.8425" class="st1"/>
				<text x="4.35" y="534.46" class="st2">閑居者</text>			</g>
			<g id="shape25-71" transform="translate(352.913,-344.409)">
				<title>工作表.25</title>
				<desc>阿練兒</desc>
				<rect x="0" y="519.74" width="56.6929" height="19.8425" class="st1"/>
				<text x="4.35" y="534.46" class="st2">阿練兒</text>			</g>
			<g id="shape26-74" transform="translate(505.984,-344.409)">
				<title>工作表.26</title>
				<desc>阿蘭若者</desc>
				<rect x="0" y="519.74" width="73.7008" height="19.8425" class="st1"/>
				<text x="4.85" y="534.46" class="st2">阿蘭若者</text>			</g>
			<g id="shape27-77" transform="translate(6.07514E-13,-316.063)">
				<title>工作表.27</title>
				<desc>行受供者</desc>
				<rect x="0" y="519.74" width="73.7008" height="19.8425" class="st1"/>
				<text x="4.85" y="534.46" class="st2">行受供者</text>			</g>
			<g id="shape28-80" transform="translate(136.063,-316.063)">
				<title>工作表.28</title>
				<desc>分衛者</desc>
				<rect x="0" y="519.74" width="56.6929" height="19.8425" class="st1"/>
				<text x="4.35" y="534.46" class="st2">分衛者</text>			</g>
			<g id="shape29-83" transform="translate(352.913,-316.063)">
				<title>工作表.29</title>
				<desc>乞食</desc>
				<rect x="0" y="519.74" width="42.5197" height="19.8425" class="st1"/>
				<text x="5.26" y="534.46" class="st2">乞食</text>			</g>
			<g id="shape30-86" transform="translate(505.984,-316.063)">
				<title>工作表.30</title>
				<desc>乞食者</desc>
				<rect x="0" y="519.74" width="56.6929" height="19.8425" class="st1"/>
				<text x="4.35" y="534.46" class="st2">乞食者</text>			</g>
			<g id="shape31-89" transform="translate(136.063,-287.717)">
				<title>工作表.31</title>
				<desc>五納衣者</desc>
				<rect x="0" y="519.74" width="73.7008" height="19.8425" class="st1"/>
				<text x="4.85" y="534.46" class="st2">五納衣者</text>			</g>
			<g id="shape32-92" transform="translate(352.913,-287.717)">
				<title>工作表.32</title>
				<desc>著糞掃衣</desc>
				<rect x="0" y="519.74" width="73.7008" height="19.8425" class="st1"/>
				<text x="4.85" y="534.46" class="st2">著糞掃衣</text>			</g>
			<g id="shape33-95" transform="translate(505.984,-287.717)">
				<title>工作表.33</title>
				<desc>糞掃衣者</desc>
				<rect x="0" y="519.74" width="73.7008" height="19.8425" class="st1"/>
				<text x="4.85" y="534.46" class="st2">糞掃衣者</text>			</g>
			<g id="shape34-98" transform="translate(352.913,-259.37)">
				<title>工作表.34</title>
				<desc>少欲</desc>
				<rect x="0" y="519.74" width="42.5197" height="19.8425" class="st1"/>
				<text x="5.26" y="534.46" class="st2">少欲</text>			</g>
			<g id="shape35-101" transform="translate(505.984,-259.37)">
				<title>工作表.35</title>
				<desc>少欲者</desc>
				<rect x="0" y="519.74" width="56.6929" height="19.8425" class="st1"/>
				<text x="4.35" y="534.46" class="st2">少欲者</text>			</g>
			<g id="shape36-104" transform="translate(136.063,-231.024)">
				<title>工作表.36</title>
				<desc>知止足者</desc>
				<rect x="0" y="519.74" width="73.7008" height="19.8425" class="st1"/>
				<text x="4.85" y="534.46" class="st2">知止足者</text>			</g>
			<g id="shape37-107" transform="translate(505.984,-231.024)">
				<title>工作表.37</title>
				<desc>知足者</desc>
				<rect x="0" y="519.74" width="56.6929" height="19.8425" class="st1"/>
				<text x="4.35" y="534.46" class="st2">知足者</text>			</g>
			<g id="shape38-110" transform="translate(1.41732,-202.677)">
				<title>工作表.38</title>
				<desc>思惟者</desc>
				<rect x="0" y="519.74" width="56.6929" height="19.8425" class="st1"/>
				<text x="4.35" y="534.46" class="st2">思惟者</text>			</g>
			<g id="shape39-113" transform="translate(136.063,-202.677)">
				<title>工作表.39</title>
				<desc>坐禪者</desc>
				<rect x="0" y="519.74" width="56.6929" height="19.8425" class="st1"/>
				<text x="4.35" y="534.46" class="st2">坐禪者</text>			</g>
			<g id="shape40-116" transform="translate(351.496,-202.677)">
				<title>工作表.40</title>
				<desc>坐禪</desc>
				<rect x="0" y="519.74" width="42.5197" height="19.8425" class="st1"/>
				<text x="5.26" y="534.46" class="st2">坐禪</text>			</g>
			<g id="shape41-119" transform="translate(505.984,-202.677)">
				<title>工作表.41</title>
				<desc>坐禪者</desc>
				<rect x="0" y="519.74" width="56.6929" height="19.8425" class="st1"/>
				<text x="4.35" y="534.46" class="st2">坐禪者</text>			</g>
			<g id="shape42-122" transform="translate(1.41732,-174.331)">
				<title>工作表.42</title>
				<desc>道行者</desc>
				<rect x="0" y="519.74" width="56.6929" height="19.8425" class="st1"/>
				<text x="4.35" y="534.46" class="st2">道行者</text>			</g>
			<g id="shape43-125" transform="translate(136.063,-174.331)">
				<title>工作表.43</title>
				<desc>獨行者</desc>
				<rect x="0" y="519.74" width="56.6929" height="19.8425" class="st1"/>
				<text x="4.35" y="534.46" class="st2">獨行者</text>			</g>
			<g id="shape44-128" transform="translate(352.913,-174.331)">
				<title>工作表.44</title>
				<desc>獨處</desc>
				<rect x="0" y="519.74" width="42.5197" height="19.8425" class="st1"/>
				<text x="5.26" y="534.46" class="st2">獨處</text>			</g>
			<g id="shape45-131" transform="translate(505.984,-174.331)">
				<title>工作表.45</title>
				<desc>寂靜者</desc>
				<rect x="0" y="519.74" width="56.6929" height="19.8425" class="st1"/>
				<text x="4.35" y="534.46" class="st2">寂靜者</text>			</g>
			<g id="shape46-134" transform="translate(352.913,-145.984)">
				<title>工作表.46</title>
				<desc>離欲</desc>
				<rect x="0" y="519.74" width="42.5197" height="19.8425" class="st1"/>
				<text x="5.26" y="534.46" class="st2">離欲</text>			</g>
			<g id="shape47-137" transform="translate(352.913,-117.638)">
				<title>工作表.47</title>
				<desc>修行</desc>
				<rect x="0" y="519.74" width="42.5197" height="19.8425" class="st1"/>
				<text x="5.26" y="534.46" class="st2">修行</text>			</g>
			<g id="shape48-140" transform="translate(505.984,-117.638)">
				<title>工作表.48</title>
				<desc>瑜伽行者</desc>
				<rect x="0" y="519.74" width="73.7008" height="19.8425" class="st1"/>
				<text x="4.85" y="534.46" class="st2">瑜伽行者</text>			</g>
			<g id="shape49-143" transform="translate(1.40687E-12,-89.2913)">
				<title>工作表.49</title>
				<desc>開士道者</desc>
				<rect x="0" y="519.74" width="73.7008" height="19.8425" class="st1"/>
				<text x="4.85" y="534.46" class="st2">開士道者</text>			</g>
			<g id="shape50-146" transform="translate(136.063,-89.2913)">
				<title>工作表.50</title>
				<desc>大乘者</desc>
				<rect x="0" y="519.74" width="56.6929" height="19.8425" class="st1"/>
				<text x="4.35" y="534.46" class="st2">大乘者</text>			</g>
			<g id="shape51-149" transform="translate(504.567,-89.2913)">
				<title>工作表.51</title>
				<desc>菩薩乘者</desc>
				<rect x="0" y="519.74" width="73.7008" height="19.8425" class="st1"/>
				<text x="4.85" y="534.46" class="st2">菩薩乘者</text>			</g>
			<g id="shape52-152" transform="translate(1.41732,-60.9449)">
				<title>工作表.52</title>
				<desc>佐助者</desc>
				<rect x="0" y="519.74" width="56.6929" height="19.8425" class="st1"/>
				<text x="4.35" y="534.46" class="st2">佐助者</text>			</g>
			<g id="shape53-155" transform="translate(136.063,-60.9449)">
				<title>工作表.53</title>
				<desc>精進者</desc>
				<rect x="0" y="519.74" width="56.6929" height="19.8425" class="st1"/>
				<text x="4.35" y="534.46" class="st2">精進者</text>			</g>
			<g id="shape54-158" transform="translate(352.913,-60.9449)">
				<title>工作表.54</title>
				<desc>營事</desc>
				<rect x="0" y="519.74" width="42.5197" height="19.8425" class="st1"/>
				<text x="5.26" y="534.46" class="st2">營事</text>			</g>
			<g id="shape55-161" transform="translate(505.984,-60.9449)">
				<title>工作表.55</title>
				<desc>營事者</desc>
				<rect x="0" y="519.74" width="56.6929" height="19.8425" class="st1"/>
				<text x="4.35" y="534.46" class="st2">營事者</text>			</g>
			<g id="shape56-164" transform="translate(1.41732,-32.5984)">
				<title>工作表.56</title>
				<desc>主事者</desc>
				<rect x="0" y="519.74" width="56.6929" height="19.8425" class="st1"/>
				<text x="4.35" y="534.46" class="st2">主事者</text>			</g>
			<g id="shape57-167" transform="translate(136.063,-32.5984)">
				<title>工作表.57</title>
				<desc>典寺者</desc>
				<rect x="0" y="519.74" width="56.6929" height="19.8425" class="st1"/>
				<text x="4.35" y="534.46" class="st2">典寺者</text>			</g>
			<g id="shape58-170" transform="translate(352.913,-32.5984)">
				<title>工作表.58</title>
				<desc>寺主</desc>
				<rect x="0" y="519.74" width="42.5197" height="19.8425" class="st1"/>
				<text x="5.26" y="534.46" class="st2">寺主</text>			</g>
			<g id="shape59-173" transform="translate(505.984,-32.5984)">
				<title>工作表.59</title>
				<desc>執事人</desc>
				<rect x="0" y="519.74" width="56.6929" height="19.8425" class="st1"/>
				<text x="4.35" y="534.46" class="st2">執事人</text>			</g>
			<g id="shape60-176" transform="translate(505.984,-4.25197)">
				<title>工作表.60</title>
				<desc>不明</desc>
				<rect x="0" y="519.74" width="73.7008" height="19.8425" class="st1"/>
				<text x="4.85" y="534.46" class="st2">（不明）</text>			</g>
			<g id="shape61-179" transform="translate(352.913,-486.142)">
				<title>工作表.61</title>
				<desc>多聞</desc>
				<rect x="0" y="519.74" width="42.5197" height="19.8425" class="st1"/>
				<text x="5.26" y="534.46" class="st2">多聞</text>			</g>
			<g id="shape62-182" transform="translate(505.984,-486.142)">
				<title>工作表.62</title>
				<desc>多聞者</desc>
				<rect x="0" y="519.74" width="56.6929" height="19.8425" class="st1"/>
				<text x="4.35" y="534.46" class="st2">多聞者</text>			</g>
			<g id="shape91-185" transform="translate(119.055,-486.142)">
				<title>工作表.91</title>
				<desc>1</desc>
				<rect x="0" y="519.74" width="22.6772" height="19.8425" class="st1"/>
				<text x="7.58" y="534.46" class="st2">1</text>			</g>
			<g id="shape92-188" transform="translate(119.055,-457.795)">
				<title>工作表.92</title>
				<desc>2</desc>
				<rect x="0" y="519.74" width="22.6772" height="19.8425" class="st1"/>
				<text x="7.58" y="534.46" class="st2">2</text>			</g>
			<g id="shape93-191" transform="translate(119.055,-429.449)">
				<title>工作表.93</title>
				<desc>3</desc>
				<rect x="0" y="519.74" width="22.6772" height="19.8425" class="st1"/>
				<text x="7.58" y="534.46" class="st2">3</text>			</g>
			<g id="shape94-194" transform="translate(119.055,-401.102)">
				<title>工作表.94</title>
				<desc>4</desc>
				<rect x="0" y="519.74" width="22.6772" height="19.8425" class="st1"/>
				<text x="7.58" y="534.46" class="st2">4</text>			</g>
			<g id="shape95-197" transform="translate(119.055,-372.756)">
				<title>工作表.95</title>
				<desc>5</desc>
				<rect x="0" y="519.74" width="22.6772" height="19.8425" class="st1"/>
				<text x="7.58" y="534.46" class="st2">5</text>			</g>
			<g id="shape96-200" transform="translate(119.055,-344.409)">
				<title>工作表.96</title>
				<desc>6</desc>
				<rect x="0" y="519.74" width="22.6772" height="19.8425" class="st1"/>
				<text x="7.58" y="534.46" class="st2">6</text>			</g>
			<g id="shape97-203" transform="translate(119.055,-316.063)">
				<title>工作表.97</title>
				<desc>7</desc>
				<rect x="0" y="519.74" width="22.6772" height="19.8425" class="st1"/>
				<text x="7.58" y="534.46" class="st2">7</text>			</g>
			<g id="shape98-206" transform="translate(119.055,-287.717)">
				<title>工作表.98</title>
				<desc>8</desc>
				<rect x="0" y="519.74" width="22.6772" height="19.8425" class="st1"/>
				<text x="7.58" y="534.46" class="st2">8</text>			</g>
			<g id="shape83-209" transform="translate(119.055,-231.024)">
				<title>工作表.83</title>
				<desc>9</desc>
				<rect x="0" y="519.74" width="22.6772" height="19.8425" class="st1"/>
				<text x="7.58" y="534.46" class="st2">9</text>			</g>
			<g id="shape84-212" transform="translate(116.22,-174.331)">
				<title>工作表.84</title>
				<desc>10</desc>
				<rect x="0" y="519.74" width="28.3465" height="19.8425" class="st1"/>
				<text x="6.66" y="534.46" class="st2">10</text>			</g>
			<g id="shape85-215" transform="translate(116.22,-202.677)">
				<title>工作表.85</title>
				<desc>11</desc>
				<rect x="0" y="519.74" width="28.3465" height="19.8425" class="st1"/>
				<text x="6.66" y="534.46" class="st2">11</text>			</g>
			<g id="shape86-218" transform="translate(116.22,-89.2913)">
				<title>工作表.86</title>
				<desc>12</desc>
				<rect x="0" y="519.74" width="28.3465" height="19.8425" class="st1"/>
				<text x="6.66" y="534.46" class="st2">12 </text>			</g>
			<g id="shape87-221" transform="translate(116.22,-60.9449)">
				<title>工作表.87</title>
				<desc>13</desc>
				<rect x="0" y="519.74" width="28.3465" height="19.8425" class="st1"/>
				<text x="6.66" y="534.46" class="st2">13</text>			</g>
			<g id="shape88-224" transform="translate(116.22,-32.5984)">
				<title>工作表.88</title>
				<desc>14</desc>
				<rect x="0" y="519.74" width="28.3465" height="19.8425" class="st1"/>
				<text x="6.66" y="534.46" class="st2">14 </text>			</g>
			<g id="shape63-227" transform="translate(331.654,-486.142)">
				<title>工作表.63</title>
				<desc>1</desc>
				<rect x="0" y="519.74" width="22.6772" height="19.8425" class="st1"/>
				<text x="7.58" y="534.46" class="st2">1</text>			</g>
			<g id="shape80-230" transform="translate(331.654,-457.795)">
				<title>工作表.80</title>
				<desc>4</desc>
				<rect x="0" y="519.74" width="22.6772" height="19.8425" class="st1"/>
				<text x="7.58" y="534.46" class="st2">4</text>			</g>
			<g id="shape90-233" transform="translate(331.654,-429.449)">
				<title>工作表.90</title>
				<desc>3</desc>
				<rect x="0" y="519.74" width="22.6772" height="19.8425" class="st1"/>
				<text x="7.58" y="534.46" class="st2">3</text>			</g>
			<g id="shape99-236" transform="translate(331.654,-401.102)">
				<title>工作表.99</title>
				<desc>2</desc>
				<rect x="0" y="519.74" width="22.6772" height="19.8425" class="st1"/>
				<text x="7.58" y="534.46" class="st2">2</text>			</g>
			<g id="shape100-239" transform="translate(331.654,-372.756)">
				<title>工作表.100</title>
				<desc>5</desc>
				<rect x="0" y="519.74" width="22.6772" height="19.8425" class="st1"/>
				<text x="7.58" y="534.46" class="st2">5</text>			</g>
			<g id="shape101-242" transform="translate(331.654,-344.409)">
				<title>工作表.101</title>
				<desc>6</desc>
				<rect x="0" y="519.74" width="22.6772" height="19.8425" class="st1"/>
				<text x="7.58" y="534.46" class="st2">6</text>			</g>
			<g id="shape102-245" transform="translate(331.654,-316.063)">
				<title>工作表.102</title>
				<desc>8</desc>
				<rect x="0" y="519.74" width="22.6772" height="19.8425" class="st1"/>
				<text x="7.58" y="534.46" class="st2">8</text>			</g>
			<g id="shape103-248" transform="translate(331.654,-287.717)">
				<title>工作表.103</title>
				<desc>9</desc>
				<rect x="0" y="519.74" width="22.6772" height="19.8425" class="st1"/>
				<text x="7.58" y="534.46" class="st2">9</text>			</g>
			<g id="shape104-251" transform="translate(331.654,-259.37)">
				<title>工作表.104</title>
				<desc>7</desc>
				<rect x="0" y="519.74" width="22.6772" height="19.8425" class="st1"/>
				<text x="7.58" y="534.46" class="st2">7</text>			</g>
			<g id="shape105-254" transform="translate(328.819,-202.677)">
				<title>工作表.105</title>
				<desc>13</desc>
				<rect x="0" y="519.74" width="28.3465" height="19.8425" class="st1"/>
				<text x="6.66" y="534.46" class="st2">13</text>			</g>
			<g id="shape106-257" transform="translate(328.819,-174.331)">
				<title>工作表.106</title>
				<desc>10</desc>
				<rect x="0" y="519.74" width="28.3465" height="19.8425" class="st1"/>
				<text x="6.66" y="534.46" class="st2">10</text>			</g>
			<g id="shape107-260" transform="translate(328.819,-145.984)">
				<title>工作表.107</title>
				<desc>11</desc>
				<rect x="0" y="519.74" width="28.3465" height="19.8425" class="st1"/>
				<text x="6.66" y="534.46" class="st2">11</text>			</g>
			<g id="shape108-263" transform="translate(328.819,-117.638)">
				<title>工作表.108</title>
				<desc>12</desc>
				<rect x="0" y="519.74" width="28.3465" height="19.8425" class="st1"/>
				<text x="6.66" y="534.46" class="st2">12 </text>			</g>
			<g id="shape109-266" transform="translate(328.819,-60.9449)">
				<title>工作表.109</title>
				<desc>14</desc>
				<rect x="0" y="519.74" width="28.3465" height="19.8425" class="st1"/>
				<text x="6.66" y="534.46" class="st2">14 </text>			</g>
			<g id="shape110-269" transform="translate(328.819,-32.5984)">
				<title>工作表.110</title>
				<desc>15</desc>
				<rect x="0" y="519.74" width="28.3465" height="19.8425" class="st1"/>
				<text x="6.66" y="534.46" class="st2">15</text>			</g>
			<g id="shape113-272" transform="translate(505.984,-429.449)">
				<title>工作表.113</title>
				<desc>持律者</desc>
				<rect x="0" y="519.74" width="56.6929" height="19.8425" class="st1"/>
				<text x="4.35" y="534.46" class="st2">持律者</text>			</g>
			<g id="shape82-275" transform="translate(-423.362,539.583) rotate(-90)">
				<title>工作表.82</title>
				<path d="M0 539.58 L538.58 539.58" class="st3"/>
			</g>
			<g id="shape89-278" transform="translate(1.41732,-510.236)">
				<title>工作表.89</title>
				<path d="M0 539.58 L610.87 539.58" class="st3"/>
			</g>
			<g id="shape111-281" transform="translate(-54.8583,539.583) rotate(-90)">
				<title>工作表.111</title>
				<path d="M0 539.58 L538.58 539.58" class="st3"/>
			</g>
			<g id="shape112-284" transform="translate(-210.764,539.583) rotate(-90)">
				<title>工作表.112</title>
				<path d="M0 539.58 L538.58 539.58" class="st3"/>
			</g>
			<g id="shape64-287" transform="translate(487.559,-260.787)">
				<title>工作表.64</title>
				<desc>9</desc>
				<rect x="0" y="519.74" width="22.6772" height="19.8425" class="st1"/>
				<text x="7.58" y="534.46" class="st2">9</text>			</g>
			<g id="shape65-290" transform="translate(484.724,-232.441)">
				<title>工作表.65</title>
				<desc>10</desc>
				<rect x="0" y="519.74" width="28.3465" height="19.8425" class="st1"/>
				<text x="6.66" y="534.46" class="st2">10</text>			</g>
			<g id="shape66-293" transform="translate(484.724,-174.331)">
				<title>工作表.66</title>
				<desc>11</desc>
				<rect x="0" y="519.74" width="28.3465" height="19.8425" class="st1"/>
				<text x="6.66" y="534.46" class="st2">11</text>			</g>
			<g id="shape67-296" transform="translate(484.724,-117.638)">
				<title>工作表.67</title>
				<desc>12</desc>
				<rect x="0" y="519.74" width="28.3465" height="19.8425" class="st1"/>
				<text x="6.66" y="534.46" class="st2">12 </text>			</g>
			<g id="shape68-299" transform="translate(484.724,-202.677)">
				<title>工作表.68</title>
				<desc>13</desc>
				<rect x="0" y="519.74" width="28.3465" height="19.8425" class="st1"/>
				<text x="6.66" y="534.46" class="st2">13</text>			</g>
			<g id="shape69-302" transform="translate(484.724,-89.2913)">
				<title>工作表.69</title>
				<desc>14</desc>
				<rect x="0" y="519.74" width="28.3465" height="19.8425" class="st1"/>
				<text x="6.66" y="534.46" class="st2">14 </text>			</g>
			<g id="shape70-305" transform="translate(484.724,-60.9449)">
				<title>工作表.70</title>
				<desc>15</desc>
				<rect x="0" y="519.74" width="28.3465" height="19.8425" class="st1"/>
				<text x="6.66" y="534.46" class="st2">15</text>			</g>
			<g id="shape71-308" transform="translate(484.724,-32.5984)">
				<title>工作表.71</title>
				<desc>16</desc>
				<rect x="0" y="519.74" width="28.3465" height="19.8425" class="st1"/>
				<text x="6.66" y="534.46" class="st2">16</text>			</g>
			<g id="shape72-311" transform="translate(487.559,-487.559)">
				<title>工作表.72</title>
				<desc>1</desc>
				<rect x="0" y="519.74" width="22.6772" height="19.8425" class="st1"/>
				<text x="7.58" y="534.46" class="st2">1</text>			</g>
			<g id="shape73-314" transform="translate(487.559,-459.213)">
				<title>工作表.73</title>
				<desc>2</desc>
				<rect x="0" y="519.74" width="22.6772" height="19.8425" class="st1"/>
				<text x="7.58" y="534.46" class="st2">2</text>			</g>
			<g id="shape74-317" transform="translate(487.559,-430.866)">
				<title>工作表.74</title>
				<desc>3</desc>
				<rect x="0" y="519.74" width="22.6772" height="19.8425" class="st1"/>
				<text x="7.58" y="534.46" class="st2">3</text>			</g>
			<g id="shape75-320" transform="translate(487.559,-402.52)">
				<title>工作表.75</title>
				<desc>4</desc>
				<rect x="0" y="519.74" width="22.6772" height="19.8425" class="st1"/>
				<text x="7.58" y="534.46" class="st2">4</text>			</g>
			<g id="shape76-323" transform="translate(487.559,-374.173)">
				<title>工作表.76</title>
				<desc>5</desc>
				<rect x="0" y="519.74" width="22.6772" height="19.8425" class="st1"/>
				<text x="7.58" y="534.46" class="st2">5</text>			</g>
			<g id="shape77-326" transform="translate(487.559,-345.827)">
				<title>工作表.77</title>
				<desc>6</desc>
				<rect x="0" y="519.74" width="22.6772" height="19.8425" class="st1"/>
				<text x="7.58" y="534.46" class="st2">6</text>			</g>
			<g id="shape78-329" transform="translate(487.559,-317.48)">
				<title>工作表.78</title>
				<desc>7</desc>
				<rect x="0" y="519.74" width="22.6772" height="19.8425" class="st1"/>
				<text x="7.58" y="534.46" class="st2">7</text>			</g>
			<g id="shape79-332" transform="translate(487.559,-289.134)">
				<title>工作表.79</title>
				<desc>8</desc>
				<rect x="0" y="519.74" width="22.6772" height="19.8425" class="st1"/>
				<text x="7.58" y="534.46" class="st2">8</text>			</g>
			<g id="shape81-335" transform="translate(484.724,-4.25197)">
				<title>工作表.81</title>
				<desc>17</desc>
				<rect x="0" y="519.74" width="28.3465" height="19.8425" class="st1"/>
				<text x="6.66" y="534.46" class="st2">17</text>			</g>
		</g>
	</g>
</svg>
