<?xml version="1.0" encoding="UTF-8" standalone="no"?>
<!DOCTYPE svg PUBLIC "-//W3C//DTD SVG 1.1//EN" "http://www.w3.org/Graphics/SVG/1.1/DTD/svg11.dtd">
<!-- 由 Microsoft Visio, SVG Export 產生 y37.0333-h.svg 頁-1 -->
<svg xmlns="http://www.w3.org/2000/svg" xmlns:xlink="http://www.w3.org/1999/xlink" xmlns:ev="http://www.w3.org/2001/xml-events"
		width="9.49861in" height="4.22302in" viewBox="0 0 683.9 304.057" xml:space="preserve" color-interpolation-filters="sRGB"
		class="st7">
	<style type="text/css">
	<![CDATA[
		.st1 {fill:none;stroke:none;stroke-linecap:round;stroke-linejoin:round;stroke-width:0.75}
		.st2 {fill:#000000;font-family:新細明體;font-size:1.33333em}
		.st3 {font-family:Times New Roman;font-size:1em}
		.st4 {fill:#000000;font-family:Times New Roman;font-size:1.33333em}
		.st5 {font-family:新細明體;font-size:1em}
		.st6 {stroke:#000000;stroke-linecap:round;stroke-linejoin:round;stroke-width:1}
		.st7 {fill:none;fill-rule:evenodd;font-size:12px;overflow:visible;stroke-linecap:square;stroke-miterlimit:3}
	]]>
	</style>

	<g>
		<title>頁-1</title>
		<g id="group41-1" transform="translate(0.375,-0.375)">
			<title>工作表.41</title>
			<g id="shape1-2" transform="translate(1.9984E-14,-184.252)">
				<title>工作表.1</title>
				<desc>上座部</desc>
				<rect x="0" y="284.215" width="56.6929" height="19.8425" class="st1"/>
				<text x="4.35" y="298.94" class="st2">上座部</text>			</g>
			<g id="shape2-5" transform="translate(-1.59872E-14,-162.992)">
				<title>工作表.2</title>
				<desc>Sthavira</desc>
				<rect x="0" y="284.215" width="93.5433" height="19.8425" class="st1"/>
				<text x="4.22" y="299.12" class="st2">（<tspan class="st3">Sthavira</tspan>）</text>			</g>
			<g id="shape3-9" transform="translate(171.496,-283.465)">
				<title>工作表.3</title>
				<desc>雪山部Haimavata﹚</desc>
				<rect x="0" y="284.215" width="158.74" height="19.8425" class="st1"/>
				<text x="4.72" y="299.12" class="st2">雪山部（<tspan class="st3">Haimavata</tspan>﹚</text>			</g>
			<g id="shape4-13" transform="translate(170.079,-127.559)">
				<title>工作表.4</title>
				<desc>說一切有部</desc>
				<rect x="0" y="284.215" width="90.7087" height="19.8425" class="st1"/>
				<text x="5.35" y="298.94" class="st2">說一切有部</text>			</g>
			<g id="shape5-16" transform="translate(167.244,-106.299)">
				<title>工作表.5</title>
				<desc>Sarvāstivādin</desc>
				<rect x="0" y="284.215" width="136.063" height="19.8425" class="st1"/>
				<text x="6.48" y="299.12" class="st2">（<tspan class="st3">Sarvāstivādin</tspan><tspan class="st3"> </tspan>）</text>			</g>
			<g id="shape6-21" transform="translate(313.228,-212.598)">
				<title>工作表.6</title>
				<desc>犢子部</desc>
				<rect x="0" y="284.215" width="56.6929" height="19.8425" class="st1"/>
				<text x="4.35" y="298.94" class="st2">犢子部</text>			</g>
			<g id="shape7-24" transform="translate(311.811,-191.339)">
				<title>工作表.7</title>
				<desc>(Vātsīputrīya )</desc>
				<rect x="0" y="284.215" width="113.386" height="19.8425" class="st1"/>
				<text x="9.82" y="298.94" class="st4">(Vātsīputrīya )</text>			</g>
			<g id="shape8-27" transform="translate(429.449,-198.425)">
				<title>工作表.8</title>
				<desc>正量部Sammatīya</desc>
				<rect x="0" y="284.215" width="175.748" height="19.8425" class="st1"/>
				<text x="11.88" y="299.12" class="st2">正量部（<tspan class="st3">S</tspan><tspan class="st3">am</tspan><tspan
							class="st3">matīya</tspan>）</text>			</g>
			<g id="shape9-33" transform="translate(325.984,-141.732)">
				<title>工作表.9</title>
				<desc>化地部Mahīśāsaka</desc>
				<rect x="0" y="284.215" width="170.079" height="19.8425" class="st1"/>
				<text x="7.27" y="299.12" class="st2">化地部（<tspan class="st3">Mahīśāsaka</tspan>）</text>			</g>
			<g id="shape10-37" transform="translate(510.236,-141.732)">
				<title>工作表.10</title>
				<desc>法藏部Dharm</desc>
				<rect x="0" y="284.215" width="119.055" height="19.8425" class="st1"/>
				<text x="5.31" y="299.12" class="st2">法藏部（<tspan class="st3">Dharm</tspan></text>			</g>
			<g id="shape11-41" transform="translate(433.701,-170.079)">
				<title>工作表.11</title>
				<desc>密林山部 (Ṣaṇṇagarika)</desc>
				<rect x="0" y="284.215" width="175.748" height="19.8425" class="st1"/>
				<text x="9.09" y="299.12" class="st2">密林山部 (<tspan class="st3">Ṣaṇṇagarika</tspan><tspan class="st3">)</tspan></text>			</g>
			<g id="shape12-46" transform="translate(342.992,-85.0394)">
				<title>工作表.12</title>
				<desc>飲光部Kāśyapīya即善歲部 Suvarṣa</desc>
				<rect x="0" y="284.215" width="340.157" height="19.8425" class="st1"/>
				<text x="20.91" y="299.12" class="st2">飲光部（<tspan class="st3">Kāśyapīya</tspan>），即善歲部 （<tspan class="st3">Suvarṣa</tspan></text>			</g>
			<g id="shape13-51" transform="translate(374.173,-28.3465)">
				<title>工作表.13</title>
				<desc>經量部Sautrāntika即說轉部Saṃ</desc>
				<rect x="0" y="284.215" width="289.134" height="19.8425" class="st1"/>
				<text x="5.91" y="299.12" class="st2">經量部（<tspan class="st3">Sautrāntika</tspan>），即說轉部（<tspan class="st3">Saṃ</tspan></text>			</g>
			<g id="shape14-56" transform="translate(377.008,-113.386)">
				<title>工作表.14</title>
				<desc>aguptaka</desc>
				<rect x="0" y="284.215" width="85.0394" height="19.8425" class="st1"/>
				<text x="5.64" y="299.12" class="st4">aguptaka<tspan class="st5">）</tspan></text>			</g>
			<g id="shape15-60" transform="translate(391.181,-56.6929)">
				<title>工作表.15</title>
				<desc>ka</desc>
				<rect x="0" y="284.215" width="42.5197" height="19.8425" class="st1"/>
				<text x="5.71" y="299.12" class="st4">ka<tspan class="st5">）</tspan></text>			</g>
			<g id="shape16-64" transform="translate(391.181,-5.68434E-14)">
				<title>工作表.16</title>
				<desc>krāntivādin</desc>
				<rect x="0" y="284.215" width="99.2126" height="19.8425" class="st1"/>
				<text x="5.17" y="299.12" class="st4">krāntivādin<tspan class="st5">）</tspan></text>			</g>
			<g id="shape17-68" transform="translate(437.953,-255.118)">
				<title>工作表.17</title>
				<desc>法上部Dharmottarīya</desc>
				<rect x="0" y="284.215" width="181.417" height="19.8425" class="st1"/>
				<text x="4.06" y="299.12" class="st2">法上部（<tspan class="st3">Dharmottarīya</tspan>）</text>			</g>
			<g id="shape18-72" transform="translate(435.118,-226.772)">
				<title>工作表.18</title>
				<desc>賢胄部Bhadrayānīya</desc>
				<rect x="0" y="284.215" width="181.417" height="19.8425" class="st1"/>
				<text x="6.28" y="299.12" class="st2">賢胄部（<tspan class="st3">Bhadrayānīya</tspan>）</text>			</g>
			<g id="shape20-76" transform="translate(56.6929,-194.173)">
				<title>工作表.20</title>
				<path d="M0 304.06 L99.21 304.06" class="st6"/>
			</g>
			<g id="shape21-79" transform="translate(369.921,-222.52)">
				<title>工作表.21</title>
				<path d="M0 304.06 L55.28 304.06" class="st6"/>
			</g>
			<g id="shape22-82" transform="translate(297.638,-222.52)">
				<title>工作表.22</title>
				<path d="M0 304.06 L14.17 304.06" class="st6"/>
			</g>
			<g id="shape23-85" transform="translate(155.906,-137.48)">
				<title>工作表.23</title>
				<path d="M0 304.06 L14.17 304.06" class="st6"/>
			</g>
			<g id="shape24-88" transform="translate(155.906,-293.386)">
				<title>工作表.24</title>
				<path d="M0 304.06 L14.17 304.06" class="st6"/>
			</g>
			<g id="shape25-91" transform="translate(297.638,-94.9606)">
				<title>工作表.25</title>
				<path d="M0 304.06 L65.2 304.06" class="st6"/>
			</g>
			<g id="shape26-94" transform="translate(297.638,-38.2677)">
				<title>工作表.26</title>
				<path d="M0 304.06 L79.37 304.06" class="st6"/>
			</g>
			<g id="shape27-97" transform="translate(297.638,-151.654)">
				<title>工作表.27</title>
				<path d="M0 304.06 L34.02 304.06" class="st6"/>
			</g>
			<g id="shape28-100" transform="translate(-6.41929,265.789) rotate(-90)">
				<title>工作表.28</title>
				<path d="M0 304.06 L184.25 304.06" class="st6"/>
			</g>
			<g id="shape29-103" transform="translate(257.953,-137.48)">
				<title>工作表.29</title>
				<path d="M0 304.06 L39.69 304.06" class="st6"/>
			</g>
			<g id="shape30-106" transform="translate(-148.152,166.577) rotate(-90)">
				<title>工作表.30</title>
				<path d="M0 304.06 L155.91 304.06" class="st6"/>
			</g>
			<g id="shape31-109" transform="translate(425.197,-265.039)">
				<title>工作表.31</title>
				<path d="M0 304.06 L14.17 304.06" class="st6"/>
			</g>
			<g id="shape32-112" transform="translate(425.197,-180)">
				<title>工作表.32</title>
				<path d="M0 304.06 L14.17 304.06" class="st6"/>
			</g>
			<g id="shape33-115" transform="translate(121.14,124.057) rotate(-90)">
				<title>工作表.33</title>
				<path d="M0 304.06 L85.04 304.06" class="st6"/>
			</g>
			<g id="shape35-118" transform="translate(626.457,-151.654)">
				<title>工作表.35</title>
				<path d="M0 304.06 L5.67 304.06" class="st6"/>
			</g>
			<g id="shape36-121" transform="translate(666.142,-94.9606)">
				<title>工作表.36</title>
				<path d="M0 304.06 L5.67 304.06" class="st6"/>
			</g>
			<g id="shape37-124" transform="translate(660.472,-38.2677)">
				<title>工作表.37</title>
				<path d="M0 304.06 L5.67 304.06" class="st6"/>
			</g>
			<g id="shape40-127" transform="translate(484.724,-151.654)">
				<title>工作表.40</title>
				<path d="M0 304.06 L28.6 304.06" class="st6"/>
			</g>
		</g>
	</g>
</svg>
