<?xml version="1.0" encoding="UTF-8" standalone="no"?>
<!DOCTYPE svg PUBLIC "-//W3C//DTD SVG 1.1//EN" "http://www.w3.org/Graphics/SVG/1.1/DTD/svg11.dtd">
<!-- 由 Microsoft Visio, SVG Export 產生 y37.0571.svg 頁-1 -->
<svg xmlns="http://www.w3.org/2000/svg" xmlns:xlink="http://www.w3.org/1999/xlink" xmlns:ev="http://www.w3.org/2001/xml-events"
		width="5.79782in" height="1.51612in" viewBox="0 0 417.443 109.161" xml:space="preserve" color-interpolation-filters="sRGB"
		class="st3">
	<style type="text/css">
	<![CDATA[
		.st1 {fill:none;stroke:none;stroke-linecap:round;stroke-linejoin:round;stroke-width:0.75}
		.st2 {fill:#000000;font-family:新細明體;font-size:1.33333em}
		.st3 {fill:none;fill-rule:evenodd;font-size:12px;overflow:visible;stroke-linecap:square;stroke-miterlimit:3}
	]]>
	</style>

	<g>
		<title>頁-1</title>
		<g id="group14-1" transform="translate(0.375,-0.375)">
			<title>工作表.14</title>
			<g id="shape1-2" transform="translate(1.41732,-85.0394)">
				<title>工作表.1</title>
				<desc>《舍利弗悔過經》</desc>
				<rect x="0" y="86.4837" width="136.063" height="22.6772" class="st1"/>
				<text x="4.03" y="102.62" class="st2">《舍利弗悔過經》</text>			</g>
			<g id="shape2-5" transform="translate(-3.19744E-14,-56.6929)">
				<title>工作表.2</title>
				<desc>《菩薩藏經》</desc>
				<rect x="0" y="86.4837" width="104.882" height="22.6772" class="st1"/>
				<text x="4.44" y="102.62" class="st2">《菩薩藏經》</text>			</g>
			<g id="shape3-8" transform="translate(1.43885E-13,-28.3465)">
				<title>工作表.3</title>
				<desc>《大乘三聚懺悔經》</desc>
				<rect x="0" y="86.4837" width="153.071" height="22.6772" class="st1"/>
				<text x="4.54" y="102.62" class="st2">《大乘三聚懺悔經》</text>			</g>
			<g id="shape4-11">
				<title>工作表.4</title>
				<desc>《聖大乘滅業障經》</desc>
				<rect x="0" y="86.4837" width="153.071" height="22.6772" class="st1"/>
				<text x="4.54" y="102.62" class="st2">《聖大乘滅業障經》</text>			</g>
			<g id="shape5-14" transform="translate(154.488,-85.0394)">
				<title>工作表.5</title>
				<desc>一卷</desc>
				<rect x="0" y="86.4837" width="42.5197" height="22.6772" class="st1"/>
				<text x="5.26" y="102.62" class="st2">一卷</text>			</g>
			<g id="shape6-17" transform="translate(239.528,-85.7337)">
				<title>工作表.6</title>
				<desc>漢安世高譯</desc>
				<rect x="0" y="86.4837" width="113.386" height="22.6772" class="st1"/>
				<text x="8.69" y="102.62" class="st2">漢安世高譯？</text>			</g>
			<g id="shape7-20" transform="translate(239.528,-56.6929)">
				<title>工作表.7</title>
				<desc>梁僧伽婆羅譯</desc>
				<rect x="0" y="86.4837" width="113.386" height="22.6772" class="st1"/>
				<text x="8.69" y="102.62" class="st2">梁僧伽婆羅譯</text>			</g>
			<g id="shape8-23" transform="translate(240.945,-28.3465)">
				<title>工作表.8</title>
				<desc>隋闍那崛多共笈多等譯</desc>
				<rect x="0" y="86.4837" width="175.748" height="22.6772" class="st1"/>
				<text x="7.87" y="102.62" class="st2">隋闍那崛多共笈多等譯</text>			</g>
			<g id="shape9-26" transform="translate(239.528,-1.08002E-12)">
				<title>工作表.9</title>
				<desc>西藏智友等譯</desc>
				<rect x="0" y="86.4837" width="113.386" height="22.6772" class="st1"/>
				<text x="8.69" y="102.62" class="st2">西藏智友等譯</text>			</g>
			<g id="shape11-29" transform="translate(154.488,-56.6929)">
				<title>工作表.11</title>
				<desc>一卷</desc>
				<rect x="0" y="86.4837" width="42.5197" height="22.6772" class="st1"/>
				<text x="5.26" y="102.62" class="st2">一卷</text>			</g>
			<g id="shape12-32" transform="translate(154.488,-28.3465)">
				<title>工作表.12</title>
				<desc>一卷</desc>
				<rect x="0" y="86.4837" width="42.5197" height="22.6772" class="st1"/>
				<text x="5.26" y="102.62" class="st2">一卷</text>			</g>
		</g>
	</g>
</svg>
