<?xml version="1.0" encoding="UTF-8" standalone="no"?>
<!DOCTYPE svg PUBLIC "-//W3C//DTD SVG 1.0//EN" "http://www.w3.org/TR/2001/REC-SVG-20010904/DTD/svg10.dtd">
<!-- 由 Microsoft Visio 11.0, SVG Export, v1.0 產生 y37.1033-h.svg Page-1 -->
<svg xmlns="http://www.w3.org/2000/svg" xmlns:xlink="http://www.w3.org/1999/xlink" xmlns:ev="http://www.w3.org/2001/xml-events"
		xmlns:v="http://schemas.microsoft.com/visio/2003/SVGExtensions/" width="10.764in" height="4.85849in"
		viewBox="0 0 775.008 349.811" xml:space="preserve" color-interpolation-filters="sRGB" class="st6">
	<v:documentProperties v:langID="1028" v:metric="true" v:viewMarkup="false">
		<v:userDefs>
			<v:ud v:nameU="msvSubprocessMaster" v:prompt="" v:val="VT4(Box)"/>
			<v:ud v:nameU="msvNoAutoConnect" v:val="VT0(1):26"/>
		</v:userDefs>
	</v:documentProperties>

	<style type="text/css">
	<![CDATA[
		.st1 {fill:none;stroke:#000000;stroke-linecap:round;stroke-linejoin:round;stroke-width:1}
		.st2 {fill:none;stroke:#000000;stroke-dasharray:3,3;stroke-linecap:round;stroke-linejoin:round;stroke-width:1}
		.st3 {fill:none;stroke:none;stroke-linecap:round;stroke-linejoin:round;stroke-width:0.75}
		.st4 {fill:#000000;font-family:新細明體;font-size:1.33333em}
		.st5 {stroke:#ffffff;stroke-linecap:round;stroke-linejoin:round;stroke-opacity:0;stroke-width:1}
		.st6 {fill:none;fill-rule:evenodd;font-size:12px;overflow:visible;stroke-linecap:square;stroke-miterlimit:3}
	]]>
	</style>

	<g v:mID="0" v:index="1" v:groupContext="foregroundPage">
		<title>頁-1</title>
		<v:pageProperties v:drawingScale="0.0393701" v:pageScale="0.0393701" v:drawingUnits="24" v:shadowOffsetX="8.50394"
				v:shadowOffsetY="-8.50394"/>
		<g id="group7-1" transform="translate(406.197,330.811) rotate(-90)" v:mID="7" v:groupContext="group">
			<title>工作表.7</title>
			<g id="shape8-2" v:mID="8" v:groupContext="shape" transform="translate(28.3465,-411.024)">
				<title>工作表.8</title>
				<ellipse cx="127.559" cy="222.252" rx="127.559" ry="127.559" class="st1"/>
			</g>
			<g id="shape9-4" v:mID="9" v:groupContext="shape" transform="translate(56.6929,-439.37)">
				<title>工作表.9</title>
				<ellipse cx="99.2126" cy="250.598" rx="99.2126" ry="99.2126" class="st2"/>
			</g>
			<g id="shape10-6" v:mID="10" v:groupContext="shape" transform="translate(85.0394,-467.717)">
				<title>工作表.10</title>
				<ellipse cx="70.8661" cy="278.945" rx="70.8661" ry="70.8661" class="st2"/>
			</g>
			<g id="shape13-8" v:mID="13" v:groupContext="shape" transform="translate(607.764,-200.11) rotate(90)">
				<title>工作表.13</title>
				<desc>千</desc>
				<v:textBlock v:margins="rect(4,4,4,4)" v:tabSpace="42.5197"/>
				<v:textRect cx="11.3386" cy="338.472" width="22.68" height="22.6772"/>
				<rect x="0" y="327.134" width="22.6772" height="22.6772" class="st3"/>
				<text x="4" y="343.27" class="st4" v:langID="1028"><v:paragraph v:horizAlign="1"/><v:tabList/>千</text>			</g>
			<g id="shape14-11" v:mID="14" v:groupContext="shape" transform="translate(536.898,-356.016) rotate(90)">
				<title>工作表.14</title>
				<desc>娑</desc>
				<v:textBlock v:margins="rect(4,4,4,4)" v:tabSpace="42.5197"/>
				<v:textRect cx="11.3386" cy="338.472" width="22.68" height="22.6772"/>
				<rect x="0" y="327.134" width="22.6772" height="22.6772" class="st3"/>
				<text x="4" y="343.27" class="st4" v:langID="1028"><v:paragraph v:horizAlign="1"/><v:tabList/>娑</text>			</g>
			<g id="shape15-14" v:mID="15" v:groupContext="shape" transform="translate(508.551,-356.016) rotate(90)">
				<title>工作表.15</title>
				<desc>婆</desc>
				<v:textBlock v:margins="rect(4,4,4,4)" v:tabSpace="42.5197"/>
				<v:textRect cx="11.3386" cy="338.472" width="22.68" height="22.6772"/>
				<rect x="0" y="327.134" width="22.6772" height="22.6772" class="st3"/>
				<text x="4" y="343.27" class="st4" v:langID="1028"><v:paragraph v:horizAlign="1"/><v:tabList/>婆</text>			</g>
			<g id="shape16-17" v:mID="16" v:groupContext="shape" transform="translate(480.205,-356.016) rotate(90)">
				<title>工作表.16</title>
				<desc>世</desc>
				<v:textBlock v:margins="rect(4,4,4,4)" v:tabSpace="42.5197"/>
				<v:textRect cx="11.3386" cy="338.472" width="22.68" height="22.6772"/>
				<rect x="0" y="327.134" width="22.6772" height="22.6772" class="st3"/>
				<text x="4" y="343.27" class="st4" v:langID="1028"><v:paragraph v:horizAlign="1"/><v:tabList/>世</text>			</g>
			<g id="shape5-20" v:mID="5" v:groupContext="shape" transform="translate(494.378,-313.496) rotate(90)">
				<title>工作表.5</title>
				<desc>大</desc>
				<v:textBlock v:margins="rect(4,4,4,4)" v:tabSpace="42.5197"/>
				<v:textRect cx="11.3386" cy="338.472" width="22.68" height="22.6772"/>
				<rect x="0" y="327.134" width="22.6772" height="22.6772" class="st3"/>
				<text x="4" y="343.27" class="st4" v:langID="1028"><v:paragraph v:horizAlign="1"/><v:tabList/>大</text>			</g>
			<g id="shape18-23" v:mID="18" v:groupContext="shape" transform="translate(494.378,-285.15) rotate(90)">
				<title>工作表.18</title>
				<desc>中</desc>
				<v:textBlock v:margins="rect(4,4,4,4)" v:tabSpace="42.5197"/>
				<v:textRect cx="11.3386" cy="338.472" width="22.68" height="22.6772"/>
				<rect x="0" y="327.134" width="22.6772" height="22.6772" class="st3"/>
				<text x="4" y="343.27" class="st4" v:langID="1028"><v:paragraph v:horizAlign="1"/><v:tabList/>中</text>			</g>
			<g id="shape19-26" v:mID="19" v:groupContext="shape" transform="translate(494.378,-256.803) rotate(90)">
				<title>工作表.19</title>
				<desc>小</desc>
				<v:textBlock v:margins="rect(4,4,4,4)" v:tabSpace="42.5197"/>
				<v:textRect cx="11.3386" cy="338.472" width="22.68" height="22.6772"/>
				<rect x="0" y="327.134" width="22.6772" height="22.6772" class="st3"/>
				<text x="4" y="343.27" class="st4" v:langID="1028"><v:paragraph v:horizAlign="1"/><v:tabList/>小</text>			</g>
			<g id="shape20-29" v:mID="20" v:groupContext="shape" transform="translate(468.866,-225.622) rotate(90)">
				<title>工作表.20</title>
				<desc>一四天下</desc>
				<v:textBlock v:margins="rect(4,4,4,4)" v:tabSpace="42.5197"/>
				<v:textRect cx="36.8504" cy="312.961" width="73.71" height="73.7008"/>
				<rect x="0" y="276.11" width="73.7008" height="73.7008" class="st3"/>
				<text x="4.85" y="317.76" class="st4" v:langID="1028"><v:paragraph v:horizAlign="1"/><v:tabList/>一四天下</text>			</g>
			<g id="shape21-32" v:mID="21" v:groupContext="shape" transform="translate(380.992,-200.11) rotate(90)">
				<title>工作表.21</title>
				<desc>界</desc>
				<v:textBlock v:margins="rect(4,4,4,4)" v:tabSpace="42.5197"/>
				<v:textRect cx="11.3386" cy="338.472" width="22.68" height="22.6772"/>
				<rect x="0" y="327.134" width="22.6772" height="22.6772" class="st3"/>
				<text x="4" y="343.27" class="st4" v:langID="1028"><v:paragraph v:horizAlign="1"/><v:tabList/>界</text>			</g>
			<g id="shape11-35" v:mID="11" v:groupContext="shape" transform="translate(113.386,-496.063)">
				<title>工作表.11</title>
				<ellipse cx="42.5197" cy="307.291" rx="42.5197" ry="42.5197" class="st2"/>
			</g>
			<g id="shape30-37" v:mID="30" v:groupContext="shape" transform="translate(579.417,-200.11) rotate(90)">
				<title>工作表.30</title>
				<desc>千</desc>
				<v:textBlock v:margins="rect(4,4,4,4)" v:tabSpace="42.5197"/>
				<v:textRect cx="11.3386" cy="338.472" width="22.68" height="22.6772"/>
				<rect x="0" y="327.134" width="22.6772" height="22.6772" class="st3"/>
				<text x="4" y="343.27" class="st4" v:langID="1028"><v:paragraph v:horizAlign="1"/><v:tabList/>千</text>			</g>
			<g id="shape31-40" v:mID="31" v:groupContext="shape" transform="translate(551.071,-200.11) rotate(90)">
				<title>工作表.31</title>
				<desc>千</desc>
				<v:textBlock v:margins="rect(4,4,4,4)" v:tabSpace="42.5197"/>
				<v:textRect cx="11.3386" cy="338.472" width="22.68" height="22.6772"/>
				<rect x="0" y="327.134" width="22.6772" height="22.6772" class="st3"/>
				<text x="4" y="343.27" class="st4" v:langID="1028"><v:paragraph v:horizAlign="1"/><v:tabList/>千</text>			</g>
			<g id="shape32-43" v:mID="32" v:groupContext="shape" transform="translate(409.339,-200.11) rotate(90)">
				<title>工作表.32</title>
				<desc>界</desc>
				<v:textBlock v:margins="rect(4,4,4,4)" v:tabSpace="42.5197"/>
				<v:textRect cx="11.3386" cy="338.472" width="22.68" height="22.6772"/>
				<rect x="0" y="327.134" width="22.6772" height="22.6772" class="st3"/>
				<text x="4" y="343.27" class="st4" v:langID="1028"><v:paragraph v:horizAlign="1"/><v:tabList/>界</text>			</g>
			<g id="shape33-46" v:mID="33" v:groupContext="shape" transform="translate(437.685,-200.11) rotate(90)">
				<title>工作表.33</title>
				<desc>界</desc>
				<v:textBlock v:margins="rect(4,4,4,4)" v:tabSpace="42.5197"/>
				<v:textRect cx="11.3386" cy="338.472" width="22.68" height="22.6772"/>
				<rect x="0" y="327.134" width="22.6772" height="22.6772" class="st3"/>
				<text x="4" y="343.27" class="st4" v:langID="1028"><v:paragraph v:horizAlign="1"/><v:tabList/>界</text>			</g>
			<g id="shape34-49" v:mID="34" v:groupContext="shape" transform="translate(451.858,-356.016) rotate(90)">
				<title>工作表.34</title>
				<desc>界</desc>
				<v:textBlock v:margins="rect(4,4,4,4)" v:tabSpace="42.5197"/>
				<v:textRect cx="11.3386" cy="338.472" width="22.68" height="22.6772"/>
				<rect x="0" y="327.134" width="22.6772" height="22.6772" class="st3"/>
				<text x="4" y="343.27" class="st4" v:langID="1028"><v:paragraph v:horizAlign="1"/><v:tabList/>界</text>			</g>
			<g id="shape17-52" v:mID="17" v:groupContext="shape" transform="translate(494.378,-86.7244) rotate(90)">
				<title>工作表.17</title>
				<desc>世</desc>
				<v:textBlock v:margins="rect(4,4,4,4)" v:tabSpace="42.5197"/>
				<v:textRect cx="11.3386" cy="338.472" width="22.68" height="22.6772"/>
				<rect x="0" y="327.134" width="22.6772" height="22.6772" class="st3"/>
				<text x="4" y="343.27" class="st4" v:langID="1028"><v:paragraph v:horizAlign="1"/><v:tabList/>世</text>			</g>
			<g id="shape37-55" v:mID="37" v:groupContext="shape" transform="translate(494.378,-115.071) rotate(90)">
				<title>工作表.37</title>
				<desc>世</desc>
				<v:textBlock v:margins="rect(4,4,4,4)" v:tabSpace="42.5197"/>
				<v:textRect cx="11.3386" cy="338.472" width="22.68" height="22.6772"/>
				<rect x="0" y="327.134" width="22.6772" height="22.6772" class="st3"/>
				<text x="4" y="343.27" class="st4" v:langID="1028"><v:paragraph v:horizAlign="1"/><v:tabList/>世</text>			</g>
			<g id="shape38-58" v:mID="38" v:groupContext="shape" transform="translate(494.378,-143.417) rotate(90)">
				<title>工作表.38</title>
				<desc>世</desc>
				<v:textBlock v:margins="rect(4,4,4,4)" v:tabSpace="42.5197"/>
				<v:textRect cx="11.3386" cy="338.472" width="22.68" height="22.6772"/>
				<rect x="0" y="327.134" width="22.6772" height="22.6772" class="st3"/>
				<text x="4" y="343.27" class="st4" v:langID="1028"><v:paragraph v:horizAlign="1"/><v:tabList/>世</text>			</g>
			<g id="shape1-61" v:mID="1" v:groupContext="shape" transform="translate(28.3465,-28.3465)">
				<title>工作表.1</title>
				<ellipse cx="127.559" cy="222.252" rx="127.559" ry="127.559" class="st1"/>
			</g>
			<g id="shape2-63" v:mID="2" v:groupContext="shape" transform="translate(56.6929,-56.6929)">
				<title>工作表.2</title>
				<ellipse cx="99.2126" cy="250.598" rx="99.2126" ry="99.2126" class="st1"/>
			</g>
			<g id="shape3-65" v:mID="3" v:groupContext="shape" transform="translate(110.551,-110.551)">
				<title>工作表.3</title>
				<ellipse cx="45.3543" cy="304.457" rx="45.3543" ry="45.3543" class="st1"/>
			</g>
			<g id="shape4-67" v:mID="4" v:groupContext="shape" transform="translate(85.0394,-85.0394)">
				<title>工作表.4</title>
				<ellipse cx="70.8661" cy="278.945" rx="70.8661" ry="70.8661" class="st2"/>
			</g>
			<g id="shape22-69" v:mID="22" v:groupContext="shape" transform="translate(536.898,26.6614) rotate(90)">
				<title>工作表.22</title>
				<desc>華</desc>
				<v:textBlock v:margins="rect(4,4,4,4)" v:tabSpace="42.5197"/>
				<v:textRect cx="11.3386" cy="338.472" width="22.68" height="22.6772"/>
				<rect x="0" y="327.134" width="22.6772" height="22.6772" class="st3"/>
				<text x="4" y="343.27" class="st4" v:langID="1028"><v:paragraph v:horizAlign="1"/><v:tabList/>華</text>			</g>
			<g id="shape23-72" v:mID="23" v:groupContext="shape" transform="translate(508.551,26.6614) rotate(90)">
				<title>工作表.23</title>
				<desc>藏</desc>
				<v:textBlock v:margins="rect(4,4,4,4)" v:tabSpace="42.5197"/>
				<v:textRect cx="11.3386" cy="338.472" width="22.68" height="22.6772"/>
				<rect x="0" y="327.134" width="22.6772" height="22.6772" class="st3"/>
				<text x="4" y="343.27" class="st4" v:langID="1028"><v:paragraph v:horizAlign="1"/><v:tabList/>藏</text>			</g>
			<g id="shape24-75" v:mID="24" v:groupContext="shape" transform="translate(494.378,69.1811) rotate(90)">
				<title>工作表.24</title>
				<desc>百</desc>
				<v:textBlock v:margins="rect(4,4,4,4)" v:tabSpace="42.5197"/>
				<v:textRect cx="11.3386" cy="338.472" width="22.68" height="22.6772"/>
				<rect x="0" y="327.134" width="22.6772" height="22.6772" class="st3"/>
				<text x="4" y="343.27" class="st4" v:langID="1028"><v:paragraph v:horizAlign="1"/><v:tabList/>百</text>			</g>
			<g id="shape25-78" v:mID="25" v:groupContext="shape" transform="translate(494.378,97.5276) rotate(90)">
				<title>工作表.25</title>
				<desc>十</desc>
				<v:textBlock v:margins="rect(4,4,4,4)" v:tabSpace="42.5197"/>
				<v:textRect cx="11.3386" cy="338.472" width="22.68" height="22.6772"/>
				<rect x="0" y="327.134" width="22.6772" height="22.6772" class="st3"/>
				<text x="4" y="343.27" class="st4" v:langID="1028"><v:paragraph v:horizAlign="1"/><v:tabList/>十</text>			</g>
			<g id="shape26-81" v:mID="26" v:groupContext="shape" transform="translate(494.378,125.874) rotate(90)">
				<title>工作表.26</title>
				<desc>一</desc>
				<v:textBlock v:margins="rect(4,4,4,4)" v:tabSpace="42.5197"/>
				<v:textRect cx="11.3386" cy="338.472" width="22.68" height="22.6772"/>
				<rect x="0" y="327.134" width="22.6772" height="22.6772" class="st3"/>
				<text x="4" y="343.27" class="st4" v:langID="1028"><v:paragraph v:horizAlign="1"/><v:tabList/>一</text>			</g>
			<g id="shape27-84" v:mID="27" v:groupContext="shape" transform="translate(380.992,182.567) rotate(90)">
				<title>工作表.27</title>
				<desc>種</desc>
				<v:textBlock v:margins="rect(4,4,4,4)" v:tabSpace="42.5197"/>
				<v:textRect cx="11.3386" cy="338.472" width="22.68" height="22.6772"/>
				<rect x="0" y="327.134" width="22.6772" height="22.6772" class="st3"/>
				<text x="4" y="343.27" class="st4" v:langID="1028"><v:paragraph v:horizAlign="1"/><v:tabList/>種</text>			</g>
			<g id="shape28-87" v:mID="28" v:groupContext="shape" transform="translate(468.866,157.055) rotate(90)">
				<title>工作表.28</title>
				<desc>娑婆世界</desc>
				<v:textBlock v:margins="rect(4,4,4,4)" v:tabSpace="42.5197"/>
				<v:textRect cx="36.8504" cy="312.961" width="73.71" height="73.7008"/>
				<rect x="0" y="276.11" width="73.7008" height="73.7008" class="st3"/>
				<text x="4.85" y="317.76" class="st4" v:langID="1028"><v:paragraph v:horizAlign="1"/><v:tabList/>娑婆世界</text>			</g>
			<g id="shape35-90" v:mID="35" v:groupContext="shape" transform="translate(494.378,295.953) rotate(90)">
				<title>工作表.35</title>
				<desc>界</desc>
				<v:textBlock v:margins="rect(4,4,4,4)" v:tabSpace="42.5197"/>
				<v:textRect cx="11.3386" cy="338.472" width="22.68" height="22.6772"/>
				<rect x="0" y="327.134" width="22.6772" height="22.6772" class="st3"/>
				<text x="4" y="343.27" class="st4" v:langID="1028"><v:paragraph v:horizAlign="1"/><v:tabList/>界</text>			</g>
			<g id="shape36-93" v:mID="36" v:groupContext="shape" transform="translate(494.378,239.26) rotate(90)">
				<title>工作表.36</title>
				<desc>界</desc>
				<v:textBlock v:margins="rect(4,4,4,4)" v:tabSpace="42.5197"/>
				<v:textRect cx="11.3386" cy="338.472" width="22.68" height="22.6772"/>
				<rect x="0" y="327.134" width="22.6772" height="22.6772" class="st3"/>
				<text x="4" y="343.27" class="st4" v:langID="1028"><v:paragraph v:horizAlign="1"/><v:tabList/>界</text>			</g>
			<g id="shape39-96" v:mID="39" v:groupContext="shape" transform="translate(551.071,182.567) rotate(90)">
				<title>工作表.39</title>
				<desc>世</desc>
				<v:textBlock v:margins="rect(4,4,4,4)" v:tabSpace="42.5197"/>
				<v:textRect cx="11.3386" cy="338.472" width="22.68" height="22.6772"/>
				<rect x="0" y="327.134" width="22.6772" height="22.6772" class="st3"/>
				<text x="4" y="343.27" class="st4" v:langID="1028"><v:paragraph v:horizAlign="1"/><v:tabList/>世</text>			</g>
			<g id="shape40-99" v:mID="40" v:groupContext="shape" transform="translate(579.417,182.567) rotate(90)">
				<title>工作表.40</title>
				<desc>世</desc>
				<v:textBlock v:margins="rect(4,4,4,4)" v:tabSpace="42.5197"/>
				<v:textRect cx="11.3386" cy="338.472" width="22.68" height="22.6772"/>
				<rect x="0" y="327.134" width="22.6772" height="22.6772" class="st3"/>
				<text x="4" y="343.27" class="st4" v:langID="1028"><v:paragraph v:horizAlign="1"/><v:tabList/>世</text>			</g>
			<g id="shape41-102" v:mID="41" v:groupContext="shape" transform="translate(607.764,182.567) rotate(90)">
				<title>工作表.41</title>
				<desc>世</desc>
				<v:textBlock v:margins="rect(4,4,4,4)" v:tabSpace="42.5197"/>
				<v:textRect cx="11.3386" cy="338.472" width="22.68" height="22.6772"/>
				<rect x="0" y="327.134" width="22.6772" height="22.6772" class="st3"/>
				<text x="4" y="343.27" class="st4" v:langID="1028"><v:paragraph v:horizAlign="1"/><v:tabList/>世</text>			</g>
			<g id="shape12-105" v:mID="12" v:groupContext="shape" transform="translate(480.205,26.6614) rotate(90)">
				<title>工作表.12</title>
				<desc>世</desc>
				<v:textBlock v:margins="rect(4,4,4,4)" v:tabSpace="42.5197"/>
				<v:textRect cx="11.3386" cy="338.472" width="22.68" height="22.6772"/>
				<rect x="0" y="327.134" width="22.6772" height="22.6772" class="st3"/>
				<text x="4" y="343.27" class="st4" v:langID="1028"><v:paragraph v:horizAlign="1"/><v:tabList/>世</text>			</g>
			<g id="shape42-108" v:mID="42" v:groupContext="shape" transform="translate(494.378,267.606) rotate(90)">
				<title>工作表.42</title>
				<desc>界</desc>
				<v:textBlock v:margins="rect(4,4,4,4)" v:tabSpace="42.5197"/>
				<v:textRect cx="11.3386" cy="338.472" width="22.68" height="22.6772"/>
				<rect x="0" y="327.134" width="22.6772" height="22.6772" class="st3"/>
				<text x="4" y="343.27" class="st4" v:langID="1028"><v:paragraph v:horizAlign="1"/><v:tabList/>界</text>			</g>
			<g id="shape43-111" v:mID="43" v:groupContext="shape" transform="translate(451.858,26.6614) rotate(90)">
				<title>工作表.43</title>
				<desc>界</desc>
				<v:textBlock v:margins="rect(4,4,4,4)" v:tabSpace="42.5197"/>
				<v:textRect cx="11.3386" cy="338.472" width="22.68" height="22.6772"/>
				<rect x="0" y="327.134" width="22.6772" height="22.6772" class="st3"/>
				<text x="4" y="343.27" class="st4" v:langID="1028"><v:paragraph v:horizAlign="1"/><v:tabList/>界</text>			</g>
			<g id="shape44-114" v:mID="44" v:groupContext="shape" transform="translate(409.339,182.567) rotate(90)">
				<title>工作表.44</title>
				<desc>種</desc>
				<v:textBlock v:margins="rect(4,4,4,4)" v:tabSpace="42.5197"/>
				<v:textRect cx="11.3386" cy="338.472" width="22.68" height="22.6772"/>
				<rect x="0" y="327.134" width="22.6772" height="22.6772" class="st3"/>
				<text x="4" y="343.27" class="st4" v:langID="1028"><v:paragraph v:horizAlign="1"/><v:tabList/>種</text>			</g>
			<g id="shape45-117" v:mID="45" v:groupContext="shape" transform="translate(437.685,182.567) rotate(90)">
				<title>工作表.45</title>
				<desc>種</desc>
				<v:textBlock v:margins="rect(4,4,4,4)" v:tabSpace="42.5197"/>
				<v:textRect cx="11.3386" cy="338.472" width="22.68" height="22.6772"/>
				<rect x="0" y="327.134" width="22.6772" height="22.6772" class="st3"/>
				<text x="4" y="343.27" class="st4" v:langID="1028"><v:paragraph v:horizAlign="1"/><v:tabList/>種</text>			</g>
			<g id="shape6-120" v:mID="6" v:groupContext="shape" transform="translate(6.39488E-014,-737.008)">
				<title>工作表.6</title>
				<path d="M0 349.81 L311.81 349.81" class="st5"/>
			</g>
			<g id="shape46-123" v:mID="46" v:groupContext="shape">
				<title>工作表.46</title>
				<path d="M0 349.81 L311.81 349.81" class="st5"/>
			</g>
			<g id="shape47-126" v:mID="47" v:groupContext="shape" transform="translate(661.622,-387.197) rotate(90)">
				<title>工作表.47</title>
				<path d="M0 349.81 L737.01 349.81" class="st5"/>
			</g>
			<g id="shape48-129" v:mID="48" v:groupContext="shape" transform="translate(349.811,-387.197) rotate(90)">
				<title>工作表.48</title>
				<path d="M0 349.81 L737.01 349.81" class="st5"/>
			</g>
		</g>
	</g>
</svg>
