<?xml version="1.0" encoding="UTF-8" standalone="no"?>
<!DOCTYPE svg PUBLIC "-//W3C//DTD SVG 1.1//EN" "http://www.w3.org/Graphics/SVG/1.1/DTD/svg11.dtd">
<!-- 由 Microsoft Visio, SVG Export 產生 y12.0053.svg 頁-1 -->
<svg xmlns="http://www.w3.org/2000/svg" xmlns:xlink="http://www.w3.org/1999/xlink" xmlns:ev="http://www.w3.org/2001/xml-events"
		width="2.17535in" height="2.96276in" viewBox="0 0 156.626 213.318" xml:space="preserve" color-interpolation-filters="sRGB"
		class="st8">
	<title>y12.0053</title>

	<style type="text/css">
	<![CDATA[
		.st1 {stroke:#000000;stroke-linecap:round;stroke-linejoin:round;stroke-width:0.72}
		.st2 {fill:none;stroke:none;stroke-linecap:round;stroke-linejoin:round;stroke-width:0.72}
		.st3 {fill:#000000;font-family:新細明體;font-size:1.33333em}
		.st4 {fill:#000000;font-family:Times New Roman;font-size:1.33333em}
		.st5 {font-family:新細明體;font-size:1em}
		.st6 {font-family:Times New Roman;font-size:1em}
		.st7 {stroke:#000000;stroke-dasharray:5.04,3.6;stroke-linecap:round;stroke-linejoin:round;stroke-width:0.72}
		.st8 {fill:none;fill-rule:evenodd;font-size:12px;overflow:visible;stroke-linecap:square;stroke-miterlimit:3}
	]]>
	</style>

	<g>
		<title>頁-1</title>
		<g id="group19-1" transform="translate(0.36,-0.36)">
			<title>工作表.19</title>
			<g id="shape2-2" transform="translate(63.7795,-198.425)">
				<title>工作表.2</title>
				<path d="M28.35 213.32 A14.1732 14.1732 -180 0 0 14.17 199.15 A14.1732 14.1732 -180 0 0 -0 213.32" class="st1"/>
			</g>
			<g id="shape1-5" transform="translate(277.098,14.8932) rotate(90)">
				<title>工作表.1</title>
				<path d="M0 213.32 L85.04 213.32" class="st1"/>
			</g>
			<g id="shape3-8" transform="translate(305.444,14.8932) rotate(90)">
				<title>工作表.3</title>
				<path d="M0 213.32 L85.04 213.32" class="st1"/>
			</g>
			<g id="shape4-11" transform="translate(68.0315,-136.295)">
				<title>工作表.4</title>
				<desc>一大乘法</desc>
				<rect x="0" y="140.082" width="19.8425" height="73.2362" class="st2"/>
				<text x="9.92" y="144.7" writing-mode="tb-rl" class="st3">一大乘法</text>			</g>
			<g id="shape5-14" transform="translate(60.1496,-120.949)">
				<title>工作表.5</title>
				<desc>(上)</desc>
				<rect x="0" y="193.476" width="35.6063" height="19.8425" class="st2"/>
				<text x="4.48" y="208.38" class="st4">(<tspan class="st5">上</tspan>)</text>			</g>
			<g id="shape6-18" transform="translate(92.126,-113.386)">
				<title>工作表.6</title>
				<path d="M0 213.32 L28.35 213.32" class="st1"/>
			</g>
			<g id="shape7-21" transform="translate(63.7795,313.251) rotate(180)">
				<title>工作表.7</title>
				<path d="M0 213.32 L28.35 213.32" class="st1"/>
			</g>
			<g id="shape8-24" transform="translate(333.791,99.9326) rotate(90)">
				<title>工作表.8</title>
				<path d="M0 213.32 L56.69 213.32" class="st1"/>
			</g>
			<g id="shape9-27" transform="translate(248.751,99.9326) rotate(90)">
				<title>工作表.9</title>
				<path d="M0 213.32 L56.69 213.32" class="st1"/>
			</g>
			<g id="shape10-30" transform="translate(39.685,-62.3622)">
				<title>工作表.10</title>
				<desc>法共乘三 (中)</desc>
				<rect x="0" y="167.964" width="76.5354" height="45.3543" class="st2"/>
				<text x="6.27" y="185.66" class="st3">法共乘三<tspan x="24.94" dy="1.246em" class="st6">(</tspan>中<tspan class="st6">)</tspan></text>			</g>
			<g id="shape11-35" transform="translate(120.472,-56.6929)">
				<title>工作表.11</title>
				<path d="M0 213.32 L28.35 213.32" class="st1"/>
			</g>
			<g id="shape12-38" transform="translate(35.4331,369.944) rotate(180)">
				<title>工作表.12</title>
				<path d="M0 213.32 L28.35 213.32" class="st1"/>
			</g>
			<g id="shape13-41" transform="translate(362.137,156.626) rotate(90)">
				<title>工作表.13</title>
				<path d="M0 213.32 L56.69 213.32" class="st1"/>
			</g>
			<g id="shape14-44" transform="translate(220.405,156.626) rotate(90)">
				<title>工作表.14</title>
				<path d="M0 213.32 L56.69 213.32" class="st1"/>
			</g>
			<g id="shape15-47">
				<title>工作表.15</title>
				<path d="M0 213.32 L155.91 213.32" class="st1"/>
			</g>
			<g id="shape16-50" transform="translate(35.4331,-5.66929)">
				<title>工作表.16</title>
				<desc>法 共 乘 五 (下)</desc>
				<rect x="0" y="167.964" width="85.0394" height="45.3543" class="st2"/>
				<text x="4.52" y="185.66" class="st3">法<tspan class="st6"> </tspan>共<tspan class="st6"> </tspan>乘<tspan class="st6"> </tspan>五<tspan
							x="29.19" dy="1.246em" class="st6">(</tspan>下<tspan class="st6">)</tspan></text>			</g>
			<g id="shape17-58" transform="translate(63.7795,-113.386)">
				<title>工作表.17</title>
				<path d="M0 213.32 L28.35 213.32" class="st7"/>
			</g>
			<g id="shape18-61" transform="translate(35.4331,-56.6929)">
				<title>工作表.18</title>
				<path d="M0 213.32 L85.04 213.32" class="st7"/>
			</g>
		</g>
	</g>
</svg>
