<?xml version="1.0" encoding="UTF-8" standalone="no"?>
<!DOCTYPE svg PUBLIC "-//W3C//DTD SVG 1.0//EN" "http://www.w3.org/TR/2001/REC-SVG-20010904/DTD/svg10.dtd">
<!-- 由 Microsoft Visio 11.0, SVG Export, v1.0 產生 y12.0171-h.svg Page-1 -->
<svg xmlns="http://www.w3.org/2000/svg" xmlns:xlink="http://www.w3.org/1999/xlink" xmlns:ev="http://www.w3.org/2001/xml-events"
		xmlns:v="http://schemas.microsoft.com/visio/2003/SVGExtensions/" width="4.14205in" height="4.06429in"
		viewBox="0 0 298.227 292.629" xml:space="preserve" color-interpolation-filters="sRGB" class="st5">
	<title>y12.0171</title>
	<v:documentProperties v:langID="1028" v:metric="true" v:viewMarkup="false"/>

	<style type="text/css">
	<![CDATA[
		.st1 {fill:none;stroke:none;stroke-linecap:round;stroke-linejoin:round;stroke-width:0.72}
		.st2 {fill:#000000;font-family:新細明體;font-size:1.33333em}
		.st3 {stroke:#000000;stroke-linecap:round;stroke-linejoin:round;stroke-width:0.72}
		.st4 {stroke:#ffffff;stroke-linecap:round;stroke-linejoin:round;stroke-width:0.72}
		.st5 {fill:none;fill-rule:evenodd;font-size:12px;overflow:visible;stroke-linecap:square;stroke-miterlimit:3}
	]]>
	</style>

	<g v:mID="0" v:index="1" v:groupContext="foregroundPage">
		<title>Page-1</title>
		<v:pageProperties v:drawingScale="0.0393701" v:pageScale="0.0393701" v:drawingUnits="24" v:shadowOffsetX="8.50394"
				v:shadowOffsetY="-8.50394"/>
		<g id="shape1-1" v:mID="1" v:groupContext="shape" transform="translate(217.413,-217.681)">
			<title>工作表.1</title>
			<desc>正　見</desc>
			<v:textBlock v:margins="rect(4,4,4,4)" v:tabSpace="42.5197"/>
			<v:textRect cx="28.0787" cy="264.515" width="56.16" height="56.2283"/>
			<rect x="0" y="236.401" width="56.1575" height="56.2283" class="st1"/>
			<text x="4.08" y="269.5" class="st2" v:langID="1028"><v:paragraph v:horizAlign="1"/><v:tabList/>正　見</text>		</g>
		<g id="shape2-4" v:mID="2" v:groupContext="shape" transform="translate(217.413,-188.799)">
			<title>工作表.2</title>
			<desc>正思惟</desc>
			<v:textBlock v:margins="rect(4,4,4,4)" v:tabSpace="42.5197"/>
			<v:textRect cx="28.0787" cy="264.515" width="56.16" height="56.2283"/>
			<rect x="0" y="236.401" width="56.1575" height="56.2283" class="st1"/>
			<text x="4.08" y="269.5" class="st2" v:langID="1028"><v:paragraph v:horizAlign="1"/><v:tabList/>正思惟</text>		</g>
		<g id="shape3-7" v:mID="3" v:groupContext="shape" transform="translate(217.413,-160.452)">
			<title>工作表.3</title>
			<desc>正　語</desc>
			<v:textBlock v:margins="rect(4,4,4,4)" v:tabSpace="42.5197"/>
			<v:textRect cx="28.0787" cy="264.515" width="56.16" height="56.2283"/>
			<rect x="0" y="236.401" width="56.1575" height="56.2283" class="st1"/>
			<text x="4.08" y="269.5" class="st2" v:langID="1028"><v:paragraph v:horizAlign="1"/><v:tabList/>正　語</text>		</g>
		<g id="shape4-10" v:mID="4" v:groupContext="shape" transform="translate(217.413,-132.106)">
			<title>工作表.4</title>
			<desc>正　業</desc>
			<v:textBlock v:margins="rect(4,4,4,4)" v:tabSpace="42.5197"/>
			<v:textRect cx="28.0787" cy="264.515" width="56.16" height="56.2283"/>
			<rect x="0" y="236.401" width="56.1575" height="56.2283" class="st1"/>
			<text x="4.08" y="269.5" class="st2" v:langID="1028"><v:paragraph v:horizAlign="1"/><v:tabList/>正　業</text>		</g>
		<g id="shape5-13" v:mID="5" v:groupContext="shape" transform="translate(217.413,-103.759)">
			<title>工作表.5</title>
			<desc>正　命</desc>
			<v:textBlock v:margins="rect(4,4,4,4)" v:tabSpace="42.5197"/>
			<v:textRect cx="28.0787" cy="264.515" width="56.16" height="56.2283"/>
			<rect x="0" y="236.401" width="56.1575" height="56.2283" class="st1"/>
			<text x="4.08" y="269.5" class="st2" v:langID="1028"><v:paragraph v:horizAlign="1"/><v:tabList/>正　命</text>		</g>
		<g id="shape6-16" v:mID="6" v:groupContext="shape" transform="translate(217.413,-75.4129)">
			<title>工作表.6</title>
			<desc>正精進</desc>
			<v:textBlock v:margins="rect(4,4,4,4)" v:tabSpace="42.5197"/>
			<v:textRect cx="28.0787" cy="264.515" width="56.16" height="56.2283"/>
			<rect x="0" y="236.401" width="56.1575" height="56.2283" class="st1"/>
			<text x="4.08" y="269.5" class="st2" v:langID="1028"><v:paragraph v:horizAlign="1"/><v:tabList/>正精進</text>		</g>
		<g id="shape7-19" v:mID="7" v:groupContext="shape" transform="translate(217.413,-47.6019)">
			<title>工作表.7</title>
			<desc>正　念</desc>
			<v:textBlock v:margins="rect(4,4,4,4)" v:tabSpace="42.5197"/>
			<v:textRect cx="28.0787" cy="264.515" width="56.16" height="56.2283"/>
			<rect x="0" y="236.401" width="56.1575" height="56.2283" class="st1"/>
			<text x="4.08" y="269.5" class="st2" v:langID="1028"><v:paragraph v:horizAlign="1"/><v:tabList/>正　念</text>		</g>
		<g id="shape8-22" v:mID="8" v:groupContext="shape" transform="translate(217.413,-18.72)">
			<title>工作表.8</title>
			<desc>正　定</desc>
			<v:textBlock v:margins="rect(4,4,4,4)" v:tabSpace="42.5197"/>
			<v:textRect cx="28.0787" cy="264.515" width="56.16" height="56.2283"/>
			<rect x="0" y="236.401" width="56.1575" height="56.2283" class="st1"/>
			<text x="4.08" y="269.5" class="st2" v:langID="1028"><v:paragraph v:horizAlign="1"/><v:tabList/>正　定</text>		</g>
		<g id="shape9-25" v:mID="9" v:groupContext="shape" transform="translate(75.8027,-210.681)">
			<title>工作表.9</title>
			<desc>戒學</desc>
			<v:textBlock v:margins="rect(4,4,4,4)" v:tabSpace="42.5197"/>
			<v:textRect cx="20.2835" cy="271.956" width="40.57" height="41.3465"/>
			<rect x="0" y="251.283" width="40.5669" height="41.3465" class="st1"/>
			<text x="4.28" y="276.94" class="st2" v:langID="1028"><v:paragraph v:horizAlign="1"/><v:tabList/>戒學</text>		</g>
		<g id="shape10-28" v:mID="10" v:groupContext="shape" transform="translate(75.8027,-125.641)">
			<title>工作表.10</title>
			<desc>定學</desc>
			<v:textBlock v:margins="rect(4,4,4,4)" v:tabSpace="42.5197"/>
			<v:textRect cx="20.2835" cy="271.956" width="40.57" height="41.3465"/>
			<rect x="0" y="251.283" width="40.5669" height="41.3465" class="st1"/>
			<text x="4.28" y="276.94" class="st2" v:langID="1028"><v:paragraph v:horizAlign="1"/><v:tabList/>定學</text>		</g>
		<g id="shape11-31" v:mID="11" v:groupContext="shape" transform="translate(75.8027,-40.6019)">
			<title>工作表.11</title>
			<desc>慧學</desc>
			<v:textBlock v:margins="rect(4,4,4,4)" v:tabSpace="42.5197"/>
			<v:textRect cx="20.2835" cy="271.956" width="40.57" height="41.3465"/>
			<rect x="0" y="251.283" width="40.5669" height="41.3465" class="st1"/>
			<text x="4.28" y="276.94" class="st2" v:langID="1028"><v:paragraph v:horizAlign="1"/><v:tabList/>慧學</text>		</g>
		<g id="shape12-34" v:mID="12" v:groupContext="shape" transform="translate(19.1098,-125.641)">
			<title>工作表.12</title>
			<desc>一乘</desc>
			<v:textBlock v:margins="rect(4,4,4,4)" v:tabSpace="42.5197"/>
			<v:textRect cx="20.2835" cy="271.956" width="40.57" height="41.3465"/>
			<rect x="0" y="251.283" width="40.5669" height="41.3465" class="st1"/>
			<text x="4.28" y="276.94" class="st2" v:langID="1028"><v:paragraph v:horizAlign="1"/><v:tabList/>一乘</text>		</g>
		<g id="shape13-37" v:mID="13" v:groupContext="shape" transform="translate(68.3263,-61.2751)">
			<title>工作表.13</title>
			<path d="M0 292.63 L7.09 292.63" class="st3"/>
		</g>
		<g id="shape14-40" v:mID="14" v:groupContext="shape" transform="translate(68.3263,-231.354)">
			<title>工作表.14</title>
			<path d="M0 292.63 L7.09 292.63" class="st3"/>
		</g>
		<g id="shape15-43" v:mID="15" v:groupContext="shape" transform="translate(-224.303,231.354) rotate(-90)">
			<title>工作表.15</title>
			<path d="M0 292.63 L170.08 292.63" class="st3"/>
		</g>
		<g id="shape16-46" v:mID="16" v:groupContext="shape" transform="translate(61.2397,-146.314)">
			<title>工作表.16</title>
			<path d="M0 292.63 L7.09 292.63" class="st3"/>
		</g>
		<g id="group21-49" transform="translate(-13.1216,265.37) rotate(-90)" v:mID="21" v:groupContext="group">
			<title>工作表.21</title>
			<g id="shape17-50" v:mID="17" v:groupContext="shape" transform="translate(0,-260.787)">
				<title>工作表.17</title>
				<path d="M0 292.63 L238.11 292.63" class="st4"/>
			</g>
			<g id="shape18-53" v:mID="18" v:groupContext="shape">
				<title>工作表.18</title>
				<path d="M0 292.63 L238.11 292.63" class="st4"/>
			</g>
			<g id="shape19-56" v:mID="19" v:groupContext="shape" transform="translate(530.739,31.8416) rotate(90)">
				<title>工作表.19</title>
				<path d="M0 292.63 L260.79 292.63" class="st4"/>
			</g>
			<g id="shape20-59" v:mID="20" v:groupContext="shape" transform="translate(292.629,31.8416) rotate(90)">
				<title>工作表.20</title>
				<path d="M0 292.63 L260.79 292.63" class="st4"/>
			</g>
		</g>
		<g id="shape22-62" v:mID="22" v:groupContext="shape" transform="translate(2.88799,-37.712) rotate(-23.1501)">
			<title>工作表.22</title>
			<path d="M0 292.63 L108.15 292.63" class="st3"/>
		</g>
		<g id="shape23-65" v:mID="23" v:groupContext="shape" transform="translate(-128.535,73.6021) rotate(-57.3787)">
			<title>工作表.23</title>
			<path d="M0 292.63 L184.47 292.63" class="st3"/>
		</g>
		<g id="shape24-68" v:mID="24" v:groupContext="shape" transform="translate(-139.414,92.0535) rotate(-61.5735)">
			<title>工作表.24</title>
			<path d="M0 292.63 L208.9 292.63" class="st3"/>
		</g>
		<g id="shape25-71" v:mID="25" v:groupContext="shape" transform="translate(232.977,-122.751) rotate(23.1501)">
			<title>工作表.25</title>
			<path d="M0 292.63 L108.15 292.63" class="st3"/>
		</g>
		<g id="shape26-74" v:mID="26" v:groupContext="shape" transform="translate(288.02,-91.8075) rotate(35.5377)">
			<title>工作表.26</title>
			<path d="M0 292.63 L121.92 292.63" class="st3"/>
		</g>
		<g id="shape27-77" v:mID="27" v:groupContext="shape" transform="translate(324.853,-60.6054) rotate(45)">
			<title>工作表.27</title>
			<path d="M0 292.63 L140.31 292.63" class="st3"/>
		</g>
		<g id="shape28-80" v:mID="28" v:groupContext="shape" transform="translate(232.745,-207.791) rotate(23.1501)">
			<title>工作表.28</title>
			<path d="M0 292.63 L108.15 292.63" class="st3"/>
		</g>
		<g id="shape29-83" v:mID="29" v:groupContext="shape" transform="translate(288.109,-176.617) rotate(35.6151)">
			<title>工作表.29</title>
			<path d="M0 292.63 L122.61 292.63" class="st3"/>
		</g>
		<g id="shape30-86" v:mID="30" v:groupContext="shape" transform="translate(324.694,-145.571) rotate(45.0204)">
			<title>工作表.30</title>
			<path d="M0 292.63 L141.01 292.63" class="st3"/>
		</g>
		<g id="shape31-89" v:mID="31" v:groupContext="shape" transform="translate(348.28,-118.904) rotate(51.9952)">
			<title>工作表.31</title>
			<path d="M0 292.63 L161.89 292.63" class="st3"/>
		</g>
	</g>
</svg>
