<?xml version="1.0" encoding="UTF-8" standalone="no"?>
<!DOCTYPE svg PUBLIC "-//W3C//DTD SVG 1.1//EN" "http://www.w3.org/Graphics/SVG/1.1/DTD/svg11.dtd">
<!-- 由 Microsoft Visio, SVG Export 產生 y12.0307.svg 頁-1 -->
<svg xmlns="http://www.w3.org/2000/svg" xmlns:xlink="http://www.w3.org/1999/xlink" xmlns:ev="http://www.w3.org/2001/xml-events"
		width="5.42918in" height="3.0415in" viewBox="0 0 390.901 218.988" xml:space="preserve" color-interpolation-filters="sRGB"
		class="st6">
	

	<style type="text/css">
	<![CDATA[
		.st1 {fill:none;stroke:none;stroke-linecap:round;stroke-linejoin:round;stroke-width:0.72}
		.st2 {fill:#000000;font-family:新細明體;font-size:1.33333em}
		.st3 {font-family:細明體;font-size:1em}
		.st4 {fill:#000000;font-family:細明體;font-size:1.33333em}
		.st5 {stroke:#000000;stroke-linecap:round;stroke-linejoin:round;stroke-width:0.72}
		.st6 {fill:none;fill-rule:evenodd;font-size:12px;overflow:visible;stroke-linecap:square;stroke-miterlimit:3}
	]]>
	</style>

	<g>
		<title>頁-1</title>
		<g id="group24-1" transform="translate(0.36,-0.36)">
			<title>工作表.24</title>
			<g id="shape1-2" transform="translate(302.134,-99.2126)">
				<title>工作表.1</title>
				<desc>能治八斷行</desc>
				<rect x="0" y="199.145" width="88.0472" height="19.8425" class="st1"/>
				<text x="4.02" y="214.05" class="st2">能治八斷行</text>			</g>
			<g id="shape2-5" transform="translate(-1.59872E-14,-77.9528)">
				<title>工作表.2</title>
				<desc>所滅五過失</desc>
				<rect x="0" y="199.145" width="88.0472" height="19.8425" class="st1"/>
				<text x="4.02" y="214.05" class="st2">所滅五過失</text>			</g>
			<g id="shape3-8" transform="translate(101.858,0)">
				<title>工作表.3</title>
				<desc>作行…………………捨　</desc>
				<rect x="0" y="199.145" width="186.465" height="19.8425" class="st1"/>
				<text x="5.23" y="214.05" class="st2">作行<tspan class="st3">…………………</tspan>捨</text>			</g>
			<g id="shape4-12" transform="translate(101.858,-28.0354)">
				<title>工作表.4</title>
				<desc>不作行………………思　</desc>
				<rect x="0" y="199.145" width="186.465" height="19.8425" class="st1"/>
				<text x="5.23" y="214.05" class="st2">不作行<tspan class="st3">………………</tspan>思</text>			</g>
			<g id="shape5-16" transform="translate(101.858,-57.0039)">
				<title>工作表.5</title>
				<desc>惛沈掉舉……………正知</desc>
				<rect x="0" y="199.145" width="186.465" height="19.8425" class="st1"/>
				<text x="5.23" y="214.05" class="st4">惛沈掉舉……………正知</text>			</g>
			<g id="shape6-19" transform="translate(101.858,-84.7283)">
				<title>工作表.6</title>
				<desc>忘聖言………………正念</desc>
				<rect x="0" y="199.145" width="186.465" height="19.8425" class="st1"/>
				<text x="5.23" y="214.05" class="st4">忘聖言………………正念</text>			</g>
			<g id="shape7-22" transform="translate(101.858,-155.906)">
				<title>工作表.7</title>
				<desc>懈怠………………</desc>
				<rect x="0" y="199.145" width="138.276" height="19.8425" class="st1"/>
				<text x="5.14" y="214.05" class="st4">懈怠………………</text>			</g>
			<g id="shape8-25" transform="translate(246.15,-113.386)">
				<title>工作表.8</title>
				<desc>輕安</desc>
				<rect x="0" y="199.145" width="41.9843" height="19.8425" class="st1"/>
				<text x="4.99" y="214.05" class="st2">輕安</text>			</g>
			<g id="shape9-28" transform="translate(246.15,-170.079)">
				<title>工作表.9</title>
				<desc>精進</desc>
				<rect x="0" y="199.145" width="41.9843" height="19.8425" class="st1"/>
				<text x="4.99" y="214.05" class="st2">精進</text>			</g>
			<g id="shape10-31" transform="translate(246.15,-198.425)">
				<title>工作表.10</title>
				<desc>欲　</desc>
				<rect x="0" y="199.145" width="41.9843" height="19.8425" class="st1"/>
				<text x="4.99" y="214.05" class="st2">欲</text>			</g>
			<g id="shape11-34" transform="translate(246.15,-141.732)">
				<title>工作表.11</title>
				<desc>信　</desc>
				<rect x="0" y="199.145" width="41.9843" height="19.8425" class="st1"/>
				<text x="4.99" y="214.05" class="st2">信</text>			</g>
			<g id="shape12-37" transform="translate(102.965,428.054) rotate(180)">
				<title>工作表.12</title>
				<path d="M0 218.99 L7.09 218.99" class="st5"/>
			</g>
			<g id="shape13-40" transform="translate(102.965,272.149) rotate(180)">
				<title>工作表.13</title>
				<path d="M0 218.99 L7.09 218.99" class="st5"/>
			</g>
			<g id="shape14-43" transform="translate(95.878,350.101) rotate(180)">
				<title>工作表.14</title>
				<path d="M0 218.99 L7.09 218.99" class="st5"/>
			</g>
			<g id="shape15-46" transform="translate(-123.11,209.066) rotate(-90)">
				<title>工作表.15</title>
				<path d="M0 218.99 L155.91 218.99" class="st5"/>
			</g>
			<g id="shape16-49" transform="translate(292.886,229.629) rotate(180)">
				<title>工作表.16</title>
				<path d="M0 218.99 L7.09 218.99" class="st5"/>
			</g>
			<g id="shape17-52" transform="translate(292.886,428.054) rotate(180)">
				<title>工作表.17</title>
				<path d="M0 218.99 L7.09 218.99" class="st5"/>
			</g>
			<g id="shape18-55" transform="translate(73.8981,209.066) rotate(-90)">
				<title>工作表.18</title>
				<path d="M0 218.99 L198.43 218.99" class="st5"/>
			</g>
			<g id="shape19-58" transform="translate(299.972,328.842) rotate(180)">
				<title>工作表.19</title>
				<path d="M0 218.99 L7.09 218.99" class="st5"/>
			</g>
			<g id="shape20-61" transform="translate(247.531,314.668) rotate(180)">
				<title>工作表.20</title>
				<path d="M0 218.99 L7.09 218.99" class="st5"/>
			</g>
			<g id="shape21-64" transform="translate(247.531,229.629) rotate(180)">
				<title>工作表.21</title>
				<path d="M0 218.99 L7.09 218.99" class="st5"/>
			</g>
			<g id="shape22-67" transform="translate(21.4572,95.6806) rotate(-90)">
				<title>工作表.22</title>
				<path d="M0 218.99 L85.04 218.99" class="st5"/>
			</g>
			<g id="shape23-70" transform="translate(240.445,272.149) rotate(180)">
				<title>工作表.23</title>
				<path d="M0 218.99 L7.09 218.99" class="st5"/>
			</g>
		</g>
	</g>
</svg>
