<?xml version="1.0" encoding="UTF-8" standalone="no"?>
<!DOCTYPE svg PUBLIC "-//W3C//DTD SVG 1.0//EN" "http://www.w3.org/TR/2001/REC-SVG-20010904/DTD/svg10.dtd">
<!-- 由 Microsoft Visio 11.0, SVG Export, v1.0 產生 y25.0161.svg Page-1 -->
<svg xmlns="http://www.w3.org/2000/svg" xmlns:xlink="http://www.w3.org/1999/xlink" xmlns:ev="http://www.w3.org/2001/xml-events"
		xmlns:v="http://schemas.microsoft.com/visio/2003/SVGExtensions/" width="11.1577in" height="8.63801in"
		viewBox="0 0 803.354 621.937" xml:space="preserve" color-interpolation-filters="sRGB" class="st8">
	<v:documentProperties v:langID="1028" v:metric="true" v:viewMarkup="false">
		<v:userDefs>
			<v:ud v:nameU="msvSubprocessMaster" v:prompt="" v:val="VT4(Box)"/>
			<v:ud v:nameU="msvNoAutoConnect" v:val="VT0(1):26"/>
		</v:userDefs>
	</v:documentProperties>

	<style type="text/css">
	<![CDATA[
		.st1 {fill:none;stroke:#000000;stroke-linecap:round;stroke-linejoin:round;stroke-opacity:0;stroke-width:1}
		.st2 {fill:#000000;font-family:新細明體;font-size:1.33333em}
		.st3 {fill:#000000;font-family:新細明體;font-size:1.00001em}
		.st4 {stroke:#000000;stroke-linecap:round;stroke-linejoin:round;stroke-width:1}
		.st5 {font-size:1em}
		.st6 {stroke:#ffffff;stroke-linecap:round;stroke-linejoin:round;stroke-opacity:0;stroke-width:1}
		.st7 {stroke:#ffffff;stroke-linecap:round;stroke-linejoin:round;stroke-opacity:0;stroke-width:0.24}
		.st8 {fill:none;fill-rule:evenodd;font-size:12px;overflow:visible;stroke-linecap:square;stroke-miterlimit:3}
	]]>
	</style>

	<g v:mID="0" v:index="1" v:groupContext="foregroundPage">
		<title>頁-1</title>
		<v:pageProperties v:drawingScale="0.0393701" v:pageScale="0.0393701" v:drawingUnits="24" v:shadowOffsetX="8.50394"
				v:shadowOffsetY="-8.50394"/>
		<g id="group110-1" transform="translate(19,-19)" v:mID="110" v:groupContext="group">
			<title>工作表.110</title>
			<g id="shape1-2" v:mID="1" v:groupContext="shape" transform="translate(-303.039,235.008) rotate(-90)">
				<title>工作表.1</title>
				<rect x="0" y="528.394" width="93.5433" height="93.5433" class="st1"/>
			</g>
			<g id="shape2-4" v:mID="2" v:groupContext="shape" transform="translate(340.157,-425.197)">
				<title>工作表.2</title>
				<desc>成就勝解</desc>
				<v:textBlock v:margins="rect(4,4,4,4)" v:tabSpace="42.5197"/>
				<v:textRect cx="36.8504" cy="585.087" width="73.71" height="73.7008"/>
				<rect x="0" y="548.236" width="73.7008" height="73.7008" class="st1"/>
				<text x="4.85" y="589.89" class="st2" v:langID="1028"><v:paragraph v:horizAlign="1"/><v:tabList/>成就勝解</text>			</g>
			<g id="shape3-7" v:mID="3" v:groupContext="shape" transform="translate(340.157,0)">
				<title>工作表.3</title>
				<desc>會歸一實</desc>
				<v:textBlock v:margins="rect(4,4,4,4)" v:tabSpace="42.5197"/>
				<v:textRect cx="36.8504" cy="585.087" width="73.71" height="73.7008"/>
				<rect x="0" y="548.236" width="73.7008" height="73.7008" class="st1"/>
				<text x="4.85" y="589.89" class="st2" v:langID="1028"><v:paragraph v:horizAlign="1"/><v:tabList/>會歸一實</text>			</g>
			<g id="shape4-10" v:mID="4" v:groupContext="shape" transform="translate(339.449,-367.087)">
				<title>工作表.4</title>
				<desc>正修加行</desc>
				<v:textBlock v:margins="rect(4,4,4,4)" v:tabSpace="42.5197"/>
				<v:textRect cx="37.5591" cy="584.378" width="75.12" height="75.1181"/>
				<rect x="0" y="546.819" width="75.1181" height="75.1181" class="st1"/>
				<text x="5.56" y="589.18" class="st2" v:langID="1028"><v:paragraph v:horizAlign="1"/><v:tabList/>正修加行</text>			</g>
			<g id="shape5-13" v:mID="5" v:groupContext="shape" transform="translate(397.24,-377.347)">
				<title>工作表.5</title>
				<desc>七</desc>
				<v:textBlock v:margins="rect(4,4,4,4)" v:tabSpace="42.5197"/>
				<v:textRect cx="25.7382" cy="593.339" width="51.48" height="57.196"/>
				<rect x="0" y="564.741" width="51.4764" height="57.196" class="st1"/>
				<text x="7.74" y="596.94" class="st3" v:langID="1028"><v:paragraph v:horizAlign="1"/><v:tabList/>（七）</text>			</g>
			<g id="shape6-16" v:mID="6" v:groupContext="shape" transform="translate(439.37,-453.543)">
				<title>工作表.6</title>
				<desc>善辨中邊</desc>
				<v:textBlock v:margins="rect(4,4,4,4)" v:tabSpace="42.5197"/>
				<v:textRect cx="36.8504" cy="585.087" width="73.71" height="73.7008"/>
				<rect x="0" y="548.236" width="73.7008" height="73.7008" class="st1"/>
				<text x="4.85" y="589.89" class="st2" v:langID="1028"><v:paragraph v:horizAlign="1"/><v:tabList/>善辨中邊</text>			</g>
			<g id="shape7-19" v:mID="7" v:groupContext="shape" transform="translate(538.583,-425.197)">
				<title>工作表.7</title>
				<desc>遠離增減</desc>
				<v:textBlock v:margins="rect(4,4,4,4)" v:tabSpace="42.5197"/>
				<v:textRect cx="36.8504" cy="585.087" width="73.71" height="73.7008"/>
				<rect x="0" y="548.236" width="73.7008" height="73.7008" class="st1"/>
				<text x="4.85" y="589.89" class="st2" v:langID="1028"><v:paragraph v:horizAlign="1"/><v:tabList/>遠離增減</text>			</g>
			<g id="shape8-22" v:mID="8" v:groupContext="shape" transform="translate(538.583,-481.89)">
				<title>工作表.8</title>
				<desc>開示性相</desc>
				<v:textBlock v:margins="rect(4,4,4,4)" v:tabSpace="42.5197"/>
				<v:textRect cx="36.8504" cy="585.087" width="73.71" height="73.7008"/>
				<rect x="0" y="548.236" width="73.7008" height="73.7008" class="st1"/>
				<text x="4.85" y="589.89" class="st2" v:langID="1028"><v:paragraph v:horizAlign="1"/><v:tabList/>開示性相</text>			</g>
			<g id="shape9-25" v:mID="9" v:groupContext="shape" transform="translate(439.37,-396.85)">
				<title>工作表.9</title>
				<desc>解釋深密</desc>
				<v:textBlock v:margins="rect(4,4,4,4)" v:tabSpace="42.5197"/>
				<v:textRect cx="36.8504" cy="585.087" width="73.71" height="73.7008"/>
				<rect x="0" y="548.236" width="73.7008" height="73.7008" class="st1"/>
				<text x="4.85" y="589.89" class="st2" v:langID="1028"><v:paragraph v:horizAlign="1"/><v:tabList/>解釋深密</text>			</g>
			<g id="shape10-28" v:mID="10" v:groupContext="shape" transform="translate(637.795,-481.89)">
				<title>工作表.10</title>
				<desc>諸法自姓</desc>
				<v:textBlock v:margins="rect(4,4,4,4)" v:tabSpace="42.5197"/>
				<v:textRect cx="36.8504" cy="585.087" width="73.71" height="73.7008"/>
				<rect x="0" y="548.236" width="73.7008" height="73.7008" class="st1"/>
				<text x="4.85" y="589.89" class="st2" v:langID="1028"><v:paragraph v:horizAlign="1"/><v:tabList/>諸法自姓</text>			</g>
			<g id="shape11-31" v:mID="11" v:groupContext="shape" transform="translate(637.795,-510.236)">
				<title>工作表.11</title>
				<desc>心意意識</desc>
				<v:textBlock v:margins="rect(4,4,4,4)" v:tabSpace="42.5197"/>
				<v:textRect cx="36.8504" cy="585.087" width="73.71" height="73.7008"/>
				<rect x="0" y="548.236" width="73.7008" height="73.7008" class="st1"/>
				<text x="4.85" y="589.89" class="st2" v:langID="1028"><v:paragraph v:horizAlign="1"/><v:tabList/>心意意識</text>			</g>
			<g id="shape12-34" v:mID="12" v:groupContext="shape" transform="translate(637.795,-453.543)">
				<title>工作表.12</title>
				<desc>二無我相</desc>
				<v:textBlock v:margins="rect(4,4,4,4)" v:tabSpace="42.5197"/>
				<v:textRect cx="36.8504" cy="585.087" width="73.71" height="73.7008"/>
				<rect x="0" y="548.236" width="73.7008" height="73.7008" class="st1"/>
				<text x="4.85" y="589.89" class="st2" v:langID="1028"><v:paragraph v:horizAlign="1"/><v:tabList/>二無我相</text>			</g>
			<g id="shape13-37" v:mID="13" v:groupContext="shape" transform="translate(700.256,-464.98)">
				<title>工作表.13</title>
				<desc>四</desc>
				<v:textBlock v:margins="rect(4,4,4,4)" v:tabSpace="42.5197"/>
				<v:textRect cx="22.9163" cy="596.474" width="45.84" height="50.9252"/>
				<rect x="0" y="571.012" width="45.8327" height="50.9252" class="st1"/>
				<text x="4.92" y="600.07" class="st3" v:langID="1028"><v:paragraph v:horizAlign="1"/><v:tabList/>（四）</text>			</g>
			<g id="shape14-40" v:mID="14" v:groupContext="shape" transform="translate(595.648,-432.333)">
				<title>工作表.14</title>
				<desc>五</desc>
				<v:textBlock v:margins="rect(4,4,4,4)" v:tabSpace="42.5197"/>
				<v:textRect cx="26.7431" cy="592.222" width="53.49" height="59.4291"/>
				<rect x="0" y="562.508" width="53.4862" height="59.4291" class="st1"/>
				<text x="8.74" y="595.82" class="st3" v:langID="1028"><v:paragraph v:horizAlign="1"/><v:tabList/>（五）</text>			</g>
			<g id="shape15-43" v:mID="15" v:groupContext="shape" transform="translate(498.947,-405.464)">
				<title>工作表.15</title>
				<desc>六</desc>
				<v:textBlock v:margins="rect(4,4,4,4)" v:tabSpace="42.5197"/>
				<v:textRect cx="25.4626" cy="593.645" width="50.93" height="56.5836"/>
				<rect x="0" y="565.353" width="50.9252" height="56.5836" class="st1"/>
				<text x="7.46" y="597.25" class="st3" v:langID="1028"><v:paragraph v:horizAlign="1"/><v:tabList/>（六）</text>			</g>
			<g id="shape16-46" v:mID="16" v:groupContext="shape" transform="translate(697.421,-518.74)">
				<title>工作表.16</title>
				<desc>二</desc>
				<v:textBlock v:margins="rect(4,4,4,4)" v:tabSpace="42.5197"/>
				<v:textRect cx="25.4626" cy="593.645" width="50.93" height="56.5836"/>
				<rect x="0" y="565.353" width="50.9252" height="56.5836" class="st1"/>
				<text x="7.46" y="597.25" class="st3" v:langID="1028"><v:paragraph v:horizAlign="1"/><v:tabList/>（二）</text>			</g>
			<g id="shape17-49" v:mID="17" v:groupContext="shape" transform="translate(697.421,-490.503)">
				<title>工作表.17</title>
				<desc>三</desc>
				<v:textBlock v:margins="rect(4,4,4,4)" v:tabSpace="42.5197"/>
				<v:textRect cx="25.4626" cy="593.645" width="50.93" height="56.5836"/>
				<rect x="0" y="565.353" width="50.9252" height="56.5836" class="st1"/>
				<text x="7.46" y="597.25" class="st3" v:langID="1028"><v:paragraph v:horizAlign="1"/><v:tabList/>（三）</text>			</g>
			<g id="shape20-52" v:mID="20" v:groupContext="shape" transform="translate(198.425,-79.3701)">
				<title>工作表.20</title>
				<path d="M0 621.94 L13.46 621.94" class="st4"/>
			</g>
			<g id="shape21-55" v:mID="21" v:groupContext="shape" transform="translate(-423.512,542.567) rotate(-90)">
				<title>工作表.21</title>
				<path d="M0 621.94 L354.33 621.94" class="st4"/>
			</g>
			<g id="shape37-58" v:mID="37" v:groupContext="shape" transform="translate(340.157,-311.811)">
				<title>工作表.37</title>
				<desc>能 入 道</desc>
				<v:textBlock v:margins="rect(4,4,4,4)" v:tabSpace="42.5197"/>
				<v:textRect cx="36.8504" cy="585.087" width="73.71" height="73.7008"/>
				<rect x="0" y="548.236" width="73.7008" height="73.7008" class="st1"/>
				<text x="4.54" y="589.89" class="st2" v:langID="1028"><v:paragraph v:horizAlign="1"/><v:tabList/>能  入  道</text>			</g>
			<g id="shape38-61" v:mID="38" v:groupContext="shape" transform="translate(439.37,-311.811)">
				<title>工作表.38</title>
				<desc>善解果智</desc>
				<v:textBlock v:margins="rect(4,4,4,4)" v:tabSpace="42.5197"/>
				<v:textRect cx="36.8504" cy="585.087" width="73.71" height="73.7008"/>
				<rect x="0" y="548.236" width="73.7008" height="73.7008" class="st1"/>
				<text x="4.85" y="589.89" class="st2" v:langID="1028"><v:paragraph v:horizAlign="1"/><v:tabList/>善解果智</text>			</g>
			<g id="shape39-64" v:mID="39" v:groupContext="shape" transform="translate(439.37,-340.157)">
				<title>工作表.39</title>
				<desc>正觀緣起</desc>
				<v:textBlock v:margins="rect(4,4,4,4)" v:tabSpace="42.5197"/>
				<v:textRect cx="36.8504" cy="585.087" width="73.71" height="73.7008"/>
				<rect x="0" y="548.236" width="73.7008" height="73.7008" class="st1"/>
				<text x="4.85" y="589.89" class="st2" v:langID="1028"><v:paragraph v:horizAlign="1"/><v:tabList/>正觀緣起</text>			</g>
			<g id="shape40-67" v:mID="40" v:groupContext="shape" transform="translate(496.161,-348.771)">
				<title>工作表.40</title>
				<desc>八</desc>
				<v:textBlock v:margins="rect(4,4,4,4)" v:tabSpace="42.5197"/>
				<v:textRect cx="25.4626" cy="593.645" width="50.93" height="56.5836"/>
				<rect x="0" y="565.353" width="50.9252" height="56.5836" class="st1"/>
				<text x="7.46" y="597.25" class="st3" v:langID="1028"><v:paragraph v:horizAlign="1"/><v:tabList/>（八）</text>			</g>
			<g id="shape41-70" v:mID="41" v:groupContext="shape" transform="translate(497.004,-320.424)">
				<title>工作表.41</title>
				<desc>九</desc>
				<v:textBlock v:margins="rect(4,4,4,4)" v:tabSpace="42.5197"/>
				<v:textRect cx="25.4626" cy="593.645" width="50.93" height="56.5836"/>
				<rect x="0" y="565.353" width="50.9252" height="56.5836" class="st1"/>
				<text x="7.46" y="597.25" class="st3" v:langID="1028"><v:paragraph v:horizAlign="1"/><v:tabList/>（九）</text>			</g>
			<g id="shape42-73" v:mID="42" v:groupContext="shape" transform="translate(439.37,-283.465)">
				<title>工作表.42</title>
				<desc>遠離妄想</desc>
				<v:textBlock v:margins="rect(4,4,4,4)" v:tabSpace="42.5197"/>
				<v:textRect cx="36.8504" cy="585.087" width="73.71" height="73.7008"/>
				<rect x="0" y="548.236" width="73.7008" height="73.7008" class="st1"/>
				<text x="4.85" y="589.89" class="st2" v:langID="1028"><v:paragraph v:horizAlign="1"/><v:tabList/>遠離妄想</text>			</g>
			<g id="shape43-76" v:mID="43" v:groupContext="shape" transform="translate(496.063,-284.882)">
				<title>工作表.43</title>
				<desc>一O</desc>
				<v:textBlock v:margins="rect(4,4,4,4)" v:tabSpace="42.5197"/>
				<v:textRect cx="31.8898" cy="586.504" width="63.78" height="70.8661"/>
				<rect x="0" y="551.071" width="63.7795" height="70.8661" class="st1"/>
				<text x="9.82" y="590.1" class="st3" v:langID="1028"><v:paragraph v:horizAlign="1"/><v:tabList/>（一<tspan
							class="st5" v:langID="1033">O</tspan>）</text>			</g>
			<g id="group44-80" transform="translate(15.8583,131.543) rotate(-90)" v:mID="44" v:groupContext="group">
				<title>工作表.44</title>
				<g id="shape30-81" v:mID="30" v:groupContext="shape" transform="translate(2.79776E-014,-14.1732)">
					<title>工作表.30</title>
					<path d="M0 621.94 L56.69 621.94" class="st4"/>
				</g>
				<g id="shape31-84" v:mID="31" v:groupContext="shape" transform="translate(650.283,593.591) rotate(90)">
					<title>工作表.31</title>
					<path d="M0 621.94 L28.35 621.94" class="st4"/>
				</g>
				<g id="shape32-87" v:mID="32" v:groupContext="shape" transform="translate(621.937,607.764) rotate(90)">
					<title>工作表.32</title>
					<path d="M0 621.94 L13.46 621.94" class="st4"/>
				</g>
				<g id="shape33-90" v:mID="33" v:groupContext="shape" transform="translate(678.63,607.764) rotate(90)">
					<title>工作表.33</title>
					<path d="M0 621.94 L13.46 621.94" class="st4"/>
				</g>
			</g>
			<g id="group45-93" transform="translate(-182.567,301.622) rotate(-90)" v:mID="45" v:groupContext="group">
				<title>工作表.45</title>
				<g id="shape46-94" v:mID="46" v:groupContext="shape" transform="translate(2.79776E-014,-14.1732)">
					<title>工作表.46</title>
					<path d="M0 621.94 L56.69 621.94" class="st4"/>
				</g>
				<g id="shape47-97" v:mID="47" v:groupContext="shape" transform="translate(650.283,593.591) rotate(90)">
					<title>工作表.47</title>
					<path d="M0 621.94 L28.35 621.94" class="st4"/>
				</g>
				<g id="shape48-100" v:mID="48" v:groupContext="shape" transform="translate(621.937,607.764) rotate(90)">
					<title>工作表.48</title>
					<path d="M0 621.94 L13.46 621.94" class="st4"/>
				</g>
				<g id="shape49-103" v:mID="49" v:groupContext="shape" transform="translate(678.63,607.764) rotate(90)">
					<title>工作表.49</title>
					<path d="M0 621.94 L13.46 621.94" class="st4"/>
				</g>
			</g>
			<g id="group50-106" transform="translate(-84.063,159.89) rotate(-90)" v:mID="50" v:groupContext="group">
				<title>工作表.50</title>
				<g id="shape29-107" v:mID="29" v:groupContext="shape" transform="translate(-3.59712E-014,-13.4646)">
					<title>工作表.29</title>
					<path d="M0 621.94 L56.69 621.94" class="st4"/>
				</g>
				<g id="shape34-110" v:mID="34" v:groupContext="shape" transform="translate(621.937,608.472) rotate(90)">
					<title>工作表.34</title>
					<path d="M0 621.94 L13.46 621.94" class="st4"/>
				</g>
				<g id="shape35-113" v:mID="35" v:groupContext="shape" transform="translate(678.63,608.472) rotate(90)">
					<title>工作表.35</title>
					<path d="M0 621.94 L13.46 621.94" class="st4"/>
				</g>
				<g id="shape36-116" v:mID="36" v:groupContext="shape" transform="translate(650.283,594.299) rotate(90)">
					<title>工作表.36</title>
					<path d="M0 621.94 L13.46 621.94" class="st4"/>
				</g>
			</g>
			<g id="group51-119" transform="translate(-183.276,188.236) rotate(-90)" v:mID="51" v:groupContext="group">
				<title>工作表.51</title>
				<g id="shape18-120" v:mID="18" v:groupContext="shape" transform="translate(650.283,594.299) rotate(90)">
					<title>工作表.18</title>
					<path d="M0 621.94 L13.46 621.94" class="st4"/>
				</g>
				<g id="shape26-123" v:mID="26" v:groupContext="shape" transform="translate(621.937,608.472) rotate(90)">
					<title>工作表.26</title>
					<path d="M0 621.94 L13.46 621.94" class="st4"/>
				</g>
				<g id="shape27-126" v:mID="27" v:groupContext="shape" transform="translate(678.63,608.472) rotate(90)">
					<title>工作表.27</title>
					<path d="M0 621.94 L13.46 621.94" class="st4"/>
				</g>
				<g id="shape28-129" v:mID="28" v:groupContext="shape" transform="translate(5.59552E-014,-13.4646)">
					<title>工作表.28</title>
					<path d="M0 621.94 L56.69 621.94" class="st4"/>
				</g>
			</g>
			<g id="group52-132" transform="translate(-282.488,216.583) rotate(-90)" v:mID="52" v:groupContext="group">
				<title>工作表.52</title>
				<g id="shape22-133" v:mID="22" v:groupContext="shape" transform="translate(650.283,594.299) rotate(90)">
					<title>工作表.22</title>
					<path d="M0 621.94 L13.46 621.94" class="st4"/>
				</g>
				<g id="shape23-136" v:mID="23" v:groupContext="shape" transform="translate(621.937,608.472) rotate(90)">
					<title>工作表.23</title>
					<path d="M0 621.94 L13.46 621.94" class="st4"/>
				</g>
				<g id="shape24-139" v:mID="24" v:groupContext="shape" transform="translate(678.63,608.472) rotate(90)">
					<title>工作表.24</title>
					<path d="M0 621.94 L13.46 621.94" class="st4"/>
				</g>
				<g id="shape25-142" v:mID="25" v:groupContext="shape" transform="translate(2.79776E-014,-13.4646)">
					<title>工作表.25</title>
					<path d="M0 621.94 L56.69 621.94" class="st4"/>
				</g>
			</g>
			<g id="shape53-145" v:mID="53" v:groupContext="shape" transform="translate(439.37,-226.772)">
				<title>工作表.53</title>
				<desc>兼通理教</desc>
				<v:textBlock v:margins="rect(4,4,4,4)" v:tabSpace="42.5197"/>
				<v:textRect cx="36.8504" cy="585.087" width="73.71" height="73.7008"/>
				<rect x="0" y="548.236" width="73.7008" height="73.7008" class="st1"/>
				<text x="4.85" y="589.89" class="st2" v:langID="1028"><v:paragraph v:horizAlign="1"/><v:tabList/>兼通理教</text>			</g>
			<g id="shape54-148" v:mID="54" v:groupContext="shape" transform="translate(439.37,-255.118)">
				<title>工作表.54</title>
				<desc>聖智自覺</desc>
				<v:textBlock v:margins="rect(4,4,4,4)" v:tabSpace="42.5197"/>
				<v:textRect cx="36.8504" cy="585.087" width="73.71" height="73.7008"/>
				<rect x="0" y="548.236" width="73.7008" height="73.7008" class="st1"/>
				<text x="4.85" y="589.89" class="st2" v:langID="1028"><v:paragraph v:horizAlign="1"/><v:tabList/>聖智自覺</text>			</g>
			<g id="shape55-151" v:mID="55" v:groupContext="shape" transform="translate(-196.74,358.315) rotate(-90)">
				<title>工作表.55</title>
				<path d="M0 621.94 L28.35 621.94" class="st4"/>
			</g>
			<g id="shape56-154" v:mID="56" v:groupContext="shape" transform="translate(425.197,-263.622)">
				<title>工作表.56</title>
				<path d="M0 621.94 L13.46 621.94" class="st4"/>
			</g>
			<g id="shape57-157" v:mID="57" v:groupContext="shape" transform="translate(425.906,-291.969)">
				<title>工作表.57</title>
				<path d="M0 621.94 L13.46 621.94" class="st4"/>
			</g>
			<g id="shape58-160" v:mID="58" v:groupContext="shape" transform="translate(411.024,-277.795)">
				<title>工作表.58</title>
				<path d="M0 621.94 L13.46 621.94" class="st4"/>
			</g>
			<g id="shape59-163" v:mID="59" v:groupContext="shape" transform="translate(340.157,-240.945)">
				<title>工作表.59</title>
				<desc>所 入 地</desc>
				<v:textBlock v:margins="rect(4,4,4,4)" v:tabSpace="42.5197"/>
				<v:textRect cx="36.8504" cy="585.087" width="73.71" height="73.7008"/>
				<rect x="0" y="548.236" width="73.7008" height="73.7008" class="st1"/>
				<text x="4.54" y="589.89" class="st2" v:langID="1028"><v:paragraph v:horizAlign="1"/><v:tabList/>所  入  地</text>			</g>
			<g id="shape61-166" v:mID="61" v:groupContext="shape" transform="translate(-295.953,344.142) rotate(-90)">
				<title>工作表.61</title>
				<path d="M0 621.94 L70.87 621.94" class="st4"/>
			</g>
			<g id="shape62-169" v:mID="62" v:groupContext="shape" transform="translate(325.984,-277.795)">
				<title>工作表.62</title>
				<path d="M0 621.94 L13.46 621.94" class="st4"/>
			</g>
			<g id="shape63-172" v:mID="63" v:groupContext="shape" transform="translate(311.811,-306.142)">
				<title>工作表.63</title>
				<path d="M0 621.94 L13.46 621.94" class="st4"/>
			</g>
			<g id="shape64-175" v:mID="64" v:groupContext="shape" transform="translate(325.984,-348.661)">
				<title>工作表.64</title>
				<path d="M0 621.94 L13.46 621.94" class="st4"/>
			</g>
			<g id="shape65-178" v:mID="65" v:groupContext="shape" transform="translate(499.74,-259.653)">
				<title>工作表.65</title>
				<desc>一一</desc>
				<v:textBlock v:margins="rect(4,4,4,4)" v:tabSpace="42.5197"/>
				<v:textRect cx="29.8425" cy="588.779" width="59.69" height="66.3167"/>
				<rect x="0" y="555.62" width="59.685" height="66.3167" class="st1"/>
				<text x="5.84" y="592.38" class="st3" v:langID="1028"><v:paragraph v:horizAlign="1"/><v:tabList/>（一一）</text>			</g>
			<g id="shape66-181" v:mID="66" v:groupContext="shape" transform="translate(496.906,-227.614)">
				<title>工作表.66</title>
				<desc>一二</desc>
				<v:textBlock v:margins="rect(4,4,4,4)" v:tabSpace="42.5197"/>
				<v:textRect cx="32.6772" cy="585.629" width="65.36" height="72.6159"/>
				<rect x="0" y="549.321" width="65.3543" height="72.6159" class="st1"/>
				<text x="8.68" y="589.23" class="st3" v:langID="1028"><v:paragraph v:horizAlign="1"/><v:tabList/>（一二）</text>			</g>
			<g id="shape67-184" v:mID="67" v:groupContext="shape" transform="translate(216.85,-158.031)">
				<title>工作表.67</title>
				<desc>入無所有地</desc>
				<v:textBlock v:margins="rect(4,4,4,4)" v:tabSpace="42.5197"/>
				<v:textRect cx="48.8976" cy="573.039" width="97.8" height="97.7953"/>
				<rect x="0" y="524.142" width="97.7953" height="97.7953" class="st1"/>
				<text x="0.25em 1.403em 2.556em 3.709em 4.862em" y="577.84" class="st2" v:langID="1028"><v:paragraph
							v:horizAlign="4"/><v:tabList/>入無所有地</text>			</g>
			<g id="shape68-187" v:mID="68" v:groupContext="shape" transform="translate(216.85,-385.512)">
				<title>工作表.68</title>
				<desc>入勝解行地</desc>
				<v:textBlock v:margins="rect(4,4,4,4)" v:tabSpace="42.5197"/>
				<v:textRect cx="48.8976" cy="573.039" width="97.8" height="97.7953"/>
				<rect x="0" y="524.142" width="97.7953" height="97.7953" class="st1"/>
				<text x="0.25em 1.403em 2.556em 3.709em 4.862em" y="577.84" class="st2" v:langID="1028"><v:paragraph
							v:horizAlign="4"/><v:tabList/>入勝解行地</text>			</g>
			<g id="shape60-190" v:mID="60" v:groupContext="shape" transform="translate(216.85,-257.953)">
				<title>工作表.60</title>
				<desc>入心量地</desc>
				<v:textBlock v:margins="rect(4,4,4,4)" v:tabSpace="42.5197"/>
				<v:textRect cx="48.8976" cy="573.039" width="97.8" height="97.7953"/>
				<rect x="0" y="524.142" width="97.7953" height="97.7953" class="st1"/>
				<text x="0.25em 1.787em 3.325em 4.862em" y="577.84" class="st2" v:langID="1028"><v:paragraph v:horizAlign="4"/><v:tabList/>入心量地</text>			</g>
			<g id="shape69-193" v:mID="69" v:groupContext="shape" transform="translate(340.157,-198.425)">
				<title>工作表.69</title>
				<desc>能 入 地</desc>
				<v:textBlock v:margins="rect(4,4,4,4)" v:tabSpace="42.5197"/>
				<v:textRect cx="36.8504" cy="585.087" width="73.71" height="73.7008"/>
				<rect x="0" y="548.236" width="73.7008" height="73.7008" class="st1"/>
				<text x="4.54" y="589.89" class="st2" v:langID="1028"><v:paragraph v:horizAlign="1"/><v:tabList/>能  入  地</text>			</g>
			<g id="shape70-196" v:mID="70" v:groupContext="shape" transform="translate(340.157,-141.732)">
				<title>工作表.70</title>
				<desc>所 入 地</desc>
				<v:textBlock v:margins="rect(4,4,4,4)" v:tabSpace="42.5197"/>
				<v:textRect cx="36.8504" cy="585.087" width="73.71" height="73.7008"/>
				<rect x="0" y="548.236" width="73.7008" height="73.7008" class="st1"/>
				<text x="4.54" y="589.89" class="st2" v:langID="1028"><v:paragraph v:horizAlign="1"/><v:tabList/>所  入  地</text>			</g>
			<g id="group71-199" transform="translate(-282.488,443.354) rotate(-90)" v:mID="71" v:groupContext="group">
				<title>工作表.71</title>
				<g id="shape72-200" v:mID="72" v:groupContext="shape" transform="translate(650.283,594.299) rotate(90)">
					<title>工作表.72</title>
					<path d="M0 621.94 L13.46 621.94" class="st4"/>
				</g>
				<g id="shape73-203" v:mID="73" v:groupContext="shape" transform="translate(621.937,608.472) rotate(90)">
					<title>工作表.73</title>
					<path d="M0 621.94 L13.46 621.94" class="st4"/>
				</g>
				<g id="shape74-206" v:mID="74" v:groupContext="shape" transform="translate(678.63,608.472) rotate(90)">
					<title>工作表.74</title>
					<path d="M0 621.94 L13.46 621.94" class="st4"/>
				</g>
				<g id="shape75-209" v:mID="75" v:groupContext="shape" transform="translate(2.79776E-014,-13.4646)">
					<title>工作表.75</title>
					<path d="M0 621.94 L56.69 621.94" class="st4"/>
				</g>
			</g>
			<g id="shape76-212" v:mID="76" v:groupContext="shape" transform="translate(401.024,-202.975)">
				<title>工作表.76</title>
				<desc>一三</desc>
				<v:textBlock v:margins="rect(4,4,4,4)" v:tabSpace="42.5197"/>
				<v:textRect cx="29.8425" cy="588.779" width="59.69" height="66.3167"/>
				<rect x="0" y="555.62" width="59.685" height="66.3167" class="st1"/>
				<text x="5.84" y="592.38" class="st3" v:langID="1028"><v:paragraph v:horizAlign="1"/><v:tabList/>（一三）</text>			</g>
			<g id="group77-215" transform="translate(-182.567,471.701) rotate(-90)" v:mID="77" v:groupContext="group">
				<title>工作表.77</title>
				<g id="shape78-216" v:mID="78" v:groupContext="shape" transform="translate(2.79776E-014,-14.1732)">
					<title>工作表.78</title>
					<path d="M0 621.94 L56.69 621.94" class="st4"/>
				</g>
				<g id="shape79-219" v:mID="79" v:groupContext="shape" transform="translate(650.283,593.591) rotate(90)">
					<title>工作表.79</title>
					<path d="M0 621.94 L28.35 621.94" class="st4"/>
				</g>
				<g id="shape80-222" v:mID="80" v:groupContext="shape" transform="translate(621.937,607.764) rotate(90)">
					<title>工作表.80</title>
					<path d="M0 621.94 L13.46 621.94" class="st4"/>
				</g>
				<g id="shape81-225" v:mID="81" v:groupContext="shape" transform="translate(678.63,607.764) rotate(90)">
					<title>工作表.81</title>
					<path d="M0 621.94 L13.46 621.94" class="st4"/>
				</g>
			</g>
			<g id="shape82-228" v:mID="82" v:groupContext="shape" transform="translate(439.37,-113.386)">
				<title>工作表.82</title>
				<desc>善通理教</desc>
				<v:textBlock v:margins="rect(4,4,4,4)" v:tabSpace="42.5197"/>
				<v:textRect cx="36.8504" cy="585.087" width="73.71" height="73.7008"/>
				<rect x="0" y="548.236" width="73.7008" height="73.7008" class="st1"/>
				<text x="4.85" y="589.89" class="st2" v:langID="1028"><v:paragraph v:horizAlign="1"/><v:tabList/>善通理教</text>			</g>
			<g id="shape83-231" v:mID="83" v:groupContext="shape" transform="translate(439.37,-141.732)">
				<title>工作表.83</title>
				<desc>自覺法性</desc>
				<v:textBlock v:margins="rect(4,4,4,4)" v:tabSpace="42.5197"/>
				<v:textRect cx="36.8504" cy="585.087" width="73.71" height="73.7008"/>
				<rect x="0" y="548.236" width="73.7008" height="73.7008" class="st1"/>
				<text x="4.85" y="589.89" class="st2" v:langID="1028"><v:paragraph v:horizAlign="1"/><v:tabList/>自覺法性</text>			</g>
			<g id="shape84-234" v:mID="84" v:groupContext="shape" transform="translate(439.37,-170.079)">
				<title>工作表.84</title>
				<desc>身心轉依</desc>
				<v:textBlock v:margins="rect(4,4,4,4)" v:tabSpace="42.5197"/>
				<v:textRect cx="36.8504" cy="585.087" width="73.71" height="73.7008"/>
				<rect x="0" y="548.236" width="73.7008" height="73.7008" class="st1"/>
				<text x="4.85" y="589.89" class="st2" v:langID="1028"><v:paragraph v:horizAlign="1"/><v:tabList/>身心轉依</text>			</g>
			<g id="shape85-237" v:mID="85" v:groupContext="shape" transform="translate(216.85,-30.4724)">
				<title>工作表.85</title>
				<desc>入最勝地</desc>
				<v:textBlock v:margins="rect(4,4,4,4)" v:tabSpace="42.5197"/>
				<v:textRect cx="48.8976" cy="573.039" width="97.8" height="97.7953"/>
				<rect x="0" y="524.142" width="97.7953" height="97.7953" class="st1"/>
				<text x="0.25em 1.787em 3.325em 4.862em" y="577.84" class="st2" v:langID="1028"><v:paragraph v:horizAlign="4"/><v:tabList/>入最勝地</text>			</g>
			<g id="shape86-240" v:mID="86" v:groupContext="shape" transform="translate(340.157,-28.3465)">
				<title>工作表.86</title>
				<desc>通攝四淨</desc>
				<v:textBlock v:margins="rect(4,4,4,4)" v:tabSpace="42.5197"/>
				<v:textRect cx="36.8504" cy="585.087" width="73.71" height="73.7008"/>
				<rect x="0" y="548.236" width="73.7008" height="73.7008" class="st1"/>
				<text x="4.85" y="589.89" class="st2" v:langID="1028"><v:paragraph v:horizAlign="1"/><v:tabList/>通攝四淨</text>			</g>
			<g id="shape87-243" v:mID="87" v:groupContext="shape" transform="translate(340.157,-56.6929)">
				<title>工作表.87</title>
				<desc>別論三德</desc>
				<v:textBlock v:margins="rect(4,4,4,4)" v:tabSpace="42.5197"/>
				<v:textRect cx="36.8504" cy="585.087" width="73.71" height="73.7008"/>
				<rect x="0" y="548.236" width="73.7008" height="73.7008" class="st1"/>
				<text x="4.85" y="589.89" class="st2" v:langID="1028"><v:paragraph v:horizAlign="1"/><v:tabList/>別論三德</text>			</g>
			<g id="shape88-246" v:mID="88" v:groupContext="shape" transform="translate(340.157,-85.0394)">
				<title>工作表.88</title>
				<desc>圓示二果</desc>
				<v:textBlock v:margins="rect(4,4,4,4)" v:tabSpace="42.5197"/>
				<v:textRect cx="36.8504" cy="585.087" width="73.71" height="73.7008"/>
				<rect x="0" y="548.236" width="73.7008" height="73.7008" class="st1"/>
				<text x="4.85" y="589.89" class="st2" v:langID="1028"><v:paragraph v:horizAlign="1"/><v:tabList/>圓示二果</text>			</g>
			<g id="shape89-249" v:mID="89" v:groupContext="shape" transform="translate(-295.953,585.087) rotate(-90)">
				<title>工作表.89</title>
				<path d="M0 621.94 L85.04 621.94" class="st4"/>
			</g>
			<g id="shape91-252" v:mID="91" v:groupContext="shape" transform="translate(325.984,-36.8504)">
				<title>工作表.91</title>
				<path d="M0 621.94 L13.46 621.94" class="st4"/>
			</g>
			<g id="shape92-255" v:mID="92" v:groupContext="shape" transform="translate(312.52,-79.3701)">
				<title>工作表.92</title>
				<path d="M0 621.94 L13.46 621.94" class="st4"/>
			</g>
			<g id="shape93-258" v:mID="93" v:groupContext="shape" transform="translate(325.984,-121.89)">
				<title>工作表.93</title>
				<path d="M0 621.94 L13.46 621.94" class="st4"/>
			</g>
			<g id="shape94-261" v:mID="94" v:groupContext="shape" transform="translate(325.984,-65.1969)">
				<title>工作表.94</title>
				<path d="M0 621.94 L13.46 621.94" class="st4"/>
			</g>
			<g id="shape95-264" v:mID="95" v:groupContext="shape" transform="translate(325.984,-93.5433)">
				<title>工作表.95</title>
				<path d="M0 621.94 L13.46 621.94" class="st4"/>
			</g>
			<g id="shape96-267" v:mID="96" v:groupContext="shape" transform="translate(401.181,-32.2135)">
				<title>工作表.96</title>
				<desc>一九</desc>
				<v:textBlock v:margins="rect(4,4,4,4)" v:tabSpace="42.5197"/>
				<v:textRect cx="29.685" cy="588.954" width="59.38" height="65.9668"/>
				<rect x="0" y="555.97" width="59.3701" height="65.9668" class="st1"/>
				<text x="5.68" y="592.55" class="st3" v:langID="1028"><v:paragraph v:horizAlign="1"/><v:tabList/>（一九）</text>			</g>
			<g id="shape97-270" v:mID="97" v:groupContext="shape" transform="translate(401.024,-61.2423)">
				<title>工作表.97</title>
				<desc>一八</desc>
				<v:textBlock v:margins="rect(4,4,4,4)" v:tabSpace="42.5197"/>
				<v:textRect cx="29.8425" cy="588.779" width="59.69" height="66.3167"/>
				<rect x="0" y="555.62" width="59.685" height="66.3167" class="st1"/>
				<text x="5.84" y="592.38" class="st3" v:langID="1028"><v:paragraph v:horizAlign="1"/><v:tabList/>（一八）</text>			</g>
			<g id="shape98-273" v:mID="98" v:groupContext="shape" transform="translate(399.764,-87.3316)">
				<title>工作表.98</title>
				<desc>一七</desc>
				<v:textBlock v:margins="rect(4,4,4,4)" v:tabSpace="42.5197"/>
				<v:textRect cx="31.1024" cy="587.379" width="62.21" height="69.1164"/>
				<rect x="0" y="552.821" width="62.2047" height="69.1164" class="st1"/>
				<text x="7.1" y="590.98" class="st3" v:langID="1028"><v:paragraph v:horizAlign="1"/><v:tabList/>（一七）</text>			</g>
			<g id="shape99-276" v:mID="99" v:groupContext="shape" transform="translate(398.976,-4.56693)">
				<title>工作表.99</title>
				<desc>二O</desc>
				<v:textBlock v:margins="rect(4,4,4,4)" v:tabSpace="42.5197"/>
				<v:textRect cx="29.0551" cy="589.654" width="58.12" height="64.5669"/>
				<rect x="0" y="557.37" width="58.1102" height="64.5669" class="st1"/>
				<text x="6.99" y="593.25" class="st3" v:langID="1028"><v:paragraph v:horizAlign="1"/><v:tabList/>（二<tspan
							class="st5" v:langID="1033">O</tspan>）</text>			</g>
			<g id="shape100-280" v:mID="100" v:groupContext="shape" transform="translate(500.394,-118.285)">
				<title>工作表.100</title>
				<desc>一六</desc>
				<v:textBlock v:margins="rect(4,4,4,4)" v:tabSpace="42.5197"/>
				<v:textRect cx="29.685" cy="588.954" width="59.38" height="65.9668"/>
				<rect x="0" y="555.97" width="59.3701" height="65.9668" class="st1"/>
				<text x="5.68" y="592.55" class="st3" v:langID="1028"><v:paragraph v:horizAlign="1"/><v:tabList/>（一六）</text>			</g>
			<g id="shape101-283" v:mID="101" v:groupContext="shape" transform="translate(500.394,-146.632)">
				<title>工作表.101</title>
				<desc>一五</desc>
				<v:textBlock v:margins="rect(4,4,4,4)" v:tabSpace="42.5197"/>
				<v:textRect cx="29.685" cy="588.954" width="59.38" height="65.9668"/>
				<rect x="0" y="555.97" width="59.3701" height="65.9668" class="st1"/>
				<text x="5.68" y="592.55" class="st3" v:langID="1028"><v:paragraph v:horizAlign="1"/><v:tabList/>（一五）</text>			</g>
			<g id="shape102-286" v:mID="102" v:groupContext="shape" transform="translate(500.394,-173.946)">
				<title>工作表.102</title>
				<desc>一四</desc>
				<v:textBlock v:margins="rect(4,4,4,4)" v:tabSpace="42.5197"/>
				<v:textRect cx="29.685" cy="588.954" width="59.38" height="65.9668"/>
				<rect x="0" y="555.97" width="59.3701" height="65.9668" class="st1"/>
				<text x="5.68" y="592.55" class="st3" v:langID="1028"><v:paragraph v:horizAlign="1"/><v:tabList/>（一四）</text>			</g>
			<g id="shape103-289" v:mID="103" v:groupContext="shape" transform="translate(14.1732,-162.992)">
				<title>工作表.103</title>
				<desc>二、隨問廣答漸入自心</desc>
				<v:textBlock v:margins="rect(4,4,4,4)" v:tabSpace="42.5197"/>
				<v:textRect cx="85.748" cy="536.189" width="171.5" height="171.496"/>
				<rect x="0" y="450.441" width="171.496" height="171.496" class="st1"/>
				<text x="5.75" y="540.99" class="st2" v:langID="1028"><v:paragraph v:horizAlign="1"/><v:tabList/>二、隨問廣答漸入自心</text>			</g>
			<g id="shape19-292" v:mID="19" v:groupContext="shape" transform="translate(199.134,-206.929)">
				<title>工作表.19</title>
				<path d="M0 621.94 L13.46 621.94" class="st4"/>
			</g>
			<g id="shape90-295" v:mID="90" v:groupContext="shape" transform="translate(184.252,-249.449)">
				<title>工作表.90</title>
				<path d="M0 621.94 L13.46 621.94" class="st4"/>
			</g>
			<g id="shape104-298" v:mID="104" v:groupContext="shape" transform="translate(198.425,-306.142)">
				<title>工作表.104</title>
				<path d="M0 621.94 L13.46 621.94" class="st4"/>
			</g>
			<g id="shape105-301" v:mID="105" v:groupContext="shape" transform="translate(198.425,-433.701)">
				<title>工作表.105</title>
				<path d="M0 621.94 L13.46 621.94" class="st4"/>
			</g>
			<g id="shape106-304" v:mID="106" v:groupContext="shape" transform="translate(-621.937,613.433) rotate(-90)">
				<title>工作表.106</title>
				<path d="M0 621.94 L552.76 621.94" class="st6"/>
			</g>
			<g id="shape107-307" v:mID="107" v:groupContext="shape" transform="translate(1.91847E-012,-8.50394)">
				<title>工作表.107</title>
				<path d="M0 621.94 L765.35 621.94" class="st6"/>
			</g>
			<g id="shape108-310" v:mID="108" v:groupContext="shape" transform="translate(0,-561.26)">
				<title>工作表.108</title>
				<path d="M0 621.94 L765.35 621.94" class="st6"/>
			</g>
			<g id="shape109-313" v:mID="109" v:groupContext="shape" transform="translate(143.417,613.433) rotate(-90)">
				<title>工作表.109</title>
				<path d="M0 621.94 L552.76 621.94" class="st7"/>
			</g>
		</g>
	</g>
</svg>
