<?xml version="1.0" encoding="UTF-8" standalone="no"?>
<!DOCTYPE svg PUBLIC "-//W3C//DTD SVG 1.1//EN" "http://www.w3.org/Graphics/SVG/1.1/DTD/svg11.dtd">
<!-- 由 Microsoft Visio, SVG Export 產生 y25.0161.svg 頁-1 -->
<svg xmlns="http://www.w3.org/2000/svg" xmlns:xlink="http://www.w3.org/1999/xlink" xmlns:ev="http://www.w3.org/2001/xml-events"
		width="10.1714in" height="7.80523in" viewBox="0 0 732.339 561.976" xml:space="preserve" color-interpolation-filters="sRGB"
		class="st5">
	<style type="text/css">
	<![CDATA[
		.st1 {fill:none;stroke:#000000;stroke-linecap:round;stroke-linejoin:round;stroke-opacity:0;stroke-width:1}
		.st2 {fill:#000000;font-family:新細明體;font-size:1.33333em}
		.st3 {fill:#000000;font-family:新細明體;font-size:1.00001em}
		.st4 {stroke:#000000;stroke-linecap:round;stroke-linejoin:round;stroke-width:1}
		.st5 {fill:none;fill-rule:evenodd;font-size:12px;overflow:visible;stroke-linecap:square;stroke-miterlimit:3}
	]]>
	</style>

	<g>
		<title>頁-1</title>
		<g id="group112-1" transform="translate(0.5,-0.5)">
			<title>工作表.112</title>
			<g id="shape2-2" transform="translate(325.984,-425.197)">
				<title>工作表.2</title>
				<desc>成就勝解</desc>
				<rect x="0" y="542.134" width="73.7008" height="19.8425" class="st1"/>
				<text x="4.85" y="556.86" class="st2">成就勝解</text>			</g>
			<g id="shape3-5" transform="translate(325.984,0)">
				<title>工作表.3</title>
				<desc>會歸一實</desc>
				<rect x="0" y="542.134" width="73.7008" height="19.8425" class="st1"/>
				<text x="4.85" y="556.86" class="st2">會歸一實</text>			</g>
			<g id="shape4-8" transform="translate(325.276,-367.795)">
				<title>工作表.4</title>
				<desc>正修加行</desc>
				<rect x="0" y="542.134" width="75.1181" height="19.8425" class="st1"/>
				<text x="5.56" y="556.86" class="st2">正修加行</text>			</g>
			<g id="shape5-11" transform="translate(385.512,-375.413)">
				<title>工作表.5</title>
				<desc>七</desc>
				<rect x="0" y="542.134" width="47.6379" height="19.8425" class="st1"/>
				<text x="5.82" y="555.66" class="st3">（七）</text>			</g>
			<g id="shape6-14" transform="translate(425.197,-453.543)">
				<title>工作表.6</title>
				<desc>善辨中邊</desc>
				<rect x="0" y="542.134" width="73.7008" height="19.8425" class="st1"/>
				<text x="4.85" y="556.86" class="st2">善辨中邊</text>			</g>
			<g id="shape7-17" transform="translate(524.409,-425.197)">
				<title>工作表.7</title>
				<desc>遠離增減</desc>
				<rect x="0" y="542.134" width="73.7008" height="19.8425" class="st1"/>
				<text x="4.85" y="556.86" class="st2">遠離增減</text>			</g>
			<g id="shape8-20" transform="translate(524.409,-481.89)">
				<title>工作表.8</title>
				<desc>開示性相</desc>
				<rect x="0" y="542.134" width="73.7008" height="19.8425" class="st1"/>
				<text x="4.85" y="556.86" class="st2">開示性相</text>			</g>
			<g id="shape9-23" transform="translate(425.197,-396.85)">
				<title>工作表.9</title>
				<desc>解釋深密</desc>
				<rect x="0" y="542.134" width="73.7008" height="19.8425" class="st1"/>
				<text x="4.85" y="556.86" class="st2">解釋深密</text>			</g>
			<g id="shape10-26" transform="translate(623.622,-481.89)">
				<title>工作表.10</title>
				<desc>諸法自性</desc>
				<rect x="0" y="542.134" width="73.7008" height="19.8425" class="st1"/>
				<text x="4.85" y="556.86" class="st2">諸法自性</text>			</g>
			<g id="shape11-29" transform="translate(623.622,-510.236)">
				<title>工作表.11</title>
				<desc>心意意識</desc>
				<rect x="0" y="542.134" width="73.7008" height="19.8425" class="st1"/>
				<text x="4.85" y="556.86" class="st2">心意意識</text>			</g>
			<g id="shape12-32" transform="translate(623.622,-453.543)">
				<title>工作表.12</title>
				<desc>二無我相</desc>
				<rect x="0" y="542.134" width="73.7008" height="19.8425" class="st1"/>
				<text x="4.85" y="556.86" class="st2">二無我相</text>			</g>
			<g id="shape13-35" transform="translate(683.701,-460.807)">
				<title>工作表.13</title>
				<desc>四</desc>
				<rect x="0" y="542.134" width="47.6379" height="19.8425" class="st1"/>
				<text x="5.82" y="555.66" class="st3">（四）</text>			</g>
			<g id="shape14-38" transform="translate(583.937,-432.461)">
				<title>工作表.14</title>
				<desc>五</desc>
				<rect x="0" y="542.134" width="47.6379" height="19.8425" class="st1"/>
				<text x="5.82" y="555.66" class="st3">（五）</text>			</g>
			<g id="shape15-41" transform="translate(485.276,-404.114)">
				<title>工作表.15</title>
				<desc>六</desc>
				<rect x="0" y="542.134" width="47.6379" height="19.8425" class="st1"/>
				<text x="5.82" y="555.66" class="st3">（六）</text>			</g>
			<g id="shape16-44" transform="translate(683.701,-517.5)">
				<title>工作表.16</title>
				<desc>二</desc>
				<rect x="0" y="542.134" width="47.6379" height="19.8425" class="st1"/>
				<text x="5.82" y="555.66" class="st3">（二）</text>			</g>
			<g id="shape17-47" transform="translate(683.701,-489.154)">
				<title>工作表.17</title>
				<desc>三</desc>
				<rect x="0" y="542.134" width="47.6379" height="19.8425" class="st1"/>
				<text x="5.82" y="555.66" class="st3">（三）</text>			</g>
			<g id="shape20-50" transform="translate(184.252,-52.4409)">
				<title>工作表.20</title>
				<path d="M0 561.98 L13.46 561.98" class="st4"/>
			</g>
			<g id="shape21-53" transform="translate(-377.724,509.535) rotate(-90)">
				<title>工作表.21</title>
				<path d="M0 561.98 L354.33 561.98" class="st4"/>
			</g>
			<g id="shape37-56" transform="translate(325.984,-311.811)">
				<title>工作表.37</title>
				<desc>能 入 道</desc>
				<rect x="0" y="542.134" width="73.7008" height="19.8425" class="st1"/>
				<text x="4.54" y="556.86" class="st2">能  入  道</text>			</g>
			<g id="shape38-59" transform="translate(425.197,-311.811)">
				<title>工作表.38</title>
				<desc>善解果智</desc>
				<rect x="0" y="542.134" width="73.7008" height="19.8425" class="st1"/>
				<text x="4.85" y="556.86" class="st2">善解果智</text>			</g>
			<g id="shape39-62" transform="translate(425.197,-340.157)">
				<title>工作表.39</title>
				<desc>正觀緣起</desc>
				<rect x="0" y="542.134" width="73.7008" height="19.8425" class="st1"/>
				<text x="4.85" y="556.86" class="st2">正觀緣起</text>			</g>
			<g id="shape40-65" transform="translate(485.276,-347.421)">
				<title>工作表.40</title>
				<desc>八</desc>
				<rect x="0" y="542.134" width="47.6379" height="19.8425" class="st1"/>
				<text x="5.82" y="555.66" class="st3">（八）</text>			</g>
			<g id="shape41-68" transform="translate(485.276,-318.72)">
				<title>工作表.41</title>
				<desc>九</desc>
				<rect x="0" y="542.134" width="47.6379" height="19.8425" class="st1"/>
				<text x="5.82" y="555.66" class="st3">（九）</text>			</g>
			<g id="shape42-71" transform="translate(425.197,-283.465)">
				<title>工作表.42</title>
				<desc>遠離妄想</desc>
				<rect x="0" y="542.134" width="73.7008" height="19.8425" class="st1"/>
				<text x="4.85" y="556.86" class="st2">遠離妄想</text>			</g>
			<g id="shape43-74" transform="translate(477.071,-290.551)">
				<title>工作表.43</title>
				<desc>一〇</desc>
				<rect x="0" y="542.134" width="72" height="19.8425" class="st1"/>
				<text x="12" y="555.66" class="st3">（一〇）</text>			</g>
			<g id="group44-77" transform="translate(61.6457,98.5118) rotate(-90)">
				<title>工作表.44</title>
				<g id="shape30-78" transform="translate(2.79776E-14,-14.1732)">
					<title>工作表.30</title>
					<path d="M0 561.98 L56.69 561.98" class="st4"/>
				</g>
				<g id="shape31-81" transform="translate(590.323,533.63) rotate(90)">
					<title>工作表.31</title>
					<path d="M0 561.98 L28.35 561.98" class="st4"/>
				</g>
				<g id="shape32-84" transform="translate(561.976,547.803) rotate(90)">
					<title>工作表.32</title>
					<path d="M0 561.98 L13.46 561.98" class="st4"/>
				</g>
				<g id="shape33-87" transform="translate(618.669,547.803) rotate(90)">
					<title>工作表.33</title>
					<path d="M0 561.98 L13.46 561.98" class="st4"/>
				</g>
			</g>
			<g id="group45-90" transform="translate(-136.78,268.591) rotate(-90)">
				<title>工作表.45</title>
				<g id="shape46-91" transform="translate(2.79776E-14,-14.1732)">
					<title>工作表.46</title>
					<path d="M0 561.98 L56.69 561.98" class="st4"/>
				</g>
				<g id="shape47-94" transform="translate(590.323,533.63) rotate(90)">
					<title>工作表.47</title>
					<path d="M0 561.98 L28.35 561.98" class="st4"/>
				</g>
				<g id="shape48-97" transform="translate(561.976,547.803) rotate(90)">
					<title>工作表.48</title>
					<path d="M0 561.98 L13.46 561.98" class="st4"/>
				</g>
				<g id="shape49-100" transform="translate(618.669,547.803) rotate(90)">
					<title>工作表.49</title>
					<path d="M0 561.98 L13.46 561.98" class="st4"/>
				</g>
			</g>
			<g id="group50-103" transform="translate(-38.2756,126.858) rotate(-90)">
				<title>工作表.50</title>
				<g id="shape29-104" transform="translate(-3.59712E-14,-13.4646)">
					<title>工作表.29</title>
					<path d="M0 561.98 L56.69 561.98" class="st4"/>
				</g>
				<g id="shape34-107" transform="translate(561.976,548.512) rotate(90)">
					<title>工作表.34</title>
					<path d="M0 561.98 L13.46 561.98" class="st4"/>
				</g>
				<g id="shape35-110" transform="translate(618.669,548.512) rotate(90)">
					<title>工作表.35</title>
					<path d="M0 561.98 L13.46 561.98" class="st4"/>
				</g>
				<g id="shape36-113" transform="translate(590.323,534.339) rotate(90)">
					<title>工作表.36</title>
					<path d="M0 561.98 L13.46 561.98" class="st4"/>
				</g>
			</g>
			<g id="group51-116" transform="translate(-137.488,155.205) rotate(-90)">
				<title>工作表.51</title>
				<g id="shape18-117" transform="translate(590.323,534.339) rotate(90)">
					<title>工作表.18</title>
					<path d="M0 561.98 L13.46 561.98" class="st4"/>
				</g>
				<g id="shape26-120" transform="translate(561.976,548.512) rotate(90)">
					<title>工作表.26</title>
					<path d="M0 561.98 L13.46 561.98" class="st4"/>
				</g>
				<g id="shape27-123" transform="translate(618.669,548.512) rotate(90)">
					<title>工作表.27</title>
					<path d="M0 561.98 L13.46 561.98" class="st4"/>
				</g>
				<g id="shape28-126" transform="translate(5.59552E-14,-13.4646)">
					<title>工作表.28</title>
					<path d="M0 561.98 L56.69 561.98" class="st4"/>
				</g>
			</g>
			<g id="group52-129" transform="translate(-236.701,183.551) rotate(-90)">
				<title>工作表.52</title>
				<g id="shape22-130" transform="translate(590.323,534.339) rotate(90)">
					<title>工作表.22</title>
					<path d="M0 561.98 L13.46 561.98" class="st4"/>
				</g>
				<g id="shape23-133" transform="translate(561.976,548.512) rotate(90)">
					<title>工作表.23</title>
					<path d="M0 561.98 L13.46 561.98" class="st4"/>
				</g>
				<g id="shape24-136" transform="translate(618.669,548.512) rotate(90)">
					<title>工作表.24</title>
					<path d="M0 561.98 L13.46 561.98" class="st4"/>
				</g>
				<g id="shape25-139" transform="translate(2.79776E-14,-13.4646)">
					<title>工作表.25</title>
					<path d="M0 561.98 L56.69 561.98" class="st4"/>
				</g>
			</g>
			<g id="shape53-142" transform="translate(425.197,-226.772)">
				<title>工作表.53</title>
				<desc>兼通理教</desc>
				<rect x="0" y="542.134" width="73.7008" height="19.8425" class="st1"/>
				<text x="4.85" y="556.86" class="st2">兼通理教</text>			</g>
			<g id="shape54-145" transform="translate(425.197,-255.118)">
				<title>工作表.54</title>
				<desc>聖智自覺</desc>
				<rect x="0" y="542.134" width="73.7008" height="19.8425" class="st1"/>
				<text x="4.85" y="556.86" class="st2">聖智自覺</text>			</g>
			<g id="shape55-148" transform="translate(-150.953,325.283) rotate(-90)">
				<title>工作表.55</title>
				<path d="M0 561.98 L28.35 561.98" class="st4"/>
			</g>
			<g id="shape56-151" transform="translate(411.024,-236.693)">
				<title>工作表.56</title>
				<path d="M0 561.98 L13.46 561.98" class="st4"/>
			</g>
			<g id="shape57-154" transform="translate(411.732,-265.039)">
				<title>工作表.57</title>
				<path d="M0 561.98 L13.46 561.98" class="st4"/>
			</g>
			<g id="shape58-157" transform="translate(396.85,-250.866)">
				<title>工作表.58</title>
				<path d="M0 561.98 L13.46 561.98" class="st4"/>
			</g>
			<g id="shape59-160" transform="translate(325.984,-240.945)">
				<title>工作表.59</title>
				<desc>所 入 地</desc>
				<rect x="0" y="542.134" width="73.7008" height="19.8425" class="st1"/>
				<text x="4.54" y="556.86" class="st2">所  入  地</text>			</g>
			<g id="shape61-163" transform="translate(-250.165,311.11) rotate(-90)">
				<title>工作表.61</title>
				<path d="M0 561.98 L70.87 561.98" class="st4"/>
			</g>
			<g id="shape62-166" transform="translate(311.811,-250.866)">
				<title>工作表.62</title>
				<path d="M0 561.98 L13.46 561.98" class="st4"/>
			</g>
			<g id="shape63-169" transform="translate(297.638,-279.213)">
				<title>工作表.63</title>
				<path d="M0 561.98 L13.46 561.98" class="st4"/>
			</g>
			<g id="shape64-172" transform="translate(311.811,-321.732)">
				<title>工作表.64</title>
				<path d="M0 561.98 L13.46 561.98" class="st4"/>
			</g>
			<g id="shape65-175" transform="translate(484.567,-263.622)">
				<title>工作表.65</title>
				<desc>一一</desc>
				<rect x="0" y="542.134" width="59.5276" height="19.8425" class="st1"/>
				<text x="5.76" y="555.66" class="st3">（一一）</text>			</g>
			<g id="shape66-178" transform="translate(484.567,-233.858)">
				<title>工作表.66</title>
				<desc>一二</desc>
				<rect x="0" y="542.134" width="59.5276" height="19.8425" class="st1"/>
				<text x="5.76" y="555.66" class="st3">（一二）</text>			</g>
			<g id="shape67-181" transform="translate(202.677,-170.079)">
				<title>工作表.67</title>
				<desc>入無所有地</desc>
				<rect x="0" y="542.134" width="97.7953" height="19.8425" class="st1"/>
				<text x="0.25em 1.403em 2.556em 3.709em 4.862em" y="556.86" class="st2">入無所有地</text>			</g>
			<g id="shape68-184" transform="translate(202.677,-397.559)">
				<title>工作表.68</title>
				<desc>入勝解行地</desc>
				<rect x="0" y="542.134" width="97.7953" height="19.8425" class="st1"/>
				<text x="0.25em 1.403em 2.556em 3.709em 4.862em" y="556.86" class="st2">入勝解行地</text>			</g>
			<g id="shape60-187" transform="translate(202.677,-270)">
				<title>工作表.60</title>
				<desc>入心量地</desc>
				<rect x="0" y="542.134" width="97.7953" height="19.8425" class="st1"/>
				<text x="0.25em 1.787em 3.325em 4.862em" y="556.86" class="st2">入心量地</text>			</g>
			<g id="shape69-190" transform="translate(325.984,-198.425)">
				<title>工作表.69</title>
				<desc>能 入 道</desc>
				<rect x="0" y="542.134" width="73.7008" height="19.8425" class="st1"/>
				<text x="4.54" y="556.86" class="st2">能  入  道</text>			</g>
			<g id="shape70-193" transform="translate(325.984,-141.732)">
				<title>工作表.70</title>
				<desc>所 入 地</desc>
				<rect x="0" y="542.134" width="73.7008" height="19.8425" class="st1"/>
				<text x="4.54" y="556.86" class="st2">所  入  地</text>			</g>
			<g id="group71-196" transform="translate(-236.701,410.323) rotate(-90)">
				<title>工作表.71</title>
				<g id="shape72-197" transform="translate(590.323,534.339) rotate(90)">
					<title>工作表.72</title>
					<path d="M0 561.98 L13.46 561.98" class="st4"/>
				</g>
				<g id="shape73-200" transform="translate(561.976,548.512) rotate(90)">
					<title>工作表.73</title>
					<path d="M0 561.98 L13.46 561.98" class="st4"/>
				</g>
				<g id="shape74-203" transform="translate(618.669,548.512) rotate(90)">
					<title>工作表.74</title>
					<path d="M0 561.98 L13.46 561.98" class="st4"/>
				</g>
				<g id="shape75-206" transform="translate(2.79776E-14,-13.4646)">
					<title>工作表.75</title>
					<path d="M0 561.98 L56.69 561.98" class="st4"/>
				</g>
			</g>
			<g id="shape76-209" transform="translate(385.354,-205.512)">
				<title>工作表.76</title>
				<desc>一三</desc>
				<rect x="0" y="542.134" width="59.5276" height="19.8425" class="st1"/>
				<text x="5.76" y="555.66" class="st3">（一三）</text>			</g>
			<g id="group77-212" transform="translate(-136.78,438.669) rotate(-90)">
				<title>工作表.77</title>
				<g id="shape78-213" transform="translate(2.79776E-14,-14.1732)">
					<title>工作表.78</title>
					<path d="M0 561.98 L56.69 561.98" class="st4"/>
				</g>
				<g id="shape79-216" transform="translate(590.323,533.63) rotate(90)">
					<title>工作表.79</title>
					<path d="M0 561.98 L28.35 561.98" class="st4"/>
				</g>
				<g id="shape80-219" transform="translate(561.976,547.803) rotate(90)">
					<title>工作表.80</title>
					<path d="M0 561.98 L13.46 561.98" class="st4"/>
				</g>
				<g id="shape81-222" transform="translate(618.669,547.803) rotate(90)">
					<title>工作表.81</title>
					<path d="M0 561.98 L13.46 561.98" class="st4"/>
				</g>
			</g>
			<g id="shape82-225" transform="translate(425.197,-113.386)">
				<title>工作表.82</title>
				<desc>善通理教</desc>
				<rect x="0" y="542.134" width="73.7008" height="19.8425" class="st1"/>
				<text x="4.85" y="556.86" class="st2">善通理教</text>			</g>
			<g id="shape83-228" transform="translate(425.197,-141.732)">
				<title>工作表.83</title>
				<desc>自覺法性</desc>
				<rect x="0" y="542.134" width="73.7008" height="19.8425" class="st1"/>
				<text x="4.85" y="556.86" class="st2">自覺法性</text>			</g>
			<g id="shape84-231" transform="translate(425.197,-170.079)">
				<title>工作表.84</title>
				<desc>身心轉依</desc>
				<rect x="0" y="542.134" width="73.7008" height="19.8425" class="st1"/>
				<text x="4.85" y="556.86" class="st2">身心轉依</text>			</g>
			<g id="shape85-234" transform="translate(202.677,-42.5197)">
				<title>工作表.85</title>
				<desc>入最勝地</desc>
				<rect x="0" y="542.134" width="97.7953" height="19.8425" class="st1"/>
				<text x="0.25em 1.787em 3.325em 4.862em" y="556.86" class="st2">入最勝地</text>			</g>
			<g id="shape86-237" transform="translate(325.984,-28.3465)">
				<title>工作表.86</title>
				<desc>通攝四淨</desc>
				<rect x="0" y="542.134" width="73.7008" height="19.8425" class="st1"/>
				<text x="4.85" y="556.86" class="st2">通攝四淨</text>			</g>
			<g id="shape87-240" transform="translate(325.984,-56.6929)">
				<title>工作表.87</title>
				<desc>別論三德</desc>
				<rect x="0" y="542.134" width="73.7008" height="19.8425" class="st1"/>
				<text x="4.85" y="556.86" class="st2">別論三德</text>			</g>
			<g id="shape88-243" transform="translate(325.984,-85.0394)">
				<title>工作表.88</title>
				<desc>圓示二果</desc>
				<rect x="0" y="542.134" width="73.7008" height="19.8425" class="st1"/>
				<text x="4.85" y="556.86" class="st2">圓示二果</text>			</g>
			<g id="shape89-246" transform="translate(-250.165,552.055) rotate(-90)">
				<title>工作表.89</title>
				<path d="M0 561.98 L85.04 561.98" class="st4"/>
			</g>
			<g id="shape91-249" transform="translate(311.811,-9.92126)">
				<title>工作表.91</title>
				<path d="M0 561.98 L13.46 561.98" class="st4"/>
			</g>
			<g id="shape92-252" transform="translate(298.346,-52.4409)">
				<title>工作表.92</title>
				<path d="M0 561.98 L13.46 561.98" class="st4"/>
			</g>
			<g id="shape93-255" transform="translate(311.811,-94.9606)">
				<title>工作表.93</title>
				<path d="M0 561.98 L13.46 561.98" class="st4"/>
			</g>
			<g id="shape94-258" transform="translate(311.811,-38.2677)">
				<title>工作表.94</title>
				<path d="M0 561.98 L13.46 561.98" class="st4"/>
			</g>
			<g id="shape95-261" transform="translate(311.811,-66.6142)">
				<title>工作表.95</title>
				<path d="M0 561.98 L13.46 561.98" class="st4"/>
			</g>
			<g id="shape96-264" transform="translate(385.669,-35.4331)">
				<title>工作表.96</title>
				<desc>一九</desc>
				<rect x="0" y="542.134" width="59.5276" height="19.8425" class="st1"/>
				<text x="5.76" y="555.66" class="st3">（一九）</text>			</g>
			<g id="shape97-267" transform="translate(385.354,-63.7795)">
				<title>工作表.97</title>
				<desc>一八</desc>
				<rect x="0" y="542.134" width="59.5276" height="19.8425" class="st1"/>
				<text x="5.76" y="555.66" class="st3">（一八）</text>			</g>
			<g id="shape98-270" transform="translate(385.669,-90.7087)">
				<title>工作表.98</title>
				<desc>一七</desc>
				<rect x="0" y="542.134" width="59.5276" height="19.8425" class="st1"/>
				<text x="5.76" y="555.66" class="st3">（一七）</text>			</g>
			<g id="shape99-273" transform="translate(377.291,-5.66929)">
				<title>工作表.99</title>
				<desc>二〇章</desc>
				<rect x="0" y="542.134" width="88.1575" height="19.8425" class="st1"/>
				<text x="14.08" y="555.66" class="st3">（二〇章）</text>			</g>
			<g id="shape100-276" transform="translate(484.882,-120.472)">
				<title>工作表.100</title>
				<desc>一六</desc>
				<rect x="0" y="542.134" width="59.5276" height="19.8425" class="st1"/>
				<text x="5.76" y="555.66" class="st3">（一六）</text>			</g>
			<g id="shape101-279" transform="translate(484.882,-148.819)">
				<title>工作表.101</title>
				<desc>一五</desc>
				<rect x="0" y="542.134" width="59.5276" height="19.8425" class="st1"/>
				<text x="5.76" y="555.66" class="st3">（一五）</text>			</g>
			<g id="shape102-282" transform="translate(484.882,-177.165)">
				<title>工作表.102</title>
				<desc>一四</desc>
				<rect x="0" y="542.134" width="59.5276" height="19.8425" class="st1"/>
				<text x="5.76" y="555.66" class="st3">（一四）</text>			</g>
			<g id="shape103-285" transform="translate(1.15108E-12,-211.89)">
				<title>工作表.103</title>
				<desc>二、隨問廣答漸入自心</desc>
				<rect x="0" y="542.134" width="171.496" height="19.8425" class="st1"/>
				<text x="5.75" y="556.86" class="st2">二、隨問廣答漸入自心</text>			</g>
			<g id="shape19-288" transform="translate(184.961,-180)">
				<title>工作表.19</title>
				<path d="M0 561.98 L13.46 561.98" class="st4"/>
			</g>
			<g id="shape90-291" transform="translate(170.079,-222.52)">
				<title>工作表.90</title>
				<path d="M0 561.98 L13.46 561.98" class="st4"/>
			</g>
			<g id="shape104-294" transform="translate(184.252,-279.213)">
				<title>工作表.104</title>
				<path d="M0 561.98 L13.46 561.98" class="st4"/>
			</g>
			<g id="shape105-297" transform="translate(184.252,-406.772)">
				<title>工作表.105</title>
				<path d="M0 561.98 L13.46 561.98" class="st4"/>
			</g>
			<g id="shape110-300" transform="translate(0,-538.583)">
				<title>工作表.110</title>
				<desc>一、總問略答直示佛心</desc>
				<rect x="0" y="542.134" width="171.496" height="19.8425" class="st1"/>
				<text x="5.75" y="556.86" class="st2">一、總問略答直示佛心</text>			</g>
			<g id="shape111-303" transform="translate(164.409,-541.134)">
				<title>工作表.111</title>
				<desc>一章</desc>
				<rect x="0" y="542.134" width="56.126" height="19.8425" class="st1"/>
				<text x="4.06" y="555.66" class="st3">（一章）</text>			</g>
		</g>
	</g>
</svg>
