<?xml version="1.0" encoding="UTF-8" standalone="no"?>
<!DOCTYPE svg PUBLIC "-//W3C//DTD SVG 1.1//EN" "http://www.w3.org/Graphics/SVG/1.1/DTD/svg11.dtd">
<!-- 由 Microsoft Visio, SVG Export 產生 y27.0023-h.svg 頁-1 -->
<svg xmlns="http://www.w3.org/2000/svg" xmlns:xlink="http://www.w3.org/1999/xlink" xmlns:ev="http://www.w3.org/2001/xml-events"
		width="7.96664in" height="4.22649in" viewBox="0 0 573.598 304.307" xml:space="preserve" color-interpolation-filters="sRGB"
		class="st5">
	<style type="text/css">
	<![CDATA[
		.st1 {fill:none;stroke:#ffffff;stroke-linecap:round;stroke-linejoin:round;stroke-opacity:0;stroke-width:1}
		.st2 {fill:#000000;font-family:新細明體;font-size:1.33333em}
		.st3 {fill:none;stroke:#000000;stroke-linecap:round;stroke-linejoin:round;stroke-opacity:0;stroke-width:1}
		.st4 {stroke:#000000;stroke-linecap:round;stroke-linejoin:round;stroke-width:1}
		.st5 {fill:none;fill-rule:evenodd;font-size:12px;overflow:visible;stroke-linecap:square;stroke-miterlimit:3}
	]]>
	</style>

	<g>
		<title>頁-1</title>
		<g id="group44-1" transform="translate(0.5,-0.5)">
			<title>工作表.44</title>
			<g id="shape3-2" transform="translate(5.43565E-13,-141.732)">
				<title>工作表.3</title>
				<desc>不食酥鹽</desc>
				<rect x="0" y="284.465" width="73.7008" height="19.8425" class="st1"/>
				<text x="4.85" y="299.19" class="st2">不食酥鹽</text>			</g>
			<g id="shape6-5" transform="translate(2.83465,-282.579)">
				<title>工作表.6</title>
				<desc>《四分律》</desc>
				<rect x="0" y="284.465" width="122.953" height="19.8425" class="st3"/>
				<text x="5.48" y="299.19" class="st2">（《四分律》）</text>			</g>
			<g id="shape7-8" transform="translate(131.28,-282.898)">
				<title>工作表.7</title>
				<desc>《十誦律》</desc>
				<rect x="0" y="284.465" width="122.953" height="19.8425" class="st3"/>
				<text x="5.48" y="299.19" class="st2">（《十誦律》）</text>			</g>
			<g id="shape8-11" transform="translate(256.89,-283.465)">
				<title>工作表.8</title>
				<desc>《銅鍱律》</desc>
				<rect x="0" y="284.465" width="122.953" height="19.8425" class="st3"/>
				<text x="5.48" y="299.19" class="st2">（《銅鍱律》）</text>			</g>
			<g id="shape9-14" transform="translate(386.398,-283.465)">
				<title>工作表.9</title>
				<desc>《五分律》</desc>
				<rect x="0" y="284.465" width="122.953" height="19.8425" class="st3"/>
				<text x="5.48" y="299.19" class="st2">（《五分律》）</text>			</g>
			<g id="shape10-17" transform="translate(-2.79776E-14,-255.118)">
				<title>工作表.10</title>
				<desc>常乞食</desc>
				<rect x="0" y="284.465" width="59.5276" height="19.8425" class="st3"/>
				<text x="5.76" y="299.19" class="st2">常乞食</text>			</g>
			<g id="shape11-20" transform="translate(147.402,-255.118)">
				<title>工作表.11</title>
				<desc>受乞食</desc>
				<rect x="0" y="284.465" width="59.5276" height="19.8425" class="st3"/>
				<text x="5.76" y="299.19" class="st2">受乞食</text>			</g>
			<g id="shape12-23" transform="translate(256.535,-255.118)">
				<title>工作表.12</title>
				<desc>常乞食</desc>
				<rect x="0" y="284.465" width="59.5276" height="19.8425" class="st3"/>
				<text x="5.76" y="299.19" class="st2">常乞食</text>			</g>
			<g id="shape13-26" transform="translate(401.102,-255.118)">
				<title>工作表.13</title>
				<desc>常乞食</desc>
				<rect x="0" y="284.465" width="59.5276" height="19.8425" class="st3"/>
				<text x="5.76" y="299.19" class="st2">常乞食</text>			</g>
			<g id="shape14-29" transform="translate(59.5276,-265.039)">
				<title>工作表.14</title>
				<path d="M0 304.31 L87.87 304.31" class="st4"/>
			</g>
			<g id="shape15-32" transform="translate(206.929,-265.039)">
				<title>工作表.15</title>
				<path d="M0 304.31 L49.96 304.31" class="st4"/>
			</g>
			<g id="shape16-35" transform="translate(316.063,-265.039)">
				<title>工作表.16</title>
				<path d="M0 304.31 L85.04 304.31" class="st4"/>
			</g>
			<g id="shape17-38" transform="translate(3.59712E-14,-225.354)">
				<title>工作表.17</title>
				<desc>糞掃衣</desc>
				<rect x="0" y="284.465" width="59.5276" height="19.8425" class="st3"/>
				<text x="5.76" y="299.19" class="st2">糞掃衣</text>			</g>
			<g id="shape18-41" transform="translate(1.95843E-13,-198.425)">
				<title>工作表.18</title>
				<desc>常露坐</desc>
				<rect x="0" y="284.465" width="59.5276" height="19.8425" class="st3"/>
				<text x="5.76" y="299.19" class="st2">常露坐</text>			</g>
			<g id="shape19-44" transform="translate(147.402,-198.425)">
				<title>工作表.19</title>
				<desc>受露坐</desc>
				<rect x="0" y="284.465" width="59.5276" height="19.8425" class="st3"/>
				<text x="5.76" y="299.19" class="st2">受露坐</text>			</g>
			<g id="shape20-47" transform="translate(147.402,-226.772)">
				<title>工作表.20</title>
				<desc>受衲衣</desc>
				<rect x="0" y="284.465" width="59.5276" height="19.8425" class="st3"/>
				<text x="5.76" y="299.19" class="st2">受衲衣</text>			</g>
			<g id="shape21-50" transform="translate(256.535,-226.772)">
				<title>工作表.21</title>
				<desc>糞掃衣</desc>
				<rect x="0" y="284.465" width="59.5276" height="19.8425" class="st3"/>
				<text x="5.76" y="299.19" class="st2">糞掃衣</text>			</g>
			<g id="shape22-53" transform="translate(256.535,-199.843)">
				<title>工作表.22</title>
				<desc>樹下坐</desc>
				<rect x="0" y="284.465" width="59.5276" height="19.8425" class="st3"/>
				<text x="5.76" y="299.19" class="st2">樹下坐</text>			</g>
			<g id="shape23-56" transform="translate(402.52,-198.425)">
				<title>工作表.23</title>
				<desc>八月露坐‧四月住草庵</desc>
				<rect x="0" y="284.465" width="170.079" height="19.8425" class="st1"/>
				<text x="5.04" y="299.19" class="st2">八月露坐‧四月住草庵</text>			</g>
			<g id="shape24-59" transform="translate(59.5276,-236.693)">
				<title>工作表.24</title>
				<path d="M0 304.31 L87.87 304.31" class="st4"/>
			</g>
			<g id="shape25-62" transform="translate(59.5276,-208.346)">
				<title>工作表.25</title>
				<path d="M0 304.31 L87.87 304.31" class="st4"/>
			</g>
			<g id="shape26-65" transform="translate(206.929,-208.346)">
				<title>工作表.26</title>
				<path d="M0 304.31 L49.96 304.31" class="st4"/>
			</g>
			<g id="shape27-68" transform="translate(206.929,-236.693)">
				<title>工作表.27</title>
				<path d="M0 304.31 L49.96 304.31" class="st4"/>
			</g>
			<g id="shape28-71" transform="translate(317.48,-208.346)">
				<title>工作表.28</title>
				<path d="M0 304.31 L85.04 304.31" class="st4"/>
			</g>
			<g id="shape30-74" transform="translate(402.52,-170.079)">
				<title>工作表.30</title>
				<desc>不食酥乳</desc>
				<rect x="0" y="284.465" width="73.7008" height="19.8425" class="st1"/>
				<text x="4.85" y="299.19" class="st2">不食酥乳</text>			</g>
			<g id="shape31-77" transform="translate(401.102,-113.386)">
				<title>工作表.31</title>
				<desc>不食鹽</desc>
				<rect x="0" y="284.465" width="59.5276" height="19.8425" class="st3"/>
				<text x="5.76" y="299.19" class="st2">不食鹽</text>			</g>
			<g id="shape32-80" transform="translate(402.52,-85.0394)">
				<title>工作表.32</title>
				<desc>不食魚肉</desc>
				<rect x="0" y="284.465" width="73.7008" height="19.8425" class="st1"/>
				<text x="4.85" y="299.19" class="st2">不食魚肉</text>			</g>
			<g id="shape33-83" transform="translate(257.953,-85.0394)">
				<title>工作表.33</title>
				<desc>不食魚肉</desc>
				<rect x="0" y="284.465" width="73.7008" height="19.8425" class="st1"/>
				<text x="4.85" y="299.19" class="st2">不食魚肉</text>			</g>
			<g id="shape34-86" transform="translate(6.07514E-13,-85.0394)">
				<title>工作表.34</title>
				<desc>不食魚肉</desc>
				<rect x="0" y="284.465" width="73.7008" height="19.8425" class="st1"/>
				<text x="4.85" y="299.19" class="st2">不食魚肉</text>			</g>
			<g id="shape35-89" transform="translate(147.402,-85.0394)">
				<title>工作表.35</title>
				<desc>斷魚肉</desc>
				<rect x="0" y="284.465" width="59.5276" height="19.8425" class="st3"/>
				<text x="5.76" y="299.19" class="st2">斷魚肉</text>			</g>
			<g id="shape36-92" transform="translate(73.7008,-94.9606)">
				<title>工作表.36</title>
				<path d="M0 304.31 L73.7 304.31" class="st4"/>
			</g>
			<g id="shape37-95" transform="translate(206.575,-94.9606)">
				<title>工作表.37</title>
				<path d="M0 304.31 L49.96 304.31" class="st4"/>
			</g>
			<g id="shape38-98" transform="translate(334.488,-94.9606)">
				<title>工作表.38</title>
				<path d="M0 304.31 L66.61 304.31" class="st4"/>
			</g>
			<g id="shape39-101" transform="translate(73.7008,-151.654)">
				<title>工作表.39</title>
				<path d="M0 304.31 L311.81 304.31" class="st4"/>
			</g>
			<g id="shape40-104" transform="translate(113.331,16.5633) rotate(-63.4349)">
				<title>工作表.40</title>
				<path d="M0 304.31 L31.69 304.31" class="st4"/>
			</g>
			<g id="shape41-107" transform="translate(131.116,321.393) rotate(-117.474)">
				<title>工作表.41</title>
				<path d="M0 304.31 L31.95 304.31" class="st4"/>
			</g>
			<g id="shape42-110" transform="translate(147.402,-56.6929)">
				<title>工作表.42</title>
				<desc>受一食</desc>
				<rect x="0" y="284.465" width="59.5276" height="19.8425" class="st3"/>
				<text x="5.76" y="299.19" class="st2">受一食</text>			</g>
			<g id="shape43-113" transform="translate(255.118,0)">
				<title>工作表.43</title>
				<desc>常住阿蘭若</desc>
				<rect x="0" y="284.465" width="96.378" height="19.8425" class="st1"/>
				<text x="8.19" y="299.19" class="st2">常住阿蘭若</text>			</g>
		</g>
	</g>
</svg>
