<?xml version="1.0" encoding="UTF-8" standalone="no"?>
<!DOCTYPE svg PUBLIC "-//W3C//DTD SVG 1.1//EN" "http://www.w3.org/Graphics/SVG/1.1/DTD/svg11.dtd">
<!-- 由 Microsoft Visio, SVG Export 產生 y27.0282-h.svg 頁-1 -->
<svg xmlns="http://www.w3.org/2000/svg" xmlns:xlink="http://www.w3.org/1999/xlink" xmlns:ev="http://www.w3.org/2001/xml-events"
		width="6.1057in" height="14.7317in" viewBox="0 0 439.61 1060.68" xml:space="preserve" color-interpolation-filters="sRGB"
		class="st6">
	<style type="text/css">
	<![CDATA[
		.st1 {fill:none;stroke:none;stroke-linecap:round;stroke-linejoin:round;stroke-width:0.75}
		.st2 {fill:#000000;font-family:新細明體;font-size:1.33333em}
		.st3 {font-size:0.750009em}
		.st4 {fill:#000000;font-family:新細明體;font-size:1.00001em}
		.st5 {stroke:#000000;stroke-linecap:round;stroke-linejoin:round;stroke-width:0.24}
		.st6 {fill:none;fill-rule:evenodd;font-size:12px;overflow:visible;stroke-linecap:square;stroke-miterlimit:3}
	]]>
	</style>

	<g>
		<title>頁-1</title>
		<g id="group35-1" transform="translate(0.120008,-0.12)">
			<title>工作表.35</title>
			<g id="shape1-2" transform="translate(15.7323,-191.197)">
				<title>工作表.1</title>
				<desc>佛告舍利日　經　　　　　　　　　　　八經　　　</desc>
				<rect x="0" y="1040.84" width="408.189" height="19.8425" class="st1"/>
				<text x="6.1" y="1055.56" class="st2">佛告舍（利）日<tspan class="st3">　</tspan>經　　　　　　　　　　　八經</text>			</g>
			<g id="shape2-6" transform="translate(128.976,-197.291)">
				<title>工作表.2</title>
				<desc>曰</desc>
				<rect x="0" y="1040.84" width="17.0079" height="19.8425" class="st1"/>
				<text x="4" y="1054.36" class="st4">曰</text>			</g>
			<g id="shape4-9" transform="translate(15.7323,-1032.24)">
				<title>工作表.4</title>
				<desc>〈新集安公古異經錄〉　　　　　　　　　　《大正藏》</desc>
				<rect x="0" y="1040.84" width="408.189" height="19.8425" class="st1"/>
				<text x="4.1" y="1055.56" class="st2">〈新集安公古異經錄〉　　　　　　　　　　《大正藏》</text>			</g>
			<g id="shape5-12" transform="translate(15.7323,-995.669)">
				<title>工作表.5</title>
				<desc>色比丘念本起經　　　　　　　　　　　　　一二經　　</desc>
				<rect x="0" y="1040.84" width="408.189" height="19.8425" class="st1"/>
				<text x="4.1" y="1055.56" class="st2">色比丘念本起經　　　　　　　　　　　　　一二經</text>			</g>
			<g id="shape6-15" transform="translate(15.7323,-959.102)">
				<title>工作表.6</title>
				<desc>佛說善惡意經　　　　　　　　　　　　　　一三經　　</desc>
				<rect x="0" y="1040.84" width="408.189" height="19.8425" class="st1"/>
				<text x="4.1" y="1055.56" class="st2">佛說善惡意經　　　　　　　　　　　　　　一三經</text>			</g>
			<g id="shape7-18" transform="translate(15.7323,-885.969)">
				<title>工作表.7</title>
				<desc>有二力本經　　　　　　　　　　　　　　　一六經　　</desc>
				<rect x="0" y="1040.84" width="408.189" height="19.8425" class="st1"/>
				<text x="4.1" y="1055.56" class="st2">有二力本經　　　　　　　　　　　　　　　一六經</text>			</g>
			<g id="shape8-21" transform="translate(15.7323,-849.402)">
				<title>工作表.8</title>
				<desc>有三力經　　　　　　　　　　　　　　　　一七經　　</desc>
				<rect x="0" y="1040.84" width="408.189" height="19.8425" class="st1"/>
				<text x="4.1" y="1055.56" class="st2">有三力經　　　　　　　　　　　　　　　　一七經</text>			</g>
			<g id="shape9-24" transform="translate(15.7323,-812.835)">
				<title>工作表.9</title>
				<desc>有四力經　　　　　　　　　　　　　　　　一八經　　</desc>
				<rect x="0" y="1040.84" width="408.189" height="19.8425" class="st1"/>
				<text x="4.1" y="1055.56" class="st2">有四力經　　　　　　　　　　　　　　　　一八經</text>			</g>
			<g id="shape10-27" transform="translate(15.7323,-776.268)">
				<title>工作表.10</title>
				<desc>人有五力經　　　　　　　　　　　　　　　一九經　　</desc>
				<rect x="0" y="1040.84" width="408.189" height="19.8425" class="st1"/>
				<text x="4.1" y="1055.56" class="st2">人有五力經　　　　　　　　　　　　　　　一九經</text>			</g>
			<g id="shape11-30" transform="translate(15.7323,-739.701)">
				<title>工作表.11</title>
				<desc>不聞者類相聚經　　　　　　　　　　　　　二○經　　</desc>
				<rect x="0" y="1040.84" width="408.189" height="19.8425" class="st1"/>
				<text x="4.1" y="1055.56" class="st2">不聞者類相聚經　　　　　　　　　　　　　二○經</text>			</g>
			<g id="shape12-33" transform="translate(15.7323,-703.134)">
				<title>工作表.12</title>
				<desc>天上釋為故世在人中經　　　　　　　　　　二一經　　</desc>
				<rect x="0" y="1040.84" width="408.189" height="19.8425" class="st1"/>
				<text x="4.1" y="1055.56" class="st2">天上釋為故世在人中經　　　　　　　　　　二一經</text>			</g>
			<g id="shape13-36" transform="translate(15.7323,-666.567)">
				<title>工作表.13</title>
				<desc>爪頭土經　　　　　　　　　　　　　　　　二二經　　</desc>
				<rect x="0" y="1040.84" width="408.189" height="19.8425" class="st1"/>
				<text x="4.1" y="1055.56" class="st2">爪頭土經　　　　　　　　　　　　　　　　二二經</text>			</g>
			<g id="shape14-39" transform="translate(15.7323,-630)">
				<title>工作表.14</title>
				<desc>身為無有反復經　　　　　　　　　　　　　二三經　　</desc>
				<rect x="0" y="1040.84" width="408.189" height="19.8425" class="st1"/>
				<text x="4.1" y="1055.56" class="st2">身為無有反復經　　　　　　　　　　　　　二三經</text>			</g>
			<g id="shape15-42" transform="translate(15.7323,-593.433)">
				<title>工作表.15</title>
				<desc>師子畜生王經　　　　　　　　　　　　　　二四經　　</desc>
				<rect x="0" y="1040.84" width="408.189" height="19.8425" class="st1"/>
				<text x="4.1" y="1055.56" class="st2">師子畜生王經　　　　　　　　　　　　　　二四經</text>			</g>
			<g id="shape16-45" transform="translate(15.7323,-556.866)">
				<title>工作表.16</title>
				<desc>阿須倫子披羅門經　　　　　　　　　　　　二五經　　</desc>
				<rect x="0" y="1040.84" width="408.189" height="19.8425" class="st1"/>
				<text x="4.1" y="1055.56" class="st2">阿須倫子披羅門經　　　　　　　　　　　　二五經</text>			</g>
			<g id="shape17-48" transform="translate(15.7323,-922.535)">
				<title>工作表.17</title>
				<desc>比丘一法相經　　　　　　　　　　　　　　一五經　　</desc>
				<rect x="0" y="1040.84" width="408.189" height="19.8425" class="st1"/>
				<text x="4.1" y="1055.56" class="st2">比丘一法相經　　　　　　　　　　　　　　一五經</text>			</g>
			<g id="shape18-51" transform="translate(15.7323,-520.299)">
				<title>工作表.18</title>
				<desc>披羅門子名不侵經　　　　　　　　　　　　二六經　　</desc>
				<rect x="0" y="1040.84" width="408.189" height="19.8425" class="st1"/>
				<text x="4.1" y="1055.56" class="st2">披羅門子名不侵經　　　　　　　　　　　　二六經</text>			</g>
			<g id="shape19-54" transform="translate(15.7323,-483.732)">
				<title>工作表.19</title>
				<desc>生聞披羅門經　　　　　　　　　　　　　　二經　　　</desc>
				<rect x="0" y="1040.84" width="408.189" height="19.8425" class="st1"/>
				<text x="4.1" y="1055.56" class="st2">生聞披羅門經　　　　　　　　　　　　　　二經</text>			</g>
			<g id="shape20-57" transform="translate(15.7323,-410.598)">
				<title>工作表.20</title>
				<desc>署杜乘披羅門經　　　　　　　　　　　　　佚　　</desc>
				<rect x="0" y="1040.84" width="408.189" height="19.8425" class="st1"/>
				<text x="4.1" y="1055.56" class="st2">署杜乘披羅門經　　　　　　　　　　　　　（佚）　　</text>			</g>
			<g id="shape21-60" transform="translate(15.7323,-374.031)">
				<title>工作表.21</title>
				<desc>佛在拘薩國經　　　　　　　　　　　　　　一經　　　</desc>
				<rect x="0" y="1040.84" width="408.189" height="19.8425" class="st1"/>
				<text x="4.1" y="1055.56" class="st2">佛在拘薩國經　　　　　　　　　　　　　　一經</text>			</g>
			<g id="shape22-63" transform="translate(15.7323,-337.465)">
				<title>工作表.22</title>
				<desc>佛在優墮國經　　　　　　　　　　　　　　四經　　　</desc>
				<rect x="0" y="1040.84" width="408.189" height="19.8425" class="st1"/>
				<text x="4.1" y="1055.56" class="st2">佛在優墮國經　　　　　　　　　　　　　　四經</text>			</g>
			<g id="shape23-66" transform="translate(15.7323,-300.898)">
				<title>工作表.23</title>
				<desc>是時自梵守經　　　　　　　　　　　　　　五經　　　</desc>
				<rect x="0" y="1040.84" width="408.189" height="19.8425" class="st1"/>
				<text x="4.1" y="1055.56" class="st2">是時自梵守經　　　　　　　　　　　　　　五經</text>			</g>
			<g id="shape24-69" transform="translate(15.7323,-264.331)">
				<title>工作表.24</title>
				<desc>有三方便經　　　　　　　　　　　　　　　六經　　　</desc>
				<rect x="0" y="1040.84" width="408.189" height="19.8425" class="st1"/>
				<text x="4.1" y="1055.56" class="st2">有三方便經　　　　　　　　　　　　　　　六經</text>			</g>
			<g id="shape25-72" transform="translate(15.7323,-227.764)">
				<title>工作表.25</title>
				<desc>披羅門不信重經　　　　　　　　　　　　　七經　　　</desc>
				<rect x="0" y="1040.84" width="408.189" height="19.8425" class="st1"/>
				<text x="4.1" y="1055.56" class="st2">披羅門不信重經　　　　　　　　　　　　　七經</text>			</g>
			<g id="shape26-75" transform="translate(336.047,-8.3622)">
				<title>工作表.26</title>
				<desc>二七經</desc>
				<rect x="0" y="1040.84" width="56.126" height="19.8425" class="st1"/>
				<text x="4.06" y="1055.56" class="st2">二七經</text>			</g>
			<g id="shape27-78" transform="translate(15.7323,-154.63)">
				<title>工作表.27</title>
				<desc>四意止經　　　　　　　　　　　　　　　　一四經　　</desc>
				<rect x="0" y="1040.84" width="408.189" height="19.8425" class="st1"/>
				<text x="4.1" y="1055.56" class="st2">四意止經　　　　　　　　　　　　　　　　一四經</text>			</g>
			<g id="shape28-81" transform="translate(15.7323,-118.063)">
				<title>工作表.28</title>
				<desc>說人自說人骨不知腐經　　　　　　　　　　一一經　　</desc>
				<rect x="0" y="1040.84" width="408.189" height="19.8425" class="st1"/>
				<text x="4.1" y="1055.56" class="st2">說人自說人骨不知腐經　　　　　　　　　　一一經</text>			</g>
			<g id="shape29-84" transform="translate(336.047,-81.4961)">
				<title>工作表.29</title>
				<desc>九經</desc>
				<rect x="0" y="1040.84" width="56.126" height="19.8425" class="st1"/>
				<text x="4" y="1055.56" class="st2">九經</text>			</g>
			<g id="shape30-87" transform="translate(15.7323,-447.165)">
				<title>工作表.30</title>
				<desc>有桑竭經　　　　　　　　　　　　　　　　三經　　　</desc>
				<rect x="0" y="1040.84" width="408.189" height="19.8425" class="st1"/>
				<text x="4.1" y="1055.56" class="st2">有桑竭經　　　　　　　　　　　　　　　　三經</text>			</g>
			<g id="shape31-90" transform="translate(336.047,-44.9291)">
				<title>工作表.31</title>
				<desc>一○ 經</desc>
				<rect x="0" y="1040.84" width="60.378" height="19.8425" class="st1"/>
				<text x="4.11" y="1055.56" class="st2">一○ 經</text>			</g>
			<g id="shape34-93" transform="translate(-801.169,1060.68) rotate(-90)">
				<title>工作表.34</title>
				<path d="M0 1060.68 L1060.44 1060.68" class="st5"/>
			</g>
			<g id="shape33-96" transform="translate(439.37,1097.49) rotate(180)">
				<title>工作表.33</title>
				<path d="M0 1060.68 L439.37 1060.68" class="st5"/>
			</g>
		</g>
	</g>
</svg>
