<?xml version="1.0" encoding="UTF-8" standalone="no"?>
<!DOCTYPE svg PUBLIC "-//W3C//DTD SVG 1.1//EN" "http://www.w3.org/Graphics/SVG/1.1/DTD/svg11.dtd">
<!-- 由 Microsoft Visio, SVG Export 產生 y27.0286-h.svg 頁-1 -->
<svg xmlns="http://www.w3.org/2000/svg" xmlns:xlink="http://www.w3.org/1999/xlink" xmlns:ev="http://www.w3.org/2001/xml-events"
		width="8.12284in" height="24.7199in" viewBox="0 0 584.844 1779.83" xml:space="preserve" color-interpolation-filters="sRGB"
		class="st5">
	<style type="text/css">
	<![CDATA[
		.st1 {fill:none;stroke:none;stroke-linecap:round;stroke-linejoin:round;stroke-width:0.75}
		.st2 {fill:#000000;font-family:新細明體;font-size:1.33333em}
		.st3 {stroke:#000000;stroke-linecap:round;stroke-linejoin:round;stroke-width:0.24}
		.st4 {fill:#000000;font-family:新細明體;font-size:1.00001em}
		.st5 {fill:none;fill-rule:evenodd;font-size:12px;overflow:visible;stroke-linecap:square;stroke-miterlimit:3}
	]]>
	</style>

	<g>
		<title>頁-1</title>
		<g id="group108-1" transform="translate(0.375,-0.12)">
			<title>工作表.108</title>
			<g id="shape2-2" transform="translate(1.59872E-14,-1756.06)">
				<title>工作表.2</title>
				<desc>增一法</desc>
				<rect x="0" y="1757.15" width="56.126" height="22.6772" class="st1"/>
				<text x="4" y="1773.29" class="st2">增一法</text>			</g>
			<g id="shape3-5" transform="translate(79.811,-1756.06)">
				<title>工作表.3</title>
				<desc>　改編次第原本</desc>
				<rect x="0" y="1757.15" width="152.22" height="22.6772" class="st1"/>
				<text x="20" y="1773.29" class="st2">改編次第（原本）</text>			</g>
			<g id="shape4-8" transform="translate(335.78,-1756.06)">
				<title>工作表.4</title>
				<desc>《大正藏》本</desc>
				<rect x="0" y="1757.15" width="104.031" height="22.6772" class="st1"/>
				<text x="4" y="1773.29" class="st2">《大正藏》本</text>			</g>
			<g id="shape5-11" transform="translate(2.79776E-14,-1719.5)">
				<title>工作表.5</title>
				<desc>二法</desc>
				<rect x="0" y="1757.15" width="40.252" height="22.6772" class="st1"/>
				<text x="4" y="1773.29" class="st2">二法</text>			</g>
			<g id="shape6-14" transform="translate(1.31095E-12,-1390.39)">
				<title>工作表.6</title>
				<desc>三法</desc>
				<rect x="0" y="1757.15" width="40.252" height="22.6772" class="st1"/>
				<text x="4" y="1773.29" class="st2">三法</text>			</g>
			<g id="shape7-17" transform="translate(2.33014E-12,-1061.29)">
				<title>工作表.7</title>
				<desc>四法</desc>
				<rect x="0" y="1757.15" width="40.252" height="22.6772" class="st1"/>
				<text x="4" y="1773.29" class="st2">四法</text>			</g>
			<g id="shape8-20" transform="translate(3.86491E-12,-659.055)">
				<title>工作表.8</title>
				<desc>五法</desc>
				<rect x="0" y="1757.15" width="40.252" height="22.6772" class="st1"/>
				<text x="4" y="1773.29" class="st2">五法</text>			</g>
			<g id="shape9-23" transform="translate(5.52758E-12,-147.118)">
				<title>工作表.9</title>
				<desc>八法</desc>
				<rect x="0" y="1757.15" width="40.252" height="22.6772" class="st1"/>
				<text x="4" y="1773.29" class="st2">八法</text>			</g>
			<g id="shape10-26" transform="translate(5.77938E-12,-73.9843)">
				<title>工作表.10</title>
				<desc>九法</desc>
				<rect x="0" y="1757.15" width="40.252" height="22.6772" class="st1"/>
				<text x="4" y="1773.29" class="st2">九法</text>			</g>
			<g id="shape11-29" transform="translate(-1711.36,1779.83) rotate(-90)">
				<title>工作表.11</title>
				<path d="M0 1779.83 L1779.59 1779.83" class="st3"/>
			</g>
			<g id="shape12-32" transform="translate(584.094,1809.27) rotate(180)">
				<title>工作表.12</title>
				<path d="M0 1779.83 L584.09 1779.83" class="st3"/>
			</g>
			<g id="shape13-35" transform="translate(-1471.83,1779.83) rotate(-90)">
				<title>工作表.13</title>
				<path d="M0 1779.83 L1779.59 1779.83" class="st3"/>
			</g>
			<g id="shape14-38" transform="translate(79.811,-1719.5)">
				<title>工作表.14</title>
				<desc>一經二人世間難得</desc>
				<rect x="0" y="1757.15" width="152.22" height="22.6772" class="st1"/>
				<text x="4" y="1773.29" class="st2">一經：二人世間難得</text>			</g>
			<g id="shape15-41" transform="translate(319.906,-1719.5)">
				<title>工作表.15</title>
				<desc>三二經</desc>
				<rect x="0" y="1757.15" width="56.126" height="22.6772" class="st1"/>
				<text x="4" y="1773.29" class="st2">三二經</text>			</g>
			<g id="shape16-44" transform="translate(79.811,-1682.93)">
				<title>工作表.16</title>
				<desc>二經二人世間難得</desc>
				<rect x="0" y="1757.15" width="152.22" height="22.6772" class="st1"/>
				<text x="4" y="1773.29" class="st2">二經：二人世間難得</text>			</g>
			<g id="shape17-47" transform="translate(79.811,-1609.8)">
				<title>工作表.17</title>
				<desc>四經二人世間難得</desc>
				<rect x="0" y="1757.15" width="152.22" height="22.6772" class="st1"/>
				<text x="4" y="1773.29" class="st2">四經：二人世間難得</text>			</g>
			<g id="shape18-50" transform="translate(79.811,-1646.36)">
				<title>工作表.18</title>
				<desc>三經二人世間難得</desc>
				<rect x="0" y="1757.15" width="152.22" height="22.6772" class="st1"/>
				<text x="4" y="1773.29" class="st2">三經：二人世間難得</text>			</g>
			<g id="shape19-53" transform="translate(79.811,-1536.66)">
				<title>工作表.19</title>
				<desc>六經二人世間難得</desc>
				<rect x="0" y="1757.15" width="152.22" height="22.6772" class="st1"/>
				<text x="4" y="1773.29" class="st2">六經：二人世間難得</text>			</g>
			<g id="shape20-56" transform="translate(79.811,-1500.09)">
				<title>工作表.20</title>
				<desc>七經二人世間難得</desc>
				<rect x="0" y="1757.15" width="152.22" height="22.6772" class="st1"/>
				<text x="4" y="1773.29" class="st2">七經：二人世間難得</text>			</g>
			<g id="shape21-59" transform="translate(79.811,-1573.23)">
				<title>工作表.21</title>
				<desc>五經二人世間難得</desc>
				<rect x="0" y="1757.15" width="152.22" height="22.6772" class="st1"/>
				<text x="4" y="1773.29" class="st2">五經：二人世間難得</text>			</g>
			<g id="shape22-62" transform="translate(79.811,-1463.53)">
				<title>工作表.22</title>
				<desc>八經二人世間難斷難勝</desc>
				<rect x="0" y="1757.15" width="184.252" height="22.6772" class="st1"/>
				<text x="4" y="1773.29" class="st2">八經：二人世間難斷難勝</text>			</g>
			<g id="shape23-65" transform="translate(79.811,-1426.96)">
				<title>工作表.23</title>
				<desc>九經二清白法</desc>
				<rect x="0" y="1757.15" width="152.22" height="22.6772" class="st1"/>
				<text x="4" y="1773.29" class="st2">九經：二清白法</text>			</g>
			<g id="shape24-68" transform="translate(79.811,-1390.39)">
				<title>工作表.24</title>
				<desc>一○經三惡行</desc>
				<rect x="0" y="1757.15" width="152.22" height="22.6772" class="st1"/>
				<text x="4" y="1773.29" class="st2">一○經：三惡行</text>			</g>
			<g id="shape25-71" transform="translate(79.811,-1353.83)">
				<title>工作表.25</title>
				<desc>一一經三世間</desc>
				<rect x="0" y="1757.15" width="156.189" height="22.6772" class="st1"/>
				<text x="4" y="1773.29" class="st2">一一經：三世（間）</text>			</g>
			<g id="shape26-74" transform="translate(79.811,-1317.26)">
				<title>工作表.26</title>
				<desc>一二經三行</desc>
				<rect x="0" y="1757.15" width="152.22" height="22.6772" class="st1"/>
				<text x="4" y="1773.29" class="st2">一二經：三行</text>			</g>
			<g id="shape27-77" transform="translate(79.811,-1280.69)">
				<title>工作表.27</title>
				<desc>一三經三安善樂</desc>
				<rect x="0" y="1757.15" width="152.22" height="22.6772" class="st1"/>
				<text x="4" y="1773.29" class="st2">一三經：三安善樂</text>			</g>
			<g id="shape28-80" transform="translate(79.811,-1244.13)">
				<title>工作表.28</title>
				<desc>一四經三大病</desc>
				<rect x="0" y="1757.15" width="152.22" height="22.6772" class="st1"/>
				<text x="4" y="1773.29" class="st2">一四經：三大病</text>			</g>
			<g id="shape29-83" transform="translate(79.811,-1207.56)">
				<title>工作表.29</title>
				<desc>一五經三惡本</desc>
				<rect x="0" y="1757.15" width="152.22" height="22.6772" class="st1"/>
				<text x="4" y="1773.29" class="st2">一五經：三惡本</text>			</g>
			<g id="shape30-86" transform="translate(79.811,-1134.43)">
				<title>工作表.30</title>
				<desc>一六經三守身口意</desc>
				<rect x="0" y="1757.15" width="188.22" height="22.6772" class="st1"/>
				<text x="4" y="1773.29" class="st2">一六經：三守（身口意）</text>			</g>
			<g id="shape31-89" transform="translate(79.811,-1097.86)">
				<title>工作表.31</title>
				<desc>一七經三輩人</desc>
				<rect x="0" y="1757.15" width="152.22" height="22.6772" class="st1"/>
				<text x="4" y="1773.29" class="st2">一七經：三輩人</text>			</g>
			<g id="shape32-92" transform="translate(79.811,-1061.29)">
				<title>工作表.32</title>
				<desc>一八經四行為黠所有</desc>
				<rect x="0" y="1757.15" width="184.252" height="22.6772" class="st1"/>
				<text x="4" y="1773.29" class="st2">一八經：四行為黠所有</text>			</g>
			<g id="shape33-95" transform="translate(79.811,-1024.72)">
				<title>工作表.33</title>
				<desc>一九經四著</desc>
				<rect x="0" y="1757.15" width="184.252" height="22.6772" class="st1"/>
				<text x="4" y="1773.29" class="st2">一九經：四著</text>			</g>
			<g id="shape34-98" transform="translate(79.811,-988.157)">
				<title>工作表.34</title>
				<desc>二○經四顛倒</desc>
				<rect x="0" y="1757.15" width="184.252" height="22.6772" class="st1"/>
				<text x="4" y="1773.29" class="st2">二○經：四顛倒</text>			</g>
			<g id="shape35-101" transform="translate(79.811,-951.591)">
				<title>工作表.35</title>
				<desc>二一經四施</desc>
				<rect x="0" y="1757.15" width="184.252" height="22.6772" class="st1"/>
				<text x="4" y="1773.29" class="st2">二一經：四施</text>			</g>
			<g id="shape36-104" transform="translate(79.811,-915.024)">
				<title>工作表.36</title>
				<desc>二二經四行法輪</desc>
				<rect x="0" y="1757.15" width="184.252" height="22.6772" class="st1"/>
				<text x="4" y="1773.29" class="st2">二二經：四行法輪</text>			</g>
			<g id="shape37-107" transform="translate(79.811,-878.457)">
				<title>工作表.37</title>
				<desc>二三經人有四輩</desc>
				<rect x="0" y="1757.15" width="184.252" height="22.6772" class="st1"/>
				<text x="4" y="1773.29" class="st2">二三經：人有四輩</text>			</g>
			<g id="shape38-110" transform="translate(79.811,-841.89)">
				<title>工作表.38</title>
				<desc>二四經人有四輩</desc>
				<rect x="0" y="1757.15" width="184.252" height="22.6772" class="st1"/>
				<text x="4" y="1773.29" class="st2">二四經：人有四輩</text>			</g>
			<g id="shape39-113" transform="translate(175.906,-957.543)">
				<title>工作表.39</title>
				<desc>攝</desc>
				<rect x="0" y="1757.15" width="24.378" height="22.6772" class="st1"/>
				<text x="6.19" y="1772.09" class="st4">攝</text>			</g>
			<g id="shape40-116" transform="translate(79.811,-805.323)">
				<title>工作表.40</title>
				<desc>二五經四輩雲</desc>
				<rect x="0" y="1757.15" width="184.252" height="22.6772" class="st1"/>
				<text x="4" y="1773.29" class="st2">二五經：四輩雲</text>			</g>
			<g id="shape41-119" transform="translate(79.811,-768.756)">
				<title>工作表.41</title>
				<desc>二六經四舍</desc>
				<rect x="0" y="1757.15" width="184.252" height="22.6772" class="st1"/>
				<text x="4" y="1773.29" class="st2">二六經：四舍</text>			</g>
			<g id="shape42-122" transform="translate(79.811,-732.189)">
				<title>工作表.42</title>
				<desc>二七經四行</desc>
				<rect x="0" y="1757.15" width="184.252" height="22.6772" class="st1"/>
				<text x="4" y="1773.29" class="st2">二七經：四行</text>			</g>
			<g id="shape43-125" transform="translate(79.811,-695.622)">
				<title>工作表.43</title>
				<desc>二八經四家歡喜</desc>
				<rect x="0" y="1757.15" width="184.252" height="22.6772" class="st1"/>
				<text x="4" y="1773.29" class="st2">二八經：四家歡喜</text>			</g>
			<g id="shape44-128" transform="translate(79.811,-659.055)">
				<title>工作表.44</title>
				<desc>二九經色力病壽豪</desc>
				<rect x="0" y="1757.15" width="184.252" height="22.6772" class="st1"/>
				<text x="4" y="1773.29" class="st2">二九經：色力病壽豪</text>			</g>
			<g id="shape45-131" transform="translate(79.811,-622.488)">
				<title>工作表.45</title>
				<desc>三○經五福施</desc>
				<rect x="0" y="1757.15" width="184.252" height="22.6772" class="st1"/>
				<text x="4" y="1773.29" class="st2">三○經：五福施</text>			</g>
			<g id="shape46-134" transform="translate(79.811,-585.921)">
				<title>工作表.46</title>
				<desc>三一經布施有五品</desc>
				<rect x="0" y="1757.15" width="184.252" height="22.6772" class="st1"/>
				<text x="4" y="1773.29" class="st2">三一經：布施有五品</text>			</g>
			<g id="shape47-137" transform="translate(79.811,-549.354)">
				<title>工作表.47</title>
				<desc>三二經五法得道</desc>
				<rect x="0" y="1757.15" width="184.252" height="22.6772" class="st1"/>
				<text x="4" y="1773.29" class="st2">三二經：五法得道</text>			</g>
			<g id="shape48-140" transform="translate(79.811,-512.787)">
				<title>工作表.48</title>
				<desc>三三經五行</desc>
				<rect x="0" y="1757.15" width="184.252" height="22.6772" class="st1"/>
				<text x="4" y="1773.29" class="st2">三三經：五行</text>			</g>
			<g id="shape49-143" transform="translate(79.811,-476.22)">
				<title>工作表.49</title>
				<desc>三四經五種煩惱</desc>
				<rect x="0" y="1757.15" width="184.252" height="22.6772" class="st1"/>
				<text x="4" y="1773.29" class="st2">三四經：五種煩惱</text>			</g>
			<g id="shape50-146" transform="translate(79.811,-439.654)">
				<title>工作表.50</title>
				<desc>三五經步行五德</desc>
				<rect x="0" y="1757.15" width="184.252" height="22.6772" class="st1"/>
				<text x="4" y="1773.29" class="st2">三五經：步行五德</text>			</g>
			<g id="shape51-149" transform="translate(79.811,-403.087)">
				<title>工作表.51</title>
				<desc>三六經五法行</desc>
				<rect x="0" y="1757.15" width="184.252" height="22.6772" class="st1"/>
				<text x="4" y="1773.29" class="st2">三六經：五法行</text>			</g>
			<g id="shape52-152" transform="translate(79.811,-366.52)">
				<title>工作表.52</title>
				<desc>三七經五惡</desc>
				<rect x="0" y="1757.15" width="184.252" height="22.6772" class="st1"/>
				<text x="4" y="1773.29" class="st2">三七經：五惡</text>			</g>
			<g id="shape53-155" transform="translate(79.811,-329.953)">
				<title>工作表.53</title>
				<desc>三八經五惱</desc>
				<rect x="0" y="1757.15" width="184.252" height="22.6772" class="st1"/>
				<text x="4" y="1773.29" class="st2">三八經：五惱</text>			</g>
			<g id="shape54-158" transform="translate(79.811,-293.386)">
				<title>工作表.54</title>
				<desc>三九經五惡不忍辱</desc>
				<rect x="0" y="1757.15" width="184.252" height="22.6772" class="st1"/>
				<text x="4" y="1773.29" class="st2">三九經：五惡不忍辱</text>			</g>
			<g id="shape55-161" transform="translate(79.811,-256.819)">
				<title>工作表.55</title>
				<desc>四○經五惡不耐行</desc>
				<rect x="0" y="1757.15" width="184.252" height="22.6772" class="st1"/>
				<text x="4" y="1773.29" class="st2">四○經：五惡不耐行</text>			</g>
			<g id="shape56-164" transform="translate(79.811,-220.252)">
				<title>工作表.56</title>
				<desc>四一經象有五相</desc>
				<rect x="0" y="1757.15" width="184.252" height="22.6772" class="st1"/>
				<text x="4" y="1773.29" class="st2">四一經：象有五相</text>			</g>
			<g id="shape57-167" transform="translate(79.811,-183.685)">
				<title>工作表.57</title>
				<desc>四二經五惡不依他</desc>
				<rect x="0" y="1757.15" width="184.252" height="22.6772" class="st1"/>
				<text x="4" y="1773.29" class="st2">四二經：五惡不依他</text>			</g>
			<g id="shape58-170" transform="translate(79.811,-147.118)">
				<title>工作表.58</title>
				<desc>四三經八欲</desc>
				<rect x="0" y="1757.15" width="184.252" height="22.6772" class="st1"/>
				<text x="4" y="1773.29" class="st2">四三經：八欲</text>			</g>
			<g id="shape59-173" transform="translate(79.811,-110.551)">
				<title>工作表.59</title>
				<desc>　　　　瘡有八輩</desc>
				<rect x="0" y="1757.15" width="184.252" height="22.6772" class="st1"/>
				<text x="68" y="1773.29" class="st2">瘡有八輩</text>			</g>
			<g id="shape60-176" transform="translate(79.811,-73.9843)">
				<title>工作表.60</title>
				<desc>四四經九漏</desc>
				<rect x="0" y="1757.15" width="184.252" height="22.6772" class="st1"/>
				<text x="4" y="1773.29" class="st2">四四經：九漏</text>			</g>
			<g id="shape61-179" transform="translate(319.906,-1682.93)">
				<title>工作表.61</title>
				<desc>三三經</desc>
				<rect x="0" y="1757.15" width="56.126" height="22.6772" class="st1"/>
				<text x="4" y="1773.29" class="st2">三三經</text>			</g>
			<g id="shape62-182" transform="translate(319.906,-1646.36)">
				<title>工作表.62</title>
				<desc>三四經</desc>
				<rect x="0" y="1757.15" width="56.126" height="22.6772" class="st1"/>
				<text x="4" y="1773.29" class="st2">三四經</text>			</g>
			<g id="shape63-185" transform="translate(319.906,-1609.8)">
				<title>工作表.63</title>
				<desc>三五經</desc>
				<rect x="0" y="1757.15" width="56.126" height="22.6772" class="st1"/>
				<text x="4" y="1773.29" class="st2">三五經</text>			</g>
			<g id="shape64-188" transform="translate(319.906,-1280.69)">
				<title>工作表.64</title>
				<desc>四四經</desc>
				<rect x="0" y="1757.15" width="56.126" height="22.6772" class="st1"/>
				<text x="4" y="1773.29" class="st2">四四經</text>			</g>
			<g id="shape65-191" transform="translate(319.906,-1317.26)">
				<title>工作表.65</title>
				<desc>四三經</desc>
				<rect x="0" y="1757.15" width="56.126" height="22.6772" class="st1"/>
				<text x="4" y="1773.29" class="st2">四三經</text>			</g>
			<g id="shape66-194" transform="translate(319.906,-1573.23)">
				<title>工作表.66</title>
				<desc>三六經</desc>
				<rect x="0" y="1757.15" width="56.126" height="22.6772" class="st1"/>
				<text x="4" y="1773.29" class="st2">三六經</text>			</g>
			<g id="shape67-197" transform="translate(319.906,-1536.66)">
				<title>工作表.67</title>
				<desc>三七經</desc>
				<rect x="0" y="1757.15" width="56.126" height="22.6772" class="st1"/>
				<text x="4" y="1773.29" class="st2">三七經</text>			</g>
			<g id="shape68-200" transform="translate(319.906,-1500.09)">
				<title>工作表.68</title>
				<desc>三八經</desc>
				<rect x="0" y="1757.15" width="56.126" height="22.6772" class="st1"/>
				<text x="4" y="1773.29" class="st2">三八經</text>			</g>
			<g id="shape69-203" transform="translate(319.906,-1463.53)">
				<title>工作表.69</title>
				<desc>三九經</desc>
				<rect x="0" y="1757.15" width="56.126" height="22.6772" class="st1"/>
				<text x="4" y="1773.29" class="st2">三九經</text>			</g>
			<g id="shape70-206" transform="translate(319.906,-1426.96)">
				<title>工作表.70</title>
				<desc>四○經</desc>
				<rect x="0" y="1757.15" width="60.378" height="22.6772" class="st1"/>
				<text x="4" y="1773.29" class="st2">四○經</text>			</g>
			<g id="shape71-209" transform="translate(319.906,-1207.56)">
				<title>工作表.71</title>
				<desc>四六經</desc>
				<rect x="0" y="1757.15" width="56.126" height="22.6772" class="st1"/>
				<text x="4" y="1773.29" class="st2">四六經</text>			</g>
			<g id="shape72-212" transform="translate(319.906,-1244.13)">
				<title>工作表.72</title>
				<desc>四五經</desc>
				<rect x="0" y="1757.15" width="56.126" height="22.6772" class="st1"/>
				<text x="4" y="1773.29" class="st2">四五經</text>			</g>
			<g id="shape73-215" transform="translate(319.906,-1353.83)">
				<title>工作表.73</title>
				<desc>四二經</desc>
				<rect x="0" y="1757.15" width="56.126" height="22.6772" class="st1"/>
				<text x="4" y="1773.29" class="st2">四二經</text>			</g>
			<g id="shape74-218" transform="translate(319.906,-1390.39)">
				<title>工作表.74</title>
				<desc>四一經上‧一經下</desc>
				<rect x="0" y="1757.15" width="184.252" height="22.6772" class="st1"/>
				<text x="4" y="1773.29" class="st2">四一經上‧一經下</text>			</g>
			<g id="shape75-221" transform="translate(319.906,-1170.99)">
				<title>工作表.75</title>
				<desc>一經上三經下《七處三觀經》</desc>
				<rect x="0" y="1757.15" width="264.189" height="22.6772" class="st1"/>
				<text x="4" y="1773.29" class="st2">一經上，三經下（《七處三觀經》）</text>			</g>
			<g id="shape76-224" transform="translate(319.906,-1134.43)">
				<title>工作表.76</title>
				<desc>二經</desc>
				<rect x="0" y="1757.15" width="56.126" height="22.6772" class="st1"/>
				<text x="4" y="1773.29" class="st2">二經</text>			</g>
			<g id="shape77-227" transform="translate(319.906,-1097.86)">
				<title>工作表.77</title>
				<desc>三經上‧四一經下</desc>
				<rect x="0" y="1757.15" width="184.252" height="22.6772" class="st1"/>
				<text x="4" y="1773.29" class="st2">三經上‧四一經下</text>			</g>
			<g id="shape78-230" transform="translate(319.622,-1059.02)">
				<title>工作表.78</title>
				<desc>四七經</desc>
				<rect x="0" y="1757.15" width="56.126" height="22.6772" class="st1"/>
				<text x="4" y="1773.29" class="st2">四七經</text>			</g>
			<g id="shape79-233" transform="translate(319.906,-1024.72)">
				<title>工作表.79</title>
				<desc>四經</desc>
				<rect x="0" y="1757.15" width="56.126" height="22.6772" class="st1"/>
				<text x="4" y="1773.29" class="st2">四經</text>			</g>
			<g id="shape80-236" transform="translate(319.906,-988.157)">
				<title>工作表.80</title>
				<desc>五經</desc>
				<rect x="0" y="1757.15" width="56.126" height="22.6772" class="st1"/>
				<text x="4" y="1773.29" class="st2">五經</text>			</g>
			<g id="shape81-239" transform="translate(319.906,-951.591)">
				<title>工作表.81</title>
				<desc>六經</desc>
				<rect x="0" y="1757.15" width="56.126" height="22.6772" class="st1"/>
				<text x="4" y="1773.29" class="st2">六經</text>			</g>
			<g id="shape82-242" transform="translate(319.906,-915.024)">
				<title>工作表.82</title>
				<desc>七經</desc>
				<rect x="0" y="1757.15" width="56.126" height="22.6772" class="st1"/>
				<text x="4" y="1773.29" class="st2">七經</text>			</g>
			<g id="shape83-245" transform="translate(319.906,-878.457)">
				<title>工作表.83</title>
				<desc>八經</desc>
				<rect x="0" y="1757.15" width="56.126" height="22.6772" class="st1"/>
				<text x="4" y="1773.29" class="st2">八經</text>			</g>
			<g id="shape84-248" transform="translate(319.906,-841.89)">
				<title>工作表.84</title>
				<desc>九經</desc>
				<rect x="0" y="1757.15" width="56.126" height="22.6772" class="st1"/>
				<text x="4" y="1773.29" class="st2">九經</text>			</g>
			<g id="shape86-251" transform="translate(319.906,-768.756)">
				<title>工作表.86</title>
				<desc>一一經</desc>
				<rect x="0" y="1757.15" width="56.126" height="22.6772" class="st1"/>
				<text x="4" y="1773.29" class="st2">一一經</text>			</g>
			<g id="shape87-254" transform="translate(319.906,-732.189)">
				<title>工作表.87</title>
				<desc>一二經</desc>
				<rect x="0" y="1757.15" width="56.126" height="22.6772" class="st1"/>
				<text x="4" y="1773.29" class="st2">一二經</text>			</g>
			<g id="shape88-257" transform="translate(319.906,-695.622)">
				<title>工作表.88</title>
				<desc>一三經</desc>
				<rect x="0" y="1757.15" width="56.126" height="22.6772" class="st1"/>
				<text x="4" y="1773.29" class="st2">一三經</text>			</g>
			<g id="shape89-260" transform="translate(319.906,-659.055)">
				<title>工作表.89</title>
				<desc>一四經</desc>
				<rect x="0" y="1757.15" width="56.126" height="22.6772" class="st1"/>
				<text x="4" y="1773.29" class="st2">一四經</text>			</g>
			<g id="shape90-263" transform="translate(319.906,-622.488)">
				<title>工作表.90</title>
				<desc>一五經</desc>
				<rect x="0" y="1757.15" width="56.126" height="22.6772" class="st1"/>
				<text x="4" y="1773.29" class="st2">一五經</text>			</g>
			<g id="shape91-266" transform="translate(319.906,-585.921)">
				<title>工作表.91</title>
				<desc>一六經</desc>
				<rect x="0" y="1757.15" width="56.126" height="22.6772" class="st1"/>
				<text x="4" y="1773.29" class="st2">一六經</text>			</g>
			<g id="shape92-269" transform="translate(319.906,-549.354)">
				<title>工作表.92</title>
				<desc>一七經</desc>
				<rect x="0" y="1757.15" width="56.126" height="22.6772" class="st1"/>
				<text x="4" y="1773.29" class="st2">一七經</text>			</g>
			<g id="shape93-272" transform="translate(319.906,-512.787)">
				<title>工作表.93</title>
				<desc>一八經</desc>
				<rect x="0" y="1757.15" width="56.126" height="22.6772" class="st1"/>
				<text x="4" y="1773.29" class="st2">一八經</text>			</g>
			<g id="shape94-275" transform="translate(319.906,-476.22)">
				<title>工作表.94</title>
				<desc>一九經</desc>
				<rect x="0" y="1757.15" width="56.126" height="22.6772" class="st1"/>
				<text x="4" y="1773.29" class="st2">一九經</text>			</g>
			<g id="shape96-278" transform="translate(319.906,-403.087)">
				<title>工作表.96</title>
				<desc>二一經</desc>
				<rect x="0" y="1757.15" width="56.126" height="22.6772" class="st1"/>
				<text x="4" y="1773.29" class="st2">二一經</text>			</g>
			<g id="shape97-281" transform="translate(319.906,-366.52)">
				<title>工作表.97</title>
				<desc>二二經</desc>
				<rect x="0" y="1757.15" width="56.126" height="22.6772" class="st1"/>
				<text x="4" y="1773.29" class="st2">二二經</text>			</g>
			<g id="shape98-284" transform="translate(319.906,-329.953)">
				<title>工作表.98</title>
				<desc>二三經</desc>
				<rect x="0" y="1757.15" width="56.126" height="22.6772" class="st1"/>
				<text x="4" y="1773.29" class="st2">二三經</text>			</g>
			<g id="shape99-287" transform="translate(319.906,-293.386)">
				<title>工作表.99</title>
				<desc>二四經</desc>
				<rect x="0" y="1757.15" width="56.126" height="22.6772" class="st1"/>
				<text x="4" y="1773.29" class="st2">二四經</text>			</g>
			<g id="shape100-290" transform="translate(319.906,-256.819)">
				<title>工作表.100</title>
				<desc>二五經</desc>
				<rect x="0" y="1757.15" width="56.126" height="22.6772" class="st1"/>
				<text x="4" y="1773.29" class="st2">二五經</text>			</g>
			<g id="shape101-293" transform="translate(319.906,-220.252)">
				<title>工作表.101</title>
				<desc>二六經</desc>
				<rect x="0" y="1757.15" width="56.126" height="22.6772" class="st1"/>
				<text x="4" y="1773.29" class="st2">二六經</text>			</g>
			<g id="shape102-296" transform="translate(319.906,-183.685)">
				<title>工作表.102</title>
				<desc>二七經</desc>
				<rect x="0" y="1757.15" width="56.126" height="22.6772" class="st1"/>
				<text x="4" y="1773.29" class="st2">二七經</text>			</g>
			<g id="shape103-299" transform="translate(319.906,-147.118)">
				<title>工作表.103</title>
				<desc>二八經</desc>
				<rect x="0" y="1757.15" width="56.126" height="22.6772" class="st1"/>
				<text x="4" y="1773.29" class="st2">二八經</text>			</g>
			<g id="shape104-302" transform="translate(319.906,-73.9843)">
				<title>工作表.104</title>
				<desc>二九經</desc>
				<rect x="0" y="1757.15" width="56.126" height="22.6772" class="st1"/>
				<text x="4" y="1773.29" class="st2">二九經</text>			</g>
			<g id="shape105-305" transform="translate(319.906,-37.4173)">
				<title>工作表.105</title>
				<desc>三○經《積骨經》</desc>
				<rect x="0" y="1757.15" width="184.252" height="22.6772" class="st1"/>
				<text x="4" y="1773.29" class="st2">三○經（《積骨經》）</text>			</g>
			<g id="shape106-308" transform="translate(319.906,-0.850394)">
				<title>工作表.106</title>
				<desc>三一經《九橫經》</desc>
				<rect x="0" y="1757.15" width="184.252" height="22.6772" class="st1"/>
				<text x="4" y="1773.29" class="st2">三一經（《九橫經》）</text>			</g>
			<g id="shape85-311" transform="translate(319.906,-805.323)">
				<title>工作表.85</title>
				<desc>一○經</desc>
				<rect x="0" y="1757.15" width="60.378" height="22.6772" class="st1"/>
				<text x="4" y="1773.29" class="st2">一○經</text>			</g>
			<g id="shape107-314" transform="translate(319.906,-439.654)">
				<title>工作表.107</title>
				<desc>二○經</desc>
				<rect x="0" y="1757.15" width="60.378" height="22.6772" class="st1"/>
				<text x="4" y="1773.29" class="st2">二○經</text>			</g>
		</g>
	</g>
</svg>
