<?xml version="1.0" encoding="UTF-8" standalone="no"?>
<!DOCTYPE svg PUBLIC "-//W3C//DTD SVG 1.0//EN" "http://www.w3.org/TR/2001/REC-SVG-20010904/DTD/svg10.dtd">
<!-- 由 Microsoft Visio 11.0, SVG Export, v1.0 產生 y27.0123.svg Page-1 -->
<svg xmlns="http://www.w3.org/2000/svg" xmlns:xlink="http://www.w3.org/1999/xlink" xmlns:ev="http://www.w3.org/2001/xml-events"
		xmlns:v="http://schemas.microsoft.com/visio/2003/SVGExtensions/" width="8.69564in" height="7.33186in"
		viewBox="0 0 626.086 527.894" xml:space="preserve" color-interpolation-filters="sRGB" class="st6">
	<v:documentProperties v:langID="1028" v:metric="true" v:viewMarkup="false">
		<v:userDefs>
			<v:ud v:nameU="msvSubprocessMaster" v:prompt="" v:val="VT4(Box)"/>
			<v:ud v:nameU="msvNoAutoConnect" v:val="VT0(1):26"/>
		</v:userDefs>
	</v:documentProperties>

	<style type="text/css">
	<![CDATA[
		.st1 {fill:none;stroke:none;stroke-linecap:round;stroke-linejoin:round;stroke-width:0.75}
		.st2 {fill:#000000;font-family:標楷體;font-size:1.33333em}
		.st3 {font-size:1em}
		.st4 {stroke:#000000;stroke-linecap:round;stroke-linejoin:round;stroke-width:0.24}
		.st5 {stroke:#000000;stroke-linecap:round;stroke-linejoin:round;stroke-opacity:0;stroke-width:0.24}
		.st6 {fill:none;fill-rule:evenodd;font-size:12px;overflow:visible;stroke-linecap:square;stroke-miterlimit:3}
	]]>
	</style>

	<g v:mID="0" v:index="1" v:groupContext="foregroundPage">
		<title>頁-1</title>
		<v:pageProperties v:drawingScale="0.0393701" v:pageScale="0.0393701" v:drawingUnits="24" v:shadowOffsetX="8.50394"
				v:shadowOffsetY="-8.50394"/>
		<g id="shape1-1" v:mID="1" v:groupContext="shape" transform="translate(28.0195,-420.986)">
			<title>工作表.1</title>
			<desc>遊行經</desc>
			<v:textBlock v:margins="rect(4,4,4,4)" v:tabSpace="42.5197"/>
			<v:textRect cx="44.0787" cy="483.815" width="88.16" height="88.1575"/>
			<rect x="0" y="439.736" width="88.1575" height="88.1575" class="st1"/>
			<text x="0.25em 2.255em 4.26em" y="488.62" class="st2" v:langID="1028"><v:paragraph v:horizAlign="4"/><v:tabList/>遊行經</text>		</g>
		<g id="shape2-4" v:mID="2" v:groupContext="shape" transform="translate(28.0195,-384.419)">
			<title>工作表.2</title>
			<desc>安慰阿難</desc>
			<v:textBlock v:margins="rect(4,4,4,4)" v:tabSpace="42.5197"/>
			<v:textRect cx="44.0787" cy="483.815" width="88.16" height="88.1575"/>
			<rect x="0" y="439.736" width="88.1575" height="88.1575" class="st1"/>
			<text x="0.25em" y="488.62" class="st2" v:langID="1028"><v:paragraph v:horizAlign="4"/><v:tabList/>１<tspan x="1.252em
							 2.255em 3.257em 4.26em" dy="0em" class="st3">安慰阿難</tspan></text>		</g>
		<g id="shape3-8" v:mID="3" v:groupContext="shape" transform="translate(28.0195,-347.852)">
			<title>工作表.3</title>
			<desc>敬念四處</desc>
			<v:textBlock v:margins="rect(4,4,4,4)" v:tabSpace="42.5197"/>
			<v:textRect cx="44.0787" cy="483.815" width="88.16" height="88.1575"/>
			<rect x="0" y="439.736" width="88.1575" height="88.1575" class="st1"/>
			<text x="0.25em" y="488.62" class="st2" v:langID="1028"><v:paragraph v:horizAlign="4"/><v:tabList/>２<tspan x="1.252em
							 2.255em 3.257em 4.26em" dy="0em" class="st3">敬念四處</tspan></text>		</g>
		<g id="shape4-12" v:mID="4" v:groupContext="shape" transform="translate(28.0195,-311.285)">
			<title>工作表.4</title>
			<desc>出　　家</desc>
			<v:textBlock v:margins="rect(4,4,4,4)" v:tabSpace="42.5197"/>
			<v:textRect cx="44.0787" cy="483.815" width="88.16" height="88.1575"/>
			<rect x="0" y="439.736" width="88.1575" height="88.1575" class="st1"/>
			<text x="0.25em" y="488.62" class="st2" v:langID="1028"><v:paragraph v:horizAlign="4"/><v:tabList/>３<tspan x="1.252em"
						dy="0em" class="st3">出</tspan><tspan x="2.255em 3.257em" dy="0em" class="st3">　　</tspan><tspan x="4.26em"
						dy="0em" class="st3">家</tspan></text>		</g>
		<g id="shape5-18" v:mID="5" v:groupContext="shape" transform="translate(28.0195,-274.719)">
			<title>工作表.5</title>
			<desc>治罰惡口</desc>
			<v:textBlock v:margins="rect(4,4,4,4)" v:tabSpace="42.5197"/>
			<v:textRect cx="44.0787" cy="483.815" width="88.16" height="88.1575"/>
			<rect x="0" y="439.736" width="88.1575" height="88.1575" class="st1"/>
			<text x="0.25em" y="488.62" class="st2" v:langID="1028"><v:paragraph v:horizAlign="4"/><v:tabList/>４<tspan x="1.252em
							 2.255em 3.257em 4.26em" dy="0em" class="st3">治罰惡口</tspan></text>		</g>
		<g id="shape6-22" v:mID="6" v:groupContext="shape" transform="translate(28.0195,-238.152)">
			<title>工作表.6</title>
			<desc>教誨女人</desc>
			<v:textBlock v:margins="rect(4,4,4,4)" v:tabSpace="42.5197"/>
			<v:textRect cx="44.0787" cy="483.815" width="88.16" height="88.1575"/>
			<rect x="0" y="439.736" width="88.1575" height="88.1575" class="st1"/>
			<text x="0.25em" y="488.62" class="st2" v:langID="1028"><v:paragraph v:horizAlign="4"/><v:tabList/>５<tspan x="1.252em
							 2.255em 3.257em 4.26em" dy="0em" class="st3">教誨女人</tspan></text>		</g>
		<g id="shape7-26" v:mID="7" v:groupContext="shape" transform="translate(28.0195,-201.585)">
			<title>工作表.7</title>
			<desc>依止經戒</desc>
			<v:textBlock v:margins="rect(4,4,4,4)" v:tabSpace="42.5197"/>
			<v:textRect cx="44.0787" cy="483.815" width="88.16" height="88.1575"/>
			<rect x="0" y="439.736" width="88.1575" height="88.1575" class="st1"/>
			<text x="0.25em" y="488.62" class="st2" v:langID="1028"><v:paragraph v:horizAlign="4"/><v:tabList/>６<tspan x="1.252em
							 2.255em 3.257em 4.26em" dy="0em" class="st3">依止經戒</tspan></text>		</g>
		<g id="shape8-30" v:mID="8" v:groupContext="shape" transform="translate(28.0195,-165.018)">
			<title>工作表.8</title>
			<desc>捨小小戒</desc>
			<v:textBlock v:margins="rect(4,4,4,4)" v:tabSpace="42.5197"/>
			<v:textRect cx="44.0787" cy="483.815" width="88.16" height="88.1575"/>
			<rect x="0" y="439.736" width="88.1575" height="88.1575" class="st1"/>
			<text x="0.25em" y="488.62" class="st2" v:langID="1028"><v:paragraph v:horizAlign="4"/><v:tabList/>７<tspan x="1.252em
							 2.255em 3.257em 4.26em" dy="0em" class="st3">捨小小戒</tspan></text>		</g>
		<g id="shape9-34" v:mID="9" v:groupContext="shape" transform="translate(28.0195,-128.451)">
			<title>工作表.9</title>
			<desc>敬順和樂</desc>
			<v:textBlock v:margins="rect(4,4,4,4)" v:tabSpace="42.5197"/>
			<v:textRect cx="44.0787" cy="483.815" width="88.16" height="88.1575"/>
			<rect x="0" y="439.736" width="88.1575" height="88.1575" class="st1"/>
			<text x="0.25em" y="488.62" class="st2" v:langID="1028"><v:paragraph v:horizAlign="4"/><v:tabList/>８<tspan x="1.252em
							 2.255em 3.257em 4.26em" dy="0em" class="st3">敬順和樂</tspan></text>		</g>
		<g id="shape10-38" v:mID="10" v:groupContext="shape" transform="translate(28.0195,-91.8839)">
			<title>工作表.10</title>
			<desc>審決無疑</desc>
			<v:textBlock v:margins="rect(4,4,4,4)" v:tabSpace="42.5197"/>
			<v:textRect cx="44.0787" cy="483.815" width="88.16" height="88.1575"/>
			<rect x="0" y="439.736" width="88.1575" height="88.1575" class="st1"/>
			<text x="0.25em" y="488.62" class="st2" v:langID="1028"><v:paragraph v:horizAlign="4"/><v:tabList/>９<tspan x="1.252em
							 2.255em 3.257em 4.26em" dy="0em" class="st3">審決無疑</tspan></text>		</g>
		<g id="shape11-42" v:mID="11" v:groupContext="shape" transform="translate(28.0195,-55.3169)">
			<title>工作表.11</title>
			<desc>　念 無 常</desc>
			<v:textBlock v:margins="rect(4,4,4,4)" v:tabSpace="42.5197"/>
			<v:textRect cx="44.0787" cy="483.815" width="88.16" height="88.1575"/>
			<rect x="0" y="439.736" width="88.1575" height="88.1575" class="st1"/>
			<text x="1.252em" y="488.62" class="st2" v:langID="1028"><v:paragraph v:horizAlign="4"/><v:tabList/>　念<tspan x="2.254em"
						dy="0em" class="st3"> </tspan><tspan x="2.756em" dy="0em" class="st3">無</tspan><tspan x="3.758em" dy="0em"
						class="st3"> </tspan><tspan x="4.26em" dy="0em" class="st3">常</tspan></text>		</g>
		<g id="shape12-49" v:mID="12" v:groupContext="shape" transform="translate(20.5077,-79.2697)">
			<title>工作表.12</title>
			<desc>10</desc>
			<v:textBlock v:margins="rect(4,4,4,4)" v:tabSpace="42.5197"/>
			<v:textRect cx="20.126" cy="507.768" width="40.26" height="40.252"/>
			<rect x="0" y="487.642" width="40.252" height="40.252" class="st1"/>
			<text x="12.13" y="512.57" class="st2" v:langID="1028"><v:paragraph v:horizAlign="1"/><v:tabList/>10</text>		</g>
		<g id="shape13-52" v:mID="13" v:groupContext="shape" transform="translate(124.397,-420.986)">
			<title>工作表.13</title>
			<desc>長部</desc>
			<v:textBlock v:margins="rect(4,4,4,4)" v:tabSpace="42.5197"/>
			<v:textRect cx="44.0787" cy="483.815" width="88.16" height="88.1575"/>
			<rect x="0" y="439.736" width="88.1575" height="88.1575" class="st1"/>
			<text x="0.25em 4.26em" y="488.62" class="st2" v:langID="1028"><v:paragraph v:horizAlign="4"/><v:tabList/>長部</text>		</g>
		<g id="shape14-55" v:mID="14" v:groupContext="shape" transform="translate(220.634,-420.986)">
			<title>工作表.14</title>
			<desc>法顯譯本</desc>
			<v:textBlock v:margins="rect(4,4,4,4)" v:tabSpace="42.5197"/>
			<v:textRect cx="44.0787" cy="483.815" width="88.16" height="88.1575"/>
			<rect x="0" y="439.736" width="88.1575" height="88.1575" class="st1"/>
			<text x="0.25em 1.587em 2.923em 4.26em" y="488.62" class="st2" v:langID="1028"><v:paragraph v:horizAlign="4"/><v:tabList/>法顯譯本</text>		</g>
		<g id="shape15-58" v:mID="15" v:groupContext="shape" transform="translate(316.728,-420.986)">
			<title>工作表.15</title>
			<desc>泥洹經</desc>
			<v:textBlock v:margins="rect(4,4,4,4)" v:tabSpace="42.5197"/>
			<v:textRect cx="44.0787" cy="483.815" width="88.16" height="88.1575"/>
			<rect x="0" y="439.736" width="88.1575" height="88.1575" class="st1"/>
			<text x="0.25em 2.255em 4.26em" y="488.62" class="st2" v:langID="1028"><v:paragraph v:horizAlign="4"/><v:tabList/>泥洹經</text>		</g>
		<g id="shape16-61" v:mID="16" v:groupContext="shape" transform="translate(412.823,-420.986)">
			<title>工作表.16</title>
			<desc>法祖譯本</desc>
			<v:textBlock v:margins="rect(4,4,4,4)" v:tabSpace="42.5197"/>
			<v:textRect cx="44.0787" cy="483.815" width="88.16" height="88.1575"/>
			<rect x="0" y="439.736" width="88.1575" height="88.1575" class="st1"/>
			<text x="0.25em 1.587em 2.923em 4.26em" y="488.62" class="st2" v:langID="1028"><v:paragraph v:horizAlign="4"/><v:tabList/>法祖譯本</text>		</g>
		<g id="shape17-64" v:mID="17" v:groupContext="shape" transform="translate(508.917,-420.986)">
			<title>工作表.17</title>
			<desc>雜事</desc>
			<v:textBlock v:margins="rect(4,4,4,4)" v:tabSpace="42.5197"/>
			<v:textRect cx="44.0787" cy="483.815" width="88.16" height="88.1575"/>
			<rect x="0" y="439.736" width="88.1575" height="88.1575" class="st1"/>
			<text x="0.25em 4.26em" y="488.62" class="st2" v:langID="1028"><v:paragraph v:horizAlign="4"/><v:tabList/>雜事</text>		</g>
		<g id="shape18-67" v:mID="18" v:groupContext="shape" transform="translate(508.917,-18.75)">
			<title>工作表.18</title>
			<desc>善知識</desc>
			<v:textBlock v:margins="rect(4,4,4,4)" v:tabSpace="42.5197"/>
			<v:textRect cx="44.0787" cy="483.815" width="88.16" height="88.1575"/>
			<rect x="0" y="439.736" width="88.1575" height="88.1575" class="st1"/>
			<text x="0.25em" y="488.62" class="st2" v:langID="1028"><v:paragraph v:horizAlign="4"/><v:tabList/>１<tspan x="1.587em
							 2.923em 4.26em" dy="0em" class="st3">善知識</tspan></text>		</g>
		<g id="shape19-71" v:mID="19" v:groupContext="shape" transform="translate(220.634,-18.75)">
			<title>工作表.19</title>
			<desc>乞僧自恣</desc>
			<v:textBlock v:margins="rect(4,4,4,4)" v:tabSpace="42.5197"/>
			<v:textRect cx="44.0787" cy="483.815" width="88.16" height="88.1575"/>
			<rect x="0" y="439.736" width="88.1575" height="88.1575" class="st1"/>
			<text x="4.08" y="488.62" class="st2" v:langID="1028"><v:paragraph v:horizAlign="1"/><v:tabList/>６乞僧自恣</text>		</g>
		<g id="shape20-74" v:mID="20" v:groupContext="shape" transform="translate(124.397,-416.309)">
			<title>工作表.20</title>
			<desc>x</desc>
			<v:textBlock v:margins="rect(4,4,4,4)" v:tabSpace="42.5197"/>
			<v:textRect cx="12.189" cy="515.705" width="24.38" height="24.378"/>
			<rect x="0" y="503.516" width="24.378" height="24.378" class="st1"/>
			<text x="8.19" y="520.51" class="st2" v:langID="1028"><v:paragraph v:horizAlign="1"/><v:tabList/>x</text>		</g>
		<g id="shape21-77" v:mID="21" v:groupContext="shape" transform="translate(124.397,-379.742)">
			<title>工作表.21</title>
			<desc>x</desc>
			<v:textBlock v:margins="rect(4,4,4,4)" v:tabSpace="42.5197"/>
			<v:textRect cx="12.189" cy="515.705" width="24.38" height="24.378"/>
			<rect x="0" y="503.516" width="24.378" height="24.378" class="st1"/>
			<text x="8.19" y="520.51" class="st2" v:langID="1028"><v:paragraph v:horizAlign="1"/><v:tabList/>x</text>		</g>
		<g id="shape22-80" v:mID="22" v:groupContext="shape" transform="translate(124.397,-306.608)">
			<title>工作表.22</title>
			<v:textBlock v:margins="rect(4,4,4,4)" v:tabSpace="42.5197"/>
			<v:textRect cx="12.189" cy="515.705" width="24.38" height="24.378"/>
			<rect x="0" y="503.516" width="24.378" height="24.378" class="st1"/>
			<text x="4.19" y="520.51" class="st2" v:langID="1028"><v:paragraph v:horizAlign="1"/><v:tabList/>４</text>		</g>
		<g id="shape23-83" v:mID="23" v:groupContext="shape" transform="translate(124.397,-270.041)">
			<title>工作表.23</title>
			<desc>x</desc>
			<v:textBlock v:margins="rect(4,4,4,4)" v:tabSpace="42.5197"/>
			<v:textRect cx="12.189" cy="515.705" width="24.38" height="24.378"/>
			<rect x="0" y="503.516" width="24.378" height="24.378" class="st1"/>
			<text x="8.19" y="520.51" class="st2" v:langID="1028"><v:paragraph v:horizAlign="1"/><v:tabList/>x</text>		</g>
		<g id="shape24-86" v:mID="24" v:groupContext="shape" transform="translate(124.397,-233.474)">
			<title>工作表.24</title>
			<v:textBlock v:margins="rect(4,4,4,4)" v:tabSpace="42.5197"/>
			<v:textRect cx="12.189" cy="515.705" width="24.38" height="24.378"/>
			<rect x="0" y="503.516" width="24.378" height="24.378" class="st1"/>
			<text x="4.19" y="520.51" class="st2" v:langID="1028"><v:paragraph v:horizAlign="1"/><v:tabList/>１</text>		</g>
		<g id="shape25-89" v:mID="25" v:groupContext="shape" transform="translate(124.397,-196.907)">
			<title>工作表.25</title>
			<v:textBlock v:margins="rect(4,4,4,4)" v:tabSpace="42.5197"/>
			<v:textRect cx="12.189" cy="515.705" width="24.38" height="24.378"/>
			<rect x="0" y="503.516" width="24.378" height="24.378" class="st1"/>
			<text x="4.19" y="520.51" class="st2" v:langID="1028"><v:paragraph v:horizAlign="1"/><v:tabList/>３</text>		</g>
		<g id="shape26-92" v:mID="26" v:groupContext="shape" transform="translate(124.397,-160.341)">
			<title>工作表.26</title>
			<v:textBlock v:margins="rect(4,4,4,4)" v:tabSpace="42.5197"/>
			<v:textRect cx="12.189" cy="515.705" width="24.38" height="24.378"/>
			<rect x="0" y="503.516" width="24.378" height="24.378" class="st1"/>
			<text x="4.19" y="520.51" class="st2" v:langID="1028"><v:paragraph v:horizAlign="1"/><v:tabList/>２</text>		</g>
		<g id="shape27-95" v:mID="27" v:groupContext="shape" transform="translate(124.397,-123.774)">
			<title>工作表.27</title>
			<v:textBlock v:margins="rect(4,4,4,4)" v:tabSpace="42.5197"/>
			<v:textRect cx="12.189" cy="515.705" width="24.38" height="24.378"/>
			<rect x="0" y="503.516" width="24.378" height="24.378" class="st1"/>
			<text x="4.19" y="520.51" class="st2" v:langID="1028"><v:paragraph v:horizAlign="1"/><v:tabList/>５</text>		</g>
		<g id="shape28-98" v:mID="28" v:groupContext="shape" transform="translate(124.397,-87.2067)">
			<title>工作表.28</title>
			<v:textBlock v:margins="rect(4,4,4,4)" v:tabSpace="42.5197"/>
			<v:textRect cx="12.189" cy="515.705" width="24.38" height="24.378"/>
			<rect x="0" y="503.516" width="24.378" height="24.378" class="st1"/>
			<text x="4.19" y="520.51" class="st2" v:langID="1028"><v:paragraph v:horizAlign="1"/><v:tabList/>６</text>		</g>
		<g id="shape29-101" v:mID="29" v:groupContext="shape" transform="translate(220.634,-416.309)">
			<title>工作表.29</title>
			<desc>x</desc>
			<v:textBlock v:margins="rect(4,4,4,4)" v:tabSpace="42.5197"/>
			<v:textRect cx="12.189" cy="515.705" width="24.38" height="24.378"/>
			<rect x="0" y="503.516" width="24.378" height="24.378" class="st1"/>
			<text x="8.19" y="520.51" class="st2" v:langID="1028"><v:paragraph v:horizAlign="1"/><v:tabList/>x</text>		</g>
		<g id="shape30-104" v:mID="30" v:groupContext="shape" transform="translate(220.634,-379.742)">
			<title>工作表.30</title>
			<desc>x</desc>
			<v:textBlock v:margins="rect(4,4,4,4)" v:tabSpace="42.5197"/>
			<v:textRect cx="12.189" cy="515.705" width="24.38" height="24.378"/>
			<rect x="0" y="503.516" width="24.378" height="24.378" class="st1"/>
			<text x="8.19" y="520.51" class="st2" v:langID="1028"><v:paragraph v:horizAlign="1"/><v:tabList/>x</text>		</g>
		<g id="shape31-107" v:mID="31" v:groupContext="shape" transform="translate(220.634,-306.608)">
			<title>工作表.31</title>
			<v:textBlock v:margins="rect(4,4,4,4)" v:tabSpace="42.5197"/>
			<v:textRect cx="12.189" cy="515.705" width="24.38" height="24.378"/>
			<rect x="0" y="503.516" width="24.378" height="24.378" class="st1"/>
			<text x="4.19" y="520.51" class="st2" v:langID="1028"><v:paragraph v:horizAlign="1"/><v:tabList/>４</text>		</g>
		<g id="shape32-110" v:mID="32" v:groupContext="shape" transform="translate(220.634,-270.041)">
			<title>工作表.32</title>
			<desc>x</desc>
			<v:textBlock v:margins="rect(4,4,4,4)" v:tabSpace="42.5197"/>
			<v:textRect cx="12.189" cy="515.705" width="24.38" height="24.378"/>
			<rect x="0" y="503.516" width="24.378" height="24.378" class="st1"/>
			<text x="8.19" y="520.51" class="st2" v:langID="1028"><v:paragraph v:horizAlign="1"/><v:tabList/>x</text>		</g>
		<g id="shape33-113" v:mID="33" v:groupContext="shape" transform="translate(220.634,-233.474)">
			<title>工作表.33</title>
			<v:textBlock v:margins="rect(4,4,4,4)" v:tabSpace="42.5197"/>
			<v:textRect cx="12.189" cy="515.705" width="24.38" height="24.378"/>
			<rect x="0" y="503.516" width="24.378" height="24.378" class="st1"/>
			<text x="4.19" y="520.51" class="st2" v:langID="1028"><v:paragraph v:horizAlign="1"/><v:tabList/>１</text>		</g>
		<g id="shape34-116" v:mID="34" v:groupContext="shape" transform="translate(220.634,-196.907)">
			<title>工作表.34</title>
			<v:textBlock v:margins="rect(4,4,4,4)" v:tabSpace="42.5197"/>
			<v:textRect cx="12.189" cy="515.705" width="24.38" height="24.378"/>
			<rect x="0" y="503.516" width="24.378" height="24.378" class="st1"/>
			<text x="4.19" y="520.51" class="st2" v:langID="1028"><v:paragraph v:horizAlign="1"/><v:tabList/>３</text>		</g>
		<g id="shape35-119" v:mID="35" v:groupContext="shape" transform="translate(220.634,-160.341)">
			<title>工作表.35</title>
			<v:textBlock v:margins="rect(4,4,4,4)" v:tabSpace="42.5197"/>
			<v:textRect cx="12.189" cy="515.705" width="24.38" height="24.378"/>
			<rect x="0" y="503.516" width="24.378" height="24.378" class="st1"/>
			<text x="4.19" y="520.51" class="st2" v:langID="1028"><v:paragraph v:horizAlign="1"/><v:tabList/>２</text>		</g>
		<g id="shape36-122" v:mID="36" v:groupContext="shape" transform="translate(220.634,-123.774)">
			<title>工作表.36</title>
			<v:textBlock v:margins="rect(4,4,4,4)" v:tabSpace="42.5197"/>
			<v:textRect cx="12.189" cy="515.705" width="24.38" height="24.378"/>
			<rect x="0" y="503.516" width="24.378" height="24.378" class="st1"/>
			<text x="4.19" y="520.51" class="st2" v:langID="1028"><v:paragraph v:horizAlign="1"/><v:tabList/>５</text>		</g>
		<g id="shape37-125" v:mID="37" v:groupContext="shape" transform="translate(220.634,-87.2067)">
			<title>工作表.37</title>
			<v:textBlock v:margins="rect(4,4,4,4)" v:tabSpace="42.5197"/>
			<v:textRect cx="12.189" cy="515.705" width="24.38" height="24.378"/>
			<rect x="0" y="503.516" width="24.378" height="24.378" class="st1"/>
			<text x="4.19" y="520.51" class="st2" v:langID="1028"><v:paragraph v:horizAlign="1"/><v:tabList/>７</text>		</g>
		<g id="shape38-128" v:mID="38" v:groupContext="shape" transform="translate(316.728,-416.309)">
			<title>工作表.38</title>
			<desc>x</desc>
			<v:textBlock v:margins="rect(4,4,4,4)" v:tabSpace="42.5197"/>
			<v:textRect cx="12.189" cy="515.705" width="24.38" height="24.378"/>
			<rect x="0" y="503.516" width="24.378" height="24.378" class="st1"/>
			<text x="8.19" y="520.51" class="st2" v:langID="1028"><v:paragraph v:horizAlign="1"/><v:tabList/>x</text>		</g>
		<g id="shape39-131" v:mID="39" v:groupContext="shape" transform="translate(316.728,-379.742)">
			<title>工作表.39</title>
			<v:textBlock v:margins="rect(4,4,4,4)" v:tabSpace="42.5197"/>
			<v:textRect cx="12.189" cy="515.705" width="24.38" height="24.378"/>
			<rect x="0" y="503.516" width="24.378" height="24.378" class="st1"/>
			<text x="4.19" y="520.51" class="st2" v:langID="1028"><v:paragraph v:horizAlign="1"/><v:tabList/>３</text>		</g>
		<g id="shape40-134" v:mID="40" v:groupContext="shape" transform="translate(316.728,-343.175)">
			<title>工作表.40</title>
			<v:textBlock v:margins="rect(4,4,4,4)" v:tabSpace="42.5197"/>
			<v:textRect cx="12.189" cy="515.705" width="24.38" height="24.378"/>
			<rect x="0" y="503.516" width="24.378" height="24.378" class="st1"/>
			<text x="4.19" y="520.51" class="st2" v:langID="1028"><v:paragraph v:horizAlign="1"/><v:tabList/>１</text>		</g>
		<g id="shape41-137" v:mID="41" v:groupContext="shape" transform="translate(316.728,-306.608)">
			<title>工作表.41</title>
			<desc>x</desc>
			<v:textBlock v:margins="rect(4,4,4,4)" v:tabSpace="42.5197"/>
			<v:textRect cx="12.189" cy="515.705" width="24.38" height="24.378"/>
			<rect x="0" y="503.516" width="24.378" height="24.378" class="st1"/>
			<text x="8.19" y="520.51" class="st2" v:langID="1028"><v:paragraph v:horizAlign="1"/><v:tabList/>x</text>		</g>
		<g id="shape42-140" v:mID="42" v:groupContext="shape" transform="translate(316.728,-233.474)">
			<title>工作表.42</title>
			<v:textBlock v:margins="rect(4,4,4,4)" v:tabSpace="42.5197"/>
			<v:textRect cx="12.189" cy="515.705" width="24.38" height="24.378"/>
			<rect x="0" y="503.516" width="24.378" height="24.378" class="st1"/>
			<text x="4.19" y="520.51" class="st2" v:langID="1028"><v:paragraph v:horizAlign="1"/><v:tabList/>２</text>		</g>
		<g id="shape43-143" v:mID="43" v:groupContext="shape" transform="translate(412.823,-343.175)">
			<title>工作表.43</title>
			<v:textBlock v:margins="rect(4,4,4,4)" v:tabSpace="42.5197"/>
			<v:textRect cx="12.189" cy="515.705" width="24.38" height="24.378"/>
			<rect x="0" y="503.516" width="24.378" height="24.378" class="st1"/>
			<text x="4.19" y="520.51" class="st2" v:langID="1028"><v:paragraph v:horizAlign="1"/><v:tabList/>１</text>		</g>
		<g id="shape44-146" v:mID="44" v:groupContext="shape" transform="translate(316.728,-123.774)">
			<title>工作表.44</title>
			<v:textBlock v:margins="rect(4,4,4,4)" v:tabSpace="42.5197"/>
			<v:textRect cx="12.189" cy="515.705" width="24.38" height="24.378"/>
			<rect x="0" y="503.516" width="24.378" height="24.378" class="st1"/>
			<text x="4.19" y="520.51" class="st2" v:langID="1028"><v:paragraph v:horizAlign="1"/><v:tabList/>４</text>		</g>
		<g id="shape45-149" v:mID="45" v:groupContext="shape" transform="translate(316.728,-87.2067)">
			<title>工作表.45</title>
			<v:textBlock v:margins="rect(4,4,4,4)" v:tabSpace="42.5197"/>
			<v:textRect cx="12.189" cy="515.705" width="24.38" height="24.378"/>
			<rect x="0" y="503.516" width="24.378" height="24.378" class="st1"/>
			<text x="4.19" y="520.51" class="st2" v:langID="1028"><v:paragraph v:horizAlign="1"/><v:tabList/>５</text>		</g>
		<g id="shape46-152" v:mID="46" v:groupContext="shape" transform="translate(412.823,-233.474)">
			<title>工作表.46</title>
			<v:textBlock v:margins="rect(4,4,4,4)" v:tabSpace="42.5197"/>
			<v:textRect cx="12.189" cy="515.705" width="24.38" height="24.378"/>
			<rect x="0" y="503.516" width="24.378" height="24.378" class="st1"/>
			<text x="4.19" y="520.51" class="st2" v:langID="1028"><v:paragraph v:horizAlign="1"/><v:tabList/>２</text>		</g>
		<g id="shape47-155" v:mID="47" v:groupContext="shape" transform="translate(412.823,-416.309)">
			<title>工作表.47</title>
			<desc>x</desc>
			<v:textBlock v:margins="rect(4,4,4,4)" v:tabSpace="42.5197"/>
			<v:textRect cx="12.189" cy="515.705" width="24.38" height="24.378"/>
			<rect x="0" y="503.516" width="24.378" height="24.378" class="st1"/>
			<text x="8.19" y="520.51" class="st2" v:langID="1028"><v:paragraph v:horizAlign="1"/><v:tabList/>x</text>		</g>
		<g id="shape48-158" v:mID="48" v:groupContext="shape" transform="translate(412.823,-306.608)">
			<title>工作表.48</title>
			<desc>x</desc>
			<v:textBlock v:margins="rect(4,4,4,4)" v:tabSpace="42.5197"/>
			<v:textRect cx="12.189" cy="515.705" width="24.38" height="24.378"/>
			<rect x="0" y="503.516" width="24.378" height="24.378" class="st1"/>
			<text x="8.19" y="520.51" class="st2" v:langID="1028"><v:paragraph v:horizAlign="1"/><v:tabList/>x</text>		</g>
		<g id="shape49-161" v:mID="49" v:groupContext="shape" transform="translate(412.823,-160.341)">
			<title>工作表.49</title>
			<v:textBlock v:margins="rect(4,4,4,4)" v:tabSpace="42.5197"/>
			<v:textRect cx="12.189" cy="515.705" width="24.38" height="24.378"/>
			<rect x="0" y="503.516" width="24.378" height="24.378" class="st1"/>
			<text x="4.19" y="520.51" class="st2" v:langID="1028"><v:paragraph v:horizAlign="1"/><v:tabList/>３</text>		</g>
		<g id="shape50-164" v:mID="50" v:groupContext="shape" transform="translate(412.823,-123.774)">
			<title>工作表.50</title>
			<v:textBlock v:margins="rect(4,4,4,4)" v:tabSpace="42.5197"/>
			<v:textRect cx="12.189" cy="515.705" width="24.38" height="24.378"/>
			<rect x="0" y="503.516" width="24.378" height="24.378" class="st1"/>
			<text x="4.19" y="520.51" class="st2" v:langID="1028"><v:paragraph v:horizAlign="1"/><v:tabList/>４</text>		</g>
		<g id="shape51-167" v:mID="51" v:groupContext="shape" transform="translate(412.823,-87.2067)">
			<title>工作表.51</title>
			<v:textBlock v:margins="rect(4,4,4,4)" v:tabSpace="42.5197"/>
			<v:textRect cx="12.189" cy="515.705" width="24.38" height="24.378"/>
			<rect x="0" y="503.516" width="24.378" height="24.378" class="st1"/>
			<text x="4.19" y="520.51" class="st2" v:langID="1028"><v:paragraph v:horizAlign="1"/><v:tabList/>５</text>		</g>
		<g id="shape52-170" v:mID="52" v:groupContext="shape" transform="translate(508.917,-416.309)">
			<title>工作表.52</title>
			<desc>x</desc>
			<v:textBlock v:margins="rect(4,4,4,4)" v:tabSpace="42.5197"/>
			<v:textRect cx="12.189" cy="515.705" width="24.38" height="24.378"/>
			<rect x="0" y="503.516" width="24.378" height="24.378" class="st1"/>
			<text x="8.19" y="520.51" class="st2" v:langID="1028"><v:paragraph v:horizAlign="1"/><v:tabList/>x</text>		</g>
		<g id="shape53-173" v:mID="53" v:groupContext="shape" transform="translate(508.917,-306.608)">
			<title>工作表.53</title>
			<desc>x</desc>
			<v:textBlock v:margins="rect(4,4,4,4)" v:tabSpace="42.5197"/>
			<v:textRect cx="12.189" cy="515.705" width="24.38" height="24.378"/>
			<rect x="0" y="503.516" width="24.378" height="24.378" class="st1"/>
			<text x="8.19" y="520.51" class="st2" v:langID="1028"><v:paragraph v:horizAlign="1"/><v:tabList/>x</text>		</g>
		<g id="shape54-176" v:mID="54" v:groupContext="shape" transform="translate(508.917,-379.742)">
			<title>工作表.54</title>
			<v:textBlock v:margins="rect(4,4,4,4)" v:tabSpace="42.5197"/>
			<v:textRect cx="12.189" cy="515.705" width="24.38" height="24.378"/>
			<rect x="0" y="503.516" width="24.378" height="24.378" class="st1"/>
			<text x="4.19" y="520.51" class="st2" v:langID="1028"><v:paragraph v:horizAlign="1"/><v:tabList/>５</text>		</g>
		<g id="shape55-179" v:mID="55" v:groupContext="shape" transform="translate(508.917,-343.175)">
			<title>工作表.55</title>
			<v:textBlock v:margins="rect(4,4,4,4)" v:tabSpace="42.5197"/>
			<v:textRect cx="12.189" cy="515.705" width="24.38" height="24.378"/>
			<rect x="0" y="503.516" width="24.378" height="24.378" class="st1"/>
			<text x="4.19" y="520.51" class="st2" v:langID="1028"><v:paragraph v:horizAlign="1"/><v:tabList/>２</text>		</g>
		<g id="shape56-182" v:mID="56" v:groupContext="shape" transform="translate(508.917,-233.474)">
			<title>工作表.56</title>
			<v:textBlock v:margins="rect(4,4,4,4)" v:tabSpace="42.5197"/>
			<v:textRect cx="12.189" cy="515.705" width="24.38" height="24.378"/>
			<rect x="0" y="503.516" width="24.378" height="24.378" class="st1"/>
			<text x="4.19" y="520.51" class="st2" v:langID="1028"><v:paragraph v:horizAlign="1"/><v:tabList/>３</text>		</g>
		<g id="shape57-185" v:mID="57" v:groupContext="shape" transform="translate(508.917,-160.341)">
			<title>工作表.57</title>
			<v:textBlock v:margins="rect(4,4,4,4)" v:tabSpace="42.5197"/>
			<v:textRect cx="12.189" cy="515.705" width="24.38" height="24.378"/>
			<rect x="0" y="503.516" width="24.378" height="24.378" class="st1"/>
			<text x="4.19" y="520.51" class="st2" v:langID="1028"><v:paragraph v:horizAlign="1"/><v:tabList/>４</text>		</g>
		<g id="shape58-188" v:mID="58" v:groupContext="shape" transform="translate(508.917,-123.774)">
			<title>工作表.58</title>
			<v:textBlock v:margins="rect(4,4,4,4)" v:tabSpace="42.5197"/>
			<v:textRect cx="12.189" cy="515.705" width="24.38" height="24.378"/>
			<rect x="0" y="503.516" width="24.378" height="24.378" class="st1"/>
			<text x="4.19" y="520.51" class="st2" v:langID="1028"><v:paragraph v:horizAlign="1"/><v:tabList/>６</text>		</g>
		<g id="shape59-191" v:mID="59" v:groupContext="shape" transform="translate(508.917,-87.2067)">
			<title>工作表.59</title>
			<v:textBlock v:margins="rect(4,4,4,4)" v:tabSpace="42.5197"/>
			<v:textRect cx="12.189" cy="515.705" width="24.38" height="24.378"/>
			<rect x="0" y="503.516" width="24.378" height="24.378" class="st1"/>
			<text x="4.19" y="520.51" class="st2" v:langID="1028"><v:paragraph v:horizAlign="1"/><v:tabList/>７</text>		</g>
		<g id="shape60-194" v:mID="60" v:groupContext="shape" transform="translate(-407.606,483.348) rotate(-90)">
			<title>工作表.60</title>
			<path d="M0 527.89 L438.8 527.89" class="st4"/>
		</g>
		<g id="shape61-197" v:mID="61" v:groupContext="shape" transform="translate(602.177,609.006) rotate(180)">
			<title>工作表.61</title>
			<path d="M0 527.89 L578.27 527.89" class="st4"/>
		</g>
		<g id="shape62-200" v:mID="62" v:groupContext="shape" transform="translate(-503.984,483.348) rotate(-90)">
			<title>工作表.62</title>
			<path d="M0 527.89 L438.8 527.89" class="st4"/>
		</g>
		<g id="shape63-203" v:mID="63" v:groupContext="shape" transform="translate(-311.229,483.348) rotate(-90)">
			<title>工作表.63</title>
			<path d="M0 527.89 L438.8 527.89" class="st4"/>
		</g>
		<g id="shape64-206" v:mID="64" v:groupContext="shape" transform="translate(-214.851,483.348) rotate(-90)">
			<title>工作表.64</title>
			<path d="M0 527.89 L438.8 527.89" class="st4"/>
		</g>
		<g id="shape65-209" v:mID="65" v:groupContext="shape" transform="translate(-118.473,483.348) rotate(-90)">
			<title>工作表.65</title>
			<path d="M0 527.89 L438.8 527.89" class="st4"/>
		</g>
		<g id="shape66-212" v:mID="66" v:groupContext="shape" transform="translate(-22.0946,483.348) rotate(-90)">
			<title>工作表.66</title>
			<path d="M0 527.89 L438.8 527.89" class="st4"/>
		</g>
		<g id="shape67-215" v:mID="67" v:groupContext="shape" transform="translate(74.2833,483.348) rotate(-90)">
			<title>工作表.67</title>
			<path d="M0 527.89 L438.8 527.89" class="st4"/>
		</g>
		<g id="shape68-218" v:mID="68" v:groupContext="shape" transform="translate(602.177,572.439) rotate(180)">
			<title>工作表.68</title>
			<path d="M0 527.89 L578.27 527.89" class="st4"/>
		</g>
		<g id="shape69-221" v:mID="69" v:groupContext="shape" transform="translate(602.177,1011.24) rotate(180)">
			<title>工作表.69</title>
			<path d="M0 527.89 L578.27 527.89" class="st4"/>
		</g>
		<g id="group74-224" transform="translate(79.9526,489.018) rotate(-90)" v:mID="74" v:groupContext="group">
			<title>工作表.74</title>
			<g id="shape70-225" v:mID="70" v:groupContext="shape" transform="translate(-77.752,527.894) rotate(-90)">
				<title>工作表.70</title>
				<path d="M0 527.89 L589.61 527.89" class="st5"/>
			</g>
			<g id="shape71-228" v:mID="71" v:groupContext="shape" transform="translate(-527.894,527.894) rotate(-90)">
				<title>工作表.71</title>
				<path d="M0 527.89 L589.61 527.89" class="st5"/>
			</g>
			<g id="shape72-231" v:mID="72" v:groupContext="shape" transform="translate(0,-589.606)">
				<title>工作表.72</title>
				<path d="M0 527.89 L450.14 527.89" class="st5"/>
			</g>
			<g id="shape73-234" v:mID="73" v:groupContext="shape">
				<title>工作表.73</title>
				<path d="M0 527.89 L450.14 527.89" class="st5"/>
			</g>
		</g>
	</g>
</svg>
