<?xml version="1.0" encoding="UTF-8" standalone="no"?>
<!DOCTYPE svg PUBLIC "-//W3C//DTD SVG 1.0//EN" "http://www.w3.org/TR/2001/REC-SVG-20010904/DTD/svg10.dtd">
<!-- 由 Microsoft Visio 11.0, SVG Export, v1.0 產生 y09.0125-3-h.svg Page-1 -->
<svg xmlns="http://www.w3.org/2000/svg" xmlns:xlink="http://www.w3.org/1999/xlink" xmlns:ev="http://www.w3.org/2001/xml-events"
		xmlns:v="http://schemas.microsoft.com/visio/2003/SVGExtensions/" width="0.960697in" height="0.71685in"
		viewBox="0 0 69.1702 51.6132" xml:space="preserve" color-interpolation-filters="sRGB" class="st3">
	<title>y09.0125</title>
	<v:documentProperties v:langID="1028" v:metric="true" v:viewMarkup="false"/>

	<style type="text/css">
	<![CDATA[
		.st1 {stroke:#000000;stroke-linecap:round;stroke-linejoin:round;stroke-width:2.16}
		.st2 {stroke:#ffffff;stroke-linecap:round;stroke-linejoin:round;stroke-width:0.72}
		.st3 {fill:none;fill-rule:evenodd;font-size:12px;overflow:visible;stroke-linecap:square;stroke-miterlimit:3}
	]]>
	</style>

	<g v:mID="0" v:index="1" v:groupContext="foregroundPage">
		<title>Page-1</title>
		<v:pageProperties v:drawingScale="0.0393701" v:pageScale="0.0393701" v:drawingUnits="24" v:shadowOffsetX="8.50394"
				v:shadowOffsetY="-8.50394"/>
		<g id="shape3-1" v:mID="3" v:groupContext="shape" transform="translate(-2.60301,29.2283) rotate(-90)">
			<title>工作表.3</title>
			<path d="M2 23.1 L2 26.83 A2.92859 2.92859 -180 0 0 3.37 29.31 L3.37 29.31 A2.57451 2.57451 -180 0 0 6.11 29.31 L6.26
						 29.22 A1.05227 1.05227 -180 0 0 6.26 27.44 L6.26 27.44 A2.66328 2.66328 -180 0 0 3.42 27.44 L2.52 28.01
						 A1.50477 1.50477 -180 0 0 1.82 29.28 L1.82 29.28 A1.50477 1.50477 0 0 1 1.11 30.56 L0.59 30.89 A1.05227
						 1.05227 -180 0 0 0.59 32.67 L2 33.56 L3.61 34.57 A2.48573 2.48573 -180 0 0 6.26 34.57 L6.26 34.57 a0.982117
						 0.982117 -180 0 0 -1.59872E-014 -1.66299 L6.11 32.82 A2.39695 2.39695 -180 0 0 3.56 32.82 L3.56 32.82 A2.72662
						 2.72662 -180 0 0 2.29 35.12 L2.29 36.22 A3.25973 3.25973 0 0 1 1.58 38.25 L1.24 38.68 a0.576738 0.576738
						 -180 0 0 0.104051 0.819474 L1.39 39.53 A1.07273 1.07273 0 0 1 1.82 40.39 L1.82 40.39 a0.967353 0.967353
						 -180 0 0 0.452555 0.818997 L3.37 41.9 A2.57451 2.57451 -180 0 0 6.11 41.9 L6.11 41.9 A1.01719 1.01719 -180
						 0 0 6.11 40.18 L5.93 40.06 A2.39695 2.39695 -180 0 0 3.37 40.06 L2.93 40.34 A1.77348 1.77348 -180 0 0 2.1
						 41.84 L2.1 41.84 A1.77348 1.77348 0 0 1 1.27 43.34 L0.8 43.64 A1.10488 1.10488 -180 0 0 0.8 45.51 L2.29
						 46.45 L3.23 47.04 A2.48573 2.48573 -180 0 0 5.88 47.04 L5.97 46.98 a0.911966 0.911966 -180 0 0 0 -1.54421
						 L5.97 45.44 A2.30818 2.30818 -180 0 0 3.52 45.44 L3.52 45.44 A3.23155 3.23155 -180 0 0 2 48.17 L2 51.61"
					class="st1"/>
		</g>
		<g id="group6-4" transform="translate(-1.71213,32.8932) rotate(-90)" v:mID="6" v:groupContext="group">
			<title>工作表.6</title>
			<g id="shape1-5" v:mID="1" v:groupContext="shape" transform="translate(0,-31.1811)">
				<title>工作表.1</title>
				<path d="M0 51.61 L14.17 51.61" class="st2"/>
			</g>
			<g id="shape2-8" v:mID="2" v:groupContext="shape" transform="translate(65.7865,20.4321) rotate(90)">
				<title>工作表.2</title>
				<path d="M0 51.61 L31.18 51.61" class="st2"/>
			</g>
			<g id="shape4-11" v:mID="4" v:groupContext="shape" transform="translate(14.1732,103.226) rotate(180)">
				<title>工作表.4</title>
				<path d="M0 51.61 L14.17 51.61" class="st2"/>
			</g>
			<g id="shape5-14" v:mID="5" v:groupContext="shape" transform="translate(51.6132,20.4321) rotate(90)">
				<title>工作表.5</title>
				<path d="M0 51.61 L31.18 51.61" class="st2"/>
			</g>
		</g>
	</g>
</svg>
