<?xml version="1.0" encoding="UTF-8" standalone="no"?>
<!DOCTYPE svg PUBLIC "-//W3C//DTD SVG 1.1//EN" "http://www.w3.org/Graphics/SVG/1.1/DTD/svg11.dtd">
<!-- 由 Microsoft Visio, SVG Export 產生 y13.0231.svg 頁-1 -->
<svg xmlns="http://www.w3.org/2000/svg" xmlns:xlink="http://www.w3.org/1999/xlink" xmlns:ev="http://www.w3.org/2001/xml-events"
		width="5.36028in" height="4.6163in" viewBox="0 0 385.94 332.374" xml:space="preserve" color-interpolation-filters="sRGB"
		class="st4">
	<title>y13.0231</title>

	<style type="text/css">
	<![CDATA[
		.st1 {fill:none;stroke:none;stroke-linecap:round;stroke-linejoin:round;stroke-width:0.72}
		.st2 {fill:#000000;font-family:新細明體;font-size:1.33333em}
		.st3 {stroke:#000000;stroke-linecap:round;stroke-linejoin:round;stroke-width:0.72}
		.st4 {fill:none;fill-rule:evenodd;font-size:12px;overflow:visible;stroke-linecap:square;stroke-miterlimit:3}
	]]>
	</style>

	<g>
		<title>頁-1</title>
		<g id="group58-1" transform="translate(0.36,-0.36)">
			<title>工作表.58</title>
			<g id="shape1-2" transform="translate(1.59872E-14,-269.291)">
				<title>工作表.1</title>
				<desc>佛學之根本精神</desc>
				<rect x="0" y="312.531" width="122.772" height="19.8425" class="st1"/>
				<text x="5.39" y="327.44" class="st2">佛學之根本精神</text>			</g>
			<g id="shape2-5" transform="translate(3.9968E-13,-155.906)">
				<title>工作表.2</title>
				<desc>佛學之特殊性質</desc>
				<rect x="0" y="312.531" width="122.772" height="19.8425" class="st1"/>
				<text x="5.39" y="327.44" class="st2">佛學之特殊性質</text>			</g>
			<g id="shape3-8" transform="translate(7.83373E-13,-42.5197)">
				<title>工作表.3</title>
				<desc>修學之適當態度</desc>
				<rect x="0" y="312.531" width="122.772" height="19.8425" class="st1"/>
				<text x="5.39" y="327.44" class="st2">修學之適當態度</text>			</g>
			<g id="shape4-11" transform="translate(262.449,-311.811)">
				<title>工作表.4</title>
				<desc>絕對獨立之特德</desc>
				<rect x="0" y="312.531" width="122.772" height="19.8425" class="st1"/>
				<text x="5.39" y="327.44" class="st2">絕對獨立之特德</text>			</g>
			<g id="shape5-14" transform="translate(262.449,-283.465)">
				<title>工作表.5</title>
				<desc>無限發展之自由</desc>
				<rect x="0" y="312.531" width="122.772" height="19.8425" class="st1"/>
				<text x="5.39" y="327.44" class="st2">無限發展之自由</text>			</g>
			<g id="shape6-17" transform="translate(262.449,-255.118)">
				<title>工作表.6</title>
				<desc>緣起性空之和合</desc>
				<rect x="0" y="312.531" width="122.772" height="19.8425" class="st1"/>
				<text x="5.39" y="327.44" class="st2">緣起性空之和合</text>			</g>
			<g id="shape7-20" transform="translate(262.449,-226.772)">
				<title>工作表.7</title>
				<desc>相應互資之增上</desc>
				<rect x="0" y="312.531" width="122.772" height="19.8425" class="st1"/>
				<text x="5.39" y="327.44" class="st2">相應互資之增上</text>			</g>
			<g id="shape8-23" transform="translate(262.449,-198.425)">
				<title>工作表.8</title>
				<desc>聖心與凡識之異</desc>
				<rect x="0" y="312.531" width="122.772" height="19.8425" class="st1"/>
				<text x="5.39" y="327.44" class="st2">聖心與凡識之異</text>			</g>
			<g id="shape9-26" transform="translate(262.449,-170.079)">
				<title>工作表.9</title>
				<desc>應機與隨執之異</desc>
				<rect x="0" y="312.531" width="122.772" height="19.8425" class="st1"/>
				<text x="5.39" y="327.44" class="st2">應機與隨執之異</text>			</g>
			<g id="shape10-29" transform="translate(262.449,-141.732)">
				<title>工作表.10</title>
				<desc>有漏與無漏之別</desc>
				<rect x="0" y="312.531" width="122.772" height="19.8425" class="st1"/>
				<text x="5.39" y="327.44" class="st2">有漏與無漏之別</text>			</g>
			<g id="shape11-32" transform="translate(262.449,-113.386)">
				<title>工作表.11</title>
				<desc>著言與離言之別</desc>
				<rect x="0" y="312.531" width="122.772" height="19.8425" class="st1"/>
				<text x="5.39" y="327.44" class="st2">著言與離言之別</text>			</g>
			<g id="shape12-35" transform="translate(262.449,-85.0394)">
				<title>工作表.12</title>
				<desc>參用史實之考證</desc>
				<rect x="0" y="312.531" width="122.772" height="19.8425" class="st1"/>
				<text x="5.39" y="327.44" class="st2">參用史實之考證</text>			</g>
			<g id="shape13-38" transform="translate(262.449,-56.6929)">
				<title>工作表.13</title>
				<desc>尊重果覺之仰信</desc>
				<rect x="0" y="312.531" width="122.772" height="19.8425" class="st1"/>
				<text x="5.39" y="327.44" class="st2">尊重果覺之仰信</text>			</g>
			<g id="shape14-41" transform="translate(262.449,-28.3465)">
				<title>工作表.14</title>
				<desc>廣探教海之義理</desc>
				<rect x="0" y="312.531" width="122.772" height="19.8425" class="st1"/>
				<text x="5.39" y="327.44" class="st2">廣探教海之義理</text>			</g>
			<g id="shape15-44" transform="translate(262.449,5.68434E-14)">
				<title>工作表.15</title>
				<desc>尋究宗極之行趣</desc>
				<rect x="0" y="312.531" width="122.772" height="19.8425" class="st1"/>
				<text x="5.39" y="327.44" class="st2">尋究宗極之行趣</text>			</g>
			<g id="shape16-47" transform="translate(150.126,-12.315)">
				<title>工作表.16</title>
				<desc>教義與宗趣</desc>
				<rect x="0" y="312.531" width="88.7559" height="19.8425" class="st1"/>
				<text x="4.38" y="327.44" class="st2">教義與宗趣</text>			</g>
			<g id="shape17-50" transform="translate(150.126,-70.8661)">
				<title>工作表.17</title>
				<desc>考據與仰信</desc>
				<rect x="0" y="312.531" width="88.7559" height="19.8425" class="st1"/>
				<text x="4.38" y="327.44" class="st2">考據與仰信</text>			</g>
			<g id="shape18-53" transform="translate(150.126,-127.559)">
				<title>工作表.18</title>
				<desc>無漏與離言</desc>
				<rect x="0" y="312.531" width="88.7559" height="19.8425" class="st1"/>
				<text x="4.38" y="327.44" class="st2">無漏與離言</text>			</g>
			<g id="shape19-56" transform="translate(150.126,-184.252)">
				<title>工作表.19</title>
				<desc>來源與施設</desc>
				<rect x="0" y="312.531" width="88.7559" height="19.8425" class="st1"/>
				<text x="4.38" y="327.44" class="st2">來源與施設</text>			</g>
			<g id="shape20-59" transform="translate(150.126,-240.945)">
				<title>工作表.20</title>
				<desc>和合與增上</desc>
				<rect x="0" y="312.531" width="88.7559" height="19.8425" class="st1"/>
				<text x="4.38" y="327.44" class="st2">和合與增上</text>			</g>
			<g id="shape21-62" transform="translate(150.126,-297.638)">
				<title>工作表.21</title>
				<desc>獨立與發展</desc>
				<rect x="0" y="312.531" width="88.7559" height="19.8425" class="st1"/>
				<text x="4.38" y="327.44" class="st2">獨立與發展</text>			</g>
			<g id="shape22-65" transform="translate(120.681,-279.213)">
				<title>工作表.22</title>
				<path d="M0 332.37 L14.88 332.37" class="st3"/>
			</g>
			<g id="shape23-68" transform="translate(119.972,-165.827)">
				<title>工作表.23</title>
				<path d="M0 332.37 L14.88 332.37" class="st3"/>
			</g>
			<g id="shape24-71" transform="translate(119.972,-52.4409)">
				<title>工作表.24</title>
				<path d="M0 332.37 L14.88 332.37" class="st3"/>
			</g>
			<g id="shape25-74" transform="translate(135.563,-307.559)">
				<title>工作表.25</title>
				<path d="M0 332.37 L14.88 332.37" class="st3"/>
			</g>
			<g id="shape26-77" transform="translate(135.563,-250.866)">
				<title>工作表.26</title>
				<path d="M0 332.37 L14.88 332.37" class="st3"/>
			</g>
			<g id="shape27-80" transform="translate(135.563,-194.173)">
				<title>工作表.27</title>
				<path d="M0 332.37 L14.88 332.37" class="st3"/>
			</g>
			<g id="shape28-83" transform="translate(135.563,-137.48)">
				<title>工作表.28</title>
				<path d="M0 332.37 L14.88 332.37" class="st3"/>
			</g>
			<g id="shape29-86" transform="translate(135.563,-80.7874)">
				<title>工作表.29</title>
				<path d="M0 332.37 L14.88 332.37" class="st3"/>
			</g>
			<g id="shape30-89" transform="translate(135.563,-24.0945)">
				<title>工作表.30</title>
				<path d="M0 332.37 L14.88 332.37" class="st3"/>
			</g>
			<g id="shape31-92" transform="translate(234.067,-307.559)">
				<title>工作表.31</title>
				<path d="M0 332.37 L14.88 332.37" class="st3"/>
			</g>
			<g id="shape32-95" transform="translate(234.067,-250.866)">
				<title>工作表.32</title>
				<path d="M0 332.37 L14.88 332.37" class="st3"/>
			</g>
			<g id="shape33-98" transform="translate(234.067,-194.173)">
				<title>工作表.33</title>
				<path d="M0 332.37 L14.88 332.37" class="st3"/>
			</g>
			<g id="shape34-101" transform="translate(234.067,-137.48)">
				<title>工作表.34</title>
				<path d="M0 332.37 L14.88 332.37" class="st3"/>
			</g>
			<g id="shape35-104" transform="translate(234.067,-80.7874)">
				<title>工作表.35</title>
				<path d="M0 332.37 L14.88 332.37" class="st3"/>
			</g>
			<g id="shape36-107" transform="translate(234.067,-24.0945)">
				<title>工作表.36</title>
				<path d="M0 332.37 L14.88 332.37" class="st3"/>
			</g>
			<g id="shape37-110" transform="translate(248.949,-321.732)">
				<title>工作表.37</title>
				<path d="M0 332.37 L14.88 332.37" class="st3"/>
			</g>
			<g id="shape38-113" transform="translate(248.949,-293.386)">
				<title>工作表.38</title>
				<path d="M0 332.37 L14.88 332.37" class="st3"/>
			</g>
			<g id="shape39-116" transform="translate(248.949,-265.039)">
				<title>工作表.39</title>
				<path d="M0 332.37 L14.88 332.37" class="st3"/>
			</g>
			<g id="shape40-119" transform="translate(248.949,-236.693)">
				<title>工作表.40</title>
				<path d="M0 332.37 L14.88 332.37" class="st3"/>
			</g>
			<g id="shape41-122" transform="translate(248.949,-208.346)">
				<title>工作表.41</title>
				<path d="M0 332.37 L14.88 332.37" class="st3"/>
			</g>
			<g id="shape42-125" transform="translate(248.949,-180)">
				<title>工作表.42</title>
				<path d="M0 332.37 L14.88 332.37" class="st3"/>
			</g>
			<g id="shape43-128" transform="translate(248.949,-151.654)">
				<title>工作表.43</title>
				<path d="M0 332.37 L14.88 332.37" class="st3"/>
			</g>
			<g id="shape44-131" transform="translate(248.949,-123.307)">
				<title>工作表.44</title>
				<path d="M0 332.37 L14.88 332.37" class="st3"/>
			</g>
			<g id="shape45-134" transform="translate(248.949,-94.9606)">
				<title>工作表.45</title>
				<path d="M0 332.37 L14.88 332.37" class="st3"/>
			</g>
			<g id="shape46-137" transform="translate(248.949,-66.6142)">
				<title>工作表.46</title>
				<path d="M0 332.37 L14.88 332.37" class="st3"/>
			</g>
			<g id="shape47-140" transform="translate(248.949,-38.2677)">
				<title>工作表.47</title>
				<path d="M0 332.37 L14.88 332.37" class="st3"/>
			</g>
			<g id="shape48-143" transform="translate(248.949,-9.92126)">
				<title>工作表.48</title>
				<path d="M0 332.37 L14.88 332.37" class="st3"/>
			</g>
			<g id="shape49-146" transform="translate(-196.811,308.279) rotate(-90)">
				<title>工作表.49</title>
				<path d="M0 332.37 L56.69 332.37" class="st3"/>
			</g>
			<g id="shape50-149" transform="translate(-196.811,194.893) rotate(-90)">
				<title>工作表.50</title>
				<path d="M0 332.37 L56.69 332.37" class="st3"/>
			</g>
			<g id="shape51-152" transform="translate(581.322,294.106) rotate(90)">
				<title>工作表.51</title>
				<path d="M0 332.37 L28.35 332.37" class="st3"/>
			</g>
			<g id="shape52-155" transform="translate(581.322,237.413) rotate(90)">
				<title>工作表.52</title>
				<path d="M0 332.37 L28.35 332.37" class="st3"/>
			</g>
			<g id="shape53-158" transform="translate(581.322,180.72) rotate(90)">
				<title>工作表.53</title>
				<path d="M0 332.37 L28.35 332.37" class="st3"/>
			</g>
			<g id="shape54-161" transform="translate(581.322,124.027) rotate(90)">
				<title>工作表.54</title>
				<path d="M0 332.37 L28.35 332.37" class="st3"/>
			</g>
			<g id="shape55-164" transform="translate(581.322,67.3342) rotate(90)">
				<title>工作表.55</title>
				<path d="M0 332.37 L28.35 332.37" class="st3"/>
			</g>
			<g id="shape56-167" transform="translate(581.322,10.6413) rotate(90)">
				<title>工作表.56</title>
				<path d="M0 332.37 L28.35 332.37" class="st3"/>
			</g>
			<g id="shape57-170" transform="translate(-196.811,81.5074) rotate(-90)">
				<title>工作表.57</title>
				<path d="M0 332.37 L56.69 332.37" class="st3"/>
			</g>
		</g>
	</g>
</svg>
