<?xml version="1.0" encoding="UTF-8" standalone="no"?>
<!DOCTYPE svg PUBLIC "-//W3C//DTD SVG 1.0//EN" "http://www.w3.org/TR/2001/REC-SVG-20010904/DTD/svg10.dtd">
<!-- 由 Microsoft Visio 11.0, SVG Export, v1.0 產生 y13.0015.svg Page-1 -->
<svg xmlns="http://www.w3.org/2000/svg" xmlns:xlink="http://www.w3.org/1999/xlink" xmlns:ev="http://www.w3.org/2001/xml-events"
		xmlns:v="http://schemas.microsoft.com/visio/2003/SVGExtensions/" width="7.83344in" height="9.99327in"
		viewBox="0 0 564.008 719.516" xml:space="preserve" color-interpolation-filters="sRGB" class="st6">
	<v:documentProperties v:langID="1028" v:metric="true" v:viewMarkup="false">
		<v:userDefs>
			<v:ud v:nameU="msvSubprocessMaster" v:prompt="" v:val="VT4(Box)"/>
			<v:ud v:nameU="msvNoAutoConnect" v:val="VT0(1):26"/>
		</v:userDefs>
	</v:documentProperties>

	<style type="text/css">
	<![CDATA[
		.st1 {fill:none;stroke:none;stroke-linecap:round;stroke-linejoin:round;stroke-width:0.75}
		.st2 {fill:#000000;font-family:新細明體;font-size:1.33333em}
		.st3 {stroke:#000000;stroke-linecap:round;stroke-linejoin:round;stroke-width:0.24}
		.st4 {font-size:1em}
		.st5 {stroke:#000000;stroke-linecap:round;stroke-linejoin:round;stroke-opacity:0;stroke-width:0.24}
		.st6 {fill:none;fill-rule:evenodd;font-size:12px;overflow:visible;stroke-linecap:square;stroke-miterlimit:3}
	]]>
	</style>

	<g v:mID="0" v:index="1" v:groupContext="foregroundPage">
		<title>頁-1</title>
		<v:pageProperties v:drawingScale="0.0393701" v:pageScale="0.0393701" v:drawingUnits="24" v:shadowOffsetX="8.50394"
				v:shadowOffsetY="-8.50394"/>
		<g id="shape1-1" v:mID="1" v:groupContext="shape" transform="translate(29.862,-626.498)">
			<title>工作表.1</title>
			<desc>法名</desc>
			<v:textBlock v:margins="rect(4,4,4,4)" v:tabSpace="42.5197"/>
			<v:textRect cx="28.063" cy="691.453" width="56.13" height="56.126"/>
			<rect x="0" y="663.39" width="56.126" height="56.126" class="st1"/>
			<text x="0.25em 2.258em" y="696.25" class="st2" v:langID="1028"><v:paragraph v:horizAlign="4"/><v:tabList/>法名</text>		</g>
		<g id="shape2-4" v:mID="2" v:groupContext="shape" transform="translate(29.862,-399.726)">
			<title>工作表.2</title>
			<desc>傳心</desc>
			<v:textBlock v:margins="rect(4,4,4,4)" v:tabSpace="42.5197"/>
			<v:textRect cx="28.063" cy="691.453" width="56.13" height="56.126"/>
			<rect x="0" y="663.39" width="56.126" height="56.126" class="st1"/>
			<text x="0.25em 2.258em" y="696.25" class="st2" v:langID="1028"><v:paragraph v:horizAlign="4"/><v:tabList/>傳心</text>		</g>
		<g id="shape4-7" v:mID="4" v:groupContext="shape" transform="translate(29.862,-354.372)">
			<title>工作表.4</title>
			<desc>傳佛</desc>
			<v:textBlock v:margins="rect(4,4,4,4)" v:tabSpace="42.5197"/>
			<v:textRect cx="28.063" cy="691.453" width="56.13" height="56.126"/>
			<rect x="0" y="663.39" width="56.126" height="56.126" class="st1"/>
			<text x="0.25em 2.258em" y="696.25" class="st2" v:langID="1028"><v:paragraph v:horizAlign="4"/><v:tabList/>傳佛</text>		</g>
		<g id="shape3-10" v:mID="3" v:groupContext="shape" transform="translate(29.862,-309.018)">
			<title>工作表.3</title>
			<desc>傳眾</desc>
			<v:textBlock v:margins="rect(4,4,4,4)" v:tabSpace="42.5197"/>
			<v:textRect cx="28.063" cy="691.453" width="56.13" height="56.126"/>
			<rect x="0" y="663.39" width="56.126" height="56.126" class="st1"/>
			<text x="0.25em 2.258em" y="696.25" class="st2" v:langID="1028"><v:paragraph v:horizAlign="4"/><v:tabList/>傳眾</text>		</g>
		<g id="shape5-13" v:mID="5" v:groupContext="shape" transform="translate(29.862,-218.309)">
			<title>工作表.5</title>
			<desc>傳慧</desc>
			<v:textBlock v:margins="rect(4,4,4,4)" v:tabSpace="42.5197"/>
			<v:textRect cx="28.063" cy="691.453" width="56.13" height="56.126"/>
			<rect x="0" y="663.39" width="56.126" height="56.126" class="st1"/>
			<text x="0.25em 2.258em" y="696.25" class="st2" v:langID="1028"><v:paragraph v:horizAlign="4"/><v:tabList/>傳慧</text>		</g>
		<g id="shape6-16" v:mID="6" v:groupContext="shape" transform="translate(29.862,-172.955)">
			<title>工作表.6</title>
			<desc>傳忠</desc>
			<v:textBlock v:margins="rect(4,4,4,4)" v:tabSpace="42.5197"/>
			<v:textRect cx="28.063" cy="691.453" width="56.13" height="56.126"/>
			<rect x="0" y="663.39" width="56.126" height="56.126" class="st1"/>
			<text x="0.25em 2.258em" y="696.25" class="st2" v:langID="1028"><v:paragraph v:horizAlign="4"/><v:tabList/>傳忠</text>		</g>
		<g id="shape7-19" v:mID="7" v:groupContext="shape" transform="translate(29.862,-127.6)">
			<title>工作表.7</title>
			<desc>傳信</desc>
			<v:textBlock v:margins="rect(4,4,4,4)" v:tabSpace="42.5197"/>
			<v:textRect cx="28.063" cy="691.453" width="56.13" height="56.126"/>
			<rect x="0" y="663.39" width="56.126" height="56.126" class="st1"/>
			<text x="0.25em 2.258em" y="696.25" class="st2" v:langID="1028"><v:paragraph v:horizAlign="4"/><v:tabList/>傳信</text>		</g>
		<g id="shape8-22" v:mID="8" v:groupContext="shape" transform="translate(29.862,-82.2461)">
			<title>工作表.8</title>
			<desc>傳震</desc>
			<v:textBlock v:margins="rect(4,4,4,4)" v:tabSpace="42.5197"/>
			<v:textRect cx="28.063" cy="691.453" width="56.13" height="56.126"/>
			<rect x="0" y="663.39" width="56.126" height="56.126" class="st1"/>
			<text x="0.25em 2.258em" y="696.25" class="st2" v:langID="1028"><v:paragraph v:horizAlign="4"/><v:tabList/>傳震</text>		</g>
		<g id="shape9-25" v:mID="9" v:groupContext="shape" transform="translate(97.3266,-610.624)">
			<title>工作表.9</title>
			<desc>表字</desc>
			<v:textBlock v:margins="rect(4,4,4,4)" v:tabSpace="42.5197"/>
			<v:textRect cx="43.937" cy="675.579" width="87.88" height="87.874"/>
			<rect x="0" y="631.642" width="87.874" height="87.874" class="st1"/>
			<text x="0.25em 4.242em" y="680.38" class="st2" v:langID="1028"><v:paragraph v:horizAlign="4"/><v:tabList/>表字</text>		</g>
		<g id="shape10-28" v:mID="10" v:groupContext="shape" transform="translate(-627.575,677.238) rotate(-90)">
			<title>工作表.10</title>
			<path d="M0 719.52 L635.24 719.52" class="st3"/>
		</g>
		<g id="shape11-31" v:mID="11" v:groupContext="shape" transform="translate(540.098,761.793) rotate(180)">
			<title>工作表.11</title>
			<path d="M0 719.52 L515.91 719.52" class="st3"/>
		</g>
		<g id="shape12-34" v:mID="12" v:groupContext="shape" transform="translate(97.3266,-581.144)">
			<title>工作表.12</title>
			<desc>乘悲</desc>
			<v:textBlock v:margins="rect(4,4,4,4)" v:tabSpace="42.5197"/>
			<v:textRect cx="28.063" cy="691.453" width="56.13" height="56.126"/>
			<rect x="0" y="663.39" width="56.126" height="56.126" class="st1"/>
			<text x="0.25em 2.258em" y="696.25" class="st2" v:langID="1028"><v:paragraph v:horizAlign="4"/><v:tabList/>乘悲</text>		</g>
		<g id="shape13-37" v:mID="13" v:groupContext="shape" transform="translate(97.3266,-535.789)">
			<title>工作表.13</title>
			<desc>乘智</desc>
			<v:textBlock v:margins="rect(4,4,4,4)" v:tabSpace="42.5197"/>
			<v:textRect cx="28.063" cy="691.453" width="56.13" height="56.126"/>
			<rect x="0" y="663.39" width="56.126" height="56.126" class="st1"/>
			<text x="0.25em 2.258em" y="696.25" class="st2" v:langID="1028"><v:paragraph v:horizAlign="4"/><v:tabList/>乘智</text>		</g>
		<g id="shape14-40" v:mID="14" v:groupContext="shape" transform="translate(97.3266,-490.435)">
			<title>工作表.14</title>
			<desc>乘戒</desc>
			<v:textBlock v:margins="rect(4,4,4,4)" v:tabSpace="42.5197"/>
			<v:textRect cx="28.063" cy="691.453" width="56.13" height="56.126"/>
			<rect x="0" y="663.39" width="56.126" height="56.126" class="st1"/>
			<text x="0.25em 2.258em" y="696.25" class="st2" v:langID="1028"><v:paragraph v:horizAlign="4"/><v:tabList/>乘戒</text>		</g>
		<g id="shape15-43" v:mID="15" v:groupContext="shape" transform="translate(97.3266,-445.081)">
			<title>工作表.15</title>
			<desc>大安</desc>
			<v:textBlock v:margins="rect(4,4,4,4)" v:tabSpace="42.5197"/>
			<v:textRect cx="28.063" cy="691.453" width="56.13" height="56.126"/>
			<rect x="0" y="663.39" width="56.126" height="56.126" class="st1"/>
			<text x="0.25em 2.258em" y="696.25" class="st2" v:langID="1028"><v:paragraph v:horizAlign="4"/><v:tabList/>大安</text>		</g>
		<g id="shape16-46" v:mID="16" v:groupContext="shape" transform="translate(97.3266,-399.726)">
			<title>工作表.16</title>
			<desc>大慈</desc>
			<v:textBlock v:margins="rect(4,4,4,4)" v:tabSpace="42.5197"/>
			<v:textRect cx="28.063" cy="691.453" width="56.13" height="56.126"/>
			<rect x="0" y="663.39" width="56.126" height="56.126" class="st1"/>
			<text x="0.25em 2.258em" y="696.25" class="st2" v:langID="1028"><v:paragraph v:horizAlign="4"/><v:tabList/>大慈</text>		</g>
		<g id="shape17-49" v:mID="17" v:groupContext="shape" transform="translate(97.3266,-354.372)">
			<title>工作表.17</title>
			<desc>大覺</desc>
			<v:textBlock v:margins="rect(4,4,4,4)" v:tabSpace="42.5197"/>
			<v:textRect cx="28.063" cy="691.453" width="56.13" height="56.126"/>
			<rect x="0" y="663.39" width="56.126" height="56.126" class="st1"/>
			<text x="0.25em 2.258em" y="696.25" class="st2" v:langID="1028"><v:paragraph v:horizAlign="4"/><v:tabList/>大覺</text>		</g>
		<g id="shape18-52" v:mID="18" v:groupContext="shape" transform="translate(97.3266,-309.018)">
			<title>工作表.18</title>
			<desc>大勇</desc>
			<v:textBlock v:margins="rect(4,4,4,4)" v:tabSpace="42.5197"/>
			<v:textRect cx="28.063" cy="691.453" width="56.13" height="56.126"/>
			<rect x="0" y="663.39" width="56.126" height="56.126" class="st1"/>
			<text x="0.25em 2.258em" y="696.25" class="st2" v:langID="1028"><v:paragraph v:horizAlign="4"/><v:tabList/>大勇</text>		</g>
		<g id="shape19-55" v:mID="19" v:groupContext="shape" transform="translate(97.3266,-263.663)">
			<title>工作表.19</title>
			<desc>大默</desc>
			<v:textBlock v:margins="rect(4,4,4,4)" v:tabSpace="42.5197"/>
			<v:textRect cx="28.063" cy="691.453" width="56.13" height="56.126"/>
			<rect x="0" y="663.39" width="56.126" height="56.126" class="st1"/>
			<text x="0.25em 2.258em" y="696.25" class="st2" v:langID="1028"><v:paragraph v:horizAlign="4"/><v:tabList/>大默</text>		</g>
		<g id="shape20-58" v:mID="20" v:groupContext="shape" transform="translate(97.3266,-218.309)">
			<title>工作表.20</title>
			<desc>大嚴</desc>
			<v:textBlock v:margins="rect(4,4,4,4)" v:tabSpace="42.5197"/>
			<v:textRect cx="28.063" cy="691.453" width="56.13" height="56.126"/>
			<rect x="0" y="663.39" width="56.126" height="56.126" class="st1"/>
			<text x="0.25em 2.258em" y="696.25" class="st2" v:langID="1028"><v:paragraph v:horizAlign="4"/><v:tabList/>大嚴</text>		</g>
		<g id="shape21-61" v:mID="21" v:groupContext="shape" transform="translate(97.3266,-172.955)">
			<title>工作表.21</title>
			<desc>大敬</desc>
			<v:textBlock v:margins="rect(4,4,4,4)" v:tabSpace="42.5197"/>
			<v:textRect cx="28.063" cy="691.453" width="56.13" height="56.126"/>
			<rect x="0" y="663.39" width="56.126" height="56.126" class="st1"/>
			<text x="0.25em 2.258em" y="696.25" class="st2" v:langID="1028"><v:paragraph v:horizAlign="4"/><v:tabList/>大敬</text>		</g>
		<g id="shape22-64" v:mID="22" v:groupContext="shape" transform="translate(97.3266,-127.6)">
			<title>工作表.22</title>
			<desc>大愚</desc>
			<v:textBlock v:margins="rect(4,4,4,4)" v:tabSpace="42.5197"/>
			<v:textRect cx="28.063" cy="691.453" width="56.13" height="56.126"/>
			<rect x="0" y="663.39" width="56.126" height="56.126" class="st1"/>
			<text x="0.25em 2.258em" y="696.25" class="st2" v:langID="1028"><v:paragraph v:horizAlign="4"/><v:tabList/>大愚</text>		</g>
		<g id="shape23-67" v:mID="23" v:groupContext="shape" transform="translate(97.3266,-82.2461)">
			<title>工作表.23</title>
			<desc>大剛</desc>
			<v:textBlock v:margins="rect(4,4,4,4)" v:tabSpace="42.5197"/>
			<v:textRect cx="28.063" cy="691.453" width="56.13" height="56.126"/>
			<rect x="0" y="663.39" width="56.126" height="56.126" class="st1"/>
			<text x="0.25em 2.258em" y="696.25" class="st2" v:langID="1028"><v:paragraph v:horizAlign="4"/><v:tabList/>大剛</text>		</g>
		<g id="shape24-70" v:mID="24" v:groupContext="shape" transform="translate(97.3266,-20.876)">
			<title>工作表.24</title>
			<desc>德瑛尼</desc>
			<v:textBlock v:margins="rect(4,4,4,4)" v:tabSpace="42.5197"/>
			<v:textRect cx="44.0787" cy="675.437" width="88.16" height="88.1575"/>
			<rect x="0" y="631.358" width="88.1575" height="88.1575" class="st1"/>
			<text x="0.25em 1.252em" y="680.24" class="st2" v:langID="1028"><v:paragraph v:horizAlign="4"/><v:tabList/>德瑛<tspan x="
							2.255em" dy="0em" class="st4">（</tspan><tspan x="3.257em" dy="0em" class="st4">尼</tspan><tspan x="4.26em"
						dy="0em" class="st4">）</tspan></text>		</g>
		<g id="shape25-76" v:mID="25" v:groupContext="shape" transform="translate(-528.646,677.238) rotate(-90)">
			<title>工作表.25</title>
			<path d="M0 719.52 L635.24 719.52" class="st3"/>
		</g>
		<g id="shape26-79" v:mID="26" v:groupContext="shape" transform="translate(-695.606,677.238) rotate(-90)">
			<title>工作表.26</title>
			<path d="M0 719.52 L635.24 719.52" class="st3"/>
		</g>
		<g id="shape27-82" v:mID="27" v:groupContext="shape" transform="translate(540.098,1396.75) rotate(180)">
			<title>工作表.27</title>
			<path d="M0 719.52 L516.19 719.52" class="st3"/>
		</g>
		<g id="shape28-85" v:mID="28" v:groupContext="shape" transform="translate(196.539,-626.498)">
			<title>工作表.28</title>
			<desc>俗名</desc>
			<v:textBlock v:margins="rect(4,4,4,4)" v:tabSpace="42.5197"/>
			<v:textRect cx="28.063" cy="691.453" width="56.13" height="56.126"/>
			<rect x="0" y="663.39" width="56.126" height="56.126" class="st1"/>
			<text x="0.25em 2.258em" y="696.25" class="st2" v:langID="1028"><v:paragraph v:horizAlign="4"/><v:tabList/>俗名</text>		</g>
		<g id="shape29-88" v:mID="29" v:groupContext="shape" transform="translate(196.539,-399.726)">
			<title>工作表.29</title>
			<desc>黃葆蒼</desc>
			<v:textBlock v:margins="rect(4,4,4,4)" v:tabSpace="42.5197"/>
			<v:textRect cx="28.063" cy="691.453" width="56.13" height="56.126"/>
			<rect x="0" y="663.39" width="56.126" height="56.126" class="st1"/>
			<text x="0.25em 1.254em 2.258em" y="696.25" class="st2" v:langID="1028"><v:paragraph v:horizAlign="4"/><v:tabList/>黃葆蒼</text>		</g>
		<g id="shape30-91" v:mID="30" v:groupContext="shape" transform="translate(196.539,-354.372)">
			<title>工作表.30</title>
			<desc>董慕舒</desc>
			<v:textBlock v:margins="rect(4,4,4,4)" v:tabSpace="42.5197"/>
			<v:textRect cx="28.063" cy="691.453" width="56.13" height="56.126"/>
			<rect x="0" y="663.39" width="56.126" height="56.126" class="st1"/>
			<text x="0.25em 1.254em 2.258em" y="696.25" class="st2" v:langID="1028"><v:paragraph v:horizAlign="4"/><v:tabList/>董慕舒</text>		</g>
		<g id="shape31-94" v:mID="31" v:groupContext="shape" transform="translate(196.539,-309.018)">
			<title>工作表.31</title>
			<desc>李錦章</desc>
			<v:textBlock v:margins="rect(4,4,4,4)" v:tabSpace="42.5197"/>
			<v:textRect cx="28.063" cy="691.453" width="56.13" height="56.126"/>
			<rect x="0" y="663.39" width="56.126" height="56.126" class="st1"/>
			<text x="0.25em 1.254em 2.258em" y="696.25" class="st2" v:langID="1028"><v:paragraph v:horizAlign="4"/><v:tabList/>李錦章</text>		</g>
		<g id="shape32-97" v:mID="32" v:groupContext="shape" transform="translate(196.539,-263.663)">
			<title>工作表.32</title>
			<desc>鄧</desc>
			<v:textBlock v:margins="rect(4,4,4,4)" v:tabSpace="42.5197"/>
			<v:textRect cx="28.063" cy="691.453" width="56.13" height="56.126"/>
			<rect x="0" y="663.39" width="56.126" height="56.126" class="st1"/>
			<text x="4" y="696.25" class="st2" v:langID="1028"><v:paragraph/><v:tabList/>鄧</text>		</g>
		<g id="shape33-100" v:mID="33" v:groupContext="shape" transform="translate(196.539,-218.309)">
			<title>工作表.33</title>
			<desc>王虛亭</desc>
			<v:textBlock v:margins="rect(4,4,4,4)" v:tabSpace="42.5197"/>
			<v:textRect cx="28.063" cy="691.453" width="56.13" height="56.126"/>
			<rect x="0" y="663.39" width="56.126" height="56.126" class="st1"/>
			<text x="0.25em 1.254em 2.258em" y="696.25" class="st2" v:langID="1028"><v:paragraph v:horizAlign="4"/><v:tabList/>王虛亭</text>		</g>
		<g id="shape34-103" v:mID="34" v:groupContext="shape" transform="translate(196.539,-172.955)">
			<title>工作表.34</title>
			<desc>唐畏三</desc>
			<v:textBlock v:margins="rect(4,4,4,4)" v:tabSpace="42.5197"/>
			<v:textRect cx="28.063" cy="691.453" width="56.13" height="56.126"/>
			<rect x="0" y="663.39" width="56.126" height="56.126" class="st1"/>
			<text x="0.25em 1.254em 2.258em" y="696.25" class="st2" v:langID="1028"><v:paragraph v:horizAlign="4"/><v:tabList/>唐畏三</text>		</g>
		<g id="shape35-106" v:mID="35" v:groupContext="shape" transform="translate(196.539,-127.6)">
			<title>工作表.35</title>
			<desc>李時諳</desc>
			<v:textBlock v:margins="rect(4,4,4,4)" v:tabSpace="42.5197"/>
			<v:textRect cx="28.063" cy="691.453" width="56.13" height="56.126"/>
			<rect x="0" y="663.39" width="56.126" height="56.126" class="st1"/>
			<text x="0.25em 1.254em 2.258em" y="696.25" class="st2" v:langID="1028"><v:paragraph v:horizAlign="4"/><v:tabList/>李時諳</text>		</g>
		<g id="shape36-109" v:mID="36" v:groupContext="shape" transform="translate(196.539,-82.2461)">
			<title>工作表.36</title>
			<desc>王又農</desc>
			<v:textBlock v:margins="rect(4,4,4,4)" v:tabSpace="42.5197"/>
			<v:textRect cx="28.063" cy="691.453" width="56.13" height="56.126"/>
			<rect x="0" y="663.39" width="56.126" height="56.126" class="st1"/>
			<text x="0.25em 1.254em 2.258em" y="696.25" class="st2" v:langID="1028"><v:paragraph v:horizAlign="4"/><v:tabList/>王又農</text>		</g>
		<g id="shape37-112" v:mID="37" v:groupContext="shape" transform="translate(196.539,-36.8917)">
			<title>工作表.37</title>
			<desc>李梅石</desc>
			<v:textBlock v:margins="rect(4,4,4,4)" v:tabSpace="42.5197"/>
			<v:textRect cx="28.063" cy="691.453" width="56.13" height="56.126"/>
			<rect x="0" y="663.39" width="56.126" height="56.126" class="st1"/>
			<text x="0.25em 1.254em 2.258em" y="696.25" class="st2" v:langID="1028"><v:paragraph v:horizAlign="4"/><v:tabList/>李梅石</text>		</g>
		<g id="shape38-115" v:mID="38" v:groupContext="shape" transform="translate(-461.181,677.238) rotate(-90)">
			<title>工作表.38</title>
			<path d="M0 719.52 L635.24 719.52" class="st3"/>
		</g>
		<g id="shape39-118" v:mID="39" v:groupContext="shape" transform="translate(264.004,-618.561)">
			<title>工作表.39</title>
			<desc>籍貫</desc>
			<v:textBlock v:margins="rect(4,4,4,4)" v:tabSpace="42.5197"/>
			<v:textRect cx="36" cy="683.516" width="72" height="72"/>
			<rect x="0" y="647.516" width="72" height="72" class="st1"/>
			<text x="0.25em 3.25em" y="688.32" class="st2" v:langID="1028"><v:paragraph v:horizAlign="4"/><v:tabList/>籍貫</text>		</g>
		<g id="shape40-121" v:mID="40" v:groupContext="shape" transform="translate(345.075,-608.356)">
			<title>工作表.40</title>
			<desc>出家</desc>
			<v:textBlock v:margins="rect(4,4,4,4)" v:tabSpace="42.5197"/>
			<v:textRect cx="46.2047" cy="673.311" width="92.41" height="92.4094"/>
			<rect x="0" y="627.106" width="92.4094" height="92.4094" class="st1"/>
			<text x="0.25em 4.526em" y="678.11" class="st2" v:langID="1028"><v:paragraph v:horizAlign="4"/><v:tabList/>出家</text>		</g>
		<g id="shape41-124" v:mID="41" v:groupContext="shape" transform="translate(444.287,-608.356)">
			<title>工作表.41</title>
			<desc>生卒情形</desc>
			<v:textBlock v:margins="rect(4,4,4,4)" v:tabSpace="42.5197"/>
			<v:textRect cx="46.2047" cy="673.311" width="92.41" height="92.4094"/>
			<rect x="0" y="627.106" width="92.4094" height="92.4094" class="st1"/>
			<text x="0.25em 1.675em 3.1em 4.526em" y="678.11" class="st2" v:langID="1028"><v:paragraph v:horizAlign="4"/><v:tabList/>生卒情形</text>		</g>
		<g id="shape42-127" v:mID="42" v:groupContext="shape" transform="translate(-378.126,677.238) rotate(-90)">
			<title>工作表.42</title>
			<path d="M0 719.52 L635.24 719.52" class="st3"/>
		</g>
		<g id="shape43-130" v:mID="43" v:groupContext="shape" transform="translate(-278.914,677.238) rotate(-90)">
			<title>工作表.43</title>
			<path d="M0 719.52 L635.24 719.52" class="st3"/>
		</g>
		<g id="shape44-133" v:mID="44" v:groupContext="shape" transform="translate(-179.417,677.238) rotate(-90)">
			<title>工作表.44</title>
			<path d="M0 719.52 L635.24 719.52" class="st3"/>
		</g>
		<g id="shape45-136" v:mID="45" v:groupContext="shape" transform="translate(264.004,-581.144)">
			<title>工作表.45</title>
			<desc>安徽</desc>
			<v:textBlock v:margins="rect(4,4,4,4)" v:tabSpace="42.5197"/>
			<v:textRect cx="28.063" cy="691.453" width="56.13" height="56.126"/>
			<rect x="0" y="663.39" width="56.126" height="56.126" class="st1"/>
			<text x="0.25em 2.258em" y="696.25" class="st2" v:langID="1028"><v:paragraph v:horizAlign="4"/><v:tabList/>安徽</text>		</g>
		<g id="shape46-139" v:mID="46" v:groupContext="shape" transform="translate(264.004,-535.789)">
			<title>工作表.46</title>
			<desc>安徽</desc>
			<v:textBlock v:margins="rect(4,4,4,4)" v:tabSpace="42.5197"/>
			<v:textRect cx="28.063" cy="691.453" width="56.13" height="56.126"/>
			<rect x="0" y="663.39" width="56.126" height="56.126" class="st1"/>
			<text x="0.25em 2.258em" y="696.25" class="st2" v:langID="1028"><v:paragraph v:horizAlign="4"/><v:tabList/>安徽</text>		</g>
		<g id="shape47-142" v:mID="47" v:groupContext="shape" transform="translate(264.004,-490.435)">
			<title>工作表.47</title>
			<desc>江西</desc>
			<v:textBlock v:margins="rect(4,4,4,4)" v:tabSpace="42.5197"/>
			<v:textRect cx="28.063" cy="691.453" width="56.13" height="56.126"/>
			<rect x="0" y="663.39" width="56.126" height="56.126" class="st1"/>
			<text x="0.25em 2.258em" y="696.25" class="st2" v:langID="1028"><v:paragraph v:horizAlign="4"/><v:tabList/>江西</text>		</g>
		<g id="shape48-145" v:mID="48" v:groupContext="shape" transform="translate(264.004,-445.081)">
			<title>工作表.48</title>
			<desc>浙江</desc>
			<v:textBlock v:margins="rect(4,4,4,4)" v:tabSpace="42.5197"/>
			<v:textRect cx="28.063" cy="691.453" width="56.13" height="56.126"/>
			<rect x="0" y="663.39" width="56.126" height="56.126" class="st1"/>
			<text x="0.25em 2.258em" y="696.25" class="st2" v:langID="1028"><v:paragraph v:horizAlign="4"/><v:tabList/>浙江</text>		</g>
		<g id="shape49-148" v:mID="49" v:groupContext="shape" transform="translate(264.004,-399.726)">
			<title>工作表.49</title>
			<desc>湖北</desc>
			<v:textBlock v:margins="rect(4,4,4,4)" v:tabSpace="42.5197"/>
			<v:textRect cx="28.063" cy="691.453" width="56.13" height="56.126"/>
			<rect x="0" y="663.39" width="56.126" height="56.126" class="st1"/>
			<text x="0.25em 2.258em" y="696.25" class="st2" v:langID="1028"><v:paragraph v:horizAlign="4"/><v:tabList/>湖北</text>		</g>
		<g id="shape50-151" v:mID="50" v:groupContext="shape" transform="translate(264.004,-354.372)">
			<title>工作表.50</title>
			<desc>四川</desc>
			<v:textBlock v:margins="rect(4,4,4,4)" v:tabSpace="42.5197"/>
			<v:textRect cx="28.063" cy="691.453" width="56.13" height="56.126"/>
			<rect x="0" y="663.39" width="56.126" height="56.126" class="st1"/>
			<text x="0.25em 2.258em" y="696.25" class="st2" v:langID="1028"><v:paragraph v:horizAlign="4"/><v:tabList/>四川</text>		</g>
		<g id="shape51-154" v:mID="51" v:groupContext="shape" transform="translate(264.004,-309.018)">
			<title>工作表.51</title>
			<desc>四川</desc>
			<v:textBlock v:margins="rect(4,4,4,4)" v:tabSpace="42.5197"/>
			<v:textRect cx="28.063" cy="691.453" width="56.13" height="56.126"/>
			<rect x="0" y="663.39" width="56.126" height="56.126" class="st1"/>
			<text x="0.25em 2.258em" y="696.25" class="st2" v:langID="1028"><v:paragraph v:horizAlign="4"/><v:tabList/>四川</text>		</g>
		<g id="shape52-157" v:mID="52" v:groupContext="shape" transform="translate(264.004,-263.663)">
			<title>工作表.52</title>
			<desc>湖北</desc>
			<v:textBlock v:margins="rect(4,4,4,4)" v:tabSpace="42.5197"/>
			<v:textRect cx="28.063" cy="691.453" width="56.13" height="56.126"/>
			<rect x="0" y="663.39" width="56.126" height="56.126" class="st1"/>
			<text x="0.25em 2.258em" y="696.25" class="st2" v:langID="1028"><v:paragraph v:horizAlign="4"/><v:tabList/>湖北</text>		</g>
		<g id="shape53-160" v:mID="53" v:groupContext="shape" transform="translate(264.004,-218.309)">
			<title>工作表.53</title>
			<desc>安徽</desc>
			<v:textBlock v:margins="rect(4,4,4,4)" v:tabSpace="42.5197"/>
			<v:textRect cx="28.063" cy="691.453" width="56.13" height="56.126"/>
			<rect x="0" y="663.39" width="56.126" height="56.126" class="st1"/>
			<text x="0.25em 2.258em" y="696.25" class="st2" v:langID="1028"><v:paragraph v:horizAlign="4"/><v:tabList/>安徽</text>		</g>
		<g id="shape54-163" v:mID="54" v:groupContext="shape" transform="translate(264.004,-172.955)">
			<title>工作表.54</title>
			<desc>湖南</desc>
			<v:textBlock v:margins="rect(4,4,4,4)" v:tabSpace="42.5197"/>
			<v:textRect cx="28.063" cy="691.453" width="56.13" height="56.126"/>
			<rect x="0" y="663.39" width="56.126" height="56.126" class="st1"/>
			<text x="0.25em 2.258em" y="696.25" class="st2" v:langID="1028"><v:paragraph v:horizAlign="4"/><v:tabList/>湖南</text>		</g>
		<g id="shape55-166" v:mID="55" v:groupContext="shape" transform="translate(264.004,-127.6)">
			<title>工作表.55</title>
			<desc>湖北</desc>
			<v:textBlock v:margins="rect(4,4,4,4)" v:tabSpace="42.5197"/>
			<v:textRect cx="28.063" cy="691.453" width="56.13" height="56.126"/>
			<rect x="0" y="663.39" width="56.126" height="56.126" class="st1"/>
			<text x="0.25em 2.258em" y="696.25" class="st2" v:langID="1028"><v:paragraph v:horizAlign="4"/><v:tabList/>湖北</text>		</g>
		<g id="shape56-169" v:mID="56" v:groupContext="shape" transform="translate(264.004,-82.2461)">
			<title>工作表.56</title>
			<desc>湖北</desc>
			<v:textBlock v:margins="rect(4,4,4,4)" v:tabSpace="42.5197"/>
			<v:textRect cx="28.063" cy="691.453" width="56.13" height="56.126"/>
			<rect x="0" y="663.39" width="56.126" height="56.126" class="st1"/>
			<text x="0.25em 2.258em" y="696.25" class="st2" v:langID="1028"><v:paragraph v:horizAlign="4"/><v:tabList/>湖北</text>		</g>
		<g id="shape57-172" v:mID="57" v:groupContext="shape" transform="translate(264.004,-36.8917)">
			<title>工作表.57</title>
			<desc>湖北</desc>
			<v:textBlock v:margins="rect(4,4,4,4)" v:tabSpace="42.5197"/>
			<v:textRect cx="28.063" cy="691.453" width="56.13" height="56.126"/>
			<rect x="0" y="663.39" width="56.126" height="56.126" class="st1"/>
			<text x="0.25em 2.258em" y="696.25" class="st2" v:langID="1028"><v:paragraph v:horizAlign="4"/><v:tabList/>湖北</text>		</g>
		<g id="shape58-175" v:mID="58" v:groupContext="shape" transform="translate(345.075,-426.939)">
			<title>工作表.58</title>
			<desc>民國七年</desc>
			<v:textBlock v:margins="rect(4,4,4,4)" v:tabSpace="42.5197"/>
			<v:textRect cx="46.2047" cy="673.311" width="92.41" height="92.4094"/>
			<rect x="0" y="627.106" width="92.4094" height="92.4094" class="st1"/>
			<text x="4" y="678.11" class="st2" v:langID="1028"><v:paragraph/><v:tabList/>民國七年</text>		</g>
		<g id="shape59-178" v:mID="59" v:groupContext="shape" transform="translate(345.075,-381.585)">
			<title>工作表.59</title>
			<desc>民國八年</desc>
			<v:textBlock v:margins="rect(4,4,4,4)" v:tabSpace="42.5197"/>
			<v:textRect cx="46.2047" cy="673.311" width="92.41" height="92.4094"/>
			<rect x="0" y="627.106" width="92.4094" height="92.4094" class="st1"/>
			<text x="4" y="678.11" class="st2" v:langID="1028"><v:paragraph/><v:tabList/>民國八年</text>		</g>
		<g id="shape60-181" v:mID="60" v:groupContext="shape" transform="translate(345.075,-336.23)">
			<title>工作表.60</title>
			<desc>民國八年</desc>
			<v:textBlock v:margins="rect(4,4,4,4)" v:tabSpace="42.5197"/>
			<v:textRect cx="46.2047" cy="673.311" width="92.41" height="92.4094"/>
			<rect x="0" y="627.106" width="92.4094" height="92.4094" class="st1"/>
			<text x="4" y="678.11" class="st2" v:langID="1028"><v:paragraph/><v:tabList/>民國八年</text>		</g>
		<g id="shape61-184" v:mID="61" v:groupContext="shape" transform="translate(345.075,-290.876)">
			<title>工作表.61</title>
			<desc>民國八年</desc>
			<v:textBlock v:margins="rect(4,4,4,4)" v:tabSpace="42.5197"/>
			<v:textRect cx="46.2047" cy="673.311" width="92.41" height="92.4094"/>
			<rect x="0" y="627.106" width="92.4094" height="92.4094" class="st1"/>
			<text x="4" y="678.11" class="st2" v:langID="1028"><v:paragraph/><v:tabList/>民國八年</text>		</g>
		<g id="shape62-187" v:mID="62" v:groupContext="shape" transform="translate(345.075,-245.522)">
			<title>工作表.62</title>
			<desc>民國九年</desc>
			<v:textBlock v:margins="rect(4,4,4,4)" v:tabSpace="42.5197"/>
			<v:textRect cx="46.2047" cy="673.311" width="92.41" height="92.4094"/>
			<rect x="0" y="627.106" width="92.4094" height="92.4094" class="st1"/>
			<text x="4" y="678.11" class="st2" v:langID="1028"><v:paragraph/><v:tabList/>民國九年</text>		</g>
		<g id="shape63-190" v:mID="63" v:groupContext="shape" transform="translate(345.075,-200.167)">
			<title>工作表.63</title>
			<desc>民國十 一年</desc>
			<v:textBlock v:margins="rect(4,4,4,4)" v:tabSpace="42.5197"/>
			<v:textRect cx="46.2047" cy="673.311" width="92.41" height="92.4094"/>
			<rect x="0" y="627.106" width="92.4094" height="92.4094" class="st1"/>
			<text x="4" y="678.11" class="st2" v:langID="1028"><v:paragraph/><v:tabList/>民國十 一年</text>		</g>
		<g id="shape64-193" v:mID="64" v:groupContext="shape" transform="translate(345.075,-154.813)">
			<title>工作表.64</title>
			<desc>民國十 二年</desc>
			<v:textBlock v:margins="rect(4,4,4,4)" v:tabSpace="42.5197"/>
			<v:textRect cx="46.2047" cy="673.311" width="92.41" height="92.4094"/>
			<rect x="0" y="627.106" width="92.4094" height="92.4094" class="st1"/>
			<text x="4" y="678.11" class="st2" v:langID="1028"><v:paragraph/><v:tabList/>民國十 二年</text>		</g>
		<g id="shape65-196" v:mID="65" v:groupContext="shape" transform="translate(345.075,-109.459)">
			<title>工作表.65</title>
			<desc>民國十 二年</desc>
			<v:textBlock v:margins="rect(4,4,4,4)" v:tabSpace="42.5197"/>
			<v:textRect cx="46.2047" cy="673.311" width="92.41" height="92.4094"/>
			<rect x="0" y="627.106" width="92.4094" height="92.4094" class="st1"/>
			<text x="4" y="678.11" class="st2" v:langID="1028"><v:paragraph/><v:tabList/>民國十 二年</text>		</g>
		<g id="shape66-199" v:mID="66" v:groupContext="shape" transform="translate(345.075,-64.1043)">
			<title>工作表.66</title>
			<desc>民國十 二年</desc>
			<v:textBlock v:margins="rect(4,4,4,4)" v:tabSpace="42.5197"/>
			<v:textRect cx="46.2047" cy="673.311" width="92.41" height="92.4094"/>
			<rect x="0" y="627.106" width="92.4094" height="92.4094" class="st1"/>
			<text x="4" y="678.11" class="st2" v:langID="1028"><v:paragraph/><v:tabList/>民國十 二年</text>		</g>
		<g id="shape67-202" v:mID="67" v:groupContext="shape" transform="translate(345.075,-18.75)">
			<title>工作表.67</title>
			<desc>民國十 二年</desc>
			<v:textBlock v:margins="rect(4,4,4,4)" v:tabSpace="42.5197"/>
			<v:textRect cx="46.2047" cy="673.311" width="92.41" height="92.4094"/>
			<rect x="0" y="627.106" width="92.4094" height="92.4094" class="st1"/>
			<text x="4" y="678.11" class="st2" v:langID="1028"><v:paragraph/><v:tabList/>民國十 二年</text>		</g>
		<g id="shape68-205" v:mID="68" v:groupContext="shape" transform="translate(444.287,-563.002)">
			<title>工作表.68</title>
			<desc>返俗</desc>
			<v:textBlock v:margins="rect(4,4,4,4)" v:tabSpace="42.5197"/>
			<v:textRect cx="46.2047" cy="673.311" width="92.41" height="92.4094"/>
			<rect x="0" y="627.106" width="92.4094" height="92.4094" class="st1"/>
			<text x="4" y="678.11" class="st2" v:langID="1028"><v:paragraph/><v:tabList/>返俗</text>		</g>
		<g id="shape69-208" v:mID="69" v:groupContext="shape" transform="translate(444.287,-517.648)">
			<title>工作表.69</title>
			<desc>返俗</desc>
			<v:textBlock v:margins="rect(4,4,4,4)" v:tabSpace="42.5197"/>
			<v:textRect cx="46.2047" cy="673.311" width="92.41" height="92.4094"/>
			<rect x="0" y="627.106" width="92.4094" height="92.4094" class="st1"/>
			<text x="4" y="678.11" class="st2" v:langID="1028"><v:paragraph/><v:tabList/>返俗</text>		</g>
		<g id="shape70-211" v:mID="70" v:groupContext="shape" transform="translate(444.287,-472.293)">
			<title>工作表.70</title>
			<desc>返俗</desc>
			<v:textBlock v:margins="rect(4,4,4,4)" v:tabSpace="42.5197"/>
			<v:textRect cx="46.2047" cy="673.311" width="92.41" height="92.4094"/>
			<rect x="0" y="627.106" width="92.4094" height="92.4094" class="st1"/>
			<text x="4" y="678.11" class="st2" v:langID="1028"><v:paragraph/><v:tabList/>返俗</text>		</g>
		<g id="shape71-214" v:mID="71" v:groupContext="shape" transform="translate(444.287,-426.939)">
			<title>工作表.71</title>
			<desc>十年頃卒</desc>
			<v:textBlock v:margins="rect(4,4,4,4)" v:tabSpace="42.5197"/>
			<v:textRect cx="46.2047" cy="673.311" width="92.41" height="92.4094"/>
			<rect x="0" y="627.106" width="92.4094" height="92.4094" class="st1"/>
			<text x="4" y="678.11" class="st2" v:langID="1028"><v:paragraph/><v:tabList/>十年頃卒</text>		</g>
		<g id="shape72-217" v:mID="72" v:groupContext="shape" transform="translate(444.287,-381.585)">
			<title>工作表.72</title>
			<desc>十一年秋卒</desc>
			<v:textBlock v:margins="rect(4,4,4,4)" v:tabSpace="42.5197"/>
			<v:textRect cx="46.2047" cy="673.311" width="92.41" height="92.4094"/>
			<rect x="0" y="627.106" width="92.4094" height="92.4094" class="st1"/>
			<text x="4" y="678.11" class="st2" v:langID="1028"><v:paragraph/><v:tabList/>十一年秋卒</text>		</g>
		<g id="shape73-220" v:mID="73" v:groupContext="shape" transform="translate(444.287,-336.23)">
			<title>工作表.73</title>
			<desc>十四年春卒</desc>
			<v:textBlock v:margins="rect(4,4,4,4)" v:tabSpace="42.5197"/>
			<v:textRect cx="46.2047" cy="673.311" width="92.41" height="92.4094"/>
			<rect x="0" y="627.106" width="92.4094" height="92.4094" class="st1"/>
			<text x="4" y="678.11" class="st2" v:langID="1028"><v:paragraph/><v:tabList/>十四年春卒</text>		</g>
		<g id="shape74-223" v:mID="74" v:groupContext="shape" transform="translate(444.287,-290.876)">
			<title>工作表.74</title>
			<desc>十八年秋卒</desc>
			<v:textBlock v:margins="rect(4,4,4,4)" v:tabSpace="42.5197"/>
			<v:textRect cx="46.2047" cy="673.311" width="92.41" height="92.4094"/>
			<rect x="0" y="627.106" width="92.4094" height="92.4094" class="st1"/>
			<text x="4" y="678.11" class="st2" v:langID="1028"><v:paragraph/><v:tabList/>十八年秋卒</text>		</g>
		<g id="shape75-226" v:mID="75" v:groupContext="shape" transform="translate(444.287,-245.522)">
			<title>工作表.75</title>
			<desc>十年卒</desc>
			<v:textBlock v:margins="rect(4,4,4,4)" v:tabSpace="42.5197"/>
			<v:textRect cx="46.2047" cy="673.311" width="92.41" height="92.4094"/>
			<rect x="0" y="627.106" width="92.4094" height="92.4094" class="st1"/>
			<text x="4" y="678.11" class="st2" v:langID="1028"><v:paragraph/><v:tabList/>十年卒</text>		</g>
		<g id="shape76-229" v:mID="76" v:groupContext="shape" transform="translate(444.287,-200.167)">
			<title>工作表.76</title>
			<desc>十五年冬卒</desc>
			<v:textBlock v:margins="rect(4,4,4,4)" v:tabSpace="42.5197"/>
			<v:textRect cx="46.2047" cy="673.311" width="92.41" height="92.4094"/>
			<rect x="0" y="627.106" width="92.4094" height="92.4094" class="st1"/>
			<text x="4" y="678.11" class="st2" v:langID="1028"><v:paragraph/><v:tabList/>十五年冬卒</text>		</g>
		<g id="shape77-232" v:mID="77" v:groupContext="shape" transform="translate(444.287,-154.813)">
			<title>工作表.77</title>
			<desc>二十四年卒</desc>
			<v:textBlock v:margins="rect(4,4,4,4)" v:tabSpace="42.5197"/>
			<v:textRect cx="46.2047" cy="673.311" width="92.41" height="92.4094"/>
			<rect x="0" y="627.106" width="92.4094" height="92.4094" class="st1"/>
			<text x="4" y="678.11" class="st2" v:langID="1028"><v:paragraph/><v:tabList/>二十四年卒</text>		</g>
		<g id="shape78-235" v:mID="78" v:groupContext="shape" transform="translate(444.287,-109.459)">
			<title>工作表.78</title>
			<desc>不明</desc>
			<v:textBlock v:margins="rect(4,4,4,4)" v:tabSpace="42.5197"/>
			<v:textRect cx="46.2047" cy="673.311" width="92.41" height="92.4094"/>
			<rect x="0" y="627.106" width="92.4094" height="92.4094" class="st1"/>
			<text x="4" y="678.11" class="st2" v:langID="1028"><v:paragraph/><v:tabList/>不明</text>		</g>
		<g id="shape79-238" v:mID="79" v:groupContext="shape" transform="translate(444.287,-64.1043)">
			<title>工作表.79</title>
			<desc>三十四年卒</desc>
			<v:textBlock v:margins="rect(4,4,4,4)" v:tabSpace="42.5197"/>
			<v:textRect cx="46.2047" cy="673.311" width="92.41" height="92.4094"/>
			<rect x="0" y="627.106" width="92.4094" height="92.4094" class="st1"/>
			<text x="4" y="678.11" class="st2" v:langID="1028"><v:paragraph/><v:tabList/>三十四年卒</text>		</g>
		<g id="shape80-241" v:mID="80" v:groupContext="shape" transform="translate(444.287,-18.75)">
			<title>工作表.80</title>
			<desc>卒</desc>
			<v:textBlock v:margins="rect(4,4,4,4)" v:tabSpace="42.5197"/>
			<v:textRect cx="46.2047" cy="673.311" width="92.41" height="92.4094"/>
			<rect x="0" y="627.106" width="92.4094" height="92.4094" class="st1"/>
			<text x="4" y="678.11" class="st2" v:langID="1028"><v:paragraph/><v:tabList/>卒</text>		</g>
		<g id="shape81-244" v:mID="81" v:groupContext="shape" transform="translate(540.098,807.148) rotate(180)">
			<title>工作表.81</title>
			<path d="M0 719.52 L515.91 719.52" class="st3"/>
		</g>
		<g id="group86-247" transform="translate(-173.748,682.907) rotate(-90)" v:mID="86" v:groupContext="group">
			<title>工作表.86</title>
			<g id="shape82-248" v:mID="82" v:groupContext="shape" transform="translate(0,-527.528)">
				<title>工作表.82</title>
				<path d="M0 719.52 L646.58 719.52" class="st5"/>
			</g>
			<g id="shape83-251" v:mID="83" v:groupContext="shape">
				<title>工作表.83</title>
				<path d="M0 719.52 L646.58 719.52" class="st5"/>
			</g>
			<g id="shape84-254" v:mID="84" v:groupContext="shape" transform="translate(-719.516,719.516) rotate(-90)">
				<title>工作表.84</title>
				<path d="M0 719.52 L527.53 719.52" class="st5"/>
			</g>
			<g id="shape85-257" v:mID="85" v:groupContext="shape" transform="translate(-72.9331,719.516) rotate(-90)">
				<title>工作表.85</title>
				<path d="M0 719.52 L527.53 719.52" class="st5"/>
			</g>
		</g>
	</g>
</svg>
