<?xml version="1.0" encoding="UTF-8" standalone="no"?>
<!DOCTYPE svg PUBLIC "-//W3C//DTD SVG 1.1//EN" "http://www.w3.org/Graphics/SVG/1.1/DTD/svg11.dtd">
<!-- 由 Microsoft Visio, SVG Export 產生 y13.0016-h.svg 頁-1 -->
<svg xmlns="http://www.w3.org/2000/svg" xmlns:xlink="http://www.w3.org/1999/xlink" xmlns:ev="http://www.w3.org/2001/xml-events"
		width="5.80648in" height="8.19231in" viewBox="0 0 418.067 589.846" xml:space="preserve" color-interpolation-filters="sRGB"
		class="st4">
	<style type="text/css">
	<![CDATA[
		.st1 {fill:none;stroke:none;stroke-linecap:round;stroke-linejoin:round;stroke-width:0.75}
		.st2 {fill:#000000;font-family:新細明體;font-size:1.33333em}
		.st3 {stroke:#000000;stroke-linecap:round;stroke-linejoin:round;stroke-width:0.24}
		.st4 {fill:none;fill-rule:evenodd;font-size:12px;overflow:visible;stroke-linecap:square;stroke-miterlimit:3}
	]]>
	</style>

	<g>
		<title>頁-1</title>
		<g id="group83-1" transform="translate(0.12,-0.12)">
			<title>工作表.83</title>
			<g id="shape1-2" transform="translate(5.95276,-557.008)">
				<title>工作表.1</title>
				<desc>法名</desc>
				<rect x="0" y="570.004" width="56.126" height="19.8425" class="st1"/>
				<text x="0.25em 2.258em" y="584.73" class="st2">法名</text>			</g>
			<g id="shape2-5" transform="translate(5.95276,-330.236)">
				<title>工作表.2</title>
				<desc>法淨</desc>
				<rect x="0" y="570.004" width="56.126" height="19.8425" class="st1"/>
				<text x="0.25em 2.258em" y="584.73" class="st2">法淨</text>			</g>
			<g id="shape3-8" transform="translate(5.95276,-284.882)">
				<title>工作表.3</title>
				<desc>法如</desc>
				<rect x="0" y="570.004" width="56.126" height="19.8425" class="st1"/>
				<text x="0.25em 2.258em" y="584.73" class="st2">法如</text>			</g>
			<g id="shape4-11" transform="translate(5.95276,-239.528)">
				<title>工作表.4</title>
				<desc>法普</desc>
				<rect x="0" y="570.004" width="56.126" height="19.8425" class="st1"/>
				<text x="0.25em 2.258em" y="584.73" class="st2">法普</text>			</g>
			<g id="shape5-14" transform="translate(5.95276,-148.819)">
				<title>工作表.5</title>
				<desc>法雨</desc>
				<rect x="0" y="570.004" width="56.126" height="19.8425" class="st1"/>
				<text x="0.25em 2.258em" y="584.73" class="st2">法雨</text>			</g>
			<g id="shape6-17" transform="translate(208.63,-330.236)">
				<title>工作表.6</title>
				<desc>大勇</desc>
				<rect x="0" y="570.004" width="56.126" height="19.8425" class="st1"/>
				<text x="0.25em 2.258em" y="584.73" class="st2">大勇</text>			</g>
			<g id="shape7-20" transform="translate(5.95276,-58.1102)">
				<title>工作表.7</title>
				<desc>法喜</desc>
				<rect x="0" y="570.004" width="56.126" height="19.8425" class="st1"/>
				<text x="0.25em 2.258em" y="584.73" class="st2">法喜</text>			</g>
			<g id="shape8-23" transform="translate(5.95276,-12.7559)">
				<title>工作表.8</title>
				<desc>法常</desc>
				<rect x="0" y="570.004" width="56.126" height="19.8425" class="st1"/>
				<text x="0.25em 2.258em" y="584.73" class="st2">法常</text>			</g>
			<g id="shape9-26" transform="translate(73.4173,-557.008)">
				<title>工作表.9</title>
				<desc>表字</desc>
				<rect x="0" y="570.004" width="56.126" height="19.8425" class="st1"/>
				<text x="0.25em 2.258em" y="584.73" class="st2">表字</text>			</g>
			<g id="shape10-29" transform="translate(-521.815,589.846) rotate(-90)">
				<title>工作表.10</title>
				<path d="M0 589.85 L589.61 589.85" class="st3"/>
			</g>
			<g id="shape11-32" transform="translate(417.827,590.086) rotate(180)">
				<title>工作表.11</title>
				<path d="M0 589.85 L417.54 589.85" class="st3"/>
			</g>
			<g id="shape12-35" transform="translate(73.4173,-511.654)">
				<title>工作表.12</title>
				<desc>恆演</desc>
				<rect x="0" y="570.004" width="56.126" height="19.8425" class="st1"/>
				<text x="0.25em 2.258em" y="584.73" class="st2">恆演</text>			</g>
			<g id="shape13-38" transform="translate(73.4173,-466.299)">
				<title>工作表.13</title>
				<desc>恆照</desc>
				<rect x="0" y="570.004" width="56.126" height="19.8425" class="st1"/>
				<text x="0.25em 2.258em" y="584.73" class="st2">恆照</text>			</g>
			<g id="shape14-41" transform="translate(73.4173,-420.945)">
				<title>工作表.14</title>
				<desc>恆明</desc>
				<rect x="0" y="570.004" width="56.126" height="19.8425" class="st1"/>
				<text x="0.25em 2.258em" y="584.73" class="st2">恆明</text>			</g>
			<g id="shape15-44" transform="translate(73.4173,-375.591)">
				<title>工作表.15</title>
				<desc>密吽</desc>
				<rect x="0" y="570.004" width="56.126" height="19.8425" class="st1"/>
				<text x="0.25em 2.258em" y="584.73" class="st2">密吽</text>			</g>
			<g id="shape16-47" transform="translate(73.4173,-330.236)">
				<title>工作表.16</title>
				<desc>密慧</desc>
				<rect x="0" y="570.004" width="56.126" height="19.8425" class="st1"/>
				<text x="0.25em 2.258em" y="584.73" class="st2">密慧</text>			</g>
			<g id="shape17-50" transform="translate(73.4173,-284.882)">
				<title>工作表.17</title>
				<desc>密嚴</desc>
				<rect x="0" y="570.004" width="56.126" height="19.8425" class="st1"/>
				<text x="0.25em 2.258em" y="584.73" class="st2">密嚴</text>			</g>
			<g id="shape18-53" transform="translate(73.4173,-239.528)">
				<title>工作表.18</title>
				<desc>密悟</desc>
				<rect x="0" y="570.004" width="56.126" height="19.8425" class="st1"/>
				<text x="0.25em 2.258em" y="584.73" class="st2">密悟</text>			</g>
			<g id="shape19-56" transform="translate(73.4173,-194.173)">
				<title>工作表.19</title>
				<desc>密圓</desc>
				<rect x="0" y="570.004" width="56.126" height="19.8425" class="st1"/>
				<text x="0.25em 2.258em" y="584.73" class="st2">密圓</text>			</g>
			<g id="shape20-59" transform="translate(73.4173,-148.819)">
				<title>工作表.20</title>
				<desc>廣潤</desc>
				<rect x="0" y="570.004" width="56.126" height="19.8425" class="st1"/>
				<text x="0.25em 2.258em" y="584.73" class="st2">廣潤</text>			</g>
			<g id="shape21-62" transform="translate(73.4173,-103.465)">
				<title>工作表.21</title>
				<desc>弘妙</desc>
				<rect x="0" y="570.004" width="56.126" height="19.8425" class="st1"/>
				<text x="0.25em 2.258em" y="584.73" class="st2">弘妙</text>			</g>
			<g id="shape22-65" transform="translate(208.63,-284.882)">
				<title>工作表.22</title>
				<desc>大勇</desc>
				<rect x="0" y="570.004" width="56.126" height="19.8425" class="st1"/>
				<text x="0.25em 2.258em" y="584.73" class="st2">大勇</text>			</g>
			<g id="shape23-68" transform="translate(208.63,-239.528)">
				<title>工作表.23</title>
				<desc>大勇</desc>
				<rect x="0" y="570.004" width="56.126" height="19.8425" class="st1"/>
				<text x="0.25em 2.258em" y="584.73" class="st2">大勇</text>			</g>
			<g id="shape25-71" transform="translate(-454.35,589.846) rotate(-90)">
				<title>工作表.25</title>
				<path d="M0 589.85 L589.61 589.85" class="st3"/>
			</g>
			<g id="shape26-74" transform="translate(-589.846,589.563) rotate(-89.9725)">
				<title>工作表.26</title>
				<path d="M0 589.85 L589.61 589.85" class="st3"/>
			</g>
			<g id="shape27-77" transform="translate(417.827,1179.69) rotate(180)">
				<title>工作表.27</title>
				<path d="M0 589.85 L417.54 589.85" class="st3"/>
			</g>
			<g id="shape28-80" transform="translate(208.63,-511.654)">
				<title>工作表.28</title>
				<desc>大慈</desc>
				<rect x="0" y="570.004" width="56.126" height="19.8425" class="st1"/>
				<text x="0.25em 2.258em" y="584.73" class="st2">大慈</text>			</g>
			<g id="shape38-83" transform="translate(-386.886,589.846) rotate(-90)">
				<title>工作表.38</title>
				<path d="M0 589.85 L589.61 589.85" class="st3"/>
			</g>
			<g id="shape39-86" transform="translate(141.165,-557.008)">
				<title>工作表.39</title>
				<desc>籍貫</desc>
				<rect x="0" y="570.004" width="56.126" height="19.8425" class="st1"/>
				<text x="0.25em 2.258em" y="584.73" class="st2">籍貫</text>			</g>
			<g id="shape40-89" transform="translate(208.63,-557.008)">
				<title>工作表.40</title>
				<desc>師長</desc>
				<rect x="0" y="570.004" width="56.126" height="19.8425" class="st1"/>
				<text x="0.25em 2.258em" y="584.73" class="st2">師長</text>			</g>
			<g id="shape41-92" transform="translate(276.094,-557.008)">
				<title>工作表.41</title>
				<desc>生卒情況</desc>
				<rect x="0" y="570.004" width="136.063" height="19.8425" class="st1"/>
				<text x="0.25em 2.585em 4.919em 7.254em" y="584.73" class="st2">生卒情況</text>			</g>
			<g id="shape42-95" transform="translate(-319.421,589.846) rotate(-90)">
				<title>工作表.42</title>
				<path d="M0 589.85 L589.61 589.85" class="st3"/>
			</g>
			<g id="shape44-98" transform="translate(-172.02,589.846) rotate(-90)">
				<title>工作表.44</title>
				<path d="M0 589.85 L589.61 589.85" class="st3"/>
			</g>
			<g id="shape45-101" transform="translate(141.165,-511.654)">
				<title>工作表.45</title>
				<desc>湖北</desc>
				<rect x="0" y="570.004" width="56.126" height="19.8425" class="st1"/>
				<text x="0.25em 2.258em" y="584.73" class="st2">湖北</text>			</g>
			<g id="shape46-104" transform="translate(141.165,-466.299)">
				<title>工作表.46</title>
				<desc>湖北</desc>
				<rect x="0" y="570.004" width="56.126" height="19.8425" class="st1"/>
				<text x="0.25em 2.258em" y="584.73" class="st2">湖北</text>			</g>
			<g id="shape47-107" transform="translate(141.165,-420.945)">
				<title>工作表.47</title>
				<desc>河北</desc>
				<rect x="0" y="570.004" width="56.126" height="19.8425" class="st1"/>
				<text x="0.25em 2.258em" y="584.73" class="st2">河北</text>			</g>
			<g id="shape48-110" transform="translate(141.165,-375.591)">
				<title>工作表.48</title>
				<desc>湖南</desc>
				<rect x="0" y="570.004" width="56.126" height="19.8425" class="st1"/>
				<text x="0.25em 2.258em" y="584.73" class="st2">湖南</text>			</g>
			<g id="shape49-113" transform="translate(141.165,-330.236)">
				<title>工作表.49</title>
				<desc>湖北</desc>
				<rect x="0" y="570.004" width="56.126" height="19.8425" class="st1"/>
				<text x="0.25em 2.258em" y="584.73" class="st2">湖北</text>			</g>
			<g id="shape50-116" transform="translate(141.165,-284.882)">
				<title>工作表.50</title>
				<desc>四川</desc>
				<rect x="0" y="570.004" width="56.126" height="19.8425" class="st1"/>
				<text x="0.25em 2.258em" y="584.73" class="st2">四川</text>			</g>
			<g id="shape51-119" transform="translate(141.165,-239.528)">
				<title>工作表.51</title>
				<desc>河北</desc>
				<rect x="0" y="570.004" width="56.126" height="19.8425" class="st1"/>
				<text x="0.25em 2.258em" y="584.73" class="st2">河北</text>			</g>
			<g id="shape52-122" transform="translate(208.63,-420.945)">
				<title>工作表.52</title>
				<desc>大慈</desc>
				<rect x="0" y="570.004" width="56.126" height="19.8425" class="st1"/>
				<text x="0.25em 2.258em" y="584.73" class="st2">大慈</text>			</g>
			<g id="shape53-125" transform="translate(208.63,-375.591)">
				<title>工作表.53</title>
				<desc>大勇</desc>
				<rect x="0" y="570.004" width="56.126" height="19.8425" class="st1"/>
				<text x="0.25em 2.258em" y="584.73" class="st2">大勇</text>			</g>
			<g id="shape54-128" transform="translate(141.165,-103.465)">
				<title>工作表.54</title>
				<desc>湖北</desc>
				<rect x="0" y="570.004" width="56.126" height="19.8425" class="st1"/>
				<text x="0.25em 2.258em" y="584.73" class="st2">湖北</text>			</g>
			<g id="shape55-131" transform="translate(141.165,-58.1102)">
				<title>工作表.55</title>
				<desc>江西</desc>
				<rect x="0" y="570.004" width="56.126" height="19.8425" class="st1"/>
				<text x="0.25em 2.258em" y="584.73" class="st2">江西</text>			</g>
			<g id="shape56-134" transform="translate(141.165,-12.7559)">
				<title>工作表.56</title>
				<desc>江西</desc>
				<rect x="0" y="570.004" width="56.126" height="19.8425" class="st1"/>
				<text x="0.25em 2.258em" y="584.73" class="st2">江西</text>			</g>
			<g id="shape81-137" transform="translate(417.827,635.441) rotate(180)">
				<title>工作表.81</title>
				<path d="M0 589.85 L417.54 589.85" class="st3"/>
			</g>
			<g id="shape37-140" transform="translate(5.95276,-511.654)">
				<title>工作表.37</title>
				<desc>法宗</desc>
				<rect x="0" y="570.004" width="56.126" height="19.8425" class="st1"/>
				<text x="0.25em 2.258em" y="584.73" class="st2">法宗</text>			</g>
			<g id="shape57-143" transform="translate(5.95276,-466.299)">
				<title>工作表.57</title>
				<desc>法旭</desc>
				<rect x="0" y="570.004" width="56.126" height="19.8425" class="st1"/>
				<text x="0.25em 2.258em" y="584.73" class="st2">法旭</text>			</g>
			<g id="shape67-146" transform="translate(208.63,-466.299)">
				<title>工作表.67</title>
				<desc>大慈</desc>
				<rect x="0" y="570.004" width="56.126" height="19.8425" class="st1"/>
				<text x="0.25em 2.258em" y="584.73" class="st2">大慈</text>			</g>
			<g id="shape80-149" transform="translate(5.95276,-375.591)">
				<title>工作表.80</title>
				<desc>法光</desc>
				<rect x="0" y="570.004" width="56.126" height="19.8425" class="st1"/>
				<text x="0.25em 2.258em" y="584.73" class="st2">法光</text>			</g>
			<g id="shape82-152" transform="translate(5.95276,-194.173)">
				<title>工作表.82</title>
				<desc>法輪</desc>
				<rect x="0" y="570.004" width="56.126" height="19.8425" class="st1"/>
				<text x="0.25em 2.258em" y="584.73" class="st2">法輪</text>			</g>
			<g id="shape29-155" transform="translate(208.63,-194.173)">
				<title>工作表.29</title>
				<desc>大勇</desc>
				<rect x="0" y="570.004" width="56.126" height="19.8425" class="st1"/>
				<text x="0.25em 2.258em" y="584.73" class="st2">大勇</text>			</g>
			<g id="shape30-158" transform="translate(208.63,-103.465)">
				<title>工作表.30</title>
				<desc>大敬</desc>
				<rect x="0" y="570.004" width="56.126" height="19.8425" class="st1"/>
				<text x="0.25em 2.258em" y="584.73" class="st2">大敬</text>			</g>
			<g id="shape31-161" transform="translate(276.094,-511.654)">
				<title>工作表.31</title>
				<desc>留學拉薩得格西位</desc>
				<rect x="0" y="570.004" width="136.063" height="19.8425" class="st1"/>
				<text x="4" y="584.73" class="st2">留學拉薩得格西位</text>			</g>
			<g id="shape32-164" transform="translate(276.094,-239.528)">
				<title>工作表.32</title>
				<desc>留學拉薩得格西位</desc>
				<rect x="0" y="570.004" width="136.063" height="19.8425" class="st1"/>
				<text x="4" y="584.73" class="st2">留學拉薩得格西位</text>			</g>
			<g id="shape33-167" transform="translate(276.094,-422.929)">
				<title>工作表.33</title>
				<desc>二十二年返俗</desc>
				<rect x="0" y="570.004" width="136.063" height="19.8425" class="st1"/>
				<text x="4" y="584.73" class="st2">二十二年返俗</text>			</g>
			<g id="shape34-170" transform="translate(276.945,-466.299)">
				<title>工作表.34</title>
				<desc>二十四年卒</desc>
				<rect x="0" y="570.004" width="136.063" height="19.8425" class="st1"/>
				<text x="4" y="584.73" class="st2">二十四年卒</text>			</g>
			<g id="shape35-173" transform="translate(276.094,-375.591)">
				<title>工作表.35</title>
				<desc>二十四年返俗</desc>
				<rect x="0" y="570.004" width="136.063" height="19.8425" class="st1"/>
				<text x="4" y="584.73" class="st2">二十四年返俗</text>			</g>
			<g id="shape36-176" transform="translate(276.094,-330.236)">
				<title>工作表.36</title>
				<desc>拉薩學法</desc>
				<rect x="0" y="570.004" width="136.063" height="19.8425" class="st1"/>
				<text x="4" y="584.73" class="st2">拉薩學法</text>			</g>
			<g id="shape43-179" transform="translate(276.094,-284.882)">
				<title>工作表.43</title>
				<desc>二十六年返俗</desc>
				<rect x="0" y="570.004" width="136.063" height="19.8425" class="st1"/>
				<text x="4" y="584.73" class="st2">二十六年返俗</text>			</g>
			<g id="shape58-182" transform="translate(276.094,-103.465)">
				<title>工作表.58</title>
				<desc>杭州靈隱寺退居</desc>
				<rect x="0" y="570.004" width="136.063" height="19.8425" class="st1"/>
				<text x="4" y="584.73" class="st2">杭州靈隱寺退居</text>			</g>
			<g id="shape59-185" transform="translate(276.094,-58.1102)">
				<title>工作表.59</title>
				<desc>湖南培元寺住持</desc>
				<rect x="0" y="570.004" width="136.063" height="19.8425" class="st1"/>
				<text x="4" y="584.73" class="st2">湖南培元寺住持</text>			</g>
			<g id="shape60-188" transform="translate(276.094,-12.7559)">
				<title>工作表.60</title>
				<desc>湖南羅漢寺僧職</desc>
				<rect x="0" y="570.004" width="136.063" height="19.8425" class="st1"/>
				<text x="4" y="584.73" class="st2">湖南羅漢寺僧職</text>			</g>
		</g>
	</g>
</svg>
