<?xml version="1.0" encoding="UTF-8" standalone="no"?>
<!DOCTYPE svg PUBLIC "-//W3C//DTD SVG 1.1//EN" "http://www.w3.org/Graphics/SVG/1.1/DTD/svg11.dtd">
<!-- 由 Microsoft Visio, SVG Export 產生 y13.0296-h.svg 頁-1 -->
<svg xmlns="http://www.w3.org/2000/svg" xmlns:xlink="http://www.w3.org/1999/xlink" xmlns:ev="http://www.w3.org/2001/xml-events"
		width="5.53898in" height="6.1911in" viewBox="0 0 398.807 445.759" xml:space="preserve" color-interpolation-filters="sRGB"
		class="st5">
	<title>y13.0296</title>

	<style type="text/css">
	<![CDATA[
		.st1 {fill:none;stroke:none;stroke-linecap:round;stroke-linejoin:round;stroke-width:0.72}
		.st2 {fill:#000000;font-family:新細明體;font-size:1.33333em}
		.st3 {font-family:細明體;font-size:1em}
		.st4 {stroke:#000000;stroke-linecap:round;stroke-linejoin:round;stroke-width:0.72}
		.st5 {fill:none;fill-rule:evenodd;font-size:12px;overflow:visible;stroke-linecap:square;stroke-miterlimit:3}
	]]>
	</style>

	<g>
		<title>頁-1</title>
		<g id="group68-1" transform="translate(0.36,-0.36)">
			<title>工作表.68</title>
			<g id="shape1-2" transform="translate(38.622,-311.811)">
				<title>工作表.1</title>
				<desc>印度小乘學派──錫蘭等屬此</desc>
				<rect x="0" y="425.917" width="219.858" height="19.8425" class="st1"/>
				<text x="5.93" y="440.64" class="st2">印度小乘學派──錫蘭等屬此</text>			</g>
			<g id="shape2-5" transform="translate(38.622,-283.465)">
				<title>工作表.2</title>
				<desc>印度大乘學派──西藏等屬此</desc>
				<rect x="0" y="425.917" width="219.858" height="19.8425" class="st1"/>
				<text x="5.93" y="440.64" class="st2">印度大乘學派──西藏等屬此</text>			</g>
			<g id="shape3-8" transform="translate(38.622,-255.118)">
				<title>工作表.3</title>
				<desc>中國綜合學派──日本等屬此</desc>
				<rect x="0" y="425.917" width="219.858" height="19.8425" class="st1"/>
				<text x="5.93" y="440.64" class="st2">中國綜合學派──日本等屬此</text>			</g>
			<g id="shape4-11" transform="translate(38.622,-226.772)">
				<title>工作表.4</title>
				<desc>歐美新研究派　　　　　　　</desc>
				<rect x="0" y="425.917" width="219.858" height="19.8425" class="st1"/>
				<text x="5.93" y="440.64" class="st2">歐美新研究派</text>			</g>
			<g id="shape5-14" transform="translate(38.8976,-170.079)">
				<title>工作表.5</title>
				<desc>禪觀──大小乘各種止觀以及禪宗</desc>
				<rect x="0" y="425.917" width="251.661" height="19.8425" class="st1"/>
				<text x="5.83" y="440.64" class="st2">禪觀──大小乘各種止觀以及禪宗</text>			</g>
			<g id="shape6-17" transform="translate(38.8976,-198.425)">
				<title>工作表.6</title>
				<desc>戒律──通菩薩戒別七眾戒　　　</desc>
				<rect x="0" y="425.917" width="251.661" height="19.8425" class="st1"/>
				<text x="5.83" y="440.64" class="st2">戒律──通菩薩戒別七眾戒</text>			</g>
			<g id="shape7-20" transform="translate(38.8976,-141.732)">
				<title>工作表.7</title>
				<desc>真言──一印明以及無量印明等　</desc>
				<rect x="0" y="425.917" width="251.661" height="19.8425" class="st1"/>
				<text x="5.83" y="440.64" class="st2">真言──一印明以及無量印明等</text>			</g>
			<g id="shape8-23" transform="translate(38.8976,-113.386)">
				<title>工作表.8</title>
				<desc>淨土──極樂淨土或兜率淨土等　</desc>
				<rect x="0" y="425.917" width="251.661" height="19.8425" class="st1"/>
				<text x="5.83" y="440.64" class="st2">淨土──極樂淨土或兜率淨土等</text>			</g>
			<g id="shape9-26" transform="translate(38.622,-425.197)">
				<title>工作表.9</title>
				<desc>佛教法物之蒐集</desc>
				<rect x="0" y="425.917" width="122.772" height="19.8425" class="st1"/>
				<text x="5.39" y="440.82" class="st2">佛教法物之蒐集</text>			</g>
			<g id="shape10-29" transform="translate(38.622,-396.85)">
				<title>工作表.10</title>
				<desc>佛教史材之編考</desc>
				<rect x="0" y="425.917" width="122.772" height="19.8425" class="st1"/>
				<text x="5.39" y="440.82" class="st2">佛教史材之編考</text>			</g>
			<g id="shape11-32" transform="translate(38.622,-368.504)">
				<title>工作表.11</title>
				<desc>佛教經典之考訂</desc>
				<rect x="0" y="425.917" width="122.772" height="19.8425" class="st1"/>
				<text x="5.39" y="440.82" class="st2">佛教經典之考訂</text>			</g>
			<g id="shape12-35" transform="translate(38.622,-340.157)">
				<title>工作表.12</title>
				<desc>佛教圖書之纂輯</desc>
				<rect x="0" y="425.917" width="122.772" height="19.8425" class="st1"/>
				<text x="5.39" y="440.82" class="st2">佛教圖書之纂輯</text>			</g>
			<g id="shape13-38" transform="translate(167.598,-396.85)">
				<title>工作表.13</title>
				<desc>錫蘭暹羅緬甸等　</desc>
				<rect x="0" y="425.917" width="137.654" height="19.8425" class="st1"/>
				<text x="4.83" y="440.82" class="st2">錫蘭暹羅緬甸等</text>			</g>
			<g id="shape14-41" transform="translate(167.598,-425.197)">
				<title>工作表.14</title>
				<desc>印度波斯爪哇等　</desc>
				<rect x="0" y="425.917" width="137.654" height="19.8425" class="st1"/>
				<text x="4.83" y="440.82" class="st2">印度波斯爪哇等</text>			</g>
			<g id="shape15-44" transform="translate(167.598,-368.504)">
				<title>工作表.15</title>
				<desc>中國日本朝鮮等　</desc>
				<rect x="0" y="425.917" width="137.654" height="19.8425" class="st1"/>
				<text x="4.83" y="440.82" class="st2">中國日本朝鮮等</text>			</g>
			<g id="shape16-47" transform="translate(167.598,-340.157)">
				<title>工作表.16</title>
				<desc>西藏尼泊爾蒙古等</desc>
				<rect x="0" y="425.917" width="137.654" height="19.8425" class="st1"/>
				<text x="4.83" y="440.82" class="st2">西藏尼泊爾蒙古等</text>			</g>
			<g id="shape17-50" transform="translate(39.063,-85.0394)">
				<title>工作表.17</title>
				<desc>信果──研究教理及諸行共果</desc>
				<rect x="0" y="425.917" width="218.268" height="19.8425" class="st1"/>
				<text x="5.13" y="440.64" class="st2">信果──研究教理及諸行共果</text>			</g>
			<g id="shape18-53" transform="translate(39.063,-56.6929)">
				<title>工作表.18</title>
				<desc>德果──受持戒律及諸行共果</desc>
				<rect x="0" y="425.917" width="218.268" height="19.8425" class="st1"/>
				<text x="5.13" y="440.64" class="st2">德果──受持戒律及諸行共果</text>			</g>
			<g id="shape19-56" transform="translate(39.063,-28.3465)">
				<title>工作表.19</title>
				<desc>定果──修習禪觀及諸行共果</desc>
				<rect x="0" y="425.917" width="218.268" height="19.8425" class="st1"/>
				<text x="5.13" y="440.64" class="st2">定果──修習禪觀及諸行共果</text>			</g>
			<g id="shape20-59" transform="translate(39.063,5.68434E-14)">
				<title>工作表.20</title>
				<desc>慧果──修勝禪觀及諸行共果</desc>
				<rect x="0" y="425.917" width="218.268" height="19.8425" class="st1"/>
				<text x="5.13" y="440.64" class="st2">慧果──修勝禪觀及諸行共果</text>			</g>
			<g id="shape21-62" transform="translate(310.039,-6.82121E-13)">
				<title>工作表.21</title>
				<desc>聖眾……佛</desc>
				<rect x="0" y="425.917" width="88.0472" height="19.8425" class="st1"/>
				<text x="4.02" y="440.64" class="st2">聖眾<tspan class="st3">……</tspan><tspan class="st3">佛</tspan></text>			</g>
			<g id="shape22-67" transform="translate(310.039,-28.3465)">
				<title>工作表.22</title>
				<desc>賢眾　　　</desc>
				<rect x="0" y="425.917" width="88.0472" height="19.8425" class="st1"/>
				<text x="4.02" y="440.64" class="st2">賢眾</text>			</g>
			<g id="shape23-70" transform="translate(310.039,-56.6929)">
				<title>工作表.23</title>
				<desc>僧眾　　　</desc>
				<rect x="0" y="425.917" width="88.0472" height="19.8425" class="st1"/>
				<text x="4.02" y="440.64" class="st2">僧眾</text>			</g>
			<g id="shape24-73" transform="translate(310.039,-85.0394)">
				<title>工作表.24</title>
				<desc>信眾　　　</desc>
				<rect x="0" y="425.917" width="88.0472" height="19.8425" class="st1"/>
				<text x="4.02" y="440.64" class="st2">信眾</text>			</g>
			<g id="shape25-76" transform="translate(252.602,-94.9606)">
				<title>工作表.25</title>
				<path d="M0 445.76 L56.69 445.76" class="st4"/>
			</g>
			<g id="shape26-79" transform="translate(252.602,-66.6142)">
				<title>工作表.26</title>
				<path d="M0 445.76 L56.69 445.76" class="st4"/>
			</g>
			<g id="shape27-82" transform="translate(252.602,-38.2677)">
				<title>工作表.27</title>
				<path d="M0 445.76 L56.69 445.76" class="st4"/>
			</g>
			<g id="shape28-85" transform="translate(252.602,-9.92126)">
				<title>工作表.28</title>
				<path d="M0 445.76 L56.69 445.76" class="st4"/>
			</g>
			<g id="shape29-88" transform="translate(451.952,-47.9006) rotate(26.5651)">
				<title>工作表.29</title>
				<path d="M0 445.76 L63.38 445.76" class="st4"/>
			</g>
			<g id="shape30-91" transform="translate(567.802,35.5993) rotate(45)">
				<title>工作表.30</title>
				<path d="M0 445.76 L80.18 445.76" class="st4"/>
			</g>
			<g id="shape31-94" transform="translate(53.2527,8.79235) rotate(-26.5651)">
				<title>工作表.31</title>
				<path d="M0 445.76 L63.38 445.76" class="st4"/>
			</g>
			<g id="shape32-97" transform="translate(451.952,-19.5541) rotate(26.5651)">
				<title>工作表.32</title>
				<path d="M0 445.76 L63.38 445.76" class="st4"/>
			</g>
			<g id="shape33-100" transform="translate(567.802,63.9457) rotate(45)">
				<title>工作表.33</title>
				<path d="M0 445.76 L80.18 445.76" class="st4"/>
			</g>
			<g id="shape34-103" transform="translate(451.952,8.79235) rotate(26.5651)">
				<title>工作表.34</title>
				<path d="M0 445.76 L63.38 445.76" class="st4"/>
			</g>
			<g id="shape35-106" transform="translate(156.224,-435.118)">
				<title>工作表.35</title>
				<path d="M0 445.76 L2.83 445.76" class="st4"/>
			</g>
			<g id="shape36-109" transform="translate(156.224,-350.079)">
				<title>工作表.36</title>
				<path d="M0 445.76 L2.83 445.76" class="st4"/>
			</g>
			<g id="shape37-112" transform="translate(167.563,-350.079)">
				<title>工作表.37</title>
				<path d="M0 445.76 L2.83 445.76" class="st4"/>
			</g>
			<g id="shape38-115" transform="translate(167.563,-435.118)">
				<title>工作表.38</title>
				<path d="M0 445.76 L2.83 445.76" class="st4"/>
			</g>
			<g id="shape39-118" transform="translate(159.059,-392.598)">
				<title>工作表.39</title>
				<path d="M0 445.76 L2.83 445.76" class="st4"/>
			</g>
			<g id="shape40-121" transform="translate(-286.7,95.6806) rotate(-90)">
				<title>工作表.40</title>
				<path d="M0 445.76 L85.04 445.76" class="st4"/>
			</g>
			<g id="shape41-124" transform="translate(164.728,-392.598)">
				<title>工作表.41</title>
				<path d="M0 445.76 L2.83 445.76" class="st4"/>
			</g>
			<g id="shape42-127" transform="translate(-278.196,95.6806) rotate(-90)">
				<title>工作表.42</title>
				<path d="M0 445.76 L85.04 445.76" class="st4"/>
			</g>
			<g id="shape48-130" transform="translate(0,-382.366)">
				<title>工作表.48</title>
				<desc>教　</desc>
				<rect x="0" y="425.917" width="40.5669" height="19.8425" class="st1"/>
				<text x="4.28" y="440.82" class="st2">教</text>			</g>
			<g id="shape49-133" transform="translate(2.8777E-13,-268.98)">
				<title>工作表.49</title>
				<desc>理　</desc>
				<rect x="0" y="425.917" width="40.5669" height="19.8425" class="st1"/>
				<text x="4.28" y="440.82" class="st2">理</text>			</g>
			<g id="shape50-136" transform="translate(6.71463E-13,-155.594)">
				<title>工作表.50</title>
				<desc>行　</desc>
				<rect x="0" y="425.917" width="40.5669" height="19.8425" class="st1"/>
				<text x="4.28" y="440.82" class="st2">行</text>			</g>
			<g id="shape51-139" transform="translate(1.05116E-12,-42.2087)">
				<title>工作表.51</title>
				<desc>果　</desc>
				<rect x="0" y="425.917" width="40.5669" height="19.8425" class="st1"/>
				<text x="4.28" y="440.82" class="st2">果</text>			</g>
			<g id="shape52-142" transform="translate(25.8307,-52.1299)">
				<title>工作表.52</title>
				<path d="M0 445.76 L7.09 445.76" class="st4"/>
			</g>
			<g id="shape53-145" transform="translate(25.8307,-165.516)">
				<title>工作表.53</title>
				<path d="M0 445.76 L7.09 445.76" class="st4"/>
			</g>
			<g id="shape54-148" transform="translate(25.8307,-278.902)">
				<title>工作表.54</title>
				<path d="M0 445.76 L7.09 445.76" class="st4"/>
			</g>
			<g id="shape55-151" transform="translate(25.8307,-392.287)">
				<title>工作表.55</title>
				<path d="M0 445.76 L7.09 445.76" class="st4"/>
			</g>
			<g id="shape56-154" transform="translate(32.9173,-9.61024)">
				<title>工作表.56</title>
				<path d="M0 445.76 L7.09 445.76" class="st4"/>
			</g>
			<g id="shape57-157" transform="translate(32.9173,-94.6496)">
				<title>工作表.57</title>
				<path d="M0 445.76 L7.09 445.76" class="st4"/>
			</g>
			<g id="shape58-160" transform="translate(32.9173,-122.996)">
				<title>工作表.58</title>
				<path d="M0 445.76 L7.09 445.76" class="st4"/>
			</g>
			<g id="shape59-163" transform="translate(32.9173,-208.035)">
				<title>工作表.59</title>
				<path d="M0 445.76 L7.09 445.76" class="st4"/>
			</g>
			<g id="shape60-166" transform="translate(32.9173,-236.382)">
				<title>工作表.60</title>
				<path d="M0 445.76 L7.09 445.76" class="st4"/>
			</g>
			<g id="shape61-169" transform="translate(32.9173,-321.421)">
				<title>工作表.61</title>
				<path d="M0 445.76 L7.09 445.76" class="st4"/>
			</g>
			<g id="shape62-172" transform="translate(32.9173,-349.768)">
				<title>工作表.62</title>
				<path d="M0 445.76 L7.09 445.76" class="st4"/>
			</g>
			<g id="shape63-175" transform="translate(32.9173,-434.807)">
				<title>工作表.63</title>
				<path d="M0 445.76 L7.09 445.76" class="st4"/>
			</g>
			<g id="shape64-178" transform="translate(-412.842,95.9917) rotate(-90)">
				<title>工作表.64</title>
				<path d="M0 445.76 L85.04 445.76" class="st4"/>
			</g>
			<g id="shape65-181" transform="translate(-412.842,209.377) rotate(-90)">
				<title>工作表.65</title>
				<path d="M0 445.76 L85.04 445.76" class="st4"/>
			</g>
			<g id="shape66-184" transform="translate(-412.842,322.763) rotate(-90)">
				<title>工作表.66</title>
				<path d="M0 445.76 L85.04 445.76" class="st4"/>
			</g>
			<g id="shape67-187" transform="translate(-412.842,436.149) rotate(-90)">
				<title>工作表.67</title>
				<path d="M0 445.76 L85.04 445.76" class="st4"/>
			</g>
		</g>
	</g>
</svg>
