<?xml version="1.0" encoding="UTF-8" standalone="no"?>
<!DOCTYPE svg PUBLIC "-//W3C//DTD SVG 1.0//EN" "http://www.w3.org/TR/2001/REC-SVG-20010904/DTD/svg10.dtd">
<!-- 由 Microsoft Visio 11.0, SVG Export, v1.0 產生 y13.0191.svg Page-1 -->
<svg xmlns="http://www.w3.org/2000/svg" xmlns:xlink="http://www.w3.org/1999/xlink" xmlns:ev="http://www.w3.org/2001/xml-events"
		xmlns:v="http://schemas.microsoft.com/visio/2003/SVGExtensions/" width="5.83737in" height="4.37827in"
		viewBox="0 0 420.29 315.235" xml:space="preserve" color-interpolation-filters="sRGB" class="st6">
	<title>y13.0191</title>
	<v:documentProperties v:langID="1028" v:metric="true" v:viewMarkup="false"/>

	<style type="text/css">
	<![CDATA[
		.st1 {fill:none;stroke:none;stroke-linecap:round;stroke-linejoin:round;stroke-width:0.72}
		.st2 {fill:#000000;font-family:新細明體;font-size:1.33333em}
		.st3 {font-family:細明體;font-size:1em}
		.st4 {fill:#000000;font-family:細明體;font-size:1.33333em}
		.st5 {stroke:#000000;stroke-linecap:round;stroke-linejoin:round;stroke-width:0.72}
		.st6 {fill:none;fill-rule:evenodd;font-size:12px;overflow:visible;stroke-linecap:square;stroke-miterlimit:3}
	]]>
	</style>

	<g v:mID="0" v:index="1" v:groupContext="foregroundPage">
		<title>Page-1</title>
		<v:pageProperties v:drawingScale="0.0393701" v:pageScale="0.0393701" v:drawingUnits="24" v:shadowOffsetX="8.50394"
				v:shadowOffsetY="-8.50394"/>
		<g id="shape1-1" v:mID="1" v:groupContext="shape" transform="translate(18.72,-162.102)">
			<title>工作表.1</title>
			<desc>人間兩般文化</desc>
			<v:textBlock v:margins="rect(4,4,4,4)" v:tabSpace="42.5197"/>
			<v:textRect cx="54.2992" cy="263.027" width="108.6" height="104.417"/>
			<rect x="0" y="210.818" width="108.598" height="104.417" class="st1"/>
			<text x="6.3" y="268.01" class="st2" v:langID="1028"><v:paragraph v:horizAlign="1"/><v:tabList/>人間兩般文化</text>		</g>
		<g id="shape2-4" v:mID="2" v:groupContext="shape" transform="translate(18.72,-20.3696)">
			<title>工作表.2</title>
			<desc>人間兩般文化</desc>
			<v:textBlock v:margins="rect(4,4,4,4)" v:tabSpace="42.5197"/>
			<v:textRect cx="54.2992" cy="263.027" width="108.6" height="104.417"/>
			<rect x="0" y="210.818" width="108.598" height="104.417" class="st1"/>
			<text x="6.3" y="268.01" class="st2" v:langID="1028"><v:paragraph v:horizAlign="1"/><v:tabList/>人間兩般文化</text>		</g>
		<g id="shape3-7" v:mID="3" v:groupContext="shape" transform="translate(185.169,-273.838)">
			<title>工作表.3</title>
			<desc>理智上是離言契性的</desc>
			<v:textBlock v:margins="rect(4,4,4,4)" v:tabSpace="42.5197"/>
			<v:textRect cx="76" cy="303.897" width="152" height="22.6772"/>
			<rect x="0" y="292.558" width="152" height="22.6772" class="st1"/>
			<text x="4" y="308.88" class="st2" v:langID="1028"><v:paragraph v:horizAlign="1"/><v:tabList/>理智上是離言契性的</text>		</g>
		<g id="shape4-10" v:mID="4" v:groupContext="shape" transform="translate(185.169,-122.771)">
			<title>工作表.4</title>
			<desc>理智上是藉相求知的</desc>
			<v:textBlock v:margins="rect(4,4,4,4)" v:tabSpace="42.5197"/>
			<v:textRect cx="76" cy="237.869" width="152" height="154.732"/>
			<rect x="0" y="160.503" width="152" height="154.732" class="st1"/>
			<text x="4" y="242.85" class="st2" v:langID="1028"><v:paragraph v:horizAlign="1"/><v:tabList/>理智上是藉相求知的</text>		</g>
		<g id="shape5-13" v:mID="5" v:groupContext="shape" transform="translate(185.169,-245.492)">
			<title>工作表.5</title>
			<desc>行為上是克己崇仁的</desc>
			<v:textBlock v:margins="rect(4,4,4,4)" v:tabSpace="42.5197"/>
			<v:textRect cx="76" cy="303.897" width="152" height="22.6772"/>
			<rect x="0" y="292.558" width="152" height="22.6772" class="st1"/>
			<text x="4" y="308.88" class="st2" v:langID="1028"><v:paragraph v:horizAlign="1"/><v:tabList/>行為上是克己崇仁的</text>		</g>
		<g id="shape6-16" v:mID="6" v:groupContext="shape" transform="translate(185.169,-94.4247)">
			<title>工作表.6</title>
			<desc>行為上是縱我制物的</desc>
			<v:textBlock v:margins="rect(4,4,4,4)" v:tabSpace="42.5197"/>
			<v:textRect cx="76" cy="237.869" width="152" height="154.732"/>
			<rect x="0" y="160.503" width="152" height="154.732" class="st1"/>
			<text x="4" y="242.85" class="st2" v:langID="1028"><v:paragraph v:horizAlign="1"/><v:tabList/>行為上是縱我制物的</text>		</g>
		<g id="shape7-19" v:mID="7" v:groupContext="shape" transform="translate(185.169,-217.145)">
			<title>工作表.7</title>
			<desc>信向上是融跡同本的</desc>
			<v:textBlock v:margins="rect(4,4,4,4)" v:tabSpace="42.5197"/>
			<v:textRect cx="76" cy="303.897" width="152" height="22.6772"/>
			<rect x="0" y="292.558" width="152" height="22.6772" class="st1"/>
			<text x="4" y="308.88" class="st2" v:langID="1028"><v:paragraph v:horizAlign="1"/><v:tabList/>信向上是融跡同本的</text>		</g>
		<g id="shape8-22" v:mID="8" v:groupContext="shape" transform="translate(185.169,-66.0783)">
			<title>工作表.8</title>
			<desc>信向上是取形棄神的</desc>
			<v:textBlock v:margins="rect(4,4,4,4)" v:tabSpace="42.5197"/>
			<v:textRect cx="76" cy="237.869" width="152" height="154.732"/>
			<rect x="0" y="160.503" width="152" height="154.732" class="st1"/>
			<text x="4" y="242.85" class="st2" v:langID="1028"><v:paragraph v:horizAlign="1"/><v:tabList/>信向上是取形棄神的</text>		</g>
		<g id="shape9-25" v:mID="9" v:groupContext="shape" transform="translate(184.547,-103.759)">
			<title>工作表.9</title>
			<desc>甲……實事……善體……存性</desc>
			<v:textBlock v:margins="rect(4,4,4,4)" v:tabSpace="42.5197"/>
			<v:textRect cx="108.512" cy="303.897" width="217.03" height="22.6772"/>
			<rect x="0" y="292.558" width="217.024" height="22.6772" class="st1"/>
			<text x="4.51" y="308.7" class="st2" v:langID="1028"><v:paragraph v:horizAlign="1"/><v:tabList/>甲<tspan class="st3">……</tspan><tspan
						class="st3">實事</tspan><tspan class="st3">……</tspan><tspan class="st3">善體</tspan><tspan class="st3">……</tspan><tspan
						class="st3">存性</tspan></text>		</g>
		<g id="shape10-34" v:mID="10" v:groupContext="shape" transform="translate(184.547,-47.0665)">
			<title>工作表.10</title>
			<desc>甲……妖怪……茍惰……沈迷</desc>
			<v:textBlock v:margins="rect(4,4,4,4)" v:tabSpace="42.5197"/>
			<v:textRect cx="108.512" cy="303.897" width="217.03" height="22.6772"/>
			<rect x="0" y="292.558" width="217.024" height="22.6772" class="st1"/>
			<text x="4.51" y="308.7" class="st2" v:langID="1028"><v:paragraph v:horizAlign="1"/><v:tabList/>甲<tspan class="st3">……</tspan><tspan
						class="st3">妖怪</tspan><tspan class="st3">……</tspan><tspan class="st3">茍惰</tspan><tspan class="st3">……</tspan><tspan
						class="st3">沈迷</tspan></text>		</g>
		<g id="shape11-43" v:mID="11" v:groupContext="shape" transform="translate(184.547,-75.4129)">
			<title>工作表.11</title>
			<desc>乙……虛利……利用……厚生</desc>
			<v:textBlock v:margins="rect(4,4,4,4)" v:tabSpace="42.5197"/>
			<v:textRect cx="108.512" cy="303.897" width="217.03" height="22.6772"/>
			<rect x="0" y="292.558" width="217.024" height="22.6772" class="st1"/>
			<text x="4.51" y="308.7" class="st4" v:langID="1028"><v:paragraph v:horizAlign="1"/><v:tabList/>乙……虛利……利用……厚生</text>		</g>
		<g id="shape12-46" v:mID="12" v:groupContext="shape" transform="translate(184.547,-18.72)">
			<title>工作表.12</title>
			<desc>乙……封蔽……奮鬥……失望</desc>
			<v:textBlock v:margins="rect(4,4,4,4)" v:tabSpace="42.5197"/>
			<v:textRect cx="108.512" cy="303.897" width="217.03" height="22.6772"/>
			<rect x="0" y="292.558" width="217.024" height="22.6772" class="st1"/>
			<text x="4.51" y="308.7" class="st4" v:langID="1028"><v:paragraph v:horizAlign="1"/><v:tabList/>乙……封蔽……奮鬥……失望</text>		</g>
		<g id="shape13-49" v:mID="13" v:groupContext="shape" transform="translate(140.255,-235.448)">
			<title>工作表.13</title>
			<desc>甲　</desc>
			<v:textBlock v:margins="rect(4,4,4,4)" v:tabSpace="42.5197"/>
			<v:textRect cx="22.4094" cy="293.853" width="44.82" height="42.7638"/>
			<rect x="0" y="272.471" width="44.8189" height="42.7638" class="st1"/>
			<text x="6.41" y="298.84" class="st2" v:langID="1028"><v:paragraph v:horizAlign="1"/><v:tabList/>甲　</text>		</g>
		<g id="shape14-52" v:mID="14" v:groupContext="shape" transform="translate(140.255,-150.409)">
			<title>工作表.14</title>
			<desc>乙　</desc>
			<v:textBlock v:margins="rect(4,4,4,4)" v:tabSpace="42.5197"/>
			<v:textRect cx="22.4094" cy="293.853" width="44.82" height="42.7638"/>
			<rect x="0" y="272.471" width="44.8189" height="42.7638" class="st1"/>
			<text x="6.41" y="298.84" class="st2" v:langID="1028"><v:paragraph v:horizAlign="1"/><v:tabList/>乙　</text>		</g>
		<g id="shape15-55" v:mID="15" v:groupContext="shape" transform="translate(140.255,-79.5428)">
			<title>工作表.15</title>
			<desc>利　</desc>
			<v:textBlock v:margins="rect(4,4,4,4)" v:tabSpace="42.5197"/>
			<v:textRect cx="22.4094" cy="293.853" width="44.82" height="42.7638"/>
			<rect x="0" y="272.471" width="44.8189" height="42.7638" class="st1"/>
			<text x="6.41" y="298.84" class="st2" v:langID="1028"><v:paragraph v:horizAlign="1"/><v:tabList/>利　</text>		</g>
		<g id="shape16-58" v:mID="16" v:groupContext="shape" transform="translate(140.255,-22.8499)">
			<title>工作表.16</title>
			<desc>弊　</desc>
			<v:textBlock v:margins="rect(4,4,4,4)" v:tabSpace="42.5197"/>
			<v:textRect cx="22.4094" cy="293.853" width="44.82" height="42.7638"/>
			<rect x="0" y="272.471" width="44.8189" height="42.7638" class="st1"/>
			<text x="6.41" y="298.84" class="st2" v:langID="1028"><v:paragraph v:horizAlign="1"/><v:tabList/>弊　</text>		</g>
		<g id="shape17-61" v:mID="17" v:groupContext="shape" transform="translate(127.11,-72.5783)">
			<title>工作表.17</title>
			<path d="M0 315.24 L7.09 315.24" class="st5"/>
		</g>
		<g id="shape18-64" v:mID="18" v:groupContext="shape" transform="translate(134.196,-44.2318)">
			<title>工作表.18</title>
			<path d="M0 315.24 L7.09 315.24" class="st5"/>
		</g>
		<g id="shape19-67" v:mID="19" v:groupContext="shape" transform="translate(134.196,-100.925)">
			<title>工作表.19</title>
			<path d="M0 315.24 L7.09 315.24" class="st5"/>
		</g>
		<g id="shape20-70" v:mID="20" v:groupContext="shape" transform="translate(134.196,-256.83)">
			<title>工作表.20</title>
			<path d="M0 315.24 L7.09 315.24" class="st5"/>
		</g>
		<g id="shape21-73" v:mID="21" v:groupContext="shape" transform="translate(134.196,-171.791)">
			<title>工作表.21</title>
			<path d="M0 315.24 L7.09 315.24" class="st5"/>
		</g>
		<g id="shape22-76" v:mID="22" v:groupContext="shape" transform="translate(127.11,-214.311)">
			<title>工作表.22</title>
			<path d="M0 315.24 L7.09 315.24" class="st5"/>
		</g>
		<g id="shape23-79" v:mID="23" v:groupContext="shape" transform="translate(169.629,-256.83)">
			<title>工作表.23</title>
			<path d="M0 315.24 L7.09 315.24" class="st5"/>
		</g>
		<g id="shape24-82" v:mID="24" v:groupContext="shape" transform="translate(169.629,-171.791)">
			<title>工作表.24</title>
			<path d="M0 315.24 L7.09 315.24" class="st5"/>
		</g>
		<g id="shape25-85" v:mID="25" v:groupContext="shape" transform="translate(169.629,-100.925)">
			<title>工作表.25</title>
			<path d="M0 315.24 L7.09 315.24" class="st5"/>
		</g>
		<g id="shape26-88" v:mID="26" v:groupContext="shape" transform="translate(169.629,-44.2318)">
			<title>工作表.26</title>
			<path d="M0 315.24 L7.09 315.24" class="st5"/>
		</g>
		<g id="shape27-91" v:mID="27" v:groupContext="shape" transform="translate(176.716,-285.177)">
			<title>工作表.27</title>
			<path d="M0 315.24 L7.09 315.24" class="st5"/>
		</g>
		<g id="shape28-94" v:mID="28" v:groupContext="shape" transform="translate(176.716,-228.484)">
			<title>工作表.28</title>
			<path d="M0 315.24 L7.09 315.24" class="st5"/>
		</g>
		<g id="shape29-97" v:mID="29" v:groupContext="shape" transform="translate(176.716,-200.137)">
			<title>工作表.29</title>
			<path d="M0 315.24 L7.09 315.24" class="st5"/>
		</g>
		<g id="shape30-100" v:mID="30" v:groupContext="shape" transform="translate(176.716,-143.444)">
			<title>工作表.30</title>
			<path d="M0 315.24 L7.09 315.24" class="st5"/>
		</g>
		<g id="shape31-103" v:mID="31" v:groupContext="shape" transform="translate(176.716,-115.098)">
			<title>工作表.31</title>
			<path d="M0 315.24 L7.09 315.24" class="st5"/>
		</g>
		<g id="shape32-106" v:mID="32" v:groupContext="shape" transform="translate(176.96,-86.7515)">
			<title>工作表.32</title>
			<path d="M0 315.24 L7.09 315.24" class="st5"/>
		</g>
		<g id="shape33-109" v:mID="33" v:groupContext="shape" transform="translate(176.96,-58.405)">
			<title>工作表.33</title>
			<path d="M0 315.24 L7.09 315.24" class="st5"/>
		</g>
		<g id="shape34-112" v:mID="34" v:groupContext="shape" transform="translate(176.96,-30.0586)">
			<title>工作表.34</title>
			<path d="M0 315.24 L7.09 315.24" class="st5"/>
		</g>
		<g id="shape35-115" v:mID="35" v:groupContext="shape" transform="translate(-138.275,285.177) rotate(-90)">
			<title>工作表.35</title>
			<path d="M0 315.24 L28.35 315.24" class="st5"/>
		</g>
		<g id="shape36-118" v:mID="36" v:groupContext="shape" transform="translate(-138.263,231.198) rotate(-90.4934)">
			<title>工作表.36</title>
			<path d="M0 315.24 L28.35 315.24" class="st5"/>
		</g>
		<g id="shape37-121" v:mID="37" v:groupContext="shape" transform="translate(-138.519,171.791) rotate(-90)">
			<title>工作表.37</title>
			<path d="M0 315.24 L56.69 315.24" class="st5"/>
		</g>
		<g id="shape38-124" v:mID="38" v:groupContext="shape" transform="translate(-138.519,86.7515) rotate(-90)">
			<title>工作表.38</title>
			<path d="M0 315.24 L56.69 315.24" class="st5"/>
		</g>
		<g id="shape39-127" v:mID="39" v:groupContext="shape" transform="translate(-181.039,143.444) rotate(-90)">
			<title>工作表.39</title>
			<path d="M0 315.24 L85.04 315.24" class="st5"/>
		</g>
		<g id="shape40-130" v:mID="40" v:groupContext="shape" transform="translate(-181.039,271.003) rotate(-90)">
			<title>工作表.40</title>
			<path d="M0 315.24 L56.69 315.24" class="st5"/>
		</g>
	</g>
</svg>
