<?xml version="1.0" encoding="UTF-8" standalone="no"?>
<!DOCTYPE svg PUBLIC "-//W3C//DTD SVG 1.1//EN" "http://www.w3.org/Graphics/SVG/1.1/DTD/svg11.dtd">
<!-- 由 Microsoft Visio, SVG Export 產生 y13.0015.svg 頁-1 -->
<svg xmlns="http://www.w3.org/2000/svg" xmlns:xlink="http://www.w3.org/1999/xlink" xmlns:ev="http://www.w3.org/2001/xml-events"
		width="7.17262in" height="8.82617in" viewBox="0 0 516.429 635.484" xml:space="preserve" color-interpolation-filters="sRGB"
		class="st5">
	<style type="text/css">
	<![CDATA[
		.st1 {fill:none;stroke:none;stroke-linecap:round;stroke-linejoin:round;stroke-width:0.75}
		.st2 {fill:#000000;font-family:新細明體;font-size:1.33333em}
		.st3 {stroke:#000000;stroke-linecap:round;stroke-linejoin:round;stroke-width:0.24}
		.st4 {font-size:1em}
		.st5 {fill:none;fill-rule:evenodd;font-size:12px;overflow:visible;stroke-linecap:square;stroke-miterlimit:3}
	]]>
	</style>

	<g>
		<title>頁-1</title>
		<g id="group82-1" transform="translate(0.120011,-0.12)">
			<title>工作表.82</title>
			<g id="shape1-2" transform="translate(5.95276,-602.362)">
				<title>工作表.1</title>
				<desc>法名</desc>
				<rect x="0" y="615.642" width="56.126" height="19.8425" class="st1"/>
				<text x="0.25em 2.258em" y="630.36" class="st2">法名</text>			</g>
			<g id="shape2-5" transform="translate(5.95276,-375.591)">
				<title>工作表.2</title>
				<desc>傳心</desc>
				<rect x="0" y="615.642" width="56.126" height="19.8425" class="st1"/>
				<text x="0.25em 2.258em" y="630.36" class="st2">傳心</text>			</g>
			<g id="shape4-8" transform="translate(5.95276,-330.236)">
				<title>工作表.4</title>
				<desc>傳佛</desc>
				<rect x="0" y="615.642" width="56.126" height="19.8425" class="st1"/>
				<text x="0.25em 2.258em" y="630.36" class="st2">傳佛</text>			</g>
			<g id="shape3-11" transform="translate(5.95276,-284.882)">
				<title>工作表.3</title>
				<desc>傳眾</desc>
				<rect x="0" y="615.642" width="56.126" height="19.8425" class="st1"/>
				<text x="0.25em 2.258em" y="630.36" class="st2">傳眾</text>			</g>
			<g id="shape5-14" transform="translate(5.95276,-194.173)">
				<title>工作表.5</title>
				<desc>傳慧</desc>
				<rect x="0" y="615.642" width="56.126" height="19.8425" class="st1"/>
				<text x="0.25em 2.258em" y="630.36" class="st2">傳慧</text>			</g>
			<g id="shape6-17" transform="translate(5.95276,-148.819)">
				<title>工作表.6</title>
				<desc>傳忠</desc>
				<rect x="0" y="615.642" width="56.126" height="19.8425" class="st1"/>
				<text x="0.25em 2.258em" y="630.36" class="st2">傳忠</text>			</g>
			<g id="shape7-20" transform="translate(5.95276,-103.465)">
				<title>工作表.7</title>
				<desc>傳信</desc>
				<rect x="0" y="615.642" width="56.126" height="19.8425" class="st1"/>
				<text x="0.25em 2.258em" y="630.36" class="st2">傳信</text>			</g>
			<g id="shape8-23" transform="translate(5.95276,-58.1102)">
				<title>工作表.8</title>
				<desc>傳震</desc>
				<rect x="0" y="615.642" width="56.126" height="19.8425" class="st1"/>
				<text x="0.25em 2.258em" y="630.36" class="st2">傳震</text>			</g>
			<g id="shape9-26" transform="translate(73.4173,-602.362)">
				<title>工作表.9</title>
				<desc>表字</desc>
				<rect x="0" y="615.642" width="87.874" height="19.8425" class="st1"/>
				<text x="0.25em 4.242em" y="630.36" class="st2">表字</text>			</g>
			<g id="shape10-29" transform="translate(-567.453,635.484) rotate(-90)">
				<title>工作表.10</title>
				<path d="M0 635.48 L635.24 635.48" class="st3"/>
			</g>
			<g id="shape11-32" transform="translate(516.189,636.008) rotate(180)">
				<title>工作表.11</title>
				<path d="M0 635.48 L515.91 635.48" class="st3"/>
			</g>
			<g id="shape12-35" transform="translate(73.4173,-557.008)">
				<title>工作表.12</title>
				<desc>乘悲</desc>
				<rect x="0" y="615.642" width="56.126" height="19.8425" class="st1"/>
				<text x="0.25em 2.258em" y="630.36" class="st2">乘悲</text>			</g>
			<g id="shape13-38" transform="translate(73.4173,-511.654)">
				<title>工作表.13</title>
				<desc>乘智</desc>
				<rect x="0" y="615.642" width="56.126" height="19.8425" class="st1"/>
				<text x="0.25em 2.258em" y="630.36" class="st2">乘智</text>			</g>
			<g id="shape14-41" transform="translate(73.4173,-466.299)">
				<title>工作表.14</title>
				<desc>乘戒</desc>
				<rect x="0" y="615.642" width="56.126" height="19.8425" class="st1"/>
				<text x="0.25em 2.258em" y="630.36" class="st2">乘戒</text>			</g>
			<g id="shape15-44" transform="translate(73.4173,-420.945)">
				<title>工作表.15</title>
				<desc>大安</desc>
				<rect x="0" y="615.642" width="56.126" height="19.8425" class="st1"/>
				<text x="0.25em 2.258em" y="630.36" class="st2">大安</text>			</g>
			<g id="shape16-47" transform="translate(73.4173,-375.591)">
				<title>工作表.16</title>
				<desc>大慈</desc>
				<rect x="0" y="615.642" width="56.126" height="19.8425" class="st1"/>
				<text x="0.25em 2.258em" y="630.36" class="st2">大慈</text>			</g>
			<g id="shape17-50" transform="translate(73.4173,-330.236)">
				<title>工作表.17</title>
				<desc>大覺</desc>
				<rect x="0" y="615.642" width="56.126" height="19.8425" class="st1"/>
				<text x="0.25em 2.258em" y="630.36" class="st2">大覺</text>			</g>
			<g id="shape18-53" transform="translate(73.4173,-284.882)">
				<title>工作表.18</title>
				<desc>大勇</desc>
				<rect x="0" y="615.642" width="56.126" height="19.8425" class="st1"/>
				<text x="0.25em 2.258em" y="630.36" class="st2">大勇</text>			</g>
			<g id="shape19-56" transform="translate(73.4173,-239.528)">
				<title>工作表.19</title>
				<desc>大默</desc>
				<rect x="0" y="615.642" width="56.126" height="19.8425" class="st1"/>
				<text x="0.25em 2.258em" y="630.36" class="st2">大默</text>			</g>
			<g id="shape20-59" transform="translate(73.4173,-194.173)">
				<title>工作表.20</title>
				<desc>大嚴</desc>
				<rect x="0" y="615.642" width="56.126" height="19.8425" class="st1"/>
				<text x="0.25em 2.258em" y="630.36" class="st2">大嚴</text>			</g>
			<g id="shape21-62" transform="translate(73.4173,-148.819)">
				<title>工作表.21</title>
				<desc>大敬</desc>
				<rect x="0" y="615.642" width="56.126" height="19.8425" class="st1"/>
				<text x="0.25em 2.258em" y="630.36" class="st2">大敬</text>			</g>
			<g id="shape22-65" transform="translate(73.4173,-103.465)">
				<title>工作表.22</title>
				<desc>大愚</desc>
				<rect x="0" y="615.642" width="56.126" height="19.8425" class="st1"/>
				<text x="0.25em 2.258em" y="630.36" class="st2">大愚</text>			</g>
			<g id="shape23-68" transform="translate(73.4173,-58.1102)">
				<title>工作表.23</title>
				<desc>大剛</desc>
				<rect x="0" y="615.642" width="56.126" height="19.8425" class="st1"/>
				<text x="0.25em 2.258em" y="630.36" class="st2">大剛</text>			</g>
			<g id="shape24-71" transform="translate(73.4173,-12.7559)">
				<title>工作表.24</title>
				<desc>德瑛尼</desc>
				<rect x="0" y="615.642" width="88.1575" height="19.8425" class="st1"/>
				<text x="0.25em 1.252em" y="630.36" class="st2">德瑛<tspan x="2.255em" dy="0em" class="st4">（</tspan><tspan x="3.257em"
							dy="0em" class="st4">尼</tspan><tspan x="4.26em" dy="0em" class="st4">）</tspan></text>			</g>
			<g id="shape25-77" transform="translate(-468.524,635.484) rotate(-90)">
				<title>工作表.25</title>
				<path d="M0 635.48 L635.24 635.48" class="st3"/>
			</g>
			<g id="shape26-80" transform="translate(-635.484,635.484) rotate(-90)">
				<title>工作表.26</title>
				<path d="M0 635.48 L635.24 635.48" class="st3"/>
			</g>
			<g id="shape27-83" transform="translate(516.189,1270.97) rotate(180)">
				<title>工作表.27</title>
				<path d="M0 635.48 L516.19 635.48" class="st3"/>
			</g>
			<g id="shape28-86" transform="translate(172.63,-602.362)">
				<title>工作表.28</title>
				<desc>俗名</desc>
				<rect x="0" y="615.642" width="56.126" height="19.8425" class="st1"/>
				<text x="0.25em 2.258em" y="630.36" class="st2">俗名</text>			</g>
			<g id="shape29-89" transform="translate(172.63,-375.591)">
				<title>工作表.29</title>
				<desc>黃葆蒼</desc>
				<rect x="0" y="615.642" width="56.126" height="19.8425" class="st1"/>
				<text x="0.25em 1.254em 2.258em" y="630.36" class="st2">黃葆蒼</text>			</g>
			<g id="shape30-92" transform="translate(172.63,-330.236)">
				<title>工作表.30</title>
				<desc>董慕舒</desc>
				<rect x="0" y="615.642" width="56.126" height="19.8425" class="st1"/>
				<text x="0.25em 1.254em 2.258em" y="630.36" class="st2">董慕舒</text>			</g>
			<g id="shape31-95" transform="translate(172.63,-284.882)">
				<title>工作表.31</title>
				<desc>李錦章</desc>
				<rect x="0" y="615.642" width="56.126" height="19.8425" class="st1"/>
				<text x="0.25em 1.254em 2.258em" y="630.36" class="st2">李錦章</text>			</g>
			<g id="shape32-98" transform="translate(172.63,-239.528)">
				<title>工作表.32</title>
				<desc>鄧</desc>
				<rect x="0" y="615.642" width="56.126" height="19.8425" class="st1"/>
				<text x="4" y="630.36" class="st2">鄧</text>			</g>
			<g id="shape33-101" transform="translate(172.63,-194.173)">
				<title>工作表.33</title>
				<desc>王虛亭</desc>
				<rect x="0" y="615.642" width="56.126" height="19.8425" class="st1"/>
				<text x="0.25em 1.254em 2.258em" y="630.36" class="st2">王虛亭</text>			</g>
			<g id="shape34-104" transform="translate(172.63,-148.819)">
				<title>工作表.34</title>
				<desc>唐畏三</desc>
				<rect x="0" y="615.642" width="56.126" height="19.8425" class="st1"/>
				<text x="0.25em 1.254em 2.258em" y="630.36" class="st2">唐畏三</text>			</g>
			<g id="shape35-107" transform="translate(172.63,-103.465)">
				<title>工作表.35</title>
				<desc>李時諳</desc>
				<rect x="0" y="615.642" width="56.126" height="19.8425" class="st1"/>
				<text x="0.25em 1.254em 2.258em" y="630.36" class="st2">李時諳</text>			</g>
			<g id="shape36-110" transform="translate(172.63,-58.1102)">
				<title>工作表.36</title>
				<desc>王又農</desc>
				<rect x="0" y="615.642" width="56.126" height="19.8425" class="st1"/>
				<text x="0.25em 1.254em 2.258em" y="630.36" class="st2">王又農</text>			</g>
			<g id="shape37-113" transform="translate(172.63,-12.7559)">
				<title>工作表.37</title>
				<desc>李梅石</desc>
				<rect x="0" y="615.642" width="56.126" height="19.8425" class="st1"/>
				<text x="0.25em 1.254em 2.258em" y="630.36" class="st2">李梅石</text>			</g>
			<g id="shape38-116" transform="translate(-401.059,635.484) rotate(-90)">
				<title>工作表.38</title>
				<path d="M0 635.48 L635.24 635.48" class="st3"/>
			</g>
			<g id="shape39-119" transform="translate(240.094,-602.362)">
				<title>工作表.39</title>
				<desc>籍貫</desc>
				<rect x="0" y="615.642" width="72" height="19.8425" class="st1"/>
				<text x="0.25em 3.25em" y="630.36" class="st2">籍貫</text>			</g>
			<g id="shape40-122" transform="translate(321.165,-602.362)">
				<title>工作表.40</title>
				<desc>出家</desc>
				<rect x="0" y="615.642" width="92.4094" height="19.8425" class="st1"/>
				<text x="0.25em 4.526em" y="630.36" class="st2">出家</text>			</g>
			<g id="shape41-125" transform="translate(420.378,-602.362)">
				<title>工作表.41</title>
				<desc>生卒情形</desc>
				<rect x="0" y="615.642" width="92.4094" height="19.8425" class="st1"/>
				<text x="0.25em 1.675em 3.1em 4.526em" y="630.36" class="st2">生卒情形</text>			</g>
			<g id="shape42-128" transform="translate(-318.004,635.484) rotate(-90)">
				<title>工作表.42</title>
				<path d="M0 635.48 L635.24 635.48" class="st3"/>
			</g>
			<g id="shape43-131" transform="translate(-218.791,635.484) rotate(-90)">
				<title>工作表.43</title>
				<path d="M0 635.48 L635.24 635.48" class="st3"/>
			</g>
			<g id="shape44-134" transform="translate(-119.295,635.484) rotate(-90)">
				<title>工作表.44</title>
				<path d="M0 635.48 L635.24 635.48" class="st3"/>
			</g>
			<g id="shape45-137" transform="translate(240.094,-557.008)">
				<title>工作表.45</title>
				<desc>安徽</desc>
				<rect x="0" y="615.642" width="56.126" height="19.8425" class="st1"/>
				<text x="0.25em 2.258em" y="630.36" class="st2">安徽</text>			</g>
			<g id="shape46-140" transform="translate(240.094,-511.654)">
				<title>工作表.46</title>
				<desc>安徽</desc>
				<rect x="0" y="615.642" width="56.126" height="19.8425" class="st1"/>
				<text x="0.25em 2.258em" y="630.36" class="st2">安徽</text>			</g>
			<g id="shape47-143" transform="translate(240.094,-466.299)">
				<title>工作表.47</title>
				<desc>江西</desc>
				<rect x="0" y="615.642" width="56.126" height="19.8425" class="st1"/>
				<text x="0.25em 2.258em" y="630.36" class="st2">江西</text>			</g>
			<g id="shape48-146" transform="translate(240.094,-420.945)">
				<title>工作表.48</title>
				<desc>浙江</desc>
				<rect x="0" y="615.642" width="56.126" height="19.8425" class="st1"/>
				<text x="0.25em 2.258em" y="630.36" class="st2">浙江</text>			</g>
			<g id="shape49-149" transform="translate(240.094,-375.591)">
				<title>工作表.49</title>
				<desc>湖北</desc>
				<rect x="0" y="615.642" width="56.126" height="19.8425" class="st1"/>
				<text x="0.25em 2.258em" y="630.36" class="st2">湖北</text>			</g>
			<g id="shape50-152" transform="translate(240.094,-330.236)">
				<title>工作表.50</title>
				<desc>四川</desc>
				<rect x="0" y="615.642" width="56.126" height="19.8425" class="st1"/>
				<text x="0.25em 2.258em" y="630.36" class="st2">四川</text>			</g>
			<g id="shape51-155" transform="translate(240.094,-284.882)">
				<title>工作表.51</title>
				<desc>四川</desc>
				<rect x="0" y="615.642" width="56.126" height="19.8425" class="st1"/>
				<text x="0.25em 2.258em" y="630.36" class="st2">四川</text>			</g>
			<g id="shape52-158" transform="translate(240.094,-239.528)">
				<title>工作表.52</title>
				<desc>湖北</desc>
				<rect x="0" y="615.642" width="56.126" height="19.8425" class="st1"/>
				<text x="0.25em 2.258em" y="630.36" class="st2">湖北</text>			</g>
			<g id="shape53-161" transform="translate(240.094,-194.173)">
				<title>工作表.53</title>
				<desc>安徽</desc>
				<rect x="0" y="615.642" width="56.126" height="19.8425" class="st1"/>
				<text x="0.25em 2.258em" y="630.36" class="st2">安徽</text>			</g>
			<g id="shape54-164" transform="translate(240.094,-148.819)">
				<title>工作表.54</title>
				<desc>湖南</desc>
				<rect x="0" y="615.642" width="56.126" height="19.8425" class="st1"/>
				<text x="0.25em 2.258em" y="630.36" class="st2">湖南</text>			</g>
			<g id="shape55-167" transform="translate(240.094,-103.465)">
				<title>工作表.55</title>
				<desc>湖北</desc>
				<rect x="0" y="615.642" width="56.126" height="19.8425" class="st1"/>
				<text x="0.25em 2.258em" y="630.36" class="st2">湖北</text>			</g>
			<g id="shape56-170" transform="translate(240.094,-58.1102)">
				<title>工作表.56</title>
				<desc>湖北</desc>
				<rect x="0" y="615.642" width="56.126" height="19.8425" class="st1"/>
				<text x="0.25em 2.258em" y="630.36" class="st2">湖北</text>			</g>
			<g id="shape57-173" transform="translate(240.094,-12.7559)">
				<title>工作表.57</title>
				<desc>湖北</desc>
				<rect x="0" y="615.642" width="56.126" height="19.8425" class="st1"/>
				<text x="0.25em 2.258em" y="630.36" class="st2">湖北</text>			</g>
			<g id="shape58-176" transform="translate(321.165,-420.945)">
				<title>工作表.58</title>
				<desc>民國七年</desc>
				<rect x="0" y="615.642" width="92.4094" height="19.8425" class="st1"/>
				<text x="4" y="630.36" class="st2">民國七年</text>			</g>
			<g id="shape59-179" transform="translate(321.165,-375.591)">
				<title>工作表.59</title>
				<desc>民國八年</desc>
				<rect x="0" y="615.642" width="92.4094" height="19.8425" class="st1"/>
				<text x="4" y="630.36" class="st2">民國八年</text>			</g>
			<g id="shape60-182" transform="translate(321.165,-330.236)">
				<title>工作表.60</title>
				<desc>民國八年</desc>
				<rect x="0" y="615.642" width="92.4094" height="19.8425" class="st1"/>
				<text x="4" y="630.36" class="st2">民國八年</text>			</g>
			<g id="shape61-185" transform="translate(321.165,-284.882)">
				<title>工作表.61</title>
				<desc>民國八年</desc>
				<rect x="0" y="615.642" width="92.4094" height="19.8425" class="st1"/>
				<text x="4" y="630.36" class="st2">民國八年</text>			</g>
			<g id="shape62-188" transform="translate(321.165,-239.528)">
				<title>工作表.62</title>
				<desc>民國九年</desc>
				<rect x="0" y="615.642" width="92.4094" height="19.8425" class="st1"/>
				<text x="4" y="630.36" class="st2">民國九年</text>			</g>
			<g id="shape63-191" transform="translate(321.165,-194.173)">
				<title>工作表.63</title>
				<desc>民國十 一年</desc>
				<rect x="0" y="615.642" width="92.4094" height="19.8425" class="st1"/>
				<text x="4" y="630.36" class="st2">民國十 一年</text>			</g>
			<g id="shape64-194" transform="translate(321.165,-148.819)">
				<title>工作表.64</title>
				<desc>民國十 二年</desc>
				<rect x="0" y="615.642" width="92.4094" height="19.8425" class="st1"/>
				<text x="4" y="630.36" class="st2">民國十 二年</text>			</g>
			<g id="shape65-197" transform="translate(321.165,-103.465)">
				<title>工作表.65</title>
				<desc>民國十 二年</desc>
				<rect x="0" y="615.642" width="92.4094" height="19.8425" class="st1"/>
				<text x="4" y="630.36" class="st2">民國十 二年</text>			</g>
			<g id="shape66-200" transform="translate(321.165,-58.1102)">
				<title>工作表.66</title>
				<desc>民國十 二年</desc>
				<rect x="0" y="615.642" width="92.4094" height="19.8425" class="st1"/>
				<text x="4" y="630.36" class="st2">民國十 二年</text>			</g>
			<g id="shape67-203" transform="translate(321.165,-12.7559)">
				<title>工作表.67</title>
				<desc>民國廿二年</desc>
				<rect x="0" y="615.642" width="92.4094" height="19.8425" class="st1"/>
				<text x="4" y="630.36" class="st2">民國廿二年</text>			</g>
			<g id="shape68-206" transform="translate(420.378,-557.008)">
				<title>工作表.68</title>
				<desc>返俗</desc>
				<rect x="0" y="615.642" width="92.4094" height="19.8425" class="st1"/>
				<text x="4" y="630.36" class="st2">返俗</text>			</g>
			<g id="shape69-209" transform="translate(420.378,-511.654)">
				<title>工作表.69</title>
				<desc>返俗</desc>
				<rect x="0" y="615.642" width="92.4094" height="19.8425" class="st1"/>
				<text x="4" y="630.36" class="st2">返俗</text>			</g>
			<g id="shape70-212" transform="translate(420.378,-466.299)">
				<title>工作表.70</title>
				<desc>返俗</desc>
				<rect x="0" y="615.642" width="92.4094" height="19.8425" class="st1"/>
				<text x="4" y="630.36" class="st2">返俗</text>			</g>
			<g id="shape71-215" transform="translate(420.378,-420.945)">
				<title>工作表.71</title>
				<desc>十年頃卒</desc>
				<rect x="0" y="615.642" width="92.4094" height="19.8425" class="st1"/>
				<text x="4" y="630.36" class="st2">十年頃卒</text>			</g>
			<g id="shape72-218" transform="translate(420.378,-375.591)">
				<title>工作表.72</title>
				<desc>十一年秋卒</desc>
				<rect x="0" y="615.642" width="92.4094" height="19.8425" class="st1"/>
				<text x="4" y="630.36" class="st2">十一年秋卒</text>			</g>
			<g id="shape73-221" transform="translate(420.378,-330.236)">
				<title>工作表.73</title>
				<desc>十四年春卒</desc>
				<rect x="0" y="615.642" width="92.4094" height="19.8425" class="st1"/>
				<text x="4" y="630.36" class="st2">十四年春卒</text>			</g>
			<g id="shape74-224" transform="translate(420.378,-284.882)">
				<title>工作表.74</title>
				<desc>十八年秋卒</desc>
				<rect x="0" y="615.642" width="92.4094" height="19.8425" class="st1"/>
				<text x="4" y="630.36" class="st2">十八年秋卒</text>			</g>
			<g id="shape75-227" transform="translate(420.378,-239.528)">
				<title>工作表.75</title>
				<desc>十年卒</desc>
				<rect x="0" y="615.642" width="92.4094" height="19.8425" class="st1"/>
				<text x="4" y="630.36" class="st2">十年卒</text>			</g>
			<g id="shape76-230" transform="translate(420.378,-194.173)">
				<title>工作表.76</title>
				<desc>十五年冬卒</desc>
				<rect x="0" y="615.642" width="92.4094" height="19.8425" class="st1"/>
				<text x="4" y="630.36" class="st2">十五年冬卒</text>			</g>
			<g id="shape77-233" transform="translate(420.378,-148.819)">
				<title>工作表.77</title>
				<desc>二十四年卒</desc>
				<rect x="0" y="615.642" width="92.4094" height="19.8425" class="st1"/>
				<text x="4" y="630.36" class="st2">二十四年卒</text>			</g>
			<g id="shape78-236" transform="translate(420.378,-103.465)">
				<title>工作表.78</title>
				<desc>不明</desc>
				<rect x="0" y="615.642" width="92.4094" height="19.8425" class="st1"/>
				<text x="4" y="630.36" class="st2">不明</text>			</g>
			<g id="shape79-239" transform="translate(420.378,-58.1102)">
				<title>工作表.79</title>
				<desc>三十四年卒</desc>
				<rect x="0" y="615.642" width="92.4094" height="19.8425" class="st1"/>
				<text x="4" y="630.36" class="st2">三十四年卒</text>			</g>
			<g id="shape80-242" transform="translate(420.378,-12.7559)">
				<title>工作表.80</title>
				<desc>卒</desc>
				<rect x="0" y="615.642" width="92.4094" height="19.8425" class="st1"/>
				<text x="4" y="630.36" class="st2">卒</text>			</g>
			<g id="shape81-245" transform="translate(516.189,681.362) rotate(180)">
				<title>工作表.81</title>
				<path d="M0 635.48 L515.91 635.48" class="st3"/>
			</g>
		</g>
	</g>
</svg>
