<?xml version="1.0" encoding="UTF-8" standalone="no"?>
<!DOCTYPE svg PUBLIC "-//W3C//DTD SVG 1.1//EN" "http://www.w3.org/Graphics/SVG/1.1/DTD/svg11.dtd">
<!-- 由 Microsoft Visio, SVG Export 產生 y13.0230-h.svg 頁-1 -->
<svg xmlns="http://www.w3.org/2000/svg" xmlns:xlink="http://www.w3.org/1999/xlink" xmlns:ev="http://www.w3.org/2001/xml-events"
		width="5.46024in" height="1.07299in" viewBox="0 0 393.137 77.2554" xml:space="preserve" color-interpolation-filters="sRGB"
		class="st4">
	<title>y13.0630</title>

	<style type="text/css">
	<![CDATA[
		.st1 {fill:none;stroke:none;stroke-linecap:round;stroke-linejoin:round;stroke-width:0.72}
		.st2 {fill:#000000;font-family:新細明體;font-size:1.33333em}
		.st3 {stroke:#000000;stroke-linecap:round;stroke-linejoin:round;stroke-width:0.72}
		.st4 {fill:none;fill-rule:evenodd;font-size:12px;overflow:visible;stroke-linecap:square;stroke-miterlimit:3}
	]]>
	</style>

	<g>
		<title>頁-1</title>
		<g id="group16-1" transform="translate(0.36,-0.36)">
			<title>工作表.16</title>
			<g id="shape1-2" transform="translate(3.19744E-14,-56.6929)">
				<title>工作表.1</title>
				<desc>法性空慧宗</desc>
				<rect x="0" y="57.4129" width="89.4646" height="19.8425" class="st1"/>
				<text x="4.73" y="72.32" class="st2">法性空慧宗</text>			</g>
			<g id="shape2-5" transform="translate(1.27898E-13,-28.3465)">
				<title>工作表.2</title>
				<desc>法相唯識宗</desc>
				<rect x="0" y="57.4129" width="89.4646" height="19.8425" class="st1"/>
				<text x="4.73" y="72.32" class="st2">法相唯識宗</text>			</g>
			<g id="shape3-8">
				<title>工作表.3</title>
				<desc>法界圓覺宗</desc>
				<rect x="0" y="57.4129" width="89.4646" height="19.8425" class="st1"/>
				<text x="4.73" y="72.32" class="st2">法界圓覺宗</text>			</g>
			<g id="shape4-11" transform="translate(96.7323,-56.6929)">
				<title>工作表.4</title>
				<desc>顯空未具顯不空</desc>
				<rect x="0" y="57.4129" width="122.063" height="19.8425" class="st1"/>
				<text x="5.03" y="72.32" class="st2">顯空未具顯不空</text>			</g>
			<g id="shape5-14" transform="translate(96.378,-14.1732)">
				<title>工作表.5</title>
				<desc>空不空具顯</desc>
				<rect x="0" y="57.4129" width="93.0079" height="19.8425" class="st1"/>
				<text x="6.5" y="72.32" class="st2">空不空具顯</text>			</g>
			<g id="shape6-17" transform="translate(266.811,-35.4331)">
				<title>工作表.6</title>
				<desc>無為真有為非真</desc>
				<rect x="0" y="57.4129" width="125.606" height="19.8425" class="st1"/>
				<text x="6.8" y="72.32" class="st2">無為真有為非真</text>			</g>
			<g id="shape7-20" transform="translate(268.937,-1.08002E-12)">
				<title>工作表.7</title>
				<desc>為無為皆真</desc>
				<rect x="0" y="57.4129" width="90.1732" height="19.8425" class="st1"/>
				<text x="5.09" y="72.32" class="st2">為無為皆真</text>			</g>
			<g id="shape8-23" transform="translate(85.3583,-66.6142)">
				<title>工作表.8</title>
				<path d="M0 77.26 L14.17 77.26" class="st3"/>
			</g>
			<g id="shape9-26" transform="translate(139.986,-15.6401) rotate(45)">
				<title>工作表.9</title>
				<path d="M0 77.26 L20.04 77.26" class="st3"/>
			</g>
			<g id="shape10-29" transform="translate(30.7304,12.7063) rotate(-45)">
				<title>工作表.10</title>
				<path d="M0 77.26 L20.04 77.26" class="st3"/>
			</g>
			<g id="shape11-32" transform="translate(269.61,144.59) rotate(180)">
				<title>工作表.11</title>
				<path d="M0 77.26 L184.25 77.26" class="st3"/>
			</g>
			<g id="shape12-35" transform="translate(215.752,130.416) rotate(180)">
				<title>工作表.12</title>
				<path d="M0 77.26 L31.18 77.26" class="st3"/>
			</g>
			<g id="shape14-38" transform="translate(244.118,-61.2183) rotate(21.541)">
				<title>工作表.14</title>
				<path d="M0 77.26 L57.9 77.26" class="st3"/>
			</g>
			<g id="shape15-41" transform="translate(187.386,-18.6986) rotate(-21.541)">
				<title>工作表.15</title>
				<path d="M0 77.26 L57.9 77.26" class="st3"/>
			</g>
		</g>
	</g>
</svg>
