<?xml version="1.0" encoding="UTF-8" standalone="no"?>
<!DOCTYPE svg PUBLIC "-//W3C//DTD SVG 1.1//EN" "http://www.w3.org/Graphics/SVG/1.1/DTD/svg11.dtd">
<!-- 由 Microsoft Visio, SVG Export 產生 y13.0490.svg 頁-1 -->
<svg xmlns="http://www.w3.org/2000/svg" xmlns:xlink="http://www.w3.org/1999/xlink" xmlns:ev="http://www.w3.org/2001/xml-events"
		width="5.08207in" height="4.71987in" viewBox="0 0 365.909 339.831" xml:space="preserve" color-interpolation-filters="sRGB"
		class="st4">
	<style type="text/css">
	<![CDATA[
		.st1 {fill:none;stroke:none;stroke-linecap:round;stroke-linejoin:round;stroke-width:0.75}
		.st2 {fill:#000000;font-family:新細明體;font-size:1.33333em}
		.st3 {stroke:#000000;stroke-linecap:round;stroke-linejoin:round;stroke-width:0.24}
		.st4 {fill:none;fill-rule:evenodd;font-size:12px;overflow:visible;stroke-linecap:square;stroke-miterlimit:3}
	]]>
	</style>

	<g>
		<title>頁-1</title>
		<g id="group20-1" transform="translate(0.12,-0.12001)">
			<title>工作表.20</title>
			<g id="shape1-2" transform="translate(24.378,-48.4724)">
				<title>工作表.1</title>
				<desc>黑</desc>
				<rect x="0" y="315.453" width="24.378" height="24.378" class="st1"/>
				<text x="12.19" y="319.64" writing-mode="tb-rl" class="st2">黑</text>			</g>
			<g id="shape2-5" transform="translate(97.5118,-48.4724)">
				<title>工作表.2</title>
				<desc>黃</desc>
				<rect x="0" y="315.453" width="24.378" height="24.378" class="st1"/>
				<text x="12.19" y="319.64" writing-mode="tb-rl" class="st2">黃</text>			</g>
			<g id="shape3-8" transform="translate(170.646,-48.4724)">
				<title>工作表.3</title>
				<desc>白</desc>
				<rect x="0" y="315.453" width="24.378" height="24.378" class="st1"/>
				<text x="12.19" y="319.64" writing-mode="tb-rl" class="st2">白</text>			</g>
			<g id="shape4-11" transform="translate(154.772,-274.961)">
				<title>工作表.4</title>
				<desc>青(佛)</desc>
				<rect x="0" y="283.705" width="56.126" height="56.126" class="st1"/>
				<text x="7.05" y="316.57" class="st2">青(佛)</text>			</g>
			<g id="shape5-14" transform="translate(243.78,-48.4724)">
				<title>工作表.5</title>
				<desc>青</desc>
				<rect x="0" y="315.453" width="24.378" height="24.378" class="st1"/>
				<text x="12.19" y="319.64" writing-mode="tb-rl" class="st2">青</text>			</g>
			<g id="shape6-17" transform="translate(154.772,-128.693)">
				<title>工作表.6</title>
				<desc>黃(僧)</desc>
				<rect x="0" y="283.705" width="56.126" height="56.126" class="st1"/>
				<text x="7.05" y="316.57" class="st2">黃(僧)</text>			</g>
			<g id="shape7-20" transform="translate(316.913,-48.4724)">
				<title>工作表.7</title>
				<desc>紅</desc>
				<rect x="0" y="315.453" width="24.378" height="24.378" class="st1"/>
				<text x="12.19" y="319.64" writing-mode="tb-rl" class="st2">紅</text>			</g>
			<g id="shape8-23" transform="translate(154.772,-201.827)">
				<title>工作表.8</title>
				<desc>白(法)</desc>
				<rect x="0" y="283.705" width="56.126" height="56.126" class="st1"/>
				<text x="7.05" y="316.57" class="st2">白(法)</text>			</g>
			<g id="shape9-26" transform="translate(705.5,0.24001) rotate(90)">
				<title>工作表.9</title>
				<path d="M0 339.83 L339.59 339.83" class="st3"/>
			</g>
			<g id="shape10-29" transform="translate(0,-339.591)">
				<title>工作表.10</title>
				<path d="M0 339.83 L365.67 339.83" class="st3"/>
			</g>
			<g id="shape11-32" transform="translate(632.366,219.642) rotate(90)">
				<title>工作表.11</title>
				<path d="M0 339.83 L120.19 339.83" class="st3"/>
			</g>
			<g id="shape12-35" transform="translate(559.232,219.642) rotate(90)">
				<title>工作表.12</title>
				<path d="M0 339.83 L120.19 339.83" class="st3"/>
			</g>
			<g id="shape13-38" transform="translate(486.098,219.642) rotate(90)">
				<title>工作表.13</title>
				<path d="M0 339.83 L120.19 339.83" class="st3"/>
			</g>
			<g id="shape14-41" transform="translate(412.964,219.642) rotate(90)">
				<title>工作表.14</title>
				<path d="M0 339.83 L120.19 339.83" class="st3"/>
			</g>
			<g id="shape15-44" transform="translate(339.831,0.24001) rotate(90)">
				<title>工作表.15</title>
				<path d="M0 339.83 L339.59 339.83" class="st3"/>
			</g>
			<g id="shape16-47" transform="translate(0,-266.457)">
				<title>工作表.16</title>
				<path d="M0 339.83 L365.67 339.83" class="st3"/>
			</g>
			<g id="shape17-50" transform="translate(0,-120.189)">
				<title>工作表.17</title>
				<path d="M0 339.83 L365.67 339.83" class="st3"/>
			</g>
			<g id="shape18-53">
				<title>工作表.18</title>
				<path d="M0 339.83 L365.67 339.83" class="st3"/>
			</g>
			<g id="shape19-56" transform="translate(0,-193.323)">
				<title>工作表.19</title>
				<path d="M0 339.83 L365.67 339.83" class="st3"/>
			</g>
		</g>
	</g>
</svg>
