<?xml version="1.0" encoding="UTF-8" standalone="no"?>
<!DOCTYPE svg PUBLIC "-//W3C//DTD SVG 1.0//EN" "http://www.w3.org/TR/2001/REC-SVG-20010904/DTD/svg10.dtd">
<!-- 由 Microsoft Visio 11.0, SVG Export, v1.0 產生 y13.0016.svg Page-1 -->
<svg xmlns="http://www.w3.org/2000/svg" xmlns:xlink="http://www.w3.org/1999/xlink" xmlns:ev="http://www.w3.org/2001/xml-events"
		xmlns:v="http://schemas.microsoft.com/visio/2003/SVGExtensions/" width="6.4673in" height="9.96965in"
		viewBox="0 0 465.645 717.815" xml:space="preserve" color-interpolation-filters="sRGB" class="st5">
	<v:documentProperties v:langID="1028" v:metric="true" v:viewMarkup="false">
		<v:userDefs>
			<v:ud v:nameU="msvSubprocessMaster" v:prompt="" v:val="VT4(Box)"/>
			<v:ud v:nameU="msvNoAutoConnect" v:val="VT0(1):26"/>
		</v:userDefs>
	</v:documentProperties>

	<style type="text/css">
	<![CDATA[
		.st1 {fill:none;stroke:none;stroke-linecap:round;stroke-linejoin:round;stroke-width:0.75}
		.st2 {fill:#000000;font-family:新細明體;font-size:1.33333em}
		.st3 {stroke:#000000;stroke-linecap:round;stroke-linejoin:round;stroke-width:0.24}
		.st4 {stroke:#000000;stroke-linecap:round;stroke-linejoin:round;stroke-opacity:0;stroke-width:0.24}
		.st5 {fill:none;fill-rule:evenodd;font-size:12px;overflow:visible;stroke-linecap:square;stroke-miterlimit:3}
	]]>
	</style>

	<g v:mID="0" v:index="1" v:groupContext="foregroundPage">
		<title>頁-1</title>
		<v:pageProperties v:drawingScale="0.0393701" v:pageScale="0.0393701" v:drawingUnits="24" v:shadowOffsetX="8.50394"
				v:shadowOffsetY="-8.50394"/>
		<g id="shape1-1" v:mID="1" v:groupContext="shape" transform="translate(29.862,-602.97)">
			<title>工作表.1</title>
			<desc>法名</desc>
			<v:textBlock v:margins="rect(4,4,4,4)" v:tabSpace="42.5197"/>
			<v:textRect cx="28.063" cy="689.752" width="56.13" height="56.126"/>
			<rect x="0" y="661.689" width="56.126" height="56.126" class="st1"/>
			<text x="0.25em 2.258em" y="694.55" class="st2" v:langID="1028"><v:paragraph v:horizAlign="4"/><v:tabList/>法名</text>		</g>
		<g id="shape2-4" v:mID="2" v:groupContext="shape" transform="translate(29.862,-376.199)">
			<title>工作表.2</title>
			<desc>法淨</desc>
			<v:textBlock v:margins="rect(4,4,4,4)" v:tabSpace="42.5197"/>
			<v:textRect cx="28.063" cy="689.752" width="56.13" height="56.126"/>
			<rect x="0" y="661.689" width="56.126" height="56.126" class="st1"/>
			<text x="0.25em 2.258em" y="694.55" class="st2" v:langID="1028"><v:paragraph v:horizAlign="4"/><v:tabList/>法淨</text>		</g>
		<g id="shape3-7" v:mID="3" v:groupContext="shape" transform="translate(29.862,-330.844)">
			<title>工作表.3</title>
			<desc>法如</desc>
			<v:textBlock v:margins="rect(4,4,4,4)" v:tabSpace="42.5197"/>
			<v:textRect cx="28.063" cy="689.752" width="56.13" height="56.126"/>
			<rect x="0" y="661.689" width="56.126" height="56.126" class="st1"/>
			<text x="0.25em 2.258em" y="694.55" class="st2" v:langID="1028"><v:paragraph v:horizAlign="4"/><v:tabList/>法如</text>		</g>
		<g id="shape4-10" v:mID="4" v:groupContext="shape" transform="translate(29.862,-285.49)">
			<title>工作表.4</title>
			<desc>法普</desc>
			<v:textBlock v:margins="rect(4,4,4,4)" v:tabSpace="42.5197"/>
			<v:textRect cx="28.063" cy="689.752" width="56.13" height="56.126"/>
			<rect x="0" y="661.689" width="56.126" height="56.126" class="st1"/>
			<text x="0.25em 2.258em" y="694.55" class="st2" v:langID="1028"><v:paragraph v:horizAlign="4"/><v:tabList/>法普</text>		</g>
		<g id="shape5-13" v:mID="5" v:groupContext="shape" transform="translate(29.862,-194.781)">
			<title>工作表.5</title>
			<desc>法雨</desc>
			<v:textBlock v:margins="rect(4,4,4,4)" v:tabSpace="42.5197"/>
			<v:textRect cx="28.063" cy="689.752" width="56.13" height="56.126"/>
			<rect x="0" y="661.689" width="56.126" height="56.126" class="st1"/>
			<text x="0.25em 2.258em" y="694.55" class="st2" v:langID="1028"><v:paragraph v:horizAlign="4"/><v:tabList/>法雨</text>		</g>
		<g id="shape6-16" v:mID="6" v:groupContext="shape" transform="translate(232.539,-376.199)">
			<title>工作表.6</title>
			<desc>大勇</desc>
			<v:textBlock v:margins="rect(4,4,4,4)" v:tabSpace="42.5197"/>
			<v:textRect cx="28.063" cy="689.752" width="56.13" height="56.126"/>
			<rect x="0" y="661.689" width="56.126" height="56.126" class="st1"/>
			<text x="0.25em 2.258em" y="694.55" class="st2" v:langID="1028"><v:paragraph v:horizAlign="4"/><v:tabList/>大勇</text>		</g>
		<g id="shape7-19" v:mID="7" v:groupContext="shape" transform="translate(29.862,-104.073)">
			<title>工作表.7</title>
			<desc>法喜</desc>
			<v:textBlock v:margins="rect(4,4,4,4)" v:tabSpace="42.5197"/>
			<v:textRect cx="28.063" cy="689.752" width="56.13" height="56.126"/>
			<rect x="0" y="661.689" width="56.126" height="56.126" class="st1"/>
			<text x="0.25em 2.258em" y="694.55" class="st2" v:langID="1028"><v:paragraph v:horizAlign="4"/><v:tabList/>法喜</text>		</g>
		<g id="shape8-22" v:mID="8" v:groupContext="shape" transform="translate(29.862,-58.7185)">
			<title>工作表.8</title>
			<desc>法常</desc>
			<v:textBlock v:margins="rect(4,4,4,4)" v:tabSpace="42.5197"/>
			<v:textRect cx="28.063" cy="689.752" width="56.13" height="56.126"/>
			<rect x="0" y="661.689" width="56.126" height="56.126" class="st1"/>
			<text x="0.25em 2.258em" y="694.55" class="st2" v:langID="1028"><v:paragraph v:horizAlign="4"/><v:tabList/>法常</text>		</g>
		<g id="shape9-25" v:mID="9" v:groupContext="shape" transform="translate(97.3266,-602.97)">
			<title>工作表.9</title>
			<desc>表字</desc>
			<v:textBlock v:margins="rect(4,4,4,4)" v:tabSpace="42.5197"/>
			<v:textRect cx="28.063" cy="689.752" width="56.13" height="56.126"/>
			<rect x="0" y="661.689" width="56.126" height="56.126" class="st1"/>
			<text x="0.25em 2.258em" y="694.55" class="st2" v:langID="1028"><v:paragraph v:horizAlign="4"/><v:tabList/>表字</text>		</g>
		<g id="shape10-28" v:mID="10" v:groupContext="shape" transform="translate(-625.874,653.711) rotate(-90)">
			<title>工作表.10</title>
			<path d="M0 717.81 L589.61 717.81" class="st3"/>
		</g>
		<g id="shape11-31" v:mID="11" v:groupContext="shape" transform="translate(441.736,781.919) rotate(180)">
			<title>工作表.11</title>
			<path d="M0 717.81 L417.54 717.81" class="st3"/>
		</g>
		<g id="shape12-34" v:mID="12" v:groupContext="shape" transform="translate(97.3266,-557.616)">
			<title>工作表.12</title>
			<desc>恆演</desc>
			<v:textBlock v:margins="rect(4,4,4,4)" v:tabSpace="42.5197"/>
			<v:textRect cx="28.063" cy="689.752" width="56.13" height="56.126"/>
			<rect x="0" y="661.689" width="56.126" height="56.126" class="st1"/>
			<text x="0.25em 2.258em" y="694.55" class="st2" v:langID="1028"><v:paragraph v:horizAlign="4"/><v:tabList/>恆演</text>		</g>
		<g id="shape13-37" v:mID="13" v:groupContext="shape" transform="translate(97.3266,-512.262)">
			<title>工作表.13</title>
			<desc>恆照</desc>
			<v:textBlock v:margins="rect(4,4,4,4)" v:tabSpace="42.5197"/>
			<v:textRect cx="28.063" cy="689.752" width="56.13" height="56.126"/>
			<rect x="0" y="661.689" width="56.126" height="56.126" class="st1"/>
			<text x="0.25em 2.258em" y="694.55" class="st2" v:langID="1028"><v:paragraph v:horizAlign="4"/><v:tabList/>恆照</text>		</g>
		<g id="shape14-40" v:mID="14" v:groupContext="shape" transform="translate(97.3266,-466.907)">
			<title>工作表.14</title>
			<desc>恆明</desc>
			<v:textBlock v:margins="rect(4,4,4,4)" v:tabSpace="42.5197"/>
			<v:textRect cx="28.063" cy="689.752" width="56.13" height="56.126"/>
			<rect x="0" y="661.689" width="56.126" height="56.126" class="st1"/>
			<text x="0.25em 2.258em" y="694.55" class="st2" v:langID="1028"><v:paragraph v:horizAlign="4"/><v:tabList/>恆明</text>		</g>
		<g id="shape15-43" v:mID="15" v:groupContext="shape" transform="translate(97.3266,-421.553)">
			<title>工作表.15</title>
			<desc>密吽</desc>
			<v:textBlock v:margins="rect(4,4,4,4)" v:tabSpace="42.5197"/>
			<v:textRect cx="28.063" cy="689.752" width="56.13" height="56.126"/>
			<rect x="0" y="661.689" width="56.126" height="56.126" class="st1"/>
			<text x="0.25em 2.258em" y="694.55" class="st2" v:langID="1028"><v:paragraph v:horizAlign="4"/><v:tabList/>密吽</text>		</g>
		<g id="shape16-46" v:mID="16" v:groupContext="shape" transform="translate(97.3266,-376.199)">
			<title>工作表.16</title>
			<desc>密慧</desc>
			<v:textBlock v:margins="rect(4,4,4,4)" v:tabSpace="42.5197"/>
			<v:textRect cx="28.063" cy="689.752" width="56.13" height="56.126"/>
			<rect x="0" y="661.689" width="56.126" height="56.126" class="st1"/>
			<text x="0.25em 2.258em" y="694.55" class="st2" v:langID="1028"><v:paragraph v:horizAlign="4"/><v:tabList/>密慧</text>		</g>
		<g id="shape17-49" v:mID="17" v:groupContext="shape" transform="translate(97.3266,-330.844)">
			<title>工作表.17</title>
			<desc>密嚴</desc>
			<v:textBlock v:margins="rect(4,4,4,4)" v:tabSpace="42.5197"/>
			<v:textRect cx="28.063" cy="689.752" width="56.13" height="56.126"/>
			<rect x="0" y="661.689" width="56.126" height="56.126" class="st1"/>
			<text x="0.25em 2.258em" y="694.55" class="st2" v:langID="1028"><v:paragraph v:horizAlign="4"/><v:tabList/>密嚴</text>		</g>
		<g id="shape18-52" v:mID="18" v:groupContext="shape" transform="translate(97.3266,-285.49)">
			<title>工作表.18</title>
			<desc>密悟</desc>
			<v:textBlock v:margins="rect(4,4,4,4)" v:tabSpace="42.5197"/>
			<v:textRect cx="28.063" cy="689.752" width="56.13" height="56.126"/>
			<rect x="0" y="661.689" width="56.126" height="56.126" class="st1"/>
			<text x="0.25em 2.258em" y="694.55" class="st2" v:langID="1028"><v:paragraph v:horizAlign="4"/><v:tabList/>密悟</text>		</g>
		<g id="shape19-55" v:mID="19" v:groupContext="shape" transform="translate(97.3266,-240.136)">
			<title>工作表.19</title>
			<desc>密圓</desc>
			<v:textBlock v:margins="rect(4,4,4,4)" v:tabSpace="42.5197"/>
			<v:textRect cx="28.063" cy="689.752" width="56.13" height="56.126"/>
			<rect x="0" y="661.689" width="56.126" height="56.126" class="st1"/>
			<text x="0.25em 2.258em" y="694.55" class="st2" v:langID="1028"><v:paragraph v:horizAlign="4"/><v:tabList/>密圓</text>		</g>
		<g id="shape20-58" v:mID="20" v:groupContext="shape" transform="translate(97.3266,-194.781)">
			<title>工作表.20</title>
			<desc>廣潤</desc>
			<v:textBlock v:margins="rect(4,4,4,4)" v:tabSpace="42.5197"/>
			<v:textRect cx="28.063" cy="689.752" width="56.13" height="56.126"/>
			<rect x="0" y="661.689" width="56.126" height="56.126" class="st1"/>
			<text x="0.25em 2.258em" y="694.55" class="st2" v:langID="1028"><v:paragraph v:horizAlign="4"/><v:tabList/>廣潤</text>		</g>
		<g id="shape21-61" v:mID="21" v:groupContext="shape" transform="translate(97.3266,-149.427)">
			<title>工作表.21</title>
			<desc>弘妙</desc>
			<v:textBlock v:margins="rect(4,4,4,4)" v:tabSpace="42.5197"/>
			<v:textRect cx="28.063" cy="689.752" width="56.13" height="56.126"/>
			<rect x="0" y="661.689" width="56.126" height="56.126" class="st1"/>
			<text x="0.25em 2.258em" y="694.55" class="st2" v:langID="1028"><v:paragraph v:horizAlign="4"/><v:tabList/>弘妙</text>		</g>
		<g id="shape22-64" v:mID="22" v:groupContext="shape" transform="translate(232.539,-330.844)">
			<title>工作表.22</title>
			<desc>大勇</desc>
			<v:textBlock v:margins="rect(4,4,4,4)" v:tabSpace="42.5197"/>
			<v:textRect cx="28.063" cy="689.752" width="56.13" height="56.126"/>
			<rect x="0" y="661.689" width="56.126" height="56.126" class="st1"/>
			<text x="0.25em 2.258em" y="694.55" class="st2" v:langID="1028"><v:paragraph v:horizAlign="4"/><v:tabList/>大勇</text>		</g>
		<g id="shape23-67" v:mID="23" v:groupContext="shape" transform="translate(232.539,-285.49)">
			<title>工作表.23</title>
			<desc>大勇</desc>
			<v:textBlock v:margins="rect(4,4,4,4)" v:tabSpace="42.5197"/>
			<v:textRect cx="28.063" cy="689.752" width="56.13" height="56.126"/>
			<rect x="0" y="661.689" width="56.126" height="56.126" class="st1"/>
			<text x="0.25em 2.258em" y="694.55" class="st2" v:langID="1028"><v:paragraph v:horizAlign="4"/><v:tabList/>大勇</text>		</g>
		<g id="shape25-70" v:mID="25" v:groupContext="shape" transform="translate(-558.41,653.711) rotate(-90)">
			<title>工作表.25</title>
			<path d="M0 717.81 L589.61 717.81" class="st3"/>
		</g>
		<g id="shape26-73" v:mID="26" v:groupContext="shape" transform="translate(-693.906,653.366) rotate(-89.9725)">
			<title>工作表.26</title>
			<path d="M0 717.81 L589.61 717.81" class="st3"/>
		</g>
		<g id="shape27-76" v:mID="27" v:groupContext="shape" transform="translate(441.736,1371.53) rotate(180)">
			<title>工作表.27</title>
			<path d="M0 717.81 L417.54 717.81" class="st3"/>
		</g>
		<g id="shape28-79" v:mID="28" v:groupContext="shape" transform="translate(232.539,-557.616)">
			<title>工作表.28</title>
			<desc>大慈</desc>
			<v:textBlock v:margins="rect(4,4,4,4)" v:tabSpace="42.5197"/>
			<v:textRect cx="28.063" cy="689.752" width="56.13" height="56.126"/>
			<rect x="0" y="661.689" width="56.126" height="56.126" class="st1"/>
			<text x="0.25em 2.258em" y="694.55" class="st2" v:langID="1028"><v:paragraph v:horizAlign="4"/><v:tabList/>大慈</text>		</g>
		<g id="shape38-82" v:mID="38" v:groupContext="shape" transform="translate(-490.945,653.711) rotate(-90)">
			<title>工作表.38</title>
			<path d="M0 717.81 L589.61 717.81" class="st3"/>
		</g>
		<g id="shape39-85" v:mID="39" v:groupContext="shape" transform="translate(165.075,-602.97)">
			<title>工作表.39</title>
			<desc>籍貫</desc>
			<v:textBlock v:margins="rect(4,4,4,4)" v:tabSpace="42.5197"/>
			<v:textRect cx="28.063" cy="689.752" width="56.13" height="56.126"/>
			<rect x="0" y="661.689" width="56.126" height="56.126" class="st1"/>
			<text x="0.25em 2.258em" y="694.55" class="st2" v:langID="1028"><v:paragraph v:horizAlign="4"/><v:tabList/>籍貫</text>		</g>
		<g id="shape40-88" v:mID="40" v:groupContext="shape" transform="translate(232.539,-602.97)">
			<title>工作表.40</title>
			<desc>師長</desc>
			<v:textBlock v:margins="rect(4,4,4,4)" v:tabSpace="42.5197"/>
			<v:textRect cx="28.063" cy="689.752" width="56.13" height="56.126"/>
			<rect x="0" y="661.689" width="56.126" height="56.126" class="st1"/>
			<text x="0.25em 2.258em" y="694.55" class="st2" v:langID="1028"><v:paragraph v:horizAlign="4"/><v:tabList/>師長</text>		</g>
		<g id="shape41-91" v:mID="41" v:groupContext="shape" transform="translate(300.004,-563.002)">
			<title>工作表.41</title>
			<desc>生卒情況</desc>
			<v:textBlock v:margins="rect(4,4,4,4)" v:tabSpace="42.5197"/>
			<v:textRect cx="68.0315" cy="649.783" width="136.07" height="136.063"/>
			<rect x="0" y="581.752" width="136.063" height="136.063" class="st1"/>
			<text x="0.25em 2.585em 4.919em 7.254em" y="654.58" class="st2" v:langID="1028"><v:paragraph v:horizAlign="4"/><v:tabList/>生卒情況</text>		</g>
		<g id="shape42-94" v:mID="42" v:groupContext="shape" transform="translate(-423.48,653.711) rotate(-90)">
			<title>工作表.42</title>
			<path d="M0 717.81 L589.61 717.81" class="st3"/>
		</g>
		<g id="shape44-97" v:mID="44" v:groupContext="shape" transform="translate(-276.079,653.711) rotate(-90)">
			<title>工作表.44</title>
			<path d="M0 717.81 L589.61 717.81" class="st3"/>
		</g>
		<g id="shape45-100" v:mID="45" v:groupContext="shape" transform="translate(165.075,-557.616)">
			<title>工作表.45</title>
			<desc>湖北</desc>
			<v:textBlock v:margins="rect(4,4,4,4)" v:tabSpace="42.5197"/>
			<v:textRect cx="28.063" cy="689.752" width="56.13" height="56.126"/>
			<rect x="0" y="661.689" width="56.126" height="56.126" class="st1"/>
			<text x="0.25em 2.258em" y="694.55" class="st2" v:langID="1028"><v:paragraph v:horizAlign="4"/><v:tabList/>湖北</text>		</g>
		<g id="shape46-103" v:mID="46" v:groupContext="shape" transform="translate(165.075,-512.262)">
			<title>工作表.46</title>
			<desc>湖北</desc>
			<v:textBlock v:margins="rect(4,4,4,4)" v:tabSpace="42.5197"/>
			<v:textRect cx="28.063" cy="689.752" width="56.13" height="56.126"/>
			<rect x="0" y="661.689" width="56.126" height="56.126" class="st1"/>
			<text x="0.25em 2.258em" y="694.55" class="st2" v:langID="1028"><v:paragraph v:horizAlign="4"/><v:tabList/>湖北</text>		</g>
		<g id="shape47-106" v:mID="47" v:groupContext="shape" transform="translate(165.075,-466.907)">
			<title>工作表.47</title>
			<desc>河北</desc>
			<v:textBlock v:margins="rect(4,4,4,4)" v:tabSpace="42.5197"/>
			<v:textRect cx="28.063" cy="689.752" width="56.13" height="56.126"/>
			<rect x="0" y="661.689" width="56.126" height="56.126" class="st1"/>
			<text x="0.25em 2.258em" y="694.55" class="st2" v:langID="1028"><v:paragraph v:horizAlign="4"/><v:tabList/>河北</text>		</g>
		<g id="shape48-109" v:mID="48" v:groupContext="shape" transform="translate(165.075,-421.553)">
			<title>工作表.48</title>
			<desc>湖南</desc>
			<v:textBlock v:margins="rect(4,4,4,4)" v:tabSpace="42.5197"/>
			<v:textRect cx="28.063" cy="689.752" width="56.13" height="56.126"/>
			<rect x="0" y="661.689" width="56.126" height="56.126" class="st1"/>
			<text x="0.25em 2.258em" y="694.55" class="st2" v:langID="1028"><v:paragraph v:horizAlign="4"/><v:tabList/>湖南</text>		</g>
		<g id="shape49-112" v:mID="49" v:groupContext="shape" transform="translate(165.075,-376.199)">
			<title>工作表.49</title>
			<desc>湖北</desc>
			<v:textBlock v:margins="rect(4,4,4,4)" v:tabSpace="42.5197"/>
			<v:textRect cx="28.063" cy="689.752" width="56.13" height="56.126"/>
			<rect x="0" y="661.689" width="56.126" height="56.126" class="st1"/>
			<text x="0.25em 2.258em" y="694.55" class="st2" v:langID="1028"><v:paragraph v:horizAlign="4"/><v:tabList/>湖北</text>		</g>
		<g id="shape50-115" v:mID="50" v:groupContext="shape" transform="translate(165.075,-330.844)">
			<title>工作表.50</title>
			<desc>四川</desc>
			<v:textBlock v:margins="rect(4,4,4,4)" v:tabSpace="42.5197"/>
			<v:textRect cx="28.063" cy="689.752" width="56.13" height="56.126"/>
			<rect x="0" y="661.689" width="56.126" height="56.126" class="st1"/>
			<text x="0.25em 2.258em" y="694.55" class="st2" v:langID="1028"><v:paragraph v:horizAlign="4"/><v:tabList/>四川</text>		</g>
		<g id="shape51-118" v:mID="51" v:groupContext="shape" transform="translate(165.075,-285.49)">
			<title>工作表.51</title>
			<desc>河北</desc>
			<v:textBlock v:margins="rect(4,4,4,4)" v:tabSpace="42.5197"/>
			<v:textRect cx="28.063" cy="689.752" width="56.13" height="56.126"/>
			<rect x="0" y="661.689" width="56.126" height="56.126" class="st1"/>
			<text x="0.25em 2.258em" y="694.55" class="st2" v:langID="1028"><v:paragraph v:horizAlign="4"/><v:tabList/>河北</text>		</g>
		<g id="shape52-121" v:mID="52" v:groupContext="shape" transform="translate(232.539,-466.907)">
			<title>工作表.52</title>
			<desc>大慈</desc>
			<v:textBlock v:margins="rect(4,4,4,4)" v:tabSpace="42.5197"/>
			<v:textRect cx="28.063" cy="689.752" width="56.13" height="56.126"/>
			<rect x="0" y="661.689" width="56.126" height="56.126" class="st1"/>
			<text x="0.25em 2.258em" y="694.55" class="st2" v:langID="1028"><v:paragraph v:horizAlign="4"/><v:tabList/>大慈</text>		</g>
		<g id="shape53-124" v:mID="53" v:groupContext="shape" transform="translate(232.539,-421.553)">
			<title>工作表.53</title>
			<desc>大勇</desc>
			<v:textBlock v:margins="rect(4,4,4,4)" v:tabSpace="42.5197"/>
			<v:textRect cx="28.063" cy="689.752" width="56.13" height="56.126"/>
			<rect x="0" y="661.689" width="56.126" height="56.126" class="st1"/>
			<text x="0.25em 2.258em" y="694.55" class="st2" v:langID="1028"><v:paragraph v:horizAlign="4"/><v:tabList/>大勇</text>		</g>
		<g id="shape54-127" v:mID="54" v:groupContext="shape" transform="translate(165.075,-149.427)">
			<title>工作表.54</title>
			<desc>湖北</desc>
			<v:textBlock v:margins="rect(4,4,4,4)" v:tabSpace="42.5197"/>
			<v:textRect cx="28.063" cy="689.752" width="56.13" height="56.126"/>
			<rect x="0" y="661.689" width="56.126" height="56.126" class="st1"/>
			<text x="0.25em 2.258em" y="694.55" class="st2" v:langID="1028"><v:paragraph v:horizAlign="4"/><v:tabList/>湖北</text>		</g>
		<g id="shape55-130" v:mID="55" v:groupContext="shape" transform="translate(165.075,-104.073)">
			<title>工作表.55</title>
			<desc>江西</desc>
			<v:textBlock v:margins="rect(4,4,4,4)" v:tabSpace="42.5197"/>
			<v:textRect cx="28.063" cy="689.752" width="56.13" height="56.126"/>
			<rect x="0" y="661.689" width="56.126" height="56.126" class="st1"/>
			<text x="0.25em 2.258em" y="694.55" class="st2" v:langID="1028"><v:paragraph v:horizAlign="4"/><v:tabList/>江西</text>		</g>
		<g id="shape56-133" v:mID="56" v:groupContext="shape" transform="translate(165.075,-58.7185)">
			<title>工作表.56</title>
			<desc>江西</desc>
			<v:textBlock v:margins="rect(4,4,4,4)" v:tabSpace="42.5197"/>
			<v:textRect cx="28.063" cy="689.752" width="56.13" height="56.126"/>
			<rect x="0" y="661.689" width="56.126" height="56.126" class="st1"/>
			<text x="0.25em 2.258em" y="694.55" class="st2" v:langID="1028"><v:paragraph v:horizAlign="4"/><v:tabList/>江西</text>		</g>
		<g id="shape81-136" v:mID="81" v:groupContext="shape" transform="translate(441.736,827.274) rotate(180)">
			<title>工作表.81</title>
			<path d="M0 717.81 L417.54 717.81" class="st3"/>
		</g>
		<g id="shape37-139" v:mID="37" v:groupContext="shape" transform="translate(29.862,-557.616)">
			<title>工作表.37</title>
			<desc>法宗</desc>
			<v:textBlock v:margins="rect(4,4,4,4)" v:tabSpace="42.5197"/>
			<v:textRect cx="28.063" cy="689.752" width="56.13" height="56.126"/>
			<rect x="0" y="661.689" width="56.126" height="56.126" class="st1"/>
			<text x="0.25em 2.258em" y="694.55" class="st2" v:langID="1028"><v:paragraph v:horizAlign="4"/><v:tabList/>法宗</text>		</g>
		<g id="shape57-142" v:mID="57" v:groupContext="shape" transform="translate(29.862,-512.262)">
			<title>工作表.57</title>
			<desc>法旭</desc>
			<v:textBlock v:margins="rect(4,4,4,4)" v:tabSpace="42.5197"/>
			<v:textRect cx="28.063" cy="689.752" width="56.13" height="56.126"/>
			<rect x="0" y="661.689" width="56.126" height="56.126" class="st1"/>
			<text x="0.25em 2.258em" y="694.55" class="st2" v:langID="1028"><v:paragraph v:horizAlign="4"/><v:tabList/>法旭</text>		</g>
		<g id="shape67-145" v:mID="67" v:groupContext="shape" transform="translate(232.539,-512.262)">
			<title>工作表.67</title>
			<desc>大慈</desc>
			<v:textBlock v:margins="rect(4,4,4,4)" v:tabSpace="42.5197"/>
			<v:textRect cx="28.063" cy="689.752" width="56.13" height="56.126"/>
			<rect x="0" y="661.689" width="56.126" height="56.126" class="st1"/>
			<text x="0.25em 2.258em" y="694.55" class="st2" v:langID="1028"><v:paragraph v:horizAlign="4"/><v:tabList/>大慈</text>		</g>
		<g id="shape80-148" v:mID="80" v:groupContext="shape" transform="translate(29.862,-421.553)">
			<title>工作表.80</title>
			<desc>法光</desc>
			<v:textBlock v:margins="rect(4,4,4,4)" v:tabSpace="42.5197"/>
			<v:textRect cx="28.063" cy="689.752" width="56.13" height="56.126"/>
			<rect x="0" y="661.689" width="56.126" height="56.126" class="st1"/>
			<text x="0.25em 2.258em" y="694.55" class="st2" v:langID="1028"><v:paragraph v:horizAlign="4"/><v:tabList/>法光</text>		</g>
		<g id="shape82-151" v:mID="82" v:groupContext="shape" transform="translate(29.862,-240.136)">
			<title>工作表.82</title>
			<desc>法輪</desc>
			<v:textBlock v:margins="rect(4,4,4,4)" v:tabSpace="42.5197"/>
			<v:textRect cx="28.063" cy="689.752" width="56.13" height="56.126"/>
			<rect x="0" y="661.689" width="56.126" height="56.126" class="st1"/>
			<text x="0.25em 2.258em" y="694.55" class="st2" v:langID="1028"><v:paragraph v:horizAlign="4"/><v:tabList/>法輪</text>		</g>
		<g id="shape29-154" v:mID="29" v:groupContext="shape" transform="translate(232.539,-240.136)">
			<title>工作表.29</title>
			<desc>大勇</desc>
			<v:textBlock v:margins="rect(4,4,4,4)" v:tabSpace="42.5197"/>
			<v:textRect cx="28.063" cy="689.752" width="56.13" height="56.126"/>
			<rect x="0" y="661.689" width="56.126" height="56.126" class="st1"/>
			<text x="0.25em 2.258em" y="694.55" class="st2" v:langID="1028"><v:paragraph v:horizAlign="4"/><v:tabList/>大勇</text>		</g>
		<g id="shape30-157" v:mID="30" v:groupContext="shape" transform="translate(232.539,-149.427)">
			<title>工作表.30</title>
			<desc>大敬</desc>
			<v:textBlock v:margins="rect(4,4,4,4)" v:tabSpace="42.5197"/>
			<v:textRect cx="28.063" cy="689.752" width="56.13" height="56.126"/>
			<rect x="0" y="661.689" width="56.126" height="56.126" class="st1"/>
			<text x="0.25em 2.258em" y="694.55" class="st2" v:langID="1028"><v:paragraph v:horizAlign="4"/><v:tabList/>大敬</text>		</g>
		<g id="group24-160" transform="translate(-270.41,659.38) rotate(-90)" v:mID="24" v:groupContext="group">
			<title>工作表.24</title>
			<g id="shape83-161" v:mID="83" v:groupContext="shape" transform="translate(2.55795E-013,-429.165)">
				<title>工作表.83</title>
				<path d="M0 717.81 L601.23 717.81" class="st4"/>
			</g>
			<g id="shape84-164" v:mID="84" v:groupContext="shape">
				<title>工作表.84</title>
				<path d="M0 717.81 L601.23 717.81" class="st4"/>
			</g>
			<g id="shape85-167" v:mID="85" v:groupContext="shape" transform="translate(-717.815,717.815) rotate(-90)">
				<title>工作表.85</title>
				<path d="M0 717.81 L428.88 717.81" class="st4"/>
			</g>
			<g id="shape86-170" v:mID="86" v:groupContext="shape" transform="translate(-116.587,717.815) rotate(-90)">
				<title>工作表.86</title>
				<path d="M0 717.81 L428.88 717.81" class="st4"/>
			</g>
		</g>
		<g id="shape31-173" v:mID="31" v:groupContext="shape" transform="translate(300.004,-517.648)">
			<title>工作表.31</title>
			<desc>留學拉薩得格西位</desc>
			<v:textBlock v:margins="rect(4,4,4,4)" v:tabSpace="42.5197"/>
			<v:textRect cx="68.0315" cy="649.783" width="136.07" height="136.063"/>
			<rect x="0" y="581.752" width="136.063" height="136.063" class="st1"/>
			<text x="4" y="654.58" class="st2" v:langID="1028"><v:paragraph/><v:tabList/>留學拉薩得格西位</text>		</g>
		<g id="shape32-176" v:mID="32" v:groupContext="shape" transform="translate(300.004,-245.522)">
			<title>工作表.32</title>
			<desc>留學拉薩得格西位</desc>
			<v:textBlock v:margins="rect(4,4,4,4)" v:tabSpace="42.5197"/>
			<v:textRect cx="68.0315" cy="649.783" width="136.07" height="136.063"/>
			<rect x="0" y="581.752" width="136.063" height="136.063" class="st1"/>
			<text x="4" y="654.58" class="st2" v:langID="1028"><v:paragraph/><v:tabList/>留學拉薩得格西位</text>		</g>
		<g id="shape33-179" v:mID="33" v:groupContext="shape" transform="translate(300.004,-428.923)">
			<title>工作表.33</title>
			<desc>二十二年返俗</desc>
			<v:textBlock v:margins="rect(4,4,4,4)" v:tabSpace="42.5197"/>
			<v:textRect cx="68.0315" cy="649.783" width="136.07" height="136.063"/>
			<rect x="0" y="581.752" width="136.063" height="136.063" class="st1"/>
			<text x="4" y="654.58" class="st2" v:langID="1028"><v:paragraph/><v:tabList/>二十二年返俗</text>		</g>
		<g id="shape34-182" v:mID="34" v:groupContext="shape" transform="translate(300.854,-472.293)">
			<title>工作表.34</title>
			<desc>二十四年卒</desc>
			<v:textBlock v:margins="rect(4,4,4,4)" v:tabSpace="42.5197"/>
			<v:textRect cx="68.0315" cy="649.783" width="136.07" height="136.063"/>
			<rect x="0" y="581.752" width="136.063" height="136.063" class="st1"/>
			<text x="4" y="654.58" class="st2" v:langID="1028"><v:paragraph/><v:tabList/>二十四年卒</text>		</g>
		<g id="shape35-185" v:mID="35" v:groupContext="shape" transform="translate(300.004,-381.585)">
			<title>工作表.35</title>
			<desc>二十四年返俗</desc>
			<v:textBlock v:margins="rect(4,4,4,4)" v:tabSpace="42.5197"/>
			<v:textRect cx="68.0315" cy="649.783" width="136.07" height="136.063"/>
			<rect x="0" y="581.752" width="136.063" height="136.063" class="st1"/>
			<text x="4" y="654.58" class="st2" v:langID="1028"><v:paragraph/><v:tabList/>二十四年返俗</text>		</g>
		<g id="shape36-188" v:mID="36" v:groupContext="shape" transform="translate(300.004,-336.23)">
			<title>工作表.36</title>
			<desc>拉薩學法</desc>
			<v:textBlock v:margins="rect(4,4,4,4)" v:tabSpace="42.5197"/>
			<v:textRect cx="68.0315" cy="649.783" width="136.07" height="136.063"/>
			<rect x="0" y="581.752" width="136.063" height="136.063" class="st1"/>
			<text x="4" y="654.58" class="st2" v:langID="1028"><v:paragraph/><v:tabList/>拉薩學法</text>		</g>
		<g id="shape43-191" v:mID="43" v:groupContext="shape" transform="translate(300.004,-290.876)">
			<title>工作表.43</title>
			<desc>二十六年返俗</desc>
			<v:textBlock v:margins="rect(4,4,4,4)" v:tabSpace="42.5197"/>
			<v:textRect cx="68.0315" cy="649.783" width="136.07" height="136.063"/>
			<rect x="0" y="581.752" width="136.063" height="136.063" class="st1"/>
			<text x="4" y="654.58" class="st2" v:langID="1028"><v:paragraph/><v:tabList/>二十六年返俗</text>		</g>
		<g id="shape58-194" v:mID="58" v:groupContext="shape" transform="translate(300.004,-109.459)">
			<title>工作表.58</title>
			<desc>杭州靈隱寺退居</desc>
			<v:textBlock v:margins="rect(4,4,4,4)" v:tabSpace="42.5197"/>
			<v:textRect cx="68.0315" cy="649.783" width="136.07" height="136.063"/>
			<rect x="0" y="581.752" width="136.063" height="136.063" class="st1"/>
			<text x="4" y="654.58" class="st2" v:langID="1028"><v:paragraph/><v:tabList/>杭州靈隱寺退居</text>		</g>
		<g id="shape59-197" v:mID="59" v:groupContext="shape" transform="translate(300.004,-64.1043)">
			<title>工作表.59</title>
			<desc>湖南培元寺住持</desc>
			<v:textBlock v:margins="rect(4,4,4,4)" v:tabSpace="42.5197"/>
			<v:textRect cx="68.0315" cy="649.783" width="136.07" height="136.063"/>
			<rect x="0" y="581.752" width="136.063" height="136.063" class="st1"/>
			<text x="4" y="654.58" class="st2" v:langID="1028"><v:paragraph/><v:tabList/>湖南培元寺住持</text>		</g>
		<g id="shape60-200" v:mID="60" v:groupContext="shape" transform="translate(300.004,-18.75)">
			<title>工作表.60</title>
			<desc>湖南羅漢寺僧職</desc>
			<v:textBlock v:margins="rect(4,4,4,4)" v:tabSpace="42.5197"/>
			<v:textRect cx="68.0315" cy="649.783" width="136.07" height="136.063"/>
			<rect x="0" y="581.752" width="136.063" height="136.063" class="st1"/>
			<text x="4" y="654.58" class="st2" v:langID="1028"><v:paragraph/><v:tabList/>湖南羅漢寺僧職</text>		</g>
	</g>
</svg>
