<?xml version="1.0" encoding="UTF-8" standalone="no"?>
<!DOCTYPE svg PUBLIC "-//W3C//DTD SVG 1.1//EN" "http://www.w3.org/Graphics/SVG/1.1/DTD/svg11.dtd">
<!-- 由 Microsoft Visio, SVG Export 產生 y42.0232.svg 頁-1 -->
<svg xmlns="http://www.w3.org/2000/svg" xmlns:xlink="http://www.w3.org/1999/xlink" xmlns:ev="http://www.w3.org/2001/xml-events"
		width="6.10646in" height="1.86039in" viewBox="0 0 439.665 133.948" xml:space="preserve" color-interpolation-filters="sRGB"
		class="st4">
	<title>y12.0226</title>

	<style type="text/css">
	<![CDATA[
		.st1 {fill:none;stroke:none;stroke-linecap:round;stroke-linejoin:round;stroke-width:0.72}
		.st2 {fill:#000000;font-family:新細明體;font-size:1.33333em}
		.st3 {stroke:#000000;stroke-linecap:round;stroke-linejoin:round;stroke-width:0.72}
		.st4 {fill:none;fill-rule:evenodd;font-size:12px;overflow:visible;stroke-linecap:square;stroke-miterlimit:3}
	]]>
	</style>

	<g>
		<title>頁-1</title>
		<g id="group21-1" transform="translate(0.36,-0.36)">
			<title>工作表.21</title>
			<g id="shape1-2" transform="translate(-3.9968E-14,-113.386)">
				<title>工作表.1</title>
				<desc>正見</desc>
				<rect x="0" y="114.106" width="43.4016" height="19.8425" class="st1"/>
				<text x="5.7" y="129.01" class="st2">正見</text>			</g>
			<g id="shape2-5" transform="translate(2.48031,-85.0394)">
				<title>工作表.2</title>
				<desc>正思、正語、正業、正命</desc>
				<rect x="0" y="114.106" width="185.134" height="19.8425" class="st1"/>
				<text x="4.57" y="129.01" class="st2">正思、正語、正業、正命</text>			</g>
			<g id="shape3-8" transform="translate(0.354331,-28.3465)">
				<title>工作表.3</title>
				<desc>正勤、正念、正定</desc>
				<rect x="0" y="114.106" width="138.362" height="19.8425" class="st1"/>
				<text x="5.18" y="129.01" class="st2">正勤、正念、正定</text>			</g>
			<g id="shape4-11" transform="translate(229.252,0)">
				<title>工作表.4</title>
				<desc>現證慧位</desc>
				<rect x="0" y="114.106" width="73.1654" height="19.8425" class="st1"/>
				<text x="4.58" y="129.01" class="st2">現證慧位</text>			</g>
			<g id="shape5-14" transform="translate(229.252,-56.6929)">
				<title>工作表.5</title>
				<desc>修慧位</desc>
				<rect x="0" y="114.106" width="73.1654" height="19.8425" class="st1"/>
				<text x="0.25em 1.786em 3.323em" y="129.01" class="st2">修慧位</text>			</g>
			<g id="shape6-17" transform="translate(229.252,-85.0394)">
				<title>工作表.6</title>
				<desc>思慧位</desc>
				<rect x="0" y="114.106" width="73.1654" height="19.8425" class="st1"/>
				<text x="0.25em 1.786em 3.323em" y="129.01" class="st2">思慧位</text>			</g>
			<g id="shape7-20" transform="translate(229.252,-113.386)">
				<title>工作表.7</title>
				<desc>聞慧位</desc>
				<rect x="0" y="114.106" width="73.1654" height="19.8425" class="st1"/>
				<text x="0.25em 1.786em 3.323em" y="129.01" class="st2">聞慧位</text>			</g>
			<g id="shape8-23" transform="translate(365.78,-85.0394)">
				<title>工作表.8</title>
				<desc>戒增上學</desc>
				<rect x="0" y="114.106" width="73.1654" height="19.8425" class="st1"/>
				<text x="4.58" y="129.01" class="st2">戒增上學</text>			</g>
			<g id="shape9-26" transform="translate(365.78,-56.6929)">
				<title>工作表.9</title>
				<desc>定增上學</desc>
				<rect x="0" y="114.106" width="73.1654" height="19.8425" class="st1"/>
				<text x="4.58" y="129.01" class="st2">定增上學</text>			</g>
			<g id="shape10-29" transform="translate(365.78,-28.3465)">
				<title>工作表.10</title>
				<desc>慧增上學</desc>
				<rect x="0" y="114.106" width="73.1654" height="19.8425" class="st1"/>
				<text x="4.58" y="129.01" class="st2">慧增上學</text>			</g>
			<g id="shape11-32" transform="translate(365.78,-4.54747E-13)">
				<title>工作表.11</title>
				<desc>得解脫</desc>
				<rect x="0" y="114.106" width="73.1654" height="19.8425" class="st1"/>
				<text x="0.25em 1.786em 3.323em" y="129.01" class="st2">得解脫</text>			</g>
			<g id="shape12-35" transform="translate(304.335,-94.9606)">
				<title>工作表.12</title>
				<path d="M0 133.95 L62.36 133.95" class="st3"/>
			</g>
			<g id="shape13-38" transform="translate(304.335,-66.6142)">
				<title>工作表.13</title>
				<path d="M0 133.95 L62.36 133.95" class="st3"/>
			</g>
			<g id="shape14-41" transform="translate(304.335,-9.92126)">
				<title>工作表.14</title>
				<path d="M0 133.95 L62.36 133.95" class="st3"/>
			</g>
			<g id="shape16-44" transform="translate(248.906,2.085) rotate(-24.444)">
				<title>工作表.16</title>
				<path d="M0 133.95 L68.5 133.95" class="st3"/>
			</g>
			<g id="shape17-47" transform="translate(359.763,-54.6079) rotate(24.444)">
				<title>工作表.17</title>
				<path d="M0 133.95 L68.5 133.95" class="st3"/>
			</g>
			<g id="shape15-50" transform="translate(185.28,-94.9606)">
				<title>工作表.15</title>
				<path d="M0 133.95 L42.52 133.95" class="st3"/>
			</g>
			<g id="shape18-53" transform="translate(42.374,-123.307)">
				<title>工作表.18</title>
				<path d="M0 133.95 L185.43 133.95" class="st3"/>
			</g>
			<g id="shape19-56" transform="translate(97.704,-32.0492) rotate(-17.527)">
				<title>工作表.19</title>
				<path d="M0 133.95 L94.13 133.95" class="st3"/>
			</g>
			<g id="shape20-59" transform="translate(178.383,-32.0492) rotate(17.527)">
				<title>工作表.20</title>
				<path d="M0 133.95 L94.13 133.95" class="st3"/>
			</g>
		</g>
	</g>
</svg>
