<?xml version="1.0" encoding="UTF-8" standalone="no"?>
<!DOCTYPE svg PUBLIC "-//W3C//DTD SVG 1.0//EN" "http://www.w3.org/TR/2001/REC-SVG-20010904/DTD/svg10.dtd">
<!-- 由 Microsoft Visio 11.0, SVG Export, v1.0 產生 y42.0266-h.svg Page-1 -->
<svg xmlns="http://www.w3.org/2000/svg" xmlns:xlink="http://www.w3.org/1999/xlink" xmlns:ev="http://www.w3.org/2001/xml-events"
		xmlns:v="http://schemas.microsoft.com/visio/2003/SVGExtensions/" width="6.58299in" height="3.42693in"
		viewBox="0 0 473.975 246.739" xml:space="preserve" color-interpolation-filters="sRGB" class="st6">
	<title>y12.0256</title>
	<v:documentProperties v:langID="1028" v:metric="true" v:viewMarkup="false">
		<v:userDefs>
			<v:ud v:nameU="CPMState" v:prompt="" v:val="VT4(67108992,857,50,198,200,0)"/>
		</v:userDefs>
	</v:documentProperties>

	<style type="text/css">
	<![CDATA[
		.st1 {fill:none;stroke:none;stroke-linecap:round;stroke-linejoin:round;stroke-width:0.72}
		.st2 {fill:#000000;font-family:新細明體;font-size:1.33333em}
		.st3 {stroke:#000000;stroke-linecap:round;stroke-linejoin:round;stroke-width:0.72}
		.st4 {stroke:#000000;stroke-dasharray:5.04,3.6;stroke-linecap:round;stroke-linejoin:round;stroke-width:0.72}
		.st5 {stroke:#ffffff;stroke-linecap:round;stroke-linejoin:round;stroke-width:0.72}
		.st6 {fill:none;fill-rule:evenodd;font-size:12px;overflow:visible;stroke-linecap:square;stroke-miterlimit:3}
	]]>
	</style>

	<g v:mID="0" v:index="1" v:groupContext="foregroundPage">
		<title>Page-1</title>
		<v:pageProperties v:drawingScale="0.0393701" v:pageScale="0.0393701" v:drawingUnits="24" v:shadowOffsetX="8.50394"
				v:shadowOffsetY="-8.50394"/>
		<g id="shape1-1" v:mID="1" v:groupContext="shape" transform="translate(23.8027,-74.3499)">
			<title>工作表.1</title>
			<desc>直入</desc>
			<v:textBlock v:margins="rect(4,4,4,4)" v:tabSpace="42.5197"/>
			<v:textRect cx="21.2598" cy="226.066" width="42.52" height="41.3465"/>
			<rect x="0" y="205.393" width="42.5197" height="41.3465" class="st1"/>
			<text x="5.26" y="231.05" class="st2" v:langID="1028"><v:paragraph v:horizAlign="1"/><v:tabList/>直入</text>		</g>
		<g id="shape2-4" v:mID="2" v:groupContext="shape" transform="translate(23.8027,-116.87)">
			<title>工作表.2</title>
			<desc>迴入</desc>
			<v:textBlock v:margins="rect(4,4,4,4)" v:tabSpace="42.5197"/>
			<v:textRect cx="21.2598" cy="226.066" width="42.52" height="41.3465"/>
			<rect x="0" y="205.393" width="42.5197" height="41.3465" class="st1"/>
			<text x="5.26" y="231.05" class="st2" v:langID="1028"><v:paragraph v:horizAlign="1"/><v:tabList/>迴入</text>		</g>
		<g id="shape3-7" v:mID="3" v:groupContext="shape" transform="translate(94.9365,-75.4129)">
			<title>工作表.3</title>
			<desc>依聲聞乘行而入佛道</desc>
			<v:textBlock v:margins="rect(4,4,4,4)" v:tabSpace="42.5197"/>
			<v:textRect cx="76.622" cy="170.436" width="153.25" height="152.606"/>
			<rect x="0" y="94.1329" width="153.244" height="152.606" class="st1"/>
			<text x="4.62" y="175.42" class="st2" v:langID="1028"><v:paragraph v:horizAlign="1"/><v:tabList/>依聲聞乘行而入佛道</text>		</g>
		<g id="shape4-10" v:mID="4" v:groupContext="shape" transform="translate(94.9365,-47.0665)">
			<title>工作表.4</title>
			<desc>依天乘行而入佛道</desc>
			<v:textBlock v:margins="rect(4,4,4,4)" v:tabSpace="42.5197"/>
			<v:textRect cx="76.622" cy="170.436" width="153.25" height="152.606"/>
			<rect x="0" y="94.1329" width="153.244" height="152.606" class="st1"/>
			<text x="0.25em 1.404em 2.558em 3.712em 4.866em 6.02em 7.174em 8.328em" y="175.42" class="st2" v:langID="1028"><v:paragraph
						v:horizAlign="4"/><v:tabList/>依天乘行而入佛道</text>		</g>
		<g id="shape5-13" v:mID="5" v:groupContext="shape" transform="translate(94.9365,-18.72)">
			<title>工作表.5</title>
			<desc>依人乘行而入佛道</desc>
			<v:textBlock v:margins="rect(4,4,4,4)" v:tabSpace="42.5197"/>
			<v:textRect cx="76.622" cy="170.436" width="153.25" height="152.606"/>
			<rect x="0" y="94.1329" width="153.244" height="152.606" class="st1"/>
			<text x="0.25em 1.404em 2.558em 3.712em 4.866em 6.02em 7.174em 8.328em" y="175.42" class="st2" v:langID="1028"><v:paragraph
						v:horizAlign="4"/><v:tabList/>依人乘行而入佛道</text>		</g>
		<g id="shape6-16" v:mID="6" v:groupContext="shape" transform="translate(278.834,-115.098)">
			<title>工作表.6</title>
			<desc>智慧增上</desc>
			<v:textBlock v:margins="rect(4,4,4,4)" v:tabSpace="42.5197"/>
			<v:textRect cx="37.2913" cy="210.121" width="74.59" height="73.2362"/>
			<rect x="0" y="173.503" width="74.5827" height="73.2362" class="st1"/>
			<text x="5.29" y="215.1" class="st2" v:langID="1028"><v:paragraph v:horizAlign="1"/><v:tabList/>智慧增上</text>		</g>
		<g id="shape7-19" v:mID="7" v:groupContext="shape" transform="translate(278.834,-86.7515)">
			<title>工作表.7</title>
			<desc>信願增上</desc>
			<v:textBlock v:margins="rect(4,4,4,4)" v:tabSpace="42.5197"/>
			<v:textRect cx="37.2913" cy="210.121" width="74.59" height="73.2362"/>
			<rect x="0" y="173.503" width="74.5827" height="73.2362" class="st1"/>
			<text x="5.29" y="215.1" class="st2" v:langID="1028"><v:paragraph v:horizAlign="1"/><v:tabList/>信願增上</text>		</g>
		<g id="shape8-22" v:mID="8" v:groupContext="shape" transform="translate(278.834,-58.405)">
			<title>工作表.8</title>
			<desc>慈悲增上</desc>
			<v:textBlock v:margins="rect(4,4,4,4)" v:tabSpace="42.5197"/>
			<v:textRect cx="37.2913" cy="210.121" width="74.59" height="73.2362"/>
			<rect x="0" y="173.503" width="74.5827" height="73.2362" class="st1"/>
			<text x="5.29" y="215.1" class="st2" v:langID="1028"><v:paragraph v:horizAlign="1"/><v:tabList/>慈悲增上</text>		</g>
		<g id="shape9-25" v:mID="9" v:groupContext="shape" transform="translate(378.047,-86.7515)">
			<title>工作表.9</title>
			<desc>同歸佛道</desc>
			<v:textBlock v:margins="rect(4,4,4,4)" v:tabSpace="42.5197"/>
			<v:textRect cx="37.2913" cy="210.121" width="74.59" height="73.2362"/>
			<rect x="0" y="173.503" width="74.5827" height="73.2362" class="st1"/>
			<text x="5.29" y="215.1" class="st2" v:langID="1028"><v:paragraph v:horizAlign="1"/><v:tabList/>同歸佛道</text>		</g>
		<g id="shape10-28" v:mID="10" v:groupContext="shape" transform="translate(66.909,-95.0231)">
			<title>工作表.10</title>
			<path d="M0 246.74 L28.35 246.74" class="st3"/>
		</g>
		<g id="shape11-31" v:mID="11" v:groupContext="shape" transform="translate(-43.4362,-111.494) rotate(-26.5651)">
			<title>工作表.11</title>
			<path d="M0 246.74 L31.69 246.74" class="st3"/>
		</g>
		<g id="shape12-34" v:mID="12" v:groupContext="shape" transform="translate(177.254,-111.494) rotate(26.5651)">
			<title>工作表.12</title>
			<path d="M0 246.74 L31.69 246.74" class="st3"/>
		</g>
		<g id="shape13-37" v:mID="13" v:groupContext="shape" transform="translate(248.326,-151.716)">
			<title>工作表.13</title>
			<path d="M0 246.74 L31.18 246.74" class="st3"/>
		</g>
		<g id="shape14-40" v:mID="14" v:groupContext="shape" transform="translate(248.326,-123.37)">
			<title>工作表.14</title>
			<path d="M0 246.74 L31.18 246.74" class="st3"/>
		</g>
		<g id="shape15-43" v:mID="15" v:groupContext="shape" transform="translate(248.326,-95.0231)">
			<title>工作表.15</title>
			<path d="M0 246.74 L31.18 246.74" class="st3"/>
		</g>
		<g id="shape16-46" v:mID="16" v:groupContext="shape" transform="translate(82.3515,-30.8562) rotate(-42.2737)">
			<title>工作表.16</title>
			<path d="M0 246.74 L42.14 246.74" class="st4"/>
		</g>
		<g id="shape17-49" v:mID="17" v:groupContext="shape" transform="translate(32.1295,32.8078) rotate(-61.1892)">
			<title>工作表.17</title>
			<path d="M0 246.74 L64.7 246.74" class="st4"/>
		</g>
		<g id="shape18-52" v:mID="18" v:groupContext="shape" transform="translate(414.301,-59.2026) rotate(42.2737)">
			<title>工作表.18</title>
			<path d="M0 246.74 L42.14 246.74" class="st4"/>
		</g>
		<g id="shape19-55" v:mID="19" v:groupContext="shape" transform="translate(82.3515,-59.2026) rotate(-42.2737)">
			<title>工作表.19</title>
			<path d="M0 246.74 L42.14 246.74" class="st4"/>
		</g>
		<g id="shape20-58" v:mID="20" v:groupContext="shape" transform="translate(414.301,-87.5491) rotate(42.2737)">
			<title>工作表.20</title>
			<path d="M0 246.74 L42.14 246.74" class="st4"/>
		</g>
		<g id="shape21-61" v:mID="21" v:groupContext="shape" transform="translate(464.523,-23.8851) rotate(61.1892)">
			<title>工作表.21</title>
			<path d="M0 246.74 L64.7 246.74" class="st4"/>
		</g>
		<g id="shape22-64" v:mID="22" v:groupContext="shape" transform="translate(524.845,-79.4478) rotate(45)">
			<title>工作表.22</title>
			<path d="M0 246.74 L40.09 246.74" class="st3"/>
		</g>
		<g id="shape23-67" v:mID="23" v:groupContext="shape" transform="translate(350.374,-123.37)">
			<title>工作表.23</title>
			<path d="M0 246.74 L28.35 246.74" class="st3"/>
		</g>
		<g id="shape24-70" v:mID="24" v:groupContext="shape" transform="translate(175.903,-22.7549) rotate(-45)">
			<title>工作表.24</title>
			<path d="M0 246.74 L40.09 246.74" class="st3"/>
		</g>
		<g id="group29-73" transform="translate(208.516,168.724) rotate(-90)" v:mID="29" v:groupContext="group">
			<title>工作表.29</title>
			<g id="shape25-74" v:mID="25" v:groupContext="shape" transform="translate(1.27898E-013,-436.535)">
				<title>工作表.25</title>
				<path d="M0 246.74 L93.54 246.74" class="st5"/>
			</g>
			<g id="shape26-77" v:mID="26" v:groupContext="shape">
				<title>工作表.26</title>
				<path d="M0 246.74 L93.54 246.74" class="st5"/>
			</g>
			<g id="shape27-80" v:mID="27" v:groupContext="shape" transform="translate(-153.196,246.739) rotate(-90)">
				<title>工作表.27</title>
				<path d="M0 246.74 L436.54 246.74" class="st5"/>
			</g>
			<g id="shape28-83" v:mID="28" v:groupContext="shape" transform="translate(-246.739,246.739) rotate(-90)">
				<title>工作表.28</title>
				<path d="M0 246.74 L436.54 246.74" class="st5"/>
			</g>
		</g>
	</g>
</svg>
