<?xml version="1.0" encoding="UTF-8" standalone="no"?>
<!DOCTYPE svg PUBLIC "-//W3C//DTD SVG 1.1//EN" "http://www.w3.org/Graphics/SVG/1.1/DTD/svg11.dtd">
<!-- 由 Microsoft Visio, SVG Export 產生 y42.0148.svg 頁-1 -->
<svg xmlns="http://www.w3.org/2000/svg" xmlns:xlink="http://www.w3.org/1999/xlink" xmlns:ev="http://www.w3.org/2001/xml-events"
		width="4.52367in" height="2.6478in" viewBox="0 0 325.704 190.641" xml:space="preserve" color-interpolation-filters="sRGB"
		class="st4">
	

	<style type="text/css">
	<![CDATA[
		.st1 {fill:none;stroke:none;stroke-linecap:round;stroke-linejoin:round;stroke-width:0.72}
		.st2 {fill:#000000;font-family:新細明體;font-size:1.33333em}
		.st3 {stroke:#000000;stroke-linecap:round;stroke-linejoin:round;stroke-width:0.72}
		.st4 {fill:none;fill-rule:evenodd;font-size:12px;overflow:visible;stroke-linecap:square;stroke-miterlimit:3}
	]]>
	</style>

	<g>
		<title>頁-1</title>
		<g id="group25-1" transform="translate(0.36,-0.36)">
			<title>工作表.25</title>
			<g id="shape1-2" transform="translate(236.228,-170.079)">
				<title>工作表.1</title>
				<desc>所求不得苦</desc>
				<rect x="0" y="170.799" width="88.7559" height="19.8425" class="st1"/>
				<text x="4.38" y="185.7" class="st2">所求不得苦</text>			</g>
			<g id="shape2-5" transform="translate(236.228,-139.874)">
				<title>工作表.2</title>
				<desc>怨憎聚會苦</desc>
				<rect x="0" y="170.799" width="88.7559" height="19.8425" class="st1"/>
				<text x="4.38" y="185.7" class="st2">怨憎聚會苦</text>			</g>
			<g id="shape3-8" transform="translate(236.228,-111.528)">
				<title>工作表.3</title>
				<desc>恩愛別離苦</desc>
				<rect x="0" y="170.799" width="88.7559" height="19.8425" class="st1"/>
				<text x="4.38" y="185.7" class="st2">恩愛別離苦</text>			</g>
			<g id="shape4-11" transform="translate(237.646,-85.0394)">
				<title>工作表.4</title>
				<desc>生苦</desc>
				<rect x="0" y="170.799" width="40.5669" height="19.8425" class="st1"/>
				<text x="4.28" y="185.7" class="st2">生苦</text>			</g>
			<g id="shape5-14" transform="translate(237.646,-56.6929)">
				<title>工作表.5</title>
				<desc>老苦</desc>
				<rect x="0" y="170.799" width="40.5669" height="19.8425" class="st1"/>
				<text x="4.28" y="185.7" class="st2">老苦</text>			</g>
			<g id="shape6-17" transform="translate(237.646,-28.3465)">
				<title>工作表.6</title>
				<desc>病苦</desc>
				<rect x="0" y="170.799" width="40.5669" height="19.8425" class="st1"/>
				<text x="4.28" y="185.7" class="st2">病苦</text>			</g>
			<g id="shape7-20" transform="translate(237.646,-2.84217E-14)">
				<title>工作表.7</title>
				<desc>死苦</desc>
				<rect x="0" y="170.799" width="40.5669" height="19.8425" class="st1"/>
				<text x="4.28" y="185.7" class="st2">死苦</text>			</g>
			<g id="shape8-23" transform="translate(86.811,-170.079)">
				<title>工作表.8</title>
				<desc>對外物所引起的</desc>
				<rect x="0" y="170.799" width="121.354" height="19.8425" class="st1"/>
				<text x="4.68" y="185.7" class="st2">對外物所引起的</text>			</g>
			<g id="shape9-26" transform="translate(86.811,-127.559)">
				<title>工作表.9</title>
				<desc>對社會所引起的</desc>
				<rect x="0" y="170.799" width="121.354" height="19.8425" class="st1"/>
				<text x="4.68" y="185.7" class="st2">對社會所引起的</text>			</g>
			<g id="shape10-29" transform="translate(86.811,-42.5197)">
				<title>工作表.10</title>
				<desc>對身心所引起的</desc>
				<rect x="0" y="170.799" width="121.354" height="19.8425" class="st1"/>
				<text x="4.68" y="185.7" class="st2">對身心所引起的</text>			</g>
			<g id="shape11-32" transform="translate(4.79616E-14,-106.299)">
				<title>工作表.11</title>
				<desc>五取蘊苦</desc>
				<rect x="0" y="170.799" width="72.4567" height="19.8425" class="st1"/>
				<text x="4.23" y="185.7" class="st2">五取蘊苦</text>			</g>
			<g id="shape12-35" transform="translate(229.461,-9.92126)">
				<title>工作表.12</title>
				<path d="M0 190.64 L7.09 190.64" class="st3"/>
			</g>
			<g id="shape13-38" transform="translate(229.461,-94.9606)">
				<title>工作表.13</title>
				<path d="M0 190.64 L7.09 190.64" class="st3"/>
			</g>
			<g id="shape14-41" transform="translate(229.461,-123.307)">
				<title>工作表.14</title>
				<path d="M0 190.64 L7.09 190.64" class="st3"/>
			</g>
			<g id="shape15-44" transform="translate(229.461,-151.654)">
				<title>工作表.15</title>
				<path d="M0 190.64 L7.09 190.64" class="st3"/>
			</g>
			<g id="shape16-47" transform="translate(80.6417,-52.4409)">
				<title>工作表.16</title>
				<path d="M0 190.64 L7.09 190.64" class="st3"/>
			</g>
			<g id="shape17-50" transform="translate(80.6417,-180)">
				<title>工作表.17</title>
				<path d="M0 190.64 L7.09 190.64" class="st3"/>
			</g>
			<g id="shape18-53" transform="translate(38.8194,180.72) rotate(-90)">
				<title>工作表.18</title>
				<path d="M0 190.64 L85.04 190.64" class="st3"/>
			</g>
			<g id="shape19-56" transform="translate(38.8194,67.3342) rotate(-90)">
				<title>工作表.19</title>
				<path d="M0 190.64 L28.35 190.64" class="st3"/>
			</g>
			<g id="shape20-59" transform="translate(-110,138.2) rotate(-90)">
				<title>工作表.20</title>
				<path d="M0 190.64 L127.56 190.64" class="st3"/>
			</g>
			<g id="shape21-62" transform="translate(73.5551,-116.22)">
				<title>工作表.21</title>
				<path d="M0 190.64 L7.09 190.64" class="st3"/>
			</g>
			<g id="shape22-65" transform="translate(208.201,-52.4409)">
				<title>工作表.22</title>
				<path d="M0 190.64 L21.26 190.64" class="st3"/>
			</g>
			<g id="shape23-68" transform="translate(208.201,-137.48)">
				<title>工作表.23</title>
				<path d="M0 190.64 L21.26 190.64" class="st3"/>
			</g>
			<g id="shape24-71" transform="translate(236.547,201.283) rotate(180)">
				<title>工作表.24</title>
				<path d="M0 190.64 L28.35 190.64" class="st3"/>
			</g>
		</g>
	</g>
</svg>
