<?xml version="1.0" encoding="UTF-8" standalone="no"?>
<!DOCTYPE svg PUBLIC "-//W3C//DTD SVG 1.0//EN" "http://www.w3.org/TR/2001/REC-SVG-20010904/DTD/svg10.dtd">
<!-- 由 Microsoft Visio 11.0, SVG Export, v1.0 產生 y16.0099-h.svg Page-1 -->
<svg xmlns="http://www.w3.org/2000/svg" xmlns:xlink="http://www.w3.org/1999/xlink" xmlns:ev="http://www.w3.org/2001/xml-events"
		xmlns:v="http://schemas.microsoft.com/visio/2003/SVGExtensions/" width="7.0948in" height="2.54111in"
		viewBox="0 0 510.826 182.96" xml:space="preserve" color-interpolation-filters="sRGB" class="st5">
	<title>y16.0099</title>
	<v:documentProperties v:langID="1028" v:metric="true" v:viewMarkup="false"/>

	<style type="text/css">
	<![CDATA[
		.st1 {fill:none;stroke:none;stroke-linecap:round;stroke-linejoin:round;stroke-width:0.72}
		.st2 {fill:#000000;font-family:新細明體;font-size:1.33333em}
		.st3 {stroke:#000000;stroke-linecap:round;stroke-linejoin:round;stroke-width:0.72}
		.st4 {stroke:#ffffff;stroke-linecap:round;stroke-linejoin:round;stroke-width:0.72}
		.st5 {fill:none;fill-rule:evenodd;font-size:12px;overflow:visible;stroke-linecap:square;stroke-miterlimit:3}
	]]>
	</style>

	<g v:mID="0" v:index="1" v:groupContext="foregroundPage">
		<title>Page-1</title>
		<v:pageProperties v:drawingScale="0.0393701" v:pageScale="0.0393701" v:drawingUnits="24" v:shadowOffsetX="8.50394"
				v:shadowOffsetY="-8.50394"/>
		<g id="shape1-1" v:mID="1" v:groupContext="shape" transform="translate(25.9523,-27.2239)">
			<title>工作表.1</title>
			<desc>法──因緣</desc>
			<v:textBlock v:margins="rect(4,4,4,4)" v:tabSpace="42.5197"/>
			<v:textRect cx="44.378" cy="138.546" width="88.76" height="88.8268"/>
			<rect x="0" y="94.1329" width="88.7559" height="88.8268" class="st1"/>
			<text x="4.38" y="143.53" class="st2" v:langID="1028"><v:paragraph v:horizAlign="1"/><v:tabList/>法──因緣</text>		</g>
		<g id="shape2-4" v:mID="2" v:groupContext="shape" transform="translate(328.318,-110.614)">
			<title>工作表.2</title>
			<desc>苦諦</desc>
			<v:textBlock v:margins="rect(4,4,4,4)" v:tabSpace="42.5197"/>
			<v:textRect cx="20.2835" cy="161.7" width="40.57" height="42.5197"/>
			<rect x="0" y="140.44" width="40.5669" height="42.5197" class="st1"/>
			<text x="4.28" y="166.68" class="st2" v:langID="1028"><v:paragraph v:horizAlign="1"/><v:tabList/>苦諦</text>		</g>
		<g id="shape3-7" v:mID="3" v:groupContext="shape" transform="translate(328.318,-82.2672)">
			<title>工作表.3</title>
			<desc>集諦</desc>
			<v:textBlock v:margins="rect(4,4,4,4)" v:tabSpace="42.5197"/>
			<v:textRect cx="20.2835" cy="161.7" width="40.57" height="42.5197"/>
			<rect x="0" y="140.44" width="40.5669" height="42.5197" class="st1"/>
			<text x="4.28" y="166.68" class="st2" v:langID="1028"><v:paragraph v:horizAlign="1"/><v:tabList/>集諦</text>		</g>
		<g id="shape4-10" v:mID="4" v:groupContext="shape" transform="translate(328.318,-53.9208)">
			<title>工作表.4</title>
			<desc>滅諦</desc>
			<v:textBlock v:margins="rect(4,4,4,4)" v:tabSpace="42.5197"/>
			<v:textRect cx="20.2835" cy="161.7" width="40.57" height="42.5197"/>
			<rect x="0" y="140.44" width="40.5669" height="42.5197" class="st1"/>
			<text x="4.28" y="166.68" class="st2" v:langID="1028"><v:paragraph v:horizAlign="1"/><v:tabList/>滅諦</text>		</g>
		<g id="shape5-13" v:mID="5" v:groupContext="shape" transform="translate(328.318,-25.5743)">
			<title>工作表.5</title>
			<desc>道諦</desc>
			<v:textBlock v:margins="rect(4,4,4,4)" v:tabSpace="42.5197"/>
			<v:textRect cx="20.2835" cy="161.7" width="40.57" height="42.5197"/>
			<rect x="0" y="140.44" width="40.5669" height="42.5197" class="st1"/>
			<text x="4.28" y="166.68" class="st2" v:langID="1028"><v:paragraph v:horizAlign="1"/><v:tabList/>道諦</text>		</g>
		<g id="shape6-16" v:mID="6" v:groupContext="shape" transform="translate(411.795,-81.4365)">
			<title>工作表.6</title>
			<desc>世間因果</desc>
			<v:textBlock v:margins="rect(4,4,4,4)" v:tabSpace="42.5197"/>
			<v:textRect cx="36.8504" cy="146.696" width="73.71" height="72.5276"/>
			<rect x="0" y="110.432" width="73.7008" height="72.5276" class="st1"/>
			<text x="4.85" y="151.68" class="st2" v:langID="1028"><v:paragraph v:horizAlign="1"/><v:tabList/>世間因果</text>		</g>
		<g id="shape7-19" v:mID="7" v:groupContext="shape" transform="translate(411.795,-24.7436)">
			<title>工作表.7</title>
			<desc>出世因果</desc>
			<v:textBlock v:margins="rect(4,4,4,4)" v:tabSpace="42.5197"/>
			<v:textRect cx="36.8504" cy="146.696" width="73.71" height="72.5276"/>
			<rect x="0" y="110.432" width="73.7008" height="72.5276" class="st1"/>
			<text x="4.85" y="151.68" class="st2" v:langID="1028"><v:paragraph v:horizAlign="1"/><v:tabList/>出世因果</text>		</g>
		<g id="shape8-22" v:mID="8" v:groupContext="shape" transform="translate(216.118,-71.1609)">
			<title>工作表.8</title>
			<desc>緣起而緣生</desc>
			<v:textBlock v:margins="rect(4,4,4,4)" v:tabSpace="42.5197"/>
			<v:textRect cx="44.378" cy="136.42" width="88.76" height="93.0787"/>
			<rect x="0" y="89.8809" width="88.7559" height="93.0787" class="st1"/>
			<text x="4.38" y="141.4" class="st2" v:langID="1028"><v:paragraph v:horizAlign="1"/><v:tabList/>緣起而緣生</text>		</g>
		<g id="shape9-25" v:mID="9" v:groupContext="shape" transform="translate(216.118,-28.6413)">
			<title>工作表.9</title>
			<desc>緣起而寂滅</desc>
			<v:textBlock v:margins="rect(4,4,4,4)" v:tabSpace="42.5197"/>
			<v:textRect cx="44.378" cy="136.42" width="88.76" height="93.0787"/>
			<rect x="0" y="89.8809" width="88.7559" height="93.0787" class="st1"/>
			<text x="4.38" y="141.4" class="st2" v:langID="1028"><v:paragraph v:horizAlign="1"/><v:tabList/>緣起而寂滅</text>		</g>
		<g id="shape10-28" v:mID="10" v:groupContext="shape" transform="translate(141.354,-68.3263)">
			<title>工作表.10</title>
			<desc>緣起法</desc>
			<v:textBlock v:margins="rect(4,4,4,4)" v:tabSpace="42.5197"/>
			<v:textRect cx="29.8504" cy="154.846" width="59.71" height="56.2283"/>
			<rect x="0" y="126.731" width="59.7008" height="56.2283" class="st1"/>
			<text x="5.85" y="159.83" class="st2" v:langID="1028"><v:paragraph v:horizAlign="1"/><v:tabList/>緣起法</text>		</g>
		<g id="shape11-31" v:mID="11" v:groupContext="shape" transform="translate(141.586,-18.72)">
			<title>工作表.11</title>
			<desc>聖道法</desc>
			<v:textBlock v:margins="rect(4,4,4,4)" v:tabSpace="42.5197"/>
			<v:textRect cx="29.8504" cy="154.846" width="59.71" height="56.2283"/>
			<rect x="0" y="126.731" width="59.7008" height="56.2283" class="st1"/>
			<text x="5.85" y="159.83" class="st2" v:langID="1028"><v:paragraph v:horizAlign="1"/><v:tabList/>聖道法</text>		</g>
		<g id="shape12-34" v:mID="12" v:groupContext="shape" transform="translate(427.719,-122.485) rotate(18.4349)">
			<title>工作表.12</title>
			<path d="M0 182.96 L44.82 182.96" class="st3"/>
		</g>
		<g id="shape13-37" v:mID="13" v:groupContext="shape" transform="translate(427.719,-65.7917) rotate(18.4349)">
			<title>工作表.13</title>
			<path d="M0 182.96 L44.82 182.96" class="st3"/>
		</g>
		<g id="shape14-40" v:mID="14" v:groupContext="shape" transform="translate(312.005,-94.1382) rotate(-18.4349)">
			<title>工作表.14</title>
			<path d="M0 182.96 L44.82 182.96" class="st3"/>
		</g>
		<g id="shape15-43" v:mID="15" v:groupContext="shape" transform="translate(312.005,-37.4453) rotate(-18.4349)">
			<title>工作表.15</title>
			<path d="M0 182.96 L44.82 182.96" class="st3"/>
		</g>
		<g id="shape16-46" v:mID="16" v:groupContext="shape" transform="translate(199.551,-46.8342)">
			<title>工作表.16</title>
			<path d="M0 182.96 L127.79 182.96" class="st3"/>
		</g>
		<g id="shape17-49" v:mID="17" v:groupContext="shape" transform="translate(306.082,-75.1806)">
			<title>工作表.17</title>
			<path d="M0 182.96 L21.26 182.96" class="st3"/>
		</g>
		<g id="shape18-52" v:mID="18" v:groupContext="shape" transform="translate(499.672,107.779) rotate(90)">
			<title>工作表.18</title>
			<path d="M0 182.96 L28.35 182.96" class="st3"/>
		</g>
		<g id="shape19-55" v:mID="19" v:groupContext="shape" transform="translate(316.712,-103.527)">
			<title>工作表.19</title>
			<path d="M0 182.96 L10.63 182.96" class="st3"/>
		</g>
		<g id="shape20-58" v:mID="20" v:groupContext="shape" transform="translate(306.082,-117.7)">
			<title>工作表.20</title>
			<path d="M0 182.96 L10.63 182.96" class="st3"/>
		</g>
		<g id="shape21-61" v:mID="21" v:groupContext="shape" transform="translate(316.712,-131.874)">
			<title>工作表.21</title>
			<path d="M0 182.96 L10.63 182.96" class="st3"/>
		</g>
		<g id="shape22-64" v:mID="22" v:groupContext="shape" transform="translate(133.752,79.4326) rotate(-90)">
			<title>工作表.22</title>
			<path d="M0 182.96 L28.35 182.96" class="st3"/>
		</g>
		<g id="shape23-67" v:mID="23" v:groupContext="shape" transform="translate(206.87,-75.1806)">
			<title>工作表.23</title>
			<path d="M0 182.96 L7.09 182.96" class="st3"/>
		</g>
		<g id="shape24-70" v:mID="24" v:groupContext="shape" transform="translate(199.318,-96.4405)">
			<title>工作表.24</title>
			<path d="M0 182.96 L7.09 182.96" class="st3"/>
		</g>
		<g id="shape25-73" v:mID="25" v:groupContext="shape" transform="translate(206.87,-117.7)">
			<title>工作表.25</title>
			<path d="M0 182.96 L7.09 182.96" class="st3"/>
		</g>
		<g id="shape26-76" v:mID="26" v:groupContext="shape" transform="translate(23.9099,107.779) rotate(-90)">
			<title>工作表.26</title>
			<path d="M0 182.96 L42.52 182.96" class="st3"/>
		</g>
		<g id="shape27-79" v:mID="27" v:groupContext="shape" transform="translate(136.003,-46.8342)">
			<title>工作表.27</title>
			<path d="M0 182.96 L7.09 182.96" class="st3"/>
		</g>
		<g id="shape28-82" v:mID="28" v:groupContext="shape" transform="translate(136.003,-96.4405)">
			<title>工作表.28</title>
			<path d="M0 182.96 L7.09 182.96" class="st3"/>
		</g>
		<g id="shape29-85" v:mID="29" v:groupContext="shape" transform="translate(114.744,-71.6373)">
			<title>工作表.29</title>
			<path d="M0 182.96 L21.26 182.96" class="st3"/>
		</g>
		<g id="shape30-88" v:mID="30" v:groupContext="shape" transform="translate(-46.9562,136.126) rotate(-90)">
			<title>工作表.30</title>
			<path d="M0 182.96 L49.61 182.96" class="st3"/>
		</g>
		<g id="group35-91" transform="translate(309.146,155.791) rotate(-90)" v:mID="35" v:groupContext="group">
			<title>工作表.35</title>
			<g id="shape31-92" v:mID="31" v:groupContext="shape" transform="translate(0,-473.386)">
				<title>工作表.31</title>
				<path d="M0 182.96 L124.72 182.96" class="st4"/>
			</g>
			<g id="shape32-95" v:mID="32" v:groupContext="shape">
				<title>工作表.32</title>
				<path d="M0 182.96 L124.72 182.96" class="st4"/>
			</g>
			<g id="shape33-98" v:mID="33" v:groupContext="shape" transform="translate(307.684,-290.426) rotate(90)">
				<title>工作表.33</title>
				<path d="M0 182.96 L473.39 182.96" class="st4"/>
			</g>
			<g id="shape34-101" v:mID="34" v:groupContext="shape" transform="translate(-182.96,182.96) rotate(-90)">
				<title>工作表.34</title>
				<path d="M0 182.96 L473.39 182.96" class="st4"/>
			</g>
		</g>
	</g>
</svg>
