<?xml version="1.0" encoding="UTF-8" standalone="no"?>
<!DOCTYPE svg PUBLIC "-//W3C//DTD SVG 1.1//EN" "http://www.w3.org/Graphics/SVG/1.1/DTD/svg11.dtd">
<!-- 由 Microsoft Visio, SVG Export 產生 y16.0034-h.svg 頁-1 -->
<svg xmlns="http://www.w3.org/2000/svg" xmlns:xlink="http://www.w3.org/1999/xlink" xmlns:ev="http://www.w3.org/2001/xml-events"
		width="7.47717in" height="5.36475in" viewBox="0 0 538.356 386.262" xml:space="preserve" color-interpolation-filters="sRGB"
		class="st5">
	<style type="text/css">
	<![CDATA[
		.st1 {fill:none;stroke:none;stroke-linecap:round;stroke-linejoin:round;stroke-width:0.75}
		.st2 {fill:#000000;font-family:新細明體;font-size:1.33333em}
		.st3 {font-size:0.687506em}
		.st4 {fill:#000000;font-family:新細明體;font-size:1.00001em}
		.st5 {fill:none;fill-rule:evenodd;font-size:12px;overflow:visible;stroke-linecap:square;stroke-miterlimit:3}
	]]>
	</style>

	<g>
		<title>頁-1</title>
		<g id="shape1-1" transform="translate(8.31201,-366.044)">
			<title>工作表.1</title>
			<desc>長阿含經　　　　　　　　　樓炭經　　　四分律</desc>
			<rect x="0" y="366.419" width="456.094" height="19.8425" class="st1"/>
			<text x="4.05" y="381.14" class="st2">（長阿含經）　　　　　　　　　（樓炭經）　　　（四分律）</text>		</g>
		<g id="shape2-4" transform="translate(8.31201,-329.477)">
			<title>工作表.2</title>
			<desc>一　伽㝹遮────五王</desc>
			<rect x="0" y="366.419" width="184.252" height="19.8425" class="st1"/>
			<text x="4" y="381.14" class="st2">一　伽㝹遮────五王</text>		</g>
		<g id="shape4-7" transform="translate(8.31201,-256.344)">
			<title>工作表.4</title>
			<desc>三　阿葉摩────七王</desc>
			<rect x="0" y="366.419" width="271.744" height="19.8425" class="st1"/>
			<text x="4" y="381.14" class="st2">三　阿葉摩────七王</text>		</g>
		<g id="shape5-10" transform="translate(0.375,-219.777)">
			<title>工作表.5</title>
			<desc>四　持地地一作施─七王</desc>
			<rect x="0" y="366.419" width="200.126" height="19.8425" class="st1"/>
			<text x="11.06" y="381.14" class="st2">四　持地<tspan class="st3">（</tspan><tspan class="st3">地一作施</tspan><tspan
						class="st3">）</tspan>─七王</text>		</g>
		<g id="shape6-16" transform="translate(8.31201,-183.21)">
			<title>工作表.6</title>
			<desc>五　伽楞伽────九王</desc>
			<rect x="0" y="366.419" width="184.252" height="19.8425" class="st1"/>
			<text x="4.13" y="381.14" class="st2">五　伽楞伽────九王</text>		</g>
		<g id="shape7-19" transform="translate(8.31201,-146.643)">
			<title>工作表.7</title>
			<desc>六　瞻婆─────十四王</desc>
			<rect x="0" y="366.419" width="200.126" height="19.8425" class="st1"/>
			<text x="4.06" y="381.14" class="st2">六　瞻婆─────十四王</text>		</g>
		<g id="shape8-22" transform="translate(8.31201,-110.076)">
			<title>工作表.8</title>
			<desc>七　拘羅婆────三十一王</desc>
			<rect x="0" y="366.419" width="216" height="19.8425" class="st1"/>
			<text x="4" y="381.14" class="st2">七　拘羅婆────三十一王</text>		</g>
		<g id="shape9-25" transform="translate(8.31201,-73.5089)">
			<title>工作表.9</title>
			<desc>八　般耆羅────三十二王</desc>
			<rect x="0" y="366.419" width="216" height="19.8425" class="st1"/>
			<text x="4" y="381.14" class="st2">八　般耆羅────三十二王</text>		</g>
		<g id="shape10-28" transform="translate(8.31201,-36.9419)">
			<title>工作表.10</title>
			<desc>九　彌私羅────八萬四千王</desc>
			<rect x="0" y="366.419" width="232.157" height="19.8425" class="st1"/>
			<text x="4.08" y="381.14" class="st2">九　彌私羅────八萬四千王</text>		</g>
		<g id="shape11-31" transform="translate(8.31201,-0.375)">
			<title>工作表.11</title>
			<desc>十　聲摩─────百一王</desc>
			<rect x="0" y="366.419" width="200.126" height="19.8425" class="st1"/>
			<text x="4.06" y="381.14" class="st2">十　聲摩─────百一王</text>		</g>
		<g id="shape12-34" transform="translate(81.8868,-366.044)">
			<title>工作表.12</title>
			<desc>卷二二　　　　　　 　　　　　　　卷六　　 　 　　　卷三一</desc>
			<rect x="0" y="366.419" width="456.094" height="19.8425" class="st1"/>
			<text x="25.37" y="379.94" class="st4">（卷二二）　　　　　　 　　　　　　　（卷六）　　 　 　　　（卷三一）</text>		</g>
		<g id="shape14-37" transform="translate(429.698,-0.375)">
			<title>工作表.14</title>
			<desc>百王</desc>
			<rect x="0" y="366.419" width="80.2205" height="19.8425" class="st1"/>
			<text x="16.11" y="379.94" class="st4">（百王）</text>		</g>
		<g id="shape20-40" transform="translate(263.58,-329.477)">
			<title>工作表.20</title>
			<desc>迦奴車</desc>
			<rect x="0" y="366.419" width="56.126" height="19.8425" class="st1"/>
			<text x="4.06" y="381.14" class="st2">迦奴車</text>		</g>
		<g id="shape21-43" transform="translate(263.58,-292.91)">
			<title>工作表.21</title>
			<desc>多慮提</desc>
			<rect x="0" y="366.419" width="56.126" height="19.8425" class="st1"/>
			<text x="4.06" y="381.14" class="st2">多慮提</text>		</g>
		<g id="shape22-46" transform="translate(263.58,-256.344)">
			<title>工作表.22</title>
			<desc>阿波　</desc>
			<rect x="0" y="366.419" width="56.126" height="19.8425" class="st1"/>
			<text x="4.06" y="381.14" class="st2">阿波</text>		</g>
		<g id="shape23-49" transform="translate(263.58,-219.777)">
			<title>工作表.23</title>
			<desc>犍陀利</desc>
			<rect x="0" y="366.419" width="56.126" height="19.8425" class="st1"/>
			<text x="4.06" y="381.14" class="st2">犍陀利</text>		</g>
		<g id="shape24-52" transform="translate(263.58,-183.21)">
			<title>工作表.24</title>
			<desc>迦陵　</desc>
			<rect x="0" y="366.419" width="56.126" height="19.8425" class="st1"/>
			<text x="4.06" y="381.14" class="st2">迦陵</text>		</g>
		<g id="shape25-55" transform="translate(263.58,-146.643)">
			<title>工作表.25</title>
			<desc>遮波　</desc>
			<rect x="0" y="366.419" width="56.126" height="19.8425" class="st1"/>
			<text x="4.06" y="381.14" class="st2">遮波</text>		</g>
		<g id="shape26-58" transform="translate(263.58,-110.076)">
			<title>工作表.26</title>
			<desc>拘獵　</desc>
			<rect x="0" y="366.419" width="56.126" height="19.8425" class="st1"/>
			<text x="4.06" y="381.14" class="st2">拘獵</text>		</g>
		<g id="shape27-61" transform="translate(263.58,-73.5089)">
			<title>工作表.27</title>
			<desc>般闍　</desc>
			<rect x="0" y="366.419" width="56.126" height="19.8425" class="st1"/>
			<text x="4.06" y="381.14" class="st2">般闍</text>		</g>
		<g id="shape28-64" transform="translate(263.58,-36.9419)">
			<title>工作表.28</title>
			<desc>彌尸利</desc>
			<rect x="0" y="366.419" width="56.126" height="19.8425" class="st1"/>
			<text x="4.06" y="381.14" class="st2">彌尸利</text>		</g>
		<g id="shape29-67" transform="translate(263.58,-0.375)">
			<title>工作表.29</title>
			<desc>一摩彌</desc>
			<rect x="0" y="366.419" width="56.126" height="19.8425" class="st1"/>
			<text x="4.06" y="381.14" class="st2">一摩彌</text>		</g>
		<g id="shape30-70" transform="translate(392.273,-329.477)">
			<title>工作表.30</title>
			<desc>伽㝹支</desc>
			<rect x="0" y="366.419" width="56.126" height="19.8425" class="st1"/>
			<text x="4.06" y="381.14" class="st2">伽㝹支</text>		</g>
		<g id="shape31-73" transform="translate(392.273,-292.91)">
			<title>工作表.31</title>
			<desc>多樓毘帝</desc>
			<rect x="0" y="366.419" width="72.2835" height="19.8425" class="st1"/>
			<text x="4.14" y="381.14" class="st2">多樓毘帝</text>		</g>
		<g id="shape32-76" transform="translate(392.273,-256.344)">
			<title>工作表.32</title>
			<desc>阿濕卑</desc>
			<rect x="0" y="366.419" width="56.126" height="19.8425" class="st1"/>
			<text x="4.06" y="381.14" class="st2">阿濕卑</text>		</g>
		<g id="shape33-79" transform="translate(392.273,-219.777)">
			<title>工作表.33</title>
			<desc>乾陀羅</desc>
			<rect x="0" y="366.419" width="56.126" height="19.8425" class="st1"/>
			<text x="4.06" y="381.14" class="st2">乾陀羅</text>		</g>
		<g id="shape34-82" transform="translate(392.273,-183.21)">
			<title>工作表.34</title>
			<desc>伽陵迦</desc>
			<rect x="0" y="366.419" width="56.126" height="19.8425" class="st1"/>
			<text x="4.06" y="381.14" class="st2">伽陵迦</text>		</g>
		<g id="shape35-85" transform="translate(392.273,-146.643)">
			<title>工作表.35</title>
			<desc>瞻鞞　</desc>
			<rect x="0" y="366.419" width="56.126" height="19.8425" class="st1"/>
			<text x="4.06" y="381.14" class="st2">瞻鞞</text>		</g>
		<g id="shape36-88" transform="translate(392.273,-110.076)">
			<title>工作表.36</title>
			<desc>拘羅婆</desc>
			<rect x="0" y="366.419" width="56.126" height="19.8425" class="st1"/>
			<text x="4.06" y="381.14" class="st2">拘羅婆</text>		</g>
		<g id="shape37-91" transform="translate(392.273,-73.5089)">
			<title>工作表.37</title>
			<desc>般闍羅</desc>
			<rect x="0" y="366.419" width="56.126" height="19.8425" class="st1"/>
			<text x="4.06" y="381.14" class="st2">般闍羅</text>		</g>
		<g id="shape38-94" transform="translate(392.273,-36.9419)">
			<title>工作表.38</title>
			<desc>彌悉梨</desc>
			<rect x="0" y="366.419" width="56.126" height="19.8425" class="st1"/>
			<text x="4.06" y="381.14" class="st2">彌悉梨</text>		</g>
		<g id="shape39-97" transform="translate(392.273,-0.375)">
			<title>工作表.39</title>
			<desc>懿師摩</desc>
			<rect x="0" y="366.419" width="56.126" height="19.8425" class="st1"/>
			<text x="4.06" y="381.14" class="st2">懿師摩</text>		</g>
		<g id="shape13-100" transform="translate(8.31201,-292.91)">
			<title>工作表.13</title>
			<desc>二　多羅婆────五王</desc>
			<rect x="0" y="366.419" width="184.252" height="19.8425" class="st1"/>
			<text x="4" y="381.14" class="st2">二　多羅婆────五王</text>		</g>
	</g>
</svg>
