<?xml version="1.0" encoding="UTF-8" standalone="no"?>
<!DOCTYPE svg PUBLIC "-//W3C//DTD SVG 1.1//EN" "http://www.w3.org/Graphics/SVG/1.1/DTD/svg11.dtd">
<!-- 由 Microsoft Visio, SVG Export 產生 y16.0376.svg 頁-1 -->
<svg xmlns="http://www.w3.org/2000/svg" xmlns:xlink="http://www.w3.org/1999/xlink" xmlns:ev="http://www.w3.org/2001/xml-events"
		width="7.54341in" height="9.14386in" viewBox="0 0 543.126 658.358" xml:space="preserve" color-interpolation-filters="sRGB"
		class="st7">
	<title>Remade Images</title>

	<style type="text/css">
	<![CDATA[
		.st1 {fill:none;stroke:none;stroke-linecap:round;stroke-linejoin:round;stroke-width:0.72}
		.st2 {fill:#000000;font-family:新細明體;font-size:1.33333em}
		.st3 {stroke:#000000;stroke-linecap:round;stroke-linejoin:round;stroke-width:0.72}
		.st4 {font-family:細明體;font-size:1em}
		.st5 {font-size:1em}
		.st6 {fill:#000000;font-family:細明體;font-size:1.33333em}
		.st7 {fill:none;fill-rule:evenodd;font-size:12px;overflow:visible;stroke-linecap:square;stroke-miterlimit:3}
	]]>
	</style>

	<g>
		<title>頁-1</title>
		<g id="group61-1" transform="translate(0.36,-0.36)">
			<title>工作表.61</title>
			<g id="shape1-2" transform="translate(307.276,-531.496)">
				<title>工作表.1</title>
				<desc>法</desc>
				<rect x="0" y="638.515" width="56.6929" height="19.8425" class="st1"/>
				<text x="4.35" y="653.24" class="st2">（法）</text>			</g>
			<g id="shape2-5" transform="translate(307.276,-552.756)">
				<title>工作表.2</title>
				<desc>觸　　</desc>
				<rect x="0" y="638.515" width="56.6929" height="19.8425" class="st1"/>
				<text x="4.35" y="653.24" class="st2">觸</text>			</g>
			<g id="shape3-8" transform="translate(307.276,-574.016)">
				<title>工作表.3</title>
				<desc>味　　</desc>
				<rect x="0" y="638.515" width="56.6929" height="19.8425" class="st1"/>
				<text x="4.35" y="653.24" class="st2">味</text>			</g>
			<g id="shape4-11" transform="translate(307.154,-595.276)">
				<title>工作表.4</title>
				<desc>香　　</desc>
				<rect x="0" y="638.515" width="56.6929" height="19.8425" class="st1"/>
				<text x="4.35" y="653.24" class="st2">香</text>			</g>
			<g id="shape5-14" transform="translate(307.276,-616.535)">
				<title>工作表.5</title>
				<desc>聲　　</desc>
				<rect x="0" y="638.515" width="56.6929" height="19.8425" class="st1"/>
				<text x="4.35" y="653.24" class="st2">聲</text>			</g>
			<g id="shape6-17" transform="translate(307.276,-637.795)">
				<title>工作表.6</title>
				<desc>色　　</desc>
				<rect x="0" y="638.515" width="56.6929" height="19.8425" class="st1"/>
				<text x="4.35" y="653.24" class="st2">色</text>			</g>
			<g id="shape7-20" transform="translate(0,-584.787)">
				<title>工作表.7</title>
				<desc>約法假說五陰世間────────</desc>
				<rect x="0" y="638.515" width="297.638" height="19.8425" class="st1"/>
				<text x="4.82" y="653.24" class="st2">約法假說（五陰世間）────────</text>			</g>
			<g id="shape8-23" transform="translate(292.819,-594.567)">
				<title>工作表.8</title>
				<path d="M0 658.36 L6.73 658.36" class="st3"/>
			</g>
			<g id="shape9-26" transform="translate(300.016,-647.717)">
				<title>工作表.9</title>
				<path d="M0 658.36 L6.73 658.36" class="st3"/>
			</g>
			<g id="shape10-29" transform="translate(300.26,-541.417)">
				<title>工作表.10</title>
				<path d="M0 658.36 L6.73 658.36" class="st3"/>
			</g>
			<g id="shape11-32" transform="translate(-358.096,118.452) rotate(-90.1316)">
				<title>工作表.11</title>
				<path d="M0 658.36 L106.3 658.36" class="st3"/>
			</g>
			<g id="shape13-35" transform="translate(305.539,-425.197)">
				<title>工作表.13</title>
				<desc>親友─兄弟、師生、僚屬……</desc>
				<rect x="0" y="638.515" width="220.567" height="19.8425" class="st1"/>
				<text x="6.28" y="653.24" class="st2">親友─兄弟、師生、僚屬……</text>			</g>
			<g id="shape14-38" transform="translate(306.602,-510.15)">
				<title>工作表.14</title>
				<desc>父母</desc>
				<rect x="0" y="638.515" width="42.6929" height="19.8425" class="st1"/>
				<text x="5.35" y="653.24" class="st2">父母</text>			</g>
			<g id="shape15-41" transform="translate(306.602,-488.976)">
				<title>工作表.15</title>
				<desc>夫妻</desc>
				<rect x="0" y="638.515" width="42.6929" height="19.8425" class="st1"/>
				<text x="5.35" y="653.24" class="st2">夫妻</text>			</g>
			<g id="shape16-44" transform="translate(306.602,-446.37)">
				<title>工作表.16</title>
				<desc>僕使</desc>
				<rect x="0" y="638.515" width="42.6929" height="19.8425" class="st1"/>
				<text x="5.35" y="653.24" class="st2">僕使</text>			</g>
			<g id="shape17-47" transform="translate(306.602,-467.803)">
				<title>工作表.17</title>
				<desc>兒女</desc>
				<rect x="0" y="638.515" width="42.6929" height="19.8425" class="st1"/>
				<text x="5.35" y="653.24" class="st2">兒女</text>			</g>
			<g id="shape18-50" transform="translate(299.906,-520.157)">
				<title>工作表.18</title>
				<path d="M0 658.36 L7.09 658.36" class="st3"/>
			</g>
			<g id="shape19-53" transform="translate(299.906,-286.299)">
				<title>工作表.19</title>
				<path d="M0 658.36 L7.09 658.36" class="st3"/>
			</g>
			<g id="shape20-56" transform="translate(308.02,-403.937)">
				<title>工作表.20</title>
				<desc>牛、馬……</desc>
				<rect x="0" y="638.515" width="88.7559" height="19.8425" class="st1"/>
				<text x="4.38" y="653.24" class="st2">牛、馬……</text>			</g>
			<g id="shape21-59" transform="translate(307.311,-382.677)">
				<title>工作表.21</title>
				<desc>土地─山、水、田、園</desc>
				<rect x="0" y="638.515" width="168.126" height="19.8425" class="st1"/>
				<text x="4.06" y="653.24" class="st2">土地─山、水、田、園</text>			</g>
			<g id="shape22-62" transform="translate(306.602,-361.504)">
				<title>工作表.22</title>
				<desc>房舍</desc>
				<rect x="0" y="638.515" width="42.6929" height="19.8425" class="st1"/>
				<text x="5.35" y="653.24" class="st2">房舍</text>			</g>
			<g id="shape23-65" transform="translate(306.602,-318.811)">
				<title>工作表.23</title>
				<desc>邸肆</desc>
				<rect x="0" y="638.515" width="42.6929" height="19.8425" class="st1"/>
				<text x="5.35" y="653.24" class="st2">邸肆</text>			</g>
			<g id="shape24-68" transform="translate(305.539,-340.157)">
				<title>工作表.24</title>
				<desc>庫藏─金銀、珠寶、穀物……</desc>
				<rect x="0" y="638.515" width="220.567" height="19.8425" class="st1"/>
				<text x="6.28" y="653.24" class="st2">庫藏─金銀、珠寶、穀物……</text>			</g>
			<g id="shape25-71" transform="translate(305.539,-297.638)">
				<title>工作表.25</title>
				<desc>作業─經商、從政、力農……</desc>
				<rect x="0" y="638.515" width="220.567" height="19.8425" class="st1"/>
				<text x="6.28" y="653.24" class="st2">作業─經商、從政、力農……</text>			</g>
			<g id="shape26-74" transform="translate(305.539,-276.378)">
				<title>工作表.26</title>
				<desc>福業─社會福利、弘通佛教…</desc>
				<rect x="0" y="638.515" width="220.567" height="19.8425" class="st1"/>
				<text x="6.28" y="653.24" class="st2">福業─社會福利、弘通佛教…</text>			</g>
			<g id="shape27-77" transform="translate(-358.452,372.059) rotate(-90)">
				<title>工作表.27</title>
				<path d="M0 658.36 L233.86 658.36" class="st3"/>
			</g>
			<g id="shape28-80" transform="translate(292.819,-371.425)">
				<title>工作表.28</title>
				<path d="M0 658.36 L7.09 658.36" class="st3"/>
			</g>
			<g id="shape29-83" transform="translate(306.602,-255.205)">
				<title>工作表.29</title>
				<desc>飲食</desc>
				<rect x="0" y="638.515" width="42.6929" height="19.8425" class="st1"/>
				<text x="5.35" y="653.24" class="st2">飲食</text>			</g>
			<g id="shape30-86" transform="translate(249.909,-361.504)">
				<title>工作表.30</title>
				<desc>攝受</desc>
				<rect x="0" y="638.515" width="42.6929" height="19.8425" class="st1"/>
				<text x="5.35" y="653.24" class="st2">攝受</text>			</g>
			<g id="shape31-89" transform="translate(306.602,-233.772)">
				<title>工作表.31</title>
				<desc>車乘</desc>
				<rect x="0" y="638.515" width="42.6929" height="19.8425" class="st1"/>
				<text x="5.35" y="653.24" class="st2">車乘</text>			</g>
			<g id="shape12-92" transform="translate(306.602,-212.598)">
				<title>工作表.12</title>
				<desc>衣服</desc>
				<rect x="0" y="638.515" width="42.6929" height="19.8425" class="st1"/>
				<text x="5.35" y="653.24" class="st2">衣服</text>			</g>
			<g id="shape32-95" transform="translate(307.398,-191.339)">
				<title>工作表.32</title>
				<desc>嚴飾具</desc>
				<rect x="0" y="638.515" width="56.6929" height="19.8425" class="st1"/>
				<text x="4.35" y="653.24" class="st2">嚴飾具</text>			</g>
			<g id="shape33-98" transform="translate(307.311,-170.079)">
				<title>工作表.33</title>
				<desc>歌舞、戲樂、博奕……</desc>
				<rect x="0" y="638.515" width="168.126" height="19.8425" class="st1"/>
				<text x="4.06" y="653.24" class="st2">歌舞、戲樂、博奕<tspan class="st4">……</tspan></text>			</g>
			<g id="shape34-102" transform="translate(306.335,-148.819)">
				<title>工作表.34</title>
				<desc>華鬘、塗末……</desc>
				<rect x="0" y="638.515" width="121.89" height="19.8425" class="st1"/>
				<text x="4.95" y="653.24" class="st2">華鬘、塗末<tspan class="st4">……</tspan></text>			</g>
			<g id="shape35-106" transform="translate(249.909,-148.819)">
				<title>工作表.35</title>
				<desc>資用</desc>
				<rect x="0" y="638.515" width="42.6929" height="19.8425" class="st1"/>
				<text x="5.35" y="653.24" class="st2">資用</text>			</g>
			<g id="shape36-109" transform="translate(300.189,-265.039)">
				<title>工作表.36</title>
				<path d="M0 658.36 L7.09 658.36" class="st3"/>
			</g>
			<g id="shape37-112" transform="translate(293.102,-158.74)">
				<title>工作表.37</title>
				<path d="M0 658.36 L7.09 658.36" class="st3"/>
			</g>
			<g id="shape38-115" transform="translate(300.189,-31.1811)">
				<title>工作表.38</title>
				<path d="M0 658.36 L7.09 658.36" class="st3"/>
			</g>
			<g id="shape42-118" transform="translate(178.799,-318.811)">
				<title>工作表.42</title>
				<desc>眷屬</desc>
				<rect x="0" y="638.515" width="42.6929" height="19.8425" class="st1"/>
				<text x="5.35" y="653.24" class="st2">眷屬</text>			</g>
			<g id="shape43-121" transform="translate(178.799,-170.079)">
				<title>工作表.43</title>
				<desc>資產</desc>
				<rect x="0" y="638.515" width="42.6929" height="19.8425" class="st1"/>
				<text x="5.35" y="653.24" class="st2">資產</text>			</g>
			<g id="shape44-124" transform="translate(958.547,393.318) rotate(90)">
				<title>工作表.44</title>
				<path d="M0 658.36 L233.86 658.36" class="st3"/>
			</g>
			<g id="shape39-127" transform="translate(0.106299,-159.406)">
				<title>工作表.39</title>
				<desc>約受假說</desc>
				<rect x="0" y="638.515" width="76" height="19.8425" class="st1"/>
				<text x="6" y="653.42" class="st2">約受假說</text>			</g>
			<g id="shape40-130" transform="translate(60.8386,-146.65)">
				<title>工作表.40</title>
				<desc>有情世間　　　　</desc>
				<rect x="0" y="613.003" width="105.236" height="45.3543" class="st1"/>
				<text x="0.25em" y="630.88" class="st2">（<tspan x="1.265em 2.281em 3.296em 4.312em" dy="0em" class="st5">有情世間</tspan><tspan
							x="5.327em" dy="0em" class="st5">）</tspan><tspan x="0.25em 1.265em 2.281em 3.296em 4.312em 5.327em"
							dy="1.2em" class="st5">（　　　　）</tspan></text>			</g>
			<g id="shape45-136" transform="translate(76.5906,-149.752)">
				<title>工作表.45</title>
				<desc>器世間</desc>
				<rect x="0" y="638.515" width="73.1654" height="19.8425" class="st1"/>
				<text x="0.25em 1.786em 3.323em" y="653.42" class="st2">器世間</text>			</g>
			<g id="shape46-139" transform="translate(307.311,-127.559)">
				<title>工作表.46</title>
				<desc>雜物─傢具、玩具……</desc>
				<rect x="0" y="638.515" width="168.126" height="19.8425" class="st1"/>
				<text x="4.06" y="653.24" class="st2">雜物─傢具、玩具<tspan class="st4">……</tspan></text>			</g>
			<g id="shape47-143" transform="translate(306.602,-106.386)">
				<title>工作表.47</title>
				<desc>光明</desc>
				<rect x="0" y="638.515" width="42.6929" height="19.8425" class="st1"/>
				<text x="5.35" y="653.24" class="st2">光明</text>			</g>
			<g id="shape48-146" transform="translate(304.929,-85.0394)">
				<title>工作表.48</title>
				<desc>宅舍、床榻……憇息</desc>
				<rect x="0" y="638.515" width="188.945" height="19.8425" class="st1"/>
				<text x="6.47" y="653.24" class="st6">宅舍、床榻……（憇息）</text>			</g>
			<g id="shape49-149" transform="translate(307.665,-63.7795)">
				<title>工作表.49</title>
				<desc>男女受行─淫欲、承事、侍衛…</desc>
				<rect x="0" y="638.515" width="234.74" height="19.8425" class="st1"/>
				<text x="5.37" y="653.24" class="st2">男女受行─淫欲、承事、侍衛<tspan class="st4">…</tspan></text>			</g>
			<g id="shape50-153" transform="translate(307.311,-42.5197)">
				<title>工作表.50</title>
				<desc>滋長─運動、按摩……</desc>
				<rect x="0" y="638.515" width="168.126" height="19.8425" class="st1"/>
				<text x="4.06" y="653.24" class="st2">滋長─運動、按摩<tspan class="st4">……</tspan></text>			</g>
			<g id="shape51-157" transform="translate(307.311,-21.2598)">
				<title>工作表.51</title>
				<desc>清淨─澡浴、潔淨……</desc>
				<rect x="0" y="638.515" width="168.126" height="19.8425" class="st1"/>
				<text x="4.06" y="653.24" class="st2">清淨─澡浴、潔淨<tspan class="st4">……</tspan></text>			</g>
			<g id="shape52-161" transform="translate(178.799,0)">
				<title>工作表.52</title>
				<desc>自體──────色、力、健、壽、生命永續</desc>
				<rect x="0" y="638.515" width="330.409" height="19.8425" class="st1"/>
				<text x="5.21" y="653.42" class="st2">自體──────色、力、健、壽、生命永續</text>			</g>
			<g id="shape53-164" transform="translate(-325.551,-35.0854) rotate(-56.3099)">
				<title>工作表.53</title>
				<path d="M0 658.36 L51.1 658.36" class="st3"/>
			</g>
			<g id="shape54-167" transform="translate(612.845,-51.217) rotate(36.3657)">
				<title>工作表.54</title>
				<path d="M0 658.36 L34.9 658.36" class="st3"/>
			</g>
			<g id="shape55-170" transform="translate(871.607,221.696) rotate(80.5221)">
				<title>工作表.55</title>
				<path d="M0 658.36 L171.86 658.36" class="st3"/>
			</g>
			<g id="shape56-173" transform="translate(-428.889,383.256) rotate(-81.6446)">
				<title>工作表.56</title>
				<path d="M0 658.36 L193.39 658.36" class="st3"/>
			</g>
			<g id="shape57-176" transform="translate(172.874,-328.732)">
				<title>工作表.57</title>
				<path d="M0 658.36 L7.09 658.36" class="st3"/>
			</g>
			<g id="shape58-179" transform="translate(172.874,-9.92126)">
				<title>工作表.58</title>
				<path d="M0 658.36 L7.09 658.36" class="st3"/>
			</g>
			<g id="shape59-182" transform="translate(-485.484,648.437) rotate(-90)">
				<title>工作表.59</title>
				<path d="M0 658.36 L318.81 658.36" class="st3"/>
			</g>
			<g id="shape60-185" transform="translate(165.787,-169.327)">
				<title>工作表.60</title>
				<path d="M0 658.36 L7.09 658.36" class="st3"/>
			</g>
		</g>
	</g>
</svg>
