<?xml version="1.0" encoding="UTF-8" standalone="no"?>
<!DOCTYPE svg PUBLIC "-//W3C//DTD SVG 1.1//EN" "http://www.w3.org/Graphics/SVG/1.1/DTD/svg11.dtd">
<!-- 由 Microsoft Visio, SVG Export 產生 y16.0264-h.svg 頁-1 -->
<svg xmlns="http://www.w3.org/2000/svg" xmlns:xlink="http://www.w3.org/1999/xlink" xmlns:ev="http://www.w3.org/2001/xml-events"
		width="7.28433in" height="3.07474in" viewBox="0 0 524.472 221.381" xml:space="preserve" color-interpolation-filters="sRGB"
		class="st4">
	<title>Remade Images</title>

	<style type="text/css">
	<![CDATA[
		.st1 {fill:none;stroke:none;stroke-linecap:round;stroke-linejoin:round;stroke-width:0.72}
		.st2 {fill:#000000;font-family:新細明體;font-size:1.33333em}
		.st3 {stroke:#000000;stroke-linecap:round;stroke-linejoin:round;stroke-width:0.72}
		.st4 {fill:none;fill-rule:evenodd;font-size:12px;overflow:visible;stroke-linecap:square;stroke-miterlimit:3}
	]]>
	</style>

	<g>
		<title>頁-1</title>
		<g id="group23-1" transform="translate(0.36,-0.36)">
			<title>工作表.23</title>
			<g id="shape14-2" transform="translate(114.362,-172.472)">
				<title>工作表.14</title>
				<desc>─化地部的──────────五分律　　　　　　　</desc>
				<rect x="0" y="201.539" width="409.071" height="19.8425" class="st1"/>
				<text x="4.54" y="216.44" class="st2">─化地部的──────────五分律</text>			</g>
			<g id="group22-5">
				<title>工作表.22</title>
				<g id="shape1-6" transform="translate(7.91367E-13,-44.9134)">
					<title>工作表.1</title>
					<desc>說一切有系的</desc>
					<rect x="0" y="201.539" width="106.472" height="19.8425" class="st1"/>
					<text x="0.25em 1.281em 2.312em 3.343em 4.374em 5.405em" y="216.44" class="st2">說一切有系的</text>				</g>
				<g id="shape2-9" transform="translate(7.91367E-13,-2.39372)">
					<title>工作表.2</title>
					<desc>犢子系的</desc>
					<rect x="0" y="201.539" width="106.472" height="19.8425" class="st1"/>
					<text x="0.25em 1.968em 3.686em 5.405em" y="216.44" class="st2">犢子系的</text>				</g>
				<g id="shape3-12" transform="translate(2.79776E-13,-129.953)">
					<title>工作表.3</title>
					<desc>分別說系的</desc>
					<rect x="0" y="201.539" width="106.472" height="19.8425" class="st1"/>
					<text x="0.25em 1.539em 2.827em 4.116em 5.405em" y="216.44" class="st2">分別說系的</text>				</g>
				<g id="shape4-15" transform="translate(2.39808E-14,-200.819)">
					<title>工作表.4</title>
					<desc>大眾系的</desc>
					<rect x="0" y="201.539" width="106.472" height="19.8425" class="st1"/>
					<text x="0.25em 1.968em 3.686em 5.405em" y="216.44" class="st2">大眾系的</text>				</g>
				<g id="shape5-18" transform="translate(90.1456,-2.84217E-14)">
					<title>工作表.5</title>
					<desc>──正量部的──────────二十二明了論　　</desc>
					<rect x="0" y="201.539" width="409.071" height="19.8425" class="st1"/>
					<text x="12.54" y="216.44" class="st2">──正量部的──────────二十二明了論</text>				</g>
				<g id="shape7-21" transform="translate(114.681,-31.1811)">
					<title>工作表.7</title>
					<desc>─新的────────────根本說一切有部毘奈耶</desc>
					<rect x="0" y="201.539" width="409.071" height="19.8425" class="st1"/>
					<text x="4.54" y="216.44" class="st2">─新的────────────根本說一切有部毘奈耶</text>				</g>
				<g id="shape8-24" transform="translate(114.681,-58.6457)">
					<title>工作表.8</title>
					<desc>─舊的────────────十誦律　　　　　　　</desc>
					<rect x="0" y="201.539" width="409.071" height="19.8425" class="st1"/>
					<text x="4.54" y="216.44" class="st2">─舊的────────────十誦律</text>				</g>
				<g id="shape9-27" transform="translate(99.248,-42.5197)">
					<title>工作表.9</title>
					<desc>─</desc>
					<rect x="0" y="197.003" width="24.378" height="24.378" class="st1"/>
					<text x="4.19" y="214.18" class="st2">─</text>				</g>
				<g id="shape10-30" transform="translate(-102.007,180.72) rotate(-90)">
					<title>工作表.10</title>
					<path d="M0 221.38 L28.35 221.38" class="st3"/>
				</g>
				<g id="shape11-33" transform="translate(114.681,-87.4331)">
					<title>工作表.11</title>
					<desc>─銅鍱部的──────────善見律論　　　　　　</desc>
					<rect x="0" y="201.539" width="409.071" height="19.8425" class="st1"/>
					<text x="4.54" y="216.44" class="st2">─銅鍱部的──────────善見律論</text>				</g>
				<g id="shape12-36" transform="translate(114.681,-115.78)">
					<title>工作表.12</title>
					<desc>─飲光部的──────────戒本　　　　　　　　</desc>
					<rect x="0" y="201.539" width="409.071" height="19.8425" class="st1"/>
					<text x="4.54" y="216.44" class="st2">─飲光部的──────────戒本</text>				</g>
				<g id="shape13-39" transform="translate(114.681,-144.126)">
					<title>工作表.13</title>
					<desc>─法藏部的──────────四分律　　　　　　　</desc>
					<rect x="0" y="201.539" width="409.071" height="19.8425" class="st1"/>
					<text x="4.54" y="216.44" class="st2">─法藏部的──────────四分律</text>				</g>
				<g id="shape15-42" transform="translate(98.6171,-199.843)">
					<title>工作表.15</title>
					<desc>────────────────摩訶僧祇律　　　　</desc>
					<rect x="0" y="201.539" width="409.071" height="19.8425" class="st1"/>
					<text x="4.54" y="216.44" class="st2">────────────────摩訶僧祇律</text>				</g>
				<g id="shape17-45" transform="translate(99.248,-127.559)">
					<title>工作表.17</title>
					<desc>─</desc>
					<rect x="0" y="197.003" width="24.378" height="24.378" class="st1"/>
					<text x="4.19" y="214.18" class="st2">─</text>				</g>
				<g id="shape21-48" transform="translate(-102.007,124.027) rotate(-90)">
					<title>工作表.21</title>
					<path d="M0 221.38 L85.04 221.38" class="st3"/>
				</g>
			</g>
		</g>
	</g>
</svg>
