<?xml version="1.0" encoding="UTF-8" standalone="no"?>
<!DOCTYPE svg PUBLIC "-//W3C//DTD SVG 1.0//EN" "http://www.w3.org/TR/2001/REC-SVG-20010904/DTD/svg10.dtd">
<!-- 由 Microsoft Visio 11.0, SVG Export, v1.0 產生 y16.0376.svg Page-1 -->
<svg xmlns="http://www.w3.org/2000/svg" xmlns:xlink="http://www.w3.org/1999/xlink" xmlns:ev="http://www.w3.org/2001/xml-events"
		xmlns:v="http://schemas.microsoft.com/visio/2003/SVGExtensions/" width="8.05341in" height="9.71685in"
		viewBox="0 0 579.846 699.613" xml:space="preserve" color-interpolation-filters="sRGB" class="st7">
	<title>Remade Images</title>
	<v:documentProperties v:langID="1028" v:metric="true" v:viewMarkup="false"/>

	<style type="text/css">
	<![CDATA[
		.st1 {fill:none;stroke:none;stroke-linecap:round;stroke-linejoin:round;stroke-width:0.72}
		.st2 {fill:#000000;font-family:新細明體;font-size:1.33333em}
		.st3 {stroke:#000000;stroke-linecap:round;stroke-linejoin:round;stroke-width:0.72}
		.st4 {font-family:細明體;font-size:1em}
		.st5 {font-size:1em}
		.st6 {fill:#000000;font-family:細明體;font-size:1.33333em}
		.st7 {fill:none;fill-rule:evenodd;font-size:12px;overflow:visible;stroke-linecap:square;stroke-miterlimit:3}
	]]>
	</style>

	<g v:mID="0" v:index="1" v:groupContext="foregroundPage">
		<title>Page-1</title>
		<v:pageProperties v:drawingScale="0.0393701" v:pageScale="0.0393701" v:drawingUnits="24" v:shadowOffsetX="8.50394"
				v:shadowOffsetY="-8.50394"/>
		<g id="shape1-1" v:mID="1" v:groupContext="shape" transform="translate(325.996,-533.937)">
			<title>工作表.1</title>
			<desc>法</desc>
			<v:textBlock v:margins="rect(4,4,4,4)" v:tabSpace="42.5197"/>
			<v:textRect cx="28.3465" cy="671.145" width="56.7" height="56.937"/>
			<rect x="0" y="642.676" width="56.6929" height="56.937" class="st1"/>
			<text x="4.35" y="675.95" class="st2" v:langID="1028"><v:paragraph v:horizAlign="1"/><v:tabList/>（法）</text>		</g>
		<g id="shape2-4" v:mID="2" v:groupContext="shape" transform="translate(325.996,-555.196)">
			<title>工作表.2</title>
			<desc>觸　　</desc>
			<v:textBlock v:margins="rect(4,4,4,4)" v:tabSpace="42.5197"/>
			<v:textRect cx="28.3465" cy="671.145" width="56.7" height="56.937"/>
			<rect x="0" y="642.676" width="56.6929" height="56.937" class="st1"/>
			<text x="4.35" y="675.95" class="st2" v:langID="1028"><v:paragraph v:horizAlign="1"/><v:tabList/>觸　　</text>		</g>
		<g id="shape3-7" v:mID="3" v:groupContext="shape" transform="translate(325.996,-576.456)">
			<title>工作表.3</title>
			<desc>味　　</desc>
			<v:textBlock v:margins="rect(4,4,4,4)" v:tabSpace="42.5197"/>
			<v:textRect cx="28.3465" cy="671.145" width="56.7" height="56.937"/>
			<rect x="0" y="642.676" width="56.6929" height="56.937" class="st1"/>
			<text x="4.35" y="675.95" class="st2" v:langID="1028"><v:paragraph v:horizAlign="1"/><v:tabList/>味　　</text>		</g>
		<g id="shape4-10" v:mID="4" v:groupContext="shape" transform="translate(325.874,-597.716)">
			<title>工作表.4</title>
			<desc>香　　</desc>
			<v:textBlock v:margins="rect(4,4,4,4)" v:tabSpace="42.5197"/>
			<v:textRect cx="28.3465" cy="671.145" width="56.7" height="56.937"/>
			<rect x="0" y="642.676" width="56.6929" height="56.937" class="st1"/>
			<text x="4.35" y="675.95" class="st2" v:langID="1028"><v:paragraph v:horizAlign="1"/><v:tabList/>香　　</text>		</g>
		<g id="shape5-13" v:mID="5" v:groupContext="shape" transform="translate(325.996,-618.976)">
			<title>工作表.5</title>
			<desc>聲　　</desc>
			<v:textBlock v:margins="rect(4,4,4,4)" v:tabSpace="42.5197"/>
			<v:textRect cx="28.3465" cy="671.145" width="56.7" height="56.937"/>
			<rect x="0" y="642.676" width="56.6929" height="56.937" class="st1"/>
			<text x="4.35" y="675.95" class="st2" v:langID="1028"><v:paragraph v:horizAlign="1"/><v:tabList/>聲　　</text>		</g>
		<g id="shape6-16" v:mID="6" v:groupContext="shape" transform="translate(325.996,-656.515)">
			<title>工作表.6</title>
			<desc>色　　</desc>
			<v:textBlock v:margins="rect(4,4,4,4)" v:tabSpace="42.5197"/>
			<v:textRect cx="28.3465" cy="687.424" width="56.7" height="24.378"/>
			<rect x="0" y="675.235" width="56.6929" height="24.378" class="st1"/>
			<text x="4.35" y="692.22" class="st2" v:langID="1028"><v:paragraph v:horizAlign="1"/><v:tabList/>色　　</text>		</g>
		<g id="shape7-19" v:mID="7" v:groupContext="shape" transform="translate(18.72,-603.507)">
			<title>工作表.7</title>
			<desc>約法假說五陰世間────────</desc>
			<v:textBlock v:margins="rect(4,4,4,4)" v:tabSpace="42.5197"/>
			<v:textRect cx="148.819" cy="687.424" width="297.64" height="24.378"/>
			<rect x="0" y="675.235" width="297.638" height="24.378" class="st1"/>
			<text x="4.82" y="692.22" class="st2" v:langID="1028"><v:paragraph v:horizAlign="1"/><v:tabList/>約法假說（五陰世間）────────</text>		</g>
		<g id="shape8-22" v:mID="8" v:groupContext="shape" transform="translate(311.539,-615.555)">
			<title>工作表.8</title>
			<path d="M0 699.61 L6.73 699.61" class="st3"/>
		</g>
		<g id="shape9-25" v:mID="9" v:groupContext="shape" transform="translate(318.736,-668.704)">
			<title>工作表.9</title>
			<path d="M0 699.61 L6.73 699.61" class="st3"/>
		</g>
		<g id="shape10-28" v:mID="10" v:groupContext="shape" transform="translate(318.98,-562.405)">
			<title>工作表.10</title>
			<path d="M0 699.61 L6.73 699.61" class="st3"/>
		</g>
		<g id="shape11-31" v:mID="11" v:groupContext="shape" transform="translate(-380.632,138.815) rotate(-90.1316)">
			<title>工作表.11</title>
			<path d="M0 699.61 L106.3 699.61" class="st3"/>
		</g>
		<g id="shape13-34" v:mID="13" v:groupContext="shape" transform="translate(324.259,-347.559)">
			<title>工作表.13</title>
			<desc>親友─兄弟、師生、僚屬……</desc>
			<v:textBlock v:margins="rect(4,4,4,4)" v:tabSpace="42.5197"/>
			<v:textRect cx="110.283" cy="591.066" width="220.57" height="217.094"/>
			<rect x="0" y="482.519" width="220.567" height="217.094" class="st1"/>
			<text x="6.28" y="595.87" class="st2" v:langID="1028"><v:paragraph v:horizAlign="1"/><v:tabList/>親友─兄弟、師生、僚屬……</text>		</g>
		<g id="shape14-37" v:mID="14" v:groupContext="shape" transform="translate(325.322,-520.385)">
			<title>工作表.14</title>
			<desc>父母</desc>
			<v:textBlock v:margins="rect(4,4,4,4)" v:tabSpace="42.5197"/>
			<v:textRect cx="21.3465" cy="678.94" width="42.7" height="41.3465"/>
			<rect x="0" y="658.267" width="42.6929" height="41.3465" class="st1"/>
			<text x="5.35" y="683.74" class="st2" v:langID="1028"><v:paragraph v:horizAlign="1"/><v:tabList/>父母</text>		</g>
		<g id="shape15-40" v:mID="15" v:groupContext="shape" transform="translate(325.322,-499.212)">
			<title>工作表.15</title>
			<desc>夫妻</desc>
			<v:textBlock v:margins="rect(4,4,4,4)" v:tabSpace="42.5197"/>
			<v:textRect cx="21.3465" cy="678.94" width="42.7" height="41.3465"/>
			<rect x="0" y="658.267" width="42.6929" height="41.3465" class="st1"/>
			<text x="5.35" y="683.74" class="st2" v:langID="1028"><v:paragraph v:horizAlign="1"/><v:tabList/>夫妻</text>		</g>
		<g id="shape16-43" v:mID="16" v:groupContext="shape" transform="translate(325.322,-456.606)">
			<title>工作表.16</title>
			<desc>僕使</desc>
			<v:textBlock v:margins="rect(4,4,4,4)" v:tabSpace="42.5197"/>
			<v:textRect cx="21.3465" cy="678.94" width="42.7" height="41.3465"/>
			<rect x="0" y="658.267" width="42.6929" height="41.3465" class="st1"/>
			<text x="5.35" y="683.74" class="st2" v:langID="1028"><v:paragraph v:horizAlign="1"/><v:tabList/>僕使</text>		</g>
		<g id="shape17-46" v:mID="17" v:groupContext="shape" transform="translate(325.322,-478.039)">
			<title>工作表.17</title>
			<desc>兒女</desc>
			<v:textBlock v:margins="rect(4,4,4,4)" v:tabSpace="42.5197"/>
			<v:textRect cx="21.3465" cy="678.94" width="42.7" height="41.3465"/>
			<rect x="0" y="658.267" width="42.6929" height="41.3465" class="st1"/>
			<text x="5.35" y="683.74" class="st2" v:langID="1028"><v:paragraph v:horizAlign="1"/><v:tabList/>兒女</text>		</g>
		<g id="shape18-49" v:mID="18" v:groupContext="shape" transform="translate(318.626,-541.145)">
			<title>工作表.18</title>
			<path d="M0 699.61 L7.09 699.61" class="st3"/>
		</g>
		<g id="shape19-52" v:mID="19" v:groupContext="shape" transform="translate(318.626,-307.287)">
			<title>工作表.19</title>
			<path d="M0 699.61 L7.09 699.61" class="st3"/>
		</g>
		<g id="shape20-55" v:mID="20" v:groupContext="shape" transform="translate(326.74,-389.724)">
			<title>工作表.20</title>
			<desc>牛、馬……</desc>
			<v:textBlock v:margins="rect(4,4,4,4)" v:tabSpace="42.5197"/>
			<v:textRect cx="44.378" cy="654.491" width="88.76" height="90.2441"/>
			<rect x="0" y="609.369" width="88.7559" height="90.2441" class="st1"/>
			<text x="4.38" y="659.29" class="st2" v:langID="1028"><v:paragraph v:horizAlign="1"/><v:tabList/>牛、馬……</text>		</g>
		<g id="shape21-58" v:mID="21" v:groupContext="shape" transform="translate(326.031,-329.488)">
			<title>工作表.21</title>
			<desc>土地─山、水、田、園</desc>
			<v:textBlock v:margins="rect(4,4,4,4)" v:tabSpace="42.5197"/>
			<v:textRect cx="84.063" cy="615.515" width="168.13" height="168.197"/>
			<rect x="0" y="531.416" width="168.126" height="168.197" class="st1"/>
			<text x="4.06" y="620.31" class="st2" v:langID="1028"><v:paragraph v:horizAlign="1"/><v:tabList/>土地─山、水、田、園</text>		</g>
		<g id="shape22-61" v:mID="22" v:groupContext="shape" transform="translate(325.322,-371.74)">
			<title>工作表.22</title>
			<desc>房舍</desc>
			<v:textBlock v:margins="rect(4,4,4,4)" v:tabSpace="42.5197"/>
			<v:textRect cx="21.3465" cy="678.94" width="42.7" height="41.3465"/>
			<rect x="0" y="658.267" width="42.6929" height="41.3465" class="st1"/>
			<text x="5.35" y="683.74" class="st2" v:langID="1028"><v:paragraph v:horizAlign="1"/><v:tabList/>房舍</text>		</g>
		<g id="shape23-64" v:mID="23" v:groupContext="shape" transform="translate(325.322,-329.047)">
			<title>工作表.23</title>
			<desc>邸肆</desc>
			<v:textBlock v:margins="rect(4,4,4,4)" v:tabSpace="42.5197"/>
			<v:textRect cx="21.3465" cy="678.94" width="42.7" height="41.3465"/>
			<rect x="0" y="658.267" width="42.6929" height="41.3465" class="st1"/>
			<text x="5.35" y="683.74" class="st2" v:langID="1028"><v:paragraph v:horizAlign="1"/><v:tabList/>邸肆</text>		</g>
		<g id="shape24-67" v:mID="24" v:groupContext="shape" transform="translate(324.259,-262.519)">
			<title>工作表.24</title>
			<desc>庫藏─金銀、珠寶、穀物……</desc>
			<v:textBlock v:margins="rect(4,4,4,4)" v:tabSpace="42.5197"/>
			<v:textRect cx="110.283" cy="591.066" width="220.57" height="217.094"/>
			<rect x="0" y="482.519" width="220.567" height="217.094" class="st1"/>
			<text x="6.28" y="595.87" class="st2" v:langID="1028"><v:paragraph v:horizAlign="1"/><v:tabList/>庫藏─金銀、珠寶、穀物……</text>		</g>
		<g id="shape25-70" v:mID="25" v:groupContext="shape" transform="translate(324.259,-220)">
			<title>工作表.25</title>
			<desc>作業─經商、從政、力農……</desc>
			<v:textBlock v:margins="rect(4,4,4,4)" v:tabSpace="42.5197"/>
			<v:textRect cx="110.283" cy="591.066" width="220.57" height="217.094"/>
			<rect x="0" y="482.519" width="220.567" height="217.094" class="st1"/>
			<text x="6.28" y="595.87" class="st2" v:langID="1028"><v:paragraph v:horizAlign="1"/><v:tabList/>作業─經商、從政、力農……</text>		</g>
		<g id="shape26-73" v:mID="26" v:groupContext="shape" transform="translate(324.259,-198.74)">
			<title>工作表.26</title>
			<desc>福業─社會福利、弘通佛教…</desc>
			<v:textBlock v:margins="rect(4,4,4,4)" v:tabSpace="42.5197"/>
			<v:textRect cx="110.283" cy="591.066" width="220.57" height="217.094"/>
			<rect x="0" y="482.519" width="220.567" height="217.094" class="st1"/>
			<text x="6.28" y="595.87" class="st2" v:langID="1028"><v:paragraph v:horizAlign="1"/><v:tabList/>福業─社會福利、弘通佛教…</text>		</g>
		<g id="shape27-76" v:mID="27" v:groupContext="shape" transform="translate(-380.988,392.326) rotate(-90)">
			<title>工作表.27</title>
			<path d="M0 699.61 L233.86 699.61" class="st3"/>
		</g>
		<g id="shape28-79" v:mID="28" v:groupContext="shape" transform="translate(311.539,-392.413)">
			<title>工作表.28</title>
			<path d="M0 699.61 L7.09 699.61" class="st3"/>
		</g>
		<g id="shape29-82" v:mID="29" v:groupContext="shape" transform="translate(325.322,-265.44)">
			<title>工作表.29</title>
			<desc>飲食</desc>
			<v:textBlock v:margins="rect(4,4,4,4)" v:tabSpace="42.5197"/>
			<v:textRect cx="21.3465" cy="678.94" width="42.7" height="41.3465"/>
			<rect x="0" y="658.267" width="42.6929" height="41.3465" class="st1"/>
			<text x="5.35" y="683.74" class="st2" v:langID="1028"><v:paragraph v:horizAlign="1"/><v:tabList/>飲食</text>		</g>
		<g id="shape30-85" v:mID="30" v:groupContext="shape" transform="translate(268.629,-371.74)">
			<title>工作表.30</title>
			<desc>攝受</desc>
			<v:textBlock v:margins="rect(4,4,4,4)" v:tabSpace="42.5197"/>
			<v:textRect cx="21.3465" cy="678.94" width="42.7" height="41.3465"/>
			<rect x="0" y="658.267" width="42.6929" height="41.3465" class="st1"/>
			<text x="5.35" y="683.74" class="st2" v:langID="1028"><v:paragraph v:horizAlign="1"/><v:tabList/>攝受</text>		</g>
		<g id="shape31-88" v:mID="31" v:groupContext="shape" transform="translate(325.322,-244.007)">
			<title>工作表.31</title>
			<desc>車乘</desc>
			<v:textBlock v:margins="rect(4,4,4,4)" v:tabSpace="42.5197"/>
			<v:textRect cx="21.3465" cy="678.94" width="42.7" height="41.3465"/>
			<rect x="0" y="658.267" width="42.6929" height="41.3465" class="st1"/>
			<text x="5.35" y="683.74" class="st2" v:langID="1028"><v:paragraph v:horizAlign="1"/><v:tabList/>車乘</text>		</g>
		<g id="shape12-91" v:mID="12" v:groupContext="shape" transform="translate(325.322,-222.834)">
			<title>工作表.12</title>
			<desc>衣服</desc>
			<v:textBlock v:margins="rect(4,4,4,4)" v:tabSpace="42.5197"/>
			<v:textRect cx="21.3465" cy="678.94" width="42.7" height="41.3465"/>
			<rect x="0" y="658.267" width="42.6929" height="41.3465" class="st1"/>
			<text x="5.35" y="683.74" class="st2" v:langID="1028"><v:paragraph v:horizAlign="1"/><v:tabList/>衣服</text>		</g>
		<g id="shape32-94" v:mID="32" v:groupContext="shape" transform="translate(326.118,-193.779)">
			<title>工作表.32</title>
			<desc>嚴飾具</desc>
			<v:textBlock v:margins="rect(4,4,4,4)" v:tabSpace="42.5197"/>
			<v:textRect cx="28.3465" cy="671.145" width="56.7" height="56.937"/>
			<rect x="0" y="642.676" width="56.6929" height="56.937" class="st1"/>
			<text x="4.35" y="675.95" class="st2" v:langID="1028"><v:paragraph v:horizAlign="1"/><v:tabList/>嚴飾具</text>		</g>
		<g id="shape33-97" v:mID="33" v:groupContext="shape" transform="translate(326.031,-116.889)">
			<title>工作表.33</title>
			<desc>歌舞、戲樂、博奕……</desc>
			<v:textBlock v:margins="rect(4,4,4,4)" v:tabSpace="42.5197"/>
			<v:textRect cx="84.063" cy="615.515" width="168.13" height="168.197"/>
			<rect x="0" y="531.416" width="168.126" height="168.197" class="st1"/>
			<text x="4.06" y="620.31" class="st2" v:langID="1028"><v:paragraph v:horizAlign="1"/><v:tabList/>歌舞、戲樂、博奕<tspan
						class="st4">……</tspan></text>		</g>
		<g id="shape34-101" v:mID="34" v:groupContext="shape" transform="translate(325.055,-119.724)">
			<title>工作表.34</title>
			<desc>華鬘、塗末……</desc>
			<v:textBlock v:margins="rect(4,4,4,4)" v:tabSpace="42.5197"/>
			<v:textRect cx="60.9449" cy="639.609" width="121.89" height="120.008"/>
			<rect x="0" y="579.605" width="121.89" height="120.008" class="st1"/>
			<text x="4.95" y="644.41" class="st2" v:langID="1028"><v:paragraph v:horizAlign="1"/><v:tabList/>華鬘、塗末<tspan
						class="st4">……</tspan></text>		</g>
		<g id="shape35-105" v:mID="35" v:groupContext="shape" transform="translate(268.629,-159.055)">
			<title>工作表.35</title>
			<desc>資用</desc>
			<v:textBlock v:margins="rect(4,4,4,4)" v:tabSpace="42.5197"/>
			<v:textRect cx="21.3465" cy="678.94" width="42.7" height="41.3465"/>
			<rect x="0" y="658.267" width="42.6929" height="41.3465" class="st1"/>
			<text x="5.35" y="683.74" class="st2" v:langID="1028"><v:paragraph v:horizAlign="1"/><v:tabList/>資用</text>		</g>
		<g id="shape36-108" v:mID="36" v:groupContext="shape" transform="translate(318.909,-286.027)">
			<title>工作表.36</title>
			<path d="M0 699.61 L7.09 699.61" class="st3"/>
		</g>
		<g id="shape37-111" v:mID="37" v:groupContext="shape" transform="translate(311.822,-179.728)">
			<title>工作表.37</title>
			<path d="M0 699.61 L7.09 699.61" class="st3"/>
		</g>
		<g id="shape38-114" v:mID="38" v:groupContext="shape" transform="translate(318.909,-52.1688)">
			<title>工作表.38</title>
			<path d="M0 699.61 L7.09 699.61" class="st3"/>
		</g>
		<g id="shape42-117" v:mID="42" v:groupContext="shape" transform="translate(197.519,-329.047)">
			<title>工作表.42</title>
			<desc>眷屬</desc>
			<v:textBlock v:margins="rect(4,4,4,4)" v:tabSpace="42.5197"/>
			<v:textRect cx="21.3465" cy="678.94" width="42.7" height="41.3465"/>
			<rect x="0" y="658.267" width="42.6929" height="41.3465" class="st1"/>
			<text x="5.35" y="683.74" class="st2" v:langID="1028"><v:paragraph v:horizAlign="1"/><v:tabList/>眷屬</text>		</g>
		<g id="shape43-120" v:mID="43" v:groupContext="shape" transform="translate(197.519,-180.314)">
			<title>工作表.43</title>
			<desc>資產</desc>
			<v:textBlock v:margins="rect(4,4,4,4)" v:tabSpace="42.5197"/>
			<v:textRect cx="21.3465" cy="678.94" width="42.7" height="41.3465"/>
			<rect x="0" y="658.267" width="42.6929" height="41.3465" class="st1"/>
			<text x="5.35" y="683.74" class="st2" v:langID="1028"><v:paragraph v:horizAlign="1"/><v:tabList/>資產</text>		</g>
		<g id="shape44-123" v:mID="44" v:groupContext="shape" transform="translate(1018.52,413.586) rotate(90)">
			<title>工作表.44</title>
			<path d="M0 699.61 L233.86 699.61" class="st3"/>
		</g>
		<g id="shape39-126" v:mID="39" v:groupContext="shape" transform="translate(18.8263,-152.279)">
			<title>工作表.39</title>
			<desc>約受假說</desc>
			<v:textBlock v:margins="rect(4,4,4,4)" v:tabSpace="42.5197"/>
			<v:textRect cx="38" cy="661.578" width="76.01" height="76.0709"/>
			<rect x="0" y="623.542" width="76" height="76.0709" class="st1"/>
			<text x="6" y="666.56" class="st2" v:langID="1028"><v:paragraph v:horizAlign="1"/><v:tabList/>約受假說</text>		</g>
		<g id="shape40-129" v:mID="40" v:groupContext="shape" transform="translate(79.5586,-138.228)">
			<title>工作表.40</title>
			<desc>有情世間　　　　</desc>
			<v:textBlock v:margins="rect(4,4,4,4)" v:tabSpace="42.5197"/>
			<v:textRect cx="52.6181" cy="647.527" width="105.24" height="104.173"/>
			<rect x="0" y="595.44" width="105.236" height="104.173" class="st1"/>
			<text x="0.25em" y="642.73" class="st2" v:langID="1028"><v:paragraph v:horizAlign="4"/><v:tabList/>（<tspan x="1.265em
							 2.281em 3.296em 4.312em" dy="0em" class="st5">有情世間</tspan><tspan x="5.327em" dy="0em" class="st5">）</tspan><tspan
						x="0.25em 1.265em 2.281em 3.296em 4.312em 5.327em" dy="1.2em" class="st5">（　　　　）</tspan></text>		</g>
		<g id="shape45-135" v:mID="45" v:groupContext="shape" transform="translate(95.3106,-143.689)">
			<title>工作表.45</title>
			<desc>器世間</desc>
			<v:textBlock v:margins="rect(4,4,4,4)" v:tabSpace="42.5197"/>
			<v:textRect cx="36.5827" cy="662.641" width="73.17" height="73.9449"/>
			<rect x="0" y="625.668" width="73.1654" height="73.9449" class="st1"/>
			<text x="0.25em 1.786em 3.323em" y="667.62" class="st2" v:langID="1028"><v:paragraph v:horizAlign="4"/><v:tabList/>器世間</text>		</g>
		<g id="shape46-138" v:mID="46" v:groupContext="shape" transform="translate(326.031,-74.3696)">
			<title>工作表.46</title>
			<desc>雜物─傢具、玩具……</desc>
			<v:textBlock v:margins="rect(4,4,4,4)" v:tabSpace="42.5197"/>
			<v:textRect cx="84.063" cy="615.515" width="168.13" height="168.197"/>
			<rect x="0" y="531.416" width="168.126" height="168.197" class="st1"/>
			<text x="4.06" y="620.31" class="st2" v:langID="1028"><v:paragraph v:horizAlign="1"/><v:tabList/>雜物─傢具、玩具<tspan
						class="st4">……</tspan></text>		</g>
		<g id="shape47-142" v:mID="47" v:groupContext="shape" transform="translate(325.322,-116.622)">
			<title>工作表.47</title>
			<desc>光明</desc>
			<v:textBlock v:margins="rect(4,4,4,4)" v:tabSpace="42.5197"/>
			<v:textRect cx="21.3465" cy="678.94" width="42.7" height="41.3465"/>
			<rect x="0" y="658.267" width="42.6929" height="41.3465" class="st1"/>
			<text x="5.35" y="683.74" class="st2" v:langID="1028"><v:paragraph v:horizAlign="1"/><v:tabList/>光明</text>		</g>
		<g id="shape48-145" v:mID="48" v:groupContext="shape" transform="translate(323.649,-23.8224)">
			<title>工作表.48</title>
			<desc>宅舍、床榻……憇息</desc>
			<v:textBlock v:margins="rect(4,4,4,4)" v:tabSpace="42.5197"/>
			<v:textRect cx="94.4724" cy="607.487" width="188.95" height="184.252"/>
			<rect x="0" y="515.361" width="188.945" height="184.252" class="st1"/>
			<text x="6.47" y="612.29" class="st6" v:langID="1028"><v:paragraph v:horizAlign="1"/><v:tabList/>宅舍、床榻……（憇息）</text>		</g>
		<g id="shape49-148" v:mID="49" v:groupContext="shape" transform="translate(326.385,-82.4995)">
			<title>工作表.49</title>
			<desc>男女受行─淫欲、承事、侍衛…</desc>
			<v:textBlock v:margins="rect(4,4,4,4)" v:tabSpace="42.5197"/>
			<v:textRect cx="117.37" cy="687.424" width="234.75" height="24.378"/>
			<rect x="0" y="675.235" width="234.74" height="24.378" class="st1"/>
			<text x="5.37" y="692.22" class="st2" v:langID="1028"><v:paragraph v:horizAlign="1"/><v:tabList/>男女受行─淫欲、承事、侍衛<tspan
						class="st4">…</tspan></text>		</g>
		<g id="shape50-152" v:mID="50" v:groupContext="shape" transform="translate(326.031,-61.2397)">
			<title>工作表.50</title>
			<desc>滋長─運動、按摩……</desc>
			<v:textBlock v:margins="rect(4,4,4,4)" v:tabSpace="42.5197"/>
			<v:textRect cx="84.063" cy="687.424" width="168.13" height="24.378"/>
			<rect x="0" y="675.235" width="168.126" height="24.378" class="st1"/>
			<text x="4.06" y="692.22" class="st2" v:langID="1028"><v:paragraph v:horizAlign="1"/><v:tabList/>滋長─運動、按摩<tspan
						class="st4">……</tspan></text>		</g>
		<g id="shape51-156" v:mID="51" v:groupContext="shape" transform="translate(326.031,-39.9798)">
			<title>工作表.51</title>
			<desc>清淨─澡浴、潔淨……</desc>
			<v:textBlock v:margins="rect(4,4,4,4)" v:tabSpace="42.5197"/>
			<v:textRect cx="84.063" cy="687.424" width="168.13" height="24.378"/>
			<rect x="0" y="675.235" width="168.126" height="24.378" class="st1"/>
			<text x="4.06" y="692.22" class="st2" v:langID="1028"><v:paragraph v:horizAlign="1"/><v:tabList/>清淨─澡浴、潔淨<tspan
						class="st4">……</tspan></text>		</g>
		<g id="shape52-160" v:mID="52" v:groupContext="shape" transform="translate(197.519,-18.72)">
			<title>工作表.52</title>
			<desc>自體──────色、力、健、壽、生命永續</desc>
			<v:textBlock v:margins="rect(4,4,4,4)" v:tabSpace="42.5197"/>
			<v:textRect cx="165.205" cy="687.424" width="330.41" height="24.378"/>
			<rect x="0" y="675.235" width="330.409" height="24.378" class="st1"/>
			<text x="5.21" y="692.41" class="st2" v:langID="1028"><v:paragraph v:horizAlign="1"/><v:tabList/>自體──────色、力、健、壽、生命永續</text>		</g>
		<g id="shape53-163" v:mID="53" v:groupContext="shape" transform="translate(-341.157,-37.7021) rotate(-56.3099)">
			<title>工作表.53</title>
			<path d="M0 699.61 L51.1 699.61" class="st3"/>
		</g>
		<g id="shape54-166" v:mID="54" v:groupContext="shape" transform="translate(656.027,-64.1701) rotate(36.3657)">
			<title>工作表.54</title>
			<path d="M0 699.61 L34.9 699.61" class="st3"/>
		</g>
		<g id="shape55-169" v:mID="55" v:groupContext="shape" transform="translate(931.019,235.171) rotate(80.5221)">
			<title>工作表.55</title>
			<path d="M0 699.61 L171.86 699.61" class="st3"/>
		</g>
		<g id="shape56-172" v:mID="56" v:groupContext="shape" transform="translate(-450.987,397.529) rotate(-81.6446)">
			<title>工作表.56</title>
			<path d="M0 699.61 L193.39 699.61" class="st3"/>
		</g>
		<g id="shape57-175" v:mID="57" v:groupContext="shape" transform="translate(191.594,-349.72)">
			<title>工作表.57</title>
			<path d="M0 699.61 L7.09 699.61" class="st3"/>
		</g>
		<g id="shape58-178" v:mID="58" v:groupContext="shape" transform="translate(191.594,-30.909)">
			<title>工作表.58</title>
			<path d="M0 699.61 L7.09 699.61" class="st3"/>
		</g>
		<g id="shape59-181" v:mID="59" v:groupContext="shape" transform="translate(-508.019,668.704) rotate(-90)">
			<title>工作表.59</title>
			<path d="M0 699.61 L318.81 699.61" class="st3"/>
		</g>
		<g id="shape60-184" v:mID="60" v:groupContext="shape" transform="translate(184.507,-190.314)">
			<title>工作表.60</title>
			<path d="M0 699.61 L7.09 699.61" class="st3"/>
		</g>
	</g>
</svg>
