<?xml version="1.0" encoding="UTF-8" standalone="no"?>
<!DOCTYPE svg PUBLIC "-//W3C//DTD SVG 1.0//EN" "http://www.w3.org/TR/2001/REC-SVG-20010904/DTD/svg10.dtd">
<!-- 由 Microsoft Visio 11.0, SVG Export, v1.0 產生 y08.0060-h.svg Page-1 -->
<svg xmlns="http://www.w3.org/2000/svg" xmlns:xlink="http://www.w3.org/1999/xlink" xmlns:ev="http://www.w3.org/2001/xml-events"
		xmlns:v="http://schemas.microsoft.com/visio/2003/SVGExtensions/" width="5.20504in" height="5.22811in"
		viewBox="0 0 374.763 376.424" xml:space="preserve" color-interpolation-filters="sRGB" class="st5">
	<title>y08.0060</title>
	<v:documentProperties v:langID="1028" v:metric="true" v:viewMarkup="false"/>

	<style type="text/css">
	<![CDATA[
		.st1 {fill:none;stroke:none;stroke-linecap:round;stroke-linejoin:round;stroke-width:0.72}
		.st2 {fill:#000000;font-family:新細明體;font-size:1.33333em}
		.st3 {stroke:#000000;stroke-linecap:round;stroke-linejoin:round;stroke-width:0.72}
		.st4 {stroke:#ffffff;stroke-linecap:round;stroke-linejoin:round;stroke-width:0.72}
		.st5 {fill:none;fill-rule:evenodd;font-size:12px;overflow:visible;stroke-linecap:square;stroke-miterlimit:3}
	]]>
	</style>

	<g v:mID="0" v:index="1" v:groupContext="foregroundPage">
		<title>Page-1</title>
		<v:pageProperties v:drawingScale="0.0393701" v:pageScale="0.0393701" v:drawingUnits="24" v:shadowOffsetX="8.50394"
				v:shadowOffsetY="-8.50394"/>
		<g id="shape1-1" v:mID="1" v:groupContext="shape" transform="translate(28.4326,-18.72)">
			<title>工作表.1</title>
			<desc>識……………………………………識</desc>
			<v:textBlock v:margins="rect(4,4,4,4)" v:tabSpace="42.5197"/>
			<v:textRect cx="132.606" cy="243.783" width="265.22" height="265.283"/>
			<rect x="0" y="111.141" width="265.213" height="265.283" class="st1"/>
			<text x="4.61" y="248.77" class="st2" v:langID="1028"><v:paragraph v:horizAlign="1"/><v:tabList/>識……………………………………識</text>		</g>
		<g id="shape2-4" v:mID="2" v:groupContext="shape" transform="translate(155.681,-110.846)">
			<title>工作表.2</title>
			<desc>造作……………行</desc>
			<v:textBlock v:margins="rect(4,4,4,4)" v:tabSpace="42.5197"/>
			<v:textRect cx="69.1378" cy="307.562" width="138.28" height="137.724"/>
			<rect x="0" y="238.7" width="138.276" height="137.724" class="st1"/>
			<text x="5.14" y="312.55" class="st2" v:langID="1028"><v:paragraph v:horizAlign="1"/><v:tabList/>造作……………行</text>		</g>
		<g id="shape3-7" v:mID="3" v:groupContext="shape" transform="translate(155.681,-139.192)">
			<title>工作表.3</title>
			<desc>認識……………想</desc>
			<v:textBlock v:margins="rect(4,4,4,4)" v:tabSpace="42.5197"/>
			<v:textRect cx="69.1378" cy="307.562" width="138.28" height="137.724"/>
			<rect x="0" y="238.7" width="138.276" height="137.724" class="st1"/>
			<text x="5.14" y="312.55" class="st2" v:langID="1028"><v:paragraph v:horizAlign="1"/><v:tabList/>認識……………想</text>		</g>
		<g id="shape4-10" v:mID="4" v:groupContext="shape" transform="translate(155.681,-167.539)">
			<title>工作表.4</title>
			<desc>情緒……………受</desc>
			<v:textBlock v:margins="rect(4,4,4,4)" v:tabSpace="42.5197"/>
			<v:textRect cx="69.1378" cy="307.562" width="138.28" height="137.724"/>
			<rect x="0" y="238.7" width="138.276" height="137.724" class="st1"/>
			<text x="5.14" y="312.55" class="st2" v:langID="1028"><v:paragraph v:horizAlign="1"/><v:tabList/>情緒……………受</text>		</g>
		<g id="shape5-13" v:mID="5" v:groupContext="shape" transform="translate(106.074,-171.791)">
			<title>工作表.5</title>
			<desc>物質……………………色</desc>
			<v:textBlock v:margins="rect(4,4,4,4)" v:tabSpace="42.5197"/>
			<v:textRect cx="94.6496" cy="283.468" width="189.3" height="185.913"/>
			<rect x="0" y="190.511" width="189.299" height="185.913" class="st1"/>
			<text x="6.65" y="288.45" class="st2" v:langID="1028"><v:paragraph v:horizAlign="1"/><v:tabList/>物質……………………色</text>		</g>
		<g id="shape6-16" v:mID="6" v:groupContext="shape" transform="translate(106.385,-186.673)">
			<title>工作表.6</title>
			<desc>精神</desc>
			<v:textBlock v:margins="rect(4,4,4,4)" v:tabSpace="42.5197"/>
			<v:textRect cx="22.7638" cy="355.042" width="45.53" height="42.7638"/>
			<rect x="0" y="333.66" width="45.5276" height="42.7638" class="st1"/>
			<text x="6.76" y="360.03" class="st2" v:langID="1028"><v:paragraph v:horizAlign="1"/><v:tabList/>精神</text>		</g>
		<g id="shape7-19" v:mID="7" v:groupContext="shape" transform="translate(27.7239,-199.074)">
			<title>工作表.7</title>
			<desc>識所依住</desc>
			<v:textBlock v:margins="rect(4,4,4,4)" v:tabSpace="42.5197"/>
			<v:textRect cx="38" cy="339.097" width="76" height="74.6535"/>
			<rect x="0" y="301.771" width="76" height="74.6535" class="st1"/>
			<text x="6" y="344.08" class="st2" v:langID="1028"><v:paragraph v:horizAlign="1"/><v:tabList/>識所依住</text>		</g>
		<g id="shape8-22" v:mID="8" v:groupContext="shape" transform="translate(159.035,516.447) rotate(180)">
			<title>工作表.8</title>
			<path d="M0 376.42 L7.09 376.42" class="st3"/>
		</g>
		<g id="shape9-25" v:mID="9" v:groupContext="shape" transform="translate(159.035,573.14) rotate(180)">
			<title>工作表.9</title>
			<path d="M0 376.42 L7.09 376.42" class="st3"/>
		</g>
		<g id="shape10-28" v:mID="10" v:groupContext="shape" transform="translate(151.948,544.794) rotate(180)">
			<title>工作表.10</title>
			<path d="M0 376.42 L7.09 376.42" class="st3"/>
		</g>
		<g id="shape11-31" v:mID="11" v:groupContext="shape" transform="translate(112.263,544.794) rotate(180)">
			<title>工作表.11</title>
			<path d="M0 376.42 L7.09 376.42" class="st3"/>
		</g>
		<g id="shape12-34" v:mID="12" v:groupContext="shape" transform="translate(112.263,488.101) rotate(180)">
			<title>工作表.12</title>
			<path d="M0 376.42 L7.09 376.42" class="st3"/>
		</g>
		<g id="shape13-37" v:mID="13" v:groupContext="shape" transform="translate(105.177,516.447) rotate(180)">
			<title>工作表.13</title>
			<path d="M0 376.42 L7.09 376.42" class="st3"/>
		</g>
		<g id="shape14-40" v:mID="14" v:groupContext="shape" transform="translate(-271.248,168.37) rotate(-90)">
			<title>工作表.14</title>
			<path d="M0 376.42 L56.69 376.42" class="st3"/>
		</g>
		<g id="shape15-43" v:mID="15" v:groupContext="shape" transform="translate(-224.476,196.716) rotate(-90)">
			<title>工作表.15</title>
			<path d="M0 376.42 L56.69 376.42" class="st3"/>
		</g>
		<g id="shape16-46" v:mID="16" v:groupContext="shape" transform="translate(306.228,-186.673)">
			<title>工作表.16</title>
			<desc>五蘊</desc>
			<v:textBlock v:margins="rect(4,4,4,4)" v:tabSpace="42.5197"/>
			<v:textRect cx="22.7638" cy="355.042" width="45.53" height="42.7638"/>
			<rect x="0" y="333.66" width="45.5276" height="42.7638" class="st1"/>
			<text x="6.76" y="360.03" class="st2" v:langID="1028"><v:paragraph v:horizAlign="1"/><v:tabList/>五蘊</text>		</g>
		<g id="shape17-49" v:mID="17" v:groupContext="shape" transform="translate(300.767,601.487) rotate(180)">
			<title>工作表.17</title>
			<path d="M0 376.42 L7.09 376.42" class="st3"/>
		</g>
		<g id="shape18-52" v:mID="18" v:groupContext="shape" transform="translate(300.767,488.101) rotate(180)">
			<title>工作表.18</title>
			<path d="M0 376.42 L7.09 376.42" class="st3"/>
		</g>
		<g id="shape19-55" v:mID="19" v:groupContext="shape" transform="translate(307.854,544.794) rotate(180)">
			<title>工作表.19</title>
			<path d="M0 376.42 L7.09 376.42" class="st3"/>
		</g>
		<g id="shape20-58" v:mID="20" v:groupContext="shape" transform="translate(-75.657,225.063) rotate(-90)">
			<title>工作表.20</title>
			<path d="M0 376.42 L113.39 376.42" class="st3"/>
		</g>
		<g id="group25-61" transform="translate(-20.3814,245.527) rotate(-90)" v:mID="25" v:groupContext="group">
			<title>工作表.25</title>
			<g id="shape21-62" v:mID="21" v:groupContext="shape" transform="translate(0.622047,-337.323)">
				<title>工作表.21</title>
				<path d="M0 376.42 L153.07 376.42" class="st4"/>
			</g>
			<g id="shape22-65" v:mID="22" v:groupContext="shape">
				<title>工作表.22</title>
				<path d="M0 376.42 L153.07 376.42" class="st4"/>
			</g>
			<g id="shape23-68" v:mID="23" v:groupContext="shape" transform="translate(530.117,39.7956) rotate(90.1057)">
				<title>工作表.23</title>
				<path d="M0 376.42 L337.32 376.42" class="st4"/>
			</g>
			<g id="shape24-71" v:mID="24" v:groupContext="shape" transform="translate(377.046,39.7956) rotate(90.1057)">
				<title>工作表.24</title>
				<path d="M0 376.42 L337.32 376.42" class="st4"/>
			</g>
		</g>
	</g>
</svg>
