<?xml version="1.0" encoding="UTF-8" standalone="no"?>
<!DOCTYPE svg PUBLIC "-//W3C//DTD SVG 1.1//EN" "http://www.w3.org/Graphics/SVG/1.1/DTD/svg11.dtd">
<!-- 由 Microsoft Visio, SVG Export 產生 y08.0024-h.svg 頁-1 -->
<svg xmlns="http://www.w3.org/2000/svg" xmlns:xlink="http://www.w3.org/1999/xlink" xmlns:ev="http://www.w3.org/2001/xml-events"
		width="7.02449in" height="2.6478in" viewBox="0 0 505.763 190.641" xml:space="preserve" color-interpolation-filters="sRGB"
		class="st4">
	<title>y08.0024</title>

	<style type="text/css">
	<![CDATA[
		.st1 {fill:none;stroke:none;stroke-linecap:round;stroke-linejoin:round;stroke-width:0.72}
		.st2 {fill:#000000;font-family:新細明體;font-size:1.33333em}
		.st3 {stroke:#000000;stroke-linecap:round;stroke-linejoin:round;stroke-width:0.72}
		.st4 {fill:none;fill-rule:evenodd;font-size:12px;overflow:visible;stroke-linecap:square;stroke-miterlimit:3}
	]]>
	</style>

	<g>
		<title>頁-1</title>
		<g id="group20-1" transform="translate(0.36,-0.36)">
			<title>工作表.20</title>
			<g id="shape1-2" transform="translate(0.476378,-85.0394)">
				<title>工作表.1</title>
				<desc>僧伽――――比丘―――――――――――――――――――――僧伽</desc>
				<rect x="0" y="170.799" width="504.567" height="19.8425" class="st1"/>
				<text x="4.28" y="185.7" class="st2">僧伽――――比丘―――――――――――――――――――――僧伽</text>			</g>
			<g id="shape2-5" transform="translate(-1.59872E-14,-14.1732)">
				<title>工作表.2</title>
				<desc>白衣―――</desc>
				<rect x="0" y="170.799" width="90.7087" height="19.8425" class="st1"/>
				<text x="5.35" y="185.7" class="st2">白衣―――</text>			</g>
			<g id="shape3-8" transform="translate(79.3701,-28.3465)">
				<title>工作表.3</title>
				<desc>――――――――――――――――優婆塞――――</desc>
				<rect x="0" y="170.799" width="379.843" height="19.8425" class="st1"/>
				<text x="5.92" y="185.7" class="st2">――――――――――――――――優婆塞――――</text>			</g>
			<g id="shape4-11" transform="translate(79.3701,0)">
				<title>工作表.4</title>
				<desc>――――――――――――――――優婆夷――――</desc>
				<rect x="0" y="170.799" width="379.843" height="19.8425" class="st1"/>
				<text x="5.92" y="185.7" class="st2">――――――――――――――――優婆夷――――</text>			</g>
			<g id="shape5-14" transform="translate(79.3701,-113.386)">
				<title>工作表.5</title>
				<desc>―比丘尼―――――――――――――――――――</desc>
				<rect x="0" y="170.799" width="379.843" height="19.8425" class="st1"/>
				<text x="5.92" y="185.7" class="st2">―比丘尼―――――――――――――――――――</text>			</g>
			<g id="shape6-17" transform="translate(161.575,-141.732)">
				<title>工作表.6</title>
				<desc>――式叉摩那尼―――――――――――</desc>
				<rect x="0" y="170.799" width="297.638" height="19.8425" class="st1"/>
				<text x="4.82" y="185.7" class="st2">――式叉摩那尼―――――――――――</text>			</g>
			<g id="shape7-20" transform="translate(161.575,-56.6929)">
				<title>工作表.7</title>
				<desc>――――――――沙彌――――――――</desc>
				<rect x="0" y="170.799" width="297.638" height="19.8425" class="st1"/>
				<text x="4.82" y="185.7" class="st2">――――――――沙彌――――――――</text>			</g>
			<g id="shape8-23" transform="translate(161.575,-170.079)">
				<title>工作表.8</title>
				<desc>――――――――沙彌尼―――――――</desc>
				<rect x="0" y="170.799" width="297.638" height="19.8425" class="st1"/>
				<text x="4.82" y="185.7" class="st2">――――――――沙彌尼―――――――</text>			</g>
			<g id="shape9-26" transform="translate(262.902,180.72) rotate(-90)">
				<title>工作表.9</title>
				<path d="M0 190.64 L170.08 190.64" class="st3"/>
			</g>
			<g id="shape10-29" transform="translate(-24.8145,67.3342) rotate(-90)">
				<title>工作表.10</title>
				<path d="M0 190.64 L56.69 190.64" class="st3"/>
			</g>
			<g id="shape11-32" transform="translate(92.8233,38.9877) rotate(-90)">
				<title>工作表.11</title>
				<path d="M0 190.64 L28.35 190.64" class="st3"/>
			</g>
			<g id="shape12-35" transform="translate(-105.602,95.6806) rotate(-90)">
				<title>工作表.12</title>
				<path d="M0 190.64 L28.35 190.64" class="st3"/>
			</g>
			<g id="shape13-38" transform="translate(-105.602,180.72) rotate(-90)">
				<title>工作表.13</title>
				<path d="M0 190.64 L28.35 190.64" class="st3"/>
			</g>
			<g id="shape19-41" transform="translate(-24.8145,124.027) rotate(-90)">
				<title>工作表.19</title>
				<path d="M0 190.64 L28.35 190.64" class="st3"/>
			</g>
		</g>
	</g>
</svg>
