<?xml version="1.0" encoding="UTF-8" standalone="no"?>
<!DOCTYPE svg PUBLIC "-//W3C//DTD SVG 1.1//EN" "http://www.w3.org/Graphics/SVG/1.1/DTD/svg11.dtd">
<!-- 由 Microsoft Visio, SVG Export 產生 y08.0018-h.svg 頁-1 -->
<svg xmlns="http://www.w3.org/2000/svg" xmlns:xlink="http://www.w3.org/1999/xlink" xmlns:ev="http://www.w3.org/2001/xml-events"
		width="7.49272in" height="1.07912in" viewBox="0 0 539.476 77.6964" xml:space="preserve" color-interpolation-filters="sRGB"
		class="st4">
	<title>y08.0018</title>

	<style type="text/css">
	<![CDATA[
		.st1 {fill:none;stroke:none;stroke-linecap:round;stroke-linejoin:round;stroke-width:0.72}
		.st2 {fill:#000000;font-family:新細明體;font-size:1.33333em}
		.st3 {stroke:#000000;stroke-linecap:round;stroke-linejoin:round;stroke-width:0.72}
		.st4 {fill:none;fill-rule:evenodd;font-size:12px;overflow:visible;stroke-linecap:square;stroke-miterlimit:3}
	]]>
	</style>

	<g>
		<title>頁-1</title>
		<g id="group14-1" transform="translate(0.36,-0.36)">
			<title>工作表.14</title>
			<g id="shape1-2" transform="translate(1.59872E-14,-28.7874)">
				<title>工作表.1</title>
				<desc>佛陀創覺者</desc>
				<rect x="0" y="57.8539" width="120.646" height="19.8425" class="st1"/>
				<text x="4.32" y="72.76" class="st2">佛陀（創覺者）</text>			</g>
			<g id="shape2-5" transform="translate(418.11,-28.7874)">
				<title>工作表.2</title>
				<desc>後覺者僧伽</desc>
				<rect x="0" y="57.8539" width="120.646" height="19.8425" class="st1"/>
				<text x="4.32" y="72.76" class="st2">（後覺者）僧伽</text>			</g>
			<g id="shape3-8" transform="translate(126.728,-57.1339)">
				<title>工作表.3</title>
				<desc>自覺正法――見法即見佛――法身常在</desc>
				<rect x="0" y="57.8539" width="284.346" height="19.8425" class="st1"/>
				<text x="6.17" y="72.58" class="st2">自覺正法――見法即見佛――法身常在</text>			</g>
			<g id="shape4-11" transform="translate(126.728,-28.3465)">
				<title>工作表.4</title>
				<desc>………………紹隆佛種…………………</desc>
				<rect x="0" y="57.8539" width="284.346" height="19.8425" class="st1"/>
				<text x="6.17" y="72.58" class="st2">………………紹隆佛種…………………</text>			</g>
			<g id="shape5-14" transform="translate(126.728,-1.42109E-14)">
				<title>工作表.5</title>
				<desc>覺他大眾――僧在即法在――正法久住</desc>
				<rect x="0" y="57.8539" width="284.346" height="19.8425" class="st1"/>
				<text x="6.17" y="72.58" class="st2">覺他大眾――僧在即法在――正法久住</text>			</g>
			<g id="shape6-17" transform="translate(120.083,-67.0551)">
				<title>工作表.6</title>
				<path d="M0 77.7 L7.09 77.7" class="st3"/>
			</g>
			<g id="shape7-20" transform="translate(120.083,-10.3622)">
				<title>工作表.7</title>
				<path d="M0 77.7 L7.09 77.7" class="st3"/>
			</g>
			<g id="shape8-23" transform="translate(112.996,-38.7087)">
				<title>工作表.8</title>
				<path d="M0 77.7 L7.09 77.7" class="st3"/>
			</g>
			<g id="shape9-26" transform="translate(42.3863,67.3342) rotate(-90)">
				<title>工作表.9</title>
				<path d="M0 77.7 L56.69 77.7" class="st3"/>
			</g>
			<g id="shape10-29" transform="translate(410.634,-67.0551)">
				<title>工作表.10</title>
				<path d="M0 77.7 L7.09 77.7" class="st3"/>
			</g>
			<g id="shape11-32" transform="translate(410.634,-10.3622)">
				<title>工作表.11</title>
				<path d="M0 77.7 L7.09 77.7" class="st3"/>
			</g>
			<g id="shape12-35" transform="translate(417.72,-38.7087)">
				<title>工作表.12</title>
				<path d="M0 77.7 L7.09 77.7" class="st3"/>
			</g>
			<g id="shape13-38" transform="translate(340.024,67.3342) rotate(-90)">
				<title>工作表.13</title>
				<path d="M0 77.7 L56.69 77.7" class="st3"/>
			</g>
		</g>
	</g>
</svg>
