<?xml version="1.0" encoding="UTF-8" standalone="no"?>
<!DOCTYPE svg PUBLIC "-//W3C//DTD SVG 1.1//EN" "http://www.w3.org/Graphics/SVG/1.1/DTD/svg11.dtd">
<!-- 由 Microsoft Visio, SVG Export 產生 y08.0146.svg 頁-1 -->
<svg xmlns="http://www.w3.org/2000/svg" xmlns:xlink="http://www.w3.org/1999/xlink" xmlns:ev="http://www.w3.org/2001/xml-events"
		width="5.92984in" height="1.46669in" viewBox="0 0 426.948 105.602" xml:space="preserve" color-interpolation-filters="sRGB"
		class="st5">
	<title>y08.0146</title>

	<style type="text/css">
	<![CDATA[
		.st1 {fill:none;stroke:none;stroke-linecap:round;stroke-linejoin:round;stroke-width:0.72}
		.st2 {fill:#000000;font-family:新細明體;font-size:1.33333em}
		.st3 {stroke:#000000;stroke-linecap:round;stroke-linejoin:round;stroke-width:0.72}
		.st4 {stroke:#000000;stroke-dasharray:5.04,3.6;stroke-linecap:round;stroke-linejoin:round;stroke-width:0.72}
		.st5 {fill:none;fill-rule:evenodd;font-size:12px;overflow:visible;stroke-linecap:square;stroke-miterlimit:3}
	]]>
	</style>

	<g>
		<title>頁-1</title>
		<g id="group29-1" transform="translate(0.36,-0.36)">
			<title>工作表.29</title>
			<g id="shape1-2" transform="translate(-5.19584E-14,-30.0472)">
				<title>工作表.1</title>
				<desc>因緣</desc>
				<rect x="0" y="85.7594" width="41.9843" height="19.8425" class="st1"/>
				<text x="4.99" y="100.66" class="st2">因緣</text>			</g>
			<g id="shape2-5" transform="translate(56.5748,-46.7716)">
				<title>工作表.2</title>
				<desc>緣起支性</desc>
				<rect x="0" y="85.7594" width="72.0157" height="19.8425" class="st1"/>
				<text x="4.01" y="100.66" class="st2">緣起支性</text>			</g>
			<g id="shape3-8" transform="translate(56.5748,-14.1732)">
				<title>工作表.3</title>
				<desc>聖道支性</desc>
				<rect x="0" y="85.7594" width="72.0157" height="19.8425" class="st1"/>
				<text x="4.01" y="100.66" class="st2">聖道支性</text>			</g>
			<g id="shape4-11" transform="translate(56.4409,187.109) rotate(180)">
				<title>工作表.4</title>
				<path d="M0 105.6 L7.09 105.6" class="st3"/>
			</g>
			<g id="shape5-14" transform="translate(56.4409,152.267) rotate(180)">
				<title>工作表.5</title>
				<path d="M0 105.6 L7.09 105.6" class="st3"/>
			</g>
			<g id="shape6-17" transform="translate(49.3543,171.235) rotate(180)">
				<title>工作表.6</title>
				<path d="M0 105.6 L7.09 105.6" class="st3"/>
			</g>
			<g id="shape7-20" transform="translate(-56.2476,81.5074) rotate(-90)">
				<title>工作表.7</title>
				<path d="M0 105.6 L34.84 105.6" class="st3"/>
			</g>
			<g id="shape8-23" transform="translate(170.094,-70.8661)">
				<title>工作表.8</title>
				<desc>生　</desc>
				<rect x="0" y="85.7594" width="41.9843" height="19.8425" class="st1"/>
				<text x="4.99" y="100.66" class="st2">生</text>			</g>
			<g id="shape9-26" transform="translate(170.094,-28.3465)">
				<title>工作表.9</title>
				<desc>滅　</desc>
				<rect x="0" y="85.7594" width="41.9843" height="19.8425" class="st1"/>
				<text x="4.99" y="100.66" class="st2">滅</text>			</g>
			<g id="shape10-29" transform="translate(170.094,0)">
				<title>工作表.10</title>
				<desc>道　</desc>
				<rect x="0" y="85.7594" width="41.9843" height="19.8425" class="st1"/>
				<text x="4.99" y="100.66" class="st2">道</text>			</g>
			<g id="shape11-32" transform="translate(160.701,-18.6753) rotate(18.4349)">
				<title>工作表.11</title>
				<path d="M0 105.6 L44.82 105.6" class="st3"/>
			</g>
			<g id="shape12-35" transform="translate(93.9128,-18.6753) rotate(-18.4349)">
				<title>工作表.12</title>
				<path d="M0 105.6 L44.82 105.6" class="st4"/>
			</g>
			<g id="shape13-38" transform="translate(162.916,-46.7066) rotate(18.9683)">
				<title>工作表.13</title>
				<path d="M0 105.6 L43.6 105.6" class="st3"/>
			</g>
			<g id="shape14-41" transform="translate(70.0132,-34.7051) rotate(-33.6901)">
				<title>工作表.14</title>
				<path d="M0 105.6 L51.1 105.6" class="st3"/>
			</g>
			<g id="shape15-44" transform="translate(240.827,-85.0394)">
				<title>工作表.15</title>
				<desc>苦果</desc>
				<rect x="0" y="85.7594" width="72.0157" height="19.8425" class="st1"/>
				<text x="4.01" y="100.66" class="st2">苦（果）</text>			</g>
			<g id="shape16-47" transform="translate(240.827,-56.6929)">
				<title>工作表.16</title>
				<desc>集因</desc>
				<rect x="0" y="85.7594" width="72.0157" height="19.8425" class="st1"/>
				<text x="4.01" y="100.66" class="st2">集（因）</text>			</g>
			<g id="shape17-50" transform="translate(240.827,-28.3465)">
				<title>工作表.17</title>
				<desc>滅果</desc>
				<rect x="0" y="85.7594" width="72.0157" height="19.8425" class="st1"/>
				<text x="4.01" y="100.66" class="st2">滅（果）</text>			</g>
			<g id="shape18-53" transform="translate(240.827,-3.2685E-13)">
				<title>工作表.18</title>
				<desc>道因</desc>
				<rect x="0" y="85.7594" width="72.0157" height="19.8425" class="st1"/>
				<text x="4.01" y="100.66" class="st2">道（因）</text>			</g>
			<g id="shape19-56" transform="translate(198.173,-38.2677)">
				<title>工作表.19</title>
				<path d="M0 105.6 L42.52 105.6" class="st3"/>
			</g>
			<g id="shape20-59" transform="translate(198.173,-9.92126)">
				<title>工作表.20</title>
				<path d="M0 105.6 L42.52 105.6" class="st3"/>
			</g>
			<g id="shape21-62" transform="translate(231.567,-75.3683) rotate(18.4349)">
				<title>工作表.21</title>
				<path d="M0 105.6 L44.82 105.6" class="st3"/>
			</g>
			<g id="shape22-65" transform="translate(164.779,-75.3683) rotate(-18.4349)">
				<title>工作表.22</title>
				<path d="M0 105.6 L44.82 105.6" class="st3"/>
			</g>
			<g id="shape23-68" transform="translate(354.213,-70.8661)">
				<title>工作表.23</title>
				<desc>世間因果</desc>
				<rect x="0" y="85.7594" width="72.0157" height="19.8425" class="st1"/>
				<text x="4.01" y="100.66" class="st2">世間因果</text>			</g>
			<g id="shape24-71" transform="translate(354.213,-14.1732)">
				<title>工作表.24</title>
				<desc>出世因果</desc>
				<rect x="0" y="85.7594" width="72.0157" height="19.8425" class="st1"/>
				<text x="4.01" y="100.66" class="st2">出世因果</text>			</g>
			<g id="shape25-74" transform="translate(333.484,-34.2046) rotate(15.9454)">
				<title>工作表.25</title>
				<path d="M0 105.6 L51.59 105.6" class="st3"/>
			</g>
			<g id="shape26-77" transform="translate(275.461,-5.85812) rotate(-15.9454)">
				<title>工作表.26</title>
				<path d="M0 105.6 L51.59 105.6" class="st3"/>
			</g>
			<g id="shape27-80" transform="translate(333.484,-90.8975) rotate(15.9454)">
				<title>工作表.27</title>
				<path d="M0 105.6 L51.59 105.6" class="st3"/>
			</g>
			<g id="shape28-83" transform="translate(275.461,-62.551) rotate(-15.9454)">
				<title>工作表.28</title>
				<path d="M0 105.6 L51.59 105.6" class="st3"/>
			</g>
		</g>
	</g>
</svg>
