<?xml version="1.0" encoding="UTF-8" standalone="no"?>
<!DOCTYPE svg PUBLIC "-//W3C//DTD SVG 1.0//EN" "http://www.w3.org/TR/2001/REC-SVG-20010904/DTD/svg10.dtd">
<!-- 由 Microsoft Visio 11.0, SVG Export, v1.0 產生 y08.0011-h.svg Page-1 -->
<svg xmlns="http://www.w3.org/2000/svg" xmlns:xlink="http://www.w3.org/1999/xlink" xmlns:ev="http://www.w3.org/2001/xml-events"
		xmlns:v="http://schemas.microsoft.com/visio/2003/SVGExtensions/" width="4.65386in" height="3.51213in"
		viewBox="0 0 335.078 252.873" xml:space="preserve" color-interpolation-filters="sRGB" class="st8">
	<title>y08.0011</title>
	<v:documentProperties v:langID="1028" v:metric="true" v:viewMarkup="false"/>

	<style type="text/css">
	<![CDATA[
		.st1 {fill:none;stroke:none;stroke-linecap:round;stroke-linejoin:round;stroke-width:0.72}
		.st2 {fill:#000000;font-family:新細明體;font-size:1.33333em}
		.st3 {stroke:#000000;stroke-dasharray:0.72,1.44;stroke-linecap:round;stroke-linejoin:round;stroke-width:0.72}
		.st4 {stroke:#000000;stroke-linecap:round;stroke-linejoin:round;stroke-width:0.72}
		.st5 {stroke:#000000;stroke-dasharray:5.04,3.6;stroke-linecap:round;stroke-linejoin:round;stroke-width:0.72}
		.st6 {stroke:#ffffff;stroke-linecap:round;stroke-linejoin:round;stroke-width:0.72}
		.st7 {stroke:#ffffff;stroke-dasharray:5.04,3.6;stroke-linecap:round;stroke-linejoin:round;stroke-width:0.72}
		.st8 {fill:none;fill-rule:evenodd;font-size:12px;overflow:visible;stroke-linecap:square;stroke-miterlimit:3}
	]]>
	</style>

	<g v:mID="0" v:index="1" v:groupContext="foregroundPage">
		<title>Page-1</title>
		<v:pageProperties v:drawingScale="0.0393701" v:pageScale="0.0393701" v:drawingUnits="24" v:shadowOffsetX="8.50394"
				v:shadowOffsetY="-8.50394" v:shadowType="1"/>
		<g id="shape1-1" v:mID="1" v:groupContext="shape" transform="translate(32.1629,-98.0901)">
			<title>工作表.1</title>
			<desc>中　道</desc>
			<v:textBlock v:margins="rect(4,4,4,4)" v:tabSpace="42.5197"/>
			<v:textRect cx="29.0768" cy="224.527" width="58.16" height="56.6929"/>
			<rect x="0" y="196.18" width="58.1535" height="56.6929" class="st1"/>
			<text x="5.08" y="229.51" class="st2" v:langID="1028"><v:paragraph v:horizAlign="1"/><v:tabList/>中　道</text>		</g>
		<g id="shape2-4" v:mID="2" v:groupContext="shape" transform="translate(244.074,-177.46)">
			<title>工作表.2</title>
			<desc>真　諦</desc>
			<v:textBlock v:margins="rect(4,4,4,4)" v:tabSpace="42.5197"/>
			<v:textRect cx="29.7638" cy="224.527" width="59.53" height="56.6929"/>
			<rect x="0" y="196.18" width="59.5276" height="56.6929" class="st1"/>
			<text x="5.76" y="229.51" class="st2" v:langID="1028"><v:paragraph v:horizAlign="1"/><v:tabList/>真　諦</text>		</g>
		<g id="shape3-7" v:mID="3" v:groupContext="shape" transform="translate(244.031,-18.72)">
			<title>工作表.3</title>
			<desc>解　脫</desc>
			<v:textBlock v:margins="rect(4,4,4,4)" v:tabSpace="42.5197"/>
			<v:textRect cx="29.8071" cy="224.527" width="59.62" height="56.6929"/>
			<rect x="0" y="196.18" width="59.6142" height="56.6929" class="st1"/>
			<text x="5.81" y="229.51" class="st2" v:langID="1028"><v:paragraph v:horizAlign="1"/><v:tabList/>解　脫</text>		</g>
		<g id="shape4-10" v:mID="4" v:groupContext="shape" transform="translate(131.376,-177.46)">
			<title>工作表.4</title>
			<desc>正　見</desc>
			<v:textBlock v:margins="rect(4,4,4,4)" v:tabSpace="42.5197"/>
			<v:textRect cx="29.0768" cy="224.527" width="58.16" height="56.6929"/>
			<rect x="0" y="196.18" width="58.1535" height="56.6929" class="st1"/>
			<text x="5.08" y="229.51" class="st2" v:langID="1028"><v:paragraph v:horizAlign="1"/><v:tabList/>正　見</text>		</g>
		<g id="shape5-13" v:mID="5" v:groupContext="shape" transform="translate(131.376,-154.783)">
			<title>工作表.5</title>
			<desc>正　志</desc>
			<v:textBlock v:margins="rect(4,4,4,4)" v:tabSpace="42.5197"/>
			<v:textRect cx="29.0768" cy="224.527" width="58.16" height="56.6929"/>
			<rect x="0" y="196.18" width="58.1535" height="56.6929" class="st1"/>
			<text x="5.08" y="229.51" class="st2" v:langID="1028"><v:paragraph v:horizAlign="1"/><v:tabList/>正　志</text>		</g>
		<g id="shape6-16" v:mID="6" v:groupContext="shape" transform="translate(131.376,-132.106)">
			<title>工作表.6</title>
			<desc>正　業</desc>
			<v:textBlock v:margins="rect(4,4,4,4)" v:tabSpace="42.5197"/>
			<v:textRect cx="29.0768" cy="224.527" width="58.16" height="56.6929"/>
			<rect x="0" y="196.18" width="58.1535" height="56.6929" class="st1"/>
			<text x="5.08" y="229.51" class="st2" v:langID="1028"><v:paragraph v:horizAlign="1"/><v:tabList/>正　業</text>		</g>
		<g id="shape7-19" v:mID="7" v:groupContext="shape" transform="translate(131.376,-109.429)">
			<title>工作表.7</title>
			<desc>正　語</desc>
			<v:textBlock v:margins="rect(4,4,4,4)" v:tabSpace="42.5197"/>
			<v:textRect cx="29.0768" cy="224.527" width="58.16" height="56.6929"/>
			<rect x="0" y="196.18" width="58.1535" height="56.6929" class="st1"/>
			<text x="5.08" y="229.51" class="st2" v:langID="1028"><v:paragraph v:horizAlign="1"/><v:tabList/>正　語</text>		</g>
		<g id="shape8-22" v:mID="8" v:groupContext="shape" transform="translate(131.376,-86.7515)">
			<title>工作表.8</title>
			<desc>正　命</desc>
			<v:textBlock v:margins="rect(4,4,4,4)" v:tabSpace="42.5197"/>
			<v:textRect cx="29.0768" cy="224.527" width="58.16" height="56.6929"/>
			<rect x="0" y="196.18" width="58.1535" height="56.6929" class="st1"/>
			<text x="5.08" y="229.51" class="st2" v:langID="1028"><v:paragraph v:horizAlign="1"/><v:tabList/>正　命</text>		</g>
		<g id="shape9-25" v:mID="9" v:groupContext="shape" transform="translate(131.376,-64.0743)">
			<title>工作表.9</title>
			<desc>正　勤</desc>
			<v:textBlock v:margins="rect(4,4,4,4)" v:tabSpace="42.5197"/>
			<v:textRect cx="29.0768" cy="224.527" width="58.16" height="56.6929"/>
			<rect x="0" y="196.18" width="58.1535" height="56.6929" class="st1"/>
			<text x="5.08" y="229.51" class="st2" v:langID="1028"><v:paragraph v:horizAlign="1"/><v:tabList/>正　勤</text>		</g>
		<g id="shape10-28" v:mID="10" v:groupContext="shape" transform="translate(131.376,-41.3972)">
			<title>工作表.10</title>
			<desc>正　念</desc>
			<v:textBlock v:margins="rect(4,4,4,4)" v:tabSpace="42.5197"/>
			<v:textRect cx="29.0768" cy="224.527" width="58.16" height="56.6929"/>
			<rect x="0" y="196.18" width="58.1535" height="56.6929" class="st1"/>
			<text x="5.08" y="229.51" class="st2" v:langID="1028"><v:paragraph v:horizAlign="1"/><v:tabList/>正　念</text>		</g>
		<g id="shape11-31" v:mID="11" v:groupContext="shape" transform="translate(131.376,-18.72)">
			<title>工作表.11</title>
			<desc>正　定</desc>
			<v:textBlock v:margins="rect(4,4,4,4)" v:tabSpace="42.5197"/>
			<v:textRect cx="29.0768" cy="224.527" width="58.16" height="56.6929"/>
			<rect x="0" y="196.18" width="58.1535" height="56.6929" class="st1"/>
			<text x="5.08" y="229.51" class="st2" v:langID="1028"><v:paragraph v:horizAlign="1"/><v:tabList/>正　定</text>		</g>
		<g id="group16-34" transform="translate(-64.0743,58.405) rotate(-90)" v:mID="16" v:groupContext="group">
			<title>工作表.16</title>
			<g id="shape12-35" v:mID="12" v:groupContext="shape" transform="translate(-7.99361E-014,-56.6929)">
				<title>工作表.12</title>
				<path d="M0 252.87 L22.68 252.87" class="st3"/>
			</g>
			<g id="shape13-38" v:mID="13" v:groupContext="shape">
				<title>工作表.13</title>
				<path d="M0 252.87 L22.68 252.87" class="st3"/>
			</g>
			<g id="shape14-41" v:mID="14" v:groupContext="shape" transform="translate(275.55,196.18) rotate(90)">
				<title>工作表.14</title>
				<path d="M0 252.87 L56.69 252.87" class="st3"/>
			</g>
			<g id="shape15-44" v:mID="15" v:groupContext="shape" transform="translate(252.873,196.18) rotate(90)">
				<title>工作表.15</title>
				<path d="M0 252.87 L56.69 252.87" class="st3"/>
			</g>
		</g>
		<g id="group17-47" transform="translate(-163.287,137.775) rotate(-90)" v:mID="17" v:groupContext="group">
			<title>工作表.17</title>
			<g id="shape18-48" v:mID="18" v:groupContext="shape" transform="translate(-7.99361E-014,-56.6929)">
				<title>工作表.18</title>
				<path d="M0 252.87 L22.68 252.87" class="st4"/>
			</g>
			<g id="shape19-51" v:mID="19" v:groupContext="shape">
				<title>工作表.19</title>
				<path d="M0 252.87 L22.68 252.87" class="st4"/>
			</g>
			<g id="shape20-54" v:mID="20" v:groupContext="shape" transform="translate(275.55,196.18) rotate(90)">
				<title>工作表.20</title>
				<path d="M0 252.87 L56.69 252.87" class="st4"/>
			</g>
			<g id="shape21-57" v:mID="21" v:groupContext="shape" transform="translate(252.873,196.18) rotate(90)">
				<title>工作表.21</title>
				<path d="M0 252.87 L56.69 252.87" class="st4"/>
			</g>
		</g>
		<g id="group22-60" transform="translate(-64.0743,81.0822) rotate(-90)" v:mID="22" v:groupContext="group">
			<title>工作表.22</title>
			<g id="shape23-61" v:mID="23" v:groupContext="shape" transform="translate(-7.99361E-014,-56.6929)">
				<title>工作表.23</title>
				<path d="M0 252.87 L22.68 252.87" class="st3"/>
			</g>
			<g id="shape24-64" v:mID="24" v:groupContext="shape">
				<title>工作表.24</title>
				<path d="M0 252.87 L22.68 252.87" class="st3"/>
			</g>
			<g id="shape25-67" v:mID="25" v:groupContext="shape" transform="translate(275.55,196.18) rotate(90)">
				<title>工作表.25</title>
				<path d="M0 252.87 L56.69 252.87" class="st3"/>
			</g>
			<g id="shape26-70" v:mID="26" v:groupContext="shape" transform="translate(252.873,196.18) rotate(90)">
				<title>工作表.26</title>
				<path d="M0 252.87 L56.69 252.87" class="st3"/>
			</g>
		</g>
		<g id="group27-73" transform="translate(49.3115,58.405) rotate(-90)" v:mID="27" v:groupContext="group">
			<title>工作表.27</title>
			<g id="shape28-74" v:mID="28" v:groupContext="shape" transform="translate(-7.99361E-014,-56.6929)">
				<title>工作表.28</title>
				<path d="M0 252.87 L22.68 252.87" class="st4"/>
			</g>
			<g id="shape29-77" v:mID="29" v:groupContext="shape">
				<title>工作表.29</title>
				<path d="M0 252.87 L22.68 252.87" class="st4"/>
			</g>
			<g id="shape30-80" v:mID="30" v:groupContext="shape" transform="translate(275.55,196.18) rotate(90)">
				<title>工作表.30</title>
				<path d="M0 252.87 L56.69 252.87" class="st4"/>
			</g>
			<g id="shape31-83" v:mID="31" v:groupContext="shape" transform="translate(252.873,196.18) rotate(90)">
				<title>工作表.31</title>
				<path d="M0 252.87 L56.69 252.87" class="st4"/>
			</g>
		</g>
		<g id="group32-86" transform="translate(49.3115,217.145) rotate(-90)" v:mID="32" v:groupContext="group">
			<title>工作表.32</title>
			<g id="shape33-87" v:mID="33" v:groupContext="shape" transform="translate(-7.99361E-014,-56.6929)">
				<title>工作表.33</title>
				<path d="M0 252.87 L22.68 252.87" class="st4"/>
			</g>
			<g id="shape34-90" v:mID="34" v:groupContext="shape">
				<title>工作表.34</title>
				<path d="M0 252.87 L22.68 252.87" class="st4"/>
			</g>
			<g id="shape35-93" v:mID="35" v:groupContext="shape" transform="translate(275.55,196.18) rotate(90)">
				<title>工作表.35</title>
				<path d="M0 252.87 L56.69 252.87" class="st4"/>
			</g>
			<g id="shape36-96" v:mID="36" v:groupContext="shape" transform="translate(252.873,196.18) rotate(90)">
				<title>工作表.36</title>
				<path d="M0 252.87 L56.69 252.87" class="st4"/>
			</g>
		</g>
		<g id="group37-99" transform="translate(-64.0743,103.759) rotate(-90)" v:mID="37" v:groupContext="group">
			<title>工作表.37</title>
			<g id="shape38-100" v:mID="38" v:groupContext="shape" transform="translate(-7.99361E-014,-56.6929)">
				<title>工作表.38</title>
				<path d="M0 252.87 L22.68 252.87" class="st3"/>
			</g>
			<g id="shape39-103" v:mID="39" v:groupContext="shape">
				<title>工作表.39</title>
				<path d="M0 252.87 L22.68 252.87" class="st3"/>
			</g>
			<g id="shape40-106" v:mID="40" v:groupContext="shape" transform="translate(275.55,196.18) rotate(90)">
				<title>工作表.40</title>
				<path d="M0 252.87 L56.69 252.87" class="st3"/>
			</g>
			<g id="shape41-109" v:mID="41" v:groupContext="shape" transform="translate(252.873,196.18) rotate(90)">
				<title>工作表.41</title>
				<path d="M0 252.87 L56.69 252.87" class="st3"/>
			</g>
		</g>
		<g id="group42-112" transform="translate(-64.0743,126.437) rotate(-90)" v:mID="42" v:groupContext="group">
			<title>工作表.42</title>
			<g id="shape43-113" v:mID="43" v:groupContext="shape" transform="translate(-7.99361E-014,-56.6929)">
				<title>工作表.43</title>
				<path d="M0 252.87 L22.68 252.87" class="st3"/>
			</g>
			<g id="shape44-116" v:mID="44" v:groupContext="shape">
				<title>工作表.44</title>
				<path d="M0 252.87 L22.68 252.87" class="st3"/>
			</g>
			<g id="shape45-119" v:mID="45" v:groupContext="shape" transform="translate(275.55,196.18) rotate(90)">
				<title>工作表.45</title>
				<path d="M0 252.87 L56.69 252.87" class="st3"/>
			</g>
			<g id="shape46-122" v:mID="46" v:groupContext="shape" transform="translate(252.873,196.18) rotate(90)">
				<title>工作表.46</title>
				<path d="M0 252.87 L56.69 252.87" class="st3"/>
			</g>
		</g>
		<g id="group47-125" transform="translate(-64.0743,149.114) rotate(-90)" v:mID="47" v:groupContext="group">
			<title>工作表.47</title>
			<g id="shape48-126" v:mID="48" v:groupContext="shape" transform="translate(-7.99361E-014,-56.6929)">
				<title>工作表.48</title>
				<path d="M0 252.87 L22.68 252.87" class="st3"/>
			</g>
			<g id="shape49-129" v:mID="49" v:groupContext="shape">
				<title>工作表.49</title>
				<path d="M0 252.87 L22.68 252.87" class="st3"/>
			</g>
			<g id="shape50-132" v:mID="50" v:groupContext="shape" transform="translate(275.55,196.18) rotate(90)">
				<title>工作表.50</title>
				<path d="M0 252.87 L56.69 252.87" class="st3"/>
			</g>
			<g id="shape51-135" v:mID="51" v:groupContext="shape" transform="translate(252.873,196.18) rotate(90)">
				<title>工作表.51</title>
				<path d="M0 252.87 L56.69 252.87" class="st3"/>
			</g>
		</g>
		<g id="group52-138" transform="translate(-64.0743,171.791) rotate(-90)" v:mID="52" v:groupContext="group">
			<title>工作表.52</title>
			<g id="shape53-139" v:mID="53" v:groupContext="shape" transform="translate(-7.99361E-014,-56.6929)">
				<title>工作表.53</title>
				<path d="M0 252.87 L22.68 252.87" class="st3"/>
			</g>
			<g id="shape54-142" v:mID="54" v:groupContext="shape">
				<title>工作表.54</title>
				<path d="M0 252.87 L22.68 252.87" class="st3"/>
			</g>
			<g id="shape55-145" v:mID="55" v:groupContext="shape" transform="translate(275.55,196.18) rotate(90)">
				<title>工作表.55</title>
				<path d="M0 252.87 L56.69 252.87" class="st3"/>
			</g>
			<g id="shape56-148" v:mID="56" v:groupContext="shape" transform="translate(252.873,196.18) rotate(90)">
				<title>工作表.56</title>
				<path d="M0 252.87 L56.69 252.87" class="st3"/>
			</g>
		</g>
		<g id="group57-151" transform="translate(-64.0743,194.468) rotate(-90)" v:mID="57" v:groupContext="group">
			<title>工作表.57</title>
			<g id="shape58-152" v:mID="58" v:groupContext="shape" transform="translate(-7.99361E-014,-56.6929)">
				<title>工作表.58</title>
				<path d="M0 252.87 L22.68 252.87" class="st3"/>
			</g>
			<g id="shape59-155" v:mID="59" v:groupContext="shape">
				<title>工作表.59</title>
				<path d="M0 252.87 L22.68 252.87" class="st3"/>
			</g>
			<g id="shape60-158" v:mID="60" v:groupContext="shape" transform="translate(275.55,196.18) rotate(90)">
				<title>工作表.60</title>
				<path d="M0 252.87 L56.69 252.87" class="st3"/>
			</g>
			<g id="shape61-161" v:mID="61" v:groupContext="shape" transform="translate(252.873,196.18) rotate(90)">
				<title>工作表.61</title>
				<path d="M0 252.87 L56.69 252.87" class="st3"/>
			</g>
		</g>
		<g id="group62-164" transform="translate(-64.0743,217.145) rotate(-90)" v:mID="62" v:groupContext="group">
			<title>工作表.62</title>
			<g id="shape63-165" v:mID="63" v:groupContext="shape" transform="translate(-7.99361E-014,-56.6929)">
				<title>工作表.63</title>
				<path d="M0 252.87 L22.68 252.87" class="st3"/>
			</g>
			<g id="shape64-168" v:mID="64" v:groupContext="shape">
				<title>工作表.64</title>
				<path d="M0 252.87 L22.68 252.87" class="st3"/>
			</g>
			<g id="shape65-171" v:mID="65" v:groupContext="shape" transform="translate(275.55,196.18) rotate(90)">
				<title>工作表.65</title>
				<path d="M0 252.87 L56.69 252.87" class="st3"/>
			</g>
			<g id="shape66-174" v:mID="66" v:groupContext="shape" transform="translate(252.873,196.18) rotate(90)">
				<title>工作表.66</title>
				<path d="M0 252.87 L56.69 252.87" class="st3"/>
			</g>
		</g>
		<g id="shape70-177" v:mID="70" v:groupContext="shape" transform="translate(313.315,8.57948) rotate(62.2204)">
			<title>工作表.70</title>
			<path d="M0 252.87 L89.71 252.87" class="st4"/>
		</g>
		<g id="shape71-180" v:mID="71" v:groupContext="shape" transform="translate(-134.143,8.57948) rotate(-62.2204)">
			<title>工作表.71</title>
			<path d="M0 252.87 L89.71 252.87" class="st4"/>
		</g>
		<g id="shape72-183" v:mID="72" v:groupContext="shape" transform="translate(188.799,-205.807)">
			<title>工作表.72</title>
			<path d="M0 252.87 L56.69 252.87" class="st4"/>
		</g>
		<g id="shape67-186" v:mID="67" v:groupContext="shape" transform="translate(188.799,-47.0665)">
			<title>工作表.67</title>
			<path d="M0 252.87 L56.69 252.87" class="st4"/>
		</g>
		<g id="shape68-189" v:mID="68" v:groupContext="shape" transform="translate(426.94,-37.984) rotate(70.3462)">
			<title>工作表.68</title>
			<path d="M0 252.87 L168.56 252.87" class="st5"/>
		</g>
		<g id="shape69-192" v:mID="69" v:groupContext="shape" transform="translate(-49.3424,120.756) rotate(-70.3462)">
			<title>工作表.69</title>
			<path d="M0 252.87 L168.56 252.87" class="st5"/>
		</g>
		<g id="group77-195" transform="translate(63.4847,231.318) rotate(-90)" v:mID="77" v:groupContext="group">
			<title>工作表.77</title>
			<g id="shape73-196" v:mID="73" v:groupContext="shape" transform="translate(209.764,208.108) rotate(180)">
				<title>工作表.73</title>
				<path d="M0 252.87 L209.76 252.87" class="st6"/>
			</g>
			<g id="shape74-199" v:mID="74" v:groupContext="shape" transform="translate(209.764,505.746) rotate(180)">
				<title>工作表.74</title>
				<path d="M0 252.87 L209.76 252.87" class="st6"/>
			</g>
			<g id="shape75-202" v:mID="75" v:groupContext="shape" transform="translate(462.637,-44.7647) rotate(90)">
				<title>工作表.75</title>
				<path d="M0 252.87 L297.64 252.87" class="st7"/>
			</g>
			<g id="shape76-205" v:mID="76" v:groupContext="shape" transform="translate(252.873,-44.7647) rotate(90)">
				<title>工作表.76</title>
				<path d="M0 252.87 L297.64 252.87" class="st7"/>
			</g>
		</g>
	</g>
</svg>
