<?xml version="1.0" encoding="UTF-8" standalone="no"?>
<!DOCTYPE svg PUBLIC "-//W3C//DTD SVG 1.1//EN" "http://www.w3.org/Graphics/SVG/1.1/DTD/svg11.dtd">
<!-- 由 Microsoft Visio, SVG Export 產生 y06.0296-h.svg 頁-1 -->
<svg xmlns="http://www.w3.org/2000/svg" xmlns:xlink="http://www.w3.org/1999/xlink" xmlns:ev="http://www.w3.org/2001/xml-events"
		width="7.44307in" height="8.15961in" viewBox="0 0 535.901 587.492" xml:space="preserve" color-interpolation-filters="sRGB"
		class="st5">
	<title>y06.0296</title>

	<style type="text/css">
	<![CDATA[
		.st1 {fill:none;stroke:none;stroke-linecap:round;stroke-linejoin:round;stroke-width:0.72}
		.st2 {fill:#000000;font-family:新細明體;font-size:1.33333em}
		.st3 {font-size:1em}
		.st4 {stroke:#000000;stroke-linecap:round;stroke-linejoin:round;stroke-width:0.72}
		.st5 {fill:none;fill-rule:evenodd;font-size:12px;overflow:visible;stroke-linecap:square;stroke-miterlimit:3}
	]]>
	</style>

	<g>
		<title>頁-1</title>
		<g id="group33-1" transform="translate(0.36,-0.36)">
			<title>工作表.33</title>
			<g id="shape1-2" transform="translate(56.8406,-566.929)">
				<title>工作表.1</title>
				<desc>不二現行………………………………於所知一向無障轉功德</desc>
				<rect x="0" y="567.649" width="425.37" height="19.8425" class="st1"/>
				<text x="4.69" y="582.55" class="st2">不二現行………………………………於所知一向無障轉功德</text>			</g>
			<g id="shape2-5" transform="translate(56.8406,-538.669)">
				<title>工作表.2</title>
				<desc>趣無相法………………於有無無二相真如最勝清淨能入功德</desc>
				<rect x="0" y="567.649" width="425.37" height="19.8425" class="st1"/>
				<text x="4.69" y="582.55" class="st2">趣無相法………………於有無無二相真如最勝清淨能入功德</text>			</g>
			<g id="shape3-8" transform="translate(56.8406,-510.323)">
				<title>工作表.3</title>
				<desc>住於佛住……………………………無功用佛事不休息住功德</desc>
				<rect x="0" y="567.649" width="425.37" height="19.8425" class="st1"/>
				<text x="4.69" y="582.55" class="st2">住於佛住……………………………無功用佛事不休息住功德</text>			</g>
			<g id="shape4-11" transform="translate(56.8406,-481.803)">
				<title>工作表.4</title>
				<desc>逮得一切佛平等性………於法身中所依意樂作業無差別功德</desc>
				<rect x="0" y="567.649" width="425.37" height="19.8425" class="st1"/>
				<text x="4.69" y="582.55" class="st2">逮得一切佛平等性………於法身中所依意樂作業無差別功德</text>			</g>
			<g id="shape5-14" transform="translate(56.8406,-453.457)">
				<title>工作表.5</title>
				<desc>到無障處……………………………………修一切障對治功德</desc>
				<rect x="0" y="567.649" width="425.37" height="19.8425" class="st1"/>
				<text x="4.69" y="582.55" class="st2">到無障處……………………………………修一切障對治功德</text>			</g>
			<g id="shape6-17" transform="translate(56.8406,-425.283)">
				<title>工作表.6</title>
				<desc>不可轉法……………………………………降伏一切外道功德</desc>
				<rect x="0" y="567.649" width="425.37" height="19.8425" class="st1"/>
				<text x="4.69" y="582.55" class="st2">不可轉法……………………………………降伏一切外道功德</text>			</g>
			<g id="shape7-20" transform="translate(56.8406,-396.937)">
				<title>工作表.7</title>
				<desc>所行無礙…………………………生在世間不為世法所礙功德</desc>
				<rect x="0" y="567.649" width="425.37" height="19.8425" class="st1"/>
				<text x="4.69" y="582.55" class="st2">所行無礙…………………………生在世間不為世法所礙功德</text>			</g>
			<g id="shape8-23" transform="translate(56.8406,-368.417)">
				<title>工作表.8</title>
				<desc>其所安立不可思議………………………………安立正法功德</desc>
				<rect x="0" y="567.649" width="425.37" height="19.8425" class="st1"/>
				<text x="4.69" y="582.55" class="st2">其所安立不可思議………………………………安立正法功德</text>			</g>
			<g id="shape9-26" transform="translate(56.8406,-340.071)">
				<title>工作表.9</title>
				<desc>遊於三世平等法性……………………………………授記功德</desc>
				<rect x="0" y="567.649" width="425.37" height="19.8425" class="st1"/>
				<text x="4.69" y="582.55" class="st2">遊於三世平等法性……………………………………授記功德</text>			</g>
			<g id="shape10-29" transform="translate(56.8406,-311.898)">
				<title>工作表.10</title>
				<desc>其身流布一切世界…………於一切世界示現受用變化身功德</desc>
				<rect x="0" y="567.649" width="425.37" height="19.8425" class="st1"/>
				<text x="4.69" y="582.55" class="st2">其身流布一切世界…………於一切世界示現受用變化身功德</text>			</g>
			<g id="shape11-32" transform="translate(56.8406,-283.551)">
				<title>工作表.11</title>
				<desc>於一切法智無疑滯……………………………………斷疑功德</desc>
				<rect x="0" y="567.649" width="425.37" height="19.8425" class="st1"/>
				<text x="4.69" y="582.55" class="st2">於一切法智無疑滯……………………………………斷疑功德</text>			</g>
			<g id="shape12-35" transform="translate(56.8406,-255.205)">
				<title>工作表.12</title>
				<desc>於一切行成就大覺……………………………令入種種行功德</desc>
				<rect x="0" y="567.649" width="425.37" height="19.8425" class="st1"/>
				<text x="4.69" y="582.55" class="st2">於一切行成就大覺……………………………令入種種行功德</text>			</g>
			<g id="shape13-38" transform="translate(56.8406,-226.685)">
				<title>工作表.13</title>
				<desc>於諸法智無有疑惑…………………………當來法生妙智功德</desc>
				<rect x="0" y="567.649" width="425.37" height="19.8425" class="st1"/>
				<text x="4.69" y="582.55" class="st2">於諸法智無有疑惑…………………………當來法生妙智功德</text>			</g>
			<g id="shape14-41" transform="translate(56.8406,-198.339)">
				<title>工作表.14</title>
				<desc>凡所現身不可分別…………………………如其勝解示現功德</desc>
				<rect x="0" y="567.649" width="425.37" height="19.8425" class="st1"/>
				<text x="4.69" y="582.55" class="st2">凡所現身不可分別…………………………如其勝解示現功德</text>			</g>
			<g id="shape15-44" transform="translate(56.8406,-169.992)">
				<title>工作表.15</title>
				<desc>一切菩薩等所求智………………無量所依調伏有情加行功德</desc>
				<rect x="0" y="567.649" width="425.37" height="19.8425" class="st1"/>
				<text x="4.69" y="582.55" class="st2">一切菩薩等所求智………………無量所依調伏有情加行功德</text>			</g>
			<g id="shape16-47" transform="translate(56.8406,-141.819)">
				<title>工作表.16</title>
				<desc>得佛無二住勝彼岸………………平等法身波羅蜜多成滿功德</desc>
				<rect x="0" y="567.649" width="425.37" height="19.8425" class="st1"/>
				<text x="4.69" y="582.55" class="st2">得佛無二住勝彼岸………………平等法身波羅蜜多成滿功德</text>			</g>
			<g id="shape17-50" transform="translate(56.8406,-113.299)">
				<title>工作表.17</title>
				<desc>不相間雜如來解脫妙智究竟……隨其勝解示現差別佛土功德</desc>
				<rect x="0" y="567.649" width="425.37" height="19.8425" class="st1"/>
				<text x="4.69" y="582.55" class="st2">不相間雜如來解脫妙智究竟……隨其勝解示現差別佛土功德</text>			</g>
			<g id="shape18-53" transform="translate(56.8406,-84.9528)">
				<title>工作表.18</title>
				<desc>證無中邊佛地平等…………………三種佛身方處無分限功德</desc>
				<rect x="0" y="567.649" width="425.37" height="19.8425" class="st1"/>
				<text x="4.69" y="582.55" class="st2">證無中邊佛地平等…………………三種佛身方處無分限功德</text>			</g>
			<g id="shape19-56" transform="translate(56.8406,-56.7795)">
				<title>工作表.19</title>
				<desc>極於法界………………窮生死際常現利益安樂一切有情功德</desc>
				<rect x="0" y="567.649" width="425.37" height="19.8425" class="st1"/>
				<text x="4.69" y="582.55" class="st2">極於法界………………窮生死際常現利益安樂一切有情功德</text>			</g>
			<g id="shape20-59" transform="translate(56.8406,-28.4331)">
				<title>工作表.20</title>
				<desc>盡虛空性………………………………………………無盡功德</desc>
				<rect x="0" y="567.649" width="425.37" height="19.8425" class="st1"/>
				<text x="4.69" y="582.55" class="st2">盡虛空性………………………………………………無盡功德</text>			</g>
			<g id="shape21-62" transform="translate(56.8406,0)">
				<title>工作表.21</title>
				<desc>窮未來際…………………………………………究竟功德</desc>
				<rect x="0" y="567.649" width="425.37" height="19.8425" class="st1"/>
				<text x="4.69" y="582.55" class="st2">窮未來際…………………………………………（究竟功德）</text>			</g>
			<g id="shape22-65" transform="translate(-7.99361E-15,-232.441)">
				<title>工作表.22</title>
				<desc>最清淨覺</desc>
				<rect x="0" y="476.09" width="28.2205" height="111.402" class="st1"/>
				<text x="6.11" y="507.42" class="st2">最<tspan x="6.11" dy="1.2em" class="st3">清</tspan><tspan x="6.11" dy="1.2em"
							class="st3">淨</tspan><tspan x="6.11" dy="1.234em" class="st3">覺</tspan></text>			</g>
			<g id="shape23-71" transform="translate(55.7421,598.046) rotate(180)">
				<title>工作表.23</title>
				<path d="M0 587.49 L14.17 587.49" class="st4"/>
			</g>
			<g id="shape24-74" transform="translate(55.7421,1164.98) rotate(180)">
				<title>工作表.24</title>
				<path d="M0 587.49 L14.17 587.49" class="st4"/>
			</g>
			<g id="shape25-77" transform="translate(41.5689,885.849) rotate(180)">
				<title>工作表.25</title>
				<path d="M0 587.49 L14.17 587.49" class="st4"/>
			</g>
			<g id="shape26-80" transform="translate(-545.923,577.484) rotate(-90)">
				<title>工作表.26</title>
				<path d="M0 587.49 L566.93 587.49" class="st4"/>
			</g>
			<g id="shape27-83" transform="translate(495.112,598.046) rotate(180)">
				<title>工作表.27</title>
				<path d="M0 587.49 L14.17 587.49" class="st4"/>
			</g>
			<g id="shape28-86" transform="translate(495.112,1164.98) rotate(180)">
				<title>工作表.28</title>
				<path d="M0 587.49 L14.17 587.49" class="st4"/>
			</g>
			<g id="shape29-89" transform="translate(509.285,885.849) rotate(180)">
				<title>工作表.29</title>
				<path d="M0 587.49 L14.17 587.49" class="st4"/>
			</g>
			<g id="shape30-92" transform="translate(-92.3794,577.484) rotate(-90)">
				<title>工作表.30</title>
				<path d="M0 587.49 L566.93 587.49" class="st4"/>
			</g>
			<g id="shape31-95" transform="translate(509.937,-208.673)">
				<title>工作表.31</title>
				<desc>世尊二十一種功德</desc>
				<rect x="0" y="426.57" width="25.2441" height="160.921" class="st1"/>
				<text x="4.62" y="444.27" class="st2">世<tspan x="4.62" dy="1.2em" class="st3">尊</tspan><tspan x="4.62" dy="1.2em"
							class="st3">二</tspan><tspan x="4.62" dy="1.2em" class="st3">十</tspan><tspan x="4.62" dy="1.2em"
							class="st3">一</tspan><tspan x="4.62" dy="1.2em" class="st3">種</tspan><tspan x="4.62" dy="1.2em"
							class="st3">功</tspan><tspan x="4.62" dy="1.234em" class="st3">德</tspan></text>			</g>
		</g>
	</g>
</svg>
