<?xml version="1.0" encoding="UTF-8" standalone="no"?>
<!DOCTYPE svg PUBLIC "-//W3C//DTD SVG 1.0//EN" "http://www.w3.org/TR/2001/REC-SVG-20010904/DTD/svg10.dtd">
<!-- 由 Microsoft Visio 11.0, SVG Export, v1.0 產生 y06.0224-h.svg Page-1 -->
<svg xmlns="http://www.w3.org/2000/svg" xmlns:xlink="http://www.w3.org/1999/xlink" xmlns:ev="http://www.w3.org/2001/xml-events"
		xmlns:v="http://schemas.microsoft.com/visio/2003/SVGExtensions/" width="5.24441in" height="2.8822in"
		viewBox="0 0 377.597 207.519" xml:space="preserve" color-interpolation-filters="sRGB" class="st5">
	<title>y06.0224</title>
	<v:documentProperties v:langID="1028" v:metric="true" v:viewMarkup="false"/>

	<style type="text/css">
	<![CDATA[
		.st1 {fill:none;stroke:none;stroke-linecap:round;stroke-linejoin:round;stroke-width:0.72}
		.st2 {fill:#000000;font-family:新細明體;font-size:1.33333em}
		.st3 {stroke:#000000;stroke-linecap:round;stroke-linejoin:round;stroke-width:0.72}
		.st4 {stroke:#ffffff;stroke-linecap:round;stroke-linejoin:round;stroke-width:0.72}
		.st5 {fill:none;fill-rule:evenodd;font-size:12px;overflow:visible;stroke-linecap:square;stroke-miterlimit:3}
	]]>
	</style>

	<g v:mID="0" v:index="1" v:groupContext="foregroundPage">
		<title>Page-1</title>
		<v:pageProperties v:drawingScale="0.0393701" v:pageScale="0.0393701" v:drawingUnits="24" v:shadowOffsetX="8.50394"
				v:shadowOffsetY="-8.50394"/>
		<g id="shape1-1" v:mID="1" v:groupContext="shape" transform="translate(287.692,-139.779)">
			<title>工作表.1</title>
			<desc>根身</desc>
			<v:textBlock v:margins="rect(4,4,4,4)" v:tabSpace="42.5197"/>
			<v:textRect cx="20.9921" cy="186.846" width="41.99" height="41.3465"/>
			<rect x="0" y="166.172" width="41.9843" height="41.3465" class="st1"/>
			<text x="4.99" y="191.83" class="st2" v:langID="1028"><v:paragraph v:horizAlign="1"/><v:tabList/>根身</text>		</g>
		<g id="shape2-4" v:mID="2" v:groupContext="shape" transform="translate(287.692,-111.433)">
			<title>工作表.2</title>
			<desc>種子</desc>
			<v:textBlock v:margins="rect(4,4,4,4)" v:tabSpace="42.5197"/>
			<v:textRect cx="20.9921" cy="186.846" width="41.99" height="41.3465"/>
			<rect x="0" y="166.172" width="41.9843" height="41.3465" class="st1"/>
			<text x="4.99" y="191.83" class="st2" v:langID="1028"><v:paragraph v:horizAlign="1"/><v:tabList/>種子</text>		</g>
		<g id="shape3-7" v:mID="3" v:groupContext="shape" transform="translate(287.437,-75.4129)">
			<title>工作表.3</title>
			<desc>器世間</desc>
			<v:textBlock v:margins="rect(4,4,4,4)" v:tabSpace="42.5197"/>
			<v:textRect cx="28.9213" cy="179.172" width="57.85" height="56.6929"/>
			<rect x="0" y="150.826" width="57.8425" height="56.6929" class="st1"/>
			<text x="4.92" y="184.16" class="st2" v:langID="1028"><v:paragraph v:horizAlign="1"/><v:tabList/>器世間</text>		</g>
		<g id="shape4-10" v:mID="4" v:groupContext="shape" transform="translate(287.692,-54.7397)">
			<title>工作表.4</title>
			<desc>賴耶</desc>
			<v:textBlock v:margins="rect(4,4,4,4)" v:tabSpace="42.5197"/>
			<v:textRect cx="20.9921" cy="186.846" width="41.99" height="41.3465"/>
			<rect x="0" y="166.172" width="41.9843" height="41.3465" class="st1"/>
			<text x="4.99" y="191.83" class="st2" v:langID="1028"><v:paragraph v:horizAlign="1"/><v:tabList/>賴耶</text>		</g>
		<g id="shape5-13" v:mID="5" v:groupContext="shape" transform="translate(287.692,-26.3932)">
			<title>工作表.5</title>
			<desc>六塵</desc>
			<v:textBlock v:margins="rect(4,4,4,4)" v:tabSpace="42.5197"/>
			<v:textRect cx="20.9921" cy="186.846" width="41.99" height="41.3465"/>
			<rect x="0" y="166.172" width="41.9843" height="41.3465" class="st1"/>
			<text x="4.99" y="191.83" class="st2" v:langID="1028"><v:paragraph v:horizAlign="1"/><v:tabList/>六塵</text>		</g>
		<g id="shape6-16" v:mID="6" v:groupContext="shape" transform="translate(273.838,-160.452)">
			<title>工作表.6</title>
			<path d="M0 207.52 L14.17 207.52" class="st3"/>
		</g>
		<g id="shape7-19" v:mID="7" v:groupContext="shape" transform="translate(273.838,-132.106)">
			<title>工作表.7</title>
			<path d="M0 207.52 L14.17 207.52" class="st3"/>
		</g>
		<g id="shape8-22" v:mID="8" v:groupContext="shape" transform="translate(66.3194,75.4129) rotate(-90)">
			<title>工作表.8</title>
			<path d="M0 207.52 L28.35 207.52" class="st3"/>
		</g>
		<g id="shape9-25" v:mID="9" v:groupContext="shape" transform="translate(259.665,-146.279)">
			<title>工作表.9</title>
			<path d="M0 207.52 L14.17 207.52" class="st3"/>
		</g>
		<g id="shape10-28" v:mID="10" v:groupContext="shape" transform="translate(216.826,-125.606)">
			<title>工作表.10</title>
			<desc>執受</desc>
			<v:textBlock v:margins="rect(4,4,4,4)" v:tabSpace="42.5197"/>
			<v:textRect cx="20.9921" cy="186.846" width="41.99" height="41.3465"/>
			<rect x="0" y="166.172" width="41.9843" height="41.3465" class="st1"/>
			<text x="4.99" y="191.83" class="st2" v:langID="1028"><v:paragraph v:horizAlign="1"/><v:tabList/>執受</text>		</g>
		<g id="shape11-31" v:mID="11" v:groupContext="shape" transform="translate(216.826,-83.0861)">
			<title>工作表.11</title>
			<desc>處　</desc>
			<v:textBlock v:margins="rect(4,4,4,4)" v:tabSpace="42.5197"/>
			<v:textRect cx="20.9921" cy="186.846" width="41.99" height="41.3465"/>
			<rect x="0" y="166.172" width="41.9843" height="41.3465" class="st1"/>
			<text x="4.99" y="191.83" class="st2" v:langID="1028"><v:paragraph v:horizAlign="1"/><v:tabList/>處　</text>		</g>
		<g id="shape12-34" v:mID="12" v:groupContext="shape" transform="translate(245.492,-103.759)">
			<title>工作表.12</title>
			<path d="M0 207.52 L42.52 207.52" class="st3"/>
		</g>
		<g id="shape13-37" v:mID="13" v:groupContext="shape" transform="translate(202.972,-103.759)">
			<title>工作表.13</title>
			<path d="M0 207.52 L14.17 207.52" class="st3"/>
		</g>
		<g id="shape14-40" v:mID="14" v:groupContext="shape" transform="translate(202.972,-146.279)">
			<title>工作表.14</title>
			<path d="M0 207.52 L14.17 207.52" class="st3"/>
		</g>
		<g id="shape15-43" v:mID="15" v:groupContext="shape" transform="translate(188.799,-125.019)">
			<title>工作表.15</title>
			<path d="M0 207.52 L14.17 207.52" class="st3"/>
		</g>
		<g id="shape16-46" v:mID="16" v:groupContext="shape" transform="translate(-4.54677,103.759) rotate(-90)">
			<title>工作表.16</title>
			<path d="M0 207.52 L42.52 207.52" class="st3"/>
		</g>
		<g id="shape17-49" v:mID="17" v:groupContext="shape" transform="translate(145.96,-104.614)">
			<title>工作表.17</title>
			<desc>能了</desc>
			<v:textBlock v:margins="rect(4,4,4,4)" v:tabSpace="42.5197"/>
			<v:textRect cx="20.9921" cy="186.846" width="41.99" height="41.3465"/>
			<rect x="0" y="166.172" width="41.9843" height="41.3465" class="st1"/>
			<text x="4.99" y="191.83" class="st2" v:langID="1028"><v:paragraph v:horizAlign="1"/><v:tabList/>能了</text>		</g>
		<g id="shape18-52" v:mID="18" v:groupContext="shape" transform="translate(145.96,-26.3932)">
			<title>工作表.18</title>
			<desc>能了</desc>
			<v:textBlock v:margins="rect(4,4,4,4)" v:tabSpace="42.5197"/>
			<v:textRect cx="20.9921" cy="186.846" width="41.99" height="41.3465"/>
			<rect x="0" y="166.172" width="41.9843" height="41.3465" class="st1"/>
			<text x="4.99" y="191.83" class="st2" v:langID="1028"><v:paragraph v:horizAlign="1"/><v:tabList/>能了</text>		</g>
		<g id="shape19-55" v:mID="19" v:groupContext="shape" transform="translate(145.96,-54.7397)">
			<title>工作表.19</title>
			<desc>能了</desc>
			<v:textBlock v:margins="rect(4,4,4,4)" v:tabSpace="42.5197"/>
			<v:textRect cx="20.9921" cy="186.846" width="41.99" height="41.3465"/>
			<rect x="0" y="166.172" width="41.9843" height="41.3465" class="st1"/>
			<text x="4.99" y="191.83" class="st2" v:langID="1028"><v:paragraph v:horizAlign="1"/><v:tabList/>能了</text>		</g>
		<g id="shape20-58" v:mID="20" v:groupContext="shape" transform="translate(32.5743,-26.3932)">
			<title>工作表.20</title>
			<desc>六識</desc>
			<v:textBlock v:margins="rect(4,4,4,4)" v:tabSpace="42.5197"/>
			<v:textRect cx="20.9921" cy="186.846" width="41.99" height="41.3465"/>
			<rect x="0" y="166.172" width="41.9843" height="41.3465" class="st1"/>
			<text x="4.99" y="191.83" class="st2" v:langID="1028"><v:paragraph v:horizAlign="1"/><v:tabList/>六識</text>		</g>
		<g id="shape21-61" v:mID="21" v:groupContext="shape" transform="translate(33.9917,-46.2357)">
			<title>工作表.21</title>
			<desc>末那識</desc>
			<v:textBlock v:margins="rect(4,4,4,4)" v:tabSpace="42.5197"/>
			<v:textRect cx="28.0787" cy="178.342" width="56.16" height="58.3543"/>
			<rect x="0" y="149.164" width="56.1575" height="58.3543" class="st1"/>
			<text x="4.08" y="183.32" class="st2" v:langID="1028"><v:paragraph v:horizAlign="1"/><v:tabList/>末那識</text>		</g>
		<g id="shape22-64" v:mID="22" v:groupContext="shape" transform="translate(31.8657,-88.6688)">
			<title>工作表.22</title>
			<desc>阿賴耶識</desc>
			<v:textBlock v:margins="rect(4,4,4,4)" v:tabSpace="42.5197"/>
			<v:textRect cx="37.6457" cy="170.901" width="75.3" height="73.2362"/>
			<rect x="0" y="134.283" width="75.2913" height="73.2362" class="st1"/>
			<text x="5.65" y="175.88" class="st2" v:langID="1028"><v:paragraph v:horizAlign="1"/><v:tabList/>阿賴耶識</text>		</g>
		<g id="shape23-67" v:mID="23" v:groupContext="shape" transform="translate(103.759,-125.287)">
			<title>工作表.23</title>
			<path d="M0 207.52 L42.52 207.52" class="st3"/>
		</g>
		<g id="shape24-70" v:mID="24" v:groupContext="shape" transform="translate(89.5861,-75.4129)">
			<title>工作表.24</title>
			<path d="M0 207.52 L56.69 207.52" class="st3"/>
		</g>
		<g id="shape25-73" v:mID="25" v:groupContext="shape" transform="translate(75.4129,-47.0665)">
			<title>工作表.25</title>
			<path d="M0 207.52 L70.87 207.52" class="st3"/>
		</g>
		<g id="shape26-76" v:mID="26" v:groupContext="shape" transform="translate(188.799,-75.4129)">
			<title>工作表.26</title>
			<path d="M0 207.52 L99.21 207.52" class="st3"/>
		</g>
		<g id="shape27-79" v:mID="27" v:groupContext="shape" transform="translate(188.799,-47.0665)">
			<title>工作表.27</title>
			<path d="M0 207.52 L99.21 207.52" class="st3"/>
		</g>
		<g id="group32-82" transform="translate(151.359,188.799) rotate(-90)" v:mID="32" v:groupContext="group">
			<title>工作表.32</title>
			<g id="shape28-83" v:mID="28" v:groupContext="shape" transform="translate(170.079,74.88) rotate(180)">
				<title>工作表.28</title>
				<path d="M0 207.52 L170.08 207.52" class="st4"/>
			</g>
			<g id="shape29-86" v:mID="29" v:groupContext="shape" transform="translate(170.079,415.037) rotate(180)">
				<title>工作表.29</title>
				<path d="M0 207.52 L170.08 207.52" class="st4"/>
			</g>
			<g id="shape30-89" v:mID="30" v:groupContext="shape" transform="translate(377.597,-132.639) rotate(90)">
				<title>工作表.30</title>
				<path d="M0 207.52 L340.16 207.52" class="st4"/>
			</g>
			<g id="shape31-92" v:mID="31" v:groupContext="shape" transform="translate(207.519,-132.639) rotate(90)">
				<title>工作表.31</title>
				<path d="M0 207.52 L340.16 207.52" class="st4"/>
			</g>
		</g>
	</g>
</svg>
