<?xml version="1.0" encoding="UTF-8" standalone="no"?>
<!DOCTYPE svg PUBLIC "-//W3C//DTD SVG 1.0//EN" "http://www.w3.org/TR/2001/REC-SVG-20010904/DTD/svg10.dtd">
<!-- 由 Microsoft Visio 11.0, SVG Export, v1.0 產生 y06.0476-h.svg Page-1 -->
<svg xmlns="http://www.w3.org/2000/svg" xmlns:xlink="http://www.w3.org/1999/xlink" xmlns:ev="http://www.w3.org/2001/xml-events"
		xmlns:v="http://schemas.microsoft.com/visio/2003/SVGExtensions/" width="8.70898in" height="6.07118in"
		viewBox="0 0 627.046 437.125" xml:space="preserve" color-interpolation-filters="sRGB" class="st5">
	<title>y06.0476</title>
	<v:documentProperties v:langID="1028" v:metric="true" v:viewMarkup="false"/>

	<style type="text/css">
	<![CDATA[
		.st1 {fill:none;stroke:none;stroke-linecap:round;stroke-linejoin:round;stroke-width:0.72}
		.st2 {fill:#000000;font-family:新細明體;font-size:1.33333em}
		.st3 {stroke:#000000;stroke-linecap:round;stroke-linejoin:round;stroke-width:0.72}
		.st4 {stroke:#ffffff;stroke-linecap:round;stroke-linejoin:round;stroke-width:0.72}
		.st5 {fill:none;fill-rule:evenodd;font-size:12px;overflow:visible;stroke-linecap:square;stroke-miterlimit:3}
	]]>
	</style>

	<g v:mID="0" v:index="1" v:groupContext="foregroundPage">
		<title>Page-1</title>
		<v:pageProperties v:drawingScale="0.0393701" v:pageScale="0.0393701" v:drawingUnits="24" v:shadowOffsetX="8.50394"
				v:shadowOffsetY="-8.50394"/>
		<g id="shape1-1" v:mID="1" v:groupContext="shape" transform="translate(29.2633,-195.763)">
			<title>工作表.1</title>
			<desc>隨見差別</desc>
			<v:textBlock v:margins="rect(4,4,4,4)" v:tabSpace="42.5197"/>
			<v:textRect cx="36.2283" cy="400.153" width="72.46" height="73.9449"/>
			<rect x="0" y="363.18" width="72.4567" height="73.9449" class="st1"/>
			<text x="4.23" y="405.14" class="st2" v:langID="1028"><v:paragraph v:horizAlign="1"/><v:tabList/>隨見差別</text>		</g>
		<g id="shape2-4" v:mID="2" v:groupContext="shape" transform="translate(29.3854,-153.244)">
			<title>工作表.2</title>
			<desc>隨佛自覺</desc>
			<v:textBlock v:margins="rect(4,4,4,4)" v:tabSpace="42.5197"/>
			<v:textRect cx="36.2283" cy="400.153" width="72.46" height="73.9449"/>
			<rect x="0" y="363.18" width="72.4567" height="73.9449" class="st1"/>
			<text x="4.23" y="405.14" class="st2" v:langID="1028"><v:paragraph v:horizAlign="1"/><v:tabList/>隨佛自覺</text>		</g>
		<g id="shape3-7" v:mID="3" v:groupContext="shape" transform="translate(525.448,-209.937)">
			<title>工作表.3</title>
			<desc>變化無常</desc>
			<v:textBlock v:margins="rect(4,4,4,4)" v:tabSpace="42.5197"/>
			<v:textRect cx="36.2283" cy="400.153" width="72.46" height="73.9449"/>
			<rect x="0" y="363.18" width="72.4567" height="73.9449" class="st1"/>
			<text x="4.23" y="405.14" class="st2" v:langID="1028"><v:paragraph v:horizAlign="1"/><v:tabList/>變化無常</text>		</g>
		<g id="shape4-10" v:mID="4" v:groupContext="shape" transform="translate(525.448,-153.244)">
			<title>工作表.4</title>
			<desc>自性常住</desc>
			<v:textBlock v:margins="rect(4,4,4,4)" v:tabSpace="42.5197"/>
			<v:textRect cx="36.2283" cy="400.153" width="72.46" height="73.9449"/>
			<rect x="0" y="363.18" width="72.4567" height="73.9449" class="st1"/>
			<text x="4.23" y="405.14" class="st2" v:langID="1028"><v:paragraph v:horizAlign="1"/><v:tabList/>自性常住</text>		</g>
		<g id="shape5-13" v:mID="5" v:groupContext="shape" transform="translate(156.2,-103.759)">
			<title>工作表.5</title>
			<desc>變化身…………………………凡夫小乘所見</desc>
			<v:textBlock v:margins="rect(4,4,4,4)" v:tabSpace="42.5197"/>
			<v:textRect cx="157.323" cy="279.802" width="314.65" height="314.646"/>
			<rect x="0" y="122.479" width="314.646" height="314.646" class="st1"/>
			<text x="5.32" y="284.6" class="st2" v:langID="1028"><v:paragraph v:horizAlign="1"/><v:tabList/>變化身…………………………凡夫小乘所見</text>		</g>
		<g id="shape6-16" v:mID="6" v:groupContext="shape" transform="translate(156.2,-75.4129)">
			<title>工作表.6</title>
			<desc>受用身……轉轉識得――大地菩薩所見</desc>
			<v:textBlock v:margins="rect(4,4,4,4)" v:tabSpace="42.5197"/>
			<v:textRect cx="157.323" cy="279.802" width="314.65" height="314.646"/>
			<rect x="0" y="122.479" width="314.646" height="314.646" class="st1"/>
			<text x="5.32" y="284.6" class="st2" v:langID="1028"><v:paragraph v:horizAlign="1"/><v:tabList/>受用身……（轉轉識得）――大地菩薩所見</text>		</g>
		<g id="shape7-19" v:mID="7" v:groupContext="shape" transform="translate(154.783,-88.1688)">
			<title>工作表.7</title>
			<desc>自性法身轉賴耶得――</desc>
			<v:textBlock v:margins="rect(4,4,4,4)" v:tabSpace="42.5197"/>
			<v:textRect cx="117.638" cy="320.905" width="235.28" height="232.441"/>
			<rect x="0" y="204.684" width="235.276" height="232.441" class="st1"/>
			<text x="5.64" y="325.7" class="st2" v:langID="1028"><v:paragraph v:horizAlign="1"/><v:tabList/>自性（法）身（轉賴耶得）――</text>		</g>
		<g id="shape8-22" v:mID="8" v:groupContext="shape" transform="translate(380.137,-159.744)">
			<title>工作表.8</title>
			<desc>唯佛所見</desc>
			<v:textBlock v:margins="rect(4,4,4,4)" v:tabSpace="42.5197"/>
			<v:textRect cx="45.3543" cy="392.479" width="90.71" height="89.2913"/>
			<rect x="0" y="347.834" width="90.7087" height="89.2913" class="st1"/>
			<text x="0.25em 1.64em 3.03em 4.419em" y="397.28" class="st2" v:langID="1028"><v:paragraph v:horizAlign="4"/><v:tabList/>唯佛所見</text>		</g>
		<g id="shape9-25" v:mID="9" v:groupContext="shape" transform="translate(156.2,-18.72)">
			<title>工作表.9</title>
			<desc>法身………轉八識得……………………</desc>
			<v:textBlock v:margins="rect(4,4,4,4)" v:tabSpace="42.5197"/>
			<v:textRect cx="157.323" cy="279.802" width="314.65" height="314.646"/>
			<rect x="0" y="122.479" width="314.646" height="314.646" class="st1"/>
			<text x="5.32" y="284.6" class="st2" v:langID="1028"><v:paragraph v:horizAlign="1"/><v:tabList/>法身………（轉八識得）……………………</text>		</g>
		<g id="shape10-28" v:mID="10" v:groupContext="shape" transform="translate(468.011,-261.082)">
			<title>工作表.10</title>
			<path d="M0 437.13 L7.09 437.13" class="st3"/>
		</g>
		<g id="shape11-31" v:mID="11" v:groupContext="shape" transform="translate(468.011,-232.736)">
			<title>工作表.11</title>
			<path d="M0 437.13 L7.09 437.13" class="st3"/>
		</g>
		<g id="shape12-34" v:mID="12" v:groupContext="shape" transform="translate(468.011,-204.389)">
			<title>工作表.12</title>
			<path d="M0 437.13 L7.09 437.13" class="st3"/>
		</g>
		<g id="shape13-37" v:mID="13" v:groupContext="shape" transform="translate(468.011,-176.043)">
			<title>工作表.13</title>
			<path d="M0 437.13 L7.09 437.13" class="st3"/>
		</g>
		<g id="shape14-40" v:mID="14" v:groupContext="shape" transform="translate(475.098,-190.216)">
			<title>工作表.14</title>
			<path d="M0 437.13 L49.61 437.13" class="st3"/>
		</g>
		<g id="shape15-43" v:mID="15" v:groupContext="shape" transform="translate(475.098,-246.909)">
			<title>工作表.15</title>
			<path d="M0 437.13 L49.61 437.13" class="st3"/>
		</g>
		<g id="shape16-46" v:mID="16" v:groupContext="shape" transform="translate(37.9729,204.389) rotate(-90)">
			<title>工作表.16</title>
			<path d="M0 437.13 L28.35 437.13" class="st3"/>
		</g>
		<g id="shape17-49" v:mID="17" v:groupContext="shape" transform="translate(37.9729,261.082) rotate(-90)">
			<title>工作表.17</title>
			<path d="M0 437.13 L28.35 437.13" class="st3"/>
		</g>
		<g id="shape18-52" v:mID="18" v:groupContext="shape" transform="translate(149.114,-261.082)">
			<title>工作表.18</title>
			<path d="M0 437.13 L7.09 437.13" class="st3"/>
		</g>
		<g id="shape19-55" v:mID="19" v:groupContext="shape" transform="translate(149.114,-205.807)">
			<title>工作表.19</title>
			<path d="M0 437.13 L7.09 437.13" class="st3"/>
		</g>
		<g id="shape20-58" v:mID="20" v:groupContext="shape" transform="translate(149.114,-202.972)">
			<title>工作表.20</title>
			<path d="M0 437.13 L7.09 437.13" class="st3"/>
		</g>
		<g id="shape21-61" v:mID="21" v:groupContext="shape" transform="translate(149.114,-176.043)">
			<title>工作表.21</title>
			<path d="M0 437.13 L7.09 437.13" class="st3"/>
		</g>
		<g id="shape22-64" v:mID="22" v:groupContext="shape" transform="translate(99.5074,-232.736)">
			<title>工作表.22</title>
			<path d="M0 437.13 L49.61 437.13" class="st3"/>
		</g>
		<g id="shape23-67" v:mID="23" v:groupContext="shape" transform="translate(99.5074,-190.216)">
			<title>工作表.23</title>
			<path d="M0 437.13 L49.61 437.13" class="st3"/>
		</g>
		<g id="shape24-70" v:mID="24" v:groupContext="shape" transform="translate(-288.011,261.082) rotate(-90)">
			<title>工作表.24</title>
			<path d="M0 437.13 L26.93 437.13" class="st3"/>
		</g>
		<g id="shape25-73" v:mID="25" v:groupContext="shape" transform="translate(-288.011,231.318) rotate(-90)">
			<title>工作表.25</title>
			<path d="M0 437.13 L55.28 437.13" class="st3"/>
		</g>
		<g id="group30-76" transform="translate(171.201,283.759) rotate(-90)" v:mID="30" v:groupContext="group">
			<title>工作表.30</title>
			<g id="shape26-77" v:mID="26" v:groupContext="shape" transform="translate(6.39488E-014,-589.606)">
				<title>工作表.26</title>
				<path d="M0 437.13 L127.56 437.13" class="st4"/>
			</g>
			<g id="shape27-80" v:mID="27" v:groupContext="shape">
				<title>工作表.27</title>
				<path d="M0 437.13 L127.56 437.13" class="st4"/>
			</g>
			<g id="shape28-83" v:mID="28" v:groupContext="shape" transform="translate(-309.566,437.125) rotate(-90)">
				<title>工作表.28</title>
				<path d="M0 437.13 L589.61 437.13" class="st4"/>
			</g>
			<g id="shape29-86" v:mID="29" v:groupContext="shape" transform="translate(437.125,-152.481) rotate(90)">
				<title>工作表.29</title>
				<path d="M0 437.13 L589.61 437.13" class="st4"/>
			</g>
		</g>
	</g>
</svg>
