<?xml version="1.0" encoding="UTF-8" standalone="no"?>
<!DOCTYPE svg PUBLIC "-//W3C//DTD SVG 1.0//EN" "http://www.w3.org/TR/2001/REC-SVG-20010904/DTD/svg10.dtd">
<!-- 由 Microsoft Visio 11.0, SVG Export, v1.0 產生 y06.0220-h.svg Page-1 -->
<svg xmlns="http://www.w3.org/2000/svg" xmlns:xlink="http://www.w3.org/1999/xlink" xmlns:ev="http://www.w3.org/2001/xml-events"
		xmlns:v="http://schemas.microsoft.com/visio/2003/SVGExtensions/" width="3.66961in" height="2.52262in"
		viewBox="0 0 264.212 181.629" xml:space="preserve" color-interpolation-filters="sRGB" class="st5">
	<title>y06.0220</title>
	<v:documentProperties v:langID="1028" v:metric="true" v:viewMarkup="false"/>

	<style type="text/css">
	<![CDATA[
		.st1 {fill:none;stroke:none;stroke-linecap:round;stroke-linejoin:round;stroke-width:0.72}
		.st2 {fill:#000000;font-family:新細明體;font-size:1.33333em}
		.st3 {stroke:#000000;stroke-linecap:round;stroke-linejoin:round;stroke-width:0.72}
		.st4 {stroke:#ffffff;stroke-linecap:round;stroke-linejoin:round;stroke-width:0.72}
		.st5 {fill:none;fill-rule:evenodd;font-size:12px;overflow:visible;stroke-linecap:square;stroke-miterlimit:3}
	]]>
	</style>

	<g v:mID="0" v:index="1" v:groupContext="foregroundPage">
		<title>Page-1</title>
		<v:pageProperties v:drawingScale="0.0393701" v:pageScale="0.0393701" v:drawingUnits="24" v:shadowOffsetX="8.50394"
				v:shadowOffsetY="-8.50394"/>
		<g id="shape1-1" v:mID="1" v:groupContext="shape" transform="translate(25.2436,-69.8302)">
			<title>工作表.1</title>
			<desc>本識</desc>
			<v:textBlock v:margins="rect(4,4,4,4)" v:tabSpace="42.5197"/>
			<v:textRect cx="20.6378" cy="160.601" width="41.28" height="42.0551"/>
			<rect x="0" y="139.574" width="41.2756" height="42.0551" class="st1"/>
			<text x="4.64" y="165.58" class="st2" v:langID="1028"><v:paragraph v:horizAlign="1"/><v:tabList/>本識</text>		</g>
		<g id="shape2-4" v:mID="2" v:groupContext="shape" transform="translate(96.3539,-89.7594)">
			<title>工作表.2</title>
			<desc>所取相</desc>
			<v:textBlock v:margins="rect(4,4,4,4)" v:tabSpace="42.5197"/>
			<v:textRect cx="28.4331" cy="152.097" width="56.87" height="59.063"/>
			<rect x="0" y="122.566" width="56.8661" height="59.063" class="st1"/>
			<text x="4.43" y="157.08" class="st2" v:langID="1028"><v:paragraph v:horizAlign="1"/><v:tabList/>所取相</text>		</g>
		<g id="shape3-7" v:mID="3" v:groupContext="shape" transform="translate(96.3539,-33.0665)">
			<title>工作表.3</title>
			<desc>能取相</desc>
			<v:textBlock v:margins="rect(4,4,4,4)" v:tabSpace="42.5197"/>
			<v:textRect cx="28.4331" cy="152.097" width="56.87" height="59.063"/>
			<rect x="0" y="122.566" width="56.8661" height="59.063" class="st1"/>
			<text x="4.43" y="157.08" class="st2" v:langID="1028"><v:paragraph v:horizAlign="1"/><v:tabList/>能取相</text>		</g>
		<g id="shape4-10" v:mID="4" v:groupContext="shape" transform="translate(66.909,-90.8578)">
			<title>工作表.4</title>
			<path d="M0 181.63 L14.17 181.63" class="st3"/>
		</g>
		<g id="shape5-13" v:mID="5" v:groupContext="shape" transform="translate(81.0822,-119.204)">
			<title>工作表.5</title>
			<path d="M0 181.63 L14.17 181.63" class="st3"/>
		</g>
		<g id="shape6-16" v:mID="6" v:groupContext="shape" transform="translate(81.0822,-62.5113)">
			<title>工作表.6</title>
			<path d="M0 181.63 L14.17 181.63" class="st3"/>
		</g>
		<g id="shape7-19" v:mID="7" v:groupContext="shape" transform="translate(-100.547,119.118) rotate(-90)">
			<title>工作表.7</title>
			<path d="M0 181.63 L56.69 181.63" class="st3"/>
		</g>
		<g id="shape8-22" v:mID="8" v:groupContext="shape" transform="translate(181.393,-103.846)">
			<title>工作表.8</title>
			<desc>似根識</desc>
			<v:textBlock v:margins="rect(4,4,4,4)" v:tabSpace="42.5197"/>
			<v:textRect cx="28.4331" cy="152.097" width="56.87" height="59.063"/>
			<rect x="0" y="122.566" width="56.8661" height="59.063" class="st1"/>
			<text x="4.43" y="157.08" class="st2" v:langID="1028"><v:paragraph v:horizAlign="1"/><v:tabList/>似根識</text>		</g>
		<g id="shape9-25" v:mID="9" v:groupContext="shape" transform="translate(181.393,-75.5861)">
			<title>工作表.9</title>
			<desc>似塵識</desc>
			<v:textBlock v:margins="rect(4,4,4,4)" v:tabSpace="42.5197"/>
			<v:textRect cx="28.4331" cy="152.097" width="56.87" height="59.063"/>
			<rect x="0" y="122.566" width="56.8661" height="59.063" class="st1"/>
			<text x="4.43" y="157.08" class="st2" v:langID="1028"><v:paragraph v:horizAlign="1"/><v:tabList/>似塵識</text>		</g>
		<g id="shape10-28" v:mID="10" v:groupContext="shape" transform="translate(181.393,-47.2397)">
			<title>工作表.10</title>
			<desc>似我識</desc>
			<v:textBlock v:margins="rect(4,4,4,4)" v:tabSpace="42.5197"/>
			<v:textRect cx="28.4331" cy="152.097" width="56.87" height="59.063"/>
			<rect x="0" y="122.566" width="56.8661" height="59.063" class="st1"/>
			<text x="4.43" y="157.08" class="st2" v:langID="1028"><v:paragraph v:horizAlign="1"/><v:tabList/>似我識</text>		</g>
		<g id="shape11-31" v:mID="11" v:groupContext="shape" transform="translate(181.393,-18.72)">
			<title>工作表.11</title>
			<desc>似識識</desc>
			<v:textBlock v:margins="rect(4,4,4,4)" v:tabSpace="42.5197"/>
			<v:textRect cx="28.4331" cy="152.097" width="56.87" height="59.063"/>
			<rect x="0" y="122.566" width="56.8661" height="59.063" class="st1"/>
			<text x="4.43" y="157.08" class="st2" v:langID="1028"><v:paragraph v:horizAlign="1"/><v:tabList/>似識識</text>		</g>
		<g id="shape12-34" v:mID="12" v:groupContext="shape" transform="translate(166.122,244.054) rotate(180)">
			<title>工作表.12</title>
			<path d="M0 181.63 L14.17 181.63" class="st3"/>
		</g>
		<g id="shape13-37" v:mID="13" v:groupContext="shape" transform="translate(166.122,300.747) rotate(180)">
			<title>工作表.13</title>
			<path d="M0 181.63 L14.17 181.63" class="st3"/>
		</g>
		<g id="shape14-40" v:mID="14" v:groupContext="shape" transform="translate(180.295,258.054) rotate(180)">
			<title>工作表.14</title>
			<path d="M0 181.63 L14.17 181.63" class="st3"/>
		</g>
		<g id="shape15-43" v:mID="15" v:groupContext="shape" transform="translate(180.295,229.707) rotate(180)">
			<title>工作表.15</title>
			<path d="M0 181.63 L14.17 181.63" class="st3"/>
		</g>
		<g id="shape16-46" v:mID="16" v:groupContext="shape" transform="translate(180.295,286.573) rotate(180)">
			<title>工作表.16</title>
			<path d="M0 181.63 L14.17 181.63" class="st3"/>
		</g>
		<g id="shape17-49" v:mID="17" v:groupContext="shape" transform="translate(180.295,314.92) rotate(180)">
			<title>工作表.17</title>
			<path d="M0 181.63 L14.17 181.63" class="st3"/>
		</g>
		<g id="shape18-52" v:mID="18" v:groupContext="shape" transform="translate(-15.5074,133.291) rotate(-90)">
			<title>工作表.18</title>
			<path d="M0 181.63 L28.35 181.63" class="st3"/>
		</g>
		<g id="shape19-55" v:mID="19" v:groupContext="shape" transform="translate(-15.5074,76.4247) rotate(-90)">
			<title>工作表.19</title>
			<path d="M0 181.63 L28.35 181.63" class="st3"/>
		</g>
		<g id="group24-58" transform="translate(63.8627,153.177) rotate(-90)" v:mID="24" v:groupContext="group">
			<title>工作表.24</title>
			<g id="shape20-59" v:mID="20" v:groupContext="shape" transform="translate(124.648,136.486) rotate(180)">
				<title>工作表.20</title>
				<path d="M0 181.63 L124.65 181.63" class="st4"/>
			</g>
			<g id="shape21-62" v:mID="21" v:groupContext="shape" transform="translate(124.724,363.258) rotate(180)">
				<title>工作表.21</title>
				<path d="M0 181.63 L124.65 181.63" class="st4"/>
			</g>
			<g id="shape22-65" v:mID="22" v:groupContext="shape" transform="translate(181.629,-45.2037) rotate(89.9808)">
				<title>工作表.22</title>
				<path d="M0 181.63 L226.77 181.63" class="st4"/>
			</g>
			<g id="shape23-68" v:mID="23" v:groupContext="shape" transform="translate(306.277,-45.2037) rotate(89.9808)">
				<title>工作表.23</title>
				<path d="M0 181.63 L226.77 181.63" class="st4"/>
			</g>
		</g>
	</g>
</svg>
